<svg width="19" height="18" viewBox="0 0 19 18" fill="none" xmlns="http://www.w3.org/2000/svg">
<mask id="path-1-inside-1_2_333" fill="white">
<path d="M0 4C0 1.79086 1.79086 0 4 0H14.8369C17.0461 0 18.8369 1.79086 18.8369 4V13.9968C18.8369 16.2059 17.0461 17.9968 14.8369 17.9968H4C1.79086 17.9968 0 16.2059 0 13.9968V4Z"/>
</mask>
<path d="M4 1H14.8369V-1H4V1ZM17.8369 4V13.9968H19.8369V4H17.8369ZM14.8369 16.9968H4V18.9968H14.8369V16.9968ZM1 13.9968V4H-1V13.9968H1ZM4 16.9968C2.34315 16.9968 1 15.6536 1 13.9968H-1C-1 16.7582 1.23858 18.9968 4 18.9968V16.9968ZM17.8369 13.9968C17.8369 15.6536 16.4938 16.9968 14.8369 16.9968V18.9968C17.5983 18.9968 19.8369 16.7582 19.8369 13.9968H17.8369ZM14.8369 1C16.4938 1 17.8369 2.34315 17.8369 4H19.8369C19.8369 1.23858 17.5983 -1 14.8369 -1V1ZM4 -1C1.23858 -1 -1 1.23857 -1 4H1C1 2.34314 2.34315 1 4 1V-1Z" fill="white" mask="url(#path-1-inside-1_2_333)"/>
<path d="M1 11.5H18" stroke="white" stroke-linecap="round"/>
<path d="M12.5 12V17" stroke="white" stroke-linecap="round"/>
</svg>
