<svg width="15" height="13" viewBox="0 0 15 13" fill="none" xmlns="http://www.w3.org/2000/svg">
<path d="M14.7253 7.1558C15.0916 6.79308 15.0916 6.20402 14.7253 5.84129L10.9751 2.12701C10.6089 1.76429 10.0142 1.76429 9.64793 2.12701C9.2817 2.48973 9.2817 3.07879 9.64793 3.44152L11.7984 5.57143H5.62527C5.10669 5.57143 4.68773 5.98638 4.68773 6.5C4.68773 7.01362 5.10669 7.42857 5.62527 7.42857H11.7984L9.64793 9.55848C9.2817 9.9212 9.2817 10.5103 9.64793 10.873C10.0142 11.2357 10.6089 11.2357 10.9751 10.873L14.7253 7.15871V7.1558ZM4.68773 1.85714C5.20631 1.85714 5.62527 1.44219 5.62527 0.928571C5.62527 0.414955 5.20631 0 4.68773 0H2.81264C1.25983 0 0 1.24777 0 2.78571V10.2143C0 11.7522 1.25983 13 2.81264 13H4.68773C5.20631 13 5.62527 12.585 5.62527 12.0714C5.62527 11.5578 5.20631 11.1429 4.68773 11.1429H2.81264C2.29406 11.1429 1.87509 10.7279 1.87509 10.2143V2.78571C1.87509 2.2721 2.29406 1.85714 2.81264 1.85714H4.68773Z" fill="white"/>
</svg>
