<svg width="19" height="15" viewBox="0 0 19 15" fill="none" xmlns="http://www.w3.org/2000/svg">
<path d="M3.35 3.75C3.35 2.8902 3.69605 2.06425 4.3142 1.45424C4.93257 0.843997 5.77266 0.5 6.65 0.5C7.52734 0.5 8.36742 0.843997 8.9858 1.45424C9.60395 2.06425 9.95 2.8902 9.95 3.75C9.95 4.6098 9.60395 5.43575 8.9858 6.04576C8.36742 6.656 7.52734 7 6.65 7C5.77266 7 4.93257 6.656 4.3142 6.04576C3.69605 5.43575 3.35 4.6098 3.35 3.75ZM0.5 14.1299C0.5 11.5265 2.63894 9.40625 5.29328 9.40625H8.00672C10.6611 9.40625 12.8 11.5265 12.8 14.1299C12.8 14.328 12.6353 14.5 12.4183 14.5H0.881719C0.664722 14.5 0.5 14.328 0.5 14.1299ZM18.0886 14.5H14.7088C14.7357 14.3586 14.75 14.2124 14.75 14.0625V13.8281C14.75 12.3343 14.2273 10.9593 13.3553 9.875H14.2114C16.5867 9.875 18.5 11.7726 18.5 14.1006C18.5 14.3152 18.3215 14.5 18.0886 14.5ZM12.825 7C12.1906 7 11.6069 6.79443 11.1355 6.44783C11.621 5.66143 11.9 4.73734 11.9 3.75C11.9 3.04695 11.758 2.37488 11.4999 1.76206C11.8956 1.55521 12.346 1.4375 12.825 1.4375C14.3928 1.4375 15.65 2.68764 15.65 4.21875C15.65 5.74986 14.3928 7 12.825 7Z" stroke="white"/>
</svg>
