<svg width="18" height="18" viewBox="0 0 18 18" fill="none" xmlns="http://www.w3.org/2000/svg">
<path d="M17.4843 6.03992L17.3911 5.80103C17.2588 5.49434 17.1066 5.1967 16.936 4.90636L16.7654 4.62905C16.534 4.26584 16.2741 3.92157 15.9889 3.59628L16.3649 3.26665M17.4843 6.03992L0.515375 6.04074C0.66864 5.64998 0.853666 5.27418 1.0677 4.90985L1.23834 4.63261C1.46975 4.26939 1.72962 3.9251 2.01483 3.5998L2.01624 3.59819C2.09003 3.5133 2.24235 3.45997 2.40906 3.50998L2.40923 3.51003L4.48684 4.13242L4.72358 4.20334L4.92371 4.05833C5.38909 3.7211 5.90333 3.43938 6.45231 3.22647L6.69876 3.13089L6.75856 2.8734L7.22471 0.866014C7.22472 0.865969 7.22473 0.865923 7.22474 0.865878C7.25388 0.741099 7.35518 0.641903 7.49258 0.620784L7.49258 0.620808L7.49752 0.62C7.98446 0.540166 8.48703 0.5 9.00186 0.5C9.51668 0.5 10.0204 0.540163 10.5095 0.617014L10.5111 0.617267C10.6484 0.638371 10.7497 0.737431 10.7789 0.862073C10.7789 0.862082 10.7789 0.86209 10.7789 0.862099C10.779 0.862232 10.779 0.862365 10.779 0.862498L11.2452 2.86989L11.305 3.12738L11.5514 3.22296C12.1004 3.43587 12.6146 3.71758 13.08 4.05481L13.2801 4.19982L13.5169 4.1289L15.5945 3.50651L15.5947 3.50646C15.7577 3.45755 15.9133 3.51048 15.9898 3.59728L16.3649 3.26665M17.4843 6.03992C17.5183 6.12717 17.4994 6.24749 17.3882 6.34166L17.3858 6.34368M17.4843 6.03992L17.3858 6.34368M16.3649 3.26665C16.1448 3.017 15.7792 2.92909 15.451 3.02754L17.1892 4.36374C16.943 3.97695 16.667 3.61125 16.3649 3.26665ZM17.3858 6.34368L15.7708 7.72911L15.5631 7.90726M17.3858 6.34368L15.5631 7.90726M15.5631 7.90726L15.6012 8.17822M15.5631 7.90726L15.6012 8.17822M15.6012 8.17822C15.6391 8.44837 15.6597 8.72397 15.6597 9.00176C15.6597 9.27955 15.6391 9.55515 15.6012 9.82529L15.5631 10.0963M15.6012 8.17822L15.5631 10.0963M15.5631 10.0963L15.7708 10.2744M15.5631 10.0963L15.7708 10.2744M15.7708 10.2744L17.3858 11.6598L17.3882 11.6618M15.7708 10.2744L17.3882 11.6618M17.3882 11.6618C17.4994 11.756 17.5183 11.8763 17.4843 11.9636L17.9501 12.1453L17.4846 11.9628C17.3314 12.3536 17.1463 12.7294 16.9323 13.0937L17.3882 11.6618ZM15.4473 14.9725C15.7755 15.0709 16.1411 14.9865 16.3611 14.7333C16.6633 14.3887 16.9393 14.0231 17.1855 13.6363M15.4473 14.9725L17.1855 13.6363M15.4473 14.9725L13.3697 14.3501L15.4473 14.9725ZM17.1855 13.6363L16.7636 13.3678C16.763 13.3688 16.7623 13.3698 16.7617 13.3709L16.7596 13.3742L17.1855 13.6363ZM1.0677 13.0972C0.853775 12.733 0.668828 12.3574 0.51561 11.9669L1.0677 13.0972ZM1.0677 13.0972L1.06504 13.0929L0.639236 13.355L1.0702 13.1014C1.06937 13.1 1.06853 13.0986 1.0677 13.0972ZM1.63887 3.27017C1.85894 3.017 2.22448 2.9326 2.55272 3.03106L1.63887 3.27017ZM10.7753 17.1375C10.7753 17.1376 10.7752 17.1377 10.7752 17.1378L10.7752 17.1379L11.2622 17.251L10.7753 17.1375ZM6.73403 17.251L7.22107 17.1379L7.22097 17.1375L6.73403 17.251ZM2.40906 14.4971C2.40893 14.4971 2.4088 14.4971 2.40866 14.4972L2.40825 14.4973L2.55272 14.976L2.40906 14.4971ZM0.814545 13.6398L1.24035 13.3777L1.23835 13.3744C1.23769 13.3734 1.23702 13.3724 1.23636 13.3713L0.814545 13.6398ZM9.00186 12.3148C9.91667 12.3148 10.7995 11.9725 11.4548 11.3547C12.1112 10.736 12.4859 9.89027 12.4859 9.00176C12.4859 8.11325 12.1112 7.26754 11.4548 6.64881C10.7995 6.03102 9.91667 5.68871 9.00186 5.68871C8.08706 5.68871 7.20422 6.03102 6.54889 6.64881C5.89256 7.26754 5.51788 8.11325 5.51788 9.00176C5.51788 9.89027 5.89256 10.736 6.54889 11.3547C7.20422 11.9725 8.08706 12.3148 9.00186 12.3148Z" stroke="white"/>
</svg>
