<svg width="19" height="22" viewBox="0 0 19 22" fill="none" xmlns="http://www.w3.org/2000/svg">
<path fill-rule="evenodd" clip-rule="evenodd" d="M11 2.5C11 3.32843 10.3284 4 9.5 4C8.67157 4 8 3.32843 8 2.5C8 1.67157 8.67157 1 9.5 1C10.3284 1 11 1.67157 11 2.5ZM11.5002 4C11.814 3.58217 12 3.0628 12 2.5C12 1.11929 10.8807 0 9.5 0C8.11929 0 7 1.11929 7 2.5C7 3.0628 7.18597 3.58217 7.49982 4H4C1.79086 4 0 5.79086 0 8V17.9968C0 20.2059 1.79086 21.9968 4 21.9968H14.8369C17.0461 21.9968 18.8369 20.2059 18.8369 17.9968V8C18.8369 5.79086 17.0461 4 14.8369 4H11.5002ZM9.5 5H4C2.34315 5 1 6.34314 1 8V17.9968C1 19.6536 2.34315 20.9968 4 20.9968H14.8369C16.4938 20.9968 17.8369 19.6536 17.8369 17.9968V8C17.8369 6.34315 16.4938 5 14.8369 5H9.5ZM4.5 10C4.5 9.72386 4.72386 9.5 5 9.5H14C14.2761 9.5 14.5 9.72386 14.5 10C14.5 10.2761 14.2761 10.5 14 10.5H5C4.72386 10.5 4.5 10.2761 4.5 10ZM5 12.5C4.72386 12.5 4.5 12.7239 4.5 13C4.5 13.2761 4.72386 13.5 5 13.5H14C14.2761 13.5 14.5 13.2761 14.5 13C14.5 12.7239 14.2761 12.5 14 12.5H5ZM4.5 16C4.5 15.7239 4.72386 15.5 5 15.5H14C14.2761 15.5 14.5 15.7239 14.5 16C14.5 16.2761 14.2761 16.5 14 16.5H5C4.72386 16.5 4.5 16.2761 4.5 16Z" fill="white"/>
</svg>
