<svg width="30" height="26" viewBox="0 0 30 26" fill="none" xmlns="http://www.w3.org/2000/svg">
<g filter="url(#filter0_d_2_344)">
<mask id="path-1-inside-1_2_344" fill="white">
<path fill-rule="evenodd" clip-rule="evenodd" d="M11.7346 2.1176C11.7346 0.948075 13.0333 0 14.6352 0C16.2371 0 17.5357 0.948075 17.5357 2.1176H18.3372C21.0986 2.1176 23.3372 4.35617 23.3372 7.1176V7.41189C24.4051 7.41204 25.2707 8.83414 25.2707 10.5884C25.2707 12.3427 24.405 13.7649 23.337 13.7649C23.3177 13.7649 23.2985 13.7644 23.2793 13.7635C22.9117 16.1625 20.839 18 18.3372 18H10.9338C8.43197 18 6.3593 16.1625 5.99174 13.7634C5.97246 13.7644 5.95312 13.7649 5.93371 13.7649C4.86575 13.7649 4 12.3427 4 10.5884C4 8.83405 4.86575 7.41189 5.93371 7.41189C5.93375 7.41189 5.93379 7.41189 5.93382 7.41189V7.11759C5.93382 4.35617 8.1724 2.1176 10.9338 2.1176H11.7346Z"/>
</mask>
<path d="M11.7346 2.1176V3.1176H12.7346L12.7346 2.11763L11.7346 2.1176ZM17.5357 2.1176L16.5357 2.11763L16.5358 3.1176H17.5357V2.1176ZM23.3372 7.41189H22.3372V8.41175L23.3371 8.41189L23.3372 7.41189ZM23.2793 13.7635L23.3274 12.7646L22.4273 12.7213L22.2908 13.612L23.2793 13.7635ZM5.99174 13.7634L6.98021 13.612L6.8437 12.721L5.94336 12.7646L5.99174 13.7634ZM5.93382 7.41189V8.41189H6.93382V7.41189H5.93382ZM14.6352 -1C13.6449 -1 12.7081 -0.708381 11.9945 -0.187434C11.2818 0.332932 10.7346 1.13575 10.7346 2.11756L12.7346 2.11763C12.7346 1.92992 12.8368 1.67394 13.1738 1.42789C13.5101 1.18242 14.0235 1 14.6352 1V-1ZM18.5357 2.11756C18.5357 1.13575 17.9886 0.332932 17.2758 -0.187434C16.5622 -0.708381 15.6254 -1 14.6352 -1V1C15.2469 1 15.7603 1.18242 16.0965 1.42789C16.4335 1.67394 16.5357 1.92992 16.5357 2.11763L18.5357 2.11756ZM18.3372 1.1176H17.5357V3.1176H18.3372V1.1176ZM24.3372 7.1176C24.3372 3.80389 21.6509 1.1176 18.3372 1.1176V3.1176C20.5463 3.1176 22.3372 4.90846 22.3372 7.1176H24.3372ZM24.3372 7.41189V7.1176H22.3372V7.41189H24.3372ZM26.2707 10.5884C26.2707 9.55862 26.0187 8.57824 25.5586 7.8224C25.1093 7.08428 24.3533 6.41203 23.3373 6.41189L23.3371 8.41189C23.389 8.4119 23.5997 8.45078 23.8502 8.86231C24.0899 9.25611 24.2707 9.8639 24.2707 10.5884H26.2707ZM23.337 14.7649C24.3531 14.7649 25.1092 14.0926 25.5585 13.3545C26.0187 12.5986 26.2707 11.6182 26.2707 10.5884H24.2707C24.2707 11.3129 24.0899 11.9207 23.8502 12.3145C23.5997 12.726 23.3889 12.7649 23.337 12.7649V14.7649ZM23.2312 14.7623C23.2662 14.764 23.3015 14.7649 23.337 14.7649V12.7649C23.3339 12.7649 23.3307 12.7648 23.3274 12.7646L23.2312 14.7623ZM18.3372 19C21.3403 19 23.8265 16.7946 24.2677 13.9149L22.2908 13.612C21.9969 15.5304 20.3378 17 18.3372 17V19ZM10.9338 19H18.3372V17H10.9338V19ZM5.00327 13.9149C5.44448 16.7946 7.93069 19 10.9338 19V17C8.93326 17 7.27412 15.5304 6.98021 13.612L5.00327 13.9149ZM5.94336 12.7646C5.94008 12.7648 5.93687 12.7649 5.93371 12.7649V14.7649C5.96937 14.7649 6.00485 14.764 6.04012 14.7623L5.94336 12.7646ZM5.93371 12.7649C5.88182 12.7649 5.67106 12.726 5.42054 12.3145C5.18082 11.9207 5 11.3129 5 10.5884H3C3 11.6182 3.25206 12.5986 3.7122 13.3545C4.16154 14.0926 4.91764 14.7649 5.93371 14.7649V12.7649ZM5 10.5884C5 9.86386 5.18082 9.25605 5.42055 8.86225C5.67106 8.45072 5.88182 8.41189 5.93371 8.41189V6.41189C4.91764 6.41189 4.16154 7.08414 3.7122 7.82227C3.25206 8.57813 3 9.55856 3 10.5884H5ZM5.93371 8.41189C5.93371 8.41189 5.93371 8.41189 5.93371 8.41189C5.93371 8.41189 5.93371 8.41189 5.93371 8.41189C5.93371 8.41189 5.93371 8.41189 5.93371 8.41189C5.93371 8.41189 5.93371 8.41189 5.93371 8.41189C5.93371 8.41189 5.93371 8.41189 5.93371 8.41189C5.93371 8.41189 5.93371 8.41189 5.93371 8.41189C5.93371 8.41189 5.93371 8.41189 5.93371 8.41189C5.93371 8.41189 5.93371 8.41189 5.93371 8.41189C5.93371 8.41189 5.93371 8.41189 5.93371 8.41189C5.93371 8.41189 5.93371 8.41189 5.93371 8.41189C5.93371 8.41189 5.93371 8.41189 5.93371 8.41189C5.93371 8.41189 5.93371 8.41189 5.93371 8.41189C5.93371 8.41189 5.93371 8.41189 5.93371 8.41189C5.93371 8.41189 5.93371 8.41189 5.93371 8.41189C5.93371 8.41189 5.93371 8.41189 5.93371 8.41189C5.93371 8.41189 5.93371 8.41189 5.93371 8.41189C5.93371 8.41189 5.93371 8.41189 5.93371 8.41189C5.93371 8.41189 5.93371 8.41189 5.93371 8.41189C5.93371 8.41189 5.93371 8.41189 5.93371 8.41189C5.93371 8.41189 5.93371 8.41189 5.93371 8.41189C5.93371 8.41189 5.93371 8.41189 5.93371 8.41189C5.93371 8.41189 5.93371 8.41189 5.93371 8.41189C5.93371 8.41189 5.93371 8.41189 5.93371 8.41189C5.93371 8.41189 5.93371 8.41189 5.93371 8.41189C5.93371 8.41189 5.93371 8.41189 5.93371 8.41189C5.93371 8.41189 5.93371 8.41189 5.93371 8.41189C5.93371 8.41189 5.93371 8.41189 5.93371 8.41189C5.93371 8.41189 5.93371 8.41189 5.93371 8.41189C5.93372 8.41189 5.93372 8.41189 5.93372 8.41189C5.93372 8.41189 5.93372 8.41189 5.93372 8.41189C5.93372 8.41189 5.93372 8.41189 5.93372 8.41189C5.93372 8.41189 5.93372 8.41189 5.93372 8.41189C5.93372 8.41189 5.93372 8.41189 5.93372 8.41189C5.93372 8.41189 5.93372 8.41189 5.93372 8.41189C5.93372 8.41189 5.93372 8.41189 5.93372 8.41189C5.93372 8.41189 5.93372 8.41189 5.93372 8.41189C5.93372 8.41189 5.93372 8.41189 5.93372 8.41189C5.93372 8.41189 5.93372 8.41189 5.93372 8.41189C5.93372 8.41189 5.93372 8.41189 5.93372 8.41189C5.93372 8.41189 5.93372 8.41189 5.93372 8.41189C5.93372 8.41189 5.93372 8.41189 5.93372 8.41189C5.93372 8.41189 5.93372 8.41189 5.93372 8.41189C5.93372 8.41189 5.93372 8.41189 5.93372 8.41189C5.93372 8.41189 5.93372 8.41189 5.93372 8.41189C5.93372 8.41189 5.93372 8.41189 5.93372 8.41189C5.93372 8.41189 5.93372 8.41189 5.93372 8.41189C5.93372 8.41189 5.93372 8.41189 5.93372 8.41189C5.93372 8.41189 5.93372 8.41189 5.93372 8.41189C5.93372 8.41189 5.93372 8.41189 5.93372 8.41189C5.93372 8.41189 5.93372 8.41189 5.93372 8.41189C5.93372 8.41189 5.93372 8.41189 5.93372 8.41189C5.93372 8.41189 5.93372 8.41189 5.93372 8.41189C5.93372 8.41189 5.93372 8.41189 5.93372 8.41189C5.93372 8.41189 5.93372 8.41189 5.93372 8.41189C5.93372 8.41189 5.93372 8.41189 5.93372 8.41189C5.93372 8.41189 5.93372 8.41189 5.93372 8.41189C5.93372 8.41189 5.93372 8.41189 5.93372 8.41189C5.93372 8.41189 5.93372 8.41189 5.93372 8.41189C5.93372 8.41189 5.93372 8.41189 5.93372 8.41189C5.93372 8.41189 5.93372 8.41189 5.93372 8.41189C5.93372 8.41189 5.93372 8.41189 5.93372 8.41189C5.93372 8.41189 5.93372 8.41189 5.93372 8.41189C5.93372 8.41189 5.93372 8.41189 5.93372 8.41189C5.93372 8.41189 5.93372 8.41189 5.93372 8.41189C5.93372 8.41189 5.93372 8.41189 5.93372 8.41189C5.93372 8.41189 5.93372 8.41189 5.93372 8.41189C5.93372 8.41189 5.93372 8.41189 5.93372 8.41189C5.93372 8.41189 5.93372 8.41189 5.93372 8.41189C5.93372 8.41189 5.93372 8.41189 5.93372 8.41189C5.93372 8.41189 5.93372 8.41189 5.93372 8.41189C5.93372 8.41189 5.93372 8.41189 5.93372 8.41189C5.93372 8.41189 5.93372 8.41189 5.93372 8.41189C5.93372 8.41189 5.93372 8.41189 5.93373 8.41189C5.93373 8.41189 5.93373 8.41189 5.93373 8.41189C5.93373 8.41189 5.93373 8.41189 5.93373 8.41189C5.93373 8.41189 5.93373 8.41189 5.93373 8.41189C5.93373 8.41189 5.93373 8.41189 5.93373 8.41189C5.93373 8.41189 5.93373 8.41189 5.93373 8.41189C5.93373 8.41189 5.93373 8.41189 5.93373 8.41189C5.93373 8.41189 5.93373 8.41189 5.93373 8.41189C5.93373 8.41189 5.93373 8.41189 5.93373 8.41189C5.93373 8.41189 5.93373 8.41189 5.93373 8.41189C5.93373 8.41189 5.93373 8.41189 5.93373 8.41189C5.93373 8.41189 5.93373 8.41189 5.93373 8.41189C5.93373 8.41189 5.93373 8.41189 5.93373 8.41189C5.93373 8.41189 5.93373 8.41189 5.93373 8.41189C5.93373 8.41189 5.93373 8.41189 5.93373 8.41189C5.93373 8.41189 5.93373 8.41189 5.93373 8.41189C5.93373 8.41189 5.93373 8.41189 5.93373 8.41189C5.93373 8.41189 5.93373 8.41189 5.93373 8.41189C5.93373 8.41189 5.93373 8.41189 5.93373 8.41189C5.93373 8.41189 5.93373 8.41189 5.93373 8.41189C5.93373 8.41189 5.93373 8.41189 5.93373 8.41189C5.93373 8.41189 5.93373 8.41189 5.93373 8.41189C5.93373 8.41189 5.93373 8.41189 5.93373 8.41189C5.93373 8.41189 5.93373 8.41189 5.93373 8.41189C5.93373 8.41189 5.93373 8.41189 5.93373 8.41189C5.93373 8.41189 5.93373 8.41189 5.93373 8.41189C5.93373 8.41189 5.93373 8.41189 5.93373 8.41189C5.93373 8.41189 5.93373 8.41189 5.93373 8.41189C5.93373 8.41189 5.93373 8.41189 5.93373 8.41189C5.93373 8.41189 5.93373 8.41189 5.93373 8.41189C5.93373 8.41189 5.93373 8.41189 5.93373 8.41189C5.93373 8.41189 5.93373 8.41189 5.93373 8.41189C5.93373 8.41189 5.93373 8.41189 5.93373 8.41189C5.93373 8.41189 5.93373 8.41189 5.93373 8.41189C5.93373 8.41189 5.93373 8.41189 5.93373 8.41189C5.93373 8.41189 5.93373 8.41189 5.93373 8.41189C5.93373 8.41189 5.93373 8.41189 5.93373 8.41189C5.93373 8.41189 5.93373 8.41189 5.93373 8.41189C5.93373 8.41189 5.93373 8.41189 5.93373 8.41189C5.93373 8.41189 5.93373 8.41189 5.93373 8.41189C5.93373 8.41189 5.93373 8.41189 5.93373 8.41189C5.93373 8.41189 5.93373 8.41189 5.93373 8.41189C5.93373 8.41189 5.93373 8.41189 5.93373 8.41189C5.93373 8.41189 5.93373 8.41189 5.93373 8.41189C5.93373 8.41189 5.93373 8.41189 5.93373 8.41189C5.93373 8.41189 5.93374 8.41189 5.93374 8.41189C5.93374 8.41189 5.93374 8.41189 5.93374 8.41189C5.93374 8.41189 5.93374 8.41189 5.93374 8.41189C5.93374 8.41189 5.93374 8.41189 5.93374 8.41189C5.93374 8.41189 5.93374 8.41189 5.93374 8.41189C5.93374 8.41189 5.93374 8.41189 5.93374 8.41189C5.93374 8.41189 5.93374 8.41189 5.93374 8.41189C5.93374 8.41189 5.93374 8.41189 5.93374 8.41189C5.93374 8.41189 5.93374 8.41189 5.93374 8.41189C5.93374 8.41189 5.93374 8.41189 5.93374 8.41189C5.93374 8.41189 5.93374 8.41189 5.93374 8.41189C5.93374 8.41189 5.93374 8.41189 5.93374 8.41189C5.93374 8.41189 5.93374 8.41189 5.93374 8.41189C5.93374 8.41189 5.93374 8.41189 5.93374 8.41189C5.93374 8.41189 5.93374 8.41189 5.93374 8.41189C5.93374 8.41189 5.93374 8.41189 5.93374 8.41189C5.93374 8.41189 5.93374 8.41189 5.93374 8.41189C5.93374 8.41189 5.93374 8.41189 5.93374 8.41189C5.93374 8.41189 5.93374 8.41189 5.93374 8.41189C5.93374 8.41189 5.93374 8.41189 5.93374 8.41189C5.93374 8.41189 5.93374 8.41189 5.93374 8.41189C5.93374 8.41189 5.93374 8.41189 5.93374 8.41189C5.93374 8.41189 5.93374 8.41189 5.93374 8.41189C5.93374 8.41189 5.93374 8.41189 5.93374 8.41189C5.93374 8.41189 5.93374 8.41189 5.93374 8.41189C5.93374 8.41189 5.93374 8.41189 5.93374 8.41189C5.93374 8.41189 5.93374 8.41189 5.93374 8.41189C5.93374 8.41189 5.93374 8.41189 5.93374 8.41189C5.93374 8.41189 5.93374 8.41189 5.93374 8.41189C5.93374 8.41189 5.93374 8.41189 5.93374 8.41189C5.93374 8.41189 5.93374 8.41189 5.93374 8.41189C5.93374 8.41189 5.93374 8.41189 5.93374 8.41189C5.93374 8.41189 5.93374 8.41189 5.93374 8.41189C5.93374 8.41189 5.93374 8.41189 5.93374 8.41189C5.93374 8.41189 5.93374 8.41189 5.93374 8.41189C5.93374 8.41189 5.93374 8.41189 5.93374 8.41189C5.93374 8.41189 5.93374 8.41189 5.93374 8.41189C5.93374 8.41189 5.93374 8.41189 5.93374 8.41189C5.93374 8.41189 5.93374 8.41189 5.93374 8.41189C5.93374 8.41189 5.93374 8.41189 5.93374 8.41189C5.93374 8.41189 5.93374 8.41189 5.93374 8.41189C5.93374 8.41189 5.93374 8.41189 5.93374 8.41189C5.93374 8.41189 5.93374 8.41189 5.93374 8.41189C5.93374 8.41189 5.93374 8.41189 5.93374 8.41189C5.93374 8.41189 5.93374 8.41189 5.93375 8.41189C5.93375 8.41189 5.93375 8.41189 5.93375 8.41189C5.93375 8.41189 5.93375 8.41189 5.93375 8.41189C5.93375 8.41189 5.93375 8.41189 5.93375 8.41189C5.93375 8.41189 5.93375 8.41189 5.93375 8.41189C5.93375 8.41189 5.93375 8.41189 5.93375 8.41189C5.93375 8.41189 5.93375 8.41189 5.93375 8.41189C5.93375 8.41189 5.93375 8.41189 5.93375 8.41189C5.93375 8.41189 5.93375 8.41189 5.93375 8.41189C5.93375 8.41189 5.93375 8.41189 5.93375 8.41189C5.93375 8.41189 5.93375 8.41189 5.93375 8.41189C5.93375 8.41189 5.93375 8.41189 5.93375 8.41189C5.93375 8.41189 5.93375 8.41189 5.93375 8.41189C5.93375 8.41189 5.93375 8.41189 5.93375 8.41189C5.93375 8.41189 5.93375 8.41189 5.93375 8.41189C5.93375 8.41189 5.93375 8.41189 5.93375 8.41189C5.93375 8.41189 5.93375 8.41189 5.93375 8.41189C5.93375 8.41189 5.93375 8.41189 5.93375 8.41189C5.93375 8.41189 5.93375 8.41189 5.93375 8.41189C5.93375 8.41189 5.93375 8.41189 5.93375 8.41189C5.93375 8.41189 5.93375 8.41189 5.93375 8.41189C5.93375 8.41189 5.93375 8.41189 5.93375 8.41189C5.93375 8.41189 5.93375 8.41189 5.93375 8.41189C5.93375 8.41189 5.93375 8.41189 5.93375 8.41189C5.93375 8.41189 5.93375 8.41189 5.93375 8.41189C5.93375 8.41189 5.93375 8.41189 5.93375 8.41189C5.93375 8.41189 5.93375 8.41189 5.93375 8.41189C5.93375 8.41189 5.93375 8.41189 5.93375 8.41189C5.93375 8.41189 5.93375 8.41189 5.93375 8.41189C5.93375 8.41189 5.93375 8.41189 5.93375 8.41189C5.93375 8.41189 5.93375 8.41189 5.93375 8.41189C5.93375 8.41189 5.93375 8.41189 5.93375 8.41189C5.93375 8.41189 5.93375 8.41189 5.93375 8.41189C5.93375 8.41189 5.93375 8.41189 5.93375 8.41189C5.93375 8.41189 5.93375 8.41189 5.93375 8.41189C5.93375 8.41189 5.93375 8.41189 5.93375 8.41189C5.93375 8.41189 5.93375 8.41189 5.93375 8.41189C5.93375 8.41189 5.93375 8.41189 5.93375 8.41189C5.93375 8.41189 5.93375 8.41189 5.93375 8.41189C5.93375 8.41189 5.93375 8.41189 5.93375 8.41189C5.93375 8.41189 5.93375 8.41189 5.93375 8.41189C5.93375 8.41189 5.93375 8.41189 5.93375 8.41189C5.93375 8.41189 5.93375 8.41189 5.93375 8.41189C5.93375 8.41189 5.93375 8.41189 5.93375 8.41189C5.93375 8.41189 5.93375 8.41189 5.93375 8.41189C5.93375 8.41189 5.93376 8.41189 5.93376 8.41189C5.93376 8.41189 5.93376 8.41189 5.93376 8.41189C5.93376 8.41189 5.93376 8.41189 5.93376 8.41189C5.93376 8.41189 5.93376 8.41189 5.93376 8.41189C5.93376 8.41189 5.93376 8.41189 5.93376 8.41189C5.93376 8.41189 5.93376 8.41189 5.93376 8.41189C5.93376 8.41189 5.93376 8.41189 5.93376 8.41189C5.93376 8.41189 5.93376 8.41189 5.93376 8.41189C5.93376 8.41189 5.93376 8.41189 5.93376 8.41189C5.93376 8.41189 5.93376 8.41189 5.93376 8.41189C5.93376 8.41189 5.93376 8.41189 5.93376 8.41189C5.93376 8.41189 5.93376 8.41189 5.93376 8.41189C5.93376 8.41189 5.93376 8.41189 5.93376 8.41189C5.93376 8.41189 5.93376 8.41189 5.93376 8.41189C5.93376 8.41189 5.93376 8.41189 5.93376 8.41189C5.93376 8.41189 5.93376 8.41189 5.93376 8.41189C5.93376 8.41189 5.93376 8.41189 5.93376 8.41189C5.93376 8.41189 5.93376 8.41189 5.93376 8.41189C5.93376 8.41189 5.93376 8.41189 5.93376 8.41189C5.93376 8.41189 5.93376 8.41189 5.93376 8.41189C5.93376 8.41189 5.93376 8.41189 5.93376 8.41189C5.93376 8.41189 5.93376 8.41189 5.93376 8.41189C5.93376 8.41189 5.93376 8.41189 5.93376 8.41189C5.93376 8.41189 5.93376 8.41189 5.93376 8.41189C5.93376 8.41189 5.93376 8.41189 5.93376 8.41189C5.93376 8.41189 5.93376 8.41189 5.93376 8.41189C5.93376 8.41189 5.93376 8.41189 5.93376 8.41189C5.93376 8.41189 5.93376 8.41189 5.93376 8.41189C5.93376 8.41189 5.93376 8.41189 5.93376 8.41189C5.93376 8.41189 5.93376 8.41189 5.93376 8.41189C5.93376 8.41189 5.93376 8.41189 5.93376 8.41189C5.93376 8.41189 5.93376 8.41189 5.93376 8.41189C5.93376 8.41189 5.93376 8.41189 5.93376 8.41189C5.93376 8.41189 5.93376 8.41189 5.93376 8.41189C5.93376 8.41189 5.93376 8.41189 5.93376 8.41189C5.93376 8.41189 5.93376 8.41189 5.93376 8.41189C5.93376 8.41189 5.93376 8.41189 5.93376 8.41189C5.93376 8.41189 5.93376 8.41189 5.93376 8.41189C5.93376 8.41189 5.93376 8.41189 5.93376 8.41189C5.93376 8.41189 5.93376 8.41189 5.93376 8.41189C5.93376 8.41189 5.93376 8.41189 5.93376 8.41189C5.93376 8.41189 5.93376 8.41189 5.93376 8.41189C5.93376 8.41189 5.93376 8.41189 5.93376 8.41189C5.93376 8.41189 5.93376 8.41189 5.93376 8.41189C5.93376 8.41189 5.93376 8.41189 5.93377 8.41189C5.93377 8.41189 5.93377 8.41189 5.93377 8.41189C5.93377 8.41189 5.93377 8.41189 5.93377 8.41189C5.93377 8.41189 5.93377 8.41189 5.93377 8.41189C5.93377 8.41189 5.93377 8.41189 5.93377 8.41189C5.93377 8.41189 5.93377 8.41189 5.93377 8.41189C5.93377 8.41189 5.93377 8.41189 5.93377 8.41189C5.93377 8.41189 5.93377 8.41189 5.93377 8.41189C5.93377 8.41189 5.93377 8.41189 5.93377 8.41189C5.93377 8.41189 5.93377 8.41189 5.93377 8.41189C5.93377 8.41189 5.93377 8.41189 5.93377 8.41189C5.93377 8.41189 5.93377 8.41189 5.93377 8.41189C5.93377 8.41189 5.93377 8.41189 5.93377 8.41189C5.93377 8.41189 5.93377 8.41189 5.93377 8.41189C5.93377 8.41189 5.93377 8.41189 5.93377 8.41189C5.93377 8.41189 5.93377 8.41189 5.93377 8.41189C5.93377 8.41189 5.93377 8.41189 5.93377 8.41189C5.93377 8.41189 5.93377 8.41189 5.93377 8.41189C5.93377 8.41189 5.93377 8.41189 5.93377 8.41189C5.93377 8.41189 5.93377 8.41189 5.93377 8.41189C5.93377 8.41189 5.93377 8.41189 5.93377 8.41189C5.93377 8.41189 5.93377 8.41189 5.93377 8.41189C5.93377 8.41189 5.93377 8.41189 5.93377 8.41189C5.93377 8.41189 5.93377 8.41189 5.93377 8.41189C5.93377 8.41189 5.93377 8.41189 5.93377 8.41189C5.93377 8.41189 5.93377 8.41189 5.93377 8.41189C5.93377 8.41189 5.93377 8.41189 5.93377 8.41189C5.93377 8.41189 5.93377 8.41189 5.93377 8.41189C5.93377 8.41189 5.93377 8.41189 5.93377 8.41189C5.93377 8.41189 5.93377 8.41189 5.93377 8.41189C5.93377 8.41189 5.93377 8.41189 5.93377 8.41189C5.93377 8.41189 5.93377 8.41189 5.93377 8.41189C5.93377 8.41189 5.93377 8.41189 5.93377 8.41189C5.93377 8.41189 5.93377 8.41189 5.93377 8.41189C5.93377 8.41189 5.93377 8.41189 5.93377 8.41189C5.93377 8.41189 5.93377 8.41189 5.93377 8.41189C5.93377 8.41189 5.93377 8.41189 5.93377 8.41189C5.93377 8.41189 5.93377 8.41189 5.93377 8.41189C5.93377 8.41189 5.93377 8.41189 5.93377 8.41189C5.93377 8.41189 5.93377 8.41189 5.93377 8.41189C5.93377 8.41189 5.93377 8.41189 5.93377 8.41189C5.93377 8.41189 5.93377 8.41189 5.93377 8.41189C5.93377 8.41189 5.93377 8.41189 5.93377 8.41189C5.93377 8.41189 5.93377 8.41189 5.93377 8.41189C5.93377 8.41189 5.93377 8.41189 5.93377 8.41189C5.93377 8.41189 5.93378 8.41189 5.93378 8.41189C5.93378 8.41189 5.93378 8.41189 5.93378 8.41189C5.93378 8.41189 5.93378 8.41189 5.93378 8.41189C5.93378 8.41189 5.93378 8.41189 5.93378 8.41189C5.93378 8.41189 5.93378 8.41189 5.93378 8.41189C5.93378 8.41189 5.93378 8.41189 5.93378 8.41189C5.93378 8.41189 5.93378 8.41189 5.93378 8.41189C5.93378 8.41189 5.93378 8.41189 5.93378 8.41189C5.93378 8.41189 5.93378 8.41189 5.93378 8.41189C5.93378 8.41189 5.93378 8.41189 5.93378 8.41189C5.93378 8.41189 5.93378 8.41189 5.93378 8.41189C5.93378 8.41189 5.93378 8.41189 5.93378 8.41189C5.93378 8.41189 5.93378 8.41189 5.93378 8.41189C5.93378 8.41189 5.93378 8.41189 5.93378 8.41189C5.93378 8.41189 5.93378 8.41189 5.93378 8.41189C5.93378 8.41189 5.93378 8.41189 5.93378 8.41189C5.93378 8.41189 5.93378 8.41189 5.93378 8.41189C5.93378 8.41189 5.93378 8.41189 5.93378 8.41189C5.93378 8.41189 5.93378 8.41189 5.93378 8.41189C5.93378 8.41189 5.93378 8.41189 5.93378 8.41189C5.93378 8.41189 5.93378 8.41189 5.93378 8.41189C5.93378 8.41189 5.93378 8.41189 5.93378 8.41189C5.93378 8.41189 5.93378 8.41189 5.93378 8.41189C5.93378 8.41189 5.93378 8.41189 5.93378 8.41189C5.93378 8.41189 5.93378 8.41189 5.93378 8.41189C5.93378 8.41189 5.93378 8.41189 5.93378 8.41189C5.93378 8.41189 5.93378 8.41189 5.93378 8.41189C5.93378 8.41189 5.93378 8.41189 5.93378 8.41189C5.93378 8.41189 5.93378 8.41189 5.93378 8.41189C5.93378 8.41189 5.93378 8.41189 5.93378 8.41189C5.93378 8.41189 5.93378 8.41189 5.93378 8.41189C5.93378 8.41189 5.93378 8.41189 5.93378 8.41189C5.93378 8.41189 5.93378 8.41189 5.93378 8.41189C5.93378 8.41189 5.93378 8.41189 5.93378 8.41189C5.93378 8.41189 5.93378 8.41189 5.93378 8.41189C5.93378 8.41189 5.93378 8.41189 5.93378 8.41189C5.93378 8.41189 5.93378 8.41189 5.93378 8.41189C5.93378 8.41189 5.93378 8.41189 5.93378 8.41189C5.93378 8.41189 5.93378 8.41189 5.93378 8.41189C5.93378 8.41189 5.93378 8.41189 5.93378 8.41189C5.93378 8.41189 5.93378 8.41189 5.93378 8.41189C5.93378 8.41189 5.93378 8.41189 5.93378 8.41189C5.93378 8.41189 5.93378 8.41189 5.93378 8.41189C5.93378 8.41189 5.93378 8.41189 5.93378 8.41189C5.93378 8.41189 5.93378 8.41189 5.93378 8.41189C5.93379 8.41189 5.93379 8.41189 5.93379 8.41189C5.93379 8.41189 5.93379 8.41189 5.93379 8.41189C5.93379 8.41189 5.93379 8.41189 5.93379 8.41189C5.93379 8.41189 5.93379 8.41189 5.93379 8.41189C5.93379 8.41189 5.93379 8.41189 5.93379 8.41189C5.93379 8.41189 5.93379 8.41189 5.93379 8.41189C5.93379 8.41189 5.93379 8.41189 5.93379 8.41189C5.93379 8.41189 5.93379 8.41189 5.93379 8.41189C5.93379 8.41189 5.93379 8.41189 5.93379 8.41189C5.93379 8.41189 5.93379 8.41189 5.93379 8.41189C5.93379 8.41189 5.93379 8.41189 5.93379 8.41189C5.93379 8.41189 5.93379 8.41189 5.93379 8.41189C5.93379 8.41189 5.93379 8.41189 5.93379 8.41189C5.93379 8.41189 5.93379 8.41189 5.93379 8.41189C5.93379 8.41189 5.93379 8.41189 5.93379 8.41189C5.93379 8.41189 5.93379 8.41189 5.93379 8.41189C5.93379 8.41189 5.93379 8.41189 5.93379 8.41189C5.93379 8.41189 5.93379 8.41189 5.93379 8.41189C5.93379 8.41189 5.93379 8.41189 5.93379 8.41189C5.93379 8.41189 5.93379 8.41189 5.93379 8.41189C5.93379 8.41189 5.93379 8.41189 5.93379 8.41189C5.93379 8.41189 5.93379 8.41189 5.93379 8.41189C5.93379 8.41189 5.93379 8.41189 5.93379 8.41189C5.93379 8.41189 5.93379 8.41189 5.93379 8.41189C5.93379 8.41189 5.93379 8.41189 5.93379 8.41189C5.93379 8.41189 5.93379 8.41189 5.93379 8.41189C5.93379 8.41189 5.93379 8.41189 5.93379 8.41189C5.93379 8.41189 5.93379 8.41189 5.93379 8.41189C5.93379 8.41189 5.93379 8.41189 5.93379 8.41189C5.93379 8.41189 5.93379 8.41189 5.93379 8.41189C5.93379 8.41189 5.93379 8.41189 5.93379 8.41189C5.93379 8.41189 5.93379 8.41189 5.93379 8.41189C5.93379 8.41189 5.93379 8.41189 5.93379 8.41189C5.93379 8.41189 5.93379 8.41189 5.93379 8.41189C5.93379 8.41189 5.93379 8.41189 5.93379 8.41189C5.93379 8.41189 5.93379 8.41189 5.93379 8.41189C5.93379 8.41189 5.93379 8.41189 5.93379 8.41189C5.93379 8.41189 5.93379 8.41189 5.93379 8.41189C5.93379 8.41189 5.93379 8.41189 5.93379 8.41189C5.93379 8.41189 5.93379 8.41189 5.93379 8.41189C5.93379 8.41189 5.93379 8.41189 5.93379 8.41189C5.93379 8.41189 5.93379 8.41189 5.93379 8.41189C5.93379 8.41189 5.93379 8.41189 5.93379 8.41189C5.93379 8.41189 5.93379 8.41189 5.93379 8.41189C5.93379 8.41189 5.9338 8.41189 5.9338 8.41189C5.9338 8.41189 5.9338 8.41189 5.9338 8.41189C5.9338 8.41189 5.9338 8.41189 5.9338 8.41189C5.9338 8.41189 5.9338 8.41189 5.9338 8.41189C5.9338 8.41189 5.9338 8.41189 5.9338 8.41189C5.9338 8.41189 5.9338 8.41189 5.9338 8.41189C5.9338 8.41189 5.9338 8.41189 5.9338 8.41189C5.9338 8.41189 5.9338 8.41189 5.9338 8.41189C5.9338 8.41189 5.9338 8.41189 5.9338 8.41189C5.9338 8.41189 5.9338 8.41189 5.9338 8.41189C5.9338 8.41189 5.9338 8.41189 5.9338 8.41189C5.9338 8.41189 5.9338 8.41189 5.9338 8.41189C5.9338 8.41189 5.9338 8.41189 5.9338 8.41189C5.9338 8.41189 5.9338 8.41189 5.9338 8.41189C5.9338 8.41189 5.9338 8.41189 5.9338 8.41189C5.9338 8.41189 5.9338 8.41189 5.9338 8.41189C5.9338 8.41189 5.9338 8.41189 5.9338 8.41189C5.9338 8.41189 5.9338 8.41189 5.9338 8.41189C5.9338 8.41189 5.9338 8.41189 5.9338 8.41189C5.9338 8.41189 5.9338 8.41189 5.9338 8.41189C5.9338 8.41189 5.9338 8.41189 5.9338 8.41189C5.9338 8.41189 5.9338 8.41189 5.9338 8.41189C5.9338 8.41189 5.9338 8.41189 5.9338 8.41189C5.9338 8.41189 5.9338 8.41189 5.9338 8.41189C5.9338 8.41189 5.9338 8.41189 5.9338 8.41189C5.9338 8.41189 5.9338 8.41189 5.9338 8.41189C5.9338 8.41189 5.9338 8.41189 5.9338 8.41189C5.9338 8.41189 5.9338 8.41189 5.9338 8.41189C5.9338 8.41189 5.9338 8.41189 5.9338 8.41189C5.9338 8.41189 5.9338 8.41189 5.9338 8.41189C5.9338 8.41189 5.9338 8.41189 5.9338 8.41189C5.9338 8.41189 5.9338 8.41189 5.9338 8.41189C5.9338 8.41189 5.9338 8.41189 5.9338 8.41189C5.9338 8.41189 5.9338 8.41189 5.9338 8.41189C5.9338 8.41189 5.9338 8.41189 5.9338 8.41189C5.9338 8.41189 5.9338 8.41189 5.9338 8.41189C5.9338 8.41189 5.9338 8.41189 5.9338 8.41189C5.9338 8.41189 5.9338 8.41189 5.9338 8.41189C5.9338 8.41189 5.9338 8.41189 5.9338 8.41189C5.9338 8.41189 5.9338 8.41189 5.9338 8.41189C5.9338 8.41189 5.9338 8.41189 5.9338 8.41189C5.9338 8.41189 5.9338 8.41189 5.9338 8.41189C5.9338 8.41189 5.9338 8.41189 5.9338 8.41189C5.9338 8.41189 5.9338 8.41189 5.9338 8.41189C5.9338 8.41189 5.9338 8.41189 5.9338 8.41189C5.93381 8.41189 5.93381 8.41189 5.93381 8.41189C5.93381 8.41189 5.93381 8.41189 5.93381 8.41189C5.93381 8.41189 5.93381 8.41189 5.93381 8.41189C5.93381 8.41189 5.93381 8.41189 5.93381 8.41189C5.93381 8.41189 5.93381 8.41189 5.93381 8.41189C5.93381 8.41189 5.93381 8.41189 5.93381 8.41189C5.93381 8.41189 5.93381 8.41189 5.93381 8.41189C5.93381 8.41189 5.93381 8.41189 5.93381 8.41189C5.93381 8.41189 5.93381 8.41189 5.93381 8.41189C5.93381 8.41189 5.93381 8.41189 5.93381 8.41189C5.93381 8.41189 5.93381 8.41189 5.93381 8.41189C5.93381 8.41189 5.93381 8.41189 5.93381 8.41189C5.93381 8.41189 5.93381 8.41189 5.93381 8.41189C5.93381 8.41189 5.93381 8.41189 5.93381 8.41189C5.93381 8.41189 5.93381 8.41189 5.93381 8.41189C5.93381 8.41189 5.93381 8.41189 5.93381 8.41189C5.93381 8.41189 5.93381 8.41189 5.93381 8.41189C5.93381 8.41189 5.93381 8.41189 5.93381 8.41189C5.93381 8.41189 5.93381 8.41189 5.93381 8.41189C5.93381 8.41189 5.93381 8.41189 5.93381 8.41189C5.93381 8.41189 5.93381 8.41189 5.93381 8.41189C5.93381 8.41189 5.93381 8.41189 5.93381 8.41189C5.93381 8.41189 5.93381 8.41189 5.93381 8.41189C5.93381 8.41189 5.93381 8.41189 5.93381 8.41189C5.93381 8.41189 5.93381 8.41189 5.93381 8.41189C5.93381 8.41189 5.93381 8.41189 5.93381 8.41189C5.93381 8.41189 5.93381 8.41189 5.93381 8.41189C5.93381 8.41189 5.93381 8.41189 5.93381 8.41189C5.93381 8.41189 5.93381 8.41189 5.93381 8.41189C5.93381 8.41189 5.93381 8.41189 5.93381 8.41189C5.93381 8.41189 5.93381 8.41189 5.93381 8.41189C5.93381 8.41189 5.93381 8.41189 5.93381 8.41189C5.93381 8.41189 5.93381 8.41189 5.93381 8.41189C5.93381 8.41189 5.93381 8.41189 5.93381 8.41189C5.93381 8.41189 5.93381 8.41189 5.93381 8.41189C5.93381 8.41189 5.93381 8.41189 5.93381 8.41189C5.93381 8.41189 5.93381 8.41189 5.93381 8.41189C5.93381 8.41189 5.93381 8.41189 5.93381 8.41189C5.93381 8.41189 5.93381 8.41189 5.93381 8.41189C5.93381 8.41189 5.93381 8.41189 5.93381 8.41189C5.93381 8.41189 5.93381 8.41189 5.93381 8.41189C5.93381 8.41189 5.93381 8.41189 5.93381 8.41189C5.93381 8.41189 5.93381 8.41189 5.93381 8.41189C5.93381 8.41189 5.93381 8.41189 5.93381 8.41189C5.93381 8.41189 5.93381 8.41189 5.93382 8.41189C5.93382 8.41189 5.93382 8.41189 5.93382 8.41189C5.93382 8.41189 5.93382 8.41189 5.93382 8.41189C5.93382 8.41189 5.93382 8.41189 5.93382 8.41189C5.93382 8.41189 5.93382 8.41189 5.93382 8.41189C5.93382 8.41189 5.93382 8.41189 5.93382 8.41189C5.93382 8.41189 5.93382 8.41189 5.93382 8.41189C5.93382 8.41189 5.93382 8.41189 5.93382 8.41189C5.93382 8.41189 5.93382 8.41189 5.93382 8.41189C5.93382 8.41189 5.93382 8.41189 5.93382 8.41189C5.93382 8.41189 5.93382 8.41189 5.93382 8.41189C5.93382 8.41189 5.93382 8.41189 5.93382 8.41189C5.93382 8.41189 5.93382 8.41189 5.93382 8.41189C5.93382 8.41189 5.93382 8.41189 5.93382 8.41189C5.93382 8.41189 5.93382 8.41189 5.93382 8.41189C5.93382 8.41189 5.93382 8.41189 5.93382 8.41189C5.93382 8.41189 5.93382 8.41189 5.93382 8.41189C5.93382 8.41189 5.93382 8.41189 5.93382 8.41189C5.93382 8.41189 5.93382 8.41189 5.93382 8.41189C5.93382 8.41189 5.93382 8.41189 5.93382 8.41189C5.93382 8.41189 5.93382 8.41189 5.93382 8.41189C5.93382 8.41189 5.93382 8.41189 5.93382 8.41189C5.93382 8.41189 5.93382 8.41189 5.93382 8.41189C5.93382 8.41189 5.93382 8.41189 5.93382 8.41189C5.93382 8.41189 5.93382 8.41189 5.93382 8.41189C5.93382 8.41189 5.93382 8.41189 5.93382 8.41189C5.93382 8.41189 5.93382 8.41189 5.93382 8.41189C5.93382 8.41189 5.93382 8.41189 5.93382 8.41189C5.93382 8.41189 5.93382 8.41189 5.93382 8.41189C5.93382 8.41189 5.93382 8.41189 5.93382 8.41189C5.93382 8.41189 5.93382 8.41189 5.93382 8.41189C5.93382 8.41189 5.93382 8.41189 5.93382 8.41189C5.93382 8.41189 5.93382 8.41189 5.93382 8.41189C5.93382 8.41189 5.93382 8.41189 5.93382 8.41189C5.93382 8.41189 5.93382 8.41189 5.93382 8.41189C5.93382 8.41189 5.93382 8.41189 5.93382 8.41189C5.93382 8.41189 5.93382 8.41189 5.93382 8.41189C5.93382 8.41189 5.93382 8.41189 5.93382 8.41189C5.93382 8.41189 5.93382 8.41189 5.93382 8.41189V6.41189C5.93382 6.41189 5.93382 6.41189 5.93382 6.41189C5.93382 6.41189 5.93382 6.41189 5.93382 6.41189C5.93382 6.41189 5.93382 6.41189 5.93382 6.41189C5.93382 6.41189 5.93382 6.41189 5.93382 6.41189C5.93382 6.41189 5.93382 6.41189 5.93382 6.41189C5.93382 6.41189 5.93382 6.41189 5.93382 6.41189C5.93382 6.41189 5.93382 6.41189 5.93382 6.41189C5.93382 6.41189 5.93382 6.41189 5.93382 6.41189C5.93382 6.41189 5.93382 6.41189 5.93382 6.41189C5.93382 6.41189 5.93382 6.41189 5.93382 6.41189C5.93382 6.41189 5.93382 6.41189 5.93382 6.41189C5.93382 6.41189 5.93382 6.41189 5.93382 6.41189C5.93382 6.41189 5.93382 6.41189 5.93382 6.41189C5.93382 6.41189 5.93382 6.41189 5.93382 6.41189C5.93382 6.41189 5.93382 6.41189 5.93382 6.41189C5.93382 6.41189 5.93382 6.41189 5.93382 6.41189C5.93382 6.41189 5.93382 6.41189 5.93382 6.41189C5.93382 6.41189 5.93382 6.41189 5.93382 6.41189C5.93382 6.41189 5.93382 6.41189 5.93382 6.41189C5.93382 6.41189 5.93382 6.41189 5.93382 6.41189C5.93382 6.41189 5.93382 6.41189 5.93382 6.41189C5.93382 6.41189 5.93382 6.41189 5.93382 6.41189C5.93382 6.41189 5.93382 6.41189 5.93382 6.41189C5.93382 6.41189 5.93382 6.41189 5.93382 6.41189C5.93382 6.41189 5.93382 6.41189 5.93382 6.41189C5.93382 6.41189 5.93382 6.41189 5.93382 6.41189C5.93382 6.41189 5.93382 6.41189 5.93382 6.41189C5.93382 6.41189 5.93382 6.41189 5.93382 6.41189C5.93382 6.41189 5.93382 6.41189 5.93382 6.41189C5.93382 6.41189 5.93382 6.41189 5.93382 6.41189C5.93382 6.41189 5.93382 6.41189 5.93382 6.41189C5.93382 6.41189 5.93382 6.41189 5.93382 6.41189C5.93382 6.41189 5.93382 6.41189 5.93382 6.41189C5.93382 6.41189 5.93382 6.41189 5.93382 6.41189C5.93382 6.41189 5.93382 6.41189 5.93382 6.41189C5.93382 6.41189 5.93382 6.41189 5.93382 6.41189C5.93382 6.41189 5.93382 6.41189 5.93382 6.41189C5.93382 6.41189 5.93382 6.41189 5.93382 6.41189C5.93381 6.41189 5.93381 6.41189 5.93381 6.41189C5.93381 6.41189 5.93381 6.41189 5.93381 6.41189C5.93381 6.41189 5.93381 6.41189 5.93381 6.41189C5.93381 6.41189 5.93381 6.41189 5.93381 6.41189C5.93381 6.41189 5.93381 6.41189 5.93381 6.41189C5.93381 6.41189 5.93381 6.41189 5.93381 6.41189C5.93381 6.41189 5.93381 6.41189 5.93381 6.41189C5.93381 6.41189 5.93381 6.41189 5.93381 6.41189C5.93381 6.41189 5.93381 6.41189 5.93381 6.41189C5.93381 6.41189 5.93381 6.41189 5.93381 6.41189C5.93381 6.41189 5.93381 6.41189 5.93381 6.41189C5.93381 6.41189 5.93381 6.41189 5.93381 6.41189C5.93381 6.41189 5.93381 6.41189 5.93381 6.41189C5.93381 6.41189 5.93381 6.41189 5.93381 6.41189C5.93381 6.41189 5.93381 6.41189 5.93381 6.41189C5.93381 6.41189 5.93381 6.41189 5.93381 6.41189C5.93381 6.41189 5.93381 6.41189 5.93381 6.41189C5.93381 6.41189 5.93381 6.41189 5.93381 6.41189C5.93381 6.41189 5.93381 6.41189 5.93381 6.41189C5.93381 6.41189 5.93381 6.41189 5.93381 6.41189C5.93381 6.41189 5.93381 6.41189 5.93381 6.41189C5.93381 6.41189 5.93381 6.41189 5.93381 6.41189C5.93381 6.41189 5.93381 6.41189 5.93381 6.41189C5.93381 6.41189 5.93381 6.41189 5.93381 6.41189C5.93381 6.41189 5.93381 6.41189 5.93381 6.41189C5.93381 6.41189 5.93381 6.41189 5.93381 6.41189C5.93381 6.41189 5.93381 6.41189 5.93381 6.41189C5.93381 6.41189 5.93381 6.41189 5.93381 6.41189C5.93381 6.41189 5.93381 6.41189 5.93381 6.41189C5.93381 6.41189 5.93381 6.41189 5.93381 6.41189C5.93381 6.41189 5.93381 6.41189 5.93381 6.41189C5.93381 6.41189 5.93381 6.41189 5.93381 6.41189C5.93381 6.41189 5.93381 6.41189 5.93381 6.41189C5.93381 6.41189 5.93381 6.41189 5.93381 6.41189C5.93381 6.41189 5.93381 6.41189 5.93381 6.41189C5.93381 6.41189 5.93381 6.41189 5.93381 6.41189C5.93381 6.41189 5.93381 6.41189 5.93381 6.41189C5.93381 6.41189 5.93381 6.41189 5.93381 6.41189C5.93381 6.41189 5.93381 6.41189 5.93381 6.41189C5.93381 6.41189 5.93381 6.41189 5.93381 6.41189C5.93381 6.41189 5.93381 6.41189 5.93381 6.41189C5.93381 6.41189 5.93381 6.41189 5.93381 6.41189C5.93381 6.41189 5.93381 6.41189 5.93381 6.41189C5.93381 6.41189 5.93381 6.41189 5.93381 6.41189C5.93381 6.41189 5.93381 6.41189 5.9338 6.41189C5.9338 6.41189 5.9338 6.41189 5.9338 6.41189C5.9338 6.41189 5.9338 6.41189 5.9338 6.41189C5.9338 6.41189 5.9338 6.41189 5.9338 6.41189C5.9338 6.41189 5.9338 6.41189 5.9338 6.41189C5.9338 6.41189 5.9338 6.41189 5.9338 6.41189C5.9338 6.41189 5.9338 6.41189 5.9338 6.41189C5.9338 6.41189 5.9338 6.41189 5.9338 6.41189C5.9338 6.41189 5.9338 6.41189 5.9338 6.41189C5.9338 6.41189 5.9338 6.41189 5.9338 6.41189C5.9338 6.41189 5.9338 6.41189 5.9338 6.41189C5.9338 6.41189 5.9338 6.41189 5.9338 6.41189C5.9338 6.41189 5.9338 6.41189 5.9338 6.41189C5.9338 6.41189 5.9338 6.41189 5.9338 6.41189C5.9338 6.41189 5.9338 6.41189 5.9338 6.41189C5.9338 6.41189 5.9338 6.41189 5.9338 6.41189C5.9338 6.41189 5.9338 6.41189 5.9338 6.41189C5.9338 6.41189 5.9338 6.41189 5.9338 6.41189C5.9338 6.41189 5.9338 6.41189 5.9338 6.41189C5.9338 6.41189 5.9338 6.41189 5.9338 6.41189C5.9338 6.41189 5.9338 6.41189 5.9338 6.41189C5.9338 6.41189 5.9338 6.41189 5.9338 6.41189C5.9338 6.41189 5.9338 6.41189 5.9338 6.41189C5.9338 6.41189 5.9338 6.41189 5.9338 6.41189C5.9338 6.41189 5.9338 6.41189 5.9338 6.41189C5.9338 6.41189 5.9338 6.41189 5.9338 6.41189C5.9338 6.41189 5.9338 6.41189 5.9338 6.41189C5.9338 6.41189 5.9338 6.41189 5.9338 6.41189C5.9338 6.41189 5.9338 6.41189 5.9338 6.41189C5.9338 6.41189 5.9338 6.41189 5.9338 6.41189C5.9338 6.41189 5.9338 6.41189 5.9338 6.41189C5.9338 6.41189 5.9338 6.41189 5.9338 6.41189C5.9338 6.41189 5.9338 6.41189 5.9338 6.41189C5.9338 6.41189 5.9338 6.41189 5.9338 6.41189C5.9338 6.41189 5.9338 6.41189 5.9338 6.41189C5.9338 6.41189 5.9338 6.41189 5.9338 6.41189C5.9338 6.41189 5.9338 6.41189 5.9338 6.41189C5.9338 6.41189 5.9338 6.41189 5.9338 6.41189C5.9338 6.41189 5.9338 6.41189 5.9338 6.41189C5.9338 6.41189 5.9338 6.41189 5.9338 6.41189C5.9338 6.41189 5.9338 6.41189 5.9338 6.41189C5.9338 6.41189 5.9338 6.41189 5.9338 6.41189C5.9338 6.41189 5.9338 6.41189 5.9338 6.41189C5.9338 6.41189 5.9338 6.41189 5.9338 6.41189C5.9338 6.41189 5.9338 6.41189 5.9338 6.41189C5.9338 6.41189 5.93379 6.41189 5.93379 6.41189C5.93379 6.41189 5.93379 6.41189 5.93379 6.41189C5.93379 6.41189 5.93379 6.41189 5.93379 6.41189C5.93379 6.41189 5.93379 6.41189 5.93379 6.41189C5.93379 6.41189 5.93379 6.41189 5.93379 6.41189C5.93379 6.41189 5.93379 6.41189 5.93379 6.41189C5.93379 6.41189 5.93379 6.41189 5.93379 6.41189C5.93379 6.41189 5.93379 6.41189 5.93379 6.41189C5.93379 6.41189 5.93379 6.41189 5.93379 6.41189C5.93379 6.41189 5.93379 6.41189 5.93379 6.41189C5.93379 6.41189 5.93379 6.41189 5.93379 6.41189C5.93379 6.41189 5.93379 6.41189 5.93379 6.41189C5.93379 6.41189 5.93379 6.41189 5.93379 6.41189C5.93379 6.41189 5.93379 6.41189 5.93379 6.41189C5.93379 6.41189 5.93379 6.41189 5.93379 6.41189C5.93379 6.41189 5.93379 6.41189 5.93379 6.41189C5.93379 6.41189 5.93379 6.41189 5.93379 6.41189C5.93379 6.41189 5.93379 6.41189 5.93379 6.41189C5.93379 6.41189 5.93379 6.41189 5.93379 6.41189C5.93379 6.41189 5.93379 6.41189 5.93379 6.41189C5.93379 6.41189 5.93379 6.41189 5.93379 6.41189C5.93379 6.41189 5.93379 6.41189 5.93379 6.41189C5.93379 6.41189 5.93379 6.41189 5.93379 6.41189C5.93379 6.41189 5.93379 6.41189 5.93379 6.41189C5.93379 6.41189 5.93379 6.41189 5.93379 6.41189C5.93379 6.41189 5.93379 6.41189 5.93379 6.41189C5.93379 6.41189 5.93379 6.41189 5.93379 6.41189C5.93379 6.41189 5.93379 6.41189 5.93379 6.41189C5.93379 6.41189 5.93379 6.41189 5.93379 6.41189C5.93379 6.41189 5.93379 6.41189 5.93379 6.41189C5.93379 6.41189 5.93379 6.41189 5.93379 6.41189C5.93379 6.41189 5.93379 6.41189 5.93379 6.41189C5.93379 6.41189 5.93379 6.41189 5.93379 6.41189C5.93379 6.41189 5.93379 6.41189 5.93379 6.41189C5.93379 6.41189 5.93379 6.41189 5.93379 6.41189C5.93379 6.41189 5.93379 6.41189 5.93379 6.41189C5.93379 6.41189 5.93379 6.41189 5.93379 6.41189C5.93379 6.41189 5.93379 6.41189 5.93379 6.41189C5.93379 6.41189 5.93379 6.41189 5.93379 6.41189C5.93379 6.41189 5.93379 6.41189 5.93379 6.41189C5.93379 6.41189 5.93379 6.41189 5.93379 6.41189C5.93379 6.41189 5.93379 6.41189 5.93379 6.41189C5.93379 6.41189 5.93379 6.41189 5.93379 6.41189C5.93379 6.41189 5.93379 6.41189 5.93379 6.41189C5.93379 6.41189 5.93379 6.41189 5.93378 6.41189C5.93378 6.41189 5.93378 6.41189 5.93378 6.41189C5.93378 6.41189 5.93378 6.41189 5.93378 6.41189C5.93378 6.41189 5.93378 6.41189 5.93378 6.41189C5.93378 6.41189 5.93378 6.41189 5.93378 6.41189C5.93378 6.41189 5.93378 6.41189 5.93378 6.41189C5.93378 6.41189 5.93378 6.41189 5.93378 6.41189C5.93378 6.41189 5.93378 6.41189 5.93378 6.41189C5.93378 6.41189 5.93378 6.41189 5.93378 6.41189C5.93378 6.41189 5.93378 6.41189 5.93378 6.41189C5.93378 6.41189 5.93378 6.41189 5.93378 6.41189C5.93378 6.41189 5.93378 6.41189 5.93378 6.41189C5.93378 6.41189 5.93378 6.41189 5.93378 6.41189C5.93378 6.41189 5.93378 6.41189 5.93378 6.41189C5.93378 6.41189 5.93378 6.41189 5.93378 6.41189C5.93378 6.41189 5.93378 6.41189 5.93378 6.41189C5.93378 6.41189 5.93378 6.41189 5.93378 6.41189C5.93378 6.41189 5.93378 6.41189 5.93378 6.41189C5.93378 6.41189 5.93378 6.41189 5.93378 6.41189C5.93378 6.41189 5.93378 6.41189 5.93378 6.41189C5.93378 6.41189 5.93378 6.41189 5.93378 6.41189C5.93378 6.41189 5.93378 6.41189 5.93378 6.41189C5.93378 6.41189 5.93378 6.41189 5.93378 6.41189C5.93378 6.41189 5.93378 6.41189 5.93378 6.41189C5.93378 6.41189 5.93378 6.41189 5.93378 6.41189C5.93378 6.41189 5.93378 6.41189 5.93378 6.41189C5.93378 6.41189 5.93378 6.41189 5.93378 6.41189C5.93378 6.41189 5.93378 6.41189 5.93378 6.41189C5.93378 6.41189 5.93378 6.41189 5.93378 6.41189C5.93378 6.41189 5.93378 6.41189 5.93378 6.41189C5.93378 6.41189 5.93378 6.41189 5.93378 6.41189C5.93378 6.41189 5.93378 6.41189 5.93378 6.41189C5.93378 6.41189 5.93378 6.41189 5.93378 6.41189C5.93378 6.41189 5.93378 6.41189 5.93378 6.41189C5.93378 6.41189 5.93378 6.41189 5.93378 6.41189C5.93378 6.41189 5.93378 6.41189 5.93378 6.41189C5.93378 6.41189 5.93378 6.41189 5.93378 6.41189C5.93378 6.41189 5.93378 6.41189 5.93378 6.41189C5.93378 6.41189 5.93378 6.41189 5.93378 6.41189C5.93378 6.41189 5.93378 6.41189 5.93378 6.41189C5.93378 6.41189 5.93378 6.41189 5.93378 6.41189C5.93378 6.41189 5.93378 6.41189 5.93378 6.41189C5.93378 6.41189 5.93378 6.41189 5.93378 6.41189C5.93378 6.41189 5.93378 6.41189 5.93378 6.41189C5.93378 6.41189 5.93378 6.41189 5.93378 6.41189C5.93378 6.41189 5.93377 6.41189 5.93377 6.41189C5.93377 6.41189 5.93377 6.41189 5.93377 6.41189C5.93377 6.41189 5.93377 6.41189 5.93377 6.41189C5.93377 6.41189 5.93377 6.41189 5.93377 6.41189C5.93377 6.41189 5.93377 6.41189 5.93377 6.41189C5.93377 6.41189 5.93377 6.41189 5.93377 6.41189C5.93377 6.41189 5.93377 6.41189 5.93377 6.41189C5.93377 6.41189 5.93377 6.41189 5.93377 6.41189C5.93377 6.41189 5.93377 6.41189 5.93377 6.41189C5.93377 6.41189 5.93377 6.41189 5.93377 6.41189C5.93377 6.41189 5.93377 6.41189 5.93377 6.41189C5.93377 6.41189 5.93377 6.41189 5.93377 6.41189C5.93377 6.41189 5.93377 6.41189 5.93377 6.41189C5.93377 6.41189 5.93377 6.41189 5.93377 6.41189C5.93377 6.41189 5.93377 6.41189 5.93377 6.41189C5.93377 6.41189 5.93377 6.41189 5.93377 6.41189C5.93377 6.41189 5.93377 6.41189 5.93377 6.41189C5.93377 6.41189 5.93377 6.41189 5.93377 6.41189C5.93377 6.41189 5.93377 6.41189 5.93377 6.41189C5.93377 6.41189 5.93377 6.41189 5.93377 6.41189C5.93377 6.41189 5.93377 6.41189 5.93377 6.41189C5.93377 6.41189 5.93377 6.41189 5.93377 6.41189C5.93377 6.41189 5.93377 6.41189 5.93377 6.41189C5.93377 6.41189 5.93377 6.41189 5.93377 6.41189C5.93377 6.41189 5.93377 6.41189 5.93377 6.41189C5.93377 6.41189 5.93377 6.41189 5.93377 6.41189C5.93377 6.41189 5.93377 6.41189 5.93377 6.41189C5.93377 6.41189 5.93377 6.41189 5.93377 6.41189C5.93377 6.41189 5.93377 6.41189 5.93377 6.41189C5.93377 6.41189 5.93377 6.41189 5.93377 6.41189C5.93377 6.41189 5.93377 6.41189 5.93377 6.41189C5.93377 6.41189 5.93377 6.41189 5.93377 6.41189C5.93377 6.41189 5.93377 6.41189 5.93377 6.41189C5.93377 6.41189 5.93377 6.41189 5.93377 6.41189C5.93377 6.41189 5.93377 6.41189 5.93377 6.41189C5.93377 6.41189 5.93377 6.41189 5.93377 6.41189C5.93377 6.41189 5.93377 6.41189 5.93377 6.41189C5.93377 6.41189 5.93377 6.41189 5.93377 6.41189C5.93377 6.41189 5.93377 6.41189 5.93377 6.41189C5.93377 6.41189 5.93377 6.41189 5.93377 6.41189C5.93377 6.41189 5.93377 6.41189 5.93377 6.41189C5.93377 6.41189 5.93377 6.41189 5.93377 6.41189C5.93377 6.41189 5.93377 6.41189 5.93377 6.41189C5.93377 6.41189 5.93377 6.41189 5.93377 6.41189C5.93377 6.41189 5.93377 6.41189 5.93377 6.41189C5.93376 6.41189 5.93376 6.41189 5.93376 6.41189C5.93376 6.41189 5.93376 6.41189 5.93376 6.41189C5.93376 6.41189 5.93376 6.41189 5.93376 6.41189C5.93376 6.41189 5.93376 6.41189 5.93376 6.41189C5.93376 6.41189 5.93376 6.41189 5.93376 6.41189C5.93376 6.41189 5.93376 6.41189 5.93376 6.41189C5.93376 6.41189 5.93376 6.41189 5.93376 6.41189C5.93376 6.41189 5.93376 6.41189 5.93376 6.41189C5.93376 6.41189 5.93376 6.41189 5.93376 6.41189C5.93376 6.41189 5.93376 6.41189 5.93376 6.41189C5.93376 6.41189 5.93376 6.41189 5.93376 6.41189C5.93376 6.41189 5.93376 6.41189 5.93376 6.41189C5.93376 6.41189 5.93376 6.41189 5.93376 6.41189C5.93376 6.41189 5.93376 6.41189 5.93376 6.41189C5.93376 6.41189 5.93376 6.41189 5.93376 6.41189C5.93376 6.41189 5.93376 6.41189 5.93376 6.41189C5.93376 6.41189 5.93376 6.41189 5.93376 6.41189C5.93376 6.41189 5.93376 6.41189 5.93376 6.41189C5.93376 6.41189 5.93376 6.41189 5.93376 6.41189C5.93376 6.41189 5.93376 6.41189 5.93376 6.41189C5.93376 6.41189 5.93376 6.41189 5.93376 6.41189C5.93376 6.41189 5.93376 6.41189 5.93376 6.41189C5.93376 6.41189 5.93376 6.41189 5.93376 6.41189C5.93376 6.41189 5.93376 6.41189 5.93376 6.41189C5.93376 6.41189 5.93376 6.41189 5.93376 6.41189C5.93376 6.41189 5.93376 6.41189 5.93376 6.41189C5.93376 6.41189 5.93376 6.41189 5.93376 6.41189C5.93376 6.41189 5.93376 6.41189 5.93376 6.41189C5.93376 6.41189 5.93376 6.41189 5.93376 6.41189C5.93376 6.41189 5.93376 6.41189 5.93376 6.41189C5.93376 6.41189 5.93376 6.41189 5.93376 6.41189C5.93376 6.41189 5.93376 6.41189 5.93376 6.41189C5.93376 6.41189 5.93376 6.41189 5.93376 6.41189C5.93376 6.41189 5.93376 6.41189 5.93376 6.41189C5.93376 6.41189 5.93376 6.41189 5.93376 6.41189C5.93376 6.41189 5.93376 6.41189 5.93376 6.41189C5.93376 6.41189 5.93376 6.41189 5.93376 6.41189C5.93376 6.41189 5.93376 6.41189 5.93376 6.41189C5.93376 6.41189 5.93376 6.41189 5.93376 6.41189C5.93376 6.41189 5.93376 6.41189 5.93376 6.41189C5.93376 6.41189 5.93376 6.41189 5.93376 6.41189C5.93376 6.41189 5.93376 6.41189 5.93376 6.41189C5.93376 6.41189 5.93376 6.41189 5.93376 6.41189C5.93376 6.41189 5.93376 6.41189 5.93376 6.41189C5.93376 6.41189 5.93375 6.41189 5.93375 6.41189C5.93375 6.41189 5.93375 6.41189 5.93375 6.41189C5.93375 6.41189 5.93375 6.41189 5.93375 6.41189C5.93375 6.41189 5.93375 6.41189 5.93375 6.41189C5.93375 6.41189 5.93375 6.41189 5.93375 6.41189C5.93375 6.41189 5.93375 6.41189 5.93375 6.41189C5.93375 6.41189 5.93375 6.41189 5.93375 6.41189C5.93375 6.41189 5.93375 6.41189 5.93375 6.41189C5.93375 6.41189 5.93375 6.41189 5.93375 6.41189C5.93375 6.41189 5.93375 6.41189 5.93375 6.41189C5.93375 6.41189 5.93375 6.41189 5.93375 6.41189C5.93375 6.41189 5.93375 6.41189 5.93375 6.41189C5.93375 6.41189 5.93375 6.41189 5.93375 6.41189C5.93375 6.41189 5.93375 6.41189 5.93375 6.41189C5.93375 6.41189 5.93375 6.41189 5.93375 6.41189C5.93375 6.41189 5.93375 6.41189 5.93375 6.41189C5.93375 6.41189 5.93375 6.41189 5.93375 6.41189C5.93375 6.41189 5.93375 6.41189 5.93375 6.41189C5.93375 6.41189 5.93375 6.41189 5.93375 6.41189C5.93375 6.41189 5.93375 6.41189 5.93375 6.41189C5.93375 6.41189 5.93375 6.41189 5.93375 6.41189C5.93375 6.41189 5.93375 6.41189 5.93375 6.41189C5.93375 6.41189 5.93375 6.41189 5.93375 6.41189C5.93375 6.41189 5.93375 6.41189 5.93375 6.41189C5.93375 6.41189 5.93375 6.41189 5.93375 6.41189C5.93375 6.41189 5.93375 6.41189 5.93375 6.41189C5.93375 6.41189 5.93375 6.41189 5.93375 6.41189C5.93375 6.41189 5.93375 6.41189 5.93375 6.41189C5.93375 6.41189 5.93375 6.41189 5.93375 6.41189C5.93375 6.41189 5.93375 6.41189 5.93375 6.41189C5.93375 6.41189 5.93375 6.41189 5.93375 6.41189C5.93375 6.41189 5.93375 6.41189 5.93375 6.41189C5.93375 6.41189 5.93375 6.41189 5.93375 6.41189C5.93375 6.41189 5.93375 6.41189 5.93375 6.41189C5.93375 6.41189 5.93375 6.41189 5.93375 6.41189C5.93375 6.41189 5.93375 6.41189 5.93375 6.41189C5.93375 6.41189 5.93375 6.41189 5.93375 6.41189C5.93375 6.41189 5.93375 6.41189 5.93375 6.41189C5.93375 6.41189 5.93375 6.41189 5.93375 6.41189C5.93375 6.41189 5.93375 6.41189 5.93375 6.41189C5.93375 6.41189 5.93375 6.41189 5.93375 6.41189C5.93375 6.41189 5.93375 6.41189 5.93375 6.41189C5.93375 6.41189 5.93375 6.41189 5.93375 6.41189C5.93375 6.41189 5.93375 6.41189 5.93375 6.41189C5.93375 6.41189 5.93375 6.41189 5.93375 6.41189C5.93374 6.41189 5.93374 6.41189 5.93374 6.41189C5.93374 6.41189 5.93374 6.41189 5.93374 6.41189C5.93374 6.41189 5.93374 6.41189 5.93374 6.41189C5.93374 6.41189 5.93374 6.41189 5.93374 6.41189C5.93374 6.41189 5.93374 6.41189 5.93374 6.41189C5.93374 6.41189 5.93374 6.41189 5.93374 6.41189C5.93374 6.41189 5.93374 6.41189 5.93374 6.41189C5.93374 6.41189 5.93374 6.41189 5.93374 6.41189C5.93374 6.41189 5.93374 6.41189 5.93374 6.41189C5.93374 6.41189 5.93374 6.41189 5.93374 6.41189C5.93374 6.41189 5.93374 6.41189 5.93374 6.41189C5.93374 6.41189 5.93374 6.41189 5.93374 6.41189C5.93374 6.41189 5.93374 6.41189 5.93374 6.41189C5.93374 6.41189 5.93374 6.41189 5.93374 6.41189C5.93374 6.41189 5.93374 6.41189 5.93374 6.41189C5.93374 6.41189 5.93374 6.41189 5.93374 6.41189C5.93374 6.41189 5.93374 6.41189 5.93374 6.41189C5.93374 6.41189 5.93374 6.41189 5.93374 6.41189C5.93374 6.41189 5.93374 6.41189 5.93374 6.41189C5.93374 6.41189 5.93374 6.41189 5.93374 6.41189C5.93374 6.41189 5.93374 6.41189 5.93374 6.41189C5.93374 6.41189 5.93374 6.41189 5.93374 6.41189C5.93374 6.41189 5.93374 6.41189 5.93374 6.41189C5.93374 6.41189 5.93374 6.41189 5.93374 6.41189C5.93374 6.41189 5.93374 6.41189 5.93374 6.41189C5.93374 6.41189 5.93374 6.41189 5.93374 6.41189C5.93374 6.41189 5.93374 6.41189 5.93374 6.41189C5.93374 6.41189 5.93374 6.41189 5.93374 6.41189C5.93374 6.41189 5.93374 6.41189 5.93374 6.41189C5.93374 6.41189 5.93374 6.41189 5.93374 6.41189C5.93374 6.41189 5.93374 6.41189 5.93374 6.41189C5.93374 6.41189 5.93374 6.41189 5.93374 6.41189C5.93374 6.41189 5.93374 6.41189 5.93374 6.41189C5.93374 6.41189 5.93374 6.41189 5.93374 6.41189C5.93374 6.41189 5.93374 6.41189 5.93374 6.41189C5.93374 6.41189 5.93374 6.41189 5.93374 6.41189C5.93374 6.41189 5.93374 6.41189 5.93374 6.41189C5.93374 6.41189 5.93374 6.41189 5.93374 6.41189C5.93374 6.41189 5.93374 6.41189 5.93374 6.41189C5.93374 6.41189 5.93374 6.41189 5.93374 6.41189C5.93374 6.41189 5.93374 6.41189 5.93374 6.41189C5.93374 6.41189 5.93374 6.41189 5.93374 6.41189C5.93374 6.41189 5.93374 6.41189 5.93374 6.41189C5.93374 6.41189 5.93374 6.41189 5.93374 6.41189C5.93374 6.41189 5.93373 6.41189 5.93373 6.41189C5.93373 6.41189 5.93373 6.41189 5.93373 6.41189C5.93373 6.41189 5.93373 6.41189 5.93373 6.41189C5.93373 6.41189 5.93373 6.41189 5.93373 6.41189C5.93373 6.41189 5.93373 6.41189 5.93373 6.41189C5.93373 6.41189 5.93373 6.41189 5.93373 6.41189C5.93373 6.41189 5.93373 6.41189 5.93373 6.41189C5.93373 6.41189 5.93373 6.41189 5.93373 6.41189C5.93373 6.41189 5.93373 6.41189 5.93373 6.41189C5.93373 6.41189 5.93373 6.41189 5.93373 6.41189C5.93373 6.41189 5.93373 6.41189 5.93373 6.41189C5.93373 6.41189 5.93373 6.41189 5.93373 6.41189C5.93373 6.41189 5.93373 6.41189 5.93373 6.41189C5.93373 6.41189 5.93373 6.41189 5.93373 6.41189C5.93373 6.41189 5.93373 6.41189 5.93373 6.41189C5.93373 6.41189 5.93373 6.41189 5.93373 6.41189C5.93373 6.41189 5.93373 6.41189 5.93373 6.41189C5.93373 6.41189 5.93373 6.41189 5.93373 6.41189C5.93373 6.41189 5.93373 6.41189 5.93373 6.41189C5.93373 6.41189 5.93373 6.41189 5.93373 6.41189C5.93373 6.41189 5.93373 6.41189 5.93373 6.41189C5.93373 6.41189 5.93373 6.41189 5.93373 6.41189C5.93373 6.41189 5.93373 6.41189 5.93373 6.41189C5.93373 6.41189 5.93373 6.41189 5.93373 6.41189C5.93373 6.41189 5.93373 6.41189 5.93373 6.41189C5.93373 6.41189 5.93373 6.41189 5.93373 6.41189C5.93373 6.41189 5.93373 6.41189 5.93373 6.41189C5.93373 6.41189 5.93373 6.41189 5.93373 6.41189C5.93373 6.41189 5.93373 6.41189 5.93373 6.41189C5.93373 6.41189 5.93373 6.41189 5.93373 6.41189C5.93373 6.41189 5.93373 6.41189 5.93373 6.41189C5.93373 6.41189 5.93373 6.41189 5.93373 6.41189C5.93373 6.41189 5.93373 6.41189 5.93373 6.41189C5.93373 6.41189 5.93373 6.41189 5.93373 6.41189C5.93373 6.41189 5.93373 6.41189 5.93373 6.41189C5.93373 6.41189 5.93373 6.41189 5.93373 6.41189C5.93373 6.41189 5.93373 6.41189 5.93373 6.41189C5.93373 6.41189 5.93373 6.41189 5.93373 6.41189C5.93373 6.41189 5.93373 6.41189 5.93373 6.41189C5.93373 6.41189 5.93373 6.41189 5.93373 6.41189C5.93373 6.41189 5.93373 6.41189 5.93373 6.41189C5.93373 6.41189 5.93373 6.41189 5.93373 6.41189C5.93373 6.41189 5.93373 6.41189 5.93373 6.41189C5.93373 6.41189 5.93373 6.41189 5.93373 6.41189C5.93373 6.41189 5.93373 6.41189 5.93373 6.41189C5.93372 6.41189 5.93372 6.41189 5.93372 6.41189C5.93372 6.41189 5.93372 6.41189 5.93372 6.41189C5.93372 6.41189 5.93372 6.41189 5.93372 6.41189C5.93372 6.41189 5.93372 6.41189 5.93372 6.41189C5.93372 6.41189 5.93372 6.41189 5.93372 6.41189C5.93372 6.41189 5.93372 6.41189 5.93372 6.41189C5.93372 6.41189 5.93372 6.41189 5.93372 6.41189C5.93372 6.41189 5.93372 6.41189 5.93372 6.41189C5.93372 6.41189 5.93372 6.41189 5.93372 6.41189C5.93372 6.41189 5.93372 6.41189 5.93372 6.41189C5.93372 6.41189 5.93372 6.41189 5.93372 6.41189C5.93372 6.41189 5.93372 6.41189 5.93372 6.41189C5.93372 6.41189 5.93372 6.41189 5.93372 6.41189C5.93372 6.41189 5.93372 6.41189 5.93372 6.41189C5.93372 6.41189 5.93372 6.41189 5.93372 6.41189C5.93372 6.41189 5.93372 6.41189 5.93372 6.41189C5.93372 6.41189 5.93372 6.41189 5.93372 6.41189C5.93372 6.41189 5.93372 6.41189 5.93372 6.41189C5.93372 6.41189 5.93372 6.41189 5.93372 6.41189C5.93372 6.41189 5.93372 6.41189 5.93372 6.41189C5.93372 6.41189 5.93372 6.41189 5.93372 6.41189C5.93372 6.41189 5.93372 6.41189 5.93372 6.41189C5.93372 6.41189 5.93372 6.41189 5.93372 6.41189C5.93372 6.41189 5.93372 6.41189 5.93372 6.41189C5.93372 6.41189 5.93372 6.41189 5.93372 6.41189C5.93372 6.41189 5.93372 6.41189 5.93372 6.41189C5.93372 6.41189 5.93372 6.41189 5.93372 6.41189C5.93372 6.41189 5.93372 6.41189 5.93372 6.41189C5.93372 6.41189 5.93372 6.41189 5.93372 6.41189C5.93372 6.41189 5.93372 6.41189 5.93372 6.41189C5.93372 6.41189 5.93372 6.41189 5.93372 6.41189C5.93372 6.41189 5.93372 6.41189 5.93372 6.41189C5.93372 6.41189 5.93372 6.41189 5.93372 6.41189C5.93372 6.41189 5.93372 6.41189 5.93372 6.41189C5.93372 6.41189 5.93372 6.41189 5.93372 6.41189C5.93372 6.41189 5.93372 6.41189 5.93372 6.41189C5.93372 6.41189 5.93372 6.41189 5.93372 6.41189C5.93372 6.41189 5.93372 6.41189 5.93372 6.41189C5.93372 6.41189 5.93372 6.41189 5.93372 6.41189C5.93372 6.41189 5.93372 6.41189 5.93372 6.41189C5.93372 6.41189 5.93372 6.41189 5.93372 6.41189C5.93372 6.41189 5.93372 6.41189 5.93372 6.41189C5.93372 6.41189 5.93372 6.41189 5.93372 6.41189C5.93372 6.41189 5.93372 6.41189 5.93372 6.41189C5.93372 6.41189 5.93372 6.41189 5.93371 6.41189C5.93371 6.41189 5.93371 6.41189 5.93371 6.41189C5.93371 6.41189 5.93371 6.41189 5.93371 6.41189C5.93371 6.41189 5.93371 6.41189 5.93371 6.41189C5.93371 6.41189 5.93371 6.41189 5.93371 6.41189C5.93371 6.41189 5.93371 6.41189 5.93371 6.41189C5.93371 6.41189 5.93371 6.41189 5.93371 6.41189C5.93371 6.41189 5.93371 6.41189 5.93371 6.41189C5.93371 6.41189 5.93371 6.41189 5.93371 6.41189C5.93371 6.41189 5.93371 6.41189 5.93371 6.41189C5.93371 6.41189 5.93371 6.41189 5.93371 6.41189C5.93371 6.41189 5.93371 6.41189 5.93371 6.41189C5.93371 6.41189 5.93371 6.41189 5.93371 6.41189C5.93371 6.41189 5.93371 6.41189 5.93371 6.41189C5.93371 6.41189 5.93371 6.41189 5.93371 6.41189C5.93371 6.41189 5.93371 6.41189 5.93371 6.41189C5.93371 6.41189 5.93371 6.41189 5.93371 6.41189C5.93371 6.41189 5.93371 6.41189 5.93371 6.41189C5.93371 6.41189 5.93371 6.41189 5.93371 6.41189C5.93371 6.41189 5.93371 6.41189 5.93371 6.41189C5.93371 6.41189 5.93371 6.41189 5.93371 6.41189C5.93371 6.41189 5.93371 6.41189 5.93371 6.41189C5.93371 6.41189 5.93371 6.41189 5.93371 6.41189C5.93371 6.41189 5.93371 6.41189 5.93371 6.41189C5.93371 6.41189 5.93371 6.41189 5.93371 6.41189C5.93371 6.41189 5.93371 6.41189 5.93371 6.41189C5.93371 6.41189 5.93371 6.41189 5.93371 6.41189C5.93371 6.41189 5.93371 6.41189 5.93371 6.41189C5.93371 6.41189 5.93371 6.41189 5.93371 6.41189V8.41189ZM4.93382 7.11759V7.41189H6.93382V7.11759H4.93382ZM10.9338 1.1176C7.62012 1.1176 4.93382 3.80388 4.93382 7.11759H6.93382C6.93382 4.90846 8.72468 3.1176 10.9338 3.1176V1.1176ZM11.7346 1.1176H10.9338V3.1176H11.7346V1.1176Z" fill="white" mask="url(#path-1-inside-1_2_344)"/>
</g>
<mask id="path-3-inside-2_2_344" fill="white">
<ellipse cx="16.7508" cy="8.03109" rx="0.95" ry="1.04037"/>
</mask>
<path d="M16.7008 8.03109C16.7008 8.07091 16.6864 8.08995 16.6841 8.09244C16.6833 8.09331 16.6877 8.08813 16.7003 8.08232C16.7139 8.07602 16.732 8.07146 16.7508 8.07146V10.0715C17.9113 10.0715 18.7008 9.07049 18.7008 8.03109H16.7008ZM16.7508 8.07146C16.7696 8.07146 16.7877 8.07602 16.8013 8.08232C16.8138 8.08813 16.8183 8.09331 16.8175 8.09244C16.8152 8.08995 16.8008 8.07091 16.8008 8.03109H14.8008C14.8008 9.07049 15.5902 10.0715 16.7508 10.0715V8.07146ZM16.8008 8.03109C16.8008 7.99127 16.8152 7.97224 16.8175 7.96975C16.8183 7.96888 16.8138 7.97405 16.8013 7.97987C16.7877 7.98617 16.7696 7.99072 16.7508 7.99072V5.99072C15.5902 5.99072 14.8008 6.99169 14.8008 8.03109H16.8008ZM16.7508 7.99072C16.732 7.99072 16.7139 7.98617 16.7003 7.97987C16.6877 7.97405 16.6833 7.96888 16.6841 7.96975C16.6864 7.97224 16.7008 7.99127 16.7008 8.03109H18.7008C18.7008 6.99169 17.9113 5.99072 16.7508 5.99072V7.99072Z" fill="white" mask="url(#path-3-inside-2_2_344)"/>
<mask id="path-5-inside-3_2_344" fill="white">
<ellipse cx="11.7508" cy="8.03109" rx="0.95" ry="1.04037"/>
</mask>
<path d="M11.7008 8.03109C11.7008 8.07091 11.6864 8.08995 11.6841 8.09244C11.6833 8.09331 11.6877 8.08813 11.7003 8.08232C11.7139 8.07602 11.732 8.07146 11.7508 8.07146V10.0715C12.9113 10.0715 13.7008 9.07049 13.7008 8.03109H11.7008ZM11.7508 8.07146C11.7696 8.07146 11.7877 8.07602 11.8013 8.08232C11.8138 8.08813 11.8183 8.09331 11.8175 8.09244C11.8152 8.08995 11.8008 8.07091 11.8008 8.03109H9.80078C9.80078 9.07049 10.5902 10.0715 11.7508 10.0715V8.07146ZM11.8008 8.03109C11.8008 7.99127 11.8152 7.97224 11.8175 7.96975C11.8183 7.96888 11.8138 7.97405 11.8013 7.97987C11.7877 7.98617 11.7696 7.99072 11.7508 7.99072V5.99072C10.5902 5.99072 9.80078 6.99169 9.80078 8.03109H11.8008ZM11.7508 7.99072C11.732 7.99072 11.7139 7.98617 11.7003 7.97987C11.6877 7.97405 11.6833 7.96888 11.6841 7.96975C11.6864 7.97224 11.7008 7.99127 11.7008 8.03109H13.7008C13.7008 6.99169 12.9113 5.99072 11.7508 5.99072V7.99072Z" fill="white" mask="url(#path-5-inside-3_2_344)"/>
<defs>
<filter id="filter0_d_2_344" x="0" y="0" width="29.2708" height="26" filterUnits="userSpaceOnUse" color-interpolation-filters="sRGB">
<feFlood flood-opacity="0" result="BackgroundImageFix"/>
<feColorMatrix in="SourceAlpha" type="matrix" values="0 0 0 0 0 0 0 0 0 0 0 0 0 0 0 0 0 0 127 0" result="hardAlpha"/>
<feOffset dy="4"/>
<feGaussianBlur stdDeviation="2"/>
<feComposite in2="hardAlpha" operator="out"/>
<feColorMatrix type="matrix" values="0 0 0 0 0 0 0 0 0 0 0 0 0 0 0 0 0 0 0.25 0"/>
<feBlend mode="normal" in2="BackgroundImageFix" result="effect1_dropShadow_2_344"/>
<feBlend mode="normal" in="SourceGraphic" in2="effect1_dropShadow_2_344" result="shape"/>
</filter>
</defs>
</svg>
