<svg width="15" height="22" viewBox="0 0 15 22" fill="none" xmlns="http://www.w3.org/2000/svg">
<path d="M12.5558 12.5651C11.808 13.6022 11.0082 14.7113 10.5486 15.9957H4.45361C3.99145 14.6958 3.17599 13.5704 2.41485 12.52L2.3992 12.4984L2.39887 12.498C2.17665 12.192 1.95877 11.892 1.74986 11.5887L1.74933 11.5879C0.961885 10.449 0.5 9.06106 0.5 7.5625C0.5 3.65816 3.638 0.5 7.5 0.5C11.3618 0.5 14.5 3.65797 14.5 7.5668C14.5 9.06493 14.0384 10.449 13.2502 11.5929L13.2501 11.593C13.0412 11.8963 12.8234 12.1963 12.6011 12.5023L12.6001 12.5037C12.5854 12.5241 12.5706 12.5446 12.5558 12.5651ZM10.4091 18.5625C10.4091 20.1895 9.10348 21.5 7.5 21.5C5.89652 21.5 4.59091 20.1895 4.59091 18.5625V18.375H10.4091V18.5625Z" stroke="white"/>
<path d="M3.44721 9.5C2.94721 8.66667 2.44721 6.4 4.44721 4" stroke="white" stroke-linecap="round"/>
</svg>
