<svg width="19" height="21" viewBox="0 0 19 21" fill="none" xmlns="http://www.w3.org/2000/svg">
<path d="M9.51546 20.998L6.03294 17.247L13.0016 17.2504L9.51546 20.998Z" fill="white"/>
<mask id="path-2-inside-1_2_319" fill="white">
<path d="M0 4C0 1.79086 1.79086 0 4 0H14.8369C17.0461 0 18.8369 1.79086 18.8369 4V13.9968C18.8369 16.2059 17.0461 17.9968 14.8369 17.9968H4C1.79086 17.9968 0 16.2059 0 13.9968V4Z"/>
</mask>
<path d="M4 1H14.8369V-1H4V1ZM17.8369 4V13.9968H19.8369V4H17.8369ZM14.8369 16.9968H4V18.9968H14.8369V16.9968ZM1 13.9968V4H-1V13.9968H1ZM4 16.9968C2.34315 16.9968 1 15.6536 1 13.9968H-1C-1 16.7582 1.23858 18.9968 4 18.9968V16.9968ZM17.8369 13.9968C17.8369 15.6536 16.4938 16.9968 14.8369 16.9968V18.9968C17.5983 18.9968 19.8369 16.7582 19.8369 13.9968H17.8369ZM14.8369 1C16.4938 1 17.8369 2.34315 17.8369 4H19.8369C19.8369 1.23858 17.5983 -1 14.8369 -1V1ZM4 -1C1.23858 -1 -1 1.23857 -1 4H1C1 2.34314 2.34315 1 4 1V-1Z" fill="white" mask="url(#path-2-inside-1_2_319)"/>
<path d="M12.0586 6.49906C12.0586 7.58213 11.1329 8.49861 9.94241 8.49861C8.7519 8.49861 7.82617 7.58213 7.82617 6.49906C7.82617 5.41599 8.7519 4.49951 9.94241 4.49951C11.1329 4.49951 12.0586 5.41599 12.0586 6.49906Z" stroke="white"/>
<mask id="path-5-inside-2_2_319" fill="white">
<path fill-rule="evenodd" clip-rule="evenodd" d="M13.9567 13.2925C15.2829 14.3217 16.2652 15.7725 16.7609 17.434L15.5182 17.8506L3.26096 17.8604L2.02299 17.448C2.51527 15.7856 3.49462 14.333 4.81875 13.3013C6.14288 12.2695 7.74282 11.7124 9.38612 11.7108C11.0294 11.7093 12.6305 12.2633 13.9567 13.2925Z"/>
</mask>
<path d="M16.7609 17.434L17.0788 18.3821L17.9955 18.0747L17.7191 17.1482L16.7609 17.434ZM13.9567 13.2925L13.3437 14.0825L13.3437 14.0825L13.9567 13.2925ZM15.5182 17.8506L15.519 18.8506L15.6818 18.8505L15.8361 18.7987L15.5182 17.8506ZM3.26096 17.8604L2.94496 18.8092L3.09923 18.8606L3.26184 18.8604L3.26096 17.8604ZM2.02299 17.448L1.06414 17.164L0.7896 18.0911L1.70699 18.3968L2.02299 17.448ZM9.38612 11.7108L9.38509 10.7108L9.38509 10.7108L9.38612 11.7108ZM17.7191 17.1482C17.1659 15.2937 16.0665 13.6641 14.5698 12.5025L13.3437 14.0825C14.4993 14.9794 15.3645 16.2512 15.8026 17.7198L17.7191 17.1482ZM15.8361 18.7987L17.0788 18.3821L16.4429 16.4858L15.2002 16.9025L15.8361 18.7987ZM15.5173 16.8506L3.26008 16.8604L3.26184 18.8604L15.519 18.8506L15.5173 16.8506ZM1.70699 18.3968L2.94496 18.8092L3.57695 16.9117L2.33898 16.4993L1.70699 18.3968ZM4.20408 12.5124C2.70968 13.6768 1.61359 15.3085 1.06414 17.164L2.98183 17.732C3.41695 16.2626 4.27955 14.9892 5.43341 14.0901L4.20408 12.5124ZM9.38509 10.7108C7.51432 10.7126 5.6995 11.3472 4.20408 12.5124L5.43341 14.0901C6.58625 13.1918 7.97131 12.7122 9.38715 12.7108L9.38509 10.7108ZM14.5698 12.5025C13.072 11.3402 11.2559 10.7091 9.38509 10.7108L9.38715 12.7108C10.803 12.7095 12.189 13.1865 13.3437 14.0825L14.5698 12.5025Z" fill="white" mask="url(#path-5-inside-2_2_319)"/>
</svg>
