<svg width="19" height="18" viewBox="0 0 19 18" fill="none" xmlns="http://www.w3.org/2000/svg">
<rect x="0.5" y="0.5" width="17.8369" height="16.9968" rx="3.5" stroke="white"/>
<path d="M7.33333 6.85714C7.33333 6.0692 7.93125 5.42857 8.66667 5.42857H9.33333C10.0688 5.42857 10.6667 6.0692 10.6667 6.85714V6.9375C10.6667 7.42411 10.4354 7.87723 10.0542 8.13839L9.175 8.7433C8.65 9.10491 8.33333 9.72768 8.33333 10.3951V10.4286C8.33333 10.8237 8.63125 11.1429 9 11.1429C9.36875 11.1429 9.66667 10.8237 9.66667 10.4286V10.3973C9.66667 10.2143 9.75417 10.0446 9.89583 9.94643L10.775 9.34152C11.5375 8.81473 12 7.91071 12 6.9375V6.85714C12 5.27902 10.8063 4 9.33333 4H8.66667C7.19375 4 6 5.27902 6 6.85714C6 7.25223 6.29792 7.57143 6.66667 7.57143C7.03542 7.57143 7.33333 7.25223 7.33333 6.85714ZM9 14C9.22101 14 9.43298 13.9059 9.58926 13.7385C9.74554 13.571 9.83333 13.3439 9.83333 13.1071C9.83333 12.8703 9.74554 12.6432 9.58926 12.4758C9.43298 12.3084 9.22101 12.2143 9 12.2143C8.77899 12.2143 8.56702 12.3084 8.41074 12.4758C8.25446 12.6432 8.16667 12.8703 8.16667 13.1071C8.16667 13.3439 8.25446 13.571 8.41074 13.7385C8.56702 13.9059 8.77899 14 9 14Z" fill="white"/>
</svg>
