<svg width="22" height="23" viewBox="0 0 22 23" fill="none" xmlns="http://www.w3.org/2000/svg">
<path d="M0 2.75C0 1.2332 1.21512 0 2.70968 0H9.48387V5.5C9.48387 6.26055 10.0893 6.875 10.8387 6.875H16.2581V13.0625H7.45161C5.95706 13.0625 4.74194 14.2957 4.74194 15.8125V22H2.70968C1.21512 22 0 20.7668 0 19.25V2.75ZM16.2581 5.5H10.8387V0L16.2581 5.5ZM7.45161 15.125H8.80645C10.1147 15.125 11.1774 16.2035 11.1774 17.5312C11.1774 18.859 10.1147 19.9375 8.80645 19.9375H8.12903V21.3125C8.12903 21.6906 7.82419 22 7.45161 22C7.07903 22 6.77419 21.6906 6.77419 21.3125V19.25V15.8125C6.77419 15.4344 7.07903 15.125 7.45161 15.125ZM8.80645 18.5625C9.36956 18.5625 9.82258 18.1027 9.82258 17.5312C9.82258 16.9598 9.36956 16.5 8.80645 16.5H8.12903V18.5625H8.80645ZM12.871 15.125H14.2258C15.3478 15.125 16.2581 16.0488 16.2581 17.1875V19.9375C16.2581 21.0762 15.3478 22 14.2258 22H12.871C12.4984 22 12.1935 21.6906 12.1935 21.3125V15.8125C12.1935 15.4344 12.4984 15.125 12.871 15.125ZM14.2258 20.625C14.5984 20.625 14.9032 20.3156 14.9032 19.9375V17.1875C14.9032 16.8094 14.5984 16.5 14.2258 16.5H13.5484V20.625H14.2258ZM17.6129 15.8125C17.6129 15.4344 17.9177 15.125 18.2903 15.125H20.3226C20.6952 15.125 21 15.4344 21 15.8125C21 16.1906 20.6952 16.5 20.3226 16.5H18.9677V17.875H20.3226C20.6952 17.875 21 18.1844 21 18.5625C21 18.9406 20.6952 19.25 20.3226 19.25H18.9677V21.3125C18.9677 21.6906 18.6629 22 18.2903 22C17.9177 22 17.6129 21.6906 17.6129 21.3125V18.5625V15.8125Z" fill="#0046AC"/>
<rect x="5" y="13" width="17" height="10" rx="3" fill="white"/>
<path d="M8.28125 21H7.01953L7.02734 19.9453H8.28125C8.54167 19.9453 8.76172 19.8828 8.94141 19.7578C9.1237 19.6328 9.26172 19.4466 9.35547 19.1992C9.45182 18.9492 9.5 18.6419 9.5 18.2773V18.0312C9.5 17.7578 9.47266 17.5182 9.41797 17.3125C9.36589 17.1042 9.28776 16.931 9.18359 16.793C9.07943 16.6523 8.94922 16.5469 8.79297 16.4766C8.63932 16.4062 8.46224 16.3711 8.26172 16.3711H6.99609V15.3125H8.26172C8.64714 15.3125 9 15.3789 9.32031 15.5117C9.64323 15.6419 9.92188 15.8294 10.1562 16.0742C10.3932 16.3164 10.5755 16.6042 10.7031 16.9375C10.8333 17.2682 10.8984 17.6354 10.8984 18.0391V18.2773C10.8984 18.6784 10.8333 19.0456 10.7031 19.3789C10.5755 19.7122 10.3945 20 10.1602 20.2422C9.92578 20.4844 9.64844 20.6719 9.32812 20.8047C9.01042 20.9349 8.66146 21 8.28125 21ZM7.80469 15.3125V21H6.43359V15.3125H7.80469ZM16.4258 18.043V18.2734C16.4258 18.7083 16.3646 19.099 16.2422 19.4453C16.1224 19.7891 15.9518 20.0833 15.7305 20.3281C15.5091 20.5703 15.2474 20.7565 14.9453 20.8867C14.6432 21.0143 14.3099 21.0781 13.9453 21.0781C13.5781 21.0781 13.2422 21.0143 12.9375 20.8867C12.6354 20.7565 12.3724 20.5703 12.1484 20.3281C11.9271 20.0833 11.7552 19.7891 11.6328 19.4453C11.513 19.099 11.4531 18.7083 11.4531 18.2734V18.043C11.4531 17.6081 11.513 17.2174 11.6328 16.8711C11.7552 16.5247 11.9258 16.2305 12.1445 15.9883C12.3659 15.7435 12.6276 15.5573 12.9297 15.4297C13.2344 15.2995 13.5703 15.2344 13.9375 15.2344C14.3021 15.2344 14.6354 15.2995 14.9375 15.4297C15.2422 15.5573 15.5052 15.7435 15.7266 15.9883C15.9479 16.2305 16.1198 16.5247 16.2422 16.8711C16.3646 17.2174 16.4258 17.6081 16.4258 18.043ZM15.0352 18.2734V18.0352C15.0352 17.7539 15.0104 17.5065 14.9609 17.293C14.9141 17.0768 14.8438 16.8958 14.75 16.75C14.6562 16.6042 14.5404 16.4948 14.4023 16.4219C14.2669 16.3464 14.112 16.3086 13.9375 16.3086C13.7552 16.3086 13.5964 16.3464 13.4609 16.4219C13.3255 16.4948 13.2122 16.6042 13.1211 16.75C13.0299 16.8958 12.9609 17.0768 12.9141 17.293C12.8698 17.5065 12.8477 17.7539 12.8477 18.0352V18.2734C12.8477 18.5521 12.8698 18.7995 12.9141 19.0156C12.9609 19.2292 13.0299 19.4102 13.1211 19.5586C13.2148 19.707 13.3294 19.819 13.4648 19.8945C13.6029 19.9701 13.763 20.0078 13.9453 20.0078C14.1198 20.0078 14.2747 19.9701 14.4102 19.8945C14.5456 19.819 14.6589 19.707 14.75 19.5586C14.8438 19.4102 14.9141 19.2292 14.9609 19.0156C15.0104 18.7995 15.0352 18.5521 15.0352 18.2734ZM20.3711 19.0742H21.7383C21.7201 19.4701 21.6133 19.819 21.418 20.1211C21.2227 20.4232 20.9518 20.6589 20.6055 20.8281C20.2617 20.9948 19.8555 21.0781 19.3867 21.0781C19.0065 21.0781 18.6667 21.0143 18.3672 20.8867C18.0703 20.7591 17.8177 20.5755 17.6094 20.3359C17.4036 20.0964 17.2461 19.806 17.1367 19.4648C17.0299 19.1237 16.9766 18.7396 16.9766 18.3125V18.0039C16.9766 17.5768 17.0326 17.1927 17.1445 16.8516C17.2591 16.5078 17.4206 16.2161 17.6289 15.9766C17.8398 15.7344 18.0924 15.5495 18.3867 15.4219C18.681 15.2943 19.0078 15.2305 19.3672 15.2305C19.862 15.2305 20.2799 15.319 20.6211 15.4961C20.9622 15.6732 21.2266 15.9167 21.4141 16.2266C21.6016 16.5339 21.7122 16.8841 21.7461 17.2773H20.3789C20.3737 17.0638 20.3372 16.8854 20.2695 16.7422C20.2018 16.5964 20.0951 16.487 19.9492 16.4141C19.8034 16.3411 19.6094 16.3047 19.3672 16.3047C19.1979 16.3047 19.0508 16.3359 18.9258 16.3984C18.8008 16.4609 18.6966 16.5599 18.6133 16.6953C18.5299 16.8307 18.4674 17.0065 18.4258 17.2227C18.3867 17.4362 18.3672 17.694 18.3672 17.9961V18.3125C18.3672 18.6146 18.3854 18.8724 18.4219 19.0859C18.4583 19.2995 18.5169 19.474 18.5977 19.6094C18.6784 19.7448 18.7826 19.8451 18.9102 19.9102C19.0404 19.9727 19.1992 20.0039 19.3867 20.0039C19.5951 20.0039 19.7708 19.9714 19.9141 19.9062C20.0573 19.8385 20.168 19.737 20.2461 19.6016C20.3242 19.4635 20.3659 19.2878 20.3711 19.0742Z" fill="#0046AC"/>
</svg>
