<svg width="17" height="15" viewBox="0 0 17 15" fill="none" xmlns="http://www.w3.org/2000/svg">
<mask id="path-1-inside-1_2_7390" fill="white">
<path fill-rule="evenodd" clip-rule="evenodd" d="M10.818 1.70549L10.818 1.69247C10.818 0.757745 9.78014 0 8.49984 0C7.21954 0 6.18165 0.757745 6.18165 1.69247L6.18172 1.70553C3.84626 1.87347 1.95501 3.64548 1.60401 5.9255C1.58458 5.92431 1.56506 5.92371 1.54546 5.92371C0.691925 5.92371 0 7.06033 0 8.46242C0 9.86451 0.691925 11.0011 1.54546 11.0011C1.63235 11.0011 1.71757 10.9893 1.80055 10.9667C2.46208 12.9535 4.33652 14.386 6.54555 14.386H10.4547C12.6637 14.386 14.5381 12.9535 15.1997 10.9668C15.2826 10.9894 15.3677 11.0011 15.4545 11.0011C16.3081 11.0011 17 9.86451 17 8.46242C17 7.06033 16.3081 5.92371 15.4545 5.92371C15.435 5.92371 15.4156 5.92431 15.3962 5.92549C15.0452 3.64529 13.1537 1.8732 10.818 1.70549Z"/>
</mask>
<path d="M10.818 1.69247L11.818 1.6976V1.69247H10.818ZM10.818 1.70549L9.81797 1.70036L9.81318 2.63591L10.7463 2.70292L10.818 1.70549ZM6.18165 1.69247H5.18164L5.18166 1.69766L6.18165 1.69247ZM6.18172 1.70553L6.25345 2.70295L7.18656 2.63585L7.18171 1.70034L6.18172 1.70553ZM1.60401 5.9255L1.54294 6.92364L2.45356 6.97935L2.59237 6.07765L1.60401 5.9255ZM1.80055 10.9667L2.74934 10.6508L2.45036 9.75287L1.53734 10.002L1.80055 10.9667ZM15.1997 10.9668L15.4627 10.002L14.5498 9.75312L14.2509 10.6508L15.1997 10.9668ZM15.3962 5.92549L14.4079 6.07764L14.5466 6.97913L15.4571 6.92364L15.3962 5.92549ZM9.81804 1.68734L9.81797 1.70036L11.8179 1.71062L11.818 1.6976L9.81804 1.68734ZM8.49984 1C8.95072 1 9.31855 1.13483 9.54939 1.30337C9.78103 1.47248 9.81803 1.62217 9.81803 1.69247H11.818C11.818 0.828049 11.3361 0.131499 10.7287 -0.311941C10.1205 -0.755962 9.32926 -1 8.49984 -1V1ZM7.18165 1.69247C7.18165 1.62217 7.21865 1.47248 7.45029 1.30337C7.68113 1.13483 8.04895 1 8.49984 1V-1C7.67042 -1 6.87915 -0.755962 6.27098 -0.311941C5.6636 0.131499 5.18165 0.828049 5.18165 1.69247H7.18165ZM7.18171 1.70034L7.18164 1.68728L5.18166 1.69766L5.18173 1.71071L7.18171 1.70034ZM2.59237 6.07765C2.87296 4.25496 4.38706 2.83716 6.25345 2.70295L6.10999 0.708101C3.30546 0.909779 1.03705 3.036 0.615654 5.77335L2.59237 6.07765ZM1.54546 6.92371C1.54459 6.92371 1.54374 6.92368 1.54294 6.92364L1.66508 4.92737C1.62543 4.92494 1.58554 4.92371 1.54546 4.92371V6.92371ZM1 8.46242C1 7.91402 1.13736 7.46565 1.30683 7.18727C1.48709 6.89116 1.60079 6.92371 1.54546 6.92371V4.92371C0.636598 4.92371 -0.022432 5.52457 -0.40152 6.1473C-0.791396 6.78774 -1 7.60873 -1 8.46242H1ZM1.54546 10.0011C1.60079 10.0011 1.48709 10.0337 1.30683 9.73757C1.13736 9.45918 1 9.01082 1 8.46242H-1C-1 9.31611 -0.791396 10.1371 -0.40152 10.7775C-0.0224319 11.4003 0.636598 12.0011 1.54546 12.0011V10.0011ZM1.53734 10.002C1.5373 10.002 1.53822 10.0017 1.53994 10.0015C1.54167 10.0013 1.54359 10.0011 1.54546 10.0011V12.0011C1.72363 12.0011 1.89731 11.9769 2.06376 11.9314L1.53734 10.002ZM6.54555 13.386C4.77987 13.386 3.27894 12.2413 2.74934 10.6508L0.851764 11.2826C1.64522 13.6656 3.89318 15.386 6.54555 15.386V13.386ZM10.4547 13.386H6.54555V15.386H10.4547V13.386ZM14.2509 10.6508C13.7213 12.2414 12.2203 13.386 10.4547 13.386V15.386C13.107 15.386 15.355 13.6657 16.1484 11.2827L14.2509 10.6508ZM15.4545 10.0011C15.4564 10.0011 15.4583 10.0013 15.4601 10.0015C15.4618 10.0017 15.4627 10.002 15.4627 10.002L14.9367 11.9316C15.103 11.9769 15.2765 12.0011 15.4545 12.0011V10.0011ZM16 8.46242C16 9.01082 15.8626 9.45918 15.6932 9.73757C15.5129 10.0337 15.3992 10.0011 15.4545 10.0011V12.0011C16.3634 12.0011 17.0224 11.4003 17.4015 10.7775C17.7914 10.1371 18 9.31611 18 8.46242H16ZM15.4545 6.92371C15.3992 6.92371 15.5129 6.89116 15.6932 7.18727C15.8626 7.46565 16 7.91402 16 8.46242H18C18 7.60873 17.7914 6.78774 17.4015 6.1473C17.0224 5.52457 16.3634 4.92371 15.4545 4.92371V6.92371ZM15.4571 6.92364C15.4563 6.92368 15.4554 6.92371 15.4545 6.92371V4.92371C15.4146 4.92371 15.3749 4.92493 15.3354 4.92734L15.4571 6.92364ZM10.7463 2.70292C12.6129 2.83694 14.1272 4.25481 14.4079 6.07764L16.3846 5.77333C15.9631 3.03578 13.6944 0.909448 10.8896 0.708054L10.7463 2.70292Z" fill="white" mask="url(#path-1-inside-1_2_7390)"/>
<mask id="path-3-inside-2_2_7390" fill="white">
<ellipse cx="10.1907" cy="6.4184" rx="0.759259" ry="0.831484"/>
</mask>
<path d="M9.94991 6.4184C9.94991 6.40054 9.95684 6.36735 9.98908 6.33204C10.0227 6.29522 10.0931 6.24988 10.1907 6.24988V8.24988C11.2459 8.24988 11.9499 7.34243 11.9499 6.4184H9.94991ZM10.1907 6.24988C10.2882 6.24988 10.3586 6.29522 10.3922 6.33204C10.4245 6.36735 10.4314 6.40054 10.4314 6.4184H8.4314C8.4314 7.34243 9.13546 8.24988 10.1907 8.24988V6.24988ZM10.4314 6.4184C10.4314 6.43626 10.4245 6.46945 10.3922 6.50476C10.3586 6.54157 10.2882 6.58691 10.1907 6.58691V4.58691C9.13546 4.58691 8.4314 5.49436 8.4314 6.4184H10.4314ZM10.1907 6.58691C10.0931 6.58691 10.0227 6.54157 9.98908 6.50476C9.95684 6.46945 9.94991 6.43626 9.94991 6.4184H11.9499C11.9499 5.49436 11.2459 4.58691 10.1907 4.58691V6.58691Z" fill="white" mask="url(#path-3-inside-2_2_7390)"/>
<mask id="path-5-inside-3_2_7390" fill="white">
<ellipse cx="6.19456" cy="6.4184" rx="0.759259" ry="0.831484"/>
</mask>
<path d="M5.95382 6.4184C5.95382 6.40054 5.96074 6.36735 5.99299 6.33204C6.02661 6.29522 6.09701 6.24988 6.19456 6.24988V8.24988C7.24976 8.24988 7.95382 7.34243 7.95382 6.4184H5.95382ZM6.19456 6.24988C6.29211 6.24988 6.36252 6.29522 6.39614 6.33204C6.42838 6.36735 6.4353 6.40054 6.4353 6.4184H4.4353C4.4353 7.34243 5.13937 8.24988 6.19456 8.24988V6.24988ZM6.4353 6.4184C6.4353 6.43626 6.42838 6.46945 6.39614 6.50476C6.36252 6.54157 6.29211 6.58691 6.19456 6.58691V4.58691C5.13937 4.58691 4.4353 5.49436 4.4353 6.4184H6.4353ZM6.19456 6.58691C6.09701 6.58691 6.02661 6.54157 5.99299 6.50476C5.96074 6.46945 5.95382 6.43626 5.95382 6.4184H7.95382C7.95382 5.49436 7.24976 4.58691 6.19456 4.58691V6.58691Z" fill="white" mask="url(#path-5-inside-3_2_7390)"/>
<path d="M10.0681 3.87304C10.0681 2.9467 9.31815 2.19678 8.3918 2.19678C7.46546 2.19678 6.71554 2.9467 6.71554 3.87304V5.91622H4.67236C3.74601 5.91622 2.99609 6.66614 2.99609 7.59249C2.99609 8.51883 3.74601 9.26875 4.67236 9.26875H6.71554V11.3119C6.71554 12.2383 7.46546 12.9882 8.3918 12.9882C9.31815 12.9882 10.0681 12.2383 10.0681 11.3119V9.26875H12.1113C13.0376 9.26875 13.7875 8.51883 13.7875 7.59249C13.7875 6.66614 13.0376 5.91622 12.1113 5.91622H10.0681V3.87304Z" fill="white" stroke="#A438FA" stroke-width="2"/>
</svg>
