<svg width="111" height="107" viewBox="0 0 111 107" fill="none" xmlns="http://www.w3.org/2000/svg">
<circle cx="63.864" cy="59.864" r="46.864" fill="#D9D9D9"/>
<g filter="url(#filter0_d_2_1116)">
<path d="M59.7333 76.8H68.2667C68.2667 79.11 66.3467 81 64 81C61.6533 81 59.7333 79.11 59.7333 76.8ZM55.4667 74.7H72.5333V70.5H55.4667V74.7ZM80 54.75C80 62.772 74.3253 67.056 71.9573 68.4H56.0427C53.6747 67.056 48 62.772 48 54.75C48 46.056 55.168 39 64 39C72.832 39 80 46.056 80 54.75Z" fill="white"/>
</g>
<path d="M59 52L64.2381 59.129M64.2381 59.129V65M64.2381 59.129L69 52" stroke="#D9D9D9" stroke-linecap="round" stroke-linejoin="round"/>
<path d="M102.99 11.2812C102.899 11.1094 102.708 11 102.499 11C102.289 11 102.1 11.1094 102.008 11.2812L100.912 13.3482L98.4645 13.6794C98.26 13.7075 98.0896 13.8387 98.0265 14.0184C97.9635 14.1981 98.0146 14.3965 98.1612 14.5293L99.9371 16.14L99.5178 18.4164C99.4838 18.6038 99.569 18.7944 99.7377 18.9054C99.9064 19.0163 100.13 19.0304 100.314 18.9413L102.5 17.8711L104.687 18.9413C104.871 19.0304 105.095 19.0179 105.263 18.9054C105.432 18.7929 105.517 18.6038 105.483 18.4164L105.062 16.14L106.838 14.5293C106.985 14.3965 107.037 14.1981 106.973 14.0184C106.908 13.8387 106.739 13.7075 106.535 13.6794L104.086 13.3482L102.99 11.2812Z" fill="#CFCFCF"/>
<path d="M103.987 95.375C103.987 95.1676 104.14 95 104.329 95H104.671C104.86 95 105.013 95.1676 105.013 95.375V97.0262L106.316 96.2012C106.48 96.098 106.689 96.159 106.783 96.3383L106.954 96.6629C107.048 96.8422 106.993 97.0719 106.829 97.175L105.526 98L106.829 98.825C106.993 98.9281 107.048 99.1578 106.954 99.3371L106.783 99.6617C106.689 99.841 106.48 99.9031 106.316 99.7988L105.013 98.9738V100.625C105.013 100.832 104.86 101 104.671 101H104.329C104.14 101 103.987 100.832 103.987 100.625V98.9738L102.684 99.8C102.52 99.9031 102.311 99.8422 102.217 99.6629L102.046 99.3383C101.952 99.159 102.007 98.9293 102.171 98.8262L103.474 98L102.171 97.175C102.007 97.0719 101.952 96.8422 102.046 96.6629L102.217 96.3383C102.311 96.1578 102.52 96.0969 102.684 96.2L103.987 97.025V95.375Z" fill="#D9D9D9"/>
<path d="M108.326 87.1758C108.266 87.0684 108.139 87 107.999 87C107.859 87 107.733 87.0684 107.672 87.1758L106.941 88.4676L105.31 88.6746C105.173 88.6922 105.06 88.7742 105.018 88.8865C104.976 88.9988 105.01 89.1228 105.107 89.2058L106.291 90.2125L106.012 91.6352C105.989 91.7524 106.046 91.8715 106.158 91.9409C106.271 92.0102 106.42 92.019 106.543 91.9633L108 91.2944L109.458 91.9633C109.581 92.019 109.73 92.0112 109.842 91.9409C109.955 91.8705 110.011 91.7524 109.989 91.6352L109.708 90.2125L110.892 89.2058C110.99 89.1228 111.025 88.9988 110.982 88.8865C110.939 88.7742 110.826 88.6922 110.69 88.6746L109.057 88.4676L108.326 87.1758Z" fill="#CFCFCF"/>
<path d="M3.57684 54.625C3.57684 54.2793 3.85186 54 4.19228 54H4.80772C5.14814 54 5.42316 54.2793 5.42316 54.625V57.377L7.76953 56.002C8.06379 55.8301 8.44075 55.9316 8.60999 56.2305L8.91772 56.7715C9.08696 57.0703 8.98695 57.4531 8.69269 57.625L6.34632 59L8.69269 60.375C8.98695 60.5469 9.08696 60.9297 8.91772 61.2285L8.60999 61.7695C8.44075 62.0684 8.06379 62.1719 7.76953 61.998L5.42316 60.623V63.375C5.42316 63.7207 5.14814 64 4.80772 64H4.19228C3.85186 64 3.57684 63.7207 3.57684 63.375V60.623L1.23047 62C0.936209 62.1719 0.559251 62.0703 0.390005 61.7715L0.0822839 61.2305C-0.0869625 60.9316 0.0130468 60.5488 0.307305 60.377L2.65368 59L0.307305 57.625C0.0130468 57.4531 -0.0869625 57.0703 0.0822839 56.7715L0.390005 56.2305C0.559251 55.9297 0.936209 55.8281 1.23047 56L3.57684 57.375V54.625Z" fill="#D9D9D9"/>
<path d="M8.98963 37.2812C8.8993 37.1094 8.70841 37 8.49878 37C8.28914 37 8.09995 37.1094 8.00792 37.2812L6.91201 39.3482L4.46455 39.6794C4.26003 39.7075 4.08959 39.8387 4.02653 40.0184C3.96347 40.1981 4.0146 40.3965 4.16117 40.5293L5.93712 42.14L5.51785 44.4164C5.48376 44.6038 5.56898 44.7944 5.73771 44.9054C5.90644 45.0163 6.12971 45.0304 6.31378 44.9413L8.50048 43.8711L10.6872 44.9413C10.8712 45.0304 11.0945 45.0179 11.2633 44.9054C11.432 44.7929 11.5172 44.6038 11.4831 44.4164L11.0621 42.14L12.8381 40.5293C12.9847 40.3965 13.0375 40.1981 12.9727 40.0184C12.908 39.8387 12.7392 39.7075 12.5347 39.6794L10.0855 39.3482L8.98963 37.2812Z" fill="#CFCFCF"/>
<path d="M90.9871 0.375C90.9871 0.167578 91.1399 0 91.329 0H91.671C91.8601 0 92.0129 0.167578 92.0129 0.375V2.02617L93.3164 1.20117C93.4799 1.09805 93.6893 1.15898 93.7833 1.33828L93.9543 1.66289C94.0483 1.84219 93.9928 2.07188 93.8293 2.175L92.5257 3L93.8293 3.825C93.9928 3.92812 94.0483 4.15781 93.9543 4.33711L93.7833 4.66172C93.6893 4.84102 93.4799 4.90312 93.3164 4.79883L92.0129 3.97383V5.625C92.0129 5.83242 91.8601 6 91.671 6H91.329C91.1399 6 90.9871 5.83242 90.9871 5.625V3.97383L89.6836 4.8C89.5201 4.90313 89.3107 4.84219 89.2167 4.66289L89.0457 4.33828C88.9517 4.15898 89.0072 3.9293 89.1707 3.82617L90.4743 3L89.1707 2.175C89.0072 2.07188 88.9517 1.84219 89.0457 1.66289L89.2167 1.33828C89.3107 1.15781 89.5201 1.09688 89.6836 1.2L90.9871 2.025V0.375Z" fill="#D9D9D9"/>
<defs>
<filter id="filter0_d_2_1116" x="44" y="39" width="40" height="53" filterUnits="userSpaceOnUse" color-interpolation-filters="sRGB">
<feFlood flood-opacity="0" result="BackgroundImageFix"/>
<feColorMatrix in="SourceAlpha" type="matrix" values="0 0 0 0 0 0 0 0 0 0 0 0 0 0 0 0 0 0 127 0" result="hardAlpha"/>
<feOffset dy="7"/>
<feGaussianBlur stdDeviation="2"/>
<feComposite in2="hardAlpha" operator="out"/>
<feColorMatrix type="matrix" values="0 0 0 0 0 0 0 0 0 0 0 0 0 0 0 0 0 0 0.2 0"/>
<feBlend mode="normal" in2="BackgroundImageFix" result="effect1_dropShadow_2_1116"/>
<feBlend mode="normal" in="SourceGraphic" in2="effect1_dropShadow_2_1116" result="shape"/>
</filter>
</defs>
</svg>
