<svg width="56" height="56" viewBox="0 0 56 56" fill="none" xmlns="http://www.w3.org/2000/svg">
<ellipse cx="27.7587" cy="28" rx="27.7586" ry="28" fill="#D9D9D9"/>
<g filter="url(#filter0_d_2_3508)">
<path d="M21.6463 17C20.097 17 18.8373 18.2332 18.8373 19.75V36.25C18.8373 37.7668 20.097 39 21.6463 39H32.8819C34.4312 39 35.6908 37.7668 35.6908 36.25V23.875H30.073C29.2961 23.875 28.6685 23.2605 28.6685 22.5V17H21.6463ZM30.073 17V22.5H35.6908L30.073 17ZM23.7529 28H30.7752C31.1614 28 31.4774 28.3094 31.4774 28.6875C31.4774 29.0656 31.1614 29.375 30.7752 29.375H23.7529C23.3667 29.375 23.0507 29.0656 23.0507 28.6875C23.0507 28.3094 23.3667 28 23.7529 28ZM23.7529 30.75H30.7752C31.1614 30.75 31.4774 31.0594 31.4774 31.4375C31.4774 31.8156 31.1614 32.125 30.7752 32.125H23.7529C23.3667 32.125 23.0507 31.8156 23.0507 31.4375C23.0507 31.0594 23.3667 30.75 23.7529 30.75ZM23.7529 33.5H30.7752C31.1614 33.5 31.4774 33.8094 31.4774 34.1875C31.4774 34.5656 31.1614 34.875 30.7752 34.875H23.7529C23.3667 34.875 23.0507 34.5656 23.0507 34.1875C23.0507 33.8094 23.3667 33.5 23.7529 33.5Z" fill="white"/>
</g>
<defs>
<filter id="filter0_d_2_3508" x="15.8373" y="17" width="22.8535" height="30" filterUnits="userSpaceOnUse" color-interpolation-filters="sRGB">
<feFlood flood-opacity="0" result="BackgroundImageFix"/>
<feColorMatrix in="SourceAlpha" type="matrix" values="0 0 0 0 0 0 0 0 0 0 0 0 0 0 0 0 0 0 127 0" result="hardAlpha"/>
<feOffset dy="5"/>
<feGaussianBlur stdDeviation="1.5"/>
<feComposite in2="hardAlpha" operator="out"/>
<feColorMatrix type="matrix" values="0 0 0 0 0 0 0 0 0 0 0 0 0 0 0 0 0 0 0.2 0"/>
<feBlend mode="normal" in2="BackgroundImageFix" result="effect1_dropShadow_2_3508"/>
<feBlend mode="normal" in="SourceGraphic" in2="effect1_dropShadow_2_3508" result="shape"/>
</filter>
</defs>
</svg>
