<svg width="21" height="22" viewBox="0 0 21 22" fill="none" xmlns="http://www.w3.org/2000/svg">
<path d="M0 2.75C0 1.2332 1.21512 0 2.70968 0H9.48387V5.5C9.48387 6.26055 10.0893 6.875 10.8387 6.875H16.2581V13.0625H7.45161C5.95706 13.0625 4.74194 14.2957 4.74194 15.8125V22H2.70968C1.21512 22 0 20.7668 0 19.25V2.75ZM16.2581 5.5H10.8387V0L16.2581 5.5ZM7.45161 15.125H8.80645C10.1147 15.125 11.1774 16.2035 11.1774 17.5312C11.1774 18.859 10.1147 19.9375 8.80645 19.9375H8.12903V21.3125C8.12903 21.6906 7.82419 22 7.45161 22C7.07903 22 6.77419 21.6906 6.77419 21.3125V19.25V15.8125C6.77419 15.4344 7.07903 15.125 7.45161 15.125ZM8.80645 18.5625C9.36956 18.5625 9.82258 18.1027 9.82258 17.5312C9.82258 16.9598 9.36956 16.5 8.80645 16.5H8.12903V18.5625H8.80645ZM12.871 15.125H14.2258C15.3478 15.125 16.2581 16.0488 16.2581 17.1875V19.9375C16.2581 21.0762 15.3478 22 14.2258 22H12.871C12.4984 22 12.1935 21.6906 12.1935 21.3125V15.8125C12.1935 15.4344 12.4984 15.125 12.871 15.125ZM14.2258 20.625C14.5984 20.625 14.9032 20.3156 14.9032 19.9375V17.1875C14.9032 16.8094 14.5984 16.5 14.2258 16.5H13.5484V20.625H14.2258ZM17.6129 15.8125C17.6129 15.4344 17.9177 15.125 18.2903 15.125H20.3226C20.6952 15.125 21 15.4344 21 15.8125C21 16.1906 20.6952 16.5 20.3226 16.5H18.9677V17.875H20.3226C20.6952 17.875 21 18.1844 21 18.5625C21 18.9406 20.6952 19.25 20.3226 19.25H18.9677V21.3125C18.9677 21.6906 18.6629 22 18.2903 22C17.9177 22 17.6129 21.6906 17.6129 21.3125V18.5625V15.8125Z" fill="#DD021E"/>
</svg>
