<svg width="513" height="512" viewBox="0 0 513 512" fill="none" xmlns="http://www.w3.org/2000/svg">
<g clip-path="url(#clip0_103_1001)">
<path d="M0.5 0H512.5V512H0.5V0Z" fill="#D0103A"/>
<path d="M0.5 0H348.7V512H0.5V0Z" fill="#FEDF00"/>
<path d="M0.5 0H164.3V512H0.5V0Z" fill="#0018A8"/>
<path d="M240.8 173.3C247 173.3 249.5 178.6 255.7 178.6C259.5 178.6 261.7 177.4 265 175.5C267.4 174.2 268.8 173.5 271.5 173.5C274.2 173.5 275.9 174.3 277.3 176.6C278.188 178.252 278.537 180.14 278.3 182C277.848 184.304 277.144 186.55 276.2 188.7C275.7 189.9 275.2 190.7 275.2 192C275.2 195.3 279.6 196.4 282.6 196.5C283.3 196.5 288.9 196.5 292.3 193.1C290.4 193.1 288.3 191.6 288.3 189.7C288.3 187.7 289.8 186.2 291.8 185.6C292.2 185.5 292.8 185.8 293.2 185.6C293.7 185.4 293.4 184.8 293.9 184.5C294.9 183.7 295.5 183.2 296.8 183.2C297.517 183.154 298.227 183.367 298.8 183.8C299.1 184 299.3 184.4 299.7 184.4C300.7 184.4 301.1 183.8 302 183.8C302.7 183.8 303.2 183.8 303.8 184.2C304.4 184.5 304.4 185.4 305 185.4C305.3 185.4 306.9 184.8 307.8 184.8C309.5 184.8 310.5 185.4 311.6 186.8C311.9 187.1 312.1 187.8 312.4 187.8C313.194 187.861 313.962 188.11 314.641 188.527C315.319 188.945 315.888 189.518 316.3 190.2C316.5 190.5 316.8 191.3 317.2 191.5C317.6 191.6 317.9 191.6 318.5 192C319.175 192.411 319.737 192.982 320.139 193.662C320.54 194.342 320.767 195.111 320.8 195.9C320.8 196.4 320.5 197.1 320.4 197.6C318.9 202.8 315.3 204.6 311.7 209C310.1 211 308.9 212.5 308.9 215C308.9 215.6 309.7 216.7 309.9 217.2C309.8 216 310.3 214.6 311.5 214.5C313.2 214.5 314.5 215.7 314.7 217.3C314.7 217.7 314.7 218.4 314.5 218.8C315.4 218.2 316.5 217.8 317.7 217.7C318.199 217.662 318.701 217.662 319.2 217.7C321.92 217.899 324.509 218.948 326.6 220.7C328.525 222.348 330.055 224.408 331.076 226.728C332.098 229.047 332.584 231.567 332.5 234.1C331.8 238.4 332.2 246 321.5 249.1C323.5 249.9 324.8 251.4 324.8 253.2C324.8 255.2 323.3 257 321.3 257C320.781 257.036 320.26 256.957 319.776 256.766C319.291 256.576 318.856 256.28 318.5 255.9C316.3 258.1 315.8 260.4 315.8 263.6C315.8 265.5 316.2 266.6 317 268.3C317.568 269.963 318.611 271.423 320 272.5C320.8 271.3 321.6 270.5 323 270.5C324.5 270.5 325.7 270.9 326.3 272.2C326.4 272.5 326.3 272.9 326.5 273.2C326.7 273.7 327.2 273.8 327.5 274.3C327.8 275.1 327.5 275.7 327.8 276.5C328 277 328.5 277.1 328.8 277.5C329.1 278.4 329.2 278.9 329.2 279.8C329.2 282.2 327 283.8 324.6 283.8C323.8 283.8 323.4 283.6 322.7 283.7C324.1 285 325.1 285.7 326.2 287.3C327.794 289.731 328.597 292.595 328.5 295.5C328.5 299.1 327.9 301.3 326.3 304.5C325.106 307.246 323.166 309.602 320.7 311.3C316.915 314.004 312.516 315.723 307.9 316.3C304.5 317 302.6 317.3 299.1 317.5L287.8 318.1C282.1 318.5 278.1 319.3 274 323.4C276 324.8 277.3 326.2 277.3 328.6C277.3 331 275.8 332.8 273.4 333.6C272.9 333.7 272.4 333.6 272 333.8C271.4 334.1 271.4 334.8 270.8 335.2C269.91 335.778 268.859 336.058 267.8 336C265.6 336 264.2 335.5 262.6 334C260.9 335.4 260.3 336.7 258.3 337.9C257.6 338.2 257.3 338.7 256.6 338.7C255.4 338.7 254.8 338 253.9 337.3C252.559 336.365 251.348 335.255 250.3 334C248.5 335.1 247.4 336 245.3 336C244.197 336.036 243.112 335.721 242.2 335.1C241.6 334.8 241.5 334.2 240.9 333.9C240.3 333.5 239.9 333.7 239.2 333.4C236.8 332.4 235.2 330.6 235.2 327.9C235.2 325.6 236.7 324.1 238.8 323.2C234.8 319.2 230.8 318.5 225.2 318.2C220.8 317.8 218.2 317.8 213.9 317.5C210.5 317.3 208.5 316.9 205.1 316.4C202.5 316 201 315.8 198.6 314.7C190.4 310.9 185.2 305.7 184.1 296.7V294.7C184.1 290 185.9 287.2 189.1 283.9C188.3 283.7 187.8 283.9 186.9 283.7C184.9 282.9 183.4 281.5 183.4 279.3C183.4 278.5 183.4 277.9 183.8 277.3C184.1 276.7 184.6 276.6 184.8 276.1C184.9 275.3 184.8 274.8 185.1 274.1C185.3 273.6 185.7 273.6 185.9 273.1C186.6 271.6 187.5 270.4 189.2 270.4C190.6 270.4 191.5 271.2 192.2 272.4C193.6 271.7 194 270.7 194.8 269.4C196.1 267.2 196.6 265.7 196.6 263.2C196.669 261.701 196.431 260.204 195.9 258.8C195.5 257.6 195.4 256.8 194.5 255.8C194.154 256.198 193.722 256.513 193.237 256.721C192.752 256.928 192.227 257.024 191.7 257C189.4 257 187.7 255 187.7 252.7C187.7 251 188.5 249.7 190.1 249C188.8 248 187.7 247.8 186.4 247C184.3 245.6 183.5 244.3 182.2 242.2C181.2 240.8 181 239.9 180.6 238.4C180.018 236.797 179.713 235.106 179.7 233.4V232.1C180.3 228.2 181 225.7 183.5 222.6C184.64 220.897 186.233 219.546 188.1 218.7C190.094 217.644 192.353 217.192 194.6 217.4C195.6 217.6 196.1 217.6 196.9 218.1C197.2 218.3 197.8 218.8 197.8 218.4L197.6 217.4C197.6 215.7 198.8 214.2 200.4 214.2C201.6 214.2 202.1 215.2 202.7 216.2C203.1 215.6 203.3 215.2 203.3 214.5C203.3 211.7 201.8 210.3 200.1 208.2C196.4 203.5 191.7 201.3 191.7 195.4C191.7 193.6 192.6 192.4 194.1 191.4C194.5 191.2 195.1 191.4 195.6 191.2C195.9 190.9 195.9 190.5 196.1 190.1C196.426 189.572 196.872 189.127 197.4 188.8C198.2 188 199 188.3 199.9 187.6C200.4 187.3 200.5 186.9 200.9 186.4C201.9 185.2 202.9 184.6 204.5 184.6C205.3 184.6 205.8 184.6 206.5 184.9C206.8 184.9 207.3 185.4 207.4 185.3C207.5 185.1 208 184.6 208.5 184.3C209.2 184 209.5 183.9 210.3 183.9C211.2 183.9 211.7 184.4 212.6 184.4C213 184.4 213 184.1 213.3 183.9C214.1 183.4 214.5 183.1 215.5 183.1C216.5 183.1 216.9 183.4 217.7 183.9C218.4 184.3 218.5 184.9 219.3 185.4L220.5 185.7C222.5 186.3 224.1 187.7 224.1 189.9C224.1 191.1 223.9 191.9 223 192.7C222.3 193.3 221.6 193.2 220.7 193.5C223.244 195.526 226.455 196.525 229.7 196.3C233.2 196.3 237.3 195 237.3 191.6C237.3 190 236.4 189.2 235.8 187.8C234.689 185.669 234.106 183.303 234.1 180.9C234.1 178.7 234.3 177.4 235.6 175.6C236.9 173.7 238.6 173.3 240.8 173.3Z" fill="#C7B37F"/>
<path d="M218.4 191.2C218.6 192.1 219.3 192.8 220.4 193.2C220.953 193.318 221.528 193.277 222.059 193.083C222.59 192.888 223.055 192.547 223.4 192.1C224.2 191.1 224.1 189.8 223.9 188.8C223.629 188.071 223.14 187.443 222.5 187L218.4 191.2Z" stroke="#703D29" stroke-width="0.5" stroke-linejoin="round"/>
<path d="M321.3 252.9C320.3 250.6 317.9 251.6 317.7 252.9C317.4 255.9 320 256.7 321.8 256.2C322.7 256 323.4 255.4 323.8 254.7C324.3 253.9 324.4 252.7 324.1 251.7C323.949 251.227 323.712 250.786 323.4 250.4C323.129 250.01 322.79 249.671 322.4 249.4C321.7 249 320.9 248.9 319.7 248.9C315.3 248.9 311.4 254.2 310.1 259.7C309.376 262.852 309.308 266.12 309.9 269.3C310.571 272.689 312.202 275.813 314.6 278.3C316.833 280.459 319.537 282.068 322.5 283C323.6 283.3 324.7 283.3 325.6 283C328.3 282.5 329.5 280 328.2 277.5C327.1 275.5 323.9 274.3 322.4 276.9C322.154 277.29 322.016 277.739 322 278.2C322 278.9 322.3 279.7 322.8 280C324 280.8 325.8 280.6 325.8 278.5" stroke="#703D29" stroke-width="0.5" stroke-linecap="round"/>
<path d="M307.5 283.2C308.865 281.615 310.739 280.554 312.8 280.2C315.2 280 317.3 280.7 319.4 281.8C321.985 283.006 324.169 284.929 325.694 287.339C327.218 289.75 328.019 292.548 328 295.4C328 298.4 327.2 301.4 326.5 303C325.8 304.3 324 310.1 314.2 314.2C307.562 316.251 300.647 317.263 293.7 317.2C285.3 317.6 277.7 317.9 273.2 323.4" stroke="#703D29" stroke-width="0.7"/>
<path d="M309.6 292.6C309.4 291.7 309.6 290.9 310.3 289.9C311.3 288.6 313.2 288.2 315 289.2C315.6 289.5 316.3 290 317 290.9L318 292.1L318.8 294.1C320.8 299.7 317.6 305.8 313.6 308.2C310.4 310.2 306.6 311 302.1 311.5L296.8 311.8H289.2C287.268 311.7 285.332 311.7 283.4 311.8L277.4 312.4L273 313.2L271.5 313.6L270.5 313.9C267.8 314.657 265.211 315.766 262.8 317.2C262.1 317.6 261.3 318.1 260.8 318.6L259.7 319.6C258.2 321 256.6 322.6 256.2 324.9V326.2C256.2 327.6 257.3 329.6 260.5 330.2M264.9 194.1C265.5 195.3 265.9 196.1 265.5 197.2C265.1 198.6 264.1 199.5 262.7 199.5C259.5 199.5 257.7 195.7 259.1 193.3C261.6 189 266.5 191.4 271.1 193.5C270.8 192.5 270.4 192.1 270.5 190.7C270.5 187.4 273.1 185.9 274.1 182.7C274.7 180.9 274.9 179.3 273.5 178C272.4 176.8 271 176.9 269.5 177.5C266.4 178.7 262.7 182.1 256.2 182.2C249.7 182.2 245.9 178.7 242.8 177.5C241.3 176.9 239.9 176.8 238.8 178C237.4 179.3 237.6 181 238.2 182.8C239.2 185.8 241.7 187.4 241.8 190.8C241.8 192.1 241.5 192.4 241.2 193.5C245.8 191.5 250.9 188.8 253.2 193.3C254.5 195.8 252.8 199.5 249.6 199.5C248.2 199.5 247.2 198.5 246.8 197.2C246.4 196.1 246.8 195 247.4 194.1" stroke="#703D29" stroke-width="0.6"/>
<path d="M252.2 191.9C253.4 192.9 254.2 194 254.1 195.9C254 197.9 253.4 198.4 251.9 199.5M253.8 196.5C253.7 197.7 253.2 198.5 252 199" stroke="#703D29" stroke-width="0.6" stroke-linecap="round"/>
<path d="M221.9 186.6L222.4 187L223 187.7L223.4 188.5L223.6 189.1V190.6L223.4 191.3L223 191.8L222.6 192.3L221.9 192.6L221 192.8L220.3 193L219.5 192.6L218.7 192.1L218.3 191.4L218 190.6V190.3L221.9 186.6Z" fill="#C7B37F"/>
<path d="M220.7 189.7C220.4 188.4 218.9 188.1 218.3 188.9C217.3 190.1 218 192.1 219.9 192.7C220.453 192.818 221.028 192.777 221.559 192.583C222.089 192.388 222.554 192.047 222.9 191.6C223.7 190.6 223.7 189.3 223.4 188.4C223.2 187.7 222.7 187.2 222 186.7C219.8 185 216.3 185.4 215.2 188.2C213.7 191.8 216.9 194.5 219.9 196.5C223.7 199 227.9 199.5 231.2 199.5C238.5 199.4 244.1 195.9 247.7 193.9C248.5 193.4 249.4 193.5 249.8 194.1C250.3 194.7 250.3 195.6 249.6 196.3" stroke="#703D29" stroke-width="0.5" stroke-linecap="round"/>
<path d="M198.9 289L197.3 289.5L195.6 290.8L194.9 291.8L194 293.4L193.6 294.6L193.3 296.1L193.1 297.1M208.3 289.1V290.5L208 291.5L207.3 293.2L206.2 294.7L205 295.7L204 296.1L202.8 296.4" stroke="#703D29" stroke-width="0.5"/>
<path d="M256.3 327.3C256 328.6 254.8 330.1 252 330.7H251.5" stroke="#703D29" stroke-width="0.6"/>
<path d="M323.9 285C325.354 286.393 326.505 288.071 327.279 289.93C328.054 291.788 328.435 293.787 328.4 295.8C328.3 298.6 327.6 301.8 326.8 303.3C326.1 304.6 324.3 310.5 314.5 314.5C307.867 316.58 300.952 317.625 294 317.6C285.8 318 278.2 318.3 273.7 323.6" stroke="#703D29" stroke-width="0.7"/>
<path d="M310.5 290.3C311.1 289.4 313.3 288.4 315.1 289.3C315.906 289.678 316.597 290.265 317.1 291" stroke="#703D29" stroke-width="0.5"/>
<path d="M321.8 283L322.9 283.4C323.944 283.711 325.056 283.711 326.1 283.4C328.3 282.8 329.8 280.7 328.6 277.9C328.281 277.226 327.8 276.642 327.2 276.2" stroke="#703D29" stroke-width="0.7"/>
<path d="M192.7 223.8C191.2 224.8 190.1 225 188.9 226.3C187.962 228.033 187.256 229.883 186.8 231.8M223.7 190.4C223.7 191.8 222.7 192.7 221.3 193" stroke="#703D29" stroke-width="0.5" stroke-linecap="round"/>
<path d="M318.2 217.6C322 217.6 333 220.5 333.1 233.4C333.1 246.2 325.1 248.3 322 249.1" stroke="#703D29" stroke-width="0.5"/>
<path d="M319.2 217.6C325.7 217.3 332.4 222.1 332.7 234.1C333 243.5 326.3 247.7 323.1 248.6M315.5 262.7L315.7 261.5L316.1 259.5L316.7 257.8L317.4 256.5L318.2 255.5M324.5 252.8L324.4 254L324 254.9L323.5 255.7L322.8 256.2L321.8 256.5H320.3M308.9 214.2L309.2 212.9L309.8 211.6L310.5 210.4L311.9 208.7L312.9 207.5L314.6 205.8L316.1 204.3L317.1 203.2L318.3 201.7L319.3 200L320 198.7L320.4 196.9L320.5 194.8L320.3 194.1M310.5 296.7L311.8 296.4L312.8 295.9L313.3 295.4L313.7 294.7L313.9 293.7V293.1M187.5 283.3L188.4 283.4H189.6L190.9 282.9M194.9 253.6L194.7 254.8L194.5 255.2L194.1 255.7L193.6 256.1L193 256.4L192.2 256.5H191.7M199.7 244L199.4 245.8L199 246.5L198.3 247.5L197.3 248.2L196.4 248.7L194.6 249.1M206.8 217.3L206.5 218.3L206 219.1L205.4 220L204.6 220.7L203.6 221.2L202.8 221.4H202.2M202.5 216.4V217.2" stroke="#703D29" stroke-width="0.5"/>
<path d="M203.9 243.3C203.428 243.723 202.887 244.061 202.3 244.3M322.7 280L323.1 280.2C324.1 280.9 326.4 280 325.8 278.2" stroke="#703D29" stroke-width="0.5" stroke-linecap="round"/>
<path d="M318.7 255.7C319.5 256.7 321.1 257 322.3 256.7C323.2 256.5 323.8 255.9 324.3 255.1C324.7 254.3 324.9 253.2 324.6 252.1C324.449 251.627 324.212 251.186 323.9 250.8C323.588 250.382 323.218 250.012 322.8 249.7L322.5 249.5M327.7 276.7C327.719 276.5 327.719 276.3 327.7 276.1C327.7 275.2 327.3 274.4 326.7 273.8C326.5 273.6 326.3 273.3 326 273.2M326.4 273.5C326.4 272 325.1 271 323.6 270.7M320.3 273C319.9 272.7 319.5 272.5 319.3 272.1C317.105 269.809 315.855 266.773 315.8 263.6C315.8 260.3 317.1 256.9 318.6 255.6M273.5 323.3L275 322L276 321.2L277.8 320.1L279.6 319.2L280.8 318.9L283.3 318.4L286.2 317.9M262.5 333.4C260.984 335.613 258.868 337.348 256.4 338.4C253.932 337.348 251.816 335.613 250.3 333.4" stroke="#703D29" stroke-width="0.5"/>
<path d="M252 330.1C251.7 331.318 251.118 332.448 250.3 333.4" stroke="#703D29" stroke-width="0.5" stroke-linecap="round"/>
<path d="M252.3 328.4L251.9 330.2M250.1 333.5L249.3 334.3L247.9 335L246.4 335.5M241.9 193.3C242.1 192.7 242.3 192.2 242.2 191.2C242.2 187.8 239.7 186.3 238.7 183.2C238.1 181.4 237.8 179.8 239.2 178.4C240.4 177.3 241.7 177.4 243.2 177.9C246.4 179.1 250.1 182.6 256.6 182.7M256.6 182.7C250.1 182.6 246.4 179.1 243.3 177.9C241.7 177.3 240.3 177.1 239.1 178.3C237.7 179.6 238.1 181.3 238.7 183.3C239.7 186.3 242 187.8 242.1 191.2C242.1 192.2 241.9 192.7 241.7 193.2M256.6 182.7C263.1 182.6 266.9 179.1 269.9 177.9C271.4 177.4 272.7 177.3 273.9 178.4C272.7 177.3 271.9 177.2 270.3 177.5C268.5 177.8 263 182.1 256.6 182.5M320.3 273C318.755 271.851 317.499 270.358 316.632 268.64C315.764 266.922 315.308 265.025 315.3 263.1C315.3 259.8 316.6 256.4 318.2 255.1M262.2 333.1C260.711 335.298 258.631 337.031 256.2 338.1C253.693 337.069 251.539 335.332 250 333.1" stroke="#703D29" stroke-width="0.5"/>
<path d="M245.8 195L247.7 194C248.5 193.4 249.6 193.5 250 194C250.5 194.7 250.6 195.7 249.9 196.3" stroke="#703D29" stroke-width="0.5" stroke-linecap="round"/>
<path d="M236.3 199.4C240.7 198.5 244.3 196.5 246.9 195M272.8 326.4L273.4 327.1L273.6 327.8C273.8 329 273 329.8 272.1 329.9C271.523 329.97 270.939 329.852 270.435 329.564C269.931 329.276 269.533 328.832 269.3 328.3M236 199.2C240.4 198.2 244 196.3 246.7 194.8M324.7 280.3C324 280.6 323.5 280.6 322.5 280.1L321 279.3C319 278.2 316.5 276.3 314.2 272.1C313.615 270.96 313.178 269.751 312.9 268.5C312.7 267.6 312.5 266.7 312.5 265.8C312.461 264.119 312.629 262.44 313 260.8C313.458 258.173 314.557 255.7 316.2 253.6C317.2 252.3 317.9 251.6 319.7 251.6M204.7 220.1C205.38 220.654 205.924 221.357 206.288 222.154C206.652 222.952 206.828 223.823 206.8 224.7C206.8 227.2 204.8 231.2 199.6 232.7C197.6 233.2 195.8 232.7 194.6 232" stroke="#703D29" stroke-width="0.5"/>
<path d="M205.5 228.5C206.5 229.1 206.8 229.9 206.8 231.1C206.8 231.9 206.3 233.1 205.3 234.1C204.406 235.074 203.326 235.859 202.124 236.408C200.921 236.958 199.621 237.261 198.3 237.3C196.593 237.344 194.915 236.855 193.5 235.9C192.002 234.888 190.933 233.355 190.5 231.6" stroke="#703D29" stroke-width="0.5"/>
<path d="M205.5 233.8C206.5 234.8 206.8 236 206.8 237.5C206.8 239.7 205.9 241.4 203.8 243.2C203.365 243.621 202.857 243.96 202.3 244.2M305.9 226.6V229.5M305.6 225.9V229.9M305.9 217.3V222.5M305.6 216.2V223.2M304.1 288.9C303.1 290.9 302.3 291.9 300.8 293.4C299.45 294.78 297.856 295.898 296.1 296.7C294.454 297.506 292.704 298.078 290.9 298.4C288.8 298.9 287.5 299 285.4 299.1C283.4 299.1 282.3 299.1 280.3 298.9C278.2 298.9 277 298.5 274.9 298.3C273.2 298.2 272.2 298 270.4 298C267.43 297.928 264.475 298.438 261.7 299.5C259.5 300.4 257.1 301.9 256.6 302.5C256.1 301.9 253.6 300.4 251.5 299.5C248.694 298.425 245.704 297.915 242.7 298C241 298 240 298.2 238.3 298.3C236.2 298.5 235 298.8 232.9 298.9C229.361 299.239 225.791 299.071 222.3 298.4C220.2 297.9 219 297.6 217 296.6C215.103 295.712 213.403 294.454 212 292.9M245.6 335.6L247.1 335.4M271.3 333.5L272.7 333.4L274.1 332.8L275.1 332.3L276.4 330.7L276.7 330.1L276.9 328.8V328.2M314.5 218.8C315.1 216.7 314.3 214.5 312.3 214.5M206.7 251.8C206.229 253.352 205.194 254.672 203.8 255.5M206.8 218.1C206.563 218.82 206.172 219.479 205.654 220.032C205.136 220.585 204.503 221.017 203.8 221.3C202.4 222 200.6 221.3 199.8 220.7" stroke="#703D29" stroke-width="0.5"/>
<path d="M195.5 225.9C196.8 226.5 198 225.6 197.8 224C197.698 223.528 197.45 223.1 197.091 222.777C196.732 222.454 196.28 222.252 195.8 222.2" stroke="#703D29" stroke-width="0.5" stroke-linecap="round"/>
<path d="M200.6 293.3C200.9 293.6 201 293.9 201.3 293.9C201.8 294 202.3 294.2 202.8 293.5C203.5 292.6 203.1 291.3 202.4 290.4C201.794 289.796 201.011 289.402 200.165 289.276C199.319 289.15 198.455 289.299 197.7 289.7C197.2 290 196.4 290.4 195.7 291.3L194.8 292.6L193.9 294.6C192.3 299.2 194.2 304.1 197.3 307.1" stroke="#703D29" stroke-width="0.5"/>
<path d="M272.7 326.3L273.2 326.9L273.4 327.6C273.6 328.8 272.8 329.6 271.8 329.6C270.5 329.8 269.6 329 269.1 328" stroke="#703D29" stroke-width="0.5" stroke-linecap="round"/>
<path d="M312.1 187.8C313.446 188.026 314.675 188.703 315.584 189.721C316.493 190.74 317.028 192.037 317.1 193.4C317.1 197 315.9 198.3 314 200.8C312 203.5 305.5 208.5 305.5 214.2C305.5 217.6 306.5 219.8 308.9 220.9C310.5 221.6 312.4 220.9 313.2 220.1C315.2 218.2 314.5 214.9 312.2 214.5C309.7 214.1 309.2 218.2 311.7 217.9M326 273.2C325.884 272.511 325.53 271.884 325.001 271.427C324.471 270.971 323.799 270.714 323.1 270.7C322.304 270.7 321.541 271.016 320.979 271.579C320.416 272.141 320.1 272.904 320.1 273.7C320.1 274.5 320.5 275.2 321 275.7" stroke="#703D29" stroke-width="0.5"/>
<path d="M307.6 220.1C306.92 220.653 306.376 221.356 306.012 222.154C305.648 222.952 305.473 223.823 305.5 224.7C305.5 227.2 307.5 231.2 312.7 232.7C314.6 233.2 316.5 233.1 317.7 232.4M192.8 224.2C191.279 224.673 189.948 225.619 189 226.9C188.052 228.393 187.406 230.058 187.1 231.8C187 232.5 186.8 234.8 187.2 237.1C187.536 238.709 188.181 240.237 189.1 241.6L189.9 242.6L190.8 243.3M242 316.9C245.9 318.7 248.7 319.9 251.2 323.8C252.08 325.416 252.39 327.28 252.082 329.094C251.773 330.908 250.864 332.565 249.5 333.8C248.774 334.448 247.913 334.928 246.979 335.205C246.046 335.481 245.062 335.548 244.1 335.4C242.6 335.2 241.1 334.1 240.9 333.4M203.7 243.4C204.709 244.028 205.53 244.917 206.076 245.973C206.621 247.029 206.871 248.213 206.8 249.4C206.8 252.4 205.3 254.2 203.6 255.3" stroke="#703D29" stroke-width="0.5"/>
<path d="M201.7 253.1C205 257.2 206.7 259.6 206.8 264.4C206.9 269 205.4 272.1 202.8 275.4" stroke="#703D29" stroke-width="0.5" stroke-linecap="round"/>
<path d="M264.3 199.5C264.928 199.068 265.388 198.432 265.6 197.7C266 196.5 266 195.5 265.3 194.6C266.1 195.6 266.2 196.5 266 197.7C265.8 198.5 265.3 198.9 264.7 199.5M305.9 268.5V281.3C305.899 282.44 305.799 283.577 305.6 284.7M305.6 267.2V283L305.2 285.1M305.6 250.8V262.4M305.9 251.7V261.1M305.9 239.6V246.7M305.6 238.8V247.6M305.9 232.4V235.2M305.6 231.8V235.8M304.2 288L303.9 288.5C303.072 290.237 301.918 291.799 300.5 293.1C299.171 294.434 297.613 295.518 295.9 296.3C294.228 297.149 292.443 297.755 290.6 298.1C288.6 298.6 287.3 298.7 285.1 298.8C283.1 298.8 282.1 298.8 280.1 298.6C277.9 298.5 276.8 298.2 274.7 298C272.9 297.9 271.9 297.7 270.2 297.7C267.197 297.618 264.206 298.127 261.4 299.2C259.3 300.1 256.9 301.6 256.4 302.2C254.888 300.909 253.162 299.894 251.3 299.2C248.493 298.127 245.503 297.618 242.5 297.7C240.8 297.7 239.8 297.9 238 298C236 298.2 234.8 298.5 232.6 298.6C229.094 298.93 225.559 298.761 222.1 298.1C218.356 297.428 214.884 295.693 212.1 293.1C211.403 292.388 210.767 291.619 210.2 290.8M208.6 288.3C208.747 289.402 208.663 290.522 208.353 291.589C208.043 292.657 207.514 293.648 206.8 294.5C206.1 295.2 204.6 296.5 202.8 296.5C199.8 296.6 198.8 294.5 198.7 294" stroke="#703D29" stroke-width="0.5"/>
<path d="M205 287C205.608 287.616 206.114 288.325 206.5 289.1C207.2 290.5 207 292.9 206.4 294.1C206.306 294.206 206.206 294.306 206.1 294.4M190 308.8C191.8 310.8 194.5 312.8 198.7 314.5C205.333 316.584 212.248 317.63 219.2 317.6C227.2 317.9 234.7 318.3 239.2 323.3M253.1 320C254.502 321.231 255.598 322.772 256.3 324.5M250.4 333.7C250.242 333.875 250.075 334.042 249.9 334.2C249.185 334.835 248.341 335.306 247.426 335.583C246.511 335.859 245.547 335.933 244.6 335.8C243.91 335.728 243.242 335.513 242.64 335.168C242.037 334.824 241.513 334.358 241.1 333.8M236.8 331.4L237.1 331.7C238.126 332.857 239.559 333.574 241.1 333.7M262.7 333.7C261.17 335.876 259.055 337.575 256.6 338.6C254.132 337.548 252.016 335.813 250.5 333.6L250.3 333.3M262.7 333.6L263.3 334.2C264.015 334.835 264.859 335.306 265.774 335.583C266.689 335.859 267.653 335.933 268.6 335.8C269.266 335.739 269.909 335.528 270.481 335.181C271.053 334.835 271.538 334.362 271.9 333.8L272.3 333.2" stroke="#703D29" stroke-width="0.5"/>
<path d="M271.7 333.3L271.1 334.3L270.2 335L268.9 335.6H267.5" stroke="#703D29" stroke-width="0.5"/>
<path d="M274.9 324.2C275.714 324.798 276.367 325.588 276.8 326.5C277 327.1 277.2 327.8 277.2 328.5C277.244 329.666 276.851 330.807 276.1 331.7C275.546 332.32 274.868 332.818 274.11 333.163C273.353 333.507 272.532 333.69 271.7 333.7C271.6 333.703 271.5 333.703 271.4 333.7M271.5 333.5C270.736 333.517 269.977 333.375 269.271 333.082C268.565 332.789 267.928 332.353 267.4 331.8M318.4 277.5C316.775 276.012 315.422 274.252 314.4 272.3C313.815 271.16 313.378 269.951 313.1 268.7C312.9 267.8 312.7 267 312.7 266.1C312.7 264.5 312.8 262.9 313.2 261.1C313.692 258.435 314.824 255.93 316.5 253.8C317 253.2 317.5 252.4 318.1 252M317.1 191.4C319.1 191.6 320.9 193.7 320.9 195.9C320.9 199 319.9 200.3 317.4 203.3C315.3 206 308.9 210.6 309.1 215C309.1 215.8 309.6 216.6 310.1 217.2M307.5 220C307.9 220.5 308.5 220.8 309.1 221.1C309.647 221.319 310.235 221.415 310.823 221.38C311.41 221.345 311.983 221.182 312.5 220.9M295.6 186.3C296.393 186.808 297.019 187.539 297.4 188.4C298.8 192 295.6 194.7 292.6 196.7C290.607 198.021 288.359 198.907 286 199.3" stroke="#703D29" stroke-width="0.5"/>
<path d="M292.2 193.2C291.5 193.2 290.6 193 289.7 192C289.461 191.803 289.258 191.566 289.1 191.3M277.2 195.2C276.823 194.993 276.484 194.723 276.2 194.4C275.5 193.6 275 192.5 275.5 190.9C276 189.4 278.5 185.1 278.5 182.2C278.8 177.7 277 175 274.3 174" stroke="#703D29" stroke-width="0.5"/>
<path d="M278.4 181.2L278.3 182.9L277.8 184.6L276.9 186.9L276.2 188.5L275.5 190L275.2 191L275 191.8L275.1 192.6M305.6 293.6C305.6 293.9 306 294.2 306 294.2C306.516 294.903 307.175 295.489 307.933 295.919C308.691 296.35 309.532 296.616 310.4 296.7C313.4 296.7 314.1 294.6 314.2 294.1C314.6 291.8 313.8 291.1 312.6 290.5C312.6 290.5 311.9 290.2 311.1 290.3" stroke="#703D29" stroke-width="0.5" stroke-linecap="round"/>
<path d="M190.1 283.5C189.119 283.778 188.081 283.778 187.1 283.5C184.8 282.8 183.1 280.6 184 278M194.7 252.5C194.9 252.7 195 253.1 195 253.3C195.3 256.3 192.8 257.1 191 256.7C189.966 256.387 189.078 255.713 188.5 254.8C188.186 254.251 188.014 253.632 188 253M205.7 234C206.1 234.5 206.5 235 206.7 235.5M205.7 228.7C206.2 229 206.5 229.3 206.7 229.7" stroke="#703D29" stroke-width="0.5"/>
<path d="M206.8 232.4C206.488 233.138 206.048 233.815 205.5 234.4C204.598 235.355 203.514 236.122 202.312 236.654C201.11 237.186 199.814 237.474 198.5 237.5C196.793 237.544 195.115 237.055 193.7 236.1C192.089 235.097 190.912 233.527 190.4 231.7" stroke="#703D29" stroke-width="0.5" stroke-linecap="round"/>
<path d="M204.8 220.2C205.703 220.899 206.395 221.833 206.8 222.9" stroke="#703D29" stroke-width="0.5"/>
<path d="M206.8 226.6C206.29 228.173 205.375 229.584 204.146 230.69C202.917 231.796 201.418 232.558 199.8 232.9C198.016 233.29 196.15 232.967 194.6 232" stroke="#703D29" stroke-width="0.5" stroke-linecap="round"/>
<path d="M192.5 226C192.7 228.1 194.2 229.7 196.8 229.8C200.6 229.8 202.8 224.4 199.5 220.5" stroke="#703D29" stroke-width="0.5"/>
<path d="M184.1 244.4C184.6 245.1 185.3 245.7 185.9 246.3C187.305 247.487 188.939 248.372 190.7 248.9M194.9 249.3C198.3 248.9 200.2 246.4 199.8 243.5C199.5 241.2 197.4 239.5 196 239.5" stroke="#703D29" stroke-width="0.5" stroke-linecap="round"/>
<path d="M200.4 214.5C201.8 214.5 202.7 215.8 202.6 216.9" stroke="#703D29" stroke-width="0.5"/>
<path d="M200 194.5C200.772 196.443 202.183 198.066 204 199.1M319.5 224C319.869 224.572 320.073 225.236 320.089 225.916C320.105 226.597 319.934 227.269 319.592 227.859C319.251 228.448 318.754 228.932 318.155 229.257C317.557 229.582 316.88 229.735 316.2 229.7C315.496 229.687 314.806 229.497 314.194 229.147C313.583 228.798 313.069 228.3 312.7 227.7" stroke="#703D29" stroke-width="0.5" stroke-linecap="round"/>
<path d="M305.9 199.3V211.9" stroke="#703D29" stroke-width="0.5"/>
<path d="M195.5 225.9C196.7 226.7 198.1 225.3 197.5 223.8C197.2 222.8 195.7 221.7 193.7 223C191.6 224.5 192.2 229.3 196.4 229.3C200.1 229.4 202.4 223.9 199.1 220.1C195.9 216.4 190.1 217.2 186.1 220.3C183.273 222.709 181.307 225.974 180.5 229.6C179.957 232.037 179.957 234.563 180.5 237C180.902 239.137 181.717 241.175 182.9 243L183.9 244.3L185.5 245.9C187.785 247.918 190.753 248.991 193.8 248.9C197.6 248.8 199.8 246.1 199.3 243C198.9 240 195.9 238.5 193.9 240C192.6 240.9 192.1 243.8 194.5 244.5C195.8 244.9 197 243.2 196.1 242.2M299.7 184.7C301.9 183.5 303.5 183.7 304.7 185.4C305.872 187.09 306.338 189.171 306 191.2C305.6 193.4 305 194.2 303.2 195.8" stroke="#703D29" stroke-width="0.5" stroke-linecap="round"/>
<path d="M304.9 185.6C307.4 184 310.1 184.6 311.5 186.9C312.505 188.326 312.966 190.064 312.8 191.8C312.706 193.305 312.236 194.762 311.432 196.037C310.628 197.313 309.517 198.366 308.2 199.1" stroke="#703D29" stroke-width="0.5" stroke-linecap="round"/>
<path d="M316.5 191.3C318.5 191.5 320.2 193.3 320.2 195.5C320.2 198.5 319.4 199.9 316.9 202.9C314.8 205.5 308.5 210.1 308.6 214.6C308.6 216.2 310.1 217.8 311.3 217.9" stroke="#703D29" stroke-width="0.5"/>
<path d="M316.8 225.9C315.6 226.7 314.2 225.4 314.8 223.9C315.2 222.9 316.6 221.7 318.5 223C320.7 224.5 320.1 229.3 315.9 229.3C312.2 229.4 309.6 224.1 313.2 220.1C316.5 216.4 322.6 217.1 326.4 220.1C328 221.5 331.4 225.1 332 229.7C332.9 235.3 332.7 242.3 327 246.5C324.506 248.209 321.52 249.053 318.5 248.9C314.7 248.8 312.5 246.1 313 243C313.4 240 316.3 238.7 318.4 240C320.6 241.1 320.2 244.3 317.8 244.5C316.4 244.7 315.3 243.2 316.2 242.2" stroke="#703D29" stroke-width="0.5" stroke-linecap="round"/>
<path d="M314.8 224C315.4 221.1 317.8 220.9 319.8 220.9C325 220.9 328.7 227.2 328.8 233.3C328.8 240.9 325.5 245.4 319.8 245.6C318.5 245.7 316 245 315.9 243.3" stroke="#703D29" stroke-width="0.5"/>
<path d="M318 222.7C323.6 223.9 325.6 228.9 325.6 233.7C325.6 237.6 325.2 242.9 317.6 244.7" stroke="#703D29" stroke-width="0.5" stroke-linecap="square"/>
<path d="M327.2 276.3C327.307 275.762 327.268 275.205 327.089 274.686C326.91 274.167 326.597 273.705 326.181 273.347C325.765 272.989 325.261 272.748 324.721 272.649C324.182 272.549 323.625 272.595 323.109 272.781C322.593 272.967 322.135 273.286 321.783 273.707C321.43 274.128 321.196 274.634 321.103 275.175C321.011 275.716 321.064 276.272 321.256 276.786C321.449 277.3 321.775 277.753 322.2 278.1" stroke="#703D29" stroke-width="0.5"/>
<path d="M316.1 271.5C317.313 273.514 319.038 275.17 321.1 276.3M320.1 284.7C317.4 283 312.4 280.7 307.9 282.9C307.129 283.228 306.431 283.706 305.847 284.307C305.264 284.908 304.805 285.62 304.5 286.4C304.068 287.704 303.979 289.098 304.241 290.446C304.504 291.795 305.11 293.053 306 294.1C307.009 295.294 308.444 296.048 310 296.2C313 296.2 313.7 294.2 313.8 293.7C314.1 291.5 312.8 290.6 312.2 290.4C311.6 290.2 310 290.2 309.6 291.4C309.5 291.8 309.5 292.5 309.8 293" stroke="#703D29" stroke-width="0.5" stroke-linecap="round"/>
<path d="M272.9 326.7C273.7 328.5 272.8 329.3 271.6 329.4C269.9 329.6 269 328.3 268.9 327.1C268.7 325.1 270.4 323.2 272.4 323.3C273.269 323.32 274.112 323.596 274.824 324.094C275.536 324.593 276.084 325.291 276.4 326.1C276.6 326.7 276.7 327.3 276.7 328C276.769 329.2 276.375 330.381 275.6 331.3C275.057 331.908 274.395 332.399 273.656 332.743C272.917 333.087 272.115 333.276 271.3 333.3C267.9 333.4 265.3 330.3 265.3 327C265.3 320.9 274.4 317.5 278.1 316.6C282.788 315.488 287.583 314.884 292.4 314.8C295.3 314.6 297.4 314.7 300.5 314.4C303.3 314.1 304.8 313.9 307.7 313.3C311.428 312.464 314.875 310.672 317.7 308.1C320.361 306.102 322.204 303.204 322.885 299.947C323.566 296.69 323.038 293.296 321.4 290.4C320.506 288.969 319.308 287.753 317.89 286.837C316.473 285.921 314.872 285.328 313.2 285.1C310.2 284.6 307.6 285.9 306 288.9C305.669 289.695 305.506 290.55 305.524 291.411C305.541 292.271 305.737 293.119 306.1 293.9C306.6 294.8 308.1 296.2 309.9 296.2C312.9 296.2 313.7 294.2 313.8 293.7C314.1 291.5 312.8 290.6 312.2 290.4C311.6 290.2 310 290.2 309.6 291.4C309.5 291.8 309.5 292.5 309.8 293" stroke="#703D29" stroke-width="0.5" stroke-linecap="round"/>
<path d="M270.3 317C266.3 318.7 263.5 320 261.1 323.7C260.419 324.921 260.073 326.302 260.1 327.7C260.1 329.8 261.1 332.2 262.8 333.7C263.518 334.366 264.375 334.864 265.309 335.158C266.243 335.452 267.23 335.535 268.2 335.4C269.7 335.2 271.2 334.1 271.4 333.4" stroke="#703D29" stroke-width="0.5" stroke-linecap="round"/>
<path d="M308.5 243.3C306.8 243.9 305.5 246.7 305.5 249.3C305.5 252.3 306.9 254.3 308.7 255.3" stroke="#703D29" stroke-width="0.5"/>
<path d="M310.5 253.1C307.3 257.2 305.5 259.6 305.5 264.4C305.4 269 306.8 272.1 309.5 275.4" stroke="#703D29" stroke-width="0.5" stroke-linecap="round"/>
<path d="M293.2 185.6L293.5 185.2C294.8 183.2 297.2 182.7 299 184C301 185.6 301.6 188.3 301 191.2C300.787 192.11 300.395 192.968 299.845 193.724C299.296 194.479 298.6 195.117 297.8 195.6" stroke="#703D29" stroke-width="0.5"/>
<path d="M212.5 184.7C210.5 183.7 208.8 183.9 207.5 185.4C206.917 186.235 206.51 187.179 206.303 188.177C206.097 189.174 206.096 190.202 206.3 191.2C206.7 193.3 207.3 194.2 209.1 195.8" stroke="#703D29" stroke-width="0.5" stroke-linecap="round"/>
<path d="M207.4 185.6C204.9 184 202.2 184.6 200.8 186.9C199.795 188.326 199.334 190.064 199.5 191.8C199.594 193.305 200.065 194.762 200.868 196.037C201.672 197.313 202.783 198.366 204.1 199.1" stroke="#703D29" stroke-width="0.5"/>
<path d="M200.2 187.8C198.9 187.966 197.701 188.592 196.821 189.564C195.941 190.535 195.437 191.79 195.4 193.1C195.4 196.7 196.3 198.1 198.3 200.8C200.3 203.5 206.8 208.5 206.8 214.2C206.8 217.6 205.8 219.8 203.4 220.9C201.8 221.6 199.9 220.9 199.1 220.1C197.1 218.2 197.9 214.9 200 214.5C202.6 214.1 203.1 218.2 200.6 217.9" stroke="#703D29" stroke-width="0.5"/>
<path d="M195.7 191.3C193.7 191.5 191.7 193.3 191.7 195.3C191.7 198.4 192.9 199.8 195.4 202.9C197.4 205.5 203.4 210.1 203.3 214.5C203.3 216.1 202.1 218.2 201 217.9" stroke="#703D29" stroke-width="0.5"/>
<path d="M191 252.9C192 250.6 194.4 251.6 194.5 252.9C194.9 255.9 192.3 256.7 190.5 256.2C189.5 256 188.9 255.4 188.5 254.7C188.136 254.023 187.979 253.254 188.051 252.489C188.122 251.724 188.417 250.998 188.9 250.4C189.171 250.01 189.51 249.671 189.9 249.4C190.6 249 191.4 248.9 192.6 248.9C197 248.9 200.9 254.2 202.2 259.7C202.924 262.852 202.992 266.12 202.4 269.3C201.729 272.689 200.098 275.813 197.7 278.3C195.465 280.456 192.761 282.065 189.8 283C188.756 283.311 187.644 283.311 186.6 283C184.4 282.4 182.9 280.2 184.1 277.5C185.1 275.4 188.4 274.3 189.9 276.9C190 277.2 190.2 277.6 190.2 278.2C190.2 278.9 189.9 279.7 189.4 280C188.3 280.8 186.4 280.6 186.5 278.5" stroke="#703D29" stroke-width="0.5" stroke-linecap="round"/>
<path d="M187.5 280.3C188.3 280.6 188.8 280.6 189.8 280.1L191.3 279.3C193.3 278.2 195.8 276.3 198 272.1C198.619 270.965 199.089 269.755 199.4 268.5C199.6 267.6 199.8 266.7 199.8 265.8C199.839 264.119 199.671 262.44 199.3 260.8C198.842 258.173 197.743 255.7 196.1 253.6C195.1 252.3 194.4 251.6 192.6 251.6M185.1 276.3C184.993 275.762 185.032 275.205 185.211 274.686C185.39 274.167 185.703 273.705 186.119 273.347C186.535 272.989 187.039 272.748 187.579 272.649C188.118 272.549 188.675 272.595 189.191 272.781C189.707 272.966 190.165 273.286 190.518 273.707C190.87 274.128 191.104 274.634 191.197 275.175C191.289 275.716 191.236 276.272 191.044 276.786C190.851 277.3 190.525 277.753 190.1 278.1" stroke="#703D29" stroke-width="0.5"/>
<path d="M186.3 273.2C186.416 272.511 186.77 271.884 187.299 271.427C187.829 270.971 188.501 270.713 189.2 270.7C189.996 270.7 190.759 271.016 191.321 271.579C191.884 272.141 192.2 272.904 192.2 273.7C192.137 274.471 191.779 275.187 191.2 275.7" stroke="#703D29" stroke-width="0.5"/>
<path d="M192 273C193.545 271.851 194.801 270.358 195.669 268.64C196.536 266.922 196.992 265.025 197 263.1C197 259.8 195.7 256.4 194.1 255.1" stroke="#703D29" stroke-width="0.5"/>
<path d="M196.2 271.5C194.991 273.517 193.264 275.174 191.2 276.3" stroke="#703D29" stroke-width="0.5" stroke-linecap="round"/>
<path d="M204.2 283C203.4 281.2 202 280.4 199.6 280.1C197.286 279.924 194.976 280.484 193 281.7C191.11 282.556 189.422 283.799 188.043 285.349C186.665 286.9 185.628 288.723 185 290.7C184.54 292.188 184.337 293.744 184.4 295.3C184.4 298.2 185.2 301.3 186 302.8C186.6 304.2 188.4 310 198.2 314C204.86 316.124 211.809 317.203 218.8 317.2C227.1 317.5 234.8 317.8 239.2 323.3" stroke="#703D29" stroke-width="0.5"/>
<path d="M192.2 284.7C194.9 283 199.8 280.7 204.3 282.9C205.854 283.601 207.098 284.846 207.8 286.4C208.232 287.704 208.321 289.098 208.059 290.446C207.796 291.795 207.19 293.053 206.3 294.1C205.6 294.8 204.2 296.1 202.3 296.2C199.3 296.2 198.6 294.2 198.5 293.7C198.2 291.5 199.5 290.6 200.1 290.4C200.6 290.2 202.3 290.2 202.7 291.4C202.8 291.8 202.8 292.5 202.5 293" stroke="#703D29" stroke-width="0.5" stroke-linecap="round"/>
<path d="M202.7 292.6C202.84 292.129 202.849 291.628 202.726 291.153C202.602 290.677 202.351 290.244 202 289.9C201.386 289.31 200.604 288.925 199.762 288.8C198.92 288.674 198.059 288.814 197.3 289.2C196.494 289.578 195.803 290.165 195.3 290.9L194.3 292.1L193.5 294.1C191.5 299.7 194.7 305.7 198.7 308.2C202.193 310.253 206.15 311.388 210.2 311.5L215.5 311.8H228.9L234.9 312.4L239.3 313.2L240.8 313.6L241.8 313.9C244.501 314.657 247.09 315.766 249.5 317.2C250.2 317.6 251 318 251.5 318.6L252.6 319.6C254.1 321 255.7 322.6 256.1 324.9V326.2C256.1 327.6 255 329.6 251.8 330.2" stroke="#703D29" stroke-width="0.5"/>
<path d="M239.5 326.7C238.5 328.5 239.5 329.3 240.7 329.4C242.4 329.6 243.3 328.3 243.4 327.1C243.6 325.1 241.9 323.2 239.9 323.3C239.031 323.32 238.188 323.596 237.476 324.094C236.764 324.593 236.216 325.291 235.9 326.1C235.689 326.711 235.588 327.354 235.6 328C235.503 329.187 235.861 330.366 236.6 331.3C237.155 331.92 237.832 332.418 238.59 332.763C239.347 333.107 240.168 333.29 241 333.3C244.4 333.4 247 330.3 247 327C247 320.9 237.9 317.5 234.2 316.6C229.512 315.488 224.718 314.884 219.9 314.8C217 314.6 214.9 314.7 211.8 314.4C209 314.1 207.5 313.9 204.6 313.3C200.872 312.464 197.425 310.672 194.6 308.1C191.939 306.102 190.096 303.204 189.415 299.947C188.734 296.69 189.262 293.296 190.9 290.4C191.794 288.969 192.993 287.753 194.41 286.837C195.827 285.921 197.428 285.328 199.1 285.1C202.1 284.6 204.7 285.9 206.2 288.9C207 290.3 206.8 292.7 206.2 293.9C205.789 294.575 205.219 295.138 204.538 295.539C203.858 295.94 203.089 296.167 202.3 296.2C199.3 296.2 198.6 294.2 198.5 293.7C198.2 291.5 199.5 290.6 200.1 290.4C200.6 290.2 202.3 290.2 202.7 291.4C202.8 291.8 202.8 292.5 202.5 293" stroke="#703D29" stroke-width="0.5"/>
<path d="M219.1 185.6C219 185.466 218.9 185.333 218.8 185.2C217.5 183.2 215.1 182.7 213.3 184C211.3 185.6 210.7 188.3 211.3 191.2C211.513 192.11 211.906 192.968 212.455 193.724C213.005 194.479 213.7 195.117 214.5 195.6" stroke="#703D29" stroke-width="0.5" stroke-linecap="round"/>
<path d="M293.9 191.7C290.7 195.2 287.4 196.3 282.6 196.5C281.1 196.5 278.2 196 276.6 194.8C275.6 194 274.3 192.8 275.1 190.4C275.6 188.9 278.1 184.7 278.1 181.7C278.3 177.2 276.6 174.7 273.9 173.8C268.9 172 263.5 177 260.3 178.1C258.984 178.558 257.592 178.761 256.2 178.7C254.6 178.7 253.7 178.7 252 178.1C248.8 177 243.4 172.1 238.4 173.8C235.7 174.8 234 177.2 234.2 181.8C234.2 184.7 236.7 188.9 237.2 190.4C238 192.7 236.8 194 235.7 194.8C233.893 195.904 231.818 196.492 229.7 196.5C224.8 196.3 221.7 195.2 218.4 191.7" stroke="#703D29" stroke-width="0.5"/>
<path d="M238.4 315.5C239 315.8 238.5 315.4 242.6 317.2C246.4 318.9 249.2 320.4 251.6 324.2C252.536 326.018 252.784 328.113 252.3 330.1" stroke="#703D29" stroke-width="0.5" stroke-linecap="round"/>
<path d="M238.6 332.8C239.407 333.215 240.294 333.454 241.2 333.5C244.6 333.6 247.2 330.5 247.2 327.2C247.2 325 246 323.2 244.3 321.6" stroke="#703D29" stroke-width="0.5"/>
<path d="M239.4 326.7C238.5 328.6 239.7 329.5 240.9 329.7C242.6 329.9 243.5 328.5 243.7 327.3C243.743 326.647 243.608 325.995 243.308 325.414C243.009 324.833 242.557 324.344 242 324" stroke="#703D29" stroke-width="0.5" stroke-linecap="round"/>
<path d="M312.5 187.8C315.1 187.8 317.4 190.7 317.4 193.6C317.4 197 315.6 199.1 314.3 200.6C313.3 201.9 312.1 203 310.7 204.4" stroke="#703D29" stroke-width="0.5"/>
<path d="M309.5 185.1C310.456 185.511 311.26 186.21 311.8 187.1C312.77 188.539 313.195 190.276 313 192C312.9 195.4 310.5 197.7 308.3 199.1M304.5 185.1L305 185.7C305.598 186.508 306.014 187.436 306.221 188.419C306.428 189.403 306.421 190.419 306.2 191.4C306.039 192.304 305.688 193.163 305.171 193.921C304.654 194.68 303.982 195.32 303.2 195.8M299.2 184.2C301.2 185.8 301.9 188.6 301.2 191.4C300.7 193.4 299.4 194.7 297.9 195.6M306.8 228.5C307 229.2 307.4 229.5 308 230C309.345 231.388 311.037 232.389 312.9 232.9C313.736 233.141 314.613 233.203 315.475 233.082C316.336 232.961 317.162 232.661 317.9 232.2M187.5 275.4C188.5 275.4 189.5 276 190.2 277.2C190.395 277.57 190.498 277.982 190.5 278.4C190.5 279.1 190.2 279.8 189.7 280.2C188.5 280.9 186.5 280.6 186.6 278.5" stroke="#703D29" stroke-width="0.5" stroke-linecap="round"/>
<path d="M193.7 249C197.7 249.8 201.4 254.5 202.7 259.7C203.424 262.852 203.492 266.12 202.9 269.3C202.229 272.689 200.598 275.813 198.2 278.3C197.7 278.9 197.2 279.3 196.5 279.8L195.6 280.4M189.3 270.7C190.9 270.7 192.3 272.2 192.3 273.9C192.29 274.643 192.005 275.355 191.5 275.9" stroke="#703D29" stroke-width="0.5"/>
<path d="M188.2 272.6C189.9 272.6 191.5 274.2 191.5 275.9C191.508 276.381 191.403 276.858 191.195 277.292C190.987 277.725 190.68 278.105 190.3 278.4" stroke="#703D29" stroke-width="0.5"/>
<path d="M203.7 255.6C205.2 257.6 206.3 259.5 206.7 261.8M206.7 268.6C206.434 269.712 206.031 270.787 205.5 271.8C204.776 273.178 203.83 274.428 202.7 275.5" stroke="#703D29" stroke-width="0.5" stroke-linecap="round"/>
<path d="M203.9 243.5C205.218 244.432 206.2 245.765 206.7 247.3" stroke="#703D29" stroke-width="0.5"/>
<path d="M206.8 239.6C206.247 241.052 205.314 242.33 204.1 243.3M196.8 229.5L198.5 229.1L199.5 228.3L200.2 227.3L200.7 225.9L201 224.7" stroke="#703D29" stroke-width="0.5" stroke-linecap="round"/>
<path d="M193.3 223.4L191.3 224.1C190.169 224.635 189.202 225.464 188.5 226.5C187.599 227.97 186.988 229.6 186.7 231.3C186.5 232 186.3 234.3 186.7 236.6C187.052 238.252 187.732 239.816 188.7 241.2L189.5 242.2C190.5 243.2 191.5 243.9 193 243.6" stroke="#703D29" stroke-width="0.5"/>
<path d="M202.9 215.8C202.7 216.8 202.1 218.1 200.5 218" stroke="#703D29" stroke-width="0.5" stroke-linecap="round"/>
<path d="M197 222.8C195.5 221.3 192.2 220.9 189 223C188.5 223.2 188.1 223.6 187.7 224C187.288 224.356 186.919 224.758 186.6 225.2L185.4 227.2C185.097 227.84 184.862 228.51 184.7 229.2C184.1 231.5 184.1 233.7 184.1 234.2L184.4 236.4C184.698 238.16 185.307 239.854 186.2 241.4C186.814 242.561 187.697 243.557 188.776 244.305C189.855 245.054 191.098 245.532 192.4 245.7C193.8 245.8 196.3 245.1 196.4 243.3" stroke="#703D29" stroke-width="0.5"/>
<path d="M291.5 189.7C291.7 188.3 293.3 188.1 293.9 188.9C294.9 190.1 294.3 192.1 292.4 192.7C291.847 192.818 291.272 192.777 290.741 192.583C290.211 192.388 289.746 192.047 289.4 191.6C288.5 190.6 288.6 189.4 288.9 188.4C289.1 187.7 289.6 187.2 290.3 186.7C292.4 185 296 185.4 297.1 188.2C298.6 191.8 295.4 194.5 292.4 196.5C288.6 199 284.4 199.5 281.1 199.5C273.8 199.4 268.2 195.9 264.6 193.9C263.8 193.4 262.9 193.5 262.5 194.1C262 194.7 262 195.6 262.7 196.2" stroke="#703D29" stroke-width="0.5" stroke-linecap="round"/>
<path d="M293 188.4C293.8 188.4 294 188.8 294.2 189.1C295.2 190.3 294.5 192.3 292.6 192.9M306.9 234.1C304.1 237.1 306.6 242.4 308.7 243.6C309.4 244.1 309.7 243.8 310.3 244.2" stroke="#703D29" stroke-width="0.5" stroke-linecap="round"/>
<path d="M307 228.3C306 229 305.8 229.7 305.7 230.9C305.665 231.488 305.753 232.076 305.96 232.627C306.167 233.179 306.487 233.68 306.9 234.1C308.889 235.952 311.483 237.019 314.2 237.1C315.941 237.165 317.657 236.675 319.1 235.7C320.598 234.687 321.667 233.155 322.1 231.4M305.5 281V283C305.1 285.2 304.8 286.5 303.8 288.5C302.961 290.201 301.808 291.728 300.4 293C299.05 294.379 297.456 295.498 295.7 296.3C294.059 297.14 292.309 297.746 290.5 298.1C288.687 298.453 286.847 298.654 285 298.7H280L274.5 298C272.8 297.8 271.8 297.7 270.1 297.7C267.096 297.615 264.106 298.125 261.3 299.2C259.473 299.904 257.781 300.919 256.3 302.2C255.7 301.6 253.3 300 251.1 299.2C249.787 298.635 248.41 298.232 247 298C245.2 297.7 244.2 297.7 242.4 297.7C240.6 297.7 239.7 297.8 237.9 298C235.9 298.2 234.6 298.5 232.5 298.6C230.5 298.7 229.5 298.8 227.5 298.7C225.3 298.7 224.1 298.5 221.9 298.1C220.091 297.746 218.341 297.14 216.7 296.3C214.7 295.3 213.7 294.6 212 293C210.628 291.719 209.509 290.193 208.7 288.5C207.786 286.792 207.209 284.925 207 283V199.6H305.5V281Z" stroke="#703D29" stroke-width="0.5"/>
<path d="M198.8 292.5C198.8 291.97 199.011 291.461 199.386 291.086C199.761 290.711 200.27 290.5 200.8 290.5C201.331 290.5 201.839 290.711 202.214 291.086C202.589 291.461 202.8 291.97 202.8 292.5C202.8 293.031 202.589 293.539 202.214 293.914C201.839 294.289 201.331 294.5 200.8 294.5C200.27 294.5 199.761 294.289 199.386 293.914C199.011 293.539 198.8 293.031 198.8 292.5ZM186.6 278.4C186.6 277.4 187.2 276.6 188 276.6C188.8 276.6 189.4 277.4 189.4 278.4C189.4 279.4 188.8 280.2 188 280.2C187.2 280.2 186.6 279.4 186.6 278.4Z" fill="#C7B37F" stroke="#C7B37F" stroke-width="0.3"/>
<path d="M193.5 242.9C193.5 242.1 194.2 241.4 194.9 241.4C195.7 241.4 196.3 242.1 196.3 242.9C196.3 243.7 195.7 244.3 194.9 244.3C194.2 244.3 193.6 243.7 193.6 242.9H193.5ZM218.1 190.4C218 189.5 218.5 188.8 219.1 188.8C219.8 188.7 220.5 189.3 220.6 190.1C220.6 190.9 220.2 191.6 219.5 191.7C218.8 191.7 218.1 191.2 218.1 190.4Z" fill="#C7B37F"/>
<path d="M191.9 251.2C191.675 251.291 191.471 251.428 191.3 251.6L190.8 252.3L190.6 253.3M194.4 274.6L195.1 273.8L195.7 273L196.1 272.3L196.6 271.3M195.6 282.3L194.4 282.9L193.5 283.4C193.157 283.619 192.823 283.852 192.5 284.1L191.5 284.9M203.5 254.6L202.9 253.9L202.2 253.2L201.4 252.7" stroke="#C7B37F" stroke-width="0.5" stroke-linecap="round"/>
<path d="M203.8 244L202.8 244.4C202.444 244.518 202.074 244.585 201.7 244.6" stroke="#C7B37F" stroke-width="0.5"/>
<path d="M190.5 230.8C190.5 231.2 190.6 231.5 190.8 231.9L191.5 233.3C192.065 234.157 192.818 234.875 193.7 235.4L194.9 236.1M194 231.4L195 231.9C195.757 232.23 196.574 232.4 197.4 232.4L198.9 232.3M204.6 199.8L203 198.8C202.072 198.179 201.26 197.4 200.6 196.5L199.9 195.5M205.9 191.9L206.4 193.2L207.6 194.9C208.3 195.7 208.9 195.9 209.8 196.5M210.9 191.8L211.4 193L212.1 194L213.1 195C213.7 195.5 214.1 195.6 214.7 196" stroke="#C7B37F" stroke-width="0.5" stroke-linecap="round"/>
<path d="M267.1 185.3C267.1 183.9 265.8 183.8 265.2 183.8C263.8 183.8 263.4 184.8 261.5 185.8C259.909 186.777 258.066 187.264 256.2 187.2C254.286 187.288 252.395 186.762 250.8 185.7C248.9 184.7 248.6 183.8 247.2 183.8C246.4 183.8 245.3 184.5 245.4 185.8V186.5C245.4 186.5 245.6 186.5 245.6 186.7C245.6 186 245.7 185.7 246 185.3C246.155 185.098 246.351 184.931 246.575 184.811C246.799 184.69 247.046 184.618 247.3 184.6C248.8 184.6 249.3 185.6 251.2 186.6C252.78 187.612 254.624 188.134 256.5 188.1C258.5 188.1 259.6 187.8 261.9 186.6C263.8 185.6 264.3 184.6 265.8 184.6C266.3 184.6 266.6 184.9 266.8 185.4V186.1H267C267 186 267.2 185.9 267.1 185.3Z" fill="#703D29" stroke="#703D29" stroke-width="0.1"/>
<path d="M212 299.2C212.4 298.8 212.8 298.9 212.8 298.7L212.6 298.5L211.9 298.3L211.2 298C211.2 298 210.9 297.8 210.8 298C210.8 298.3 211.7 298.3 211.3 299.1C211.3 299.3 211.2 299.6 210.7 300.1L208.6 302.4L208.4 302.6V299L208.5 297.6C208.7 297.2 209.1 297.6 209.2 297.3C209.2 297.1 209.2 297.1 209 297C208.8 297 208.6 297 208 296.7L207.3 296.4C207.2 296.4 206.9 296.2 206.8 296.4L206.9 296.6C207.2 296.8 207.3 296.9 207.3 297.3V303.3C207.3 303.7 207.4 303.9 207.5 303.9L207.8 303.7L212 299.1V299.2Z" fill="#703D29"/>
<path d="M214.5 300.1C214.8 299.3 215.3 299.8 215.4 299.5L215.1 299.3L214.1 299L213.1 298.6H212.8C212.8 299 213.8 299 213.5 299.9L212.1 304.3C211.8 305.1 211.3 304.7 211.2 305V305.1L212.2 305.4L213.4 305.8H213.7C213.8 305.5 212.7 305.6 213.1 304.5L214.5 300.2V300.1ZM217.5 301.1C217.6 300.5 217.9 300.5 218.2 300.6C219 300.9 219.2 301.7 219 302.6C218.8 303.1 218.6 303.6 217.4 303.3C217.1 303.2 216.8 303.1 216.9 302.9L217.5 301V301.1ZM215.2 305C214.8 306.1 214.2 305.6 214.2 306L214.4 306.1L215.7 306.5L216.4 306.7H216.7C216.7 306.3 215.8 306.5 216.1 305.5L216.6 303.9C216.6 303.6 216.6 303.5 217.1 303.6C217.5 303.8 217.6 303.9 217.7 304.3L218 306C218 306.6 218.2 307.3 218.8 307.4C219.1 307.6 219.8 307.5 219.8 307.2V307.1H219.5L219.2 306.8L218.7 303.8L219.3 303.6C219.6 303.4 219.9 303.2 220.1 302.6C220.2 302.2 220.4 300.9 218.6 300.3L217 299.9L216 299.6H215.8C215.7 300 216.7 299.9 216.4 300.9L215.2 304.9V305ZM221.9 307C221.7 308 220.9 307.4 220.7 307.7C220.7 307.9 220.8 308 221 308L222.2 308.2L223.3 308.6L223.8 308.5C223.8 308.2 222.7 308.2 223 307.1L224 302.9C224 302.4 224.2 302.4 224.5 302.5L225.2 302.7C226.2 302.9 225.7 303.8 226 303.9C226.3 303.9 226.2 303.6 226.3 303.4V302.3L223.7 301.7L221.2 301.1C221 301.1 221 301.1 221 301.3L220.5 302.5V302.8C221 302.9 221 301.6 221.9 301.8L222.6 302C223 302.1 223.1 302.2 223 302.6L222 306.9L221.9 307ZM232.1 304.3C232.4 303.8 232.8 303.9 232.8 303.7L232.5 303.5H231.8L231.1 303.3C231 303.3 230.7 303.2 230.7 303.3C230.7 303.7 231.6 303.5 231.4 304.3C231.4 304.5 231.3 304.9 230.9 305.4L229.2 308.1L229.1 308.3V308L228.5 304.8C228.401 304.374 228.367 303.936 228.4 303.5C228.4 303.1 228.9 303.3 229 303L228.7 302.8L227.7 302.7L226.9 302.5C226.8 302.5 226.5 302.4 226.5 302.5L226.6 302.7C227 302.9 227.1 303 227.1 303.4L228.2 309.3C228.3 309.7 228.4 309.8 228.5 309.8L228.7 309.6L232.1 304.3ZM232.6 309.7L232.7 310.1L234.1 310.7C235.2 310.9 236.1 310.2 236.4 309C236.6 307.8 236.1 307.3 235.2 306.7C234.2 305.9 233.7 305.7 233.9 305.1C233.9 304.5 234.4 304.1 234.9 304.3C236.4 304.5 236.3 306.3 236.5 306.3C236.6 306.3 236.7 306.3 236.7 306L236.8 304.7V304.4H236.3C236 304.4 235.8 304 235.1 303.9C234.1 303.7 233.3 304.4 233.1 305.5C232.9 306.5 233.3 306.9 234.1 307.4C235.3 308.3 235.8 308.4 235.7 309.3C235.5 310 234.9 310.4 234.3 310.3C233.3 310.1 233 309.2 232.8 308.3L232.7 308C232.5 308 232.5 308.3 232.5 308.4V309.7H232.6ZM245.2 306.2C245.5 305.6 245.8 305.7 245.9 305.5C245.9 305.3 245.7 305.3 245.6 305.3H244.8L244.1 305.2L243.7 305.3C243.7 305.7 244.7 305.3 244.5 306.3C244.5 306.4 244.5 306.8 244.2 307.3L242.8 310.2L242.6 310.4V310.2L241.6 307C241.467 306.58 241.4 306.141 241.4 305.7C241.4 305.3 242 305.4 242 305.2C242 305 242 305 241.7 305H240.7L239.9 304.9C239.8 304.9 239.5 304.8 239.5 304.9L239.6 305.1C240 305.3 240.1 305.4 240.2 305.7L241.9 311.5C242 311.9 242.1 312 242.2 312L242.4 311.7L245.2 306.2Z" fill="#703D29"/>
<path d="M246.5 310.8C246.5 311.8 245.7 311.6 245.7 312H246.7L247.7 312.1L248.1 312C248.1 311.5 247 312.2 247 310.3V306.9C247 306.9 247.2 306.9 247.3 307.1L251.3 312.1H251.6V311.9L251.7 306.6C251.7 305.6 252.5 305.8 252.5 305.5L252.3 305.4H250.3V305.5C250.3 305.8 251.3 305.7 251.3 306.5V309.7L251.2 310.1L250.9 309.8L247.5 305.6C247.4 305.4 247.5 305.3 247.2 305.3H245.8L245.7 305.5C245.7 305.9 246.7 305.3 246.6 307.2V310.8H246.5ZM254.9 306.5C254.9 305.5 255.5 305.9 255.5 305.6L255.2 305.5H252.9C252.9 305.9 253.8 305.6 253.8 306.5V311.1C253.8 312.1 253.2 311.8 253.2 312.1V312.2H255.5L255.8 312.1C255.8 311.8 254.8 312.2 254.8 311.1V306.5H254.9ZM258.5 310.9C258.5 312.1 257.5 311.6 257.5 311.9C257.5 312.2 257.7 312.2 257.8 312.2H260.2C260.5 312.2 260.7 312.2 260.7 312C260.7 311.7 259.6 312 259.6 310.8V306.5C259.6 306 259.6 306 259.9 306H260.7C261.7 306 261.4 307 261.7 307C262 307 261.9 306.6 261.9 306.5L261.8 305.6C261.8 305.6 261.8 305.4 261.6 305.4H256.5C256.3 305.4 256.3 305.6 256.3 305.7L256.2 306.9L256.3 307.3C256.7 307.3 256.4 306 257.4 306H258.1C258.5 306 258.6 306 258.6 306.5V310.9H258.5ZM263.5 309.1H263.2V308.7L263.8 306.9H263.9L264.9 308.6V308.9L264.7 309L263.5 309.1ZM265 309.5C265.2 309.5 265.3 309.5 265.6 310.3L265.8 310.9C265.8 311.5 265.2 311.5 265.2 311.7C265.2 311.9 265.4 311.8 265.5 311.8H266.5L267.5 311.7C267.8 311.7 267.9 311.7 267.9 311.5C267.9 311.2 267.4 311.6 267.1 310.9L264.3 305.3L264.1 305L263.9 305.4L262 311.3C261.8 311.8 261.4 311.8 261.4 312C261.4 312.2 261.6 312.1 261.7 312.1H263.2C263.4 312 263.7 312.1 263.7 311.8C263.7 311.6 262.7 311.8 262.7 311.1L262.8 310.4C263 309.7 263.1 309.7 263.3 309.7L265 309.5ZM271.6 305.5C271.6 304.9 271.6 304.9 272.6 304.8C274.2 304.5 273.7 305.8 274.1 305.7C274.3 305.7 274.2 305.3 274.2 305.2L274.1 304.2H273.9L271.9 304.4L269.7 304.7C269.5 304.7 269.5 304.7 269.5 304.9C269.5 305.2 270.5 304.9 270.5 305.7L271.1 310.1C271.3 311.3 270.6 310.8 270.6 311.3H270.8L271.9 311.2L272.9 311.1C273.1 311.1 273.3 311.1 273.3 310.9C273.3 310.6 272.3 310.9 272.2 309.9L272 308.5C272 308 271.9 307.9 272.3 307.8H272.9C273.8 307.6 273.7 308.7 273.9 308.6C274.2 308.6 274.1 308.3 274 308.1L273.8 306.5C273.8 306.2 273.6 306.2 273.6 306.2C273.4 306.2 273.5 307.2 272.8 307.2L272.2 307.3C271.8 307.3 271.8 307.3 271.8 306.9L271.6 305.6V305.5ZM274.8 307.7C275.1 309.7 276.5 310.7 278.2 310.4C280.9 309.9 281 307.4 280.7 306.2C280.4 304.2 278.9 303.2 277.2 303.5C275.2 303.9 274.4 305.7 274.8 307.7ZM275.7 307C275.4 305.6 275.7 304.3 277.1 304C278.1 303.7 279.4 304.6 279.8 306.7C280.1 308.3 279.8 309.7 278.4 309.9C276.9 310.2 276 308.4 275.7 307ZM282.4 303.7C282.2 303.1 282.5 303 282.8 303C283.6 302.8 284.3 303.3 284.5 304.3C284.6 304.8 284.7 305.3 283.5 305.6C283.2 305.7 282.9 305.8 282.8 305.6L282.4 303.6V303.7ZM282.4 308.2C282.7 309.4 281.9 309.2 282 309.5C282 309.7 282.2 309.7 282.3 309.6L283.6 309.3L284.3 309.2C284.5 309.2 284.5 309 284.5 309C284.5 308.6 283.7 309.2 283.5 308.2L283.1 306.6C283 306.3 282.9 306.2 283.4 306.1C283.8 306.1 284 306.1 284.3 306.4L285.3 307.7C285.7 308.2 286.1 308.7 286.8 308.6C287.1 308.5 287.6 308.1 287.5 307.9C287.5 307.8 287.5 307.7 287.4 307.8H286.8L284.8 305.5L285.3 305C285.4 304.7 285.6 304.3 285.5 303.7C285.4 303.3 284.9 302 283 302.5L281.4 302.9L280.4 303.1L280.2 303.3C280.3 303.7 281.2 303.1 281.4 304.1L282.4 308.2ZM289.3 306.7C289.6 307.7 288.5 307.6 288.6 307.9C288.6 308.1 288.8 308.1 288.9 308.1L290.1 307.7L291.3 307.4C291.5 307.4 291.7 307.4 291.6 307.2C291.6 306.9 290.6 307.4 290.3 306.3L289.2 302.1C289.1 301.7 289.2 301.6 289.5 301.5L290.2 301.3C291.2 301 291.2 302.1 291.5 302.1C291.7 302.1 291.5 301.7 291.5 301.6L291.1 300.7C291.1 300.7 291.1 300.5 290.9 300.5L288.4 301.2L285.9 301.9C285.7 301.9 285.8 302 285.8 302.1L286 303.4C286 303.5 286 303.7 286.2 303.7C286.5 303.6 286 302.4 286.9 302.2L287.6 302C287.9 302 288 302 288.2 302.4L289.2 306.7H289.3ZM293.7 300.8C293.4 299.9 294.1 300.1 294 299.8H293.7C293.3 299.8 293 300 292.7 300.1L291.7 300.3C291.7 300.3 291.4 300.3 291.5 300.5C291.5 300.8 292.5 300.3 292.7 301.1L293.9 305.5C294.1 306.5 293.5 306.3 293.6 306.7L294.6 306.5L295.9 306.2C296.1 306.1 296.1 306 296.1 305.9C296.1 305.6 295.2 306.3 294.9 305.2L293.7 300.8ZM295.5 302.9C296.1 304.8 297.6 305.6 299.3 305.1C301.9 304.2 301.6 301.8 301.2 300.6C300.6 298.6 298.9 297.9 297.4 298.4C295.4 299.1 294.8 301 295.5 302.9ZM296.3 302.1C295.9 300.8 295.9 299.4 297.3 298.9C298.3 298.5 299.6 299.2 300.3 301.3C300.8 302.8 300.8 304.1 299.3 304.6C297.9 305.1 296.8 303.4 296.3 302.1ZM302.4 297.8C302.2 297.2 302.4 297.1 302.8 297C303.6 296.7 304.3 297.2 304.6 298C304.8 298.6 305 299 303.8 299.6C303.5 299.6 303.2 299.8 303.1 299.6L302.4 297.8ZM303.1 302.3C303.5 303.3 302.7 303.3 302.9 303.6C302.9 303.8 303.1 303.7 303.2 303.6C303.6 303.6 304 303.3 304.4 303.2L305.1 302.9C305.3 302.9 305.3 302.8 305.3 302.7C305.2 302.4 304.5 303 304.1 302.1L303.5 300.6C303.5 300.2 303.3 300.2 303.8 300C304.2 299.9 304.3 299.9 304.7 300.2L305.9 301.4C306.4 301.8 306.9 302.2 307.5 302C307.8 301.9 308.2 301.5 308.1 301.2C308.1 301.2 308.1 301.1 308 301.2H307.4L305.2 299.2L305.5 298.7C305.6 298.4 305.7 298 305.5 297.4C305.3 297 304.7 295.8 302.9 296.5L301.3 297.2L300.3 297.5V297.7C300.4 298 301.1 297.3 301.5 298.3L303.1 302.3Z" fill="#703D29"/>
<path d="M211.802 204.442H253.838V246.426H211.802V204.442Z" fill="#D52B1E"/>
<path d="M231.514 237.466C231.514 237.466 231.514 239.002 231.105 240.179C230.593 241.562 230.593 241.562 230.132 242.227C229.635 243.039 228.972 243.737 228.186 244.275C227.162 244.89 226.138 245.197 225.114 245.095C222.35 244.89 221.018 241.818 220.404 239.36C219.738 236.749 217.844 235.264 216.564 236.288C215.847 236.8 215.847 237.722 216.41 238.643C216.962 239.309 217.689 239.805 218.51 240.077L217.025 241.971C217.025 241.971 213.799 241.562 213.185 238.183C212.929 236.903 213.543 234.547 215.694 233.831C218.407 232.909 220.097 234.855 220.967 236.493C222.094 238.746 222.606 242.842 225.78 242.227C227.521 241.869 228.34 239.36 228.34 238.183L229.569 236.851L231.463 237.466H231.514Z" fill="white"/>
<path d="M234.126 237.466C234.126 237.466 234.126 239.002 234.535 240.179C235.047 241.562 235.047 241.562 235.508 242.227C236.005 243.039 236.668 243.737 237.454 244.275C238.478 244.89 239.502 245.197 240.526 245.095C243.29 244.89 244.622 241.818 245.236 239.36C245.902 236.749 247.796 235.264 249.076 236.288C249.793 236.8 249.793 237.722 249.23 238.643C248.678 239.309 247.951 239.805 247.13 240.077L248.615 241.971C248.615 241.971 251.841 241.562 252.455 238.183C252.711 236.903 252.097 234.547 249.946 233.831C247.233 232.909 245.543 234.855 244.673 236.493C243.546 238.746 243.034 242.842 239.86 242.227C238.119 241.869 237.3 239.36 237.3 238.183L236.071 236.851L234.177 237.466H234.126Z" fill="white"/>
<path d="M236.583 219.648L242.113 213.658C242.113 213.658 242.932 212.992 242.932 211.917L241.806 212.122L241.55 211.507L241.498 210.944L243.034 210.586V209.92L243.188 209.254L241.55 209.357L241.703 208.64L241.959 208.128L242.932 207.923H243.905C244.826 206.182 248.615 204.646 251.278 207.411C253.223 209.459 252.814 213.146 250.254 214.17C249.681 214.424 249.047 214.506 248.429 214.406C247.811 214.306 247.235 214.028 246.772 213.606L247.796 211.558C249.178 212.429 250.356 211.405 250.254 210.33C250.151 208.947 249.23 208.128 248.052 208.026C246.874 207.923 246.004 208.538 245.492 209.562C245.185 210.227 245.338 210.688 245.236 211.405C245.134 212.173 245.236 212.582 244.98 213.35C244.73 214.057 244.308 214.691 243.751 215.194L238.119 221.338L216.103 245.094L214.465 243.558L236.583 219.648Z" fill="#FEDF00"/>
<path d="M220.404 221.696C220.404 221.696 221.786 228.557 226.497 238.848C228.903 237.978 230.286 237.414 232.846 237.414C235.354 237.414 236.737 237.926 239.143 238.848C241.765 233.358 243.806 227.609 245.236 221.696L232.846 205.824L220.353 221.696H220.404Z" fill="white"/>
<path d="M234.023 211.149L242.625 222.259C242.625 222.259 241.499 227.635 238.017 235.725C236.635 235.418 235.457 235.162 234.023 235.059V211.149ZM231.617 211.149L223.015 222.259C223.015 222.259 224.142 227.635 227.623 235.725C229.006 235.418 230.183 235.162 231.617 235.059V211.149Z" fill="#FEDF00"/>
<path d="M258.3 204.4H300.5V246.4H258.5L258.3 204.4Z" fill="#FEDF00"/>
<path d="M264.2 204.4H270.5V246.4H264.2V204.4ZM276.2 204.4H282.5V246.4H276.3L276.2 204.4ZM288.2 204.4H294.5V246.4H288.3L288.2 204.4Z" fill="#D52B1E"/>
<path d="M211.9 282.8C212.1 283.6 212.3 284.8 213 286.2C213.8 287.4 213.5 287.4 215.2 289.2C217.052 291.004 219.374 292.251 221.9 292.8C225.3 293.8 227.6 293.8 230.4 293.7C232.6 293.6 234.3 293.3 235.7 293.1C237.7 292.9 239.1 292.7 241.4 292.6C242.433 292.55 243.467 292.55 244.5 292.6C245.7 292.6 246.9 292.9 248.2 293.1C251 293.7 253.8 294.8 253.8 294.8V250.9H211.8V280.9L211.9 282.9V282.8Z" fill="#FEDF00"/>
<path d="M216.8 290.5L218.8 291.7L221.5 292.7V250.9H216.8V290.5ZM240.2 292.5V250.9H235.5V293.1L240.2 292.6V292.5ZM249.5 250.9H244.9V292.6C246.451 292.751 247.989 293.018 249.5 293.4V251V250.9ZM230.9 250.9V293.6H226.2V250.9H230.9Z" fill="#D52B1E" stroke="#D52B1E" stroke-width="0.3"/>
<path d="M300.276 282.829C300.093 284.01 299.712 285.153 299.15 286.208C298.382 287.385 298.638 287.385 296.948 289.28C295.117 291.086 292.807 292.329 290.292 292.864C287.522 293.594 284.652 293.871 281.793 293.683C279.591 293.581 277.953 293.325 276.519 293.171C274.574 292.864 273.089 292.71 270.887 292.659C269.83 292.607 268.77 292.607 267.713 292.659C264.519 293.02 261.375 293.742 258.343 294.809V250.88H300.43V280.832L300.276 282.777V282.829Z" fill="#FEDF00"/>
<path d="M269.095 254.464L268.788 254.566L268.378 254.976C268.174 255.181 268.02 255.232 267.764 255.386L267.457 255.642C267.303 255.795 267.457 255.949 267.303 256.154C267.252 256.358 267.15 256.461 266.996 256.666C266.791 256.87 266.638 256.922 266.484 257.178L265.87 257.69L265.716 257.741H265.409C265.204 257.843 265.153 258.048 264.999 258.15L265.153 258.458L265.562 259.174C265.665 259.328 265.665 259.533 265.818 259.584C266.074 259.686 266.279 259.686 266.484 259.635C266.894 259.738 267.15 259.738 267.508 259.891L268.276 260.301C268.532 260.454 268.686 260.506 268.942 260.557H269.863V260.71L270.887 261.222C270.862 261.288 270.845 261.357 270.836 261.427C270.785 261.581 270.734 261.786 270.785 261.837C271.092 262.81 271.399 263.373 271.553 263.475C271.86 263.578 271.962 263.936 272.116 264.243L271.962 264.397C271.655 264.704 271.348 264.909 271.092 265.318C270.734 265.933 270.478 265.933 270.938 266.752L271.706 267.981C271.911 268.339 272.014 268.595 272.116 269.005C272.218 269.363 272.27 269.619 272.27 270.029L272.782 270.182L273.14 269.875L273.447 269.261V268.749C273.345 268.698 273.294 268.544 273.345 268.39C273.345 268.186 273.601 268.237 273.703 268.083C273.857 267.827 273.498 267.674 273.345 267.52C273.038 267.162 272.628 267.059 272.526 266.547C272.526 266.445 272.526 266.342 272.73 266.189L273.754 265.267C273.857 265.318 274.062 265.37 274.266 265.318L274.932 265.523C275.239 265.626 275.393 265.523 275.546 265.523H275.751L275.802 265.83C275.854 266.342 275.751 267.366 275.905 267.622L276.058 267.93L276.161 268.237V269.261L276.058 270.131C276.058 270.336 275.956 270.49 275.802 270.643C275.7 270.848 275.495 270.848 275.29 271.002V271.514L275.854 271.77L276.519 271.923L276.878 271.77L276.929 271.462L277.185 271.206C277.39 271.104 277.594 271.206 277.646 271.155C277.748 271.002 277.646 270.95 277.646 270.746C277.646 270.438 277.543 270.234 277.492 269.926C277.418 269.452 277.401 268.971 277.441 268.493C277.441 268.186 277.441 267.981 277.543 267.725C277.594 267.213 277.748 267.008 277.85 266.598C278.004 266.086 278.004 265.779 278.055 265.318C279.782 265.578 281.543 265.474 283.226 265.011C283.636 265.37 284.097 265.626 284.609 265.83V266.342C284.609 266.496 284.609 266.547 284.711 266.701L284.865 266.854C285.018 266.854 285.121 266.854 285.223 266.752C285.326 266.65 285.326 266.547 285.326 266.394V266.035H286.247V266.598C286.298 266.752 286.401 266.803 286.503 266.803C286.551 266.826 286.604 266.838 286.657 266.838C286.71 266.838 286.762 266.826 286.81 266.803C286.964 266.701 286.913 266.496 286.964 266.291V265.933L287.476 265.728C287.49 265.881 287.49 266.035 287.476 266.189L287.322 266.65C287.22 266.957 287.066 267.059 286.913 267.366C286.708 267.674 286.657 267.878 286.401 268.134L286.094 268.493L285.786 268.954L285.326 269.466C284.967 269.773 284.711 269.568 284.302 269.926L284.148 270.438L284.865 270.746L285.53 270.848L285.735 270.746C285.735 270.592 285.735 270.438 285.889 270.336C285.991 270.182 286.094 270.182 286.247 270.131C286.452 270.131 286.657 270.131 286.759 270.029C286.964 269.875 286.964 269.517 287.118 269.261C287.495 268.501 288.016 267.823 288.654 267.264L289.524 266.547C289.626 266.342 289.78 266.291 289.78 266.035L289.678 265.728L289.575 265.216C290.343 265.574 290.087 265.574 290.19 265.933C290.343 266.24 290.19 266.445 290.241 266.803C290.292 267.213 290.497 267.366 290.497 267.776C290.548 268.237 290.446 268.493 290.343 268.954C290.292 269.363 290.292 269.619 290.087 269.978C289.966 270.276 289.773 270.54 289.524 270.746L289.217 271.002L289.166 271.514L289.729 271.718L290.548 271.923L290.753 271.77C290.855 271.411 290.753 270.899 290.958 270.899C291.162 270.848 291.316 270.899 291.367 270.746V270.387L291.726 268.083L291.93 267.11L292.135 266.24C292.494 265.216 292.033 265.062 291.623 264.397C291.367 264.038 291.265 263.885 291.265 263.629V262.144C291.249 261.666 291.249 261.188 291.265 260.71L291.47 260.608C292.084 260.25 292.34 260.147 292.698 259.328C292.807 259.087 292.86 258.824 292.852 258.56V258.048L292.647 257.536C292.567 257.384 292.463 257.246 292.34 257.126C291.982 256.614 291.47 256.563 290.958 256.358C290.19 256.102 289.678 256.154 288.91 256.102C287.988 256 287.527 256 286.657 256.102C285.633 256.102 285.07 256.307 284.046 256.461L281.537 256.666C280.359 256.666 279.284 256.41 278.567 256.461C277.338 256.563 277.287 256.87 275.393 257.024C274.745 257.077 274.097 257.111 273.447 257.126L272.321 256.768C272.782 256.614 272.884 256.512 273.089 256.256C273.242 256.051 273.191 255.898 273.396 255.693L273.754 255.181C273.618 255.079 273.461 255.009 273.294 254.976H272.782C272.568 254.984 272.359 255.036 272.167 255.13L271.758 255.437L270.631 254.822C270.151 254.578 269.631 254.422 269.095 254.362V254.464Z" fill="#D52B1E"/>
<path d="M291.726 260.864L291.316 261.018C290.855 261.222 290.497 261.222 289.985 261.274C288.654 261.376 287.783 260.71 286.401 260.813C285.684 260.864 285.377 261.427 284.609 261.632C284.322 261.693 284.031 261.727 283.738 261.734L283.994 261.222C283.994 261.222 283.38 261.376 282.97 261.376C282.694 261.371 282.42 261.337 282.151 261.274L282.663 260.762L281.998 260.659C281.81 260.567 281.637 260.446 281.486 260.301C281.778 260.262 282.068 260.211 282.356 260.147C283.124 259.942 283.38 259.533 284.353 259.43C284.916 259.43 285.889 259.43 288.244 259.84C289.78 260.096 290.497 259.942 291.06 259.686C291.47 259.533 291.572 259.174 291.623 258.765C291.674 258.355 291.418 258.048 291.214 257.843C291.162 257.843 290.958 257.69 290.65 257.638" stroke="#FEDF00" stroke-width="0.512" stroke-linecap="round"/>
<path d="M269.198 256.307C268.942 256.307 268.737 256.307 268.532 256.461C268.276 256.614 268.225 256.819 268.02 257.024C268.276 257.075 268.43 257.229 268.634 257.178C268.839 257.178 268.89 257.075 269.044 256.922C269.198 256.717 269.249 256.563 269.249 256.307H269.198Z" fill="#FCD900" stroke="#FEDF00" stroke-width="0.256"/>
<path d="M274.932 263.066C275.066 263.473 275.237 263.867 275.444 264.243C275.546 264.653 275.444 264.858 275.546 265.267V266.086M279.028 262.502L278.874 263.168L278.362 264.96V265.318M272.73 263.27C273.191 263.373 273.038 264.96 273.703 265.318" stroke="#FEDF00" stroke-width="0.512" stroke-linecap="round"/>
<path d="M287.271 266.137L287.476 265.984C287.994 265.772 288.464 265.458 288.858 265.062" stroke="#FEDF00" stroke-width="0.512"/>
<path d="M283.329 265.216C285.121 264.755 286.35 263.885 287.22 263.731M285.172 262.963H285.582C286.35 262.81 286.452 263.27 286.964 263.578C287.937 264.09 288.039 264.755 289.166 265.318L289.37 265.37L289.78 265.574" stroke="#FEDF00" stroke-width="0.512" stroke-linecap="round"/>
<path d="M265.562 258.304H265.921L266.331 258.201C266.484 258.201 266.587 258.201 266.689 258.304C266.791 258.304 266.791 258.355 266.843 258.457C266.843 258.56 266.945 258.611 266.894 258.713C266.894 258.816 266.74 258.918 266.587 258.918C266.484 258.918 266.382 258.918 266.331 258.765C266.316 258.732 266.309 258.697 266.309 258.662C266.309 258.627 266.316 258.592 266.331 258.56C266.259 258.596 266.18 258.615 266.1 258.615C266.02 258.615 265.941 258.596 265.87 258.56C265.804 258.54 265.743 258.507 265.69 258.463C265.637 258.419 265.594 258.365 265.562 258.304Z" fill="#FCD900" stroke="#FEDF00" stroke-width="0.256"/>
<path d="M269.351 263.27L268.327 262.81C268.532 262.707 268.686 262.707 268.839 262.554C268.993 262.349 268.993 262.144 269.095 261.888C269.198 261.632 269.198 261.376 269.454 261.171C269.607 261.069 269.863 261.069 270.017 261.12C270.222 261.12 270.427 261.325 270.478 261.478C270.478 261.786 270.375 261.99 270.324 262.246C270.324 262.554 270.171 262.707 270.222 262.963C270.222 263.168 270.324 263.27 270.427 263.475L269.403 263.27H269.351ZM268.839 263.782C268.83 263.723 268.839 263.662 268.864 263.607C268.89 263.552 268.931 263.506 268.982 263.474C269.034 263.443 269.093 263.427 269.154 263.429C269.214 263.431 269.273 263.451 269.322 263.486C269.371 263.521 269.409 263.57 269.43 263.626C269.452 263.683 269.456 263.744 269.443 263.803C269.43 263.862 269.399 263.916 269.356 263.958C269.312 264 269.257 264.028 269.198 264.038C269.153 264.046 269.108 264.043 269.065 264.031C269.021 264.019 268.981 263.998 268.947 263.969C268.912 263.939 268.885 263.903 268.867 263.862C268.848 263.821 268.839 263.776 268.839 263.731V263.782ZM267.969 255.283H267.867C267.662 255.078 267.662 254.874 267.559 254.669C267.477 254.473 267.425 254.266 267.406 254.054V253.03C267.406 252.877 267.406 252.723 267.303 252.57C267.303 252.467 267.099 252.416 267.15 252.365C267.15 252.314 267.303 252.365 267.355 252.365C267.559 252.365 267.662 252.416 267.867 252.57C268.02 252.723 268.123 252.877 268.174 253.082L268.379 253.85L268.532 254.259L268.788 254.566L268.43 254.976L267.969 255.283ZM269.812 260.71L270.939 261.222C271.71 260.758 272.331 260.083 272.731 259.277C273.191 258.355 273.243 257.894 273.447 257.024L272.526 256.768H272.321C272.065 257.69 271.963 258.15 271.502 258.918C271.092 259.584 270.631 260.096 270.171 260.454L269.812 260.71ZM272.372 270.029L272.782 269.363L273.499 268.8H273.703C273.697 269.289 273.611 269.773 273.447 270.234L273.243 270.746L272.987 271.002C272.731 270.592 272.321 270.336 272.321 269.978L272.372 270.029ZM289.268 270.95L289.985 271.258L290.753 271.718V271.974L289.985 272.077C289.764 272.094 289.541 272.094 289.319 272.077H288.807L288.5 271.872C288.756 271.514 288.91 271.053 289.217 270.95H289.268ZM284.251 269.926L284.967 270.182L285.735 270.694C285.735 270.746 285.787 270.848 285.735 270.899C285.285 271.02 284.819 271.072 284.353 271.053L283.841 271.002L283.483 270.848C283.79 270.49 283.943 269.978 284.251 269.926ZM275.342 271.002L276.11 271.258L276.878 271.77V272.026C276.408 272.134 275.925 272.169 275.444 272.128H274.932L274.625 271.923C274.881 271.565 275.035 271.104 275.342 271.002ZM270.734 255.744C270.427 255.59 270.222 255.232 270.427 254.925C270.478 254.822 270.631 254.822 270.734 254.72C270.836 254.566 270.785 254.464 270.734 254.31L270.683 253.798L270.58 253.286C270.58 252.979 270.58 252.774 270.785 252.467C270.887 252.314 271.143 252.16 271.195 252.16C271.297 252.211 271.195 252.416 271.195 252.57C271.195 252.826 271.246 252.928 271.348 253.184L271.707 253.85C271.809 254.157 271.911 254.259 271.911 254.566C271.911 254.822 271.911 254.925 271.809 255.181C271.743 255.341 271.637 255.482 271.502 255.59C271.382 255.689 271.242 255.759 271.092 255.795C270.992 255.824 270.885 255.824 270.785 255.795L270.734 255.744Z" fill="#0065BD"/>
<path d="M269.095 273.203L268.788 273.306L268.378 273.715C268.174 273.92 268.02 273.971 267.764 274.125L267.457 274.381C267.303 274.534 267.457 274.688 267.303 274.893C267.252 275.098 267.15 275.2 266.996 275.405C266.791 275.61 266.638 275.661 266.484 275.917L265.87 276.429L265.716 276.48H265.409C265.204 276.582 265.153 276.787 264.999 276.89L265.153 277.197L265.562 277.914C265.665 278.067 265.665 278.272 265.818 278.323C266.074 278.426 266.279 278.426 266.484 278.374C266.894 278.477 267.15 278.477 267.508 278.63L268.276 279.04C268.532 279.194 268.686 279.245 268.942 279.296H269.863V279.45L270.887 279.962C270.862 280.028 270.845 280.096 270.836 280.166C270.785 280.32 270.734 280.525 270.785 280.576C271.092 281.549 271.399 282.112 271.553 282.214C271.86 282.317 271.962 282.675 272.116 282.982L271.962 283.136C271.655 283.443 271.348 283.648 271.092 284.058C270.734 284.672 270.478 284.672 270.938 285.491L271.706 286.72C271.911 287.078 272.014 287.334 272.116 287.744C272.218 288.102 272.27 288.358 272.27 288.768L272.782 288.922L273.14 288.614L273.447 288V287.488C273.345 287.437 273.294 287.283 273.345 287.13C273.345 286.925 273.601 286.976 273.703 286.822C273.857 286.566 273.498 286.413 273.345 286.259C273.038 285.901 272.628 285.798 272.526 285.286C272.526 285.184 272.526 285.082 272.73 284.928L273.754 284.006C273.857 284.058 274.062 284.109 274.266 284.058L274.932 284.262C275.239 284.365 275.393 284.262 275.546 284.262H275.751L275.802 284.57C275.854 285.082 275.751 286.106 275.905 286.362L276.058 286.669L276.161 286.976V288L276.058 288.87C276.058 289.075 275.956 289.229 275.802 289.382C275.7 289.587 275.495 289.587 275.29 289.741V290.253L275.854 290.509L276.519 290.662L276.878 290.509L276.929 290.202L277.185 289.946C277.39 289.843 277.594 289.946 277.646 289.894C277.748 289.741 277.646 289.69 277.646 289.485C277.646 289.178 277.543 288.973 277.492 288.666C277.418 288.192 277.401 287.71 277.441 287.232C277.441 286.925 277.441 286.72 277.543 286.464C277.594 285.952 277.748 285.747 277.85 285.338C278.004 284.826 278.004 284.518 278.055 284.058C279.782 284.318 281.543 284.213 283.226 283.75C283.636 284.109 284.097 284.365 284.609 284.57V285.082C284.609 285.235 284.609 285.286 284.711 285.44L284.865 285.594C285.018 285.594 285.121 285.594 285.223 285.491C285.326 285.389 285.326 285.286 285.326 285.133V284.774H286.247V285.338C286.298 285.491 286.401 285.542 286.503 285.542C286.551 285.565 286.604 285.577 286.657 285.577C286.71 285.577 286.762 285.565 286.81 285.542C286.964 285.44 286.913 285.235 286.964 285.03V284.672L287.476 284.467C287.49 284.621 287.49 284.775 287.476 284.928L287.322 285.389C287.22 285.696 287.066 285.798 286.913 286.106C286.708 286.413 286.657 286.618 286.401 286.874L286.094 287.232L285.786 287.693L285.326 288.205C284.967 288.512 284.711 288.307 284.302 288.666L284.148 289.178L284.865 289.485L285.53 289.587L285.735 289.485C285.735 289.331 285.735 289.178 285.889 289.075C285.991 288.922 286.094 288.922 286.247 288.87C286.452 288.87 286.657 288.87 286.759 288.768C286.964 288.614 286.964 288.256 287.118 288C287.495 287.241 288.016 286.562 288.654 286.003L289.524 285.286C289.626 285.082 289.78 285.03 289.78 284.774L289.678 284.467L289.575 283.955C290.343 284.314 290.087 284.314 290.19 284.672C290.343 284.979 290.19 285.184 290.241 285.542C290.292 285.952 290.497 286.106 290.497 286.515C290.548 286.976 290.446 287.232 290.343 287.693C290.292 288.102 290.292 288.358 290.087 288.717C289.966 289.016 289.773 289.279 289.524 289.485L289.217 289.741L289.166 290.253L289.729 290.458L290.548 290.662L290.753 290.509C290.855 290.15 290.753 289.638 290.958 289.638C291.162 289.587 291.316 289.638 291.367 289.485V289.126L291.726 286.822L291.93 285.85L292.135 284.979C292.494 283.955 292.033 283.802 291.623 283.136C291.367 282.778 291.265 282.624 291.265 282.368V280.883C291.249 280.405 291.249 279.927 291.265 279.45L291.47 279.347C292.084 278.989 292.34 278.886 292.698 278.067C292.807 277.826 292.86 277.564 292.852 277.299V276.787L292.647 276.275C292.567 276.123 292.463 275.985 292.34 275.866C291.982 275.354 291.47 275.302 290.958 275.098C290.19 274.842 289.678 274.893 288.91 274.842C287.988 274.739 287.527 274.739 286.657 274.842C285.633 274.842 285.07 275.046 284.046 275.2L281.537 275.405C280.359 275.405 279.284 275.149 278.567 275.2C277.338 275.302 277.287 275.61 275.393 275.763C274.745 275.816 274.097 275.85 273.447 275.866L272.321 275.507C272.782 275.354 272.884 275.251 273.089 274.995C273.242 274.79 273.191 274.637 273.396 274.432L273.754 273.92C273.618 273.818 273.461 273.748 273.294 273.715H272.782C272.568 273.723 272.359 273.776 272.167 273.869L271.758 274.176L270.631 273.562C270.151 273.317 269.631 273.161 269.095 273.101V273.203Z" fill="#D52B1E"/>
<path d="M291.726 279.603L291.316 279.757C290.855 279.962 290.497 279.962 289.985 280.013C288.654 280.115 287.783 279.45 286.401 279.552C285.684 279.603 285.377 280.166 284.609 280.371C284.322 280.432 284.031 280.466 283.738 280.474L283.994 279.962C283.994 279.962 283.38 280.115 282.97 280.115C282.694 280.111 282.42 280.076 282.151 280.013L282.663 279.501L281.998 279.398C281.81 279.306 281.637 279.185 281.486 279.04C281.778 279.001 282.068 278.95 282.356 278.886C283.124 278.682 283.38 278.272 284.353 278.17C284.916 278.17 285.889 278.17 288.244 278.579C289.78 278.835 290.497 278.682 291.06 278.426C291.47 278.272 291.572 277.914 291.623 277.504C291.674 277.094 291.418 276.787 291.214 276.582C291.162 276.582 290.958 276.429 290.65 276.378" stroke="#FEDF00" stroke-width="0.512" stroke-linecap="round"/>
<path d="M269.198 275.046C268.942 275.046 268.737 275.046 268.532 275.2C268.276 275.354 268.225 275.558 268.02 275.763C268.276 275.814 268.43 275.968 268.634 275.917C268.839 275.917 268.89 275.814 269.044 275.661C269.198 275.456 269.249 275.302 269.249 275.046H269.198Z" fill="#FCD900" stroke="#FEDF00" stroke-width="0.256"/>
<path d="M274.932 281.805C275.066 282.212 275.237 282.607 275.444 282.982C275.546 283.392 275.444 283.597 275.546 284.006V284.826M279.028 281.242L278.874 281.907L278.362 283.699V284.058M272.73 282.01C273.191 282.112 273.038 283.699 273.703 284.058" stroke="#FEDF00" stroke-width="0.512" stroke-linecap="round"/>
<path d="M287.271 284.877L287.476 284.723C287.994 284.511 288.464 284.198 288.858 283.802" stroke="#FEDF00" stroke-width="0.512"/>
<path d="M283.329 283.955C285.121 283.494 286.35 282.624 287.22 282.47M285.172 281.702H285.582C286.35 281.549 286.452 282.01 286.964 282.317C287.937 282.829 288.039 283.494 289.166 284.058L289.37 284.109L289.78 284.314" stroke="#FEDF00" stroke-width="0.512" stroke-linecap="round"/>
<path d="M265.562 277.043H265.921L266.331 276.941C266.484 276.941 266.587 276.941 266.689 277.043C266.791 277.043 266.791 277.094 266.843 277.197C266.843 277.299 266.945 277.35 266.894 277.453C266.894 277.555 266.74 277.657 266.587 277.657C266.484 277.657 266.382 277.657 266.331 277.504C266.316 277.472 266.309 277.437 266.309 277.401C266.309 277.366 266.316 277.331 266.331 277.299C266.259 277.335 266.18 277.354 266.1 277.354C266.02 277.354 265.941 277.335 265.87 277.299C265.804 277.279 265.743 277.246 265.69 277.202C265.637 277.158 265.594 277.104 265.562 277.043Z" fill="#FCD900" stroke="#FEDF00" stroke-width="0.256"/>
<path d="M269.351 282.01L268.327 281.549C268.532 281.446 268.686 281.446 268.839 281.293C268.993 281.088 268.993 280.883 269.095 280.627C269.198 280.371 269.198 280.115 269.454 279.91C269.607 279.808 269.863 279.808 270.017 279.859C270.222 279.859 270.427 280.064 270.478 280.218C270.478 280.525 270.375 280.73 270.324 280.986C270.324 281.293 270.171 281.446 270.222 281.702C270.222 281.907 270.324 282.01 270.427 282.214L269.403 282.01H269.351ZM268.839 282.522C268.83 282.462 268.839 282.401 268.864 282.346C268.89 282.291 268.931 282.245 268.982 282.214C269.034 282.182 269.093 282.166 269.154 282.168C269.214 282.17 269.273 282.19 269.322 282.225C269.371 282.26 269.409 282.309 269.43 282.366C269.452 282.422 269.456 282.484 269.443 282.542C269.43 282.601 269.399 282.655 269.356 282.697C269.312 282.739 269.257 282.767 269.198 282.778C269.153 282.785 269.108 282.783 269.065 282.771C269.021 282.759 268.981 282.737 268.947 282.708C268.912 282.679 268.885 282.642 268.867 282.601C268.848 282.56 268.839 282.515 268.839 282.47V282.522ZM267.969 274.022H267.867C267.662 273.818 267.662 273.613 267.559 273.408C267.477 273.212 267.425 273.005 267.406 272.794V271.77C267.406 271.616 267.406 271.462 267.303 271.309C267.303 271.206 267.099 271.155 267.15 271.104C267.15 271.053 267.303 271.104 267.355 271.104C267.559 271.104 267.662 271.155 267.867 271.309C268.02 271.462 268.123 271.616 268.174 271.821L268.379 272.589L268.532 272.998L268.788 273.306L268.43 273.715L267.969 274.022ZM269.812 279.45L270.939 279.962C271.71 279.498 272.331 278.822 272.731 278.016C273.191 277.094 273.243 276.634 273.447 275.763L272.526 275.507H272.321C272.065 276.429 271.963 276.89 271.502 277.658C271.092 278.323 270.631 278.835 270.171 279.194L269.812 279.45ZM272.372 288.768L272.782 288.102L273.499 287.539H273.703C273.697 288.028 273.611 288.512 273.447 288.973L273.243 289.485L272.987 289.741C272.731 289.331 272.321 289.075 272.321 288.717L272.372 288.768ZM289.268 289.69L289.985 289.997L290.753 290.458V290.714L289.985 290.816C289.764 290.833 289.541 290.833 289.319 290.816H288.807L288.5 290.611C288.756 290.253 288.91 289.792 289.217 289.69H289.268ZM284.251 288.666L284.967 288.922L285.735 289.434C285.735 289.485 285.787 289.587 285.735 289.638C285.285 289.759 284.819 289.811 284.353 289.792L283.841 289.741L283.483 289.587C283.79 289.229 283.943 288.717 284.251 288.666ZM275.342 289.741L276.11 289.997L276.878 290.509V290.765C276.408 290.874 275.925 290.908 275.444 290.867H274.932L274.625 290.662C274.881 290.304 275.035 289.843 275.342 289.741ZM270.734 274.483C270.427 274.33 270.222 273.971 270.427 273.664C270.478 273.562 270.631 273.562 270.734 273.459C270.836 273.306 270.785 273.203 270.734 273.05L270.683 272.538L270.58 272.026C270.58 271.718 270.58 271.514 270.785 271.206C270.887 271.053 271.143 270.899 271.195 270.899C271.297 270.95 271.195 271.155 271.195 271.309C271.195 271.565 271.246 271.667 271.348 271.923L271.707 272.589C271.809 272.896 271.911 272.998 271.911 273.306C271.911 273.562 271.911 273.664 271.809 273.92C271.743 274.08 271.637 274.221 271.502 274.33C271.382 274.428 271.242 274.498 271.092 274.534C270.992 274.563 270.885 274.563 270.785 274.534L270.734 274.483Z" fill="#0065BD"/>
<path d="M211.8 204.4H253.8V246.4H211.8V204.4ZM258.3 204.4H300.5V246.4H258.5L258.3 204.4ZM211.9 282.8C212.1 283.6 212.3 284.8 213 286.2C213.8 287.4 213.5 287.4 215.2 289.2C217.052 291.004 219.374 292.251 221.9 292.8C225.3 293.8 227.6 293.8 230.4 293.7C232.6 293.6 234.3 293.3 235.7 293.1C237.7 292.9 239.1 292.7 241.4 292.6C242.433 292.55 243.467 292.55 244.5 292.6C245.7 292.6 246.9 292.9 248.2 293.1C251 293.7 253.8 294.8 253.8 294.8V250.9H211.8V280.9L211.9 282.9V282.8ZM300.3 282.8C300.2 283.6 299.9 284.8 299.2 286.2C298.4 287.4 298.7 287.4 297 289.2C295.148 291.004 292.826 292.251 290.3 292.8C287.535 293.565 284.664 293.869 281.8 293.7C279.6 293.6 277.9 293.3 276.5 293.1C274.643 292.839 272.774 292.672 270.9 292.6C269.834 292.547 268.766 292.547 267.7 292.6C266.5 292.6 265.3 292.9 264 293.1C261.2 293.7 258.3 294.8 258.3 294.8V250.9H300.5V280.9L300.4 282.9L300.3 282.8Z" stroke="#703D29" stroke-width="0.4"/>
</g>
<defs>
<clipPath id="clip0_103_1001">
<rect width="512" height="512" fill="white" transform="translate(0.5)"/>
</clipPath>
</defs>
</svg>
