<svg width="513" height="512" viewBox="0 0 513 512" fill="none" xmlns="http://www.w3.org/2000/svg">
<g clip-path="url(#clip0_103_1162)">
<path fill-rule="evenodd" clip-rule="evenodd" d="M0.5 0H512.5V512H0.5V0Z" fill="black"/>
<path fill-rule="evenodd" clip-rule="evenodd" d="M341.8 0H512.5V512H341.8V0Z" fill="#009900"/>
<path fill-rule="evenodd" clip-rule="evenodd" d="M171.2 0H341.8V512H171.2V0Z" fill="#BF0000"/>
<path fill-rule="evenodd" clip-rule="evenodd" d="M273.032 277.852H280.055C280.055 280.559 281.747 283.436 283.862 285.043H270.325C272.44 283.182 273.032 280.813 273.032 277.852Z" fill="white" stroke="#BD6B00" stroke-width="0.423055"/>
<path fill-rule="evenodd" clip-rule="evenodd" d="M228.358 237.831L232.25 242.061L280.478 242.23L284.37 238L272.017 237.746L266.094 233.515H246.633L241.049 237.831H228.358Z" fill="white"/>
<path fill-rule="evenodd" clip-rule="evenodd" d="M248.072 232.923H264.74C266.94 231.739 267.702 227.931 267.702 225.816C267.702 219.555 263.217 216.509 258.817 216.339C258.141 216.339 257.379 215.832 257.21 215.239C256.787 213.886 256.871 212.955 256.364 213.04C256.025 213.04 256.11 213.886 255.771 215.07C255.518 215.747 254.841 216.339 254.079 216.424C248.664 216.678 245.11 220.655 245.195 225.816C245.28 229.2 245.703 231.231 248.072 232.923Z" fill="white" stroke="#BD6B00" stroke-width="0.423055"/>
<path fill-rule="evenodd" clip-rule="evenodd" d="M220.743 292.235H292.07L285.724 287.074H227.004L220.658 292.235H220.743Z" fill="white"/>
<path fill-rule="evenodd" clip-rule="evenodd" d="M253.487 272.69L254.756 276.583H257.718L255.348 272.69H253.487ZM251.795 276.583L252.641 280.475H256.025L254.756 276.583H251.795ZM257.718 276.583L260.087 280.475H265.079L261.187 276.583H257.718ZM228.527 285.382C231.15 282.928 232.842 280.898 232.842 277.936H239.272C239.272 279.629 239.865 280.559 240.795 280.475H247.31V276.667H242.572V255.768C242.403 248.322 251.541 244.092 255.264 244.092H233.011V243.415H279.801V244.092H257.379C264.063 244.092 270.494 250.438 270.578 255.768V261.691H269.732L269.648 255.853C269.648 250.015 262.287 244.6 256.364 244.769C251.287 244.853 243.334 249.761 243.418 255.768V257.63L255.518 257.714L255.433 259.83L257.294 261.014L261.102 262.199V265.414L263.81 266.175V269.306L267.025 270.744V273.96L269.14 275.229L269.055 278.529L271.848 280.475H265.248L269.394 285.128H263.217L260.171 280.475H256.195L257.971 285.044H253.741L252.641 280.475H247.395V285.382H228.611H228.527ZM247.31 272.69V276.583H251.795L250.949 272.69H247.226H247.31Z" fill="white"/>
<path d="M254.756 276.583L253.487 272.69H255.348L257.718 276.583M254.756 276.583H257.718M254.756 276.583L256.025 280.475H252.641M254.756 276.583H251.795M257.718 276.583L260.087 280.475H265.079L261.187 276.583H257.718ZM251.795 276.583L252.641 280.475M251.795 276.583H247.31V272.69H247.226H250.949L251.795 276.583ZM252.641 280.475L253.741 285.044H257.971L256.195 280.475H260.171L263.217 285.128H269.394L265.248 280.475H271.848L269.055 278.529L269.14 275.229L267.025 273.96V270.744L263.81 269.306V266.175L261.102 265.414V262.199L257.294 261.014L255.433 259.83L255.518 257.714L243.418 257.63V255.768C243.334 249.761 251.287 244.853 256.364 244.769C262.287 244.6 269.648 250.015 269.648 255.853L269.732 261.691H270.578V255.768C270.494 250.438 264.063 244.092 257.379 244.092H279.801V243.415H233.011V244.092H255.264C251.541 244.092 242.403 248.322 242.572 255.768V276.667H247.31V280.475H240.795C239.865 280.559 239.272 279.629 239.272 277.936H232.842C232.842 280.898 231.15 282.928 228.527 285.382H228.611H247.395V280.475H252.641Z" stroke="#BD6B00" stroke-width="0.423055"/>
<path fill-rule="evenodd" clip-rule="evenodd" d="M247.564 265.921H250.356V272.352H247.564V265.921Z" stroke="#BD6B00" stroke-width="0.423055"/>
<path fill-rule="evenodd" clip-rule="evenodd" d="M243.588 272.775H246.295V268.037C246.295 266.006 248.157 263.891 249.003 263.806C250.018 263.806 251.456 265.752 251.541 267.868V272.775H254.418V260.591H243.588V272.775ZM265.248 275.567H268.632V278.275H265.248V275.567ZM263.217 271.083H266.602V273.706H263.217V271.083ZM259.917 266.514H263.302V269.137H259.917V266.514ZM257.125 262.706H260.51V265.329H257.125V262.706Z" stroke="#BD6B00" stroke-width="0.423055"/>
<path fill-rule="evenodd" clip-rule="evenodd" d="M254.841 272.775L258.394 272.944L264.571 278.359V275.144L262.456 273.621V271.083L259.41 269.39V266.598L256.448 265.583V261.945L255.01 260.676L254.925 272.86L254.841 272.775Z" stroke="#BD6B00" stroke-width="0.423055"/>
<path fill-rule="evenodd" clip-rule="evenodd" d="M269.563 264.737H270.409V270.744H269.563V264.737Z" fill="white" stroke="#BD6B00" stroke-width="0.423055"/>
<path fill-rule="evenodd" clip-rule="evenodd" d="M220.404 244.6C219.389 242.907 218.12 246.969 213.804 249.93C211.858 251.284 210.42 254.922 210.42 257.291C210.42 258.983 210.589 260.591 210.42 262.199C210.335 263.129 209.235 265.414 209.997 266.006C211.858 267.36 214.312 270.575 215.412 271.675C216.427 272.521 217.273 267.191 217.95 264.906C218.796 262.368 218.458 259.237 220.658 256.953C222.181 255.26 226.073 253.737 225.735 253.061L220.404 244.6Z" fill="white" stroke="#BD6B00" stroke-width="0.423055"/>
<path fill-rule="evenodd" clip-rule="evenodd" d="M220.15 257.63C219.814 256.831 219.358 256.09 218.797 255.43C218.257 254.761 217.559 254.238 216.766 253.907C215.986 253.676 215.285 253.237 214.735 252.638C214.411 252.275 214.179 251.84 214.058 251.368C213.962 250.809 213.962 250.236 214.058 249.676L213.804 249.93C211.858 251.284 210.42 254.922 210.42 257.291C210.394 257.94 210.394 258.589 210.42 259.237C210.589 259.66 210.674 260.083 210.928 260.337L211.858 261.014L214.143 261.606C214.998 261.991 215.752 262.571 216.343 263.299C216.959 263.951 217.472 264.693 217.866 265.499L218.035 264.822C218.712 262.537 218.627 259.83 220.235 257.63H220.15Z" fill="#BF0000" stroke="#BD6B00" stroke-width="0.423055"/>
<path d="M214.058 249.592C213.635 252.384 215.243 253.399 216.766 253.907C218.289 254.499 219.558 256.107 220.15 257.63M210.251 258.899C210.928 261.437 212.62 261.099 214.143 261.606C215.666 262.199 217.273 264.145 217.95 265.668" stroke="#BD6B00" stroke-width="0.423055"/>
<path fill-rule="evenodd" clip-rule="evenodd" d="M218.966 242.907L219.812 242.4L234.788 267.698L233.942 268.206L218.966 242.823V242.907Z" fill="white" stroke="#BD6B00" stroke-width="0.423055"/>
<path fill-rule="evenodd" clip-rule="evenodd" d="M220.573 241.892C220.573 242.341 220.395 242.771 220.078 243.089C219.76 243.406 219.33 243.584 218.881 243.584C218.432 243.584 218.002 243.406 217.684 243.089C217.367 242.771 217.189 242.341 217.189 241.892C217.189 241.443 217.367 241.013 217.684 240.695C218.002 240.378 218.432 240.2 218.881 240.2C219.33 240.2 219.76 240.378 220.078 240.695C220.395 241.013 220.573 241.443 220.573 241.892ZM233.434 221.585H239.526V222.939H233.434V221.585ZM233.434 224.208H239.526V235.885H233.434V224.208ZM233.096 219.978H239.865C240.034 217.693 237.749 215.24 236.48 215.24C235.126 215.324 233.011 217.778 233.096 219.978Z" fill="white" stroke="#BD6B00" stroke-width="0.423055"/>
<path fill-rule="evenodd" clip-rule="evenodd" d="M250.272 218.624C249.003 219.132 247.987 220.57 247.395 222.262C246.803 223.954 246.549 225.901 246.887 227.424C246.887 228.016 247.141 228.354 247.31 228.693C247.48 228.947 247.649 229.116 247.818 229.116C248.072 229.116 248.326 229.116 248.41 228.862L248.58 228.185C248.495 226.493 248.495 224.97 248.833 223.616C249.21 222.113 250.11 220.793 251.372 219.893C251.626 219.724 251.71 219.47 251.795 219.301C251.792 219.078 251.7 218.865 251.541 218.709C251.202 218.455 250.695 218.37 250.272 218.624ZM250.441 218.962C250.779 218.793 251.118 218.962 251.287 219.047L251.372 219.216C251.372 219.301 251.372 219.385 251.118 219.555C249.818 220.508 248.891 221.884 248.495 223.447C248.144 225.001 248.058 226.603 248.241 228.185C248.241 228.368 248.182 228.546 248.072 228.693C248.072 228.693 248.072 228.777 247.903 228.693C247.903 228.693 247.733 228.693 247.564 228.439C247.397 228.121 247.283 227.778 247.226 227.424C246.972 225.901 247.226 224.039 247.818 222.347C248.41 220.824 249.341 219.47 250.356 218.962H250.441Z" fill="#BD6B00"/>
<path fill-rule="evenodd" clip-rule="evenodd" d="M252.472 220.232C251.202 220.824 250.356 222.178 249.933 223.785C249.484 225.411 249.397 227.115 249.679 228.777C249.849 229.877 250.526 230.47 251.033 230.47C251.287 230.554 251.541 230.47 251.71 230.216C251.879 229.962 251.964 229.708 251.879 229.37C251.541 228.016 251.456 226.493 251.626 225.054C251.879 223.616 252.472 222.347 253.487 221.585C253.741 221.332 253.91 221.162 253.91 220.908C253.918 220.817 253.907 220.725 253.878 220.637C253.849 220.55 253.802 220.469 253.741 220.401C253.402 220.147 252.895 220.062 252.472 220.232ZM252.641 220.655C252.979 220.485 253.318 220.57 253.487 220.655L253.572 220.908L253.318 221.247C252.75 221.702 252.278 222.266 251.929 222.905C251.581 223.544 251.362 224.246 251.287 224.97C251.033 226.493 251.202 228.1 251.456 229.37C251.541 229.708 251.456 229.877 251.456 230.046L251.033 230.131C250.779 230.131 250.187 229.708 250.018 228.693C249.764 227.254 249.849 225.393 250.272 223.87C250.695 222.347 251.541 221.078 252.641 220.655Z" fill="#BD6B00"/>
<path fill-rule="evenodd" clip-rule="evenodd" d="M233.096 245.361H239.865V254.668H233.096V245.361ZM233.519 260.083H240.034V262.114H233.519V260.083ZM233.35 263.552H240.118V270.914H233.35V263.552ZM232.842 272.437H240.203V276.583H232.842V272.437ZM233.773 258.391H239.695L240.88 256.361H232.757L233.773 258.391ZM241.726 251.115L241.811 246.038H245.872C244.126 247.397 242.709 249.132 241.726 251.115Z" fill="white" stroke="#BD6B00" stroke-width="0.423055"/>
<path fill-rule="evenodd" clip-rule="evenodd" d="M234.196 253.23C234.196 254.33 235.465 253.907 235.465 253.315V248.576C235.465 247.73 237.496 247.9 237.496 248.492V253.568C237.496 254.415 238.934 254.33 238.849 253.568V247.646C238.849 245.784 234.196 245.869 234.196 247.561V253.23ZM234.196 264.483H239.018V270.406H234.196V264.483Z" stroke="#BD6B00" stroke-width="0.423055"/>
<path fill-rule="evenodd" clip-rule="evenodd" d="M237.242 267.022H238.934V267.868H237.242V267.022ZM234.28 267.022H235.973V267.868H234.28V267.022ZM235.973 264.483H237.242V267.022H235.973V264.483ZM235.973 267.868H237.242V270.491H235.973V267.868ZM209.151 204.409C209.489 209.063 207.966 211.686 205.513 211.263C204.836 208.725 206.359 206.948 209.151 204.409ZM203.651 214.817C201.451 213.717 203.059 205.086 203.905 201.448C204.497 206.102 205.597 212.701 203.651 214.817Z" fill="white"/>
<path d="M237.242 267.022H238.934V267.868H237.242M237.242 267.022V267.868M237.242 267.022V264.483H235.973V267.022M237.242 267.022H235.973M237.242 267.868H235.973M237.242 267.868V270.491H235.973V267.868M235.973 267.022H234.28V267.868H235.973M235.973 267.022V267.868M209.151 204.409C209.489 209.063 207.966 211.686 205.513 211.263C204.836 208.725 206.359 206.948 209.151 204.409ZM203.651 214.817C201.451 213.717 203.059 205.086 203.905 201.448C204.497 206.102 205.597 212.701 203.651 214.817Z" stroke="#BD6B00" stroke-width="0.423055"/>
<path fill-rule="evenodd" clip-rule="evenodd" d="M204.413 215.24C208.135 216.509 211.181 212.532 212.112 207.879C209.066 212.109 204.074 212.109 204.497 215.24H204.413ZM201.62 219.555C198.744 218.793 200.436 209.655 201.028 206.017C201.62 209.825 203.651 218.286 201.62 219.555ZM202.636 219.301C202.805 216.17 205.936 217.017 208.135 215.324C207.712 217.017 206.443 219.724 202.636 219.301ZM199.082 223.532C196.205 222.685 197.898 212.871 197.728 208.809C198.574 212.363 201.282 222.601 199.082 223.532ZM200.436 223.109C202.805 223.87 205.936 222.262 206.189 219.47C204.074 220.909 200.859 219.809 200.436 223.109Z" fill="white" stroke="#BD6B00" stroke-width="0.423055"/>
<path fill-rule="evenodd" clip-rule="evenodd" d="M196.882 227.847C194.175 228.1 195.359 219.724 195.359 211.94C196.375 219.216 199.167 225.901 196.882 227.847Z" fill="white" stroke="#BD6B00" stroke-width="0.423055"/>
<path fill-rule="evenodd" clip-rule="evenodd" d="M197.898 227.508C199.759 228.354 203.059 226.916 203.99 223.785C200.605 225.224 198.405 223.785 197.898 227.508ZM219.558 208.725C219.05 212.871 217.358 215.24 214.904 214.817C214.228 212.278 216.258 210.586 219.558 208.725ZM212.958 219.216C217.104 219.809 218.543 216.678 221.419 212.532C217.443 215.409 212.789 215.917 212.958 219.301V219.216Z" fill="white" stroke="#BD6B00" stroke-width="0.423055"/>
<path fill-rule="evenodd" clip-rule="evenodd" d="M211.689 218.793C209.489 216.086 211.689 212.617 213.381 209.74C213.043 214.055 214.481 216.509 211.689 218.793ZM210.843 223.278C210.505 220.57 215.074 219.978 217.104 218.54C216.343 220.063 215.412 224.208 210.758 223.278H210.843Z" fill="white" stroke="#BD6B00" stroke-width="0.423055"/>
<path fill-rule="evenodd" clip-rule="evenodd" d="M209.828 223.278C206.697 222.939 207.966 217.609 210.251 214.732C209.32 218.793 211.943 221.585 209.828 223.278Z" fill="white" stroke="#BD6B00" stroke-width="0.423055"/>
<path fill-rule="evenodd" clip-rule="evenodd" d="M207.459 227.762C203.905 226.07 206.189 221.67 207.459 219.047C206.951 222.516 209.828 225.139 207.459 227.677V227.762Z" fill="white" stroke="#BD6B00" stroke-width="0.423055"/>
<path fill-rule="evenodd" clip-rule="evenodd" d="M208.135 227.254C209.997 229.793 213.635 226.577 214.397 222.854C211.266 225.477 208.897 225.054 208.135 227.339V227.254ZM200.013 244.43C199.674 240.792 202.382 234.277 200.436 230.723C200.182 230.216 201.028 228.946 201.62 229.708C202.467 230.977 203.313 234.531 203.736 233.177C204.074 231.739 204.159 229.285 205.428 228.777C206.274 228.523 207.374 228.27 207.036 229.623C206.697 230.808 206.02 232.5 206.782 232.585C207.205 232.585 208.474 230.893 209.574 230.046C210.42 229.37 211.774 230.554 210.42 231.569C206.359 234.954 202.382 236.561 200.013 244.43ZM192.652 299.004C192.144 299.004 191.552 298.751 192.144 299.512C196.967 305.435 198.321 307.127 205.343 306.281C212.366 305.35 214.058 303.404 219.05 300.612C220.496 299.852 222.077 299.385 223.704 299.24C225.33 299.095 226.97 299.274 228.527 299.766C229.88 300.189 230.727 300.189 229.711 299.174C228.696 298.243 227.596 296.889 226.327 295.958C223.17 293.847 219.324 293.029 215.581 293.674C210.505 294.52 206.189 297.82 201.028 299.089C198.264 299.647 195.416 299.647 192.652 299.089V299.004ZM233.096 309.581C233.942 309.75 234.534 311.442 235.042 310.342C235.719 308.396 235.211 306.958 234.365 307.042C233.35 307.296 231.742 309.581 233.096 309.581Z" fill="white" stroke="#BD6B00" stroke-width="0.423055"/>
<path fill-rule="evenodd" clip-rule="evenodd" d="M189.352 241.638C188.336 240.454 188.59 240.115 190.198 240.031C191.382 240.031 193.752 240.877 194.682 240.115C195.528 239.523 195.105 236.985 195.528 235.885C195.698 235.123 196.121 234.192 197.221 235.715C200.267 240.623 203.99 246.546 205.682 252.299C206.528 255.514 205.682 260.591 202.805 263.975C202.805 261.099 201.79 259.153 200.52 256.699C198.828 253.568 192.821 244.853 189.352 241.554V241.638Z" fill="white"/>
<path fill-rule="evenodd" clip-rule="evenodd" d="M201.959 267.36C205.343 267.36 205.936 262.876 205.936 261.606C204.243 261.945 201.367 264.737 201.959 267.36ZM231.15 311.273C233.519 311.781 233.434 306.027 230.98 303.574C232.08 307.296 229.288 310.681 231.065 311.188L231.15 311.273ZM230.134 311.188C230.304 313.896 223.365 310.85 221.673 308.65C225.735 310.427 229.965 308.989 230.134 311.188ZM227.173 307.296C227.427 309.919 221.25 307.55 219.304 305.52C223.45 306.873 226.919 305.096 227.173 307.212V307.296ZM228.273 307.635C230.727 308.227 230.304 302.22 227.935 300.189C229.119 304.166 226.412 307.043 228.273 307.635ZM225.735 303.997C228.188 304.589 226.75 299.428 224.973 297.397C225.312 301.12 224.127 303.743 225.819 303.997H225.735ZM224.465 303.997C224.719 306.704 219.896 304.673 218.035 302.05C222.096 303.32 224.212 301.797 224.465 303.997ZM223.196 301.881C224.719 300.781 223.112 297.82 220.066 297.989C220.404 299.766 221.419 302.981 223.196 301.881ZM235.042 314.319C235.126 317.027 228.273 315.673 226.073 312.796C230.473 313.642 234.788 312.119 234.957 314.319H235.042ZM207.628 309.412C207.882 312.119 200.351 309.073 198.49 306.535C202.467 307.889 207.374 307.212 207.628 309.412ZM212.197 310.512C213.804 309.412 210.589 306.535 207.966 305.858C208.305 307.635 210.505 311.612 212.197 310.596V310.512ZM212.705 312.458C212.874 314.911 204.666 313.558 202.551 311.273C209.574 312.542 212.451 310.342 212.705 312.458Z" fill="white" stroke="#BD6B00" stroke-width="0.423055"/>
<path fill-rule="evenodd" clip-rule="evenodd" d="M216.597 314.065C217.443 316.35 209.574 315.757 206.782 314.488C211.266 314.488 215.92 312.458 216.597 314.065Z" fill="white" stroke="#BD6B00" stroke-width="0.423055"/>
<path fill-rule="evenodd" clip-rule="evenodd" d="M220.235 315.758C221.081 317.788 213.804 317.788 210.251 316.604C214.989 316.604 219.389 313.727 220.235 315.758ZM225.565 316.857C226.919 319.311 219.135 319.48 216.681 318.296C221.081 317.704 224.465 314.911 225.565 316.857ZM216.512 312.712C214.058 314.235 214.227 309.666 212.281 306.535C215.327 309.327 218.204 311.273 216.512 312.712Z" fill="white" stroke="#BD6B00" stroke-width="0.423055"/>
<path fill-rule="evenodd" clip-rule="evenodd" d="M220.912 314.404C218.881 316.18 217.189 309.919 215.327 306.366C218.373 309.75 222.773 312.881 220.912 314.319V314.404ZM226.665 316.096C224.973 318.127 219.896 310.173 218.035 305.943C220.827 309.242 228.019 314.404 226.665 316.096ZM221.758 322.188C220.912 325.234 208.051 319.311 206.528 316.18C213.974 320.073 221.927 319.226 221.758 322.103V322.188ZM180.552 259.745C180.214 259.322 179.368 259.745 179.537 260.676C179.791 261.945 181.652 268.46 184.868 270.66C187.152 272.352 199.251 274.975 204.666 276.159C207.712 276.752 210.166 278.275 212.197 280.644C211.502 277.836 210.654 275.068 209.659 272.352C208.643 269.814 205.936 267.106 203.059 267.021C197.898 266.768 191.129 266.345 186.137 264.229C183.876 263.276 181.916 261.726 180.468 259.745H180.552Z" fill="white" stroke="#BD6B00" stroke-width="0.423055"/>
<path fill-rule="evenodd" clip-rule="evenodd" d="M210.42 285.551C212.112 286.736 213.889 282.421 211.858 278.275C211.774 282.252 208.643 283.605 210.42 285.551Z" fill="white" stroke="#BD6B00" stroke-width="0.423055"/>
<path fill-rule="evenodd" clip-rule="evenodd" d="M212.028 289.528C214.312 290.205 214.989 286.144 213.551 282.928C213.804 286.398 209.912 288.513 212.028 289.528Z" fill="white" stroke="#BD6B00" stroke-width="0.423055"/>
<path fill-rule="evenodd" clip-rule="evenodd" d="M213.804 292.743C216.004 293.843 216.766 289.697 215.243 286.736C215.412 290.543 212.112 291.728 213.804 292.659V292.743Z" fill="white" stroke="#BD6B00" stroke-width="0.423055"/>
<path fill-rule="evenodd" clip-rule="evenodd" d="M212.874 292.997C212.028 295.535 206.951 290.713 206.105 288.09C209.235 291.22 213.466 290.797 212.874 292.912V292.997Z" fill="white" stroke="#BD6B00" stroke-width="0.423055"/>
<path fill-rule="evenodd" clip-rule="evenodd" d="M210.589 289.02C209.574 291.559 203.228 284.79 201.79 281.659C204.92 284.79 211.266 287.159 210.589 288.936V289.02Z" fill="white" stroke="#BD6B00" stroke-width="0.423055"/>
<path fill-rule="evenodd" clip-rule="evenodd" d="M209.32 285.044C208.305 288.005 201.451 280.136 199.421 277.344C202.805 280.39 210.082 282.928 209.32 285.044ZM209.066 282.167C211.605 281.659 208.982 279.628 205.936 276.329C205.851 279.798 206.359 282.251 209.066 282.167Z" fill="white" stroke="#BD6B00" stroke-width="0.423055"/>
<path fill-rule="evenodd" clip-rule="evenodd" d="M204.92 280.136C206.02 279.036 203.99 278.529 201.451 275.652C201.028 277.598 203.82 281.151 205.005 280.136H204.92ZM216.766 292.997C218.12 293.843 218.966 291.051 217.358 288.597C216.935 291.305 215.581 291.982 216.766 292.997ZM187.829 275.821C185.037 277.513 180.552 270.744 179.368 267.952C181.822 271.167 188.337 274.044 187.829 275.821Z" fill="white" stroke="#BD6B00" stroke-width="0.423055"/>
<path fill-rule="evenodd" clip-rule="evenodd" d="M190.283 279.713C188.675 281.405 183.768 276.752 182.075 274.383C184.614 276.667 190.959 276.921 190.283 279.713Z" fill="white" stroke="#BD6B00" stroke-width="0.423055"/>
<path fill-rule="evenodd" clip-rule="evenodd" d="M192.905 283.267C192.398 285.636 185.29 280.305 183.598 277.767C186.644 280.728 193.413 280.475 192.905 283.267Z" fill="white" stroke="#BD6B00" stroke-width="0.423055"/>
<path fill-rule="evenodd" clip-rule="evenodd" d="M191.806 285.89C190.706 288.005 184.867 282.675 183.429 279.967C187.067 283.013 192.736 283.774 191.89 285.89H191.806ZM188.844 275.483C190.621 273.537 189.86 272.606 188.506 269.56C187.829 272.69 186.729 273.96 188.844 275.483ZM191.298 279.121C194.682 279.29 191.298 275.229 190.452 271.76C190.79 275.652 189.606 278.782 191.298 279.121Z" fill="white" stroke="#BD6B00" stroke-width="0.423055"/>
<path fill-rule="evenodd" clip-rule="evenodd" d="M193.413 282.336C195.698 281.829 195.105 278.529 193.244 274.552C193.667 278.867 191.298 281.321 193.413 282.336ZM192.567 288.851C191.721 291.39 185.121 285.467 184.106 283.098C187.49 285.974 193.159 286.905 192.567 288.851Z" fill="white" stroke="#BD6B00" stroke-width="0.423055"/>
<path fill-rule="evenodd" clip-rule="evenodd" d="M196.544 292.912C195.613 295.451 188.675 290.205 186.56 287.328C190.706 290.713 197.051 290.374 196.544 292.912Z" fill="white" stroke="#BD6B00" stroke-width="0.423055"/>
<path fill-rule="evenodd" clip-rule="evenodd" d="M200.605 297.058C199.505 300.697 192.229 294.859 190.113 291.982C194.682 295.535 201.113 294.52 200.605 297.058ZM193.836 287.751C195.782 288.682 196.544 283.182 195.444 279.206C195.444 283.436 191.467 286.651 193.752 287.667L193.836 287.751Z" fill="white" stroke="#BD6B00" stroke-width="0.423055"/>
<path fill-rule="evenodd" clip-rule="evenodd" d="M197.136 292.151C199.505 292.828 198.828 286.821 196.713 282.844C196.459 286.821 194.767 290.459 197.136 292.151ZM201.367 296.297C203.905 296.382 202.213 291.136 200.013 288.174C200.351 291.982 199.167 295.789 201.367 296.297ZM196.713 298.497C195.867 299.851 194.006 297.397 190.79 295.536C193.667 296.382 197.051 297.228 196.713 298.497ZM195.19 253.907C197.728 252.045 195.782 248.661 195.19 245.446C194.344 248.492 192.313 252.553 195.19 253.907ZM195.19 258.391C191.383 257.968 191.975 253.23 191.806 250.184C192.99 254.33 196.036 255.007 195.19 258.476V258.391ZM195.698 257.799C198.828 257.63 198.659 254.076 198.828 250.522C197.221 253.822 195.444 254.33 195.698 257.799Z" fill="white" stroke="#BD6B00" stroke-width="0.423055"/>
<path fill-rule="evenodd" clip-rule="evenodd" d="M195.613 262.199C193.075 262.452 191.89 259.999 191.383 256.276C193.667 259.745 195.698 258.645 195.613 262.199ZM196.459 261.945C199.59 262.368 198.998 258.73 198.998 256.022C197.982 258.56 195.444 259.406 196.459 261.945Z" fill="white" stroke="#BD6B00" stroke-width="0.423055"/>
<path fill-rule="evenodd" clip-rule="evenodd" d="M191.552 260.422C191.806 262.791 193.329 266.852 195.782 265.922C196.713 263.045 193.582 262.453 191.552 260.422Z" fill="white" stroke="#BD6B00" stroke-width="0.423055"/>
<path fill-rule="evenodd" clip-rule="evenodd" d="M196.459 266.175C195.444 264.145 198.997 263.045 199.674 260.337C200.097 264.229 199.759 266.768 196.459 266.26V266.175ZM186.39 241.469C188.336 239.438 186.644 236.054 186.052 232.839C185.206 235.885 183.937 239.946 186.39 241.469ZM186.39 245.361C183.006 245.784 182.16 238.846 181.737 235.8C182.921 239.946 186.813 241.723 186.39 245.446V245.361ZM187.067 245.361C189.436 244.092 188.929 241.384 189.606 239.438C188.083 241.892 186.56 242.23 187.067 245.361Z" fill="white" stroke="#BD6B00" stroke-width="0.423055"/>
<path fill-rule="evenodd" clip-rule="evenodd" d="M186.306 249.93C182.837 250.184 180.721 242.484 180.552 239.438C181.652 243.584 186.813 245.784 186.39 249.93H186.306ZM187.067 249.761C190.452 248.999 190.029 246.799 189.521 243.33C188.421 246.884 186.56 246.123 187.067 249.761Z" fill="white" stroke="#BD6B00" stroke-width="0.423055"/>
<path fill-rule="evenodd" clip-rule="evenodd" d="M186.306 254.33C182.414 255.007 182.668 248.746 179.537 244.261C182.245 247.646 187.152 251.876 186.306 254.33ZM187.152 254.076C190.198 254.245 190.536 249.761 190.367 247.899C189.606 249.761 186.137 251.453 187.237 254.161L187.152 254.076Z" fill="white" stroke="#BD6B00" stroke-width="0.423055"/>
<path fill-rule="evenodd" clip-rule="evenodd" d="M180.214 249.507C181.652 254.33 183.768 259.153 186.306 258.814C187.575 256.022 183.852 255.684 180.214 249.507Z" fill="white" stroke="#BD6B00" stroke-width="0.423055"/>
<path fill-rule="evenodd" clip-rule="evenodd" d="M187.237 258.053C186.221 255.937 189.775 254.922 190.452 252.215C190.875 256.107 190.536 258.645 187.237 258.053ZM181.229 255.007C183.345 259.322 184.275 264.314 187.152 263.552C188.252 260.168 183.937 259.491 181.229 255.007Z" fill="white" stroke="#BD6B00" stroke-width="0.423055"/>
<path fill-rule="evenodd" clip-rule="evenodd" d="M187.744 262.791C186.475 260.422 190.029 259.66 190.959 256.53C191.383 260.591 190.959 263.552 187.744 262.706V262.791ZM193.836 233.6C195.867 234.108 198.067 231.823 197.305 228.354C194.936 228.862 193.921 231.062 193.836 233.6ZM187.152 231.823C187.321 232.839 188.59 232.923 188.167 231.485C187.851 230.552 187.851 229.541 188.167 228.608C188.575 227.343 188.575 225.981 188.167 224.716C187.829 223.87 186.644 224.377 187.152 225.054C187.66 225.816 187.744 227.424 187.321 228.185C186.814 229.285 186.983 230.723 187.152 231.823ZM206.528 245.361C205.682 246.461 204.074 245.699 205.343 244.092C206.359 242.823 207.882 241.723 207.882 240.369C208.051 238.677 208.982 236.138 209.912 235.208C210.843 234.277 211.943 235.546 210.928 236.223C209.828 236.9 209.066 239.946 209.151 241.13C209.066 242.823 207.459 244.092 206.528 245.361ZM203.99 243.415C203.143 244.6 201.959 243.838 202.636 241.977C203.228 240.707 203.313 239.015 203.99 238.084C205.005 236.646 206.528 235.462 207.459 234.531C208.474 233.685 209.151 234.531 208.305 235.377C207.268 236.413 206.333 237.546 205.513 238.761C204.328 240.623 204.836 242.146 203.99 243.415ZM190.706 237.323C190.621 239.015 191.975 239.354 191.89 236.985C191.89 234.446 190.029 232.077 191.044 228.27C191.721 226.408 191.721 222.939 191.383 221.162C191.044 219.301 189.69 220.485 190.283 221.924C190.79 223.616 190.198 226.662 189.775 228.27C188.506 232.839 190.79 235.038 190.621 237.323H190.706ZM194.344 228.016C194.175 229.623 192.821 229.708 193.244 227.593C193.582 225.9 193.582 224.547 193.244 223.108C192.736 221.332 192.905 218.286 193.244 217.016C193.667 215.663 194.936 216.424 194.429 217.439C193.838 219.039 193.749 220.78 194.175 222.431C194.682 224.124 194.598 226.493 194.344 228.1V228.016ZM181.145 259.406C181.821 260.168 182.837 259.66 181.991 258.56C181.145 257.714 181.398 257.545 180.891 256.53C180.383 255.345 180.468 254.753 179.875 253.991C179.283 253.145 178.522 253.991 179.029 254.584C179.706 255.43 179.537 255.937 179.875 256.699C180.722 257.968 180.468 258.645 181.145 259.406ZM198.405 280.221C199.439 280.792 200.319 281.607 200.967 282.595C201.616 283.583 202.014 284.714 202.128 285.89C202.217 287.997 202.796 290.054 203.82 291.897C202.128 291.474 201.282 288.766 201.028 286.144C200.774 283.436 199.336 282.336 198.49 280.221H198.405ZM202.72 285.213C204.159 287.836 206.105 288.851 206.274 290.797C206.443 293.082 206.612 293.166 207.205 295.366C205.513 294.943 205.089 294.774 204.666 291.389C204.413 289.02 202.467 287.413 202.72 285.213Z" fill="white" stroke="#BD6B00" stroke-width="0.423055"/>
<path fill-rule="evenodd" clip-rule="evenodd" d="M247.226 309.581C248.072 311.104 248.918 313.388 250.61 312.965C250.61 311.865 248.833 311.019 247.226 309.581ZM249.764 310.089C252.895 311.442 255.687 311.104 256.11 313.135C253.064 313.473 251.879 312.288 249.679 310.089H249.764ZM236.142 299.343C238.244 300.977 239.734 303.273 240.372 305.858C241.054 308.197 242.081 310.421 243.418 312.458C241.218 310.979 239.625 308.756 238.934 306.197C238.342 303.658 237.58 301.712 236.142 299.428V299.343ZM238.765 299.343C241.134 301.204 243.334 303.404 244.011 306.027C244.687 308.481 245.11 310.342 246.718 312.796C244.18 311.189 243.249 308.819 242.488 306.197C241.895 303.658 240.372 301.797 238.765 299.428V299.343ZM246.549 305.52C246.516 305.308 246.557 305.092 246.664 304.907C246.772 304.722 246.941 304.58 247.141 304.504C247.865 304.249 248.599 304.023 249.341 303.827C250.187 303.574 250.695 304.166 250.695 304.589V306.281C250.695 306.873 250.526 306.958 250.103 307.043C249.51 307.127 248.664 307.212 248.072 307.635C247.564 307.973 247.057 307.72 246.803 307.212L246.549 305.52ZM255.518 305.52C255.518 305.012 255.348 304.589 255.01 304.504C254.368 304.238 253.673 304.123 252.979 304.166C252.133 304.166 252.049 304.335 252.049 304.674V306.45C252.049 307.127 252.049 307.127 252.387 307.296C252.979 307.296 253.91 307.296 254.502 307.804C254.925 308.058 255.348 307.804 255.433 307.296L255.518 305.52Z" fill="white"/>
<path fill-rule="evenodd" clip-rule="evenodd" d="M292.662 244.6C293.677 242.907 294.946 246.969 299.262 249.93C301.208 251.284 302.646 254.922 302.646 257.291C302.646 258.983 302.477 260.591 302.646 262.199C302.731 263.129 303.831 265.414 303.069 266.006C301.208 267.36 298.754 270.575 297.654 271.675C296.639 272.521 295.793 267.191 295.116 264.906C294.27 262.368 294.608 259.237 292.408 256.953C290.885 255.26 286.993 253.737 287.331 253.061L292.662 244.6Z" fill="white" stroke="#BD6B00" stroke-width="0.423055"/>
<path fill-rule="evenodd" clip-rule="evenodd" d="M292.916 257.63C293.252 256.831 293.708 256.09 294.269 255.43C294.809 254.761 295.507 254.238 296.3 253.907C297.079 253.676 297.781 253.237 298.331 252.638C298.654 252.275 298.887 251.84 299.008 251.368C299.104 250.809 299.104 250.236 299.008 249.676L299.261 249.93C301.208 251.284 302.646 254.922 302.646 257.291C302.672 257.94 302.672 258.589 302.646 259.237C302.477 259.66 302.392 260.083 302.138 260.337L301.208 261.014L298.923 261.606C298.068 261.991 297.314 262.571 296.723 263.299C296.107 263.951 295.594 264.693 295.2 265.499L295.031 264.822C294.354 262.537 294.439 259.83 292.831 257.63H292.916Z" fill="#BF0000" stroke="#BD6B00" stroke-width="0.423055"/>
<path d="M299.008 249.592C299.431 252.384 297.823 253.399 296.3 253.907C294.777 254.499 293.508 256.107 292.916 257.63M302.815 258.899C302.138 261.437 300.446 261.099 298.923 261.606C297.4 262.199 295.792 264.145 295.116 265.668" stroke="#BD6B00" stroke-width="0.423055"/>
<path fill-rule="evenodd" clip-rule="evenodd" d="M294.1 242.907L293.254 242.4L278.278 267.698L279.124 268.206L294.1 242.823V242.907Z" fill="white" stroke="#BD6B00" stroke-width="0.423055"/>
<path fill-rule="evenodd" clip-rule="evenodd" d="M292.493 241.892C292.493 242.341 292.671 242.771 292.988 243.089C293.306 243.406 293.736 243.584 294.185 243.584C294.634 243.584 295.064 243.406 295.381 243.089C295.699 242.771 295.877 242.341 295.877 241.892C295.877 241.443 295.699 241.013 295.381 240.695C295.064 240.378 294.634 240.2 294.185 240.2C293.736 240.2 293.306 240.378 292.988 240.695C292.671 241.013 292.493 241.443 292.493 241.892ZM279.632 221.585H273.54V222.939H279.632V221.585ZM279.632 224.208H273.54V235.885H279.632V224.208ZM279.97 219.978H273.201C273.032 217.693 275.317 215.24 276.586 215.24C277.94 215.324 280.055 217.778 279.97 219.978Z" fill="white" stroke="#BD6B00" stroke-width="0.423055"/>
<path fill-rule="evenodd" clip-rule="evenodd" d="M262.794 218.624C264.063 219.132 265.079 220.57 265.671 222.262C266.263 223.954 266.517 225.901 266.179 227.424C266.179 228.016 265.925 228.354 265.756 228.693C265.586 228.947 265.417 229.116 265.248 229.116C264.994 229.116 264.74 229.116 264.656 228.862L264.486 228.185C264.571 226.493 264.571 224.97 264.233 223.616C263.856 222.113 262.956 220.793 261.694 219.893C261.44 219.724 261.356 219.47 261.271 219.301C261.274 219.078 261.366 218.865 261.525 218.709C261.863 218.455 262.371 218.37 262.794 218.624ZM262.625 218.962C262.287 218.793 261.948 218.962 261.779 219.047L261.694 219.216C261.694 219.301 261.694 219.385 261.948 219.555C263.248 220.508 264.175 221.884 264.571 223.447C264.922 225.001 265.008 226.603 264.825 228.185C264.825 228.368 264.884 228.546 264.994 228.693C264.994 228.693 264.994 228.777 265.163 228.693C265.163 228.693 265.333 228.693 265.502 228.439C265.669 228.121 265.783 227.778 265.84 227.424C266.094 225.901 265.84 224.039 265.248 222.347C264.656 220.824 263.725 219.47 262.71 218.962H262.625Z" fill="#BD6B00"/>
<path fill-rule="evenodd" clip-rule="evenodd" d="M260.594 220.232C261.863 220.824 262.71 222.178 263.133 223.785C263.582 225.411 263.669 227.115 263.386 228.777C263.217 229.877 262.54 230.47 262.033 230.47C261.779 230.554 261.525 230.47 261.356 230.216C261.187 229.962 261.102 229.708 261.187 229.37C261.525 228.016 261.61 226.493 261.44 225.054C261.187 223.616 260.594 222.347 259.579 221.585C259.325 221.332 259.156 221.162 259.156 220.908C259.148 220.817 259.159 220.725 259.188 220.637C259.217 220.55 259.264 220.469 259.325 220.401C259.664 220.147 260.171 220.062 260.594 220.232ZM260.425 220.655C260.087 220.485 259.748 220.57 259.579 220.655L259.494 220.908L259.748 221.247C260.316 221.702 260.788 222.266 261.137 222.905C261.485 223.544 261.704 224.246 261.779 224.97C262.033 226.493 261.863 228.1 261.61 229.37C261.525 229.708 261.61 229.877 261.61 230.046L262.033 230.131C262.286 230.131 262.879 229.708 263.048 228.693C263.302 227.254 263.217 225.393 262.794 223.87C262.371 222.347 261.525 221.078 260.425 220.655Z" fill="#BD6B00"/>
<path fill-rule="evenodd" clip-rule="evenodd" d="M279.97 245.361H273.201V254.668H279.97V245.361ZM279.547 260.083H273.032V262.114H279.547V260.083ZM279.716 263.552H272.947V270.914H279.716V263.552ZM280.224 272.437H272.863V276.583H280.224V272.437ZM279.293 258.391H273.37L272.186 256.361H280.309L279.293 258.391ZM271.34 251.115L271.255 246.038H267.194C268.94 247.397 270.357 249.132 271.34 251.115Z" fill="white" stroke="#BD6B00" stroke-width="0.423055"/>
<path fill-rule="evenodd" clip-rule="evenodd" d="M278.87 253.23C278.87 254.33 277.601 253.907 277.601 253.315V248.576C277.601 247.73 275.57 247.9 275.57 248.492V253.568C275.57 254.415 274.132 254.33 274.217 253.568V247.646C274.217 245.784 278.87 245.869 278.87 247.561V253.23ZM278.87 264.483H274.047V270.406H278.87V264.483Z" stroke="#BD6B00" stroke-width="0.423055"/>
<path fill-rule="evenodd" clip-rule="evenodd" d="M275.824 267.022H274.132V267.868H275.824V267.022ZM278.786 267.022H277.093V267.868H278.786V267.022ZM277.093 264.483H275.824V267.022H277.093V264.483ZM277.093 267.868H275.824V270.491H277.093V267.868ZM303.915 204.409C303.577 209.063 305.1 211.686 307.553 211.263C308.23 208.725 306.707 206.948 303.915 204.409ZM309.415 214.817C311.615 213.717 310.007 205.086 309.161 201.448C308.569 206.102 307.469 212.701 309.415 214.817Z" fill="white"/>
<path d="M275.824 267.022H274.132V267.868H275.824M275.824 267.022V267.868M275.824 267.022V264.483H277.093V267.022M275.824 267.022H277.093M275.824 267.868H277.093M275.824 267.868V270.491H277.093V267.868M277.093 267.022H278.786V267.868H277.093M277.093 267.022V267.868M303.915 204.409C303.577 209.063 305.1 211.686 307.553 211.263C308.23 208.725 306.707 206.948 303.915 204.409ZM309.415 214.817C311.615 213.717 310.007 205.086 309.161 201.448C308.569 206.102 307.469 212.701 309.415 214.817Z" stroke="#BD6B00" stroke-width="0.423055"/>
<path fill-rule="evenodd" clip-rule="evenodd" d="M308.653 215.24C304.93 216.509 301.884 212.532 300.954 207.879C304 212.109 308.992 212.109 308.569 215.24H308.653ZM311.445 219.555C314.322 218.793 312.63 209.655 312.038 206.017C311.445 209.825 309.415 218.286 311.445 219.555ZM310.43 219.301C310.261 216.17 307.13 217.017 304.93 215.324C305.353 217.017 306.623 219.724 310.43 219.301ZM313.984 223.532C316.861 222.685 315.168 212.871 315.338 208.809C314.491 212.363 311.784 222.601 313.984 223.532ZM312.63 223.109C310.261 223.87 307.13 222.262 306.876 219.47C308.992 220.909 312.207 219.809 312.63 223.109Z" fill="white" stroke="#BD6B00" stroke-width="0.423055"/>
<path fill-rule="evenodd" clip-rule="evenodd" d="M316.184 227.847C318.891 228.1 317.707 219.724 317.707 211.94C316.691 219.216 313.899 225.901 316.184 227.847Z" fill="white" stroke="#BD6B00" stroke-width="0.423055"/>
<path fill-rule="evenodd" clip-rule="evenodd" d="M315.168 227.508C313.307 228.354 310.007 226.916 309.076 223.785C312.461 225.224 314.661 223.785 315.168 227.508ZM293.508 208.725C294.016 212.871 295.708 215.24 298.162 214.817C298.838 212.278 296.808 210.586 293.508 208.725ZM300.108 219.216C295.962 219.809 294.523 216.678 291.646 212.532C295.623 215.409 300.277 215.917 300.108 219.301V219.216Z" fill="white" stroke="#BD6B00" stroke-width="0.423055"/>
<path fill-rule="evenodd" clip-rule="evenodd" d="M301.377 218.793C303.577 216.086 301.377 212.617 299.685 209.74C300.023 214.055 298.585 216.509 301.377 218.793ZM302.223 223.278C302.561 220.57 297.992 219.978 295.962 218.54C296.723 220.063 297.654 224.208 302.307 223.278H302.223Z" fill="white" stroke="#BD6B00" stroke-width="0.423055"/>
<path fill-rule="evenodd" clip-rule="evenodd" d="M303.238 223.278C306.369 222.939 305.1 217.609 302.815 214.732C303.746 218.793 301.123 221.585 303.238 223.278Z" fill="white" stroke="#BD6B00" stroke-width="0.423055"/>
<path fill-rule="evenodd" clip-rule="evenodd" d="M305.607 227.762C309.161 226.07 306.877 221.67 305.607 219.047C306.115 222.516 303.238 225.139 305.607 227.677V227.762Z" fill="white" stroke="#BD6B00" stroke-width="0.423055"/>
<path fill-rule="evenodd" clip-rule="evenodd" d="M304.93 227.254C303.069 229.793 299.431 226.577 298.669 222.854C301.8 225.477 304.169 225.054 304.93 227.339V227.254ZM313.053 244.43C313.392 240.792 310.684 234.277 312.63 230.723C312.884 230.216 312.038 228.946 311.445 229.708C310.599 230.977 309.753 234.531 309.33 233.177C308.992 231.739 308.907 229.285 307.638 228.777C306.792 228.523 305.692 228.27 306.03 229.623C306.369 230.808 307.046 232.5 306.284 232.585C305.861 232.585 304.592 230.893 303.492 230.046C302.646 229.37 301.292 230.554 302.646 231.569C306.707 234.954 310.684 236.561 313.053 244.43ZM320.414 299.004C320.922 299.004 321.514 298.751 320.922 299.512C316.099 305.435 314.745 307.127 307.723 306.281C300.7 305.35 299.008 303.404 294.016 300.612C292.57 299.852 290.989 299.385 289.362 299.24C287.736 299.095 286.096 299.274 284.539 299.766C283.185 300.189 282.339 300.189 283.355 299.174C284.37 298.243 285.47 296.889 286.739 295.958C289.895 293.847 293.742 293.029 297.485 293.674C302.561 294.52 306.877 297.82 312.038 299.089C314.802 299.647 317.65 299.647 320.414 299.089V299.004ZM279.97 309.581C279.124 309.75 278.532 311.442 278.024 310.342C277.347 308.396 277.855 306.958 278.701 307.042C279.716 307.296 281.324 309.581 279.97 309.581Z" fill="white" stroke="#BD6B00" stroke-width="0.423055"/>
<path fill-rule="evenodd" clip-rule="evenodd" d="M323.714 241.638C324.729 240.454 324.476 240.115 322.868 240.031C321.683 240.031 319.314 240.877 318.384 240.115C317.538 239.523 317.961 236.985 317.538 235.885C317.368 235.123 316.945 234.192 315.845 235.715C312.799 240.623 309.076 246.546 307.384 252.299C306.538 255.514 307.384 260.591 310.261 263.975C310.261 261.099 311.276 259.153 312.545 256.699C314.238 253.568 320.245 244.853 323.714 241.554V241.638Z" fill="white"/>
<path fill-rule="evenodd" clip-rule="evenodd" d="M311.107 267.36C307.723 267.36 307.13 262.876 307.13 261.606C308.823 261.945 311.699 264.737 311.107 267.36ZM281.916 311.273C279.547 311.781 279.632 306.027 282.086 303.574C280.986 307.296 283.778 310.681 282.001 311.188L281.916 311.273ZM282.932 311.188C282.762 313.896 289.701 310.85 291.393 308.65C287.331 310.427 283.101 308.989 282.932 311.188ZM285.893 307.296C285.639 309.919 291.816 307.55 293.762 305.52C289.616 306.873 286.147 305.096 285.893 307.212V307.296ZM284.793 307.635C282.339 308.227 282.762 302.22 285.132 300.189C283.947 304.166 286.655 307.043 284.793 307.635ZM287.331 303.997C284.878 304.589 286.316 299.428 288.093 297.397C287.754 301.12 288.939 303.743 287.247 303.997H287.331ZM288.601 303.997C288.347 306.704 293.17 304.673 295.031 302.05C290.97 303.32 288.854 301.797 288.601 303.997ZM289.87 301.881C288.347 300.781 289.954 297.82 293 297.989C292.662 299.766 291.647 302.981 289.87 301.881ZM278.024 314.319C277.94 317.027 284.793 315.673 286.993 312.796C282.593 313.642 278.278 312.119 278.109 314.319H278.024ZM305.438 309.412C305.184 312.119 312.715 309.073 314.576 306.535C310.599 307.889 305.692 307.212 305.438 309.412ZM300.869 310.512C299.262 309.412 302.477 306.535 305.1 305.858C304.761 307.635 302.561 311.612 300.869 310.596V310.512ZM300.362 312.458C300.192 314.911 308.4 313.558 310.515 311.273C303.492 312.542 300.615 310.342 300.362 312.458Z" fill="white" stroke="#BD6B00" stroke-width="0.423055"/>
<path fill-rule="evenodd" clip-rule="evenodd" d="M296.469 314.065C295.623 316.35 303.492 315.757 306.284 314.488C301.8 314.488 297.146 312.458 296.469 314.065Z" fill="white" stroke="#BD6B00" stroke-width="0.423055"/>
<path fill-rule="evenodd" clip-rule="evenodd" d="M292.831 315.758C291.985 317.788 299.262 317.788 302.815 316.604C298.077 316.604 293.677 313.727 292.831 315.758ZM287.501 316.857C286.147 319.311 293.931 319.48 296.385 318.296C291.985 317.704 288.601 314.911 287.501 316.857ZM296.554 312.712C299.008 314.235 298.838 309.666 300.785 306.535C297.739 309.327 294.862 311.273 296.554 312.712Z" fill="white" stroke="#BD6B00" stroke-width="0.423055"/>
<path fill-rule="evenodd" clip-rule="evenodd" d="M292.154 314.404C294.185 316.18 295.877 309.919 297.738 306.366C294.692 309.75 290.293 312.881 292.154 314.319V314.404ZM286.401 316.096C288.093 318.127 293.169 310.173 295.031 305.943C292.239 309.242 285.047 314.404 286.401 316.096ZM291.308 322.188C292.154 325.234 305.015 319.311 306.538 316.18C299.092 320.073 291.139 319.226 291.308 322.103V322.188ZM332.514 259.745C332.852 259.322 333.698 259.745 333.529 260.676C333.275 261.945 331.414 268.46 328.198 270.66C325.914 272.352 313.815 274.975 308.399 276.159C305.353 276.752 302.9 278.275 300.869 280.644C301.564 277.836 302.412 275.068 303.407 272.352C304.423 269.814 307.13 267.106 310.007 267.021C315.168 266.768 321.937 266.345 326.929 264.229C329.19 263.276 331.15 261.726 332.598 259.745H332.514Z" fill="white" stroke="#BD6B00" stroke-width="0.423055"/>
<path fill-rule="evenodd" clip-rule="evenodd" d="M302.646 285.551C300.954 286.736 299.177 282.421 301.208 278.275C301.292 282.252 304.423 283.605 302.646 285.551Z" fill="white" stroke="#BD6B00" stroke-width="0.423055"/>
<path fill-rule="evenodd" clip-rule="evenodd" d="M301.038 289.528C298.754 290.205 298.077 286.144 299.515 282.928C299.262 286.398 303.154 288.513 301.038 289.528Z" fill="white" stroke="#BD6B00" stroke-width="0.423055"/>
<path fill-rule="evenodd" clip-rule="evenodd" d="M299.261 292.743C297.062 293.843 296.3 289.697 297.823 286.736C297.654 290.543 300.954 291.728 299.261 292.659V292.743Z" fill="white" stroke="#BD6B00" stroke-width="0.423055"/>
<path fill-rule="evenodd" clip-rule="evenodd" d="M300.192 292.997C301.038 295.535 306.115 290.713 306.961 288.09C303.831 291.22 299.6 290.797 300.192 292.912V292.997Z" fill="white" stroke="#BD6B00" stroke-width="0.423055"/>
<path fill-rule="evenodd" clip-rule="evenodd" d="M302.477 289.02C303.492 291.559 309.838 284.79 311.276 281.659C308.146 284.79 301.8 287.159 302.477 288.936V289.02Z" fill="white" stroke="#BD6B00" stroke-width="0.423055"/>
<path fill-rule="evenodd" clip-rule="evenodd" d="M303.746 285.044C304.761 288.005 311.615 280.136 313.645 277.344C310.261 280.39 302.984 282.928 303.746 285.044ZM304 282.167C301.461 281.659 304.084 279.628 307.13 276.329C307.215 279.798 306.707 282.251 304 282.167Z" fill="white" stroke="#BD6B00" stroke-width="0.423055"/>
<path fill-rule="evenodd" clip-rule="evenodd" d="M308.146 280.136C307.046 279.036 309.076 278.529 311.615 275.652C312.038 277.598 309.246 281.151 308.061 280.136H308.146ZM296.3 292.997C294.946 293.843 294.1 291.051 295.708 288.597C296.131 291.305 297.485 291.982 296.3 292.997ZM325.237 275.821C328.029 277.513 332.514 270.744 333.698 267.952C331.245 271.167 324.729 274.044 325.237 275.821Z" fill="white" stroke="#BD6B00" stroke-width="0.423055"/>
<path fill-rule="evenodd" clip-rule="evenodd" d="M322.783 279.713C324.391 281.405 329.298 276.752 330.991 274.383C328.452 276.667 322.106 276.921 322.783 279.713Z" fill="white" stroke="#BD6B00" stroke-width="0.423055"/>
<path fill-rule="evenodd" clip-rule="evenodd" d="M320.16 283.267C320.668 285.636 327.775 280.305 329.468 277.767C326.422 280.728 319.653 280.475 320.16 283.267Z" fill="white" stroke="#BD6B00" stroke-width="0.423055"/>
<path fill-rule="evenodd" clip-rule="evenodd" d="M321.26 285.89C322.36 288.005 328.198 282.675 329.637 279.967C325.999 283.013 320.33 283.774 321.176 285.89H321.26ZM324.222 275.483C322.445 273.537 323.206 272.606 324.56 269.56C325.237 272.69 326.337 273.96 324.222 275.483ZM321.768 279.121C318.384 279.29 321.768 275.229 322.614 271.76C322.276 275.652 323.46 278.782 321.768 279.121Z" fill="white" stroke="#BD6B00" stroke-width="0.423055"/>
<path fill-rule="evenodd" clip-rule="evenodd" d="M319.653 282.336C317.368 281.829 317.961 278.529 319.822 274.552C319.399 278.867 321.768 281.321 319.653 282.336ZM320.499 288.851C321.345 291.39 327.945 285.467 328.96 283.098C325.576 285.974 319.907 286.905 320.499 288.851Z" fill="white" stroke="#BD6B00" stroke-width="0.423055"/>
<path fill-rule="evenodd" clip-rule="evenodd" d="M316.522 292.912C317.453 295.451 324.391 290.205 326.506 287.328C322.36 290.713 316.014 290.374 316.522 292.912Z" fill="white" stroke="#BD6B00" stroke-width="0.423055"/>
<path fill-rule="evenodd" clip-rule="evenodd" d="M312.461 297.058C313.561 300.697 320.837 294.859 322.953 291.982C318.384 295.535 311.953 294.52 312.461 297.058ZM319.23 287.751C317.284 288.682 316.522 283.182 317.622 279.206C317.622 283.436 321.599 286.651 319.314 287.667L319.23 287.751Z" fill="white" stroke="#BD6B00" stroke-width="0.423055"/>
<path fill-rule="evenodd" clip-rule="evenodd" d="M315.93 292.151C313.561 292.828 314.238 286.821 316.353 282.844C316.607 286.821 318.299 290.459 315.93 292.151ZM311.699 296.297C309.161 296.382 310.853 291.136 313.053 288.174C312.715 291.982 313.899 295.789 311.699 296.297ZM316.353 298.497C317.199 299.851 319.061 297.397 322.276 295.536C319.399 296.382 316.015 297.228 316.353 298.497ZM317.876 253.907C315.338 252.045 317.284 248.661 317.876 245.446C318.722 248.492 320.753 252.553 317.876 253.907ZM317.876 258.391C321.683 257.968 321.091 253.23 321.26 250.184C320.076 254.33 317.03 255.007 317.876 258.476V258.391ZM317.368 257.799C314.238 257.63 314.407 254.076 314.238 250.522C315.845 253.822 317.622 254.33 317.368 257.799Z" fill="white" stroke="#BD6B00" stroke-width="0.423055"/>
<path fill-rule="evenodd" clip-rule="evenodd" d="M317.453 262.199C319.991 262.452 321.176 259.999 321.683 256.276C319.399 259.745 317.368 258.645 317.453 262.199ZM316.607 261.945C313.476 262.368 314.068 258.73 314.068 256.022C315.084 258.56 317.622 259.406 316.607 261.945Z" fill="white" stroke="#BD6B00" stroke-width="0.423055"/>
<path fill-rule="evenodd" clip-rule="evenodd" d="M321.514 260.422C321.26 262.791 319.737 266.852 317.284 265.922C316.353 263.045 319.483 262.453 321.514 260.422Z" fill="white" stroke="#BD6B00" stroke-width="0.423055"/>
<path fill-rule="evenodd" clip-rule="evenodd" d="M316.607 266.175C317.622 264.145 314.068 263.045 313.392 260.337C312.969 264.229 313.307 266.768 316.607 266.26V266.175ZM326.675 241.469C324.729 239.438 326.422 236.054 327.014 232.839C327.86 235.885 329.129 239.946 326.675 241.469ZM326.675 245.361C330.06 245.784 330.906 238.846 331.329 235.8C330.145 239.946 326.252 241.723 326.675 245.446V245.361ZM325.999 245.361C323.63 244.092 324.137 241.384 323.46 239.438C324.983 241.892 326.506 242.23 325.999 245.361Z" fill="white" stroke="#BD6B00" stroke-width="0.423055"/>
<path fill-rule="evenodd" clip-rule="evenodd" d="M326.76 249.93C330.229 250.184 332.344 242.484 332.514 239.438C331.414 243.584 326.252 245.784 326.676 249.93H326.76ZM325.999 249.761C322.614 248.999 323.037 246.799 323.545 243.33C324.645 246.884 326.506 246.123 325.999 249.761Z" fill="white" stroke="#BD6B00" stroke-width="0.423055"/>
<path fill-rule="evenodd" clip-rule="evenodd" d="M326.76 254.33C330.652 255.007 330.398 248.746 333.529 244.261C330.821 247.646 325.914 251.876 326.76 254.33ZM325.914 254.076C322.868 254.245 322.529 249.761 322.699 247.899C323.46 249.761 326.929 251.453 325.829 254.161L325.914 254.076Z" fill="white" stroke="#BD6B00" stroke-width="0.423055"/>
<path fill-rule="evenodd" clip-rule="evenodd" d="M332.852 249.507C331.414 254.33 329.298 259.153 326.76 258.814C325.491 256.022 329.214 255.684 332.852 249.507Z" fill="white" stroke="#BD6B00" stroke-width="0.423055"/>
<path fill-rule="evenodd" clip-rule="evenodd" d="M325.829 258.053C326.845 255.937 323.291 254.922 322.614 252.215C322.191 256.107 322.53 258.645 325.829 258.053ZM331.837 255.007C329.722 259.322 328.791 264.314 325.914 263.552C324.814 260.168 329.129 259.491 331.837 255.007Z" fill="white" stroke="#BD6B00" stroke-width="0.423055"/>
<path fill-rule="evenodd" clip-rule="evenodd" d="M325.322 262.791C326.591 260.422 323.037 259.66 322.106 256.53C321.683 260.591 322.106 263.552 325.322 262.706V262.791ZM319.23 233.6C317.199 234.108 314.999 231.823 315.761 228.354C318.13 228.862 319.145 231.062 319.23 233.6ZM325.914 231.823C325.745 232.839 324.476 232.923 324.899 231.485C325.215 230.552 325.215 229.541 324.899 228.608C324.491 227.343 324.491 225.981 324.899 224.716C325.237 223.87 326.422 224.377 325.914 225.054C325.406 225.816 325.322 227.424 325.745 228.185C326.252 229.285 326.083 230.723 325.914 231.823ZM306.538 245.361C307.384 246.461 308.992 245.699 307.723 244.092C306.707 242.823 305.184 241.723 305.184 240.369C305.015 238.677 304.084 236.138 303.154 235.208C302.223 234.277 301.123 235.546 302.138 236.223C303.238 236.9 304 239.946 303.915 241.13C304 242.823 305.607 244.092 306.538 245.361ZM309.076 243.415C309.922 244.6 311.107 243.838 310.43 241.977C309.838 240.707 309.753 239.015 309.076 238.084C308.061 236.646 306.538 235.462 305.607 234.531C304.592 233.685 303.915 234.531 304.761 235.377C305.798 236.413 306.733 237.546 307.553 238.761C308.738 240.623 308.23 242.146 309.076 243.415ZM322.36 237.323C322.445 239.015 321.091 239.354 321.176 236.985C321.176 234.446 323.037 232.077 322.022 228.27C321.345 226.408 321.345 222.939 321.683 221.162C322.022 219.301 323.376 220.485 322.783 221.924C322.276 223.616 322.868 226.662 323.291 228.27C324.56 232.839 322.276 235.038 322.445 237.323H322.36ZM318.722 228.016C318.891 229.623 320.245 229.708 319.822 227.593C319.484 225.9 319.484 224.547 319.822 223.108C320.33 221.332 320.16 218.286 319.822 217.016C319.399 215.663 318.13 216.424 318.637 217.439C319.228 219.039 319.317 220.78 318.891 222.431C318.384 224.124 318.468 226.493 318.722 228.1V228.016ZM331.921 259.406C331.244 260.168 330.229 259.66 331.075 258.56C331.921 257.714 331.668 257.545 332.175 256.53C332.683 255.345 332.598 254.753 333.191 253.991C333.783 253.145 334.544 253.991 334.037 254.584C333.36 255.43 333.529 255.937 333.191 256.699C332.344 257.968 332.598 258.645 331.921 259.406ZM314.661 280.221C313.626 280.792 312.747 281.607 312.098 282.595C311.45 283.583 311.051 284.714 310.938 285.89C310.849 287.997 310.27 290.054 309.246 291.897C310.938 291.474 311.784 288.766 312.038 286.144C312.292 283.436 313.73 282.336 314.576 280.221H314.661ZM310.346 285.213C308.907 287.836 306.961 288.851 306.792 290.797C306.623 293.082 306.453 293.166 305.861 295.366C307.553 294.943 307.976 294.774 308.399 291.389C308.653 289.02 310.599 287.413 310.346 285.213Z" fill="white" stroke="#BD6B00" stroke-width="0.423055"/>
<path fill-rule="evenodd" clip-rule="evenodd" d="M265.84 309.581C264.994 311.104 264.148 313.388 262.456 312.965C262.456 311.865 264.233 311.019 265.84 309.581ZM263.302 310.089C260.171 311.442 257.379 311.104 256.956 313.135C260.002 313.473 261.187 312.288 263.386 310.089H263.302ZM276.924 299.343C274.822 300.977 273.331 303.273 272.694 305.858C272.012 308.197 270.985 310.421 269.648 312.458C271.848 310.979 273.441 308.756 274.132 306.197C274.724 303.658 275.486 301.712 276.924 299.428V299.343ZM274.301 299.343C271.932 301.204 269.732 303.404 269.055 306.027C268.378 308.481 267.955 310.342 266.348 312.796C268.886 311.189 269.817 308.819 270.578 306.197C271.171 303.658 272.694 301.797 274.301 299.428V299.343ZM266.517 305.52C266.55 305.308 266.509 305.092 266.401 304.907C266.294 304.722 266.125 304.58 265.925 304.504C265.201 304.249 264.467 304.023 263.725 303.827C262.879 303.574 262.371 304.166 262.371 304.589V306.281C262.371 306.873 262.54 306.958 262.963 307.043C263.556 307.127 264.402 307.212 264.994 307.635C265.502 307.973 266.009 307.72 266.263 307.212L266.517 305.52ZM257.548 305.52C257.548 305.012 257.717 304.589 258.056 304.504C258.698 304.238 259.393 304.123 260.087 304.166C260.933 304.166 261.017 304.335 261.017 304.674V306.45C261.017 307.127 261.017 307.127 260.679 307.296C260.087 307.296 259.156 307.296 258.564 307.804C258.141 308.058 257.717 307.804 257.633 307.296L257.548 305.52Z" fill="white"/>
<path fill-rule="evenodd" clip-rule="evenodd" d="M280.647 329.295C280.647 330.311 280.816 331.157 281.493 331.918C277.623 330.749 273.454 331.081 269.817 332.849C268.294 333.526 266.433 332.003 268.209 330.564C270.748 328.618 276.417 329.718 280.647 329.295ZM231.996 329.295C232.07 330.156 231.954 331.022 231.657 331.834C235.38 330.395 239.357 331.664 243.165 333.187C245.703 334.287 245.957 332.341 245.534 331.749C245.066 331.041 244.44 330.452 243.706 330.026C242.972 329.6 242.15 329.35 241.303 329.295H231.996ZM235.211 310.935C234.111 310.512 232.927 310.935 231.827 312.119C228.188 315.673 223.873 319.142 220.404 321.934C219.135 323.034 217.866 325.065 223.281 327.011C223.535 327.18 227.511 328.703 230.05 328.703C231.15 328.703 231.15 330.226 230.896 330.649C230.473 331.495 230.811 331.834 229.965 332.595C229.034 333.441 229.965 334.372 230.811 333.695C233.857 330.987 238.934 332.764 243.757 334.287C244.941 334.626 246.972 334.541 246.972 332.934C246.972 331.241 248.241 330.057 249.003 329.972C251.033 330.311 260.848 330.395 263.81 330.057C265.502 329.803 265.671 332.51 266.602 333.441C267.279 334.203 269.732 334.372 271.509 333.61C274.894 332.087 279.97 332.087 282.086 333.61C282.932 334.203 283.693 333.61 283.186 333.018C282.509 332.172 282.593 331.664 282.255 330.987C281.409 329.295 282.086 328.957 282.932 328.872C292.239 327.603 295.285 324.472 292.408 321.849C288.685 318.634 284.624 315.334 281.07 311.527C280.055 310.512 279.378 310.089 277.432 310.935C270.694 313.99 263.42 315.686 256.025 315.927C248.862 315.464 241.827 313.805 235.211 311.019V310.935Z" fill="white"/>
<path fill-rule="evenodd" clip-rule="evenodd" d="M279.04 311.442L277.686 311.781C270.071 314.488 263.133 316.35 255.941 316.35C248.918 316.35 241.557 314.319 234.873 311.611C234.461 311.47 234.015 311.47 233.603 311.611C233.18 311.696 232.757 311.95 232.503 312.204C229.376 315.331 226.041 318.243 222.519 320.919C221.927 321.342 222.012 322.442 222.942 322.78C229.965 325.318 236.819 329.972 256.448 329.803C276.332 329.634 283.355 325.065 289.616 322.949C290.039 322.78 290.462 322.526 290.716 322.103C290.776 322.002 290.815 321.89 290.829 321.774C290.844 321.657 290.834 321.539 290.8 321.426C290.691 321.161 290.517 320.928 290.293 320.749C286.655 317.788 282.847 315.419 280.309 311.95C280.055 311.527 279.547 311.442 279.04 311.527V311.442ZM279.04 311.865C279.463 311.865 279.886 311.865 279.97 312.119C282.509 315.757 286.485 318.042 290.039 321.003L290.377 321.595C290.401 321.649 290.413 321.706 290.413 321.765C290.413 321.823 290.401 321.881 290.377 321.934C290.293 322.188 289.87 322.442 289.531 322.526C283.101 324.726 276.247 329.295 256.533 329.464C236.903 329.633 230.134 324.98 223.112 322.442C222.435 322.103 222.519 321.426 222.773 321.257C226.327 318.549 229.711 315.503 232.757 312.457C233.019 312.212 233.34 312.037 233.688 311.95H234.703C241.39 314.855 248.569 316.463 255.856 316.688C263.217 316.688 270.24 314.827 277.855 312.204C278.263 312.042 278.689 311.928 279.124 311.865H279.04Z" fill="#BD6B00"/>
<path fill-rule="evenodd" clip-rule="evenodd" d="M230.896 183.764C230.896 182.58 232.588 182.495 232.419 184.103C232.165 186.049 236.226 191.125 236.565 194.256C236.819 196.371 235.296 198.148 233.857 199.333C233.028 199.92 232.053 200.27 231.039 200.345C230.025 200.419 229.01 200.216 228.104 199.756C227.342 199.079 226.665 196.964 227.258 196.117C227.427 195.864 228.358 199.248 230.388 199.248C233.18 199.248 235.465 197.133 235.465 195.271C235.634 192.056 230.981 186.979 230.896 183.764ZM238.934 191.718C239.442 191.379 240.119 192.818 239.611 193.156C239.188 193.41 238.342 192.056 238.934 191.633V191.718ZM240.203 188.756C239.949 188.925 239.526 188.756 239.611 188.587C240.424 187.457 241.461 186.507 242.657 185.795C242.995 185.626 243.503 186.133 243.334 186.387C242.471 187.39 241.403 188.198 240.203 188.756ZM250.864 180.295C251.118 179.787 252.641 179.195 253.064 178.857C253.402 178.434 253.572 179.195 253.402 179.449C253.149 180.041 251.795 180.887 251.203 180.972C250.949 180.972 250.695 180.634 250.864 180.38V180.295ZM254.502 180.549C254.948 179.424 255.676 178.433 256.618 177.672C257.041 177.418 257.718 177.672 257.548 178.011C256.974 179.13 256.131 180.089 255.095 180.803C254.841 181.057 254.418 180.803 254.502 180.549ZM251.372 182.833C251.118 183.003 251.287 183.426 251.456 183.51C251.964 183.68 252.726 183.68 253.149 183.51C253.656 183.172 253.402 181.057 252.726 182.157C252.218 182.833 251.879 182.664 251.372 182.833ZM245.195 187.572C244.095 186.726 245.534 185.541 246.634 186.387C248.918 188.079 243.249 194.679 240.203 197.725C239.611 198.317 239.103 196.879 239.865 196.117C242.068 194.272 243.979 192.104 245.534 189.687C245.872 189.264 246.126 188.333 245.195 187.572ZM258.141 181.987C258.225 181.141 256.787 181.987 256.787 180.887C256.787 180.295 258.394 179.872 259.071 180.549C260.171 181.734 259.325 183.68 257.379 183.849C255.856 183.849 253.149 186.133 253.572 186.556C253.995 187.149 258.141 187.487 260.594 187.149C262.117 186.895 261.779 188.249 260.256 188.418C258.733 188.587 257.548 188.418 256.195 188.925C254.502 189.349 253.826 191.464 252.895 192.31C252.726 192.479 252.218 191.633 252.387 191.295C253.064 190.279 254.079 188.756 255.264 188.249C255.941 187.995 253.233 187.91 252.387 187.656C251.71 187.487 251.879 186.556 252.133 186.049C252.472 185.372 255.01 182.749 256.11 182.833C257.041 182.833 258.056 182.58 258.141 181.987ZM262.371 182.157C262.879 181.734 263.217 181.057 263.64 180.634C263.894 180.38 264.402 180.634 264.317 181.31C264.233 181.903 263.471 182.326 263.048 182.749C262.625 183.003 262.202 182.41 262.456 182.157H262.371ZM267.871 180.211C268.632 180.211 268.717 181.564 268.04 181.734C267.532 181.903 267.194 180.295 267.871 180.211ZM266.094 184.441C266.094 185.71 266.686 185.626 267.786 185.541C268.886 185.541 269.817 185.541 269.817 184.526C269.817 183.426 269.225 182.41 268.971 183.172C268.886 183.849 268.717 185.033 268.294 184.526C267.956 184.103 268.125 184.018 267.448 184.695C267.025 185.118 267.025 184.526 266.771 184.187C266.602 183.933 266.094 184.356 266.094 184.526V184.441ZM258.31 190.533C258.056 192.141 258.31 194.341 259.071 194.341C260.087 194.341 262.117 190.956 263.133 189.095C263.725 188.079 264.656 187.91 264.233 189.01C263.64 190.618 263.725 194.087 264.233 195.102C264.571 195.61 266.771 194.594 267.109 193.833C267.786 192.395 267.194 189.772 267.448 188.164C267.532 187.149 268.548 186.895 268.463 187.91C268.33 190.023 268.302 192.141 268.379 194.256C268.379 195.102 270.832 196.287 271.171 193.748C271.34 192.225 272.186 190.618 271.171 188.925C270.494 187.826 272.101 187.91 272.948 189.433C273.54 190.448 272.44 192.141 272.525 193.41C272.525 195.441 271.002 196.625 269.902 196.625C268.886 196.625 268.209 195.356 267.363 195.356C266.517 195.356 265.502 196.794 264.825 196.71C261.779 196.54 263.387 192.225 262.456 192.141C261.44 192.141 260.341 196.371 259.071 196.287C257.887 196.117 256.533 192.733 257.125 191.379C257.548 190.025 258.394 189.687 258.31 190.533ZM272.609 183.764C271.171 182.918 272.609 180.634 273.371 181.395C274.724 183.087 276.078 186.895 277.094 187.233C277.686 187.402 277.601 184.356 278.024 183.003C278.363 181.903 279.547 182.241 279.378 183.595C279.293 184.018 277.686 189.01 277.855 189.179C278.982 191.291 279.917 193.5 280.647 195.779C280.901 196.794 279.716 196.117 279.547 195.948C278.786 194.764 277.517 190.448 277.517 190.702L276.078 197.217C275.909 198.063 274.64 197.894 274.978 196.371C275.232 195.187 276.924 189.349 276.84 189.095C275.871 187.008 274.421 185.182 272.609 183.764Z" fill="white"/>
<path fill-rule="evenodd" clip-rule="evenodd" d="M275.147 197.81C274.809 197.81 274.132 198.656 276.163 199.079C278.786 199.586 281.747 198.656 282.593 196.033C283.693 192.902 284.285 189.941 284.878 188.841C285.555 187.572 286.401 187.656 285.724 185.795C285.301 184.356 284.455 184.78 284.285 185.541C283.862 187.487 282.085 194.002 281.493 195.102C280.478 197.302 278.363 198.148 275.147 197.81Z" fill="white"/>
<path fill-rule="evenodd" clip-rule="evenodd" d="M280.563 187.487C280.224 186.895 279.547 187.487 279.716 188.079C279.757 188.318 279.881 188.535 280.068 188.69C280.254 188.845 280.489 188.929 280.732 188.925C281.324 188.925 282.593 189.01 282.593 188.079C282.593 187.402 282.001 186.81 281.662 187.572C281.239 188.249 280.816 188.164 280.563 187.572V187.487ZM281.155 184.949C280.986 185.118 281.155 185.879 281.409 185.795C282.381 185.802 283.34 185.569 284.201 185.118C284.37 184.949 284.285 184.526 284.032 184.526C283.185 184.526 281.832 184.526 281.155 184.949ZM288.601 186.895C289.277 185.879 290.97 185.795 290.293 187.233C288.555 190.722 286.778 194.191 284.962 197.64C284.285 198.825 283.778 198.233 284.285 197.302C284.878 196.117 288.431 187.149 288.601 186.895Z" fill="white"/>
<path fill-rule="evenodd" clip-rule="evenodd" d="M282.086 199.333C281.916 198.656 280.816 197.641 280.986 199.502C281.155 202.717 285.639 201.702 286.908 200.602C288.178 199.502 287.162 204.24 288.77 204.748C289.616 205.002 291.308 203.817 292.154 202.717C294.439 199.756 295.962 195.441 298.077 192.564C298.923 191.379 297.654 190.533 297.231 191.464C295.2 194.679 292.831 201.279 290.208 202.971C288.093 204.325 288.77 201.279 288.685 200.263C288.601 199.587 287.755 198.571 286.655 199.502C285.77 200.21 284.656 200.571 283.524 200.517C282.932 200.517 282.339 200.517 282.086 199.333Z" fill="white"/>
<path fill-rule="evenodd" clip-rule="evenodd" d="M290.039 193.41C290.039 193.156 289.108 193.072 289.193 194.002C289.193 194.679 290.039 194.848 290.124 194.848C291.393 193.833 289.87 194.341 290.039 193.325V193.41ZM288.093 197.133C287.839 197.133 287.585 197.979 288.262 198.064L291.562 197.894C291.9 197.894 292.07 197.133 291.224 197.217C290.208 197.217 288.939 196.964 288.093 197.217V197.133ZM235.634 183.087C236.057 183.087 236.988 184.272 236.903 184.695C236.903 184.864 235.888 184.695 235.634 184.441C235.38 184.187 235.465 183.087 235.634 183.087ZM231.15 191.887C230.304 192.395 231.319 193.325 231.996 192.902C234.365 191.295 237.919 189.687 238.765 186.556C239.019 185.541 239.949 183.934 240.88 183.595C241.726 183.172 243.08 185.203 243.926 183.595C244.434 182.749 246.21 184.187 246.634 183.257C247.141 182.157 246.887 181.564 246.887 180.38C246.887 179.703 246.295 179.534 245.872 180.634C245.703 181.141 245.872 181.649 245.787 181.987C245.618 182.157 245.28 182.326 244.941 182.157C244.772 181.987 244.941 181.564 244.434 181.311C244.264 181.311 243.926 181.226 243.757 181.48C243.164 182.58 242.911 183.595 241.98 182.326C241.218 181.48 240.795 179.703 240.288 182.072C240.118 182.918 238.849 184.103 238.088 184.103C237.157 184.103 237.411 181.564 235.38 181.987C234.28 182.241 234.365 184.272 234.534 184.949C234.788 186.049 237.919 185.287 237.665 185.964C237.157 188.249 233.942 190.533 231.15 191.887ZM211.943 203.056C211.858 203.479 212.366 204.494 212.874 204.579C213.381 204.579 213.72 203.479 213.551 203.056C213.381 202.802 212.028 202.802 211.943 203.056ZM214.735 207.202C214.397 206.863 213.381 207.794 214.228 208.471C214.651 208.894 216.343 209.401 216.766 208.64C217.443 207.625 216.174 203.986 216.766 203.563C217.189 203.14 219.135 205.932 220.15 206.102C222.435 206.44 221.843 202.21 224.381 202.548C225.988 202.717 226.158 200.687 225.904 199.333C225.735 198.064 223.704 196.287 222.773 195.441C221.589 194.425 220.996 196.287 221.758 196.794C222.773 197.641 224.55 199.248 224.804 200.263C224.889 200.771 223.619 201.786 223.112 201.533C221.927 200.856 220.912 198.148 219.896 197.556C219.558 197.387 218.712 197.81 219.05 198.656C219.558 199.587 221.589 200.94 221.673 201.956C221.758 202.802 220.827 204.663 220.15 204.663C219.389 204.663 217.612 202.379 217.02 201.279C216.681 200.856 215.751 200.856 215.581 201.617C215.526 203.18 215.668 204.744 216.004 206.271C216.174 207.625 215.243 207.709 214.735 207.202ZM211.351 199.925C211.012 200.263 212.028 200.94 212.197 200.771C212.535 200.433 213.974 198.825 213.72 198.233C213.466 197.725 211.52 196.541 211.182 197.133C210.589 198.064 213.043 198.571 212.62 198.825C212.147 199.13 211.719 199.5 211.351 199.925ZM214.82 192.818C214.82 192.818 215.497 194.933 216.004 194.002C216.343 193.41 214.82 192.818 214.82 192.818ZM215.835 196.202C215.666 196.202 214.989 196.794 215.412 197.048C216.089 197.387 217.866 197.725 217.443 196.456C217.189 195.694 220.15 196.456 219.389 194.425C219.083 193.799 218.577 193.293 217.95 192.987C217.612 192.987 216.681 193.41 217.274 193.748C217.697 193.918 218.966 194.679 218.543 195.187C217.95 195.694 217.612 194.933 216.935 195.102C216.597 195.102 216.85 196.118 216.597 196.371C216.597 196.541 216.004 196.033 215.835 196.118V196.202ZM220.489 188.164C219.967 188.595 219.608 189.193 219.473 189.856C219.473 190.026 219.727 190.364 219.896 190.279C220.418 189.884 220.779 189.313 220.912 188.672C220.912 188.418 220.743 187.995 220.489 188.164ZM222.858 187.91C222.181 187.064 223.704 185.71 224.296 187.487C224.719 188.587 228.95 194.171 229.796 196.033C230.473 197.302 229.796 197.81 229.034 196.879C226.919 194.171 225.142 190.787 222.858 187.91ZM227.258 187.995C228.019 187.149 229.542 185.457 229.119 184.61C228.781 183.764 227.85 183.764 227.681 184.018C226.835 185.118 228.358 184.864 228.104 185.203C227.681 186.049 227.258 186.556 227.004 187.403C226.919 187.656 227.088 188.164 227.258 187.995ZM293.085 190.702C292.493 190.279 293.593 188.164 294.354 189.01C296.3 191.295 297.231 198.825 297.823 204.494C297.823 204.494 296.977 205.255 296.977 205.086C296.977 202.125 295.708 192.902 293.085 190.702ZM248.157 183.426C247.48 181.903 249.087 181.395 249.341 182.411C250.441 187.318 253.149 191.041 255.264 194.341C255.856 195.356 255.264 196.033 253.825 195.018C252.81 194.341 251.71 191.718 251.287 191.633C250.272 191.464 248.072 195.864 243.588 194.595C242.403 194.256 242.488 190.787 242.403 189.264C242.403 188.503 243.249 188.418 243.249 189.264C243.249 190.702 243.249 193.664 245.026 193.833C246.549 193.833 249.764 191.802 250.441 190.11C251.118 188.418 248.833 185.118 248.157 183.341V183.426Z" fill="white"/>
<path fill-rule="evenodd" clip-rule="evenodd" d="M294.27 203.902C294.608 202.886 299.431 194.764 300.108 192.987C300.446 192.141 301.8 194.51 300.446 195.779C299.262 196.794 295.793 202.548 295.116 204.578C294.777 205.425 293.931 205.002 294.27 203.902Z" fill="white"/>
<path fill-rule="evenodd" clip-rule="evenodd" d="M302.477 196.202C303.323 192.818 305.523 196.71 303.577 198.571C300.7 201.448 299.769 206.948 295.116 207.794C293.931 208.048 291.731 207.201 291.054 206.694C290.8 206.525 291.223 205.34 291.985 205.932C293.085 206.778 295.454 207.032 296.723 206.017C299.488 203.322 301.475 199.931 302.477 196.202ZM254.248 206.948C253.995 207.201 253.402 207.201 253.318 207.54C253.064 208.724 253.318 209.401 253.064 210.586C252.81 211.77 251.964 211.77 252.049 210.84C252.049 209.655 253.149 207.878 252.387 207.794C251.879 207.709 251.541 207.032 252.049 206.694C252.979 206.101 253.487 206.186 254.079 206.355C254.333 206.44 254.418 206.778 254.248 206.948Z" fill="white"/>
<path fill-rule="evenodd" clip-rule="evenodd" d="M253.572 205.255C252.387 206.44 251.203 206.863 250.103 208.217C249.595 208.724 249.68 209.486 249.341 210.247C249.087 211.009 248.157 211.094 247.903 211.009C247.48 210.671 247.564 209.317 247.057 209.994C246.549 210.755 246.295 211.686 245.618 211.686C245.026 211.686 243.926 210.417 244.518 210.417C246.464 210.163 246.38 208.724 247.057 208.555C247.903 208.471 247.903 209.824 248.495 209.571C248.833 209.401 249.087 207.794 249.51 207.371C250.78 206.017 251.795 205.34 253.149 204.325C253.741 203.817 254.249 204.748 253.572 205.34V205.255ZM258.056 209.486C257.041 209.655 257.21 210.924 257.548 211.009C257.971 211.263 258.733 211.347 258.987 209.909C259.156 209.317 259.241 212.87 260.51 211.517C261.356 210.671 263.133 211.686 263.894 210.671C264.487 209.909 264.74 209.401 264.233 208.386C264.063 208.132 263.387 208.217 263.387 208.978C263.387 209.655 262.963 210.417 262.287 210.332C261.948 210.247 262.456 208.724 262.117 208.301C262.038 208.224 261.932 208.18 261.821 208.18C261.711 208.18 261.604 208.224 261.525 208.301C261.271 208.64 261.779 210.163 261.017 210.332C260.002 210.501 260.51 209.317 260.171 209.148C258.733 208.471 258.648 209.317 258.056 209.401V209.486ZM265.671 206.948C266.433 206.778 266.179 206.778 267.363 205.848C267.786 205.509 267.871 206.525 267.786 206.948C267.786 207.54 266.94 207.117 266.686 207.709C266.348 208.471 266.517 210.247 266.348 210.924C266.348 211.263 265.671 211.263 265.671 210.924C265.502 210.078 265.756 209.232 265.671 208.132C265.671 207.794 265.248 207.201 265.671 207.032V206.948ZM261.44 204.832C261.271 205.594 261.271 206.186 261.271 206.778C261.271 207.201 262.117 206.948 262.117 206.863C262.117 206.186 262.287 205.171 262.117 204.917C261.948 204.832 261.525 204.663 261.44 204.832Z" fill="white"/>
<path fill-rule="evenodd" clip-rule="evenodd" d="M256.11 196.964L254.925 201.702L253.233 198.487V201.786L249.51 197.387L250.78 202.125L247.395 199.248L249.257 202.463L243.334 198.656L247.057 203.056L242.318 200.687L245.703 203.563L238.088 200.687L245.449 204.325C248.793 202.803 252.436 202.051 256.11 202.125C260.256 202.125 263.979 202.971 266.686 204.325L274.132 200.687L266.517 203.563L269.902 200.687L265.248 203.056L268.886 198.656L262.964 202.463L264.825 199.248L261.441 202.04L262.71 197.387L259.071 201.786V198.487L257.379 201.702L256.11 196.964Z" fill="white"/>
<path d="M249.5 299.7L249.4 301.9H249V300.4C248.907 299.955 248.773 299.52 248.6 299.1C248.466 298.751 248.299 298.416 248.1 298.1C247.856 297.718 247.589 297.35 247.3 297L248 295.2C248.508 295.779 248.883 296.461 249.1 297.2C249.408 297.999 249.577 298.844 249.6 299.7M255.1 296.3C255.1 296.9 255 297.3 254.8 297.5C254.6 297.8 254.2 298 253.8 298.1L254 299.2C254.092 299.763 254.092 300.337 254 300.9V301.9H253.6V300.9C253.559 300.628 253.492 300.36 253.4 300.1C253.304 299.832 253.204 299.565 253.1 299.3C252.932 298.885 252.732 298.483 252.5 298.1L251.7 296.8L252.2 295.2L253 296.1L253.7 296.3C254.4 296.3 254.7 296 254.7 295.3H255C254.995 295.467 254.995 295.633 255 295.8V296.3M260.1 300.2L259.7 301.9L259.1 301.3C258.951 300.983 258.849 300.646 258.8 300.3C258.767 299.834 258.767 299.366 258.8 298.9C258.507 298.979 258.203 299.012 257.9 299C257.5 299 257.2 299 256.9 298.7C256.776 298.607 256.675 298.486 256.606 298.347C256.536 298.208 256.5 298.055 256.5 297.9C256.5 297.2 256.7 296.6 257.1 296.1C257.4 295.5 257.8 295.2 258.3 295.2C258.6 295.2 258.9 295.3 259 295.5L259.3 296.3V297.9C259.3 298.6 259.3 299.1 259.5 299.3C259.5 299.6 259.8 299.8 260.1 300.2ZM258.6 297.3C258.6 296.9 258.3 296.7 257.9 296.7C257.76 296.698 257.622 296.732 257.5 296.8C257.3 296.9 257.3 297 257.3 297.1C257.3 297.3 257.5 297.4 258.1 297.4C258.266 297.419 258.434 297.419 258.6 297.4M265.5 299.7L265.3 301.8C264.9 301.5 264.5 301 264.2 300.3C263.738 299.234 263.37 298.13 263.1 297C262.871 298.01 262.604 299.01 262.3 300L261.7 301.3C261.545 301.541 261.341 301.745 261.1 301.9V299.9L261.9 298.7C262.159 298.261 262.36 297.79 262.5 297.3C262.642 296.64 262.742 295.972 262.8 295.3H263.2L263.9 297.3C264.253 298.207 264.799 299.026 265.5 299.7Z" fill="white"/>
<path d="M281 319.2C281.3 319.5 281.5 319.8 281.6 320.2L281.8 321.4H281.2C281.006 321.01 280.771 320.641 280.5 320.3C280.182 319.951 279.849 319.618 279.5 319.3L278.2 318.1C277.683 317.647 277.15 317.213 276.6 316.8L276.1 316.4L275.9 315.8C275.835 315.37 275.802 314.935 275.8 314.5L277.9 316.2C278.589 316.774 279.256 317.375 279.9 318L281 319.2ZM273.4 314.6L273.3 316.2L270.8 316.1L271 314.5H273.4M280.1 321.6L274.1 323.5L272.9 321.9L278.1 320.4C277.949 320.156 277.782 319.922 277.6 319.7L276.9 319.2C276.893 319.354 276.854 319.505 276.785 319.642C276.716 319.78 276.619 319.902 276.5 320C276.277 320.228 276.003 320.4 275.7 320.5C275.241 320.623 274.759 320.623 274.3 320.5C273.8 320.5 273.5 320.2 273.3 319.9C272.971 319.394 272.798 318.803 272.8 318.2C272.8 317.4 273 316.9 273.4 316.7C274 316.5 274.8 316.7 275.9 317.2C276.851 317.662 277.674 318.348 278.3 319.2L280.1 321.6ZM275.4 318.4C275.207 318.313 275.006 318.246 274.8 318.2C274.637 318.153 274.463 318.153 274.3 318.2C274.213 318.211 274.13 318.244 274.06 318.296C273.99 318.349 273.934 318.419 273.9 318.5C273.865 318.561 273.846 318.63 273.846 318.7C273.846 318.77 273.865 318.839 273.9 318.9L274.3 319.1H274.8C274.922 319.025 275.025 318.922 275.1 318.8L275.4 318.4ZM269 317.2L268.6 318.8L266.1 318.5L266.5 317L269 317.2ZM275 323.2L273.6 323.6C273.137 323.678 272.663 323.678 272.2 323.6C271.783 323.591 271.373 323.488 271 323.3C270.8 323.7 270.4 324 269.9 324.3C269.484 324.483 269.047 324.617 268.6 324.7L267.6 325L266.8 323.4L267.8 323.2L268.8 322.9L269.4 322.5C269.179 322.347 268.944 322.213 268.7 322.1C268.515 322.005 268.306 321.97 268.1 322C268.035 321.977 267.965 321.977 267.9 322C267.869 322.098 267.869 322.202 267.9 322.3H267.4C267 321.6 266.9 321.1 267.1 320.7C267.4 320.3 267.9 320 268.7 319.8C269.5 319.6 270.2 319.6 270.8 319.8C271.4 319.8 271.8 320.1 272 320.4C272.1 320.6 272.2 320.8 272.1 321C272.1 321.2 272.1 321.5 271.8 322C272.125 322.107 272.475 322.107 272.8 322L274.1 321.7L274.9 323.3M268.5 324.8L267.2 325C266.5 325 265.9 325 265.4 324.6C264.787 324.069 264.336 323.376 264.1 322.6L263.5 320.9C263.404 320.514 263.195 320.166 262.9 319.9L262.1 319.6L262.6 317.9L263.7 318.8L264.5 320.1L264.9 321.3C265.117 321.927 265.457 322.505 265.9 323C266.1 323.3 266.3 323.4 266.6 323.3L267.9 323.1L268.5 324.8ZM263 318.8L262.1 320.3L259.8 319.7L260.6 318.2L263 318.8ZM264.4 325.5L258.4 326L258.1 324.4L263.1 323.9C262.961 323.621 262.754 323.381 262.5 323.2C262.247 323.013 261.979 322.845 261.7 322.7L262.2 321.2C262.7 321.5 263.2 321.8 263.4 322.2C263.6 322.6 263.9 323.2 264 323.9L264.4 325.5ZM259.6 326.3C258.996 326.275 258.395 326.208 257.8 326.1C257.356 326.002 256.922 325.869 256.5 325.7C256.179 325.838 255.844 325.939 255.5 326H252.5C252 326 251.7 326 251.5 325.8L250.9 325C250.525 325.329 250.081 325.568 249.6 325.7C249.181 325.838 248.741 325.906 248.3 325.9H246.9L247.1 324.1L248.4 324.2C249.1 324.2 249.7 324.2 250.1 323.9C250.7 323.6 251.1 323.1 251.1 322.5H251.7C251.659 322.833 251.626 323.166 251.6 323.5C251.6 323.8 251.6 324 251.9 324.1L252.6 324.3H255.5C255.9 324.1 256.1 323.8 256.2 323.3L256.3 323C256.427 322.922 256.561 322.855 256.7 322.8L257.1 322.7V323.3L256.8 324.1C257.346 324.31 257.918 324.445 258.5 324.5C258.5 324.4 258.5 324.2 258.3 324C258.3 323.7 258.1 323.6 258.1 323.5C258.114 323.425 258.148 323.356 258.2 323.3L258.5 323.1L259.3 322.4L259.6 323.1C259.6 323.3 259.7 323.6 259.6 323.9L259.5 326.3M250.5 319.3L249 320.3L247.9 319.7L246.8 320.5L245.3 319.6L246.7 318.6L247.9 319.3L249 318.4L250.5 319.4M248.1 325.8L242.3 324.8L243 323.2L247.8 324C247.884 323.74 247.884 323.46 247.8 323.2C247.653 322.984 247.486 322.783 247.3 322.6L248.6 321.3C248.9 321.7 249.1 322.1 249.1 322.5C249.1 322.9 249.1 323.5 248.7 324.2L248.1 325.8ZM243.2 325L242 324.7C241.3 324.6 240.9 324.3 240.8 323.8C240.7 323.3 240.9 322.6 241.5 321.6L242.5 319.9L242.7 319L242.4 318.4L244.2 317.2L244.4 318.3C244.4 318.7 244.2 319.2 243.8 319.7L243.2 320.9C242.838 321.405 242.598 321.987 242.5 322.6C242.5 322.9 242.6 323.1 242.9 323.1L244.1 323.4L243.2 325ZM240.2 318.7L238.2 319.6L236.8 318.2L238.8 317.4L240.3 318.7M239.4 324C239.08 324.445 238.671 324.819 238.2 325.1C237.8 325.4 237.3 325.5 236.8 325.6C236.17 325.686 235.53 325.686 234.9 325.6C234.149 325.471 233.412 325.271 232.7 325C231.674 324.716 230.742 324.163 230 323.4C229.5 322.8 229.5 322.2 230 321.6C230.419 321.081 230.927 320.641 231.5 320.3C232.464 319.815 233.467 319.413 234.5 319.1L234.9 319.5C233.9 319.9 233.1 320.2 232.7 320.5C232.326 320.669 231.987 320.907 231.7 321.2C231.4 321.6 231.4 322 231.8 322.5C233.228 323.625 234.982 324.257 236.8 324.3C237.8 324.3 238.4 324 238.7 323.7L239.1 323L239.2 321.6L241.2 320.4L241.1 321.6C241 322 240.7 322.4 240.3 322.9L239.4 324Z" fill="#BF0000"/>
</g>
<defs>
<clipPath id="clip0_103_1162">
<rect width="512" height="512" fill="white" transform="translate(0.5)"/>
</clipPath>
</defs>
</svg>
