<svg width="513" height="512" viewBox="0 0 513 512" fill="none" xmlns="http://www.w3.org/2000/svg">
<g clip-path="url(#clip0_103_1294)">
<path d="M0.5 0H512.5V512H0.5V0Z" fill="#012169"/>
<path d="M0.5 0L256.5 256L0.5 0ZM256.5 0L0.5 256L256.5 0Z" fill="black"/>
<path d="M0.5 0L256.5 256M256.5 0L0.5 256" stroke="white" stroke-width="50"/>
<mask id="mask0_103_1294" style="mask-type:luminance" maskUnits="userSpaceOnUse" x="0" y="0" width="300" height="299">
<path d="M0.5 0V128H299.2V256H256.5L0.5 0ZM256.5 0H128.5V298.7H0.5V256L256.5 0Z" fill="white"/>
</mask>
<g mask="url(#mask0_103_1294)">
<path d="M0.5 0L256.5 256L0.5 0ZM256.5 0L0.5 256L256.5 0Z" fill="black"/>
<path d="M0.5 0L256.5 256M256.5 0L0.5 256" stroke="#C8102E" stroke-width="30"/>
</g>
<path d="M128.5 0V298.7V0ZM0.5 128H299.2H0.5Z" fill="black"/>
<path d="M128.5 0V298.7M0.5 128H299.2" stroke="white" stroke-width="75"/>
<path d="M128.5 0V298.7V0ZM0.5 128H299.2H0.5Z" fill="black"/>
<path d="M128.5 0V298.7M0.5 128H299.2" stroke="#C8102E" stroke-width="50"/>
<path d="M0.5 256H256.5V0H341.8V341.3H0.5V256Z" fill="#012169"/>
<path d="M324.1 224.1C324.1 314.5 333.9 345.6 353.5 366.6C363.828 378.064 375.592 388.147 388.5 396.6C401.406 388.144 413.17 378.061 423.5 366.6C443 345.6 452.8 314.5 452.8 224.1C438.6 230.6 430.5 233.8 418.8 233.6C408.158 232.533 397.846 229.3 388.5 224.1C379.154 229.3 368.842 232.533 358.2 233.6C346.5 233.8 338.4 230.6 324.2 224.1H324.1Z" fill="white"/>
<path d="M390.56 269.374C393.5 276.581 403.3 284.589 405.848 288.593C402.516 292.597 401.928 292.197 402.32 299.404C408.2 293.198 408.2 292.397 412.12 293.398C420.352 301.806 413.688 320.024 406.632 324.028C399.968 328.233 401.144 324.028 390.952 329.234C395.46 333.238 400.948 328.633 405.456 329.834C407.808 332.837 404.28 338.042 406.24 343.248C410.16 342.847 409.768 334.639 410.552 331.636C413.492 320.825 430.936 313.418 431.72 303.408C435.444 301.606 438.972 302.807 443.48 305.41C441.324 296.201 433.876 296.201 431.916 293.398C427.212 285.99 423.096 277.782 413.1 275.38C405.652 273.978 406.24 275.98 401.34 272.577C398.204 270.175 388.992 265.77 390.56 269.374Z" fill="#FF9900"/>
<path d="M410.748 279.184C411.614 279.184 412.316 278.467 412.316 277.582C412.316 276.698 411.614 275.98 410.748 275.98C409.882 275.98 409.18 276.698 409.18 277.582C409.18 278.467 409.882 279.184 410.748 279.184Z" fill="white"/>
<path d="M366.135 300.385C371 294.364 373.352 281.774 375.627 277.603C380.65 278.742 380.578 279.46 386.634 275.74C378.514 273.328 377.821 273.702 376.855 269.695C380.286 258.334 399.171 255.843 405.935 260.345C412.688 264.4 408.499 265.301 417.768 272.074C419.128 266.133 412.577 263.328 411.51 258.696C413.01 255.169 419.165 255.924 422.755 251.723C420.576 248.37 413.654 252.558 410.688 253.252C399.956 255.646 385.391 243.353 376.36 247.32C373.06 244.798 372.451 241.051 372.597 235.765C365.633 242.013 369.114 248.739 367.603 251.818C363.39 259.525 358.208 267.076 360.8 277.225C363.068 284.605 364.526 283.139 363.87 289.154C363.256 293.108 363.748 303.484 366.135 300.385Z" fill="#FF9900"/>
<path d="M365.192 277.572C364.787 276.79 363.838 276.491 363.073 276.904C362.307 277.317 362.014 278.286 362.419 279.068C362.824 279.85 363.773 280.149 364.538 279.736C365.304 279.323 365.597 278.354 365.192 277.572Z" fill="white"/>
<path d="M405.63 304.339C398.067 303.201 386.297 307.657 381.624 307.826C379.981 302.847 380.62 302.538 374.37 299.17C376.548 307.514 377.22 307.926 374.36 310.843C363.062 313.72 351.208 298.503 351.484 290.264C351.39 282.264 354.312 285.459 355.196 273.855C349.513 275.74 350.549 282.916 347.218 286.244C343.486 286.757 340.936 280.988 335.558 280.023C333.874 283.661 340.964 287.545 343.08 289.778C350.637 297.919 347.864 317.007 355.86 322.848C355.453 327.036 352.627 329.506 348.12 332.113C356.959 334.968 360.797 328.447 364.159 328.175C372.799 327.871 381.808 328.494 388.975 320.98C393.989 315.181 392.006 314.665 397.387 312.127C401.019 310.619 409.462 304.822 405.63 304.339Z" fill="#FF9900"/>
<path d="M386.995 316.962C386.549 317.72 386.789 318.704 387.531 319.16C388.273 319.615 389.237 319.37 389.683 318.612C390.129 317.853 389.889 316.869 389.147 316.414C388.405 315.958 387.441 316.204 386.995 316.962Z" fill="white"/>
<path d="M340.3 347.4C343.714 354.425 348.164 360.897 353.5 366.6C363.828 378.063 375.592 388.147 388.5 396.6C401.404 388.141 413.167 378.059 423.5 366.6C428.836 360.897 433.286 354.425 436.7 347.4H340.3Z" fill="#99CCFF"/>
<path d="M321.5 220.5C321.5 314.7 331.6 347.1 352 369C362.788 380.855 375.055 391.274 388.5 400C401.92 391.242 414.155 380.789 424.9 368.9C445.3 347 455.5 314.7 455.5 220.5C440.7 227.3 432.2 230.6 420 230.5C409 230.2 397.4 224.8 388.5 220.5C379.5 224.8 367.9 230.2 357 230.5C344.7 230.6 336.3 227.3 321.4 220.5H321.5ZM325.5 225.5C339.4 232 347.4 235.1 358.9 234.9C369.306 233.826 379.381 230.627 388.5 225.5C396.9 229.5 407.8 234.7 418.1 234.9C429.6 235.1 437.5 231.9 451.5 225.5C451.5 314.5 441.9 345.1 422.7 365.7C412.608 376.926 401.114 386.807 388.5 395.1C375.848 386.818 364.32 376.936 354.2 365.7C335 345.1 325.5 314.4 325.5 225.5Z" fill="#FDC301"/>
</g>
<defs>
<clipPath id="clip0_103_1294">
<rect width="512" height="512" fill="white" transform="translate(0.5)"/>
</clipPath>
</defs>
</svg>
