<svg width="513" height="512" viewBox="0 0 513 512" fill="none" xmlns="http://www.w3.org/2000/svg">
<g clip-path="url(#clip0_103_1316)">
<path d="M0.5 0H512.5V512H0.5V0Z" fill="#FF0000"/>
<path d="M205.4 99.5C200.4 99.5 192.2 101.1 192.4 104.9C178.4 102.6 177 108.3 177.8 113.4C179.2 111.4 180.8 110.3 182 110.1C183.9 109.8 185.8 110.4 187.8 111.6C189.671 112.816 191.356 114.299 192.8 116C188 117.1 184.2 116.4 180.4 115.7C178.227 115.258 176.158 114.41 174.3 113.2C172.7 112.1 172.2 111.1 169.7 108.5C166.8 105.5 163.7 106.4 164.7 111C166.9 115.3 170.7 117.3 175.4 118C177.6 118.4 181 119.2 184.8 119.2C188.6 119.2 192.9 118.7 195.3 119.2C193.9 120 192.3 121.6 189.1 122.2C185.9 122.8 181.1 120.2 178.1 119.6C178.5 122.1 181.6 124.4 187.8 125.6C198 127.8 206.5 129.6 212.1 132.6C217.7 135.6 221.2 139.4 223.7 142.4C228.7 148.4 229 152.9 229.3 153.9C230.3 163.4 227.1 168.7 220.9 170.3C217.9 171.1 212.4 169.6 210.4 167.3C208.4 164.9 206.4 160.9 207 154.6C207.5 152.1 210.4 145.6 208 144.3C196.893 138.226 185.402 132.881 173.6 128.3C170.9 127.2 168.6 130.8 167.8 132.3C159.939 131.189 152.423 128.342 145.799 123.966C139.174 119.59 133.607 113.795 129.5 107C124.9 98.9 117.4 107 118.6 114.7C120.7 123.3 127.2 129.5 135.1 133.9C143.1 138.4 153.2 142.7 163.4 142.5C168.9 143.5 168.9 150.7 162.3 152C149.3 152 139.1 151.8 129.4 142.4C122 135.7 117.9 143.7 120 148.2C123.6 162.2 143.6 166.2 163.8 161.6C171.6 160.3 166.9 168.6 164.7 168.8C156.3 174.8 141.2 180.8 127.9 168.7C121.8 164 117.7 168 119.9 174.7C125.9 192.2 148.4 188.5 163.9 179.9C167.9 177.7 171.5 182.9 166.6 186.8C147.4 200.2 137.7 200.4 129 195.2C118.2 190.9 117.2 203 123.7 207C130.9 211.4 149.1 208 162.6 199.6C168.3 195.4 168.6 202 164.9 204.6C149 218.4 142.7 222.1 126.1 219.8C117.9 219.2 118.1 229.3 124.5 233.3C133.3 238.7 150.6 229.7 164 218.6C169.6 215.6 170.6 220.6 167.8 226.4C161.886 234.764 153.841 241.394 144.5 245.6C138.274 248.071 131.387 248.318 125 246.3C118.8 244.1 118 250.5 121.4 256.3C123.4 259.8 132 261 141.1 257.7C150.3 254.5 160.1 246.9 166.8 237.9C172.8 232.8 172 239.7 169.3 244.6C155.8 265.9 143.4 273.8 127.2 272.5C119.9 271.3 118.3 276.9 122.9 282.1C130.9 288.8 141.1 288.5 149.9 281.9C160.489 271.342 170.76 260.471 180.7 249.3C186.2 244.9 188 249.3 186.4 258.3C184.9 263.4 181.2 268.8 171.1 272.8C164.1 276.8 169.3 282.2 174.5 282.3C177.4 282.3 183.2 279 187.5 274C193.4 267.5 193.7 263 197 252.9C200 247.9 205.4 250.2 205.4 255.4C202.8 265.6 200.6 267.4 195.4 271.6C190.3 276.3 198.8 277.9 201.7 276C210 270.4 213 263.2 215.8 256.6C217.8 251.8 223.6 254.1 220.9 261.9C214.5 280.4 203.9 287.7 185.4 291.5C183.5 291.8 182.4 292.9 183 295.1L190.5 302.6C179 305.9 169.7 307.8 158.3 311.1L142.5 300.6C141 297.2 140.3 291.9 132.1 295.6C126.4 293 123.9 294 120.7 296.6C125.2 296.7 127.2 297.9 129 300C131.3 306 136.6 306.6 142 305C145.5 307.9 147.4 310.2 151 313.2L133.2 312.6C126.9 305.9 121.9 306.3 117.4 311.6C113.9 312.1 112.4 312.1 110.1 316.3C113.8 314.8 116.1 314.3 117.8 316C124.4 319.9 128.8 319 132.1 316L150.8 317.1C148.5 319.1 145.2 320.2 142.8 322.3C133.1 319.5 128.1 323.3 126.4 331.1C124.999 334.235 124.514 337.701 125 341.1C126 337.9 127.5 335.2 130.3 333.5C138.9 335.7 142.1 332.2 142.6 327C146.8 323.6 153.1 322.9 157.2 319.4C162.1 321 164.4 322 169.3 323.5C171 328.8 175 330.9 181.3 329.5C189 329.8 187.6 332.9 188.3 335.4C190.3 331.8 190.3 328.4 185.5 325.1C183.8 320.5 180 318.4 175.1 321.1C170.4 319.8 169.2 317.9 164.6 316.5C176.3 312.8 184.6 312 196.4 308.2C199.4 311 201.6 313 204.6 315.4C206.2 316.4 207.6 316.6 208.6 315.4C215.9 304.8 219.2 295.4 226 288.4C228.6 285.5 232 281.6 235.6 280.6C237.4 280.2 239.6 280.4 241.1 282C242.5 283.6 243.7 286.4 243.1 290.7C242.5 296.9 241.1 298.9 239.3 302.5C237.6 306.2 235.4 308.5 233.3 311.3C228.9 317 223.2 320.3 219.8 322.5C213 326.9 210.1 325 204.8 324.7C198.1 325.5 196.3 328.8 201.8 333.4C205.974 335.699 210.805 336.51 215.5 335.7C218.8 335.1 222.5 330.9 225.3 328.7C228.3 325.1 233.4 329.3 230 333.4C223.7 340.9 217.4 345.8 209.7 345.7C201.5 346.7 203 351.4 208.4 353.6C218.2 357.6 227 350.1 231.4 345.1C234.9 341.4 237.4 341.2 236.7 347.1C233.3 357.6 228.6 361.7 221 362.2C214.8 361.7 214.7 366.4 219.3 369.7C229.6 376.7 237 364.7 240.5 357.3C243 350.7 246.8 353.8 247.2 359.3C247.2 366.6 244 372.5 235.2 380C241.9 390.7 249.7 401.7 256.5 412.5L277 184.3L256.5 148.3C254.4 146.3 247.2 137.8 245.3 136.6C244.6 135.9 244.2 135.4 245.2 135C246.2 134.6 248.4 134.2 250 134C245.6 129.6 242 128.2 233.7 125.8C235.7 125 237.7 125.5 243.6 125.2C239.948 120.234 234.951 116.418 229.2 114.2C233.7 111.2 234.5 110.9 239 107.2C231.3 106.6 224.7 105.2 218.2 103.2C214.164 101.277 209.84 100.027 205.4 99.5ZM206.1 108.5C210.1 108.5 212.7 109.9 212.7 111.5C212.7 113.2 210.2 114.6 206.1 114.6C202.1 114.6 199.5 113.1 199.5 111.4C199.5 109.7 202.1 108.4 206.1 108.4V108.5Z" fill="black"/>
<path d="M307.6 99.5C312.6 99.5 320.8 101.1 320.6 104.9C334.6 102.6 336 108.3 335.2 113.4C333.8 111.4 332.2 110.3 331 110.1C329.1 109.8 327.2 110.4 325.2 111.6C323.329 112.816 321.644 114.299 320.2 116C325 117.1 328.8 116.4 332.6 115.7C334.773 115.258 336.842 114.41 338.7 113.2C340.3 112.1 340.8 111.1 343.3 108.5C346.2 105.5 349.3 106.4 348.3 111C346.1 115.3 342.3 117.3 337.6 118C335.4 118.4 332 119.2 328.2 119.2C324.4 119.2 320.1 118.7 317.7 119.2C319.1 120 320.7 121.6 323.9 122.2C327.1 122.8 331.9 120.2 334.9 119.6C334.5 122.1 331.4 124.4 325.2 125.6C315 127.8 306.5 129.6 300.9 132.6C295.3 135.6 291.8 139.4 289.3 142.4C284.3 148.4 284 152.9 283.7 153.9C282.7 163.4 285.9 168.7 292.1 170.3C295.1 171.1 300.6 169.6 302.6 167.3C304.6 164.9 306.6 160.9 306 154.6C305.5 152.1 302.6 145.6 305 144.3C316.107 138.226 327.598 132.881 339.4 128.3C342.1 127.2 344.4 130.8 345.2 132.3C353.061 131.189 360.577 128.342 367.201 123.966C373.826 119.59 379.393 113.795 383.5 107C388.1 98.9 395.6 107 394.4 114.7C392.3 123.3 385.8 129.5 377.9 133.9C369.9 138.4 359.8 142.7 349.6 142.5C344.1 143.5 344.1 150.7 350.7 152C363.7 152 373.9 151.8 383.6 142.4C391 135.7 395.1 143.7 393 148.2C389.4 162.2 369.4 166.2 349.2 161.6C341.4 160.3 346.1 168.6 348.3 168.8C356.7 174.8 371.8 180.8 385.1 168.7C391.2 164 395.3 168 393.1 174.7C387.1 192.2 364.6 188.5 349.1 179.9C345.1 177.7 341.5 182.9 346.4 186.8C365.6 200.2 375.3 200.4 384 195.2C394.8 190.9 395.8 203 389.3 207C382.1 211.4 363.9 208 350.4 199.6C344.7 195.4 344.4 202 348.1 204.6C364 218.4 370.3 222.1 386.9 219.8C395.1 219.2 394.9 229.3 388.5 233.3C379.7 238.7 362.4 229.7 349 218.6C343.4 215.6 342.4 220.6 345.2 226.4C351.114 234.764 359.159 241.394 368.5 245.6C374.726 248.071 381.613 248.318 388 246.3C394.2 244.1 395 250.5 391.6 256.3C389.6 259.8 381 261 371.9 257.7C362.7 254.5 352.9 246.9 346.2 237.9C340.2 232.8 341 239.7 343.7 244.6C357.2 265.9 369.6 273.8 385.8 272.5C393.1 271.3 394.7 276.9 390.1 282.1C382.1 288.8 371.9 288.5 363.1 281.9C352.511 271.342 342.24 260.471 332.3 249.3C326.8 244.9 325 249.3 326.6 258.3C328.1 263.4 331.8 268.8 341.9 272.8C348.9 276.8 343.7 282.2 338.5 282.3C335.6 282.3 329.8 279 325.5 274C319.6 267.5 319.3 263 316 252.9C313 247.9 307.6 250.2 307.6 255.4C310.2 265.6 312.4 267.4 317.6 271.6C322.7 276.3 314.2 277.9 311.3 276C303 270.4 300 263.2 297.2 256.6C295.2 251.8 289.4 254.1 292.1 261.9C298.5 280.4 309.1 287.7 327.6 291.5C329.5 291.8 330.6 292.9 330 295.1L322.5 302.6C334 305.9 343.3 307.8 354.7 311.1L370.5 300.6C372 297.2 372.7 291.9 380.9 295.6C386.6 293 389.1 294 392.3 296.6C387.8 296.7 385.8 297.9 384 300C381.7 306 376.4 306.6 371 305C367.5 307.9 365.6 310.2 362 313.2L379.8 312.6C386.1 305.9 391.1 306.3 395.6 311.6C399.1 312.1 400.6 312.1 402.9 316.3C399.2 314.8 396.9 314.3 395.2 316C388.6 319.9 384.2 319 380.9 316L362.2 317.1C364.5 319.1 367.8 320.2 370.2 322.3C379.9 319.5 384.9 323.3 386.6 331.1C388.001 334.235 388.486 337.701 388 341.1C387 337.9 385.5 335.2 382.7 333.5C374.1 335.7 370.9 332.2 370.4 327C366.2 323.6 359.9 322.9 355.8 319.4C350.9 321 348.6 322 343.7 323.5C342 328.8 338 330.9 331.7 329.5C324 329.8 325.4 332.9 324.7 335.4C322.7 331.8 322.7 328.4 327.5 325.1C329.2 320.5 333 318.4 337.9 321.1C342.6 319.8 343.8 317.9 348.4 316.5C336.7 312.8 328.4 312 316.6 308.2C313.6 311 311.4 313 308.4 315.4C306.8 316.4 305.4 316.6 304.4 315.4C297.1 304.8 293.8 295.4 287 288.4C284.4 285.5 281 281.6 277.4 280.6C275.6 280.2 273.4 280.4 271.9 282C270.5 283.6 269.3 286.4 269.9 290.7C270.5 296.9 271.9 298.9 273.7 302.5C275.4 306.2 277.6 308.5 279.7 311.3C284.1 317 289.8 320.3 293.2 322.5C300 326.9 302.9 325 308.2 324.7C314.9 325.5 316.7 328.8 311.2 333.4C307.026 335.699 302.195 336.51 297.5 335.7C294.2 335.1 290.5 330.9 287.7 328.7C284.7 325.1 279.6 329.3 283 333.4C289.3 340.9 295.6 345.8 303.3 345.7C311.5 346.7 310 351.4 304.6 353.6C294.8 357.6 286 350.1 281.6 345.1C278.1 341.4 275.6 341.2 276.3 347.1C279.7 357.6 284.4 361.7 292 362.2C298.2 361.7 298.3 366.4 293.7 369.7C283.4 376.7 276 364.7 272.5 357.3C270 350.7 266.2 353.8 265.8 359.3C265.8 366.6 269 372.5 277.8 380C271.1 390.7 263.3 401.7 256.5 412.5L236 184.3L256.5 148.3C258.6 146.3 265.8 137.8 267.7 136.6C268.4 135.9 268.8 135.4 267.8 135C266.8 134.6 264.6 134.2 263 134C267.4 129.6 271 128.2 279.3 125.8C277.3 125 275.3 125.5 269.4 125.2C273.052 120.234 278.049 116.418 283.8 114.2C279.3 111.2 278.5 110.9 274 107.2C281.7 106.6 288.3 105.2 294.8 103.2C298.836 101.277 303.16 100.027 307.6 99.5ZM306.9 108.5C302.9 108.5 300.3 109.9 300.3 111.5C300.3 113.2 302.8 114.6 306.9 114.6C310.9 114.6 313.5 113.1 313.5 111.4C313.5 109.7 310.9 108.4 306.9 108.4V108.5Z" fill="black"/>
</g>
<defs>
<clipPath id="clip0_103_1316">
<rect width="512" height="512" fill="white" transform="translate(0.5)"/>
</clipPath>
</defs>
</svg>
