<svg width="513" height="512" viewBox="0 0 513 512" fill="none" xmlns="http://www.w3.org/2000/svg">
<g clip-path="url(#clip0_103_1328)">
<path fill-rule="evenodd" clip-rule="evenodd" d="M0.5 0H512.5V259.8H0.5V0Z" fill="#FF0000"/>
<path fill-rule="evenodd" clip-rule="evenodd" d="M0.5 252.2H512.5V512H0.5V252.2Z" fill="black"/>
<path fill-rule="evenodd" clip-rule="evenodd" d="M229.2 148.2C394.4 191.5 288.2 403.8 157.9 315.4L149.1 329C225.8 383.6 301.7 339.6 323.1 282.6C345.3 223.8 315.5 141.1 230.5 132.6L229.2 148.2Z" fill="#FFEC00"/>
<path fill-rule="evenodd" clip-rule="evenodd" d="M170.5 330.8L192.2 340.9L182 362.7L160.3 352.5L170.5 330.8ZM319.5 231.3H343.5V255.3H319.5V231.3ZM307.8 192.4L330.1 183.8L338.8 206.1L316.5 214.8L307.8 192.4ZM281.8 163.3L298.9 146.4L315.8 163.4L298.8 180.3L281.8 163.3ZM255.6 123.5L278 131.9L269.5 154.3L247.1 145.9L255.6 123.5ZM316.5 270L338.8 278.9L329.8 301.1L307.6 292.2L316.5 270ZM246.6 340L268.6 330.7L278.1 352.7L256.1 362.1L246.6 340ZM207.1 342.8H231.1V366.8H207.1V342.8ZM248.4 226.8L228.1 211.8L207.8 226.4L215.8 203.4L195.5 188.4H220L228.5 165.8L236.3 188.5L261 188.2L241.4 203.5L248.4 226.9V226.8Z" fill="#FFEC00"/>
<path fill-rule="evenodd" clip-rule="evenodd" d="M336.5 346.4C335.3 346.8 330.3 358.8 326.8 364.6L330.5 365.6C344.1 370.4 350.9 374.8 356.7 383.1C358.041 384.407 359.803 385.194 361.672 385.322C363.54 385.451 365.393 384.911 366.9 383.8C366.9 383.8 369.7 382.8 373.3 378.8C376.3 374.3 375.5 370.8 371.9 367.7C360.9 359.7 349 353.7 336.5 346.4Z" fill="#FFEE00"/>
<path fill-rule="evenodd" clip-rule="evenodd" d="M365.8 372.8C365.8 373.954 365.342 375.06 364.526 375.876C363.71 376.692 362.604 377.15 361.45 377.15C360.296 377.15 359.19 376.692 358.374 375.876C357.558 375.06 357.1 373.954 357.1 372.8C357.1 371.66 357.553 370.566 358.359 369.76C359.166 368.953 360.26 368.5 361.4 368.5C362.54 368.5 363.634 368.953 364.44 369.76C365.247 370.566 365.7 371.66 365.7 372.8H365.8ZM344.4 359.2C344.4 360.354 343.942 361.46 343.126 362.276C342.31 363.092 341.204 363.55 340.05 363.55C338.896 363.55 337.79 363.092 336.974 362.276C336.158 361.46 335.7 360.354 335.7 359.2C335.7 358.046 336.158 356.94 336.974 356.124C337.79 355.308 338.896 354.85 340.05 354.85C341.204 354.85 342.31 355.308 343.126 356.124C343.942 356.94 344.4 358.046 344.4 359.2ZM355.3 366.2C355.3 367.354 354.842 368.46 354.026 369.276C353.21 370.092 352.104 370.55 350.95 370.55C349.796 370.55 348.69 370.092 347.874 369.276C347.058 368.46 346.6 367.354 346.6 366.2C346.6 365.046 347.058 363.94 347.874 363.124C348.69 362.308 349.796 361.85 350.95 361.85C352.104 361.85 353.21 362.308 354.026 363.124C354.842 363.94 355.3 365.046 355.3 366.2Z" fill="black"/>
<path fill-rule="evenodd" clip-rule="evenodd" d="M325 363.7C282.4 339.4 237.7 313.2 195 288.9C176.3 277.2 175.4 255.5 188 239C189.2 236.7 190.8 237.2 191.4 238.5C192.9 246.5 197.4 254.8 202.8 260C247.121 287.88 291.026 316.416 334.5 345.6C331.1 351.4 328.5 357.9 325 363.6V363.7Z" fill="#FFEE00"/>
<path fill-rule="evenodd" clip-rule="evenodd" d="M297.7 305.5L315.5 321.5L299.5 339.3L281.7 323.3L297.7 305.5Z" fill="#FFEC00"/>
<path d="M332 348.8L207 273.3M316.6 331.4L274.5 304.1M292.7 346.8L249.8 322" stroke="black" stroke-width="3"/>
</g>
<defs>
<clipPath id="clip0_103_1328">
<rect width="512" height="512" fill="white" transform="translate(0.5)"/>
</clipPath>
</defs>
</svg>
