<svg width="513" height="512" viewBox="0 0 513 512" fill="none" xmlns="http://www.w3.org/2000/svg">
<g clip-path="url(#clip0_103_1324)">
<path d="M0.5 0H512.5V512H0.5V0Z" fill="#3A7DCE"/>
<path d="M108.2 240.9C104.7 233 104.7 233 104.7 225.2C102.9 225.2 102.6 225.6 101.6 225.2C100.6 224.9 100.2 232.5 96.9 231C96.4 230.3 99.3 224.8 96.1 222.6C95.1 221.8 96.4 217.3 95.9 215.4C95.9 215.4 91.9 217.7 88.9 209.5C87.5 207.4 85.5 211.5 85.5 211.5C85.5 211.5 86.4 214 84.8 214.5C82.5 212.7 80.9 213.7 78.1 211.2C75.2 208.7 78.7 205.8 73.3 203.6C76.8 193.8 76.8 195.8 85.5 191.8C80.3 187.9 80.3 187.9 76.8 182C71.5 180 69.8 178.1 64.6 174.2C57.6 164.4 54.1 144.8 54.1 131C58.5 126.4 64.6 146.7 73.3 152.6L85.5 158.5C92.5 162.5 94.2 166.3 99.5 170.3L115.1 176.2C122.1 182 125.6 189.9 130.8 191.8C136.5 191.8 137.6 188.2 139.4 187.9C149.6 187.4 154.9 185.9 156.9 182.4C158.9 179.6 163.9 184 177.9 178.1L176.1 170.3C176.1 170.3 179.9 166.8 184.9 168.3C184.7 164.7 184.4 155.2 189.3 150.8C186.3 147.3 188.3 144.8 188.3 144.8C188.3 144.8 191.1 141.8 191.5 140.2C190 131.5 192.7 131.4 193.4 128.9C194 126.3 191 127.2 191.8 123.7C192.7 120.2 197.8 119.3 198.4 116.4C199.1 113.6 196.9 112.1 197.1 111.4C198.1 108.7 197.2 102.2 197.1 99.7C206.4 96.7999 209.5 88.3 212.8 91.8C214.5 80 216.3 76.1 226.8 76.1C228.2 72.5 222.9 69.4 225 68.3C228.5 67.8 231.1 68 235.2 74C236.5 75.9 236.7 71.1999 238 70.6999C239.4 70.1999 242.5 70.2 243 67.9C243.4 65.5 244.1 62.4 245.9 58.5C247.4 55.3 248.5 59.7 249.9 65.9C257.2 66.2 273.8 68.0999 280.8 70.1999C286 71.7999 289.5 68.7 294.5 68.1C298.2 72.3 301.7 69.1 303.6 78.1C306.4 82.7999 310.9 78.4 311.9 79.9C317.8 97.9 337.9 85.7 339.3 86C341.9 86 345 94.1 347 94C350.3 93.3 349.4 90.8 352.2 91.8C351.5 98.6 357.9 106.5 357.9 111.5C357.9 111.5 359.4 112.4 360.9 110.9C362.3 109.4 363.6 105.5 364.9 105.6C367.9 106.1 369.2 106.6 372.7 107.2C382.1 110.9 387 111.7 390.7 113.5C392.3 117.1 394 118.9 397.5 118.2C400.3 120.4 398.2 123.2 399.9 123.4C403.4 121.4 404.6 119.3 408 121.2C411.5 123.2 415 127.2 416.8 131C416.8 133 415 140.8 416.8 152.6C417.6 156.6 418.1 159.6 421.8 166.4C420.8 173.3 426.5 184.9 426.5 187.9C426.5 191.8 423.7 193.9 422 197.7C429 203.7 422 213.4 418.5 219.3C444.7 225.2 432.5 237 453.4 231.1C448.1 244.8 450 243.7 455.2 257.4C444.8 265.3 455 267.7 448 277.4C447.6 278.1 452.2 286 458.6 286C456.9 301.7 451.6 295.8 453.4 319.3C439.6 319 445.2 336.9 435.9 335C436.5 346.3 441.2 347.2 439.4 358.6C432.4 360.6 432.4 360.6 429 366.4L423.7 364.4C422 374.3 418.5 376.2 423.7 386C423.7 386 417 386.3 415 386C414.9 389.4 418 390.3 418.5 393.9C418.2 395.3 408.5 401.5 401.1 401.7C399.1 406.6 406.3 411.7 405.9 414.2C397.7 415.9 394.1 427.2 394.1 427.2C394.1 427.2 398.3 429.2 397.6 431.2C395.3 429.3 394.1 429.2 390.6 429.2C388.9 429.7 384.6 429.1 380.6 436.8C376.1 438.5 374 437.8 370.6 442.9C369.1 438.1 366.9 442.9 364.3 444.9C361.6 446.7 358.1 451.3 357.6 451.1C357.7 449.8 359.2 444.9 359.2 444.9L350.5 446.9H349.5C348.7 447 348.9 441.2 347.3 441.4C345.6 441.7 340.9 448.7 339.3 449C337.7 449.2 337.2 446.7 335.8 447C334.4 447.1 331.7 454.4 330.8 454.6C329.8 454.8 325.8 450.2 322.5 450.8C305.3 457.6 302.6 437.4 299.9 448.8C296.3 446.7 296.9 447.9 293.3 449C291 449.7 290.8 445.5 288.7 445.6C284.5 445.7 284.7 450.1 282.5 448.8C280.7 439.6 269.5 441.3 268.4 437.3C267.5 433.3 273.2 433.3 275.1 430.5C276.5 426.5 273.6 425 279.4 421.1C286.8 415.4 282.5 413.3 283.8 409C286.2 402.8 286.2 401.3 284.2 395.8C284.2 395.8 278.4 378.2 277.2 378.2C273.8 377.1 273.8 384.7 268.7 386.8C258.2 390.7 239.7 376.8 236.5 376.8C233.5 376.9 220 380.5 220.5 372.8C218.5 380.3 210.9 374.6 210.5 374.6C203.5 374.6 206.2 380.6 201.5 380.4C199.4 379.6 177.9 378.2 177.9 378.2V382.2L163.9 374.2L151.7 370.3C141.3 366.4 146.5 356.6 129.1 362.5V350.7H120.4C123.8 327.2 120.4 339 118.6 317.4L111.6 319.4C104.6 308.7 121.3 310.8 106.4 303.6C106.4 303.6 106.7 291.9 102.9 295.8C102.2 296.3 104.7 301.7 104.7 301.7C90.7 299.7 87.2 295.8 87.2 280.1C87.2 280.1 98.7 282 97.7 280.1C96.1 277.1 93.9 258.1 94.3 256.8C94.1 254.2 105 247.7 102.9 241.5C104.2 240.9 108.2 240.9 108.2 240.9Z" fill="white"/>
<path d="M462.755 298C462.239 299.258 462.325 300.516 462.841 301.483C463.787 299.838 463.013 299.161 462.841 298H462.755ZM53.2951 153.419C53.2951 153.419 50.7145 153.032 51.2306 155.645C52.0908 153.709 53.2091 153.516 53.2951 153.419ZM53.037 147.226C51.5747 147.226 49.7682 147.032 50.4564 149.645C51.3166 147.613 53.037 147.322 53.037 147.226ZM63.9617 182.355C63.9617 182.355 66.1983 182.161 65.6821 184.774C64.8219 182.838 63.9617 182.451 63.9617 182.355Z" stroke="white" stroke-width="2.28098" stroke-linejoin="round"/>
</g>
<defs>
<clipPath id="clip0_103_1324">
<rect width="512" height="512" fill="white" transform="translate(0.5)"/>
</clipPath>
</defs>
</svg>
