<svg width="513" height="512" viewBox="0 0 513 512" fill="none" xmlns="http://www.w3.org/2000/svg">
<g clip-path="url(#clip0_103_1604)">
<path d="M0.5 0H512.5V512H0.5V0Z" fill="#74ACDF"/>
<path d="M0.5 170.7H512.5V341.4H0.5V170.7Z" fill="white"/>
<path d="M253.223 257.331L282.407 320.819C282.407 320.819 282.919 322.048 283.738 321.741C284.558 321.331 284.046 320.102 284.046 320.102L259.777 254.566M259.06 279.347C258.65 288.973 264.59 294.298 263.873 302.899C263.054 311.603 267.764 316.416 268.993 319.795C270.017 323.174 267.764 325.12 268.686 325.632C269.71 326.144 271.758 323.482 271.143 318.669C270.426 313.958 266.842 312.525 267.662 301.978C268.481 291.43 263.361 288.973 264.59 279.45" fill="#F6B40E"/>
<path d="M253.223 257.331L282.407 320.819C282.407 320.819 282.919 322.048 283.738 321.741C284.558 321.331 284.046 320.102 284.046 320.102L259.777 254.566M259.06 279.347C258.65 288.973 264.59 294.298 263.873 302.899C263.054 311.603 267.764 316.416 268.993 319.795C270.017 323.174 267.764 325.12 268.686 325.632C269.71 326.144 271.758 323.482 271.143 318.669C270.426 313.958 266.842 312.525 267.662 301.978C268.481 291.43 263.361 288.973 264.59 279.45" stroke="#85340A" stroke-width="1.1264"/>
<path d="M252.963 255.976L255.63 325.799C255.63 325.799 255.633 327.131 256.507 327.16C257.421 327.095 257.418 325.764 257.418 325.764L260.076 255.93M249.931 278.55C245.869 287.286 249.318 294.478 245.364 302.151C241.276 309.879 243.786 316.128 243.629 319.72C243.281 323.234 240.456 324.169 241.111 324.995C241.861 325.86 244.772 324.184 246.046 319.502C247.187 314.876 244.424 312.18 249.217 302.749C254.01 293.318 250.22 289.088 255 280.76" fill="#F6B40E"/>
<path d="M252.963 255.976L255.63 325.799C255.63 325.799 255.633 327.131 256.507 327.16C257.421 327.095 257.418 325.764 257.418 325.764L260.076 255.93M249.931 278.55C245.869 287.286 249.318 294.478 245.364 302.151C241.276 309.879 243.786 316.128 243.629 319.72C243.281 323.234 240.456 324.169 241.111 324.995C241.861 325.86 244.772 324.184 246.046 319.502C247.187 314.876 244.424 312.18 249.217 302.749C254.01 293.318 250.22 289.088 255 280.76" stroke="#85340A" stroke-width="1.1264"/>
<path d="M253.242 254.624L228.985 320.153C228.985 320.153 228.478 321.384 229.275 321.746C230.143 322.036 230.65 320.805 230.65 320.805L259.831 257.304M241.801 274.319C234.705 280.836 235.14 288.801 228.551 294.376C221.817 299.952 221.744 306.686 220.224 309.944C218.558 313.057 215.59 312.84 215.879 313.854C216.241 314.94 219.572 314.506 222.541 310.668C225.365 306.83 223.844 303.282 231.881 296.404C239.919 289.525 238.036 284.167 245.639 278.302" fill="#F6B40E"/>
<path d="M253.242 254.624L228.985 320.153C228.985 320.153 228.478 321.384 229.275 321.746C230.143 322.036 230.65 320.805 230.65 320.805L259.831 257.304M241.801 274.319C234.705 280.836 235.14 288.801 228.551 294.376C221.817 299.952 221.744 306.686 220.224 309.944C218.558 313.057 215.59 312.84 215.879 313.854C216.241 314.94 219.572 314.506 222.541 310.668C225.365 306.83 223.844 303.282 231.881 296.404C239.919 289.525 238.036 284.167 245.639 278.302" stroke="#85340A" stroke-width="1.1264"/>
<path d="M254.016 253.482L206.529 304.74C206.529 304.74 205.59 305.684 206.187 306.323C206.879 306.923 207.818 305.98 207.818 305.98L259.079 258.479M235.91 267.3C226.86 270.605 224.213 278.13 215.992 280.759C207.637 283.333 204.994 289.527 202.342 291.955C199.612 294.194 196.952 292.858 196.832 293.905C196.751 295.047 199.994 295.92 204.205 293.511C208.283 291.046 208.236 287.186 218.294 283.907C228.352 280.627 228.663 274.957 237.931 272.448" fill="#F6B40E"/>
<path d="M254.016 253.482L206.529 304.74C206.529 304.74 205.59 305.684 206.187 306.323C206.879 306.923 207.818 305.98 207.818 305.98L259.079 258.479M235.91 267.3C226.86 270.605 224.213 278.13 215.992 280.759C207.637 283.333 204.994 289.527 202.342 291.955C199.612 294.194 196.952 292.858 196.832 293.905C196.751 295.047 199.994 295.92 204.205 293.511C208.283 291.046 208.236 287.186 218.294 283.907C228.352 280.627 228.663 274.957 237.931 272.448" stroke="#85340A" stroke-width="1.1264"/>
<path d="M260.903 280.986C261.415 290.202 266.638 294.298 265.614 302.797C267.866 296.141 262.439 290.919 262.746 281.088M254.862 256.717L274.83 300.339L258.138 255.386" fill="#85340A"/>
<path d="M251.006 280.769C247.953 289.479 251.21 295.262 247.012 302.722C251.64 297.435 248.624 290.533 252.67 281.569M254.712 256.035L256.466 303.979L258.249 256.059" fill="#85340A"/>
<path d="M241.946 276.781C235.791 283.66 236.588 290.249 229.854 295.535C236.153 292.421 236.009 284.891 243.177 278.157M254.835 255.348L238.108 300.313L258.093 256.724" fill="#85340A"/>
<path d="M235.101 269.63C226.783 273.629 224.997 280.022 216.753 282.328C223.764 281.862 226.512 274.85 235.712 271.372M255.211 254.761L222.55 289.902L257.695 257.279" fill="#85340A"/>
<path d="M255.169 252.723L191.681 281.907C191.681 281.907 190.452 282.419 190.759 283.238C191.169 284.058 192.398 283.546 192.398 283.546L257.934 259.277M233.153 258.56C223.527 258.15 218.202 264.09 209.601 263.373C200.897 262.554 196.084 267.264 192.705 268.493C189.326 269.517 187.38 267.264 186.868 268.186C186.356 269.21 189.018 271.258 193.831 270.643C198.542 269.926 199.975 266.342 210.522 267.162C221.07 267.981 223.527 262.861 233.05 264.09" fill="#F6B40E"/>
<path d="M255.169 252.723L191.681 281.907C191.681 281.907 190.452 282.419 190.759 283.238C191.169 284.058 192.398 283.546 192.398 283.546L257.934 259.277M233.153 258.56C223.527 258.15 218.202 264.09 209.601 263.373C200.897 262.554 196.084 267.264 192.705 268.493C189.326 269.517 187.38 267.264 186.868 268.186C186.356 269.21 189.018 271.258 193.831 270.643C198.542 269.926 199.975 266.342 210.522 267.162C221.07 267.981 223.527 262.861 233.05 264.09" stroke="#85340A" stroke-width="1.1264"/>
<path d="M256.524 252.463L186.701 255.13C186.701 255.13 185.369 255.133 185.34 256.007C185.405 256.921 186.736 256.918 186.736 256.918L256.57 259.576M233.95 249.431C225.214 245.369 218.022 248.818 210.349 244.864C202.621 240.776 196.372 243.286 192.78 243.129C189.266 242.781 188.331 239.956 187.505 240.611C186.64 241.361 188.316 244.272 192.998 245.546C197.624 246.687 200.32 243.924 209.751 248.717C219.182 253.51 223.412 249.72 231.74 254.5" fill="#F6B40E"/>
<path d="M256.524 252.463L186.701 255.13C186.701 255.13 185.369 255.133 185.34 256.007C185.405 256.921 186.736 256.918 186.736 256.918L256.57 259.576M233.95 249.431C225.214 245.369 218.022 248.818 210.349 244.864C202.621 240.776 196.372 243.286 192.78 243.129C189.266 242.781 188.331 239.956 187.505 240.611C186.64 241.361 188.316 244.272 192.998 245.546C197.624 246.687 200.32 243.924 209.751 248.717C219.182 253.51 223.412 249.72 231.74 254.5" stroke="#85340A" stroke-width="1.1264"/>
<path d="M257.876 252.742L192.347 228.485C192.347 228.485 191.116 227.978 190.754 228.775C190.464 229.643 191.695 230.15 191.695 230.15L255.196 259.331M238.181 241.301C231.664 234.205 223.699 234.64 218.124 228.051C212.548 221.317 205.814 221.244 202.556 219.724C199.443 218.058 199.66 215.09 198.646 215.379C197.56 215.741 197.994 219.072 201.832 222.041C205.67 224.865 209.218 223.344 216.096 231.381C222.975 239.419 228.333 237.536 234.198 245.139" fill="#F6B40E"/>
<path d="M257.876 252.742L192.347 228.485C192.347 228.485 191.116 227.978 190.754 228.775C190.464 229.643 191.695 230.15 191.695 230.15L255.196 259.331M238.181 241.301C231.664 234.205 223.699 234.64 218.124 228.051C212.548 221.317 205.814 221.244 202.556 219.724C199.443 218.058 199.66 215.09 198.646 215.379C197.56 215.741 197.994 219.072 201.832 222.041C205.67 224.865 209.218 223.344 216.096 231.381C222.975 239.419 228.333 237.536 234.198 245.139" stroke="#85340A" stroke-width="1.1264"/>
<path d="M259.018 253.516L207.76 206.029C207.76 206.029 206.816 205.09 206.177 205.687C205.577 206.379 206.52 207.318 206.52 207.318L254.021 258.579M245.2 235.41C241.895 226.36 234.37 223.713 231.741 215.492C229.167 207.137 222.973 204.494 220.545 201.842C218.306 199.112 219.642 196.452 218.595 196.332C217.453 196.251 216.58 199.494 218.989 203.705C221.454 207.783 225.314 207.736 228.593 217.794C231.873 227.852 237.543 228.163 240.052 237.431" fill="#F6B40E"/>
<path d="M259.018 253.516L207.76 206.029C207.76 206.029 206.816 205.09 206.177 205.687C205.577 206.379 206.52 207.318 206.52 207.318L254.021 258.579M245.2 235.41C241.895 226.36 234.37 223.713 231.741 215.492C229.167 207.137 222.973 204.494 220.545 201.842C218.306 199.112 219.642 196.452 218.595 196.332C217.453 196.251 216.58 199.494 218.989 203.705C221.454 207.783 225.314 207.736 228.593 217.794C231.873 227.852 237.543 228.163 240.052 237.431" stroke="#85340A" stroke-width="1.1264"/>
<path d="M231.514 260.403C222.298 260.915 218.202 266.138 209.703 265.114C216.359 267.366 221.581 261.939 231.412 262.246M255.783 254.362L212.161 274.33L257.114 257.638" fill="#85340A"/>
<path d="M231.731 250.506C223.021 247.453 217.238 250.71 209.778 246.512C215.065 251.14 221.967 248.124 230.931 252.17M256.465 254.212L208.521 255.966L256.441 257.749" fill="#85340A"/>
<path d="M235.719 241.446C228.84 235.291 222.251 236.088 216.965 229.354C220.079 235.653 227.609 235.509 234.343 242.677M257.152 254.335L212.187 237.608L255.776 257.593" fill="#85340A"/>
<path d="M242.87 234.601C238.871 226.283 232.478 224.497 230.172 216.253C230.638 223.264 237.65 226.012 241.128 235.212M257.739 254.711L222.598 222.05L255.221 257.195" fill="#85340A"/>
<path d="M259.777 254.669L230.593 191.181C230.593 191.181 230.081 189.952 229.262 190.259C228.442 190.669 228.954 191.898 228.954 191.898L253.223 257.434M253.94 232.653C254.35 223.027 248.41 217.702 249.127 209.101C249.946 200.397 245.236 195.584 244.007 192.205C242.983 188.826 245.236 186.88 244.314 186.368C243.29 185.856 241.242 188.518 241.857 193.331C242.574 198.042 246.158 199.475 245.338 210.022C244.519 220.57 249.639 223.027 248.41 232.55" fill="#F6B40E"/>
<path d="M259.777 254.669L230.593 191.181C230.593 191.181 230.081 189.952 229.262 190.259C228.442 190.669 228.954 191.898 228.954 191.898L253.223 257.434M253.94 232.653C254.35 223.027 248.41 217.702 249.127 209.101C249.946 200.397 245.236 195.584 244.007 192.205C242.983 188.826 245.236 186.88 244.314 186.368C243.29 185.856 241.242 188.518 241.857 193.331C242.574 198.042 246.158 199.475 245.338 210.022C244.519 220.57 249.639 223.027 248.41 232.55" stroke="#85340A" stroke-width="1.1264"/>
<path d="M260.037 256.024L257.37 186.201C257.37 186.201 257.367 184.869 256.493 184.84C255.579 184.905 255.582 186.236 255.582 186.236L252.924 256.07M263.069 233.45C267.131 224.714 263.682 217.522 267.636 209.849C271.724 202.121 269.214 195.872 269.371 192.28C269.719 188.766 272.544 187.831 271.889 187.005C271.139 186.14 268.228 187.816 266.954 192.498C265.813 197.124 268.576 199.82 263.783 209.251C258.99 218.682 262.78 222.912 258 231.24" fill="#F6B40E"/>
<path d="M260.037 256.024L257.37 186.201C257.37 186.201 257.367 184.869 256.493 184.84C255.579 184.905 255.582 186.236 255.582 186.236L252.924 256.07M263.069 233.45C267.131 224.714 263.682 217.522 267.636 209.849C271.724 202.121 269.214 195.872 269.371 192.28C269.719 188.766 272.544 187.831 271.889 187.005C271.139 186.14 268.228 187.816 266.954 192.498C265.813 197.124 268.576 199.82 263.783 209.251C258.99 218.682 262.78 222.912 258 231.24" stroke="#85340A" stroke-width="1.1264"/>
<path d="M259.758 257.376L284.015 191.847C284.015 191.847 284.522 190.616 283.725 190.254C282.857 189.964 282.35 191.195 282.35 191.195L253.169 254.696M271.199 237.681C278.295 231.164 277.86 223.199 284.449 217.624C291.183 212.048 291.256 205.314 292.776 202.056C294.442 198.943 297.41 199.16 297.121 198.146C296.759 197.06 293.428 197.494 290.459 201.332C287.635 205.17 289.156 208.718 281.119 215.596C273.081 222.475 274.964 227.833 267.361 233.698" fill="#F6B40E"/>
<path d="M259.758 257.376L284.015 191.847C284.015 191.847 284.522 190.616 283.725 190.254C282.857 189.964 282.35 191.195 282.35 191.195L253.169 254.696M271.199 237.681C278.295 231.164 277.86 223.199 284.449 217.624C291.183 212.048 291.256 205.314 292.776 202.056C294.442 198.943 297.41 199.16 297.121 198.146C296.759 197.06 293.428 197.494 290.459 201.332C287.635 205.17 289.156 208.718 281.119 215.596C273.081 222.475 274.964 227.833 267.361 233.698" stroke="#85340A" stroke-width="1.1264"/>
<path d="M258.984 258.518L306.471 207.26C306.471 207.26 307.41 206.316 306.813 205.677C306.121 205.077 305.182 206.02 305.182 206.02L253.921 253.521M277.09 244.7C286.14 241.395 288.787 233.87 297.008 231.241C305.363 228.667 308.006 222.473 310.658 220.045C313.388 217.806 316.048 219.142 316.168 218.095C316.249 216.953 313.006 216.08 308.795 218.489C304.717 220.954 304.764 224.814 294.706 228.093C284.648 231.373 284.337 237.043 275.069 239.552" fill="#F6B40E"/>
<path d="M258.984 258.518L306.471 207.26C306.471 207.26 307.41 206.316 306.813 205.677C306.121 205.077 305.182 206.02 305.182 206.02L253.921 253.521M277.09 244.7C286.14 241.395 288.787 233.87 297.008 231.241C305.363 228.667 308.006 222.473 310.658 220.045C313.388 217.806 316.048 219.142 316.168 218.095C316.249 216.953 313.006 216.08 308.795 218.489C304.717 220.954 304.764 224.814 294.706 228.093C284.648 231.373 284.337 237.043 275.069 239.552" stroke="#85340A" stroke-width="1.1264"/>
<path d="M252.097 231.014C251.585 221.798 246.362 217.702 247.386 209.203C245.134 215.859 250.561 221.081 250.254 230.912M258.138 255.283L238.17 211.661L254.862 256.614" fill="#85340A"/>
<path d="M261.994 231.231C265.047 222.521 261.79 216.738 265.988 209.278C261.36 214.565 264.376 221.467 260.33 230.431M258.288 255.965L256.534 208.021L254.751 255.941" fill="#85340A"/>
<path d="M271.054 235.219C277.209 228.34 276.412 221.751 283.146 216.465C276.847 219.579 276.991 227.109 269.823 233.843M258.165 256.652L274.892 211.687L254.907 255.276" fill="#85340A"/>
<path d="M277.899 242.37C286.217 238.371 288.003 231.978 296.247 229.672C289.236 230.138 286.488 237.15 277.288 240.628M257.789 257.239L290.45 222.098L255.305 254.721" fill="#85340A"/>
<path d="M257.831 259.277L321.319 230.093C321.319 230.093 322.548 229.581 322.241 228.762C321.831 227.942 320.602 228.454 320.602 228.454L255.066 252.723M279.847 253.44C289.473 253.85 294.798 247.91 303.399 248.627C312.103 249.446 316.916 244.736 320.295 243.507C323.674 242.483 325.62 244.736 326.132 243.814C326.644 242.79 323.982 240.742 319.169 241.357C314.458 242.074 313.025 245.658 302.478 244.838C291.93 244.019 289.473 249.139 279.95 247.91" fill="#F6B40E"/>
<path d="M257.831 259.277L321.319 230.093C321.319 230.093 322.548 229.581 322.241 228.762C321.831 227.942 320.602 228.454 320.602 228.454L255.066 252.723M279.847 253.44C289.473 253.85 294.798 247.91 303.399 248.627C312.103 249.446 316.916 244.736 320.295 243.507C323.674 242.483 325.62 244.736 326.132 243.814C326.644 242.79 323.982 240.742 319.169 241.357C314.458 242.074 313.025 245.658 302.478 244.838C291.93 244.019 289.473 249.139 279.95 247.91" stroke="#85340A" stroke-width="1.1264"/>
<path d="M256.476 259.537L326.299 256.87C326.299 256.87 327.631 256.867 327.66 255.993C327.595 255.079 326.264 255.082 326.264 255.082L256.43 252.424M279.05 262.569C287.786 266.631 294.978 263.182 302.651 267.136C310.379 271.224 316.628 268.714 320.22 268.871C323.734 269.219 324.669 272.044 325.495 271.389C326.36 270.639 324.684 267.728 320.002 266.454C315.376 265.313 312.68 268.076 303.249 263.283C293.818 258.49 289.588 262.28 281.26 257.5" fill="#F6B40E"/>
<path d="M256.476 259.537L326.299 256.87C326.299 256.87 327.631 256.867 327.66 255.993C327.595 255.079 326.264 255.082 326.264 255.082L256.43 252.424M279.05 262.569C287.786 266.631 294.978 263.182 302.651 267.136C310.379 271.224 316.628 268.714 320.22 268.871C323.734 269.219 324.669 272.044 325.495 271.389C326.36 270.639 324.684 267.728 320.002 266.454C315.376 265.313 312.68 268.076 303.249 263.283C293.818 258.49 289.588 262.28 281.26 257.5" stroke="#85340A" stroke-width="1.1264"/>
<path d="M255.124 259.258L320.653 283.515C320.653 283.515 321.884 284.022 322.246 283.225C322.536 282.357 321.305 281.85 321.305 281.85L257.804 252.669M274.819 270.699C281.336 277.795 289.301 277.36 294.876 283.949C300.452 290.683 307.186 290.756 310.444 292.276C313.557 293.942 313.34 296.91 314.354 296.621C315.44 296.259 315.006 292.928 311.168 289.959C307.33 287.135 303.782 288.656 296.904 280.619C290.025 272.581 284.667 274.464 278.802 266.861" fill="#F6B40E"/>
<path d="M255.124 259.258L320.653 283.515C320.653 283.515 321.884 284.022 322.246 283.225C322.536 282.357 321.305 281.85 321.305 281.85L257.804 252.669M274.819 270.699C281.336 277.795 289.301 277.36 294.876 283.949C300.452 290.683 307.186 290.756 310.444 292.276C313.557 293.942 313.34 296.91 314.354 296.621C315.44 296.259 315.006 292.928 311.168 289.959C307.33 287.135 303.782 288.656 296.904 280.619C290.025 272.581 284.667 274.464 278.802 266.861" stroke="#85340A" stroke-width="1.1264"/>
<path d="M253.982 258.484L305.24 305.971C305.24 305.971 306.184 306.91 306.823 306.313C307.423 305.621 306.48 304.682 306.48 304.682L258.979 253.421M267.8 276.59C271.105 285.64 278.63 288.287 281.259 296.508C283.833 304.863 290.027 307.506 292.455 310.158C294.694 312.888 293.358 315.548 294.405 315.668C295.547 315.749 296.42 312.506 294.011 308.295C291.546 304.217 287.686 304.264 284.407 294.206C281.127 284.148 275.457 283.837 272.948 274.569" fill="#F6B40E"/>
<path d="M253.982 258.484L305.24 305.971C305.24 305.971 306.184 306.91 306.823 306.313C307.423 305.621 306.48 304.682 306.48 304.682L258.979 253.421M267.8 276.59C271.105 285.64 278.63 288.287 281.259 296.508C283.833 304.863 290.027 307.506 292.455 310.158C294.694 312.888 293.358 315.548 294.405 315.668C295.547 315.749 296.42 312.506 294.011 308.295C291.546 304.217 287.686 304.264 284.407 294.206C281.127 284.148 275.457 283.837 272.948 274.569" stroke="#85340A" stroke-width="1.1264"/>
<path d="M281.486 251.597C290.702 251.085 294.798 245.862 303.297 246.886C296.641 244.634 291.419 250.061 281.588 249.754M257.217 257.638L300.839 237.67L255.886 254.362" fill="#85340A"/>
<path d="M281.269 261.494C289.979 264.547 295.762 261.29 303.222 265.488C297.935 260.86 291.033 263.876 282.069 259.83M256.535 257.788L304.479 256.034L256.559 254.251" fill="#85340A"/>
<path d="M277.281 270.554C284.16 276.709 290.749 275.912 296.035 282.646C292.921 276.347 285.391 276.491 278.657 269.323M255.848 257.665L300.813 274.392L257.224 254.407" fill="#85340A"/>
<path d="M270.13 277.399C274.129 285.717 280.522 287.503 282.828 295.747C282.362 288.736 275.35 285.988 271.872 276.788M255.261 257.289L290.402 289.95L257.779 254.805" fill="#85340A"/>
<path d="M256.5 284.4C272.185 284.4 284.9 271.685 284.9 256C284.9 240.315 272.185 227.6 256.5 227.6C240.815 227.6 228.1 240.315 228.1 256C228.1 271.685 240.815 284.4 256.5 284.4Z" fill="#F6B40E" stroke="#85340A" stroke-width="1.5"/>
<path d="M266.2 250C264.2 250 262.4 250.8 261.3 252.5C263.5 254.5 268.3 254.7 271.6 252.3C270.909 251.555 270.075 250.958 269.146 250.546C268.218 250.133 267.216 249.913 266.2 249.9V250ZM266.2 250.4C268.1 250.4 269.8 251.2 270.1 252.1C267.9 254.5 264.4 254.3 262.2 252.5C263.2 251 264.7 250.4 266.2 250.4Z" fill="#843511"/>
<path d="M266.6 248.6C263.8 248.6 263.1 249.2 261.8 250.3C260.5 251.4 259.8 251.2 259.6 251.4C259.4 251.6 259.6 252.3 260 252.1C260.5 251.8 261.4 251.4 262.7 250.3C264 249.3 265.3 249.3 266.7 249.3C270.5 249.3 272.7 252.5 273.2 252.3C273.6 252.1 271 248.6 266.6 248.6Z" fill="#85340A"/>
<path d="M274.5 249.9C269.5 245.5 263.1 244.9 259.6 248.1C258.781 249.189 258.233 250.457 258 251.8C257.5 254.3 258.3 257 260.3 259.8C260 259.8 259.6 259.9 259.3 260.2C257.6 256.8 257 253.4 257.6 250.2L258.3 247.7C263.1 243.7 269.7 243.3 274.5 249.9Z" fill="#85340A"/>
<path d="M266.1 254.1C267.205 254.1 268.1 253.205 268.1 252.1C268.1 250.996 267.205 250.1 266.1 250.1C264.996 250.1 264.1 250.996 264.1 252.1C264.1 253.205 264.996 254.1 266.1 254.1Z" fill="#85340A"/>
<path d="M271.8 253.4C268.1 256.2 264.4 256 262.2 254.7C260 253.4 260 252.9 260.5 252.9C260.9 252.9 261.4 253.4 263.1 254.3C264.9 255.1 267.5 255.1 271.9 253.3L271.8 253.4Z" fill="#85340A"/>
<path d="M252.1 260C251.765 260.047 251.448 260.179 251.177 260.382C250.907 260.585 250.693 260.854 250.554 261.162C250.416 261.471 250.358 261.81 250.386 262.147C250.415 262.484 250.528 262.808 250.715 263.09C250.903 263.371 251.159 263.6 251.459 263.756C251.76 263.912 252.094 263.989 252.433 263.98C252.771 263.971 253.101 263.876 253.393 263.705C253.684 263.533 253.928 263.291 254.1 263C254.9 263.6 255.9 263.6 256.5 263.6H256.8C257.3 263.6 258.4 263.6 259.1 263C259.5 263.5 260.1 263.8 260.7 263.8C261.159 263.755 261.589 263.553 261.916 263.227C262.243 262.901 262.448 262.473 262.495 262.013C262.542 261.554 262.429 261.093 262.175 260.708C261.92 260.323 261.541 260.037 261.1 259.9C261.6 260.1 262 260.6 262 261.2C262 261.558 261.858 261.901 261.605 262.155C261.351 262.408 261.008 262.55 260.65 262.55C260.292 262.55 259.949 262.408 259.695 262.155C259.442 261.901 259.3 261.558 259.3 261.2C259.07 261.727 258.693 262.177 258.214 262.496C257.736 262.816 257.175 262.99 256.6 263C256.033 262.958 255.487 262.77 255.014 262.455C254.54 262.139 254.157 261.707 253.9 261.2C253.9 261.9 253.3 262.5 252.6 262.5C252.255 262.553 251.904 262.467 251.622 262.261C251.341 262.054 251.153 261.745 251.1 261.4C251.047 261.055 251.133 260.703 251.339 260.422C251.546 260.141 251.855 259.953 252.2 259.9L252.1 260ZM254.3 265.8C252.1 265.8 251.3 267.8 249.3 269.1C250.3 268.6 251.3 267.8 252.8 266.9C254.3 266 255.6 267.1 256.5 267.1C257.4 267.1 258.7 266 260.2 266.9C261.7 267.8 262.6 268.6 263.7 269.1C261.7 267.7 260.9 265.8 258.7 265.8C257.935 265.857 257.188 266.061 256.5 266.4C255.5 266 254.7 265.8 254.3 265.8Z" fill="#85340A"/>
<path d="M253.5 268.3C252.7 268.3 251.5 268.6 249.9 269.1C253.9 268.1 254.7 269.5 256.5 269.5C258.2 269.5 259.1 268.2 263.1 269.1C258.7 267.7 257.8 268.6 256.5 268.6C255.6 268.6 255 268.3 253.5 268.3Z" fill="#85340A"/>
<path d="M250.1 269H249.3C253.9 269.5 251.7 272.1 256.5 272.1C261.3 272.1 259.1 269.5 263.7 269.1C258.9 268.6 260.4 271.5 256.5 271.5C252.8 271.5 253.9 269 250.1 269Z" fill="#85340A"/>
<path d="M238.8 249.9C243.8 245.5 250.2 244.9 253.7 248.1C254.519 249.189 255.067 250.457 255.3 251.8C255.8 254.3 255 257 253 259.8C253.3 259.8 253.7 259.9 254 260.2C255.7 256.8 256.3 253.4 255.7 250.2L255 247.7C250.2 243.7 243.6 243.3 238.8 249.9Z" fill="#85340A"/>
<path d="M246.7 248.6C249.5 248.6 250.2 249.2 251.5 250.3C252.8 251.4 253.5 251.2 253.7 251.4C253.9 251.6 253.7 252.3 253.3 252.1C252.8 251.8 251.9 251.4 250.6 250.3C249.3 249.3 248 249.3 246.6 249.3C242.8 249.3 240.6 252.5 240.1 252.3C239.7 252.1 242.3 248.6 246.7 248.6Z" fill="#85340A"/>
<path d="M246.6 250C244.6 250 242.8 250.8 241.7 252.5C243.9 254.5 248.7 254.7 252 252.3C251.309 251.555 250.475 250.958 249.546 250.546C248.618 250.133 247.616 249.913 246.6 249.9V250ZM246.6 250.4C248.5 250.4 250.2 251.2 250.5 252.1C248.3 254.5 244.8 254.3 242.6 252.5C243.6 251 245.1 250.4 246.6 250.4Z" fill="#843511"/>
<path d="M246.8 254.1C247.905 254.1 248.8 253.205 248.8 252.1C248.8 250.996 247.905 250.1 246.8 250.1C245.695 250.1 244.8 250.996 244.8 252.1C244.8 253.205 245.695 254.1 246.8 254.1Z" fill="#85340A"/>
<path d="M241.5 253.4C245.2 256.2 248.9 256 251.1 254.7C253.3 253.4 253.3 252.9 252.8 252.9C252.4 252.9 251.9 253.4 250.2 254.3C248.4 255.1 245.8 255.1 241.4 253.3L241.5 253.4Z" fill="#85340A"/>
</g>
<defs>
<clipPath id="clip0_103_1604">
<rect width="512" height="512" fill="white" transform="translate(0.5)"/>
</clipPath>
</defs>
</svg>
