<svg width="513" height="512" viewBox="0 0 513 512" fill="none" xmlns="http://www.w3.org/2000/svg">
<g clip-path="url(#clip0_103_1683)">
<path d="M0.5 0V512H512.5V0H0.5Z" fill="#006233"/>
<path fill-rule="evenodd" clip-rule="evenodd" d="M192.172 265.217C182.128 278.943 189.38 287.87 199.734 288.505C206.559 288.964 220.752 279.719 220.714 268.852L216.836 266.876C219.007 272.451 216.758 274.215 212.143 278.026C203.03 285.541 184.416 286.071 192.172 265.217Z" fill="white" stroke="white" stroke-width="0.147963"/>
<path fill-rule="evenodd" clip-rule="evenodd" d="M271.786 301.208C328.325 302.655 346.319 252.867 311.418 210.243L307.966 214.936C310.216 234.802 313.473 254.385 313.783 274.744C306.958 282.048 297.031 279.331 295.053 271.216C295.169 260.207 291.214 250.891 286.211 242L283.419 246.693C286.677 253.997 290.206 262.218 290.942 271.216C274.81 288.823 256.972 292.387 263.603 269.24C250.845 289.529 270.157 303.819 292.028 272.592C296.72 293.904 314.869 280.672 315.955 276.085C317.933 262.112 316.924 239.6 312.93 221.817C328.674 246.622 329.217 264.512 320.841 276.473C311.534 289.776 291.291 295.986 271.786 301.208Z" fill="white" stroke="white" stroke-width="0.369908"/>
<path fill-rule="evenodd" clip-rule="evenodd" d="M303.856 244.928C291.757 245.74 285.552 243.482 292.106 235.331C298.582 227.356 304.631 233.708 306.26 244.364C307.772 254.349 285.009 267.087 277.137 267.087C265.232 267.087 259.725 253.15 270.7 240.623C256.584 277.179 301.18 255.972 303.856 244.928ZM295.48 236.46C294.006 236.389 292.92 238.753 293.657 239.212C295.79 240.553 299.163 239.741 299.512 239.071C300.249 237.589 297.535 236.53 295.48 236.46Z" fill="white" stroke="white" stroke-width="0.369908"/>
<path fill-rule="evenodd" clip-rule="evenodd" d="M238.164 262.183C226.53 283.001 238.125 291.61 253.055 289.211C261.742 287.764 272.755 282.154 279.115 274.497C279.231 257.631 278.96 240.906 277.331 224.569C283.148 218.253 276.827 218.288 274.616 211.513C273.608 215.465 271.165 219.735 273.531 222.805C275.198 239.283 276.129 255.973 276.09 272.98C264.379 281.554 255.576 284.73 249.294 284.659C236.303 284.553 233.511 274.603 238.164 262.183Z" fill="white" stroke="white" stroke-width="0.369908"/>
<path fill-rule="evenodd" clip-rule="evenodd" d="M261.936 267.687C261.742 251.985 261.47 234.166 259.919 223.193C265.969 217.089 259.609 216.947 257.631 210.102C256.468 213.983 253.908 218.218 256.157 221.358C257.166 238.154 258.135 254.949 258.329 271.745C259.725 270.933 261.315 270.616 261.936 267.687Z" fill="white" stroke="white" stroke-width="0.369908"/>
<path fill-rule="evenodd" clip-rule="evenodd" d="M216.797 266.946C215.323 265.252 214.276 263.347 213.074 261.689C212.88 259.324 214.625 257.137 214.858 255.937C216.836 258.725 217.999 260.842 219.589 262.218M221.683 263.312C224.591 264.37 228.159 264.37 231.455 264.441C244.175 264.653 257.554 262.747 256.119 278.414C255.699 284.282 252.863 289.79 248.176 293.839C243.49 297.887 237.297 300.179 230.835 300.255C214.664 300.114 200.859 283.883 225.794 253.996C228.198 253.644 231.339 254.243 233.937 254.455C238.397 254.773 242.973 254.385 248.208 250.574C247.587 240.729 247.587 231.414 246.269 222.522C244.02 219.382 246.579 215.183 247.742 211.266C249.72 218.112 256.041 218.253 250.03 224.392C251.465 234.272 251.62 244.328 251.62 250.327C248.596 254.526 246.23 258.972 237.388 260.665C228.353 259.466 224.281 247.963 214.858 251.774C217.456 241.4 241.383 239.036 243.787 247.222C242.197 255.761 219.86 252.338 213.927 279.931C212.105 288.435 221.954 296.268 232.076 295.633C241.964 295.033 252.512 288.787 253.559 278.273C254.374 269.487 240.762 270.51 235.062 270.616C226.763 270.792 221.528 269.628 218.387 267.969M226.879 248.951C228.353 247.68 233.511 246.798 235.372 248.845C233.976 249.692 232.619 250.609 231.494 251.703C229.555 250.786 228.275 249.868 226.879 248.951Z" fill="white"/>
<path d="M216.797 266.946C215.323 265.252 214.276 263.347 213.074 261.689C212.88 259.324 214.625 257.137 214.858 255.937C216.836 258.725 217.999 260.842 219.589 262.218M221.683 263.312C224.591 264.37 228.159 264.37 231.455 264.441C244.175 264.653 257.554 262.747 256.119 278.414C255.699 284.282 252.863 289.79 248.176 293.839C243.49 297.887 237.297 300.179 230.835 300.255C214.664 300.114 200.859 283.883 225.794 253.996C228.198 253.644 231.339 254.243 233.937 254.455C238.397 254.773 242.973 254.385 248.208 250.574C247.587 240.729 247.587 231.414 246.269 222.522C244.02 219.382 246.579 215.183 247.742 211.266C249.72 218.112 256.041 218.253 250.03 224.392C251.465 234.272 251.62 244.328 251.62 250.327C248.596 254.526 246.23 258.972 237.388 260.665C228.353 259.466 224.281 247.963 214.858 251.774C217.456 241.4 241.383 239.036 243.787 247.222C242.197 255.761 219.86 252.338 213.927 279.931C212.105 288.435 221.954 296.268 232.076 295.633C241.964 295.033 252.512 288.787 253.559 278.273C254.374 269.487 240.762 270.51 235.062 270.616C226.763 270.792 221.528 269.628 218.387 267.969M226.879 248.951C228.353 247.68 233.511 246.798 235.372 248.845C233.976 249.692 232.619 250.609 231.494 251.703C229.555 250.786 228.275 249.868 226.879 248.951Z" stroke="white" stroke-width="0.147963"/>
<path fill-rule="evenodd" clip-rule="evenodd" d="M239.521 219.77C240.805 222.07 241.508 224.601 241.577 227.18C240.724 230.85 237.272 234.272 233.704 234.378C231.494 234.449 229.012 233.884 227.267 230.744C227.073 230.356 226.143 229.438 225.251 229.862C221.334 235.719 218.426 238.189 214.897 238.154C207.839 238.048 209.933 232.332 203.418 230.567C200.704 230.497 196.244 233.002 193.956 237.907C185.27 260.313 177.359 237.836 180.732 227.392C181.237 237.377 183.873 243.305 186.588 243.129C188.566 242.952 190.311 238.789 192.831 234.413C194.77 231.061 199.424 225.028 204.349 225.028C208.847 225.133 206.016 232.649 215.013 232.543C219.356 232.473 223.35 229.438 227.384 223.369C228.275 223.228 228.508 224.675 228.702 225.169C229.322 227.25 233.278 232.967 238.629 227.744C238.358 226.615 238.474 224.745 237.117 224.357L239.521 219.77Z" fill="white" stroke="white" stroke-width="0.369908"/>
<path fill-rule="evenodd" clip-rule="evenodd" d="M267.791 201.21C263.021 203.363 259.531 201.387 257.554 199.481C261.005 198.846 263.681 197.717 264.456 195.247C262.905 192.071 259.221 190.695 254.025 190.66C247.083 190.836 243.516 193.377 243.089 196.87C246.308 196.976 249.216 196.164 250.457 198.987C244.756 201.528 238.048 202.445 230.757 202.41C218.813 202.974 217.068 198.07 213.927 193.765C213.695 193.483 212.647 193.024 212.105 193.095C208.421 193.095 205.706 204.809 201.557 204.774C197.407 204.28 198.338 197.223 197.136 193.201C196.128 199.517 198.416 223.016 211.251 197.505C211.639 196.658 212.182 196.905 212.531 197.611C215.982 204.739 223.001 207.209 230.563 207.562C236.884 207.879 244.95 205.374 253.598 200.928C255.886 203.221 257.709 205.833 262.517 206.327C268.14 206.574 274.151 202.869 275.508 198.282C276.206 195.917 276.323 191.26 273.569 191.189C269.73 191.083 266.938 199.552 267.83 207.173C267.908 207.067 268.334 205.268 268.334 205.268M251.349 195.106C253.87 194.047 256.313 193.553 258.252 195.882C257.085 196.18 255.984 196.658 254.994 197.294C253.908 196.517 252.435 196.129 251.349 195.106ZM269.885 200.363C270.506 197.858 270.855 195.847 273.104 194.541C273.569 197.188 273.647 198.67 269.885 200.363ZM285.009 204.245C284.272 202.092 283.535 200.222 283.303 197.893C282.76 193.165 287.22 190.484 291.253 190.872C295.402 191.26 298.155 192.671 302.111 193.906C305.213 194.859 309.401 195.6 313.395 196.623C315.644 197.541 313.395 199.94 312.814 200.258C302.809 203.821 295.712 209.467 289.352 209.714C285.552 209.89 282.178 207.632 279.115 203.01C278.921 194.047 278.572 183.532 277.602 176.934C279.076 175.593 279.386 174.605 280.084 173.511C280.86 182.227 281.17 191.401 281.364 200.646C282.178 202.233 283.186 203.574 285.009 204.245ZM291.408 204.95C286.056 206.326 286.715 202.198 286.211 199.658C285.63 196.694 286.017 193.342 290.167 194.188C295.557 195.494 300.482 197.223 305.252 199.058L291.408 204.95Z" fill="white"/>
<path d="M267.791 201.21C263.021 203.363 259.531 201.387 257.554 199.481C261.005 198.846 263.681 197.717 264.456 195.247C262.905 192.071 259.221 190.695 254.025 190.66C247.083 190.836 243.516 193.377 243.089 196.87C246.308 196.976 249.216 196.164 250.457 198.987C244.756 201.528 238.048 202.445 230.757 202.41C218.813 202.974 217.068 198.07 213.927 193.765C213.695 193.483 212.647 193.024 212.105 193.095C208.421 193.095 205.706 204.809 201.557 204.774C197.407 204.28 198.338 197.223 197.136 193.201C196.128 199.517 198.416 223.016 211.251 197.505C211.639 196.658 212.182 196.905 212.531 197.611C215.982 204.739 223.001 207.209 230.563 207.561C236.884 207.879 244.95 205.374 253.598 200.928C255.886 203.221 257.709 205.833 262.517 206.327C268.14 206.574 274.151 202.869 275.508 198.282C276.206 195.917 276.323 191.26 273.569 191.189C269.73 191.083 266.938 199.552 267.83 207.173C267.908 207.067 268.334 205.268 268.334 205.268M251.349 195.106C253.87 194.047 256.313 193.553 258.252 195.882C257.085 196.18 255.984 196.658 254.994 197.294C253.908 196.517 252.435 196.129 251.349 195.106ZM269.885 200.363C270.506 197.858 270.855 195.847 273.104 194.541C273.569 197.188 273.647 198.67 269.885 200.363ZM285.009 204.245C284.272 202.092 283.535 200.222 283.303 197.893C282.76 193.165 287.22 190.484 291.253 190.872C295.402 191.26 298.155 192.671 302.111 193.906C305.213 194.859 309.401 195.6 313.395 196.623C315.644 197.541 313.395 199.94 312.814 200.258C302.809 203.821 295.712 209.467 289.352 209.714C285.552 209.89 282.178 207.632 279.115 203.01C278.921 194.047 278.572 183.532 277.602 176.934C279.076 175.593 279.386 174.605 280.084 173.511C280.86 182.227 281.17 191.401 281.364 200.646C282.178 202.233 283.186 203.574 285.009 204.245ZM291.408 204.95C286.056 206.326 286.715 202.198 286.211 199.658C285.63 196.694 286.017 193.342 290.167 194.188C295.557 195.494 300.482 197.223 305.252 199.058L291.408 204.95Z" stroke="white" stroke-width="0.147963"/>
<path fill-rule="evenodd" clip-rule="evenodd" d="M286.173 209.326L286.909 212.607H287.491L287.258 209.537" fill="white"/>
<path d="M286.173 209.326L286.909 212.607H287.491L287.258 209.537" stroke="white" stroke-width="0.147963"/>
<path fill-rule="evenodd" clip-rule="evenodd" d="M200.82 243.623L203.534 241.082L206.675 243.517L203.767 245.881L200.82 243.623ZM207.722 242.776L210.476 240.235L213.617 242.67L210.708 245.034L207.722 242.776ZM188.527 216.453L191.28 213.913L194.421 216.347L191.513 218.712L188.527 216.453ZM189.768 223.934L192.521 221.393L195.623 223.828L192.715 226.192L189.768 223.934ZM239.599 236.46L242.119 234.59L244.446 236.883L241.809 238.577L239.599 236.46ZM206.326 188.578L208.11 186.92L210.166 188.508L208.265 190.06L206.326 188.578ZM210.864 188.049L212.647 186.355L214.703 187.978L212.802 189.496L210.864 188.049ZM306.105 206.997L304.399 208.302L302.77 206.785L304.554 205.586L306.105 206.997Z" fill="white" stroke="white" stroke-width="1.47963" stroke-linecap="round" stroke-linejoin="round"/>
<path fill-rule="evenodd" clip-rule="evenodd" d="M225.832 253.82L225.638 256.608L230.525 257.031L234.441 254.349L225.832 253.82Z" fill="white" stroke="white" stroke-width="0.147963"/>
<path fill-rule="evenodd" clip-rule="evenodd" d="M267.132 201.74L268.567 201.457L268.412 205.092L267.52 205.409L267.132 201.74Z" fill="white" stroke="white" stroke-width="0.369908"/>
<path d="M256.5 348C311.5 348 356.3 307.3 356.3 257.2C356.166 243.842 352.967 230.692 346.951 218.764C340.936 206.836 332.262 196.448 321.6 188.4C334.72 202.263 342.053 220.612 342.1 239.7C342.1 283.2 303.8 318.5 256.5 318.5C209.2 318.5 170.9 283.2 170.9 239.7C170.964 220.597 178.334 202.242 191.5 188.4C180.819 196.438 172.127 206.822 166.093 218.75C160.06 230.678 156.846 243.833 156.7 257.2C156.7 307.3 201.5 348.1 256.5 348.1V348Z" fill="white"/>
<path d="M242.988 398.525C220.969 408.543 193.445 405.81 170.174 392.15C169.173 391.694 168.673 392.377 169.674 394.882C172.176 401.485 174.178 406.721 166.671 416.511C163.418 420.837 167.171 421.52 172.676 421.065C200.701 418.561 228.225 412.869 241.487 408.087L242.988 398.525ZM242.488 410.364C233.73 413.552 218.717 417.422 201.952 420.154C195.196 421.065 195.446 424.936 207.457 426.302C219.718 427.44 235.482 419.471 244.99 412.413L242.488 410.364Z" fill="white" stroke="black" stroke-width="1.90947"/>
<path d="M256.5 388.507C259.503 388.507 265.007 387.368 270.512 386.685C280.771 385.092 273.265 399.435 256.5 399.435V404.217C273.515 404.217 291.281 387.368 287.527 379.855C282.273 368.926 267.76 378.261 256.5 378.261C245.24 378.261 230.727 368.926 225.473 379.855C221.719 387.368 239.485 404.217 256.5 404.217V399.435C239.735 399.435 232.229 385.092 242.488 386.685C247.992 387.368 253.497 388.507 256.5 388.507Z" fill="white"/>
<path d="M256.5 399.435C273.265 399.435 280.771 385.092 270.512 386.685C265.007 387.368 259.503 388.507 256.5 388.507C253.497 388.507 247.992 387.368 242.488 386.685C232.229 385.092 239.735 399.435 256.5 399.435ZM256.5 399.435V404.217M256.5 404.217C273.515 404.217 291.281 387.368 287.527 379.855C282.273 368.926 267.76 378.261 256.5 378.261C245.24 378.261 230.727 368.926 225.473 379.855C221.719 387.368 239.485 404.217 256.5 404.217Z" stroke="black" stroke-width="1.90947"/>
<path d="M270.012 398.525C292.031 408.543 319.556 405.81 342.826 392.15C343.827 391.694 344.327 392.377 343.326 394.882C340.824 401.485 338.823 406.721 346.329 416.511C349.582 420.837 345.829 421.52 340.324 421.065C312.299 418.561 284.775 412.869 271.513 408.087L270.012 398.525ZM270.512 410.364C279.27 413.552 294.033 417.422 311.048 420.154C317.804 421.065 317.554 424.936 305.543 426.302C293.282 427.44 277.519 419.471 268.01 412.413L270.512 410.364Z" fill="white" stroke="black" stroke-width="1.90947"/>
<path d="M257.251 408.087C257.751 411.958 258.502 420.382 264.257 416.739C272.014 411.958 273.765 408.315 273.765 401.485C273.765 397.159 268.01 390.784 256.5 390.784C244.99 390.784 239.235 397.159 239.235 401.485C239.235 408.315 240.986 411.958 248.743 416.739C254.498 420.382 254.999 411.958 255.749 408.087C256 406.721 257.251 407.177 257.251 408.087Z" fill="white" stroke="black" stroke-width="1.90947"/>
<path d="M249.244 116.429C245.991 99.5808 218.717 98.4424 214.463 95.7102C209.459 92.7504 210.209 95.7102 211.961 100.264C216.965 112.103 233.98 116.884 241.737 118.251C247.993 119.161 249.994 119.617 249.244 116.429Z" fill="white" stroke="black" stroke-width="1.90947"/>
<path d="M257.501 116.885C260.253 99.5808 233.23 91.3844 229.977 87.5138C226.223 83.4156 225.723 85.92 227.475 90.7013C230.727 100.947 242.488 113.014 249.494 116.201C255.249 118.934 257 120.072 257.501 116.885Z" fill="white" stroke="black" stroke-width="1.90947"/>
<path d="M279.771 126.902C282.273 106.183 260.253 102.996 254.498 96.3932C250.745 92.295 250.495 94.5718 251.746 99.3531C254.248 109.826 265.258 122.121 272.014 125.992C277.268 128.951 279.52 130.09 279.771 126.902Z" fill="white" stroke="black" stroke-width="1.90947"/>
<path d="M273.014 122.349C250.244 108.916 234.23 116.429 227.725 115.746C221.469 115.063 219.467 118.706 230.227 124.17C243.489 130.773 262.005 129.862 269.261 127.358C276.768 124.626 274.516 123.26 273.014 122.349ZM307.295 131.456C300.288 109.144 284.024 112.786 279.27 110.054C274.516 107.322 274.015 108.005 275.016 113.014C277.018 121.894 293.783 131.684 302.04 134.644C305.043 135.554 308.796 136.92 307.295 131.456Z" fill="white" stroke="black" stroke-width="1.90947"/>
<path d="M304.042 135.327C284.525 120.983 269.261 131.684 263.256 130.09C258.752 128.952 260.754 131.684 262.505 132.822C275.016 140.791 290.53 145.117 302.541 140.108C307.295 138.286 307.545 137.831 304.042 135.327ZM346.329 149.898C346.579 135.782 314.551 129.862 307.795 121.21C303.792 115.974 300.289 118.706 302.29 127.13C305.293 138.059 327.312 150.126 339.323 152.403C346.579 153.769 346.329 151.492 346.329 149.898Z" fill="white" stroke="black" stroke-width="1.90947"/>
<path d="M345.328 152.403C325.06 135.782 308.045 141.246 301.79 139.653C295.534 138.286 293.032 141.702 302.791 148.532C314.801 156.729 333.318 158.322 341.074 156.729C348.831 155.135 346.83 153.541 345.328 152.403ZM381.61 176.764C375.855 152.63 357.589 147.621 353.085 143.068C348.831 138.514 344.327 139.88 348.081 150.809C352.585 163.787 367.348 175.171 375.104 177.903C382.611 180.863 382.111 178.586 381.61 176.764Z" fill="white" stroke="black" stroke-width="1.90947"/>
<path d="M381.36 179.952C366.597 158.322 347.33 159.005 341.325 156.045C335.57 152.858 331.566 155.59 339.323 164.925C348.331 176.309 366.847 182.684 375.355 183.139C383.862 183.595 382.361 181.546 381.36 179.952Z" fill="white" stroke="black" stroke-width="1.90947"/>
<path d="M400.376 205.68C408.884 181.09 389.367 171.983 387.365 167.885C385.113 163.787 382.861 163.787 381.61 168.113C376.105 185.644 393.871 202.72 396.623 206.135C399.376 209.323 399.876 207.729 400.376 205.68Z" fill="white" stroke="black" stroke-width="1.90947"/>
<path d="M396.373 212.51C389.617 184.961 371.851 186.555 367.848 182.684C363.594 178.813 363.094 181.546 363.844 186.555C365.846 199.988 383.612 209.095 391.619 213.648C394.121 215.015 397.124 216.608 396.373 212.51ZM413.388 244.841C425.649 218.885 411.136 201.354 406.632 197.483C402.128 193.84 399.376 192.247 400.877 197.483C402.879 205.452 395.873 225.943 406.632 240.97C410.135 245.979 410.636 250.76 413.388 244.841Z" fill="white" stroke="black" stroke-width="1.90947"/>
<path d="M406.882 250.077C409.635 234.14 399.626 219.568 388.866 213.876C382.611 210.461 382.361 211.372 382.361 216.153C382.861 230.952 398.124 243.247 402.628 250.077C406.882 256.452 406.632 251.671 406.882 250.077Z" fill="white" stroke="black" stroke-width="1.90947"/>
<path d="M404.13 291.515C395.122 261.461 413.888 244.158 419.644 240.742C425.148 237.099 428.651 235.733 426.149 241.425C422.396 249.85 426.399 273.301 412.137 288.1C407.633 293.109 405.881 298.345 404.13 291.515Z" fill="white" stroke="black" stroke-width="1.90947"/>
<path d="M406.132 284.912C413.638 258.729 397.374 243.93 392.37 240.97C387.615 238.01 384.613 236.872 386.865 241.653C389.867 248.939 386.614 269.43 399.125 282.18C403.129 286.506 404.63 290.832 406.132 284.912Z" fill="white" stroke="black" stroke-width="1.90947"/>
<path d="M396.873 272.618C383.362 285.823 383.111 305.176 389.117 316.56C392.87 323.163 393.37 322.707 396.873 317.926C406.382 304.037 400.627 284.002 401.127 275.122C401.377 266.698 398.375 271.252 396.873 272.618Z" fill="white" stroke="black" stroke-width="1.90947"/>
<path d="M419.143 293.564C419.143 311.779 406.882 326.578 393.871 331.132C386.364 333.636 386.364 332.953 387.365 327.489C390.868 306.997 408.133 299.484 414.389 292.881C420.394 286.506 419.143 291.743 419.143 293.564Z" fill="white" stroke="black" stroke-width="1.90947"/>
<path d="M372.602 347.752C394.622 329.538 382.861 316.788 383.862 304.948C384.363 298.573 381.61 300.167 379.108 302.444C365.096 314.966 364.345 337.279 367.348 345.931C368.599 349.801 370.6 349.346 372.602 347.752Z" fill="white" stroke="black" stroke-width="1.90947"/>
<path d="M402.128 335.913C394.872 355.948 375.605 368.243 359.34 368.926C349.832 369.382 350.082 368.699 353.335 362.779C365.596 341.377 387.365 338.872 397.124 333.408C406.132 328.399 402.879 333.863 402.128 335.913Z" fill="white" stroke="black" stroke-width="1.90947"/>
<path d="M342.325 373.48C370.85 360.502 365.095 338.873 370.35 333.408C374.103 329.538 369.599 329.993 367.347 331.359C350.583 340.239 337.071 354.355 336.821 369.382C336.821 375.074 337.321 375.757 342.325 373.48Z" fill="white" stroke="black" stroke-width="1.90947"/>
<path d="M303.291 397.614C339.323 402.851 356.088 378.033 366.597 375.757C372.102 374.618 368.098 372.569 365.346 372.341C341.325 369.837 310.798 380.083 301.54 391.467C297.786 396.02 297.786 396.931 303.291 397.614Z" fill="white" stroke="black" stroke-width="1.90947"/>
<path d="M339.823 358.681C332.567 380.31 305.543 398.069 285.275 399.435C275.767 400.118 275.767 399.208 279.27 393.516C295.534 366.649 323.809 362.096 333.818 355.265C342.325 349.346 340.574 356.631 339.823 358.681ZM263.756 116.429C267.009 99.5808 294.283 98.4424 298.537 95.7102C303.541 92.7504 302.791 95.7102 301.039 100.264C296.035 112.103 279.02 116.884 271.263 118.251C265.007 119.161 263.006 119.617 263.756 116.429Z" fill="white" stroke="black" stroke-width="1.90947"/>
<path d="M255.499 116.885C252.747 99.5808 279.771 91.3844 283.023 87.5138C286.777 83.4156 287.277 85.92 285.526 90.7013C282.273 100.947 270.512 113.014 263.506 116.201C257.751 118.934 256 120.072 255.499 116.885Z" fill="white" stroke="black" stroke-width="1.90947"/>
<path d="M233.23 126.902C230.727 106.183 252.747 102.996 258.502 96.3932C262.255 92.295 262.505 94.5718 261.254 99.3531C258.752 109.826 247.742 122.121 240.986 125.992C235.732 128.951 233.48 130.09 233.23 126.902Z" fill="white" stroke="black" stroke-width="1.90947"/>
<path d="M239.985 122.349C262.755 108.916 278.77 116.429 285.275 115.746C291.531 115.063 293.533 118.706 282.773 124.17C269.511 130.773 250.995 129.862 243.739 127.358C236.232 124.626 238.484 123.26 239.985 122.349ZM205.705 131.456C212.711 109.144 228.976 112.786 233.73 110.054C238.484 107.322 238.985 108.005 237.984 113.014C235.982 121.894 219.217 131.684 210.96 134.644C207.957 135.554 204.204 136.92 205.705 131.456Z" fill="white" stroke="black" stroke-width="1.90947"/>
<path d="M208.958 135.327C228.475 120.983 243.739 131.684 249.744 130.09C254.248 128.952 252.246 131.684 250.495 132.822C237.984 140.791 222.47 145.117 210.46 140.108C205.705 138.286 205.455 137.831 208.958 135.327ZM166.671 149.898C166.421 135.782 198.449 129.862 205.205 121.21C209.209 115.974 212.712 118.706 210.71 127.13C207.707 138.059 185.688 150.126 173.677 152.403C166.421 153.769 166.671 151.492 166.671 149.898Z" fill="white" stroke="black" stroke-width="1.90947"/>
<path d="M167.672 152.403C187.94 135.782 204.955 141.246 211.21 139.653C217.466 138.286 219.968 141.702 210.209 148.532C198.199 156.729 179.683 158.322 171.926 156.729C164.169 155.135 166.171 153.541 167.672 152.403ZM131.39 176.764C137.145 152.63 155.411 147.621 159.915 143.068C164.169 138.514 168.673 139.88 164.92 150.809C160.416 163.787 145.653 175.171 137.896 177.903C130.389 180.863 130.89 178.586 131.39 176.764Z" fill="white" stroke="black" stroke-width="1.90947"/>
<path d="M131.64 179.952C146.403 158.322 165.67 159.005 171.675 156.045C177.43 152.858 181.434 155.59 173.677 164.925C164.669 176.309 146.153 182.684 137.645 183.139C129.138 183.595 130.639 181.546 131.64 179.952Z" fill="white" stroke="black" stroke-width="1.90947"/>
<path d="M112.624 205.68C104.116 181.09 123.633 171.983 125.635 167.885C127.887 163.787 130.139 163.787 131.39 168.113C136.895 185.644 119.129 202.72 116.377 206.135C113.624 209.323 113.124 207.729 112.624 205.68Z" fill="white" stroke="black" stroke-width="1.90947"/>
<path d="M116.627 212.51C123.383 184.961 141.149 186.555 145.152 182.684C149.406 178.813 149.906 181.546 149.156 186.555C147.154 199.988 129.388 209.095 121.381 213.648C118.879 215.015 115.876 216.608 116.627 212.51ZM99.6122 244.841C87.3514 218.885 101.864 201.354 106.368 197.483C110.872 193.84 113.624 192.247 112.123 197.483C110.121 205.452 117.128 225.943 106.368 240.97C102.865 245.979 102.365 250.76 99.6122 244.841Z" fill="white" stroke="black" stroke-width="1.90947"/>
<path d="M106.118 250.077C103.365 234.14 113.374 219.568 124.134 213.876C130.389 210.461 130.639 211.372 130.639 216.153C130.139 230.952 114.876 243.247 110.372 250.077C106.118 256.452 106.368 251.671 106.118 250.077Z" fill="white" stroke="black" stroke-width="1.90947"/>
<path d="M108.87 291.515C117.878 261.461 99.1116 244.158 93.3566 240.742C87.8517 237.099 84.3487 235.733 86.8509 241.425C90.6042 249.85 86.6006 273.301 100.863 288.1C105.367 293.109 106.868 298.345 108.87 291.515Z" fill="white" stroke="black" stroke-width="1.90947"/>
<path d="M106.869 284.912C99.3619 258.729 115.626 243.93 120.631 240.97C125.385 238.01 128.387 236.872 126.135 241.653C123.133 248.939 126.386 269.43 113.875 282.18C109.871 286.506 108.37 290.832 106.869 284.912Z" fill="white" stroke="black" stroke-width="1.90947"/>
<path d="M116.127 272.618C129.638 285.823 129.889 305.176 123.883 316.56C120.13 323.163 119.63 322.707 116.127 317.926C106.618 304.037 112.373 284.002 111.873 275.122C111.623 266.698 114.625 271.252 116.127 272.618Z" fill="white" stroke="black" stroke-width="1.90947"/>
<path d="M93.857 293.564C93.857 311.779 106.118 326.578 119.129 331.132C126.636 333.636 126.636 332.953 125.635 327.489C122.132 306.997 104.867 299.484 98.6112 292.881C92.6059 286.506 93.857 291.743 93.857 293.564Z" fill="white" stroke="black" stroke-width="1.90947"/>
<path d="M140.398 347.752C118.379 329.538 130.139 316.788 129.138 304.948C128.638 298.573 131.39 300.167 133.892 302.444C147.905 314.966 148.655 337.279 145.653 345.931C144.402 349.801 142.4 349.346 140.398 347.752Z" fill="white" stroke="black" stroke-width="1.90947"/>
<path d="M110.872 335.913C118.128 355.948 137.395 368.243 153.66 368.926C163.168 369.382 162.918 368.699 159.665 362.779C147.404 341.377 125.635 338.872 115.876 333.408C106.869 328.399 110.121 333.863 110.872 335.913Z" fill="white" stroke="black" stroke-width="1.90947"/>
<path d="M170.675 373.48C142.149 360.502 147.905 338.873 142.65 333.408C138.897 329.538 143.401 329.993 145.653 331.359C162.417 340.239 175.929 354.355 176.179 369.382C176.179 375.074 175.679 375.757 170.675 373.48Z" fill="white" stroke="black" stroke-width="1.90947"/>
<path d="M209.709 397.614C173.677 402.851 156.912 378.033 146.403 375.757C140.898 374.618 144.902 372.569 147.654 372.341C171.675 369.837 202.202 380.083 211.46 391.467C215.214 396.02 215.214 396.931 209.709 397.614Z" fill="white" stroke="black" stroke-width="1.90947"/>
<path d="M173.177 358.681C180.433 380.31 207.457 398.069 227.725 399.435C237.233 400.118 237.233 399.208 233.73 393.516C217.466 366.649 189.191 362.096 179.182 355.265C170.675 349.346 172.426 356.632 173.177 358.681Z" fill="white" stroke="black" stroke-width="1.90947"/>
<path d="M298.8 137.4C294 134.3 276.5 136.1 273.3 134C279.5 138.8 293.5 135.4 298.8 137.4ZM341.1 145.6C337.3 139.5 315.1 135.4 311.8 129.9C317.6 140.4 334.8 139 341.1 145.6ZM337.8 152.6C329.6 145.4 310.3 148.4 304.6 144C318.1 155.2 325.6 146.5 337.8 152.7V152.6ZM289.5 120.4C294.8 122.9 301.3 125.4 304.5 131.3C300.8 126.7 294 124.9 288.5 121.1C288.8 121.1 289.3 120.6 289.5 120.4ZM371.6 167.3C368.3 160.4 356.8 152.9 355.8 150.4C359.1 159.3 368.6 161.4 371.6 167.3ZM374.6 179.3C364.6 165 348.8 166.6 342.6 161.1C347.3 166.4 365.4 169.8 374.6 179.3ZM397.9 201.4C398.6 186.2 386.1 180.4 385.6 171.8C385.4 182.1 398.4 196 397.9 201.4ZM391.6 209.6C389.1 196.4 372.1 195.5 369.1 187.8C369.1 195 389.1 202.6 391.6 209.6ZM405.6 202.1C414.6 212.1 408.4 227.4 412.1 238.5C407.6 230.3 409.9 209.9 405.6 202.1ZM390.9 244.9C404.4 258.1 398.9 272.9 404.4 279.3C397.6 270.3 398.6 253.1 390.9 244.9ZM418.9 246.7C407.4 258.3 414.4 275.8 408.4 284.1C415.1 277 414.1 255.3 418.9 246.7ZM404.4 246.7C402.9 233.3 389.1 226.2 387.9 218.9C386.4 226.2 401.1 237.6 404.4 246.7ZM397.4 278.8C399.6 288.2 391.4 308.2 393.9 314.3C388.4 303.6 398.6 283.3 397.4 278.8ZM415.1 300.2C409.6 316.8 398.6 315.7 395.1 325.7C397.6 316.2 412.1 307.5 415.1 300.2ZM379.4 308C372.1 319.1 378.1 331.9 372.1 339.8C380.6 331.8 376.1 317.1 379.4 308ZM396.9 338.5C388.1 353.3 370.1 351.9 362.9 362.6C370.1 349.2 392.4 346.9 396.9 338.5ZM365.1 336.6C349.6 346.4 354.3 356.6 342.6 367.6C357.3 356.6 356.1 344.6 365.1 336.6ZM357.8 376.3C342.8 375.8 321.3 393.6 308.3 392.2C321.3 394.7 345.3 378.8 357.8 376.2V376.3ZM333.6 360.3C332.6 374.2 293.6 383.1 289.3 392.4C294 380.1 328.3 371 333.6 360.4V360.3ZM245.2 104.3C240.2 100.3 234.2 97.2 232.5 93.3C233.7 98.3 238.7 102 243.7 105.3C244.2 105.1 244.7 104.4 245.2 104.3ZM236.7 108.3C229 104.9 220 105.1 216 100.3C218.5 105.1 227 107 234.2 109.5C235 109 236 108.5 236.8 108.3H236.7ZM214.2 137.5C219 134.3 236.5 136.1 239.7 134.1C233.5 138.8 219.5 135.4 214.2 137.5ZM171.9 145.7C175.7 139.5 197.9 135.4 201.2 130C195.4 140.4 178.2 139 171.9 145.7ZM175.2 152.7C183.4 145.4 202.7 148.4 208.5 144.1C195 155.2 187.5 146.6 175.2 152.7ZM208.5 131.3C213.2 122.3 226.7 121.1 230.2 115.6C225 123.8 213.5 125.2 208.5 131.3ZM247 123.3C260.8 117.4 274.3 122.4 280.8 119.7C272.8 123.6 253.8 121.7 247 123.4V123.3ZM141.4 167.3C144.7 160.5 156.2 152.9 157.2 150.4C153.9 159.4 144.4 161.4 141.4 167.3ZM138.4 179.3C148.4 165 164.2 166.6 170.4 161.1C165.7 166.4 147.7 169.8 138.4 179.4V179.3ZM115.1 201.4C114.4 186.2 126.9 180.4 127.4 171.8C127.6 182.1 114.6 196 115.1 201.4ZM121.4 209.6C123.9 196.4 140.9 195.6 143.9 187.8C143.9 195.1 123.9 202.6 121.4 209.6ZM107.4 202.1C98.4001 212.1 104.6 227.4 100.9 238.5C105.4 230.4 103.1 209.9 107.4 202.1ZM122.1 244.9C108.6 258.1 114.1 272.9 108.6 279.3C115.4 270.4 114.4 253.1 122.1 244.9ZM94.1001 246.8C105.6 258.4 98.6001 275.8 104.6 284.1C97.9001 277.1 98.9001 255.4 94.1001 246.8ZM108.6 246.8C110.1 233.3 123.9 226.3 125.1 219C126.6 226.3 111.9 237.7 108.6 246.8ZM115.6 278.8C113.4 288.2 121.6 308.2 119.1 314.4C124.6 303.7 114.4 283.4 115.6 278.9V278.8ZM97.9001 300.2C103.4 316.9 114.4 315.7 117.9 325.7C115.4 316.2 100.9 307.5 97.9001 300.3V300.2ZM133.7 308C140.9 319.2 134.9 331.9 140.9 339.9C132.4 331.9 136.9 317.1 133.7 308ZM116.1 338.5C124.9 353.3 142.9 351.9 150.1 362.6C142.9 349.2 120.6 346.9 116.1 338.5ZM147.9 336.7C163.4 346.5 158.7 356.7 170.4 367.7C155.7 356.7 156.9 344.7 147.9 336.7ZM155.2 376.3C170.2 375.8 191.7 393.6 204.7 392.3C191.7 394.7 167.7 378.8 155.2 376.3ZM179.5 360.3C180.5 374.3 219.5 383.1 223.7 392.5C219 380.2 184.7 371.1 179.4 360.4L179.5 360.3ZM236.2 123.8C239.2 111.5 254.2 109.2 256.2 101.9C255.5 109.7 237.7 118.3 236.2 123.9V123.8ZM280.5 93.3C278.3 102.6 262 107.9 259.8 114.9C260.5 105.4 277.3 99.9 280.5 93.3ZM267.8 115.3C275.5 104 291.5 107 297.1 100.3C293.1 108.1 273.3 108.3 267.8 115.3Z" fill="#006233"/>
<path d="M373.7 256C373.7 315.2 321 363.1 256 363.1C191 363.1 138.4 315.2 138.4 256.1C138.4 196.9 191 149.1 256 149.1C321 149.1 373.7 196.9 373.7 256.1V256Z" stroke="#F7C608" stroke-width="1.9" stroke-linecap="round" stroke-linejoin="round"/>
<path d="M232.9 363.2L232.5 364.5C232.2 365.4 231.3 365.8 230.3 365.8C227.8 365.1 224.7 364.5 221.8 363.8L224.5 355.5C227.303 356.236 230.139 356.837 233 357.3C234 357.5 234.5 358.3 234.2 359.3L233.8 360.3M213.6 355.2L214 353.9C214.3 352.9 215.2 352.5 216.2 352.8C218.5 353.6 221.3 354.6 224.5 355.5L221.8 363.8C218.8 363 216 362.2 213.5 361.3C212.5 360.8 212.3 359.1 212.6 358.3" fill="#F7C608"/>
<path d="M231.3 362.5L231 363.4C230.8 364 230 364.4 229.2 364.3L222.2 362.5L224.1 356.6C226.41 357.229 228.746 357.763 231.1 358.2C232 358.4 232.4 359 232.1 359.7L231.9 360.4M215.1 356.1L215.4 355.1C215.6 354.5 216.4 354.2 217.2 354.5L224.1 356.6L222.1 362.6C219.744 362.014 217.41 361.347 215.1 360.6C214.5 360.2 214.2 358.9 214.4 358.3" fill="#006233"/>
<path d="M200.7 352.8L199.9 354C199.4 354.7 198.4 355 197.4 354.6C195.3 353.4 192.4 352 189.9 350.5L195 343.2C197.465 344.66 200.001 345.995 202.6 347.2C203.5 347.7 203.7 348.6 203.2 349.4L202.5 350.4M184.7 340.2L185.5 339C186 338.3 187.1 338 187.9 338.5C189.9 340 192.3 341.6 195 343.2L189.9 350.5C187.435 349.106 185.033 347.604 182.7 346C181.9 345.3 182.3 343.6 182.7 342.9" fill="#F7C608"/>
<path d="M199.4 351.7L198.8 352.5C198.4 353.1 197.6 353.2 196.8 352.9L190.6 349.4L194.3 344.2C196.5 345.6 198.9 346.7 200.6 347.6C201.3 348 201.6 348.6 201.1 349.2L200.6 349.9M185.8 341.4L186.4 340.6C186.8 340.1 187.6 340 188.4 340.4C190.319 341.738 192.287 343.006 194.3 344.2L190.6 349.4C188.538 348.271 186.535 347.036 184.6 345.7C184 345.2 184.1 343.9 184.5 343.4" fill="#006233"/>
<path d="M173.1 334.6L171.9 335.5C171.2 336.1 170.1 336 169.3 335.5L163.3 329.6L170.6 324C172.6 326.2 175 328.3 176.6 329.7C177.3 330.4 177.2 331.3 176.5 331.9L175.5 332.7M161.5 318.4L162.7 317.4C163.061 317.102 163.524 316.956 163.99 316.993C164.457 317.03 164.891 317.248 165.2 317.6C166.852 319.826 168.621 321.962 170.5 324L163.4 329.6C161.449 327.646 159.58 325.611 157.8 323.5C157.4 322.6 158.2 321 158.9 320.5" fill="#F7C608"/>
<path d="M172.1 333.2L171.3 333.8C170.8 334.3 170 334.1 169.3 333.7L164.3 328.7L169.5 324.7C171.095 326.373 172.763 327.975 174.5 329.5C175.1 330.1 175.1 330.8 174.5 331.3L173.9 331.8M162.3 319.8L163.1 319.3C163.7 318.8 164.5 318.9 165.1 319.5C166.489 321.298 167.957 323.033 169.5 324.7L164.4 328.7C162.784 327.111 161.249 325.443 159.8 323.7C159.3 323 159.8 321.8 160.4 321.4" fill="#006233"/>
<path d="M152.2 310L150.8 310.6C149.9 311 148.8 310.6 148.3 309.9C147.3 307.9 145.6 305.2 144.3 302.8L153 299.2C154.4 301.9 156 304.5 157.1 306.2C157.5 307.1 157.1 308 156.3 308.3L155.1 308.8M146.1 291.5L147.5 290.9C148.5 290.6 149.5 290.9 149.8 291.7C150.731 294.256 151.799 296.76 153 299.2L144.4 302.8C143.1 300.3 141.9 297.8 141 295.4C140.8 294.4 142 293.2 143 292.8" fill="#F7C608"/>
<path d="M151.7 308.4L150.7 308.8C150.1 309.1 149.3 308.8 148.8 308.2L145.6 302.2L151.8 299.6C152.837 301.653 153.972 303.655 155.2 305.6C155.5 306.2 155.2 306.9 154.6 307.2L153.8 307.6M146.4 293.2L147.4 292.8C148 292.5 148.8 292.8 149.1 293.5C149.8 295.3 150.7 297.5 151.8 299.7L145.6 302.2C144.548 300.242 143.581 298.24 142.7 296.2C142.6 295.4 143.4 294.4 144.1 294.2" fill="#006233"/>
<path d="M139.7 281.1L138.2 281.3C137.741 281.355 137.277 281.258 136.88 281.023C136.482 280.788 136.173 280.428 136 280L134.5 272.1L143.9 270.9C144.313 273.531 144.881 276.136 145.6 278.7C145.8 279.7 145.2 280.4 144.2 280.5L142.9 280.7M139.7 261.8L141.2 261.6C142.2 261.5 143 262 143.2 263C143.2 265.2 143.4 268 143.9 271L134.5 272.1C134.1 269.4 133.6 266.8 133.5 264.2C133.6 263.2 135.2 262.4 136.2 262.2" fill="#F7C608"/>
<path d="M139.7 279.5L138.7 279.6C138 279.7 137.4 279.2 137.1 278.5C136.8 276.6 136.2 274.2 135.9 271.9L142.6 271C142.958 273.222 143.426 275.424 144 277.6C144 278.3 143.7 278.9 143 279L142 279.2M139.4 263.4L140.4 263.3C141.2 263.3 141.8 263.7 141.9 264.5C142 266.3 142.2 268.6 142.6 271L135.8 272C135.5 269.7 135.1 267.4 135 265.4C135 264.6 136.2 263.9 137 263.8" fill="#006233"/>
<path d="M136.7 250.2L135.2 250C134.2 249.9 133.6 249 133.5 248.1L134.5 240.2L143.9 241.5C143.515 244.118 143.282 246.755 143.2 249.4C143 250.3 142.2 250.9 141.2 250.7L139.9 250.6M142.7 231.6L144.2 231.8C145.2 232 145.8 232.8 145.6 233.6C144.889 236.2 144.321 238.837 143.9 241.5L134.5 240.2C134.878 237.578 135.379 234.975 136 232.4C136.4 231.4 138.2 231 139.2 231.2" fill="#F7C608"/>
<path d="M137.3 248.6L136.2 248.4C135.5 248.4 135 247.7 135 246.9L135.9 240.4L142.6 241.2C142.258 243.421 142.025 245.657 141.9 247.9C141.8 248.6 141.2 249.1 140.5 249L139.5 248.9M141.9 233.1L142.9 233.3C143.7 233.3 144.1 234 143.9 234.7C143.5 236.6 142.9 238.8 142.6 241.2L135.9 240.4C136.2 238.1 136.6 235.9 137.1 233.8C137.4 233.1 138.7 232.8 139.4 232.8" fill="#006233"/>
<path d="M143.4 219.7L142.1 219.1C141.1 218.8 140.8 217.9 141 216.9C142 214.9 143.1 212.1 144.4 209.6L153 213.2C151.801 215.607 150.733 218.078 149.8 220.6C149.4 221.5 148.4 221.8 147.5 221.4L146.4 221M154.9 203.5L156.2 204C157.2 204.4 157.5 205.3 157.1 206.1C155.612 208.36 154.243 210.696 153 213.1L144.4 209.6C145.543 207.169 146.812 204.8 148.2 202.5C148.9 201.7 150.8 201.7 151.7 202.1" fill="#F7C608"/>
<path d="M144.5 218.4L143.5 217.9C142.8 217.7 142.5 216.9 142.8 216.2L145.6 210.2L151.8 212.7C150.804 214.69 149.903 216.725 149.1 218.8C148.8 219.5 148.1 219.8 147.4 219.6L146.5 219.2M153.6 204.7L154.6 205.1C155.3 205.4 155.5 206.1 155.2 206.8C153.979 208.715 152.845 210.684 151.8 212.7L145.6 210.1C146.583 208.057 147.651 206.055 148.8 204.1C149.3 203.5 150.8 203.5 151.4 203.7" fill="#006233"/>
<path d="M159.3 192.2L158.1 191.3C157.4 190.7 157.3 189.7 157.8 188.9C159.4 187.2 161.3 184.8 163.3 182.7L170.5 188.4C168.588 190.401 166.785 192.504 165.1 194.7C164.795 195.024 164.382 195.224 163.938 195.261C163.495 195.297 163.054 195.169 162.7 194.9L161.7 194.1M175.3 179.5L176.4 180.5C177.2 181 177.3 182 176.6 182.7C174.473 184.497 172.437 186.4 170.5 188.4L163.3 182.7L169.3 176.9C170.1 176.3 171.9 176.9 172.7 177.4" fill="#F7C608"/>
<path d="M160.7 191.1L159.9 190.5C159.3 190.1 159.3 189.3 159.7 188.6L164.4 183.6L169.5 187.6C167.922 189.265 166.421 191 165 192.8C164.5 193.4 163.7 193.5 163.1 193.1L162.4 192.5M173.7 180.4L174.6 181C175.1 181.5 175.1 182.2 174.6 182.8C172.869 184.331 171.201 185.933 169.6 187.6L164.4 183.6C165.931 181.836 167.567 180.167 169.3 178.6C169.9 178.1 171.3 178.5 171.8 178.9" fill="#006233"/>
<path d="M183 169.9L182.2 168.7C181.6 167.9 181.9 167 182.6 166.3L189.8 161.8L194.9 169.1C192.489 170.547 190.153 172.116 187.9 173.8C187.703 173.932 187.482 174.023 187.25 174.069C187.018 174.115 186.779 174.115 186.546 174.069C186.314 174.022 186.093 173.931 185.897 173.799C185.7 173.667 185.531 173.497 185.4 173.3L184.7 172.3M202.3 161.8L203.1 163C203.7 163.7 203.4 164.7 202.6 165.2C199.968 166.366 197.398 167.668 194.9 169.1L189.8 161.8C192.3 160.3 194.8 158.8 197.3 157.7C198.3 157.4 199.9 158.4 200.3 159.1" fill="#F7C608"/>
<path d="M184.7 169.2L184.1 168.4C183.7 167.8 183.9 167.1 184.5 166.6C186.3 165.6 188.5 164.1 190.5 162.8L194.2 168L188.3 171.9C187.6 172.3 186.8 172.2 186.4 171.7L185.9 171M200.5 162.2L201.1 163.1C201.5 163.6 201.3 164.3 200.6 164.7C198.423 165.713 196.288 166.814 194.2 168L190.6 162.8C192.624 161.591 194.692 160.457 196.8 159.4C197.6 159.1 198.8 159.8 199.2 160.4" fill="#006233"/>
<path d="M212.7 154.5L212.3 153.2C212 152.3 212.5 151.5 213.3 151C215.8 150.4 218.8 149.3 221.7 148.5L224.4 156.8C221.59 157.562 218.82 158.463 216.1 159.5C215.1 159.8 214.2 159.3 214 158.5L213.6 157.4M233.6 151.7L234.1 153C234.4 154 233.9 154.8 232.9 155C230.041 155.47 227.204 156.07 224.4 156.8L221.7 148.5C224.6 147.8 227.5 147 230.2 146.5C231.2 146.5 232.4 147.8 232.7 148.7" fill="#F7C608"/>
<path d="M214.5 154.3L214.2 153.3C214 152.7 214.4 152.1 215.2 151.8C217.2 151.2 219.7 150.4 222.2 149.8L224.1 155.7C221.737 156.334 219.401 157.068 217.1 157.9C216.3 158 215.6 157.8 215.4 157.1L215.2 156.4M231.9 151.7L232.2 152.7C232.4 153.3 231.9 153.9 231.2 154.1C228.781 154.543 226.379 155.077 224 155.7L222.1 149.7C224.413 149.055 226.748 148.488 229.1 148C230.1 148 231 148.9 231.1 149.5" fill="#006233"/>
<path d="M245.9 147.4V146.1C245.9 145.1 246.7 144.5 247.7 144.2L256.4 144V152.7C253.495 152.692 250.592 152.826 247.7 153.1C246.7 153.1 245.9 152.4 245.9 151.5V150.4M266.9 150.1V151.5C266.9 152.5 266.2 153.1 265.2 153.1C262.274 152.832 259.338 152.699 256.4 152.7V144C259.4 144 262.4 144 265.2 144.2C266.2 144.4 266.9 146 266.9 146.9" fill="#F7C608"/>
<path d="M247.7 147.7V146.7C247.7 146.1 248.3 145.6 249.2 145.4L256.5 145.3V151.4C254.062 151.437 251.627 151.57 249.2 151.8C248.3 151.8 247.7 151.3 247.7 150.6V149.8M265.2 149.6V150.6C265.2 151.3 264.6 151.8 263.7 151.8C261.306 151.568 258.904 151.435 256.5 151.4V145.3L263.7 145.4C264.6 145.6 265.2 146.7 265.2 147.4" fill="#006233"/>
<path d="M277.8 149L278.2 147.6C278.4 146.8 279.4 146.3 280.4 146.3C282.8 146.9 286 147.5 288.9 148.3L286.3 156.6C283.463 155.894 280.593 155.327 277.7 154.9C276.7 154.6 276.2 153.8 276.5 152.9L276.9 151.8M297.2 156.8L296.7 158.1C296.5 159 295.5 159.5 294.6 159.2C291.875 158.205 289.106 157.337 286.3 156.6L288.9 148.3C291.707 148.954 294.477 149.755 297.2 150.7C298.2 151.1 298.4 152.9 298.2 153.7" fill="#F7C608"/>
<path d="M279.5 149.7L279.7 148.7C279.9 148.1 280.7 147.7 281.5 147.8C283.5 148.4 286.1 148.8 288.5 149.5L286.7 155.5C284.356 154.87 281.987 154.336 279.6 153.9C278.8 153.7 278.3 153.1 278.6 152.5L278.8 151.7M295.6 155.9L295.3 156.9C295.1 157.5 294.3 157.8 293.6 157.6C291.297 156.774 288.962 156.04 286.6 155.4L288.6 149.4L295.5 151.4C296.3 151.8 296.5 153.1 296.3 153.7" fill="#006233"/>
<path d="M310 159L310.8 158C311.4 157.1 312.4 157 313.4 157.2L320.9 161.2L315.9 168.6C313.398 167.206 310.828 165.938 308.2 164.8C308.001 164.697 307.826 164.553 307.686 164.378C307.546 164.203 307.445 164 307.388 163.784C307.332 163.567 307.321 163.34 307.358 163.119C307.394 162.898 307.477 162.687 307.6 162.5L308.3 161.5M326.3 171.5L325.4 172.7C325.137 173.071 324.743 173.329 324.298 173.422C323.853 173.515 323.389 173.435 323 173.2C320.709 171.554 318.339 170.018 315.9 168.6L320.9 161.3C323.5 162.7 326 164.2 328.2 165.7C328.9 166.4 328.6 168.1 328.1 168.9" fill="#F7C608"/>
<path d="M311.4 160.2L312 159.4C312.4 158.8 313.2 158.7 314 159C315.7 160 318.1 161.1 320.2 162.4L316.6 167.6C314.514 166.41 312.379 165.309 310.2 164.3C309.5 163.9 309.2 163.3 309.7 162.7L310.2 162M325 170.3L324.5 171.1C324.1 171.7 323.3 171.8 322.5 171.4C320.553 170.052 318.551 168.784 316.5 167.6L320.2 162.4C322.3 163.6 324.5 164.8 326.2 166C326.9 166.6 326.8 167.8 326.4 168.4" fill="#006233"/>
<path d="M337.9 177L339 176.2C339.8 175.5 340.8 175.6 341.7 176.2C343.3 177.9 345.7 179.9 347.7 182L340.5 187.7C338.535 185.692 336.466 183.789 334.3 182C333.7 181.3 333.8 180.4 334.5 179.8L335.5 179M349.5 193.2L348.4 194.2C348.039 194.498 347.576 194.644 347.109 194.607C346.643 194.57 346.209 194.352 345.9 194C344.5 192.1 342.6 190 340.5 187.7L347.7 182C349.7 184 351.6 186 353.2 188.1C353.7 188.9 352.9 190.5 352.2 191.1" fill="#F7C608"/>
<path d="M338.8 178.5L339.6 177.8C340.2 177.4 341 177.5 341.6 177.9C343 179.4 345 181.1 346.6 182.9L341.6 186.9C339.94 185.223 338.205 183.621 336.4 182.1C335.9 181.6 335.9 180.8 336.4 180.4L337.1 179.8M348.8 191.7L348 192.3C347.4 192.7 346.6 192.6 346 192.1C344.575 190.303 343.074 188.568 341.5 186.9L346.6 182.9C348.3 184.5 349.9 186.2 351.3 187.9C351.7 188.5 351.2 189.7 350.7 190.2" fill="#006233"/>
<path d="M359 201.5L360.4 200.9C361.3 200.5 362.3 200.9 362.9 201.6C363.9 203.6 365.6 206.2 366.9 208.6L358.2 212.3C356.9 209.6 355.2 207.1 354.1 205.3C353.7 204.5 354.1 203.6 354.9 203.2L356.1 202.7M365.1 219.9L363.8 220.5C362.9 220.9 361.9 220.5 361.5 219.7C360.533 217.176 359.432 214.706 358.2 212.3L366.9 208.7C368.146 211.079 369.281 213.515 370.3 216C370.5 217 369.3 218.2 368.3 218.6" fill="#F7C608"/>
<path d="M359.5 203L360.5 202.6C361.1 202.4 361.9 202.6 362.4 203.3C363.3 205 364.6 207.2 365.6 209.3L359.5 211.8C358.449 209.82 357.315 207.885 356.1 206C355.7 205.3 355.9 204.6 356.6 204.3L357.4 203.9M365 218.3L364 218.7C363.3 219 362.6 218.7 362.2 218C361.5 216.2 360.6 214 359.5 211.8L365.6 209.2C366.677 211.16 367.678 213.162 368.6 215.2C368.7 216.1 367.9 217 367.2 217.3" fill="#006233"/>
<path d="M371.7 230.3L373.2 230.1C374.2 229.9 375.1 230.5 375.5 231.4L377 239.2L367.7 240.5C367.217 237.866 366.582 235.261 365.8 232.7C365.7 231.8 366.3 231 367.3 230.9L368.5 230.7M371.9 249.6L370.5 249.8C369.5 249.9 368.6 249.4 368.5 248.5L367.7 240.5L377 239.2C377.5 241.9 378 244.6 378.1 247.1C378.1 248.1 376.4 249 375.4 249.1" fill="#F7C608"/>
<path d="M371.7 232L372.7 231.8C373.5 231.7 374.1 232.2 374.4 232.9L375.7 239.4L369 240.4C368.609 238.177 368.108 235.974 367.5 233.8C367.4 233.1 367.8 232.5 368.5 232.4L369.5 232.2M372.2 247.9L371.2 248.1C370.5 248.2 369.8 247.7 369.7 246.9C369.566 244.724 369.332 242.555 369 240.4L375.7 239.4C376.1 241.7 376.5 243.9 376.7 246C376.6 246.8 375.4 247.5 374.7 247.6" fill="#006233"/>
<path d="M375 261.2L376.5 261.4C377.5 261.4 378.2 262.3 378.3 263.2C377.9 265.5 377.7 268.4 377.3 271.2L367.9 270C368.4 267 368.6 264 368.6 262C368.7 261.1 369.6 260.5 370.6 260.7L371.8 260.8M369.3 279.8L367.8 279.6C366.8 279.5 366.1 278.7 366.3 277.8C366.8 275.6 367.5 272.9 367.9 270L377.4 271.1C377 273.8 376.6 276.5 375.9 279C375.6 279.9 373.7 280.3 372.7 280.2" fill="#F7C608"/>
<path d="M374.5 262.8L375.5 262.9C376.3 262.9 376.7 263.6 376.8 264.4L376 271L369.2 270.2C369.6 267.7 369.8 265.2 369.9 263.6C369.9 262.8 370.6 262.3 371.3 262.4H372.2M370 278.3L369 278.2C368.2 278.1 367.8 277.4 368 276.7C368.4 274.8 368.9 272.7 369.3 270.1L376 271C375.687 273.182 375.287 275.35 374.8 277.5C374.6 278.3 373.2 278.7 372.5 278.5" fill="#006233"/>
<path d="M368.7 291.7L370 292.3C371 292.6 371.3 293.5 371.1 294.5C370.1 296.5 369.1 299.3 367.8 301.8L359.1 298.3C360.266 295.857 361.301 293.354 362.2 290.8C362.6 290 363.6 289.7 364.5 290L365.7 290.5M357.3 308.1L356 307.5C355 307.1 354.7 306.2 355 305.4C356.3 303.4 357.8 301 359.1 298.4L367.8 301.8C366.6 304.3 365.3 306.8 364 309C363.4 309.8 361.5 309.7 360.5 309.3" fill="#F7C608"/>
<path d="M367.6 293L368.6 293.5C369.3 293.8 369.5 294.5 369.3 295.2L366.5 301.3L360.3 298.8C361.265 296.776 362.132 294.707 362.9 292.6C363.3 292 364 291.6 364.7 291.9L365.5 292.2M358.5 306.8L357.5 306.4C356.9 306.2 356.7 305.4 357 304.7C358.187 302.783 359.288 300.815 360.3 298.8L366.5 301.3C365.546 303.34 364.512 305.341 363.4 307.3C362.9 308 361.5 308 360.9 307.8" fill="#006233"/>
<path d="M353 319.4L354.2 320.2C355 320.8 355 321.8 354.6 322.6L349.1 328.8L341.9 323.2C343.9 321 345.9 318.6 347.2 316.9C347.8 316.2 348.8 316.1 349.6 316.7L350.6 317.4M337.1 332.1L336 331.3C335.2 330.7 335.1 329.7 335.8 329C337.903 327.177 339.906 325.241 341.8 323.2L349.1 328.8C347.224 330.887 345.255 332.889 343.2 334.8C342.4 335.3 340.6 334.8 339.8 334.2" fill="#F7C608"/>
<path d="M351.6 320.4L352.5 321C353 321.5 353 322.2 352.6 322.9L348 328L342.8 324C344.6 322.2 346.2 320.2 347.3 318.8C347.8 318.2 348.6 318.1 349.2 318.5L349.9 319M338.7 331.3L337.9 330.6C337.3 330.2 337.3 329.5 337.9 328.9C339.636 327.339 341.304 325.704 342.9 324L348 328C346.476 329.738 344.874 331.406 343.2 333C342.5 333.5 341.2 333.2 340.6 332.7" fill="#006233"/>
<path d="M329.5 341.9L330.3 343C330.9 343.8 330.7 344.7 330 345.4L322.8 350L317.6 342.7C320.011 341.253 322.348 339.684 324.6 338C324.985 337.724 325.464 337.611 325.932 337.686C326.4 337.761 326.82 338.018 327.1 338.4L327.7 339.4M310.3 350.1L309.5 348.9C308.9 348.2 309.1 347.2 310 346.7C312.596 345.489 315.132 344.154 317.6 342.7L322.8 350C320.3 351.4 317.8 353 315.3 354.1C314.3 354.5 312.8 353.5 312.3 352.7" fill="#F7C608"/>
<path d="M327.8 342.5L328.4 343.4C328.8 343.9 328.6 344.6 328 345.2L322 348.9L318.3 343.8C320.322 342.55 322.29 341.216 324.2 339.8C324.9 339.4 325.7 339.5 326.1 340.1L326.6 340.8M312 349.6L311.5 348.8C311.1 348.2 311.3 347.5 312 347.1C314.143 346.085 316.245 344.984 318.3 343.8L322 348.9C320 350.2 317.8 351.4 315.8 352.4C315 352.7 313.8 352.1 313.4 351.5" fill="#006233"/>
<path d="M300 357.4L300.4 358.8C300.7 359.6 300.2 360.5 299.4 360.9L291 363.5L288.3 355.2C291.08 354.448 293.817 353.546 296.5 352.5C297.5 352.2 298.4 352.6 298.7 353.5L299 354.6M279 360.4L278.6 359.1C278.3 358.2 278.8 357.3 279.7 357.1C282.2 356.7 285.2 356.1 288.3 355.2L291 363.5C288.1 364.3 285.3 365.1 282.6 365.5C281.6 365.6 280.3 364.3 280 363.5" fill="#F7C608"/>
<path d="M298.2 357.7L298.5 358.6C298.7 359.2 298.3 359.8 297.5 360.2C295.5 360.8 293 361.6 290.5 362.2L288.6 356.4C290.931 355.729 293.233 354.962 295.5 354.1C296.3 353.9 297 354.2 297.3 354.8L297.5 355.6M280.8 360.4L280.5 359.4C280.3 358.8 280.8 358.2 281.5 358C283.888 357.565 286.256 357.031 288.6 356.4L290.6 362.3C288.287 362.946 285.952 363.513 283.6 364C282.7 364.1 281.8 363.2 281.6 362.6" fill="#006233"/>
<path d="M266.8 364.8V366.2C266.8 367.2 266.1 367.8 265.1 368C262.6 368 259.4 368.3 256.3 368.3V359.7C259.207 359.678 262.11 359.511 265 359.2C266 359.2 266.8 359.8 266.8 360.7V361.9M245.8 362.3V360.9C245.8 360 246.5 359.3 247.5 359.3C250 359.5 253 359.7 256.2 359.7L256.3 368.3C253.4 368.392 250.497 368.359 247.6 368.2C246.6 368 245.8 366.4 245.8 365.5" fill="#F7C608"/>
<path d="M265 364.6V365.6C265 366.2 264.4 366.6 263.6 366.9L256.3 367.1V360.9C258.9 360.9 261.6 360.7 263.5 360.5C264.4 360.5 265 361 265 361.6V362.4M247.5 362.8V361.8C247.5 361.1 248.1 360.6 248.9 360.6C251 360.8 253.5 360.9 256.2 360.9L256.3 367.1L249 367C248.2 366.8 247.5 365.7 247.5 365" fill="#006233"/>
</g>
<defs>
<clipPath id="clip0_103_1683">
<rect width="512" height="512" fill="white" transform="translate(0.5)"/>
</clipPath>
</defs>
</svg>
