<svg width="513" height="512" viewBox="0 0 513 512" fill="none" xmlns="http://www.w3.org/2000/svg">
<g clip-path="url(#clip0_103_1532)">
<path d="M0.5 0H512.5V512H0.5V0Z" fill="#000066"/>
<path d="M0.5 256L512.5 0V512L0.5 256Z" fill="#BD1021"/>
<path d="M41.8999 256L511.9 27.3999V484.6" fill="white"/>
<path d="M335.4 288.5C340.8 288.8 340.6 294.2 340.6 294.2L359.9 294.7C362.4 287.9 364.9 288.7 369.6 292.1C372.46 294.052 375.594 295.568 378.9 296.6C380.9 287 394.5 288.9 394.5 288.9C400.3 275 400.8 275.2 397.3 273.4C395.227 272.367 393.518 270.728 392.4 268.7C389.475 264.811 387.614 260.227 387 255.4C386.6 251.9 382.5 257.1 381.8 256.1C381.1 254.9 375 255.6 375 255.6C376.5 257.2 371.4 256.2 371.4 256.2C371.9 256.7 371.4 258.2 371.4 258.2C370.9 257.5 367 256.8 367 256.8C366.694 257.427 366.289 258.001 365.8 258.5C363.7 257.7 359.5 257.8 359.5 257.8C355.393 257.656 351.331 258.697 347.8 260.8C346.1 261.8 339.8 264.8 334.8 269.8C329.7 274.8 326.8 274.1 326.8 274.1C325.3 279.7 313.2 286.4 313.2 286.4C311.2 288.1 305.1 288.9 302 286.4C298.9 283.8 302 279 302 279C303.2 277 304.3 277 304.4 269.5C304.5 264.5 309.7 260.3 315.1 254.5C321.7 247.2 331 235.2 331 235.2C331 238.9 333 239.5 333 239.5C334.8 235.8 337.4 232.8 337.4 232.8C337.6 233.1 338 233.3 338 233.3C340 230.5 341.3 229.4 341.3 229.4C340.6 229.1 334.8 229.4 329.5 234.1C324.1 238.8 320.5 237.2 320.5 237.2C316.8 236 316.5 233.2 316.5 233.2C313.7 221.4 324.4 213.2 324.4 213.2C310.1 209.7 320.4 191.5 338.2 183.7C355.9 176 355.7 172.5 355.7 172.5C356.517 173.502 357.19 174.612 357.7 175.8C357.7 175.7 359.1 173.8 369.4 169.2C374.706 166.945 379.739 164.093 384.4 160.7C385.8 163.3 385.6 165.1 385.6 165.1C413.6 155.3 441.1 132.7 441.1 132.7C441.9 134.6 441.5 137.5 441.5 137.5C446.1 133.2 462.5 123.5 462.5 123.5C462.8 129.7 457.7 132.1 457.7 132.1C458.099 132.885 458.369 133.729 458.5 134.6C463.714 131.324 468.849 127.923 473.9 124.4C478.5 128.4 474.4 134.8 474.4 134.8C476 134.6 477.1 133.2 477.1 133.2C478.4 140 470.8 146 470.8 146C472.08 145.772 473.302 145.296 474.4 144.6C472.9 152 458.9 160.2 458.9 160.2C460.9 162 459 164.4 457.3 165.6C455.6 166.6 452.7 169 453.6 170C454.5 171 460.7 166.5 460.7 166.5C461.7 169.6 453.8 175.8 453.8 175.8C459.4 176.5 474.8 169.5 474.8 169.5C473.5 175.5 467.8 180.1 460.5 182.8C453.4 185.5 453.8 185.9 453.8 185.9C455 186.9 464.8 184 464.8 184C461.9 190.6 451.6 195.2 451.6 195.2C454.4 197.7 458.3 194.8 462.2 192.2C466.87 189.242 471.915 186.921 477.2 185.3C482.9 183.3 487 184.8 487 184.8C492 183.3 496 185.5 496 185.5C505.2 186.2 506.2 189.5 506.2 189.5C507.2 189.8 508 190.2 510.4 192C512.8 193.7 512.6 199.1 512.5 201.8C512.5 204.4 511.7 204.4 511.2 205.1C510.8 205.9 510.7 206.7 510.7 207.7C510.7 208.7 508.3 215.1 494 215.1H472.2C471 215.1 469.6 215.8 469.6 215.8C463.6 218.8 466.8 213.8 459.6 219.6C452.4 225.6 448.7 224.6 448.7 224.6C444.709 228.713 440.358 232.461 435.7 235.8C431.4 238.6 432.1 238.3 435.9 239.9C439.7 241.5 445.3 239.9 445.3 239.9C441.7 242.4 444.3 243.5 444.3 243.5C448.9 240.5 451.9 241.6 451.9 241.6C453.4 245.8 447.9 252.4 447.9 252.4C450 252.6 454 252.4 454 252.4C453 255.2 449.1 258.3 446.2 259.2C443.2 260.2 443.7 260.6 444.6 262.2C445.4 264.1 444.8 265.9 444.8 265.9C439.6 262.4 439.5 265.5 439.5 265.5C438.9 269.6 439 275.7 439 275.7C435.4 273.9 435.2 276.3 435.2 276.3C433.999 279.354 432.157 282.116 429.8 284.4C429.7 282.1 427.5 281.4 427.5 281.4C425.2 285.9 420.9 288.6 420.9 288.6C420.4 292.4 421.5 297.7 421.5 297.7C418.7 297.2 417.7 297.2 417.3 297.8C416.9 298.5 417.9 298.8 417.9 298.8L453.5 299.7C454 299.7 456.1 300 456.1 303.7C456.2 307.7 453.1 307.9 453.1 307.9L414.1 306.9C414.1 306.9 414.3 308 412.3 309.1C410.3 310.2 411 307.9 410.3 312.7C409.8 317.4 402.1 312.3 402.1 312.3C400.8 314.2 397.8 316.6 397.8 316.6C396 311.3 394.2 309.6 391.4 314.2C388.7 318.8 396.5 318 396.5 318L444.7 311C447.2 310.8 449.8 311 451 314.4C452 317.9 445.4 318.4 445.4 318.4L398.5 323.6C397.5 326.3 393.6 326.2 393.6 326.2C394 328.8 391.2 330.5 389.8 331.4C388.3 332.4 383.8 332 383.8 332C378.4 335.7 375.8 332.8 375.8 332.8C372.2 334.3 370 333.6 367.1 332.4C364.1 331.1 364.4 327.6 364.4 327.6L334.8 330.6C333.944 330.948 333.163 331.457 332.5 332.1C333.5 333.4 330.3 336.5 330.3 336.5C331.3 337.1 332.9 338.8 333.2 342.5C333.4 346.5 328.4 347.1 330.9 349.9C333.3 352.6 338 350.3 343.2 347.9C348.2 345.4 353.2 345.7 355.4 345.7C357.6 345.7 363.7 347.3 367.5 348.7C371.3 349.9 372.6 349.1 372.9 347.2C373.1 345.2 374.9 344.7 374.9 344.7C374.4 346.6 375.4 347.5 375.4 347.5C376.9 347.5 379.4 346.1 379.4 346.1C379.2 347.6 377.3 348.5 377.3 348.5C373.6 350.9 378.7 350 378.7 350C384.074 348.558 389.649 348.017 395.2 348.4C400.378 349.951 405.454 351.821 410.4 354C410.8 352.7 410.6 349.6 410.6 349.6C412.311 350.079 413.842 351.053 415 352.4C416.3 351.1 415.5 348.8 415.5 348.8C425.7 354.6 413.3 357.2 410 358.4C406.7 359.4 406.7 360.8 406.7 360.8C409.5 360 411.4 359.6 413.7 359.4C415.9 359.3 415.1 359.4 420.6 358.4C426.1 357.2 428.9 359.6 428.9 359.6C424.3 359.8 422.9 361.2 422.9 361.2C425.9 363.1 423.1 364.8 423.1 364.8C419 359.6 415.4 365 415.4 365C417.741 364.973 420.06 365.45 422.2 366.4C423.1 367 425.2 368.1 427.9 369.4C431.7 371 430.9 370 433.9 371C436.9 372.2 435.7 375 435.7 375C434.797 373.485 433.376 372.348 431.7 371.8C431.5 374.9 428.4 375.5 428.4 375.5C432.3 371.3 424 369.4 420.1 369.5C416.3 369.5 413.4 372 413.4 372C421.2 379.4 426.6 377 426.6 377C425.6 379.6 419.2 378.5 419.2 378.5C422.2 380.8 421.8 382.4 421.8 382.4C420.2 380.8 417.7 381.6 412 378C406.5 374.4 401.5 375.6 401.5 375.6C407 381.3 399.5 384.8 399.5 384.8C396.7 386.5 400.7 388.5 400.7 388.5C397.2 389.2 396.7 385.7 396.7 385.7C394.9 385.3 392.3 387.5 392.3 387.5C392.5 384 397.2 385.8 397.3 382.1C397.4 378.4 393 375.5 379.8 377.3C366.6 379.2 362.8 374.9 362.8 374.9C361.6 374.9 361.5 376.1 361.5 376.1C363.5 378.2 364.5 379.1 364.2 380.5C363.8 382 364.9 382.5 364.9 382.5C362.4 382.3 362.3 379.5 362.3 379.5C362.3 380.7 361.8 380.7 361 382C360.2 383.3 361 384.8 361 384.8C359.9 383.9 358 382.8 359.8 380.3C361.1 378.3 357 375.8 357 375.8C355.3 374.1 351 375.7 351 375.7C342 377.4 336.8 371.7 336.8 371.7C335.8 371.7 333.8 371.2 333.8 371.2C324.3 375.4 315.9 366.2 315.9 366.2C308.8 367.6 305.5 364.2 303.4 360.7C302.167 358.342 300.202 356.447 297.8 355.3C295 353.7 292.3 348.7 295 346.1C297.2 343.8 296.6 343.3 296.6 343.3C292.8 337 303.1 335.1 303.4 333.5C303.6 331.4 305.8 330 308.1 329.8C310.5 329.7 310.5 329.8 312.1 328.4C313.5 326.7 316.4 328.7 316.4 328.7C317.1 328.3 322.2 324.3 326.7 326.3C331.3 328.3 335.1 327 335.1 327C338.3 326.3 365 322.7 365 322.7C366.6 320 368 316.9 375.3 315.3C382.6 313.7 388.1 308.9 388.1 308.9C386.8 307.5 384.6 307.6 383.5 307.5C382.4 307.4 380.1 305.3 380.1 305.3C378.7 306 378.1 305.7 368.4 311.6C359.7 316.8 359.4 306.4 359.4 306.4H340.7C340.4 310.4 337.4 312 337.4 312L330.4 312.3C326.7 310.3 326.7 303.5 326.7 303.5C315.483 303.253 304.392 305.906 294.5 311.2C271.1 299.3 252.8 296.5 252.8 296.5C281.2 293.5 296.3 285.5 296.3 285.5C305.512 291.117 315.937 294.443 326.7 295.2C327.2 289.5 331.1 288.1 331.1 288.1L335.4 288.5Z" fill="black"/>
<path d="M301.5 335.7C295.6 339.1 296.7 341 297.2 342.1C297.7 343.1 297.8 344.2 296.2 345.9C294.5 347.5 294.7 348.1 294.7 348.1C295 353.8 299 355.1 300.7 356.5C302.2 357.6 304.6 361.4 304.6 361.4C305.501 362.867 306.791 364.055 308.327 364.831C309.863 365.608 311.585 365.944 313.3 365.8C315.7 365.8 315.5 365.6 314.3 364.5L310.7 361.5C313.054 362.559 315.164 364.09 316.9 366C322.9 372.6 328.5 371.7 330.9 371.4C333.4 371.1 333 369.6 333 369.6C332.9 369.4 330.6 369.2 330.6 369.2C321.4 368.4 318.7 362.4 318.7 362.4C323.321 366.464 329.247 368.735 335.4 368.8C338 368.7 337.8 369.5 337.3 369.6C336.7 369.7 336 369.6 334.7 369.5C333.5 369.5 333.5 369.7 333.7 370.3C334.1 370.7 335.2 370.8 336.7 370.7C338.1 370.7 336.9 370.9 340.7 373.7C344.5 376.7 353.7 374.3 353.7 374.3C347.7 372.8 346.9 370 346.9 370C338.7 371 335.4 366.1 335.4 366.1C333.562 364.672 331.586 363.432 329.5 362.4C324.9 360.4 324.2 356.2 324.2 356.2C325.5 358.2 328 360.2 331.2 361.2C334.5 362 335.3 362.4 335.3 362.4C334.499 362.581 333.661 362.512 332.9 362.2C329.7 361.2 331.5 362.5 331.5 362.5C335.1 365.4 336 365.1 336 365.1C345.3 366.1 340.7 362.4 340.7 362.4C347.2 364 348.4 361.5 348.4 361.5C349.8 364.5 354.8 363.3 354.8 363.3C348.1 366.6 353.1 365.6 353.1 365.6C359.9 364.4 361.3 366.1 361.3 366.1C363 367.8 364.9 367.6 364.9 367.6C364.9 367.6 366.1 367.6 368.6 368.1C371.2 368.6 375.2 370.8 378.9 370.4C382.5 369.9 383.2 371 383.2 371C382.4 370.8 380.8 370.5 378 371.8C375.1 373.1 370.1 373.5 362.8 371.8C355.5 370.1 355 370.4 355 370.4C356.586 371.461 357.835 372.953 358.6 374.7C358.9 375.9 360.2 376 360.2 376C360.7 374.4 362.8 373.7 362.8 373.7C364.3 375 368.2 376.7 368.2 376.7C368.6 375.9 368.2 375.3 368.2 375.3C370.9 378 374.2 377.2 374.2 377.2C375 376.6 374.8 375 374.8 375C375.9 375 376.1 375.7 376.8 376.3C377.8 376.7 380.2 376.4 380.2 376.4C379.2 376 378.5 374.6 378.5 374.6C382.3 372.1 390.2 373.1 390.2 373.1C395.9 374.2 395.2 378 395.2 378C396.254 378.607 397.2 379.384 398 380.3C398.5 378.9 398 377.6 398 377.6C400.7 378.8 401.2 381.9 401.2 381.9C404.2 378.4 398.3 374.5 398.3 374.5C401.2 374.1 404.3 374.4 406.3 374.6C408.886 375.055 411.303 376.195 413.3 377.9C415.189 379.163 417.289 380.078 419.5 380.6C419.5 379.8 417.3 378.5 416.8 378.2C416.3 378 416.1 377.2 416.1 377.2C418.1 377.6 419.4 377.4 419.4 377.4C416.275 375.669 413.356 373.589 410.7 371.2C413.3 371.5 414.8 369.9 414.8 369.9C409.3 369.9 409.1 368.6 409.1 368.6C409.8 368.7 412.3 369.4 415.6 368.7C418.9 368 423.4 368.7 423.4 368.7C421 364.9 411.9 365.6 408.9 365.7C405.9 365.9 404.9 365.5 404.9 365.5C405.3 365.3 405.9 364.8 408.1 364.7C410.4 364.7 412.7 365 415.3 363.1C417.8 361.4 421.4 362 421.4 362C420.6 360.2 416.4 359.6 412.8 362C409.2 364.2 405.8 363.6 405.8 363.6C411.6 362.8 413.2 360.7 413.2 360.7C411.6 360.2 410.6 360.8 407.2 361.5C403.7 362.2 402.8 361 402.8 361C406.5 358.8 409.2 357.9 409.2 357.9C406 357.1 403 355.7 403 355.7C399.7 358.9 397 360.7 390.6 357.4C384.2 353.9 380.8 354.4 380.8 354.4C383.217 353.039 385.963 352.374 388.735 352.48C391.507 352.586 394.194 353.458 396.5 355C400.7 357.5 402 355.5 402 355.5C400.6 354.7 400.8 353.9 400.8 353.9C411 359.1 415.5 355.9 417.8 354.4C420 352.8 416.7 350.8 416.7 350.8C416.5 354 412.3 355.7 409 354.5C405.7 353.4 402.7 352 398 349.9C393.2 347.9 387.4 349 381.8 350.2C376.2 351.3 375.6 350.8 375 350.4C374.5 349.9 374.3 348.6 371.4 349.7C368.6 350.9 362 347.8 357.9 346.8C352.253 345.78 346.427 346.733 341.4 349.5C335.6 352.8 332.7 352 331 351.2C329.3 350.4 328.1 348.2 330 346.2C331.9 344.2 332 343.8 331.9 341C331.7 338.2 328.9 336.5 328.9 336.5C331.5 333.9 332.1 333.2 331.2 332.1C330.4 331 331.7 331 333.2 330.3C334.7 329.7 334 329.6 333.7 328.7C333.3 327.9 332.5 328.1 332.5 328.1C329.1 328.2 327.2 327.2 327.2 327.2C321.7 324.7 316.4 329.7 316.4 329.7C313.3 327.2 312.5 328.9 311.9 329.4C311.5 330 310.3 330.4 308.9 330.6C307.5 330.7 305.4 331.2 304.8 332.6C304.8 332.6 304.1 333.6 304.8 334.6C304.8 334.6 305.7 336 304.2 337.6C302.6 339.2 302 339.5 302.6 341C303 342.5 302.9 343.7 302.2 344.6C302.2 344.6 301.5 343.8 301.7 342.8C301.9 341.8 301.9 341.1 301.7 340.6C301.7 340.6 300.1 342.1 299.9 343.2C299.9 343.2 299.2 341.5 301.5 339.2C303.7 337 304.8 335.9 304.1 335C303.6 334.3 302 335.4 301.6 335.7H301.5Z" fill="#FFC221"/>
<path d="M308 360.6C308 360.6 305.2 358.4 305.5 355.4C305.8 352.4 305.8 352.2 305.5 351.4C305.5 351.4 304.9 351.7 305 352.9L304.8 355.3C304.8 355.3 303.3 352.9 302.6 352.4C302.6 352.4 303.2 349.8 302.4 348.7C301.6 347.6 300.8 347.5 299.9 347.9C298.5 348.3 297.6 349.5 301.9 353.1C301.9 353.1 303.5 354.4 304.6 357.1C305.7 360 307.6 360.4 307.9 360.6H308ZM322 352.3C322 352.3 321.7 350.7 323.3 347.7C323.813 346.79 324.099 345.769 324.134 344.724C324.169 343.68 323.951 342.643 323.5 341.7C323.2 340.9 323 341.2 324.5 339.9C326.5 338.3 323.8 336.3 327 333.5C327 333.5 329 331.8 329.4 331.1C329.4 331.1 326.2 332.8 324 333.7C321.8 334.6 313.7 338.6 315.5 341.3C317.3 344 317.1 344.1 316.8 345.3C316.8 345.3 311.8 342.7 313.7 338.5C313.7 338.5 314.4 336.9 316.4 334.9C318.4 333.2 317.3 335.3 321 333.1C321 333.1 324 331.3 325.6 329C325.6 329 323.6 330.2 322.9 330.4C322.9 330.4 318.5 331.2 316.7 333C315 335 311.2 338.1 312.4 341.7C312.4 341.7 308.1 341.2 307.1 336.7C307.1 336.7 299 346.6 316.1 351.3C316.1 351.3 319.1 352.2 322 352.3Z" fill="black"/>
<path d="M396.7 318.9C403.1 318 439.9 312.4 443.3 312C446.9 311.7 448.3 311.2 449.5 314.2C450.9 317.4 444.5 317.5 444.5 317.5L400.5 322.5C398.5 322.7 398 321.9 398 321.9L396.3 319.7C396.3 319.7 395.8 319.1 396.7 318.9Z" fill="#FFC221"/>
<path d="M306.9 339C306.9 339 302.1 348.9 320.8 351.3C320.8 351.3 320.8 350.3 321.6 348.6C322.4 347.1 324 343.9 322.4 341.9C320.9 339.9 323.7 340.9 324 338.2C324.5 335.6 323.8 335.9 325.1 334.2C325.1 334.2 319.3 336.3 317.1 338.9C314.8 341.5 320.1 343.4 317.1 346.3C317.1 346.3 314.3 345.3 312.8 342.4C312.8 342.4 309.2 342.5 306.8 338.9L306.9 339Z" fill="#5A3719"/>
<path d="M325.2 351.2C325.2 351.2 329.8 355.2 335.2 355C340.7 354.8 343.1 353.4 344.5 351.2C344.5 351.2 345.5 352.8 345.5 353.9C345.5 353.9 350.3 350 358.5 353.5C366.7 357 364.1 355.9 365.9 356.2C365.9 356.2 362.4 355.6 354.5 359.2C346.3 362.9 324.9 361.6 325.1 351.2H325.2Z" fill="black"/>
<path d="M317.5 333.5C317.5 333.5 319.5 333.9 321.5 331.5C321.5 331.5 318.8 332.1 317.5 333.5ZM301.8 352.1C301.8 352.1 298 349.1 300.4 348.5C300.4 348.5 302.2 348.1 301.8 352.1Z" fill="#5A3719"/>
<path d="M385.6 371C385.6 371 387.8 367.3 393.6 367.3C399.6 367.3 400.2 370.1 407.6 370.6C407.6 370.6 398.7 373.1 392.5 370.9C391.401 370.457 390.225 370.237 389.04 370.254C387.855 370.271 386.686 370.525 385.6 371Z" fill="black"/>
<path d="M327.1 353.9C327.1 353.9 336.1 359.2 343.9 353.4C343.9 353.4 344.5 354 345.1 355.4C345.1 355.4 351.1 349.7 361.7 355.9C361.7 355.9 360.4 355.7 355.4 357.9C348.9 360.7 332.5 362.6 327.1 353.8V353.9Z" fill="#5A3719"/>
<path d="M361.3 359.3C361.3 359.3 369.8 360.3 376.9 359.8C381.3 359.6 386.1 358.8 383.8 360.2C381.3 361.7 382.5 361.9 392.7 361C402.7 360 392.6 362.9 399.5 363.8C399.5 363.8 382.6 372.4 361.3 359.3Z" fill="black"/>
<path d="M383.5 353.9C383.5 353.9 388.5 352.1 393.2 354.2C397.7 356.4 397 356.6 400.1 356.9C400.1 356.9 398 359.9 392.9 357.5C389.984 355.796 386.808 354.58 383.5 353.9ZM389.1 369.1C389.1 369.1 394 366.7 399.4 369.2C400 369.6 401.4 370.2 402.9 370.5C402.9 370.5 398.8 371.8 394.5 370.5C392.747 369.867 390.939 369.398 389.1 369.1ZM364.9 360.4C364.9 360.4 375.9 361.4 381.7 360.2C381.7 360.2 374.9 363.5 392.1 362C392.1 362 395.8 361.6 395.4 362.2C394.9 362.8 394.6 363.2 396.5 363.8C396.5 363.8 383.8 369.6 364.9 360.4Z" fill="#5A3719"/>
<path d="M310.5 351.2C310.5 351.2 310.6 352 313 353.1C315.5 354.1 316.8 356.1 317.3 357.1C317.668 357.845 318.187 358.505 318.824 359.038C319.461 359.572 320.202 359.968 321 360.2C321 360.2 312.4 362 308.7 357.5C308.7 357.5 305.7 354.4 310.4 351.2" fill="black"/>
<path d="M377.7 370.9C377.7 370.9 374.4 370.6 369.7 369.1C365.1 367.4 363.9 368.8 361.3 366.9C358.7 364.9 353.4 366.1 352.5 366.3C351.5 366.3 348.7 366.3 352.1 364C352.1 364 349.4 364 348.3 362.5C348.3 362.5 347.1 363.8 342.3 363.3C342.3 363.3 344.5 366.6 336 365.6C337.418 367.258 339.297 368.457 341.398 369.045C343.499 369.633 345.728 369.582 347.8 368.9C347.8 368.9 347.2 371.5 351.1 372.5C355.1 373.5 355.8 374.2 357.9 375C357.9 375 358.1 373.4 352.9 369.6C352.9 369.6 355.7 369.5 359.7 370.5C363.7 371.5 372.8 373.7 377.7 370.9ZM379.8 374.8C379.8 374.8 380.7 376.8 383.3 376.3C385.8 375.8 390 375.1 394.1 377.2C394.1 377.2 394.9 373.7 386.6 373.5C386.6 373.5 381.5 373.7 379.8 374.8ZM310.2 352.4C310.2 352.4 307 355 309.9 357.7C312.5 360.2 316.6 360 318.6 359.9C318.6 359.9 317.3 359.3 316.4 357.7C315.3 356.2 315.3 355.1 313.1 354.1C310.9 353.1 310.6 352.9 310.2 352.4ZM307 338.9C307 338.9 302.1 348.9 320.9 351.3C320.9 351.3 320.9 350.3 321.7 348.6C322.3 347.1 324 343.9 322.5 341.9C320.9 339.9 323.7 340.9 324.1 338.2C324.5 335.6 323.8 335.9 325.1 334.2C325.1 334.2 319.3 336.3 317.1 338.9C314.8 341.5 320.1 343.4 317.1 346.3C317.1 346.3 314.3 345.3 312.8 342.5C312.8 342.5 309.2 342.5 306.8 338.9H307Z" fill="#5A3719"/>
<path d="M355.9 362C355.9 362 359.9 361.3 369.8 365C379.8 368.7 383.9 367.8 385.4 367.8C385.4 367.8 379.8 370.7 371.1 366.8C363.4 363.4 362.9 364.8 355.9 362Z" fill="black"/>
<path d="M418.3 359.8C418.3 359.8 420.5 359.7 421.9 360.2C421.9 360.2 422.7 359.5 424.9 359.2C424.9 359.2 423.5 358 418.3 359.8ZM411.5 354.2C411.5 354.2 413.7 354.2 414.5 353C414.5 353 413.2 351.6 411.5 350.8C411.5 350.8 411.9 352.5 411.5 354.2ZM335 328.8C335 328.8 334.5 327.6 337 327.3L370.3 322.5C370.3 322.5 371.9 322.5 372.2 323.5C372.4 324.8 372 325.6 364.5 326.5C357 327.3 337.2 329.8 337.2 329.8C337.2 329.8 335.2 330.2 335 328.8Z" fill="#FFC221"/>
<path d="M365.2 327.4C365.2 327.4 365.2 331.8 369.7 332.4C374 333.1 375.5 332.2 376.7 329.9C377 329.3 378.3 324.7 376.4 324.4C375.357 324.266 374.298 324.368 373.3 324.7C371.8 325.4 370.4 326.1 370.8 326.8C372 328.5 372.2 328.8 371.8 329C370.7 329.3 369.9 328.3 369.7 327.6C369.5 326.8 370.3 326.3 367.4 326.8C366.2 326.9 365.2 326.9 365.2 327.4Z" fill="#FFC221"/>
<path d="M383.8 324C386 324.3 385.8 329.1 383.2 331.3C380.2 333.7 377.5 332.8 377.5 332.8C375.9 332.2 376.2 332.4 377.3 330.7C378.3 329 378.9 326.8 378.3 325.3C378.1 324.8 378.6 324.3 379.3 324.3C379.3 324.3 381.5 323.8 383.8 324Z" fill="#FFC221"/>
<path d="M385.8 324.5C385.8 324.5 387.4 326.5 385.4 330.3C385.4 330.3 384.4 331.4 386.5 331.3C388.5 331.1 393.1 329 392.5 326.2C392.5 326.2 392.5 325.5 391.2 325.5C390 325.6 391 324.9 391.5 324.7C392 324.7 393.5 324 389.5 321.4C389.5 321.4 388.9 320.9 388.1 321.1C387.5 321.4 385.4 322.1 385.4 323.5C385.4 324 385.8 324.5 385.8 324.5Z" fill="#FFC221"/>
<path d="M390.1 321C390.1 321 393.4 323.3 393.3 324C393.3 324.6 393 325.6 393.9 325.4C394.7 325.4 398.1 324.6 397.2 322.4C396.2 320.1 395.2 319.4 393.7 318.7C392.1 318.2 391.7 318.9 390.3 320C390.3 320 389.3 320.6 390.1 321ZM373 324.2C373 324.2 373.5 322.6 370.6 321.9C370.6 321.9 371.8 320.9 374.3 321.4C376.6 321.9 376.4 323.6 376.4 323.7C376.4 323.7 374.5 323.7 373 324.2ZM379.2 323.8C379.2 323.8 382.4 323.2 383.9 323.4C383.9 323.4 382.3 319.8 377.9 320.9C377.9 320.9 379.5 322.9 379.2 323.8ZM384.8 323C384.8 323 384.8 321.8 387.6 320.7C387.6 320.7 386.3 319.4 384.3 319.6C382.2 319.6 381.7 320.4 381.7 320.4C381.7 320.4 384.2 321.3 384.8 322.9V323ZM385.8 319C385.8 319 387.7 319.6 388.8 320.5C388.8 320.5 390.4 318.7 391.8 318.3C391.8 318.3 389.1 316.9 385.8 319.1V319Z" fill="#FFC221"/>
<path d="M294.5 310.3C294.5 310.3 302.2 303.8 306.5 304.6C310.8 305.4 308.7 304.9 313.3 304.1C318.1 303.4 322.9 302.9 324.9 303.1C324.9 303.1 319.1 299.1 309 299.1C309 299.1 301.9 301.6 297 304.9C297 304.9 287.4 299.6 277.6 302.7C277.6 302.7 288.3 306.7 294.6 310.3H294.5Z" fill="#5A3719"/>
<path d="M376.1 321.6L377.4 321.4C377.4 321.4 379.5 324 378 324C376.7 324 377.1 323.7 377 323C376.843 322.43 376.488 321.934 376 321.6H376.1ZM366.4 321.8C366.4 321.8 365.6 322.8 367.1 322.6C368.9 322.3 368.6 322.6 370.4 321.3C370.4 321.3 371.7 320 373.9 320.8C373.9 320.8 375.7 321.4 377.2 320.7C378.8 319.9 379.1 320 379.9 320C380.7 320.1 380.7 320.3 381.7 319.5C382.9 318.7 384.7 319.3 385.9 318.3C387.1 317.3 388.6 318.2 385.9 316.3C385.9 316.3 385.3 315.7 385.4 315.3C385.4 315.3 386.4 315.6 387.3 316.3C388.1 317 389.3 316.8 389.6 316.6C389.6 316.6 389.8 314.2 392.1 312C394.5 309.8 394.5 309.7 393.1 309.7C391.7 309.7 389.4 309.1 388.6 309.7C387.8 310.3 380.9 314.8 376.8 315.6C372.8 316.4 369.1 317.6 366.4 321.8ZM258.4 296.8C258.4 296.8 270.9 300 273.6 301.3C273.6 301.3 274.3 299.3 268.6 297.7C268.6 297.7 282.4 297.3 296.8 303.9C296.8 303.9 303.8 297.9 326.4 299.7C326.4 299.7 326.4 297.7 326.6 296.2C326.6 296.2 310.8 295.7 296.3 286.9C296.3 286.9 283.2 293.3 258.4 296.9V296.8ZM327.4 302.8C326.7 290.1 331.4 288.9 331.4 288.9C331.4 288.9 333.8 289 336.2 289.4C336.2 289.4 332.4 294 333.4 303.1C333.4 303.1 333.8 304.5 330.6 304.5C327.4 304.5 327.5 303 327.5 303L327.4 302.8Z" fill="#FFC221"/>
<path d="M330.8 311.2C330.8 311.2 328.4 308.8 328.2 306C328.2 306 328.2 305.3 330.5 305.3C332.9 305.4 333.2 305.2 333.8 306.6C334.3 307.9 335.8 310.7 336.2 311.1L330.8 311.2Z" fill="#5A3719"/>
<path d="M335.9 304.9C335.667 303.278 335.567 301.639 335.6 300C335.8 293 336.9 293.6 337.4 294.5H339.9C339.9 294.5 338.1 286.5 335.9 291.2C334.316 294.706 333.761 298.59 334.3 302.4C334.5 304.5 334.7 305.8 335 306.6L335.9 304.9Z" fill="#FFC221"/>
<path d="M363.3 304.9C363.3 304.9 367.9 305.7 360.8 307.3C360.8 307.3 361.1 316 369.5 309.9C369.5 309.9 374.6 306.7 378 305.4C378 305.4 379.8 304.9 379.6 303.5C379.6 303.5 379.8 301.9 378 302.3C378 302.3 376.5 302.3 375.5 302C375.5 302 374.5 300.8 373.9 301.2C373.2 301.7 371.6 301.4 372.9 303C374.1 304.4 374.5 304 375.1 303.6C375.7 303.2 378.4 302.2 375.9 304.4C373.4 306.6 371.5 303.1 370.7 302.4L363.3 304.9ZM339.8 305.9H337.8C337.8 305.9 336.6 307.5 335.8 304.9L335.1 306.6C335.1 306.6 337.5 315.9 339.8 305.9Z" fill="#5A3719"/>
<path d="M336.9 295.1C336.9 295.1 335.8 301.3 337.2 304.9L359.7 305.4C359.7 305.4 359.4 301.1 359.7 295.1H356.5C356.5 295.1 356 300.1 356.5 303.1H355.9C355.9 303.1 355.5 298.9 355.9 295.1H353.3C353.3 295.1 352.9 299.7 353.2 303.1H352.7C352.7 303.1 352.3 299.1 352.7 295.1H350.2C350.2 295.1 349.7 299.2 350.2 303.1H349.5C349.5 303.1 349 299 349.5 295.1H346.6C346.6 295.1 346 299 346.6 303.1H346.1C346.1 303.1 345.4 299.2 346.1 295.1H343.2C343.2 295.1 342.6 299.5 343.2 303.1H342.6C342.6 303.1 342.2 298.9 342.7 295.1H340C340 295.1 339.3 298.8 340 303.1H339.3C339.3 303.1 338.9 299.9 339.5 295.1H336.8H336.9ZM360.6 306.2C360.6 306.2 360.1 295.2 362.1 292.4C364.2 289.6 364.7 290.1 368.3 292.4C371.9 294.7 376.5 297.2 377.3 297.4C378 297.7 379.1 298 379.1 300C379.1 302 379.4 302.6 376.3 300C375.9 299.7 374.4 298.4 373.3 298C370.6 297.2 374 298.6 375 300.1C375.8 301.3 376.6 301.1 374.4 301.7C369.755 303.057 365.152 304.557 360.6 306.2Z" fill="#FFC221"/>
<path d="M368.5 298.3C368.5 298.3 366.8 296.3 369 295.9C371 295.4 371.2 299.1 371.6 301.3C371.9 303.6 369 299.1 368.6 298.4L368.5 298.3ZM365.5 308C365.5 308 363.1 308.9 364.7 309.6C366.3 310.4 370.7 306.7 369.2 307C367.6 307.2 365.5 308 365.5 308ZM368.8 304.6C368.8 304.6 370.9 304.4 370.4 305.3C370.1 306.3 369.3 305.7 369 305.4C368.6 305.3 367.2 304.7 368.8 304.6Z" fill="black"/>
<path d="M380.2 301.7C380.2 301.7 380.7 305.9 384.3 307C384.3 307 386.5 307.5 386 305.7L385.4 303.5C385.1 302.8 383.6 302.4 383.4 302.3C383.3 302.3 383.1 301.8 384.1 302.2C385.1 302.5 385.2 302.6 385.1 301.8C385.1 301.1 384.5 301.4 383.6 301C383.3 300.8 383.6 300.5 384 300.6C384.4 300.6 385.3 301 385.3 299.6C385.3 299.6 385.5 298.7 384.4 298.7C383.2 298.7 383.3 298.1 383.6 298C384 298 385.2 298.8 385.6 297.3C386 295.9 383.9 296.8 384.2 296C384.5 295.2 386 296.4 386 295.5C386.2 294.7 387.4 294.3 385.3 294C384.4 293.9 385.3 293.4 386.3 293.6C387.5 293.7 388.2 292.4 388.8 291.9C389.6 291.4 393.3 289.2 388.2 289.9C383.2 290.6 381.7 293.1 381.5 293.6C380.262 296.108 379.809 298.931 380.2 301.7Z" fill="#FFC221"/>
<path d="M391.9 305C392.6 304.9 393.2 305 393.4 305.4C394.2 307.1 392.4 306.6 391.3 307.8C390.2 309 390.1 308.8 388.7 308.4C387.2 307.9 386.7 305.7 386.7 305.7C386.5 304.9 387.1 304.9 387.8 305C387.8 305 390.3 305.3 391.9 305ZM386.5 304.1C386.5 304.1 386.5 304.5 387.5 304.6C388.2 304.6 390.7 304.9 392.3 304.4C392.3 304.4 392.7 304.4 392.5 303.4C392.5 303.4 392.5 302.7 391.2 303C389.8 303.2 387.9 303 387.2 302.9C386.6 302.7 386.2 302.9 386.5 304V304.1ZM386.3 301.1C386.3 301.1 386.3 302.3 387.5 302.5H391.2C391.8 302.5 392.7 302.2 392.8 301.5C392.8 300.6 393.1 300.1 391.4 300.5C389.7 300.9 387.8 300.6 387.6 300.5C387.4 300.5 386.3 300.2 386.3 301V301.1ZM386.9 298.3C386.9 298.3 386.5 299 386.6 299.5C386.6 300.1 387.6 300.4 389.3 300.4C391 300.4 392.6 300.1 392.7 299.5C392.8 298.9 393.2 298.2 391.9 298.5C390.641 298.702 389.359 298.702 388.1 298.5C387.4 298.2 386.9 298.1 386.9 298.3Z" fill="#FFC221"/>
<path d="M450.7 305.1C450.7 305.1 450.7 306.2 451.6 307.5L403.4 306.1C403.4 306.1 404 305.7 404.2 303.8L450.7 305.1Z" fill="#5A3719"/>
<path d="M387.3 296.4C387.3 296.4 386.9 297.6 387.7 297.8C388.5 298.1 390 298.3 392 298C392 298 393 298 393.3 297C393.7 296 393.6 296.5 390.9 296C390.9 296 390 295.7 392.5 295.7C392.5 295.7 394 295.7 394.1 295.5C394.4 295.3 396.3 293.7 393.8 293.9C391.4 293.9 392.6 293.4 393.8 293.4C395.1 293.4 395.4 293.7 395.8 293.4C396.2 293.1 395.8 293.2 395.2 292.5C394.6 291.8 395 292 395.5 292.5C396 292.8 396.3 292.9 396.8 292.5C397.4 291.9 396.4 291.2 396.8 291.3C397.2 291.3 397.5 292.2 399 291.5C400.7 290.6 402.8 291 403.4 291.5C403.9 291.9 405.6 292.5 406.6 291.5C407.6 290.5 405.4 289.5 406.3 289.5C407.3 289.3 407.9 289.7 408.3 288.9C408.7 288.1 406.8 287.5 408.6 286.9C410.3 286.5 408.8 281.6 408.3 281.2C408.3 281.2 406.3 282.3 404.2 285.7C402 289.2 400.7 291.3 397.8 290.2C393.8 288.6 391.5 290.9 390.8 291.2C389.8 291.9 393 292.2 391.1 292.2C389.3 292.2 389.3 292.4 389.1 292.7C389 292.9 389.1 293.2 389.5 293.3C389.8 293.3 390.5 293.9 389.4 293.9C388.2 293.9 387.4 293.7 387.8 294.9C387.8 294.9 387.8 295.1 388.4 295.2C389.1 295.2 389.4 296 388.1 296C387.3 296 387.3 296.3 387.3 296.4ZM391.7 308.4C391.7 308.4 390.9 309 392 309.1C393.2 309.1 393.8 309.4 394.2 308.8C394.6 308.2 396.2 308.4 395.2 307.5C394 306.6 393.3 307.1 391.7 308.5V308.4Z" fill="#FFC221"/>
<path d="M396.7 293.9C396.7 293.9 400.7 290.1 404 292.7L407.8 295.7C407.8 295.7 408.2 296 407.3 296.8C406.3 297.7 407.3 297.7 408.3 297.1C409.3 296.6 409.3 297.1 409.8 297.7C410.3 298.2 411 298.5 409.4 298.5H404.5C404.5 298.5 402.3 298.7 403.5 297.7C404.5 296.8 404.3 295.7 403.8 295.7C403.2 295.7 403.8 296.3 403.4 296.7C403 297.1 402.3 297.5 401.4 297.5C400.5 297.5 400 298.1 401.2 298.5C402.5 299 401.1 299.3 400.4 299.3C399.7 299.3 396.7 299.5 399.8 299.9C403 300.3 399.5 300.2 401.8 301.5C404.5 303 402.6 306.1 401.6 306.4C401.6 306.4 400.6 307 401.9 306.8C403.3 306.6 404 306.5 403 307.2C402.1 308 400.2 310.3 397.6 308.5C397.6 308.5 396.3 308 398.5 307.8C400.7 307.8 396.7 307.2 396 306.8C395.4 306.4 393 303.8 394.5 304.1C396.1 304.4 395.5 303.5 394.5 303.2C393.6 302.9 393.5 301.5 394.5 301.7C395.5 302.1 396.7 302.7 397.6 302.6C398.5 302.6 398.2 302.2 396.4 301.7C394.6 301.1 393.9 301 394.3 299.5C394.7 298 396.7 300.1 396.3 299C395.8 297.8 394 298.4 394.9 297C395.8 295.6 396.1 296.1 396.5 296.3C396.9 296.4 397.5 296.3 396.5 295.5C395.6 294.9 396.5 294.1 396.7 293.9Z" fill="#FFC221"/>
<path d="M399.5 295C399.5 295 399.5 294.5 400.3 294.6C401 294.6 400.8 294.3 401 294.1C401.2 294.1 403 294.7 401.3 295.3C400.7 295.5 399.7 295.3 399.6 295H399.5Z" fill="black"/>
<path d="M403.5 299.2C403.5 299.2 402.1 299.9 403.3 301.3C404.3 302.6 404.3 303 404.3 303.8C404.2 304.6 450.7 305.1 450.7 305.1C450.7 305.1 450.6 302.1 452.5 300.4L403.5 299.2Z" fill="#FFC221"/>
<path d="M451.4 304.3C451.4 304.3 451.6 301.7 453 300.9C453.8 300.4 454.8 300.7 455.2 302.7C455.9 305.6 453.4 308.1 452.3 307C451.3 306 451.5 304.3 451.5 304.3H451.4Z" fill="#5A3719"/>
<path d="M398.1 315.1C398.1 315.1 401.2 312.4 401.7 311.3C401.7 311.3 410.1 317.3 409.6 311.8C409.6 311.8 409.6 310.3 409.8 308.9C409.8 308.9 412.8 309.3 413.3 306.9L405.5 306.6C405.5 306.6 404.7 306.4 403.5 307.7C402.3 309 399.8 310.4 397.5 309.2C397.5 309.2 396.5 308.4 395.5 309.1C394.5 309.8 394.5 309.9 395.3 310.7C396.1 311.5 397.8 313.8 398.1 315.1ZM416.1 298.7L411.5 298.6C411.5 298.6 409.9 296.2 406.6 293.6C406.6 293.6 405.6 293.2 407.4 291.7C409.4 290.2 409.9 288.7 409.9 287.9C409.9 287.3 409.9 286.1 410.6 286.9C411.2 287.8 415.9 292.1 416.6 290.9C417.3 289.6 417.5 289 417.5 288.6C417.7 288.2 417.8 287 418.5 288.3C419.2 289.5 419.6 289.2 419.7 292.3C419.7 292.3 419.7 295.6 420.3 296.7C420.3 296.7 414.3 294.8 416.2 298.7H416.1ZM396.3 288.9C396.3 288.9 399.8 290.9 401.5 288.3C403.1 285.7 404.3 285.3 403 282.6C401.7 280.2 403 279 404 277.9C405 276.9 405.9 277.1 406 272.9C406.1 268.9 409 267.6 410.2 266.3C411.5 265.1 414.6 263.2 409.8 262.3C405.1 261.6 395.5 259.1 393.1 255.4C390.6 251.7 389.5 253.9 389.5 254C389.5 254.2 388.7 256.9 391.1 261.8C393.5 266.7 395.6 269.8 398.1 271.4C400.4 273.1 402.5 273.9 401.3 277.2C400.1 280.5 398.1 286.3 396.3 289V288.9Z" fill="#7B3C20"/>
<path d="M409.2 278.5C409.2 278.5 409.7 287 415.9 290C415.9 290 417.3 286.7 416.7 283.4C416.7 283.4 418.7 283.6 419.3 284.5C419.3 284.5 419.3 282.1 416.5 281.2C413.5 280.3 415 274.8 416 274.2C417 273.6 416.7 272.4 416 271.4C415.3 270.4 415.2 269 417.6 269.6C420 270.2 419.6 269 418.1 267.8C416.7 266.6 416.8 265.1 418.8 265.1C420.8 265.1 424.3 263.1 422.2 262.5C420.2 261.9 419.5 261.2 422.2 260.5C425.1 259.5 426.5 258.6 424.4 258.4C422.2 258.1 420.8 257.4 422.9 257.1C424.9 256.7 422.6 254.6 420.2 254.5C417.7 254.4 412.7 255.3 416.7 252.1C420.7 248.9 411 251.3 415 249.1C419 247.1 413.6 247.9 412.8 247.9C412.1 247.9 412.1 247.9 412.4 246.9C412.7 245.8 411.9 245.2 410.6 245.9C409.5 246.6 409.5 246.6 409.6 245.1C409.6 243.6 408.2 244.7 407.3 245.1C406.3 245.5 404.2 247.1 403.2 246.3C402.4 245.3 401.9 244.4 399.2 246C396.3 247.7 397 246.3 397.1 245.5C397.1 244.7 398.1 241.9 394.4 245C390.7 248.1 393.6 241.7 390.7 243.8C387.7 246 387.4 246.4 386.9 245.5C386.5 244.5 385.9 243.7 382.6 245.8C379.3 247.8 381.8 244.5 382.2 243.8C382.7 243 384.1 238.3 381.2 242C381.2 242 379.8 244.6 376.7 240C376.7 240 373.5 244.6 372.6 242.5C371.7 240.5 370.9 240.3 369.8 241.6C368.8 242.9 369.5 241.6 369.1 240.4C368.6 239.4 368.3 237.3 362.8 241.2C357.4 245.3 364.8 242.4 360.6 244.2C356.4 246 346.3 251.7 355.5 250.4C364.8 249.1 351 254 354.2 254.9C357.4 255.8 356.4 258.6 368.5 255.3C380.5 252 378.5 254.8 384.7 252.1C390.9 249.5 383.3 253 391.5 252.9C399.8 252.6 392.9 252.9 394.5 254.5C396.2 256.2 403.1 260.2 409.5 261C416.1 261.6 417.7 259.2 415.9 262C413.9 264.8 413.3 265.9 412.2 267C411.2 267.8 408 270.1 407.9 274C407.9 277.9 402.9 278.5 404.7 282.9L409.2 278.5Z" fill="#5A3719"/>
<path d="M419.9 288C419.9 288 418.4 286.9 418.4 285C418.4 285 419.4 285.2 419.9 285.8C419.9 285.8 423.6 281.6 419 280.1C414.6 278.5 416.8 274.5 418.4 274.5C419.9 274.5 420.2 274.1 418.9 272.3C417.6 270.7 417.7 270.5 420.3 270.1C422.7 269.7 422.5 269.1 421.3 268.5C420.554 268.075 419.879 267.535 419.3 266.9C419.3 266.9 426.5 263.8 424.2 262.3C421.8 260.9 424.2 261.3 426.2 259.8C428.4 258.3 428.7 258 428.9 257.4C428.9 257.4 426.9 257.6 425.3 257.4C425.3 257.4 427.1 256.4 425.3 254.9C423.5 253.4 422.9 252.2 419.9 252.9C417.1 253.5 418.1 252.6 419.1 251.4C420.3 250.2 419.8 249.5 417.7 249.2C417.7 249.2 418 248 419.5 246.5C419.5 246.5 415.6 246.8 414.3 246.1C414.3 246.1 415.9 245.1 415.9 243.7C415.9 243.7 413.9 244.5 411.1 244.2C411.1 244.2 412.8 242.8 412.8 241.6C412.8 241.6 408 242.6 405.8 244.3C405.8 244.3 405.4 244.3 405.1 243.7C404.7 243.3 404.4 242.7 399.2 244.3C399.2 244.3 399.8 242 401.1 241C402.3 240.2 402.1 238.4 394.1 243.4C394.1 243.4 393 242.8 392.1 240.4C392.1 240.4 390.3 242.8 389 243.6C389 243.6 387.8 244.1 388 242.6C388.2 240.9 387.2 242 386.4 242.6C385.6 242.9 385 244.1 385.4 240.9C385.8 237.7 384.2 237 384.2 237C384.2 237 381.8 240.6 380.3 241C380.3 241 377.7 238.4 376.7 236.7C375.8 235.1 375.8 234.4 374.9 237.4C373.9 240.4 372.9 240.6 372.9 240.6C372.9 240.6 371.2 239.2 371 238.4C371 238.4 370.8 239.3 370.2 239.6C370.2 239.6 368.8 237.9 368.9 235.6C368.9 235.6 360.2 240.4 359.1 243.3C359.1 243.3 350.9 242.8 347.6 243.4C347.6 243.4 348.4 240.8 350.6 239.4C350.6 239.4 348.4 239.2 348.3 237C348.3 237 350 237.2 351.1 237C352.1 236.7 349.6 233.6 352.3 233.5C355 233.5 356.7 234.8 355.6 231.2C354.3 227.6 354.8 227.6 354.8 227.6C354.8 227.6 359.6 230.4 360.3 229.6C361.1 229 359.7 227.6 363.9 228.2C368.1 229 366.9 226.6 368.6 226.4C370.2 226.4 371 227.4 370 219.9C369 212.4 375.1 223.6 371 212.2C371 212.2 370 208.7 367.4 207.2C367.4 207.2 366.8 209.7 364.1 207.6C361.2 205.3 355.7 204.6 358.1 202.8C360.4 201 361.5 198.8 360.8 197.3C360.8 197.3 358 200.1 353.3 198.1C349.5 196.4 348.7 199.4 344.9 198.6C344.9 198.6 344.9 197.6 348.1 195C351.4 192.4 346.3 195.8 344.3 196.3C342.3 196.8 341.7 196.3 345.9 193C350.2 189.7 358.7 184 357.5 179.1C357.5 179.1 359.5 181.7 364.8 179.8C370 178 374 177.3 375.5 174.5C377.1 171.9 381.2 169.2 382.3 168.5C383.4 167.9 384.8 167.5 383.2 170.1C381.5 172.7 378.9 177.1 371.7 180.1C364.4 183.1 361.7 185.2 360.3 186.9C359 188.4 352.3 191.9 356.7 191.4C361 190.7 368.4 191.4 364.9 190.4C361.5 189.4 357.5 191 360.7 188.1C363.9 185.2 364.5 184.3 369.1 182.3C373.8 180.3 378.9 175.9 378.4 180.7C377.9 185.3 369.2 190.4 367.1 191.9C365 193.5 365.8 193.3 365.8 193.9C365.8 194.5 365.5 195.8 364.6 196.3C363.7 196.9 364 197.6 364.2 198.9C364.5 200.3 364 200.8 364.6 201C365.3 201.2 365.9 201.3 366.1 202.2C366.4 203.2 366.8 203.3 368.1 203.2C369.3 203.1 370.1 203.2 370.1 204C370.3 204.7 371.5 205.7 371.6 203.5C371.7 201.2 372.6 200.8 370.3 201.8C368 202.8 367.5 202.5 367.6 201.4C367.6 200.4 367.3 200.6 366.4 200.5C365.4 200.5 365.1 199.1 366.8 198.2C368.5 197.3 368.5 198.2 370.6 196.4C372.7 194.6 372.7 194.2 373.1 193.4C373.4 192.5 370.1 195.8 368.4 196.5C366.8 197.3 367.3 196 367.6 194.2C367.8 192.4 371.8 189.9 373.6 189.9C375.5 189.9 379.6 190.9 377.9 193.5C376.1 196 371 199 373.1 199.2C375.3 199.4 375.7 198.6 377 199.6C378.2 200.8 377 203.1 376.5 204.3C375.925 205.461 375.107 206.484 374.1 207.3C374.1 207.3 371.8 203.1 371.9 206.4C371.9 209.7 371.4 210.8 371.9 210.9C372.4 211.1 374.9 212.8 375.7 212.8C376.5 212.8 371.3 215.2 373.5 215.4C375.7 215.6 379.3 214.4 380.5 212.1C380.5 212.1 375.9 211.1 374.2 209.4C374.2 209.4 379.3 208.2 377.9 203.2C377.9 203.2 383.1 204.6 380.9 207C378.6 209.3 377.2 209 379.2 209.6C381.2 210.2 382 210.8 382 210.8C382 210.8 383.4 211.5 382.6 212.5C381.8 213.7 381.8 215.3 382.6 215.2C383.1 215.2 385.3 214.2 383.6 213.2C381.6 212 385.6 212.2 383.9 211.2C382.3 210.2 381.8 210.1 381.4 209.6C380.9 209.2 402.4 196.6 391.5 201.3C391.5 201.3 393.8 196.3 397 196.3C400 196.3 400.3 198.8 398.6 200.8C396.7 202.7 395.6 205.7 391.4 206.3C391.4 206.3 397.4 209.3 390.3 214.1C390.3 214.1 388.7 214.8 389.3 215.3C389.9 215.9 394.1 213.5 394.7 212.1C395.276 210.669 396.388 209.52 397.8 208.9C399.4 208.1 407.4 202.7 409.8 198.6C412.2 194.6 412.8 194.5 417.4 190.7C422 186.9 421.3 187.7 421.9 186.8C422.5 185.9 422.7 184.4 424.9 183.2C426.9 182 435.3 177.4 437.9 175.5C440.5 173.6 445.9 170.1 448.1 167.2C450.4 164.3 456.6 160.6 458.1 161.2C459.7 162 458.1 164.2 454.4 166.9C450.7 169.6 441.8 176.9 440.3 178.1C436.663 181.006 432.62 183.365 428.3 185.1C425.5 185.5 425.8 186.5 424.1 188.4C422.4 190.3 418.4 194.1 417.1 195.1C415.8 196.3 412.6 198.4 412.4 200C412.3 201.5 413 201.7 410.4 204C406.636 207.532 402.353 210.466 397.7 212.7C397.7 212.7 402.5 214.3 399.7 217.6C396.8 220.8 397 220.3 396.8 220.6C396.8 220.6 404 219.4 399 225.1C399 225.1 397.9 226.8 400.2 225.1C402.6 223.1 401.6 220.7 401.3 220.4C401.3 220.4 405.2 217.9 409.7 217.9C414.1 217.9 413.9 217.5 409.9 216.4C409.9 216.4 412.8 212.9 415.1 214.7C417.6 216.3 416.8 217.4 414.3 218.7C411.7 220.1 408 220.5 405.3 222.1C405.3 222.1 410.5 223.1 413.3 221C416.1 218.8 416.3 219.9 416.6 220.3C417 220.7 417.3 221.3 416.1 223.2C414.8 225 414.7 225 414.8 225.4C414.8 225.9 414.6 227.1 412.1 227.4C409.7 227.9 408.4 229 409.3 230.2C410.1 231.4 410.1 234.3 408 234.1C405.9 233.8 406.4 232.1 405.6 231.4C404.8 230.8 403.6 229.8 399.8 231.7C396 233.7 395.8 231.3 395.9 230C395.9 230 393.5 232.2 391.4 230.3C389.4 228.3 391.2 227.5 392.4 226.5C393.6 225.5 398.4 223.4 395.5 223.8C392.5 224.1 388.3 224.3 387.4 222.2C386.3 219.9 389.4 220.2 390 220.4C390.5 220.5 392.4 222.2 392.6 220.1C392.6 217.8 395.8 217.6 394.7 217.1C393.7 216.8 392.1 218.1 391.7 218.7C391.7 218.7 389.5 215.6 385.9 216.5C382.3 217.6 387 217.2 387.9 217.4C388.9 217.5 388.3 219.4 385.1 222.3C381.9 225.1 383.3 224.3 385.7 224.3C388.2 224.3 394 224.3 390.7 227C387.2 229.9 385.8 231.2 384.1 230.8C382.3 230.3 384.2 229.1 385.1 228.5C385.9 228.1 386.3 227.2 384.6 227.9C382.9 228.5 382.4 228.6 381 226.3C379.7 223.8 380.2 224.6 380.8 223C381.4 221.4 382.7 219.8 381.1 220.4C379.5 221 379.7 221 379.8 219.2C379.9 217.4 378 217 378 217C378 217 378.9 218.8 378.1 220C377.5 221.1 377.4 221.5 378.5 221.8C379.7 222.1 380.7 223.1 379.2 224.1C377.6 225.1 377.9 225 378.8 225.6C379.8 226.3 381.2 227 379.7 228.5C378.2 229.9 379.4 229.5 380.2 229.5C381 229.5 382.6 230.1 382.6 231.5C382.6 233 382.6 233.3 385 232C387.4 230.6 392.2 230.8 392.2 232.6C392.1 234.6 391.5 235.1 394.2 233.4C396.7 231.8 397.8 234.9 399.6 233.4C401.3 231.9 402.5 230.4 404.6 233C406.6 235.6 405.9 236.3 403.4 238.2C401 240 404.7 238.6 406.5 237.6C408.3 236.6 413.7 236 416.8 237.4C419.8 238.7 420.7 238.4 422.8 237.4C425.2 236.6 426.3 236.4 429.7 238.6C431.95 240.288 434.687 241.2 437.5 241.2C437.5 241.2 433.8 242.7 429.5 242.9C425.3 243.3 423.1 243.9 422.3 244.6C422.3 244.6 424.8 246.3 425.3 248.1C425.3 248.1 428.1 247.7 429.4 248.2C429.4 248.2 428.8 250.2 430.4 251.3C432.2 252.4 433.4 252.8 432.1 254.3C430.8 255.8 434.1 255.1 432.2 257.1C430.4 259.3 429.9 260.2 429.8 262C429.8 263.6 430.2 263.8 428.6 264C427 264.2 428.9 266 428.1 268.3C427.4 270.3 422.8 270.1 423 276C423 276 424.3 273.2 427 270.6C429.7 268.2 429.8 267.9 429.7 266.4C429.7 264.9 429.6 265.2 431.1 264.1C432.4 262.9 430.4 261.9 431.9 260.2C433.3 258.6 432 258.9 433.8 257.3C435.4 255.7 432.2 255.5 434 253.8C435.6 252.2 429.7 250.1 431.5 249.1C433.2 248 436.1 246.4 426.2 246.6C426.2 246.6 428.6 242.6 436.9 243.5C436.9 243.5 434.9 245.1 434.6 246.6L436.2 247.3C436.2 247.3 435.8 248.4 434.2 249.7C434.2 249.7 438.7 252.2 439.4 253.7C439.4 253.7 436.7 254.5 436 255.7C436 255.7 437.2 257.1 437.6 258.7C437.6 258.7 434.6 258.4 434.2 260.7C433.8 262.9 432.9 261.4 432.9 262.7C432.9 264 432.9 264.6 431.9 264.8C430.9 265 431.7 266.1 431.9 266.8C432 267.6 432.4 269.3 432.3 269.8C432.3 269.8 430.7 269.8 430 270C430 270 430.5 273.3 428.7 273.7C426.9 274.2 429.7 274.9 427.7 275.2C425.8 275.5 426.1 275.7 423.7 279.9C423.7 279.9 425.7 278.8 427.7 277.4C429.9 276 427.7 276.4 431.1 273.1C434.5 269.6 433.9 269.4 433.6 267.7C433.3 266 433.3 264.6 434.5 262.9C435.8 261.3 436.1 259.4 440.6 259.7C440.6 259.7 439.3 256.7 437.6 256C437.6 256 439.8 254.5 442 254.4C442 254.4 440 251.9 436 249.7C436 249.7 439.3 246.8 440.1 245.5C440.1 245.5 438.6 245.8 437.3 245.5C437.3 245.5 437.9 244.2 440.9 242.2C440.9 242.2 442.6 243.7 442.4 245.3C442.4 245.3 447.6 242.4 450.4 242.8C450.4 242.8 451.9 246.4 444.8 253.3C444.8 253.3 449.2 253.7 451.1 253.5C451.1 253.5 450.1 256.8 444.7 258.8C439.4 260.8 445.8 263.2 440.4 262.8C435 262.4 436.6 264.2 436.8 266.9C436.9 269.7 437.1 272.6 437 273.3C437 273.3 432.7 271.9 432.8 276.1C432.8 280.3 430.5 281.2 430.1 281.6C430.1 281.6 428.8 280.6 426.9 279.8C426.9 279.8 424.2 284.9 419.9 287.9V288Z" fill="#5A3719"/>
<path d="M413.7 235.2C413.7 235.2 415.1 235 417.7 236.6C420.1 238.2 422.6 234.9 419.9 234.1C417 233.3 419.9 232.2 422.3 234.3C424.9 236.3 425.9 235.3 426.8 234.6C427.8 233.9 428.8 233.4 427.1 232.3C425.4 231.1 428.3 231.7 429.6 232.6C430.9 233.4 430.4 234.2 430.2 234.4C430 234.7 429.9 237.4 432.4 234.9C435 232.3 436.3 229.8 436.2 228.5C436.2 228.5 437.6 229.4 437.8 231C438 232.6 440 230.2 440.6 229.3C441.3 228.5 442.3 226.2 442.2 224.5C442.2 224.5 443.9 227.2 446.5 224.5C449 221.9 448 223.5 451 222.7C454.463 221.763 457.586 219.855 460 217.2C462.1 214.6 462.3 216.4 465 215.7C467.7 215 473.1 211.3 473.6 209.2C474.1 207.2 474 205.9 473.3 206.7C472.5 207.3 472.8 206.7 471.7 206.1C470.4 205.3 468.7 207 468.7 207C468.7 207 470.4 208.3 469.1 208.9C467.8 209.4 466.7 211.3 464.1 210.5C461.7 209.8 459.1 212.9 459.1 212.9C459.1 212.9 461.3 214.6 458.3 215.7C455.5 216.9 455.9 217.2 454.2 216C454.2 216 451.1 219.9 449.2 220.7C449.2 220.7 448.5 220.7 448 219.9C448 219.9 446 222.2 445 222.6C445 222.6 443.6 221.4 442.5 221C442.5 221 440 224 438 225C438 225 437.4 223.8 436.1 223C436.1 223 435.5 227 431.2 229.3C431.2 229.3 431.5 228.3 429.3 226.8C429.3 226.8 424 231.4 422 231.9C419.9 232.3 421.7 230.9 422 230.3C422.3 229.7 423.6 227.8 421 227C418.4 226.2 419 227.6 418.4 227.8C417.8 228.1 417.8 227.3 416 227.6C414.4 227.8 414.6 228.6 413.9 228.9C413.1 229.1 410.1 228.4 410.3 230.3C410.5 232.3 411.9 233.7 409.3 234.8C406.6 236 410.3 235.8 413.7 235.2Z" fill="#7B3C20"/>
<path d="M424.4 229.7C424.4 229.7 425 227.1 422.8 225.9C422.8 225.9 436.8 223.7 426.2 218.3C426.2 218.3 438.9 215.8 435.9 211.8C432.9 207.8 429.9 208.5 429.6 208.7C429.2 208.7 432.3 206.3 433.1 206.7C433.9 207 444.1 210.8 441.4 207.5C438.9 204.2 439.1 204.4 438.7 203.4C438.7 203.4 442 203.4 447.1 208.3C447.1 208.3 448.1 207.3 448.1 205.2C448.1 205.2 451.6 206.2 452.8 207.3C452.8 207.3 453.4 206.1 453.1 205.3C453.1 205.3 456.3 207 457.4 208.8C457.4 208.8 458.8 207.6 459 206.1C459 206.1 462.1 207.4 463 208.4C463 208.4 464 207 463.6 205.1C463.6 205.1 468.7 206.6 469.5 203.5C469.5 203.5 474.6 204.5 471.3 206.5C466.9 209.2 470.8 205.9 466.3 209C462.9 211.5 461 214.3 459.3 213.7C458.1 213.2 456.6 216.7 455 215.1C453.4 213.3 453.4 214.1 452.1 215.9C451.215 217.222 450.211 218.461 449.1 219.6C449.1 219.6 448.3 219.1 447.5 218.3C447.5 218.3 446.5 220 445.3 221.3C445.3 221.3 444.3 219.9 442.6 219.1C442.6 219.1 440 222.1 438.5 223.1C438.5 223.1 436.9 221.6 435.4 221.1C435.4 221.1 435.1 225.1 432 227.1C432 227.1 431.4 225.9 429.3 225.1C429.3 225.1 427.8 227.5 424.4 229.6V229.7Z" fill="#5A3719"/>
<path d="M417 223.5C417 223.5 415.3 224.8 416.4 226.2C417.5 227.6 417.6 225.9 419 225.9C420.4 225.7 437.6 222.7 422 218.1C422 218.1 422.6 217.4 425.3 217.3C428 216.9 437.8 214.3 433.3 210.8C428.7 207.4 424.8 212 428.7 207.8C431.7 204.5 429.3 202.9 429.3 202.9L418.3 210.1C416.3 211.1 413.3 213.4 416.8 214.4C420.2 215.4 422.5 210.7 422.8 211.8C423.1 212.8 415.9 216.8 417 218.7C418 220.5 417.8 222.1 419.5 221.7C421.3 221.4 426.1 222.6 422.2 222.5C418.3 222.3 417 223.5 417 223.5Z" fill="#5A3719"/>
<path d="M423.2 214.8C423.2 214.8 421.6 216 423.7 215.4C425.8 214.8 430 213.9 429.3 212.9C428.4 211.7 425.7 213 423.3 214.9L423.2 214.8Z" fill="black"/>
<path d="M450.9 196.9C450.9 196.9 458.9 196.6 462.2 198.9C465.5 201.1 467.1 202.6 468.1 202.9C468.1 202.9 467.9 205.9 462.8 203.7C462.8 203.7 463.1 205.2 462.5 206.7C462.5 206.7 460.6 205.3 458.5 204.9C458.5 204.9 458 206 457.4 206.7C457.4 206.7 455.1 204.4 452.4 203.7L451.6 205.3C451.6 205.3 448.8 203.6 446.6 203.6C446.6 203.6 447.1 205.3 446.6 206.1C446.6 206.1 440.9 201.4 435.7 202C435.7 202 438.2 205.7 439.8 207.5C439.8 207.5 429.3 206.7 431.1 201C432.8 195.4 431 196.8 437.8 196.9H450.9Z" fill="#7B3C20"/>
<path d="M401.8 212.5C401.8 212.5 400.6 213.5 401.8 214.3C403 215.1 407.1 212.1 407.7 211.7C408.3 211.2 409.7 211.3 407.7 212.9C405.7 214.5 403.7 216.1 402.2 217.8C402.2 217.8 409.2 215.8 413.7 212C418.2 208 413.5 210.6 421.2 206.9C428.9 203.1 432.9 197.2 428.8 197.9C424.7 198.5 420.9 203.2 417.7 205C414.5 206.8 412.7 207 413.2 206C413.7 205 416 205.3 420.5 201.8C424.9 198.2 423.9 198.6 423.9 197.3C423.9 196 422.3 192.9 428.9 189.4C435.6 185.9 456.3 173.9 458.1 169.6C458.1 169.6 452.1 170.3 444.1 176.2C439.68 179.88 434.848 183.035 429.7 185.6C427.5 186.4 427.7 185.8 426.4 187.6C422.943 191.213 419.34 194.682 415.6 198C414.2 199 413.7 199.8 413.6 202C413.6 203.1 404.6 210 401.9 212.5H401.8Z" fill="#5A3719"/>
<path d="M429.2 196.7C429.2 196.7 427.5 197.3 426.1 196.7C424.6 195.9 425.1 192.7 428.7 190.8C432.917 188.504 437.424 186.789 442.1 185.7C442.1 185.7 441.6 189.7 431.3 193.3C431.3 193.3 432 195.3 429.2 196.7Z" fill="#5A3719"/>
<path d="M432.8 194C432.8 194 433.1 195 432.8 195.9C432.8 195.9 451.8 197.7 461.8 186.1C461.8 186.1 448.2 187.4 442.8 190.6C442.8 190.6 446.3 186.4 456.4 182.9C466.5 179.4 470.7 174.9 471.6 172.6C471.6 172.6 458.6 177.1 452.6 177.1C452.6 177.1 451.4 177.1 450.2 177.7C449 178.4 440.9 184.3 438.7 185.3C438.7 185.3 443.3 184.9 444.9 183.5C444.9 183.5 441.7 192 432.8 194Z" fill="#AA5323"/>
<path d="M396.2 204.9C396.2 204.9 393.7 206.7 394.7 207.5C395.7 208.4 397.5 208.5 401.2 205.5C405 202.2 414.1 194.5 408.3 194.2C408.3 194.2 401 193.7 401.3 198.2C401.5 202.7 396.5 204.6 396.2 204.9ZM379.2 202.2C379.2 202.2 384.1 205.1 382.2 207.4C382.2 207.4 397.1 194.8 392.8 192C388.8 189.3 385.5 194.5 386.5 195C387.5 195.5 389.6 194.6 388.9 195.5C385.831 197.962 382.589 200.201 379.2 202.2ZM375.3 198.2C375.3 198.2 378.6 199.2 378.8 200.6C378.8 201.9 388.6 193.7 386 190.2C384.8 188.7 379.5 188 379.2 191.2C378.9 194.2 384.1 190.8 382.2 193C380 196 376.1 197.7 375.3 198.2ZM410.1 191.3C410.1 191.3 408.1 192.8 410 193.7C411.9 194.6 413 193.2 414 192.4C414.9 191.5 419.5 188.1 420.5 186C421.7 183.8 423.2 183.1 424.9 182C426.6 181 438.4 175 445.7 168.5C453 162 449.9 163.7 457.4 159.5C464.9 155.3 469.9 151.5 471.5 146.9C471.5 146.9 468 148.1 465 150.1C461.9 152.1 455 156.4 453.5 157.1C452.1 157.6 450.3 157.7 449.2 158.8C448.2 159.9 448.2 161.2 444.6 164.2C440.9 167.2 422.2 180.4 419.9 182.3C416.578 185.239 413.311 188.239 410.1 191.3Z" fill="#5A3719"/>
<path d="M395.1 195.7C395.1 195.7 397.1 194.6 401 194.9C404.8 195.1 420 180.3 424.4 177.4C431.232 172.729 437.902 167.826 444.4 162.7C446.4 160.8 446.7 158.9 448.3 157.8C449.9 156.8 451.4 156.9 455.1 154.8C458.8 152.7 476.7 142 475.7 135.8C475.7 135.8 449 151.7 442.9 156.9C434.392 163.553 425.618 169.858 416.6 175.8C413.6 177.8 411.2 181 406.1 185.2C401 189.2 395.9 192.8 395.1 195.7Z" fill="#AA5323"/>
<path d="M389.5 190C389.5 190 394.4 189.5 395.1 192C395.1 192 405.6 184.7 408.1 181.7C410.5 178.7 407.2 180.4 413.2 176.5C423.021 169.97 432.658 163.168 442.1 156.1C444.9 153.6 450.4 150.3 454.7 147.3C459.1 144.4 476 136.1 474.1 129.3L458.9 139.4C456.1 141.3 454.9 140.2 452.1 142.4C449.1 144.7 442.9 149.1 441.8 150.6C436.925 154.817 431.817 158.756 426.5 162.4C421.8 165.4 411.5 171.5 406.4 175.9C400.814 180.663 395.146 185.331 389.4 189.9L389.5 190Z" fill="#AA5323"/>
<path d="M374.2 188.6C374.2 188.6 376.6 188.6 377.5 189.6C377.5 189.6 382 185.5 386.9 189.6C386.9 189.6 404.9 177.3 406.7 174.3C408.5 171.3 411.5 171.2 418.4 166.1C425.4 161 429.8 158.8 434.4 155.3C439.1 151.6 443.1 147.5 446.4 145.3C449.7 143.2 458.2 137.6 456.8 132.9C456.8 132.9 449.9 136.7 445.5 141.6C441 146.6 441.5 142.4 436.9 146.4C431.635 151.293 425.792 155.525 419.5 159C413.7 161.9 417.2 161.6 412.9 164.3C408.8 167 409.1 166.6 407.5 167C405.418 167.497 403.536 168.613 402.1 170.2C398.945 172.891 395.489 175.206 391.8 177.1C385.552 180.407 379.626 184.291 374.1 188.7L374.2 188.6Z" fill="#AA5323"/>
<path d="M379.5 179.3C379.5 179.3 378.6 177.3 380.3 175.8C382 174.4 385.3 170.6 385.7 168.3C386.2 165.8 385.8 166.3 390.7 164.2C405.151 158.152 418.844 150.433 431.5 141.2C433.5 139.6 438.5 136.2 440.4 134.6C440.4 134.6 441.3 137.2 439.1 139.1C431.75 144.814 424.07 150.09 416.1 154.9C413.8 156.2 408.1 159.1 406 160.9C404 162.5 404.3 163 395.1 167.5C386 171.9 385.6 172.5 385.8 172.8C386.1 173.2 390.2 171.4 392.2 170.2C394.2 169.1 401.6 165.6 403.9 163.8C406.1 162 409.9 159.3 411.5 158.4C413.1 157.6 426.5 149.4 430.5 146.5C434.3 143.7 435.4 142.8 436.2 143.3C437 143.7 438.4 143.7 436.7 145.3C435 146.9 429.5 151.9 427.4 153.3C425.3 154.6 418.7 158.5 416.9 159.4C415.1 160.4 414.4 162.1 413.3 162.9C412.3 163.7 409.3 165.7 405.7 166.5C402.1 167.3 401.5 170.1 399.1 171.7C396.7 173.2 379.8 182.3 379.3 182.7C379.3 182.7 380.3 181.7 379.6 179.3H379.5Z" fill="#AA5323"/>
<path d="M438 141.3C438 141.3 437.1 142.1 437.6 142.6C438.2 143.3 440.6 144.9 443.6 142C447.787 138.066 452.267 134.456 457 131.2C459.4 129.7 460.7 128.3 460.6 126.2C460.6 126.2 448.5 132.7 438 141.3ZM454.7 140.3C454.7 140.3 456.5 137.1 461.1 134.2C465.7 131.2 472.6 127 473.4 126C473.4 126 475 127.8 471.5 130.1C467.649 132.522 463.848 135.022 460.1 137.6C458.493 138.821 456.657 139.705 454.7 140.2V140.3Z" fill="#AA5323"/>
<path d="M361.9 174C361.9 174 356.9 176.7 358.7 178.4C360.5 180 363.2 179.5 364.4 179C365.4 178.6 367.6 178 367.9 178C368.2 177.9 372.6 176.6 373.8 174.5C374.8 172.5 377.8 170.1 380.2 168.5C382.6 166.8 383.5 165 383.1 163.8C383.1 163.8 363.1 173.2 361.9 174ZM331.7 197.4C331.7 197.4 335.3 195.3 340.2 196.6C340.2 196.6 340 195.5 339.2 194.8C339.2 194.8 345.2 193.3 346.5 190.6C347.8 187.9 348.1 188.6 349.2 187.8C350.4 187 358.4 180.5 357.5 179.1C356.5 177.7 356.4 175.9 355.7 175.2C355.7 175.2 354.1 177.5 346.2 181.2C338.4 185.1 329.7 187.9 323.3 196.4C317 205 317.7 209.9 325.4 212.1C325.4 212.1 330.8 208.7 344.1 209.8C357.4 211.1 361.9 216 362.8 216.9C363.6 217.9 366.3 221.1 363.7 226.7C363.7 226.7 366.4 227.8 366.5 225.3C366.8 222.7 366.9 223.3 367.5 223.6C368.2 224.1 368.9 224.1 368.5 222.2C368.3 220.2 367.5 215.9 366.1 214.4C365 212.9 366.4 213.6 367.1 213.8C367.9 214.2 370.7 216.5 369.1 212.2C367.4 208.2 366.9 210.2 366.8 210.3C366.8 210.6 366.5 211.6 362.8 208.9C359.991 206.731 356.804 205.103 353.4 204.1C351 203.5 352.7 203.5 354.2 203C355.7 202.4 357.5 202.2 358.2 200.5C358.2 200.5 356.8 200.9 354.2 199.9C352.119 199.289 349.925 199.17 347.791 199.552C345.656 199.933 343.64 200.806 341.9 202.1C341.9 202.1 343.2 197.1 339.3 197.4C335.3 197.7 332.7 197.6 328.5 200.9C328.5 200.9 328.3 195.9 332.2 193.3C336.2 190.7 335.6 192.3 337.8 191.6C340 191 340.2 188.8 339.2 188C339.2 188 344.4 189 353 181.8C353 181.8 348.3 187.8 342.7 189.1C342.7 189.1 341.8 192.4 336.7 193.1C331.7 193.7 331.8 196.7 331.8 197.4H331.7Z" fill="#7B3C20"/>
<path d="M317.1 227C317.1 227 319.5 211.9 333.7 210.8C345.9 209.8 349.9 211.4 352.3 212.2C354.7 213 360.8 214.7 358.4 216.7C356.1 218.6 354.8 218.3 354.8 218.3C354.8 218.3 357.4 215.3 355 214.7C352.5 214.3 352.4 215.7 352 216.9C351.6 218.3 351.6 219.7 350.3 220.7C350.3 220.7 349.1 219.3 347.3 220.5C345.5 221.7 347.1 221.8 347.8 221.6C348.5 221.4 349.4 221 349.2 222.2C349 223.2 348.1 225.2 345.2 226.7C342.2 228.1 342.3 228.1 338.9 228.7C335.4 229.2 332.2 230.6 327.8 234.3C323.3 238.2 318.5 236.9 317.5 232.7C316.7 229 317.1 227 317.1 227Z" fill="#5A3719"/>
<path d="M333.2 226.4C333.2 226.4 334.5 223.4 332.2 222.1C332.2 222.1 324.8 223.4 322.5 221.2C322.5 221.2 330.5 220.7 335.5 218.7C340.5 216.9 339.1 215.5 337.4 215.1C335.6 214.8 332.4 215.6 332.1 217.1C332.1 217.1 331.1 215.6 332.4 214.4C333.7 213.3 335.6 213.1 337.4 213.6C339.2 214.1 340.7 214.9 346.5 211.9C346.5 211.9 349.9 212.7 350 214.9C350 217.2 349.8 218.1 349.4 218.4C349.2 218.8 348.8 219.4 348.1 219.4C347.4 219.4 346.4 219.2 345.6 220.7C344.8 222.3 344.2 223.7 342.7 224.7C342.7 224.7 344.4 219.8 340.1 218.7C340.1 218.7 336.6 220.7 333.9 220.9C333.9 220.9 337.4 224.1 333.1 226.4H333.2Z" fill="black"/>
<path d="M340.9 217.4C340.9 217.4 339.3 215.7 341.4 215.4C343.6 215.4 346.4 216.9 345.8 218.3C345.3 219.6 342.8 219.5 340.9 217.4Z" fill="#5A3719"/>
<path d="M461.9 193.7C461.9 193.7 457.9 194.8 461.6 197.3C465.2 199.7 467 201.8 469.6 202.4C472.3 203.1 475 204 475 206.7C475 209.3 474.4 210.4 473 212.2C471.5 214.1 473.8 214.8 475.7 213.8L480.5 211.5C481.7 210.7 483.8 210.8 482 211.8C480 212.8 478 213.4 480.5 213.4C482.9 213.5 497.8 213.8 500.9 212.8C504 211.8 508.1 211.5 508.4 207.5C508.4 207.5 508.6 205.7 509.7 204.9C510.9 204.1 511.7 202.4 510 203.5C508.3 204.8 507 205.3 506.7 205C506.4 204.6 506.2 204.4 507.5 203.8C508.7 203.2 509.4 203.8 510.5 202.2C511.7 200.4 511.6 200.7 511 200C510.4 199.4 509 199 509.7 198.2C510.4 197.3 511 194.9 508.3 196.2C505.6 197.7 500.2 201.4 497.6 202C495.2 202.6 493.3 203.3 490 204C486.837 204.642 483.797 205.79 481 207.4C477.4 209.4 477.7 206.2 478.3 205.8C478.3 205.8 479.7 208.3 483.3 205.1C486.9 202 485.7 204.9 494.6 202C503.4 199.1 501.3 198.6 504.7 196.9C508.3 195.1 511.5 194.9 509.1 192.5C506.6 190.1 506.4 189.9 503.3 192.5C498.317 196.234 492.468 198.642 486.3 199.5C486.3 199.5 506.3 190.9 504.3 189.7C502.539 188.532 500.619 187.623 498.6 187C497.2 186.6 496.8 186.3 493.6 187.8C490.4 189.2 489.9 189.5 489 189.6C488 189.6 485.3 190.2 481.5 192.2C477.7 194.2 475.7 195 473 196.5C473 196.5 474.8 192.9 482.8 190.5C490.6 188.2 494.6 186.1 493.8 185.7C493 185.3 490.9 184.8 489.5 185.2C488 185.4 488.5 185 483.5 187C478.8 188.8 480.8 188.4 477 189.3C473 190.1 471.5 190.9 469.6 191.7C469.6 191.7 470.4 190.7 473 189.7C474.4 189.3 471.5 188.7 475.3 188.6H476.3C479.514 187.913 482.612 186.768 485.5 185.2C484.7 185 480.1 184.5 475.3 186.8C470.6 188.9 472.7 188.2 471.1 188.4C469.5 188.8 465.9 191 464.7 192C463.5 193 461.9 193.7 461.9 193.7Z" fill="white"/>
<path d="M344.6 215.3C344.6 215.3 346.5 215.9 347 217.2C347.5 218.5 348.6 216.6 348.6 216C348.6 215.5 347.4 212.8 345.4 214C343.4 215.2 344.4 215.2 344.6 215.3Z" fill="#5A3719"/>
<path d="M339.5 241.1C339.5 241.1 343.4 239.3 346.8 239.5C346.8 239.5 345.4 234.8 347.8 235.5C350.1 236.4 349.4 236.1 349.9 236.1C349.9 236.1 350.1 233 349.4 231.7C349.4 231.7 351.9 232.3 354.3 232.3C354.3 232.3 352 227.9 354.5 224.8C354.961 225.689 355.597 226.475 356.371 227.111C357.144 227.747 358.039 228.22 359 228.5V225.9C359 225.9 360.8 225.7 362.3 226.4C363.7 227.2 364.9 218.4 360.6 216.4C360.6 216.4 359.6 218.1 355.6 218.9C351.6 219.7 351.6 220.5 350 223.6C348.4 226.7 347 226.6 343.5 228.8C341.103 230.63 339.211 233.038 338 235.8C338 235.8 339.7 237.8 339.5 241.1Z" fill="#7B3C20"/>
<path d="M473 189.7C474.4 189.5 471.5 188.7 475.3 188.6H476.3C479.514 187.913 482.612 186.768 485.5 185.2C484.7 185 480.1 184.5 475.3 186.7C470.5 188.9 472.7 188.2 471.1 188.5C468.787 189.302 466.624 190.485 464.7 192C463.5 193 461.9 193.7 461.9 193.7C461.9 193.7 457.9 194.8 461.6 197.3C465.2 199.7 467 201.8 469.6 202.4C472.3 203.1 475 204 475 206.7C475.058 207.705 474.911 208.71 474.567 209.656C474.223 210.602 473.69 211.467 473 212.2C471.5 214.1 473.8 214.8 475.7 213.8L480.5 211.5C481.7 210.7 483.8 210.8 481.9 211.8C479.9 212.8 478 213.4 480.5 213.4C482.9 213.5 497.8 213.8 500.9 212.8C504 211.8 508.1 211.5 508.4 207.5C508.4 207.5 508.6 205.7 509.7 204.9C510.9 204.1 511.7 202.4 510 203.5C508.3 204.8 507 205.3 506.7 205C506.4 204.6 506.2 204.4 507.5 203.8C508.7 203.2 509.4 203.8 510.5 202.2C511.7 200.4 511.6 200.7 511 200C510.6 199.7 510.1 199.5 509.9 199.1C509.9 199.1 508.9 198.3 507.9 199C505.571 200.262 503.081 201.204 500.5 201.8C498.7 202 496.7 202.8 493.5 204.4C490.3 206 484.7 209.4 483.8 206.2L481 207.4C477.3 209.3 477.6 206.6 478.3 205.8C478.3 205.8 476.3 208 476.4 206.1C476.4 204.1 477.7 204.4 479.9 203.8C482 203.1 485.4 201.8 484 200.6C482.6 199.5 481.1 201.8 479.6 202.5C478 203.2 474.9 203.8 474.4 201.5C473.9 199.3 473.9 197.7 469.8 197.5C465.6 197.3 465.7 194.6 466.8 193.5C468.1 192.4 469 190.5 473 189.7Z" fill="#999999"/>
<path d="M486.4 210C486.4 210 492.9 207.1 498.9 205.7C504.9 204.3 500.2 205.9 499.2 206.2C498.2 206.5 488.8 209.6 486.6 210.7C484.4 211.7 484.8 210.8 486.4 210.2V210ZM487.8 211.5C487.8 211.5 495.2 209 496.6 210C498 211 496.8 210.6 495.2 210.8C493.6 211 489.2 211.8 488 211.8C486.8 211.8 487.8 211.5 487.8 211.5ZM499.7 208.9C499.7 208.9 501.1 208.6 501.2 209.2C501.3 209.7 500.6 209.8 499.8 209.7C499 209.5 498.4 209.1 499.7 208.9Z" fill="black"/>
<path d="M305.5 273C305.5 273 305.2 266.5 308.5 263.2C311.8 259.9 327.5 243.5 329.9 238.9C329.9 238.9 331.9 240.3 332 242.9C332 242.9 334.7 238.4 336.8 236.6C336.8 236.6 338.7 238.6 338.4 242.4C338.4 242.4 342.2 240.4 348.1 240.4C348.1 240.4 345.8 242.8 345.8 244.4C345.8 244.4 353.9 243.4 358.3 244.2C358.3 244.2 347 250.4 350.1 251C353.4 251.6 356.6 251 356.6 251C356.6 251 353 254.6 347.3 255.3C347.3 255.3 354.6 255.3 356.1 256.9C356.1 256.9 349 257.9 343.3 262.3C343.3 262.3 342.7 262 342.7 260.4C342.7 260.4 342.5 261.9 340.9 263.3C339.2 264.6 335.4 267.5 333.9 269C332.5 270.4 329.9 273.3 326.9 273.2C326.9 273.2 327.5 270.9 325.4 270.2C324.307 269.833 323.132 269.789 322.014 270.073C320.897 270.357 319.885 270.956 319.1 271.8C319.1 271.8 311.5 272 309 272.3C309 272.3 310.7 269.6 312.3 269.6C313.9 269.6 320.3 270.6 320.9 266.2C321.4 261.9 316.8 263 318.5 260.5C320.3 257.9 319.9 258 320 257.7C320 257.7 318.5 258.5 317.7 260.8C317.002 263.397 315.408 265.664 313.2 267.2C311.075 268.535 309.294 270.35 308 272.5C308 272.5 306.6 272.7 305.4 273H305.5Z" fill="white"/>
<path d="M312.8 269C312.8 269 313 268.3 315.2 267.8C317.5 267.4 317.7 266.4 317.3 265.8C317 265.5 315.7 265.5 317.8 262.9C317.8 262.9 318.6 263.2 319.1 263.8C319.7 264.4 322.1 269.6 312.8 269.1V269Z" fill="white"/>
<path d="M307.5 264.5C307.5 268.8 313.2 267.2 313.2 267.2C311.689 268.264 310.312 269.506 309.1 270.9C309.5 268.9 305.9 268.3 305.9 268.3C306.228 266.956 306.768 265.674 307.5 264.5ZM328.1 241.5L329.9 238.9C329.9 238.9 331.9 240.3 332 242.9C332 242.9 334.7 238.4 336.8 236.6C336.8 236.6 338.7 238.6 338.4 242.4C338.4 242.4 342.2 240.4 348.1 240.4C348.1 240.4 345.8 242.8 345.8 244.4C345.8 244.4 353.9 243.4 358.3 244.2C358.3 244.2 347 250.4 350.1 251C353.4 251.6 356.6 251 356.6 251C356.6 251 353 254.6 347.3 255.3C347.3 255.3 354.6 255.3 356.1 256.9C356.1 256.9 353.9 257.2 351.1 258.2C351.1 258.2 349.1 256.2 343 256.6C343 256.6 347.7 253.9 351.5 253C351.5 253 349.9 250.9 347.2 252.8C347.2 252.8 342.1 249.3 346.4 246.3C346.4 246.3 343.4 245.7 341.4 247.1C341.4 247.1 341.4 244.6 343.6 243.6C343.6 243.6 337.9 242.6 336.6 246.8C336.6 246.8 335.4 245.1 336 243.2C336 243.2 332.5 245.2 330.9 247.4C330.9 247.4 330.3 243.1 328.1 241.5ZM317.1 268.8C316.1 269.1 314.6 269.2 312.8 269.1C312.8 269.1 312.9 268.5 314.2 268.1C314.2 268.1 314.5 268.8 317 268.8" fill="#999999"/>
<path d="M327.5 252.6C327.5 252.6 330.1 254.6 331 255.8C331 255.8 333.4 254.2 334.2 252.8C334.2 252.8 336.2 254 336.7 255.8C336.7 255.8 338.1 255 338.3 253.8C338.3 253.8 341.6 254.4 342.7 255.4C342.7 255.4 343.2 252.4 342.7 250.3C342.7 250.3 345 250.5 346.4 251.1C346.4 251.1 345.1 249 351.7 246.3C351.7 246.3 346.7 247.4 344.7 249.5C344.7 249.5 342.7 249.7 341.7 249.1V253.8C341.7 253.8 340.5 253.2 338 252.6C338 252.6 337.4 253.7 337 254C337 254 335.3 252.6 334.7 251.1C334.7 251.1 332.2 253.3 331.4 254.2C331.4 254.2 329 252.6 327.4 252.6H327.5Z" fill="black"/>
<path d="M312.5 285.2C312.5 285.2 313.5 285.7 315.9 283.7C318.3 281.7 325.2 277.4 325.8 273.9C326.5 270.4 323.6 270.2 321.4 271.2C319.1 272.2 320.1 274.2 320.2 274.8C320.2 275.4 320.4 277.8 316.7 281.2L312.4 285.2H312.5Z" fill="#FFC221"/>
<path d="M311.7 286.2C311.7 286.2 306.2 283.9 311.1 281.5C316 279.1 318.2 278.4 318.8 276.3C319.4 274.3 319.1 274.6 317.2 275.4C315.4 276.3 308.4 279.5 307.4 276.5C307.4 276.5 310.2 277.6 313.8 275.9C317.4 274.1 320.4 273.6 318.1 272.9C315.8 272.2 307.5 273.1 306.2 273.5C304.8 273.9 305.2 273.8 304.9 275.1C304.7 276.5 303.2 279.4 302.6 280.1C302.1 281 300.6 284.5 303.2 286.1C304.504 286.799 305.958 287.173 307.438 287.191C308.917 287.208 310.38 286.868 311.7 286.2Z" fill="#FFC221"/>
<path d="M309.5 274.3C309.5 274.3 308.3 274.5 308.5 275C308.8 275.4 309.1 275.4 309.5 275.4C310 275.4 310.7 275.1 310.8 274.9C310.8 274.5 310 274.1 309.6 274.3H309.5Z" fill="black"/>
<path d="M311.3 285C311.3 285 308.8 283.8 311.7 282.2C314.7 280.6 317.7 279 318.2 278.4C318.2 278.4 316.8 280.4 311.4 285H311.3Z" fill="white"/>
</g>
<defs>
<clipPath id="clip0_103_1532">
<rect width="512" height="512" fill="white" transform="translate(0.5)"/>
</clipPath>
</defs>
</svg>
