<svg width="513" height="512" viewBox="0 0 513 512" fill="none" xmlns="http://www.w3.org/2000/svg">
<g clip-path="url(#clip0_103_1350)">
<mask id="mask0_103_1350" style="mask-type:luminance" maskUnits="userSpaceOnUse" x="0" y="0" width="513" height="512">
<path d="M0.5 0H512.5V512H0.5V0Z" fill="white"/>
</mask>
<g mask="url(#mask0_103_1350)">
<path d="M0.5 0V512H768.5V0H0.5Z" fill="#3399CC"/>
<path d="M0.5 341.3V369.8H768.5V341.3H0.5ZM0.5 398.3V426.7H768.5V398.2H0.5V398.3Z" fill="#FFFF00"/>
<path d="M122.5 28L124.9 30.5L122.6 28.1L122.5 28ZM124.9 32.8L127.3 35.2L125 32.8H124.9Z" fill="#99CCCC"/>
<path d="M124.9 35.2L127.3 37.5999L125 35.2H124.9Z" fill="#CCCCFF"/>
<path d="M122.5 40L124.9 42.3L122.6 40H122.5Z" fill="#CC6666"/>
<path d="M124.9 44.7L127.3 47.0999L125 44.7H124.9Z" fill="#FFCCCC"/>
<path d="M115.5 47.1001L117.8 49.5001L115.4 47.1001H115.5Z" fill="#66CCCC"/>
<path d="M122.2 32.8999L105.5 96.1999L42 113.4L105.3 129.9L122.2 193.2L139.1 129.9L202.3 113L139 96.1999L122.2 32.8999Z" fill="#CC0000" stroke="white" stroke-width="3"/>
<path d="M115.5 49.5L117.8 51.9L115.4 49.5" fill="#99CCFF"/>
<path d="M113 56.6001L115.5 59.0001L113.1 56.6001" fill="#99CCFF"/>
<path d="M115.5 59L117.8 61.4L115.4 59" fill="#FFCCCC"/>
<path d="M113 68.5L115.5 71L113.1 68.6" fill="#FFCCCC"/>
<path d="M136.8 68.5L139.2 70.9L136.9 68.5H136.8Z" fill="#6699CC"/>
<path d="M108.3 70.9999L110.7 73.2999L108.3 70.8999V70.9999Z" fill="#99CCCC"/>
<path d="M132.8 72.5L133.7 74.1L132.9 72.5H132.8Z" fill="#CC3333"/>
<path d="M136.8 70.9999L139.2 73.2999L136.9 70.8999L136.8 70.9999Z" fill="#99CCCC"/>
<path d="M105.9 78L108.3 80.4L105.9 78.1V78Z" fill="#99CCCC"/>
<path d="M111.5 79.6001L112.2 81.2001L111.4 79.6001" fill="#CC3333"/>
<path d="M139.2 78L141.6 80.4L139.2 78.1V78Z" fill="#99CCCC"/>
<path d="M148.7 94.7L151.1 97.1L148.8 94.7H148.7Z" fill="#CCCCFF"/>
<path d="M146.4 97.1L148.7 99.5L146.5 97L146.4 97.1Z" fill="#FFCCCC"/>
<path d="M95.5 100.3L97.2 101.1L95.6 100.3" fill="#CC3333"/>
<path d="M165.5 99.5L167.8 101.9L165.4 99.5H165.5Z" fill="#99CCCC"/>
<path d="M72.5 101.9L75 104.2L72.5 102V101.9Z" fill="#99CCCC"/>
<path d="M84.5 101.9L86.9 104.2L84.5 102V101.9Z" fill="#FFCCCC"/>
<path d="M172.5 101.9L174.9 104.2L172.6 101.9H172.5Z" fill="#99CCCC"/>
<path d="M65.4999 104.2L67.7999 106.6L65.3999 104.2H65.4999Z" fill="#99CCFF"/>
<path d="M51.1001 109L53.5001 111.4L51.2001 109H51.1001Z" fill="#CCCCFF"/>
<path d="M51.1001 118.5L53.5001 121L51.2001 118.6L51.1001 118.5Z" fill="#CCCCFF"/>
<path d="M63 123.3L65.4 125.7L63.1 123.3H63Z" fill="#6699CC"/>
<path d="M65.4999 123.3L67.7999 125.7L65.3999 123.3H65.4999Z" fill="#99CCFF"/>
<path d="M81.3 124L82.9 124.9L81.3 124.1" fill="#CC3333"/>
<path d="M72.5 125.7L75 128L72.6 125.7H72.5Z" fill="#99CCCC"/>
<path d="M88.5 126.5L90 127.2L88.5 126.4" fill="#CC3333"/>
<path d="M172.5 125.7L174.9 128L172.6 125.7H172.5Z" fill="#99CCCC"/>
<path d="M95.5 128.8L97.2 129.6L95.6 128.8" fill="#CC3333"/>
<path d="M165.5 128L167.8 130.4L165.4 128H165.5Z" fill="#99CCCC"/>
<path d="M148.7 132.8L151.1 135.2L148.8 132.8H148.7Z" fill="#CCCCFF"/>
<path d="M103.5 140L105.9 142.3L103.5 139.9V140Z" fill="#CCCCFF"/>
<path d="M141.6 140L144 142.3L141.6 139.9V140Z" fill="#CCCCFF"/>
<path d="M105.9 147L108.3 149.5L105.9 147.1V147Z" fill="#CCCCFF"/>
<path d="M111.5 148.7L112.2 150.3L111.4 148.7" fill="#CC3333"/>
<path d="M139.2 147L141.6 149.5L139.2 147.1V147Z" fill="#CCCCFF"/>
<path d="M110.7 151.8L113 154.2L110.7 151.9" fill="#FFCCCC"/>
<path d="M132.8 155.8L133.7 157.4L132.9 155.8H132.8Z" fill="#CC3333"/>
<path d="M136.8 154.2L139.2 156.6L136.9 154.2H136.8Z" fill="#CCFFFF"/>
<path d="M132 159L134.5 161.4L132.1 159H132Z" fill="#FFCCCC"/>
<path d="M136.8 159L139.2 161.4L136.9 159H136.8Z" fill="#6699CC"/>
<path d="M115.5 168.5L117.8 170.9L115.4 168.5" fill="#FFCCCC"/>
<path d="M132 173.3L134.5 175.6L132.1 173.3H132Z" fill="#6699CC"/>
<path d="M115.5 178L117.8 180.4L115.4 178H115.5Z" fill="#99CCFF"/>
<path d="M115.5 180.4L117.8 182.8L115.4 180.4" fill="#66CCCC"/>
<path d="M124.9 182.8L127.3 185.2L125 182.8H124.9Z" fill="#FFCCCC"/>
<path d="M122.5 187.6L124.9 189.9L122.6 187.6H122.5Z" fill="#CC6666"/>
<path d="M124.9 192.3L127.3 194.7L125 192.3H124.9Z" fill="#CCCCFF"/>
<path d="M124.9 194.7L127.3 197.1L125 194.7M122.6 199.5L125 201.8L122.6 199.4V199.5Z" fill="#99CCCC"/>
</g>
</g>
<defs>
<clipPath id="clip0_103_1350">
<rect width="512" height="512" fill="white" transform="translate(0.5)"/>
</clipPath>
</defs>
</svg>
