<svg width="513" height="512" viewBox="0 0 513 512" fill="none" xmlns="http://www.w3.org/2000/svg">
<g clip-path="url(#clip0_103_1799)">
<path d="M0.5 0H512.5V512H0.5V0Z" fill="#3F9C35"/>
<path d="M0.5 0H512.5V341.3H0.5V0Z" fill="#ED2939"/>
<path d="M0.5 0H512.5V170.7H0.5V0Z" fill="#00B9E4"/>
<path d="M239.3 332.8C281.715 332.8 316.1 298.415 316.1 256C316.1 213.584 281.715 179.2 239.3 179.2C196.885 179.2 162.5 213.584 162.5 256C162.5 298.415 196.885 332.8 239.3 332.8Z" fill="white"/>
<path d="M256.4 320C291.746 320 320.4 291.346 320.4 256C320.4 220.654 291.746 192 256.4 192C221.054 192 192.4 220.654 192.4 256C192.4 291.346 221.054 320 256.4 320Z" fill="#ED2939"/>
<path d="M324.7 213.3L332.8 236.3L354.8 225.8L344.4 247.8L367.4 256L344.4 264.2L354.8 286.2L332.8 275.7L324.7 298.7L316.5 275.7L294.5 286.2L305 264.2L282 256L305 247.8L294.5 225.8L316.5 236.3L324.7 213.3Z" fill="white"/>
</g>
<defs>
<clipPath id="clip0_103_1799">
<rect width="512" height="512" fill="white" transform="translate(0.5)"/>
</clipPath>
</defs>
</svg>
