<svg width="513" height="512" viewBox="0 0 513 512" fill="none" xmlns="http://www.w3.org/2000/svg">
<g clip-path="url(#clip0_103_1658)">
<mask id="mask0_103_1658" style="mask-type:luminance" maskUnits="userSpaceOnUse" x="0" y="0" width="513" height="512">
<path d="M0.5 0H512.5V512H0.5V0Z" fill="white"/>
</mask>
<g mask="url(#mask0_103_1658)">
<path fill-rule="evenodd" clip-rule="evenodd" d="M0.5 0H512.5V512H0.5V0Z" fill="#000099"/>
<path fill-rule="evenodd" clip-rule="evenodd" d="M77.5 0L514.5 437V0H77.5Z" fill="#FFCC00"/>
<path fill-rule="evenodd" clip-rule="evenodd" d="M461.9 470.4L435.8 451.3L408.9 470.3L419.1 439.1L392.7 419.9H425.4L435.6 388.9L445.6 420L478.4 420.1L452.2 439.5L461.9 470.4ZM538.6 480.8H505.9L495.9 449.6L485.7 480.7H452.9L479.3 499.9L469.2 531.1L496 512.1L522.2 531.1L512.4 500.2L538.6 480.8ZM392.3 379.6L418.5 360.2H385.8L375.7 329L365.5 360H332.8L359.2 379.3L349.1 410.4L375.9 391.4L402 410.5L392.3 379.5V379.6ZM332 319.2L358.2 299.8L325.4 299.7L315.4 268.5L305.2 299.7L272.5 299.6L298.9 318.8L288.7 350L315.6 331L341.7 350.1L332 319.1V319.2ZM272.3 259.5L298.5 240.1H265.8L255.7 208.9L245.5 240H212.8L239.2 259.2L229.1 290.4L255.9 271.4L282 290.4L272.3 259.5ZM211.9 199.2L238.1 179.9L205.3 179.8L195.3 148.6L185.1 179.8L152.4 179.7L178.8 198.9L168.6 230.1L195.5 211.1L221.6 230.1L211.9 199.3V199.2ZM152.2 139.3L178.5 120L145.8 119.9L135.8 88.7L125.5 119.8H92.7L119.1 139L109 170.2L135.8 151.2L161.9 170.2L152.2 139.3ZM92.2 79.3L118.5 60L85.8 59.8999L75.8 28.7L65.5 59.7999H32.7L59.1 79L49 110.2L75.8 91.2L102 110.2L92.2 79.3ZM32.2 19.2999L58.5 -4.95911e-05L25.7 -0.10005L15.7 -31.3L5.29998 -0.20005H-27.4L-0.900024 19L-11 50.2L15.8 31.2L41.9 50.2L32.2 19.2999Z" fill="white"/>
</g>
</g>
<defs>
<clipPath id="clip0_103_1658">
<rect width="512" height="512" fill="white" transform="translate(0.5)"/>
</clipPath>
</defs>
</svg>
