<svg width="513" height="512" viewBox="0 0 513 512" fill="none" xmlns="http://www.w3.org/2000/svg">
<g clip-path="url(#clip0_103_1806)">
<path d="M0.5 -0.199951H512.5V512H0.5V-0.199951Z" fill="#00267F"/>
<path d="M171.2 -0.199951H341.8V512H171.2V-0.199951Z" fill="#FFC726"/>
<path d="M256.5 173.3C251 188.4 245.3 204.2 233.2 216.3C237.931 214.838 242.848 214.064 247.8 214V277.6L229.8 280.3C229.1 280.3 228.9 279.3 228.9 277.9C227.031 259.65 223.106 241.669 217.2 224.3C216.8 222 210 213 215.2 214.6C215.9 214.6 222.9 217.6 221.8 216.2C211.754 206.066 198.775 199.349 184.7 197C183.5 196.7 182.7 197.3 183.8 198.7C201.8 226.4 216.9 259.1 216.8 297.9C223.8 297.9 240.8 293.8 247.8 293.8V338.7H256.6L258.6 213.3L256.5 173.3Z" fill="black"/>
<path d="M256.5 173.3C262 188.4 267.7 204.2 279.8 216.3C275.069 214.838 270.152 214.064 265.2 214V277.6L283.2 280.3C283.9 280.3 284.1 279.3 284.1 277.9C285.969 259.65 289.894 241.669 295.8 224.3C296.2 222 303 213 297.8 214.6C297.1 214.6 290.1 217.6 291.2 216.2C301.246 206.066 314.225 199.349 328.3 197C329.5 196.7 330.3 197.3 329.2 198.7C311.2 226.4 296.1 259.1 296.2 297.9C289.2 297.9 272.2 293.8 265.2 293.8V338.7H256.4L254.4 213.3L256.5 173.3Z" fill="black"/>
</g>
<defs>
<clipPath id="clip0_103_1806">
<rect width="512" height="512" fill="white" transform="translate(0.5)"/>
</clipPath>
</defs>
</svg>
