<svg width="513" height="512" viewBox="0 0 513 512" fill="none" xmlns="http://www.w3.org/2000/svg">
<g clip-path="url(#clip0_103_1788)">
<mask id="mask0_103_1788" style="mask-type:luminance" maskUnits="userSpaceOnUse" x="0" y="-1" width="513" height="513">
<path d="M0.382568 -0.0390625H512.38V511.958H0.382568V-0.0390625Z" fill="white"/>
</mask>
<g mask="url(#mask0_103_1788)">
<path fill-rule="evenodd" clip-rule="evenodd" d="M-177.5 -0.0390625L251.408 255.96L-177.5 511.958V-0.0390625ZM680.023 -0.0390625L251.408 255.96L679.73 511.958L680.023 -0.0390625Z" fill="#18B637"/>
<path fill-rule="evenodd" clip-rule="evenodd" d="M-177.5 -0.0390625L251.408 255.96L679.73 -0.0390625H-177.5ZM-177.5 511.958L251.408 255.96L679.73 511.958H-177.5Z" fill="#CF0921"/>
<path fill-rule="evenodd" clip-rule="evenodd" d="M680.023 -0.0390625H600.151L-177.5 464.27V511.958H-97.6284L680.023 47.6498V-0.0390625Z" fill="white"/>
<path fill-rule="evenodd" clip-rule="evenodd" d="M399.448 255.96C399.448 295.222 383.851 332.877 356.088 360.64C328.325 388.403 290.67 404 251.408 404C212.145 404 174.49 388.403 146.727 360.64C118.964 332.877 103.367 295.222 103.367 255.96C103.367 216.697 118.964 179.042 146.727 151.279C174.49 123.516 212.145 107.919 251.408 107.919C290.67 107.919 328.325 123.516 356.088 151.279C383.851 179.042 399.448 216.697 399.448 255.96Z" fill="white"/>
<path fill-rule="evenodd" clip-rule="evenodd" d="M-177.5 -0.0390625V47.6498L600.151 511.958H680.023V464.27L-97.6284 -0.0390625H-177.5Z" fill="white"/>
<path fill-rule="evenodd" clip-rule="evenodd" d="M280.372 200.079L261.062 200.372L251.115 216.755L241.168 200.372L222.151 200.079L231.513 183.11L222.151 166.433L241.46 165.848L251.408 149.464L261.355 166.141H280.372L271.302 183.11L280.372 200.079ZM216.007 311.841H196.697L186.75 328.517L176.802 312.133L157.493 311.548L166.855 294.872L157.785 277.903L176.802 277.61L186.75 261.226L196.697 277.61L216.007 278.195L206.644 294.872L216.007 311.841ZM346.493 311.841H327.183L317.236 328.517L307.289 312.133L288.271 311.548L297.341 294.872L288.271 277.903L307.581 277.61L317.528 261.226L327.476 277.61L346.493 278.195L337.131 294.872L346.493 311.841Z" fill="#CF0921" stroke="#18B637" stroke-width="3.90093"/>
</g>
</g>
<defs>
<clipPath id="clip0_103_1788">
<rect width="512" height="512" fill="white" transform="translate(0.5)"/>
</clipPath>
</defs>
</svg>
