<svg width="513" height="512" viewBox="0 0 513 512" fill="none" xmlns="http://www.w3.org/2000/svg">
<g clip-path="url(#clip0_103_1841)">
<path d="M0.5 0H512.5V512H0.5V0Z" fill="#CF142B"/>
<path d="M0.5 0H256.5V256H0.5V0Z" fill="#000066"/>
<path d="M256.5 0V32L161.5 128L256.5 221.5V256H223L127.5 162L34.5 256H0.5V222L93.5 128.5L0.5 37V0H31.5L127.5 94L220.5 0H256.5Z" fill="white"/>
<path d="M92.5 162L98 179L21.5 256H0.5V254.5L92.5 162ZM154.5 156L181.5 160L256.5 233.5V256L154.5 156ZM256.5 0L160.5 98L158.5 76L233.5 0H256.5ZM0.5 0.5L97 95L67.5 91L0.5 24.5V0.5Z" fill="#C8102E"/>
<path d="M88.5 0V256H168.5V0H88.5ZM0.5 88V168H256.5V88H0.5Z" fill="white"/>
<path d="M0.5 104V152H256.5V104H0.5ZM104.5 0V256H152.5V0H104.5Z" fill="#C8102E"/>
<path d="M467.5 146.6V308.2C467.5 351.3 381.4 365.4 381.4 365.4C381.4 365.4 294.9 351.4 294.9 308V146.6H467.5Z" fill="white"/>
<path d="M467.5 308.2C467.5 351.3 381.4 365.4 381.4 365.4C381.4 365.4 294.9 351.4 294.9 308C294.9 308 294.9 304.5 296.7 302.6C296.7 302.6 295.7 309.7 301.2 315.2C301.2 315.2 296.9 307.4 301.2 299.9C301.2 299.9 299.6 309.7 305.6 315.2C305.6 315.2 302.3 307.3 306 298.5C306 298.5 304.2 312.8 310.8 315.8C310.8 315.8 312.6 307.4 309.9 302.2C309.9 302.2 314.5 304 314.2 316C314.2 316 315.7 314.2 316 305.5C316 305.5 316.3 315.5 319.6 317.8C319.6 317.8 320.8 316.8 319.2 312.3C317.7 307.9 319.8 306.3 320.2 306.3C320.2 306.3 319.5 311.3 323.6 315.1C323.6 315.1 321.9 307.2 324.4 306.1C324.4 306.1 323.8 312.8 329.1 314.2C329.1 314.2 329.5 312.3 328.3 310.2C328.3 310.2 327.3 307.7 328.1 305.7C328.1 305.7 329.7 311.7 332 312.7C332 312.7 330.7 309.1 332 305.7C332 305.7 332.2 310.7 336.8 312.8C336.8 312.8 333.8 308.8 334.8 304.6L363.6 306L378.5 306.7L423.2 303.7L430.8 297C430.8 297 433.9 301.1 429.1 307.8C429.1 307.8 433.8 307 435.4 299.5C435.4 299.5 437.3 303.6 434.7 308.3C434.7 308.3 439.9 302.9 440.7 297C440.7 297 442.7 302.8 437.7 309C437.7 309 442.2 307.4 444.1 300.9C444.1 300.9 445.6 304.9 441.3 310.4C441.3 310.4 449.4 306.3 449.3 297.4C449.3 297.4 452.5 302.2 448.7 309C448.7 309 452.7 305.3 453.3 299.7C453.3 299.7 455.5 302.2 453 309.1C453 309.1 458 304.3 458.9 299.2C458.9 299.2 459.9 304 455.6 310C455.6 310 458.6 309.2 461.4 303.4C461.4 303.4 462.1 305.8 459.6 310C459.6 310 462.3 309.5 464.1 304.1C464.1 304.1 464.5 307.3 463.6 310.1C463.6 310.1 465.8 308.8 466.3 302.8C466.3 302.8 467.4 304.7 467.4 307.2V308L467.5 308.2Z" fill="#2F8F22"/>
<path d="M423.2 214.7C423.2 214.7 420.2 215.3 416.3 214.1C412.5 212.9 410.9 213.4 409.7 214.1C409.7 214.1 411.3 211 407.5 208.5C407.5 208.5 408.7 211.7 407 213.1C407 213.1 406.3 213.8 405.3 212.8C405.3 212.8 404 211.3 402.6 210.4C402.6 210.4 405.8 209.2 405.2 205.9C404.6 202.6 402.8 202.3 402 201.8C401.838 202.592 401.838 203.408 402 204.2C402 204.2 398.4 202.2 403.2 199.5C408 196.8 407.2 195.1 406.2 193.7C405.276 192.286 404.088 191.063 402.7 190.1C402.7 190.1 403.7 191.7 403.4 193C403.3 194.2 401 195 401.5 192.9C402 190.5 401.5 190.9 401.5 188.6C401.5 188.6 405.7 190 407.5 185.8C407.5 185.8 409 181.5 403.7 179.4C403.7 179.4 405 181.2 404.4 182.4C404.4 182.4 403.2 184.6 401.9 183C400.6 181.3 399.6 180.8 399.7 178.8C399.7 178.8 404.7 179.5 403.3 174.1C403.3 174.1 402.5 177.7 396.1 172.9C396.1 172.9 400.3 168.7 398.6 165.3C398.6 165.3 398.2 163.8 393.8 164.6C393.8 164.6 397.6 162.2 396 160.1C396 160.1 395.2 158.8 391.5 160.5C391.5 160.5 392.9 158.2 389.3 155.5C389.3 155.5 387 156.7 385.8 157.9C385.8 157.9 383.4 154.9 381.8 153.6C381.8 153.6 379 154.7 378.3 157.9C378.3 157.9 376.9 156.4 374 155.5C374 155.5 372.5 158.3 374.4 160.5C374.4 160.5 373 160.5 370.5 159.4C370.5 159.4 367.6 158.2 368.1 160.5C368.5 162.9 368.7 163.5 369.3 164.7C369.3 164.7 362.9 163.2 363.1 166.7C363.17 167.889 363.481 169.052 364.014 170.118C364.547 171.184 365.291 172.13 366.2 172.9C366.2 172.9 362.6 177.7 359.5 174.1C359.5 174.1 358.3 175.3 360.7 178.3C360.7 178.3 363.1 180.8 361.1 182.5C361.1 182.5 358.6 184.5 357.4 180.5C357.4 180.5 353.2 184.6 358.1 187.7C358.1 187.7 361.2 189.5 364.4 186.7C364.4 186.7 363.4 194.7 360.4 193.1C360.4 193.1 358.6 191.9 361.8 190.2C361.8 190.2 357 189.6 356.3 194.2C356.3 194.2 355.7 197.7 359.9 199.2C359.9 199.2 363 200.4 359.8 202.8C359.8 202.8 357.4 204.5 358.9 207.2C358.9 207.2 360.7 210 356.1 210.4C356.1 210.4 353.7 210.4 352.7 210C352.7 210 351.7 212 352.4 214C352.4 214 350 212.3 344.9 214.2C339.6 216.2 339.9 214.8 339.6 215.4L338.1 217.8C338.1 217.8 340.8 221.4 340.9 221.1L340.3 225.1L341.8 225.7L352.5 220.9L363.5 215.2L372.5 215.6L378 216.9L385.3 217.5L390.7 214.7H398.3L406.6 218.9L416.2 224.6L421.2 225.6L425 225.3V217.5L423.2 214.7Z" fill="#D40000" stroke="black" stroke-width="1.2" stroke-linejoin="round"/>
<path d="M336.1 223.7C336.1 223.7 340.2 225.9 342.1 223.4C342.1 223.4 344.3 219 339.3 217.4C339.3 217.4 342 214.2 339 211.2C339 211.2 337.5 209.6 334.9 210.7C334.9 210.7 333.7 208.4 331.2 208.5C331.2 208.5 328.8 208.5 328.1 211C328.1 211 325 209.8 323.3 211.6C323.3 211.6 320.3 214.8 324.3 217.4L327.3 217.7L330.1 216.3L333.3 217.2C333.3 217.2 332.5 220.4 336.1 223.7Z" fill="#D40000" stroke="black" stroke-width="1.2" stroke-linejoin="round"/>
<path d="M429.5 216.1C430.888 215.946 432.29 216.229 433.509 216.91C434.728 217.592 435.704 218.637 436.3 219.9C439 226.1 433.3 229.5 433.3 229.5C433.7 230.8 433.8 232.7 433.8 232.7C441.7 233.7 440.3 242.5 440.3 242.5L437.6 240.3C433.1 238.5 428.3 242.5 425 248.9C421.7 255.5 423.2 258.4 423.8 266.2C424.4 273.9 436.9 278.6 436.9 278.6L427.1 303.6C423.3 313.6 415.2 309.5 412.8 307.3C410.6 305.3 410 306.5 408.9 307.3C407.7 308.3 414.2 313.3 402.3 318.1C390.7 322.8 388.6 326.4 386.6 327.6C384.7 328.8 376.6 328.1 375.9 327C374.9 326 375.4 326 372.3 324.1C369.3 322.4 364.2 320.6 358.6 317.9C353 315.2 353.1 311.7 353.2 311C353.2 310.3 355.2 304.5 348.6 309.1C342 313.8 336.4 306.9 336.4 306.9C335.2 305.2 329.6 290.5 329.6 290.5C328.445 286.406 327.008 282.396 325.3 278.5C325.3 278.5 325 279.3 329.9 276.5C334.6 273.8 336.9 269.2 338.6 264.6C340.2 260 338.6 252.1 338 250.6C337.4 249 333.8 241.7 329.3 240.2C324.8 238.6 321.7 242.6 321.7 242.6C321.7 242.6 320.4 233.6 328.3 232.6C328.3 232.6 328.3 230.8 328.8 229.5C328.8 229.5 323.2 226.1 325.8 219.9C325.8 219.9 327.6 215.6 332.6 216.1L331.4 218.5C331.4 218.5 330.2 231.1 348.7 222.7C367.2 214.1 366.6 212.5 377.3 217.9L384.9 217.8C384.9 217.8 396 212.5 399.6 214.8C403.2 217.1 415.9 224.2 415.9 224.2C415.9 224.2 428.3 228.9 430.9 220.2L429.5 216.1Z" fill="#64B4D1" stroke="black" stroke-width="1.2"/>
<path d="M373.6 271C373.6 271 373 267.1 372.4 264.6C372.4 264.6 371 260.7 373.4 257.8L376.2 254.5C376.2 254.5 378 252.1 380.2 251.8C380.2 251.8 382.6 251.8 382.7 251.3C382.9 250.8 385.4 246.8 391.3 251.3C391.3 251.3 393 248.3 396 247.7C396 247.7 399 246.9 400.6 249.1C400.6 249.1 404 246.5 407 250.8C407 250.8 411 248.4 414.2 253.1C414.2 253.1 418.1 251.1 420.6 255.2C423.1 259.5 422.6 261.2 422.6 261.2L424.6 268L431.1 276L415.8 281.8H408.9L395.2 285.4L370.9 287.3L364.2 279.3L373.7 271H373.6Z" fill="white" stroke="#00247D" stroke-width="1.2" stroke-miterlimit="10"/>
<path d="M353.1 311.5C353.1 311.5 349.5 311.6 347.6 312.7C345.8 313.5 344.4 314.5 342.3 315.9C342.3 315.9 341.2 317.2 337 316.4C337 316.4 329.9 314.7 329.9 320.4C329.9 320.4 321 321 324.6 328.7C324.6 328.7 327 334.7 332 330.5C332 330.5 328.8 335 335 336.8C335 336.8 339.4 338 340.7 333.3C340.7 333.3 341.4 331.5 339.7 329.3C339.7 329.3 341.9 328.9 343.3 326.6C343.3 326.6 338.8 332.4 343.8 334.6C343.8 334.6 350.1 336.1 350.5 329.6C350.5 329.6 349.9 326.4 352.4 325.3C352.4 325.3 357.4 324.1 359.5 318.7C359.5 318.7 352.4 314.8 353.1 311.5ZM338.4 254C338.4 254 332.8 251.5 330.1 254C330.1 254 326.5 251.8 322.6 254C322.6 254 318.9 256.4 316.3 259.2C316.3 259.2 314.5 260.7 315.1 265.6C315.1 265.6 316.1 269.1 315.5 270.7C315.5 270.7 314.3 270.5 311.8 273.5C311.8 273.5 308.8 277 305.8 273.8C305.8 273.8 306.8 278.4 312 277.6C312 277.6 309.5 279.6 311.6 284.6C311.6 284.6 313.3 288.2 310.6 292.8C310.6 292.8 315.2 291 315.1 285.6C315.1 285.6 314.6 282 316.1 279.6C316.1 279.6 314.6 281.8 317.7 286.7C317.7 286.7 320.1 290.3 318.2 293.9C318.2 293.9 322.6 292.3 322.2 286.9C321.7 281.5 319.2 283.7 320.8 278.7C320.8 278.7 321.3 281.3 322.6 282.7C323.596 283.54 324.345 284.635 324.768 285.868C325.191 287.101 325.271 288.425 325 289.7C325 289.7 327.6 286.3 327 282.9C326.829 281.368 326.389 279.879 325.7 278.5L334 273.7L338.3 266.2L338.4 254Z" fill="#D40000" stroke="black" stroke-width="1.2" stroke-linejoin="round"/>
<path d="M325.7 275.5C325.7 275.5 322.1 275.3 321.7 272.5M315.5 270.7C315.5 270.7 316.7 270.7 317.9 271.9C317.9 271.9 318.6 273.1 319.9 272.9" stroke="black" stroke-width="1.2" stroke-miterlimit="10"/>
<path d="M330.8 265.2C330.8 265.2 329 265.2 327.9 264.4C327.9 264.4 326.9 263.7 326.4 264.8C326.4 264.8 325.4 266.4 327.1 267.1C327.1 267.1 329.4 268.3 325.9 270.5C325.9 270.5 329.9 268.9 328.3 266.9C328.3 266.9 326.5 265.7 327.1 265.2C327.1 265.2 327.3 264.8 328.1 265.2C328.8 265.8 330.2 265.6 330.8 265.2Z" fill="black"/>
<path d="M385.5 275L387.5 274.4L373.6 226.4H373.1L385.5 275Z" fill="#784421" stroke="black" stroke-width="1.2"/>
<path d="M339 328.3C339 328.3 335.8 326.4 333 328.6C333 328.6 333.4 327.4 335.5 326.9C335.5 326.9 336.6 323.7 339.7 324C339.7 324 338.4 325.6 336.7 326.8C336.7 326.8 338.6 327 339.2 328.3H339Z" fill="black"/>
<path d="M327.5 335.8C327.5 335.8 322.3 332.6 325.2 327.1C325.2 327.1 326 325.6 327.6 325.9C327.6 325.9 330.8 326.9 328.3 331.4C328.3 331.4 327 334.3 327.6 335.9L327.5 335.8ZM338.1 341.1C338.1 341.1 330.7 337.7 333 331.9C333 331.9 333.7 329.9 335.3 330.1C335.3 330.1 338.2 330.3 337.6 334.1C337.6 334.1 336.8 337.7 338.1 341.1Z" fill="#64B4D1" stroke="#00247D" stroke-width="1.2" stroke-miterlimit="2.6"/>
<path d="M336.5 319.6C336.5 319.6 334.3 321.3 333.5 322.4C333.5 322.4 332.5 321.2 331.3 320.6C331.3 320.6 332.7 320.3 333.4 320.9C333.4 320.9 334.6 319.9 336.5 319.6Z" fill="black"/>
<path d="M343.1 339.6C343.1 339.6 349.1 338.2 347.9 332.1C347.9 332.1 347.3 329.5 344.9 329.9C344.9 329.9 341.9 330.7 343.8 334.5C343.8 334.5 345 337.1 343.1 339.6Z" fill="#64B4D1" stroke="#00247D" stroke-width="1.2" stroke-miterlimit="2.6"/>
<path d="M369.5 212.7L375.2 214.6C375.2 214.6 380.5 216.9 387.4 214.6L392.7 212.6L389.1 218V220.9L391.3 224.1C391.3 224.1 389.9 224.7 385.9 222.1C385.9 222.1 381.5 218.7 376.2 222.1C376.2 222.1 373.2 224.1 370.9 224.1L374.3 220.3L373 216.8L369.4 212.5L369.5 212.7Z" fill="#F5CE00" stroke="black" stroke-width="1.2" stroke-miterlimit="2.6"/>
<path d="M345.4 332.5C345.4 332.5 345.6 332.1 345.4 332L344.9 332.2C344.9 332.2 344.3 333.2 344.9 334.6C344.9 334.6 345.4 335.5 345.1 336.4L345.2 336.8C345.2 336.8 345.5 336.7 345.5 336.4C345.5 336.4 345.8 335.6 345.2 334.6C345.2 334.6 344.6 333.2 345.4 332.5Z" fill="white"/>
<path d="M425.8 223.7C425.8 223.7 421.7 225.9 419.8 223.4C419.8 223.4 417.8 219 422.8 217.4C422.8 217.4 420 214.2 422.8 211.2C422.8 211.2 424.4 209.6 427 210.7C427 210.7 428.2 208.4 430.7 208.5C430.7 208.5 433.1 208.5 433.8 211C433.8 211 437 209.8 438.8 211.6C438.8 211.6 441.6 214.8 437.5 217.4L434.7 217.7L431.8 216.3L428.7 217.2C428.7 217.2 429.5 220.4 425.8 223.7Z" fill="#D40000" stroke="black" stroke-width="1.2" stroke-linejoin="round"/>
<path d="M392.7 220.4C392.7 220.4 392.7 221.2 391.9 221.4C391.9 221.4 390.9 221.7 390.3 220.5V220.2C390.3 219.7 390.1 218.2 391.7 216.9C391.7 216.9 394.4 214.8 399.4 217.4C404.223 220.112 409.161 222.614 414.2 224.9C414.2 224.9 417.2 226.5 422 226.7C422 226.7 428.6 227.2 431.3 222.6C431.3 222.6 433.5 219.1 431.3 216.8C431.3 216.8 430.5 215.8 429.1 216C428.372 216.162 427.73 216.59 427.3 217.2C427.3 217.2 426.2 218.6 427.3 219.7C427.3 219.7 428.9 220.7 429.5 218.7C429.5 218.9 430 220.4 429.2 221.6C429.2 221.6 425.2 227.6 414.2 221.5L400 213.4C400 213.4 392.8 209.7 388.4 215.5C388.4 215.5 384.9 220.3 389.4 223.4C389.4 223.4 392.8 225.4 394.8 222.2C394.8 222.2 396.6 219.1 393.8 217.8C393.8 217.8 391.5 216.6 390.5 219C389.5 221.4 392.3 222 392.5 220.3C392.5 220.3 392.5 219.9 392.8 220.3L392.7 220.4Z" fill="#F5CE00" stroke="black" stroke-width="1.2" stroke-miterlimit="2.6"/>
<path d="M335.8 245.2V236.2C335.8 235.4 335.8 235 337 234C338 233.2 339.2 231.7 340.7 235.7C340.7 235.7 343.9 232.2 345 231.7C345 231.7 346.9 230.2 348.2 232.4C348.2 232.4 349.9 229.8 351.2 229.2C351.2 229.2 354.4 227.2 354.5 233.4L357 231C357 231 359 229.5 361.2 231.7C361.2 231.7 364.8 235.3 365.2 236.3C365.2 236.3 366.1 237.3 366.2 239C366.2 239 366.2 241 367.2 242C367.2 242 368.4 243 369.4 243.2C369.4 243.2 371.9 243.3 373 245.8C373 245.8 373.4 245.3 374.7 257V278.5L360.3 295.6L337.1 289L327.9 285.1L325.8 278.5L334.8 272.6L339.5 259.6L338.1 250.3L335.8 245.1V245.2Z" fill="#E4CB5E" stroke="black" stroke-width="1.2" stroke-miterlimit="2.6"/>
<path d="M399.5 256.4L400.7 254.9L403.2 252.9C403.2 252.9 407.2 263.3 407.4 265.6V268.8C407.4 268.8 413.4 270.4 414.5 279.5L409.5 288.7L401.8 284.3L399.5 282.8V256.5V256.4Z" fill="#784421" stroke="black" stroke-width="1.2"/>
<path d="M326.2 328.4C326.2 328.4 326.4 328.1 326.2 327.8L325.7 328.2C325.7 328.2 324.1 329.9 325.4 332.6C325.4 332.6 325.4 333 325.8 332.8C325.8 332.8 326 332.8 325.8 332.5C325.8 332.5 324.6 330.1 326.2 328.5V328.4Z" fill="white"/>
<path d="M349.5 326.6C349.5 326.6 349.6 325.8 349.2 325C349.2 325 348.8 324.4 348.9 323.5M354.5 233.4C354.5 233.4 354.5 235.7 355.2 237.4C355.8 239 358.2 241.9 358.2 243.3" stroke="black" stroke-width="1.2" stroke-miterlimit="10"/>
<path d="M408.9 311.5C408.9 311.5 412.5 311.6 414.4 312.7C416.3 313.5 417.7 314.5 419.9 315.9C419.9 315.9 420.9 317.2 425 316.4C425 316.4 432.3 314.7 432.3 320.4C432.3 320.4 441 321 437.4 328.7C437.4 328.7 435 334.7 430 330.5C430 330.5 433.2 335 427 336.8C427 336.8 422.6 338 421.3 333.3C421.3 333.3 420.6 331.5 422.3 329.3C422.3 329.3 420.3 328.9 418.8 326.6C418.8 326.6 423.3 332.4 418.3 334.6C418.3 334.6 412 336.1 411.6 329.6C411.6 329.6 412.1 326.4 409.7 325.3C409.7 325.3 404.7 324.1 402.5 318.7C402.5 318.7 409.6 314.8 408.9 311.5Z" fill="#D40000" stroke="black" stroke-width="1.2" stroke-linejoin="round"/>
<path d="M351.7 243.4L357.7 291.2M353.1 243.3L359.8 287.9M354.3 243.1L362 287.3" stroke="black" stroke-width="1.2" stroke-miterlimit="10"/>
<path d="M366.5 283.5L368.6 282.8L354.6 234.8H354.2L366.5 283.5Z" fill="#784421" stroke="black" stroke-width="1.2"/>
<path d="M358.5 241.3L372.7 276.8M357.7 241.8L371.2 278.8" stroke="black" stroke-width="1.2" stroke-miterlimit="10"/>
<path d="M335.5 337.6C335.5 337.6 333.8 336.1 334 333.3C334 333.3 334 332.7 333.8 332.6C333.8 332.6 333.4 332.5 333.4 333.2C333.4 333.2 333 336.1 335 337.7C335 337.7 335.1 338 335.3 337.9C335.3 337.9 335.6 337.9 335.3 337.6H335.5Z" fill="white"/>
<path d="M359.3 240.8L373.6 273.2M355.5 242.8L364.5 286.5" stroke="black" stroke-width="1.2" stroke-miterlimit="10"/>
<path d="M427.9 275C421.5 271.4 420.1 263.6 420.1 263.6C419.228 258.77 419.82 253.79 421.8 249.3C425.8 240.7 432.8 239 432.8 239C432.8 239 426 243.8 424 250.2C424 250.2 422.6 255.7 423.5 260.9C424.3 266.4 423.9 265 425.2 269.2L427.9 275.2V275Z" fill="#F5CE00" stroke="black" stroke-width="1.2" stroke-miterlimit="2.6"/>
<path d="M400.5 254.7L374 263.2L372.5 275.2C366.2 284.3 353.3 285.9 353.3 285.9L363.3 296.6L382.4 300.6L392.6 292.8L401.8 284.4C400.8 279.9 401.3 273.2 401.3 273.2C401.3 272 401.8 269.4 401.8 269.4C401.8 269.4 400.2 258.7 400.6 254.9L400.5 254.7Z" fill="#784421" stroke="black" stroke-width="1.2"/>
<path d="M372.9 272.2C372.9 272.2 390.4 266.7 400.9 262.2M364.4 282.2C364.4 282.2 386.4 278.2 401.8 269.4L407.4 265.6" stroke="black" stroke-width="1.2" stroke-miterlimit="10"/>
<path d="M407.4 268.8L401.4 273.2C401.4 273.2 376.8 284.4 358.1 284.8M401.3 281.2C401.3 281.2 382.4 290.9 371.7 291" stroke="black" stroke-width="1.2" stroke-miterlimit="10"/>
<path d="M423.7 254C423.7 254 429.3 251.5 432 254C432 254 435.6 251.8 439.7 254C439.7 254 443.2 256.4 445.9 259.2C445.9 259.2 447.7 260.7 447.1 265.6C447.1 265.6 446.1 269.1 446.7 270.7C446.7 270.7 447.9 270.5 450.3 273.5C450.3 273.5 453.5 277 456.3 273.8C456.3 273.8 455.4 278.4 450.3 277.6C450.3 277.6 452.7 279.6 450.5 284.6C450.5 284.6 449 288.2 451.5 292.8C451.5 292.8 446.9 291 447.2 285.6C447.2 285.6 447.5 282 446.2 279.6C446.2 279.6 447.5 281.8 444.4 286.7C444.4 286.7 442.1 290.3 444.1 293.9C444.1 293.9 439.5 292.3 440.1 286.9C440.4 281.5 443.1 283.7 441.3 278.7C441.3 278.7 441 281.3 439.7 282.7C438.704 283.54 437.954 284.635 437.532 285.868C437.109 287.101 437.029 288.425 437.3 289.7C437.3 289.7 434.7 286.3 435.3 282.9C435.9 279.4 436.4 278.5 436.4 278.5L428.1 273.7L423.9 266.2L423.7 254Z" fill="#D40000" stroke="black" stroke-width="1.2" stroke-linejoin="round"/>
<path d="M328.5 284.4C328.5 284.4 329.3 280.7 332.7 282C332.7 282 333.9 276 340.5 275.8C346.9 275.6 347.3 282.2 347.3 282.6C347.3 282.6 349.3 279.8 352.3 280.1C352.3 280.1 357.9 279.8 356 288.6L357 289.8C357 289.8 361 279.9 369.7 282.4C369.7 282.4 378 285 372.7 293.1C372.7 293.1 376.8 298.6 380.3 298.1C383.9 297.6 387 296.5 390.4 290.3C394 284.1 402.1 283.1 404.1 283.5C406.1 283.8 407.8 285.3 408.1 286.7C408.1 286.7 412.5 272.4 428 274.5L434.2 277.8L436.6 278.8L433 288.8L424.5 308L418 310L411.2 306.1L408.8 307.3L408.7 313.2L399.7 319.6L393.5 322.1L386.7 326.9L385.1 331.1C385.1 331.1 381.4 329.4 377.1 331.1L375.6 327.5L371.6 323.8L356.1 316.4L353.3 307.4L350.5 306.1L347.3 309.7L342.7 310.3L335.8 305.5L328.3 284.5L328.5 284.4Z" fill="white" stroke="#00247D" stroke-width="1.2" stroke-miterlimit="10"/>
<path d="M396 214C396 214 390 213.8 390.3 220" stroke="black" stroke-width="1.2" stroke-miterlimit="2.6"/>
<path d="M434.9 279.3C424.6 276.1 421.8 265 421.8 265C420.609 259.824 421.063 254.405 423.1 249.5C427.9 238.5 435.7 238.5 435.7 238.5C436.733 238.325 437.794 238.561 438.654 239.16C439.514 239.758 440.105 240.67 440.3 241.7C440.6 244.1 439 245 439 245C436.2 246.5 434.4 244.5 434.4 244.5C433.2 242.9 434.2 241.6 434.2 241.6C434.9 240.6 436.2 241.2 436.2 241.2C437.4 241.4 437.2 242.8 437.2 242.8C437.2 242.8 437.5 241.2 436 241C436 241 432.8 240.3 429.2 244.8C429.2 244.8 424.4 250.9 424.4 258.9C424.4 258.9 423.8 273.7 439.2 277.5C439.2 277.5 437.5 279.9 434.5 288.6C434.5 288.6 431.2 299.8 428.1 305.9C428.1 305.9 423.8 314.5 414.3 311C414.3 311 408.7 308.5 408.7 304.5C408.7 304.5 408.3 300.7 411.7 300.5C411.7 300.5 415 300.2 415 303C415 303 415 306 411.4 305.4C411.4 305.4 410.2 305.1 410.4 303.9C410.4 303.9 410.6 302.7 412.1 303.3C413.7 303.9 412.1 303.3 412.1 303.2C412.1 303.2 411.5 302.9 410.9 303.2C410.9 303.2 410.3 303.2 410.3 304.2C410.3 304.2 410.3 304.8 411.1 305.3L412.7 305.5C412.7 305.5 413.7 307.5 415.8 308.2C416.98 308.552 418.226 308.627 419.441 308.419C420.655 308.211 421.804 307.725 422.8 307C424.141 305.838 425.172 304.36 425.8 302.7C427.853 298.318 429.624 293.809 431.1 289.2C431.1 289.2 432.9 283.5 434.4 280.5L434.9 279.3Z" fill="#F5CE00" stroke="black" stroke-width="1.2" stroke-miterlimit="2.6"/>
<path d="M405.8 307.4C405.8 307.4 407.8 307.2 407.8 308.9C407.8 308.9 407.8 311.3 404.6 310.8C404.6 310.8 401.6 310.2 402.7 306.8C402.7 306.8 403.4 304.5 406.3 304.8C406.3 304.8 409 304.8 410.3 308.6C410.3 308.6 411.2 311.9 409.5 314.6C407.7 317.6 403.3 319.6 401.2 320.6C401.2 320.6 392.4 323.9 389.8 325.9C389.8 325.9 385.8 328.8 387.7 331.5C387.7 331.5 388.4 332.6 389.3 332.6C389.3 332.6 390.5 332.6 390.7 331.4C390.7 331.4 390.7 332.1 389.9 332.4C389.9 332.4 389.1 332.8 388.3 332.1C388.3 332.1 387.3 331.1 388 329.7C388 329.7 389.1 328.1 391.6 329.1C391.6 329.1 393.6 330.2 392.8 332.4C392.8 332.4 392 334.5 389.5 334.4C389.5 334.4 387.5 334.4 386.2 333.2C384.3 331.1 384.2 327.2 386 325.2C386 325.2 387.6 323.1 390.8 321.6L399.8 318.1C402.201 317.204 404.383 315.807 406.2 314C406.2 314 407.5 312.6 408 310C408 310 408.3 308 407.1 307.6L405.9 307.3L405.8 307.4Z" fill="#F5CE00" stroke="black" stroke-width="1.2" stroke-miterlimit="2.6"/>
<path d="M406 307.4C406 307.4 408.2 307 409.5 309.6C409.5 309.6 410.2 311.1 410.3 312.1M411.1 303.1C411.1 303.1 408.9 303.4 410 306.5C411.2 309.4 413 310.2 413.6 310.7" stroke="black" stroke-width="1.2" stroke-miterlimit="2.6"/>
<path d="M369.5 220.4C369.5 220.4 369.5 221.2 370.4 221.4C370.4 221.4 371.2 221.6 371.7 220.5L371.8 220.2C371.8 219.7 372.1 218.2 370.5 216.9C370.5 216.9 367.8 214.8 362.8 217.4C362.8 217.4 358.8 219.4 356.1 221C356.1 221 348.9 224.8 348 225C348 225 344.9 226.6 340.1 226.8C340.1 226.8 333.5 227.3 330.8 222.7C330.8 222.7 328.7 219.2 330.8 216.9C330.8 216.9 331.6 215.9 333.1 216.1C333.7 216.2 334.3 216.5 334.9 217.3C334.9 217.3 335.9 218.7 334.7 219.8C334.7 219.8 333.2 220.8 332.6 218.8C332.6 219 332.2 220.4 333.1 221.8C333.1 221.8 337 227.7 347.9 221.5L362.2 213.5C362.2 213.5 369.3 209.8 373.7 215.5C373.7 215.5 377.2 220.3 372.7 223.5C372.7 223.5 369.4 225.5 367.3 222.3C367.3 222.3 365.6 219.3 368.3 217.9C368.3 217.9 370.6 216.7 371.7 219.1C372.7 221.5 369.7 222.1 369.6 220.4C369.6 220.4 369.6 220 369.4 220.4H369.5ZM334.3 275.1C340.6 271.6 342 263.6 342 263.6C343.4 255.6 340.3 249.3 340.3 249.3C336.3 240.7 329.3 239 329.3 239C329.3 239 336.2 243.8 338.1 250.2C338.1 250.2 339.6 255.7 338.7 260.9C337.8 266.4 338.2 265 336.9 269.2L334.3 275.1Z" fill="#F5CE00" stroke="black" stroke-width="1.2" stroke-miterlimit="2.6"/>
<path d="M366.2 214C366.2 214 372.2 213.8 371.8 220" stroke="black" stroke-width="1.2" stroke-miterlimit="2.6"/>
<path d="M327.1 279.3C337.5 276.1 340.2 265 340.2 265C341.423 259.834 341.004 254.416 339 249.5C334.3 238.5 326.4 238.5 326.4 238.5C325.382 238.353 324.347 238.603 323.509 239.199C322.671 239.795 322.095 240.69 321.9 241.7C321.5 244.1 323.2 245 323.2 245C325.9 246.5 327.7 244.5 327.7 244.5C328.9 242.9 327.9 241.6 327.9 241.6C327.2 240.6 325.9 241.2 325.9 241.2C324.7 241.4 324.9 242.8 324.9 242.8C324.9 242.8 324.6 241.2 326.2 241C326.2 241 329.4 240.3 333 244.8C333 244.8 337.7 250.9 337.7 258.9C337.7 258.9 338.3 273.7 322.9 277.5C322.9 277.5 324.6 279.9 327.6 288.6C327.6 288.6 330.9 299.8 334.1 305.9C334.1 305.9 338.3 314.5 347.9 311C347.9 311 353.5 308.5 353.5 304.5C353.5 304.5 353.8 300.7 350.5 300.5C350.5 300.5 347.1 300.2 347.1 303C347.1 303 347.1 306 350.7 305.4C350.7 305.4 351.9 305.1 351.7 303.9C351.7 303.9 351.6 302.7 350 303.3C348.5 303.9 350 303.3 350 303.2C350 303.2 350.6 302.9 351.2 303.2C351.2 303.2 351.8 303.2 351.8 304.2C351.8 304.2 351.8 304.8 351.1 305.3L349.5 305.5C349.5 305.5 348.5 307.5 346.3 308.2C345.125 308.594 343.871 308.69 342.649 308.481C341.427 308.272 340.277 307.763 339.3 307C337.959 305.838 336.928 304.36 336.3 302.7C334.247 298.318 332.477 293.808 331 289.2C331 289.2 329.3 283.5 327.8 280.5L327.2 279.3H327.1Z" fill="#F5CE00" stroke="black" stroke-width="1.2" stroke-miterlimit="2.6"/>
<path d="M356.3 307.4C356.3 307.4 354.4 307.2 354.4 308.9C354.4 308.9 354.4 311.3 357.5 310.8C357.5 310.8 360.5 310.2 359.5 306.8C359.5 306.8 358.7 304.5 355.8 304.8C355.8 304.8 353.1 304.8 351.9 308.6C351.9 308.6 350.9 311.9 352.6 314.6C354.4 317.6 358.8 319.6 361 320.6C361 320.6 369.7 323.9 372.3 325.9C372.3 325.9 376.3 328.8 374.4 331.5C374.4 331.5 373.8 332.6 372.8 332.6C372.8 332.6 371.6 332.6 371.5 331.4C371.5 331.4 371.5 332.1 372.2 332.4C372.2 332.4 373 332.8 373.8 332.1C373.8 332.1 374.8 331.1 374.1 329.7C374.1 329.7 373.1 328.1 370.6 329.1C370.6 329.1 368.5 330.2 369.4 332.4C369.4 332.4 370.2 334.5 372.7 334.4C372.7 334.4 374.6 334.4 375.9 333.2C377.8 331.1 377.9 327.2 376.2 325.2C376.2 325.2 374.6 323.1 371.5 321.6C369.5 321 366 319.5 362.4 318.1C359.977 317.25 357.785 315.846 356 314C356 314 354.7 312.6 354.2 310C354.2 310 353.8 308 355 307.6L356.2 307.3H356.3V307.4Z" fill="#F5CE00" stroke="black" stroke-width="1.2" stroke-miterlimit="2.6"/>
<path d="M356.1 307.4C356.1 307.4 353.9 307 352.6 309.6C352.6 309.6 351.9 311.1 351.8 312.1M351.1 303.1C351.1 303.1 353.2 303.4 352.1 306.5C351 309.4 349.1 310.2 348.6 310.7M376 219.6C376 219.6 381.1 216.3 386.4 219.9M346.7 251.2C346.7 251.2 347.4 248.2 344 243.2L340.8 235.7M348.2 232.4L350.6 239L353.5 245.8" stroke="black" stroke-width="1.2" stroke-miterlimit="2.6"/>
<path d="M349 254.3C349 254.3 351 256.4 350.8 259.9M342.8 252C342.8 252 344.8 253 344.6 258.8C344.6 258.8 344.6 262.8 347.6 265M342.4 266.4C342.4 266.4 349 265.7 349.5 269.9C349.5 269.9 349.5 273.9 351.9 274.2C351.9 274.2 355.2 274.5 355.9 277.8M344.5 271C344.5 271 345.7 272.7 346.9 273.6M353.1 266.6C353.1 266.6 354.8 269.3 355.1 270.7M360.5 235.7C360.5 235.7 362 237.8 363.5 238.7M366.7 248.3C366.7 248.3 370 249.9 369.6 258.3C369.6 258.3 369.1 263.3 370.6 266" stroke="black" stroke-width="1.2" stroke-miterlimit="10"/>
<path d="M351 242.6L351.3 243.4C351.3 243.4 357.3 243.7 360.5 239.6L360.1 238.8C360.1 238.8 354.9 238.5 351.1 242.6H351Z" fill="#784421" stroke="black" stroke-width="1.2"/>
<path d="M372.5 274.5C372.5 274.5 393.2 268.5 401.2 264.9" stroke="black" stroke-width="1.2" stroke-miterlimit="10"/>
<path d="M370.4 236.5L370.2 235.9L380.2 231.9L380.5 232.7L370.4 236.5Z" fill="#784421" stroke="black" stroke-width="1.2"/>
<path d="M371.2 236.1L378 269.4M372.4 235.8L380.2 268.8M373.7 235.2L382.2 268.1M377.1 234L388.6 258.6M378.6 233.6L390.9 257.8M379.7 233L393 257.3M377.5 269.6L382.8 268M373.6 266.4C373.6 266.4 388.9 261.9 400.6 257.2M373.4 268C373.4 268 392.8 263 400.6 259.2M379.3 283.8L380.3 287.1L383.1 286.1L382.2 283M387.2 281.7L388.2 284.7L390.9 283.8L389.9 280.8M373.9 263.2L373.7 259L399.2 251.3L400.6 254.9M384.6 255.7L385.9 259.5M393.4 253.1L395.1 256.7M395.5 252.4L397.1 255.7M397.6 251.7L399.1 255.3M399.1 251.3L402 249.7L403.2 252.8M400.6 250.5L402 253.8" stroke="black" stroke-width="1.2" stroke-miterlimit="10"/>
<path d="M337.4 299.1C337.4 299.1 332.4 294 337.4 289.1C337.4 289.1 331.9 286.5 332.7 282.1M346.3 303.1C346.3 303.1 341.1 303.8 342.6 293.7C342.6 293.7 340.5 297.7 339.7 299.7C339.387 300.694 339.414 301.765 339.776 302.742C340.138 303.72 340.815 304.549 341.7 305.1C342.7 305.7 347.3 306.9 348.7 303.9M340.5 287.7C340.5 287.7 338.3 289.6 339.9 293.1M342.6 288.1C342.6 288.1 342.8 291.6 344.6 293.5M344.2 286.8C344.2 286.8 344.2 290.8 347 293.4M345.6 285.4C345.6 285.4 345.6 289.9 348.9 292.8M362.4 292.1C362.4 292.1 364.1 288.2 367.6 288.5C367.6 288.5 366 289.3 366 291C366 291 365.7 294 368.8 294.2C368.8 294.2 371.3 294.6 372.7 293.2" stroke="#00247D" stroke-width="1.2" stroke-miterlimit="10"/>
<path d="M371 309.1C371 309.1 362 304.9 363 299C363 299 363.4 295.4 367 293.6M365 297.4C365 297.4 364.2 299.9 366 301.7M367 295.7C367 295.7 365.9 298.5 367.8 300.5M369.2 294.2C369.2 294.2 367.9 296.6 369.4 298.7M361.1 309.7C361.1 309.7 365.9 314 369.7 314M359.5 311.1C359.5 311.1 364.1 314.7 366.9 315.3M357.9 312.1C357.9 312.1 363.5 317 366.9 317.3M380.6 321.9C380.6 321.9 375.2 324.9 379.5 328.1M377.1 318.7L386.1 314.1M379.3 320.3C379.3 320.3 388.4 314.8 391 313.6M384 320.8C384 320.8 391.7 315.6 396 313.3M389.1 320.4C389.1 320.4 394.5 316.4 399.6 313.3M401.4 308.2C401.4 308.2 398.8 304.3 390.2 308.2C390.2 308.2 393.4 305.3 399.6 303M408.2 286.7C408.2 286.7 408.9 289.8 408.2 291.7" stroke="#00247D" stroke-width="1.2" stroke-miterlimit="10"/>
<path d="M394.4 301.7C394.4 301.7 396.1 299.1 400.7 297.7C400.7 297.7 401.9 300.7 405.4 300.2C405.4 300.2 410.7 299.1 409 293.2C409 293.2 408 289 401.9 288.5M419.9 281.2C419.9 281.2 426.1 282.4 425.9 287.3C425.9 287.3 426.6 294.9 418.6 296.3M425.1 284.3C425.1 284.3 426.8 280.6 430.6 279.1M426.1 276.9C426.1 276.9 427.7 279.7 428.8 280M425.2 279L427.2 281.5M424.6 281C425.055 281.606 425.594 282.145 426.2 282.6M392.8 251.8C392.8 251.8 394 249.8 397.1 250.6M409.3 266.4C409.3 266.4 411.2 258.6 417.7 261.4M415.1 260.8C415.1 260.8 415.7 257.2 414.1 255.3M410.6 260.5C410.6 260.5 411.4 262 410.6 263.2" stroke="#00247D" stroke-width="1.2" stroke-miterlimit="10"/>
<path d="M424 341C424 341 431.4 337.7 429.2 331.9C429.2 331.9 428.5 329.9 426.8 330.1C426.8 330.1 423.9 330.2 424.4 334.1C424.4 334.1 425.4 337.9 423.9 341.1L424 341Z" fill="#64B4D1" stroke="#00247D" stroke-width="1.2" stroke-miterlimit="2.6"/>
<path d="M426.7 337.6C426.7 337.6 428.3 336.1 428.1 333.3C428.1 333.3 428 332.7 428.2 332.6C428.2 332.6 428.6 332.5 428.6 333.2C428.6 333.2 429.1 336.1 427.1 337.7C427.1 337.7 427.1 338 426.8 337.9C426.8 337.9 426.6 337.9 426.7 337.6Z" fill="white"/>
<path d="M434.5 335.8C434.5 335.8 439.8 332.6 436.9 327.1C436.9 327.1 436.1 325.6 434.5 325.9C434.5 325.9 431.3 326.9 433.8 331.4C433.8 331.4 435 334.3 434.5 335.9V335.8Z" fill="#64B4D1" stroke="#00247D" stroke-width="1.2" stroke-miterlimit="2.6"/>
<path d="M435.9 328.4C435.9 328.4 435.6 328.1 435.9 327.8L436.2 328.2C436.2 328.2 437.8 329.9 436.6 332.6C436.6 332.6 436.4 333 436.1 332.8V332.5C436.1 332.5 437.3 330.1 435.9 328.5V328.4Z" fill="white"/>
<path d="M418.9 339.6C418.9 339.6 413.1 338.2 414.2 332.1C414.2 332.1 414.7 329.5 417.2 329.9C417.2 329.9 420.2 330.7 418.3 334.5C418.3 334.5 417.1 337.1 418.9 339.6Z" fill="#64B4D1" stroke="#00247D" stroke-width="1.2" stroke-miterlimit="2.6"/>
<path d="M416.7 332.5C416.7 332.5 416.5 332.1 416.7 332C416.7 332 417 332 417.1 332.2C417.1 332.2 417.7 333.2 417.3 334.6C417.3 334.6 416.8 335.5 417 336.4C417 336.4 417 336.7 416.8 336.8L416.5 336.4C416.5 336.4 416.3 335.6 416.8 334.6C416.8 334.6 417.4 333.2 416.8 332.5H416.7Z" fill="white"/>
<path d="M423.1 328.3C423.1 328.3 426.4 326.4 429.1 328.6C429.1 328.6 428.8 327.4 426.7 326.9C426.7 326.9 425.6 323.7 422.5 324C422.5 324 423.7 325.6 425.5 326.8C425.5 326.8 423.7 327 423.1 328.3ZM425.5 319.6C425.5 319.6 427.9 321.3 428.7 322.4C428.7 322.4 429.5 321.2 430.7 320.6C430.7 320.6 429.4 320.3 428.7 320.9C428.7 320.9 427.5 319.9 425.6 319.6H425.5Z" fill="black"/>
<path d="M412.6 326.6C412.6 326.6 412.4 325.8 413 325C413 325 413.3 324.4 413.2 323.5M436.6 275.5C436.6 275.5 440 275.3 440.6 272.5M446.6 270.7C446.6 270.7 445.4 270.7 444.3 271.9C444.3 271.9 443.5 273.1 442.3 272.9" stroke="black" stroke-width="1.2" stroke-miterlimit="10"/>
<path d="M431.5 265.2C431.5 265.2 433.2 265.2 434.2 264.4C434.2 264.4 435.2 263.7 435.9 264.8C435.9 264.8 436.9 266.4 435 267.1C435 267.1 432.9 268.3 436.3 270.5C436.3 270.5 432.2 268.9 433.9 266.9C433.9 266.9 435.7 265.7 435 265.2C435 265.2 434.8 264.8 434 265.2C433.3 265.8 432 265.6 431.4 265.2H431.5Z" fill="black"/>
<path d="M433.8 221.6C433.8 221.6 434.7 220.4 434.3 217.2C433.9 214 436.9 213.5 438 214.4C438 214.4 439.2 215.4 438 217.5C437.146 219.333 435.653 220.79 433.8 221.6Z" fill="#64B4D1" stroke="#00247D" stroke-width="1.2" stroke-miterlimit="2.6"/>
<path d="M434.9 219C434.9 219 436.1 217.9 435.5 215.4L435.6 215.2H436C436 215.2 436.6 218 435.4 219.4C435.4 219.4 435.1 219.7 434.9 219.4V219Z" fill="white"/>
<path d="M433 220.4C433 220.4 432.9 219 430.6 216.8C428.2 214.4 430.1 212.4 431.6 212.4C431.6 212.4 433 212.4 433.6 214.7C434.083 216.611 433.871 218.632 433 220.4Z" fill="#64B4D1" stroke="#00247D" stroke-width="1.2" stroke-miterlimit="2.6"/>
<path d="M432.6 217.4C432.6 217.4 432.6 215.8 430.5 214.1V213.7H430.8C430.8 213.7 433.1 215.5 433.1 217.5C433.1 217.5 433.1 217.8 432.9 217.8C432.9 217.8 432.6 217.8 432.6 217.4Z" fill="white"/>
<path d="M429.8 219.3C429.8 219.3 429.2 218.3 426.3 217.2C423.5 216.2 424.2 213.7 425.3 213.2C425.3 213.2 426.7 212.7 428 214.3C429.182 215.696 429.821 217.471 429.8 219.3Z" fill="#64B4D1" stroke="#00247D" stroke-width="1.2" stroke-miterlimit="2.6"/>
<path d="M428.5 217.3C428.5 217.3 427.9 215.9 425.2 215.2C425.2 215.2 425 215.2 425 214.9C425 214.9 425 214.7 425.4 214.8C425.4 214.8 428.2 215.4 429.1 217.2L428.9 217.5C428.9 217.5 428.7 217.5 428.6 217.3H428.5Z" fill="white"/>
<path d="M431.5 220.4C431.5 220.4 430.2 220.9 427.1 219.4C424.1 217.9 422.7 220.5 423.3 221.7C423.3 221.7 423.8 223.3 426.2 222.9C428.233 222.79 430.155 221.935 431.6 220.5L431.5 220.4Z" fill="#64B4D1" stroke="#00247D" stroke-width="1.2" stroke-miterlimit="2.6"/>
<path d="M424.5 221.4C424.5 221.4 425.8 222.4 428.3 221.4H428.7C428.7 221.4 428.7 221.6 428.5 221.7C428.5 221.7 425.8 222.9 424 221.8C424 221.8 423.8 221.8 424 221.5H424.4L424.5 221.4Z" fill="white"/>
<path d="M427.1 210.7C427.1 210.7 428.6 211.5 428.3 213.2" stroke="black" stroke-width="1.2" stroke-miterlimit="2.6"/>
<path d="M433.8 211C433.8 211 434.4 212.9 433.8 214" stroke="black" stroke-width="1.2" stroke-miterlimit="10"/>
<path d="M328.1 221.6C328.1 221.6 327.2 220.4 327.6 217.2C327.9 213.8 325.1 213.5 324 214.4C324 214.4 322.8 215.4 323.9 217.5C324.754 219.333 326.247 220.79 328.1 221.6Z" fill="#64B4D1" stroke="#00247D" stroke-width="1.2" stroke-miterlimit="2.6"/>
<path d="M327 219C327 219 326 217.9 326.4 215.4V215.2H325.9C325.9 215.2 325.4 218 326.6 219.4C326.6 219.4 326.9 219.7 327 219.4V219Z" fill="white"/>
<path d="M329 220.4C329 220.4 329 219 331.4 216.8C333.8 214.4 331.9 212.4 330.4 212.4C330.4 212.4 328.9 212.4 328.4 214.7C327.917 216.611 328.129 218.632 329 220.4Z" fill="#64B4D1" stroke="#00247D" stroke-width="1.2" stroke-miterlimit="2.6"/>
<path d="M329.4 217.4C329.4 217.4 329.4 215.8 331.4 214.1C331.4 214.1 331.6 213.8 331.4 213.7H331.2C331.2 213.7 328.8 215.5 328.8 217.5C328.8 217.5 328.8 217.8 329.1 217.8C329.1 217.8 329.4 217.8 329.4 217.4Z" fill="white"/>
<path d="M332.1 219.3C332.1 219.3 332.7 218.3 335.7 217.2C338.4 216.2 337.7 213.7 336.5 213.2C336.5 213.2 335.3 212.7 333.9 214.3C332.718 215.696 332.079 217.471 332.1 219.3Z" fill="#64B4D1" stroke="#00247D" stroke-width="1.2" stroke-miterlimit="2.6"/>
<path d="M333.5 217.3C333.5 217.3 334 215.9 336.6 215.2C336.6 215.2 336.9 215.2 336.9 214.9C336.9 214.9 336.9 214.7 336.6 214.8C336.6 214.8 333.8 215.4 333 217.2V217.5C333 217.5 333.3 217.5 333.4 217.3H333.5Z" fill="white"/>
<path d="M330.3 220.4C330.3 220.4 331.8 220.9 334.7 219.4C337.8 217.9 339.2 220.5 338.7 221.7C338.7 221.7 338.1 223.3 335.7 222.9C333.667 222.79 331.745 221.935 330.3 220.5V220.4Z" fill="#64B4D1" stroke="#00247D" stroke-width="1.2" stroke-miterlimit="2.6"/>
<path d="M337.5 221.4C337.5 221.4 336.2 222.4 333.5 221.4H333.3V221.7C333.3 221.7 336.2 222.9 337.8 221.8C337.8 221.8 338.1 221.8 337.8 221.5H337.5V221.4Z" fill="white"/>
<path d="M334.9 210.7C334.9 210.7 333.3 211.5 333.7 213.2" stroke="black" stroke-width="1.2" stroke-miterlimit="2.6"/>
<path d="M328.1 211C328.1 211 327.5 212.9 328.1 214" stroke="black" stroke-width="1.2" stroke-miterlimit="10"/>
<path d="M394.6 193.6C394.6 193.6 395.6 196.3 395.2 198.8C394.8 201.2 395.3 201.7 396.2 202.2C396.9 202.5 398.5 201.8 398.6 200C398.6 200 400.6 203.8 396.9 206.3C396.9 206.3 394.1 208 391.9 205.9C391 205 390.7 202.9 391.1 200.9C391.1 200.9 391.7 198.2 390.7 195.4C390.7 195.4 392.2 197 391.9 200.3C391.9 200.3 391 206.3 395.4 205.9C395.4 205.9 398.4 205.9 398.5 202.3C398.5 202.3 397.3 203.5 396 203.1C395.396 202.957 394.871 202.585 394.536 202.063C394.2 201.541 394.08 200.909 394.2 200.3C394.4 198.7 394.8 196 394.6 193.6ZM389.8 203.1C389.8 203.1 389.5 207.9 385.3 209C385.3 209 385.9 208.1 384.9 205.7C384.9 205.7 383.9 204.5 383.9 202.4C383.9 202.4 382.8 203.4 384.2 206.2C385.2 207.9 384.3 209.8 384.1 209.9C383.7 210 391.1 208.9 389.7 203.2L389.8 203.1ZM384.2 198.6C384.2 198.6 383.2 197.4 383 194.8C383 192.1 382.6 191.4 382.2 191.2C382.2 191.2 382.7 193.5 382.6 194.8C382.6 196.3 382.6 197.2 382.9 197.8C382.9 197.8 380.5 198.1 379.1 194.8C377.8 191.5 376.4 191.8 375.6 191.8C375.6 191.8 376.5 191.9 378 194.8C379.7 197.8 380.2 198.5 384.2 198.5V198.6ZM373.5 191.6C373.5 191.6 374.7 194.8 374.8 196.4C374.8 196.4 371.7 195.4 370.8 192.9C370.8 192.9 367.6 193.9 368.8 197.6C368.8 197.6 366 196.6 364.7 194.4C364.7 194.4 366.2 195.6 367.7 196.1C367.7 196.1 367.5 193 371.3 191.9C371.3 191.9 371.9 194.6 374 195.2L373.5 191.6ZM378.5 186.2C378.5 186.2 379.7 187.7 381.8 187.7C382.433 187.764 383.073 187.659 383.652 187.396C384.232 187.132 384.732 186.72 385.1 186.2C385.1 186.2 384.9 188.8 381.8 188.9C381.8 188.9 378.5 188.9 378.5 186.2ZM365 204.7L367 206.6C367 206.6 368.2 207.8 369 206.3C369 206.3 370.4 203.9 372 204.1C372 204.1 370.7 204.8 369.6 207.1C369.6 207.1 369.3 207.8 368.4 207.9C367.9 207.9 367.4 208.1 366.6 207.2L365 204.8V204.7ZM381.7 175.3C378.5 175.3 381.2 177.7 381.2 177.7C381.2 181.7 378.2 183.1 376 181.9C373.7 180.7 375.5 177.9 375.5 177.9C375.5 177.9 373.1 179.4 374.5 181.8C376.1 184.2 380.3 183 381.7 180.9C383.3 183.1 387.4 184.2 388.9 181.8C390.5 179.4 388 177.8 388 177.8C388 177.8 389.8 180.7 387.6 181.8C385.4 183.1 382.2 181.8 382.3 177.8C382.3 177.8 385.1 175.3 381.8 175.3H381.7ZM383.7 170.9C383.7 170.9 384.9 172.9 384.7 175.9C384.7 175.9 385.7 172.9 383.7 171V170.9ZM373.7 175.6C373.7 175.6 373.5 173.4 371.3 173.2C371.3 173.2 373.3 174.5 373.7 175.6ZM389.8 175.6C389.8 175.6 390.1 173.4 392.2 173.2C392.2 173.2 390.4 174.5 389.8 175.6ZM370.5 178.8C370.5 178.8 372.2 179.3 373.1 178.1L370.5 178.8ZM365.1 165.7C365.1 165.7 367.1 165.6 369 168.4C369 168.4 367 169.4 366.6 170C366.6 170 366.6 169 367.6 168.3C367.6 168.3 367.2 166.9 365.1 165.8V165.7ZM397.1 165.7C397.1 165.7 395.1 165.6 393.3 168.4C393.3 168.4 395.2 169.4 395.7 170C395.7 170 395.7 169 394.7 168.3C394.7 168.3 395.1 166.9 397.1 165.8V165.7ZM382.4 167.9C382.4 167.9 384.1 168.4 386.2 167.2C386.2 167.2 388.9 165.8 390.5 167.2C390.5 167.2 389.1 166.5 386.2 167.9C386.2 167.9 383.5 169.5 382.4 167.9Z" fill="black"/>
<path d="M384.2 169.6C384.2 169.6 385.7 167.1 390.2 167.6C390.2 167.6 389 171.2 384.2 169.6Z" fill="white"/>
<path d="M387.2 169.9C387.642 169.9 388 169.407 388 168.8C388 168.192 387.642 167.7 387.2 167.7C386.758 167.7 386.4 168.192 386.4 168.8C386.4 169.407 386.758 169.9 387.2 169.9Z" fill="#784421"/>
<path d="M387.2 169.5C387.476 169.5 387.7 169.187 387.7 168.8C387.7 168.413 387.476 168.1 387.2 168.1C386.924 168.1 386.7 168.413 386.7 168.8C386.7 169.187 386.924 169.5 387.2 169.5Z" fill="black"/>
<path d="M374.7 164.1C374.7 164.1 377.4 164.4 379.2 165.3C379.2 165.3 381 166.5 383 165C383 165 385.3 163.6 386.7 161.9C386.7 161.9 383.3 164.2 382 164.6C382 164.6 380.8 163.6 380.4 162.3C380.4 162.3 380.5 161.3 382.4 159.6C382.4 159.6 379.9 160.4 379.4 162.5C379.748 163.356 380.257 164.137 380.9 164.8C380.9 164.8 380.4 165.1 379.2 164.2C379.2 164.2 376.5 163.4 374.7 164.2V164.1ZM381.8 181.1C379.5 183.2 381.8 183 381.8 183C381.8 183 384.2 183.2 381.8 181V181.1ZM380.4 167.9C380.4 167.9 378.6 168.4 376.4 167.2C376.4 167.2 373.8 165.8 372.2 167.2C372.2 167.2 373.6 166.5 376.5 167.9C376.5 167.9 379.3 169.5 380.5 167.9H380.4Z" fill="black"/>
<path d="M378.6 169.6C378.6 169.6 377.2 167.1 372.6 167.6C372.6 167.6 373.8 171.2 378.6 169.6Z" fill="white"/>
<path d="M375.5 169.9C375.942 169.9 376.3 169.407 376.3 168.8C376.3 168.192 375.942 167.7 375.5 167.7C375.058 167.7 374.7 168.192 374.7 168.8C374.7 169.407 375.058 169.9 375.5 169.9Z" fill="#784421"/>
<path d="M375.5 169.5C375.776 169.5 376 169.187 376 168.8C376 168.413 375.776 168.1 375.5 168.1C375.224 168.1 375 168.413 375 168.8C375 169.187 375.224 169.5 375.5 169.5Z" fill="black"/>
<path d="M467.8 146.6V308.2C467.8 351.3 381.6 365.4 381.6 365.4C381.6 365.4 295.3 351.4 295.3 308.2V146.6H467.9H467.8Z" stroke="black" stroke-width="1.2"/>
</g>
<defs>
<clipPath id="clip0_103_1841">
<rect width="512" height="512" fill="white" transform="translate(0.5)"/>
</clipPath>
</defs>
</svg>
