<svg width="513" height="512" viewBox="0 0 513 512" fill="none" xmlns="http://www.w3.org/2000/svg">
<g clip-path="url(#clip0_103_1937)">
<path d="M0.5 0H512.5V512H0.5V0Z" fill="#F7E017"/>
<path d="M0.5 35.6V263L512.5 369.7V248.7L0.5 35.6Z" fill="white"/>
<path d="M0.5 156.4V263.1L512.5 476.4V369.8L0.5 156.4Z" fill="black"/>
<path d="M239.219 405.119C226.738 403.741 214.729 399.56 204.09 392.888C202.384 391.75 200.819 390.755 200.535 390.755C200.25 390.755 200.108 392.106 200.108 393.67C200.108 398.222 198.259 400.497 193.708 401.706C189.299 402.844 182.615 400.568 177.21 396.017C172.086 391.632 166.104 388.363 159.646 386.417C152.919 384.816 145.838 385.726 139.735 388.977C139.132 389.402 138.457 389.715 137.744 389.902C136.962 389.902 137.033 384.995 137.886 383.502C138.953 381.368 141.513 379.377 144.57 378.311C146.135 377.742 147.415 377.031 147.415 376.675C147.415 376.391 146.846 375.253 146.206 374.115C144.144 370.488 144.997 367.004 148.624 364.231C152.322 361.386 158.579 360.959 164.055 363.022C164.98 363.416 165.93 363.749 166.899 364.017C167.61 364.017 167.184 362.951 165.193 360.035C162.917 356.693 162.419 355.057 162.704 351.004C162.899 348.523 163.973 346.193 165.733 344.433C167.493 342.674 169.823 341.599 172.304 341.404C176.428 341.119 178.988 342.542 185.104 348.302C201.529 364.834 223.102 375.269 246.259 377.884C252.161 378.595 263.895 378.239 270.792 377.173C292.644 373.527 312.904 363.422 328.961 348.159C333.512 343.893 335.646 342.755 339.415 342.755C342.615 342.755 344.89 343.751 347.237 346.311C349.37 348.657 350.081 350.862 349.797 354.488C349.655 356.764 349.299 357.831 347.948 360.106C345.957 363.306 346.312 363.662 350.223 362.097C355.628 359.964 362.241 360.959 365.797 364.373C368.926 367.359 369.21 370.346 366.792 374.328C365.868 375.822 365.157 377.173 365.157 377.457C365.157 377.884 365.868 378.026 369.068 378.595C373.335 379.306 375.823 382.435 375.823 387.27C375.823 388.693 375.61 389.902 375.397 389.902C375.183 389.902 373.548 389.262 371.841 388.551C366.863 386.488 364.019 385.991 358.188 386.062C353.779 386.062 352.286 386.275 349.228 387.27C344.109 389.051 339.396 391.83 335.361 395.448C330.81 399.502 327.966 400.782 323.557 400.71C319.432 400.71 316.659 399.502 315.166 397.155C314.384 395.875 314.241 395.164 314.455 392.319C314.597 390.471 314.526 388.977 314.455 388.977C314.241 388.977 312.677 389.973 310.899 391.182C306.84 394.092 302.417 396.459 297.744 398.222C279.028 405.001 258.998 407.361 239.219 405.119Z" fill="#CF1126"/>
<path d="M246.757 373.475C233.002 372.211 219.675 368.023 207.669 361.192C195.663 354.361 185.254 345.045 177.139 333.866C159.788 310.257 154.384 279.04 159.646 250.524C162.49 237.511 168.179 224.497 177.779 215.253C169.865 231.677 167.687 250.28 171.593 268.088C177.993 303.502 207.859 333.44 243.628 338.631C257.85 342.684 272.428 338.346 285.939 334.008C315.806 323.484 338.561 295.182 341.263 263.537C343.61 246.471 341.05 228.622 333.299 213.049C337.708 215.395 343.255 224.569 346.526 230.684C357.903 252.729 358.401 279.111 351.717 302.648C342.615 332.586 319.717 358.826 289.495 368.355C275.707 372.663 261.244 374.398 246.828 373.475H246.757Z" fill="#CF1126"/>
<path d="M108.588 334.15C106.811 333.866 104.82 335.644 105.531 337.493C106.811 339.342 109.086 340.337 111.077 341.19C116.323 343.239 121.955 344.113 127.575 343.75C131.698 343.751 135.79 343.029 139.664 341.617C141.797 340.906 144.499 340.195 145.353 337.777C146.277 336.284 144.642 334.719 143.148 335.004C141.015 335.502 138.882 336.426 136.748 337.066C132.059 338.394 127.171 338.875 122.313 338.488C118.777 337.974 115.331 336.969 112.073 335.502C110.935 335.004 109.868 334.293 108.588 334.15Z" fill="#CF1126"/>
<path d="M110.579 326.755C108.802 326.471 107.237 328.604 107.948 330.311C109.37 332.302 111.717 333.368 113.922 334.293C117.767 335.801 121.882 336.503 126.01 336.355H127.077C130.588 336.37 134.068 335.693 137.317 334.364C139.237 333.582 141.655 332.799 142.508 330.666C143.148 329.457 142.65 327.751 141.086 327.608C139.806 327.608 138.597 328.462 137.317 328.817C132.685 330.73 127.663 331.51 122.668 331.093C119.539 330.737 116.624 329.599 113.779 328.248C112.713 327.751 111.788 326.968 110.579 326.826V326.755Z" fill="#CF1126"/>
<path d="M113.068 319.715C111.504 319.502 110.437 321.279 110.722 322.631C110.935 323.911 112.002 324.764 112.926 325.475C116.798 328.157 121.449 329.482 126.153 329.244H127.291C130.248 329.222 133.163 328.542 135.824 327.253C137.602 326.542 139.664 325.617 140.304 323.555C140.588 322.631 140.731 321.279 139.664 320.711C138.526 320.142 137.459 321.066 136.464 321.422C133.062 323.209 129.284 324.16 125.442 324.195C122.144 324.063 118.935 323.084 116.126 321.351C115.059 320.853 114.206 319.928 113.068 319.715Z" fill="#CF1126"/>
<path d="M86.8994 215.253C84.6239 217.6 86.4017 221.866 86.1883 224.853C87.4683 234.24 88.9617 243.697 92.4461 252.586C96.7128 261.12 105.815 265.742 111.291 273.351C113.282 276.977 112.571 281.386 112.997 285.439C113.282 296.319 113.211 307.271 112.997 318.151C117.975 320.711 123.308 323.128 128.997 322.204C132.339 321.422 138.597 320.924 139.308 317.582L138.597 261.048C136.677 255.288 130.775 252.302 126.437 248.604C122.812 245.025 119.438 241.199 116.339 237.155C114.491 233.955 107.166 232.888 109.797 238.293C111.362 243.057 115.273 246.542 116.268 251.52C116.482 254.293 119.824 259.342 116.979 260.906C115.227 257.815 112.573 255.334 109.371 253.795C106.242 251.448 101.051 250.453 99.9128 246.328C98.8882 240.462 96.1691 235.024 92.0905 230.684C93.1572 225.422 92.0905 218.808 87.5394 215.395L86.8994 215.253Z" fill="#CF1126"/>
<path d="M93.9395 216.32C91.8062 216.675 91.9484 219.306 92.8729 220.728C93.9269 223.789 94.1959 227.066 93.6551 230.257C97.5546 234.599 100.165 239.944 101.193 245.688C101.193 247.822 103.468 248.533 104.962 249.6C108.446 251.804 112.286 253.44 115.415 256.213C116.055 256.924 116.553 257.635 116.126 256.213C115.628 254.364 115.415 252.373 113.993 251.022C112.002 248.888 109.584 247.04 106.74 246.471C106.526 243.484 105.104 240.782 103.824 238.222C102.402 235.733 100.908 233.102 98.4906 231.537C98.4906 227.2 98.4907 222.648 96.6418 218.595C96.0729 217.6 95.2195 216.391 93.9395 216.32Z" fill="#CF1126"/>
<path d="M99.8416 218.026C98.4194 218.453 98.7039 220.302 99.1305 221.368C99.7516 224.456 99.9905 227.609 99.8416 230.755C102.615 232.888 104.251 236.017 105.815 239.004C106.811 240.995 107.664 243.128 108.019 245.333C110.224 246.044 112.144 247.466 113.851 248.888C113.139 246.897 111.717 245.333 110.651 243.413C109.584 241.493 108.517 239.431 108.019 237.226C105.886 235.022 104.748 231.822 105.175 228.693C105.317 225.351 104.251 221.866 101.975 219.306C101.406 218.737 100.695 218.097 99.8416 218.026Z" fill="#CF1126"/>
<path d="M106.597 219.022C105.744 219.164 105.317 219.875 104.891 220.515C104.677 221.155 105.46 221.795 105.602 222.506C106.531 224.854 106.873 227.392 106.597 229.902C106.526 231.68 107.166 233.457 108.02 234.88C108.179 234.332 108.504 233.847 108.949 233.491C109.395 233.134 109.939 232.924 110.508 232.888C110.864 232.888 111.504 233.031 111.22 232.391C110.935 228.977 110.437 225.564 109.228 222.435C108.878 221.203 108.188 220.094 107.237 219.235C107.095 219.093 106.811 218.951 106.526 219.022H106.597Z" fill="#CF1126"/>
<path d="M404.41 334.15C406.188 333.866 408.179 335.644 407.468 337.493C406.188 339.342 403.912 340.337 401.921 341.19C396.675 343.239 391.044 344.113 385.423 343.75C381.3 343.751 377.209 343.029 373.335 341.617C371.201 340.906 368.499 340.195 367.646 337.777C366.721 336.284 368.357 334.719 369.85 335.004C371.984 335.502 374.117 336.426 376.25 337.066C380.939 338.394 385.828 338.875 390.686 338.488C394.221 337.974 397.668 336.969 400.926 335.502C402.063 335.004 403.13 334.293 404.41 334.15Z" fill="#CF1126"/>
<path d="M402.419 326.755C404.197 326.471 405.761 328.604 405.05 330.311C403.628 332.302 401.281 333.368 399.077 334.293C395.231 335.801 391.116 336.503 386.988 336.355H385.921C382.411 336.37 378.931 335.693 375.681 334.364C373.761 333.582 371.344 332.799 370.49 330.666C369.85 329.457 370.348 327.751 371.913 327.608C373.193 327.608 374.401 328.462 375.681 328.817C380.314 330.73 385.336 331.51 390.33 331.093C393.459 330.737 396.375 329.599 399.219 328.248C400.286 327.751 401.21 326.968 402.419 326.826V326.755Z" fill="#CF1126"/>
<path d="M399.93 319.715C401.495 319.502 402.561 321.279 402.277 322.631C402.063 323.911 400.997 324.764 400.072 325.475C396.2 328.157 391.55 329.482 386.846 329.244H385.708C382.751 329.222 379.836 328.542 377.175 327.253C375.397 326.542 373.335 325.617 372.695 323.555C372.41 322.631 372.268 321.279 373.335 320.711C374.472 320.142 375.539 321.066 376.535 321.422C379.936 323.209 383.715 324.16 387.557 324.195C390.855 324.063 394.063 323.084 396.872 321.351C397.939 320.853 398.792 319.928 399.93 319.715Z" fill="#CF1126"/>
<path d="M426.099 215.253C428.375 217.6 426.597 221.866 426.81 224.853C425.53 234.24 424.037 243.697 420.552 252.586C416.286 261.12 407.184 265.742 401.708 273.351C399.717 276.977 400.428 281.386 400.001 285.439C399.717 296.319 399.788 307.271 400.001 318.151C395.024 320.711 389.69 323.128 384.001 322.204C380.659 321.422 374.401 320.924 373.69 317.582L374.401 261.048C376.321 255.288 382.224 252.302 386.561 248.604C390.187 245.025 393.561 241.199 396.659 237.155C398.508 233.955 405.832 232.888 403.201 238.293C401.637 243.057 397.726 246.542 396.73 251.52C396.517 254.293 393.175 259.342 396.019 260.906C397.771 257.815 400.426 255.334 403.628 253.795C406.757 251.448 411.948 250.453 413.086 246.328C414.11 240.462 416.829 235.024 420.908 230.684C419.841 225.422 420.908 218.808 425.459 215.395L426.099 215.253Z" fill="#CF1126"/>
<path d="M419.059 216.32C421.193 216.675 421.05 219.306 420.126 220.728C419.072 223.789 418.803 227.066 419.344 230.257C415.444 234.599 412.834 239.944 411.806 245.688C411.806 247.822 409.53 248.533 408.037 249.6C404.553 251.804 400.713 253.44 397.584 256.213C396.944 256.924 396.446 257.635 396.873 256.213C397.37 254.364 397.584 252.373 399.006 251.022C400.997 248.888 403.415 247.04 406.259 246.471C406.473 243.484 407.895 240.782 409.175 238.222C410.597 235.733 412.09 233.102 414.508 231.537C414.508 227.2 414.508 222.648 416.357 218.595C416.926 217.6 417.779 216.391 419.059 216.32Z" fill="#CF1126"/>
<path d="M413.157 218.026C414.579 218.453 414.295 220.302 413.868 221.368C413.247 224.456 413.008 227.609 413.157 230.755C410.384 232.888 408.748 236.017 407.184 239.004C406.188 240.995 405.335 243.128 404.979 245.333C402.775 246.044 400.855 247.466 399.148 248.888C399.859 246.897 401.281 245.333 402.348 243.413C403.415 241.493 404.481 239.431 404.979 237.226C407.112 235.022 408.25 231.822 407.824 228.693C407.681 225.351 408.748 221.866 411.024 219.306C411.592 218.737 412.304 218.097 413.157 218.026Z" fill="#CF1126"/>
<path d="M406.401 219.022C407.255 219.164 407.681 219.875 408.108 220.515C408.321 221.155 407.539 221.795 407.397 222.506C406.468 224.854 406.126 227.392 406.401 229.902C406.472 231.68 405.832 233.457 404.979 234.88C404.819 234.332 404.495 233.847 404.049 233.491C403.604 233.134 403.059 232.924 402.49 232.888C402.135 232.888 401.495 233.031 401.779 232.391C402.063 228.977 402.561 225.564 403.77 222.435C404.12 221.203 404.81 220.094 405.761 219.235C405.903 219.093 406.188 218.951 406.472 219.022H406.401Z" fill="#CF1126"/>
<path d="M253.441 338.488C248.638 337.969 244.084 336.086 240.317 333.062C236.549 330.038 233.725 325.999 232.179 321.422C232.393 319.857 234.313 322.275 235.237 322.488C236.971 323.522 238.915 324.154 240.926 324.337C243.415 325.404 244.979 327.893 247.397 329.244C248.535 330.097 252.517 331.804 251.735 329.031C250.81 327.608 250.17 325.759 251.024 324.053C252.304 321.137 254.366 318.577 256.499 316.088C257.993 315.591 259.059 318.648 260.126 319.644C261.619 321.991 263.468 324.835 262.544 327.679C261.69 328.746 261.121 331.946 263.468 330.951C266.312 329.671 268.659 327.537 271.006 325.546C273.139 324.124 275.77 324.053 277.904 322.702C278.97 322.488 281.032 320.497 281.459 321.564C280.185 324.743 278.409 327.696 276.197 330.311C272.777 334.37 268.05 337.111 262.828 338.062C259.699 338.63 256.57 338.773 253.441 338.488Z" fill="#CF1126"/>
<path d="M264.677 327.253C264.89 325.333 264.464 323.413 263.468 321.564C261.975 318.577 259.913 315.875 257.779 313.102C255.788 311.964 254.721 315.733 253.441 316.799C251.379 319.857 248.819 322.986 248.677 326.755C247.539 328.533 245.406 325.333 244.481 324.266C242.586 321.83 241.583 318.819 241.637 315.733C241.465 310.725 242.337 305.736 244.197 301.084C245.619 297.102 247.824 293.262 247.61 288.995C247.753 285.653 247.113 282.097 244.481 279.893C241.921 277.902 246.117 277.475 247.397 278.471C249.673 278.684 250.881 282.382 252.944 281.457C253.726 279.537 253.939 277.191 255.646 275.697C257.281 273.422 258.988 276.622 259.557 278.186C260.766 279.466 259.557 282.808 261.406 282.879C263.681 281.244 265.317 278.613 268.233 277.973C269.441 277.262 271.432 277.973 269.868 279.253C267.735 281.315 265.886 283.804 265.459 286.862C264.819 290.631 265.744 294.471 267.379 297.813C270.579 304.497 273.068 312.035 271.432 319.502C270.721 322.773 268.446 325.617 265.744 327.537C265.388 327.751 264.819 327.751 264.677 327.253Z" fill="#CF1126"/>
<path d="M261.264 277.048C260.306 275.124 258.949 273.427 257.281 272.071C255.575 272.071 254.508 274.204 253.37 275.342C252.588 276.835 251.593 279.324 249.601 277.404C246.401 275.555 245.904 271.502 245.904 268.16C245.69 262.755 247.895 257.706 249.815 252.8C251.024 249.742 250.739 246.257 249.957 243.128C249.033 239.573 246.117 237.013 243.913 234.168C244.055 233.102 246.899 233.671 247.966 233.884C250.384 234.524 251.806 236.586 253.584 238.151C254.864 237.724 254.295 235.164 254.935 233.955C254.935 232.248 257.21 230.044 258.135 232.462C259.557 234.026 258.135 237.084 259.913 238.008C261.619 237.368 262.473 235.52 264.037 234.666C264.854 234.138 265.793 233.827 266.764 233.765C267.735 233.703 268.706 233.891 269.584 234.311C270.224 235.875 267.735 237.155 267.024 238.577C265.602 240.35 264.617 242.432 264.148 244.655C263.678 246.879 263.738 249.181 264.321 251.377C265.317 254.933 267.024 258.133 267.664 261.688C268.432 265.743 268.31 269.916 267.308 273.92C266.668 276.337 264.606 277.902 262.473 278.897C261.904 278.399 261.619 277.688 261.264 277.048Z" fill="#CF1126"/>
<path d="M250.526 232.462C248.108 230.684 247.326 229.048 247.326 225.706C247.326 224.071 247.682 223.146 248.748 221.582C250.455 219.306 250.17 218.595 247.824 219.235C244.055 220.302 242.277 219.377 242.135 216.177C242.135 214.613 242.419 213.973 244.482 211.413C246.188 209.422 246.828 208.355 246.473 208C246.117 207.715 244.126 209.422 240.073 213.546C237.531 216.226 234.823 218.744 231.966 221.084C224.997 225.777 218.313 226.488 215.255 222.862C213.69 221.013 213.762 220.017 215.539 218.88C216.672 218.115 217.72 217.233 218.668 216.248C222.153 213.066 225.995 210.298 230.117 208C232.677 206.72 233.246 205.866 231.61 205.866C229.477 205.866 222.722 210.275 217.53 214.968C216.037 216.391 213.833 217.955 212.695 218.524C209.531 219.678 206.107 219.924 202.811 219.235C201.246 218.737 198.331 216.035 198.331 215.04C198.331 214.826 199.042 214.257 199.753 213.76C200.912 213.105 202.007 212.343 203.024 211.484C207.148 207.928 214.97 204.16 221.157 202.809C223.148 202.453 222.366 201.386 220.162 201.529C213.634 202.775 207.523 205.635 202.384 209.849C196.482 214.755 187.593 214.257 184.748 208.924C184.251 208 183.895 207.146 184.037 207.004C189.074 205.733 193.943 203.871 198.544 201.457C202.506 199.122 206.872 197.554 211.415 196.835C213.406 196.48 213.548 195.484 211.628 195.271C209.068 194.986 205.228 196.266 198.473 199.537C189.726 203.875 187.237 204.657 182.686 204.373C178.419 204.089 176.073 203.022 172.731 199.822C170.455 197.689 167.326 192.355 167.895 191.715C171.587 192.491 175.361 192.802 179.131 192.64C185.033 192.64 186.668 192.497 189.797 191.573C195.91 189.636 201.672 186.731 206.864 182.969C214.183 176.777 223.446 173.354 233.033 173.297C241.85 173.297 247.397 175.289 252.375 180.337C254.082 182.044 255.504 183.111 255.717 182.897C255.93 182.684 256.144 179.697 256.215 176.284C256.215 176.284 258.846 176 259.415 176.782C259.415 182.257 259.415 182.755 260.268 182.755C260.766 182.755 261.335 182.186 261.69 181.333C262.402 179.555 265.246 177.066 268.233 175.502C274.633 172.302 285.797 172.16 294.757 175.289C299.041 176.914 303.047 179.193 306.633 182.044C311.864 185.724 317.617 188.6 323.699 190.577C328.535 192 337.21 192.355 341.548 191.289C342.817 190.995 344.098 190.758 345.388 190.577C347.024 190.577 344.25 195.982 340.979 199.182C335.006 205.013 327.255 204.942 316.375 199.111C309.548 195.413 301.441 193.422 301.441 195.413C301.441 195.84 301.868 196.124 302.508 196.124C304.855 196.124 309.406 197.689 315.806 200.746C319.827 203.065 324.237 204.631 328.819 205.368C330.455 205.368 330.526 206.435 328.961 208.711C327.326 211.128 324.553 212.266 320.641 212.266C316.873 212.266 314.739 211.484 311.397 208.711C305.708 204.017 291.77 198.755 292.268 201.6C292.41 202.097 293.05 202.453 294.544 202.666C300.549 203.971 306.172 206.648 310.97 210.488L315.166 213.546C315.948 213.973 315.948 214.115 315.308 215.324C314.313 217.315 311.61 218.808 308.766 219.093C305.068 219.52 301.797 218.382 298.455 215.537C291.344 209.635 284.73 205.368 282.597 205.368C280.819 205.368 281.602 206.364 284.73 208C288.778 210.143 292.551 212.77 295.966 215.822C297.388 217.173 299.024 218.453 299.521 218.737C300.873 219.448 300.801 220.444 299.379 222.293C297.957 224.142 295.539 224.995 292.481 224.64C286.366 224 281.53 221.084 273.993 213.262C272.2 211.26 270.25 209.405 268.162 207.715C267.166 207.715 267.806 209.066 269.726 211.271C272.144 213.902 272.57 215.395 271.646 217.671C270.864 219.52 269.513 220.017 266.81 219.235C263.966 218.524 263.539 219.235 265.388 221.44C268.09 224.924 267.735 229.048 264.322 231.964C263.616 232.644 262.798 233.197 261.904 233.6C261.619 233.6 260.908 232.888 260.268 231.893C258.135 228.622 256.215 228.622 254.082 231.893C253.632 232.62 253.157 233.331 252.659 234.026C251.94 233.516 251.228 232.995 250.526 232.462Z" fill="#CF1126"/>
<path d="M261.264 165.689L257.566 168.533L254.295 166.115V185.884H261.264V165.689Z" fill="#CF1126"/>
<path d="M238.65 145.28C238.004 153.275 235.831 161.071 232.25 168.249L240.144 160.924L245.619 167.466L251.593 160.782L257.637 166.471L263.468 160.569L269.513 167.68L274.775 161.849L283.735 168.249C280.464 161.138 276.126 155.022 276.624 144.924C268.019 151.324 247.468 152.462 238.65 145.209V145.28Z" fill="#CF1126"/>
<path d="M254.366 140.515C251.166 140.515 247.824 140.586 244.837 141.226C242.859 141.541 240.969 142.268 239.29 143.36C239.504 149.475 268.446 151.964 276.197 143.502C274.453 142.295 272.46 141.493 270.366 141.155C267.521 140.586 264.25 140.586 261.192 140.444V145.493H254.366V140.515Z" fill="#CF1126"/>
<path d="M259.984 109.511H255.504V144.64H260.055L259.984 109.511Z" fill="#CF1126"/>
<path d="M259.984 110.364L258.277 127.218L275.557 135.68L266.81 123.946L278.757 120.035L259.984 110.364ZM258.064 106.026C255.432 106.026 253.512 107.022 253.512 108.16C253.512 109.298 255.432 110.293 258.064 110.293C260.695 110.293 262.615 109.298 262.615 108.16C262.615 107.022 260.695 106.026 258.064 106.026Z" fill="#CF1126"/>
<path d="M250.1 401C253 400 254.6 398.3 255.7 395C256.178 393.742 256.513 392.433 256.7 391.1C256.4 390.1 255.1 390.1 253.8 391.3C252.8 392 252.8 392.4 253 394C253.7 398 252.3 399 244.7 399.8C244 399.8 241.8 399.8 239.9 399.5C236.3 399.1 235.1 399.5 236.4 400.5C237.07 400.958 237.814 401.297 238.6 401.5C240.6 402 248 401.7 250.1 400.9V401ZM265.8 400.3C266.2 399.9 267.6 399.3 269 398.8C270.8 398.2 271.8 397.6 272.5 396.4C274.7 393.1 274.3 390.3 271.1 386.4C269.3 384.4 268.5 384.4 267.1 386.8C265.9 388.8 265.9 388.8 267.7 389.3C268.7 389.5 269.5 390.3 270 391.1C271.9 394.4 271.3 396.4 268.5 396.4C265.9 396.4 265.2 396.8 264.5 398.4C264.214 399.073 264.013 399.778 263.9 400.5C263.9 401.2 264.9 401.1 265.8 400.3ZM260.6 396.5C261.1 395.2 261.3 392.9 261.2 388.1C261.2 384.4 261.1 381.3 260.9 381.1C260.5 380.8 258.4 382.1 258.1 383C258 383.5 258.2 384.5 258.6 385.3C259.3 386.6 259.4 387.8 259.2 392.8C258.9 399.1 259.3 400.1 260.6 396.5Z" fill="#F7E017"/>
<path d="M248.6 393.6C248.9 392.4 249.2 390 249.3 388.2C249.5 386.5 249.8 384.2 250.1 383.2C250.9 380.8 250.1 380.2 248.1 381.6L246.7 382.6L247 386.1C247.3 389.3 246.8 395.2 246 397.5C245.9 398.2 246.2 398 247 397.1C247.782 396.027 248.327 394.8 248.6 393.5V393.6ZM237.9 395.3C240.5 393.1 240.2 389.3 240.8 386.3C240.8 384.3 242.1 381.9 241.2 380.2C238.8 380.6 237.2 382.9 238.5 385.2C238.6 387.9 238.5 390.8 237.2 393.2C236.1 394.7 232.5 394.2 232.7 392.1C233.6 388.8 229.7 390.4 228.1 391.3C226.9 392.1 224.4 392.2 225.3 390.1C224.7 387.3 221.2 389.1 219.3 389.1C217.5 389.1 219.1 385.4 216.5 386.1C211.7 385.6 206.3 386.1 202.1 383.1C199.7 382 200.1 379.1 201.3 377.1C202.9 374.5 203.3 371.2 205.7 369.2C208.1 366.9 203.5 367.9 202.4 368.7C200.1 369.9 202.2 373.2 200.4 375C199.2 377 197.7 379.5 195.2 379.2C191.4 378.5 189.2 375 186.6 372.7C184.3 372.2 185.6 376.4 186.8 377.3C189.169 379.055 191.85 380.345 194.7 381.1C197.5 380.6 197.6 384.3 200 384.9C204.4 386.9 209.3 387.5 214 387.8C216 387.9 214.9 391.3 217.4 390.6C218.8 391 221.9 390.1 222 391.7C220 394.2 224 394.2 225.6 393.7C227.6 393.4 230 392.7 230.6 395.3C232.2 397.1 235.2 396.8 237.1 395.8L237.9 395.3Z" fill="#F7E017"/>
<path d="M195.5 373.7C196.2 372.7 197.4 370.7 198.1 369.2C198.645 367.885 199.35 366.642 200.2 365.5C201.5 364.1 200.8 363.3 198.7 363.8C197.7 364 197.2 364.4 197.1 365.3C196.5 368.3 195.4 371.4 194.4 372.8C192.6 375.4 192.6 375.5 193.4 375.5C193.7 375.5 194.6 374.7 195.4 373.7H195.5ZM168.7 357C166.7 357 166.7 358.3 168.6 359C169.5 359.3 170.3 360 170.9 361.4C172.9 365.1 173.9 365.8 178.9 366.2L182.2 366.5L182.3 368.5C182.4 369.5 182.7 370.5 182.9 370.5C183.2 370.5 184.4 369.9 185.7 369.3C188 368.1 190.3 365.3 190.3 363.6C190.3 362.5 188.3 361.2 186.7 361.2C185.452 361.385 184.277 361.903 183.3 362.7C179.7 365.3 175.9 364.7 173.8 361.4C172.1 358.6 170.3 357 168.7 357ZM186.1 364C187.1 364 187.3 364.7 186.8 366C186.4 367 185.2 367 184.8 366C184.5 365 185.1 364 186.1 364ZM321 359.6C319.7 359.6 319.3 359.9 318.5 361.2C317.1 363.2 317 367.5 318.3 369C319 370 319.1 370 320.8 369.3C323.1 368.3 323.5 368.4 323.4 369.6C323.4 372.8 318.9 378.8 314.2 382.1C313.239 382.632 312.39 383.345 311.7 384.2C311.3 385.2 313.1 384.9 315.2 383.8C318.2 382.3 322 378.4 323.6 375.3C324.8 372.8 325 372 325.2 367.7C325.2 363.7 325.2 362.6 324.5 361.2C323.8 359.7 323.5 359.6 321.6 359.6H321ZM321.2 362.4C322.2 362.4 322.3 362.6 322.4 364C322.5 365.2 322.4 365.9 321.7 366.5C320.7 367.3 320.7 367.3 319.9 366.1C318.9 364.4 319.5 362.4 321.2 362.4ZM299.6 392.7C303.175 391.21 306.089 388.475 307.8 385C308.327 383.939 308.762 382.835 309.1 381.7C309.1 381.1 307.1 380.2 305.8 380.2C304.5 380.2 304.4 379.3 304.8 377C305.4 374.7 304.8 371.9 303.8 371.9C303.4 371.9 302.8 372.4 302.4 373C301.7 374 301.7 374.5 302.2 376C302.9 378 302.3 379.7 300.4 381C299.4 381.7 298.9 382.5 298.9 383.2C298.9 383.8 299 384.3 299.1 384.3L301.4 383.2L303.4 382L304.7 383C305.3 383.5 305.9 384.4 305.9 384.9C305.9 387.4 298.7 391.7 293.7 392.1C291.1 392.3 290.7 392.1 289.7 391.3C289 390.5 288.7 389.9 288.9 389L289.5 386.3C290 384.1 289 384.4 287.4 387C286 389 285.6 391.4 286.4 392.6C287 393.6 291.1 394.5 294 394.3C295.8 394.2 297.7 393.7 299.6 392.7ZM327.3 377.2C329.9 374.6 331.1 371.4 331.1 366.5V362.8L333.2 361.8C336 360.5 338.7 357.8 338.7 356.4C338.7 354.8 338 354.9 336.8 356.6C335.9 357.8 334.8 358.5 330.4 360.5C329.3 361 329.2 361.3 329 365.9C328.7 371.2 328 373.1 325 376.8C323.2 378.9 323.1 379.2 324.4 379.2C324.9 379.2 326.2 378.4 327.4 377.2H327.3ZM298.8 374.2C299.1 373.5 297.6 373 297 373.6C296.7 373.9 296.7 374.3 296.9 374.6C297.3 375.3 298.6 375.1 298.9 374.3L298.8 374.2ZM338.1 364.1C338.4 363.3 336.9 362.8 336.3 363.4C336 363.7 336 364.2 336.2 364.4C336.6 365.1 337.9 364.9 338.2 364.1H338.1ZM290.8 336.5C289.8 337 289.3 338.1 288.6 339C288.1 339.3 288.5 339.6 288.8 340C290.6 341.9 291.3 344.5 292.2 347C293 349.8 294.1 352.9 293.2 355.9C292.8 357 291.9 358.2 290.6 357.9C288.4 357.7 286.3 357.2 284.2 357.2C282.2 357.2 280.7 359 278.8 358.8C277.5 358.9 277.6 356.3 276.4 357C275.8 358.4 276.1 359.9 276 361.4C276.3 361.6 276.9 361.4 277.2 361.4H281.2C281.4 362.8 281.3 364.4 282.3 365.4C283.7 365.9 285.2 365.4 286.4 364.9C287.8 364.3 288 362.6 288.4 361.4C288.8 360 290.6 360.4 291.7 359.8C292.954 359.367 294.032 358.538 294.772 357.437C295.512 356.336 295.873 355.024 295.8 353.7C295.7 349.6 294.1 345.7 292.9 341.9C292.3 340.2 291.9 338.5 291.2 336.8C291.2 336.7 291 336.5 290.8 336.6V336.5ZM284.4 359.8C285.8 359.8 286.4 361.5 286.2 362.7C285.6 364.3 283.6 363.3 283.2 362.1C282.5 361.1 283 359.7 284.4 359.8Z" fill="#F7E017"/>
<path d="M230.9 346.5C230.144 346.507 229.409 346.752 228.8 347.2C225 349.9 224 353 226.6 354.2C228.5 355.1 228 356.2 225 357.7C220.8 359.7 217 359.5 210 356.6C208.2 355.8 207.7 356.1 208.1 357.7C208.5 359.3 210 360.1 213.5 361C217.4 361.8 222 361.6 225 360.3C226.756 359.415 228.319 358.192 229.6 356.7L231.9 354.2L234.6 354.5C237.9 354.9 238 355 238 356.5C238 357.8 238 357.9 241.1 358.1L246.1 358.4C247.5 358.4 248.3 358.7 248.7 359.4C249.3 360.1 249.7 360.2 254.7 359.7C259.3 359.3 260.3 359.3 262.4 360.1C263.9 360.6 265.5 360.8 266.8 360.6C270.4 360.2 275.3 357.3 276 355.1C276.1 354.9 277.4 354.4 278.9 354.1C282.5 353.4 282.7 352.6 279.3 352.2C277.629 351.971 275.987 351.569 274.4 351C273.217 350.52 271.971 350.217 270.7 350.1C268.9 350.1 267.1 351.2 267.1 352.4C267.1 353.2 267.4 353.3 269.6 353.1C271.6 352.8 272.2 352.9 273.2 353.8C274 354.4 274.4 355 274.2 355.2C273.8 356 269.6 357.9 267.7 358.2C266.618 358.424 265.493 358.283 264.5 357.8C262.8 357 260.4 356.8 259.9 357.5C259.8 357.9 259.2 357.7 258.5 357L257.5 356L254.9 357C252.3 358 251.4 358 251.4 356.8C251.4 356.2 250.7 356.2 246.9 356.4C242.7 356.7 242.3 356.6 241.5 355.8C240.8 355 240.8 354.7 241.3 353.8C241.8 353.1 241.8 352.8 241.3 352.3C240.9 351.9 240.3 351.9 238.7 352.3C234.6 353.4 233.4 352.8 233.4 349.6C233.4 347.6 232.3 346.5 230.9 346.5ZM229.9 349.5C230.1 349.5 230.2 349.5 230.5 349.9C230.9 350.2 231.1 350.9 230.9 351.3C230.6 352.3 228.8 352.2 228.4 351.2C228.3 350.7 228.4 350.2 229 349.8L229.8 349.4L229.9 349.5Z" fill="#F7E017"/>
<path d="M222.5 352.4C224.9 350.8 224.9 351 225.2 346.5C225.5 343.5 225.5 343.2 224.6 343.2C223.4 343.2 222.7 344.5 222.7 347.1C222.7 348.7 222.5 349.5 221.7 350.4C219.5 352.4 214.3 351.5 213.7 348.9C213.5 348 213.7 347.2 214.8 345.7C217.1 342.5 216.6 341.7 213.8 344.1C211.8 345.8 211.5 345.8 211.9 344.4C212.2 343.1 211.5 342.5 209.9 342.9C209.2 343.1 208.8 343.6 208.6 344.6C208.4 345.6 207.9 346.1 207.2 346.2C205.9 346.6 203.8 345.4 203.8 344.3C203.8 343.6 207 339.7 211.1 335.3C212.191 334.316 213.164 333.208 214 332C214 331.8 213.1 331.6 212.1 331.6C210.6 331.6 210.3 331.8 210.3 332.5C210.3 332.9 208.2 335.7 205.6 338.5C200.3 344.5 199.9 345.8 202.6 347.3C203.649 347.93 204.856 348.245 206.079 348.21C207.302 348.175 208.489 347.789 209.5 347.1L211.2 345.9V348.1C211.2 350.8 211.7 351.7 213.9 352.9C215.236 353.571 216.725 353.879 218.217 353.791C219.71 353.703 221.152 353.223 222.4 352.4H222.5ZM333.8 315.5C331.8 316.7 333.3 319.2 333.6 320.8C332.8 323 330 323.6 327.9 324.1C324.9 324.5 322.8 327.1 321.7 329.7C321.1 331.4 319.6 334 318 331.4C316.6 330 314 328.9 312.4 330.5C311.1 331.7 310.8 333.5 310.3 335.1C309.6 333.9 309.3 332.1 307.7 331.7C305.2 332 306.1 335.2 307.2 336.5C308.3 338 309.3 340 308.2 341.8C307.4 344 304.2 345.4 302.2 343.6C300.5 342.6 301.7 339.3 300 339.1C299.1 339.8 299 343.2 297.7 341.3C296.7 339.7 297.2 337.5 296 336.1C294.6 336.3 293.4 338.7 293.9 340.1C295.629 342.767 296.787 345.763 297.3 348.9C297.8 350.2 297.3 352.6 298.4 353.1C299.2 351.1 298.4 348.9 299.1 346.9C300.9 346.7 303.1 347.5 305 347.1C307.8 346.7 310 344.4 310.9 341.9C311.2 339.9 310.9 338.1 310.8 336.2C313 336.5 315.3 336.5 317.4 337.2C318.4 338.8 317.1 341.1 316.8 342.8C315.7 346.4 312.8 349 310.1 351.4C309 352.1 308.8 353.9 310.5 353C314.2 351.4 316.9 348 318.5 344.4C319.7 341.7 318.7 338.6 319.5 335.8C320.6 333.6 323.3 334.1 325.3 334.1C327.3 334 329.1 331.6 328.3 329.6C327.7 327.3 330.2 326.2 331.8 325.4C334 324.3 335.8 322 335.6 319.4C335.5 318.1 335.6 315.6 333.8 315.5ZM325.9 328.8C328.3 329.5 325.5 334 324.2 331.1C323.9 330.1 324.8 328.8 325.9 328.8ZM314.9 332.1C318 331.9 316.9 336.4 314.3 334.4C312.9 333.7 313.3 332 314.9 332.1ZM203.2 349.5C203.3 349 203.1 348.7 202.7 348.7C201.8 348.7 201.3 349.5 201.7 350.1C202.1 350.8 203.1 350.4 203.2 349.5ZM239.4 345.5C239.4 344.8 239.1 344.5 238.6 344.7C237.4 344.9 237.2 346.4 238.4 346.4C239.1 346.4 239.4 346.1 239.4 345.4V345.5ZM194.7 323.8C193.2 323.5 192.3 324.7 191.8 325.8C190.8 327.7 189.4 329.5 187.5 330.5C186.1 330.9 184.5 330.3 183.4 329.6C181.9 328.9 182.3 327.2 181.6 326C180.6 325.2 178.8 326.3 178.8 327.6C178.7 329.3 180.3 330.3 181.6 330.9C182.7 331.6 184.3 332 184.8 333.4C184.8 334.6 185.2 335.9 186.7 335.4C188.3 335.4 188.7 337.4 188 338.6C187.267 339.906 186.986 341.418 187.2 342.9C188 343.6 188.8 341.9 189.4 341.3L190.5 339.8C193.3 340 196.2 340.3 199 340.2C201 340.2 202.8 338.9 204 337.5C205.9 335.5 207.4 333.3 209.5 331.7C211 331.3 210.2 328.5 208.6 329.3C207.2 329.9 206.8 331.4 205.8 332.4C204.2 334.4 202.5 336.4 200.4 338C198.9 338.6 197.2 338.4 195.6 338C195 337.5 196.9 337 197.2 336.4C198.1 335.4 199.2 334.6 199.6 333.4C199.1 332.4 197.6 332.3 196.6 332.3C193.9 332.6 191.9 334.8 189.3 335C187.3 335 188.3 332.9 189.3 332.2C191 330.1 192.9 328.1 194.8 326C195.3 325.4 197.2 324.8 196 324C195.6 323.8 195.1 323.8 194.7 323.8ZM196 334.4C197.3 335.1 195.1 336.4 194.2 336.2C193 336.5 193 335.3 194 335.1C194.6 334.8 195.3 334.4 196 334.4ZM191.9 337.2C192.6 337.2 194.2 337.9 192.7 338.3C191.7 339.1 190.5 337.5 191.9 337.2Z" fill="#F7E017"/>
<path d="M223.9 339C223.9 338 222.1 338.1 221.9 339.2C221.8 339.8 221.9 340 222.9 339.9C223.4 339.8 223.9 339.4 223.9 339ZM303.6 332C303.8 331 302.4 330.4 301.7 331C301 331.8 301.7 333.1 302.7 333C303.1 332.8 303.5 332.4 303.6 332ZM179.6 322.2C180.8 321.2 180.8 321.1 180.3 318.7C179.5 315.4 179.6 315 180.8 314.7C182.4 314.3 186.5 316.5 187.4 318.2C188.1 319.6 188.1 319.6 186.9 320.7C185.6 321.9 185.6 323.3 186.9 323.3C187.9 323.3 190.9 320.5 190.9 319.5C190.9 318.2 187.6 314.9 185.1 313.7C183.53 312.993 181.821 312.652 180.1 312.7C176.8 312.7 176.4 313.4 177.2 317.2C178.2 321.6 176.9 322.2 173.2 318.9C171.93 317.749 170.945 316.319 170.32 314.723C169.695 313.127 169.449 311.407 169.6 309.7C169.6 305.3 171.3 303.1 175 302.7C177.6 302.3 177.5 301.7 175 301.3C171.1 300.7 168 303.3 166.7 307.7C165.4 312.7 168.5 318.8 173.9 321.9C176.8 323.6 177.9 323.6 179.6 322.2ZM328.1 316.7C328.4 316.4 328.6 315.7 328.6 315.2C328.6 314.7 329.2 313.5 329.8 312.7C330.306 312.103 330.711 311.428 331 310.7C331 309.8 329.5 309.9 328.4 310.7C327.2 311.7 326.4 311.7 326.4 310.8C326.4 310.6 326.9 310.1 327.6 309.8C329.3 309 329.4 308.2 328 307.5C326.1 306.7 324.3 308.2 324.1 310.7C324 312.4 324.1 312.7 325.4 313.4C326.6 314.1 326.8 314.5 326.6 315.4C326.3 317.2 327 317.8 328.1 316.7ZM342.1 315.1C343.1 314.2 343.9 313.1 343.9 312.8C343.9 312.5 344.8 311.6 345.9 310.8C348.9 308.6 349.6 306.4 348.2 302.9C347.7 301.6 346 299.7 342.4 296.4C340.657 294.682 338.747 293.141 336.7 291.8C335.7 291.8 335.8 295.5 336.8 295.8C338.7 296.4 339.8 297.2 342.6 299.8C346 302.8 347.5 305.6 346.6 307.1C345.9 308.6 344.8 308.1 341.8 305.1C340.3 303.4 338.8 302.1 338.5 302.1C338.1 302.1 337.9 302.6 337.9 303.5C337.9 304.5 338.4 305.5 339.9 307.2C342.4 310 342.7 311.6 340.9 313.1C340.1 313.6 339.5 314.1 339.3 314.1C336.877 309.965 333.646 306.36 329.8 303.5C329.3 303.5 329.1 303.9 329.1 305C329.1 306.3 329.4 306.8 330.4 307.3C331.6 307.9 334.8 311.1 337.9 314.9C338.8 315.9 339.7 316.9 339.9 316.9C340 316.9 341 316.1 342 315.1H342.1ZM348.3 297.3C347.9 296 339.3 287.3 338.5 287.3C338 287.3 337.9 287.8 338 289.2C338 290.9 338.3 291.2 339.4 291.4C340.2 291.7 342.4 293.4 344.4 295.4C346.4 297.4 348.2 298.8 348.4 298.7L348.3 297.3ZM297.3 396C297.382 396.182 297.415 396.381 297.394 396.577C297.373 396.774 297.3 396.963 297.182 397.127C297.063 397.292 296.902 397.426 296.713 397.52C296.525 397.613 296.314 397.662 296.1 397.662C295.886 397.662 295.675 397.613 295.487 397.52C295.298 397.426 295.137 397.292 295.018 397.127C294.9 396.963 294.827 396.774 294.806 396.577C294.785 396.381 294.818 396.182 294.9 396C294.845 395.821 294.835 395.633 294.872 395.451C294.909 395.268 294.991 395.096 295.112 394.948C295.233 394.8 295.39 394.679 295.57 394.596C295.75 394.514 295.949 394.47 296.15 394.47C296.351 394.47 296.55 394.514 296.73 394.596C296.91 394.679 297.067 394.8 297.188 394.948C297.309 395.096 297.391 395.268 297.428 395.451C297.465 395.633 297.455 395.821 297.4 396H297.3ZM301.9 394.5C301.9 394.818 301.763 395.124 301.519 395.349C301.275 395.574 300.945 395.7 300.6 395.7C300.255 395.7 299.925 395.574 299.681 395.349C299.437 395.124 299.3 394.818 299.3 394.5C299.3 394.182 299.437 393.877 299.681 393.652C299.925 393.426 300.255 393.3 300.6 393.3C300.945 393.3 301.275 393.426 301.519 393.652C301.763 393.877 301.9 394.182 301.9 394.5Z" fill="#F7E017"/>
</g>
<defs>
<clipPath id="clip0_103_1937">
<rect width="512" height="512" fill="white" transform="translate(0.5)"/>
</clipPath>
</defs>
</svg>
