<svg width="513" height="512" viewBox="0 0 513 512" fill="none" xmlns="http://www.w3.org/2000/svg">
<g clip-path="url(#clip0_103_3285)">
<path fill-rule="evenodd" clip-rule="evenodd" d="M0.5 0H512.5V512H0.5V0Z" fill="#229E45"/>
<path fill-rule="evenodd" clip-rule="evenodd" d="M261.9 405.4L491.7 256.2L260.5 106.6L29.8 256.6L261.8 405.4H261.9Z" fill="#F8E509"/>
<path fill-rule="evenodd" clip-rule="evenodd" d="M362 256C362.404 269.02 360.187 281.989 355.48 294.136C350.773 306.283 343.673 317.359 334.601 326.708C325.529 336.056 314.67 343.486 302.67 348.555C290.67 353.624 277.773 356.229 264.747 356.216C251.72 356.202 238.829 353.57 226.839 348.477C214.85 343.383 204.006 335.931 194.954 326.564C185.901 317.197 178.823 306.106 174.141 293.949C169.459 281.793 167.269 268.82 167.7 255.8C168.535 230.574 179.149 206.662 197.298 189.122C215.447 171.582 239.707 161.79 264.947 161.816C290.186 161.842 314.426 171.684 332.539 189.262C350.652 206.839 361.217 230.773 362 256Z" fill="#2B49A3"/>
<path fill-rule="evenodd" clip-rule="evenodd" d="M232.8 314.2L229.8 312.4L226.7 314L227.4 310.5L225 308L228.4 307.6L230 304.4L231.5 307.7L234.9 308.3L232.3 310.7M298 330.7L295 328.9L291.8 330.5L292.5 327L290.1 324.5L293.6 324.1L295.2 320.9L296.6 324.2L300 324.8L297.5 327.2M269.9 304.3L267.3 302.8L264.6 304.1L265.2 301.1L263.2 298.9L266.1 298.6L267.5 295.9L268.7 298.7L271.7 299.2L269.5 301.2M335.7 294.8L333.1 293.3L330.5 294.6L331.1 291.7L329.1 289.6L332 289.2L333.3 286.6L334.6 289.3L337.5 289.8L335.3 291.8M268.7 275.1L265.7 273.3L262.6 274.9L263.3 271.4L260.9 268.9L264.3 268.5L265.9 265.4L267.4 268.6L270.8 269.2L268.2 271.6M188.5 245L185.5 243.2L182.5 244.8L183.1 241.3L180.7 238.8L184.2 238.4L185.8 235.2L187.2 238.5L190.6 239.1L188.1 241.5M198.2 285L195.2 283.3L192.1 284.8L192.8 281.4L190.4 278.8L193.8 278.4L195.4 275.4L196.9 278.5L200.3 279.2L197.7 281.5M298.3 230.2L295.7 228.7L292.9 230L293.5 227L291.5 224.7L294.5 224.4L295.9 221.6L297.2 224.5L300.2 225L297.9 227.1M292.9 256.3L290.5 255L288.4 256L288.8 253.6L287.2 251.9L289.6 251.6L290.7 249.4L291.7 251.7L294.1 252.1L292.3 253.7M183.9 292.2L181.9 291L179.8 292L180.2 289.7L178.6 288L181 287.8L182 285.8L183 287.8L185.3 288.3L183.6 289.9M336.2 301.4L334.5 300.6L332.8 301.3L333.2 299.6L331.9 298.3L333.8 298.1L334.7 296.6L335.4 298.2L337.3 298.5L335.9 299.7" fill="#FFFFEF"/>
<path fill-rule="evenodd" clip-rule="evenodd" d="M184 292.3L182 291.1L179.9 292.1L180.4 289.8L178.7 288.1L181 287.9L182.1 285.9L183.1 287.9L185.4 288.4L183.7 290" fill="#FFFFEF"/>
<path fill-rule="evenodd" clip-rule="evenodd" d="M184 292.3L182 291.1L179.9 292.1L180.4 289.8L178.7 288.1L181 287.9L182.1 285.9L183.1 287.9L185.4 288.4L183.7 290M215.9 292.3L213.9 291.1L211.9 292.1L212.3 289.8L210.7 288.1L213 287.9L214 285.8L215 287.9L217.3 288.4L215.6 290M211.9 303L209.9 301.8L207.9 302.8L208.3 300.5L206.7 298.8L209 298.5L210 296.5L211 298.5L213.3 299L211.6 300.6M278.3 283.6L276.3 282.4L274.2 283.4L274.6 281.1L273 279.4L275.3 279.2L276.4 277.1L277.4 279.2L279.6 279.6L277.9 281.2M258.8 283.6L256.8 282.4L254.7 283.4L255.2 281.1L253.6 279.4L255.9 279.2L256.9 277.1L257.9 279.2L260.2 279.6L258.5 281.2M206 276.8L204.8 276.1L203.5 276.7L203.7 275.2L202.7 274.2L204.2 274L204.9 272.7L205.4 274.1L206.9 274.3L205.9 275.3M333.7 310L331.7 308.9L329.6 309.9L330.1 307.6L328.5 305.9L330.8 305.6L331.8 303.6L332.8 305.6L335.1 306.1L333.4 307.7M317.4 312.1L315.8 311.1L314.1 312.1L314.5 310.1L313.1 308.7L315.1 308.5L315.9 306.8L316.7 308.5L318.7 308.9L317.2 310.2M325.2 312L323.6 311L322 311.9L322.3 310.1L321.1 308.8L322.9 308.6L323.7 307L324.4 308.6L326.2 308.9L324.9 310.2M347.1 292.8L345.6 291.9L344 292.7L344.4 291L343.2 289.7L344.9 289.5L345.7 288L346.4 289.6L348.1 289.9L346.8 291.1M317.5 322.9L315.5 321.8L313.5 322.8L314 320.6L312.4 319.1L314.6 318.8L315.7 316.9L316.7 318.9L318.8 319.3L317.2 320.7M317.6 331.6L315.8 330.6L314 331.5L314.4 329.3L313 327.8L315 327.5L316 325.6L316.8 327.6L318.8 328L317.3 329.4M302.8 312L301.3 311.1L299.7 311.9L300.1 310.1L298.9 308.9L300.6 308.7L301.4 307.1L302.1 308.7L303.8 309L302.5 310.2M289 312L287.5 311.1L285.9 311.9L286.3 310.1L285.1 308.9L286.8 308.7L287.6 307.1L288.3 308.7L290 309L288.8 310.2M265.5 291.4L264 290.5L262.4 291.3L262.8 289.6L261.6 288.3L263.3 288.1L264.1 286.6L264.8 288.2L266.5 288.5L265.2 289.6M268.1 333.1L266.8 332.4L265.5 333.1L265.8 331.6L264.8 330.6L266.2 330.3L266.9 329L267.5 330.4L269 330.6L267.9 331.6M232.7 265.6L229.7 263.9L226.6 265.4L227.3 262L224.9 259.4L228.3 259L229.9 255.9L231.4 259.1L234.8 259.7L232.2 262.1" fill="#FFFFEF"/>
<path fill-rule="evenodd" clip-rule="evenodd" d="M355.6 291C357.481 286.097 358.953 281.046 360 275.9C308.4 230.5 250.8 207.2 178 212C175.392 217.096 173.25 222.418 171.6 227.9C204.998 224.527 238.73 228.41 270.488 239.284C302.245 250.157 331.278 267.765 355.6 290.9V291Z" fill="white"/>
<path d="M332.4 265.4L334.2 266.4C333.92 266.957 333.849 267.595 334 268.2C334.1 268.6 334.5 269.1 335 269.4C335.6 269.8 336.1 270 336.6 270C337 270 337.4 269.7 337.6 269.4C337.7 269.2 337.8 269 337.7 268.7L337.4 267.9L336.2 266.6C335.562 265.952 335.083 265.164 334.8 264.3C334.625 263.649 334.691 262.958 334.985 262.352C335.278 261.745 335.781 261.266 336.4 261C336.934 260.764 337.526 260.694 338.1 260.8C338.822 260.957 339.503 261.264 340.1 261.7C340.967 262.309 341.657 263.137 342.1 264.1C342.221 264.543 342.239 265.007 342.152 265.458C342.066 265.909 341.877 266.334 341.6 266.7L339.8 265.6C340 265.1 340.1 264.6 340 264.2C339.9 263.9 339.5 263.5 339 263.2C338.5 262.8 338 262.7 337.6 262.7C337.484 262.704 337.371 262.732 337.267 262.784C337.163 262.836 337.072 262.91 337 263C336.931 263.101 336.886 263.217 336.868 263.338C336.851 263.46 336.862 263.584 336.9 263.7C336.9 264.1 337.4 264.7 338.1 265.4L339.6 267.4C339.873 267.898 339.999 268.463 339.963 269.029C339.928 269.595 339.733 270.14 339.4 270.6C339.051 271.096 338.564 271.478 338 271.7C337.405 271.972 336.738 272.042 336.1 271.9C335.341 271.707 334.628 271.367 334 270.9C333.055 270.333 332.346 269.446 332 268.4C331.7 267.5 331.8 266.5 332.4 265.4ZM323.6 259.7L325.6 260.7C325.365 261.199 325.295 261.759 325.4 262.3C325.5 262.8 325.9 263.3 326.4 263.6C327 264 327.5 264.1 328 264C328.4 264 328.8 263.8 329 263.4C329.095 263.215 329.13 263.006 329.1 262.8C329.1 262.5 329 262.3 328.7 262L327.5 260.7C326.842 260.088 326.329 259.336 326 258.5C325.867 258.103 325.826 257.681 325.878 257.266C325.929 256.851 326.074 256.452 326.3 256.1C326.597 255.66 327.013 255.313 327.5 255.1C328.035 254.87 328.626 254.8 329.2 254.9C329.8 254.9 330.4 255.2 331.2 255.7C332.2 256.4 333 257.1 333.2 258C333.35 258.428 333.4 258.884 333.348 259.334C333.297 259.785 333.143 260.217 332.9 260.6L331 259.5C331.3 259 331.3 258.5 331.2 258.2C331 257.8 330.7 257.5 330.2 257.2C329.771 256.869 329.242 256.692 328.7 256.7C328.576 256.715 328.457 256.759 328.352 256.829C328.248 256.898 328.162 256.991 328.1 257.1C328.047 257.209 328.019 257.329 328.019 257.45C328.019 257.571 328.047 257.691 328.1 257.8C328.1 258.1 328.6 258.7 329.3 259.5C330.1 260.2 330.6 260.9 330.9 261.3C331.208 261.8 331.363 262.378 331.345 262.965C331.327 263.552 331.138 264.12 330.8 264.6C330.46 265.118 329.976 265.527 329.408 265.775C328.84 266.024 328.212 266.102 327.6 266C326.815 265.847 326.067 265.541 325.4 265.1C324.442 264.569 323.699 263.72 323.3 262.7C323.015 261.698 323.123 260.626 323.6 259.7ZM312.8 256.7L318.4 247.7L325.1 251.7L324.1 253.3L319.3 250.3L318 252.3L322.6 255.1L321.6 256.7L317.1 253.9L315.6 256.4L320.6 259.4L319.7 261L312.8 256.8V256.7ZM297 243.8L297.9 242.2L301.9 244.4L300 248.1C298.379 248.46 296.683 248.248 295.2 247.5C294.305 247.036 293.547 246.347 293 245.5C292.471 244.737 292.192 243.828 292.2 242.9C292.2 241.9 292.5 241 293 240.1C293.461 239.176 294.149 238.385 295 237.8C295.7 237.2 296.7 236.9 297.7 236.9C298.4 236.9 299.3 237.2 300.2 237.6C301.186 238.063 301.993 238.836 302.5 239.8C302.9 240.6 303 241.5 302.8 242.5L300.7 241.9C300.813 241.392 300.742 240.861 300.5 240.4C300.234 239.91 299.812 239.523 299.3 239.3C298.945 239.08 298.547 238.94 298.133 238.888C297.719 238.836 297.298 238.874 296.9 239C296.2 239.3 295.5 240 294.9 241C294.413 241.919 294.237 242.972 294.4 244C294.6 244.8 295.1 245.4 296 245.8L297.3 246.2H298.6L299.2 245L297 243.8ZM228.2 226.8L229.8 216.2L233 216.7L233.8 224.2L236.8 217.2L239.9 217.7L238.4 228.3L236.4 228L237.6 219.7L234.3 227.7L232.3 227.4L231.4 218.7L230.2 227.1L228.2 226.8ZM217.5 225.5L218.5 214.9L226.3 215.6L226.2 217.4L220.4 216.9L220.2 219.2L225.5 219.7L225.4 221.5L220.1 221L219.8 224L225.7 224.5L225.5 226.3L217.5 225.5Z" fill="#309E3A"/>
<path d="M181.9 218.8C181.9 217.8 182.1 216.8 182.4 216.1L183.4 214.7L184.9 213.7C185.639 213.446 186.421 213.344 187.2 213.4C187.894 213.395 188.581 213.535 189.218 213.811C189.855 214.086 190.428 214.491 190.9 215C191.9 216 192.2 217.3 192.2 219C192.2 220.8 191.6 222.1 190.7 223C190.199 223.485 189.603 223.861 188.948 224.102C188.294 224.343 187.596 224.445 186.9 224.4C186.213 224.418 185.53 224.293 184.894 224.035C184.257 223.777 183.681 223.391 183.2 222.9C182.706 222.368 182.333 221.734 182.109 221.043C181.884 220.353 181.813 219.621 181.9 218.9V218.8Z" fill="#309E3A"/>
<path d="M184.1 218.8C184.1 220 184.3 221 184.9 221.6C185.4 222.3 186.1 222.6 186.9 222.6C187.309 222.608 187.715 222.532 188.093 222.377C188.471 222.222 188.814 221.992 189.1 221.7C189.6 221.1 189.9 220.2 190 219C190 217.7 189.8 216.8 189.2 216.2C188.957 215.9 188.653 215.656 188.308 215.483C187.963 215.311 187.585 215.214 187.2 215.2C186.2 215.2 185.5 215.5 185 216.1C184.4 216.7 184.1 217.6 184 218.8H184.1Z" fill="#F7FFFF"/>
<path d="M194.5 224.4L194.6 213.7H199.1C200.3 213.7 201.1 213.9 201.6 214.1C202.1 214.3 202.6 214.6 202.8 215.1C203 215.6 203.3 216.1 203.3 216.8C203.3 217.6 203 218.2 202.6 218.8C202.1 219.3 201.4 219.6 200.4 219.8C200.9 220 201.3 220.3 201.6 220.6L202.8 222.4L204.1 224.4H201.5L200 222.1C199.634 221.542 199.233 221.008 198.8 220.5C198.633 220.323 198.428 220.186 198.2 220.1C197.878 219.985 197.541 219.917 197.2 219.9H196.7V224.4H194.5Z" fill="#309E3A"/>
<path d="M196.7 218.2H198.3C198.964 218.283 199.636 218.283 200.3 218.2L200.8 217.7C201 217.5 201.1 217.2 201.1 216.9C201.1 216.5 201 216.2 200.8 216C200.589 215.776 200.306 215.634 200 215.6H196.8V218.2H196.7Z" fill="white"/>
<path d="M206.7 214.2L210.6 214.4C211.277 214.41 211.95 214.511 212.6 214.7C213.17 214.915 213.683 215.257 214.1 215.7C214.567 216.253 214.908 216.902 215.1 217.6C215.3 218.3 215.3 219.1 215.3 220.1C215.33 220.866 215.193 221.629 214.9 222.336C214.606 223.044 214.163 223.68 213.6 224.2C213.2 224.5 212.7 224.8 212.1 225H210.1L206.1 224.9L206.7 214.2Z" fill="#309E3A"/>
<path d="M208.7 216.1L208.4 223.1L210 223.3H211.3L212.2 222.8C212.5 222.6 212.6 222.3 212.8 221.8L213.1 219.8L213 218C212.8 217.5 212.7 217.2 212.4 217C212.134 216.705 211.785 216.496 211.4 216.4C210.84 216.283 210.271 216.216 209.7 216.2H208.7V216.1Z" fill="white"/>
<path d="M259 233.3L261.5 222.9L264.8 223.7C266.1 224 266.9 224.3 267.3 224.5C267.8 224.8 268.3 225.2 268.5 225.8C268.8 226.5 268.8 227.2 268.6 228C268.511 228.516 268.289 228.999 267.956 229.403C267.623 229.806 267.19 230.116 266.7 230.3C266.356 230.469 265.982 230.571 265.6 230.6C264.856 230.535 264.119 230.402 263.4 230.2L262 229.9L261 233.8L259 233.3Z" fill="#309E3A"/>
<path d="M263.1 225.2L262.4 228.2L263.6 228.4C264.4 228.6 265 228.7 265.3 228.6C265.577 228.572 265.839 228.461 266.052 228.283C266.266 228.105 266.422 227.867 266.5 227.6L266.4 226.5C266.228 226.177 265.943 225.928 265.6 225.8L264.1 225.4L263.1 225.2Z" fill="white"/>
<path d="M268.9 236.3L272.4 226.2L276.7 227.7C277.48 227.92 278.222 228.257 278.9 228.7C279.3 229.1 279.6 229.6 279.8 230.2C280 230.8 279.8 231.3 279.6 231.9C279.4 232.7 278.9 233.2 278.3 233.5C277.956 233.7 277.575 233.83 277.18 233.881C276.785 233.933 276.384 233.905 276 233.8L276.8 235L277.4 237L277.9 239.4L275.5 238.6L274.8 235.9C274.644 235.254 274.443 234.619 274.2 234C274.114 233.772 273.977 233.567 273.8 233.4C273.497 233.179 273.159 233.01 272.8 232.9L272.4 232.8L270.9 237L268.9 236.3Z" fill="#309E3A"/>
<path d="M272.9 231.2L274.4 231.7L276.3 232.2C276.6 232.2 276.8 232.2 277 232L277.5 231.3V230.3C277.373 230.038 277.162 229.827 276.9 229.7L275.4 229.2L273.8 228.6L272.9 231.2Z" fill="white"/>
<path d="M281.4 235.9C281.654 234.985 282.097 234.133 282.7 233.4C283 232.9 283.5 232.6 284 232.3C284.494 232.028 285.038 231.858 285.6 231.8C286.3 231.8 287.1 231.8 287.9 232.1C288.579 232.27 289.214 232.58 289.765 233.011C290.316 233.441 290.771 233.983 291.1 234.6C291.7 235.8 291.8 237.3 291.2 238.9C291.035 239.619 290.728 240.299 290.299 240.9C289.87 241.5 289.327 242.01 288.7 242.4C288.083 242.707 287.409 242.884 286.721 242.918C286.033 242.952 285.345 242.844 284.7 242.6C284.021 242.43 283.386 242.12 282.835 241.69C282.284 241.259 281.829 240.717 281.5 240.1C280.912 238.768 280.876 237.258 281.4 235.9Z" fill="#309E3A"/>
<path d="M283.5 236.5C283.2 237.6 283.2 238.5 283.5 239.3C283.9 240.1 284.5 240.6 285.3 240.9C286.1 241.1 286.8 241 287.5 240.6C288.2 240.2 288.8 239.4 289.2 238.2C289.5 237 289.5 236.1 289.2 235.3C289.032 234.931 288.783 234.604 288.471 234.345C288.16 234.085 287.793 233.899 287.4 233.8C287.018 233.676 286.614 233.639 286.216 233.691C285.818 233.742 285.437 233.882 285.1 234.1C284.4 234.5 283.9 235.3 283.5 236.5Z" fill="white"/>
<path d="M302.2 250.8L307.1 241.3L311.1 243.3C312.1 243.9 312.8 244.3 313.1 244.7C313.5 245.2 313.7 245.7 313.8 246.2C313.9 246.7 313.8 247.4 313.4 247.9C313.1 248.6 312.6 249.1 311.9 249.4C311.2 249.6 310.5 249.6 309.6 249.3C309.9 249.7 310.1 250.2 310.2 250.6L310.5 252.7L310.7 255.2L308.4 254L308.1 251.2L307.8 249.2C307.714 248.972 307.577 248.767 307.4 248.6C307.133 248.355 306.829 248.152 306.5 248L306.1 247.8L304.1 251.8L302.2 250.8Z" fill="#309E3A"/>
<path d="M306.9 246.3L308.3 247L310.1 247.8C310.4 247.8 310.6 247.8 310.8 247.6C311.069 247.46 311.29 247.242 311.433 246.974C311.576 246.706 311.634 246.402 311.6 246.1C311.492 245.801 311.279 245.552 311 245.4C310.577 245.118 310.143 244.851 309.7 244.6L308.2 243.9L306.9 246.3Z" fill="white"/>
<path d="M341.7 270.3C342.3 269.3 342.9 268.7 343.7 268.3C344.188 267.975 344.73 267.738 345.3 267.6C345.828 267.497 346.372 267.497 346.9 267.6C347.6 267.7 348.4 268 349.1 268.6C349.691 268.961 350.201 269.44 350.597 270.008C350.992 270.577 351.266 271.221 351.4 271.9C351.545 273.355 351.154 274.813 350.3 276C349.92 276.645 349.415 277.208 348.813 277.655C348.212 278.101 347.528 278.423 346.8 278.6C346.123 278.727 345.427 278.712 344.756 278.557C344.085 278.402 343.453 278.111 342.9 277.7C342.309 277.339 341.799 276.86 341.404 276.291C341.008 275.723 340.734 275.079 340.6 274.4C340.489 273.684 340.52 272.954 340.691 272.25C340.863 271.547 341.172 270.884 341.6 270.3H341.7Z" fill="#309E3A"/>
<path d="M343.5 271.4C342.9 272.4 342.6 273.4 342.7 274.2C342.768 274.605 342.919 274.991 343.143 275.335C343.366 275.679 343.658 275.973 344 276.2C344.317 276.42 344.677 276.569 345.057 276.638C345.436 276.707 345.826 276.694 346.2 276.6C347 276.4 347.8 275.8 348.5 274.7C349.2 273.7 349.5 272.8 349.3 272C349.3 271.2 348.8 270.6 348.1 270C347.4 269.4 346.6 269.4 345.8 269.6C345 269.8 344.3 270.4 343.6 271.4H343.5Z" fill="white"/>
<path d="M246.9 229L248.6 221.4L254.2 222.7L253.9 224L249.9 223L249.5 224.7L253.2 225.6L252.9 226.9L249.2 225.9L248.7 228L252.9 229L252.6 230.3L246.9 229Z" fill="#309E3A"/>
</g>
<defs>
<clipPath id="clip0_103_3285">
<rect width="512" height="512" fill="white" transform="translate(0.5)"/>
</clipPath>
</defs>
</svg>
