<svg width="513" height="512" viewBox="0 0 513 512" fill="none" xmlns="http://www.w3.org/2000/svg">
<g clip-path="url(#clip0_103_3320)">
<path d="M0.5 0H512.5V512H0.5V0Z" fill="#FFD520"/>
<path d="M0.5 512H512.5V0L0.5 512Z" fill="#FF4E12"/>
<path d="M282.4 162.5C278.4 161.1 276 163.1 276.1 168.2C276.2 173.2 278.9 176.1 282.8 174.2L282.4 162.5Z" fill="white" stroke="black" stroke-width="0.4"/>
<path d="M285.8 153.1C282.6 150.5 279.5 151.6 278 156.4C276.5 161.2 278.1 164.8 282.4 164.3L285.8 153.1Z" fill="white" stroke="black" stroke-width="0.4"/>
<path d="M291.2 144C288.4 141 285.2 141.5 283 146C280.8 150.5 281.7 154.3 286 154.5L291.2 144ZM287.7 188.2C282.9 190 282.4 196.5 285.4 200.5C288.4 204.5 293.9 205.3 297 200.5L287.6 188.2H287.7Z" fill="white" stroke="black" stroke-width="0.4"/>
<path d="M282.1 174.4C277.6 172.9 273.5 179 272.8 184.4C272 191.4 262.2 193.6 267.6 204.1C268.7 197.4 273.1 193.8 276.6 193.5C280.1 193.3 285.4 192.5 287.6 188.2L282.1 174.4ZM296.4 201.3C291.2 202.6 290.4 209.6 294.2 214.6C297.4 218.9 307.5 217.9 307.2 213.6L296.5 201.3H296.4ZM311.4 243.6C311.6 239.1 304.4 237.3 300.9 238.2C297.3 239.1 290.6 238.1 289 234.3C287.8 237.3 289.6 240.6 294.7 242.3C298.5 243.5 298.5 246.3 297.3 247.5C300.3 248 308.8 248 311.3 243.6H311.4Z" fill="white" stroke="black" stroke-width="0.4"/>
<path d="M307.3 214.7C302.1 212.5 299 215.9 297.1 219.3C294.1 224.2 285.3 217.9 282.3 224.4C286.3 222.7 290.5 226.4 292.4 227.7C298 231.3 308.6 230.2 310.1 221.7L307.2 214.7H307.3Z" fill="white" stroke="black" stroke-width="0.4"/>
<path d="M310.3 220.8C305.1 224.6 303.1 229.3 303.3 232.4C303.3 235.6 307.8 242.4 312.5 242.9C315.3 237.2 316.7 225.3 310.3 220.8ZM288.9 245C288.9 243.1 291.7 242.4 293.6 243C295.4 243.6 298.3 245.5 297.3 247.5L288.9 245ZM260.5 234.7C260 232.4 263.7 228.5 268.5 230.7C273.5 232.8 274.1 237 272.1 238.6L260.5 234.7Z" fill="white" stroke="black" stroke-width="0.4"/>
<path d="M272.5 238.8C272.1 237.6 275.6 235.1 281.6 236.6C287.6 238.1 289.1 242 288.9 245L272.5 238.8ZM259.9 234.7C263 232.3 261.9 227.7 259 226.4C253.9 223.9 255.8 217.4 252.5 216.1C249.2 214.9 246.1 212.6 246 210.3C244.3 213.5 245.3 216.3 247.6 218.3C249.9 220.3 245.8 228.5 248.7 230.7L259.9 234.7ZM192.6 232.9C190 228.8 183.6 229.6 181.1 232.4C178.4 235.4 178.8 239.6 181.3 241.4L192.6 232.9ZM207.6 226.8C206.6 221.3 200 220.6 196.4 222C192.7 223.4 190.2 229 192.6 233L207.6 226.8Z" fill="white" stroke="black" stroke-width="0.4"/>
<path d="M217.7 226C220.1 221.4 215.5 214.5 210.2 213.5C205.8 212.6 200.6 212.7 198.9 208.3C197.9 212.1 200.6 214.5 203.9 216.6C207.2 218.8 203.3 224.3 208.6 227.4L217.7 226Z" fill="white" stroke="black" stroke-width="0.4"/>
<path d="M217.2 226.2C216.2 222.9 218.4 218.4 222.9 218.7C227.4 219.1 229.9 222.3 227.9 226.4L217.2 226.2Z" fill="white" stroke="black" stroke-width="0.4"/>
<path d="M227.3 226.4C226.6 223 229.5 218.9 233.9 219.9C238.3 220.8 240.4 224.4 237.9 228.2L227.3 226.4Z" fill="white" stroke="black" stroke-width="0.4"/>
<path d="M237.2 228C236.8 224.6 239.8 220.6 244.2 221.8C248.6 222.9 250.5 226.6 247.7 230.3L237.2 228ZM161.5 285.6C153.1 285.6 151 287.6 149.8 296.2C148.3 307 163 308.2 161.5 285.6Z" fill="white" stroke="black" stroke-width="0.4"/>
<path d="M165.2 274.3C152.3 269.3 145.2 289.8 132.5 286.2C137.1 293.5 148.2 286.2 152.3 286.9C159.3 288.2 174.5 285.6 165.3 274.3H165.2ZM156.8 302.3C150.4 299.3 143.5 309.1 144.8 313.4C146.4 318.9 161 314.4 156.8 302.3ZM126.9 344.4C130.5 345.4 134.7 347.4 133.9 354.2C133.2 361 120.4 374.8 108.9 375.6C97.3 376.3 93.2 390.3 83.2 386.4C92.5 384.6 92.5 374.1 99.8 370.8C94.5 368.9 91.8 380.8 85 380.8C78.2 380.8 75 391.7 66.7 390.9C58.4 390.2 57.5 404 40.9 404.2C28.3 404.3 12.6 419.2 6.9 412.8C19.2 411 24.2 404.2 31.5 396.7C43.3 384.7 56.6 390 61.2 379.4C55.9109 382.935 49.6597 384.751 43.3 384.6C35.6 384.5 27.1 396.9 18.5 391.4C23.5 390.8 26.8 388.6 32 383.1C37.4 377.5 45.3 381.1 51.6 375.3C61.4 366.3 69.8 373.8 79.2 362.5C76.6 361.3 70.9 362.2 65.7 364.9C60.4 367.7 53.7 363 47.6 366.3C48.3 358.9 62.4 363.1 71.2 358C81.2 352.2 89.3 354 97.2 354.6C86.2 354.6 82 344.2 66.9 347.2C60.4 348.5 55.1 338.2 48.6 343.4C48.8 339.5 55.6 336.4 62.6 340.2C69.6 343.9 72.6 336.9 86.6 345.7C92.3 349.3 102.2 343.4 108.5 347.3C107.7 344.9 104.1 343.4 99.9 343.8C102.5 338.4 119.5 339.1 126.9 344.5V344.4Z" fill="white" stroke="black" stroke-width="0.4"/>
<path d="M138.1 336.3C132.6 332 124.9 337.2 119.7 335.1C119.7 338.7 121.4 343.9 127.2 345.9C131.032 342.895 134.704 339.691 138.2 336.3H138.1Z" fill="white" stroke="black" stroke-width="0.4"/>
<path d="M146.8 324.1C138.1 319.7 136.6 330.6 129.8 328.4C130.1 331.5 132.6 335.4 138.1 336.3L146.8 324.1Z" fill="white" stroke="black" stroke-width="0.4"/>
<path d="M151.9 314.2C139.1 309.2 137.5 321.5 129.9 319.1C131.7 323.3 142.5 325.6 148 324.1L152 314.1L151.9 314.2ZM169.5 260.3C166.1 255.5 159 259.4 157.8 265.1C156.7 270.7 159.5 278.6 164.2 276.9L169.5 260.3Z" fill="white" stroke="black" stroke-width="0.4"/>
<path d="M178.2 245.2C172.2 243.9 165.5 244.5 166.2 250.2C164 251.2 163.3 258.7 169.5 260.3L178.2 245.3V245.2Z" fill="white" stroke="black" stroke-width="0.4"/>
<path d="M182.1 241.3C176.3 234.6 169.8 234.7 166.2 237.6C159.6 242.9 153.2 239.8 152.9 245.1C156.9 242.1 160.5 245.7 163.7 244.6C167 243.5 169.4 249.8 178.4 247.1L182.1 241.3ZM168.1 342.7C169 344.3 174.4 345.1 177.1 342.3C180.5 338.6 176.7 328.5 171.1 327.7C165.6 327 165.1 339.2 168.1 342.7Z" fill="white" stroke="black" stroke-width="0.4"/>
<path d="M161.8 343C169.8 345.8 173.1 339.3 168.8 335.1C166.641 337.851 164.302 340.457 161.8 342.9V343Z" fill="white" stroke="black" stroke-width="0.4"/>
<path d="M132.2 353.7C130.7 358.3 122.9 359 114.2 373.1C105.3 387.1 96.9 381.2 94.8 390.9C105.3 382.4 113.6 388 119.9 379.6C129.5 366.8 137.3 368.6 141 360C146.3 347.7 169.4 348 170.6 328.6C162.9 327.1 138.2 348 132.2 353.7ZM330.5 164C340.5 167.3 340.8 180.3 352.3 184.6C363.9 188.8 365 199.1 374.4 196.6C365.6 194.2 366.2 184.1 357.1 181.6C346.3 178.6 342.3 162.2 333.7 159.7M376.5 232.2C378.3 236.2 378 243.3 371.8 245.2C375.2 247.4 380.2 245.3 382.9 240.7C378.8 249.9 381.6 258.2 388.1 259.7C385 253.4 392 250.4 389.7 246.2C393.9 248 397.5 253.6 397.4 257.2C402.8 251.2 393.4 243.1 395.1 237.4L376.5 232.2ZM311.5 296.7C305.3 291.3 302.7 298.1 299.7 295.7C296.9 293.6 293.1 293.3 291.7 295.5C296.9 295.6 294.4 299.7 304.6 300.7C294.4 301.4 296.2 312.8 289.4 312.3C296.7 319.2 300.4 306.1 306.4 308.3C304.6 308.8 309.1 312.9 306 318.4C311 318.3 313.1 311.3 313.8 307.6L311.5 296.7ZM176 355.3C173.7 353.5 167.2 352.6 164.7 354.1C162.2 355.6 163.1 356 166.1 356.2C169.1 356.5 173 361.3 166.5 361.6C163.5 361.7 164.5 369 158.2 369.6C160.7 372.6 168.1 370.6 170.7 367.1C170.2 370 174 372.5 172.5 375.9C177.1 376.4 174.5 366.5 181.8 367C178.8 367.4 180 374.2 185.3 372.4C182.2 373.9 183.8 377.6 187.3 376.7C185.1 377.4 184.3 380.3 187.4 382C190.4 377.8 187.1 363 176 355.3ZM449.5 216.7C454.115 216.7 458.541 214.867 461.804 211.604C465.067 208.341 466.9 203.915 466.9 199.3C466.9 194.685 465.067 190.26 461.804 186.996C458.541 183.733 454.115 181.9 449.5 181.9C444.885 181.9 440.459 183.733 437.196 186.996C433.933 190.26 432.1 194.685 432.1 199.3C432.1 203.915 433.933 208.341 437.196 211.604C440.459 214.867 444.885 216.7 449.5 216.7Z" fill="white"/>
<path d="M330.5 164C340.5 167.3 340.8 180.3 352.3 184.6C363.9 188.8 365 199.1 374.4 196.6C365.6 194.2 366.2 184.1 357.1 181.6C346.3 178.6 342.3 162.2 333.7 159.7M132.2 353.7C130.7 358.3 122.9 359 114.2 373.1C105.3 387.1 96.9 381.2 94.8 390.9C105.3 382.4 113.6 388 119.9 379.6C129.5 366.8 137.3 368.6 141 360C146.3 347.7 169.4 348 170.6 328.6C162.9 327.1 138.2 348 132.2 353.7ZM376.5 232.2C378.3 236.2 378 243.3 371.8 245.2C375.2 247.4 380.2 245.3 382.9 240.7C378.8 249.9 381.6 258.2 388.1 259.7C385 253.4 392 250.4 389.7 246.2C393.9 248 397.5 253.6 397.4 257.2C402.8 251.2 393.4 243.1 395.1 237.4L376.5 232.2ZM311.5 296.7C305.3 291.3 302.7 298.1 299.7 295.7C296.9 293.6 293.1 293.3 291.7 295.5C296.9 295.6 294.4 299.7 304.6 300.7C294.4 301.4 296.2 312.8 289.4 312.3C296.7 319.2 300.4 306.1 306.4 308.3C304.6 308.8 309.1 312.9 306 318.4C311 318.3 313.1 311.3 313.8 307.6L311.5 296.7ZM176 355.3C173.7 353.5 167.2 352.6 164.7 354.1C162.2 355.6 163.1 356 166.1 356.2C169.1 356.5 173 361.3 166.5 361.6C163.5 361.7 164.5 369 158.2 369.6C160.7 372.6 168.1 370.6 170.7 367.1C170.2 370 174 372.5 172.5 375.9C177.1 376.4 174.5 366.5 181.8 367C178.8 367.4 180 374.2 185.3 372.4C182.2 373.9 183.8 377.6 187.3 376.7C185.1 377.4 184.3 380.3 187.4 382C190.4 377.8 187.1 363 176 355.3ZM449.5 216.7C454.115 216.7 458.541 214.867 461.804 211.604C465.067 208.341 466.9 203.915 466.9 199.3C466.9 194.685 465.067 190.26 461.804 186.996C458.541 183.733 454.115 181.9 449.5 181.9C444.885 181.9 440.459 183.733 437.196 186.996C433.933 190.26 432.1 194.685 432.1 199.3C432.1 203.915 433.933 208.341 437.196 211.604C440.459 214.867 444.885 216.7 449.5 216.7Z" stroke="black" stroke-width="0.4"/>
<path d="M358.5 237.7C363.8 232.7 371.8 230.2 377.3 234C382.8 237.7 401.2 242.2 410.3 236C419.3 229.7 423.5 226.4 427.5 227.2C430.5 231.7 434.2 233.8 438.7 234.2C440.1 235.7 445 237 447.7 236.6C451.7 237.6 456.7 236.3 460.6 232.1C466.6 232.9 472.2 228.4 474.4 221.6C480.8 220.9 481.2 213.7 477.1 209C473.4 208.2 476.3 195.5 462.6 198C468.3 201.5 463.9 208.6 468.7 211.8C465.5 211.8 461.3 213.2 460.3 218.1C461.5 214.7 460.1 212.5 459.2 211.7C459.3 208.8 452.9 201.7 446.9 204.3C451.2 205.3 448.8 212.3 451.9 214.9C450.726 214.96 449.58 215.278 448.543 215.831C447.506 216.384 446.604 217.159 445.9 218.1C444.2 215.2 438.5 212.2 434.9 212C434.9 211 434.8 209 434.3 208C432.371 204.604 431.599 200.673 432.1 196.8C429.1 200 426.5 204.6 425.1 207.8C420.3 204.6 408.5 209.3 402.9 210.6C397.4 211.9 378.9 208.8 374.6 204.3C368.651 199.558 361.658 196.302 354.2 194.8C343.5 191.7 343.4 180 331.6 171.9C331.4 186.5 353.5 232.7 358.5 237.7ZM235.5 348.7C239.956 348.7 244.229 346.93 247.379 343.779C250.53 340.629 252.3 336.356 252.3 331.9C252.3 327.444 250.53 323.171 247.379 320.021C244.229 316.87 239.956 315.1 235.5 315.1C231.044 315.1 226.771 316.87 223.621 320.021C220.47 323.171 218.7 327.444 218.7 331.9C218.7 336.356 220.47 340.629 223.621 343.779C226.771 346.93 231.044 348.7 235.5 348.7Z" fill="white" stroke="black" stroke-width="0.4"/>
<path d="M195.2 335.8C198.6 340.2 204.4 339.9 206.8 339.5C208.8 344.8 215.2 344.7 218 347.5C220.7 350.5 230.2 350.2 233 348.5C230.4 348.3 227.1 346.8 224 344.2C220.2 341 222 334.7 219 332.4C221.2 329.9 221.6 325.7 221.1 324.1C223.5 322.7 225.3 320.5 225.5 319.3C228.97 319.085 232.257 317.671 234.8 315.3C236.9 317.3 242.3 314.7 245.2 318.1C245.9 309.8 237.9 305.4 232.7 308.1C230.5 307.1 224.9 307.8 223.9 309.3C222.1 308.5 217.2 311 214.9 312.7C217.5 311.3 217.9 307.2 216.9 305.7C218.9 304.7 221.4 301.9 221.6 299.7C224.6 300.2 229.1 298.2 231.2 298.7C227.9 294.5 222.5 293 217 293.3C211.2 293.7 208.8 297.7 208 302C204.7 304 203.5 310.8 204.8 313.2C202.8 313.2 201 315 200.3 316.1C197.412 314.891 194.329 314.213 191.2 314.1M192.4 307.3C191.2 304 192.7 301.1 193.4 298.5C195.4 291.9 194.2 290.2 188.4 291.1C188.735 296.699 190.09 302.189 192.4 307.3Z" fill="white"/>
<path d="M195.2 335.8C198.6 340.2 204.4 339.9 206.8 339.5C208.8 344.8 215.2 344.7 218 347.5C220.7 350.5 230.2 350.2 233 348.5C230.4 348.3 227.1 346.8 224 344.2C220.2 341 222 334.7 219 332.4C221.2 329.9 221.6 325.7 221.1 324.1C223.5 322.7 225.3 320.5 225.5 319.3C228.97 319.085 232.257 317.671 234.8 315.3C236.9 317.3 242.3 314.7 245.2 318.1C245.9 309.8 237.9 305.4 232.7 308.1C230.5 307.1 224.9 307.8 223.9 309.3C222.1 308.5 217.2 311 214.9 312.7C217.5 311.3 217.9 307.2 216.9 305.7C218.9 304.7 221.4 301.9 221.6 299.7C224.6 300.2 229.1 298.2 231.2 298.7C227.9 294.5 222.5 293 217 293.3C211.2 293.7 208.8 297.7 208 302C204.7 304 203.5 310.8 204.8 313.2C202.8 313.2 201 315 200.3 316.1C197.412 314.891 194.329 314.213 191.2 314.1M192.4 307.3C191.2 304 192.7 301.1 193.4 298.5C195.4 291.9 194.2 290.2 188.4 291.1C188.735 296.699 190.09 302.189 192.4 307.3Z" stroke="black" stroke-width="0.4"/>
<path d="M188 291.4C189.5 293 194.9 293.7 195.4 288.9C196.1 283.4 193.9 281.3 189.1 283.4C188.7 284.7 188.3 289.8 188.1 291.4H188Z" fill="white" stroke="black" stroke-width="0.4"/>
<path d="M189.2 283.2C191.2 284 195.5 285.7 197.9 281C199.9 277.1 197.3 274.1 193.1 274.4C192.1 275.5 190.1 279.5 189.1 283.2H189.2Z" fill="white" stroke="black" stroke-width="0.4"/>
<path d="M192.9 274C193.4 275.5 198.5 280.5 202.3 276.9C206 273.3 206 267.9 200.4 265.9C198.9 266.1 194.4 271.4 192.9 274Z" fill="white" stroke="black" stroke-width="0.4"/>
<path d="M200.4 265.8C201.5 269 205 274.4 211.6 271.8C218.1 269.4 215.3 261.2 212.3 259.6C210.6 259.6 203.4 262.9 200.3 265.8H200.4Z" fill="white" stroke="black" stroke-width="0.4"/>
<path d="M212.3 259.6C211.8 262.3 212.3 269.9 221.3 269.7C230.1 269.7 227.6 259.2 225.3 257.7C221.7 257.7 215.6 257.8 212.3 259.6Z" fill="white" stroke="black" stroke-width="0.4"/>
<path d="M225.8 258C224.8 260.2 222.5 274.2 239.9 270.4C242.2 269.9 248.1 256.9 225.7 258.1L225.8 258Z" fill="white" stroke="black" stroke-width="0.4"/>
<path d="M235.3 259.3C233.5 261.1 238.1 275.3 249.9 272.9C261.7 270.5 251.8 257 235.3 259.3Z" fill="white" stroke="black" stroke-width="0.4"/>
<path d="M245.3 261.4C243.5 265.4 246.3 276.9 260.8 276.9C274.1 276.9 260.2 261.7 245.4 261.4H245.3Z" fill="white" stroke="black" stroke-width="0.4"/>
<path d="M256.8 264.8C255.8 267 254.7 279.2 271.8 280.3C284.3 281 281.3 263.4 256.8 264.8Z" fill="white" stroke="black" stroke-width="0.4"/>
<path d="M275.2 270C273.1 273.8 270.8 283.2 289.7 284C301.7 284.4 294.3 270.2 275.2 270Z" fill="white" stroke="black" stroke-width="0.4"/>
<path d="M290.9 272.9C288.2 276.6 290.2 284 297.2 285.4C306 287.2 307.2 278.9 301.2 274.9C295.2 270.9 290.9 272.9 290.9 272.9Z" fill="white" stroke="black" stroke-width="0.4"/>
<path d="M299.5 274.6C297.5 278.1 298.7 286.6 312 286.6C314.8 286.6 325.3 275.9 299.5 274.6ZM196.4 438.4C201.585 438.4 206.558 436.34 210.224 432.674C213.89 429.008 215.95 424.035 215.95 418.85C215.95 413.665 213.89 408.692 210.224 405.026C206.558 401.36 201.585 399.3 196.4 399.3C191.228 399.3 186.268 401.355 182.611 405.012C178.954 408.668 176.9 413.628 176.9 418.8C176.9 423.972 178.954 428.932 182.611 432.589C186.268 436.246 191.228 438.3 196.4 438.3V438.4Z" fill="white" stroke="black" stroke-width="0.4"/>
<path d="M339.6 154.3C338.1 155.8 335 160.3 334.4 162.1C327.8 181.7 345.3 196.4 355.4 217.4C359.609 226.917 361.313 237.353 360.351 247.715C359.388 258.077 355.79 268.021 349.9 276.6C345.6 282.3 346.9 283.9 341.4 289.7C339.3 291.9 336.9 294.7 337.6 302.7C341.2 301.5 346.2 304.7 347.2 307.5C349.7 306.3 353.2 306.8 354.5 308.3C358.7 306.3 362.3 307.3 366 311.3C369.3 310.8 372.8 311.3 376 314.8C377.8 311.3 381.3 310 383.8 310.8C383.6 306.3 388.1 303 392.1 304.8C391.774 303.506 391.804 302.147 392.187 300.869C392.57 299.59 393.291 298.439 394.275 297.537C395.259 296.635 396.469 296.016 397.776 295.745C399.083 295.475 400.439 295.563 401.7 296C406.2 292.5 415.2 292.2 419.7 297.5C411.7 295.2 412 303.8 405.2 303C407 308 402.4 311 397.9 312.5C400.8 311.2 403.9 309.5 404.9 311.3C407.4 309.1 412.5 309.9 413.7 311C417.1 310 420.3 310.8 421.7 314.8C426.3 317.6 429.3 324.6 426 329.8C425 324.3 421.3 324.6 419.8 322.3C416.2 323.6 412.8 323.6 411.8 321.3C409.8 323.3 402.9 325.1 399.9 322.1C398.8 326.6 394.9 330.4 390.4 330.4C391.6 333.9 388.1 339.9 385.4 342.9C389.6 345.2 388.4 350.2 387.4 353.2C393.9 354.2 388.4 360 399.7 363.8C394.1 365.5 383.3 363.8 381.8 357C376.3 356.7 372.5 351.2 372.8 345.4C368.5 341.4 367.8 335.7 373.8 331.6C368.8 333.1 366 325.1 358.8 328.4C355.1 330 345.6 327.2 345.7 323.9C344.2 326.4 335 325.4 333.7 321.1C330.7 322.7 323.7 320 323.8 315.8C319.9 317.6 314.7 314.4 314.9 310.4C311.3 309.9 310.9 306.7 311.1 303.9C307.9 302.4 308.8 299.2 310.1 295.5C307.8 293 308.8 289.5 310.5 286.2C308 283.7 308.5 280.7 309.3 277.2C297.2 276.2 282.1 273.2 247.5 262.6C195.3 246.6 181.2 284.2 192.7 307.8C206.1 335 191.2 340.9 195.7 361.3C200.5 362.3 203 366.3 202.7 370.6C205.6 370.6 207.7 373.3 206.7 378.3C208.027 378.085 209.386 378.182 210.67 378.581C211.954 378.98 213.128 379.671 214.1 380.6C215.8 377.3 221.6 376.6 224.6 380.4C231.2 379.9 234.4 385.1 234.2 391.7C235.759 394.653 236.446 397.989 236.181 401.318C235.915 404.647 234.708 407.832 232.7 410.5C233 407.9 232.7 404.1 232.5 401.8C232.3 397.7 226.5 396.8 227.1 393.4C224.1 393.7 221.2 392 220.2 389.8C219.328 390.536 218.28 391.034 217.158 391.244C216.037 391.455 214.879 391.37 213.8 391C217.2 392.5 219.8 398.6 218.8 402.6C220.6 405.6 220.2 411.1 218.1 413.6C217.1 418.4 213.3 420.2 208.4 418C209.618 417.182 210.601 416.059 211.25 414.743C211.899 413.427 212.192 411.964 212.1 410.5C210.456 408.834 209.463 406.635 209.3 404.3C204.4 405.1 197.6 400.9 196.3 399.3C193.739 399.313 191.206 399.83 188.845 400.823C186.484 401.815 184.342 403.262 182.541 405.082C180.739 406.902 179.314 409.059 178.346 411.43C177.378 413.801 176.887 416.339 176.9 418.9C176.4 414.9 171.3 410.9 171.9 407.5C168.9 398.2 173.2 389.5 185.5 387.8C184 384.3 189.2 380.6 187.2 376.6C183.292 369.481 178.486 362.894 172.9 357C177.2 349.7 175.9 340 173.4 333.9C169.8 325.2 166.4 327.4 153.6 341.4C132.6 364.4 104.8 358 80.2 373.1C73.7 377.1 67.2 378.6 74.2 371.6C81.2 364.6 99.8 357.6 111.9 351.5C134.5 340.2 153.6 321.3 161.1 284.7C178.8 198.5 244 226.9 285.1 243C323.8 258 316.8 223.9 297.2 203.3C273.7 178.6 278.4 159.1 289.4 143.5C309.3 140.8 347.3 147.7 339.6 154.3Z" fill="white" stroke="black" stroke-width="0.4"/>
<path d="M409.5 366C412.323 366 415.119 365.444 417.728 364.363C420.336 363.283 422.706 361.699 424.703 359.703C426.699 357.706 428.283 355.336 429.363 352.728C430.444 350.119 431 347.323 431 344.5C431 341.677 430.444 338.881 429.363 336.272C428.283 333.664 426.699 331.294 424.703 329.297C422.706 327.301 420.336 325.717 417.728 324.637C415.119 323.556 412.323 323 409.5 323C403.798 323 398.329 325.265 394.297 329.297C390.265 333.329 388 338.798 388 344.5C388 350.202 390.265 355.671 394.297 359.703C398.329 363.735 403.798 366 409.5 366Z" fill="white" stroke="black" stroke-width="0.4"/>
<path d="M327.6 155.3C322.8 176.4 326.8 186 333.9 195.3C348.4 214.5 359.9 258.3 343.4 286.9" stroke="black" stroke-width="0.4"/>
<path d="M352.7 262.2C354.7 261.4 358.5 259.1 359.4 254.9M354.2 253C354.8 249.4 360.5 247.8 360.6 244M354.3 238.8C354 235.1 360 231.7 359.1 227.9M351.1 225.3C350.6 223.2 356.1 219.1 354.6 215.7M346.9 212.1C345.8 209.7 349.6 207 347.9 204.4M340.9 201.5C340.5 199.9 342.9 196.3 341.6 194.2M334.9 189.2C335.4 188.5 337.4 187 336.6 185.1M330.7 180.1C331.6 179.6 334 178.8 333.7 177" stroke="black" stroke-width="0.4" stroke-linecap="round"/>
<path d="M205 416.8C200 415 193.7 417.5 192.5 421.8M196.2 425.7C196.9 421.4 203.4 419.5 205.4 421.5C201.3 419.3 199.3 427.3 202.9 427.5M236.7 326.4C233.7 327.9 232.7 333.4 236.7 337.5M241.2 327.6C239.1 329.4 239.2 334.6 242.3 335.9C239.7 334 242.3 330.8 244.3 330.6C246.1 330.6 247.3 332.8 245.1 335M417.6 340C410.6 338.2 404.9 346.3 411.3 353.6C411.3 346.6 416.3 341.9 422.3 343.2M419.6 348C419.242 347.986 418.884 348.046 418.55 348.177C418.216 348.308 417.913 348.506 417.66 348.76C417.406 349.013 417.208 349.316 417.077 349.65C416.946 349.984 416.886 350.342 416.9 350.7C416.9 352.1 418.1 353.4 420 353.4C421.3 353.4 422.3 352 422.3 350.8M444.3 193.8C445.5 198.2 451.3 199.9 456 198.9M456 196.1C452.4 196.3 449.4 192.9 449.6 190C449.6 192.1 454.6 193.1 456 191.7" stroke="black" stroke-width="0.4" stroke-linecap="round" stroke-linejoin="round"/>
<path d="M206.8 339.5C205.8 337 209.8 334.5 209.9 332.1C210.1 329.7 214.5 327.9 218.9 332.4M216.9 305.6C215.9 306 215.2 306.6 214.5 306.8M225.5 319.3C224.5 319.3 222.2 319.3 221 318.4M221.1 324.1C220.2 324.5 218.3 325.3 217.1 325.5M178.1 399.9C177.9 402.2 180.1 405.5 181.4 406.5M187.8 394.5C186.6 396.5 185.8 399.7 186.6 401.9M206.6 402.1C204.3 400.6 205.8 396.7 205.6 394.1C205.3 391.6 208.2 387.6 213.8 391.1M185.4 387.8C187.7 387.4 190.1 387.5 191.6 388.1M214.1 380.6C213.303 381.757 212.821 383.101 212.7 384.5M224.7 380.3C222.9 380.3 221.4 381.6 220.6 382.9M200.3 316C202.3 316.7 207.5 319.9 207.7 323.2M221.6 299.6C215.4 299.6 213.1 293.2 217.7 293.2M232.7 308C230.3 309 231.4 313.2 234.7 315.2M218 347.5C216.8 346 218.3 341.5 222.2 342.9M227.2 393.3C227.4 389.5 232.2 387.3 234.2 391.5M209.3 404.2C209 400 211.1 398.6 213 398.4C214.9 398.1 217.6 399.7 218.8 402.4M171.8 407.4C172.1 404.9 174.3 402.2 176.5 402.6M401.7 296C400 297.2 399 302.5 405.2 303M392.2 304.8C392.2 305.4 392.9 306.3 393.4 306.6M421.7 314.8C420.1 313.5 415.9 318.6 419.7 322.3M381.8 357C380.8 353.4 384.2 352.5 387.3 353.2M373.8 331.6C375.7 330.4 377.6 329 379.9 328.4M372.8 345.4C372.8 342.4 374.3 339.9 375.7 339.2M383.8 310.8C383.746 313.965 384.578 317.082 386.2 319.8M413.7 311C411.9 311.6 410.3 312.3 409.6 313.8M411.7 321.3C412.6 320.6 413.6 319.7 414 319.1M459.2 211.7C459.2 215.2 454.8 217.1 451.9 214.9M468.7 211.9C470.7 213.3 477.4 211.9 475.8 208M460.5 232C458.674 231.482 457.039 230.438 455.8 229M474.4 221.6C472.727 222.03 470.955 221.853 469.4 221.1M438.7 234.2C440 234.2 443 233.7 445 232.6M435 212C433.69 211.757 432.337 212.006 431.2 212.7M460.2 218.1C459.737 220.064 458.692 221.842 457.2 223.2" stroke="black" stroke-width="0.4" stroke-linecap="round"/>
<path d="M430.7 223.7C433.8 222.3 437.7 233 445.2 229.2M445.9 218.2C444.9 219.5 444.2 221.6 444.1 223.5" stroke="black" stroke-width="0.4" stroke-linecap="round" stroke-linejoin="round"/>
<path d="M295.7 201.8C296.7 201.7 298.5 201.3 298.8 200M166.5 318.8C170.3 320.9 172.9 324.6 171.3 330M339.1 190.4C340.3 191.1 344.5 191.1 346.9 190.2M349.9 192.9C349.9 194.6 350.3 201.3 346.9 202.7M348.2 201.7C351.3 202.7 357.6 202.4 359.6 196.7M355.2 201.5C355.738 202.323 356.094 203.252 356.244 204.224C356.393 205.196 356.334 206.188 356.069 207.135C355.803 208.082 355.339 208.961 354.706 209.714C354.074 210.467 353.287 211.076 352.4 211.5M356.4 205.7C360.1 206.9 368.5 207 367.6 199.9M364.8 205.7C367.3 209.2 378.3 213.3 376.6 206M354.6 215.8C358.9 216.8 364.9 213.9 362.4 206.4M374.4 210.2C375.1 213.1 389.1 216.1 387.2 209.6M384.6 213.3C387.2 219.3 401.2 218.9 396.8 210.8M394.5 217C397.3 220.4 409.5 218.4 404.7 210.2M404.6 216.9C412.2 222.6 421.1 214.4 411.5 208.3M415.9 215C422.6 220.4 430.9 210.6 425 207.8M362.2 212.8C364.4 213.4 368.9 213.1 369.9 209.2M368.2 211.8C368 217.6 377.6 219.8 380 213.2M376.8 216.7C378.6 220.5 387 222 388.4 216.7M387 219.1C388.4 222.9 395.7 222.5 397.7 218.6M395 221.1C397.3 226.1 406.6 226.1 408.7 218.9M407.1 222C410.7 224.3 418.5 223.4 417.9 216.4M416.4 221.4C421.8 225.8 429.4 221.5 425.7 214.1M425.3 227.1C428.2 226.7 429.7 220.9 426.7 219.4M358.4 228.2C364.4 224.9 365.5 219.4 361.4 214M363.5 222.7C367.3 224.9 374.5 222.5 375.7 217M368.7 223.3C370.7 226 371.2 229.4 368.4 232.6M370.4 226.8C377.1 222.6 385.4 230.3 379.2 235M378.1 226.4C379.6 226 382.2 223.3 382.5 220.1M381.1 229.3C383.8 226.4 402.7 232.3 390.8 238.3M389.8 221.3C393.5 222.8 395.4 227.9 389.8 229.7M394.6 234C398.6 229.8 411.2 232.5 406.7 237.7M403.7 232.3C405.9 224.7 419.4 229.4 415 232.6M401 224.6C401.3 226.2 401.4 229.9 399 231.9M412.2 223.2C412.454 224.034 412.522 224.914 412.402 225.777C412.281 226.641 411.973 227.467 411.5 228.2M420.8 223.2C421.5 224.7 422.8 227.2 420 229.4M313.3 165.5C313.4 172.7 315.9 177.5 325.6 172.9M316.3 174.1C311.5 180.5 316.9 187.4 326.3 180.5M301.6 177.2C308.1 184.2 319.8 179.1 312.3 168.4M320.2 183.2C318.9 190.2 324.6 191.5 329.2 188.4M295.8 178.4C297 185.3 304.1 190.8 311 186.4M304.5 188C304.5 197.9 318.2 199 321.3 188.7M316.3 195C320.8 204 330.3 200.4 333.5 194.9M306.5 180.4C308.3 184.9 311.8 189.8 320 186.1M281.4 178.3C282.5 182 289.1 186.3 296.6 181.3M286.1 183C282.1 188.9 290.1 194.4 299.7 185.6M290.8 190.3C292.5 198.5 295.8 205.2 307.5 194.5M301.6 198.8C305.9 204.1 312.4 207.3 318.6 198.4" stroke="black" stroke-width="0.4"/>
<path d="M323.2 200.3C322.8 206.6 324.1 209.7 329 209.5C332.8 209.3 336.5 206.2 338.6 202.9M328.1 209.5C328 216.6 333.6 222.3 344.1 215M332.5 217.9C330.5 223.3 336.5 232.1 348.3 227.5M307.5 203.5C306.7 210.5 313.2 215.1 323.5 206.2M312.5 211.2C312.9 216.9 319.3 223.7 328.7 213.9M317 218.4C316.3 228 325.2 230.8 332.7 223.4M303.7 211.2C305.7 211.3 307.2 209.6 308.2 208.3M307.9 218.3C309.6 218.6 312.6 217 313.6 215M312.3 229.7C314.3 231.8 321.1 230.3 321.9 227.4M319.9 229.5C323.6 238.3 333.6 238 337.8 228M335.8 231.6C337.8 236.7 342.5 240 350.3 238.2M339.6 236.8C335.2 244 341 252.4 350.8 244.1M342 247.5C341.5 252 345.7 257.2 351.3 257.8M323.5 234.3C322 244.5 329.3 249.3 338.5 244M312.9 239.2C315.3 241.1 319.5 241.3 323.5 239.8M328.5 245.8C326.2 254.3 335 260.4 342.5 250.9M316.3 240.6C316.3 245 320.7 249.8 328.1 248.4M348.8 257.2C343.8 260.6 342.8 266.6 349.8 270.5M336.5 255.5C336.7 260.5 339.1 263.5 344.8 263.9M329.1 252.8C321.5 259.7 328.9 267.8 337.9 260.9M334.3 263.1C331.8 271 341.3 275.8 346.3 267.7M318.8 246.2C316 254 319.5 259.2 325.9 258.7M308.9 244.7C309.2 249.4 313.2 251 317.8 250M311.8 249.6C308.3 256.2 313.5 259.6 320.3 257.2M340.9 271.7C339.8 275.9 340.4 278.9 346.5 280.3M341.3 277.6C333.8 281 333.3 288.2 339 292.8M335.3 269.7C334.407 270.469 333.71 271.441 333.268 272.534C332.826 273.627 332.652 274.809 332.759 275.983C332.867 277.157 333.253 278.289 333.887 279.283C334.52 280.277 335.382 281.106 336.4 281.7M302.4 246.7C298.1 251 302.1 262.6 311.6 256.2M326.8 261.4C321 266.2 323.7 274.9 333.2 272.4M317.2 257.8C314.2 266.3 317.2 269.3 323.9 269.5" stroke="black" stroke-width="0.4"/>
<path d="M295.9 246.4C294.97 247.046 294.188 247.883 293.605 248.854C293.022 249.826 292.652 250.91 292.52 252.035C292.388 253.16 292.496 254.3 292.837 255.38C293.178 256.46 293.745 257.455 294.5 258.3C296.7 260.8 301 259.7 302.3 256.4M285.1 243C279.4 250.4 285.1 259.2 293.3 256.6M316 265C310.1 267 305.6 272.5 309.3 277.1C311.3 279.9 320.7 280.3 323.3 269.6M305.3 258.1C302 263 303.1 267.6 309.3 270M305 267.2C301.4 269.2 299 271.6 299.8 276M296.8 259.6C295.5 265.5 297.1 269.1 300.8 270.9M296.7 266.6C291.1 266.2 288.2 268.6 290.1 274.1M290.6 268C285 266 284.2 261.2 286.6 256.2M285.8 263.6C279.8 263.8 277.1 266.8 277.1 271" stroke="black" stroke-width="0.4"/>
<path d="M277.6 240.1C273.2 242 271.8 247.9 273.5 251.1C275.1 254.4 280.3 254.7 283.4 252.5M265.4 235.5C261.3 240 265.9 248.8 273.1 246.6M255.1 231.9C251.3 237.2 255.4 246 265.1 243.5M265.6 268C264.6 261.7 271.1 257.6 279.1 265.7M275.2 253C274.074 254.048 273.208 255.343 272.67 256.784C272.132 258.225 271.937 259.771 272.1 261.3M244.7 229C240.6 236 245.6 242.5 254.5 240M268 246.5C262 252.4 264 258.3 268.5 261.7M264.2 253.4C255.2 253.5 254.8 263.8 262.1 267.1M257.4 243.1C253.8 245.6 252.6 252.5 258.9 255.3M257.2 258.5C253.4 256.8 248.9 258.9 249.2 263.3M251.5 258.7C248.1 250.7 238.2 252 239.1 260.3M254.3 248.7C252.1 249.1 247.9 250.4 246.3 253.7M246.9 239.7C242.9 244.2 245.9 249.7 249.2 250.7M234.9 227C234.2 232.4 236.3 235 243.1 234.6M237.3 233.9C234.7 240.5 238.2 243.3 245 242.9M238.8 241.9C234.8 246.7 237.6 251.9 241.5 254M236.9 248C229.8 247.1 228.7 255.4 231 259.3" stroke="black" stroke-width="0.4"/>
<path d="M231.2 226.3C226.8 228.2 224.2 233.7 226.6 237.1C229 240.5 233.8 239.4 236.4 237.6M228.1 238.6C224.5 244.1 227.8 248.3 231.7 249.9" stroke="black" stroke-width="0.4"/>
<path d="M214.1 225.7C211.1 228.7 213 234.8 220 235C225.6 235 228.5 229.7 226.8 226M219 235C216.7 240 218.1 245.4 226.6 244.5M230.3 252.4C225 250 218 252.4 221 258.7M220.2 243.5C218.1 246.5 218.9 250.8 221.2 253.5M219.9 251.5C216.3 252.1 212.9 254 215.1 259.5M214.6 255C210.1 253.7 204.3 257 207.8 261.6M207 257.2C203.2 256.6 198.5 260.7 202.3 264.8M200.8 261.4C197.3 262.4 193.1 266.4 196.8 269.4M218.5 241.7C213.5 244 212.9 249.7 215.3 253.7M213.2 231.3C205.7 234.2 205.8 244.3 214.1 247.3M210.6 245.1C206 247.8 205.2 252.8 208.2 256.1M202.7 227.5C199.7 228.5 199.9 237.8 207.9 237.5M194.4 230.7C188.4 234.7 195.6 244.9 205.4 237.6M200 240.1C199.1 244.2 200.3 248.8 207 249.3M200.4 245.6C199.091 246.262 198.044 247.348 197.43 248.681C196.816 250.014 196.671 251.515 197.019 252.941C197.366 254.366 198.186 255.632 199.345 256.533C200.503 257.433 201.933 257.915 203.4 257.9M185.2 236.7C179.1 242.4 190.2 247.3 194.4 239.1M176.7 246.1C173.7 249.8 184.2 259.3 188.8 243.4M190 243.1C190.2 246.9 192.5 249.1 197.1 249.4M197.1 253C189.6 254.2 187.2 263.5 195.5 265.5M183.3 251.8C183.1 255.3 186.7 258.2 190.9 257.6M194.6 265.2C187.8 266.7 187 275.5 193 275M189.9 283.2C184.2 281.5 184.1 274.8 189.1 272.2" stroke="black" stroke-width="0.4"/>
<path d="M185.2 277.3C180.4 280.1 182.3 287.1 184.8 288.1C187.3 289.1 189.3 287.8 189.6 285.7M189.2 295.3C189.7 298.6 177.6 297.3 183.8 287.2M183.8 295.9C179.7 302.3 186.3 307.5 190.5 302.1M184.3 303.6C182.7 308.8 188.9 312.5 192.9 308.5M170.8 255.5C168.5 260.1 179.8 261.8 180.6 252.3M167.6 262.3C165.4 271.3 182.4 269.5 178 257.8M178.4 263.8C179.531 264.328 180.769 264.584 182.016 264.547C183.264 264.511 184.485 264.183 185.583 263.59C186.681 262.998 187.625 262.156 188.34 261.133C189.055 260.111 189.521 258.935 189.7 257.7M184.6 264.1C184.919 265.373 185.491 266.569 186.281 267.617C187.071 268.665 188.064 269.543 189.2 270.2M176.4 266.5C175.7 271.4 180.6 275.4 186.2 275M177.2 271.2C174.5 275 173.7 282.2 182.3 282.8M164.1 272.5C162.7 276.4 170.9 280.4 175.7 274M161.6 282.4C160.9 285.4 168.3 289.4 172.4 276.8M169.1 283.2C170.9 286.3 176.8 288.8 180.4 282.7M174.5 286.4C173 290.8 177.2 295 182.2 293.7M165.2 285.4C164.2 291.7 171.4 295.4 175.9 292.1M160.3 288.1C158.2 296.2 168.5 299.2 172.3 293.2M169.8 295.6C170.1 300.1 177.2 304 182.7 300.2M157.2 299.4C156.7 301.4 165.2 303.4 166.4 296.4M162.1 301.1C164.1 306.3 170.9 307.5 174.8 301.2M172.5 303.7C173.4 308.5 179.5 311.2 185 307.9M187.2 309.8C185.8 316.2 192.5 321.3 196.6 317.8M176.6 308.7C174.6 315.7 183.3 319.7 188.2 315.8M166 305.1C165.5 311.7 170.6 315.6 176.5 312.7M154.8 305.7C153.1 310 162.4 313.5 166.8 309.9M149 317.4C151.4 320.2 159.7 317.4 160.5 311.3M158.2 315.8C161.2 319.3 168.4 321.2 171.2 313.7M168.8 317.6C168.6 323 178.3 326.9 181.4 316.9M192.8 318.9C191.9 321.5 194 325.7 198.3 326.2M184.8 317.2C184.2 320.2 188.6 324.5 193.2 322.8M194.2 324C192.9 327.3 193.9 332 198.3 332M194.6 330.1C191.3 332.9 192.6 337.8 197.4 338M192.9 334.8C188.2 337.9 189.9 344.8 196 344.4M178.8 321.4C178.8 328.2 187.2 329.2 188.8 323M185.6 327C184.3 331 187.6 334.9 192.7 333.8M186.6 375.5C187.7 377.1 192.4 374.3 191.1 371.5C189.9 368.8 184.9 370.3 185.5 373.2M190 370.4C190.6 364.9 184 364 182.4 368.8M184.8 366C186.5 363.3 180.9 359.5 178.7 363.5M180.7 361.9C182.2 357.9 175.9 356.1 175.4 359.8M174 354.5C174.8 352.5 181.8 353.7 178.8 357.9M184.2 362.9C187 360.4 182.3 355.2 179.4 357.1M202.8 370.6C200.6 370.8 198.3 372.2 199.9 376.9C201.1 380.1 205.9 380.3 206.6 378.3" stroke="black" stroke-width="0.4"/>
<path d="M199.5 372.9C197.5 371.5 192.8 373.9 194.9 378.3M194.9 378.3C196.5 381.7 200.6 380.3 201.2 378.6M194.9 378.3C194 380.4 188.6 381.3 187.6 379.3M191.2 373.1C192.4 372.4 194.4 373.3 194.9 374.3M190.9 342.2C187.2 344.6 189.5 351.8 195.1 350M189.7 348C186.8 350.3 189.5 357.4 194.9 354.7M190.6 354.7C188.6 356.7 190.6 362.3 195.8 361.3M189.8 357.5C188.8 357 185.8 357.4 184.5 359.2M186.5 332.1C183.8 334.7 185.1 340.1 190.3 340.5M185.6 337.5C181.6 339.5 181.6 347.4 189.6 347.7M185.3 346.4C183.1 348.2 184.1 355 189.8 354.1M187.1 353.9C186.3 354.7 186.1 356.7 186.8 357.6M184.6 351.3C182.6 351.3 179.9 352.8 179.2 354.9M175.6 347.6C176.4 345.6 182.6 345.7 183 351.6M183.6 344.6C182.905 344.744 182.262 345.069 181.734 345.544C181.207 346.018 180.816 346.624 180.6 347.3M180.9 326.2C178.2 328.6 176.9 336.3 185.1 337.8M175.5 342.1C175.5 340.1 181.1 338.3 183 341.4M171.9 330.9C172.7 332.4 176.6 334.6 178.9 332.9M151.7 318.6C151.663 319.503 151.824 320.403 152.172 321.237C152.519 322.071 153.044 322.819 153.711 323.428C154.378 324.038 155.17 324.494 156.032 324.766C156.894 325.037 157.804 325.117 158.7 325C162.9 324.5 163.7 320.8 162.5 318.4M159.3 325.1C156.6 328.5 160 333.3 163.1 331.9M162.5 322.7C164.1 322.1 169.5 321.3 171.1 323.8M145.1 323.8C143.8 325.6 151.6 327.5 154.1 323.8M151.6 325.8C151.3 328.2 152.6 332.5 159 330.8" stroke="black" stroke-width="0.4"/>
<path d="M160 334.6C161 332.6 156.2 329 152.6 332.9C148.9 336.8 153.1 341.2 155.3 339.7M143.3 326.2C141.3 329.5 148.7 335.5 152.8 329.9" stroke="black" stroke-width="0.4"/>
<path d="M138.5 331.9C135.8 334.6 139.1 339.5 143 338C147 336.5 146.6 332.4 145.7 331.3" stroke="black" stroke-width="0.4"/>
<path d="M133.3 336.9C131.3 338.9 133.3 343.4 136.3 343.4C139.3 343.4 141 341.1 140.4 338.2M145.4 336.5C144.9 339.5 149.2 341.5 152 338.7M152.1 333.5C152.5 332.8 152.1 331.8 151.5 331.3M128.8 340.8C126.3 342.8 131.6 348.2 134.9 343.2M147.7 339.7C146.1 341.2 148.6 345.2 151.1 344M139.1 342.5C139.4 345.2 144.7 347.2 148.1 343.1M141.9 345.1C141.1 346.9 142.8 349.6 144.8 349.2M191.9 360.7C189.9 364.5 196.2 369 200.7 364.4M196.4 366.4C195.4 368.4 196.6 371.4 198.4 372.4M190.5 370.7C191 368.9 193.7 367.1 196.1 368M187.3 365.8C187.6 364.1 189.9 362.4 191.6 362.8M335.1 287.4C326.2 287.6 330 301.9 337.6 299M332.2 298C330.5 300.9 333.9 305.5 337.6 302.8M336.6 303.3C334 307.7 343.4 314.4 347.2 307.5M344.2 310.2C344.2 314.3 356.4 316.9 354.6 308.7M353.5 313.2C356.3 318.1 367.1 318.6 366 311.2M363.6 316.3C365.9 319.6 376.4 321.6 376.1 314.8M320.8 275C322.3 278.9 327.5 280.3 333.1 278M317.5 277.8C321.1 280 315.9 290.3 310.5 286.2M317.5 284.2C321.5 286 326.2 284.7 327.5 279.2M325.2 283.4C325.6 286.3 329.7 288.6 335.2 287.4M315.5 286.4C320.5 290.7 313.3 299.4 310 295.4M317.4 289.7C319.8 291.4 326 290.4 326.6 285.7M323.8 289.7C324.3 292.7 326.8 293.8 330.1 294M316.1 293.8C318.6 297.3 324.8 298.4 327.6 293.7M332.2 301.7C328.3 302.5 324.6 299.7 324.8 296.3C325.3 301.1 319.4 303.6 315.7 301.5M311.2 303.9C314.4 305.5 317.9 299.4 315.2 295.1M314.9 310.4C318.9 310.7 319.3 304.7 315.7 301.4M323.8 315.8C327.1 315 326.1 307.8 318.2 307.3M333.7 321.1C336.9 320.2 334.4 312.3 325.7 312.8M345.7 323.8C347.8 320.6 340.7 315 335 317.9M351.6 328.4C355.5 329.4 358.1 319.2 345.8 320.8M358.8 328.4C362.1 327.4 364.5 321.4 354.6 323.4M366.3 328.9C369.3 330.4 370.7 321.6 361.5 323.9M323.3 300.5C324.6 302.7 324.1 307.1 321.7 308.3M323.7 305.8C326.2 306.8 329.6 305.8 331.6 301.8M328.1 305.8C328.8 307.5 329.1 311 327.5 312.8M328.7 308.8C331.5 310.3 334.7 308.3 336.1 305.4M334.4 307.9C336.4 309.1 338.1 315 334.8 317.4M336.6 314.7C339 314.8 342.6 314.8 344.8 311.7M343.2 313.4C345.3 314 347.8 317.6 346.9 320.7M347.1 319.6C349.5 319.3 353.6 317.6 354.7 314.8M353.6 316.7C354.666 317.343 355.524 318.279 356.074 319.395C356.623 320.512 356.841 321.763 356.7 323M356.7 321C359.1 320.8 361.2 319.6 361.9 317M361.2 318.7C363 319.3 365.2 321.3 365.2 323.7M365 322.2C366.8 321.9 368 320.8 369.2 319.1M373.9 318.8C376.2 321.1 373.2 328.6 368.5 327.2M325.7 166.6C321.1 169.4 307.9 168.6 314.4 157.6M327 159.2C317.8 162.9 306.5 155.8 318.3 148.2M315.2 145.7C307.5 145.7 302.4 158 312.7 162.2M285.4 150.8C283.4 154.8 290.6 159 295.4 155.1C299.3 152.1 299 143.9 296.7 140.8M281.5 160C279 168.3 297.5 168.8 294.5 155.6M280.5 172.3C281.1 178.6 298.2 176.6 292.7 163.9M294.7 160.4C296.1 162.3 299.8 165.5 306.2 164.9M297.7 151.5C298.3 153.7 302.1 155.5 307 153.8M126.4 342.6C122 345.7 128.7 350.6 131.1 345.2M123 345C118.7 348 125.3 353 127.8 347.6M119.4 347.3C115.1 350.4 121.7 355.3 124.2 349.9M115.6 349.5C111.5 351.7 116.3 357.1 120.6 352.3M111.6 351.5C107.4 353.7 112.3 359.1 116.5 354.4M132.5 345.1C132.5 348.3 138.6 349.6 140.8 344.8M136.5 348C134.6 350.4 138.1 353.4 140 352.3M128.4 347.6C128.2 350.3 133.5 351.8 136.1 348.9M131.3 350.4C129.6 352.6 132.9 355.6 135.1 354.7M124.9 350C125.1 352.2 128.1 354.6 131.4 353.2M126.8 352.9C125.6 354 126.2 356.7 128 357.5M120.3 352.7C119.8 354.7 123.1 358.1 126.5 355.9M121 354.9C119 356.6 119.2 358.9 121.8 359.3M116.2 354.7C115.9 356 117.6 358.2 119.8 357.9M105.4 354.6C103.4 355.6 108.6 361.1 111.8 356.1M100.5 356.9C98 358.1 104.2 364.1 107 357.9M116.8 356.6C114.8 357.1 113.6 359.9 115.2 361M110.4 357.6C110.2 358.8 112.5 360.6 114.4 359.9M108.8 358.1C106.8 359.3 107.8 362.6 110.1 362.1M102.1 360.3C100.3 361.6 101.5 364.3 103.9 363.6M105.3 360.1C105.3 360.8 106.9 361.9 108.2 361.5M95.9 359C93.7 360 93.8 365.5 101.2 362.5M90.9 361.2C87.9 362.7 88.9 366.9 95.6 362.9M96.1 363.2C95.3 363.8 94.4 366.6 97.5 365.5M90.5 364.5C89.2 365.6 90 368 92.8 367.1M84 364.9C81.7 366.2 86.7 367.9 90 364.5M85.5 366.5C84.5 367.5 84.5 370.5 87.1 369.5M79.1 367.7C77.6 368.9 80.1 370.4 84.9 368.3M80.9 369.3C79.2 370.8 79.4 372.6 81.9 372.1M75.8 370.1C73.8 371.9 76.6 373.1 80 371.7M75.8 372.1C72.5 373.6 73.9 376.4 76 375.3M187 381.7C186.2 383.4 188.7 384.7 191.1 384.4C193.4 384 195.6 382.1 193.9 379.4M193.9 382.7C196.2 384.5 200.3 382.5 200.3 379.8" stroke="black" stroke-width="0.4"/>
<path d="M332.5 116.7C322.5 111.7 301.6 102.3 295.7 109.9C301.1 107.6 316.9 110 330 122.1L332.5 116.7Z" fill="white" stroke="black" stroke-width="0.4"/>
<path d="M338.5 116.1C327 102.6 320.1 105.6 311.8 101C303.9 96.6 291.4 95.7 289 102.7C300.5 97.1 311 105.7 317.4 106.7C326.4 108.1 331.4 115 334 118.2L338.6 116.2L338.5 116.1ZM382.3 114.4C376.3 100.6 363.4 104.2 357.7 98.4C349.4 89.8 328.5 81.9 319.8 87.8C338.8 86.8 347 100.9 357.2 105.8C364.5 109.4 372.2 116.9 382.3 114.4Z" fill="white" stroke="black" stroke-width="0.4"/>
<path d="M359.7 112.9C349.4 100.1 333.7 88.8001 326.3 93.1001C335.9 93.6001 338.9 100.2 345.7 104.5C352.5 108.8 349.4 114.9 359.7 112.9ZM310.7 135.5C300 131.5 278.9 129.5 269.1 141.8C285.4 144.5 310.1 143 310.8 135.5H310.7Z" fill="white" stroke="black" stroke-width="0.4"/>
<path d="M308.8 140.3C298 135.3 289.5 142.3 279.4 141.3C260 139.4 246.2 140.5 244.4 149.8C255.5 139.9 274.1 148.1 281.6 146C289.2 144 317 145.8 325.8 149.6C321.3 144 314.3 142.6 308.8 140.3ZM342.7 111.5C340.1 103.2 340.3 94.5001 352.7 95.1001C349.6 91.1001 338 89.1001 336.1 103.7C322.4 93.7001 307.5 91.9001 304.7 100.6C311.7 94.6001 322.7 99.0001 335.7 113.8C337.896 112.665 340.259 111.889 342.7 111.5Z" fill="white" stroke="black" stroke-width="0.4"/>
<path d="M323.8 123C316 118 305.5 109.8 323.9 106.5C316.1 102.2 304.5 104.1 305.8 118.7C284.6 110.1 269.5 113 266.3 121.4C262.8 130.7 275.9 135.9 278.1 130C275.7 131 267.6 128.2 271.8 123C276.1 117.7 298 121.6 318.8 132.5C324.6 135.5 344.4 135 323.8 123Z" fill="white" stroke="black" stroke-width="0.4"/>
<path d="M318.3 136.8C312.3 124.5 292.8 135.6 288.9 123.8C283.5 141.2 316.6 131.5 318.3 136.8ZM442.3 150.1C446.3 152.1 449.9 148.9 443.6 146.4C447.6 148.4 451.3 145.4 445 142.8C449.1 144.8 452.7 141.8 446.4 139.2C444.7 140.9 442.4 147.1 442.2 150.1H442.3ZM444.3 126.5C453.4 116.9 443.6 113.7 454.7 103.9C463.7 95.9 456.4 90.5 465 84.3C467.7 82.3 473.7 78.3 474.3 74.3C477.9 83.3 463 84.5 464 99.1C464.6 108.4 458.3 107.6 456 123.1C455.4 126.5 453.2 133.8 444.4 126.5H444.3Z" fill="white" stroke="black" stroke-width="0.4"/>
<path d="M448.4 130.7C453.4 119.9 459.2 120.1 461.9 115.9C467.2 107.9 478.4 117.3 487.9 110.1C486.2 120.3 473.5 116.7 467.9 123.2C462.5 129.7 457.9 132.7 448.4 130.7Z" fill="white" stroke="black" stroke-width="0.4"/>
<path d="M449.6 134.3C458.4 127.3 464.9 131.9 471 128.3C486.3 118.9 492.5 130.1 506.1 125.7C502.5 134.5 482.3 127 473.5 133.5C464.7 140 433.8 146.3 449.6 134.3ZM424 184.3C423.771 181.894 422.755 179.63 421.11 177.858C419.465 176.087 417.283 174.907 414.9 174.5C409.6 173.9 407.3 168.4 403.3 168.1C399.3 167.9 396.6 159.9 391.1 160C385.6 160.1 383.3 167.3 396.3 173.8C409.3 180.3 423.5 187.8 424 184.3ZM407.7 187.7C402.2 188 401.4 196 396.1 196.3C403.4 200.2 408.7 194.5 412.5 189.5L407.7 187.7Z" fill="white" stroke="black" stroke-width="0.4"/>
<path d="M412.2 188.7C407.5 192.7 406.1 201.2 413 203.6C408.8 197.9 420.3 195.3 416.7 190L412.2 188.7Z" fill="white" stroke="black" stroke-width="0.4"/>
<path d="M417 189C413.2 196.3 422.9 197.2 420.4 202.7C425.9 201.4 426.8 191 421.8 188.2L417 189Z" fill="white" stroke="black" stroke-width="0.4"/>
<path d="M380.1 173.4C389.1 172.9 397.4 177.8 402.9 185.7C406.4 190.7 418.2 192.7 422.3 188.7C426.3 184.7 424 176.2 414 178.9C411.5 174.7 404.2 176.2 400.7 172.7C397.2 169.1 383.6 159.1 380.1 173.4Z" fill="white" stroke="black" stroke-width="0.4"/>
<path d="M414 179C411.6 179.4 410.8 183.6 412.3 185.7L414 179ZM419.1 181.5C419.9 182.7 419.4 184.5 419 185.4L419.1 181.5ZM394.4 173.8C399 174 399.9 177.4 404.9 178.7L394.4 173.8Z" fill="white"/>
<path d="M414 179C411.6 179.4 410.8 183.6 412.3 185.7M419.1 181.5C419.9 182.7 419.4 184.5 419 185.4M394.4 173.8C399 174 399.9 177.4 404.9 178.7" stroke="black" stroke-width="0.4" stroke-linecap="round"/>
<path d="M391.3 162.4C407.3 166.4 420.1 169.9 428 174.4C437.551 179.168 448.546 180.168 458.8 177.2C469.5 174.2 490.1 171.4 489.1 184.7C494.7 178.1 487.6 170.9 473.3 169.7C473.6 163.1 466.6 157.2 461.6 161.1C466.2 160.5 470.2 169.1 461.1 172.7C461.576 171.157 461.585 169.507 461.126 167.958C460.668 166.41 459.763 165.031 458.524 163.995C457.285 162.959 455.767 162.312 454.162 162.135C452.557 161.958 450.935 162.259 449.5 163C453.8 164.3 458.2 171.5 448.5 174.3C442.4 176.1 433.5 173.8 426.9 169.8C420.3 165.8 383.1 151.2 391.2 162.3L391.3 162.4Z" fill="white" stroke="black" stroke-width="0.4"/>
<path d="M431.8 155.8C426.8 158.1 430 163.4 422.3 166.4C414.5 169.4 409.1 176.4 410.8 182.2C416.1 170.7 425.4 171.2 428.7 166.6C431.9 162.1 436.7 155.5 431.8 155.8Z" fill="white" stroke="black" stroke-width="0.4"/>
<path d="M433.2 156.6C432.9 165.8 425.7 162.4 428.5 175.3C430.34 180.829 430.27 186.816 428.3 192.3C436.3 186.5 431.2 174.1 434.8 169.4C436.909 166.741 438.596 163.773 439.8 160.6C437.8 165.9 438 175.6 443.1 178.2C439 168.4 454.3 160.4 443.7 149.1C442.2 151.8 437.5 156.7 433.2 156.6ZM407.6 147.4C408.8 149.4 410.1 154.1 409 156.7C412.025 154.671 414.499 151.922 416.2 148.7C421.4 149.4 423.4 155.8 418.5 158.7C421.5 158.7 426.7 158.7 429.5 155.2C426 151.3 415.1 145.3 407.5 147.4H407.6Z" fill="white" stroke="black" stroke-width="0.4"/>
<path d="M329.5 129.4C328.143 128.321 326.519 127.63 324.8 127.4C317.2 125.9 321.2 119.1 327.6 119.1C341.4 104.1 349.2 115.7 366 110.9C372 109.2 376 109.7 379.2 111.1C386.7 106.1 395.5 107.5 401.9 113.4C402.6 112.3 403.6 111.4 404.9 111C410.9 109.4 415.6 114.4 417.2 121C421.8 120 427.1 122.4 430.6 125.5C435.3 123 438.6 122.9 439.8 125.5C444.1 123.5 449.6 122.2 452.4 129C455.2 135.8 445.9 133.7 444.4 148C443.4 156.9 433.6 160.4 425.8 155C413.3 146.7 401.2 145.3 395.1 158.1C389.1 170.9 384.4 178.4 369.8 174.1C364.5 172.7 357.8 174.7 353.5 180.5C349.2 186.2 342.7 180.8 334.9 181.5C344.7 180 340.9 177.5 349.4 176.9C357.2 176.4 355.2 169.2 360.2 168.1C340.7 173.1 341.4 165.9 325.3 170.9C332.3 161.9 343.4 166.9 348.9 161.6C334.4 161.4 327.9 151.9 321.3 155.8C311 162.1 315.5 180 288.7 178.4C275.7 177.7 267.3 179.4 259.5 187.2C273.1 159.2 291.5 174.6 300.5 165.6C305.157 161.426 309.198 156.611 312.5 151.3C312.901 150.523 313.466 149.843 314.157 149.308C314.848 148.772 315.648 148.394 316.5 148.2C294.1 141.2 307.6 130.2 329.5 129.4Z" fill="white" stroke="black" stroke-width="0.4"/>
<path d="M439.8 125.5C440.2 126.2 440.3 127.1 440.3 128.2C440.3 133.8 432.1 134 431.6 142.2C431.3 146.4 430.8 148.8 427.9 148.3C425 147.8 422.5 143.3 425.3 138" fill="white"/>
<path d="M439.8 125.5C440.2 126.2 440.3 127.1 440.3 128.2C440.3 133.8 432.1 134 431.6 142.2C431.3 146.4 430.8 148.8 427.9 148.3C425 147.8 422.5 143.3 425.3 138" stroke="black" stroke-width="0.4" stroke-linecap="round"/>
<path d="M333.6 121.2C331.85 119.938 329.757 119.241 327.6 119.2L333.6 121.2ZM379.1 111.1C385.8 114 389 120.9 398.7 121.1C408 121.5 413.7 135 429.3 126.2L430.5 125.6M401.9 113.4C400.575 115.843 400.117 118.663 400.6 121.4L401.9 113.4ZM371.6 141.8C359.7 141.8 356.7 147.8 356.7 153.6C356.7 159.4 362.3 166.9 372 166.9C381.8 166.9 387.1 160.9 387.1 154.3C387.1 147.7 381.1 141.8 371.5 141.8H371.6Z" fill="white"/>
<path d="M333.6 121.2C331.85 119.938 329.757 119.241 327.6 119.2M379.1 111.1C385.8 114 389 120.9 398.7 121.1C408 121.5 413.7 135 429.3 126.2L430.5 125.6M401.9 113.4C400.575 115.843 400.117 118.663 400.6 121.4M371.6 141.8C359.7 141.8 356.7 147.8 356.7 153.6C356.7 159.4 362.3 166.9 372 166.9C381.8 166.9 387.1 160.9 387.1 154.3C387.1 147.7 381.1 141.8 371.5 141.8H371.6Z" stroke="black" stroke-width="0.4"/>
<path d="M373.7 166.6C373.4 163.4 367.5 163.9 367.7 161.4C367.9 158.9 371 157.8 371 154.4C371 151 376.3 150.6 378 153.4C379.8 156.1 385.1 161.4 386.2 158.7M378.1 153.3C376.49 155.021 375.561 157.269 375.487 159.625C375.414 161.98 376.2 164.282 377.7 166.1M381.8 157.6C381 159.5 380.8 162.4 381.8 164.1V157.6Z" fill="white"/>
<path d="M373.7 166.6C373.4 163.4 367.5 163.9 367.7 161.4C367.9 158.9 371 157.8 371 154.4C371 151 376.3 150.6 378 153.4C379.8 156.1 385.1 161.4 386.2 158.7M378.1 153.3C376.49 155.021 375.561 157.269 375.487 159.625C375.414 161.98 376.2 164.282 377.7 166.1M381.8 157.6C381 159.5 380.8 162.4 381.8 164.1" stroke="black" stroke-width="0.4"/>
<path d="M428.7 148.4C438 149.1 439.5 139 432.7 138.4M417.4 120.9C414.2 116.9 406.8 115.5 406.7 124.1" stroke="black" stroke-width="0.4"/>
<path d="M405.8 134C402.7 126.2 394.6 125 390.4 129C386.8 132.2 386.7 140.6 394.4 142.4C397 139.3 402.2 135.1 405.8 134ZM402.4 129.1C397.8 125.1 391.2 132.7 397.2 139.7L402.4 129.1ZM316.5 148C319.5 147.3 323.9 148.8 330.7 152C335 154 347.7 158.3 355.8 154C347.5 157 341.3 144.4 335 146C328.7 147.5 317.2 149.8 312.4 145.2C324.2 146 330.5 136.6 344 144.7C347.83 147.099 352.282 148.316 356.8 148.2C345.8 134.9 331.2 143.4 329.7 132.6C336.4 139.8 352.7 131 360.9 144.4M332.1 134.6C330.5 132.7 331.2 130.8 329.6 129.3L332.1 134.6Z" fill="white"/>
<path d="M402.4 129.1C397.8 125.1 391.2 132.7 397.2 139.7M316.5 148C319.5 147.3 323.9 148.8 330.7 152C335 154 347.7 158.3 355.8 154C347.5 157 341.3 144.4 335 146C328.7 147.5 317.2 149.8 312.4 145.2C324.2 146 330.5 136.6 344 144.7C347.83 147.099 352.282 148.316 356.8 148.2C345.8 134.9 331.2 143.4 329.7 132.6C336.4 139.8 352.7 131 360.9 144.4M332.1 134.6C330.5 132.7 331.2 130.8 329.6 129.3M405.8 134C402.7 126.2 394.6 125 390.4 129C386.8 132.2 386.7 140.6 394.4 142.4C397 139.3 402.2 135.1 405.8 134Z" stroke="black" stroke-width="0.4"/>
<path d="M417.4 121C414.6 118 408.6 120.3 410.3 126.3C410.934 124.895 411.905 123.667 413.126 122.726C414.346 121.784 415.78 121.157 417.3 120.9L417.4 121ZM400.3 137C401.97 135.725 403.824 134.714 405.8 134C405.043 132.001 403.766 130.24 402.1 128.9C400.7 127.9 396.5 133.5 400.3 137Z" fill="black"/>
<path d="M392.9 126.8C388.4 123.8 384.2 124.1 382.9 126.6C379.6 126.5 376.9 128.9 376.7 133.6M383.7 135.6C378.3 131.9 370.9 133.3 371.4 141.6M368.2 146.3C370.8 144.2 374.6 142.7 377.4 146.4M408.4 138.1C407.4 139.5 406.7 141.7 408.4 144.9C406.4 142.3 401.3 142.3 395.9 149.3M420.4 137.8C413.9 138.5 414 142.8 419.3 144.7M373.9 121.8C368.4 120.7 364.4 124 372 126.8M384.5 118C376.7 116 373.5 118 377.1 119.8M362 149.2C361.7 152 363.3 155.6 367.8 151.5M363.5 157.5C363.5 158.3 363.4 159.1 362.9 159.8M345.4 120.8C340.7 119.3 339.8 114.9 345.3 115.3M343.8 130.9C338.5 129.1 338.5 123.9 342.9 124.5M353.6 128.2C347.4 126.7 347.2 122.5 351.8 123.1M354.3 115.1C351.1 114.9 346 118.6 354.5 120.7M363.5 122.5C355.8 121.3 356 124.5 360.5 126.5M369.3 115.2C363.3 114.1 361.3 117.6 365.3 119.1M350.8 137C349.4 135.8 348.2 130.1 355.1 131.8M365.1 135.2C360.5 134 356.1 138.5 360.3 141.2M371.3 129.8C366.3 129 362.3 130.3 364.9 132.1" stroke="black" stroke-width="0.4" stroke-linecap="round"/>
<path d="M417.1 121C415.623 121.269 414.233 121.891 413.049 122.814C411.865 123.737 410.921 124.933 410.3 126.3" fill="white"/>
<path d="M417.1 121C415.623 121.269 414.233 121.891 413.049 122.814C411.865 123.737 410.921 124.933 410.3 126.3" stroke="black" stroke-width="0.4"/>
</g>
<defs>
<clipPath id="clip0_103_3320">
<rect width="512" height="512" fill="white" transform="translate(0.5)"/>
</clipPath>
</defs>
</svg>
