<svg width="513" height="512" viewBox="0 0 513 512" fill="none" xmlns="http://www.w3.org/2000/svg">
<g clip-path="url(#clip0_103_3417)">
<mask id="mask0_103_3417" style="mask-type:luminance" maskUnits="userSpaceOnUse" x="0" y="0" width="513" height="512">
<path d="M0.5 0H512.372V511.872H0.5V0Z" fill="white"/>
</mask>
<g mask="url(#mask0_103_3417)">
<path fill-rule="evenodd" clip-rule="evenodd" d="M0.5 0H1024.35V340.044H0.5V0Z" fill="#B20000"/>
<path fill-rule="evenodd" clip-rule="evenodd" d="M0.5 340.044H1024.35V511.975H0.5V340.044Z" fill="#429F00"/>
<path fill-rule="evenodd" clip-rule="evenodd" d="M0.5 0H113.814V511.872H0.5V0Z" fill="white"/>
<path fill-rule="evenodd" clip-rule="evenodd" d="M5.8664 8.6688H11.336V17.3376H5.8664V8.6688ZM22.0688 8.6688H38.2712V17.3376H22.172L22.0688 8.6688ZM27.4352 0H32.9048V8.6688H27.332L27.4352 0ZM54.4736 0H59.84V8.6688H54.4736V0ZM76.1456 8.6688H92.2448V17.3376H76.0424L76.1456 8.6688ZM81.4088 0H86.7752V8.6688H81.4088V0ZM16.7024 17.3376H27.5384V26.0064H16.7024V17.3376ZM32.9048 17.3376H43.7408V26.0064H32.9048V17.3376ZM70.676 17.3376H81.512V26.0064H70.676V17.3376ZM86.8784 17.3376H97.508V26.0064H86.9816L86.8784 17.3376ZM11.336 26.0064H22.0688V34.6752H11.336V26.0064ZM38.2712 26.0064H49.1072V34.6752H38.2712V26.0064ZM65.3096 26.0064H76.0424V34.6752H65.3096V26.0064ZM92.2448 26.0064H103.081V34.6752H92.2448V26.0064ZM103.081 8.6688H108.447V17.3376H103.081V8.6688ZM5.8664 34.6752H16.7024V43.344H5.8664V34.6752ZM43.6376 34.6752H54.4736V43.344H43.6376V34.6752ZM97.7144 34.6752H108.447V43.344H97.7144V34.6752ZM11.336 60.888H22.0688V69.5568H11.336V60.888ZM16.7024 69.5568H27.5384V78.2256H16.7024V69.5568ZM38.3744 60.888H49.004V69.5568H38.2712L38.3744 60.888ZM32.9048 69.5568H43.6376V78.2256H32.9048V69.5568ZM22.0688 78.2256H38.2712V86.688H22.172L22.0688 78.2256ZM27.4352 86.688H32.9048V95.46H27.332L27.4352 86.688ZM65.3096 60.6816H76.0424V69.4536H65.3096V60.6816ZM70.676 69.4536H81.512V78.1224H70.676V69.4536ZM92.348 60.7848H103.081V69.4536H92.2448L92.348 60.7848ZM86.8784 69.4536H97.508V78.1224H86.9816L86.8784 69.4536ZM76.0424 78.1224H92.348V86.688H76.0424V78.1224ZM81.512 86.688H86.8784V95.46H81.512V86.688ZM54.4736 78.1224H59.84V86.688H54.4736V78.1224ZM0.5 78.1224H5.8664V86.688H0.5V78.1224ZM108.447 78.1224H113.814V86.688H108.447V78.1224ZM27.4352 121.466H32.9048V130.135H27.332L27.4352 121.466ZM22.0688 130.135H38.2712V138.804H22.172L22.0688 130.135ZM16.7024 138.804H43.7408V147.473H16.7024V138.804ZM81.512 121.466H86.8784V130.135H81.512V121.466Z" fill="#B20000"/>
<path fill-rule="evenodd" clip-rule="evenodd" d="M76.0424 130.135H92.348V138.804H76.0424V130.135ZM70.676 138.804H97.6112V147.473H70.676V138.804ZM76.0424 182.148H103.081V190.92H76.0424V182.148ZM65.3096 147.576H103.081V156.245H65.3096V147.576ZM11.336 147.576H49.004V156.245H11.336V147.576ZM16.7024 190.92H32.9048V199.692H16.7024V190.92ZM11.336 182.354H38.2712V191.023H11.336V182.354ZM86.8784 164.914H113.814V173.686H86.9816L86.8784 164.914ZM81.512 190.92H97.7144V199.589H81.512V190.92ZM22.0688 199.589H27.5384V208.258H22.0688V199.589ZM86.8784 199.589H92.2448V208.258H86.8784V199.589ZM0.5 164.81H27.5384V173.582H0.5V164.81ZM49.004 182.251H65.3096V190.92H49.004V182.251ZM54.4736 190.92H59.84V199.589H54.4736V190.92ZM38.2712 164.81H76.0424V173.582H38.2712V164.81ZM59.9432 34.7784H70.676V43.344H59.84L59.9432 34.7784ZM49.004 43.344H65.2064V52.0128H49.004V43.344ZM43.5344 52.0128H54.3704V60.6816H43.6376L43.5344 52.0128ZM59.7368 52.0128H70.676V60.6816H59.84L59.7368 52.0128ZM0.5 43.344H11.336V52.0128H0.5V43.344ZM5.8664 52.0128H16.7024V60.6816H5.8664V52.0128ZM103.081 43.344H113.814V52.0128H103.081V43.344ZM97.508 52.0128H108.344V60.6816H97.7144L97.508 52.0128ZM0.5 130.135H5.8664V138.804H0.5V130.135ZM108.447 130.135H113.814V138.804H108.447V130.135ZM49.1072 199.589H65.3096V208.258H49.004L49.1072 199.589ZM43.6376 208.258H54.4736V216.926H43.6376V208.258ZM59.84 208.258H70.676V216.926H59.84V208.258ZM38.2712 216.926H49.1072V225.595H38.2712V216.926ZM65.3096 216.926H76.0424V225.595H65.3096V216.926ZM32.9048 225.595H43.7408V234.264H32.9048V225.595ZM70.676 225.595H81.512V234.264H70.676V225.595ZM27.4352 234.264H38.2712V242.933H27.4352V234.264ZM76.0424 234.264H86.8784V242.933H76.0424V234.264ZM16.7024 242.933H32.9048V251.602H16.7024V242.933ZM81.512 242.933H97.7144V251.602H81.512V242.933ZM92.2448 234.264H103.081V242.933H92.2448V234.264ZM97.7144 225.595H108.447V234.264H97.7144V225.595ZM103.081 216.926H113.814V225.595H103.081V216.926ZM11.2328 234.264H22.172V242.933H11.336L11.2328 234.264ZM5.8664 225.595H16.7024V234.264H5.8664V225.595Z" fill="#B20000"/>
<path fill-rule="evenodd" clip-rule="evenodd" d="M0.5 216.926H11.336V225.595H0.5V216.926ZM22.172 251.602H27.5384V260.27H22.0688L22.172 251.602ZM86.8784 251.602H92.2448V260.27H86.8784V251.602ZM54.4736 225.595H59.84V234.264H54.4736V225.595ZM38.2712 251.602H43.6376V260.27H38.2712V251.602ZM70.676 251.602H76.0424V260.27H70.676V251.602ZM54.4736 251.602H59.84V260.27H54.4736V251.602ZM0.5 251.602H5.8664V260.27H0.5V251.602ZM108.447 251.602H113.814V260.27H108.447V251.602ZM54.4736 130.135H59.84V138.804H54.4736V130.135ZM27.5384 43.4471H32.9048V52.0127H27.5384V43.4471ZM81.512 43.4471H86.8784V52.0127H81.512V43.4471ZM49.004 104.026H65.2064V112.694H49.004V104.026ZM38.2712 112.798H54.4736V121.466H38.2712V112.798Z" fill="#B20000"/>
<path fill-rule="evenodd" clip-rule="evenodd" d="M43.6376 121.466H49.1072V130.135H43.6376V121.466ZM32.9048 104.129H43.7408V112.798H32.9048V104.129ZM38.2712 95.4601H54.4736V104.129H38.2712V95.4601ZM43.6376 86.7913H49.1072V95.4601H43.6376V86.7913ZM59.84 95.4601H76.0424V104.129H59.84V95.4601ZM65.3096 86.7913H70.676V95.4601H65.3096V86.7913ZM70.676 104.129H81.512V112.798H70.676V104.129ZM59.84 112.798H76.0424V121.466H59.84V112.798ZM65.3096 121.466H70.676V130.135H65.3096V121.466ZM86.8784 104.129H97.7144V112.798H86.8784V104.129ZM92.2448 95.4601H108.447V104.129H92.348L92.2448 95.4601ZM103.081 104.129H113.814V112.798H103.081V104.129Z" fill="#B20000"/>
<path fill-rule="evenodd" clip-rule="evenodd" d="M92.348 112.798H108.447V121.466H92.348V112.798ZM97.7144 121.466H103.081V130.135H97.7144V121.466ZM97.7144 86.7913H103.081V95.4601H97.7144V86.7913ZM0.5 104.129H11.336V112.798H0.5V104.129ZM5.8664 95.4601H22.172V104.129H5.8664V95.4601ZM16.7024 104.129H27.5384V112.798H16.7024V104.129Z" fill="#B20000"/>
<path fill-rule="evenodd" clip-rule="evenodd" d="M5.8664 112.798H22.172V121.466H5.8664V112.798ZM11.336 121.466H16.7024V130.135H11.336V121.466ZM11.336 86.7913H16.7024V95.4601H11.336V86.7913ZM5.8664 156.142H27.5384V164.81H5.8664V156.142ZM32.9048 156.142H54.5768V164.81H32.9048V156.142ZM59.84 156.142H81.512V164.81H59.84V156.142ZM86.8784 156.142H108.55V164.81H86.8784V156.142ZM43.6376 173.479H70.676V182.251H43.6376V173.479ZM5.8664 173.479H32.9048V182.251H5.8664V173.479ZM81.512 173.479H108.447V182.251H81.512V173.479ZM108.447 208.258H113.814V216.926H108.447V208.258ZM0.5 208.258H5.8664V216.926H0.5V208.258ZM5.8664 503.306H11.336V494.534H5.8664V503.306ZM22.0688 503.306H38.2712V494.534H22.172L22.0688 503.306ZM27.4352 511.872H32.9048V503.306H27.332L27.4352 511.872ZM54.4736 511.872H59.84V503.306H54.4736V511.872ZM76.1456 503.306H92.2448V494.638H76.0424L76.1456 503.306ZM81.512 511.872H86.8784V503.306H81.512V511.872ZM16.7024 494.534H27.5384V485.866H16.7024V494.534ZM32.9048 494.534H43.7408V485.866H32.9048V494.534ZM70.676 494.534H81.512V485.866H70.676V494.534ZM86.8784 494.534H97.508V485.866H86.9816L86.8784 494.534ZM38.3744 485.866H49.004V477.197H38.2712L38.3744 485.866ZM65.2064 485.866H76.0424V477.197H65.3096L65.2064 485.866ZM92.2448 485.866H103.081V477.197H92.2448V485.866ZM103.081 503.306H108.447V494.534H103.081V503.306ZM5.8664 477.197H16.7024V468.528H5.8664V477.197ZM43.6376 477.197H54.4736V468.528H43.6376V477.197ZM97.7144 477.197H108.447V468.528H97.7144V477.197ZM11.336 451.19H22.0688V442.522H11.336V451.19ZM16.7024 442.522H27.5384V433.853H16.7024V442.522ZM38.3744 451.19H49.004V442.522H38.2712L38.3744 451.19ZM32.9048 442.522H43.6376V433.853H32.9048V442.522ZM22.0688 433.853H38.2712V425.184H22.172L22.0688 433.853ZM27.4352 425.184H32.9048V416.515H27.332L27.4352 425.184ZM65.3096 451.19H76.0424V442.522H65.3096V451.19ZM70.676 442.522H81.512V433.853H70.676V442.522ZM92.348 451.19H103.081V442.522H92.2448L92.348 451.19ZM86.8784 442.522H97.508V433.853H86.9816L86.8784 442.522ZM76.0424 433.853H92.348V425.184H76.0424V433.853ZM81.512 425.184H86.8784V416.515H81.512V425.184ZM54.4736 433.853H59.84V425.184H54.4736V433.853ZM0.5 433.853H5.8664V425.184H0.5V433.853ZM108.447 433.853H113.814V425.184H108.447V433.853ZM27.5384 390.509H32.9048V381.737H27.5384V390.509Z" fill="#B20000"/>
<path fill-rule="evenodd" clip-rule="evenodd" d="M22.172 381.84H38.2712V373.068H22.172V381.84ZM16.7024 373.068H43.7408V364.399H16.7024V373.068ZM81.512 390.406H86.8784V381.84H81.512V390.406ZM76.0424 381.84H92.348V373.068H76.0424V381.84ZM70.676 373.068H97.6112V364.399H70.676V373.068ZM76.0424 329.724H103.081V321.055H76.0424V329.724ZM65.3096 364.399H103.081V355.73H65.3096V364.399ZM11.336 364.399H49.004V355.73H11.336V364.399ZM16.7024 321.055H32.9048V312.386H16.7024V321.055ZM11.336 329.724H38.2712V321.055H11.336V329.724ZM86.8784 347.062H113.814V338.496H86.9816L86.8784 347.062ZM81.512 321.055H97.7144V312.386H81.512V321.055ZM0.5 347.062H27.5384V338.496H0.5V347.062ZM49.004 329.724H65.3096V321.055H49.004V329.724ZM54.4736 321.055H59.84V312.386H54.4736V321.055ZM38.2712 347.062H76.0424V338.496H38.2712V347.062ZM59.9432 477.197H70.676V468.528H59.84L59.9432 477.197ZM49.004 468.528H65.2064V459.859H49.004V468.528ZM43.5344 459.859H54.3704V451.19H43.6376L43.5344 459.859ZM59.7368 459.859H70.676V451.19H59.84L59.7368 459.859ZM0.5 468.528H11.336V459.859H0.5V468.528ZM5.8664 459.859H16.7024V451.19H5.8664V459.859ZM103.081 468.528H113.814V459.859H103.081V468.528ZM97.6112 459.859H108.447V451.19H97.7144L97.6112 459.859ZM0.5 381.84H5.8664V373.171H0.5V381.84ZM108.447 381.84H113.814V373.171H108.447V381.84ZM43.6376 303.821H54.4736V295.152H43.6376V303.821ZM59.84 303.821H70.676V295.152H59.84V303.821ZM38.2712 295.152H49.1072V286.483H38.2712V295.152ZM65.3096 295.152H76.0424V286.483H65.3096V295.152ZM32.9048 286.38H43.6376V277.608H32.9048V286.38ZM70.676 286.38H81.512V277.608H70.676V286.38ZM27.4352 277.608H38.2712V269.042H27.4352V277.608ZM76.0424 277.608H86.8784V269.042H76.0424V277.608ZM16.7024 269.042H32.9048V260.27H16.7024V269.042ZM81.512 269.042H97.7144V260.27H81.512V269.042ZM92.2448 277.711H103.081V268.939H92.2448V277.711ZM97.7144 286.277H108.447V277.711H97.7144V286.277ZM103.081 295.049H113.814V286.38H103.081V295.049ZM11.2328 277.711H22.172V268.939H11.336L11.2328 277.711ZM5.8664 286.277H16.7024V277.711H5.8664V286.277ZM0.5 295.152H11.336V286.483H0.5V295.152ZM22.172 260.374H27.5384V251.705H22.0688L22.172 260.374ZM54.4736 286.483H59.84V277.608H54.4736V286.483ZM54.4736 381.943H59.84V373.171H54.4736V381.943ZM27.5384 468.631H32.9048V459.962H27.5384V468.631ZM81.512 468.631H86.8784V459.962H81.512V468.631ZM49.004 407.846H65.2064V399.178H49.004V407.846ZM38.168 399.178H54.3704V390.509H38.2712L38.168 399.178ZM43.5344 390.406H49.004V381.84H43.5344V390.406ZM32.8016 407.846H43.5344V399.178H32.9048L32.8016 407.846ZM38.2712 416.515H54.4736V407.846H38.2712V416.515ZM43.6376 425.184H49.1072V416.515H43.6376V425.184ZM59.84 416.515H76.0424V407.846H59.84V416.515ZM65.3096 425.184H70.676V416.515H65.3096V425.184ZM70.676 407.846H81.512V399.178H70.676V407.846ZM59.84 399.178H76.0424V390.509H59.84V399.178ZM65.3096 390.406H70.676V381.84H65.3096V390.406ZM86.8784 407.846H97.508V399.178H86.9816L86.8784 407.846ZM92.2448 416.515H108.447V407.846H92.348L92.2448 416.515ZM103.081 407.846H113.814V399.178H103.081V407.846ZM92.2448 399.178H108.447V390.509H92.348L92.2448 399.178ZM97.7144 390.406H103.081V381.84H97.7144V390.406ZM97.7144 425.184H103.081V416.515H97.7144V425.184ZM0.5 407.846H11.336V399.178H0.5V407.846Z" fill="#B20000"/>
<path fill-rule="evenodd" clip-rule="evenodd" d="M5.8664 416.515H22.172V407.846H5.8664V416.515ZM16.7024 407.846H27.5384V399.178H16.7024V407.846ZM5.8664 399.178H22.172V390.509H5.8664V399.178ZM11.336 390.406H16.7024V381.84H11.336V390.406ZM11.336 425.184H16.7024V416.515H11.336V425.184ZM5.8664 355.73H27.5384V347.062H5.8664V355.73ZM32.9048 355.73H54.5768V347.062H32.9048V355.73ZM59.84 355.73H81.512V347.062H59.84V355.73ZM86.8784 355.73H108.55V347.062H86.8784V355.73ZM43.6376 338.496H70.676V329.827H43.6376V338.496ZM5.8664 338.496H32.9048V329.827H5.8664V338.496ZM81.512 338.496H108.447V329.827H81.512V338.496ZM108.447 303.821H113.814V295.152H108.447V303.821ZM0.5 303.718H5.8664V295.049H0.5V303.718ZM49.004 260.374H54.4736V268.939H49.1072L49.004 260.374ZM59.84 260.374H65.3096V268.939H59.84V260.374ZM59.84 242.933H65.3096V251.602H59.84V242.933ZM49.1072 242.933H54.4736V251.602H49.1072V242.933ZM11.336 477.197H22.0688V485.866H11.336V477.197ZM86.8784 312.386H92.2448V303.718H86.8784V312.386ZM22.0688 312.386H27.4352V303.718H22.172L22.0688 312.386ZM49.1072 303.718H65.3096V312.386H49.004L49.1072 303.718Z" fill="#B20000"/>
</g>
</g>
<defs>
<clipPath id="clip0_103_3417">
<rect width="512" height="512" fill="white" transform="translate(0.5)"/>
</clipPath>
</defs>
</svg>
