<svg width="513" height="512" viewBox="0 0 513 512" fill="none" xmlns="http://www.w3.org/2000/svg">
<g clip-path="url(#clip0_103_3590)">
<path d="M81.6001 0H443.9V512H81.6001V0Z" fill="white"/>
<path d="M-99.5 0H81.6V512H-99.5V0ZM443.9 0H625V512H443.9V0ZM135.8 247.4L121.8 252.2L187.2 309.7C192.2 324.5 185.5 328.8 181.2 336.6L252.2 327.6L250.4 399.1L265.2 398.6L261.9 327.7L333.1 336.1C328.7 326.8 324.8 321.9 328.8 307.1L394.2 252.6L382.8 248.5C373.4 241.2 386.8 213.7 388.8 196.3C388.8 196.3 350.7 209.4 348.2 202.5L338.3 184L303.7 222C299.9 223 298.3 221.4 297.4 218.2L313.4 138.5L288 152.8C285.9 153.7 283.8 152.8 282.4 150.4L257.9 101.4L232.7 152.3C230.8 154.1 228.9 154.3 227.3 153.1L203.1 139.5L217.6 218.7C216.5 221.7 213.7 222.7 210.5 221L177.2 183.2C172.9 190.2 169.9 201.6 164.2 204.2C158.5 206.5 139.2 199.3 126.3 196.5C130.7 212.4 144.5 238.8 135.8 247.5V247.4Z" fill="#D52B1E"/>
</g>
<defs>
<clipPath id="clip0_103_3590">
<rect width="512" height="512" fill="white" transform="translate(0.5)"/>
</clipPath>
</defs>
</svg>
