<svg width="513" height="512" viewBox="0 0 513 512" fill="none" xmlns="http://www.w3.org/2000/svg">
<g clip-path="url(#clip0_103_3436)">
<path d="M0.5 0H512.5V512H0.5V0Z" fill="#008000"/>
<path d="M268.7 311.6C302.5 311.6 329.9 284.2 329.9 250.4C329.9 216.6 302.5 189.2 268.7 189.2C234.9 189.2 207.5 216.6 207.5 250.4C207.5 284.2 234.9 311.6 268.7 311.6Z" fill="#FFE000"/>
<path d="M287.8 300.8C315.635 300.8 338.2 278.235 338.2 250.4C338.2 222.565 315.635 200 287.8 200C259.965 200 237.4 222.565 237.4 250.4C237.4 278.235 259.965 300.8 287.8 300.8Z" fill="#008000"/>
<path d="M75.7 253.4C111.157 253.4 139.9 224.657 139.9 189.2C139.9 153.743 111.157 125 75.7 125C40.2433 125 11.5 153.743 11.5 189.2C11.5 224.657 40.2433 253.4 75.7 253.4Z" fill="#FFE000"/>
<path d="M71.2 237.6H87.2C87.2 237.6 88 236.1 87.1 235.4C86.2 234.6 82.8 234.4 83.7 231.9C85.7 226.5 85.9 228.2 87.1 215.5C88.3 202.8 88.8 182.9 88.8 182.9H86.5C86.5 182.9 87 189.1 85.6 197.2C84.3 205.2 83.9 205.9 82.4 212.2C81 218.3 80.7 218.8 79.4 222.5C78.1 226.1 77.9 226.2 75.9 229.5L73.4 233.7C72.8 234.7 72.1 234.4 71.7 235.1C71.3 235.9 71.2 237.6 71.2 237.6Z" fill="#802000" stroke="#7B3100" stroke-width="1.4"/>
<path d="M83.5 142.5C83.5 145 83.3 148.2 82.3 150.9C81.3 153.9 80.0999 156.9 80.1999 159.9C78.4999 160.6 76.7999 156.4 75.1999 158.9C76.3999 162.2 79.1999 164.9 81.0999 167.9C81.3999 168.9 84.0999 171.4 82.5999 171.9C78.5999 170.6 77.5999 165.5 75.0999 162.4C73.6788 159.828 71.6331 157.656 69.1515 156.083C66.6698 154.51 63.8321 153.588 60.9 153.4C58.6 153.4 51.3 152.8 53.2 156.6C56 158.6 59.5 159.8 62.2 161.9C64.2999 162.1 68 165.5 67.8 166.9C64.2 165.4 62.5 163.6 58.5999 162.1C53.2999 160.1 45.9999 161.2 43.0999 166.5C42.4999 167.9 41.7 171.8 43.4 172.2C45.4 169.1 48.3999 165.6 52.5999 166.5C55.8999 166.8 48.7999 172.8 51.5999 171.5C52.3999 171.2 54.4 169.9 55.7 169.8C57.1 169.6 57.9 170.6 58.9 170.8C61 171.1 61.6 171.9 61.4 172.4C61.2 173 60.4 172.5 58.4 173.2C57.4 173.5 56.7999 174.5 55.5 174.9C54.2999 175.3 51.6999 175.3 50.7999 174.9C47.4 173.5 41.9 173.8 40.7999 177.9C40.7999 179.9 39.2 177.8 38.5 178.6C37.9 180.6 37.7 182.6 34.7 182.5C32.9 184.4 31.1 186.4 28.7 187.7C30.1 190.8 35.5 184.6 35.2 187.2C32.9 190.4 36.4 191.1 38 188.6C40.6 185.8 43.9 182.5 47.7999 185.3C49.6999 187 50.7999 184.3 52.0999 184.5C52.9999 186.7 54.0999 184.5 55.0999 184C56.5999 183.8 56.0999 186 58.0999 184.6C61.7999 182.1 66.3999 184.2 70.0999 181.8C73.8999 180 70.5999 183.2 69.5 184.5C67.7999 187.8 69.2999 192.2 65.5 194.2C64.0999 198.2 67.2999 203.4 64 206.3C63.5 208.2 68.2999 208 69.5999 208.7C72 208.8 69.6 203.4 71.8 202.7C74.9 204.6 74.7999 199.2 74.1999 197.5C74.4999 193.8 74.7 189.7 76.5 186.2C78.5 182.1 80.3999 187.9 78.0999 189.6C76.8999 193.4 75.1 198.3 77.9 201.8C78.8 202 79.4 204 80.5 204.6C81.5 205.3 83 204.5 83.3 202.6C84.7 197.2 84 191.2 86 185.9C87.2999 184.2 89.2999 185.6 90.0999 187.1C92.8999 190.3 94.7999 194.3 98.0999 197C101.231 198.289 103.789 200.669 105.3 203.7C105.3 206.1 112.1 206.4 110.1 203.7C108.1 201.2 109.4 198.5 111.4 196.8C112.4 197.1 112.1 195.2 111.4 195.9C110 195.6 109.9 193.1 111.7 194.3C114.9 195.3 111.5 192 110.4 191.9C107.7 190.3 104.7 188.4 103.4 185.5C106.8 185.5 110.4 187.5 113.9 186.3C116.8 184.8 119.6 186.4 120.6 188.9C122.8 188.5 121.9 186.4 120.6 185.6C122.2 185 123.3 183.6 121.4 182.4C120.4 181 122.8 178.8 119.8 178.9C119.9 176.6 119 174.6 116.6 173.8C114.1 171.7 106.9 176.8 107.1 172.1C106.4 169.6 110.1 171.8 111.1 170.5C112.1 167.8 106.1 168.1 108.1 166C109.3 165.2 115.5 164 110.7 163C109.625 163.315 108.494 163.389 107.388 163.216C106.282 163.043 105.227 162.628 104.3 162C102.6 165 97.6 160.4 98.5 165.6C97.8 167.6 93.4999 172.6 92.1999 168.7C93.2 165.7 98.5 164.7 96.8 160.7C96.6 158.1 94.5 161.1 93.5 160.9C93 159.3 95 157.4 96.5 157C99.2 159.2 99.3 154.3 102 154.7C104 154.3 101.3 153.5 100.8 153.1C101.3 151.7 104.3 150.9 101.4 149.7C98.7999 147.7 96.9 151.7 94.8 151.8C92.8 149.5 96.6 148.4 97.7 147.2C97.7 146.2 95.3999 146.9 96.0999 146.2C96.6999 145 100.9 144.9 98.8999 143.3C95.9999 142.3 92.2999 142.6 89.5 143.8C87.7 144.4 87.1999 148.4 85.6999 148.2C84.8999 146.5 85.9 143 83.5 142.4V142.5ZM97.2 181.4C99.5 181 97.2 184.7 96.2 184.7C96.2999 183.4 92.9999 183.5 95.0999 182.3C95.7363 181.847 96.447 181.508 97.2 181.3V181.4Z" fill="#008000"/>
<path d="M415.675 327.487L419.723 340.075L432.089 335.391L424.774 346.409L436.149 353.158L422.966 354.307L424.78 367.408L415.675 357.819L406.564 367.402L408.378 354.307L395.201 353.152L406.575 346.404L399.255 335.385L411.621 340.069L415.675 327.487Z" fill="#FFE000"/>
<path d="M342.179 211.119L346.227 223.707L358.593 219.023L351.278 230.041L362.653 236.79L349.47 237.939L351.284 251.04L342.179 241.45L333.068 251.034L334.882 237.939L321.705 236.784L333.079 230.035L325.759 219.017L338.125 223.701L342.179 211.119Z" fill="#FFE000"/>
<path d="M415.675 131.498L419.723 144.086L432.089 139.402L424.774 150.421L436.149 157.169L422.966 158.319L424.78 171.419L415.675 161.83L406.564 171.414L408.378 158.319L395.201 157.164L406.575 150.415L399.255 139.396L411.621 144.08L415.675 131.498Z" fill="#FFE000"/>
<path d="M481.004 191.52L485.052 204.108L497.418 199.424L490.104 210.442L501.478 217.191L488.296 218.34L490.11 231.441L481.004 221.852L471.893 231.435L473.707 218.34L460.531 217.185L471.905 210.436L464.584 199.418L476.95 204.102L481.004 191.52Z" fill="#FFE000"/>
<path d="M445.073 250.492L448.275 258.337L456.722 258.955L450.247 264.427L452.271 272.651L445.073 268.183L437.875 272.657L439.893 264.432L433.419 258.961L441.877 258.343L445.073 250.492Z" fill="#FFE000"/>
</g>
<defs>
<clipPath id="clip0_103_3436">
<rect width="512" height="512" fill="white" transform="translate(0.5)"/>
</clipPath>
</defs>
</svg>
