<svg width="513" height="512" viewBox="0 0 513 512" fill="none" xmlns="http://www.w3.org/2000/svg">
<g clip-path="url(#clip0_103_3578)">
<path d="M0.5 0H512.5V512H0.5V0Z" fill="#003399"/>
<path d="M256.5 299C274.449 299 289 284.449 289 266.5C289 248.551 274.449 234 256.5 234C238.551 234 224 248.551 224 266.5C224 284.449 238.551 299 256.5 299Z" stroke="#FFCC00" stroke-width="29.3"/>
<path d="M256.5 360.7C308.525 360.7 350.7 318.525 350.7 266.5C350.7 214.475 308.525 172.3 256.5 172.3C204.475 172.3 162.3 214.475 162.3 266.5C162.3 318.525 204.475 360.7 256.5 360.7Z" stroke="#FFCC00" stroke-width="29.3"/>
<path d="M346.8 176.1L437.1 266.4L346.8 356.7L256.5 266.4L346.8 176.1Z" fill="#003399"/>
<path d="M102.6 251.8H165.8V281.1H102.6V251.8ZM379 251.8H473.2V281.1H379V251.8ZM302.4 199.9L343.7 158.6L364.4 179.3L323.1 220.6L302.4 199.9ZM241.8 51.8H271.1V166H241.8V51.8Z" fill="#FFCC00"/>
<path d="M155.3 185C163.419 185 170 178.419 170 170.3C170 162.181 163.419 155.6 155.3 155.6C147.182 155.6 140.6 162.181 140.6 170.3C140.6 178.419 147.182 185 155.3 185Z" fill="#FFCC00"/>
<path d="M69.0999 281.2C77.2185 281.2 83.7999 274.619 83.7999 266.5C83.7999 258.381 77.2185 251.8 69.0999 251.8C60.9813 251.8 54.3999 258.381 54.3999 266.5C54.3999 274.619 60.9813 281.2 69.0999 281.2Z" fill="#FFCC00"/>
<path d="M256.5 421.5C264.619 421.5 271.2 414.919 271.2 406.8C271.2 398.681 264.619 392.1 256.5 392.1C248.381 392.1 241.8 398.681 241.8 406.8C241.8 414.919 248.381 421.5 256.5 421.5Z" fill="#FFCC00"/>
<path d="M256.5 468.6C264.619 468.6 271.2 462.019 271.2 453.9C271.2 445.781 264.619 439.2 256.5 439.2C248.381 439.2 241.8 445.781 241.8 453.9C241.8 462.019 248.381 468.6 256.5 468.6Z" fill="#FFCC00"/>
<path d="M350.7 281.2C358.819 281.2 365.4 274.619 365.4 266.5C365.4 258.381 358.819 251.8 350.7 251.8C342.581 251.8 336 258.381 336 266.5C336 274.619 342.581 281.2 350.7 281.2Z" fill="#FFCC00"/>
<path d="M137.4 364.3L158.1 343.6L178.8 364.3L158.1 385L137.4 364.3ZM355.9 386.6L376.5 366L397.2 386.7L376.5 407.5L355.9 386.6Z" fill="#FFCC00"/>
</g>
<defs>
<clipPath id="clip0_103_3578">
<rect width="512" height="512" fill="white" transform="translate(0.5)"/>
</clipPath>
</defs>
</svg>
