<svg width="513" height="512" viewBox="0 0 513 512" fill="none" xmlns="http://www.w3.org/2000/svg">
<g clip-path="url(#clip0_103_3623)">
<path d="M0.5 0H512.5V512H0.5V0Z" fill="#000066"/>
<path fill-rule="evenodd" clip-rule="evenodd" d="M345.3 250.1L351 231.8L335.6 220.1L355 219.9L361.5 201.8L367.8 219.9L387.2 220.5L371.6 231.9L377.2 250.3L361.3 239.3M391 253.7L402.4 238.4L391.8 222.1L410.2 228.5L422.2 213.7V233L440.2 240.1L421.8 245.6L420.9 264.8L409.6 249M301.6 265.5L300.8 246.3L282.4 240.6L300.6 233.6V214.5L312.6 229.4L331 223.2L320.2 239.3L331.6 254.7L313 249.7M269.4 294.7L261.4 277.3L242.2 279.3L256.2 265.8L249 248.1L265.7 257.1L280.3 244.1L276.6 263.2L292.9 272.9L273.9 275.7M254.7 336.7L240.1 324.6L223.6 334.6L230.6 316.3L216.6 303.5L235.5 304.4L243.2 286.4L247.9 305.2L266.8 306.9L250.8 317.7M254.3 384L236.1 378.7L225.1 394.7L224.3 375L206.3 369L224 362.1V342.4L235.7 357.9L253.7 351.8L243.2 368.1M275.6 424L256.9 426.6L253.1 445.7L244.5 428L225.7 429.8L239.2 416.3L231.3 398.3L248.2 407.6L262.2 394.6L259.2 413.9M308.6 455.6L291.9 464.6L294.9 483.9L280.8 470.3L263.8 478.6L271.8 461.2L258.3 447.1L277.3 449.9L286 432.9L289.7 451.9M348.8 461.9L339.8 478.7L352.6 493.2L333.5 489.6L323.7 506L321 487L302.1 482.6L319.5 474.4L317.6 455.4L331.1 469.3M394.1 454.9L393.4 474.1L411.4 481.1L392.8 486.7L391.5 505.8L380.5 490.1L361.7 495L373.6 479.6L363.3 463.5L381.6 469.7M441.4 246.5L454.5 260.4L472 252.3L463 269.7L475.5 284L456.8 281L447 298L444.5 278.7L425.9 274.7L443.1 266M480.7 289.1L486.7 307.4L505.8 307.7L490.3 319.4L495.5 338L479.9 327L463.9 338.1L469.9 319.6L454.7 308L474 307.5M495.4 344L493.2 363L510.5 371.6L491.5 375.6L488.5 394.6L479 377.9L459.9 381.1L472.9 366.8L464.1 349.8L481.8 357.7M485 401.4L476.5 418.5L489.8 432.5L470.7 429.7L461.4 446.4L458.1 427.5L439.1 423.8L456.1 415L453.6 396L467.6 409.5M456.7 452.5L440.6 462.5L444.7 481.5L429.9 468.9L413.4 478.3L420.4 460.3L406 447.1L425.1 448.7L432.8 431.1L437.7 450.1" fill="white"/>
<path d="M0.5 -0.5H256.5V255.5H0.5V-0.5Z" fill="#000066"/>
<path d="M256.5 -0.5V31.5L161.5 127.5L256.5 221V255.5H223L127.5 161.5L34.5 255.5H0.5V221.5L93.5 128L0.5 36.5V-0.5H31.5L127.5 93.5L220.5 -0.5H256.5Z" fill="white"/>
<path d="M92.5 161.5L98 178.5L21.5 255.5H0.5V254L92.5 161.5ZM154.5 155.5L181.5 159.5L256.5 233V255.5L154.5 155.5ZM256.5 -0.5L160.5 97.5L158.5 75.5L233.5 -0.5H256.5ZM0.5 0L97 94.5L67.5 90.5L0.5 24V0Z" fill="#C8102E"/>
<path d="M88.5 -0.5V255.5H168.5V-0.5H88.5ZM0.5 87.5V167.5H256.5V87.5H0.5Z" fill="white"/>
<path d="M0.5 103.5V151.5H256.5V103.5H0.5ZM104.5 -0.5V255.5H152.5V-0.5H104.5Z" fill="#C8102E"/>
</g>
<defs>
<clipPath id="clip0_103_3623">
<rect width="512" height="512" fill="white" transform="translate(0.5)"/>
</clipPath>
</defs>
</svg>
