<svg width="513" height="512" viewBox="0 0 513 512" fill="none" xmlns="http://www.w3.org/2000/svg">
<g clip-path="url(#clip0_103_3640)">
<path d="M0.5 0H171.2V512H0.5V0Z" fill="#007A5E"/>
<path d="M171.2 0H341.8V512H171.2V0Z" fill="#CE1126"/>
<path d="M341.8 0H512.5V512H341.8V0Z" fill="#FCD116"/>
<path d="M256.5 210.489L242.278 253.724L263.896 261.12L256.5 210.489Z" fill="#FCD116"/>
<path d="M256.5 210.489L270.722 253.724L249.104 261.12L256.5 210.489Z" fill="#FCD116"/>
<path d="M299.784 241.936L254.269 241.771L253.916 264.616L299.784 241.936Z" fill="#FCD116"/>
<path d="M299.784 241.936L263.059 268.823L249.345 250.549L299.784 241.936Z" fill="#FCD116"/>
<path d="M283.251 292.819L269.344 249.481L247.507 256.205L283.251 292.819Z" fill="#FCD116"/>
<path d="M283.251 292.819L246.331 266.201L259.474 247.511L283.251 292.819Z" fill="#FCD116"/>
<path d="M229.749 292.819L266.669 266.201L253.526 247.511L229.749 292.819Z" fill="#FCD116"/>
<path d="M229.749 292.819L243.656 249.481L265.493 256.205L229.749 292.819Z" fill="#FCD116"/>
<path d="M213.216 241.936L249.941 268.823L263.655 250.549L213.216 241.936Z" fill="#FCD116"/>
<path d="M213.216 241.936L258.731 241.771L259.084 264.616L213.216 241.936Z" fill="#FCD116"/>
</g>
<defs>
<clipPath id="clip0_103_3640">
<rect width="512" height="512" fill="white" transform="translate(0.5)"/>
</clipPath>
</defs>
</svg>
