<svg width="513" height="512" viewBox="0 0 513 512" fill="none" xmlns="http://www.w3.org/2000/svg">
<g clip-path="url(#clip0_103_3666)">
<path d="M0.5 0H512.5V512H0.5V0Z" fill="#EE1C25"/>
<path d="M205.3 104.96L74.74 189.44L128.5 51.2L174.58 189.44L51.7 104.96H205.3Z" fill="#FFFF00"/>
<path d="M237.077 33.0495L283.597 55.8345L234.903 64.2014L266.469 27.3272L263.429 76.9068L237.077 33.0495Z" fill="#FFFF00"/>
<path d="M296.37 78.2083L330.381 117.326L282.236 106.078L325.692 84.3784L303.584 128.898L296.37 78.2083Z" fill="#FFFF00"/>
<path d="M307.074 152.531L322.155 202.153L282.779 172.21L331.333 170.146L292.954 201.774L307.074 152.531Z" fill="#FFFF00"/>
<path d="M266.51 205.632L261.274 257.178L236.532 214.4L282.074 231.219L234.51 245.568L266.51 205.632Z" fill="#FFFF00"/>
</g>
<defs>
<clipPath id="clip0_103_3666">
<rect width="512" height="512" fill="white" transform="translate(0.5)"/>
</clipPath>
</defs>
</svg>
