<svg width="513" height="512" viewBox="0 0 513 512" fill="none" xmlns="http://www.w3.org/2000/svg">
<g clip-path="url(#clip0_103_3692)">
<mask id="mask0_103_3692" style="mask-type:luminance" maskUnits="userSpaceOnUse" x="0" y="0" width="513" height="512">
<path d="M0.5 0H512.5V512H0.5V0Z" fill="white"/>
</mask>
<g mask="url(#mask0_103_3692)">
<path fill-rule="evenodd" clip-rule="evenodd" d="M-122.9 233H723.5V439H-123L-122.9 233Z" fill="white"/>
<path fill-rule="evenodd" clip-rule="evenodd" d="M-122.3 0H723.7V256.6H-122.3V0ZM-122 385.9H730.1V512H-122V385.9Z" fill="#081873"/>
<path fill-rule="evenodd" clip-rule="evenodd" d="M-122 302.6H724V342.2H-122V302.6Z" fill="#DE3929"/>
<path fill-rule="evenodd" clip-rule="evenodd" d="M131.5 399.2L138.1 419.6H159.5L142.1 432.3L148.7 452.8L131.5 440L114.1 452.7L120.8 432.2L103.4 419.5H124.9M317.5 250.4L324.2 270.9H345.5L328.1 283.5L334.7 304L317.3 291.3L299.9 304L306.5 283.5L289.1 270.9H310.7M88.7 335.3L95.3 355.8H116.8L99.5 368.6L106.2 389L88.8 376.4L71.4 389L78 368.6L60.6 355.9H82.1M317.5 329.5L324.2 349.9H345.5L328.1 362.6L334.7 383L317.3 370.4L299.9 383.1L306.5 362.6L289.1 349.9H310.7M270.2 188.2L276.9 208.6H298.5L281.1 221.3L287.7 241.8L270.3 229.1L252.9 241.8L259.6 221.3L242.1 208.6H263.7M199.2 163.4L205.9 183.9H227.4L210 196.5L216.6 217L199.2 204.4L181.8 217L188.5 196.5L171.1 183.9H192.5M128 186.8L134.7 207.3H156.2L138.8 219.9L145.5 240.4L128 227.7L110.6 240.4L117.3 219.9L99.9 207.3H121.5M86.7 250.5L93.3 271H114.9L97.4 283.6L104.1 304.1L86.7 291.4L69.3 304.1L75.9 283.6L58.5 271H80M199.2 420.4L205.9 440.9H227.4L210 453.5L216.7 474L199.2 461.3L181.8 474L188.5 453.5L171.1 440.9H192.5M274.7 399.2L281.3 419.6H302.8L285.5 432.3L292.2 452.8L274.8 440.1L257.3 452.8L264 432.3L246.6 419.6H268.1" fill="#FFCE08"/>
</g>
</g>
<defs>
<clipPath id="clip0_103_3692">
<rect width="512" height="512" fill="white" transform="translate(0.5)"/>
</clipPath>
</defs>
</svg>
