<svg width="513" height="512" viewBox="0 0 513 512" fill="none" xmlns="http://www.w3.org/2000/svg">
<g clip-path="url(#clip0_103_3711)">
<path d="M0.5 0H512.5V512H0.5V0Z" fill="#0021AD"/>
<path d="M0.5 0H512.5V512L0.5 0Z" fill="#1C8A42"/>
<path d="M256.5 317.7C290.576 317.7 318.2 290.076 318.2 256C318.2 221.924 290.576 194.3 256.5 194.3C222.424 194.3 194.8 221.924 194.8 256C194.8 290.076 222.424 317.7 256.5 317.7Z" fill="#FFC639"/>
<path d="M218.8 228.3C223.1 234.1 229.4 243.8 234.6 241.3C238.6 241.3 240.6 241.6 241.2 244.3C247.9 244.97 254.66 243.916 260.839 241.238C267.017 238.56 272.408 234.348 276.5 229C276.5 229 277.3 229 277 224.2C277 222 280 222.5 280 223.2C280.4 224.2 280.3 225 280.9 225C282.1 224.6 283.8 221.9 285.2 220.2C285.5 219.4 285.3 218.6 285.4 217.6C286.2 215.8 288 216.2 288.4 217.2C288.7 217.8 288.7 218.2 289.1 218.9C290.9 220.1 294.3 218.9 294.6 218.9C294.9 217.4 295.9 217.6 295.9 217.6C297.1 217.3 296.6 217.4 297.5 217.8C296.7 226 299.1 226.4 298.9 230.6C298.9 235.3 297.5 236.6 297.5 238.4C297.9 240.6 304.8 240.7 302.5 242.5C300.3 243.7 302.5 245.8 299.2 246.6C289.8 251.4 288 255.5 288 255.5C288 255.5 285.7 259.9 285.4 259.9C283.8 262.9 281.9 261.3 280.7 262.7C280.2 264.5 279.6 268.6 280.7 270.7C281.2 273.5 280.7 275.1 279.9 278C279.3 284 276.9 284.9 276.6 287C275.6 289.2 276.9 299.8 275.8 299.8C268.8 299.9 263.5 298.5 260.8 297.9C263.4 286.3 262.4 276.1 262.4 275.1C261.7 266.8 250 268.8 248.2 267.7C246.7 267.4 245.8 266.2 245.2 265.7C243.6 265.5 243 265.1 241.3 264.9C240.5 265.3 241 265.8 239.1 266.3C234.5 266.9 232.4 262.3 232.4 262.3C232.6 260.7 221.9 262.6 216 261.3C213.6 262.6 212.6 266.5 210.6 267C210.6 268.2 207.4 266 206.7 264.8C206.7 261.3 209.8 259.8 209.8 259.8C212.3 257.9 213.8 257.6 215.1 256.4C215.7 253.4 215.4 251.1 216.7 248.8C217.7 247.1 219.4 247.8 220.5 247.1C221.7 246.3 222.2 241.1 221.1 239.8L216.1 235.3C214.5 230.8 217.9 228 218.8 228.3Z" fill="#1C8A42"/>
<path d="M452.8 63.7C450 52.7 424.9 28.9 406.2 13.7C401.7 10.7 398.8 12.5 399.3 16.8C401.7 20.8 403.4 25 405.8 28.9C406.4 31.5 407.7 33.3 408.3 35.9C408.3 35.9 408.5 40.4 408.9 40.9C412.142 44.1525 414.426 48.2351 415.5 52.7C418.458 58.9948 422.639 64.6378 427.8 69.3C434.4 73.5 429.6 86.4 429.8 93.3C429.8 97.6 426.6 97.1 423.9 96.6C402.4 76.8 381.1 76.8 362.3 71.1C354.9 70.3 354.8 73.8 357.2 75.7C370.3 89.7 382.7 99.3 398.9 107.3L407.1 112.4L416.5 120.2C423.7 124.9 424.3 129.2 424.3 129.6C424.5 138.4 419.8 145.2 418.5 147.9C416 157.2 411 158.9 411 158.9C370.9 185.9 349.8 192.9 284.6 184.6C283.6 184.1 277.4 185.1 284.6 187.7C301.2 193.2 341.9 202.1 381.3 183.4C390.8 176.8 397.2 179 404 175C415.3 168 431.3 159.4 434.3 158.5C443 153.8 467.6 148.5 473.3 143.8C479.8 143.3 486.5 142.4 487 136.8C489.1 135.5 492.2 136.5 494.5 131.9C499.7 131 498.8 129.2 498.8 129.2C497.5 125.5 492.8 124 489.3 121.4C484.2 119.7 480.7 119.2 477 121L473.5 122.6C473.5 122.6 468 121.8 468 121.4C455.9 120.7 457 80.4 452.8 63.7Z" fill="#FFC639"/>
<path d="M117.179 312.79L108.44 304.598L99.634 312.653L100.59 300.775L88.7795 298.864L98.6783 292.173L92.8073 281.797L104.208 285.415L108.645 274.356L112.946 285.483L124.347 282.07L118.339 292.31L128.17 299.137L116.359 300.843L117.179 312.722V312.79Z" fill="white"/>
<path d="M148.035 411.436L138.615 405.223L129.467 411.777L132.744 401.196L123.459 394.71L134.792 394.437L138.205 383.856L142.028 394.301L153.428 394.232L144.349 400.854L147.967 411.368L148.035 411.436Z" fill="white"/>
<path d="M118.885 496.496L110.147 488.304L101.341 496.36L102.296 484.481L90.4861 482.57L100.385 475.88L94.5138 465.503L105.914 469.121L110.352 458.062L114.653 469.19L126.053 465.776L120.046 476.016L129.876 482.843L118.066 484.55L118.885 496.428V496.496Z" fill="white"/>
<path d="M40.6513 396.895L31.9131 388.703L23.1066 396.758L24.0624 384.88L12.2522 382.968L22.1509 376.278L16.2799 365.902L27.6805 369.52L32.1179 358.461L36.4187 369.588L47.8193 366.175L41.8118 376.415L51.6423 383.242L39.8321 384.948L40.6513 396.827V396.895Z" fill="white"/>
<path d="M191.18 370.817L182.442 362.625L173.635 370.68L174.591 358.802L162.781 356.89L172.68 350.2L166.809 339.824L178.209 343.442L182.647 332.383L186.948 343.51L198.348 340.097L192.341 350.337L202.171 357.164L190.361 358.87L191.18 370.749V370.817Z" fill="white"/>
</g>
<defs>
<clipPath id="clip0_103_3711">
<rect width="512" height="512" fill="white" transform="translate(0.5)"/>
</clipPath>
</defs>
</svg>
