<svg width="513" height="512" viewBox="0 0 513 512" fill="none" xmlns="http://www.w3.org/2000/svg">
<g clip-path="url(#clip0_103_3728)">
<path d="M0.5 0H512.5V512H0.5V0Z" fill="white"/>
<path d="M243.5 425.2C243.388 425.154 243.286 425.086 243.2 425V424.9L241.8 423.5C240.399 421.923 239.065 420.288 237.8 418.6L232.5 412L231.8 411.1L225.2 409.1L220.4 406.8L222.9 403.9L231.9 407.7L238.5 409.1L250.7 418.1C248.353 420.146 246.084 422.281 243.9 424.5C243.82 424.626 243.753 424.76 243.7 424.9L244.5 424.4L245.3 425.1L243.6 425.2H243.5ZM198 411.5C192.2 411.5 186.5 409.9 181 406.7C175.5 403.5 181.8 405.4 183.5 404.1C185.1 402.9 188.1 401.4 193 401.4C198.8 401.4 205.8 403.4 213.9 407.2C213.6 407.4 207.2 411.5 198 411.5ZM173 406C171.9 406 171 405.5 170.2 404.8C169.593 404.083 169.18 403.222 169 402.3C168.736 401.153 168.635 399.975 168.7 398.8C169.136 398.575 169.611 398.439 170.1 398.4C172.3 398.4 174 400.4 174.7 402.2C175.1 403.2 175.2 404.1 175 404.8C174.8 405.5 173.9 405.9 173 405.9V406ZM217 400.8C202.2 398.8 196 393.4 193.3 389.2C191.598 386.707 190.787 383.712 191 380.7C191 380.7 192 380.5 193.3 380.5C197.3 380.5 207.3 382.5 217 400.8ZM186.7 397.9C180.4 397.9 175.5 396.9 172.4 394.7C171.019 393.821 169.911 392.574 169.2 391.1C168.947 390.562 168.779 389.989 168.7 389.4C171.114 388.428 173.698 387.952 176.3 388C181.3 388 188.7 389.6 196.5 397.2C193.248 397.608 189.977 397.841 186.7 397.9ZM156.1 396.7C149.4 396.7 140.2 394.7 134.5 389C139.253 387.872 144.115 387.269 149 387.2C155.3 387.2 160 388.4 163.2 390.8C164.4 391.6 165 392.4 165.1 393.2C165.2 393.8 164.9 394.5 164.2 395C162.8 396 160.2 396.7 156.6 396.7H156.1ZM134.4 385.7C134.015 385.686 133.637 385.589 133.292 385.417C132.947 385.244 132.643 385 132.4 384.7C131.892 384.059 131.548 383.304 131.4 382.5C131 380.9 131.1 379.4 131.1 379.4C131.401 379.213 131.746 379.11 132.1 379.1C133.1 379.1 133.9 379.6 134.4 380.1C135.022 380.722 135.5 381.473 135.8 382.3C136.1 383.3 136.2 384 136 384.6C135.8 385.1 135.2 385.6 134.4 385.6V385.7ZM184.4 384.5C183.3 384.5 182.4 384.1 181.7 383.4C181.093 382.683 180.68 381.822 180.5 380.9C180.226 379.721 180.125 378.508 180.2 377.3C180.612 377.122 181.052 377.02 181.5 377C183.7 377 185.5 378.9 186.1 380.7C186.5 381.7 186.6 382.7 186.4 383.3C186.1 384 185.3 384.5 184.4 384.5ZM160 383.5C146.6 383 139.6 379.2 136.2 376.1C134.677 374.785 133.421 373.189 132.5 371.4C132.197 370.76 131.962 370.09 131.8 369.4C131.8 369.4 133 368.9 135.1 368.9H135.4C139.9 368.9 149.2 370.8 160 383.5ZM174.6 382.1C166.941 381.278 159.82 377.771 154.5 372.2C152.493 370.08 150.959 367.558 150 364.8C150 364.8 151.4 364.5 153.4 364.4C153.7 364.392 154 364.392 154.3 364.4C159.7 364.5 169.6 367 174.6 382.1ZM119.2 376.9C115.6 376.9 112.2 376.6 109 375.7C103.3 374.3 100.9 372.2 99.8 370.6C99.3757 369.934 99.1026 369.183 99 368.4C98.9624 368.101 98.9624 367.799 99 367.5C99 367.5 102.7 366.5 107.9 366.4C110.551 366.353 113.199 366.587 115.8 367.1C121.251 368.23 126.113 371.283 129.5 375.7C129.5 375.7 125.2 376.9 119.2 376.9ZM144.2 367.9C143.2 367.9 142.2 367.4 141.5 366.7C140.893 365.983 140.48 365.122 140.3 364.2C140.033 363.054 139.932 361.875 140 360.7C140.412 360.522 140.852 360.42 141.3 360.4H141.4C143.6 360.4 145.3 362.2 146 364.1C146.4 365.1 146.5 365.9 146.2 366.7C145.9 367.4 145.2 367.8 144.2 367.8V367.9ZM125.4 365.2C125.3 365.2 120.3 364 115.2 360.8C110.4 357.8 104.7 352.8 103.9 344.8C103.1 336.8 104.4 344.6 105.1 344.6H105.3C106.7 344.6 109.6 345 113.1 347.6C117.6 351 121.7 357 125.4 365.3V365.2ZM137.7 364.8C137.7 364.8 134.1 363.4 129.7 359.6C123.362 354.228 118.421 347.4 115.3 339.7C115.3 339.7 116.3 339.2 117.8 339.1C117.9 339.096 118 339.096 118.1 339.1H118.5C120.5 339.1 123.6 340 127.1 343.8C132.106 349.954 135.723 357.117 137.7 364.8ZM105.7 363.8C101.7 363.8 100.3 361.6 99.8 360.7C99.4082 359.682 99.2709 358.583 99.4 357.5C100.053 357.325 100.724 357.225 101.4 357.2H101.6C104.8 357.2 107.4 358.9 108.5 360.5C108.7 360.8 109.4 362 108.8 362.8C108.4 363.5 107.4 363.8 105.8 363.8H105.7ZM96.7 352.4C94.4 352.4 90.9 352.2 87.2 351.6C83.5 350.9 81.4 347.8 80.3 345.3C79.5627 343.609 79.0581 341.826 78.8 340C90.1 340.3 95.5 343.6 98 346.3C99.5511 347.938 100.503 350.053 100.7 352.3H96.7V352.4ZM108.5 340.6C107.575 339.443 106.708 338.242 105.9 337C104.5 334.9 103.3 332.7 103.3 331C103.208 328.526 103.008 326.057 102.7 323.6L102 318.6C102.3 318.8 109.1 321.3 109.1 327.7C109.1 334.1 108.5 340.5 108.5 340.6ZM99.7 340H99.4C97.4 339.6 93.9 338 90 335.8C86.2987 333.833 82.9252 331.302 80 328.3C78.2 326.2 77 322.8 76.8 318.3C76.6376 316.303 76.6376 314.297 76.8 312.3C77.1791 312.13 77.5854 312.028 78 312C79.5 312 81 312.7 83.2 314.2C85.1985 315.603 87.0722 317.175 88.8 318.9C90.9545 321.055 92.9908 323.325 94.9 325.7C97.0255 329.663 98.8636 333.774 100.4 338V339.5C100.32 339.678 100.178 339.82 100 339.9C99.8681 339.927 99.732 339.927 99.6 339.9L99.7 340Z" fill="#435125"/>
<path d="M220.2 425.2C220.312 425.154 220.415 425.086 220.5 425V424.9L221.9 423.5C223.301 421.923 224.635 420.288 225.9 418.6L231.2 412L231.9 411.1L238.5 409.1L243.3 406.8L240.8 403.9L231.8 407.7L225.2 409.1L213 418.1C215.347 420.146 217.616 422.281 219.8 424.5C219.88 424.626 219.947 424.76 220 424.9L219.2 424.4L218.4 425.1L220.1 425.2H220.2ZM265.7 411.5C271.5 411.5 277.2 409.9 282.7 406.7C288.2 403.5 281.9 405.4 280.2 404.1C278.6 402.9 275.6 401.4 270.7 401.4C264.9 401.4 257.9 403.4 249.8 407.2C250.1 407.4 256.5 411.5 265.7 411.5ZM290.7 406C291.8 406 292.7 405.5 293.5 404.8C294.107 404.083 294.52 403.222 294.7 402.3C294.964 401.153 295.065 399.975 295 398.8C294.564 398.575 294.089 398.439 293.6 398.4C291.4 398.4 289.7 400.4 289 402.2C288.6 403.2 288.5 404.1 288.7 404.8C288.9 405.5 289.8 405.9 290.7 405.9V406ZM246.7 400.8C261.5 398.8 267.7 393.4 270.4 389.2C272.102 386.707 272.913 383.712 272.7 380.7C272.7 380.7 271.7 380.5 270.4 380.5C266.4 380.5 256.4 382.5 246.7 400.8ZM277 397.9C283.3 397.9 288.2 396.9 291.3 394.7C292.681 393.821 293.789 392.574 294.5 391.1C294.753 390.562 294.921 389.989 295 389.4C292.586 388.428 290.002 387.952 287.4 388C282.4 388 275 389.6 267.2 397.2C270.452 397.608 273.723 397.841 277 397.9ZM307.6 396.7C314.3 396.7 323.5 394.7 329.2 389C324.447 387.872 319.585 387.269 314.7 387.2C308.4 387.2 303.7 388.4 300.5 390.8C299.3 391.6 298.7 392.4 298.6 393.2C298.5 393.8 298.8 394.5 299.5 395C300.9 396 303.5 396.7 307.1 396.7H307.6ZM329.3 385.7C329.685 385.686 330.063 385.589 330.408 385.417C330.753 385.244 331.057 385 331.3 384.7C331.808 384.059 332.152 383.304 332.3 382.5C332.7 380.9 332.6 379.4 332.6 379.4C332.299 379.213 331.954 379.11 331.6 379.1C330.6 379.1 329.8 379.6 329.3 380.1C328.678 380.722 328.2 381.473 327.9 382.3C327.6 383.3 327.5 384 327.7 384.6C327.9 385.1 328.5 385.6 329.3 385.6V385.7ZM279.3 384.5C280.4 384.5 281.3 384.1 282 383.4C282.607 382.683 283.02 381.822 283.2 380.9C283.474 379.721 283.575 378.508 283.5 377.3C283.088 377.122 282.648 377.02 282.2 377C280 377 278.2 378.9 277.6 380.7C277.2 381.7 277.1 382.7 277.3 383.3C277.6 384 278.4 384.5 279.3 384.5ZM303.7 383.5C317.1 383 324.1 379.2 327.5 376.1C329.023 374.785 330.279 373.189 331.2 371.4C331.504 370.76 331.738 370.09 331.9 369.4C331.9 369.4 330.7 368.9 328.6 368.9H328.3C323.8 368.9 314.5 370.8 303.7 383.5ZM289.1 382.1C296.759 381.278 303.88 377.771 309.2 372.2C311.207 370.08 312.741 367.558 313.7 364.8C313.7 364.8 312.3 364.5 310.3 364.4C310 364.392 309.7 364.392 309.4 364.4C304 364.5 294.1 367 289.1 382.1ZM344.5 376.9C348.1 376.9 351.5 376.6 354.7 375.7C360.4 374.3 362.8 372.2 363.9 370.6C364.324 369.934 364.597 369.183 364.7 368.4C364.738 368.101 364.738 367.799 364.7 367.5C364.7 367.5 361 366.5 355.8 366.4C353.149 366.353 350.501 366.587 347.9 367.1C342.45 368.23 337.587 371.283 334.2 375.7C334.2 375.7 338.5 376.9 344.5 376.9ZM319.5 367.9C320.5 367.9 321.5 367.4 322.2 366.7C322.807 365.983 323.22 365.122 323.4 364.2C323.667 363.054 323.768 361.875 323.7 360.7C323.288 360.522 322.848 360.42 322.4 360.4H322.3C320.1 360.4 318.4 362.2 317.7 364.1C317.3 365.1 317.2 365.9 317.5 366.7C317.8 367.4 318.5 367.8 319.5 367.8V367.9ZM338.3 365.2C338.4 365.2 343.4 364 348.5 360.8C353.3 357.8 359 352.8 359.8 344.8C360.6 336.8 359.3 344.6 358.6 344.6H358.4C357 344.6 354.1 345 350.6 347.6C346.1 351 342 357 338.3 365.3V365.2ZM326 364.8C326 364.8 329.6 363.4 334 359.6C340.338 354.228 345.279 347.4 348.4 339.7C348.4 339.7 347.4 339.2 345.9 339.1C345.8 339.096 345.7 339.096 345.6 339.1H345.2C343.2 339.1 340.1 340 336.6 343.8C331.594 349.954 327.978 357.117 326 364.8ZM358 363.8C362 363.8 363.4 361.6 363.9 360.7C364.292 359.682 364.429 358.583 364.3 357.5C363.647 357.325 362.976 357.225 362.3 357.2H362.1C358.9 357.2 356.3 358.9 355.2 360.5C355 360.8 354.3 362 354.9 362.8C355.3 363.5 356.3 363.8 357.9 363.8H358ZM367 352.4C369.3 352.4 372.8 352.2 376.5 351.6C380.2 350.9 382.3 347.8 383.4 345.3C384.137 343.609 384.642 341.826 384.9 340C373.6 340.3 368.2 343.6 365.7 346.3C364.149 347.938 363.197 350.053 363 352.3H367V352.4ZM355.2 340.6C356.125 339.443 356.992 338.242 357.8 337C359.2 334.9 360.4 332.7 360.4 331C360.492 328.526 360.692 326.057 361 323.6L361.7 318.6C361.4 318.8 354.6 321.3 354.6 327.7C354.6 334.1 355.2 340.5 355.2 340.6ZM364 340H364.3C366.3 339.6 369.8 338 373.7 335.8C377.401 333.833 380.775 331.302 383.7 328.3C385.5 326.2 386.7 322.8 386.9 318.3C387.062 316.303 387.062 314.297 386.9 312.3C386.521 312.13 386.115 312.028 385.7 312C384.2 312 382.7 312.7 380.5 314.2C378.502 315.603 376.628 317.175 374.9 318.9C372.746 321.055 370.709 323.325 368.8 325.7C366.675 329.663 364.836 333.774 363.3 338V339.5C363.38 339.678 363.522 339.82 363.7 339.9C363.832 339.927 363.968 339.927 364.1 339.9L364 340Z" fill="#435125"/>
<path d="M468.8 81.5L466.8 82.3L466 82.6L463.6 82.4L461.3 83.5L457.3 86.3L457.1 86.4L455.6 86.8L454.2 86.2L453.4 86.6L453.1 88.2L452.4 89.4L451.4 90.1L448.2 90.4L445.5 91.8L441.9 90.8L440.3 91.5L436.8 94.6L435 95.5H434.4L432 95.3L431 95.7L429.5 97L426.7 97.2L425.8 97.8L424.4 100.6L422.9 102.2L422.1 102.3L421.1 102L420.4 102.1L420.1 103.9L419.5 104.7L417.5 105.3L416.1 106.6L414.7 107.2H412.5L410.8 108.2L407.4 108.5L406.1 109.8L405.7 110.1L405.1 110.5L404.1 111.1L403.8 111.3L402.5 111L401 111.6L400.4 110.6L399.4 111.3H398L396.3 110.6L395 110L394 110.2L393.7 111.8V112L392.7 113.3L390.8 114.4L390.6 114.8L388.5 117.5L384.5 121.8L381 123.5L377.5 124.5L375 126.5L368.5 129.8L358.3 134.9L356.2 135.6L353.2 136L347.9 138L343.1 139.4L342.8 139.5L341.9 139.8L335.3 141.8L332.2 141.5L330.3 142.2L325.5 141.6L322.2 141.7L320.2 142.1L316.2 144.1L309.5 147.2L307.3 149.2L303.8 151.1L299.8 152.3V150.6L298.4 151L297.4 151.3L294.1 151.8H292.3L291.2 151.5H291L284.3 153.8L276.9 154.5L273.2 155.7H270.4L268.6 156.1L265.2 156.6L264 156.2H263.7L253.7 156.6L249.1 156.1L246.9 156.6L243.3 155.3L237.9 154.7L236.7 154.3L233.9 153.5L232.6 154.2L231.6 154.3L229.4 153.5H228.5L226.7 154.2L225.6 153.9L224.6 153.1L222.2 152.8L220.8 151.5L212.8 152.6L210.6 152L203.3 149.8L202.1 149.9L200.7 150.9L198.5 151.8L196.6 152.3H194L191 151.6L188 150.1L186.8 149.8L184.3 150.1H183.5L178.9 147.6L172.9 143.9L168.8 141.9L167.2 141.7L167 142.4L167.8 144.8L168.1 147.2L168 149.3V150.7L168.3 151.9L169.8 153.5L170.4 155.2L170.9 159.7V164.3L170.1 171.6L169.9 172.6L169 176.5L168.3 179.9L165.3 189.2L164.4 190.3L162.4 191.7L157.7 194.9L154.3 196.9L153.3 197.3L150.5 197.5L148.8 197.4L146.6 196.2L144.6 195.7L141.8 193.7L138.7 193.1L135.3 191.1L134.5 190.1L132.6 189.9L130.1 189.1L129.1 188.9L128.5 188.7L125.3 188.6L122.3 187.2L120.7 186.8L118.5 186.7L116.2 187.7L115.1 188.3L113.6 187.7H112.6L111.3 189.6L111.2 189.9L110.4 190.3H108.5L107.7 190.6L106.5 191.1L105.5 191.6L105 191.8H104.6L104.1 192H103.4L102.2 191.4L101.6 191L100.5 190.8L99.8999 191.2V193.2L99.2999 194.3L97.4999 196L95.7999 197.5L94.5999 199.3L91.4999 206.4L89.4999 209.4L88.8999 210L86.8999 212.3L84.9999 213.7L80.7999 216.9L76.7999 218.4L73.3999 219.1H71.7999L68.5999 218.7L65.7999 217.8L62.6999 215.8L59.1999 213.1L54.2999 208.2L53.5999 207.8H53.4999L51.9999 206.8H50.7999L50.3999 207.5L50.0999 208.5L49.8999 209.5L49.3999 215V215.3L49.6999 217.5L53.4999 222.8L54.5999 225.6L54.7999 225.9L55.5999 227.2L56.1999 228.2L57.4999 232L56.5999 234.2L57.0999 235.6L55.8999 236.5L55.6999 237.7L59.0999 242L59.7999 243.8L58.9999 246.4L57.6999 247.8L57.2999 248.2L57.4999 249.3L59.0999 250.7L61.6999 253.1L63.0999 256.6L64.0999 257.5L65.3999 257.2L66.0999 257.8H67.0999L68.0999 258.8L68.7999 259.1L69.8999 259.6L70.6999 260.7L70.8999 264L72.4999 268.2V270.8L73.4999 272.4L73.7999 273.7L73.2999 277.2L74.4999 278.3L75.7999 278L76.6999 278.2L78.0999 279.3L79.7999 281.9L81.3999 281.7L82.3999 282.2L87.3999 286.7L88.5999 287.3L89.5999 287.7L90.5999 288.7L92.0999 287.7H92.2999L93.9999 287.5L94.7999 288L96.1999 289H98.1999L102.2 290.3L104.1 290.7L107.7 293L109.3 294L110.2 294.7L111.4 295.7L113.8 296.7L115.8 297.2L117 297.5L117.9 297.8L122.4 299.6L124.8 300.1L127.1 301L128.7 301.6H129.9L131.6 300.1H133.3L134.7 300.4L136 300.2L138.1 298.9L138.6 298.2L140.1 297.5L145.1 296.9L146.6 297.4L150.4 295.7L153 296.4L155.2 295.6L160.2 296.7L161.5 297.7L162.9 299.3H164.7L164.1 300.5L166.2 302.8L168.2 305.8V306.1L169.7 310.2L170.7 311.7L171.5 313.7V315.1L170.4 316L170.2 316.5V316.7L170.4 317.2L170.8 317L171.6 316.5L172.6 316.4L174.4 316.6H175.5L177.4 315.8L178.6 315.2L180.6 316H182.7L183.6 316.4L186.2 317.5L187.5 317.7L188 317.3L188.3 316.6L188.1 315.8L187.1 314.6L185 312.1L184 310.8L183.4 309L183.2 306.6L183 305L183.3 302.9L183.9 302.1L184.3 300.4L184.4 300L185.6 298.4L188.8 296.4L192.2 293.4L194.9 291.5L197.7 290.3V290L198.1 290.1L205.1 287.7H205.3L208.4 287.1L229.7 288.6L230.5 288.4L231.2 286.4L231.6 286L231.8 285.8L234.2 284.8L235.2 284.6L238.2 285.4L239.5 285.7L241.5 284.6H242.9L245.9 283H247.7L248.3 282.8L251.8 280.2L255.2 279.2L256.2 278.8L256.4 278.6L259.9 276.8L262.1 275.1L264 274.1L266 273.6L271.5 273.2L272.6 271.4L274.9 271L276.4 269.4L278 268.8L279.1 267.1L280.1 265.7L281.5 264.9L285.8 264.7L291 265.3L291.7 264.9L292.8 260.7L294 259.9L297.3 255.2V252L297.9 249.9L297.5 246.1L298 242.3L300 237.5L301.8 235.5L304.7 233.6L306.2 233L308.2 232.6H308.6L309.1 232.5L316.3 232.4H318.9L321.3 232.3L327.3 233.3L327.8 233.5L329.8 234.1L332.2 236L334.7 238.4L335.2 238.9L336.8 239.5L337.3 239.8L338.7 239.5L340.6 238.5L342 237.3L344 236.3V236.2L345.1 234.5L345.6 233.8L349.4 232.3L353.9 232.1L354.4 231.8L354.7 231.7L355.8 230.3H356.9L359.6 231.3L361.5 230.9L363 231.5L364.1 231.3L366.3 231.1L368.7 232.7L370.1 232.9L374.9 235.7H375.3L375.5 235.8L376.1 235.7L377 235.4L377.2 235.5L377.7 236.3L378.5 236.4L379.4 235.2L379 234.7L378.9 234.5L377.2 234.1L375.6 231.5L377.1 229.9L374.8 227.1L374.4 226.6L374.3 226.4L373.5 225.2L369.5 219L364.1 214.8L362.3 213.3L361.6 212.8L358.8 209.9L356.8 207.3L356.5 206.7L356.1 205.7L354.9 203.2L352.9 201.5L351.1 199.7V199.6L347.5 194.8L346.9 194L346.1 193.5H344.3L344.1 193.3V193.2L344.9 192.2L345.9 192L346.3 191.1L344.5 185.9V185.7L344.3 184.1L345.8 176.5L346 175.5L348.5 170.5L350.1 169.2L351.7 165.9L353.2 163.8L354.6 162.4L354.8 162.3L357.3 160.8L359.4 160.5L361.4 160.2L364.9 161.2H368.9L370.4 161L372.9 160.2L374.1 159.5L374.7 158.5L375.9 154.3L376.4 152.9L377.1 151.5L381.7 146.2L385.1 143.1L392.8 137.4L396.6 135.2L398.5 134L415.7 126.4L420.1 121.9L422.4 119.5L426.6 116.8L431.4 114.8L435.5 111.5L436.4 110.4L437.6 106.7L438.5 106.5L439.4 104.6L439.6 104.1L443 101.7L443.4 101.5L456.5 95L458.5 95.2L459.5 93.7L463.3 93.1L463.9 92.9L464.9 92.5L465.7 91.1V90.8L465.8 87.2L466.6 86.2L467.1 83.8L467.5 83.2L467.9 82.7L469 81.9L468.8 81.4V81.5Z" fill="#D47600"/>
</g>
<defs>
<clipPath id="clip0_103_3728">
<rect width="512" height="512" fill="white" transform="translate(0.5)"/>
</clipPath>
</defs>
</svg>
