<svg width="513" height="512" viewBox="0 0 513 512" fill="none" xmlns="http://www.w3.org/2000/svg">
<g clip-path="url(#clip0_103_3733)">
<path d="M0.5 0H512.5V512H0.5V0Z" fill="white"/>
<path fill-rule="evenodd" clip-rule="evenodd" d="M512.5 444C506.8 451 501.9 467.4 486.6 467.4C456.1 467.4 448.5 432.8 425.6 432.8C410.4 432.8 402.8 467.5 387.6 467.5C357 467.5 349.4 432.8 326.6 432.8C311.3 432.8 303.7 467.5 288.6 467.5C258 467.5 250.4 432.8 227.6 432.8C212.3 432.8 204.7 467.5 189.5 467.5C159 467.5 151.4 432.8 128.5 432.8C113.2 432.8 105.6 467.5 90.4 467.5C59.9 467.5 52.3 432.8 29.4 432.8C14.2 432.8 9.7 457.5 0.5 457.5V502C9.7 502 14.2 477.3 29.5 477.3C52.3 477.3 60 512 90.4 512C105.7 512 113.3 477.3 128.5 477.3C151.4 477.3 159 512 189.5 512C204.7 512 212.3 477.3 227.5 477.3C250.4 477.3 258.1 512 288.5 512C303.8 512 311.4 477.3 326.6 477.3C349.5 477.3 357.1 512 387.6 512C402.8 512 410.4 477.3 425.6 477.3C448.5 477.3 456.2 512 486.6 512C501.9 512 506.8 502.2 512.5 495.2V444ZM512.5 357.4C506.8 364.5 501.9 380.8 486.6 380.8C456.1 380.8 448.5 346.2 425.6 346.2C410.4 346.2 402.8 380.8 387.6 380.8C357 380.8 349.4 346.2 326.6 346.2C311.3 346.2 303.7 380.8 288.6 380.8C258 380.8 250.4 346.2 227.6 346.2C212.3 346.2 204.7 380.8 189.5 380.8C159 380.8 151.4 346.2 128.5 346.2C113.2 346.2 105.6 380.8 90.4 380.8C59.9 380.8 52.3 346.2 29.4 346.2C14.2 346.2 9.7 370.9 0.5 370.9V415.5C9.7 415.5 14.2 390.8 29.5 390.8C52.3 390.8 60 425.5 90.4 425.5C105.7 425.5 113.3 390.8 128.5 390.8C151.4 390.8 159 425.5 189.5 425.5C204.7 425.5 212.3 390.8 227.5 390.8C250.4 390.8 258.1 425.5 288.5 425.5C303.8 425.5 311.4 390.8 326.6 390.8C349.5 390.8 357.1 425.5 387.6 425.5C402.8 425.5 410.4 390.8 425.6 390.8C448.5 390.8 456.2 425.5 486.6 425.5C501.9 425.5 506.8 415.7 512.5 408.6V357.4ZM512.5 270.8C506.8 278 501.9 294.3 486.6 294.3C456.1 294.3 448.5 259.6 425.6 259.6C410.4 259.6 402.8 294.3 387.6 294.3C357 294.3 349.4 259.6 326.6 259.6C311.3 259.6 303.7 294.3 288.6 294.3C258 294.3 250.4 259.6 227.6 259.6C212.3 259.6 204.7 294.3 189.5 294.3C159 294.3 151.4 259.6 128.5 259.6C113.2 259.6 105.6 294.3 90.4 294.3C59.9 294.3 52.3 259.6 29.4 259.6C14.2 259.6 9.7 284.4 0.5 284.4V328.9C9.7 328.9 14.2 304.3 29.5 304.3C52.3 304.3 60 338.9 90.4 338.9C105.7 338.9 113.3 304.3 128.5 304.3C151.4 304.3 159 338.9 189.5 338.9C204.7 338.9 212.3 304.3 227.5 304.3C250.4 304.3 258.1 338.9 288.5 338.9C303.8 338.9 311.4 304.3 326.6 304.3C349.5 304.3 357.1 338.9 387.6 338.9C402.8 338.9 410.4 304.3 425.6 304.3C448.5 304.3 456.2 338.9 486.6 338.9C501.9 338.9 506.8 329 512.5 322V270.8ZM512.5 184.3C506.8 191.3 501.9 207.7 486.6 207.7C456.1 207.7 448.5 173.1 425.6 173.1C410.4 173.1 402.8 207.7 387.6 207.7C357 207.7 349.4 173.1 326.6 173.1C311.3 173.1 303.7 207.7 288.6 207.7C258 207.7 250.4 173.1 227.6 173.1C212.3 173.1 204.7 207.7 189.5 207.7C159 207.7 151.4 173.1 128.5 173.1C113.2 173.1 105.6 207.7 90.4 207.7C59.9 207.7 52.3 173.1 29.4 173.1C14.2 173.1 9.7 197.8 0.5 197.8V242.4C9.7 242.4 14.2 217.7 29.5 217.7C52.3 217.7 60 252.4 90.4 252.4C105.7 252.4 113.3 217.7 128.5 217.7C151.4 217.7 159 252.4 189.5 252.4C204.7 252.4 212.3 217.7 227.5 217.7C250.4 217.7 258.1 252.4 288.5 252.4C303.8 252.4 311.4 217.7 326.6 217.7C349.5 217.7 357.1 252.4 387.6 252.4C402.8 252.4 410.4 217.7 425.6 217.7C448.5 217.7 456.2 252.4 486.6 252.4C501.9 252.4 506.8 242.4 512.5 235.4V184.3ZM512.5 97.7C506.8 104.7 501.9 121.2 486.6 121.2C456.1 121.2 448.5 86.5 425.6 86.5C410.4 86.5 402.8 121.2 387.6 121.2C357 121.2 349.4 86.5 326.6 86.5C311.3 86.5 303.7 121.2 288.6 121.2C258 121.2 250.4 86.5 227.6 86.5C212.3 86.5 204.7 121.2 189.5 121.2C159 121.2 151.4 86.5 128.5 86.5C113.2 86.5 105.6 121.2 90.4 121.2C59.9 121.2 52.3 86.5 29.4 86.5C14.2 86.6 9.6 111.5 0.5 111.5V156C9.7 156 14.2 131.3 29.5 131.3C52.3 131.3 59.9 165.9 90.5 165.9C105.7 165.9 113.3 131.3 128.5 131.3C151.4 131.3 159 165.9 189.5 165.9C204.7 165.9 212.3 131.3 227.5 131.3C250.4 131.3 258 165.9 288.5 165.9C303.8 165.9 311.4 131.3 326.6 131.3C349.5 131.3 357.1 165.9 387.6 165.9C402.8 165.9 410.4 131.3 425.6 131.3C448.5 131.3 456.2 165.9 486.6 165.9C501.8 165.9 506.8 156.1 512.5 149V98V97.7ZM512.5 11.2C506.8 18.2 501.9 34.7 486.6 34.7C456.1 34.7 448.5 0 425.6 0C410.4 0 402.8 34.7 387.6 34.7C357 34.7 349.4 0 326.6 0C311.3 0 303.7 34.7 288.6 34.7C258 34.7 250.4 0 227.6 0C212.3 0 204.7 34.7 189.4 34.7C158.9 34.7 151.5 0 128.5 0C113.2 0 105.7 34.7 90.4 34.7C59.9 34.7 52.3 0 29.4 0C14.3 0 9.7 24.8 0.5 24.8V69.4C9.7 69.4 14.2 44.7 29.5 44.7C52.3 44.7 59.9 79.4 90.5 79.4C105.7 79.4 113.3 44.7 128.5 44.7C151.4 44.7 159 79.4 189.5 79.4C204.7 79.4 212.3 44.7 227.5 44.7C250.4 44.7 258 79.4 288.5 79.4C303.8 79.4 311.4 44.7 326.6 44.7C349.5 44.7 357.1 79.4 387.6 79.4C402.8 79.4 410.4 44.7 425.6 44.7C448.5 44.7 456.2 79.4 486.6 79.4C501.8 79.4 506.8 69.5 512.5 62.4V11.2Z" fill="#000063"/>
<path fill-rule="evenodd" clip-rule="evenodd" d="M377.8 169L374.5 470.2C374.5 486.1 388.8 486.1 390.3 470.2L387.2 169.2L377.8 169Z" fill="#A24300" stroke="white" stroke-width="1.9"/>
<path fill-rule="evenodd" clip-rule="evenodd" d="M410.6 281L400.6 270L398.2 281.1L393.8 265.1L389.8 273.1L389.1 256.1L385.1 264.2L384.3 247.2L380.3 255.2L377.9 235.2L373.9 243.2L371.6 223.2L367.6 231.2L365.2 211.2L364.1 201.2L366.1 197.2L371.3 199.2L379.7 207.1L396.4 223L386 219L402.8 235L392.4 231L409.2 247L398.8 243L413.9 256L403.5 252L418.7 264.9L408.3 260.9L419.8 274.9L407.8 267.9L410.6 281Z" fill="#006D00" stroke="white" stroke-width="1.7"/>
<path d="M410.6 281L366.1 197.2M396.5 223L372.5 209.2L367.6 231.2" stroke="black" stroke-width="0.3"/>
<path d="M402.8 235L378.8 221.1L373.9 243.3" stroke="black" stroke-width="0.3"/>
<path d="M409.2 247L385.2 233.1L380.2 255.2" stroke="black" stroke-width="0.3"/>
<path d="M413.9 256L391.5 245L385 264.1" stroke="black" stroke-width="0.3"/>
<path d="M418.7 265L396.3 254L389.8 273.2" stroke="black" stroke-width="0.3"/>
<path d="M419.8 275L399.5 260L398.1 281.1" stroke="black" stroke-width="0.3"/>
<path fill-rule="evenodd" clip-rule="evenodd" d="M293.7 138L310 144.3L305.3 131.9L319.5 145.9L318.2 135.9L329.7 152.7L328.3 142.7L339.9 159.5L338.5 149.4L353.5 168.4L352.1 158.4L367 177.4L365.6 167.4L380.6 186.4L388 196L388.7 201L382.6 201.5L369.6 197.5L343.9 189.6L356.1 188.6L330.3 180.6L342.6 179.6L316.8 171.6L329 170.6L306.6 164.9L318.8 163.9L296.4 158.2L308.6 157.1L289 148.6L304.6 149.8L293.8 138H293.7Z" fill="#006D00" stroke="white" stroke-width="1.8"/>
<path d="M293.7 138L388.7 201M343.9 189.6L375.1 192L365.6 167.4" stroke="black" stroke-width="0.3"/>
<path d="M330.3 180.6L361.5 183L352.1 158.4" stroke="black" stroke-width="0.3"/>
<path d="M316.8 171.7L348 174L338.5 149.4" stroke="black" stroke-width="0.3"/>
<path d="M306.6 165H334.4L328.4 142.6" stroke="black" stroke-width="0.3"/>
<path d="M296.5 158.2H324.3L318.2 135.9" stroke="black" stroke-width="0.3"/>
<path d="M289 148.6L317.5 153.8L305.3 131.9" stroke="black" stroke-width="0.3"/>
<path fill-rule="evenodd" clip-rule="evenodd" d="M483 159L469.5 169L484.5 170.7L463.5 175.7L474.7 178.9L452.1 180.6L463.2 183.9L440.6 185.5L451.7 188.8L425.3 192.1L436.4 195.4L410 198.7L421.1 202.1L394.7 205.4L381.5 207L375.9 205.4L377.9 200.4L387.7 192.1L407.2 175.6L403 185.5L422.5 169L418.3 178.9L437.8 162.4L433.6 172.3L449.3 157.4L445.1 167.4L460.7 152.4L456.6 162.4L474 150.8L466 162.4L483 159.1V159Z" fill="#006D00" stroke="white" stroke-width="1.8"/>
<path d="M483 159L376 205.3M407.2 175.6L391.2 198.7L421.2 202.1" stroke="black" stroke-width="0.3"/>
<path d="M422.5 169L406.5 192L436.5 195.3" stroke="black" stroke-width="0.3"/>
<path d="M437.8 162.4L421.8 185.5L451.8 188.8" stroke="black" stroke-width="0.3"/>
<path d="M449.3 157.4L437.1 178.9L463.2 183.9" stroke="black" stroke-width="0.3"/>
<path d="M460.8 152.4L448.5 174L474.5 179" stroke="black" stroke-width="0.3"/>
<path d="M474 150.8L456.2 170.6H484.5" stroke="black" stroke-width="0.3"/>
<path fill-rule="evenodd" clip-rule="evenodd" d="M480.9 259.3L463.9 254.3L470 266.3L454.3 253.4L456.7 263.4L443.5 247.5L445.9 257.5L432.6 241.6L435 251.6L418.2 233.7L420.6 243.7L403.7 225.9L406.1 235.8L389.2 218L380.8 209L379.6 204.1L385.6 203.1L398.9 206.1L425.4 211.9L413.4 213.9L439.8 219.8L427.8 221.8L454.3 227.6L442.3 229.6L465.2 233.6L453.2 235.6L476 239.4L464 241.4L484.4 248.4H468.8L480.8 259.3H480.9Z" fill="#006D00" stroke="white" stroke-width="1.8"/>
<path d="M480.9 259.3L379.5 204M425.3 211.8L393.9 211.9L406 235.7" stroke="black" stroke-width="0.3"/>
<path d="M439.8 219.8H408.5L420.5 243.6" stroke="black" stroke-width="0.3"/>
<path d="M454.3 227.6L423 227.8L435 251.5" stroke="black" stroke-width="0.3"/>
<path d="M465.2 233.5L437.4 235.6L445.9 257.4" stroke="black" stroke-width="0.3"/>
<path d="M476 239.4L448.3 241.5L456.7 263.3" stroke="black" stroke-width="0.3"/>
<path d="M484.5 248.3L455.5 245.5L470 266.3" stroke="black" stroke-width="0.3"/>
<path fill-rule="evenodd" clip-rule="evenodd" d="M304.9 265L313.4 253.2L300.4 255.1L316.4 246.1L306.2 245.6L324.6 239L314.4 238.6L332.7 232.1L322.5 231.6L343.5 222.8L333.4 222.3L354.4 213.5L344.2 213.1L365.3 204.2L375.8 199.8L380.9 200L380.6 205L374.9 214.4L363.3 233.4L364 223.7L352.5 242.7L353.1 233L341.6 252L342.3 242.3L333.5 259L334.1 249.3L325.3 266L326 256.2L314.8 270.4L318.2 258.3L304.9 265Z" fill="#006D00" stroke="white" stroke-width="1.7"/>
<path d="M304.9 265L380.9 200M363.5 233.5L370.2 209.5L344.3 213.2" stroke="black" stroke-width="0.3"/>
<path d="M352.5 242.8L359.2 218.6L333.4 222.3" stroke="black" stroke-width="0.3"/>
<path d="M341.6 252L348.5 228L322.6 231.7" stroke="black" stroke-width="0.3"/>
<path d="M333.5 259L337.5 237.2L314.4 238.6" stroke="black" stroke-width="0.3"/>
<path d="M325.3 266L329.3 244.1L306.3 245.6" stroke="black" stroke-width="0.3"/>
<path d="M314.8 270.4L323.9 248.8L300.5 255.1" stroke="black" stroke-width="0.3"/>
<path fill-rule="evenodd" clip-rule="evenodd" d="M458.5 109L442.1 120L439.5 108.3L429.8 124.5L428 116.7L420.2 133.4L419.1 125.7L412.9 142.8L409.4 134.6L403.3 155.4L399.8 147.1L393.7 167.9L390.2 159.7L384 180.4L381 190.8L382.7 195L389.3 192.8L400.7 184.4L423.4 167.5L410.4 171.8L433.1 155L419.9 159.3L442.7 142.4L429.6 146.7L452.4 133.6L436.8 137.3L461.4 124.6L446.4 128.5L464.4 114.2L448.9 121.6L458.5 109Z" fill="#006D00" stroke="white" stroke-width="1.8"/>
<path d="M452.2 115L428.5 135.3L382.7 195" stroke="black" stroke-width="0.3"/>
<path d="M418.5 170L392.3 182.4L390.1 163.4" stroke="black" stroke-width="0.3"/>
<path d="M428.5 157.6L402 169.9L399.8 150.9" stroke="black" stroke-width="0.3"/>
<path d="M437.9 145L411.6 157.3L409.6 138.3" stroke="black" stroke-width="0.3"/>
<path d="M445.8 135.7L421.3 144.7L418.4 129.3" stroke="black" stroke-width="0.3"/>
<path d="M454.8 126.7L428.5 135.4L427.5 120.3" stroke="black" stroke-width="0.3"/>
<path d="M458.3 118.2L434 130.7L438.7 111.8" stroke="black" stroke-width="0.3"/>
<path fill-rule="evenodd" clip-rule="evenodd" d="M369.8 88.5L377.2 105.2L386.6 96.4L384.9 114.6L391.2 108.7L387.8 126.5L393.4 120.4L388.2 137.7L396.2 132.3L388.9 152.8L396.9 147.3L389.5 167.8L397.5 162.3L390.1 182.8L386.4 193.1L382.4 195.8L378.1 191L373.5 178.7L364.3 154.1L372.9 163.7L363.7 139.1L372.3 148.6L363.1 124L371.6 133.6L360.2 112.2L371.2 122.3L358 100.5L368.4 110.5L361.7 90.2L370.4 103.6L369.8 88.5Z" fill="#006D00" stroke="white" stroke-width="1.8"/>
<path d="M371.7 96.4L379.5 124.4L382.4 195.8" stroke="black" stroke-width="0.3"/>
<path d="M367 158.5L381.8 180.8L395.2 165.5" stroke="black" stroke-width="0.3"/>
<path d="M366 143.4L381.2 165.7L394.6 150.5" stroke="black" stroke-width="0.3"/>
<path d="M365.6 128.4L380.6 150.7L393.8 135.4" stroke="black" stroke-width="0.3"/>
<path d="M364.5 117L380 135.7L391.8 123.7" stroke="black" stroke-width="0.3"/>
<path d="M362.3 105.3L379.5 124.4L389.5 112" stroke="black" stroke-width="0.3"/>
<path d="M364.5 96.4L377.7 118L385.1 99.7" stroke="black" stroke-width="0.3"/>
<path fill-rule="evenodd" clip-rule="evenodd" d="M271.7 211.3L293.1 196.5L282.4 191L301.1 194.2L294.7 185.7L312.9 192.5L306.4 184L324.7 190.8L318.2 182.4L340.2 189.8L333.8 181.3L355.2 192.3L348.7 183.9L370.7 191.3L381.4 196.8L384.6 201.1L380.3 204.1L368.6 205.7L349.6 213.5L353.1 206.8L329.5 210L338.1 204.1L314 211.1L322.5 205.1L302.2 212.8L311.3 203.2L290.4 214.4L299.5 204.9L282.5 216.8L292 203.6L271.7 211.3Z" fill="#006D00" stroke="white" stroke-width="1.7"/>
<path d="M278.5 207.3L300.5 197.8L312.5 196L322.3 195.9L339.3 196.9L354.5 197.6L384.5 201" stroke="black" stroke-width="0.3"/>
<path d="M352.5 210.4L369.5 200L352.2 186.5" stroke="black" stroke-width="0.3"/>
<path d="M333.5 208.8L354.4 197.7L337.2 184.2" stroke="black" stroke-width="0.3"/>
<path d="M320 208.5L339.1 197L321.8 184.5M294.8 211.5L312.4 196.1L298.1 188.3" stroke="black" stroke-width="0.3"/>
<path d="M286.9 212.6L300.6 197.8L289.6 193.8M306.5 209.8L323.9 196L309.9 186.5" stroke="black" stroke-width="0.3"/>
<path fill-rule="evenodd" clip-rule="evenodd" d="M343.603 373.554L343.402 348.589L336.168 336.93C334.357 331.198 335.245 328.43 338.181 328.234C341.105 328.06 344.005 329.716 348.22 329.901C352.434 330.086 351.641 323.428 357.868 323.614C364.094 323.799 374.95 327.133 384.183 327.689C393.429 328.234 398.247 324.725 408.901 324.355C419.555 323.984 422.361 328.975 422.965 328.975C423.568 328.975 426.587 326.948 429.594 326.578C432.613 326.207 433.619 327.689 433.619 327.689C433.619 327.689 433.418 333.977 432.009 337.671C430.6 341.376 425.581 347.478 425.38 347.478C425.178 347.478 423.568 374.666 423.568 374.851C423.568 375.036 343.603 374.11 343.603 373.554Z" fill="#CC0000" stroke="black" stroke-width="0.151437"/>
<path fill-rule="evenodd" clip-rule="evenodd" d="M426.281 348.004C426.281 348.004 434.331 342.337 434.544 328.705C434.662 320.859 430.472 315.193 419.983 315.193C405.304 315.193 384.339 320.979 384.339 320.979V322.908C384.339 322.908 401.113 317.122 419.995 317.122C428.376 317.122 432.579 322.788 432.579 328.585C432.579 338.24 424.174 348.015 424.174 348.015V363.456H426.281V348.004Z" fill="#FFF100" stroke="black" stroke-width="0.151437"/>
<path fill-rule="evenodd" clip-rule="evenodd" d="M430.667 343.946C430.645 344.213 430.684 344.48 430.779 344.732C430.875 344.984 431.026 345.215 431.223 345.411C431.421 345.607 431.66 345.763 431.926 345.869C432.191 345.976 432.478 346.031 432.768 346.031C433.058 346.031 433.345 345.976 433.611 345.869C433.877 345.763 434.116 345.607 434.313 345.411C434.51 345.215 434.662 344.984 434.757 344.732C434.853 344.48 434.891 344.213 434.87 343.946C434.83 343.458 434.591 343.002 434.201 342.67C433.812 342.337 433.3 342.152 432.768 342.152C432.237 342.152 431.725 342.337 431.335 342.67C430.945 343.002 430.707 343.458 430.667 343.946Z" fill="white" stroke="black" stroke-width="0.151437"/>
<path fill-rule="evenodd" clip-rule="evenodd" d="M432.767 339.546C432.745 339.813 432.783 340.08 432.879 340.332C432.975 340.584 433.126 340.815 433.323 341.011C433.521 341.207 433.76 341.363 434.026 341.469C434.291 341.576 434.578 341.631 434.868 341.631C435.158 341.631 435.445 341.576 435.711 341.469C435.977 341.363 436.216 341.207 436.413 341.011C436.61 340.815 436.761 340.584 436.857 340.332C436.953 340.08 436.991 339.813 436.969 339.546C436.93 339.058 436.691 338.602 436.301 338.27C435.912 337.937 435.4 337.752 434.868 337.752C434.337 337.752 433.825 337.937 433.435 338.27C433.045 338.602 432.807 339.058 432.767 339.546Z" fill="white" stroke="black" stroke-width="0.151437"/>
<path fill-rule="evenodd" clip-rule="evenodd" d="M433.867 335.046C433.845 335.313 433.883 335.58 433.979 335.832C434.075 336.084 434.226 336.315 434.423 336.511C434.621 336.707 434.86 336.863 435.126 336.969C435.391 337.076 435.678 337.131 435.968 337.131C436.258 337.131 436.545 337.076 436.811 336.969C437.077 336.863 437.316 336.707 437.513 336.511C437.71 336.315 437.862 336.084 437.957 335.832C438.053 335.58 438.091 335.313 438.069 335.046C438.03 334.558 437.791 334.102 437.401 333.77C437.012 333.437 436.5 333.252 435.968 333.252C435.437 333.252 434.925 333.437 434.535 333.77C434.145 334.102 433.907 334.558 433.867 335.046Z" fill="white" stroke="black" stroke-width="0.151437"/>
<path fill-rule="evenodd" clip-rule="evenodd" d="M434.667 330.246C434.645 330.513 434.684 330.78 434.779 331.032C434.875 331.284 435.026 331.515 435.223 331.711C435.421 331.906 435.66 332.063 435.926 332.169C436.191 332.276 436.478 332.331 436.768 332.331C437.058 332.331 437.345 332.276 437.611 332.169C437.877 332.063 438.116 331.906 438.313 331.711C438.51 331.515 438.662 331.284 438.757 331.032C438.853 330.78 438.891 330.513 438.87 330.246C438.83 329.758 438.591 329.302 438.201 328.97C437.812 328.637 437.3 328.452 436.768 328.452C436.237 328.452 435.725 328.637 435.335 328.97C434.945 329.302 434.707 329.758 434.667 330.246Z" fill="white" stroke="black" stroke-width="0.151437"/>
<path fill-rule="evenodd" clip-rule="evenodd" d="M434.467 325.046C434.445 325.313 434.483 325.58 434.579 325.832C434.675 326.084 434.826 326.315 435.023 326.511C435.221 326.707 435.46 326.863 435.726 326.969C435.991 327.076 436.278 327.131 436.568 327.131C436.858 327.131 437.145 327.076 437.411 326.969C437.677 326.863 437.916 326.707 438.113 326.511C438.31 326.315 438.462 326.084 438.557 325.832C438.653 325.58 438.691 325.313 438.669 325.046C438.63 324.558 438.391 324.102 438.001 323.77C437.612 323.437 437.1 323.252 436.568 323.252C436.037 323.252 435.525 323.437 435.135 323.77C434.745 324.102 434.507 324.558 434.467 325.046Z" fill="white" stroke="black" stroke-width="0.151437"/>
<path fill-rule="evenodd" clip-rule="evenodd" d="M427.667 347.846C427.645 348.113 427.684 348.38 427.779 348.632C427.875 348.884 428.026 349.115 428.223 349.311C428.421 349.507 428.66 349.663 428.926 349.769C429.191 349.876 429.478 349.931 429.768 349.931C430.058 349.931 430.345 349.876 430.611 349.769C430.877 349.663 431.116 349.507 431.313 349.311C431.51 349.115 431.662 348.884 431.757 348.632C431.853 348.38 431.891 348.113 431.87 347.846C431.83 347.358 431.591 346.902 431.201 346.57C430.812 346.237 430.3 346.052 429.768 346.052C429.237 346.052 428.725 346.237 428.335 346.57C427.945 346.902 427.707 347.358 427.667 347.846Z" fill="white" stroke="black" stroke-width="0.151437"/>
<path fill-rule="evenodd" clip-rule="evenodd" d="M432.667 320.146C432.645 320.413 432.684 320.68 432.779 320.932C432.875 321.184 433.026 321.415 433.223 321.611C433.421 321.806 433.66 321.963 433.926 322.069C434.191 322.176 434.478 322.231 434.768 322.231C435.058 322.231 435.345 322.176 435.611 322.069C435.877 321.963 436.116 321.806 436.313 321.611C436.51 321.415 436.662 321.184 436.757 320.932C436.853 320.68 436.891 320.413 436.87 320.146C436.83 319.658 436.591 319.202 436.201 318.87C435.812 318.537 435.3 318.352 434.768 318.352C434.237 318.352 433.725 318.537 433.335 318.87C432.945 319.202 432.707 319.658 432.667 320.146Z" fill="white" stroke="black" stroke-width="0.151437"/>
<path fill-rule="evenodd" clip-rule="evenodd" d="M428.767 316.246C428.745 316.513 428.783 316.78 428.879 317.032C428.975 317.284 429.126 317.515 429.323 317.711C429.521 317.906 429.76 318.063 430.026 318.169C430.291 318.276 430.578 318.331 430.868 318.331C431.158 318.331 431.445 318.276 431.711 318.169C431.977 318.063 432.216 317.906 432.413 317.711C432.61 317.515 432.761 317.284 432.857 317.032C432.953 316.78 432.991 316.513 432.969 316.246C432.93 315.758 432.691 315.302 432.301 314.97C431.912 314.637 431.4 314.452 430.868 314.452C430.337 314.452 429.825 314.637 429.435 314.97C429.045 315.302 428.807 315.758 428.767 316.246Z" fill="white" stroke="black" stroke-width="0.151437"/>
<path fill-rule="evenodd" clip-rule="evenodd" d="M423.567 313.646C423.545 313.913 423.583 314.18 423.679 314.432C423.775 314.684 423.926 314.915 424.123 315.111C424.321 315.306 424.56 315.463 424.826 315.569C425.091 315.676 425.378 315.731 425.668 315.731C425.958 315.731 426.245 315.676 426.511 315.569C426.777 315.463 427.016 315.306 427.213 315.111C427.41 314.915 427.562 314.684 427.657 314.432C427.753 314.18 427.791 313.913 427.77 313.646C427.73 313.158 427.491 312.702 427.101 312.37C426.712 312.037 426.2 311.852 425.668 311.852C425.137 311.852 424.625 312.037 424.235 312.37C423.845 312.702 423.607 313.158 423.567 313.646Z" fill="white" stroke="black" stroke-width="0.151437"/>
<path fill-rule="evenodd" clip-rule="evenodd" d="M418.367 313.346C418.345 313.613 418.383 313.88 418.479 314.132C418.575 314.384 418.726 314.615 418.923 314.811C419.121 315.007 419.36 315.163 419.626 315.269C419.891 315.376 420.178 315.431 420.468 315.431C420.758 315.431 421.045 315.376 421.311 315.269C421.577 315.163 421.816 315.007 422.013 314.811C422.21 314.615 422.362 314.384 422.457 314.132C422.553 313.88 422.591 313.613 422.569 313.346C422.53 312.858 422.291 312.402 421.901 312.07C421.512 311.737 421 311.552 420.468 311.552C419.937 311.552 419.425 311.737 419.035 312.07C418.645 312.402 418.407 312.858 418.367 313.346Z" fill="white" stroke="black" stroke-width="0.151437"/>
<path fill-rule="evenodd" clip-rule="evenodd" d="M412.767 313.446C412.745 313.713 412.783 313.98 412.879 314.232C412.975 314.484 413.126 314.715 413.323 314.911C413.521 315.107 413.76 315.263 414.026 315.369C414.291 315.476 414.578 315.531 414.868 315.531C415.158 315.531 415.445 315.476 415.711 315.369C415.977 315.263 416.216 315.107 416.413 314.911C416.61 314.715 416.761 314.484 416.857 314.232C416.953 313.98 416.991 313.713 416.969 313.446C416.93 312.958 416.691 312.502 416.301 312.17C415.912 311.837 415.4 311.652 414.868 311.652C414.337 311.652 413.825 311.837 413.435 312.17C413.045 312.502 412.807 312.958 412.767 313.446Z" fill="white" stroke="black" stroke-width="0.151437"/>
<path fill-rule="evenodd" clip-rule="evenodd" d="M407.067 314.246C407.045 314.513 407.083 314.78 407.179 315.032C407.275 315.284 407.426 315.515 407.623 315.711C407.821 315.906 408.06 316.063 408.326 316.169C408.591 316.276 408.878 316.331 409.168 316.331C409.458 316.331 409.745 316.276 410.011 316.169C410.277 316.063 410.516 315.906 410.713 315.711C410.91 315.515 411.062 315.284 411.157 315.032C411.253 314.78 411.291 314.513 411.27 314.246C411.23 313.758 410.991 313.302 410.601 312.97C410.212 312.637 409.7 312.452 409.168 312.452C408.637 312.452 408.125 312.637 407.735 312.97C407.345 313.302 407.107 313.758 407.067 314.246Z" fill="white" stroke="black" stroke-width="0.151437"/>
<path fill-rule="evenodd" clip-rule="evenodd" d="M401.567 314.946C401.545 315.213 401.583 315.48 401.679 315.732C401.775 315.984 401.926 316.215 402.123 316.411C402.321 316.607 402.56 316.763 402.826 316.869C403.091 316.976 403.378 317.031 403.668 317.031C403.958 317.031 404.245 316.976 404.511 316.869C404.777 316.763 405.016 316.607 405.213 316.411C405.41 316.215 405.562 315.984 405.657 315.732C405.753 315.48 405.791 315.213 405.77 314.946C405.73 314.458 405.491 314.002 405.101 313.67C404.712 313.337 404.2 313.152 403.668 313.152C403.137 313.152 402.625 313.337 402.235 313.67C401.845 314.002 401.607 314.458 401.567 314.946Z" fill="white" stroke="black" stroke-width="0.151437"/>
<path fill-rule="evenodd" clip-rule="evenodd" d="M395.467 315.846C395.445 316.113 395.483 316.38 395.579 316.632C395.675 316.884 395.826 317.115 396.023 317.311C396.221 317.507 396.46 317.663 396.726 317.769C396.991 317.876 397.278 317.931 397.568 317.931C397.858 317.931 398.145 317.876 398.411 317.769C398.677 317.663 398.916 317.507 399.113 317.311C399.31 317.115 399.462 316.884 399.557 316.632C399.653 316.38 399.691 316.113 399.669 315.846C399.63 315.358 399.391 314.902 399.001 314.57C398.612 314.237 398.1 314.052 397.568 314.052C397.037 314.052 396.525 314.237 396.135 314.57C395.745 314.902 395.507 315.358 395.467 315.846Z" fill="white" stroke="black" stroke-width="0.151437"/>
<path fill-rule="evenodd" clip-rule="evenodd" d="M390.267 317.246C390.245 317.513 390.283 317.78 390.379 318.032C390.475 318.284 390.626 318.515 390.823 318.711C391.021 318.906 391.26 319.063 391.526 319.169C391.791 319.276 392.078 319.331 392.368 319.331C392.658 319.331 392.945 319.276 393.211 319.169C393.477 319.063 393.716 318.906 393.913 318.711C394.11 318.515 394.261 318.284 394.357 318.032C394.453 317.78 394.491 317.513 394.469 317.246C394.43 316.758 394.191 316.302 393.801 315.97C393.412 315.637 392.9 315.452 392.368 315.452C391.837 315.452 391.325 315.637 390.935 315.97C390.545 316.302 390.307 316.758 390.267 317.246Z" fill="white" stroke="black" stroke-width="0.151437"/>
<path fill-rule="evenodd" clip-rule="evenodd" d="M338.033 343.946C338.055 344.213 338.017 344.48 337.921 344.732C337.825 344.984 337.674 345.215 337.477 345.411C337.279 345.607 337.04 345.763 336.774 345.869C336.509 345.976 336.222 346.031 335.932 346.031C335.642 346.031 335.355 345.976 335.089 345.869C334.823 345.763 334.584 345.607 334.387 345.411C334.19 345.215 334.038 344.984 333.943 344.732C333.847 344.48 333.809 344.213 333.831 343.946C333.87 343.458 334.109 343.002 334.499 342.67C334.888 342.337 335.4 342.152 335.932 342.152C336.463 342.152 336.975 342.337 337.365 342.67C337.755 343.002 337.993 343.458 338.033 343.946Z" fill="white" stroke="black" stroke-width="0.151437"/>
<path fill-rule="evenodd" clip-rule="evenodd" d="M335.833 339.546C335.855 339.813 335.816 340.08 335.721 340.332C335.625 340.584 335.474 340.815 335.277 341.011C335.079 341.207 334.84 341.363 334.574 341.469C334.309 341.576 334.022 341.631 333.732 341.631C333.442 341.631 333.155 341.576 332.889 341.469C332.623 341.363 332.384 341.207 332.187 341.011C331.99 340.815 331.838 340.584 331.743 340.332C331.647 340.08 331.609 339.813 331.63 339.546C331.67 339.058 331.909 338.602 332.299 338.27C332.688 337.937 333.2 337.752 333.732 337.752C334.263 337.752 334.775 337.937 335.165 338.27C335.555 338.602 335.793 339.058 335.833 339.546Z" fill="white" stroke="black" stroke-width="0.151437"/>
<path fill-rule="evenodd" clip-rule="evenodd" d="M334.833 335.046C334.855 335.313 334.816 335.58 334.721 335.832C334.625 336.084 334.474 336.315 334.277 336.511C334.079 336.707 333.84 336.863 333.574 336.969C333.309 337.076 333.022 337.131 332.732 337.131C332.442 337.131 332.155 337.076 331.889 336.969C331.623 336.863 331.384 336.707 331.187 336.511C330.99 336.315 330.838 336.084 330.743 335.832C330.647 335.58 330.609 335.313 330.63 335.046C330.67 334.558 330.909 334.102 331.299 333.77C331.688 333.437 332.2 333.252 332.732 333.252C333.263 333.252 333.775 333.437 334.165 333.77C334.555 334.102 334.793 334.558 334.833 335.046Z" fill="white" stroke="black" stroke-width="0.151437"/>
<path fill-rule="evenodd" clip-rule="evenodd" d="M334.033 330.246C334.055 330.513 334.017 330.78 333.921 331.032C333.825 331.284 333.674 331.515 333.477 331.711C333.279 331.906 333.04 332.063 332.774 332.169C332.509 332.276 332.222 332.331 331.932 332.331C331.642 332.331 331.355 332.276 331.089 332.169C330.823 332.063 330.584 331.906 330.387 331.711C330.19 331.515 330.038 331.284 329.943 331.032C329.847 330.78 329.809 330.513 329.831 330.246C329.87 329.758 330.109 329.302 330.499 328.97C330.888 328.637 331.4 328.452 331.932 328.452C332.463 328.452 332.975 328.637 333.365 328.97C333.755 329.302 333.993 329.758 334.033 330.246Z" fill="white" stroke="black" stroke-width="0.151437"/>
<path fill-rule="evenodd" clip-rule="evenodd" d="M334.133 325.046C334.155 325.313 334.117 325.58 334.021 325.832C333.925 326.084 333.774 326.315 333.577 326.511C333.379 326.707 333.14 326.863 332.874 326.969C332.609 327.076 332.322 327.131 332.032 327.131C331.742 327.131 331.455 327.076 331.189 326.969C330.923 326.863 330.684 326.707 330.487 326.511C330.29 326.315 330.138 326.084 330.043 325.832C329.947 325.58 329.909 325.313 329.931 325.046C329.97 324.558 330.209 324.102 330.599 323.77C330.988 323.437 331.5 323.252 332.032 323.252C332.563 323.252 333.075 323.437 333.465 323.77C333.855 324.102 334.093 324.558 334.133 325.046Z" fill="white" stroke="black" stroke-width="0.151437"/>
<path fill-rule="evenodd" clip-rule="evenodd" d="M335.933 320.146C335.955 320.413 335.917 320.68 335.821 320.932C335.725 321.184 335.574 321.415 335.377 321.611C335.179 321.806 334.94 321.963 334.674 322.069C334.409 322.176 334.122 322.231 333.832 322.231C333.542 322.231 333.255 322.176 332.989 322.069C332.723 321.963 332.484 321.806 332.287 321.611C332.09 321.415 331.938 321.184 331.843 320.932C331.747 320.68 331.709 320.413 331.73 320.146C331.77 319.658 332.009 319.202 332.399 318.87C332.788 318.537 333.3 318.352 333.832 318.352C334.363 318.352 334.875 318.537 335.265 318.87C335.655 319.202 335.893 319.658 335.933 320.146Z" fill="white" stroke="black" stroke-width="0.151437"/>
<path fill-rule="evenodd" clip-rule="evenodd" d="M339.733 316.246C339.755 316.513 339.717 316.78 339.621 317.032C339.525 317.284 339.374 317.515 339.177 317.711C338.979 317.906 338.74 318.063 338.474 318.169C338.209 318.276 337.922 318.331 337.632 318.331C337.342 318.331 337.055 318.276 336.789 318.169C336.523 318.063 336.284 317.906 336.087 317.711C335.89 317.515 335.739 317.284 335.643 317.032C335.547 316.78 335.509 316.513 335.531 316.246C335.57 315.758 335.809 315.302 336.199 314.97C336.588 314.637 337.1 314.452 337.632 314.452C338.163 314.452 338.675 314.637 339.065 314.97C339.455 315.302 339.693 315.758 339.733 316.246Z" fill="white" stroke="black" stroke-width="0.151437"/>
<path fill-rule="evenodd" clip-rule="evenodd" d="M345.133 313.646C345.155 313.913 345.117 314.18 345.021 314.432C344.925 314.684 344.774 314.915 344.577 315.111C344.379 315.306 344.14 315.463 343.874 315.569C343.609 315.676 343.322 315.731 343.032 315.731C342.742 315.731 342.455 315.676 342.189 315.569C341.923 315.463 341.684 315.306 341.487 315.111C341.29 314.915 341.138 314.684 341.043 314.432C340.947 314.18 340.909 313.913 340.931 313.646C340.97 313.158 341.209 312.702 341.599 312.37C341.988 312.037 342.5 311.852 343.032 311.852C343.563 311.852 344.075 312.037 344.465 312.37C344.855 312.702 345.093 313.158 345.133 313.646Z" fill="white" stroke="black" stroke-width="0.151437"/>
<path fill-rule="evenodd" clip-rule="evenodd" d="M350.233 313.346C350.255 313.613 350.217 313.88 350.121 314.132C350.025 314.384 349.874 314.615 349.677 314.811C349.479 315.007 349.24 315.163 348.974 315.269C348.709 315.376 348.422 315.431 348.132 315.431C347.842 315.431 347.555 315.376 347.289 315.269C347.023 315.163 346.784 315.007 346.587 314.811C346.39 314.615 346.239 314.384 346.143 314.132C346.047 313.88 346.009 313.613 346.031 313.346C346.07 312.858 346.309 312.402 346.699 312.07C347.088 311.737 347.6 311.552 348.132 311.552C348.663 311.552 349.175 311.737 349.565 312.07C349.955 312.402 350.193 312.858 350.233 313.346Z" fill="white" stroke="black" stroke-width="0.151437"/>
<path fill-rule="evenodd" clip-rule="evenodd" d="M355.833 313.446C355.855 313.713 355.816 313.98 355.721 314.232C355.625 314.484 355.474 314.715 355.277 314.911C355.079 315.107 354.84 315.263 354.574 315.369C354.309 315.476 354.022 315.531 353.732 315.531C353.442 315.531 353.155 315.476 352.889 315.369C352.623 315.263 352.384 315.107 352.187 314.911C351.99 314.715 351.838 314.484 351.743 314.232C351.647 313.98 351.609 313.713 351.63 313.446C351.67 312.958 351.909 312.502 352.299 312.17C352.688 311.837 353.2 311.652 353.732 311.652C354.263 311.652 354.775 311.837 355.165 312.17C355.555 312.502 355.793 312.958 355.833 313.446Z" fill="white" stroke="black" stroke-width="0.151437"/>
<path fill-rule="evenodd" clip-rule="evenodd" d="M361.533 314.246C361.555 314.513 361.517 314.78 361.421 315.032C361.325 315.284 361.174 315.515 360.977 315.711C360.779 315.906 360.54 316.063 360.274 316.169C360.009 316.276 359.722 316.331 359.432 316.331C359.142 316.331 358.855 316.276 358.589 316.169C358.323 316.063 358.084 315.906 357.887 315.711C357.69 315.515 357.538 315.284 357.443 315.032C357.347 314.78 357.309 314.513 357.331 314.246C357.37 313.758 357.609 313.302 357.999 312.97C358.388 312.637 358.9 312.452 359.432 312.452C359.963 312.452 360.475 312.637 360.865 312.97C361.255 313.302 361.493 313.758 361.533 314.246Z" fill="white" stroke="black" stroke-width="0.151437"/>
<path fill-rule="evenodd" clip-rule="evenodd" d="M367.133 314.946C367.155 315.213 367.117 315.48 367.021 315.732C366.925 315.984 366.774 316.215 366.577 316.411C366.379 316.607 366.14 316.763 365.874 316.869C365.609 316.976 365.322 317.031 365.032 317.031C364.742 317.031 364.455 316.976 364.189 316.869C363.923 316.763 363.684 316.607 363.487 316.411C363.29 316.215 363.138 315.984 363.043 315.732C362.947 315.48 362.909 315.213 362.931 314.946C362.97 314.458 363.209 314.002 363.599 313.67C363.988 313.337 364.5 313.152 365.032 313.152C365.563 313.152 366.075 313.337 366.465 313.67C366.855 314.002 367.093 314.458 367.133 314.946Z" fill="white" stroke="black" stroke-width="0.151437"/>
<path fill-rule="evenodd" clip-rule="evenodd" d="M373.133 315.846C373.155 316.113 373.117 316.38 373.021 316.632C372.925 316.884 372.774 317.115 372.577 317.311C372.379 317.507 372.14 317.663 371.874 317.769C371.609 317.876 371.322 317.931 371.032 317.931C370.742 317.931 370.455 317.876 370.189 317.769C369.923 317.663 369.684 317.507 369.487 317.311C369.29 317.115 369.138 316.884 369.043 316.632C368.947 316.38 368.909 316.113 368.931 315.846C368.97 315.358 369.209 314.902 369.599 314.57C369.988 314.237 370.5 314.052 371.032 314.052C371.563 314.052 372.075 314.237 372.465 314.57C372.855 314.902 373.093 315.358 373.133 315.846Z" fill="white" stroke="black" stroke-width="0.151437"/>
<path fill-rule="evenodd" clip-rule="evenodd" d="M378.333 317.246C378.355 317.513 378.316 317.78 378.221 318.032C378.125 318.284 377.974 318.515 377.777 318.711C377.579 318.906 377.34 319.063 377.074 319.169C376.809 319.276 376.522 319.331 376.232 319.331C375.942 319.331 375.655 319.276 375.389 319.169C375.123 319.063 374.884 318.906 374.687 318.711C374.49 318.515 374.338 318.284 374.243 318.032C374.147 317.78 374.109 317.513 374.13 317.246C374.17 316.758 374.409 316.302 374.799 315.97C375.188 315.637 375.7 315.452 376.232 315.452C376.763 315.452 377.275 315.637 377.665 315.97C378.055 316.302 378.293 316.758 378.333 317.246Z" fill="white" stroke="black" stroke-width="0.151437"/>
<path fill-rule="evenodd" clip-rule="evenodd" d="M340.933 347.846C340.955 348.113 340.917 348.38 340.821 348.632C340.725 348.884 340.574 349.115 340.377 349.311C340.179 349.507 339.94 349.663 339.674 349.769C339.409 349.876 339.122 349.931 338.832 349.931C338.542 349.931 338.255 349.876 337.989 349.769C337.723 349.663 337.484 349.507 337.287 349.311C337.09 349.115 336.938 348.884 336.843 348.632C336.747 348.38 336.709 348.113 336.73 347.846C336.77 347.358 337.009 346.902 337.399 346.57C337.788 346.237 338.3 346.052 338.832 346.052C339.363 346.052 339.875 346.237 340.265 346.57C340.655 346.902 340.893 347.358 340.933 347.846Z" fill="white" stroke="black" stroke-width="0.151437"/>
<path fill-rule="evenodd" clip-rule="evenodd" d="M342.419 348.004C342.419 348.004 334.369 342.337 334.156 328.705C334.038 320.859 338.228 315.193 348.717 315.193C363.396 315.193 384.361 320.979 384.361 320.979V322.908C384.361 322.908 367.587 317.122 348.705 317.122C340.324 317.122 336.121 322.788 336.121 328.585C336.121 338.24 344.526 348.015 344.526 348.015V363.456H342.419V348.004Z" fill="#FFF100" stroke="black" stroke-width="0.151437"/>
<path fill-rule="evenodd" clip-rule="evenodd" d="M357.038 355.163C357.038 355.163 357.642 353.693 359.836 353.693C361.328 353.693 362.63 355.163 362.63 356.632V359.575H364.031V356.632C364.031 355.163 365.427 353.693 366.824 353.693C368.924 353.693 369.622 355.163 369.622 355.163C369.622 355.163 369.622 350.75 366.824 350.75C364.729 350.75 364.031 352.22 364.031 352.22C364.031 352.22 364.729 350.015 364.729 347.807C364.729 345.599 363.332 344.129 363.332 344.129C363.332 344.411 361.931 345.603 361.931 347.807C361.931 350.011 362.63 352.22 362.63 352.22C362.63 352.22 361.931 350.75 359.836 350.75C357.038 350.75 357.038 355.163 357.038 355.163Z" fill="#FFF100" stroke="black" stroke-width="0.121416"/>
<path fill-rule="evenodd" clip-rule="evenodd" d="M398.938 355.163C398.938 355.163 399.542 353.693 401.736 353.693C403.228 353.693 404.53 355.163 404.53 356.632V359.575H405.931V356.632C405.931 355.163 407.327 353.693 408.724 353.693C410.824 353.693 411.522 355.163 411.522 355.163C411.522 355.163 411.522 350.75 408.724 350.75C406.629 350.75 405.931 352.22 405.931 352.22C405.931 352.22 406.629 350.015 406.629 347.807C406.629 345.599 405.232 344.129 405.232 344.129C405.232 344.411 403.831 345.603 403.831 347.807C403.831 350.011 404.53 352.22 404.53 352.22C404.53 352.22 403.831 350.75 401.736 350.75C398.938 350.75 398.938 355.163 398.938 355.163Z" fill="#FFF100" stroke="black" stroke-width="0.121416"/>
<path fill-rule="evenodd" clip-rule="evenodd" d="M342.419 375.039V357.659C342.419 357.659 346.61 363.456 352.907 363.456C358.057 363.456 363.396 355.73 363.396 355.73C363.396 355.73 368.309 361.527 373.884 361.527C378.856 361.527 384.361 354.052 384.361 354.052C384.361 354.052 389.475 361.527 394.849 361.527C400.236 361.527 405.338 355.73 405.338 355.73C405.338 355.73 410.819 363.456 417.922 363.456C424.208 363.456 426.315 357.659 426.315 357.659V375.039H342.419Z" fill="#FFF100" stroke="black" stroke-width="0.151437"/>
<path fill-rule="evenodd" clip-rule="evenodd" d="M342.396 375.039V361.527C342.396 361.527 354.98 365.374 354.98 375.039H342.396Z" fill="#FFF100" stroke="black" stroke-width="0.151437"/>
<path fill-rule="evenodd" clip-rule="evenodd" d="M426.204 375.039V361.527C426.204 361.527 413.62 365.374 413.62 375.039H426.204Z" fill="#FFF100" stroke="black" stroke-width="0.151437"/>
<path fill-rule="evenodd" clip-rule="evenodd" d="M350.812 375.039C350.812 365.374 363.396 359.271 363.396 359.271C363.396 359.271 375.98 365.374 375.98 375.039H350.812Z" fill="#FFF100" stroke="black" stroke-width="0.151437"/>
<path fill-rule="evenodd" clip-rule="evenodd" d="M392.812 375.039C392.812 365.374 405.396 359.271 405.396 359.271C405.396 359.271 417.98 365.374 417.98 375.039H392.812Z" fill="#FFF100" stroke="black" stroke-width="0.151437"/>
<path fill-rule="evenodd" clip-rule="evenodd" d="M369.705 375.052C369.705 365.397 384.396 357.682 384.396 357.682C384.396 357.682 399.075 365.397 399.075 375.052H369.717H369.705Z" fill="#FFF100" stroke="black" stroke-width="0.151437"/>
<path fill-rule="evenodd" clip-rule="evenodd" d="M428.296 375.03C424.153 373.101 408.868 371.172 384.254 371.172C359.641 371.172 343.29 373.101 339.135 375.03C334.992 376.959 334.992 380.827 339.135 382.756C343.278 384.685 359.652 386.613 384.254 386.613C408.856 386.613 424.153 384.685 428.296 382.756C432.439 380.827 432.439 376.959 428.296 375.03Z" fill="white" stroke="black" stroke-width="0.150577"/>
<path fill-rule="evenodd" clip-rule="evenodd" d="M426.3 382.8C426.3 386.7 391.3 386.7 384.3 386.7C376.7 386.7 342.4 387.7 342.4 382.7C342.4 378.9 377 378.9 384.4 378.9C391.6 378.9 426.3 379.7 426.3 382.8Z" fill="#808080"/>
<path fill-rule="evenodd" clip-rule="evenodd" d="M346.5 368.9C346.5 370.2 345.7 371.2 344.5 371.2C343.3 371.2 342.4 370.2 342.4 368.9C342.4 367.6 343.3 366.6 344.4 366.6C345.6 366.6 346.6 367.6 346.6 368.9H346.5ZM426.3 368.9C426.3 370.2 425.3 371.2 424.1 371.2C423 371.2 422.1 370.2 422.1 368.9C422.1 367.6 423 366.6 424.1 366.6C425.3 366.6 426.2 367.6 426.2 368.9H426.3Z" fill="#CC0000"/>
<path fill-rule="evenodd" clip-rule="evenodd" d="M388.5 367.8C388.5 369 386.6 370 384.3 370C382.1 370 380.1 369 380.1 367.7C380.1 366.4 382.1 365.4 384.3 365.4C386.5 365.4 388.5 366.4 388.5 367.7V367.8Z" fill="black"/>
<path fill-rule="evenodd" clip-rule="evenodd" d="M408.6 367.8C408.6 369 407.2 370 405.5 370C403.8 370 402.4 369 402.4 367.7C402.4 366.4 403.8 365.4 405.4 365.4C407 365.4 408.6 366.4 408.6 367.7V367.8ZM365.5 367.8C365.5 369 364.1 370 362.3 370C360.5 370 359.1 369 359.1 367.7C359.1 366.4 360.5 365.4 362.3 365.4C364.1 365.4 365.5 366.4 365.5 367.7V367.8Z" fill="#006300"/>
<path fill-rule="evenodd" clip-rule="evenodd" d="M375.884 354.486C375.884 354.486 378.279 351.186 380.68 351.186H383.074V353.384C383.074 356.696 379.483 357.805 379.483 357.805H389.067C389.067 357.805 385.469 356.696 385.469 353.384V351.186H387.87C390.265 351.186 392.659 354.498 392.659 354.498V345.662C392.659 345.662 390.265 348.975 387.87 348.975H385.469V346.764C385.469 343.458 389.067 342.356 389.067 342.356H379.476C379.476 342.356 383.068 343.458 383.068 346.764V348.975H380.673C378.272 348.975 375.878 345.662 375.878 345.662V354.492L375.884 354.486Z" fill="#FFF100" stroke="black" stroke-width="0.142779"/>
<path fill-rule="evenodd" clip-rule="evenodd" d="M342.35 361.526H344.748C344.748 361.526 342.948 360.561 342.948 357.663V355.739H344.146C345.347 355.739 346.548 358.638 346.548 358.638V350.906C346.548 350.906 345.347 353.805 344.146 353.805H342.948V351.87C342.948 348.977 344.748 348.012 344.748 348.012H342.35V361.526Z" fill="#FFF100" stroke="black" stroke-width="0.141685"/>
<path fill-rule="evenodd" clip-rule="evenodd" d="M426.25 361.526H423.852C423.852 361.526 425.652 360.561 425.652 357.663V355.739H424.454C423.253 355.739 422.052 358.638 422.052 358.638V350.906C422.052 350.906 423.253 353.805 424.454 353.805H425.652V351.87C425.652 348.977 423.852 348.012 423.852 348.012H426.25V361.526Z" fill="#FFF100" stroke="black" stroke-width="0.141685"/>
<path fill-rule="evenodd" clip-rule="evenodd" d="M386.456 349.944C386.456 350.455 386.236 350.946 385.843 351.307C385.45 351.669 384.917 351.872 384.361 351.872C383.805 351.872 383.272 351.669 382.879 351.307C382.486 350.946 382.266 350.455 382.266 349.944C382.266 349.432 382.486 348.941 382.879 348.58C383.272 348.218 383.805 348.015 384.361 348.015C384.917 348.015 385.45 348.218 385.843 348.58C386.236 348.941 386.456 349.432 386.456 349.944Z" fill="white" stroke="black" stroke-width="0.151437"/>
<path fill-rule="evenodd" clip-rule="evenodd" d="M375.884 313.886C375.884 313.886 378.279 310.586 380.68 310.586H383.074V312.784C383.074 316.097 379.483 317.205 379.483 317.205H389.067C389.067 317.205 385.469 316.097 385.469 312.784V310.586H387.87C390.265 310.586 392.659 313.898 392.659 313.898V305.062C392.659 305.062 390.265 308.375 387.87 308.375H385.469V306.164C385.469 302.858 389.067 301.756 389.067 301.756H379.476C379.476 301.756 383.068 302.858 383.068 306.164V308.375H380.673C378.272 308.375 375.878 305.062 375.878 305.062V313.892L375.884 313.886Z" fill="#FFF100" stroke="black" stroke-width="0.142779"/>
<path fill-rule="evenodd" clip-rule="evenodd" d="M386.656 309.644C386.656 310.155 386.436 310.646 386.043 311.007C385.65 311.369 385.117 311.572 384.561 311.572C384.005 311.572 383.472 311.369 383.079 311.007C382.686 310.646 382.466 310.155 382.466 309.644C382.466 309.132 382.686 308.641 383.079 308.28C383.472 307.918 384.005 307.715 384.561 307.715C385.117 307.715 385.65 307.918 386.043 308.28C386.436 308.641 386.656 309.132 386.656 309.644Z" fill="white" stroke="black" stroke-width="0.151437"/>
<path fill-rule="evenodd" clip-rule="evenodd" d="M380.17 317.13H388.563V322.927H380.159L380.17 317.13Z" fill="#FFF100" stroke="black" stroke-width="0.151437"/>
<path fill-rule="evenodd" clip-rule="evenodd" d="M380.17 320.159H388.563V342.226H380.159L380.17 320.159Z" fill="#FFF100" stroke="black" stroke-width="0.151437"/>
<path fill-rule="evenodd" clip-rule="evenodd" d="M386.333 338.346C386.355 338.613 386.316 338.88 386.221 339.132C386.125 339.384 385.974 339.615 385.777 339.811C385.579 340.007 385.34 340.163 385.074 340.269C384.809 340.376 384.522 340.431 384.232 340.431C383.942 340.431 383.655 340.376 383.389 340.269C383.123 340.163 382.884 340.007 382.687 339.811C382.49 339.615 382.338 339.384 382.243 339.132C382.147 338.88 382.109 338.613 382.13 338.346C382.17 337.858 382.409 337.402 382.799 337.07C383.188 336.737 383.7 336.552 384.232 336.552C384.763 336.552 385.275 336.737 385.665 337.07C386.055 337.402 386.293 337.858 386.333 338.346Z" fill="white" stroke="black" stroke-width="0.151437"/>
<path fill-rule="evenodd" clip-rule="evenodd" d="M386.333 333.446C386.355 333.713 386.316 333.98 386.221 334.232C386.125 334.484 385.974 334.715 385.777 334.911C385.579 335.107 385.34 335.263 385.074 335.369C384.809 335.476 384.522 335.531 384.232 335.531C383.942 335.531 383.655 335.476 383.389 335.369C383.123 335.263 382.884 335.107 382.687 334.911C382.49 334.715 382.338 334.484 382.243 334.232C382.147 333.98 382.109 333.713 382.13 333.446C382.17 332.958 382.409 332.502 382.799 332.17C383.188 331.837 383.7 331.652 384.232 331.652C384.763 331.652 385.275 331.837 385.665 332.17C386.055 332.502 386.293 332.958 386.333 333.446Z" fill="white" stroke="black" stroke-width="0.151437"/>
<path fill-rule="evenodd" clip-rule="evenodd" d="M386.333 328.846C386.355 329.113 386.316 329.38 386.221 329.632C386.125 329.884 385.974 330.115 385.777 330.311C385.579 330.507 385.34 330.663 385.074 330.769C384.809 330.876 384.522 330.931 384.232 330.931C383.942 330.931 383.655 330.876 383.389 330.769C383.123 330.663 382.884 330.507 382.687 330.311C382.49 330.115 382.338 329.884 382.243 329.632C382.147 329.38 382.109 329.113 382.13 328.846C382.17 328.358 382.409 327.902 382.799 327.57C383.188 327.237 383.7 327.052 384.232 327.052C384.763 327.052 385.275 327.237 385.665 327.57C386.055 327.902 386.293 328.358 386.333 328.846Z" fill="white" stroke="black" stroke-width="0.151437"/>
<path fill-rule="evenodd" clip-rule="evenodd" d="M386.333 323.946C386.355 324.213 386.316 324.48 386.221 324.732C386.125 324.984 385.974 325.215 385.777 325.411C385.579 325.607 385.34 325.763 385.074 325.869C384.809 325.976 384.522 326.031 384.232 326.031C383.942 326.031 383.655 325.976 383.389 325.869C383.123 325.763 382.884 325.607 382.687 325.411C382.49 325.215 382.338 324.984 382.243 324.732C382.147 324.48 382.109 324.213 382.13 323.946C382.17 323.458 382.409 323.002 382.799 322.67C383.188 322.337 383.7 322.152 384.232 322.152C384.763 322.152 385.275 322.337 385.665 322.67C386.055 323.002 386.293 323.458 386.333 323.946Z" fill="white" stroke="black" stroke-width="0.151437"/>
<path fill-rule="evenodd" clip-rule="evenodd" d="M388.8 375.1C388.8 376 386.8 376.7 384.4 376.7C382 376.7 380.3 376 380.3 375.1C380.3 374.2 382.2 373.6 384.5 373.6C386.8 373.6 388.8 374.3 388.8 375.1ZM427.4 378.9C427.2 379.6 425.1 379.6 422.7 379C420.4 378.5 418.7 377.6 418.9 377C419.2 376.4 421.3 376.3 423.6 377C425.9 377.5 427.6 378.3 427.4 379V378.9ZM411.2 376.3C411.2 377.1 409.2 377.6 406.7 377.5C404.4 377.3 402.5 376.5 402.5 375.7C402.6 375 404.7 374.5 407.1 374.7C409.5 374.9 411.4 375.6 411.2 376.3ZM340.3 378.9C340.5 379.6 342.6 379.6 344.9 379C347.3 378.5 348.9 377.6 348.7 377C348.5 376.4 346.4 376.3 344 377C341.8 377.5 340 378.3 340.3 379V378.9ZM357.3 376C357.3 376.8 359.3 377.2 361.7 377C364.2 376.9 366.1 376.2 365.9 375.3C365.9 374.6 363.9 374.1 361.4 374.3C359 374.4 357.1 375.1 357.2 376H357.3Z" fill="black"/>
<path d="M0.5 0H256.5V256H0.5V0Z" fill="#012169"/>
<path d="M256.5 0V32L161.5 128L256.5 221.5V256H223L127.5 162L34.5 256H0.5V222L93.5 128.5L0.5 37V0H31.5L127.5 94L220.5 0H256.5Z" fill="white"/>
<path d="M92.5 162L98 179L21.5 256H0.5V254.5L92.5 162ZM154.5 156L181.5 160L256.5 233.5V256L154.5 156ZM256.5 0L160.5 98L158.5 76L233.5 0H256.5ZM0.5 0.5L97 95L67.5 91L0.5 24.5V0.5Z" fill="#C8102E"/>
<path d="M88.5 0V256H168.5V0H88.5ZM0.5 88V168H256.5V88H0.5Z" fill="white"/>
<path d="M0.5 104V152H256.5V104H0.5ZM104.5 0V256H152.5V0H104.5Z" fill="#C8102E"/>
</g>
<defs>
<clipPath id="clip0_103_3733">
<rect width="512" height="512" fill="white" transform="translate(0.5)"/>
</clipPath>
</defs>
</svg>
