<svg width="513" height="512" viewBox="0 0 513 512" fill="none" xmlns="http://www.w3.org/2000/svg">
<g clip-path="url(#clip0_103_3873)">
<mask id="mask0_103_3873" style="mask-type:luminance" maskUnits="userSpaceOnUse" x="0" y="0" width="513" height="512">
<path d="M0.5 0H512.5V512H0.5V0Z" fill="white"/>
</mask>
<g mask="url(#mask0_103_3873)">
<path fill-rule="evenodd" clip-rule="evenodd" d="M-257.8 0H769.7V512H-257.8V0Z" fill="#108C00"/>
<path fill-rule="evenodd" clip-rule="evenodd" d="M-259.5 178.2H773.1V228.3H-259.5V178.2Z" fill="#FFD600"/>
<path fill-rule="evenodd" clip-rule="evenodd" d="M181.5 0H230V512H181.6L181.5 0Z" fill="#FFD600"/>
<path fill-rule="evenodd" clip-rule="evenodd" d="M228.3 0H276.7V512H228.3V0Z" fill="black"/>
<path fill-rule="evenodd" clip-rule="evenodd" d="M-259.5 226.6H773.1V276.8H-259.5V226.6Z" fill="black"/>
<path fill-rule="evenodd" clip-rule="evenodd" d="M-259.5 276.8H773.1V326.9H-259.5V276.8Z" fill="white"/>
<path fill-rule="evenodd" clip-rule="evenodd" d="M276.7 0H325.2V512H276.7V0Z" fill="white"/>
<path d="M121.3 256.4C121.3 332.339 182.592 393.9 258.2 393.9C333.808 393.9 395.1 332.339 395.1 256.4C395.1 180.461 333.808 118.9 258.2 118.9C182.592 118.9 121.3 180.461 121.3 256.4Z" fill="#E72910"/>
<path fill-rule="evenodd" clip-rule="evenodd" d="M251 137L256.6 121L261.7 136.7C261.7 136.7 278.8 137.2 278.8 136.9C278.8 136.6 265.3 147.2 265.3 147.2L271.4 164.8C271.2 164.3 256.6 153.9 256.6 153.9C256.6 153.9 241.8 164.3 242.1 164.3C242.4 164.3 247.7 147.3 247.7 147.3L234.4 137.2L251 136.9V137Z" fill="black"/>
<path fill-rule="evenodd" clip-rule="evenodd" d="M251.8 137.7L256.5 124L260.9 137.6C260.9 137.6 275.8 138 275.8 137.8C275.8 137.6 264.1 146.8 264.1 146.8L269.3 162C269.1 161.5 256.5 152.6 256.5 152.6C256.5 152.6 243.7 161.6 243.9 161.6C244.1 161.6 248.9 146.8 248.9 146.8L237.3 138L251.7 137.8L251.8 137.7Z" fill="#FFE700"/>
<path fill-rule="evenodd" clip-rule="evenodd" d="M253.8 140L256.6 132L259.2 139.9C259.2 139.9 267.7 140.1 267.7 139.9C267.7 139.7 261 145.1 261 145.1L264 153.9C263.9 153.6 256.6 148.5 256.6 148.5L249.4 153.7C249.6 153.7 252.2 145.2 252.2 145.2L245.6 140.2L253.8 140Z" fill="#108C00"/>
<path fill-rule="evenodd" clip-rule="evenodd" d="M357.4 211.8L363 195.8L368 211.5C368 211.5 385.2 212.1 385.2 211.8C385.2 211.5 371.7 222.1 371.7 222.1L377.7 239.7C377.5 239.2 363 228.8 363 228.8C363 228.8 348.2 239.2 348.5 239.2C348.8 239.2 354.1 222.2 354.1 222.2L340.8 212L357.4 211.7V211.8Z" fill="black"/>
<path fill-rule="evenodd" clip-rule="evenodd" d="M358.1 212.6L363 198.7L367.4 212.4C367.4 212.4 382.2 212.8 382.2 212.6C382.2 212.4 370.5 221.6 370.5 221.6L375.8 236.7C375.6 236.3 363 227.3 363 227.3C363 227.3 350.2 236.3 350.4 236.3C350.6 236.3 355.3 221.5 355.3 221.5L343.8 212.8L358.1 212.6Z" fill="#FFE700"/>
<path fill-rule="evenodd" clip-rule="evenodd" d="M360.2 214.9L363 206.9L365.5 214.7L374.1 214.9L367.3 220C367.3 220 370.5 229 370.3 228.8C370.3 228.5 363 223.4 363 223.4L355.7 228.5L358.5 220L351.9 215L360.2 214.9Z" fill="#108C00"/>
<path fill-rule="evenodd" clip-rule="evenodd" d="M326.4 330.6L332 314.6L337 330.4C337 330.4 354.2 330.9 354.2 330.7C354.2 330.5 340.7 341 340.7 341L346.7 358.5C346.5 358 332 347.7 332 347.7C332 347.7 317.2 358 317.4 358C317.6 358 323.1 341 323.1 341L309.8 331L326.4 330.7V330.6Z" fill="black"/>
<path fill-rule="evenodd" clip-rule="evenodd" d="M327.1 331.4L332 317.6L336.4 331.2C336.4 331.2 351.2 331.7 351.2 331.4C351.2 331.1 339.5 340.4 339.5 340.4L344.8 355.6C344.6 355.1 332 346.2 332 346.2C332 346.2 319.2 355.2 319.4 355.2C319.6 355.2 324.3 340.4 324.3 340.4L312.8 331.7L327.1 331.4Z" fill="#FFE700"/>
<path fill-rule="evenodd" clip-rule="evenodd" d="M329.2 333.7L332 325.7L334.5 333.6C334.5 333.6 343.1 333.9 343.1 333.7C343.1 333.5 336.3 338.9 336.3 338.9L339.3 347.6C339.3 347.4 332 342.2 332 342.2L324.7 347.4L327.5 338.9L320.9 333.9L329.2 333.7Z" fill="#108C00"/>
<path fill-rule="evenodd" clip-rule="evenodd" d="M177.7 330.6L183.3 314.6L188.3 330.4C188.3 330.4 205.4 330.9 205.4 330.7C205.4 330.5 191.9 341 191.9 341L198.1 358.5C197.8 358 183.3 347.7 183.3 347.7C183.3 347.7 168.5 358 168.7 358C168.9 358 174.4 341 174.4 341L161.1 331L177.7 330.7V330.6Z" fill="black"/>
<path fill-rule="evenodd" clip-rule="evenodd" d="M178.5 331.4L183.3 317.6L187.7 331.2C187.7 331.2 202.5 331.7 202.5 331.4C202.5 331.1 190.8 340.4 190.8 340.4L196.1 355.6C195.9 355.1 183.3 346.2 183.3 346.2C183.3 346.2 170.5 355.2 170.7 355.2C170.9 355.2 175.6 340.4 175.6 340.4L164.1 331.7L178.4 331.4H178.5Z" fill="#FFE700"/>
<path fill-rule="evenodd" clip-rule="evenodd" d="M180.5 333.7L183.3 325.7L185.8 333.6C185.8 333.6 194.4 333.9 194.4 333.7C194.4 333.5 187.6 338.9 187.6 338.9L190.6 347.6C190.6 347.4 183.3 342.2 183.3 342.2L176 347.4L178.8 338.9L172.2 333.9L180.5 333.7Z" fill="#108C00"/>
<path fill-rule="evenodd" clip-rule="evenodd" d="M150.5 208.7L156.1 192.7L161.2 208.5C161.2 208.5 178.3 209 178.3 208.7C178.3 208.4 164.8 219.1 164.8 219.1L170.9 236.6C170.6 236.1 156.1 225.8 156.1 225.8C156.1 225.8 141.3 236 141.6 236C141.9 236 147.2 219 147.2 219L133.9 209L150.5 208.7Z" fill="black"/>
<path fill-rule="evenodd" clip-rule="evenodd" d="M151.3 209.5L156.1 195.7L160.6 209.3C160.6 209.3 175.3 209.8 175.3 209.5C175.3 209.2 163.6 218.5 163.6 218.5L168.9 233.7C168.7 233.2 156.1 224.3 156.1 224.3C156.1 224.3 143.3 233.3 143.6 233.3C143.9 233.3 148.4 218.5 148.4 218.5L136.9 209.8L151.3 209.5Z" fill="#FFE700"/>
<path fill-rule="evenodd" clip-rule="evenodd" d="M153.3 211.8L156.1 203.8L158.7 211.7L167.2 211.8L160.5 217L163.5 225.7C163.4 225.5 156.1 220.3 156.1 220.3L148.9 225.5C149.1 225.5 151.7 217 151.7 217L145.1 212L153.3 211.8Z" fill="#108C00"/>
<path fill-rule="evenodd" clip-rule="evenodd" d="M325.1 174.1L319.5 190.1L314.5 174.4C314.5 174.4 297.3 173.9 297.3 174.1C297.3 174.3 310.8 163.8 310.8 163.8L304.8 146.3C305 146.8 319.5 157.1 319.5 157.1C319.5 157.1 334.3 146.8 334 146.8C333.7 146.8 328.4 163.8 328.4 163.8L341.7 173.8L325.1 174.1Z" fill="black"/>
<path fill-rule="evenodd" clip-rule="evenodd" d="M324.4 173.3C324.4 173.6 319.4 187.2 319.4 187.2L315.1 173.6C315.1 173.6 300.3 173.1 300.3 173.3C300.3 173.5 312 164.4 312 164.4L306.7 149.2C306.9 149.7 319.5 158.6 319.5 158.6C319.5 158.6 332.3 149.6 332.1 149.6C331.9 149.6 327.2 164.4 327.2 164.4L338.7 173.1L324.3 173.3H324.4Z" fill="#FFE700"/>
<path fill-rule="evenodd" clip-rule="evenodd" d="M322.3 171L319.5 179L317 171.2C317 171.2 308.4 170.9 308.4 171.1C308.4 171.3 315.2 165.9 315.2 165.9L312.2 157.2C312.2 157.4 319.5 162.6 319.5 162.6L326.8 157.4C326.6 157.4 323.9 165.9 323.9 165.9L330.6 170.9L322.3 171.1V171Z" fill="#108C00"/>
<path fill-rule="evenodd" clip-rule="evenodd" d="M367.8 290.3L362.2 306.3L357.2 290.5C357.2 290.5 340 290 340 290.3C340 290.6 353.5 280 353.5 280L347.5 262.4C347.7 262.9 362.2 273.2 362.2 273.2C362.2 273.2 377 262.9 376.7 262.9C376.4 262.9 371.1 279.9 371.1 279.9L384.5 290L367.9 290.3H367.8Z" fill="black"/>
<path fill-rule="evenodd" clip-rule="evenodd" d="M367.1 289.5L362.2 303.3L357.8 289.7C357.8 289.7 343 289.3 343 289.5C343 289.7 354.7 280.5 354.7 280.5L349.4 265.3C349.6 265.8 362.2 274.7 362.2 274.7C362.2 274.7 375 265.7 374.8 265.7C374.6 265.7 369.9 280.5 369.9 280.5L381.4 289.3L367 289.5H367.1Z" fill="#FFE700"/>
<path fill-rule="evenodd" clip-rule="evenodd" d="M365 287.2L362.2 295.2L359.7 287.3C359.7 287.3 351.1 287.1 351.1 287.3C351.1 287.5 357.9 282.1 357.9 282.1L354.9 273.3C354.9 273.6 362.2 278.7 362.2 278.7L369.5 273.5C369.3 273.5 366.6 282.1 366.6 282.1L373.3 287.1L365 287.2Z" fill="#108C00"/>
<path fill-rule="evenodd" clip-rule="evenodd" d="M261.9 375.3L256.3 391.3L251.3 375.5C251.3 375.5 234.1 375 234.1 375.2C234.1 375.4 247.6 364.9 247.6 364.9L241.6 347.4C241.8 347.9 256.3 358.2 256.3 358.2C256.3 358.2 271.1 347.9 270.8 347.9C270.5 347.9 265.2 364.9 265.2 364.9L278.5 375L261.9 375.3Z" fill="black"/>
<path fill-rule="evenodd" clip-rule="evenodd" d="M261.2 374.4L256.3 388.4L251.9 374.7C251.9 374.7 237.1 374.2 237.1 374.5C237.1 374.8 248.8 365.5 248.8 365.5L243.5 350.3C243.7 350.8 256.3 359.7 256.3 359.7C256.3 359.7 269.1 350.7 268.9 350.7C268.7 350.7 264 365.5 264 365.5L275.5 374.2L261.2 374.5V374.4Z" fill="#FFE700"/>
<path fill-rule="evenodd" clip-rule="evenodd" d="M259.1 372.2L256.3 380.2L253.8 372.3C253.8 372.3 245.2 372 245.2 372.2C245.2 372.4 252 367 252 367L249 358.3C249 358.5 256.3 363.7 256.3 363.7L263.6 358.5L260.8 367L267.4 372L259.1 372.2Z" fill="#108C00"/>
<path fill-rule="evenodd" clip-rule="evenodd" d="M162.5 290.3L156.8 306.3L151.8 290.5C151.8 290.5 134.6 290 134.6 290.3C134.6 290.6 148.1 280 148.1 280L142.1 262.4C142.3 262.9 156.8 273.2 156.8 273.2L171.5 263L165.8 280L179.1 290.1L162.5 290.4V290.3Z" fill="black"/>
<path fill-rule="evenodd" clip-rule="evenodd" d="M161.7 289.5L156.8 303.3L152.4 289.7C152.4 289.7 137.6 289.3 137.6 289.5C137.6 289.7 149.3 280.5 149.3 280.5L144 265.3C144.2 265.8 156.8 274.7 156.8 274.7C156.8 274.7 169.6 265.7 169.4 265.7C169.2 265.7 164.5 280.5 164.5 280.5L176 289.3L161.7 289.5Z" fill="#FFE700"/>
<path fill-rule="evenodd" clip-rule="evenodd" d="M159.6 287.2L156.8 295.2L154.3 287.3C154.3 287.3 145.7 287.1 145.7 287.3C145.7 287.5 152.5 282.1 152.5 282.1L149.5 273.3C149.5 273.6 156.8 278.7 156.8 278.7L164.1 273.5L161.3 282.1L167.9 287.1L159.6 287.2Z" fill="#108C00"/>
<path fill-rule="evenodd" clip-rule="evenodd" d="M199.2 175.8L193.6 191.8L188.4 176.1C188.4 176.1 171.4 175.6 171.4 175.8C171.4 176 184.9 165.5 184.9 165.5L178.8 148C179 148.5 193.5 158.8 193.5 158.8C193.5 158.8 208.3 148.5 208.1 148.5C207.9 148.5 202.5 165.5 202.5 165.5L215.7 175.5L199.2 175.9V175.8Z" fill="black"/>
<path fill-rule="evenodd" clip-rule="evenodd" d="M198.4 175L193.5 189L189.1 175.3C189.1 175.3 174.3 174.8 174.3 175.1C174.3 175.4 186 166.1 186 166.1L180.7 150.9C180.9 151.4 193.5 160.3 193.5 160.3C193.5 160.3 206.3 151.3 206.1 151.3C205.9 151.3 201.3 166.1 201.3 166.1L212.7 174.8L198.4 175.1V175Z" fill="#FFE700"/>
<path fill-rule="evenodd" clip-rule="evenodd" d="M196.3 172.8L193.5 180.8L191 172.9C191 172.9 182.5 172.6 182.5 172.8C182.5 173 189.2 167.6 189.2 167.6L186.2 158.9C186.2 159.1 193.5 164.3 193.5 164.3L200.8 159.1L198 167.6L204.6 172.6L196.3 172.8Z" fill="#108C00"/>
<path d="M280.695 326.345C284.755 325.93 286.873 309.406 285.428 289.438C283.982 269.47 279.519 253.619 275.46 254.035C271.401 254.45 269.282 270.975 270.728 290.943C272.173 310.911 276.636 326.761 280.695 326.345Z" fill="#009200" stroke="black" stroke-width="0.535138"/>
<path d="M288.169 326.249C292.463 325.811 294.742 309.271 293.261 289.306C291.78 269.342 287.099 253.513 282.805 253.951C278.512 254.39 276.232 270.93 277.713 290.894C279.194 310.859 283.876 326.688 288.169 326.249Z" fill="#009200" stroke="black" stroke-width="0.550352"/>
<path d="M284.877 332.051C288.315 331.696 289.834 313.519 288.269 291.451C286.704 269.383 282.649 251.781 279.211 252.136C275.773 252.491 274.254 270.669 275.819 292.737C277.384 314.804 281.439 332.406 284.877 332.051Z" fill="#009200" stroke="black" stroke-width="0.517704"/>
<path fill-rule="evenodd" clip-rule="evenodd" d="M224.439 309.237C230.724 308.953 228.003 305.586 231.177 303.793C234.35 301.999 238.85 303.175 240.21 305.413C241.55 307.65 240.462 309.852 242.22 309.878C243.957 309.904 291.347 307.791 293.05 309.657C294.773 311.523 295.039 315.231 293.274 316.668C291.51 318.106 231.584 318.946 229.519 317.429C227.454 315.935 224.432 309.592 224.439 309.237Z" fill="#A95600" stroke="black" stroke-width="0.538573"/>
<path fill-rule="evenodd" clip-rule="evenodd" d="M258.021 314.015C257.897 318.78 264.926 317.421 265.007 321.403C264.789 325.619 253.235 321.661 253.145 313.949C253.638 306.232 264.949 302.428 265.095 306.84C265.184 310.488 258.13 309.249 258.006 314.014L258.021 314.015Z" fill="#FFFF00" stroke="black" stroke-width="0.527227"/>
<path fill-rule="evenodd" clip-rule="evenodd" d="M262.165 314.118C262.041 318.884 269.07 317.525 269.15 321.507C268.933 325.723 257.379 321.765 257.289 314.052C257.782 306.336 269.093 302.532 269.239 306.944C269.328 310.592 262.274 309.352 262.15 314.118L262.165 314.118Z" fill="#FFFF00" stroke="black" stroke-width="0.527227"/>
<path fill-rule="evenodd" clip-rule="evenodd" d="M266.62 313.911C266.495 318.677 273.525 317.318 273.605 321.299C273.388 325.515 261.834 321.557 261.744 313.845C262.237 306.129 273.548 302.325 273.694 306.737C273.783 310.385 266.729 309.145 266.604 313.911L266.62 313.911Z" fill="#FFFF00" stroke="black" stroke-width="0.527227"/>
<path fill-rule="evenodd" clip-rule="evenodd" d="M270.764 313.911C270.639 318.677 277.669 317.318 277.749 321.299C277.532 325.515 265.978 321.557 265.888 313.845C266.381 306.129 277.692 302.325 277.838 306.737C277.927 310.385 270.873 309.145 270.748 313.911L270.764 313.911Z" fill="#FFFF00" stroke="black" stroke-width="0.527227"/>
<path d="M290.747 316.974C292.94 317.006 294.755 315.212 294.802 312.968C294.848 310.723 293.109 308.877 290.916 308.845C288.723 308.813 286.907 310.607 286.861 312.851C286.814 315.096 288.554 316.942 290.747 316.974Z" fill="#A95600" stroke="black" stroke-width="0.465908"/>
<path d="M267.573 307.251C269.529 306.957 270.736 303.218 270.27 298.899C269.803 294.58 267.84 291.318 265.884 291.612C263.928 291.907 262.721 295.646 263.187 299.965C263.653 304.284 265.617 307.546 267.573 307.251Z" fill="#009200" stroke="black" stroke-width="0.592605"/>
<path d="M261.48 306.725C263.436 306.431 264.643 302.691 264.177 298.372C263.71 294.054 261.747 290.792 259.791 291.086C257.835 291.38 256.627 295.12 257.094 299.438C257.56 303.757 259.524 307.019 261.48 306.725Z" fill="#009200" stroke="black" stroke-width="0.592605"/>
<path d="M257.148 298.938C259.104 298.644 260.312 294.904 259.845 290.586C259.379 286.267 257.415 283.005 255.459 283.299C253.503 283.594 252.296 287.333 252.762 291.652C253.229 295.97 255.192 299.233 257.148 298.938Z" fill="#009200" stroke="black" stroke-width="0.592605"/>
<path d="M263.579 299.333C265.462 299.022 266.572 294.902 266.06 290.131C265.548 285.359 263.606 281.744 261.724 282.054C259.842 282.365 258.731 286.485 259.243 291.256C259.756 296.028 261.697 299.644 263.579 299.333Z" fill="#009200" stroke="black" stroke-width="0.611753"/>
<path d="M272.013 299.324C273.898 299.037 275.035 295.181 274.554 290.711C274.072 286.242 272.154 282.851 270.269 283.138C268.384 283.425 267.247 287.281 267.728 291.751C268.21 296.22 270.128 299.611 272.013 299.324Z" fill="#009200" stroke="black" stroke-width="0.591894"/>
<path d="M267.349 296.465C269.234 296.178 270.372 292.322 269.89 287.853C269.408 283.383 267.49 279.993 265.605 280.28C263.72 280.567 262.583 284.423 263.064 288.892C263.546 293.362 265.465 296.752 267.349 296.465Z" fill="#009200" stroke="black" stroke-width="0.591894"/>
<path d="M261.519 292.371C263.403 292.084 264.541 288.228 264.059 283.759C263.577 279.289 261.659 275.899 259.774 276.186C257.889 276.473 256.752 280.329 257.234 284.799C257.715 289.268 259.634 292.659 261.519 292.371Z" fill="#009200" stroke="black" stroke-width="0.591894"/>
<path d="M256.072 290.009C257.957 289.722 259.094 285.866 258.612 281.396C258.131 276.927 256.212 273.536 254.327 273.824C252.443 274.111 251.305 277.967 251.787 282.436C252.269 286.906 254.187 290.296 256.072 290.009Z" fill="#009200" stroke="black" stroke-width="0.591894"/>
<path fill-rule="evenodd" clip-rule="evenodd" d="M249.319 214.347C249.319 214.347 237.363 224.787 238.923 253.01C240.682 281.405 265.866 294.735 265.866 294.735C265.866 294.735 272.202 286.657 271.275 263.869C269.224 230.489 257.277 215.786 257.277 215.786L249.337 214.35L249.319 214.347Z" fill="#804BFF" stroke="black" stroke-width="0.471764"/>
<path d="M276.015 308.395C277.992 308.455 279.848 304.992 280.162 300.66C280.475 296.327 279.126 292.766 277.149 292.706C275.172 292.646 273.316 296.11 273.002 300.442C272.689 304.774 274.038 308.335 276.015 308.395Z" fill="#009200" stroke="black" stroke-width="0.592605"/>
<path d="M270.114 306.788C272.091 306.848 273.947 303.384 274.261 299.052C274.574 294.72 273.225 291.159 271.248 291.099C269.271 291.039 267.415 294.502 267.102 298.834C266.788 303.167 268.137 306.728 270.114 306.788Z" fill="#009200" stroke="black" stroke-width="0.592605"/>
<path d="M267.244 298.352C269.221 298.412 271.078 294.949 271.391 290.616C271.705 286.284 270.356 282.723 268.379 282.663C266.402 282.603 264.545 286.067 264.232 290.399C263.919 294.731 265.267 298.292 267.244 298.352Z" fill="#009200" stroke="black" stroke-width="0.592605"/>
<path d="M273.501 299.89C275.409 299.921 277.238 296.066 277.587 291.28C277.936 286.494 276.673 282.589 274.765 282.558C272.858 282.528 271.028 286.383 270.679 291.169C270.33 295.955 271.594 299.859 273.501 299.89Z" fill="#009200" stroke="black" stroke-width="0.611753"/>
<path d="M281.801 301.389C283.707 301.444 285.515 297.853 285.841 293.37C286.166 288.886 284.884 285.207 282.979 285.153C281.073 285.098 279.264 288.689 278.939 293.172C278.614 297.656 279.895 301.335 281.801 301.389Z" fill="#009200" stroke="black" stroke-width="0.591894"/>
<path d="M277.723 297.743C279.629 297.797 281.438 294.207 281.763 289.723C282.088 285.24 280.807 281.561 278.901 281.506C276.995 281.452 275.187 285.042 274.861 289.526C274.536 294.01 275.817 297.688 277.723 297.743Z" fill="#009200" stroke="black" stroke-width="0.591894"/>
<path d="M272.718 292.673C274.624 292.727 276.433 289.137 276.758 284.653C277.083 280.169 275.802 276.491 273.896 276.436C271.99 276.382 270.182 279.972 269.857 284.456C269.531 288.939 270.813 292.618 272.718 292.673Z" fill="#009200" stroke="black" stroke-width="0.591894"/>
<path d="M267.782 289.374C269.688 289.429 271.496 285.838 271.821 281.355C272.147 276.871 270.865 273.192 268.96 273.138C267.054 273.083 265.245 276.674 264.92 281.157C264.595 285.641 265.876 289.32 267.782 289.374Z" fill="#009200" stroke="black" stroke-width="0.591894"/>
<path d="M286.918 291.895C292.155 289.894 290.864 275.468 284.035 259.675C277.206 243.883 267.424 232.702 262.187 234.704C256.949 236.705 258.24 251.13 265.07 266.923C271.899 282.716 281.681 293.897 286.918 291.895Z" fill="#C90000" stroke="black" stroke-width="0.227401"/>
<path d="M266.936 237.755C269.377 237.797 271.386 236.079 271.423 233.917C271.461 231.755 269.513 229.967 267.073 229.925C264.632 229.882 262.623 231.6 262.585 233.763C262.548 235.925 264.496 237.712 266.936 237.755Z" fill="#009200" stroke="black" stroke-width="0.528668"/>
<path d="M270.41 232.117C272.597 232.155 274.401 230.433 274.439 228.271C274.476 226.108 272.734 224.324 270.547 224.286C268.36 224.248 266.556 225.97 266.518 228.132C266.48 230.295 268.223 232.078 270.41 232.117Z" fill="#009200" stroke="black" stroke-width="0.533845"/>
<path d="M265.024 232.023C267.211 232.061 269.015 230.339 269.052 228.177C269.09 226.014 267.348 224.23 265.16 224.192C262.973 224.154 261.17 225.876 261.132 228.038C261.094 230.201 262.837 231.984 265.024 232.023Z" fill="#009200" stroke="black" stroke-width="0.533845"/>
<path d="M266.124 227.737C268.41 227.777 270.292 226.164 270.327 224.135C270.363 222.105 268.538 220.428 266.252 220.388C263.966 220.348 262.084 221.961 262.049 223.99C262.013 226.02 263.838 227.697 266.124 227.737Z" fill="#009200" stroke="black" stroke-width="0.528746"/>
<path d="M265.687 223.067C267.973 223.107 269.855 221.494 269.891 219.464C269.926 217.435 268.102 215.757 265.816 215.717C263.53 215.677 261.648 217.29 261.612 219.32C261.577 221.349 263.401 223.027 265.687 223.067Z" fill="#009200" stroke="black" stroke-width="0.528746"/>
<path d="M259.895 229.032C262.082 229.07 263.886 227.348 263.924 225.186C263.961 223.024 262.219 221.24 260.032 221.202C257.845 221.163 256.041 222.885 256.003 225.048C255.965 227.21 257.708 228.994 259.895 229.032Z" fill="#009200" stroke="black" stroke-width="0.533845"/>
<path d="M261.022 223.852C263.209 223.89 265.012 222.204 265.049 220.086C265.086 217.968 263.343 216.22 261.156 216.182C258.968 216.144 257.165 217.83 257.128 219.948C257.091 222.066 258.834 223.814 261.022 223.852Z" fill="#009200" stroke="black" stroke-width="0.528351"/>
<path d="M254.534 224.068C256.974 224.111 258.983 222.393 259.021 220.23C259.059 218.068 257.111 216.281 254.67 216.238C252.23 216.195 250.221 217.914 250.183 220.076C250.145 222.238 252.093 224.026 254.534 224.068Z" fill="#009200" stroke="black" stroke-width="0.528668"/>
<path d="M262.679 217.315C264.965 217.355 266.847 215.742 266.883 213.713C266.918 211.683 265.094 210.006 262.808 209.966C260.522 209.926 258.64 211.539 258.604 213.568C258.569 215.598 260.393 217.275 262.679 217.315Z" fill="#009200" stroke="black" stroke-width="0.528746"/>
<path d="M257.183 218.19C259.37 218.228 261.173 216.542 261.21 214.424C261.247 212.306 259.504 210.558 257.317 210.52C255.13 210.481 253.327 212.167 253.29 214.285C253.253 216.404 254.996 218.151 257.183 218.19Z" fill="#009200" stroke="black" stroke-width="0.528351"/>
<path d="M248.684 224.277C250.871 224.315 252.675 222.593 252.713 220.431C252.75 218.269 251.008 216.485 248.821 216.447C246.634 216.409 244.83 218.13 244.792 220.293C244.754 222.455 246.497 224.239 248.684 224.277Z" fill="#009200" stroke="black" stroke-width="0.533845"/>
<path d="M250.083 221.278C252.271 221.316 254.074 219.63 254.111 217.512C254.148 215.394 252.404 213.646 250.217 213.608C248.03 213.57 246.227 215.256 246.19 217.374C246.153 219.492 247.896 221.24 250.083 221.278Z" fill="#009200" stroke="black" stroke-width="0.528351"/>
<path d="M251.797 218.096C253.984 218.134 255.787 216.448 255.824 214.33C255.861 212.212 254.118 210.464 251.931 210.426C249.744 210.387 247.94 212.073 247.904 214.191C247.867 216.309 249.61 218.057 251.797 218.096Z" fill="#009200" stroke="black" stroke-width="0.528351"/>
<path d="M292.033 291.912C298.761 289.527 297.65 272.346 289.552 253.539C281.455 234.732 269.436 221.419 262.709 223.805C255.982 226.191 257.092 243.371 265.19 262.178C273.288 280.985 285.306 294.298 292.033 291.912Z" fill="#009200" stroke="black" stroke-width="0.464966"/>
<path d="M291.14 270.95C292.385 270.356 291.972 266.699 290.218 262.782C288.463 258.864 286.031 256.17 284.786 256.765C283.541 257.359 283.954 261.016 285.709 264.933C287.463 268.85 289.895 271.544 291.14 270.95Z" fill="#009200" stroke="black" stroke-width="0.472824"/>
<path fill-rule="evenodd" clip-rule="evenodd" d="M286.781 263.826C297.318 276.613 295.957 284.755 294.839 291.631C291.524 283.7 289.774 278.711 279.237 265.925C268.7 253.138 273.963 244.156 274.686 239.406C276.268 243.514 276.244 251.039 286.781 263.826Z" fill="#009200" stroke="black" stroke-width="0.484337"/>
<path fill-rule="evenodd" clip-rule="evenodd" d="M287.732 274.156C298.269 286.942 296.908 295.084 295.79 301.96C292.475 294.029 290.725 289.041 280.188 276.254C269.652 263.467 274.914 254.485 275.637 249.735C277.219 253.844 277.195 261.369 287.732 274.156Z" fill="#009200" stroke="black" stroke-width="0.484337"/>
<path fill-rule="evenodd" clip-rule="evenodd" d="M288.118 282.48C298.919 295.038 297.726 303.207 296.751 310.104C293.271 302.247 291.419 297.297 280.618 284.739C269.817 272.181 274.893 263.089 275.517 258.325C277.185 262.399 277.317 269.922 288.118 282.48Z" fill="#009200" stroke="black" stroke-width="0.484326"/>
<path d="M286.293 264.451C288.761 263.819 288.252 257.649 285.158 250.669C282.064 243.69 277.556 238.544 275.089 239.176C272.622 239.808 273.13 245.979 276.224 252.958C279.318 259.937 283.826 265.083 286.293 264.451Z" fill="#009200" stroke="black" stroke-width="0.480043"/>
<path d="M280.858 269.468C283.078 269.082 282.929 264.084 280.526 258.304C278.122 252.524 274.373 248.151 272.153 248.537C269.933 248.922 270.082 253.921 272.485 259.701C274.889 265.481 278.638 269.854 280.858 269.468Z" fill="#009200" stroke="black" stroke-width="0.467386"/>
<path d="M275.569 274.278C277.795 273.939 277.75 268.94 275.467 263.114C273.184 257.287 269.528 252.839 267.301 253.178C265.075 253.518 265.12 258.516 267.403 264.343C269.686 270.169 273.342 274.617 275.569 274.278Z" fill="#009200" stroke="black" stroke-width="0.467205"/>
<path d="M279.423 254.099C281.217 253.768 280.993 250.008 278.924 245.701C276.855 241.393 273.723 238.171 271.929 238.502C270.136 238.834 270.359 242.594 272.428 246.901C274.497 251.208 277.629 254.431 279.423 254.099Z" fill="#009200" stroke="black" stroke-width="0.482248"/>
<path d="M274.539 257.574C276.351 257.34 276.369 253.572 274.579 249.158C272.789 244.744 269.869 241.355 268.057 241.588C266.245 241.822 266.226 245.589 268.016 250.004C269.806 254.418 272.726 257.807 274.539 257.574Z" fill="#009200" stroke="black" stroke-width="0.481917"/>
<path fill-rule="evenodd" clip-rule="evenodd" d="M267.989 244.51C271.097 252.099 272.353 258.927 270.783 259.755C269.214 260.584 265.424 255.093 262.316 247.504" fill="#009200"/>
<path d="M267.989 244.51C271.097 252.099 272.353 258.927 270.783 259.755C269.214 260.584 265.424 255.093 262.316 247.504" stroke="black" stroke-width="0.476786"/>
<path d="M274.047 248.65C275.86 248.417 275.878 244.649 274.088 240.235C272.298 235.821 269.378 232.432 267.565 232.665C265.753 232.899 265.735 236.666 267.525 241.081C269.315 245.495 272.235 248.884 274.047 248.65Z" fill="#009200" stroke="black" stroke-width="0.481917"/>
<path d="M268.843 251.159C270.661 250.96 270.762 247.194 269.068 242.747C267.375 238.3 264.527 234.856 262.709 235.054C260.89 235.253 260.789 239.019 262.483 243.466C264.177 247.913 267.024 251.357 268.843 251.159Z" fill="#009200" stroke="black" stroke-width="0.481966"/>
<path fill-rule="evenodd" clip-rule="evenodd" d="M262.729 234.331C265.759 239.463 267.391 244.259 266.367 245.038C265.343 245.818 262.058 242.282 259.029 237.149" fill="#009200"/>
<path d="M262.729 234.331C265.759 239.463 267.391 244.259 266.367 245.038C265.343 245.818 262.058 242.282 259.029 237.149" stroke="black" stroke-width="0.478022"/>
<path fill-rule="evenodd" clip-rule="evenodd" d="M264.82 230.917C267.849 236.049 269.482 240.845 268.458 241.624C267.434 242.404 264.148 238.867 261.119 233.735" fill="#009200"/>
<path d="M264.82 230.917C267.849 236.049 269.482 240.845 268.458 241.624C267.434 242.404 264.148 238.867 261.119 233.735" stroke="black" stroke-width="0.478022"/>
<path fill-rule="evenodd" clip-rule="evenodd" d="M274.13 231.538C278.341 238.541 280.607 245.087 279.179 246.153C277.751 247.22 273.179 242.396 268.968 235.392" fill="#009200"/>
<path d="M274.13 231.538C278.341 238.541 280.607 245.087 279.179 246.153C277.751 247.22 273.179 242.396 268.968 235.392" stroke="black" stroke-width="0.477028"/>
<path fill-rule="evenodd" clip-rule="evenodd" d="M268.017 227.753C271.057 233.407 272.7 238.687 271.678 239.543C270.656 240.399 267.363 236.501 264.322 230.848" fill="#009200"/>
<path d="M268.017 227.753C271.057 233.407 272.7 238.687 271.678 239.543C270.656 240.399 267.363 236.501 264.322 230.848" stroke="black" stroke-width="0.470102"/>
<path fill-rule="evenodd" clip-rule="evenodd" d="M267.611 219.902C265.585 221.957 267.571 225.779 269.423 227.145C271.492 229.034 283.178 241.339 291.402 230.931C284.805 230.821 272.48 215.338 267.611 219.902Z" fill="#804BFF" stroke="black" stroke-width="0.485519"/>
<path fill-rule="evenodd" clip-rule="evenodd" d="M266.161 213.789C264.135 215.845 266.121 219.666 267.973 221.032C270.042 222.922 281.728 235.227 289.951 224.818C283.354 224.709 271.03 209.225 266.161 213.789Z" fill="#804BFF" stroke="black" stroke-width="0.485519"/>
<path fill-rule="evenodd" clip-rule="evenodd" d="M264.296 207.988C262.27 210.043 264.256 213.865 266.108 215.231C268.177 217.12 279.863 229.425 288.087 219.017C281.489 218.907 269.165 203.424 264.296 207.988Z" fill="#804BFF" stroke="black" stroke-width="0.485519"/>
<path fill-rule="evenodd" clip-rule="evenodd" d="M260.255 201.357C258.229 203.413 260.216 207.234 262.068 208.6C264.137 210.49 275.822 222.795 284.046 212.386C277.449 212.277 265.124 196.793 260.255 201.357Z" fill="#804BFF" stroke="black" stroke-width="0.485519"/>
<path fill-rule="evenodd" clip-rule="evenodd" d="M245.738 194.656C249.929 191.592 257.646 190.69 263.642 193.754C268.648 196.208 276.945 206.134 283.201 208.49C281.54 208.857 279.809 208.934 278.109 208.718C276.408 208.502 274.773 207.996 273.3 207.231C267.719 211.218 265.743 211.793 260.045 212.581C252.168 213.666 245.622 211.614 243.36 207.535C240.994 203.689 242.022 197.521 245.738 194.656Z" fill="#804BFF" stroke="black" stroke-width="0.516507"/>
<path d="M254.29 202.707C256.28 202.742 257.91 201.838 257.93 200.688C257.95 199.538 256.353 198.578 254.363 198.543C252.373 198.508 250.743 199.412 250.723 200.562C250.703 201.712 252.3 202.672 254.29 202.707Z" fill="#FF0000" stroke="black" stroke-width="0.469283"/>
<path d="M244.792 212.245C247.396 211.277 249.027 209.208 248.436 207.624C247.845 206.039 245.255 205.539 242.652 206.507C240.048 207.475 238.417 209.544 239.008 211.129C239.599 212.713 242.188 213.213 244.792 212.245Z" fill="#FFFF00" stroke="black" stroke-width="0.509711"/>
<path d="M254.194 201.724C254.904 201.736 255.488 201.248 255.499 200.635C255.51 200.021 254.943 199.513 254.233 199.501C253.523 199.488 252.938 199.976 252.928 200.59C252.917 201.204 253.484 201.711 254.194 201.724Z" fill="black"/>
<path fill-rule="evenodd" clip-rule="evenodd" d="M246.512 203.124C246.848 204.715 245.674 206.897 243.114 207.697C240.498 208.814 238.526 211.299 237.397 215.348C233.378 206.189 235.894 202.261 240.105 201.277C243.736 200.072 245.923 200.199 246.512 203.124Z" fill="#FFFF00" stroke="black" stroke-width="0.604842"/>
<path d="M242.743 204.65C243.246 204.624 243.631 204.188 243.602 203.677C243.574 203.165 243.142 202.772 242.639 202.798C242.135 202.824 241.751 203.26 241.779 203.772C241.808 204.283 242.239 204.677 242.743 204.65Z" fill="black"/>
</g>
</g>
<defs>
<clipPath id="clip0_103_3873">
<rect width="512" height="512" fill="white" transform="translate(0.5)"/>
</clipPath>
</defs>
</svg>
