<svg width="513" height="512" viewBox="0 0 513 512" fill="none" xmlns="http://www.w3.org/2000/svg">
<g clip-path="url(#clip0_103_4129)">
<path d="M256.5 0H512.5V512H256.5V0Z" fill="white"/>
<path d="M0.5 0H256.5V512H0.5V0Z" fill="#006233"/>
<path d="M367.5 192C353.411 167.598 331.664 148.526 305.632 137.743C279.6 126.96 250.737 125.069 223.52 132.361C196.303 139.654 172.253 155.724 155.099 178.079C137.946 200.433 128.649 227.823 128.649 256C128.649 284.177 137.946 311.567 155.099 333.921C172.253 356.276 196.303 372.346 223.52 379.639C250.737 386.931 279.6 385.04 305.632 374.257C331.664 363.474 353.411 344.402 367.5 320C354.24 336.561 336.164 348.595 315.769 354.439C295.374 360.283 273.668 359.647 253.65 352.621C233.632 345.595 216.29 332.524 204.022 315.216C191.754 297.907 185.164 277.215 185.164 256C185.164 234.785 191.754 214.093 204.022 196.784C216.29 179.476 233.632 166.405 253.65 159.379C273.668 152.353 295.374 151.717 315.769 157.561C336.164 163.405 354.24 175.439 367.5 192ZM371.7 256L256.5 218.4L328.2 316.6V195.4L256.5 293.6L371.7 256Z" fill="#D21034"/>
</g>
<defs>
<clipPath id="clip0_103_4129">
<rect width="512" height="512" fill="white" transform="translate(0.5)"/>
</clipPath>
</defs>
</svg>
