<svg width="513" height="512" viewBox="0 0 513 512" fill="none" xmlns="http://www.w3.org/2000/svg">
<g clip-path="url(#clip0_103_4133)">
<path d="M0.5 348.2H512.5V371.2H0.5V348.2Z" fill="white"/>
<path d="M0.5 140.8H512.5V163.8H0.5V140.8Z" fill="white"/>
<path d="M0.5 371.2H512.5V512H0.5V371.2Z" fill="#0087FF"/>
<path d="M0.5 0H512.5V140.8H0.5V0Z" fill="#0087FF"/>
<path d="M0.5 309.8H512.5V348.2H0.5V309.8Z" fill="#FF0000"/>
<path d="M0.5 163.8H512.5V202.2H0.5V163.8Z" fill="black"/>
<path d="M0.5 220.2H512.5V291.9H0.5V220.2Z" fill="#FFFF00"/>
<path d="M0.5 291.8H512.5V309.7H0.5V291.8Z" fill="#008300"/>
<path d="M0.5 202.2H512.5V220.1H0.5V202.2Z" fill="#008300"/>
<path d="M256.516 170.834C241.827 170.859 227.474 175.227 215.262 183.389C203.05 191.55 193.524 203.141 187.882 216.703C182.241 230.264 180.735 245.192 183.556 259.607C186.376 274.022 193.397 287.281 203.734 297.716L171.897 307.956L174.783 315.217L164.543 317.451L171.99 341.282H341.041L348.395 317.451L338.156 315.217L341.041 307.863L309.205 297.716C319.536 287.286 326.555 274.036 329.378 259.629C332.202 245.223 330.704 230.303 325.074 216.746C319.444 203.188 309.932 191.596 297.734 183.427C285.536 175.259 271.196 170.878 256.516 170.834Z" fill="white" stroke="black" stroke-width="1.8618"/>
<path d="M173.573 317.824L180.089 338.862H332.943L339.366 317.824H173.573Z" fill="#008300"/>
<path d="M177.668 320.523L182.416 336.162H330.522L335.27 320.523H215.37H177.668Z" fill="white"/>
<path d="M188.106 329.735C188.106 330.076 188.071 330.405 188.001 330.72C187.93 331.022 187.807 331.285 187.631 331.508C187.455 331.744 187.221 331.928 186.927 332.059C186.634 332.191 186.259 332.256 185.801 332.256C185.391 332.256 185.039 332.204 184.746 332.099C184.441 331.981 184.188 331.849 183.989 331.705L184.464 330.464C184.64 330.582 184.834 330.68 185.045 330.759C185.244 330.851 185.461 330.897 185.696 330.897C186.048 330.897 186.3 330.799 186.452 330.602C186.605 330.418 186.681 330.096 186.681 329.636V325.007H188.106V329.735ZM191.977 332.256C191.52 332.256 191.133 332.191 190.816 332.059C190.487 331.915 190.218 331.718 190.006 331.468C189.795 331.219 189.637 330.923 189.531 330.582C189.438 330.227 189.391 329.846 189.391 329.439V325.007H190.816V329.282C190.816 329.571 190.845 329.814 190.904 330.011C190.962 330.208 191.045 330.372 191.15 330.503C191.244 330.634 191.361 330.726 191.502 330.779C191.655 330.831 191.819 330.858 191.995 330.858C192.347 330.858 192.628 330.74 192.839 330.503C193.05 330.267 193.156 329.86 193.156 329.282V324.987H194.599V329.42C194.599 329.827 194.54 330.208 194.423 330.562C194.329 330.904 194.176 331.206 193.965 331.468C193.742 331.718 193.467 331.908 193.138 332.04C192.81 332.171 192.423 332.237 191.977 332.237V332.256ZM197.643 325.007C197.76 325.23 197.889 325.512 198.03 325.854L198.487 326.918L198.945 328.1L199.385 329.242L199.807 328.1L200.264 326.918L200.722 325.854C200.863 325.512 200.992 325.23 201.109 325.007H202.411L202.587 326.583L202.71 328.415C202.757 329.045 202.792 329.682 202.816 330.326L202.904 332.119H201.514L201.443 329.853L201.302 327.39L200.951 328.356L200.528 329.4C200.411 329.755 200.288 330.089 200.159 330.405L199.842 331.212H198.839L198.54 330.405L198.153 329.4L197.748 328.356L197.396 327.39C197.326 328.218 197.279 329.039 197.256 329.853L197.185 332.119H195.778L195.866 330.326L195.971 328.415L196.112 326.602L196.288 325.007H197.643ZM206.686 332.256C206.241 332.256 205.854 332.191 205.525 332.059C205.197 331.915 204.927 331.718 204.716 331.468C204.505 331.219 204.346 330.923 204.241 330.582C204.147 330.227 204.1 329.846 204.1 329.439V325.007H205.525V329.282C205.525 329.571 205.555 329.814 205.613 330.011C205.672 330.208 205.754 330.372 205.86 330.503C205.965 330.634 206.082 330.726 206.211 330.779C206.364 330.831 206.528 330.858 206.704 330.858C207.056 330.858 207.337 330.74 207.549 330.503C207.76 330.267 207.865 329.86 207.865 329.282V324.987H209.308V329.42C209.308 329.827 209.249 330.208 209.132 330.562C209.038 330.904 208.886 331.206 208.675 331.468C208.452 331.718 208.176 331.908 207.848 332.04C207.519 332.171 207.132 332.237 206.686 332.237V332.256ZM210.663 325.007H212.106V332.119H210.681L210.663 325.007ZM215.906 327.922L216.645 326.465C216.88 325.979 217.091 325.493 217.279 325.007H218.862C218.51 325.768 218.147 326.51 217.771 327.233C217.396 327.955 217.003 328.678 216.592 329.4V332.119H215.167V329.42C214.745 328.697 214.346 327.975 213.971 327.253C213.595 326.517 213.232 325.768 212.88 325.007H214.551C214.739 325.493 214.95 325.979 215.185 326.465L215.889 327.922H215.906ZM222.979 332.119L222.751 331.37L222.504 330.582H220.041L219.777 331.37L219.566 332.119H218.053L218.739 329.991L219.355 328.159L219.971 326.524C220.17 325.998 220.375 325.493 220.586 325.007H221.959C222.17 325.493 222.375 325.998 222.575 326.524L223.173 328.159L223.806 329.991L224.493 332.119H222.979ZM221.255 326.602C221.232 326.721 221.185 326.865 221.114 327.036L220.903 327.647L220.639 328.435L220.358 329.301H222.17L221.889 328.415L221.625 327.647L221.413 327.056L221.255 326.622V326.602ZM229.859 327.922L230.598 326.465C230.833 325.979 231.044 325.493 231.231 325.007H232.815C232.463 325.768 232.105 326.51 231.742 327.233C231.366 327.955 230.968 328.678 230.545 329.4V332.119H229.138V329.42L227.941 327.253C227.566 326.517 227.208 325.768 226.868 325.007H228.522L229.155 326.465L229.877 327.922H229.859ZM236.932 332.119L236.703 331.37L236.457 330.582H233.994L233.748 331.37L233.519 332.119H232.041L232.709 329.991L233.343 328.159L233.941 326.524C234.14 325.998 234.352 325.493 234.574 325.007H235.929C236.14 325.493 236.346 325.998 236.545 326.524L237.161 328.159L237.794 329.991L238.463 332.119H236.932ZM235.225 326.602L235.085 327.036L234.874 327.647L234.61 328.435L234.328 329.301H236.123L235.841 328.415L235.577 327.647L235.366 327.056L235.225 326.622V326.602ZM245.747 332.119L245.519 331.37L245.272 330.582H242.809L242.563 331.37L242.334 332.119H240.856L241.524 329.991C241.736 329.334 241.947 328.724 242.158 328.159L242.756 326.524C242.956 325.998 243.161 325.493 243.372 325.007H244.744C244.955 325.493 245.161 325.998 245.36 326.524L245.958 328.159L246.592 329.991L247.278 332.119H245.747ZM244.023 326.602L243.9 327.036L243.689 327.647L243.425 328.435L243.126 329.301H244.938L244.656 328.415L244.392 327.647L244.181 327.056L244.023 326.622V326.602ZM248.105 332.119V325.007H252.363V326.346H249.548V327.844H252.046V329.183H249.53V332.138L248.105 332.119ZM255.231 324.928C256.181 324.928 256.908 325.118 257.413 325.499C257.929 325.88 258.187 326.471 258.187 327.272C258.187 327.771 258.081 328.178 257.87 328.494C257.671 328.796 257.378 329.039 256.99 329.223L257.395 329.814L257.8 330.543L258.204 331.331L258.556 332.119H256.973L256.603 331.409L256.251 330.72L255.864 330.07L255.512 329.518H254.809V332.119H253.366V325.105C253.683 325.039 254.005 324.994 254.334 324.967L255.213 324.928H255.231ZM255.319 326.287H255.002L254.773 326.327V328.257H255.178C255.718 328.257 256.105 328.178 256.339 328.021C256.574 327.876 256.691 327.62 256.691 327.253C256.691 326.898 256.574 326.655 256.339 326.524C256.105 326.366 255.753 326.287 255.284 326.287H255.319ZM259.489 325.007H260.914V332.119H259.489V325.007ZM266.14 332.119C266.011 331.882 265.858 331.633 265.682 331.37L265.102 330.562C264.902 330.286 264.691 330.024 264.468 329.774C264.245 329.525 264.028 329.301 263.817 329.104V332.119H262.374V325.007H263.817V327.686C264.193 327.253 264.562 326.799 264.926 326.327L265.981 325.007H267.688C267.254 325.585 266.814 326.136 266.369 326.662C265.935 327.2 265.477 327.738 264.996 328.277C265.501 328.75 265.987 329.315 266.456 329.971C266.937 330.628 267.395 331.35 267.829 332.138L266.14 332.119ZM273.125 332.119L272.914 331.37L272.668 330.582H270.204L269.94 331.37L269.729 332.119H268.234L268.92 329.991L269.536 328.159L270.151 326.524C270.351 325.998 270.556 325.493 270.767 325.007H272.14C272.351 325.493 272.556 325.998 272.755 326.524L273.354 328.159L273.987 329.991L274.673 332.119H273.125ZM271.418 326.602L271.295 327.036L271.084 327.647L270.802 328.435L270.521 329.301H272.333L272.052 328.415L271.788 327.647L271.577 327.056L271.418 326.622V326.602ZM279.389 325.007C279.506 325.23 279.629 325.512 279.758 325.854L280.216 326.918L280.673 328.1L281.113 329.242L281.535 328.1L281.993 326.918L282.45 325.854C282.591 325.512 282.72 325.23 282.837 325.007H284.139L284.315 326.583L284.439 328.415C284.485 329.045 284.521 329.682 284.544 330.326L284.632 332.119H283.242L283.172 329.853L283.031 327.39L282.679 328.356L282.257 329.4C282.139 329.755 282.016 330.089 281.887 330.405L281.571 331.212H280.568L280.269 330.405L279.881 329.4L279.477 328.356L279.125 327.39C279.054 328.218 279.008 329.039 278.984 329.853L278.914 332.119H277.506L277.594 330.326L277.7 328.415L277.84 326.602L278.016 325.007H279.389ZM290.192 332.119L289.946 331.37L289.717 330.582H287.236L286.99 331.37L286.761 332.119H285.283L285.952 329.991L286.585 328.159L287.183 326.524C287.383 325.998 287.594 325.493 287.817 325.007H289.172C289.383 325.493 289.588 325.998 289.787 326.524C289.999 327.049 290.204 327.594 290.403 328.159L291.037 329.991L291.705 332.119H290.192ZM288.468 326.602L288.327 327.036L288.116 327.647L287.852 328.435L287.57 329.301H289.365L289.084 328.415L288.82 327.647L288.609 327.056L288.468 326.622V326.602ZM294.45 330.897C294.649 330.897 294.814 330.877 294.943 330.838C295.072 330.799 295.177 330.753 295.259 330.7C295.342 330.621 295.4 330.543 295.435 330.464C295.459 330.372 295.471 330.273 295.471 330.168C295.471 329.932 295.371 329.735 295.171 329.577C294.984 329.42 294.649 329.255 294.169 329.085L293.535 328.809C293.336 328.691 293.154 328.559 292.99 328.415C292.825 328.244 292.691 328.047 292.585 327.824C292.468 327.587 292.409 327.305 292.409 326.977C292.409 326.648 292.468 326.353 292.585 326.09C292.702 325.828 292.861 325.604 293.06 325.42C293.259 325.237 293.506 325.092 293.799 324.987C294.081 324.895 294.403 324.849 294.767 324.849C295.189 324.849 295.559 324.895 295.875 324.987C296.18 325.092 296.438 325.21 296.649 325.342L296.227 326.602C296.051 326.497 295.852 326.405 295.629 326.327C295.418 326.248 295.16 326.208 294.855 326.208C294.503 326.208 294.257 326.261 294.116 326.366C293.963 326.471 293.887 326.635 293.887 326.859C293.887 326.99 293.916 327.095 293.975 327.174C294.034 327.266 294.11 327.351 294.204 327.43L294.556 327.627L294.995 327.804C295.324 327.935 295.611 328.067 295.858 328.198C296.092 328.33 296.292 328.487 296.456 328.671C296.62 328.855 296.743 329.065 296.825 329.301C296.907 329.538 296.949 329.827 296.949 330.168C296.949 330.825 296.737 331.344 296.315 331.725C295.905 332.079 295.283 332.256 294.45 332.256C294.169 332.256 293.91 332.237 293.676 332.197C293.453 332.171 293.254 332.125 293.078 332.059L292.62 331.902L292.321 331.705L292.726 330.444C292.913 330.562 293.148 330.667 293.43 330.759C293.699 330.851 294.04 330.897 294.45 330.897ZM301.875 325.007H303.318V332.119H301.875V329.104H299.482V332.119H298.039V325.007H299.482V327.706H301.875V325.007ZM309.019 332.119L308.808 331.37L308.561 330.582H306.098L305.834 331.37L305.623 332.119H304.127C304.362 331.357 304.596 330.648 304.831 329.991C305.03 329.334 305.236 328.724 305.447 328.159L306.045 326.524C306.245 325.998 306.45 325.493 306.661 325.007H308.033C308.244 325.493 308.45 325.998 308.649 326.524L309.247 328.159L309.881 329.991L310.567 332.119H309.019ZM307.312 326.602L307.189 327.036L306.978 327.647L306.696 328.435L306.415 329.301H308.227L307.945 328.415L307.681 327.647L307.47 327.056L307.312 326.622V326.602ZM313.241 324.928C314.203 324.928 314.936 325.118 315.441 325.499C315.945 325.88 316.197 326.471 316.197 327.272C316.197 327.771 316.098 328.178 315.898 328.494C315.687 328.796 315.394 329.039 315.019 329.223L315.423 329.814L315.828 330.543L316.233 331.331L316.584 332.119H315.001L314.631 331.409L314.262 330.72L313.91 330.07L313.523 329.518H312.819V332.119H311.394V325.105C311.699 325.039 312.016 324.994 312.344 324.967L313.259 324.928H313.241ZM313.329 326.287H313.065L312.837 326.327V328.257H313.241C313.781 328.257 314.168 328.178 314.403 328.021C314.637 327.876 314.755 327.62 314.755 327.253C314.755 326.898 314.637 326.655 314.403 326.524C314.168 326.366 313.816 326.287 313.347 326.287H313.329ZM317.499 325.007H318.942V332.119H317.499V325.007ZM324.15 332.119C324.033 331.882 323.881 331.633 323.693 331.37C323.529 331.107 323.341 330.838 323.13 330.562C322.93 330.286 322.719 330.024 322.496 329.774C322.274 329.525 322.051 329.301 321.828 329.104V332.119H320.42V325.007H321.828V327.686C322.203 327.253 322.578 326.799 322.954 326.327L324.01 325.007H325.699C325.265 325.585 324.831 326.136 324.397 326.662C323.963 327.2 323.505 327.738 323.024 328.277C323.529 328.75 324.015 329.315 324.485 329.971C324.954 330.628 325.411 331.35 325.857 332.138L324.15 332.119ZM326.684 325.007H328.092V332.119H326.684V325.007Z" fill="black"/>
<path fill-rule="evenodd" clip-rule="evenodd" d="M173.573 317.824L183.254 315.217L180.275 309.911L196.938 303.674V309.352H202.058V318.01H174.131L173.573 317.824Z" fill="#008300"/>
<path fill-rule="evenodd" clip-rule="evenodd" d="M199.638 318.01H179.344L199.638 312.517V318.01ZM195.169 309.445H186.14L195.449 305.908L195.169 309.445ZM183.347 310.935L185.395 314.659L198.893 310.935H183.347Z" fill="white"/>
<path fill-rule="evenodd" clip-rule="evenodd" d="M339.366 317.824L329.684 315.217L332.663 309.911L316 303.674V309.352H310.88V318.01H338.807L339.366 317.824Z" fill="#008300"/>
<path fill-rule="evenodd" clip-rule="evenodd" d="M313.301 318.01H333.594L313.301 312.517V318.01ZM317.769 309.445H326.799L317.49 305.908L317.769 309.445ZM329.591 310.935L327.543 314.659L314.045 310.935H329.591Z" fill="white"/>
<path d="M254.747 179.678C239.603 180.178 225.093 185.881 213.662 195.827C202.23 205.773 194.575 219.354 191.985 234.283C189.395 249.213 192.028 264.579 199.441 277.794C206.854 291.009 218.594 301.267 232.685 306.839V299.578C220.307 294.12 210.177 284.581 203.983 272.555C197.79 260.529 195.909 246.742 198.654 233.496C201.399 220.25 208.604 208.346 219.067 199.772C229.529 191.197 242.616 186.47 256.143 186.38H256.609C270.168 186.386 283.312 191.052 293.84 199.597C304.367 208.142 311.637 220.047 314.43 233.315C317.223 246.583 315.37 260.408 309.182 272.472C302.993 284.536 292.846 294.106 280.44 299.578V306.839C294.756 301.276 306.676 290.882 314.135 277.456C321.594 264.03 324.123 248.418 321.283 233.324C318.443 218.23 310.414 204.604 298.585 194.807C286.757 185.009 271.875 179.658 256.516 179.678H254.747Z" fill="#FFFF00" stroke="black" stroke-width="1.11708"/>
<path fill-rule="evenodd" clip-rule="evenodd" d="M274.575 292.969L274.668 302.836C268.71 303.767 262.101 309.911 260.332 311.028C258.564 312.238 255.678 314.565 254.095 314.379C251.396 314.007 253.351 311.866 253.351 311.866C253.351 311.866 251.489 314.1 250.185 313.076C248.882 312.238 250.93 310.563 250.93 310.563C250.93 310.563 250.279 311.493 248.882 311.028C247.579 310.656 248.51 309.166 248.51 309.166C248.51 309.166 244.972 311.028 244.321 310.376C243.39 309.166 244.693 308.049 244.693 308.049L252.978 301.067C257.54 299.206 258.843 301.812 260.891 301.626C263.125 301.44 268.803 298.368 270.386 296.878C271.969 295.296 271.503 293.62 272.713 293.155C273.923 292.689 274.575 292.969 274.575 292.969Z" fill="white" stroke="black" stroke-width="0.81056"/>
<path fill-rule="evenodd" clip-rule="evenodd" d="M238.27 293.713L238.177 302.836C243.762 303.581 249.999 309.539 251.675 310.656C253.258 311.68 256.05 313.448 257.54 313.262C259.96 312.983 259.402 312.052 259.402 312.052C259.402 312.052 260.519 312.611 262.008 312.052C263.497 311.493 262.753 310.469 262.753 310.469C262.753 310.469 264.987 311.121 265.918 309.911C266.849 308.887 264.987 307.77 264.987 307.77C264.987 307.77 265.918 307.118 264.428 307.956C262.939 308.701 259.96 305.349 256.981 305.163C253.909 305.163 253.63 308.142 251.768 306.746C249.813 305.256 253.258 302.836 254.468 302.464C259.215 300.881 263.684 302.836 257.912 300.602C254.933 299.485 252.606 301.626 250.651 301.533C248.603 301.44 243.576 298.74 242.273 297.251C240.784 295.761 241.156 294.272 240.039 293.806C238.922 293.434 238.27 293.62 238.177 293.713H238.27Z" fill="white" stroke="black" stroke-width="0.736872"/>
<path d="M262.846 310.469L258.843 308.794M259.867 312.238L255.212 309.445" stroke="black" stroke-width="0.736872"/>
<path fill-rule="evenodd" clip-rule="evenodd" d="M230.636 288.966C219.093 294.551 218.535 279.843 213.322 280.029C223.096 273.513 221.514 285.614 230.636 288.966ZM226.168 272.768C220.397 283.287 233.895 284.684 233.429 289.803C240.039 280.867 228.775 281.612 226.168 272.768Z" fill="#008300" stroke="black" stroke-width="0.355995"/>
<path fill-rule="evenodd" clip-rule="evenodd" d="M220.583 276.864C206.34 279.284 210.25 266.996 204.292 265.972C216.859 262.249 211.46 271.744 220.583 276.864Z" fill="#008300" stroke="black" stroke-width="0.355995"/>
<path fill-rule="evenodd" clip-rule="evenodd" d="M219.093 262.342C211.274 271.558 222.538 272.023 221.234 276.864C229.333 269.417 220.955 269.696 219.093 262.342ZM210.901 264.018C196.752 261.97 205.688 247.541 201.406 244.469C213.042 245.306 205.502 257.967 210.901 264.018Z" fill="#008300" stroke="black" stroke-width="0.355995"/>
<path fill-rule="evenodd" clip-rule="evenodd" d="M216.301 245.772C203.268 252.009 216.394 258.711 211.274 264.39C224.12 263.738 212.763 255.36 216.301 245.958V245.772ZM209.04 246.237C193.866 239.349 209.691 226.316 206.992 221.569C217.325 232.088 201.592 235.997 209.04 246.237Z" fill="#008300" stroke="black" stroke-width="0.355995"/>
<path fill-rule="evenodd" clip-rule="evenodd" d="M218.721 228.736C205.688 230.412 212.205 242.421 209.505 246.703C219.745 244.376 211.553 238.325 218.814 228.736H218.721ZM212.391 225.106C205.037 213.935 217.325 211.422 218.162 205.743C221.7 220.451 213.322 215.704 212.391 225.106Z" fill="#008300" stroke="black" stroke-width="0.355995"/>
<path fill-rule="evenodd" clip-rule="evenodd" d="M227.099 215.797C214.997 212.353 217.231 224.547 213.135 227.433C223.375 229.109 221.234 219.334 227.099 215.797ZM221.514 210.584C219.093 200.903 223.934 202.485 229.426 198.203C232.405 206.022 225.051 205.092 221.514 210.584ZM236.967 209.094C227.658 202.206 226.634 211.515 221.793 212.818C230.729 218.124 231.102 210.212 236.967 209.188V209.094ZM231.381 204.44C231.66 200.251 237.246 194.759 243.017 196.62C242.738 203.602 236.036 205.371 231.381 204.533V204.44Z" fill="#008300" stroke="black" stroke-width="0.355995"/>
<path fill-rule="evenodd" clip-rule="evenodd" d="M282.301 288.966C293.845 294.551 294.403 279.843 299.616 280.029C289.842 273.513 291.424 285.614 282.301 288.966ZM286.77 272.768C292.541 283.287 279.043 284.684 279.509 289.803C272.899 280.867 284.163 281.612 286.77 272.768Z" fill="#008300" stroke="black" stroke-width="0.355995"/>
<path fill-rule="evenodd" clip-rule="evenodd" d="M292.355 276.864C306.598 279.284 302.688 266.996 308.646 265.972C296.079 262.249 301.478 271.744 292.355 276.864Z" fill="#008300" stroke="black" stroke-width="0.355995"/>
<path fill-rule="evenodd" clip-rule="evenodd" d="M293.845 262.342C301.664 271.558 290.4 272.023 291.704 276.864C283.605 269.417 291.983 269.696 293.845 262.342ZM302.037 264.018C316.186 261.97 307.25 247.541 311.532 244.469C299.895 245.306 307.436 257.967 302.037 264.018Z" fill="#008300" stroke="black" stroke-width="0.355995"/>
<path fill-rule="evenodd" clip-rule="evenodd" d="M296.637 245.772C309.67 252.009 296.544 258.711 301.664 264.39C288.818 263.738 300.175 255.36 296.637 245.958V245.772ZM303.898 246.237C319.072 239.349 303.247 226.316 305.946 221.569C295.613 232.088 311.346 235.997 303.898 246.237Z" fill="#008300" stroke="black" stroke-width="0.355995"/>
<path fill-rule="evenodd" clip-rule="evenodd" d="M294.217 228.736C307.25 230.412 300.733 242.421 303.433 246.703C293.193 244.376 301.385 238.325 294.124 228.736H294.217ZM300.547 225.106C307.901 213.935 295.613 211.422 294.776 205.743C291.238 220.451 299.616 215.704 300.547 225.106Z" fill="#008300" stroke="black" stroke-width="0.355995"/>
<path fill-rule="evenodd" clip-rule="evenodd" d="M285.839 215.797C297.941 212.353 295.707 224.547 299.802 227.433C289.563 229.109 291.704 219.334 285.839 215.797ZM291.424 210.584C293.845 200.903 289.004 202.485 283.512 198.203C280.533 206.022 287.887 205.092 291.424 210.584ZM275.971 209.094C285.28 202.206 286.304 211.515 291.145 212.818C282.208 218.124 281.836 210.212 275.971 209.188V209.094ZM281.557 204.44C281.278 200.251 275.692 194.759 269.921 196.62C270.2 203.602 276.902 205.371 281.557 204.533V204.44Z" fill="#008300" stroke="black" stroke-width="0.355995"/>
<path d="M245.079 192.333L245.634 195.595L247.369 195.248C247.855 195.248 248.133 195.04 248.272 194.901C248.48 194.693 248.549 194.346 248.48 193.86H248.688L249.174 196.636H248.966L248.688 195.942L248.272 195.665H247.508L245.704 196.012L246.12 198.718L246.328 199.412L246.536 199.482H246.953L248.341 199.274L249.313 198.996L249.868 198.51C250.076 198.233 250.284 197.816 250.423 197.261H250.701L250.354 199.343L244.107 200.454L244.038 200.245H244.316L244.801 199.968C244.94 199.829 245.01 199.759 245.01 199.621V198.788L244.038 193.513C244.038 193.027 243.899 192.68 243.76 192.611C243.552 192.472 243.344 192.403 242.997 192.472H242.719V192.333L248.966 191.223L249.313 193.027H249.104C249.013 192.728 248.873 192.447 248.688 192.194L248.133 191.917C247.857 191.875 247.576 191.875 247.3 191.917L245.079 192.333ZM257.016 196.289H253.824L253.269 197.608C253.159 197.825 253.089 198.06 253.06 198.302C253.06 198.441 253.13 198.58 253.269 198.649C253.407 198.788 253.616 198.788 254.032 198.857V199.065H251.464V198.857C251.811 198.857 252.019 198.718 252.158 198.649L252.852 197.4L255.628 190.598H255.906L258.821 197.469C259.029 198.024 259.237 198.371 259.446 198.51C259.654 198.718 259.862 198.788 260.209 198.788V199.065H256.947V198.857C257.294 198.857 257.502 198.788 257.641 198.649C257.78 198.58 257.78 198.441 257.78 198.302C257.78 198.163 257.78 197.886 257.572 197.469L257.016 196.289ZM256.878 195.803L255.49 192.472L254.032 195.873H256.878M269.232 192.056L268.954 194.832H268.746C268.713 194.129 268.471 193.453 268.052 192.888C267.627 192.441 267.065 192.148 266.455 192.056C265.944 191.958 265.414 192.006 264.929 192.194C264.382 192.415 263.92 192.804 263.61 193.305C263.263 193.86 263.055 194.624 262.916 195.526C262.785 196.167 262.785 196.828 262.916 197.469C263.055 198.094 263.332 198.58 263.749 198.857C264.165 199.274 264.72 199.551 265.345 199.621C265.831 199.69 266.317 199.69 266.733 199.551C267.219 199.412 267.705 198.996 268.329 198.441L268.538 198.58C267.982 199.274 267.427 199.69 266.802 199.968C266.178 200.176 265.553 200.245 264.72 200.107C263.402 199.829 262.43 199.204 261.944 198.024C261.504 197.17 261.358 196.194 261.528 195.248C261.667 194.485 261.944 193.721 262.43 193.166C262.916 192.472 263.54 192.056 264.235 191.778C264.873 191.517 265.57 191.431 266.253 191.529C266.936 191.626 267.581 191.904 268.121 192.333L268.399 192.541L268.746 192.472L269.023 192.056H269.232Z" fill="black"/>
<path d="M254.281 207.326C253.351 207.326 252.42 207.512 251.582 207.698C250.13 210.223 247.817 212.14 245.066 213.097L244.507 213.283C241.638 214.502 238.416 214.601 235.477 213.563C232.884 215.287 230.508 217.319 228.402 219.614C228.937 222.691 228.271 225.857 226.541 228.457C225.122 231.205 222.734 233.328 219.838 234.415C218.907 237.394 218.349 240.559 218.256 243.724C220.117 245.12 221.7 247.82 222.352 251.078L222.538 251.73C223.189 255.267 222.538 258.618 221.235 260.573C222.445 263.459 224.027 266.159 225.889 268.672C228.123 268.486 231.102 269.603 233.709 271.558L234.174 272.023C236.967 274.351 238.642 277.236 238.829 279.657C241.714 281.146 244.693 282.263 247.858 282.915C249.534 281.332 252.513 280.122 255.864 280.122H256.516C260.146 280.122 263.311 281.239 265.08 282.915C268.245 282.263 271.224 281.053 274.017 279.657C274.532 276.584 276.196 273.823 278.671 271.93C280.971 269.856 283.952 268.697 287.049 268.672C288.911 266.252 290.493 263.552 291.704 260.759C290.264 258.253 289.768 255.314 290.307 252.474V251.916C291.052 248.285 292.728 245.4 294.683 243.91C294.542 240.754 294.011 237.627 293.1 234.601C290.403 233.583 288.158 231.635 286.77 229.109L286.398 228.55C284.536 225.385 283.977 222.034 284.536 219.707C282.373 217.31 279.899 215.212 277.182 213.47C274.478 214.467 271.507 214.467 268.803 213.47L268.152 213.19C265.184 212.268 262.663 210.278 261.077 207.605C259.588 207.419 258.005 207.326 256.423 207.326H254.747C254.716 207.324 254.685 207.324 254.654 207.326H254.188H254.281Z" fill="#FF0000"/>
<path d="M289.19 245.4C289.19 254.078 285.743 262.4 279.607 268.537C273.47 274.673 265.147 278.121 256.469 278.121C247.791 278.121 239.468 274.673 233.332 268.537C227.195 262.4 223.748 254.078 223.748 245.4C223.748 236.721 227.195 228.399 233.332 222.262C239.468 216.126 247.791 212.678 256.469 212.678C265.147 212.678 273.47 216.126 279.607 222.262C285.743 228.399 289.19 236.721 289.19 245.4Z" fill="#FBF014" stroke="black" stroke-width="0.37236"/>
<path d="M286.397 245.4C286.397 253.349 283.239 260.974 277.618 266.595C271.997 272.216 264.372 275.375 256.423 275.375C248.473 275.375 240.848 272.216 235.227 266.595C229.606 260.974 226.448 253.349 226.448 245.4C226.448 237.45 229.606 229.825 235.227 224.204C240.848 218.583 248.473 215.425 256.423 215.425C264.372 215.425 271.997 218.583 277.618 224.204C283.239 229.825 286.397 237.45 286.397 245.4Z" fill="#FBF014" stroke="black" stroke-width="0.37236"/>
<path fill-rule="evenodd" clip-rule="evenodd" d="M247.579 230.691L257.447 232.46L256.143 242.328L247.765 248.099L243.111 242.979L243.39 234.88L247.579 230.691Z" fill="#0087FF" stroke="black" stroke-width="0.332108"/>
<path fill-rule="evenodd" clip-rule="evenodd" d="M244.786 237.952L240.877 238.139H240.504V238.325H240.411L240.318 238.604L239.946 238.79V238.976L239.666 239.163L239.294 239.349H239.201L239.108 238.976H238.549L238.27 239.069V238.604L238.177 238.511V237.58H238.363V236.742L238.456 236.556V236.37L238.736 236.091L239.015 235.997V235.718L239.108 235.439L239.201 235.346L239.108 235.16L238.829 235.346L238.549 235.16V234.601L238.829 234.415L238.922 234.508L239.108 233.763L239.387 233.484L239.201 233.019L239.387 232.739L239.294 232.367L240.132 232.088V231.808L240.225 231.436L240.597 231.343L240.877 231.157L241.063 231.622V231.901H241.249L241.435 231.529L241.621 231.436V231.157L242.18 230.505L242.366 230.319L242.738 230.133H243.111L243.39 229.76V229.388H243.576L243.762 229.202L243.669 228.923V228.271H243.483V228.085L243.297 228.364L243.111 228.271V227.992H242.552L242.366 227.619L242.18 227.712V227.992L241.994 227.899V227.526H241.621L241.714 227.154L242.087 226.502V226.13L241.714 225.758L241.994 225.013L242.366 224.64V224.175L242.087 224.268L242.459 223.803L243.111 223.523H243.483L244.042 223.896L244.228 223.803H244.507L244.973 223.43L245.438 223.803V224.082H245.81L245.903 224.268H246.183V223.989L246.834 223.71L247.765 223.616L248.603 223.151L249.069 223.523H250.093L251.675 222.127L256.516 223.244L256.236 231.622L251.21 234.415L250.93 234.229L250.837 234.322H250.744V233.856H250.465V234.415H250.093L249.72 234.229V234.043H250.093V233.949L249.813 233.856H249.534V233.67L249.813 233.484V233.391L249.534 233.577L249.348 233.484L249.162 233.577L249.348 233.856L249.069 234.043V234.229L248.696 234.136V234.322H248.882L248.324 234.694L248.138 234.508V234.415L247.858 234.601H247.486V234.508L247.858 234.415L247.765 234.322H247.486V234.043L247.393 234.322H247.207V234.787H246.834L246.741 234.601C246.741 234.601 246.462 234.601 246.555 234.787V235.067L246.276 234.88H246.09V235.16H245.903L245.531 234.973L245.717 235.253H245.345L245.159 235.346L245.345 235.532L245.438 235.718L245.624 235.904L245.531 235.997H245.438L245.159 236.277H244.973L244.879 236.556L244.693 236.649L244.786 236.835H244.879V237.021H244.786L244.414 237.394V237.487H244.693L244.786 237.952Z" fill="white" stroke="black" stroke-width="0.332108"/>
<path fill-rule="evenodd" clip-rule="evenodd" d="M251.489 238.045L262.194 243.91L262.287 244.748L261.915 244.934L262.008 245.306L262.38 245.4L262.473 245.772L266.662 248.751L266.942 248.565L267.314 248.751L267.407 248.378L267.686 248.099L268.152 247.075L267.873 246.982L268.059 246.61H268.245L268.617 246.144V245.772L268.431 245.493L268.71 245.586L269.083 244.748L269.455 244.655L269.548 244.003L269.734 243.817C269.734 243.817 269.548 243.072 269.734 242.793C270.014 242.514 270.945 242.514 270.945 242.514L271.503 241.862V241.676L271.875 241.397L271.503 240.745L272.248 240.931L272.806 240.745H273.179L273.737 240V239.721L271.969 237.487V226.595L272.993 225.664L274.668 223.337L274.203 223.151L272.527 223.337L272.062 222.779H271.875L271.782 222.406L271.41 222.22L268.617 223.523L268.524 223.989L267.873 224.547V224.92H267.686L267.5 224.827L264.614 224.175L264.428 224.361H263.497L260.053 221.848H257.54L256.981 221.662V221.382H252.327L251.396 222.313L251.582 223.523H252.047L252.233 224.082H252.699L252.606 224.64H252.513V225.292L252.699 225.571L252.978 225.758V226.223L253.537 226.502L253.63 227.154L254.002 227.34V227.619L253.816 227.992L254.188 228.55L254.095 228.923L254.281 229.388V229.574L254.188 230.133L253.909 230.319L253.816 230.691H253.63V231.436H253.164L252.978 231.715L252.699 231.622V232.274L252.42 232.646H252.14V232.925L251.768 233.112L251.675 233.577V234.043L251.209 234.229V235.067L251.489 235.16H251.675L251.582 235.439L251.861 235.532L252.047 235.997L252.42 235.718V235.439H252.885L253.444 235.16L253.63 235.532L253.816 235.811H253.444L253.351 235.997H253.071L252.606 235.904V236.091L252.792 236.277L252.513 236.463L252.42 236.277L252.14 236.37H251.954L251.675 236.184V236.556H251.489L251.303 237.021L251.582 237.301L251.861 237.487L251.582 237.859L251.489 238.045ZM267.873 258.339L268.245 258.06V257.874H268.617L268.803 257.408V257.874L268.617 258.06V258.339H268.431V258.618L268.338 258.432L267.873 258.339ZM266.756 253.126V252.474L266.662 252.381L267.035 252.102V251.73L267.5 251.543V251.916H267.221V252.474L267.407 252.754V253.033L267.686 253.219L267.966 253.591V253.871L267.686 253.964L267.314 253.498L266.942 253.591L266.756 253.126ZM268.152 250.706V250.333L268.338 249.961L268.059 249.216H268.431L268.524 249.589H268.71V249.309C268.71 249.309 268.897 249.216 268.897 249.309L268.803 250.147L268.897 250.519L268.71 250.799L268.431 251.078L268.152 250.706Z" fill="white" stroke="black" stroke-width="0.332108"/>
<path fill-rule="evenodd" clip-rule="evenodd" d="M270.293 265.786L269.083 266.717L267.407 267.462L266.942 267.741H266.104L265.452 267.927L265.08 268.114L264.615 268.579L263.87 268.114H262.939L262.66 268.393V268.858L262.008 269.138H261.729L261.45 269.324L260.519 269.231L260.146 268.858L259.681 268.951L258.936 269.51L258.564 269.417V269.231H258.285L258.098 269.417L257.633 269.324V268.951H257.354L256.981 268.393H256.516L256.423 268.672L256.05 268.951L255.678 268.858H254.282L253.909 268.207H253.537L253.165 267.276V266.81L253.351 266.624V266.066L252.978 265.786L253.071 264.855L252.978 264.669L252.885 264.297L252.234 263.645V263.366L251.489 262.807H251.21V263.366L250.837 263.273L250.651 262.994L249.72 263.18L249.348 262.714L248.882 262.807L248.51 262.528H248.045L247.672 262.156H246.834L246.648 261.597H246.09L245.904 261.504H245.252V261.225L244.507 261.132L244.135 260.852V260.387L243.576 260.108L243.111 260.201L242.925 259.642L242.459 259.27L242.366 258.711L241.715 257.781V257.408L241.342 257.036V256.291L241.063 255.919V255.546H241.249V255.267L240.784 254.895L240.597 254.522L239.853 253.964H239.294L238.643 253.219V252.847L238.922 252.474H239.294L239.387 252.195V251.916L238.736 250.985V250.519L239.015 250.333L238.922 249.775L238.363 249.216V248.658L238.456 248.192V248.006L239.015 247.82L239.294 247.634L239.573 247.354V247.075L240.132 246.889V246.61L240.597 246.051V245.772L240.877 245.306L241.528 245.027V244.841L241.994 244.562V243.631L241.808 243.538H241.528L241.249 243.445H240.784V243.165L241.063 242.793L240.877 242.607L241.156 242.048L242.087 241.955V241.304L242.18 241.024L241.808 240.559V239.628L241.621 239.349V239.069L241.156 238.79L240.784 238.139H241.342L241.621 237.859H244.88L244.973 238.139V238.511L244.786 238.976L244.693 239.256V239.442L244.6 239.814V240.187L244.414 240.373V240.652L244.228 240.838H244.507V241.304L244.321 241.676H245.066L244.786 242.234L244.693 242.607L244.786 243.165L245.159 242.793L245.438 243.072V242.607L245.531 242.234L245.904 242.421L245.997 242.234L245.81 241.862L246.183 241.49L246.555 241.955L246.834 242.048L247.021 242.514L247.3 241.955L247.393 242.328H247.765V242.7L248.045 243.072L247.672 243.258V243.724H247.952V243.258H248.324L248.138 242.793L248.045 242.421L248.417 241.862H248.789L248.976 242.328H249.627L250.186 241.769L250.93 241.49L250.744 241.024H250.558L250.279 241.304L249.441 241.21L249.162 241.024L248.976 241.21H248.696L247.952 240.931V240.652L247.765 240.559L248.138 240.373L248.324 240.652H248.51L248.789 240.559L249.162 240.838L249.72 240.745V240.466L249.348 240.373V240.093H250L250.093 239.907L250.558 239.721L250.279 239.349V239.163L251.21 239.349L250.744 238.976L250.837 238.604L251.396 238.976V238.79L251.024 238.511L251.582 237.952L262.38 243.817L262.474 244.655L262.101 244.934V245.306H262.567V245.679L266.756 248.472L267.035 248.937L266.756 249.216L266.57 249.589L266.476 250.24L266.29 250.613V251.171L265.918 251.543L265.639 252.195V252.661L265.918 253.033L265.732 253.591L266.197 253.964H266.476L267.314 254.895L267.687 255.267L267.873 255.733L267.687 256.198L267.407 256.291L267.128 257.222V257.781L267.5 258.153L267.407 258.525L267.221 259.084L267.035 259.642L267.221 260.201L267.407 260.666L267.594 260.852V261.225H267.407L267.687 261.69L268.059 261.876V262.621H267.966V262.807L268.338 263.087L268.524 264.018L268.338 264.297V264.483H268.897L269.083 264.948L269.455 264.855L270.107 265.135L270.386 265.6L270.293 265.786Z" fill="white" stroke="black" stroke-width="0.332108"/>
<path fill-rule="evenodd" clip-rule="evenodd" d="M236.501 242.141C236.222 241.862 237.432 241.21 237.246 240.745C237.246 239.814 237.711 239.535 238.735 239.163L239.294 238.79C239.573 238.976 239.573 239.442 239.853 239.163C240.132 238.976 240.783 237.952 241.249 238.139C240.97 238.511 241.528 239.256 241.9 239.535L242.459 241.304C242.273 241.955 241.9 241.955 241.156 241.862C240.411 241.583 240.225 242.141 239.666 241.676C239.573 242.328 239.666 242.886 238.829 243.165C238.363 243.165 237.898 243.165 237.898 242.886C237.525 242.421 236.967 242.421 236.781 242.886C236.687 242.7 236.501 242.607 236.501 242.141Z" fill="white" stroke="black" stroke-width="0.432497"/>
<path fill-rule="evenodd" clip-rule="evenodd" d="M236.781 242.886C237.246 241.862 237.805 242.979 237.991 242.979C239.387 243.165 239.387 242.886 239.666 241.583C240.411 242.141 240.132 241.583 241.714 241.955C241.435 241.955 240.783 242.7 241.249 242.7C240.876 243.724 241.714 243.724 242.273 243.631C241.994 244.003 242.738 244.189 241.994 244.562C241.528 244.841 241.528 244.562 241.528 245.213L240.97 245.306C240.876 245.493 241.249 245.865 241.156 245.865C241.156 245.865 240.97 246.33 240.597 246.61C240.132 246.889 239.946 247.354 239.387 247.541L238.735 247.727L237.805 246.051C237.711 245.586 237.805 245.027 237.525 244.562V243.724C237.246 243.445 236.967 243.258 236.781 242.793" fill="white"/>
<path d="M236.781 242.886C237.246 241.862 237.805 242.979 237.991 242.979C239.387 243.165 239.387 242.886 239.666 241.583C240.411 242.141 240.132 241.583 241.714 241.955C241.435 241.955 240.783 242.7 241.249 242.7C240.876 243.724 241.714 243.724 242.273 243.631C241.994 244.003 242.738 244.189 241.994 244.562C241.528 244.841 241.528 244.562 241.528 245.213L240.97 245.306C240.876 245.493 241.249 245.865 241.156 245.865C241.156 245.865 240.97 246.33 240.597 246.61C240.132 246.889 239.946 247.354 239.387 247.541L238.735 247.727L237.805 246.051C237.711 245.586 237.805 245.027 237.525 244.562V243.724C237.246 243.445 236.967 243.258 236.781 242.793" stroke="black" stroke-width="0.432497"/>
</g>
<defs>
<clipPath id="clip0_103_4133">
<rect width="512" height="512" fill="white" transform="translate(0.5)"/>
</clipPath>
</defs>
</svg>
