<svg width="513" height="512" viewBox="0 0 513 512" fill="none" xmlns="http://www.w3.org/2000/svg">
<g clip-path="url(#clip0_103_4189)">
<path fill-rule="evenodd" clip-rule="evenodd" d="M0.5 0H512.5V512H0.5V0Z" fill="#FFE800"/>
<path fill-rule="evenodd" clip-rule="evenodd" d="M0.5 256H512.5V512H0.5V256Z" fill="#00148E"/>
<path fill-rule="evenodd" clip-rule="evenodd" d="M0.5 384H512.5V512H0.5V384Z" fill="#DA0010"/>
<path fill-rule="evenodd" clip-rule="evenodd" d="M214 244.2L159.3 301.9L158.3 300.7L213 242.9L214 244.2ZM252 253.6L180.5 329L179.3 327.8L250.8 252.4L252.1 253.6H252Z" fill="black"/>
<path fill-rule="evenodd" clip-rule="evenodd" d="M181.59 329.074L175.654 335.098L168.797 340.238L173.813 333.328L179.749 327.304L181.59 329.074Z" fill="#808080" stroke="black" stroke-width="0.340239"/>
<path fill-rule="evenodd" clip-rule="evenodd" d="M163.19 299.574L157.253 305.598L150.397 310.738L155.413 303.828L161.349 297.804L163.19 299.574Z" fill="#808080" stroke="black" stroke-width="0.340239"/>
<path fill-rule="evenodd" clip-rule="evenodd" d="M167.608 112.081C167.608 112.081 161.59 275.668 185.662 275.668C209.734 275.668 221.804 258.464 221.804 258.464L221.532 168.554L167.608 112.081Z" fill="#FFDF00" stroke="black" stroke-width="0.541996"/>
<path fill-rule="evenodd" clip-rule="evenodd" d="M182.33 127.341C182.33 135.943 179.644 258.464 191.68 258.464C203.716 258.464 221.804 249.862 221.804 249.862L221.532 168.554L182.33 127.341Z" fill="#0000C4" stroke="black" stroke-width="0.541996"/>
<path fill-rule="evenodd" clip-rule="evenodd" d="M190.15 135.603C190.15 144.205 191.68 241.26 203.75 241.26H221.804L221.532 168.554L190.15 135.603Z" fill="#E10000" stroke="black" stroke-width="0.541996"/>
<path fill-rule="evenodd" clip-rule="evenodd" d="M166.2 112.2L220.8 169.9L221.8 168.7L167.1 111L166.1 112.2H166.2Z" fill="black"/>
<path fill-rule="evenodd" clip-rule="evenodd" d="M150.328 143.852C150.328 143.852 134.752 300.371 181.48 300.371C220.42 300.371 220.42 275.679 228.208 275.679L220.42 218.019L150.284 143.852H150.328Z" fill="#FFDF00" stroke="black" stroke-width="0.603103"/>
<path d="M184.787 171.636C185.106 171.614 196.566 146.16 224.89 130.248" stroke="black" stroke-width="0.641616"/>
<path fill-rule="evenodd" clip-rule="evenodd" d="M183.081 146.816C187.063 148.717 189.572 150.908 191.85 153.465C187.28 152.494 184.921 152.103 180.939 150.202C176.957 148.302 173.931 145.388 171.527 143.031C174.497 143.951 179.077 144.905 183.081 146.816Z" fill="#005B00" stroke="black" stroke-width="0.291759"/>
<path fill-rule="evenodd" clip-rule="evenodd" d="M195.382 161.533C195.65 162.061 195.358 162.799 194.714 163.156C194.07 163.513 193.328 163.366 193.053 162.825C192.779 162.284 193.085 161.573 193.729 161.216C194.373 160.858 195.114 161.005 195.382 161.533Z" fill="#FF0000" stroke="black" stroke-width="0.203051"/>
<path fill-rule="evenodd" clip-rule="evenodd" d="M205.095 130.251C203.358 134.776 201.44 137.762 199.23 140.55C200.223 135.521 200.644 132.94 202.382 128.415C204.12 123.89 206.656 120.252 208.706 117.356C207.822 120.663 206.842 125.701 205.095 130.251Z" fill="#005B00" stroke="black" stroke-width="0.276504"/>
<path fill-rule="evenodd" clip-rule="evenodd" d="M201.992 130.234C201.576 134.669 200.656 138.107 199.445 141.595C199.122 137.289 198.883 135.138 199.299 130.703C199.715 126.269 201.004 121.948 202.056 118.487C202.074 121.472 202.41 125.775 201.992 130.234Z" fill="#005B00" stroke="black" stroke-width="0.242108"/>
<path fill-rule="evenodd" clip-rule="evenodd" d="M205.466 136.102C203.113 138.745 201.125 139.856 199.03 140.55C201.114 136.843 202.134 134.869 204.487 132.226C206.84 129.584 209.377 128.394 211.413 127.472C209.912 129.719 207.832 133.445 205.466 136.102Z" fill="#005B00" stroke="black" stroke-width="0.260972"/>
<path fill-rule="evenodd" clip-rule="evenodd" d="M186.797 143.991C189.331 147.212 190.517 150.277 191.36 153.65C187.953 151.212 186.148 150.068 183.614 146.847C181.08 143.625 179.761 139.647 178.731 136.442C180.825 138.327 184.249 140.751 186.797 143.991Z" fill="#005B00" stroke="black" stroke-width="0.290495"/>
<path fill-rule="evenodd" clip-rule="evenodd" d="M178.053 162.856C181.492 165.625 183.321 168.488 184.79 171.725C180.433 169.908 178.146 169.093 174.707 166.324C171.268 163.555 169.153 159.798 167.488 156.765C170.221 158.271 174.595 160.071 178.053 162.856Z" fill="#005B00" stroke="black" stroke-width="0.320063"/>
<path fill-rule="evenodd" clip-rule="evenodd" d="M193.895 161.569C191.271 165.913 188.406 168.846 185.115 171.62C186.653 166.873 187.313 164.444 189.938 160.1C192.562 155.756 196.346 152.166 199.405 149.305C198.053 152.446 196.534 157.201 193.895 161.569Z" fill="#005B00" stroke="black" stroke-width="0.321174"/>
<path fill-rule="evenodd" clip-rule="evenodd" d="M198.252 165.891C193.872 168.914 190.057 170.458 185.99 171.655C189.732 167.748 191.547 165.691 195.927 162.668C200.307 159.645 205.196 157.881 209.126 156.494C206.387 158.928 202.657 162.852 198.252 165.891Z" fill="#005B00" stroke="black" stroke-width="0.319128"/>
<path fill-rule="evenodd" clip-rule="evenodd" d="M227.055 127.415C225.208 129.642 223.545 131.011 221.75 132.235C223.26 129.639 223.984 128.295 225.831 126.069C227.677 123.843 229.819 122.201 231.542 120.897C230.415 122.574 228.911 125.177 227.055 127.415Z" fill="#005B00" stroke="black" stroke-width="0.15918"/>
<path fill-rule="evenodd" clip-rule="evenodd" d="M225.13 126.647C224.044 129 222.86 130.749 221.5 132.49C222.138 130.115 222.412 128.918 223.498 126.565C224.584 124.212 226.148 122.029 227.412 120.284C226.852 121.905 226.222 124.281 225.13 126.647Z" fill="#005B00" stroke="black" stroke-width="0.142789"/>
<path fill-rule="evenodd" clip-rule="evenodd" d="M226.641 130.995C224.777 132.118 223.408 132.455 222.055 132.55C223.959 130.812 224.92 129.874 226.784 128.751C228.648 127.629 230.352 127.323 231.713 127.096C230.42 128.118 228.516 129.867 226.641 130.995Z" fill="#005B00" stroke="black" stroke-width="0.153484"/>
<path fill-rule="evenodd" clip-rule="evenodd" d="M202.027 146.227C198.588 148.309 195.774 149.473 192.85 150.445C196.009 147.876 197.568 146.534 201.007 144.452C204.446 142.371 208.016 141.008 210.88 139.931C208.639 141.557 205.485 144.134 202.027 146.227Z" fill="#005B00" stroke="black" stroke-width="0.199045"/>
<path fill-rule="evenodd" clip-rule="evenodd" d="M213.213 145.35C208.652 148.065 204.774 149.332 200.68 150.23C204.692 146.574 206.652 144.638 211.214 141.923C215.775 139.208 220.725 137.8 224.701 136.701C221.802 138.948 217.799 142.62 213.213 145.35Z" fill="#005B00" stroke="black" stroke-width="0.318436"/>
<path d="M183.22 189.291C183.513 189.128 180.69 165.363 199.124 140.767" stroke="black" stroke-width="0.642841"/>
<path fill-rule="evenodd" clip-rule="evenodd" d="M212.583 137.333C212.851 137.861 212.558 138.599 211.914 138.956C211.27 139.313 210.528 139.166 210.254 138.625C209.979 138.084 210.285 137.373 210.929 137.016C211.573 136.658 212.315 136.805 212.583 137.333Z" fill="#FF0000" stroke="black" stroke-width="0.203051"/>
<path fill-rule="evenodd" clip-rule="evenodd" d="M220.782 132.533C221.05 133.061 220.758 133.799 220.114 134.156C219.47 134.513 218.728 134.366 218.453 133.825C218.179 133.284 218.485 132.573 219.129 132.216C219.773 131.858 220.514 132.005 220.782 132.533Z" fill="#FF0000" stroke="black" stroke-width="0.203051"/>
<path fill-rule="evenodd" clip-rule="evenodd" d="M191.623 147.034C191.823 147.434 191.461 148.078 190.803 148.454C190.145 148.83 189.448 148.804 189.243 148.394C189.038 147.984 189.41 147.36 190.068 146.984C190.726 146.608 191.423 146.634 191.623 147.034Z" fill="#FF0000" stroke="black" stroke-width="0.179023"/>
<path fill-rule="evenodd" clip-rule="evenodd" d="M193.923 146.034C194.123 146.434 193.761 147.078 193.103 147.454C192.445 147.83 191.748 147.804 191.543 147.394C191.338 146.984 191.71 146.36 192.368 145.984C193.026 145.608 193.723 145.634 193.923 146.034Z" fill="#FF0000" stroke="black" stroke-width="0.179023"/>
<path fill-rule="evenodd" clip-rule="evenodd" d="M192.623 148.134C192.823 148.534 192.461 149.178 191.803 149.554C191.145 149.93 190.448 149.904 190.243 149.494C190.038 149.084 190.41 148.46 191.068 148.084C191.726 147.708 192.423 147.734 192.623 148.134Z" fill="#FF0000" stroke="black" stroke-width="0.179023"/>
<path fill-rule="evenodd" clip-rule="evenodd" d="M202.01 147.66C202.306 148.248 201.98 149.067 201.266 149.462C200.552 149.857 199.73 149.691 199.426 149.088C199.123 148.485 199.464 147.696 200.178 147.301C200.893 146.906 201.714 147.072 202.01 147.66Z" fill="#FF0000" stroke="black" stroke-width="0.225413"/>
<path fill-rule="evenodd" clip-rule="evenodd" d="M203.71 145.96C204.006 146.548 203.68 147.367 202.966 147.762C202.252 148.157 201.43 147.991 201.126 147.388C200.823 146.785 201.164 145.996 201.878 145.601C202.593 145.206 203.414 145.372 203.71 145.96Z" fill="#FF0000" stroke="black" stroke-width="0.225413"/>
<path fill-rule="evenodd" clip-rule="evenodd" d="M204.11 146.76C204.406 147.348 204.08 148.167 203.366 148.562C202.651 148.957 201.83 148.791 201.526 148.188C201.223 147.585 201.564 146.796 202.278 146.401C202.992 146.006 203.814 146.172 204.11 146.76Z" fill="#FF0000" stroke="black" stroke-width="0.225413"/>
<path fill-rule="evenodd" clip-rule="evenodd" d="M165.904 160.359C165.904 168.59 150.328 259.219 189.312 283.91C204.888 292.141 228.252 275.68 228.252 283.91L220.464 218.019L165.904 160.359Z" fill="#0000C4" stroke="black" stroke-width="0.603103"/>
<path fill-rule="evenodd" clip-rule="evenodd" d="M181.48 176.82C181.48 185.051 173.692 250.941 197.1 267.449C212.676 283.91 251.66 279.446 251.66 279.446L220.464 218.019L181.48 176.82Z" fill="#E10000" stroke="black" stroke-width="0.603103"/>
<path fill-rule="evenodd" clip-rule="evenodd" d="M149.3 144L220.8 219.4L222.1 218.2L150.5 142.8L149.3 144Z" fill="black"/>
<path fill-rule="evenodd" clip-rule="evenodd" d="M137.425 135.528L142.063 136.537L143.479 137.989C143.293 137.968 144.895 139.44 143.089 141.334C141.284 143.228 138.462 140.314 138.462 140.314C138.462 140.314 139.489 145.111 142.329 148.022C145.169 150.933 148.382 150.482 148.382 150.482C148.382 150.482 145.181 147.751 147.355 145.686C149.532 143.601 150.577 145.243 150.577 145.243L153.409 148.146L155.224 146.241L143.888 134.622L142.862 129.825L135.831 128.373L137.427 135.51L137.425 135.528Z" fill="#CECECC" stroke="black" stroke-width="0.173513"/>
<path fill-rule="evenodd" clip-rule="evenodd" d="M151.173 103.163L156.503 111.275L163.505 112.875L158.814 115.884L167.222 115.353L170.949 117.838L172.373 115.702L168.635 113.21L165.9 105.233L164.918 110.732L160.756 104.872L151.17 103.144L151.173 103.163Z" fill="#CECECC" stroke="black" stroke-width="0.179877"/>
<path fill-rule="evenodd" clip-rule="evenodd" d="M171.518 109.358C171.518 109.826 170.912 110.224 170.215 110.224C169.518 110.224 168.881 109.826 168.881 109.358C168.881 108.89 169.487 108.469 170.215 108.469C170.942 108.469 171.518 108.867 171.518 109.358ZM169.639 111.207C169.639 119.584 175.972 155.152 176.487 156.018C176.517 157.071 175.032 157.515 174.335 156.228C172.336 152.157 168.033 118.788 167.882 110.996C167.791 107.79 169.003 107.533 170.396 107.603C171.518 107.65 172.911 108.469 172.911 109.452C172.911 110.622 171.154 111.487 169.639 111.207Z" fill="#E10000" stroke="black" stroke-width="0.355032"/>
<path fill-rule="evenodd" clip-rule="evenodd" d="M172.694 113.215C172.466 113.655 171.703 113.889 171.047 113.728C170.392 113.567 169.987 113.046 170.215 112.606C170.443 112.166 171.218 111.91 171.902 112.078C172.586 112.246 172.934 112.753 172.694 113.215ZM170.027 114.519C172.005 130.232 164.903 154.602 164.954 155.557C164.481 156.532 162.856 156.629 162.839 155.236C162.503 154.335 170.642 132.303 168.476 113.915C169.953 110.88 171.218 110.918 172.495 111.306C173.527 111.609 174.439 112.701 173.96 113.625C173.39 114.725 171.315 115.133 170.027 114.519Z" fill="#0000C4" stroke="black" stroke-width="0.359547"/>
<path fill-rule="evenodd" clip-rule="evenodd" d="M155.407 139.36C155.407 140.12 154.633 140.766 153.743 140.766C152.853 140.766 152.041 140.12 152.041 139.36C152.041 138.6 152.815 137.916 153.743 137.916C154.672 137.916 155.407 138.562 155.407 139.36ZM153.008 142.362C153.008 155.966 161.096 213.726 161.754 215.132C161.793 216.842 159.897 217.564 159.007 215.474C156.452 208.862 150.957 154.674 150.763 142.02C150.647 136.814 152.195 136.396 153.976 136.51C155.407 136.586 157.188 137.916 157.188 139.512C157.188 141.412 154.943 142.818 153.008 142.362Z" fill="#E10000" stroke="black" stroke-width="0.511312"/>
<path fill-rule="evenodd" clip-rule="evenodd" d="M157.448 145.14C157.158 145.86 156.181 146.248 155.342 145.99C154.502 145.733 153.982 144.886 154.272 144.166C154.562 143.446 155.553 143.022 156.429 143.29C157.305 143.559 157.752 144.384 157.448 145.14ZM154.039 147.29C156.634 172.922 147.643 212.756 147.713 214.314C147.111 215.91 145.033 216.081 145.005 213.807C144.571 212.339 154.899 176.313 152.053 146.316C153.93 141.35 155.549 141.402 157.185 142.026C158.506 142.512 159.678 144.287 159.069 145.799C158.344 147.599 155.69 148.282 154.039 147.29Z" fill="#0000C4" stroke="black" stroke-width="0.51325"/>
<path fill-rule="evenodd" clip-rule="evenodd" d="M290.1 244.2L344.8 301.9L345.8 300.7L291.1 242.9L290.1 244.2ZM252.1 253.6L323.5 329L324.7 327.8L253.2 252.4L251.9 253.6H252.1Z" fill="black"/>
<path fill-rule="evenodd" clip-rule="evenodd" d="M322.41 329.074L328.346 335.098L335.203 340.238L330.187 333.328L324.251 327.304L322.41 329.074Z" fill="#808080" stroke="black" stroke-width="0.340239"/>
<path fill-rule="evenodd" clip-rule="evenodd" d="M340.91 299.574L346.846 305.598L353.703 310.738L348.687 303.828L342.751 297.804L340.91 299.574Z" fill="#808080" stroke="black" stroke-width="0.340239"/>
<path fill-rule="evenodd" clip-rule="evenodd" d="M336.592 112.081C336.592 112.081 342.61 275.668 318.538 275.668C294.466 275.668 282.396 258.464 282.396 258.464L282.668 168.554L336.592 112.081Z" fill="#FFDF00" stroke="black" stroke-width="0.541996"/>
<path fill-rule="evenodd" clip-rule="evenodd" d="M321.87 127.341C321.87 135.943 324.556 258.464 312.52 258.464C300.484 258.464 282.396 249.862 282.396 249.862L282.668 168.554L321.87 127.341Z" fill="#0000C4" stroke="black" stroke-width="0.541996"/>
<path fill-rule="evenodd" clip-rule="evenodd" d="M314.05 135.603C314.05 144.205 312.52 241.26 300.45 241.26H282.396L282.668 168.554L314.05 135.603Z" fill="#E10000" stroke="black" stroke-width="0.541996"/>
<path fill-rule="evenodd" clip-rule="evenodd" d="M337.9 112.2L283.3 170L282.3 168.8L337 111.1L338 112.3L337.9 112.2Z" fill="black"/>
<path fill-rule="evenodd" clip-rule="evenodd" d="M296.177 155.399C296.177 155.399 311.725 174.961 319.187 190.173C326.642 205.418 335.31 228.703 335.31 228.703C335.31 228.703 330.423 205.704 321.029 187.378C308.713 164.334 296.162 156.725 296.177 155.399Z" fill="#005B00" stroke="black" stroke-width="0.256821"/>
<path fill-rule="evenodd" clip-rule="evenodd" d="M292.989 140.274C292.989 140.274 309.768 163.68 317.431 181.139C325.084 198.632 333.609 224.916 333.609 224.916C333.609 224.916 329.463 199.544 319.761 178.446C306.975 151.835 292.883 141.689 292.989 140.274Z" fill="#005B00" stroke="black" stroke-width="0.285261"/>
<path fill-rule="evenodd" clip-rule="evenodd" d="M309.609 117.717C309.609 117.717 321.876 153.648 325.644 175.824C329.392 198.02 331.725 228.535 331.725 228.535C331.725 228.535 334.002 202.971 328.959 175.751C321.988 140.896 309.107 118.821 309.609 117.717Z" fill="#005B00" stroke="black" stroke-width="0.331196"/>
<path fill-rule="evenodd" clip-rule="evenodd" d="M297.041 115.588C297.041 115.588 313.288 147.665 319.536 169.456C325.767 191.278 331.53 222.755 331.53 222.755C331.53 222.755 330.907 194.168 322.822 167.641C311.961 133.942 296.667 117.033 297.041 115.588Z" fill="#005B00" stroke="black" stroke-width="0.333201"/>
<path fill-rule="evenodd" clip-rule="evenodd" d="M318.211 124.597C318.211 124.597 326.756 159.174 328.992 179.882C331.213 200.604 332.014 228.625 332.014 228.625C332.014 228.625 334.722 205.854 331.642 180.367C327.289 147.646 317.772 125.513 318.211 124.597Z" fill="#005B00" stroke="black" stroke-width="0.298014"/>
<path fill-rule="evenodd" clip-rule="evenodd" d="M294.652 126.532C294.652 126.532 310.865 154.105 317.528 173.378C324.177 192.682 330.84 220.894 330.84 220.894C330.84 220.894 328.978 194.75 320.431 171.342C309.037 141.671 294.378 127.9 294.652 126.532Z" fill="#005B00" stroke="black" stroke-width="0.303663"/>
<path fill-rule="evenodd" clip-rule="evenodd" d="M292.88 145.147C292.88 145.147 309.64 167.049 317.235 183.842C324.82 200.67 333.21 226.232 333.21 226.232C333.21 226.232 329.24 201.173 319.615 180.922C306.92 155.431 292.76 146.576 292.88 145.147Z" fill="#005B00" stroke="black" stroke-width="0.288799"/>
<path fill-rule="evenodd" clip-rule="evenodd" d="M295.084 134.729C295.084 134.729 310.756 159.72 317.59 177.876C324.413 196.064 331.689 223.093 331.689 223.093C331.689 223.093 328.751 197.41 320.05 175.427C308.526 147.644 294.91 136.128 295.084 134.729Z" fill="#005B00" stroke="black" stroke-width="0.284983"/>
<path fill-rule="evenodd" clip-rule="evenodd" d="M313.383 118.498C313.383 118.498 323.629 153.72 326.176 175.181C328.702 196.66 329.375 225.983 329.375 225.983C329.375 225.983 333.013 201.726 329.471 175.353C324.427 141.546 312.826 119.516 313.383 118.498Z" fill="#005B00" stroke="black" stroke-width="0.322592"/>
<path fill-rule="evenodd" clip-rule="evenodd" d="M299.857 109.867C299.857 109.867 314.49 143.33 319.664 165.622C324.82 187.944 329.049 219.846 329.049 219.846C329.049 219.846 329.797 191.296 323.021 164.115C313.825 129.53 299.415 111.274 299.857 109.867Z" fill="#005B00" stroke="black" stroke-width="0.333887"/>
<path fill-rule="evenodd" clip-rule="evenodd" d="M321.941 128.06C321.941 128.06 328.472 161.167 329.522 180.793C330.555 200.431 329.765 226.831 329.765 226.831C329.765 226.831 333.744 205.612 332.127 181.434C329.655 150.366 321.453 128.89 321.941 128.06Z" fill="#005B00" stroke="black" stroke-width="0.285717"/>
<path fill-rule="evenodd" clip-rule="evenodd" d="M296.174 120.312C296.174 120.312 311.388 149.244 317.078 169.193C322.751 189.172 327.808 218.19 327.808 218.19C327.808 218.19 327.688 191.552 320.296 167.297C310.333 136.52 295.787 121.684 296.174 120.312Z" fill="#005B00" stroke="black" stroke-width="0.315233"/>
<path fill-rule="evenodd" clip-rule="evenodd" d="M353.772 143.852C353.772 143.852 369.348 300.371 322.62 300.371C283.68 300.371 283.68 275.679 275.892 275.679L283.68 218.019L353.816 143.852H353.772Z" fill="#FFDF00" stroke="black" stroke-width="0.603103"/>
<path fill-rule="evenodd" clip-rule="evenodd" d="M338.196 160.359C338.196 168.59 353.772 259.219 314.788 283.91C299.212 292.141 275.848 275.68 275.848 283.91L283.636 218.019L338.196 160.359Z" fill="#0000C4" stroke="black" stroke-width="0.603103"/>
<path fill-rule="evenodd" clip-rule="evenodd" d="M322.62 176.82C322.62 185.051 330.408 250.941 307 267.449C291.424 283.91 252.44 279.446 252.44 279.446L283.636 218.019L322.62 176.82Z" fill="#E10000" stroke="black" stroke-width="0.603103"/>
<path fill-rule="evenodd" clip-rule="evenodd" d="M354.8 144L283.3 219.4L282 218.2L353.6 142.8L354.8 144Z" fill="black"/>
<path fill-rule="evenodd" clip-rule="evenodd" d="M366.775 135.528L362.137 136.537L360.721 137.989C360.907 137.968 359.305 139.44 361.111 141.334C362.916 143.228 365.738 140.314 365.738 140.314C365.738 140.314 364.711 145.111 361.871 148.022C359.031 150.933 355.818 150.482 355.818 150.482C355.818 150.482 359.019 147.751 356.845 145.686C354.668 143.601 353.623 145.243 353.623 145.243L350.791 148.146L348.976 146.241L360.312 134.622L361.338 129.825L368.369 128.373L366.773 135.509L366.775 135.528Z" fill="#CECECC" stroke="black" stroke-width="0.173513"/>
<path fill-rule="evenodd" clip-rule="evenodd" d="M352.827 103.163L347.497 111.275L340.495 112.875L345.186 115.884L336.778 115.353L333.051 117.838L331.627 115.702L335.365 113.21L338.1 105.233L339.082 110.732L343.244 104.872L352.83 103.144L352.827 103.163Z" fill="#CECECC" stroke="black" stroke-width="0.179877"/>
<path fill-rule="evenodd" clip-rule="evenodd" d="M332.482 109.358C332.482 109.826 333.088 110.224 333.785 110.224C334.482 110.224 335.119 109.826 335.119 109.358C335.119 108.89 334.513 108.469 333.785 108.469C333.058 108.469 332.482 108.867 332.482 109.358ZM334.361 111.207C334.361 119.584 328.028 155.152 327.513 156.018C327.483 157.071 328.968 157.515 329.665 156.228C331.664 152.157 335.967 118.788 336.118 110.996C336.209 107.79 334.997 107.533 333.604 107.603C332.482 107.65 331.089 108.469 331.089 109.452C331.089 110.622 332.846 111.487 334.361 111.207Z" fill="#E10000" stroke="black" stroke-width="0.355032"/>
<path fill-rule="evenodd" clip-rule="evenodd" d="M331.405 113.215C331.633 113.655 332.397 113.889 333.053 113.728C333.708 113.567 334.113 113.046 333.885 112.606C333.657 112.166 332.882 111.91 332.198 112.078C331.514 112.246 331.166 112.753 331.405 113.215ZM334.073 114.519C332.095 130.232 339.197 154.602 339.146 155.557C339.619 156.532 341.244 156.629 341.261 155.236C341.597 154.335 333.457 132.303 335.623 113.915C334.147 110.88 332.882 110.918 331.605 111.306C330.573 111.609 329.661 112.701 330.14 113.625C330.71 114.725 332.785 115.133 334.073 114.519Z" fill="#0000C4" stroke="black" stroke-width="0.359547"/>
<path fill-rule="evenodd" clip-rule="evenodd" d="M348.593 139.36C348.593 140.12 349.367 140.766 350.257 140.766C351.147 140.766 351.959 140.12 351.959 139.36C351.959 138.6 351.185 137.916 350.257 137.916C349.328 137.916 348.593 138.562 348.593 139.36ZM350.992 142.362C350.992 155.966 342.904 213.726 342.246 215.132C342.207 216.842 344.103 217.564 344.993 215.474C347.548 208.862 353.043 154.674 353.237 142.02C353.353 136.814 351.805 136.396 350.024 136.51C348.593 136.586 346.812 137.916 346.812 139.512C346.812 141.412 349.057 142.818 350.992 142.362Z" fill="#E10000" stroke="black" stroke-width="0.511312"/>
<path fill-rule="evenodd" clip-rule="evenodd" d="M346.652 145.14C346.942 145.86 347.919 146.248 348.758 145.99C349.598 145.733 350.118 144.886 349.828 144.166C349.538 143.446 348.547 143.022 347.671 143.29C346.795 143.559 346.348 144.384 346.652 145.14ZM350.061 147.29C347.466 172.922 356.457 212.756 356.387 214.314C356.989 215.91 359.067 216.081 359.095 213.807C359.529 212.339 349.201 176.313 352.047 146.316C350.17 141.35 348.551 141.402 346.915 142.026C345.594 142.512 344.422 144.287 345.031 145.799C345.756 147.599 348.41 148.282 350.061 147.29Z" fill="#0000C4" stroke="black" stroke-width="0.51325"/>
<path fill-rule="evenodd" clip-rule="evenodd" d="M228.296 341.57C231.851 343.728 235.878 344.864 239.978 344.864C244.077 344.864 248.105 343.728 251.66 341.57V275.68H236.084C243.872 300.371 243.872 325.109 228.252 341.57H228.296Z" fill="#E10000" stroke="black" stroke-width="0.603103"/>
<path fill-rule="evenodd" clip-rule="evenodd" d="M239.857 276.178C239.857 322.552 228.594 332.875 228.594 342.202C233.285 342.202 236.412 337.853 239.857 331.879C244.547 322.552 244.998 275.444 244.547 276.178H239.857Z" fill="#0000C4" stroke="black" stroke-width="0.496852"/>
<path fill-rule="evenodd" clip-rule="evenodd" d="M230.476 276.178C230.237 303.269 218.604 328.368 220.803 333.923C223.294 338.901 230.476 322.552 239.857 331.827C244.547 322.552 244.998 275.444 244.547 276.126H230.476V276.178Z" fill="#0000C4" stroke="black" stroke-width="0.496852"/>
<path fill-rule="evenodd" clip-rule="evenodd" d="M231.657 276.425C231.657 307.4 220.872 309.465 220.872 317.725C225.562 317.725 231.631 313.21 231.657 313.63C236.348 307.4 236.798 275.935 236.348 276.425H231.657Z" fill="#FFDF00" stroke="black" stroke-width="0.406065"/>
<path fill-rule="evenodd" clip-rule="evenodd" d="M222.276 276.425C222.037 294.52 210.669 309.92 212.868 313.63C215.386 316.92 222.276 307.4 231.657 313.63C236.347 307.4 236.798 275.935 236.347 276.425H222.276Z" fill="#FFDF00" stroke="black" stroke-width="0.406065"/>
<path fill-rule="evenodd" clip-rule="evenodd" d="M275.804 341.57C272.249 343.728 268.221 344.864 264.122 344.864C260.022 344.864 255.995 343.728 252.44 341.57V275.68H268.016C260.228 300.371 260.228 325.109 275.848 341.57H275.804Z" fill="#E10000" stroke="black" stroke-width="0.603103"/>
<path fill-rule="evenodd" clip-rule="evenodd" d="M264.243 276.178C264.243 322.552 275.505 332.875 275.505 342.202C270.815 342.202 267.688 337.853 264.243 331.879C259.552 322.552 259.102 275.444 259.552 276.178H264.243Z" fill="#0000C4" stroke="black" stroke-width="0.496852"/>
<path fill-rule="evenodd" clip-rule="evenodd" d="M273.624 276.178C273.862 303.269 285.496 328.368 283.296 333.923C280.805 338.901 273.624 322.552 264.243 331.827C259.552 322.552 259.102 275.444 259.552 276.126H273.624V276.178Z" fill="#0000C4" stroke="black" stroke-width="0.496852"/>
<path fill-rule="evenodd" clip-rule="evenodd" d="M272.543 276.425C272.543 307.4 283.328 309.465 283.328 317.725C278.638 317.725 272.569 313.21 272.543 313.63C267.852 307.4 267.402 275.935 267.852 276.425H272.543Z" fill="#FFDF00" stroke="black" stroke-width="0.406065"/>
<path fill-rule="evenodd" clip-rule="evenodd" d="M281.924 276.425C282.162 294.52 293.531 309.92 291.331 313.63C288.814 316.92 281.924 307.4 272.543 313.63C267.852 307.4 267.402 275.935 267.852 276.425H281.924Z" fill="#FFDF00" stroke="black" stroke-width="0.406065"/>
<path fill-rule="evenodd" clip-rule="evenodd" d="M192.774 282.76L184.701 288.778L192.774 294.796L196.806 291.787L198.822 294.796L200.838 300.814L202.863 294.796L204.879 291.787H313.05V285.769H204.87L202.854 282.743C202.854 279.734 203.277 276.725 204.879 276.725H212.943C212.943 273.716 208.911 267.698 200.838 267.698C192.774 267.698 188.733 273.716 188.733 276.725H196.806C198.399 276.725 198.822 279.734 198.822 282.76L196.806 285.769L192.765 282.743L192.774 282.76Z" fill="#908F8A" stroke="black" stroke-width="0.556619"/>
<path fill-rule="evenodd" clip-rule="evenodd" d="M216.503 297.01H287.21V300.674H216.524L216.503 297.01ZM216.503 293.325H287.21V297.01H216.524L216.503 293.325ZM216.503 289.661H287.21V293.346H216.524L216.503 289.661ZM216.503 285.997H287.21V289.661H216.524L216.503 285.997ZM216.503 282.334H287.21V285.997H216.524L216.503 282.334ZM216.503 278.649H287.21V282.334H216.524L216.503 278.649ZM216.503 275.006H287.21V278.649H216.524L216.503 275.006Z" fill="#B74D00"/>
<path d="M287.21 297.01H216.503L216.524 300.674H287.21V297.01ZM287.21 297.01V293.325H216.503L216.524 297.01H287.21ZM287.21 289.661H216.503L216.524 293.346H287.21V289.661ZM287.21 289.661V285.997M287.21 289.661H216.524L216.503 285.997H287.21M287.21 285.997V282.334M287.21 285.997H216.524L216.503 282.334H287.21M287.21 282.334V278.649M287.21 282.334H216.524L216.503 278.649H287.21M287.21 278.649V275.006H216.503L216.524 278.649H287.21Z" stroke="black" stroke-width="0.37529"/>
<path fill-rule="evenodd" clip-rule="evenodd" d="M220.708 274.961L246.89 300.629H250.633L224.47 274.982H220.727L220.708 274.961Z" fill="#908F8A" stroke="black" stroke-width="0.654449"/>
<path fill-rule="evenodd" clip-rule="evenodd" d="M220.708 300.639L246.89 274.971H250.633L224.47 300.618H220.727L220.708 300.639Z" fill="#908F8A" stroke="black" stroke-width="0.654449"/>
<path fill-rule="evenodd" clip-rule="evenodd" d="M220.292 274.961V300.629H224.009V274.961H220.292Z" fill="#908F8A" stroke="black" stroke-width="0.646333"/>
<path fill-rule="evenodd" clip-rule="evenodd" d="M254.108 274.961L280.29 300.629H284.033L257.87 274.982H254.127L254.108 274.961Z" fill="#908F8A" stroke="black" stroke-width="0.654449"/>
<path fill-rule="evenodd" clip-rule="evenodd" d="M254.108 300.639L280.29 274.971H284.033L257.87 300.618H254.127L254.108 300.639Z" fill="#908F8A" stroke="black" stroke-width="0.654449"/>
<path fill-rule="evenodd" clip-rule="evenodd" d="M279.792 274.961V300.629H283.509V274.961H279.792Z" fill="#908F8A" stroke="black" stroke-width="0.646333"/>
<path fill-rule="evenodd" clip-rule="evenodd" d="M253.792 274.961V300.629H257.509V274.961H253.792Z" fill="#908F8A" stroke="black" stroke-width="0.646333"/>
<path fill-rule="evenodd" clip-rule="evenodd" d="M246.292 274.961V300.629H250.009V274.961H246.292Z" fill="#908F8A" stroke="black" stroke-width="0.646333"/>
<path fill-rule="evenodd" clip-rule="evenodd" d="M306.22 201.558C306.22 242.478 281.756 275.679 251.66 275.679C221.564 275.679 197.1 242.478 197.1 201.558C197.1 160.638 221.52 127.391 251.66 127.391C281.8 127.391 306.22 160.592 306.22 201.512V201.558ZM298.432 201.558C298.432 237.921 277.488 267.449 251.66 267.449C225.832 267.449 204.888 237.921 204.888 201.558C204.888 165.149 225.832 135.621 251.66 135.621C277.488 135.621 298.432 165.149 298.432 201.558Z" fill="#FFDF00" stroke="black" stroke-width="0.603103"/>
<path fill-rule="evenodd" clip-rule="evenodd" d="M272.912 133.25C266.356 129.483 259.184 127.391 251.66 127.391C244.136 127.391 236.964 129.483 230.408 133.203L233.488 140.829C239.021 137.459 245.296 135.685 251.682 135.685C258.069 135.685 264.343 137.459 269.876 140.829L272.912 133.203V133.25Z" fill="#FFDF00" stroke="black" stroke-width="0.603103"/>
<path fill-rule="evenodd" clip-rule="evenodd" d="M273.012 270.15C266.456 273.917 259.284 276.009 251.76 276.009C244.236 276.009 237.064 273.917 230.508 270.197L233.588 262.571C239.121 265.941 245.396 267.715 251.782 267.715C258.169 267.715 264.443 265.941 269.976 262.571L273.012 270.197V270.15Z" fill="#FFDF00" stroke="black" stroke-width="0.603103"/>
<path fill-rule="evenodd" clip-rule="evenodd" d="M298.5 201.5C298.5 237.9 277.5 267.4 251.7 267.4C225.8 267.4 204.9 237.9 204.9 201.5C204.9 165.1 225.9 135.6 251.7 135.6C277.5 135.6 298.4 165.1 298.4 201.5H298.5Z" fill="#A7CFFF"/>
<path fill-rule="evenodd" clip-rule="evenodd" d="M298.432 201.559C298.916 213.928 296.408 219.973 293.196 232.853C292.36 234.248 288.356 229.831 285.98 227.645C283.604 225.46 282.548 229.598 279.556 226.25C276.608 222.809 274.716 227.18 272.516 224.297C270.316 221.414 249.944 221.042 249.944 220.763C251.968 219.74 262.352 220.856 260.68 215.602C258.788 210.115 247.04 215.416 245.456 208.441C244.356 201.466 221.872 201.187 220.244 199.513C220.904 202.117 237.756 203.233 237.36 209.975C236.964 212.765 220.772 213.556 219.188 215.881C217.868 218.81 231.948 215.09 232.432 218.671C232.432 220.159 230.364 218.671 223.06 220.996C219.364 222.158 229.836 225.785 225.876 227.785C221.916 229.784 213.424 230.667 213.776 231.505C215.096 235.689 233.444 240.619 231.64 241.316C225.128 244.385 221.696 246.385 218.572 248.152C209.418 234.564 204.623 218.236 204.888 201.559C218.836 196.258 215.888 195.142 241.672 195.142C267.456 195.142 275.992 196.211 298.432 201.559Z" fill="#AFFF7B" stroke="black" stroke-width="0.603103"/>
<path fill-rule="evenodd" clip-rule="evenodd" d="M298.432 201.559C294.912 201.559 291.216 203.14 287.432 203.14C283.604 203.14 279.732 201.512 275.772 201.512C271.812 201.512 267.28 203.651 263.232 203.651C259.14 203.651 255.576 201.559 251.484 201.559C247.392 201.559 243.3 203.14 239.252 203.14C235.204 203.14 231.2 201.512 227.284 201.512C223.368 201.512 219.496 203.14 215.756 203.14C212.016 203.14 208.364 201.512 204.888 201.512C204.888 192.445 206.208 183.796 208.584 175.891C220.464 176.821 213.424 168.59 220.464 168.59C222.519 168.472 224.574 168.818 226.494 169.604C228.413 170.389 230.152 171.597 231.596 173.147C232.652 173.147 237.932 167.846 243.872 168.59C249.768 169.334 247.612 181.285 255.488 181.889C259.448 185.051 261.78 187.051 267.236 188.353C275.024 189.097 297.332 187.19 297.464 188.26C298.106 192.66 298.43 197.106 298.432 201.559Z" fill="white" stroke="black" stroke-width="0.603103"/>
<path fill-rule="evenodd" clip-rule="evenodd" d="M259.734 241.662C259.734 239.593 261.827 238.213 261.827 234.91C261.827 231.607 259.967 231.534 259.905 228.449C259.874 227.178 261.501 225.908 262.214 225.763C262.927 225.617 263.532 228.449 263.532 229.066C263.532 229.683 262.803 227.541 262.199 227.505C261.594 227.469 260.292 227.723 260.292 228.34C260.292 229.574 262.586 231.099 262.416 235.237C262.245 239.302 260.447 240.537 260.447 241.771C260.447 243.005 261.222 246.417 261.222 246.417C261.222 246.417 259.719 243.695 259.719 241.626L259.734 241.662Z" fill="black" stroke="black" stroke-width="0.31627"/>
<path fill-rule="evenodd" clip-rule="evenodd" d="M261.766 241.362C261.766 239.293 259.673 237.914 259.673 234.61C259.673 231.307 261.533 231.234 261.595 228.149C261.75 226.697 259.766 225.753 259.053 225.644C258.34 225.535 257.503 228.548 257.503 229.129C257.503 229.71 258.34 227.241 258.945 227.205C259.549 227.169 261.208 227.423 261.208 228.04C261.208 229.274 258.914 230.799 259.084 234.937C259.255 239.003 261.053 240.237 261.053 241.471C261.053 242.705 260.278 246.117 260.278 246.117C260.278 246.117 261.781 243.395 261.781 241.326L261.766 241.362Z" fill="black" stroke="black" stroke-width="0.31627"/>
<path fill-rule="evenodd" clip-rule="evenodd" d="M261.8 224.5C261.8 225.5 261.3 226.4 260.8 226.4C260.1 226.4 259.6 225.6 259.6 224.5C259.6 223.4 260.1 222.7 260.7 222.7C261.3 222.7 261.8 223.5 261.8 224.5ZM275.9 230H276.3V244.7H275.9V230ZM279.1 228.8H279.5V243.6H279.1V228.8Z" fill="black"/>
<path fill-rule="evenodd" clip-rule="evenodd" d="M276.6 237V236.5L279.6 237.1V237.4L276.6 237Z" fill="black"/>
<path fill-rule="evenodd" clip-rule="evenodd" d="M234.612 239.77C234.612 239.77 246.052 245.071 248.56 248.233C251.024 251.395 250.056 251.395 250.056 251.395L275.444 252.464C275.444 250.883 279.932 250.883 280.944 247.163C281.956 243.49 281.956 242.42 281.956 242.42L273.992 245.071L274.432 240.328H267.48L266.468 245.071L251.508 244.559L252.52 231.865L249.528 232.376L249.088 244.466C248.56 244.466 235.096 240.793 234.568 239.77H234.612Z" fill="#B74D00" stroke="black" stroke-width="0.603103"/>
<path fill-rule="evenodd" clip-rule="evenodd" d="M211.62 164.079C211.62 164.079 228.208 158.871 252.144 159.243C276.08 159.615 292.668 165.195 292.316 165.195C291.964 165.195 287.74 156.639 287.74 156.639C287.74 156.639 270.844 151.757 251.792 151.385C232.784 151.013 216.196 155.105 216.592 155.477L211.62 164.079Z" fill="#FEDE00" stroke="#FEDE00" stroke-width="0.603103"/>
<path fill-rule="evenodd" clip-rule="evenodd" d="M241.5 152.8L251.8 152.6V158.6L241.6 158.8L241.5 152.8ZM217.9 156.1L214.3 162L226.5 160.5L225.5 154.5L217.9 156.1ZM228.3 153.8L238.5 152.9L239 158.9L228.8 159.8L228.3 153.8ZM265.2 153.2L255 152.5L254.6 158.5L264.8 159.2L265.2 153.2ZM287.2 157L290.9 164.3L279.9 161.5L281.1 155.7L287.2 157ZM278.3 154.8L268.2 153.5L267.5 159.4L277.6 160.7L278.3 154.8Z" fill="#38A9F9"/>
<path fill-rule="evenodd" clip-rule="evenodd" d="M252.144 167.428L251.044 161.15L247.7 166.498L248.932 160.22L243.96 163.801L247.304 158.546L241.408 159.848L246.468 156.314L240.528 155.152L246.468 153.943L241.408 150.409L247.304 151.711L243.916 146.456L248.932 150.037L247.7 143.759L251.044 149.107L252.144 142.829L253.288 149.107L256.588 143.759L255.4 150.037L260.372 146.456L256.984 151.711L262.924 150.409L257.864 153.943L263.804 155.152L257.864 156.314L262.924 159.848L256.984 158.546L260.372 163.801L255.4 160.22L256.632 166.498L253.288 161.15L252.144 167.428Z" fill="#FFDF00" stroke="black" stroke-width="0.603103"/>
<path fill-rule="evenodd" clip-rule="evenodd" d="M259.51 155.033C259.51 158.642 256.672 161.552 253.146 161.552C249.62 161.552 246.782 158.642 246.782 155.033C246.782 151.425 249.62 148.476 253.146 148.476C256.672 148.476 259.51 151.425 259.51 155.072V155.033Z" fill="#FFDF00" stroke="black" stroke-width="0.544614"/>
<path fill-rule="evenodd" clip-rule="evenodd" d="M252.5 153.4C252.5 153.8 251.6 154.1 250.5 154.1C249.4 154.1 248.3 153.8 248.3 153.4C248.3 153 249.3 152.6 250.4 152.6C251.5 152.6 252.6 153 252.6 153.4H252.5ZM257.2 153.4C257.2 153.8 256.4 154.1 255.6 154.1C254.8 154.1 254 153.8 254 153.4C254 153 254.7 152.6 255.6 152.6C256.5 152.6 257.1 153 257.1 153.4H257.2Z" fill="black"/>
<path d="M251.574 155.983L252.012 156.234C250.958 155.593 251.439 155.831 253.089 157.45C254.042 156.91 254.225 156.416 254.819 155.746" stroke="black" stroke-width="0.604054"/>
<path d="M249.332 158.499L249.684 158.871C248.848 157.941 249.244 158.406 251.092 159.615C252.852 159.848 254.656 159.057 255.712 157.755" stroke="black" stroke-width="0.603103"/>
<path fill-rule="evenodd" clip-rule="evenodd" d="M224 170.7C224 170.7 224.7 176.7 220 184.2C215.5 191.6 216.2 189 216.2 189C216.2 189 218.3 193 218 193C217.7 193 214.4 189.4 214.4 189.4L210.6 193.4C210.6 193.4 214.1 187.1 213.7 187.1C213.3 187.1 212.7 184.9 212.7 184.9L215.5 183.8C215.5 183.8 219.7 176 219.7 176.3C219.7 176.6 207 184.9 207 184.9L224 170.7ZM226.8 173C226.4 173 228.5 179 230.3 182C231.4 184.032 232.016 186.291 232.1 188.6L238.1 191.6L230.3 180.1L235.3 181.9L226.8 172.9V173ZM226.8 188.6C226.8 188.6 231 193.1 231.4 194.6C231.8 196.1 231.7 199.4 231.7 199.4L230 195.7L227.5 199.1C227.5 199.1 229.3 193.8 228.9 193.5C228.5 193.2 226.1 195.3 226.1 195.3L227.1 192C227.1 191.7 227.1 189.7 226.8 188.6ZM205.5 199.1C206.9 197.9 209.8 197.1 209.8 197.1C209.8 197.1 208 200.1 207.6 200.1C207.2 200.1 206.2 200.1 205.6 199.1H205.5ZM254.2 182.7C254.2 182.7 263.3 188.3 263.3 188.7C263.3 189.1 257.3 186 257.3 186L254.2 182.7ZM237.7 171C238.4 171.4 251.1 181.8 250.7 181.8C250.3 181.8 245.1 178.8 245.1 179.2V181.8L242.3 175.8L241.6 178.1L237.7 171.1V171ZM240.9 187.8L244.4 194.8L247.9 194.1C247.9 194.1 241.2 187.8 240.9 187.8ZM251.9 183.3L252.2 190C252.2 190 254.2 191.9 254.2 191.5C254.2 191.1 252.2 183.7 251.8 183.3H251.9Z" fill="#B7E1FF"/>
<path fill-rule="evenodd" clip-rule="evenodd" d="M148.3 92.2C148.3 92.2 164.2 83.5 182.3 76.9C195.539 72.0517 209.197 68.4364 223.1 66.1C228.5 66.1 237.6 79.5 239.1 79.5C240.7 79.5 246.8 75.8 254.4 75.8C262 75.8 266.6 81.8 268.2 81.8H281.9C283.4 81.8 277.3 66.8 281.9 67.6C284.2 68 303.7 71 321.8 76.8C339.9 82.8 365.6 93.1 365.6 93.1C365.6 93.1 323.6 98.7 312.4 97.1C310.9 97.8 312.4 106.9 310.2 102.9C306.7 102.1 293.8 100.1 291.5 100.1C289.2 100.1 285 102.7 278.9 104.1C274.276 105.278 269.675 106.545 265.1 107.9L275.1 123.5L262.8 129.5C262.8 129.5 255.2 111.6 252.1 111.6C249 111.6 247.6 124.3 243.7 123.6C239.9 122.8 238.4 111.6 235.4 108.6C232.3 105.6 216.2 104.6 210.1 103.1C204 101.6 194.1 100.4 188.8 98.9C183.5 97.4 178.1 102.7 175.8 102.7C173.5 102.7 178.8 98.2 176.6 97.4C174.4 96.6 172.8 99.7 171.2 99.7C169.7 99.7 153.7 96.7 152.2 95.9C150.6 95.2 156 92.2 154.5 92.2H148.4H148.3Z" fill="#984000"/>
<path fill-rule="evenodd" clip-rule="evenodd" d="M261.695 84.5C261.695 88.74 258.296 92.18 254.121 92.18C249.947 92.18 246.564 88.74 246.564 84.5C246.564 80.26 249.947 76.84 254.121 76.84C258.296 76.84 261.695 80.28 261.695 84.5Z" fill="#808080" stroke="#772600" stroke-width="0.672138"/>
<path fill-rule="evenodd" clip-rule="evenodd" d="M224.148 86.2C225.528 84.616 227.238 82.216 231.708 82.216C232.738 81.808 232.738 79.408 235.128 79.408C237.538 79.408 236.838 81.808 238.568 82.624C240.278 83.416 254.348 81.808 254.348 81.808C254.348 81.808 255.707 83.008 255.707 84.616C255.707 86.224 254.677 87.4 254.348 87.4C254.018 87.4 240.278 86.2 239.248 86.608C238.218 87.016 237.538 87.4 235.128 87.4C232.738 87.4 232.038 84.616 230.328 84.616C228.618 84.616 226.909 84.208 224.148 86.224V86.2Z" fill="#984000" stroke="#772600" stroke-width="1.17846"/>
<path d="M266.007 85.416H271.487C273.465 85.44 274.144 86.136 275.957 86.208H280.757C282.508 86.136 283.435 85.656 285.207 85.416C288.194 85.368 287.184 85.104 286.587 83.016C286.051 81.456 285.969 80.712 285.207 79.824C284.918 77.904 284.259 77.232 284.177 75.024C283.868 73.344 283.291 72.216 283.847 70.224C284.63 71.592 284.939 72.144 286.937 72.24C288.997 72.24 289.8 72.168 291.057 73.032C292.005 74.208 293.282 73.824 295.177 73.824C296.743 74.16 297.01 75.096 298.246 75.816C299.709 76.776 300.657 77.016 302.696 77.016C304.344 77.376 305.786 77.64 306.816 78.216C307.702 79.44 309.082 79.752 310.936 79.824C311.966 79.824 312.79 79.704 313.676 79.416C315.262 79.512 316.869 79.416 318.826 79.416C320.103 81.144 320.391 81.792 322.596 81.816C324.12 83.064 325.397 83.256 326.716 83.808H331.866C333.72 83.976 334.296 84.864 335.986 85.416C337.435 86.179 338.92 86.8442 340.435 87.408C341.91 87.719 343.407 87.8557 344.905 87.816C346.162 88.584 347.707 88.632 348.675 89.4C350.097 89.76 352.033 90.192 353.125 90.6C354.938 90.888 355.638 91.56 357.245 91.8C358.625 92.28 356.792 92.664 355.865 93C353.846 92.928 353.702 92.04 351.745 91.8C350.715 91.104 349.149 91.2 347.625 90.6H347.295C348.655 91.56 349.973 92.16 349.355 93.816C347.604 93.816 346.183 93.552 344.555 93.408C342.825 93.024 342.042 92.616 340.106 92.616C342.042 92.064 342.536 92.664 343.875 93.408C344.37 95.328 343.299 94.608 341.465 94.608C339.9 93.96 338.952 93.168 337.016 93H332.896C334.935 93.096 335.368 93.984 336.665 95.016C336.768 95.64 336.645 95.592 335.635 95.808C334.564 94.728 333.184 94.368 331.515 93.816C329.888 93.744 328.178 93.576 326.716 93C325.706 92.928 325.871 91.536 328.096 93.816C329.435 94.728 329.909 95.496 329.806 96.216C328.034 95.688 327.169 94.872 326.036 94.2C324.495 93.5773 322.865 93.3084 321.236 93.408C319.464 92.856 321.421 92.544 322.596 94.608C325.15 96.72 322.266 95.808 321.236 95.4C319.691 94.896 318.084 94.152 316.766 93.816C315.736 93.456 314.829 93.12 313.676 93C315.468 93.192 316.065 93.936 316.766 95.4C318.579 96.84 316.683 96.144 315.056 95.808C314.026 94.752 312.687 94.2 311.966 93C310.256 92.016 310.194 90.84 311.286 93.408C311.554 94.224 311.492 96 311.616 96.216C310.359 94.608 310.627 94.2 309.226 94.2C308.258 93.432 306.857 92.832 306.136 91.8C304.818 91.656 304.735 91.104 303.396 90.6C304.488 92.112 305.951 93.6 306.816 95.016C308.382 96.024 308.814 96.936 309.906 97.8C310.339 98.688 311.554 99.408 310.256 98.208C308.773 96.528 307.681 96.12 305.456 95.016C304.179 93.816 303.726 93.336 302.366 92.208C300.512 91.512 301.233 91.128 302.366 93.408C303.664 94.8 304.653 96.336 305.786 97.416C306.674 98.6525 307.716 99.7283 308.876 100.608C309.185 101.136 310.112 101.232 308.876 101.4C307.846 100.296 306.322 99.6 305.106 98.592C303.396 98.04 302.593 97.008 301.336 95.808C300.512 94.392 299.194 93.312 298.246 92.208C296.269 91.296 298.638 93.072 299.276 94.2C299.709 95.664 300.265 96.84 300.636 98.208C301.213 99.528 298.906 97.896 298.246 97.416C296.891 96.393 295.369 95.7067 293.776 95.4C292.411 95.0816 291.037 94.8175 289.656 94.608C288.111 94.128 290.501 95.76 291.387 97.416C293.117 99.312 289.677 97.752 288.647 97.416C286.946 97.0794 285.221 96.9427 283.497 97.008C281.293 97.152 282.879 97.488 283.497 98.592C284.177 99.216 284.65 100.512 284.527 100.992C283.085 100.752 281.849 100.272 280.057 100.2C278.615 100.752 276.905 100.608 275.257 100.608C275.195 101.616 275.566 100.752 276.287 101.808C277.482 102.36 278.264 103.032 278.017 103.8H268.067C266.976 104.136 268.294 103.968 269.097 105.408C268.644 106.704 268.067 106.2 266.687 106.2C265.76 105.768 263.886 105.576 262.917 105C261.949 105 262.032 104.712 261.208 104.592C264.092 106.992 262.65 106.392 264.298 108.192C264.565 108.312 265.225 108.6 264.627 108.6M241.988 121.392C241.782 121.392 241.329 120.096 240.628 118.992C240.134 117.552 239.516 118.368 238.898 116.184C238.98 113.928 239.042 113.544 238.898 111.384C237.497 110.232 236.9 109.896 235.808 107.784C234.077 106.104 236.076 103.224 236.405 101.112C234.881 100.728 234.139 103.872 231.811 105C230.122 106.32 231.605 102.264 230.781 99.912C230.225 96.576 228.557 101.592 227.939 103.008C226.806 103.896 226.455 105.048 224.849 103.392C224.849 102.168 225.858 98.712 225.425 98.04C223.819 98.976 221.717 101.76 220.049 102.192C218.36 101.784 220.399 98.64 220.399 96.312C219.781 96.072 217.371 102.504 216.382 102.552C215.393 102.6 215.826 96.312 215.352 96.456C214.631 97.656 213.168 100.152 212.159 101.016C210.202 100.704 212.447 96.816 212.736 95.376C213.065 93.648 210.902 98.688 209.749 99C208.904 99.864 207.236 100.44 206.659 100.608C207.318 99.12 210.573 96.12 210.367 95.256C208.451 95.328 205.546 98.256 203.919 98.616C202.848 98.616 201.365 99.024 201.179 99C201.262 97.08 205.176 95.496 205.794 94.32C203.878 94.68 200.19 96.648 199.119 98.208C197.842 98.52 196.235 98.928 194.999 98.208C195.185 96.408 198.069 92.928 198.707 91.776C196.956 92.664 196.091 93.36 194.237 93.768C193.887 94.176 192.898 95.04 193.207 94.176C193.763 92.496 194.587 91.776 195.267 90.576C193.722 90.912 193.145 91.944 191.497 92.976C190.447 93.024 187.439 96.552 186.43 96.6C184.721 98.169 182.727 99.261 180.6 99.792C179.034 100.128 178.272 100.512 177.51 101.4C178.293 99.792 179.487 98.28 180.6 97.416C181.279 95.9592 182.371 94.8224 183.69 94.2C184.081 93.648 185.152 93.504 184.019 93.408C183.051 94.416 181.403 95.568 180.6 96.216C179.549 96.984 178.334 97.752 177.839 97.416C178.396 95.688 179.384 95.256 180.25 93.816C182.062 92.472 180.25 93.336 178.869 93.816C177.984 94.728 176.397 95.424 175.1 96.216C173.658 96.648 172.689 97.656 170.98 98.208C170.98 98.784 171.474 97.176 171.68 96.6C173.081 94.824 173.452 94.32 175.1 93.816C175.512 93.12 176.006 93.408 174.77 93.408C173.822 94.368 172.545 94.896 171.33 95.808C170.114 96.12 168.528 96.216 166.88 96.216C164.738 96.504 164.923 96.696 166.88 95.4C167.972 94.2 168.878 94.512 168.94 93C167.642 94.104 166.056 94.92 164.47 95.808C163.152 95.856 162.801 96.216 161.38 96.216C162.06 95.4 162.472 94.368 163.44 93.816C164.882 91.968 162.534 93.456 162.06 93.816H156.91C156.003 95.16 156.869 93.816 157.61 93C158.496 92.472 159.423 91.776 159.32 91.416C158.29 92.448 157.116 92.928 156.23 93.816C155.282 94.152 154.17 94.296 154.17 94.608C154.932 93.336 156.148 92.544 156.93 91.416C158.084 91.128 159.073 90.696 159.32 90.216H154.52H157.94C159.691 90.216 161.174 90.024 162.76 89.808C165.479 89.28 162.513 89.016 161.03 89.016C160.762 88.392 161.895 88.056 163.09 87.816C164.12 87.24 165.418 86.736 166.53 86.208C167.512 85.8596 168.438 85.3243 169.27 84.624C168.24 84.672 168.24 84.96 167.21 85.008C168.755 84.888 169.847 84.624 171.68 84.624C173.19 84.0441 174.675 83.3793 176.13 82.632C176.748 81.768 176.995 81.816 175.45 81.816C176.83 81.312 178.787 81.048 179.899 80.616C181.319 80.2695 182.701 79.7381 184.019 79.032C185.029 78.24 185.606 77.304 186.759 76.632C188.098 77.688 188.119 77.832 190.529 77.832C192.465 77.808 193.66 77.256 194.649 76.224C196.132 75.744 196.4 74.928 198.089 74.64C199.676 74.9305 201.282 75.059 202.889 75.024C204.537 74.52 206.123 73.584 207.339 72.624C208.389 72.024 209.646 71.16 210.779 70.632C212.015 71.376 213.004 71.976 214.549 72.24C216.135 71.952 216.979 71.04 218.318 70.632C219.144 69.6079 220.225 68.9113 221.408 68.64C223.407 67.488 223.262 69 224.148 70.224C225.178 71.472 226.497 70.872 227.918 71.424C228.721 72.864 229.298 73.824 230.328 74.616C231.132 75.768 232.079 76.056 233.768 76.224C234.386 77.184 233.892 77.856 235.128 78.216C235.622 78.84 236.467 79.08 237.188 79.416" stroke="#772600" stroke-width="0.778229"/>
<path d="M262.052 111.192V111.384C262.052 110.832 262.052 111.144 262.403 112.2C262.526 113.064 262.238 112.968 261.888 113.592C261.826 114.48 261.723 115.128 261.723 116.184C261.599 117.048 261.187 117.864 260.858 118.584C260.528 119.328 259.107 119.76 259.148 120.792C258.324 121.056 258.303 120.432 258.283 119.376C257.788 118.728 257.623 117.84 257.253 116.976C257.047 116.16 256.552 115.536 256.223 114.576C255.728 113.688 255.296 113.424 254.863 112.392C254.678 111.912 254.719 111.288 254.348 111C253.792 110.16 253.421 110.04 252.453 109.992C251.711 110.184 251.423 110.568 250.743 110.784C250.207 111 249.177 110.928 248.518 111.192C248.353 111.504 248.848 111.672 249.033 112.392C248.58 112.824 248.415 113.568 248.168 114.192C247.756 114.792 247.488 115.08 247.303 115.992C247.591 116.544 247.344 117.288 246.973 117.792C246.85 118.704 246.458 119.208 246.273 119.976C245.737 120.432 245.531 120.84 245.078 121.584C244.687 122.232 244.336 122.184 243.368 122.184C242.606 121.944 242.503 121.464 241.823 121.176C241.761 120.936 241.7 120.864 241.473 120.792" stroke="#782600" stroke-width="0.689288"/>
<path fill-rule="evenodd" clip-rule="evenodd" d="M242.7 119.4C242.7 119.4 242.4 123.1 240 125.6C237.6 128.1 232.6 131 232.6 131C232.6 131 239.3 127.9 240 128.5C240.7 129.2 235.7 134.8 235.7 134.8C235.7 134.8 242.2 128.9 243.1 128.9C244 128.9 245.8 134.6 246.5 134.5C247.2 134.4 245 127.3 245.3 126.2C245.6 125.1 245.3 119.2 245.3 119.2L242.7 119.4ZM258.2 118.9C258.2 118.9 257.9 122.9 255.4 125.5C252.9 128.1 248 131.3 248 131.3C248 131.3 254.8 127.9 255.4 128.7C256.1 129.4 251.1 135.3 251.1 135.3C251.1 135.3 257.7 129.1 258.5 129.1C259.3 129.1 261.3 135.1 262 135.1C262.7 134.9 260.4 127.3 260.8 126.1C261.1 125 260.8 118.6 260.8 118.6L258.2 118.9ZM236.5 82.6C236.5 83.4 235.8 84 234.9 84C234 84 233.3 83.4 233.3 82.6C233.3 81.8 234 81.3 234.9 81.3C235.8 81.3 236.5 81.9 236.5 82.6Z" fill="#812E00"/>
</g>
<defs>
<clipPath id="clip0_103_4189">
<rect width="512" height="512" fill="white" transform="translate(0.5)"/>
</clipPath>
</defs>
</svg>
