<svg width="513" height="512" viewBox="0 0 513 512" fill="none" xmlns="http://www.w3.org/2000/svg">
<g clip-path="url(#clip0_103_4317)">
<path d="M0.5 341.3H512.5V512H0.5V341.3Z" fill="black"/>
<path d="M0.5 170.7H512.5V341.3H0.5V170.7Z" fill="white"/>
<path d="M0.5 0H512.5V170.7H0.5V0Z" fill="#CE1126"/>
<path d="M257.181 258.047L315.634 312.319L311.453 213.759C310.856 198.826 297.885 202.239 288.413 207.615C278.941 213.759 267.933 213.759 256.499 209.749C244.979 213.759 234.056 213.759 224.584 207.615C215.197 202.239 202.141 198.826 201.544 213.759L197.363 312.319L257.181 258.047Z" fill="white" stroke="#C09300" stroke-width="1.10933" stroke-linejoin="round"/>
<path d="M208.285 210.346L204.189 306.175L197.363 312.319L201.544 213.759C203.56 212.213 205.846 211.056 208.285 210.346ZM216.477 217.172L213.064 297.386L206.237 304.383L210.333 211.796C211.699 213.162 215.709 216.49 216.477 217.172ZM223.901 223.316L221.256 290.218L215.709 295.594L219.123 219.306C220.488 220.586 223.219 222.548 223.901 223.316ZM232.008 226.73L229.363 283.732L223.987 288.084L226.632 224.682C227.997 225.279 230.643 226.73 232.008 226.73ZM239.517 226.73L237.555 274.26L232.008 279.636L234.141 227.327C235.421 227.327 238.92 227.327 239.517 226.73Z" fill="#C09300"/>
<path d="M304.712 210.346L308.808 306.175L315.634 312.319L311.453 213.759C309.437 212.213 307.151 211.056 304.712 210.346ZM296.52 217.172L299.933 297.386L306.76 304.383L302.664 211.796C301.298 213.162 297.288 216.49 296.52 217.172ZM289.096 223.316L291.741 290.218L297.288 295.594L293.874 219.306C292.509 220.586 289.778 222.548 289.096 223.316ZM280.989 226.73L283.634 283.732L289.01 288.084L286.365 224.682C285 225.279 282.354 226.73 280.989 226.73ZM273.48 226.73L275.442 274.26L280.989 279.636L278.856 227.327C277.576 227.327 274.077 227.327 273.48 226.73Z" fill="#C09300"/>
<path d="M259.229 268.799L267.421 306.175L264.691 308.905L261.875 306.772L257.267 273.492L259.229 306.772L256.499 310.185L253.853 306.772L255.816 273.492L251.123 306.772L248.307 308.905L245.576 306.175L253.768 268.884H259.229V268.799Z" fill="#C09300" stroke="#C09300" stroke-width="0.938663"/>
<path d="M238.152 252.415L221.853 310.185L244.296 313.599L253.768 270.164L238.152 252.415Z" fill="white" stroke="#C09300" stroke-width="1.024" stroke-linejoin="round"/>
<path d="M232.776 272.212L234.739 276.906L245.32 266.836" stroke="#C09300" stroke-width="1.10933" stroke-linejoin="round"/>
<path d="M240.114 260.266L242.333 281.002L249.074 272.127M246.344 275.54L250.013 288.34M251.464 283.647L244.04 294.911M246.344 306.175L243.954 294.911M243.954 294.911L241.906 283.476L236.872 290.218L234.739 282.452L227.741 289.62L231.24 302.591L236.189 294.57L238.835 302.761L243.954 294.911Z" stroke="#C09300" stroke-width="1.10933" stroke-linejoin="round"/>
<path d="M226.632 308.905L231.154 302.505L234.056 312.319L238.152 305.492L240.797 313.684" stroke="#C09300" stroke-width="1.10933" stroke-linejoin="round"/>
<path d="M274.845 252.415L291.144 310.185L268.701 313.599L259.229 270.164L274.845 252.415Z" fill="white" stroke="#C09300" stroke-width="1.024" stroke-linejoin="round"/>
<path d="M280.221 272.212L278.259 276.906L267.677 266.836" stroke="#C09300" stroke-width="1.10933" stroke-linejoin="round"/>
<path d="M272.883 260.266L270.664 281.002L263.923 272.127M266.653 275.54L262.984 288.34M261.533 283.647L268.957 294.911M266.653 306.175L269.043 294.911M269.043 294.911L271.091 283.476L276.125 290.218L278.259 282.452L285.256 289.62L281.757 302.591L276.808 294.57L274.163 302.761L269.043 294.911Z" stroke="#C09300" stroke-width="1.10933" stroke-linejoin="round"/>
<path d="M286.365 308.905L281.843 302.505L278.941 312.319L274.845 305.492L272.2 313.684" stroke="#C09300" stroke-width="1.10933" stroke-linejoin="round"/>
<path d="M256.499 336.041C273.565 336.041 289.778 334.676 299.336 332.031C303.346 331.263 303.346 329.215 303.346 326.484C307.442 325.119 305.394 320.34 308.21 320.34C305.309 321.193 304.797 315.647 301.384 316.329C301.384 311.551 296.52 310.953 292.509 312.319C284.402 314.964 270.066 315.647 256.499 315.647C242.845 314.964 228.68 314.964 220.488 312.233C216.477 310.953 211.699 311.551 211.699 316.329C208.285 315.647 207.688 321.108 204.872 320.34C207.688 320.34 205.555 325.204 209.651 326.484C209.651 329.215 209.651 331.263 213.747 332.031C223.133 334.676 239.517 336.041 256.499 336.041Z" fill="white" stroke="#C09300" stroke-width="2.04799" stroke-linecap="round" stroke-linejoin="round"/>
<path d="M233.373 310.185C238.835 310.953 244.979 311.551 249.757 310.953C252.488 310.953 254.451 315.647 248.989 316.329C244.296 316.927 236.787 316.329 232.776 315.647C227.498 314.723 222.26 313.584 217.075 312.233C212.296 310.185 215.709 306.26 218.44 306.772C223.312 308.333 228.307 309.475 233.373 310.185ZM279.624 310.185C274.162 310.953 268.018 311.551 263.41 310.953C260.509 310.953 258.547 315.647 264.008 316.329C268.786 316.927 276.21 316.329 280.221 315.647C283.634 314.964 291.144 313.684 295.922 312.233C300.701 310.185 297.288 306.26 294.557 306.772C289.686 308.333 284.69 309.475 279.624 310.185Z" fill="white" stroke="#C09300" stroke-width="1.10933" stroke-linecap="round" stroke-linejoin="round"/>
<path d="M216.392 307.54C212.296 306.772 210.419 311.551 211.699 314.281C212.296 312.916 215.112 312.916 215.709 311.551C216.477 309.503 215.112 309.503 216.477 307.54H216.392ZM232.776 320.084C232.776 317.353 235.421 317.695 235.421 314.964C235.421 313.684 234.739 311.551 233.373 311.551C232.662 311.591 231.991 311.892 231.488 312.396C230.984 312.899 230.683 313.57 230.643 314.281C230.045 316.927 232.776 317.353 232.776 320.084ZM252.146 312.319C256.157 312.319 255.73 317.695 253.853 320.425C253.853 318.463 250.44 317.695 250.44 316.329C250.44 314.281 253.512 314.281 252.146 312.319ZM296.52 307.54C300.701 306.772 302.664 311.551 301.298 314.281C300.701 312.916 297.885 312.916 297.288 311.551C296.52 309.503 297.885 309.503 296.52 307.54ZM280.392 319.999C280.392 317.268 277.661 317.609 277.661 314.879C277.661 313.599 278.344 311.465 279.709 311.465C280.42 311.506 281.091 311.807 281.595 312.31C282.098 312.814 282.399 313.485 282.44 314.196C283.037 316.841 280.306 317.268 280.306 319.999H280.392ZM260.765 312.319C256.754 312.319 257.181 317.695 259.058 320.425C259.058 318.463 262.472 317.695 262.472 316.329C262.472 314.281 259.4 314.281 260.765 312.319Z" fill="white" stroke="#C09300" stroke-width="1.10933" stroke-linecap="round" stroke-linejoin="round"/>
<path d="M217.843 308.905C219.208 308.905 221.256 309.503 221.853 310.271L217.843 308.905ZM224.584 310.953C225.267 310.953 227.997 311.551 229.277 312.319L224.584 310.953ZM248.989 313.684C247.709 313.684 244.979 313.684 244.296 314.281L248.989 313.599V313.684ZM241.565 313.684C240.797 312.916 238.152 312.916 236.787 313.684H241.565ZM295.154 308.905C293.707 308.924 292.302 309.402 291.144 310.271L295.154 308.905ZM288.498 310.953C287.645 310.953 285.085 311.551 283.72 312.319L288.498 310.953ZM264.008 313.684C265.288 313.684 268.019 313.684 268.787 314.281L264.008 313.599V313.684ZM271.432 313.684C272.2 312.916 274.845 312.916 276.211 313.684H271.432Z" fill="white" stroke="#C09300" stroke-width="0.767997" stroke-linecap="round" stroke-linejoin="round"/>
<path d="M216.648 319.657C216.221 319.572 215.965 319.145 216.136 318.804C216.221 318.207 216.648 317.951 216.989 318.121C217.331 318.121 217.757 318.633 217.757 318.804L217.416 319.401L217.245 319.487C217.245 319.657 216.904 319.657 216.648 319.657ZM263.581 322.985C263.41 322.985 263.069 322.559 263.069 322.388C263.069 322.047 263.581 321.535 263.922 321.535L264.605 321.876C264.861 322.132 264.861 322.644 264.52 322.9C264.349 323.071 263.837 323.071 263.581 322.9V322.985ZM263.837 325.119C263.496 324.948 263.41 324.777 263.325 324.436C263.325 324.009 263.325 323.924 263.752 323.668L264.093 323.497L264.434 323.668C264.776 323.839 265.032 324.009 265.032 324.351C265.032 324.607 264.776 324.863 264.434 325.033C264.178 325.204 264.093 325.204 263.837 325.033V325.119Z" fill="#C09300"/>
<path d="M220.488 315.732C220.147 315.732 219.72 316.073 219.464 316.244C218.952 316.329 218.269 316.671 217.757 316.244C217.245 316.159 216.563 316.244 216.477 316.927C216.563 317.524 217.331 317.78 217.843 317.439C218.184 317.012 219.123 316.671 219.293 317.439C218.867 318.121 218.952 318.889 218.611 319.487C218.611 319.913 218.355 320.255 218.184 320.596C217.757 320.596 217.331 320.596 216.989 320.852C216.724 320.852 216.463 320.914 216.226 321.032C215.989 321.151 215.783 321.323 215.624 321.535C215.283 322.047 214.941 322.559 214.856 323.241C214.941 323.753 215.709 323.924 216.221 324.009L217.928 324.521L220.659 325.289C222.024 325.716 223.389 325.887 224.755 326.228L225.181 326.313C225.779 326.484 226.035 325.887 226.035 325.46L226.888 322.388C227.059 321.961 227.315 321.108 226.547 321.279C226.12 321.535 225.693 321.961 225.181 321.961C224.413 321.961 224.84 322.815 225.181 323.071C225.181 323.583 225.011 324.18 224.755 324.607C224.243 324.863 223.731 324.607 223.219 324.436C222.792 324.436 221.768 324.18 222.195 323.583L222.621 322.047C222.877 321.535 222.877 320.937 223.048 320.34C222.707 319.743 222.195 320.596 221.768 320.681C221.427 320.852 220.403 320.937 220.915 321.535C221.427 321.876 221.085 322.473 220.915 322.985C220.915 323.583 220.232 323.839 219.72 323.583C219.208 323.583 218.44 323.156 218.867 322.644L219.293 321.108L219.891 319.401C219.891 318.804 220.147 318.377 220.403 317.865C220.403 317.268 220.829 316.756 220.829 316.159C220.829 315.903 220.659 315.817 220.488 315.817V315.732ZM217.331 321.961C217.37 321.939 217.414 321.927 217.459 321.927C217.504 321.927 217.548 321.939 217.587 321.961C217.757 322.132 217.757 322.303 217.587 322.473L217.331 322.644C216.904 322.644 216.819 322.559 216.819 322.388C216.819 322.303 216.819 322.217 217.075 322.132C217.178 322.057 217.294 322 217.416 321.961H217.331ZM216.477 326.228C216.051 325.887 216.136 325.631 216.733 325.119C217.075 324.948 217.16 324.948 217.501 325.204C218.013 325.631 218.013 325.887 217.501 326.313C217.331 326.484 217.245 326.484 217.075 326.484C216.819 326.484 216.733 326.484 216.477 326.313V326.228ZM219.037 327.081C218.847 327.022 218.687 326.891 218.591 326.716C218.496 326.541 218.472 326.335 218.525 326.143C218.696 325.801 218.781 325.716 219.293 325.716C219.891 325.716 219.976 325.801 220.061 326.313C220.061 326.655 220.061 326.74 219.805 326.911C219.71 326.986 219.6 327.04 219.482 327.07C219.365 327.099 219.242 327.103 219.123 327.081H219.037ZM295.154 327.081C294.984 326.996 294.898 326.911 294.898 326.655C294.898 326.313 295.069 326.057 295.581 325.887C296.093 325.631 296.434 325.631 296.605 326.057C296.861 326.569 296.861 326.74 296.52 327.081C296.349 327.337 296.264 327.337 295.837 327.337C295.41 327.337 295.325 327.337 295.154 327.167V327.081ZM222.621 328.105C222.28 328.105 222.109 327.764 222.109 327.423C222.109 327.167 222.109 327.081 222.28 326.911L222.792 326.74L223.304 326.825C223.731 327.167 223.816 327.508 223.56 327.849C223.304 328.191 223.048 328.191 222.536 328.105H222.621ZM241.224 328.959L241.053 328.703C241.053 328.191 241.053 327.764 241.224 327.252C241.309 326.825 241.224 326.399 241.394 325.972L241.736 323.583C241.736 323.156 241.736 322.729 241.907 322.388C241.992 321.705 241.907 321.108 242.077 320.511C242.077 320.255 242.333 319.657 242.589 319.999C242.931 320.511 243.357 320.852 243.784 321.279C244.125 321.535 243.784 321.876 243.528 321.961C243.186 322.047 243.101 322.473 243.101 322.815L242.931 323.839C242.931 324.436 242.93 324.948 242.76 325.545L242.674 327.081L242.504 328.105C242.504 328.447 242.504 328.873 242.163 329.044C241.907 329.215 241.48 329.215 241.309 328.959H241.224ZM266.568 320.596L265.458 321.62C264.946 322.047 265.885 322.217 265.97 322.559C266.141 323.071 266.141 323.583 266.141 324.095C266.312 324.607 266.397 325.033 266.312 325.545C266.312 326.143 265.629 325.972 265.288 326.313C264.861 326.484 264.69 326.911 264.434 327.167C264.232 327.595 264.116 328.059 264.093 328.532C264.093 328.959 263.837 329.385 264.093 329.727L264.178 329.897H264.605L265.885 329.812C266.909 329.641 268.018 329.641 269.042 329.556L270.92 329.385C271.432 329.471 271.688 328.959 271.688 328.532C271.346 327.935 271.602 327.337 271.346 326.825C271.176 326.143 271.261 325.545 271.176 324.948C271.176 324.436 270.578 324.265 270.322 324.607C269.981 324.948 269.469 325.033 269.298 325.375C269.042 325.887 269.81 325.887 269.981 326.228L270.066 327.508C270.152 328.02 269.64 328.02 269.213 328.105C268.786 328.276 268.189 328.361 267.933 327.849C267.762 327.423 267.762 326.996 267.762 326.569C267.762 325.716 267.506 325.033 267.506 324.265C267.506 323.412 267.25 322.473 267.25 321.535C267.25 321.108 267.165 320.511 266.568 320.596ZM266.056 327.593H266.312V328.276L266.056 328.361C265.944 328.397 265.83 328.425 265.714 328.447C265.658 328.449 265.601 328.449 265.544 328.447C265.373 328.276 265.373 328.02 265.629 327.764L266.056 327.593ZM240.456 319.743C240.2 319.743 239.773 320.34 239.432 320.255C238.664 320.34 238.749 321.108 239.347 321.364V322.047C239.432 322.729 239.005 323.327 239.091 324.009C239.091 324.692 238.835 325.46 238.835 326.228C238.579 326.996 238.579 327.764 238.493 328.532C238.408 329.215 237.896 328.959 237.469 328.788V327.935C237.555 327.167 237.043 326.996 236.445 326.911C235.848 326.911 235.592 326.484 235.763 325.972C236.019 325.631 236.616 325.716 237.043 325.716C237.896 325.887 237.811 324.777 237.384 324.351C237.043 323.839 236.36 323.497 236.189 322.985C236.189 322.303 235.763 321.535 235.165 321.193C234.227 321.108 233.459 321.876 233.203 322.729C232.776 322.729 232.349 322.9 232.008 323.071C231.411 323.241 230.557 324.265 231.411 324.692C231.837 324.777 233.288 325.119 232.605 325.716C232.264 326.399 231.581 326.399 230.984 326.228C230.387 326.228 229.704 325.887 229.704 325.204C229.619 324.521 229.619 323.839 229.363 323.241C229.192 322.559 228.424 322.729 228.339 323.412C227.741 323.839 227.827 324.607 228.253 325.119C228.509 325.716 228.253 326.484 227.997 326.996C227.827 327.849 226.973 327.849 226.376 328.02C226.12 328.191 225.011 328.02 225.437 328.617C226.077 328.912 226.793 329.001 227.485 328.873C228.168 328.873 228.765 328.276 229.192 327.679C229.619 327.252 230.387 327.508 231.069 327.508C231.667 327.508 232.349 327.935 233.032 327.593C233.203 327.167 234.056 326.313 234.312 327.167C234.312 327.935 234.909 328.276 235.592 328.191C236.36 328.191 236.019 328.703 236.019 329.215C236.019 329.983 236.616 330.409 237.299 330.751H237.981C238.579 330.495 239.261 330.239 239.517 329.556C239.773 328.959 239.773 328.276 239.944 327.679C240.115 326.74 240.285 325.716 240.285 324.777C240.541 323.924 240.456 322.985 240.627 322.047L240.883 320.084C240.883 319.657 240.712 319.657 240.456 319.743ZM234.739 323.241C234.824 323.241 234.909 323.412 234.909 323.668C234.909 324.009 235.08 324.265 235.336 324.351V324.607L234.653 324.777C234.227 324.777 233.885 324.607 233.629 324.351L233.459 324.18L233.715 324.009L234.141 323.583C234.397 323.327 234.568 323.241 234.739 323.241ZM291.058 316.5C290.567 316.535 290.081 316.621 289.608 316.756C288.754 316.756 288.328 317.609 289.181 318.121C289.693 319.401 290.461 317.78 291.314 317.951C292.509 318.121 292.594 319.487 292.85 320.511C292.85 321.449 293.192 322.388 293.448 323.327C294.301 324.265 292.85 324.863 292.253 324.18C291.741 323.583 290.546 322.9 289.949 323.668C289.181 324.009 289.096 325.033 288.498 325.375C287.474 325.631 287.389 324.351 286.792 323.839C286.28 323.071 285.341 322.985 284.573 322.815C284.232 322.047 284.402 320.767 283.72 320.255C283.037 320.511 281.842 321.705 282.866 322.303C283.72 323.156 282.44 323.497 282.013 324.009C281.33 324.777 281.16 325.716 281.16 326.569C280.05 327.167 279.88 325.887 279.709 325.119C279.709 324.18 278.856 324.436 278.258 324.777C277.405 325.119 277.064 325.887 276.552 326.484V328.191C276.722 328.959 277.576 328.617 278.088 328.532C278.941 328.191 279.282 329.129 278.6 329.641C278.088 330.153 276.722 329.897 276.893 330.836H278.258C279.112 330.58 280.136 329.897 280.221 328.873C280.392 328.02 281.672 328.105 282.354 327.935C283.208 327.679 284.317 327.593 284.573 328.788C285.17 329.385 286.45 330.068 287.133 329.215C287.458 329.009 287.718 328.715 287.884 328.368C288.051 328.021 288.115 327.634 288.072 327.252C287.986 326.569 289.181 326.569 289.522 326.996C289.949 327.679 291.314 327.508 291.997 326.996C292.68 326.569 292.85 325.631 293.874 325.631L298.482 324.351C299.677 324.095 298.312 323.327 297.97 322.815C297.117 322.388 296.264 324.265 295.24 323.327C294.386 322.729 294.472 321.62 294.216 320.681C293.96 319.487 294.045 318.121 293.192 317.268C292.68 316.671 291.826 316.5 291.058 316.5ZM285.256 324.607C285.341 324.607 285.512 324.607 285.682 324.777C286.024 324.948 286.28 325.289 286.28 325.631C286.28 325.801 286.28 325.801 286.024 325.887L285.597 326.057C285.426 326.057 285 325.801 285 325.631V325.289C284.829 324.948 284.829 324.948 285 324.777L285.256 324.607ZM290.802 324.948C291.144 324.948 291.314 324.948 291.485 325.204C291.57 325.545 291.485 325.716 291.144 325.887L290.717 326.057L290.376 325.801C290.205 325.716 290.12 325.631 290.12 325.46C290.12 325.204 290.461 324.948 290.802 324.863V324.948ZM283.122 324.948C283.293 324.948 283.378 324.948 283.464 325.119C283.634 325.289 283.72 325.375 283.72 325.631V326.143C283.72 326.399 283.72 326.313 283.208 326.313C282.696 326.313 282.61 326.313 282.61 325.801C282.61 325.46 282.61 325.375 282.866 325.204C282.952 325.033 283.122 325.033 283.208 325.033L283.122 324.948ZM278.514 326.228C278.595 326.252 278.668 326.296 278.728 326.356C278.787 326.415 278.831 326.489 278.856 326.569C278.856 326.825 278.856 326.996 278.685 327.081C278.429 327.167 278.002 327.252 277.832 327.081C277.829 327.053 277.829 327.024 277.832 326.996C277.661 326.911 277.661 326.825 277.832 326.74V326.655L278.002 326.399C278.055 326.316 278.135 326.253 278.228 326.222C278.321 326.191 278.422 326.193 278.514 326.228ZM286.365 327.252L286.792 327.337V327.849H285.768L285.682 327.679C285.682 327.508 285.682 327.423 285.853 327.337L286.365 327.252ZM271.773 331.348C271.688 331.348 271.517 331.263 271.688 331.177C271.773 330.921 272.114 330.836 272.37 330.665C272.835 330.488 273.247 330.194 273.565 329.812C273.565 329.471 273.906 329.3 273.906 328.959L273.821 327.764C273.706 327.406 273.463 327.102 273.138 326.911C272.882 326.825 272.541 326.74 272.456 326.399C272.456 326.143 272.712 325.887 272.797 325.631L273.309 324.607C273.565 324.351 273.906 324.607 273.992 324.777L274.418 325.631C274.674 325.887 274.845 326.143 274.93 326.484C275.101 326.825 275.272 327.081 275.272 327.337L275.442 328.447C275.442 328.873 275.442 329.385 275.272 329.812L274.76 330.495C274.504 330.751 274.248 331.007 273.906 331.092C273.65 331.177 273.48 331.433 273.138 331.433H271.858L271.773 331.348ZM265.885 331.689C265.714 331.519 265.629 331.433 265.629 331.177C265.629 330.921 265.629 330.921 265.885 330.665C266.226 330.324 266.397 330.324 267.08 330.665C267.677 331.007 267.933 331.007 267.933 330.751C268.018 330.58 268.36 330.324 268.786 330.324C268.944 330.33 269.095 330.39 269.213 330.495C269.384 330.665 269.469 330.751 269.469 331.092C269.469 331.519 269.469 331.519 269.213 331.775C268.957 331.945 268.957 331.945 268.616 331.945C268.464 331.937 268.318 331.884 268.197 331.793C268.075 331.702 267.983 331.577 267.933 331.433C267.933 331.263 267.933 331.177 267.762 331.348L267.592 331.433C267.421 331.433 267.08 331.689 266.909 331.86L266.482 331.945C266.141 331.945 266.141 331.945 265.885 331.689ZM248.989 324.095C248.392 324.095 247.794 324.607 247.709 325.204C247.88 325.801 248.392 326.484 248.05 327.081C248.306 327.935 247.368 328.276 246.77 327.849C246.429 326.996 246.258 326.143 245.661 325.289C244.978 325.119 244.723 326.228 244.211 326.655C244.467 327.252 245.149 327.849 245.234 328.617C245.405 329.471 244.893 330.324 244.296 330.665C243.699 331.263 242.845 331.092 242.163 331.177C241.309 331.689 242.76 331.86 243.186 331.86C244.04 331.945 244.978 331.86 245.746 331.177C246.344 330.921 246.258 329.727 247.026 329.641L251.122 329.897C251.805 330.068 252.914 329.812 253.426 330.324C253.426 331.177 254.28 331.86 255.048 332.201C255.474 332.372 255.901 331.775 256.328 331.689C257.181 331.433 256.925 330.409 257.437 329.983H261.704C261.874 329.983 261.96 329.556 262.216 329.385L262.045 327.764C261.789 327.081 262.045 326.228 261.618 325.631C260.85 325.46 260.253 326.057 259.57 326.143C258.717 326.484 258.12 327.252 258.034 328.105C257.608 328.873 256.84 327.935 257.181 327.252L257.096 326.399C256.669 325.972 255.901 326.143 255.304 326.057L252.744 325.887C251.89 325.887 251.122 325.972 250.44 325.801C249.586 325.801 249.586 324.948 249.586 324.265C249.416 324.135 249.203 324.075 248.989 324.095ZM250.696 327.252L251.549 327.337H252.658C253.512 327.508 254.365 327.508 255.218 327.508C255.389 327.508 255.56 327.679 255.73 327.849V329.556C255.73 329.812 255.73 330.153 255.56 330.239C255.515 330.307 255.457 330.365 255.389 330.409C255.264 330.387 255.146 330.337 255.042 330.264C254.939 330.19 254.853 330.094 254.792 329.983V328.788C254.623 328.645 254.415 328.556 254.194 328.532L251.976 328.447L250.269 328.361C250.013 328.276 249.672 328.361 249.501 328.02C249.33 327.849 249.586 327.508 249.842 327.423C250.111 327.303 250.402 327.244 250.696 327.252ZM260.338 327.508C260.424 327.508 260.509 327.508 260.509 327.764L260.68 328.191C260.68 328.276 260.68 328.361 260.509 328.361C260.082 328.532 259.656 328.532 259.485 328.361C259.485 328.276 259.485 327.935 259.656 327.849L260.338 327.508Z" fill="#C09300"/>
<path d="M256.499 279.21C284.317 257.876 281.928 226.474 281.928 226.474L279.794 226.644C273.906 226.644 259.997 223.231 256.755 219.05C253.341 222.89 239.005 226.73 233.203 226.73L231.069 226.474C231.069 226.474 228.595 257.791 256.499 279.21Z" fill="white" stroke="#C09300" stroke-width="0.938663"/>
<path d="M279.709 228.692H279.027C273.736 228.692 261.448 226.047 256.669 221.951C251.72 225.706 239.176 228.778 233.971 228.778C233.741 228.769 233.513 228.74 233.288 228.692C233.335 234.085 234.081 239.449 235.507 244.65C238.929 257.18 246.289 268.279 256.499 276.308C266.715 268.248 274.073 257.121 277.491 244.564C278.91 239.391 279.655 234.056 279.709 228.692Z" fill="white" stroke="#C09300" stroke-width="0.767997"/>
<path d="M247.453 226.132C242.87 227.625 238.104 228.486 233.288 228.692L233.373 232.191C233.665 236.377 234.38 240.523 235.507 244.564C237.801 252.957 241.875 260.757 247.453 267.434V226.132ZM265.032 226.132V268.116C270.879 261.286 275.134 253.241 277.491 244.564C278.617 240.522 279.331 236.377 279.624 232.191L279.709 228.778H279.027C275.784 228.778 270.152 227.754 265.032 226.047V226.132Z" fill="#C09300"/>
<path d="M266.995 215.892C267.592 215.978 266.227 212.906 266.227 212.906C267.763 214.442 273.395 214.868 273.395 214.868C269.981 213.332 266.568 201.983 266.995 192.853C267.336 183.807 265.715 180.223 264.435 178.858C262.728 177.151 257.181 175.615 253.597 175.445C251.464 175.359 251.891 176.981 251.891 176.981C248.051 176.042 244.211 175.615 242.504 176.81C240.968 177.834 240.627 183.21 241.821 182.271C244.637 179.967 247.112 182.101 248.819 184.575C250.355 186.709 250.269 192.853 248.051 200.106C246.086 205.589 243.2 210.697 239.517 215.21C242.931 215.21 247.709 212.223 247.709 212.223L246.6 216.916C250.184 215.21 253 212.565 253 212.565L256.413 216.148C257.523 214.612 259.827 212.565 259.827 212.565C259.827 212.565 262.643 215.551 266.995 215.978V215.892Z" fill="white" stroke="#C09300" stroke-width="1.024"/>
<path d="M253.171 194.218C253.171 194.218 251.293 208.213 247.709 212.138M256.243 193.791C256.243 193.791 255.389 208.042 253 212.565M258.888 194.389C258.888 194.389 258.888 209.919 259.741 212.565M262.301 195.157C262.301 195.157 262.984 208.213 266.226 212.906" stroke="#C09300" stroke-width="1.10933"/>
<path d="M249.672 187.391C249.596 186.402 249.304 185.441 248.819 184.575C247.112 182.015 244.637 179.967 241.821 182.271C241.821 182.271 242.76 179.285 244.893 179.199C246.429 179.114 250.099 180.394 253.341 185.855C253.341 185.855 250.952 185.343 250.355 185.855C249.331 186.709 249.757 187.391 249.757 187.391H249.672Z" fill="#C09300" stroke="#C09300" stroke-width="0.255999"/>
<path d="M241.48 178.602C241.736 177.749 242.077 177.066 242.589 176.81C244.296 175.615 248.051 175.957 251.891 176.981C251.891 176.981 251.549 175.359 253.597 175.445C257.181 175.615 262.643 177.151 264.349 178.858C264.896 179.458 265.329 180.152 265.629 180.906C264.776 179.711 262.387 179.797 261.789 179.882C260.936 179.967 260.339 179.882 259.144 180.223C258.547 180.394 257.693 180.565 257.181 180.906C256.84 181.247 256.499 182.271 255.987 182.271C255.133 182.271 255.133 182.101 254.877 181.845C254.621 181.418 254.451 180.906 254.109 180.991C253.256 181.077 251.72 180.394 249.843 178.858C247.88 177.322 247.112 176.981 244.723 177.151C242.163 177.322 241.48 178.773 241.48 178.773V178.602Z" fill="#C09300" stroke="#C09300" stroke-width="0.255999"/>
<path d="M255.475 180.821C256.04 180.821 256.499 180.362 256.499 179.797C256.499 179.231 256.04 178.773 255.475 178.773C254.909 178.773 254.451 179.231 254.451 179.797C254.451 180.362 254.909 180.821 255.475 180.821Z" fill="white"/>
</g>
<defs>
<clipPath id="clip0_103_4317">
<rect width="512" height="512" fill="white" transform="translate(0.5)"/>
</clipPath>
</defs>
</svg>
