<svg width="513" height="512" viewBox="0 0 513 512" fill="none" xmlns="http://www.w3.org/2000/svg">
<g clip-path="url(#clip0_103_4353)">
<path d="M0.5 0H512.5V256H0.5V0Z" fill="black"/>
<path d="M0.5 256H512.5V512H0.5V256Z" fill="#007A3D"/>
<path d="M0.5 149.3H512.5V362.6H0.5V149.3Z" fill="white"/>
<path d="M0.5 0L256.5 256L0.5 512V0Z" fill="#C4111B"/>
<path d="M390.5 326.034C429.178 326.034 460.534 294.679 460.534 256C460.534 217.321 429.178 185.966 390.5 185.966C351.821 185.966 320.466 217.321 320.466 256C320.466 294.679 351.821 326.034 390.5 326.034Z" fill="#C4111B"/>
<path d="M416.75 326.034C455.428 326.034 486.784 294.679 486.784 256C486.784 217.321 455.428 185.966 416.75 185.966C378.071 185.966 346.716 217.321 346.716 256C346.716 294.679 378.071 326.034 416.75 326.034Z" fill="white"/>
<path d="M371.735 298.348L401.471 277.02L431.208 298.759L420.134 263.69L449.87 242.157L413.161 241.952L401.882 207.089L390.295 241.849L353.688 241.747L383.117 263.485L371.735 298.348Z" fill="#C4111B"/>
</g>
<defs>
<clipPath id="clip0_103_4353">
<rect width="512" height="512" fill="white" transform="translate(0.5)"/>
</clipPath>
</defs>
</svg>
