<svg width="513" height="512" viewBox="0 0 513 512" fill="none" xmlns="http://www.w3.org/2000/svg">
<g clip-path="url(#clip0_103_4362)">
<mask id="mask0_103_4362" style="mask-type:luminance" maskUnits="userSpaceOnUse" x="0" y="0" width="513" height="512">
<path d="M0.5 0H512.5V512H0.5V0Z" fill="white"/>
</mask>
<g mask="url(#mask0_103_4362)">
<path fill-rule="evenodd" clip-rule="evenodd" d="M-47.5 0H544V512H-47.5V0Z" fill="#BE0027"/>
<path fill-rule="evenodd" clip-rule="evenodd" d="M-47.5 512L544 511.7V256L-47.5 512Z" fill="#B4D7F4"/>
<path fill-rule="evenodd" clip-rule="evenodd" d="M-47.5 0L544 0.3V256L-47.5 0Z" fill="#239E46"/>
<path fill-rule="evenodd" clip-rule="evenodd" d="M149.3 351.4C140.6 353.8 135.6 360.6 135.7 367L178.5 366.8C178.9 359.9 173.3 353.6 164.7 351.1C206.7 350.3 243.1 334.5 249.7 324.5C243.2 321.6 235.6 326.2 230.2 325.1C243 319.2 281.4 294.3 275.2 267.7C270.144 280.349 261.081 290.992 249.4 298C263.7 276.2 283.4 253.5 266.4 236C267.2 246.2 259.8 257.4 256.6 258.2C264.9 235.2 272.9 206.2 254.8 187.2C257.2 194.1 256.3 213.5 253 214.4C252 198.7 249.3 165.8 232.8 166.3C238.1 170.9 240.3 183.7 240.5 196.5C236.7 187.7 232.5 181.1 223.3 174.5C215.155 160.396 203.558 148.593 189.6 140.2C189.848 146.094 191.536 151.837 194.517 156.928C197.498 162.018 201.681 166.3 206.7 169.4C199.2 168.9 191.7 154.7 183.7 154.3C177.3 154 172.3 160.1 161.8 156.6C163 160 167.8 161.6 168.8 164.1C166.7 165.6 161.3 163.9 156.9 161.6C163 169.8 172.4 174.6 180.4 173C189.9 171.2 200.1 172.2 209.8 177.7C203.746 178.968 197.514 179.137 191.4 178.2C197.1 183.9 200.8 187.7 210.6 187.6C219.4 187.6 224 183 226.2 185.8C231.7 192.3 235.4 198.8 240 206.4C229.8 207.6 232.9 195 221.6 188.5C215.3 201.7 228.9 217.2 238.2 223.7C238.2 233.6 239.7 241.7 243.9 249.3C246.7 254.6 250.4 260 249 272C243.5 268 238 254.3 240 243.5C233 245.4 230.4 257.5 233.6 263.7C236.1 268.4 237.7 277.4 234.9 281.4C232.1 285.1 231.9 284.7 231.9 292.7C231.9 297.5 229.3 303.2 224.9 307.1C225.9 303.8 226.9 297.9 225.9 294.3C222.4 300.2 213.8 306.2 211.1 312.5C208.4 318.8 207.7 329.7 194.8 332.2C178.1 335.5 172.3 338.4 161.6 342.8C160.4 334.7 164 317.7 170.8 318.7C177.5 319.9 197.6 311.7 190.4 294.7C189 300.1 184.2 305.3 179.1 305.6C184.6 298.4 194.5 290.9 189.7 278.9C186.8 284.996 182.176 290.107 176.4 293.6C183.3 280.5 177.2 276.6 169.1 287.3C166.1 291.5 164.1 299.9 162.2 310.5C159 301.9 159.2 290.5 155.4 281.3C151.4 271.3 160.7 268.6 165 269.4C175.6 272.3 193.4 272.3 192 254.7C187.5 260.7 179.4 262.5 170.7 260.4C180.5 253.2 188.2 239.9 177.3 232.9C176.802 237.028 175.291 240.969 172.901 244.372C170.51 247.774 167.315 250.532 163.6 252.4C161.834 245.829 161.73 238.921 163.3 232.3C159 236.8 155.9 246.1 153.4 256.8C153.322 248.747 154.434 240.728 156.7 233C158.9 224.7 164.5 230.1 173 230.7C181.2 231.2 192.5 226.7 190.4 215.5C187.6 219.9 181.8 221.6 175.9 221.2C183 216.9 195.3 209.2 188.6 197.6C185.7 202 184.8 205.8 176.6 207.2C178.7 202.2 179.1 195.2 185.5 192.5C174.1 190.2 167.6 197.7 164.3 209.3C162.9 201.3 161.3 198.3 161 192.3C167.2 185.5 167.8 172.1 154.5 169.2C153.7 176 154 177.7 155.5 183.2C149.2 179.6 140.5 177.5 134.5 182.8C138.5 187.1 144.7 190.8 154.2 186.2C151.9 193.5 146.1 192.2 138.1 189.4C143 198.6 149.1 200.3 156 199.2C159.5 208.6 159.7 215.7 149.3 229.4C149.7 220.9 149.1 214.6 142.3 207.7C136.6 202 131.9 208 140.9 220.6C134.314 215.372 129.61 208.14 127.5 200C125.7 210.1 127.3 222 132.9 228.8C130.2 231.6 127.2 228.5 122.8 221.6C124.4 243.8 133.9 248 146.7 243.1C147 255.3 147 266.6 147.7 281.3C142.195 272.709 134.633 265.629 125.7 260.7C124 266.7 130.2 274.4 133.7 278.7C128.4 277.7 117 269 117 269C115.8 278.9 128.6 288 136.9 292.1C127.2 291.7 122.9 288.1 116.6 282.1C116.7 309.5 146.3 304.7 151.9 300.5L154.4 343.1C146 341.7 146.7 339.1 139.5 338.5C119.6 337.7 103.8 314.6 98.5999 297.6C97.0999 300.4 98.3 303.3 96.9 306.8C93.7 298.4 89.5999 287.7 84 282.7C85.4 287.5 85.5999 292.5 85.0999 301.5C83.1999 295.6 81.4 293.8 81.3 286.9C81.4 281.6 86.3999 277.7 86.1999 270.2C85.9999 264.8 80.9999 253 80.1999 243.8C77.7999 253.3 76.2999 263.2 72.5999 269C74.4999 259 73.9 252 77 245.3C80.5999 238.1 83.5999 231.8 81.1999 224.6C78.8999 227.4 79.7 229.9 74 236.6C72.7 229.3 81.4 217.6 89.8 212.8C95.8 209.8 103.2 198.5 98.4 190.8C92.8 194.8 90.3 200.3 82.4 209.5C88 187.5 102.6 181.8 120.1 181.7C124.1 181.7 131.8 180.3 134.1 175.2C129.1 177.1 123.2 177.3 118.1 176.2C121.8 170.8 129.8 171.5 137.2 171.4C143 171.4 152.1 170.6 155.8 162.4C147.753 165.472 138.955 165.996 130.6 163.9C141.7 158.1 159.1 157.5 168 149.9C157.8 142.4 132.4 151.8 116.4 162.8C120.9 158.7 128 151.4 131.9 145.5C123.1 141.3 100.9 165.9 93.3 180.5C86.1 184.5 83.2 191 80.3 195.5C84.3 182.4 84.6 172.9 87.8 162.2C63 170.7 73.3 216.7 67.9 227.7C68.5 215.5 68 199.9 63 191.9C55.4 197.7 54.7 232.1 62 260.8C59.3 253.1 54.4 245.9 52.9 236.6C41.5 257.3 59.5 281.6 74.5 300.9C62.54 293.477 52.3649 283.507 44.7 271.7C46.7 308.7 85.4 316.4 91.4 325.5C83.2 321.7 67.7 314.2 61 322.1C70.2809 323.826 79.1843 327.178 87.3 332C97.3 344.5 116.3 350 149.3 351.4Z" fill="#F3E295"/>
</g>
</g>
<defs>
<clipPath id="clip0_103_4362">
<rect width="512" height="512" fill="white" transform="translate(0.5)"/>
</clipPath>
</defs>
</svg>
