<svg width="513" height="512" viewBox="0 0 513 512" fill="none" xmlns="http://www.w3.org/2000/svg">
<g clip-path="url(#clip0_103_4920)">
<path fill-rule="evenodd" clip-rule="evenodd" d="M0.5 -0.0999985H512.5V511.9H0.5V-0.0999985Z" fill="white"/>
<path d="M512.5 437.4L73.9 0H0.5V73L440.8 512H512.5V437.5" fill="#0099CC"/>
<path d="M252.5 375.8C184.3 375.8 186.5 311.4 186.5 311.4V212.4H318.8V311.4C318.8 311.4 321.1 375.8 252.6 375.8" fill="#005BBF"/>
<path d="M252.566 375.767C184.299 375.767 186.46 311.427 186.46 311.427V212.47H318.784V311.427C318.784 311.427 321.06 375.767 252.566 375.767Z" stroke="black" stroke-width="1.13826"/>
<path d="M252 150.3C252 150.3 237.9 143.5 224.6 153.5C224.6 153.5 200.6 150.1 198.7 173.1C198.7 174 198.5 175.7 199 176.3C199.4 176.7 199.9 177.6 199.9 178.3C199.9 179 200.2 179.3 200.5 179.6C200.5 179.9 200.9 180.4 201 181.5C201 182.7 200.8 183.3 202 184.5C203.2 185.7 203.2 189.2 203.2 190.3C203.2 191.3 203.9 194 204.3 194.6C204.9 195.2 205.8 196.6 205.8 197.9C205.8 199 206.3 202.4 206 203.2C205.8 204.2 207.4 205.2 208.8 205.6C210.1 206.1 227 211.6 251.5 211.1C276.1 210.8 285 209.4 295.2 205.8C295.754 205.619 296.226 205.249 296.537 204.756C296.847 204.263 296.976 203.678 296.9 203.1C296.7 202.4 296.9 200.1 297.3 199.6C297.7 199 300.7 194.4 300 193.6C299.4 192.6 299.4 190.8 300 190.2C300.6 189.4 302.4 185.9 302.7 184.5C303.1 183.1 303.2 181.4 303.9 180.9C304.4 180.5 304.7 178.8 304.8 178.4C305.108 177.692 305.59 177.073 306.2 176.6C306.2 176.6 307.2 170.8 306.6 167.9C305.8 165.1 301.5 152.8 284.1 155.4C284.1 155.4 271.1 145.5 252 150.3Z" fill="#D81126"/>
<path d="M251.997 150.294C251.997 150.294 237.888 143.461 224.576 153.482C224.576 153.482 200.569 150.066 198.749 173.069C198.749 173.98 198.521 175.688 198.976 176.257C199.431 176.713 199.886 177.624 199.886 178.307C199.886 178.991 200.228 179.332 200.455 179.56C200.455 179.901 200.91 180.357 201.024 181.496C201.024 182.748 200.797 183.318 202.048 184.57C203.186 185.709 203.186 189.239 203.186 190.264C203.186 191.289 203.869 194.022 204.324 194.591C204.893 195.161 205.803 196.641 205.803 197.894C205.803 199.032 206.258 202.449 206.03 203.246C205.803 204.157 207.396 205.182 208.761 205.637C210.126 206.093 226.965 211.559 251.542 211.103C276.118 210.762 284.992 209.395 295.232 205.751C295.771 205.573 296.234 205.217 296.544 204.741C296.854 204.265 296.993 203.698 296.939 203.132C296.711 202.449 296.939 200.171 297.28 199.602C297.735 199.032 300.694 194.364 300.011 193.566C299.442 192.655 299.442 190.833 300.011 190.15C300.58 189.353 302.4 185.937 302.742 184.456C303.083 183.09 303.197 181.382 303.879 180.926C304.448 180.471 304.676 178.763 304.79 178.421C305.083 177.708 305.553 177.081 306.155 176.599C306.155 176.599 307.293 170.791 306.61 167.945C305.814 165.098 301.49 152.799 284.082 155.418C284.082 155.418 271.111 145.511 251.997 150.294Z" stroke="black" stroke-width="1.7074"/>
<path d="M299.2 193.1C245.7 176.1 204.3 192.3 204.3 192.3C204.3 192.3 204.8 194.1 205.3 194.7C205.8 195.3 206.3 196.7 206.3 197.7V200.9C206.3 201.7 205.9 205.1 208.9 204.9C208.9 204.9 246.2 190.4 294.7 205.8C294.7 205.8 296 204.6 296 202.9C295.985 201.287 296.399 199.7 297.2 198.3C297.7 197.4 299.2 194.5 299.2 193.1Z" fill="#BCAC0B"/>
<path d="M249.6 282.5H226.3C226.3 282.5 224 303.3 242 309.7V311.5H245.7V314C245.7 314 239.1 320 244.9 326.8V328.8H245.9V332.3H246.9V337.6C246.9 337.6 246.1 357 226.9 366.3V367.5H277.9V366.3C272.401 363.611 267.679 359.564 264.18 354.543C260.68 349.521 258.519 343.69 257.9 337.6V332.3H259.1V328.9H260V326.8C265.7 320 259 314 259 314V311.5H263V309.7C280.8 303.3 278.5 282.5 278.5 282.5H249.6Z" fill="#C8B100" fill-opacity="0.9"/>
<path d="M249.607 282.503H226.283C226.283 282.503 224.007 303.342 241.984 309.719V311.541H245.739V314.046C245.739 314.046 239.14 319.968 244.942 326.8V328.85H245.853V332.266H246.99V337.618C246.99 337.618 246.08 356.977 226.965 366.315V367.454H277.824V366.315C258.823 357.091 257.913 337.618 257.913 337.618V332.266H259.051V328.85H259.961V326.8C265.65 319.968 259.051 314.046 259.051 314.046V311.541H262.919V309.719C280.782 303.342 278.507 282.503 278.507 282.503H249.607Z" stroke="black" stroke-width="1.13826"/>
<path d="M241.188 309.377H263.602M241.984 311.086H262.919M245.853 313.932H258.937M244.942 327.028H259.847M245.739 328.622H258.937M245.739 331.811H258.823M237.774 358.23H266.788M229.582 364.948H275.094M227.876 365.973H276.8" stroke="black" stroke-width="0.341479"/>
<path d="M252.5 281.4C256.425 281.4 260.19 279.83 262.965 277.036C265.741 274.242 267.3 270.452 267.3 266.5C267.3 262.548 265.741 258.758 262.965 255.964C260.19 253.17 256.425 251.6 252.5 251.6C248.562 251.6 244.784 253.165 241.999 255.949C239.215 258.734 237.65 262.512 237.65 266.45C237.65 270.388 239.215 274.166 241.999 276.951C244.784 279.735 248.562 281.3 252.5 281.3" fill="#CCCCCC"/>
<path d="M252.566 281.364C256.503 281.364 260.28 279.798 263.065 277.012C265.849 274.225 267.414 270.445 267.414 266.503C267.414 262.562 265.849 258.782 263.065 255.995C260.28 253.208 256.503 251.643 252.566 251.643C248.643 251.643 244.881 253.202 242.107 255.979C239.333 258.755 237.774 262.52 237.774 266.447C237.774 270.373 239.333 274.138 242.107 276.914C244.881 279.691 248.643 281.25 252.566 281.25V281.364Z" stroke="black" stroke-width="1.13826"/>
<path d="M218.1 237.7H208.9V228.4H200.7V237.7H191.4V245.9H200.7V255.1H208.9V245.9H217.9V237.7" fill="#CCCCCC"/>
<path d="M218.091 237.75H208.875V228.412H200.683V237.75H191.353V245.949H200.683V255.059H208.875V245.949H217.977V237.75" stroke="black" stroke-width="1.13826"/>
<path d="M314.2 237.7H305V228.4H296.8V237.7H287.5V245.9H296.8V255.1H305V245.9H314.2V237.7Z" fill="#CCCCCC"/>
<path d="M314.233 237.75H305.017V228.412H296.825V237.75H287.495V245.949H296.825V255.059H305.017V245.949H314.233V237.75Z" stroke="black" stroke-width="1.13826"/>
<path d="M265.5 226H256.2V217H248V226H239V234.2H248V243.6H256.2V234.2H265.5V226Z" fill="#CCCCCC"/>
<path d="M265.536 226.021H256.206V216.911H248.014V226.021H238.912V234.22H248.014V243.558H256.206V234.22H265.536V226.021Z" stroke="black" stroke-width="1.13826"/>
<path d="M218.1 277.8H208.9V268.5H200.7V277.8H191.4V286H200.7V295.1H208.9V286.1H217.9V277.8" fill="#CCCCCC"/>
<path d="M218.091 277.834H208.875V268.496H200.683V277.834H191.353V286.033H200.683V295.143H208.875V286.033H217.977V277.834" stroke="black" stroke-width="1.13826"/>
<path d="M314.2 277.8H305V268.5H296.8V277.8H287.5V286H296.8V295.1H305V286.1H314.2V277.8Z" fill="#CCCCCC"/>
<path d="M314.233 277.834H305.017V268.496H296.825V277.834H287.495V286.033H296.825V295.143H305.017V286.033H314.233V277.834Z" stroke="black" stroke-width="1.13826"/>
<path d="M218.1 318.3H208.9V309H200.7V318.3H191.4V326.5H200.7V335.7H208.9V326.6H217.9V318.3" fill="#CCCCCC"/>
<path d="M218.091 318.26H208.875V309.036H200.683V318.26H191.353V326.459H200.683V335.683H208.875V326.573H217.977V318.26" stroke="black" stroke-width="1.13826"/>
<path d="M314.2 318.3H305V309H296.8V318.3H287.5V326.5H296.8V335.7H305V326.6H314.2V318.3Z" fill="#CCCCCC"/>
<path d="M314.233 318.26H305.017V309.036H296.825V318.26H287.495V326.459H296.825V335.683H305.017V326.573H314.233V318.26Z" stroke="black" stroke-width="1.13826"/>
<path d="M252.5 130.5C253.755 130.633 255.023 130.5 256.224 130.111C257.424 129.722 258.529 129.084 259.467 128.241C260.405 127.397 261.155 126.365 261.669 125.212C262.182 124.06 262.447 122.812 262.447 121.55C262.447 120.288 262.182 119.04 261.669 117.888C261.155 116.735 260.405 115.703 259.467 114.859C258.529 114.016 257.424 113.378 256.224 112.989C255.023 112.6 253.755 112.467 252.5 112.6C250.289 112.834 248.244 113.878 246.757 115.53C245.27 117.183 244.447 119.327 244.447 121.55C244.447 123.773 245.27 125.917 246.757 127.57C248.244 129.222 250.289 130.266 252.5 130.5Z" fill="#005BBF"/>
<path d="M252.452 130.48C254.821 130.48 257.092 129.538 258.767 127.862C260.442 126.185 261.383 123.911 261.383 121.541C261.383 119.17 260.442 116.896 258.767 115.22C257.092 113.543 254.821 112.601 252.452 112.601C250.083 112.601 247.811 113.543 246.136 115.22C244.461 116.896 243.52 119.17 243.52 121.541C243.52 123.911 244.461 126.185 246.136 127.862C247.811 129.538 250.083 130.48 252.452 130.48Z" stroke="black" stroke-width="1.13826"/>
<path d="M260.8 120H253.5V108.2H256.3V105.9H253.5V103H251.2V105.8H248.4V108.2H251.1V120H244.3V121.6H260.8V120Z" fill="#FFCC00"/>
<path d="M260.758 120.003H253.476V108.16H256.32V105.883H253.476V103.036H251.2V105.769H248.356V108.16H251.086V120.003H244.26V121.598H260.758V120.003Z" fill="#BCAC0B" stroke="black" stroke-width="0.569132"/>
<path d="M216.8 141C216.8 141 223.4 140.4 227.2 141.9C227.2 141.9 222.9 146.9 223.8 153.4C223.981 155.796 224.698 158.12 225.9 160.2C226.9 161.7 227.9 165.1 227.3 167.7H228.6C228.6 167.7 229.8 162.3 227.8 159.3C226.555 157.643 225.786 155.678 225.575 153.617C225.363 151.555 225.718 149.475 226.6 147.6C228.8 143.2 231.9 141.6 231.9 141.6C235.3 142.9 242.8 141.6 244.9 140C246.9 138.6 248 136.4 244.1 136.3C240.1 136.1 233.6 136.2 229.1 139.6C229.1 139.6 226.6 136.9 214.7 138.1C202.7 139.5 194.2 144.6 191.5 155.3C190.1 160.8 195.2 172.3 199.9 175C199.9 175 199.8 173.2 200.2 171.8C200.2 171.8 192.2 162.8 194.5 154.5C197 146.3 206.6 140.8 216.8 141.1" fill="#FFCC00"/>
<path d="M216.839 141.07C216.839 141.07 223.438 140.387 227.193 141.867C227.193 141.867 222.869 146.878 223.78 153.369C224.235 156.785 224.918 158.493 225.942 160.201C226.852 161.681 227.876 165.098 227.307 167.717H228.558C228.558 167.717 229.81 162.251 227.762 159.29C226.522 157.625 225.76 155.652 225.559 153.584C225.359 151.517 225.727 149.434 226.624 147.561C228.786 143.234 231.858 141.526 231.858 141.526C235.271 142.892 242.781 141.526 244.829 140.045C246.99 138.565 248.014 136.401 244.146 136.287C240.164 136.06 233.565 136.173 229.013 139.59C229.013 139.59 226.624 136.857 214.677 138.109C202.731 139.476 194.197 144.6 191.467 155.305C190.101 160.771 195.221 172.272 199.886 175.005C199.886 175.005 199.773 173.183 200.228 171.816C200.228 171.816 192.263 162.82 194.539 154.507C197.042 146.308 206.599 140.842 216.839 141.07Z" fill="#BCAC0B" stroke="black" stroke-width="0.796785"/>
<path d="M239.3 139.5C241.3 139.2 243 138.9 242.9 138.7C242.9 138.3 241.2 138.3 239.1 138.5C237.1 138.5 235.5 139 235.5 139.2C235.5 139.6 237.2 139.6 239.3 139.5Z" fill="white"/>
<path d="M231.744 141.412C234.02 139.134 239.026 137.768 241.87 138.337C244.601 139.02 241.302 139.362 240.391 139.476C239.481 139.476 237.661 139.817 234.93 139.476" stroke="black" stroke-width="0.796785"/>
<path d="M288 141.9C288 141.9 281.5 141.1 277.6 142.6C279.586 145.165 280.777 148.256 281.026 151.49C281.275 154.725 280.571 157.961 279 160.8C278 162.5 277 165.8 277.5 168.4H276.3C276.3 168.4 275 163 277.1 160C278.294 158.335 279.017 156.379 279.193 154.337C279.369 152.296 278.991 150.245 278.1 148.4C277.054 145.902 275.32 143.751 273.1 142.2C269.5 143.7 262.1 142.2 260 140.7C258 139.2 256.8 137.2 260.8 137C264.6 136.7 271.3 136.9 275.8 140.4C275.8 140.4 278.2 137.5 290.2 138.9C302.1 140.2 310.7 145.3 313.3 155.9C314.7 161.5 309.7 172.9 305 175.7C305 175.7 305 173.9 304.7 172.5C304.7 172.5 312.7 163.6 310.3 155.3C307.9 147 298.3 141.6 288 141.9Z" fill="#FFCC00"/>
<path d="M287.951 141.867C287.951 141.867 281.465 141.07 277.597 142.55C279.577 145.122 280.762 148.218 281.004 151.456C281.247 154.694 280.537 157.932 278.962 160.77C277.938 162.479 276.914 165.781 277.483 168.4H276.345C276.345 168.4 274.98 163.048 277.142 159.973C278.342 158.309 279.071 156.352 279.252 154.307C279.432 152.262 279.057 150.207 278.166 148.358C277.076 145.864 275.301 143.731 273.046 142.209C269.518 143.689 262.009 142.209 259.961 140.729C257.913 139.248 256.775 137.198 260.758 136.971C264.626 136.743 271.339 136.857 275.89 140.387C275.89 140.387 278.166 137.54 290.226 138.906C302.059 140.159 310.706 145.283 313.323 155.988C314.688 161.454 309.682 172.955 305.017 175.688C305.017 175.688 305.017 173.866 304.676 172.5C304.676 172.5 312.64 163.617 310.251 155.305C307.862 146.992 298.304 141.64 287.951 141.867Z" fill="#BCAC0B" stroke="black" stroke-width="0.796785"/>
<path d="M265.5 140.2C263.5 140 261.9 139.7 261.9 139.4C261.9 139.1 263.6 139 265.7 139.1C267.7 139.4 269.4 139.7 269.4 139.9C269.4 140.3 267.7 140.4 265.5 140.2Z" fill="white"/>
<path d="M273.046 142.095C270.77 139.931 265.764 138.451 263.033 139.134C260.189 139.704 263.488 140.045 264.398 140.159C265.422 140.159 267.243 140.615 269.974 140.159" stroke="black" stroke-width="0.796785"/>
<path d="M246.3 134.5V159.9C246.1 162.4 249.3 165.9 251.8 166.9C251.8 166.9 257.5 165.1 257.8 159.9V133H255.8V156.2C255.8 158.5 254.3 162.8 252.1 163.5C252.1 163.5 248.1 162.8 247.8 156.2V133.7L246.3 134.4" fill="#FFCC00"/>
<path d="M246.308 134.465V159.86C246.08 162.365 249.38 165.895 251.769 166.92C251.769 166.92 257.458 165.098 257.799 159.86V133.099H255.865V156.329C255.865 158.607 254.272 162.934 252.11 163.617C252.11 163.617 248.014 162.934 247.787 156.329V133.782L246.308 134.465Z" fill="#BCAC0B" stroke="black" stroke-width="0.796785"/>
<path d="M190.2 169.2C190.996 169.2 191.759 168.884 192.321 168.321C192.884 167.759 193.2 166.996 193.2 166.2C193.2 165.404 192.884 164.641 192.321 164.079C191.759 163.516 190.996 163.2 190.2 163.2C189.404 163.2 188.641 163.516 188.079 164.079C187.516 164.641 187.2 165.404 187.2 166.2C187.2 166.996 187.516 167.759 188.079 168.321C188.641 168.884 189.404 169.2 190.2 169.2Z" fill="white"/>
<path d="M190.215 169.197C190.66 169.284 191.119 169.271 191.558 169.16C191.998 169.049 192.407 168.841 192.757 168.553C193.107 168.264 193.388 167.902 193.582 167.492C193.775 167.081 193.876 166.633 193.876 166.18C193.876 165.726 193.775 165.278 193.582 164.867C193.388 164.457 193.107 164.095 192.757 163.806C192.407 163.518 191.998 163.311 191.558 163.199C191.119 163.088 190.66 163.075 190.215 163.162C189.516 163.298 188.886 163.674 188.432 164.225C187.979 164.775 187.732 165.466 187.732 166.18C187.732 166.893 187.979 167.584 188.432 168.134C188.886 168.685 189.516 169.061 190.215 169.197Z" stroke="black" stroke-width="1.13826"/>
<path d="M188.3 162.3C189.096 162.3 189.859 161.984 190.421 161.421C190.984 160.859 191.3 160.096 191.3 159.3C191.3 158.504 190.984 157.741 190.421 157.179C189.859 156.616 189.096 156.3 188.3 156.3C187.504 156.3 186.741 156.616 186.179 157.179C185.616 157.741 185.3 158.504 185.3 159.3C185.3 160.096 185.616 160.859 186.179 161.421C186.741 161.984 187.504 162.3 188.3 162.3Z" fill="white"/>
<path d="M188.281 162.251C188.726 162.338 189.184 162.325 189.624 162.214C190.063 162.102 190.473 161.895 190.823 161.606C191.172 161.318 191.454 160.956 191.648 160.545C191.841 160.135 191.941 159.687 191.941 159.233C191.941 158.779 191.841 158.331 191.648 157.921C191.454 157.511 191.172 157.148 190.823 156.86C190.473 156.572 190.063 156.364 189.624 156.253C189.184 156.141 188.726 156.129 188.281 156.215C187.582 156.352 186.951 156.728 186.498 157.278C186.045 157.829 185.797 158.52 185.797 159.233C185.797 159.946 186.045 160.637 186.498 161.188C186.951 161.739 187.582 162.114 188.281 162.251Z" stroke="black" stroke-width="1.13826"/>
<path d="M189.3 153.8C190.096 153.8 190.859 153.484 191.421 152.921C191.984 152.359 192.3 151.596 192.3 150.8C192.3 150.004 191.984 149.241 191.421 148.679C190.859 148.116 190.096 147.8 189.3 147.8C188.504 147.8 187.741 148.116 187.179 148.679C186.616 149.241 186.3 150.004 186.3 150.8C186.3 151.596 186.616 152.359 187.179 152.921C187.741 153.484 188.504 153.8 189.3 153.8Z" fill="white"/>
<path d="M189.305 153.824C189.75 153.911 190.208 153.898 190.648 153.787C191.087 153.675 191.497 153.468 191.847 153.18C192.196 152.891 192.478 152.529 192.672 152.119C192.865 151.708 192.965 151.26 192.965 150.806C192.965 150.353 192.865 149.905 192.672 149.494C192.478 149.084 192.196 148.722 191.847 148.433C191.497 148.145 191.087 147.937 190.648 147.826C190.208 147.715 189.75 147.702 189.305 147.789C188.606 147.925 187.975 148.301 187.522 148.852C187.069 149.402 186.821 150.093 186.821 150.806C186.821 151.52 187.069 152.211 187.522 152.761C187.975 153.312 188.606 153.688 189.305 153.824Z" stroke="black" stroke-width="1.13826"/>
<path d="M194 146.8C194.796 146.8 195.559 146.484 196.121 145.921C196.684 145.359 197 144.596 197 143.8C197 143.004 196.684 142.241 196.121 141.679C195.559 141.116 194.796 140.8 194 140.8C193.204 140.8 192.441 141.116 191.879 141.679C191.316 142.241 191 143.004 191 143.8C191 144.596 191.316 145.359 191.879 145.921C192.441 146.484 193.204 146.8 194 146.8Z" fill="white"/>
<path d="M193.97 146.764C194.415 146.851 194.873 146.838 195.313 146.727C195.752 146.615 196.162 146.408 196.511 146.119C196.861 145.831 197.143 145.469 197.337 145.058C197.53 144.648 197.63 144.2 197.63 143.746C197.63 143.292 197.53 142.844 197.337 142.434C197.143 142.024 196.861 141.661 196.511 141.373C196.162 141.085 195.752 140.877 195.313 140.766C194.873 140.654 194.415 140.642 193.97 140.729C193.27 140.865 192.64 141.241 192.187 141.791C191.734 142.342 191.486 143.033 191.486 143.746C191.486 144.459 191.734 145.15 192.187 145.701C192.64 146.252 193.27 146.627 193.97 146.764Z" stroke="black" stroke-width="1.13826"/>
<path d="M199.5 141.6C200.296 141.6 201.059 141.284 201.621 140.721C202.184 140.159 202.5 139.396 202.5 138.6C202.5 137.804 202.184 137.041 201.621 136.479C201.059 135.916 200.296 135.6 199.5 135.6C198.704 135.6 197.941 135.916 197.379 136.479C196.816 137.041 196.5 137.804 196.5 138.6C196.5 139.396 196.816 140.159 197.379 140.721C197.941 141.284 198.704 141.6 199.5 141.6Z" fill="white"/>
<path d="M199.545 141.639C199.99 141.726 200.449 141.714 200.888 141.602C201.327 141.491 201.737 141.283 202.087 140.995C202.436 140.707 202.718 140.344 202.912 139.934C203.105 139.524 203.205 139.075 203.205 138.622C203.205 138.168 203.105 137.72 202.912 137.31C202.718 136.899 202.436 136.537 202.087 136.249C201.737 135.96 201.327 135.753 200.888 135.641C200.449 135.53 199.99 135.517 199.545 135.604C198.846 135.741 198.215 136.116 197.762 136.667C197.309 137.218 197.061 137.909 197.061 138.622C197.061 139.335 197.309 140.026 197.762 140.577C198.215 141.127 198.846 141.503 199.545 141.639Z" stroke="black" stroke-width="1.13826"/>
<path d="M206.8 138.8C207.596 138.8 208.359 138.484 208.921 137.921C209.484 137.359 209.8 136.596 209.8 135.8C209.8 135.004 209.484 134.241 208.921 133.679C208.359 133.116 207.596 132.8 206.8 132.8C206.004 132.8 205.241 133.116 204.679 133.679C204.116 134.241 203.8 135.004 203.8 135.8C203.8 136.596 204.116 137.359 204.679 137.921C205.241 138.484 206.004 138.8 206.8 138.8Z" fill="white"/>
<path d="M206.827 138.793C207.272 138.88 207.73 138.867 208.17 138.755C208.609 138.644 209.019 138.437 209.368 138.148C209.718 137.86 210 137.497 210.193 137.087C210.387 136.677 210.487 136.229 210.487 135.775C210.487 135.321 210.387 134.873 210.193 134.463C210 134.053 209.718 133.69 209.368 133.402C209.019 133.113 208.609 132.906 208.17 132.794C207.73 132.683 207.272 132.67 206.827 132.757C206.127 132.894 205.497 133.27 205.044 133.82C204.591 134.371 204.343 135.062 204.343 135.775C204.343 136.488 204.591 137.179 205.044 137.73C205.497 138.28 206.127 138.656 206.827 138.793Z" stroke="black" stroke-width="1.13826"/>
<path d="M214.3 137.5C215.109 137.5 215.885 137.179 216.457 136.607C217.029 136.035 217.35 135.259 217.35 134.45C217.35 133.641 217.029 132.865 216.457 132.293C215.885 131.721 215.109 131.4 214.3 131.4C213.504 131.4 212.741 131.716 212.179 132.279C211.616 132.841 211.3 133.604 211.3 134.4C211.3 135.196 211.616 135.959 212.179 136.521C212.741 137.084 213.504 137.4 214.3 137.4" fill="white"/>
<path d="M214.336 137.54C215.151 137.54 215.932 137.216 216.508 136.639C217.084 136.063 217.408 135.281 217.408 134.465C217.408 133.65 217.084 132.868 216.508 132.291C215.932 131.715 215.151 131.391 214.336 131.391C213.637 131.527 213.007 131.903 212.553 132.454C212.1 133.004 211.853 133.695 211.853 134.408C211.853 135.122 212.1 135.813 212.553 136.363C213.007 136.914 213.637 137.289 214.336 137.426V137.54Z" stroke="black" stroke-width="1.13826"/>
<path d="M221.5 137C222.296 137 223.059 136.684 223.621 136.121C224.184 135.559 224.5 134.796 224.5 134C224.5 133.204 224.184 132.441 223.621 131.879C223.059 131.316 222.296 131 221.5 131C220.704 131 219.941 131.316 219.379 131.879C218.816 132.441 218.5 133.204 218.5 134C218.5 134.796 218.816 135.559 219.379 136.121C219.941 136.684 220.704 137 221.5 137Z" fill="white"/>
<path d="M221.504 137.085C222.319 137.085 223.1 136.761 223.676 136.184C224.252 135.607 224.576 134.825 224.576 134.01C224.576 133.194 224.252 132.412 223.676 131.836C223.1 131.259 222.319 130.935 221.504 130.935C220.689 130.935 219.908 131.259 219.332 131.836C218.756 132.412 218.432 133.194 218.432 134.01C218.432 134.825 218.756 135.607 219.332 136.184C219.908 136.761 220.689 137.085 221.504 137.085Z" stroke="black" stroke-width="1.13826"/>
<path d="M228 137.5C228.796 137.5 229.559 137.184 230.121 136.621C230.684 136.059 231 135.296 231 134.5C231 133.704 230.684 132.941 230.121 132.379C229.559 131.816 228.796 131.5 228 131.5C227.178 131.5 226.389 131.827 225.808 132.408C225.227 132.989 224.9 133.778 224.9 134.6C224.9 135.422 225.227 136.211 225.808 136.792C226.389 137.373 227.178 137.7 228 137.7" fill="white"/>
<path d="M227.99 137.54C228.434 137.627 228.893 137.614 229.332 137.503C229.772 137.391 230.181 137.184 230.531 136.896C230.881 136.607 231.163 136.245 231.356 135.834C231.55 135.424 231.65 134.976 231.65 134.522C231.65 134.069 231.55 133.621 231.356 133.21C231.163 132.8 230.881 132.438 230.531 132.149C230.181 131.861 229.772 131.653 229.332 131.542C228.893 131.43 228.434 131.418 227.99 131.505C227.175 131.505 226.393 131.829 225.817 132.405C225.241 132.982 224.917 133.764 224.917 134.579C224.917 135.395 225.241 136.177 225.817 136.753C226.393 137.33 227.175 137.654 227.99 137.654V137.54Z" stroke="black" stroke-width="1.13826"/>
<path d="M246.2 135.3C246.996 135.3 247.759 134.984 248.321 134.421C248.884 133.859 249.2 133.096 249.2 132.3C249.2 131.504 248.884 130.741 248.321 130.179C247.759 129.616 246.996 129.3 246.2 129.3C245.404 129.3 244.641 129.616 244.079 130.179C243.516 130.741 243.2 131.504 243.2 132.3C243.2 133.096 243.516 133.859 244.079 134.421C244.641 134.984 245.404 135.3 246.2 135.3Z" fill="white"/>
<path d="M246.194 135.262C246.639 135.349 247.097 135.337 247.537 135.225C247.976 135.114 248.386 134.906 248.736 134.618C249.085 134.33 249.367 133.967 249.561 133.557C249.754 133.147 249.854 132.699 249.854 132.245C249.854 131.791 249.754 131.343 249.561 130.933C249.367 130.522 249.085 130.16 248.736 129.872C248.386 129.583 247.976 129.376 247.537 129.264C247.097 129.153 246.639 129.14 246.194 129.227C245.495 129.364 244.864 129.739 244.411 130.29C243.958 130.841 243.71 131.532 243.71 132.245C243.71 132.958 243.958 133.649 244.411 134.2C244.864 134.75 245.495 135.126 246.194 135.262Z" stroke="black" stroke-width="1.13826"/>
<path d="M252.1 136.9C252.896 136.9 253.659 136.584 254.221 136.021C254.784 135.459 255.1 134.696 255.1 133.9C255.1 133.104 254.784 132.341 254.221 131.779C253.659 131.216 252.896 130.9 252.1 130.9C251.304 130.9 250.541 131.216 249.979 131.779C249.416 132.341 249.1 133.104 249.1 133.9C249.1 134.696 249.416 135.459 249.979 136.021C250.541 136.584 251.304 136.9 252.1 136.9Z" fill="white"/>
<path d="M252.11 136.857C252.555 136.944 253.014 136.931 253.453 136.82C253.893 136.708 254.302 136.501 254.652 136.212C255.002 135.924 255.284 135.561 255.477 135.151C255.671 134.741 255.771 134.293 255.771 133.839C255.771 133.385 255.671 132.937 255.477 132.527C255.284 132.117 255.002 131.754 254.652 131.466C254.302 131.177 253.893 130.97 253.453 130.859C253.014 130.747 252.555 130.734 252.11 130.821C251.411 130.958 250.781 131.334 250.328 131.884C249.875 132.435 249.627 133.126 249.627 133.839C249.627 134.552 249.875 135.243 250.328 135.794C250.781 136.344 251.411 136.72 252.11 136.857Z" stroke="black" stroke-width="1.13826"/>
<path d="M252.1 159.4C252.909 159.4 253.685 159.079 254.257 158.507C254.829 157.935 255.15 157.159 255.15 156.35C255.15 155.541 254.829 154.765 254.257 154.193C253.685 153.621 252.909 153.3 252.1 153.3C251.291 153.3 250.515 153.621 249.943 154.193C249.371 154.765 249.05 155.541 249.05 156.35C249.05 157.159 249.371 157.935 249.943 158.507C250.515 159.079 251.291 159.4 252.1 159.4Z" fill="white"/>
<path d="M252.11 159.404C252.925 159.404 253.707 159.08 254.283 158.503C254.859 157.927 255.182 157.145 255.182 156.329C255.182 155.514 254.859 154.732 254.283 154.155C253.707 153.579 252.925 153.255 252.11 153.255C251.296 153.255 250.514 153.579 249.938 154.155C249.362 154.732 249.038 155.514 249.038 156.329C249.038 157.145 249.362 157.927 249.938 158.503C250.514 159.08 251.296 159.404 252.11 159.404Z" stroke="black" stroke-width="1.13826"/>
<path d="M314.8 171.1C315.596 171.1 316.359 170.784 316.921 170.221C317.484 169.659 317.8 168.896 317.8 168.1C317.8 167.304 317.484 166.541 316.921 165.979C316.359 165.416 315.596 165.1 314.8 165.1C314.004 165.1 313.241 165.416 312.679 165.979C312.116 166.541 311.8 167.304 311.8 168.1C311.8 168.896 312.116 169.659 312.679 170.221C313.241 170.784 314.004 171.1 314.8 171.1Z" fill="white"/>
<path d="M314.802 171.133C315.247 171.22 315.706 171.207 316.145 171.096C316.584 170.984 316.994 170.777 317.344 170.489C317.694 170.2 317.975 169.838 318.169 169.427C318.362 169.017 318.463 168.569 318.463 168.115C318.463 167.662 318.362 167.214 318.169 166.803C317.975 166.393 317.694 166.031 317.344 165.742C316.994 165.454 316.584 165.246 316.145 165.135C315.706 165.024 315.247 165.011 314.802 165.098C314.103 165.234 313.472 165.61 313.019 166.161C312.566 166.711 312.319 167.402 312.319 168.115C312.319 168.829 312.566 169.52 313.019 170.07C313.472 170.621 314.103 170.996 314.802 171.133Z" stroke="black" stroke-width="1.13826"/>
<path d="M316.4 163.7C317.209 163.7 317.985 163.379 318.557 162.807C319.129 162.235 319.45 161.459 319.45 160.65C319.45 159.841 319.129 159.065 318.557 158.493C317.985 157.921 317.209 157.6 316.4 157.6C315.604 157.6 314.841 157.916 314.279 158.479C313.716 159.041 313.4 159.804 313.4 160.6C313.4 161.396 313.716 162.159 314.279 162.721C314.841 163.284 315.604 163.6 316.4 163.6" fill="white"/>
<path d="M316.395 163.731C317.21 163.731 317.991 163.407 318.567 162.831C319.143 162.254 319.467 161.472 319.467 160.657C319.467 159.841 319.143 159.059 318.567 158.483C317.991 157.906 317.21 157.582 316.395 157.582C315.696 157.719 315.065 158.094 314.612 158.645C314.159 159.195 313.911 159.886 313.911 160.6C313.911 161.313 314.159 162.004 314.612 162.554C315.065 163.105 315.696 163.481 316.395 163.617V163.731Z" stroke="black" stroke-width="1.13826"/>
<path d="M315.1 155.8C315.896 155.8 316.659 155.484 317.221 154.921C317.784 154.359 318.1 153.596 318.1 152.8C318.1 152.004 317.784 151.241 317.221 150.679C316.659 150.116 315.896 149.8 315.1 149.8C314.304 149.8 313.541 150.116 312.979 150.679C312.416 151.241 312.1 152.004 312.1 152.8C312.1 153.596 312.416 154.359 312.979 154.921C313.541 155.484 314.304 155.8 315.1 155.8Z" fill="white"/>
<path d="M315.143 155.76C315.588 155.847 316.047 155.834 316.486 155.723C316.926 155.611 317.335 155.404 317.685 155.116C318.035 154.827 318.317 154.465 318.51 154.054C318.704 153.644 318.804 153.196 318.804 152.742C318.804 152.289 318.704 151.841 318.51 151.43C318.317 151.02 318.035 150.658 317.685 150.369C317.335 150.081 316.926 149.873 316.486 149.762C316.047 149.65 315.588 149.638 315.143 149.725C314.444 149.861 313.814 150.237 313.361 150.788C312.908 151.338 312.66 152.029 312.66 152.742C312.66 153.456 312.908 154.147 313.361 154.697C313.814 155.248 314.444 155.623 315.143 155.76Z" stroke="black" stroke-width="1.13826"/>
<path d="M311.8 148.4C312.622 148.4 313.411 148.073 313.992 147.492C314.573 146.911 314.9 146.122 314.9 145.3C314.9 144.478 314.573 143.689 313.992 143.108C313.411 142.527 312.622 142.2 311.8 142.2C310.978 142.2 310.189 142.527 309.608 143.108C309.027 143.689 308.7 144.478 308.7 145.3C308.7 146.122 309.027 146.911 309.608 147.492C310.189 148.073 310.978 148.4 311.8 148.4Z" fill="white"/>
<path d="M311.844 148.358C312.659 148.358 313.44 148.034 314.016 147.458C314.592 146.881 314.916 146.099 314.916 145.283C314.916 144.468 314.592 143.686 314.016 143.109C313.44 142.533 312.659 142.209 311.844 142.209C311.029 142.209 310.248 142.533 309.672 143.109C309.095 143.686 308.772 144.468 308.772 145.283C308.772 146.099 309.095 146.881 309.672 147.458C310.248 148.034 311.029 148.358 311.844 148.358Z" stroke="black" stroke-width="1.13826"/>
<path d="M306.3 143.2C307.109 143.2 307.885 142.879 308.457 142.307C309.029 141.735 309.35 140.959 309.35 140.15C309.35 139.341 309.029 138.565 308.457 137.993C307.885 137.421 307.109 137.1 306.3 137.1C305.504 137.1 304.741 137.416 304.179 137.979C303.616 138.541 303.3 139.304 303.3 140.1C303.3 140.896 303.616 141.659 304.179 142.221C304.741 142.784 305.504 143.1 306.3 143.1" fill="white"/>
<path d="M306.269 143.234C307.083 143.234 307.865 142.91 308.441 142.333C309.017 141.757 309.341 140.975 309.341 140.159C309.341 139.344 309.017 138.562 308.441 137.985C307.865 137.408 307.083 137.085 306.269 137.085C305.569 137.221 304.939 137.597 304.486 138.147C304.033 138.698 303.785 139.389 303.785 140.102C303.785 140.815 304.033 141.506 304.486 142.057C304.939 142.607 305.569 142.983 306.269 143.12V143.234Z" stroke="black" stroke-width="1.13826"/>
<path d="M299.5 139.8C300.296 139.8 301.059 139.484 301.621 138.921C302.184 138.359 302.5 137.596 302.5 136.8C302.5 136.004 302.184 135.241 301.621 134.679C301.059 134.116 300.296 133.8 299.5 133.8C298.704 133.8 297.941 134.116 297.379 134.679C296.816 135.241 296.5 136.004 296.5 136.8C296.5 137.596 296.816 138.359 297.379 138.921C297.941 139.484 298.704 139.8 299.5 139.8Z" fill="white"/>
<path d="M299.556 139.817C300.001 139.904 300.459 139.892 300.899 139.78C301.338 139.669 301.748 139.461 302.097 139.173C302.447 138.885 302.729 138.522 302.923 138.112C303.116 137.702 303.216 137.254 303.216 136.8C303.216 136.346 303.116 135.898 302.923 135.488C302.729 135.077 302.447 134.715 302.097 134.427C301.748 134.138 301.338 133.931 300.899 133.819C300.459 133.708 300.001 133.695 299.556 133.782C298.856 133.919 298.226 134.294 297.773 134.845C297.32 135.396 297.072 136.087 297.072 136.8C297.072 137.513 297.32 138.204 297.773 138.755C298.226 139.305 298.856 139.681 299.556 139.817Z" stroke="black" stroke-width="1.13826"/>
<path d="M291.8 138.1C292.596 138.1 293.359 137.784 293.921 137.221C294.484 136.659 294.8 135.896 294.8 135.1C294.8 134.304 294.484 133.541 293.921 132.979C293.359 132.416 292.596 132.1 291.8 132.1C291.004 132.1 290.241 132.416 289.679 132.979C289.116 133.541 288.8 134.304 288.8 135.1C288.8 135.896 289.116 136.659 289.679 137.221C290.241 137.784 291.004 138.1 291.8 138.1Z" fill="white"/>
<path d="M291.819 138.109C292.264 138.196 292.722 138.184 293.162 138.072C293.601 137.961 294.011 137.753 294.361 137.465C294.71 137.176 294.992 136.814 295.186 136.404C295.379 135.993 295.479 135.545 295.479 135.092C295.479 134.638 295.379 134.19 295.186 133.78C294.992 133.369 294.71 133.007 294.361 132.718C294.011 132.43 293.601 132.223 293.162 132.111C292.722 132 292.264 131.987 291.819 132.074C291.12 132.211 290.489 132.586 290.036 133.137C289.583 133.687 289.335 134.378 289.335 135.092C289.335 135.805 289.583 136.496 290.036 137.046C290.489 137.597 291.12 137.973 291.819 138.109Z" stroke="black" stroke-width="1.13826"/>
<path d="M284.9 137.5C285.696 137.5 286.459 137.184 287.021 136.621C287.584 136.059 287.9 135.296 287.9 134.5C287.9 133.704 287.584 132.941 287.021 132.379C286.459 131.816 285.696 131.5 284.9 131.5C284.104 131.5 283.341 131.816 282.779 132.379C282.216 132.941 281.9 133.704 281.9 134.5C281.9 135.296 282.216 136.059 282.779 136.621C283.341 137.184 284.104 137.5 284.9 137.5Z" fill="white"/>
<path d="M284.879 137.54C285.323 137.627 285.782 137.614 286.221 137.503C286.661 137.391 287.07 137.184 287.42 136.896C287.77 136.607 288.052 136.245 288.245 135.834C288.439 135.424 288.539 134.976 288.539 134.522C288.539 134.069 288.439 133.621 288.245 133.21C288.052 132.8 287.77 132.438 287.42 132.149C287.07 131.861 286.661 131.653 286.221 131.542C285.782 131.43 285.323 131.418 284.879 131.505C284.179 131.641 283.549 132.017 283.096 132.568C282.643 133.118 282.395 133.809 282.395 134.522C282.395 135.236 282.643 135.927 283.096 136.477C283.549 137.028 284.179 137.403 284.879 137.54Z" stroke="black" stroke-width="1.13826"/>
<path d="M278.5 136.7C279.309 136.7 280.085 136.379 280.657 135.807C281.229 135.235 281.55 134.459 281.55 133.65C281.55 132.841 281.229 132.065 280.657 131.493C280.085 130.921 279.309 130.6 278.5 130.6C277.691 130.6 276.915 130.921 276.343 131.493C275.771 132.065 275.45 132.841 275.45 133.65C275.45 134.459 275.771 135.235 276.343 135.807C276.915 136.379 277.691 136.7 278.5 136.7Z" fill="white"/>
<path d="M278.507 136.743C279.322 136.743 280.103 136.419 280.679 135.842C281.255 135.266 281.579 134.484 281.579 133.668C281.579 132.853 281.255 132.071 280.679 131.494C280.103 130.918 279.322 130.594 278.507 130.594C277.692 130.594 276.911 130.918 276.335 131.494C275.759 132.071 275.435 132.853 275.435 133.668C275.435 134.484 275.759 135.266 276.335 135.842C276.911 136.419 277.692 136.743 278.507 136.743Z" stroke="black" stroke-width="1.13826"/>
<path d="M282.6 161.5C283.396 161.5 284.159 161.184 284.721 160.621C285.284 160.059 285.6 159.296 285.6 158.5C285.6 157.704 285.284 156.941 284.721 156.379C284.159 155.816 283.396 155.5 282.6 155.5C281.804 155.5 281.041 155.816 280.479 156.379C279.916 156.941 279.6 157.704 279.6 158.5C279.6 159.296 279.916 160.059 280.479 160.621C281.041 161.184 281.804 161.5 282.6 161.5Z" fill="white"/>
<path d="M282.603 161.454C283.048 161.541 283.506 161.528 283.946 161.417C284.385 161.305 284.795 161.098 285.145 160.809C285.494 160.521 285.776 160.158 285.97 159.748C286.163 159.338 286.263 158.89 286.263 158.436C286.263 157.982 286.163 157.534 285.97 157.124C285.776 156.714 285.494 156.351 285.145 156.063C284.795 155.774 284.385 155.567 283.946 155.456C283.506 155.344 283.048 155.331 282.603 155.418C281.788 155.418 281.007 155.742 280.431 156.319C279.855 156.896 279.531 157.678 279.531 158.493C279.531 159.308 279.855 160.09 280.431 160.667C281.007 161.244 281.788 161.568 282.603 161.568V161.454Z" stroke="black" stroke-width="1.13826"/>
<path d="M284.2 155.8C285.022 155.8 285.811 155.473 286.392 154.892C286.973 154.311 287.3 153.522 287.3 152.7C287.3 151.878 286.973 151.089 286.392 150.508C285.811 149.927 285.022 149.6 284.2 149.6C283.404 149.6 282.641 149.916 282.079 150.479C281.516 151.041 281.2 151.804 281.2 152.6C281.2 153.396 281.516 154.159 282.079 154.721C282.641 155.284 283.404 155.6 284.2 155.6" fill="white"/>
<path d="M284.196 155.76C285.011 155.76 285.792 155.436 286.368 154.859C286.944 154.283 287.268 153.501 287.268 152.685C287.268 151.87 286.944 151.088 286.368 150.511C285.792 149.935 285.011 149.611 284.196 149.611C283.496 149.747 282.866 150.123 282.413 150.674C281.96 151.224 281.712 151.915 281.712 152.628C281.712 153.342 281.96 154.033 282.413 154.583C282.866 155.134 283.496 155.509 284.196 155.646V155.76Z" stroke="black" stroke-width="1.13826"/>
<path d="M258.7 136.3C259.522 136.3 260.311 135.973 260.892 135.392C261.473 134.811 261.8 134.022 261.8 133.2C261.8 132.378 261.473 131.589 260.892 131.008C260.311 130.427 259.522 130.1 258.7 130.1C257.878 130.1 257.089 130.427 256.508 131.008C255.927 131.589 255.6 132.378 255.6 133.2C255.6 134.022 255.927 134.811 256.508 135.392C257.089 135.973 257.878 136.3 258.7 136.3Z" fill="white"/>
<path d="M258.71 136.287C259.524 136.287 260.306 135.963 260.882 135.387C261.458 134.81 261.782 134.028 261.782 133.213C261.782 132.397 261.458 131.615 260.882 131.039C260.306 130.462 259.524 130.138 258.71 130.138C257.895 130.138 257.113 130.462 256.537 131.039C255.961 131.615 255.638 132.397 255.638 133.213C255.638 134.028 255.961 134.81 256.537 135.387C257.113 135.963 257.895 136.287 258.71 136.287Z" stroke="black" stroke-width="1.13826"/>
<path d="M243.9 135.4C244.696 135.4 245.459 135.084 246.021 134.521C246.584 133.959 246.9 133.196 246.9 132.4C246.9 131.604 246.584 130.841 246.021 130.279C245.459 129.716 244.696 129.4 243.9 129.4C243.104 129.4 242.341 129.716 241.779 130.279C241.216 130.841 240.9 131.604 240.9 132.4C240.9 133.196 241.216 133.959 241.779 134.521C242.341 135.084 243.104 135.4 243.9 135.4Z" fill="white"/>
<path d="M243.918 135.376C244.363 135.463 244.822 135.451 245.261 135.339C245.701 135.228 246.11 135.02 246.46 134.732C246.81 134.443 247.092 134.081 247.285 133.671C247.479 133.26 247.579 132.812 247.579 132.359C247.579 131.905 247.479 131.457 247.285 131.047C247.092 130.636 246.81 130.274 246.46 129.985C246.11 129.697 245.701 129.49 245.261 129.378C244.822 129.267 244.363 129.254 243.918 129.341C243.219 129.478 242.589 129.853 242.136 130.404C241.683 130.954 241.435 131.645 241.435 132.359C241.435 133.072 241.683 133.763 242.136 134.313C242.589 134.864 243.219 135.24 243.918 135.376Z" stroke="black" stroke-width="1.13826"/>
<path d="M240.3 135.3C241.096 135.3 241.859 134.984 242.421 134.421C242.984 133.859 243.3 133.096 243.3 132.3C243.3 131.504 242.984 130.741 242.421 130.179C241.859 129.616 241.096 129.3 240.3 129.3C239.504 129.3 238.741 129.616 238.179 130.179C237.616 130.741 237.3 131.504 237.3 132.3C237.3 133.096 237.616 133.859 238.179 134.421C238.741 134.984 239.504 135.3 240.3 135.3Z" fill="white"/>
<path d="M240.277 135.262C240.722 135.349 241.181 135.337 241.62 135.225C242.06 135.114 242.469 134.906 242.819 134.618C243.169 134.33 243.451 133.967 243.644 133.557C243.838 133.147 243.938 132.699 243.938 132.245C243.938 131.791 243.838 131.343 243.644 130.933C243.451 130.522 243.169 130.16 242.819 129.872C242.469 129.583 242.06 129.376 241.62 129.264C241.181 129.153 240.722 129.14 240.277 129.227C239.578 129.364 238.948 129.739 238.495 130.29C238.042 130.841 237.794 131.532 237.794 132.245C237.794 132.958 238.042 133.649 238.495 134.2C238.948 134.75 239.578 135.126 240.277 135.262Z" stroke="black" stroke-width="1.13826"/>
<path d="M220.9 161.6C221.696 161.6 222.459 161.284 223.021 160.721C223.584 160.159 223.9 159.396 223.9 158.6C223.9 157.804 223.584 157.041 223.021 156.479C222.459 155.916 221.696 155.6 220.9 155.6C220.104 155.6 219.341 155.916 218.779 156.479C218.216 157.041 217.9 157.804 217.9 158.6C217.9 159.396 218.216 160.159 218.779 160.721C219.341 161.284 220.104 161.6 220.9 161.6Z" fill="white"/>
<path d="M220.935 161.568C221.38 161.655 221.839 161.642 222.278 161.53C222.718 161.419 223.127 161.212 223.477 160.923C223.827 160.635 224.108 160.272 224.302 159.862C224.495 159.452 224.596 159.004 224.596 158.55C224.596 158.096 224.495 157.648 224.302 157.238C224.108 156.828 223.827 156.465 223.477 156.177C223.127 155.888 222.718 155.681 222.278 155.569C221.839 155.458 221.38 155.445 220.935 155.532C220.236 155.669 219.606 156.045 219.153 156.595C218.699 157.146 218.452 157.837 218.452 158.55C218.452 159.263 218.699 159.954 219.153 160.505C219.606 161.055 220.236 161.431 220.935 161.568Z" stroke="black" stroke-width="1.13826"/>
<path d="M220 154.4C220.822 154.4 221.611 154.073 222.192 153.492C222.773 152.911 223.1 152.122 223.1 151.3C223.1 150.478 222.773 149.689 222.192 149.108C221.611 148.527 220.822 148.2 220 148.2C219.178 148.2 218.389 148.527 217.808 149.108C217.227 149.689 216.9 150.478 216.9 151.3C216.9 152.122 217.227 152.911 217.808 153.492C218.389 154.073 219.178 154.4 220 154.4Z" fill="white"/>
<path d="M220.025 154.394C220.84 154.394 221.621 154.07 222.197 153.493C222.773 152.916 223.097 152.134 223.097 151.319C223.097 150.503 222.773 149.721 222.197 149.145C221.621 148.568 220.84 148.244 220.025 148.244C219.21 148.244 218.429 148.568 217.853 149.145C217.277 149.721 216.953 150.503 216.953 151.319C216.953 152.134 217.277 152.916 217.853 153.493C218.429 154.07 219.21 154.394 220.025 154.394Z" stroke="black" stroke-width="1.13826"/>
<path d="M222.3 147.3C223.096 147.3 223.859 146.984 224.421 146.421C224.984 145.859 225.3 145.096 225.3 144.3C225.3 143.504 224.984 142.741 224.421 142.179C223.859 141.616 223.096 141.3 222.3 141.3C221.504 141.3 220.741 141.616 220.179 142.179C219.616 142.741 219.3 143.504 219.3 144.3C219.3 145.096 219.616 145.859 220.179 146.421C220.741 146.984 221.504 147.3 222.3 147.3Z" fill="white"/>
<path d="M222.301 147.333C222.745 147.42 223.204 147.407 223.644 147.296C224.083 147.185 224.492 146.977 224.842 146.689C225.192 146.4 225.474 146.038 225.667 145.628C225.861 145.217 225.961 144.769 225.961 144.316C225.961 143.862 225.861 143.414 225.667 143.003C225.474 142.593 225.192 142.231 224.842 141.942C224.492 141.654 224.083 141.447 223.644 141.335C223.204 141.224 222.745 141.211 222.301 141.298C221.601 141.434 220.971 141.81 220.518 142.361C220.065 142.911 219.817 143.602 219.817 144.316C219.817 145.029 220.065 145.72 220.518 146.27C220.971 146.821 221.601 147.197 222.301 147.333Z" stroke="black" stroke-width="1.13826"/>
<path d="M235.6 136C236.396 136 237.159 135.684 237.721 135.121C238.284 134.559 238.6 133.796 238.6 133C238.6 132.204 238.284 131.441 237.721 130.879C237.159 130.316 236.396 130 235.6 130C234.804 130 234.041 130.316 233.479 130.879C232.916 131.441 232.6 132.204 232.6 133C232.6 133.796 232.916 134.559 233.479 135.121C234.041 135.684 234.804 136 235.6 136Z" fill="white"/>
<path d="M235.613 135.946C236.058 136.033 236.516 136.02 236.956 135.909C237.395 135.797 237.804 135.59 238.154 135.301C238.504 135.013 238.786 134.65 238.979 134.24C239.173 133.83 239.273 133.382 239.273 132.928C239.273 132.474 239.173 132.026 238.979 131.616C238.786 131.206 238.504 130.843 238.154 130.555C237.804 130.266 237.395 130.059 236.956 129.948C236.516 129.836 236.058 129.823 235.613 129.91C234.913 130.047 234.283 130.423 233.83 130.973C233.377 131.524 233.129 132.215 233.129 132.928C233.129 133.641 233.377 134.332 233.83 134.883C234.283 135.433 234.913 135.809 235.613 135.946Z" stroke="black" stroke-width="1.13826"/>
<path d="M230.5 138C231.296 138 232.059 137.684 232.621 137.121C233.184 136.559 233.5 135.796 233.5 135C233.5 134.204 233.184 133.441 232.621 132.879C232.059 132.316 231.296 132 230.5 132C229.704 132 228.941 132.316 228.379 132.879C227.816 133.441 227.5 134.204 227.5 135C227.5 135.796 227.816 136.559 228.379 137.121C228.941 137.684 229.704 138 230.5 138Z" fill="white"/>
<path d="M230.493 137.996C230.938 138.082 231.396 138.07 231.836 137.958C232.275 137.847 232.684 137.639 233.034 137.351C233.384 137.063 233.666 136.7 233.859 136.29C234.053 135.88 234.153 135.432 234.153 134.978C234.153 134.524 234.053 134.076 233.859 133.666C233.666 133.255 233.384 132.893 233.034 132.605C232.684 132.316 232.275 132.109 231.836 131.997C231.396 131.886 230.938 131.873 230.493 131.96C229.793 132.097 229.163 132.473 228.71 133.023C228.257 133.574 228.009 134.265 228.009 134.978C228.009 135.691 228.257 136.382 228.71 136.933C229.163 137.483 229.793 137.859 230.493 137.996Z" stroke="black" stroke-width="1.13826"/>
<path d="M225.7 142C226.496 142 227.259 141.684 227.821 141.121C228.384 140.559 228.7 139.796 228.7 139C228.7 138.204 228.384 137.441 227.821 136.879C227.259 136.316 226.496 136 225.7 136C224.891 136 224.115 136.321 223.543 136.893C222.971 137.465 222.65 138.241 222.65 139.05C222.65 139.859 222.971 140.635 223.543 141.207C224.115 141.779 224.891 142.1 225.7 142.1" fill="white"/>
<path d="M225.714 142.095C226.159 142.182 226.617 142.169 227.057 142.058C227.496 141.946 227.906 141.739 228.256 141.451C228.605 141.162 228.887 140.8 229.081 140.389C229.274 139.979 229.374 139.531 229.374 139.077C229.374 138.624 229.274 138.176 229.081 137.765C228.887 137.355 228.605 136.993 228.256 136.704C227.906 136.416 227.496 136.208 227.057 136.097C226.617 135.985 226.159 135.973 225.714 136.06C225.014 136.196 224.384 136.572 223.931 137.123C223.478 137.673 223.23 138.364 223.23 139.077C223.23 139.791 223.478 140.482 223.931 141.032C224.384 141.583 225.014 141.958 225.714 142.095Z" stroke="black" stroke-width="1.13826"/>
<path d="M252.1 140.3C252.896 140.3 253.659 139.984 254.221 139.421C254.784 138.859 255.1 138.096 255.1 137.3C255.1 136.504 254.784 135.741 254.221 135.179C253.659 134.616 252.896 134.3 252.1 134.3C251.304 134.3 250.541 134.616 249.979 135.179C249.416 135.741 249.1 136.504 249.1 137.3C249.1 138.096 249.416 138.859 249.979 139.421C250.541 139.984 251.304 140.3 252.1 140.3Z" fill="white"/>
<path d="M252.11 140.273C252.555 140.36 253.014 140.347 253.453 140.236C253.893 140.124 254.302 139.917 254.652 139.629C255.002 139.34 255.284 138.978 255.477 138.567C255.671 138.157 255.771 137.709 255.771 137.255C255.771 136.802 255.671 136.354 255.477 135.943C255.284 135.533 255.002 135.171 254.652 134.882C254.302 134.594 253.893 134.386 253.453 134.275C253.014 134.163 252.555 134.151 252.11 134.238C251.411 134.374 250.781 134.75 250.328 135.301C249.875 135.851 249.627 136.542 249.627 137.255C249.627 137.969 249.875 138.66 250.328 139.21C250.781 139.761 251.411 140.136 252.11 140.273Z" stroke="black" stroke-width="1.13826"/>
<path d="M252.1 146C252.896 146 253.659 145.684 254.221 145.121C254.784 144.559 255.1 143.796 255.1 143C255.1 142.204 254.784 141.441 254.221 140.879C253.659 140.316 252.896 140 252.1 140C251.304 140 250.541 140.316 249.979 140.879C249.416 141.441 249.1 142.204 249.1 143C249.1 143.796 249.416 144.559 249.979 145.121C250.541 145.684 251.304 146 252.1 146Z" fill="white"/>
<path d="M252.11 146.081C252.925 146.081 253.707 145.757 254.283 145.18C254.859 144.603 255.182 143.821 255.182 143.006C255.182 142.191 254.859 141.409 254.283 140.832C253.707 140.255 252.925 139.931 252.11 139.931C251.296 139.931 250.514 140.255 249.938 140.832C249.362 141.409 249.038 142.191 249.038 143.006C249.038 143.821 249.362 144.603 249.938 145.18C250.514 145.757 251.296 146.081 252.11 146.081Z" stroke="black" stroke-width="1.13826"/>
<path d="M252.1 152.2C252.909 152.2 253.685 151.879 254.257 151.307C254.829 150.735 255.15 149.959 255.15 149.15C255.15 148.341 254.829 147.565 254.257 146.993C253.685 146.421 252.909 146.1 252.1 146.1C251.291 146.1 250.515 146.421 249.943 146.993C249.371 147.565 249.05 148.341 249.05 149.15C249.05 149.959 249.371 150.735 249.943 151.307C250.515 151.879 251.291 152.2 252.1 152.2Z" fill="white"/>
<path d="M252.11 152.23C252.925 152.23 253.707 151.906 254.283 151.329C254.859 150.753 255.182 149.971 255.182 149.155C255.182 148.34 254.859 147.558 254.283 146.981C253.707 146.405 252.925 146.081 252.11 146.081C251.296 146.081 250.514 146.405 249.938 146.981C249.362 147.558 249.038 148.34 249.038 149.155C249.038 149.971 249.362 150.753 249.938 151.329C250.514 151.906 251.296 152.23 252.11 152.23Z" stroke="black" stroke-width="1.13826"/>
<path d="M262.5 135.5C263.322 135.5 264.111 135.173 264.692 134.592C265.273 134.011 265.6 133.222 265.6 132.4C265.6 131.578 265.273 130.789 264.692 130.208C264.111 129.627 263.322 129.3 262.5 129.3C261.678 129.3 260.889 129.627 260.308 130.208C259.727 130.789 259.4 131.578 259.4 132.4C259.4 133.222 259.727 134.011 260.308 134.592C260.889 135.173 261.678 135.5 262.5 135.5Z" fill="white"/>
<path d="M262.578 135.49C263.393 135.49 264.174 135.166 264.75 134.59C265.326 134.013 265.65 133.231 265.65 132.416C265.65 131.6 265.326 130.818 264.75 130.242C264.174 129.665 263.393 129.341 262.578 129.341C261.763 129.341 260.982 129.665 260.406 130.242C259.83 130.818 259.506 131.6 259.506 132.416C259.506 133.231 259.83 134.013 260.406 134.59C260.982 135.166 261.763 135.49 262.578 135.49Z" stroke="black" stroke-width="1.13826"/>
<path d="M266.7 134.6C267.496 134.6 268.259 134.284 268.821 133.721C269.384 133.159 269.7 132.396 269.7 131.6C269.7 130.804 269.384 130.041 268.821 129.479C268.259 128.916 267.496 128.6 266.7 128.6C265.904 128.6 265.141 128.916 264.579 129.479C264.016 130.041 263.7 130.804 263.7 131.6C263.7 132.396 264.016 133.159 264.579 133.721C265.141 134.284 265.904 134.6 266.7 134.6Z" fill="white"/>
<path d="M266.674 134.579C267.119 134.666 267.578 134.653 268.017 134.542C268.456 134.431 268.866 134.223 269.216 133.935C269.565 133.646 269.847 133.284 270.041 132.874C270.234 132.463 270.334 132.015 270.334 131.562C270.334 131.108 270.234 130.66 270.041 130.249C269.847 129.839 269.565 129.477 269.216 129.188C268.866 128.9 268.456 128.693 268.017 128.581C267.578 128.47 267.119 128.457 266.674 128.544C265.975 128.681 265.344 129.056 264.891 129.607C264.438 130.157 264.19 130.848 264.19 131.562C264.19 132.275 264.438 132.966 264.891 133.516C265.344 134.067 265.975 134.443 266.674 134.579Z" stroke="black" stroke-width="1.13826"/>
<path d="M271.5 135.3C272.296 135.3 273.059 134.984 273.621 134.421C274.184 133.859 274.5 133.096 274.5 132.3C274.5 131.504 274.184 130.741 273.621 130.179C273.059 129.616 272.296 129.3 271.5 129.3C270.704 129.3 269.941 129.616 269.379 130.179C268.816 130.741 268.5 131.504 268.5 132.3C268.5 133.096 268.816 133.859 269.379 134.421C269.941 134.984 270.704 135.3 271.5 135.3Z" fill="white"/>
<path d="M271.453 135.262C271.898 135.349 272.356 135.337 272.796 135.225C273.235 135.114 273.644 134.906 273.994 134.618C274.344 134.33 274.626 133.967 274.819 133.557C275.013 133.147 275.113 132.699 275.113 132.245C275.113 131.791 275.013 131.343 274.819 130.933C274.626 130.522 274.344 130.16 273.994 129.872C273.644 129.583 273.235 129.376 272.796 129.264C272.356 129.153 271.898 129.14 271.453 129.227C270.638 129.227 269.857 129.551 269.28 130.128C268.704 130.704 268.381 131.486 268.381 132.302C268.381 133.117 268.704 133.899 269.28 134.476C269.857 135.052 270.638 135.376 271.453 135.376V135.262Z" stroke="black" stroke-width="1.13826"/>
<path d="M283.2 148.2C283.996 148.2 284.759 147.884 285.321 147.321C285.884 146.759 286.2 145.996 286.2 145.2C286.2 144.404 285.884 143.641 285.321 143.079C284.759 142.516 283.996 142.2 283.2 142.2C282.404 142.2 281.641 142.516 281.079 143.079C280.516 143.641 280.2 144.404 280.2 145.2C280.2 145.996 280.516 146.759 281.079 147.321C281.641 147.884 282.404 148.2 283.2 148.2Z" fill="white"/>
<path d="M283.172 148.244C283.617 148.331 284.075 148.318 284.515 148.207C284.954 148.096 285.364 147.888 285.713 147.6C286.063 147.311 286.345 146.949 286.539 146.539C286.732 146.128 286.832 145.68 286.832 145.227C286.832 144.773 286.732 144.325 286.539 143.914C286.345 143.504 286.063 143.142 285.713 142.853C285.364 142.565 284.954 142.358 284.515 142.246C284.075 142.135 283.617 142.122 283.172 142.209C282.472 142.346 281.842 142.721 281.389 143.272C280.936 143.822 280.688 144.513 280.688 145.227C280.688 145.94 280.936 146.631 281.389 147.181C281.842 147.732 282.472 148.108 283.172 148.244Z" stroke="black" stroke-width="1.13826"/>
<path d="M276.1 138.1C276.909 138.1 277.685 137.779 278.257 137.207C278.829 136.635 279.15 135.859 279.15 135.05C279.15 134.241 278.829 133.465 278.257 132.893C277.685 132.321 276.909 132 276.1 132C275.291 132 274.515 132.321 273.943 132.893C273.371 133.465 273.05 134.241 273.05 135.05C273.05 135.859 273.371 136.635 273.943 137.207C274.515 137.779 275.291 138.1 276.1 138.1Z" fill="white"/>
<path d="M276.118 138.109C276.932 138.109 277.714 137.785 278.29 137.209C278.866 136.632 279.19 135.85 279.19 135.035C279.19 134.219 278.866 133.437 278.29 132.861C277.714 132.284 276.932 131.96 276.118 131.96C275.303 131.96 274.521 132.284 273.945 132.861C273.369 133.437 273.046 134.219 273.046 135.035C273.046 135.85 273.369 136.632 273.945 137.209C274.521 137.785 275.303 138.109 276.118 138.109Z" stroke="black" stroke-width="1.13826"/>
<path d="M280.5 142.2C281.296 142.2 282.059 141.884 282.621 141.321C283.184 140.759 283.5 139.996 283.5 139.2C283.5 138.404 283.184 137.641 282.621 137.079C282.059 136.516 281.296 136.2 280.5 136.2C279.704 136.2 278.941 136.516 278.379 137.079C277.816 137.641 277.5 138.404 277.5 139.2C277.5 139.996 277.816 140.759 278.379 141.321C278.941 141.884 279.704 142.2 280.5 142.2Z" fill="white"/>
<path d="M280.441 142.209C280.886 142.296 281.345 142.283 281.784 142.172C282.224 142.06 282.633 141.853 282.983 141.564C283.333 141.276 283.614 140.914 283.808 140.503C284.001 140.093 284.102 139.645 284.102 139.191C284.102 138.737 284.001 138.289 283.808 137.879C283.614 137.469 283.333 137.106 282.983 136.818C282.633 136.53 282.224 136.322 281.784 136.211C281.345 136.099 280.886 136.087 280.441 136.173C279.742 136.31 279.111 136.686 278.658 137.236C278.205 137.787 277.958 138.478 277.958 139.191C277.958 139.904 278.205 140.595 278.658 141.146C279.111 141.696 279.742 142.072 280.441 142.209Z" stroke="black" stroke-width="1.13826"/>
<path d="M251.9 187.6L243.9 191.7L251.1 196.3L259.6 192L251.9 187.6Z" fill="white"/>
<path d="M251.883 187.645L243.918 191.745L251.086 196.3L259.62 191.972L251.883 187.645Z" stroke="black" stroke-width="0.569132"/>
<path d="M234.4 188.6L222.4 190.4C222.4 190.4 222.2 196.9 222.8 198.4L235.2 196.8C235.2 196.8 235.7 190.8 234.4 188.6Z" fill="white"/>
<path d="M234.361 188.556L222.414 190.378C222.414 190.378 222.187 196.869 222.756 198.349L235.157 196.755C235.157 196.755 235.726 190.72 234.361 188.556Z" stroke="black" stroke-width="0.569132"/>
<path d="M233.1 190.8C233.1 190.8 225.8 191.5 224.1 192.2V196.5C224.1 196.5 228.9 195.7 233.2 195.4V190.8" fill="#058E6E" fill-opacity="0.9"/>
<path d="M233.11 190.833C233.11 190.833 225.828 191.517 224.007 192.2V196.527C224.007 196.527 228.9 195.73 233.223 195.388L233.11 190.833Z" stroke="black" stroke-width="0.569132"/>
<path d="M268.6 188.8L280.6 190.8C280.6 190.8 280.8 197.2 280.2 198.7L267.9 197.1C267.9 197.1 267.4 191.1 268.6 188.9" fill="white"/>
<path d="M268.608 188.784L280.669 190.72C280.669 190.72 280.782 197.21 280.214 198.691L267.926 197.097C267.926 197.097 267.357 191.061 268.608 188.898V188.784Z" stroke="black" stroke-width="0.569132"/>
<path d="M270.1 191.2C270.1 191.2 277.3 191.9 279.1 192.5L279 196.9C279 196.9 274.2 196.1 269.9 195.7V191.2" fill="#058E6E" fill-opacity="0.9"/>
<path d="M270.087 191.175C270.087 191.175 277.255 191.858 279.076 192.542L278.962 196.869C278.962 196.869 274.183 196.072 269.86 195.73L269.974 191.175" stroke="black" stroke-width="0.569132"/>
<path d="M204.324 194.25C204.324 194.25 246.422 178.649 300.125 195.616M206.03 203.246C206.03 203.246 246.877 187.987 297.053 203.929M206.258 193.68L214.45 196.072L208.761 202.221" stroke="black" stroke-width="0.569132"/>
<path d="M206.4 201L211.2 197.1L205.8 196.1C205.8 196.1 206.5 196.9 206.4 197.7V201.1" fill="#FF0000"/>
<path d="M299.215 195.275L290.454 196.869L296.37 203.701M206.372 201.082L211.15 197.097L205.803 196.072C205.803 196.072 206.485 196.869 206.372 197.666V201.082Z" stroke="black" stroke-width="0.569132"/>
<path d="M296.6 201.3L293.3 197.9L298.1 197.4C298.1 197.4 296.7 198.2 296.7 199C296.7 199.7 296.9 200.7 296.7 201.3" fill="#FF0000"/>
<path d="M296.598 201.31L293.298 197.894L298.077 197.438C298.077 197.438 296.711 198.235 296.711 199.033C296.711 199.716 296.939 200.741 296.711 201.31H296.598ZM216.953 194.25C217.636 194.25 218.318 193.794 218.318 193.111C218.318 192.656 217.636 192.086 216.953 192.086C216.157 192.086 215.588 192.655 215.588 193.225C215.588 193.794 216.157 194.364 216.953 194.364V194.25ZM240.391 191.631C241.188 191.631 241.757 191.175 241.757 190.492C241.757 189.923 241.188 189.467 240.391 189.467C239.595 189.467 239.026 189.923 239.026 190.606C239.026 191.175 239.595 191.631 240.391 191.631ZM240.391 195.389C241.188 195.389 241.757 194.933 241.757 194.364C241.757 193.794 241.188 193.225 240.391 193.225C239.595 193.225 239.026 193.794 239.026 194.364C239.026 194.933 239.595 195.502 240.391 195.502V195.389ZM263.488 191.858C264.171 191.858 264.854 191.289 264.854 190.72C264.854 190.15 264.171 189.581 263.488 189.581C262.692 189.581 262.123 190.15 262.123 190.72C262.123 191.289 262.692 191.858 263.488 191.858ZM286.358 196.072C287.154 196.072 287.723 195.502 287.723 194.933C287.723 194.364 287.154 193.794 286.358 193.794C285.561 193.794 284.992 194.364 284.992 194.933C284.992 195.502 285.561 196.072 286.358 196.072ZM286.016 199.033C286.699 199.033 287.382 198.577 287.382 197.894C287.382 197.438 286.699 196.869 286.016 196.869C285.22 196.869 284.651 197.438 284.651 198.008C284.651 198.577 285.22 199.146 286.016 199.146V199.033ZM263.488 195.616C264.171 195.616 264.854 195.161 264.854 194.478C264.854 193.908 264.171 193.453 263.488 193.453C262.692 193.453 262.123 193.908 262.123 194.591C262.123 195.161 262.692 195.73 263.488 195.73V195.616ZM217.977 199.033C218.773 199.033 219.456 198.577 219.456 197.894C219.456 197.438 218.773 196.869 218.091 196.869C217.294 196.869 216.725 197.438 216.725 198.008C216.725 198.577 217.294 199.146 218.091 199.146L217.977 199.033Z" stroke="black" stroke-width="0.569132"/>
<path d="M203.6 182C203.6 182 203.8 190.2 209.1 189C214.4 187.8 213.9 181.2 214.2 180.8C214.7 180.5 215.2 180.5 215.2 180.5C215.2 180.5 215.9 187 220.9 186.2C225.9 185.4 225.7 177.4 225.1 176L226.3 175.7C226.3 175.7 228.3 185 233.9 183.7C239.6 182.3 239 176.4 239 176.4H239.5C239.5 176.4 240.7 182.7 245.4 182.3C249.9 182 250.9 180.5 250.3 174.1L253.3 173.5C253.3 173.5 252.3 182.6 257.8 182.6C263.3 182.3 263.5 178 263.8 177.2H264.8C264.8 177.2 265 183.7 269.6 183.7C274.2 183.7 275.1 178.2 275.1 176L279.6 176.3C279.6 176.3 274.9 184.8 281.8 185.9C288.6 187.1 288.8 180.5 288.8 180.5H290.2C290.2 180.5 290 189 293.8 189.2C297.6 189.4 299.9 188.1 300.2 181.7L302.4 182.5C302.4 182.5 300.6 192.8 293.4 190.9C289.7 189.9 288.4 185.6 288.6 184.5C288.6 184.5 286 189.2 280.8 187.6C275.7 186.2 276.2 182.6 276.2 181.4C276.2 181.4 273.2 187.1 268.8 185.8C265 184.7 263.5 183.3 263.5 180.6C263.5 180.6 261.5 185 257.8 184.8C253.9 184.7 252.1 182.3 251.8 180.2C251.8 180.2 251.1 184.3 246 184.7C242.6 184.8 240.6 183.1 239.8 180.8C239.8 180.8 238.8 184.9 233.9 185.6C230.9 185.9 227.8 184.2 227.1 181.4C227.1 181.4 226.3 187 221.4 187.6C216.4 188.4 215.2 185 215.2 185C215.2 185 214.2 189.4 210.2 190.4C206.2 191.3 203.6 189.6 202.6 185.6C201.7 181.6 202 179.9 202 179.9L203.6 181.9" fill="#FFCC00"/>
<path d="M203.641 181.951C203.641 181.951 203.755 190.15 209.102 189.011C214.45 187.873 213.881 181.154 214.222 180.812C214.677 180.471 215.246 180.471 215.246 180.471C215.246 180.471 215.929 186.962 220.935 186.165C225.941 185.367 225.714 177.396 225.145 176.03L226.283 175.688C226.283 175.688 228.217 185.026 233.906 183.659C239.595 182.293 239.026 176.371 239.026 176.371H239.481C239.481 176.371 240.733 182.748 245.398 182.293C249.949 181.951 250.859 180.471 250.29 174.094L253.362 173.525C253.362 173.525 252.224 182.635 257.799 182.635C263.261 182.293 263.488 177.966 263.83 177.169H264.74C264.74 177.169 264.967 183.659 269.632 183.659C274.183 183.659 275.094 178.193 275.094 176.03L279.645 176.257C279.645 176.257 274.866 184.798 281.806 185.937C288.633 187.076 288.861 180.471 288.861 180.471H290.226C290.226 180.471 289.998 189.011 293.753 189.239C297.622 189.353 299.897 188.101 300.239 181.724L302.4 182.521C302.4 182.521 300.58 192.769 293.412 190.947C289.657 189.922 288.406 185.595 288.633 184.456C288.633 184.456 286.016 189.239 280.782 187.645C275.662 186.165 276.231 182.521 276.231 181.382C276.231 181.382 273.159 187.076 268.836 185.823C264.967 184.684 263.488 183.318 263.488 180.585C263.488 180.585 261.554 185.026 257.799 184.798C253.931 184.684 252.11 182.293 251.883 180.243C251.883 180.243 251.086 184.343 245.966 184.684C242.553 184.798 240.619 183.09 239.822 180.812C239.822 180.812 238.798 184.912 233.906 185.595C230.834 185.937 227.762 184.229 227.079 181.382C227.079 181.382 226.283 186.962 221.39 187.645C216.384 188.442 215.246 185.026 215.246 185.026C215.246 185.026 214.222 189.353 210.24 190.378C206.258 191.289 203.641 189.581 202.617 185.595C201.707 181.61 202.048 179.901 202.048 179.901L203.641 181.951Z" fill="#BCAC0B" stroke="black" stroke-width="0.796785"/>
<path d="M214.7 182.3C215 182.399 215.32 182.425 215.632 182.376C215.945 182.328 216.241 182.205 216.497 182.02C216.753 181.835 216.962 181.591 217.106 181.309C217.25 181.028 217.324 180.716 217.324 180.4C217.324 180.084 217.25 179.772 217.106 179.491C216.962 179.209 216.753 178.965 216.497 178.78C216.241 178.595 215.945 178.472 215.632 178.424C215.32 178.375 215 178.401 214.7 178.5C214.3 178.632 213.951 178.886 213.704 179.227C213.457 179.568 213.324 179.979 213.324 180.4C213.324 180.821 213.457 181.232 213.704 181.573C213.951 181.914 214.3 182.168 214.7 182.3Z" fill="#FFCC00"/>
<path d="M214.677 182.293C214.962 182.364 215.26 182.369 215.547 182.307C215.834 182.246 216.104 182.12 216.335 181.939C216.566 181.758 216.753 181.526 216.882 181.262C217.01 180.998 217.077 180.708 217.077 180.414C217.077 180.12 217.01 179.83 216.882 179.566C216.753 179.302 216.566 179.07 216.335 178.889C216.104 178.708 215.834 178.582 215.547 178.521C215.26 178.459 214.962 178.464 214.677 178.535C214.258 178.639 213.886 178.881 213.62 179.221C213.353 179.562 213.209 179.982 213.209 180.414C213.209 180.846 213.353 181.266 213.62 181.607C213.886 181.947 214.258 182.189 214.677 182.293Z" fill="#BCAC0B" stroke="black" stroke-width="0.796785"/>
<path d="M239.5 178.3C239.8 178.399 240.12 178.425 240.432 178.376C240.745 178.328 241.041 178.205 241.297 178.02C241.553 177.835 241.762 177.591 241.906 177.309C242.05 177.028 242.124 176.716 242.124 176.4C242.124 176.084 242.05 175.772 241.906 175.491C241.762 175.209 241.553 174.965 241.297 174.78C241.041 174.595 240.745 174.472 240.432 174.424C240.12 174.375 239.8 174.401 239.5 174.5C239.1 174.632 238.751 174.886 238.504 175.227C238.257 175.568 238.124 175.979 238.124 176.4C238.124 176.821 238.257 177.232 238.504 177.573C238.751 177.914 239.1 178.168 239.5 178.3Z" fill="#FFCC00"/>
<path d="M239.481 178.307C239.766 178.378 240.063 178.383 240.351 178.322C240.638 178.26 240.907 178.134 241.138 177.953C241.37 177.772 241.557 177.541 241.685 177.276C241.814 177.012 241.881 176.722 241.881 176.428C241.881 176.134 241.814 175.844 241.685 175.58C241.557 175.316 241.37 175.085 241.138 174.904C240.907 174.722 240.638 174.596 240.351 174.535C240.063 174.474 239.766 174.479 239.481 174.549C239.062 174.653 238.689 174.895 238.423 175.236C238.157 175.576 238.013 175.996 238.013 176.428C238.013 176.861 238.157 177.281 238.423 177.621C238.689 177.962 239.062 178.203 239.481 178.307Z" fill="#BCAC0B" stroke="black" stroke-width="0.796785"/>
<path d="M264.7 179.1C265 179.199 265.32 179.225 265.632 179.176C265.945 179.127 266.241 179.005 266.497 178.82C266.753 178.635 266.962 178.391 267.106 178.109C267.25 177.828 267.324 177.516 267.324 177.2C267.324 176.884 267.25 176.572 267.106 176.29C266.962 176.009 266.753 175.765 266.497 175.58C266.241 175.395 265.945 175.272 265.632 175.224C265.32 175.175 265 175.201 264.7 175.3C264.3 175.432 263.951 175.686 263.704 176.027C263.457 176.368 263.324 176.779 263.324 177.2C263.324 177.621 263.457 178.032 263.704 178.373C263.951 178.714 264.3 178.968 264.7 179.1Z" fill="#FFCC00"/>
<path d="M264.74 179.104C265.025 179.175 265.322 179.18 265.609 179.119C265.897 179.057 266.166 178.931 266.397 178.75C266.628 178.569 266.816 178.338 266.944 178.074C267.073 177.809 267.14 177.519 267.14 177.225C267.14 176.932 267.073 176.641 266.944 176.377C266.816 176.113 266.628 175.882 266.397 175.701C266.166 175.52 265.897 175.394 265.609 175.332C265.322 175.271 265.025 175.276 264.74 175.346C264.321 175.451 263.948 175.692 263.682 176.033C263.416 176.373 263.271 176.793 263.271 177.225C263.271 177.658 263.416 178.078 263.682 178.418C263.948 178.759 264.321 179 264.74 179.104Z" fill="#BCAC0B" stroke="black" stroke-width="0.796785"/>
<path d="M289.7 183C290.004 183.125 290.334 183.173 290.66 183.14C290.987 183.107 291.301 182.994 291.573 182.811C291.846 182.628 292.07 182.381 292.224 182.091C292.379 181.802 292.46 181.478 292.46 181.15C292.46 180.822 292.379 180.498 292.224 180.208C292.07 179.919 291.846 179.672 291.573 179.489C291.301 179.306 290.987 179.193 290.66 179.16C290.334 179.127 290.004 179.175 289.7 179.3C289.3 179.432 288.951 179.686 288.704 180.027C288.457 180.368 288.324 180.779 288.324 181.2C288.324 181.621 288.457 182.032 288.704 182.373C288.951 182.714 289.3 182.968 289.7 183.1" fill="#FFCC00"/>
<path d="M289.657 183.09C289.942 183.161 290.24 183.166 290.527 183.104C290.814 183.043 291.083 182.917 291.315 182.736C291.546 182.555 291.733 182.323 291.862 182.059C291.99 181.795 292.057 181.505 292.057 181.211C292.057 180.917 291.99 180.627 291.862 180.363C291.733 180.099 291.546 179.867 291.315 179.686C291.083 179.505 290.814 179.379 290.527 179.318C290.24 179.256 289.942 179.261 289.657 179.332C289.238 179.436 288.866 179.678 288.599 180.018C288.333 180.359 288.189 180.779 288.189 181.211C288.189 181.643 288.333 182.063 288.599 182.404C288.866 182.744 289.238 182.986 289.657 183.09Z" fill="#BCAC0B" stroke="black" stroke-width="0.796785"/>
<path d="M251 176.3H249.3C248.8 178 245.2 179 245.2 179C244.7 177.6 245.7 175.7 245.7 175.7C241.5 174.5 241.5 173.2 241.5 173.2C242.1 171.7 246.1 171.5 246.1 171.5C244.9 170.2 245.1 168.1 245.1 168.1C247.8 168.3 249.9 170.9 249.9 170.9C249.9 170.9 247.3 169.5 247.7 164.9C247.7 164.9 249 164.9 249.9 165.9C249.9 165.9 249.9 160.9 252 160.3H252.2C254.2 160.9 254.2 165.9 254.2 165.9C255.2 164.9 256.5 164.9 256.5 164.9C256.9 169.5 254.3 170.9 254.3 170.9C254.3 170.9 256.4 168.3 259.1 168.2C259.1 168.2 259.1 170.2 258.3 171.6C258.3 171.6 262.1 171.7 262.8 173.2C262.8 173.2 262.8 174.7 258.5 175.7C258.5 175.7 259.4 177.7 259.1 179.1C259.1 179.1 255.3 178 255 176.3H251Z" fill="#FFCC00"/>
<path d="M250.973 176.258H249.266C248.811 177.966 245.17 178.99 245.17 178.99C244.715 177.624 245.739 175.688 245.739 175.688C241.529 174.549 241.529 173.183 241.529 173.183C242.098 171.703 246.08 171.475 246.08 171.475C244.942 170.222 245.17 168.059 245.17 168.059C247.787 168.286 249.949 170.905 249.949 170.905C249.949 170.905 247.332 169.539 247.673 164.984C247.673 164.984 249.038 164.984 249.949 165.895C249.949 165.895 249.949 160.884 251.997 160.315H252.224C254.272 160.884 254.272 165.895 254.272 165.895C255.182 164.87 256.548 164.984 256.548 164.984C256.889 169.539 254.272 170.905 254.272 170.905C254.272 170.905 256.434 168.286 259.051 168.172C259.051 168.172 259.165 170.222 258.254 171.589C258.254 171.589 262.123 171.703 262.806 173.183C262.806 173.183 262.806 174.663 258.482 175.688C258.482 175.688 259.392 177.624 259.051 179.104C259.051 179.104 255.296 177.966 254.955 176.258H250.973Z" fill="#BCAC0B" stroke="black" stroke-width="0.796785"/>
<path d="M251.9 177.2C252.815 177.2 253.693 176.837 254.34 176.19C254.987 175.543 255.35 174.665 255.35 173.75C255.35 172.835 254.987 171.957 254.34 171.31C253.693 170.663 252.815 170.3 251.9 170.3C250.985 170.3 250.107 170.663 249.46 171.31C248.813 171.957 248.45 172.835 248.45 173.75C248.45 174.665 248.813 175.543 249.46 176.19C250.107 176.837 250.985 177.2 251.9 177.2Z" fill="white"/>
<path d="M251.883 177.168C252.788 177.168 253.656 176.809 254.296 176.168C254.937 175.527 255.296 174.658 255.296 173.752C255.296 172.846 254.937 171.977 254.296 171.337C253.656 170.696 252.788 170.336 251.883 170.336C250.978 170.336 250.109 170.696 249.469 171.337C248.829 171.977 248.47 172.846 248.47 173.752C248.47 174.658 248.829 175.527 249.469 176.168C250.109 176.809 250.978 177.168 251.883 177.168Z" stroke="black" stroke-width="0.455306"/>
<path d="M251.9 175.7C252.193 175.767 252.497 175.767 252.79 175.7C253.083 175.633 253.357 175.501 253.592 175.313C253.826 175.126 254.016 174.888 254.146 174.618C254.277 174.347 254.344 174.05 254.344 173.75C254.344 173.45 254.277 173.153 254.146 172.882C254.016 172.612 253.826 172.374 253.592 172.187C253.357 171.999 253.083 171.867 252.79 171.8C252.497 171.733 252.193 171.733 251.9 171.8C251.458 171.901 251.064 172.148 250.781 172.503C250.498 172.857 250.344 173.297 250.344 173.75C250.344 174.203 250.498 174.643 250.781 174.997C251.064 175.352 251.458 175.599 251.9 175.7Z" fill="white"/>
<path d="M251.883 175.688C252.396 175.688 252.888 175.484 253.251 175.121C253.613 174.758 253.817 174.266 253.817 173.752C253.817 173.239 253.613 172.746 253.251 172.383C252.888 172.02 252.396 171.816 251.883 171.816C251.37 171.816 250.878 172.02 250.515 172.383C250.152 172.746 249.949 173.239 249.949 173.752C249.949 174.266 250.152 174.758 250.515 175.121C250.878 175.484 251.37 175.688 251.883 175.688Z" stroke="black" stroke-width="0.341479"/>
<path d="M278.2 178.5L279.9 178.9C279.9 180.6 283.3 182.4 283.3 182.4C284 181.3 283.4 179.1 283.4 179.1C287.8 179 288.1 177.5 288.1 177.5C287.8 175.9 284.1 174.9 284.1 174.9C285.2 173.9 285.6 171.9 285.6 171.9C282.9 171.4 280.3 173.4 280.3 173.4C280.3 173.4 283.2 172.7 283.7 168.2C283.7 168.2 282.5 167.8 281.5 168.5C281.5 168.5 282.5 163.7 280.5 162.8H280.3C278.2 162.8 277.1 167.6 277.1 167.6C276.5 166.5 275.1 166.4 275.1 166.4C273.8 170.7 276.1 172.5 276.1 172.5C276.1 172.5 274.5 169.5 272.1 168.9C272.1 168.9 271.5 170.9 272.1 172.3C272.1 172.3 268.3 171.7 267.4 173C267.4 173 267 174.4 270.9 176.4C270.9 176.4 269.6 178.1 269.7 179.6C269.7 179.6 273.5 179.2 274.3 177.6L276 178L278.3 178.4" fill="#FFCC00"/>
<path d="M278.166 178.535L279.872 178.877C279.872 180.585 283.286 182.407 283.286 182.407C283.968 181.268 283.399 179.104 283.399 179.104C287.837 178.99 288.064 177.51 288.064 177.51C287.837 175.916 284.082 174.891 284.082 174.891C285.22 173.866 285.561 171.816 285.561 171.816C282.944 171.361 280.327 173.411 280.327 173.411C280.327 173.411 283.172 172.727 283.741 168.172C283.741 168.172 282.489 167.831 281.465 168.514C281.465 168.514 282.489 163.731 280.555 162.82L280.327 162.706C278.166 162.706 277.142 167.603 277.142 167.603C276.459 166.464 275.094 166.35 275.094 166.35C273.842 170.678 276.118 172.5 276.118 172.5C276.118 172.5 274.525 169.539 272.022 168.856C272.022 168.856 271.453 170.905 272.022 172.272C272.022 172.272 268.267 171.702 267.357 172.955C267.357 172.955 267.015 174.435 270.884 176.371C270.884 176.371 269.632 178.079 269.746 179.56C269.746 179.56 273.501 179.218 274.297 177.624L276.004 177.966L278.279 178.421" fill="#BCAC0B"/>
<path d="M278.166 178.535L279.872 178.877C279.872 180.585 283.286 182.407 283.286 182.407C283.968 181.268 283.399 179.104 283.399 179.104C287.837 178.99 288.064 177.51 288.064 177.51C287.837 175.916 284.082 174.891 284.082 174.891C285.22 173.866 285.561 171.816 285.561 171.816C282.944 171.361 280.327 173.411 280.327 173.411C280.327 173.411 283.172 172.727 283.741 168.172C283.741 168.172 282.489 167.831 281.465 168.514C281.465 168.514 282.489 163.731 280.555 162.82L280.327 162.706C278.166 162.706 277.142 167.603 277.142 167.603C276.459 166.464 275.094 166.35 275.094 166.35C273.842 170.678 276.118 172.5 276.118 172.5C276.118 172.5 274.525 169.539 272.022 168.856C272.022 168.856 271.453 170.905 272.022 172.272C272.022 172.272 268.267 171.702 267.357 172.955C267.357 172.955 267.015 174.435 270.884 176.371C270.884 176.371 269.632 178.079 269.746 179.56C269.746 179.56 273.501 179.218 274.297 177.624L276.004 177.966L278.279 178.421" stroke="black" stroke-width="0.796785"/>
<path d="M276.9 179.2C276.428 179.12 275.978 178.945 275.576 178.684C275.175 178.424 274.831 178.084 274.567 177.685C274.302 177.287 274.122 176.838 274.037 176.367C273.953 175.896 273.966 175.413 274.075 174.947C274.185 174.481 274.389 174.043 274.674 173.659C274.96 173.275 275.321 172.954 275.736 172.716C276.151 172.477 276.61 172.326 277.085 172.271C277.561 172.217 278.042 172.261 278.5 172.4C279.323 172.672 280.015 173.239 280.444 173.993C280.872 174.746 281.006 175.631 280.819 176.477C280.632 177.323 280.139 178.07 279.433 178.573C278.728 179.076 277.861 179.299 277 179.2" fill="white"/>
<path d="M276.914 179.218C276.466 179.114 276.043 178.922 275.668 178.653C275.294 178.385 274.977 178.045 274.734 177.654C274.491 177.263 274.327 176.827 274.252 176.373C274.177 175.918 274.193 175.453 274.297 175.005C274.402 174.556 274.594 174.133 274.862 173.758C275.13 173.384 275.469 173.066 275.86 172.823C276.251 172.579 276.686 172.416 277.14 172.341C277.594 172.266 278.059 172.281 278.507 172.386C279.412 172.582 280.202 173.13 280.704 173.91C281.205 174.689 281.377 175.636 281.181 176.542C280.985 177.448 280.437 178.239 279.658 178.741C278.879 179.243 277.933 179.415 277.028 179.218H276.914Z" stroke="black" stroke-width="0.455306"/>
<path d="M277.4 177.7C277.084 177.737 276.764 177.698 276.466 177.586C276.168 177.474 275.901 177.293 275.687 177.058C275.474 176.822 275.319 176.539 275.237 176.231C275.154 175.924 275.146 175.602 275.214 175.291C275.281 174.98 275.421 174.689 275.623 174.444C275.825 174.198 276.083 174.004 276.375 173.878C276.667 173.751 276.985 173.697 277.302 173.718C277.62 173.739 277.927 173.836 278.2 174C278.558 174.215 278.839 174.537 279.004 174.92C279.17 175.303 279.211 175.728 279.123 176.136C279.035 176.544 278.822 176.914 278.513 177.195C278.204 177.475 277.814 177.652 277.4 177.7Z" fill="white"/>
<path d="M277.369 177.738C277.096 177.715 276.83 177.634 276.591 177.5C276.351 177.367 276.142 177.184 275.979 176.963C275.815 176.743 275.7 176.49 275.642 176.222C275.583 175.953 275.582 175.676 275.639 175.407C275.696 175.138 275.809 174.885 275.972 174.664C276.134 174.442 276.342 174.258 276.581 174.123C276.82 173.988 277.084 173.905 277.358 173.881C277.631 173.856 277.906 173.89 278.166 173.98C278.611 174.135 278.984 174.447 279.216 174.857C279.447 175.268 279.521 175.749 279.423 176.211C279.326 176.672 279.063 177.082 278.685 177.363C278.306 177.644 277.839 177.777 277.369 177.738Z" stroke="black" stroke-width="0.341479"/>
<path d="M224.9 178L223.2 178.3C223 180.1 219.5 181.7 219.5 181.7C218.9 180.4 219.5 178.3 219.5 178.3C215.2 177.9 215 176.3 215 176.3C215.5 174.9 219.3 174.1 219.3 174.1C218.2 173 218.1 170.9 218.1 170.9C220.6 170.7 223.1 172.9 223.1 172.9C223.1 172.9 220.4 172 220.1 167.5C220.1 167.5 221.5 167.1 222.4 167.9C222.4 167.9 221.8 163 223.8 162.3H224C226.2 162.5 226.7 167.3 226.7 167.3C227.5 166.3 229 166.3 229 166.3C229.8 170.8 227.4 172.3 227.4 172.3C227.4 172.3 229.2 169.5 231.7 169C231.7 169 232.2 171.1 231.4 172.5C231.4 172.5 235.3 172.2 236.1 173.6C236.1 173.6 236.3 175 232.2 176.6C232.2 176.6 233.3 178.4 233.2 179.8C233.2 179.8 229.5 179.2 228.7 177.5L227.1 177.9L224.8 178.1" fill="#FFCC00"/>
<path d="M224.917 178.08L223.211 178.307C222.983 180.129 219.456 181.724 219.456 181.724C218.887 180.357 219.456 178.307 219.456 178.307C215.246 177.852 215.019 176.371 215.019 176.371C215.474 174.891 219.342 174.094 219.342 174.094C218.205 172.955 218.091 170.905 218.091 170.905C220.594 170.678 223.097 172.955 223.097 172.955C223.097 172.955 220.366 172.044 220.025 167.489C220.025 167.489 221.504 167.147 222.414 167.945C222.414 167.945 221.845 163.048 223.78 162.251H224.007C226.169 162.479 226.738 167.375 226.738 167.375C227.534 166.35 229.013 166.236 229.013 166.236C229.81 170.791 227.421 172.386 227.421 172.386C227.421 172.386 229.241 169.539 231.744 168.97C231.744 168.97 232.199 171.133 231.403 172.5C231.403 172.5 235.271 172.158 236.068 173.638C236.068 173.638 236.295 175.005 232.199 176.599C232.199 176.599 233.337 178.421 233.223 179.788C233.223 179.788 229.469 179.218 228.672 177.51L227.079 177.852L224.804 178.08" fill="#BCAC0B"/>
<path d="M224.917 178.08L223.211 178.307C222.983 180.129 219.456 181.724 219.456 181.724C218.887 180.357 219.456 178.307 219.456 178.307C215.246 177.852 215.019 176.371 215.019 176.371C215.474 174.891 219.342 174.094 219.342 174.094C218.205 172.955 218.091 170.905 218.091 170.905C220.594 170.678 223.097 172.955 223.097 172.955C223.097 172.955 220.366 172.044 220.025 167.489C220.025 167.489 221.504 167.147 222.414 167.945C222.414 167.945 221.845 163.048 223.78 162.251H224.007C226.169 162.479 226.738 167.375 226.738 167.375C227.534 166.35 229.013 166.236 229.013 166.236C229.81 170.791 227.421 172.386 227.421 172.386C227.421 172.386 229.241 169.539 231.744 168.97C231.744 168.97 232.199 171.133 231.403 172.5C231.403 172.5 235.271 172.158 236.068 173.638C236.068 173.638 236.295 175.005 232.199 176.599C232.199 176.599 233.337 178.421 233.223 179.788C233.223 179.788 229.469 179.218 228.672 177.51L227.079 177.852L224.804 178.08" stroke="black" stroke-width="0.796785"/>
<path d="M225.9 179C226.346 178.941 226.777 178.794 227.167 178.569C227.557 178.344 227.898 178.043 228.172 177.686C228.446 177.328 228.647 176.921 228.763 176.485C228.88 176.05 228.909 175.596 228.85 175.15C228.791 174.704 228.644 174.273 228.419 173.883C228.194 173.493 227.893 173.152 227.536 172.878C227.178 172.604 226.77 172.403 226.335 172.287C225.9 172.17 225.446 172.141 225 172.2C224.098 172.333 223.286 172.818 222.742 173.549C222.198 174.281 221.967 175.198 222.1 176.1C222.233 177.002 222.718 177.814 223.449 178.358C224.181 178.902 225.098 179.133 226 179" fill="white"/>
<path d="M225.941 178.99C226.39 178.931 226.822 178.783 227.213 178.556C227.604 178.329 227.947 178.027 228.222 177.668C228.496 177.308 228.698 176.898 228.814 176.461C228.93 176.023 228.959 175.567 228.9 175.119C228.84 174.67 228.692 174.238 228.466 173.846C228.239 173.454 227.937 173.111 227.578 172.837C227.219 172.562 226.809 172.36 226.372 172.244C225.935 172.127 225.479 172.098 225.031 172.158C224.126 172.279 223.306 172.755 222.751 173.481C222.196 174.207 221.952 175.124 222.073 176.03C222.194 176.936 222.669 177.757 223.395 178.312C224.12 178.867 225.036 179.111 225.941 178.99Z" stroke="black" stroke-width="0.455306"/>
<path d="M225.7 177.4C226.007 177.461 226.325 177.449 226.626 177.364C226.928 177.28 227.206 177.126 227.437 176.915C227.668 176.704 227.847 176.441 227.958 176.148C228.069 175.855 228.11 175.54 228.077 175.229C228.045 174.917 227.939 174.618 227.769 174.354C227.6 174.091 227.37 173.871 227.1 173.713C226.83 173.554 226.526 173.462 226.213 173.442C225.901 173.422 225.588 173.477 225.3 173.6C224.907 173.768 224.579 174.058 224.363 174.426C224.147 174.795 224.055 175.223 224.099 175.647C224.144 176.072 224.324 176.471 224.612 176.787C224.9 177.102 225.281 177.317 225.7 177.4Z" fill="white"/>
<path d="M225.714 177.396C226.001 177.422 226.291 177.384 226.561 177.284C226.832 177.184 227.077 177.024 227.277 176.817C227.478 176.61 227.631 176.36 227.723 176.086C227.815 175.813 227.845 175.522 227.81 175.235C227.775 174.949 227.677 174.674 227.522 174.43C227.367 174.186 227.16 173.98 226.915 173.827C226.671 173.674 226.395 173.578 226.108 173.545C225.822 173.512 225.532 173.544 225.259 173.638C224.841 173.783 224.484 174.066 224.25 174.442C224.015 174.817 223.916 175.262 223.97 175.701C224.023 176.141 224.225 176.549 224.542 176.857C224.86 177.166 225.273 177.356 225.714 177.396Z" stroke="black" stroke-width="0.341479"/>
<path d="M302.2 185.5C302.2 185.5 301.2 183.2 299.3 184C297.4 184.8 297.6 185.1 295.9 185.1C295.9 185.1 295.2 183 296.1 182.1C296.1 182.1 293.4 181.1 292.7 178.6C292.7 178.6 294.2 176.9 297.7 177.6C297.7 177.6 297.7 175.9 298.1 175.1C298.1 175.1 301.8 176.3 301.8 178.4C301.8 178.4 300.7 174.4 302.8 171.4C302.8 171.4 304.4 172 304.3 174C304.3 174 305.1 170.1 310.3 171.1C310.3 171.1 307.5 173.6 307.4 174.8C307.2 175.9 304.9 177.8 304.8 178.5C304.8 179.1 304.6 180.2 303.8 180.9C303.2 181.6 303.1 182.7 303.1 183.2C303.1 183.4 303.1 185 302.1 185.5" fill="#FFCC00"/>
<path d="M302.173 185.481C302.173 185.481 301.263 183.204 299.328 184.001C297.394 184.798 297.622 185.14 295.915 185.14C295.915 185.14 295.232 182.976 296.143 182.065C296.143 182.065 293.412 181.04 292.729 178.649C292.729 178.649 294.208 176.941 297.735 177.624C297.735 177.624 297.622 175.916 298.077 175.119C298.077 175.119 301.831 176.258 301.831 178.421C301.831 178.421 300.694 174.322 302.742 171.361C302.742 171.361 304.448 172.044 304.335 173.98C304.335 173.98 305.131 170.108 310.251 171.133C310.251 171.133 307.52 173.638 307.407 174.777C307.179 175.916 304.903 177.852 304.79 178.535C304.79 179.104 304.562 180.243 303.879 180.926C303.197 181.61 303.083 182.748 303.083 183.204C303.083 183.432 303.083 185.026 302.173 185.481Z" fill="#BCAC0B" stroke="black" stroke-width="0.796785"/>
<path d="M299.3 181C299.395 180.411 299.643 179.857 300.019 179.394C300.395 178.932 300.887 178.576 301.444 178.363C302.001 178.15 302.605 178.088 303.194 178.182C303.783 178.276 304.337 178.524 304.8 178.9C304.8 179.4 304.4 180.4 303.8 180.9C303.2 181.6 303.1 182.7 303.1 183.2C303.105 183.835 302.931 184.458 302.6 185H302.1C301.65 184.928 301.22 184.766 300.834 184.524C300.448 184.283 300.114 183.966 299.853 183.593C299.592 183.22 299.409 182.798 299.314 182.353C299.218 181.907 299.214 181.447 299.3 181Z" fill="white"/>
<path d="M299.328 180.926C299.438 180.35 299.693 179.812 300.071 179.363C300.448 178.915 300.935 178.571 301.483 178.365C302.032 178.159 302.624 178.098 303.203 178.187C303.782 178.277 304.329 178.514 304.79 178.877C304.79 179.446 304.448 180.357 303.879 180.926C303.197 181.61 303.083 182.748 303.083 183.204C303.104 183.842 302.947 184.473 302.628 185.026H302.059C301.606 184.945 301.175 184.773 300.79 184.521C300.406 184.268 300.076 183.941 299.821 183.558C299.566 183.175 299.391 182.745 299.306 182.293C299.222 181.84 299.229 181.376 299.328 180.926Z" stroke="black" stroke-width="0.455306"/>
<path d="M300.8 181.3C300.898 180.958 301.085 180.648 301.343 180.402C301.6 180.156 301.919 179.983 302.265 179.902C302.612 179.82 302.974 179.833 303.314 179.938C303.654 180.043 303.96 180.237 304.2 180.5L303.9 180.9C303.2 181.6 303.1 182.7 303.1 183.2V183.4H302.4C301.3 183.4 300.7 182.3 300.9 181.2" fill="white"/>
<path d="M300.807 181.268C300.883 180.908 301.06 180.576 301.318 180.313C301.575 180.05 301.902 179.866 302.261 179.782C302.619 179.698 302.994 179.719 303.341 179.841C303.688 179.963 303.993 180.181 304.221 180.471L303.879 180.926C303.197 181.61 303.083 182.748 303.083 183.204V183.432H302.4C301.263 183.318 300.694 182.293 300.921 181.154L300.807 181.268Z" stroke="black" stroke-width="0.341479"/>
<path d="M202 184.6C202 184.6 203 182.3 204.9 183.2C206.7 184.2 206.5 184.5 208.3 184.5C208.3 184.5 209 182.5 208.3 181.5C208.3 181.5 211 180.7 211.7 178.3C211.7 178.3 210.4 176.5 206.8 176.9C206.8 176.9 207.1 175.2 206.6 174.4C206.6 174.4 202.8 175.4 202.7 177.4C202.7 177.4 204.1 173.4 202.3 170.4C202.3 170.4 200.5 171 200.5 172.8C200.5 172.8 199.9 169 194.8 169.8C194.8 169.8 197.4 172.4 197.4 173.5C197.4 174.6 199.7 176.7 199.7 177.4C199.706 178.312 200.024 179.194 200.6 179.9C201.3 180.6 201.3 181.7 201.1 182.2C201.1 182.4 201.1 184 202.1 184.5" fill="#FFCC00"/>
<path d="M202.048 184.57C202.048 184.57 202.958 182.293 204.893 183.204C206.713 184.229 206.485 184.456 208.306 184.456C208.306 184.456 208.989 182.407 208.306 181.496C208.306 181.496 211.037 180.699 211.719 178.307C211.719 178.307 210.354 176.485 206.827 176.941C206.827 176.941 207.054 175.233 206.599 174.435C206.599 174.435 202.845 175.346 202.731 177.396C202.731 177.396 204.096 173.411 202.276 170.336C202.276 170.336 200.455 171.019 200.455 172.841C200.455 172.841 199.886 168.969 194.766 169.767C194.766 169.767 197.383 172.386 197.383 173.524C197.383 174.663 199.659 176.713 199.659 177.396C199.659 177.966 199.886 179.218 200.569 179.901C201.252 180.585 201.252 181.723 201.138 182.179C201.138 182.407 201.138 184.001 202.048 184.456V184.57Z" fill="#BCAC0B" stroke="black" stroke-width="0.796785"/>
<path d="M205 180.1C204.894 179.552 204.655 179.039 204.304 178.605C203.953 178.172 203.5 177.831 202.986 177.614C202.473 177.396 201.913 177.309 201.357 177.359C200.802 177.409 200.267 177.594 199.8 177.9C199.8 178.4 200 179.3 200.6 179.9C201.3 180.6 201.3 181.7 201.1 182.2C201.1 182.4 201.1 183.3 201.6 184.2H202C202.467 184.153 202.92 184.009 203.329 183.778C203.738 183.547 204.095 183.233 204.377 182.857C204.658 182.482 204.859 182.051 204.967 181.594C205.074 181.137 205.085 180.662 205 180.2" fill="white"/>
<path d="M205.006 180.129C204.91 179.571 204.677 179.045 204.327 178.6C203.978 178.154 203.523 177.803 203.004 177.577C202.484 177.351 201.917 177.258 201.353 177.306C200.789 177.354 200.246 177.541 199.773 177.852C199.773 178.421 200 179.332 200.569 179.902C201.252 180.585 201.252 181.724 201.138 182.179C201.138 182.407 201.138 183.318 201.593 184.115H202.048C202.509 184.06 202.954 183.911 203.356 183.678C203.758 183.445 204.108 183.133 204.385 182.76C204.662 182.387 204.86 181.961 204.967 181.509C205.073 181.056 205.087 180.587 205.006 180.129Z" stroke="black" stroke-width="0.455306"/>
<path d="M203.5 180.4C203.429 180.042 203.261 179.71 203.015 179.44C202.768 179.171 202.453 178.974 202.103 178.871C201.752 178.768 201.381 178.763 201.027 178.856C200.674 178.949 200.354 179.137 200.1 179.4L200.6 179.9C201.3 180.6 201.3 181.7 201.1 182.2V182.4H201.9C202.9 182.4 203.6 181.4 203.5 180.4Z" fill="white"/>
<path d="M203.527 180.357C203.486 179.979 203.335 179.621 203.091 179.328C202.848 179.036 202.524 178.821 202.16 178.712C201.796 178.602 201.408 178.603 201.044 178.713C200.68 178.824 200.356 179.039 200.114 179.332L200.569 179.901C201.252 180.585 201.252 181.723 201.138 182.179V182.407H201.934C202.958 182.407 203.641 181.382 203.527 180.357Z" stroke="black" stroke-width="0.341479"/>
<path d="M207.737 205.409C207.737 205.409 246.194 190.378 294.663 205.751" stroke="black" stroke-width="1.7074"/>
<path d="M300.125 193.453C246.535 176.371 203.755 192.542 203.755 192.542" stroke="black" stroke-width="0.569132"/>
<path d="M251.9 189.7L247.6 191.9L251.4 194.2L256 192L251.9 189.7Z" fill="#FF0000"/>
<path d="M251.883 189.695L247.559 191.858L251.428 194.25L255.979 191.972L251.883 189.695Z" stroke="black" stroke-width="0.569132"/>
</g>
<defs>
<clipPath id="clip0_103_4920">
<rect width="512" height="512" fill="white" transform="translate(0.5)"/>
</clipPath>
</defs>
</svg>
