<svg width="513" height="512" viewBox="0 0 513 512" fill="none" xmlns="http://www.w3.org/2000/svg">
<g clip-path="url(#clip0_103_5108)">
<mask id="mask0_103_5108" style="mask-type:luminance" maskUnits="userSpaceOnUse" x="0" y="-1" width="513" height="513">
<path d="M0.347778 -0.0102005H512.156V511.798H0.347778V-0.0102005Z" fill="white"/>
</mask>
<g mask="url(#mask0_103_5108)">
<path fill-rule="evenodd" clip-rule="evenodd" d="M-237.408 3.5462H800.015V501.338H-237.513L-237.408 3.5462Z" fill="#FFC621"/>
<path fill-rule="evenodd" clip-rule="evenodd" d="M-239.5 342.346H799.387V511.798H-239.5V342.346Z" fill="#EF2118"/>
<path fill-rule="evenodd" clip-rule="evenodd" d="M-237.408 -0.0102005H800.015V179.902H-237.408V-0.0102005Z" fill="#298C08"/>
<path d="M262.384 371.676C321.797 371.676 369.961 323.512 369.961 264.1C369.961 204.687 321.797 156.523 262.384 156.523C202.972 156.523 154.808 204.687 154.808 264.1C154.808 323.512 202.972 371.676 262.384 371.676Z" fill="#006BC6"/>
<path fill-rule="evenodd" clip-rule="evenodd" d="M214.464 188.165L208.188 192.663L231.618 225.717L237.894 221.637L214.569 188.165H214.464ZM243.961 266.092L234.338 259.293L238.313 246.741L190.197 247.369L176.285 236.7L241.869 235.967L254.107 199.044L260.488 214.106L243.752 266.197L243.961 266.092ZM320.424 195.383L314.148 190.676L289.776 223.102L295.529 227.809L320.424 195.383ZM255.049 246.95L258.501 235.758H271.785L256.618 190.048L262.58 173.521L283.082 235.967L321.993 236.386L309.755 247.16L255.049 246.95ZM345.632 298.204L348.247 290.673L309.964 277.494L307.244 284.293L345.632 298.1V298.204ZM276.596 251.762L288.312 251.553L292.496 264.209L331.198 235.758L348.666 236.386L295.634 275.088L307.14 312.221L293.123 303.853L276.492 251.762H276.596ZM256.722 353.747L264.672 353.852L264.986 313.371L257.664 312.953L256.827 353.747H256.722ZM278.688 273.414L282.559 284.502L271.994 292.556L311.324 320.275L316.344 337.011L262.789 299.146L231.305 321.844L234.756 305.945L278.793 273.519L278.688 273.414ZM175.448 286.385L177.854 293.916L216.451 281.678L214.569 274.565L175.448 286.385ZM258.71 282.41L249.296 289.523L238.417 281.782L224.296 327.806L209.862 337.743L229.422 274.983L198.042 252.18L214.255 250.507L258.71 282.41Z" fill="#FFC621"/>
</g>
</g>
<defs>
<clipPath id="clip0_103_5108">
<rect width="512" height="512" fill="white" transform="translate(0.5)"/>
</clipPath>
</defs>
</svg>
