<svg width="513" height="512" viewBox="0 0 513 512" fill="none" xmlns="http://www.w3.org/2000/svg">
<g clip-path="url(#clip0_103_5120)">
<path d="M0.5 0H512.5V512H0.5V0Z" fill="#003399"/>
<path d="M256.5 81.4124L248.915 106.696L261.557 109.225L256.5 81.4124Z" fill="#FFCC00"/>
<path d="M256.5 81.4124L264.085 106.696L251.443 109.225L256.5 81.4124Z" fill="#FFCC00"/>
<path d="M280.546 98.8831L254.156 99.4824L255.658 112.287L280.546 98.8831Z" fill="#FFCC00"/>
<path d="M280.546 98.8831L258.844 113.91L252.533 102.668L280.546 98.8831Z" fill="#FFCC00"/>
<path d="M271.362 127.151L262.637 102.238L250.923 107.623L271.362 127.151Z" fill="#FFCC00"/>
<path d="M271.362 127.151L250.363 111.155L259.105 101.678L271.362 127.151Z" fill="#FFCC00"/>
<path d="M232.454 98.8831L258.844 99.4824L257.342 112.287L232.454 98.8831Z" fill="#FFCC00"/>
<path d="M232.454 98.8831L254.156 113.91L260.467 102.668L232.454 98.8831Z" fill="#FFCC00"/>
<path d="M241.638 127.151L250.363 102.238L262.077 107.623L241.638 127.151Z" fill="#FFCC00"/>
<path d="M241.638 127.151L262.637 111.155L253.895 101.678L241.638 127.151Z" fill="#FFCC00"/>
<path d="M256.5 384.82L248.915 410.104L261.557 412.632L256.5 384.82Z" fill="#FFCC00"/>
<path d="M256.5 384.82L264.085 410.104L251.443 412.632L256.5 384.82Z" fill="#FFCC00"/>
<path d="M280.546 402.291L254.156 402.89L255.658 415.694L280.546 402.291Z" fill="#FFCC00"/>
<path d="M280.546 402.291L258.844 417.318L252.533 406.076L280.546 402.291Z" fill="#FFCC00"/>
<path d="M271.362 430.559L262.637 405.645L250.923 411.031L271.362 430.559Z" fill="#FFCC00"/>
<path d="M271.362 430.559L250.363 414.562L259.105 405.086L271.362 430.559Z" fill="#FFCC00"/>
<path d="M232.454 402.291L258.844 402.89L257.342 415.694L232.454 402.291Z" fill="#FFCC00"/>
<path d="M232.454 402.291L254.156 417.318L260.467 406.076L232.454 402.291Z" fill="#FFCC00"/>
<path d="M241.638 430.559L250.363 405.645L262.077 411.031L241.638 430.559Z" fill="#FFCC00"/>
<path d="M241.638 430.559L262.637 414.562L253.895 405.086L241.638 430.559Z" fill="#FFCC00"/>
<path d="M104.796 233.116L97.2111 258.4L109.853 260.928L104.796 233.116Z" fill="#FFCC00"/>
<path d="M104.796 233.116L112.381 258.4L99.7395 260.928L104.796 233.116Z" fill="#FFCC00"/>
<path d="M128.843 250.587L102.452 251.186L103.954 263.991L128.843 250.587Z" fill="#FFCC00"/>
<path d="M128.843 250.587L107.14 265.614L100.829 254.372L128.843 250.587Z" fill="#FFCC00"/>
<path d="M119.658 278.855L110.933 253.942L99.2191 259.327L119.658 278.855Z" fill="#FFCC00"/>
<path d="M119.658 278.855L98.6597 262.858L107.401 253.382L119.658 278.855Z" fill="#FFCC00"/>
<path d="M80.7498 250.587L107.14 251.186L105.638 263.991L80.7498 250.587Z" fill="#FFCC00"/>
<path d="M80.7498 250.587L102.452 265.614L108.764 254.372L80.7498 250.587Z" fill="#FFCC00"/>
<path d="M89.9348 278.855L98.6598 253.942L110.373 259.327L89.9348 278.855Z" fill="#FFCC00"/>
<path d="M89.9347 278.855L110.933 262.858L102.191 253.382L89.9347 278.855Z" fill="#FFCC00"/>
<path d="M167.648 148.622L188.646 132.625L179.904 123.149L167.648 148.622Z" fill="#FFCC00"/>
<path d="M167.648 148.622L176.373 123.708L188.086 129.093L167.648 148.622Z" fill="#FFCC00"/>
<path d="M158.463 120.353L180.165 135.38L186.477 124.138L158.463 120.353Z" fill="#FFCC00"/>
<path d="M158.463 120.353L184.853 120.952L183.351 133.757L158.463 120.353Z" fill="#FFCC00"/>
<path d="M182.509 102.882L174.924 128.166L187.566 130.695L182.509 102.882Z" fill="#FFCC00"/>
<path d="M182.509 102.882L190.095 128.166L177.453 130.695L182.509 102.882Z" fill="#FFCC00"/>
<path d="M197.371 148.622L176.373 132.625L185.114 123.149L197.371 148.622Z" fill="#FFCC00"/>
<path d="M197.371 148.622L188.646 123.708L176.932 129.093L197.371 148.622Z" fill="#FFCC00"/>
<path d="M206.556 120.353L184.853 135.38L178.542 124.138L206.556 120.353Z" fill="#FFCC00"/>
<path d="M206.556 120.353L180.165 120.952L181.667 133.757L206.556 120.353Z" fill="#FFCC00"/>
<path d="M141.128 204.864L132.403 179.951L120.689 185.336L141.128 204.864Z" fill="#FFCC00"/>
<path d="M141.128 204.864L120.13 188.868L128.871 179.391L141.128 204.864Z" fill="#FFCC00"/>
<path d="M111.405 204.864L132.403 188.868L123.661 179.391L111.405 204.864Z" fill="#FFCC00"/>
<path d="M111.405 204.864L120.13 179.951L131.844 185.336L111.405 204.864Z" fill="#FFCC00"/>
<path d="M102.22 176.596L123.922 191.623L130.234 180.381L102.22 176.596Z" fill="#FFCC00"/>
<path d="M102.22 176.596L128.61 177.195L127.108 190L102.22 176.596Z" fill="#FFCC00"/>
<path d="M150.313 176.596L128.61 191.623L122.299 180.381L150.313 176.596Z" fill="#FFCC00"/>
<path d="M150.313 176.596L123.923 177.195L125.424 190L150.313 176.596Z" fill="#FFCC00"/>
<path d="M126.266 159.125L133.852 184.409L121.21 186.938L126.266 159.125Z" fill="#FFCC00"/>
<path d="M126.266 159.125L118.681 184.409L131.323 186.938L126.266 159.125Z" fill="#FFCC00"/>
<path d="M150.341 328.664L123.95 329.263L125.452 342.067L150.341 328.664Z" fill="#FFCC00"/>
<path d="M150.341 328.664L128.638 343.691L122.327 332.449L150.341 328.664Z" fill="#FFCC00"/>
<path d="M141.156 356.932L132.431 332.018L120.717 337.404L141.156 356.932Z" fill="#FFCC00"/>
<path d="M141.156 356.932L120.158 340.935L128.899 331.459L141.156 356.932Z" fill="#FFCC00"/>
<path d="M111.433 356.932L132.431 340.935L123.689 331.459L111.433 356.932Z" fill="#FFCC00"/>
<path d="M111.433 356.932L120.158 332.018L131.872 337.404L111.433 356.932Z" fill="#FFCC00"/>
<path d="M126.294 311.193L133.88 336.477L121.238 339.005L126.294 311.193Z" fill="#FFCC00"/>
<path d="M126.294 311.193L118.709 336.477L131.351 339.005L126.294 311.193Z" fill="#FFCC00"/>
<path d="M102.248 328.664L128.638 329.263L127.136 342.067L102.248 328.664Z" fill="#FFCC00"/>
<path d="M102.248 328.664L123.951 343.691L130.262 332.449L102.248 328.664Z" fill="#FFCC00"/>
<path d="M205.216 379.555L178.825 380.154L180.327 392.958L205.216 379.555Z" fill="#FFCC00"/>
<path d="M205.216 379.555L183.513 394.582L177.202 383.34L205.216 379.555Z" fill="#FFCC00"/>
<path d="M196.031 407.823L187.306 382.909L175.592 388.294L196.031 407.823Z" fill="#FFCC00"/>
<path d="M196.031 407.823L175.033 391.826L183.774 382.35L196.031 407.823Z" fill="#FFCC00"/>
<path d="M166.308 407.823L187.306 391.826L178.564 382.35L166.308 407.823Z" fill="#FFCC00"/>
<path d="M166.308 407.823L175.033 382.909L186.746 388.294L166.308 407.823Z" fill="#FFCC00"/>
<path d="M181.169 362.084L188.754 387.368L176.112 389.896L181.169 362.084Z" fill="#FFCC00"/>
<path d="M181.169 362.084L173.584 387.368L186.226 389.896L181.169 362.084Z" fill="#FFCC00"/>
<path d="M157.123 379.555L183.513 380.154L182.011 392.958L157.123 379.555Z" fill="#FFCC00"/>
<path d="M157.123 379.555L178.825 394.582L185.137 383.34L157.123 379.555Z" fill="#FFCC00"/>
<path d="M408.204 233.116L415.789 258.4L403.147 260.928L408.204 233.116Z" fill="#FFCC00"/>
<path d="M408.204 233.116L400.619 258.4L413.261 260.928L408.204 233.116Z" fill="#FFCC00"/>
<path d="M384.157 250.587L410.548 251.186L409.046 263.991L384.157 250.587Z" fill="#FFCC00"/>
<path d="M384.157 250.587L405.86 265.614L412.171 254.372L384.157 250.587Z" fill="#FFCC00"/>
<path d="M393.342 278.855L402.067 253.942L413.781 259.327L393.342 278.855Z" fill="#FFCC00"/>
<path d="M393.342 278.855L414.34 262.858L405.599 253.382L393.342 278.855Z" fill="#FFCC00"/>
<path d="M432.25 250.587L405.86 251.186L407.362 263.991L432.25 250.587Z" fill="#FFCC00"/>
<path d="M432.25 250.587L410.548 265.614L404.236 254.372L432.25 250.587Z" fill="#FFCC00"/>
<path d="M423.065 278.855L414.34 253.942L402.627 259.327L423.065 278.855Z" fill="#FFCC00"/>
<path d="M423.065 278.855L402.067 262.858L410.809 253.382L423.065 278.855Z" fill="#FFCC00"/>
<path d="M345.352 148.622L324.354 132.625L333.096 123.149L345.352 148.622Z" fill="#FFCC00"/>
<path d="M345.352 148.622L336.627 123.708L324.914 129.093L345.352 148.622Z" fill="#FFCC00"/>
<path d="M354.537 120.353L332.835 135.38L326.523 124.138L354.537 120.353Z" fill="#FFCC00"/>
<path d="M354.537 120.353L328.147 120.952L329.649 133.757L354.537 120.353Z" fill="#FFCC00"/>
<path d="M330.491 102.882L338.076 128.166L325.434 130.695L330.491 102.882Z" fill="#FFCC00"/>
<path d="M330.491 102.882L322.905 128.166L335.547 130.695L330.491 102.882Z" fill="#FFCC00"/>
<path d="M315.629 148.622L336.627 132.625L327.886 123.149L315.629 148.622Z" fill="#FFCC00"/>
<path d="M315.629 148.622L324.354 123.708L336.068 129.093L315.629 148.622Z" fill="#FFCC00"/>
<path d="M306.444 120.353L328.147 135.38L334.458 124.138L306.444 120.353Z" fill="#FFCC00"/>
<path d="M306.444 120.353L332.835 120.952L331.333 133.757L306.444 120.353Z" fill="#FFCC00"/>
<path d="M371.872 204.864L380.597 179.951L392.311 185.336L371.872 204.864Z" fill="#FFCC00"/>
<path d="M371.872 204.864L392.87 188.868L384.129 179.391L371.872 204.864Z" fill="#FFCC00"/>
<path d="M401.595 204.864L380.597 188.868L389.339 179.391L401.595 204.864Z" fill="#FFCC00"/>
<path d="M401.595 204.864L392.87 179.951L381.156 185.336L401.595 204.864Z" fill="#FFCC00"/>
<path d="M410.78 176.596L389.078 191.623L382.766 180.381L410.78 176.596Z" fill="#FFCC00"/>
<path d="M410.78 176.596L384.39 177.195L385.892 190L410.78 176.596Z" fill="#FFCC00"/>
<path d="M362.687 176.596L384.39 191.623L390.701 180.381L362.687 176.596Z" fill="#FFCC00"/>
<path d="M362.687 176.596L389.077 177.195L387.576 190L362.687 176.596Z" fill="#FFCC00"/>
<path d="M386.734 159.125L379.148 184.409L391.79 186.938L386.734 159.125Z" fill="#FFCC00"/>
<path d="M386.734 159.125L394.319 184.409L381.677 186.938L386.734 159.125Z" fill="#FFCC00"/>
<path d="M362.659 328.664L389.05 329.263L387.548 342.067L362.659 328.664Z" fill="#FFCC00"/>
<path d="M362.659 328.664L384.362 343.691L390.673 332.449L362.659 328.664Z" fill="#FFCC00"/>
<path d="M371.844 356.932L380.569 332.018L392.283 337.404L371.844 356.932Z" fill="#FFCC00"/>
<path d="M371.844 356.932L392.842 340.935L384.101 331.459L371.844 356.932Z" fill="#FFCC00"/>
<path d="M401.567 356.932L380.569 340.935L389.311 331.459L401.567 356.932Z" fill="#FFCC00"/>
<path d="M401.567 356.932L392.842 332.018L381.128 337.404L401.567 356.932Z" fill="#FFCC00"/>
<path d="M386.706 311.193L379.12 336.477L391.762 339.005L386.706 311.193Z" fill="#FFCC00"/>
<path d="M386.706 311.193L394.291 336.477L381.649 339.005L386.706 311.193Z" fill="#FFCC00"/>
<path d="M410.752 328.664L384.362 329.263L385.864 342.067L410.752 328.664Z" fill="#FFCC00"/>
<path d="M410.752 328.664L389.049 343.691L382.738 332.449L410.752 328.664Z" fill="#FFCC00"/>
<path d="M307.784 379.555L334.175 380.154L332.673 392.958L307.784 379.555Z" fill="#FFCC00"/>
<path d="M307.784 379.555L329.487 394.582L335.798 383.34L307.784 379.555Z" fill="#FFCC00"/>
<path d="M316.969 407.823L325.694 382.909L337.408 388.294L316.969 407.823Z" fill="#FFCC00"/>
<path d="M316.969 407.823L337.967 391.826L329.226 382.35L316.969 407.823Z" fill="#FFCC00"/>
<path d="M346.692 407.823L325.694 391.826L334.436 382.35L346.692 407.823Z" fill="#FFCC00"/>
<path d="M346.692 407.823L337.967 382.909L326.254 388.294L346.692 407.823Z" fill="#FFCC00"/>
<path d="M331.831 362.084L324.246 387.368L336.888 389.896L331.831 362.084Z" fill="#FFCC00"/>
<path d="M331.831 362.084L339.416 387.368L326.774 389.896L331.831 362.084Z" fill="#FFCC00"/>
<path d="M355.877 379.555L329.487 380.154L330.989 392.958L355.877 379.555Z" fill="#FFCC00"/>
<path d="M355.877 379.555L334.175 394.582L327.863 383.34L355.877 379.555Z" fill="#FFCC00"/>
</g>
<defs>
<clipPath id="clip0_103_5120">
<rect width="512" height="512" fill="white" transform="translate(0.5)"/>
</clipPath>
</defs>
</svg>
