<svg width="513" height="512" viewBox="0 0 513 512" fill="none" xmlns="http://www.w3.org/2000/svg">
<g clip-path="url(#clip0_103_5345)">
<path d="M0.5 0V512H512.5V0.2H322.5V0H0.5Z" fill="#68BFE5"/>
<path d="M310.7 254V390.4C310.7 435 391.3 461.5 391.3 461.5C391.3 461.5 471.9 435 471.9 390.5V254H310.7Z" fill="white"/>
<path d="M380.1 302V363.4H310.7V385.7H380.2V457.2L391.3 461.5L402.5 457.2V385.7H471.9V363.4H402.5V302H380.1Z" fill="#D21034"/>
<path d="M310.7 254H471.9V306.7H310.7V254Z" fill="#D21034"/>
<path d="M323.591 293.5C328.585 293.5 332.633 290.225 332.633 286.186C332.633 282.147 328.585 278.873 323.591 278.873C318.597 278.873 314.549 282.147 314.549 286.186C314.549 290.225 318.597 293.5 323.591 293.5Z" fill="white" stroke="black" stroke-width="0.531888" stroke-miterlimit="3"/>
<path d="M323.591 286.452C328.034 286.452 331.636 284.636 331.636 282.396C331.636 280.157 328.034 278.341 323.591 278.341C319.148 278.341 315.546 280.157 315.546 282.396C315.546 284.636 319.148 286.452 323.591 286.452Z" fill="white" stroke="black" stroke-width="0.531888" stroke-miterlimit="3"/>
<path d="M323.591 294.63C328.034 294.63 331.636 292.814 331.636 290.574C331.636 288.334 328.034 286.519 323.591 286.519C319.148 286.519 315.546 288.334 315.546 290.574C315.546 292.814 319.148 294.63 323.591 294.63Z" fill="white" stroke="black" stroke-width="0.531888" stroke-miterlimit="3"/>
<path d="M323.591 290.242C328.034 290.242 331.636 288.426 331.636 286.186C331.636 283.946 328.034 282.13 323.591 282.13C319.148 282.13 315.546 283.946 315.546 286.186C315.546 288.426 319.148 290.242 323.591 290.242Z" fill="white" stroke="black" stroke-width="0.531888" stroke-miterlimit="3"/>
<path d="M467.9 296.3L466.6 292.6C466.6 292.6 463 291.2 462.7 289.2C462.1 284.2 460.2 282.2 457.5 281.5C456.745 281.26 455.949 281.171 455.16 281.24C454.37 281.308 453.602 281.533 452.9 281.9C452.1 283.1 448 283.1 445.7 283.2C443.4 283.3 443.4 282.2 443.4 282.2C442.907 282.214 442.419 282.102 441.981 281.874C441.544 281.647 441.172 281.311 440.9 280.9C439.7 278.6 438.9 277.7 438.3 277.5C441.3 277.5 443.5 276.1 446.8 272.6C450.5 268.8 453.1 270.3 453.1 270.3C451.3 273.8 453.7 273.5 453.7 273.5C458.5 271.1 454.3 264.8 452.8 265.1C451.4 265.4 451 264.4 451 264.4C451 265.5 449.3 266 449.3 266C450.6 258.9 446.3 257 446.3 257C445.7 257.6 445.3 259 445.3 259C444.2 263.2 440.3 262.6 435.9 260.5C431.5 258.4 419.8 262.7 416.1 264.1C412.5 265.6 405.8 267.9 399.8 264.5C393.8 261.1 392.3 261.7 389.9 262.4C387.5 263 383.3 264 381.8 263.2C380.742 262.666 379.583 262.36 378.4 262.3C378.9 262.1 378.2 261.1 378.2 261.1C376.4 258.6 378.4 257.1 378.4 257.1C378.4 257.1 375.1 258.1 376.4 263.9L377 264.8C377 264.8 377.5 266.6 378.5 267.1V267.5C378.5 267.5 379.3 267.1 379.5 268.3C379.9 269.5 381.1 268.4 381.7 267.4C381.7 267.4 380.7 272.7 387.3 274C387.3 274 386.6 273.2 386.9 272.6C387.2 272.1 386.1 271.6 386.2 270.8C386.2 270 384.5 269.6 385.9 269C387.3 268.3 387.9 267 390.9 268.8C393.7 270.5 396 270.1 396 270.1C396 270.1 394.2 266.5 395.2 266.5C396.2 266.5 400.6 272 402.8 271.7C405 271.4 409.2 269 411.3 269.9C411.3 269.9 411.5 268.8 419.5 267.4C427.5 266 437.5 262 441.2 265.5C441.2 265.5 441.6 268.3 443.2 269C443.2 269 442.9 274.8 432.9 271.6L429.3 270.6C429.3 270.6 428.8 268.9 409.8 273.8C409.8 273.8 408.8 274.2 408 274.8C407.3 275.3 406.3 274.4 402.5 275.8C398.7 277.2 384.8 281.8 376.2 280.1C374.3 279.6 372.5 279.8 372.5 279.6C372.4 279.2 373.5 279.6 373.5 279.6C372.8 278.9 372.5 278.8 372.5 278.8C365.3 278.1 366.6 274.8 366.6 274.8L367 275.8C368.2 274.3 366.5 270.6 366.5 270.6C366.471 270.499 366.437 270.399 366.4 270.3L367 269.9C370.5 266.9 374.5 266.4 374.5 266.4C372.1 263.4 367.1 265 367.1 265C367.1 261.5 365.7 257.4 365.7 257.4C360.7 257.9 357.9 262 357.9 262C357.8 258.4 353.1 256.3 353.1 256.3C354.8 258.3 353.7 263.3 353.7 263.3L353.9 263.5H353.5L353.4 264.5H353.2C353.2 264.5 351.5 265.1 349.4 269.7C349.4 269.7 349.2 270.7 348.4 271.7V271.4C348.4 271.4 346.2 274.4 341 271.4C341 271.4 334 267.2 331.5 267.4C329 267.5 327.4 268.7 327.5 269.4C327.5 269.4 321.9 268.9 320 272.1C320 272.1 315.7 273.7 319.4 277.1C319.4 277.1 319.8 278.7 320.9 279.5C320.9 279.5 320.7 276.3 321.5 277.3C321.5 277.3 321.7 277.6 322.1 277.8C322.1 278.2 322.5 279.5 323.3 280.1L323.8 279.9C323.874 279.149 324.042 278.409 324.3 277.7H324.5L324.4 277.8L325.4 279.3L326.5 278.7C327.1 278.7 327.8 279.2 327.8 279.2L329.1 278.2V278.1C330.4 278.3 330.7 275.8 330.7 275.8C331.245 275.93 331.812 275.944 332.364 275.84C332.915 275.737 333.438 275.519 333.9 275.2C334.5 277.2 339.1 279.5 339.1 279.5H339.3L338.7 279.9C340.7 281.4 344.7 281 344.7 281C343.1 281.7 343.3 284.7 343.3 284.7C342.3 285.1 342.3 286 342.3 286C345.4 287.3 347.6 286.3 347.6 286.3C347.8 287.3 347.6 287.4 347.6 287.4C346.3 290.1 345.7 292.8 345.7 292.8V293C345.7 293 340.1 295 337.7 297.7C337.7 297.7 337.4 296.9 336.7 296.9C336 296.9 333.8 295.1 332.8 294.9C331.8 294.5 330.3 295.1 329.9 294.7C329.6 294.2 329.8 291.1 329.1 290.6L328.4 288.6C327.9 289.6 326 289.4 326 289.4C325.729 289.594 325.462 289.794 325.2 290L324.4 289.9C324.2 289.9 324 290.5 323.8 291C323.732 291.066 323.666 291.133 323.6 291.2V290.6C323.2 290.9 322.4 290.5 322.1 290.5L321.6 291.4L319.8 291.6C319.5 291.7 319.8 294.1 319.8 294.1C317.5 295.4 318.6 297.2 318.6 297.2C319.8 303.2 330.1 300.6 330.9 301.3C331.6 302.1 333.4 302.3 334.4 302.3C335.3 302.3 336.4 304.5 337.8 304.7C339.1 305 337.8 303 343.8 301.5C350 300 352 297.5 352 297.5C354 297.2 354.5 294.8 354.6 293.9L354.7 295.4C355 297.4 353.6 298.2 353.6 298.2L358.8 296.6C360.9 296.1 360.7 294.3 360.7 294.3C362.7 300 366.3 300.3 366.3 300.3C367.1 298.2 367 297.5 367 297.5H368.6C368.6 296.2 367.6 295.3 367 294.9L369.5 296.5L370.5 296.3C370.5 297.2 371.9 298 371.9 298L372.1 296.8C373.3 298.4 375.5 297.8 375.5 297.8C375.448 297.53 375.381 297.263 375.3 297C380 299.9 387.4 296.2 387.4 296.2C389.4 296.6 389.7 295.4 389.7 295.4C392 295.7 392.5 294.2 392.5 294.2C397.9 293.7 401.7 289.9 401.7 289.9C404.3 289.7 404.4 287.9 404.4 287.9C404.4 287.9 407.1 288.3 409.6 285.1C415.6 276.6 424.4 281.1 424.4 281.1L419.4 281.4C405.9 281.3 411.4 290.4 411.4 290.4H412.3C413.6 290.6 417.9 294.1 416.3 296.7V296.8C413.5 300.5 408.4 297 407 293.8C405.5 290.6 402.6 291.3 402.6 291.3C402.6 291.3 395 292.6 398.1 298.6H398.2C398.3 300.1 399.2 301.8 401.9 303.5C403.4 305.6 408.4 305.8 412.1 305C413.8 304.7 422.8 300.8 422.8 300.8C423.5 298.8 425.8 299.3 427.8 296.5C429.8 293.6 424.8 292.6 423.8 291.1C422.7 289.5 424.1 289.8 424.1 289.8C428.4 292.2 428.8 284.6 428.8 284.6C428.913 285.845 429.377 287.032 430.138 288.023C430.899 289.015 431.926 289.77 433.1 290.2C435.5 287.8 433.7 282.9 433.7 282.9C439.4 293.1 442.9 291.5 442.9 291.5C439.8 289.5 441.3 287 441.3 287C444.1 297.8 455.3 288.4 455.3 288.4C454.8 290 455.3 290.9 456.3 291.9C457.3 292.9 458.5 293.3 458 295.2C457.4 297 452.2 296.6 452.2 296.6C452.2 296.6 447.1 296.4 447.6 300.6C447.8 301.6 451.2 302 452.5 301.8C452.5 301.8 452 301.8 453.8 302.1L456 302.2C458.2 302.2 460.5 301.8 460.5 301.8C463.5 301.1 463 300.1 463 300.1C467.5 299.3 468 296.3 468 296.3H467.9Z" fill="#FFD100" stroke="black" stroke-width="0.8" stroke-miterlimit="3"/>
<path d="M319.5 277.6C319.5 277.6 319.7 277 320.2 276.9C320.5 276.9 321 277.1 321.4 277.7L321.6 277.5C321.6 277.5 320.4 275.7 320.9 274.5C321.1 274 321.7 273.5 322.5 273.5V273.1C321.5 273.3 320.9 273.7 320.6 274.4C320.513 274.657 320.478 274.929 320.5 275.2C320.5 275.8 320.7 276.4 320.9 276.8C320.669 276.632 320.382 276.56 320.1 276.6C319.7 276.7 319.4 277 319.3 277.2L319.5 277.6ZM460.5 301.5C457.5 302 452.9 302.2 452.5 301.3C452.5 301.2 452.5 300.5 455 298.9L454.7 298.4C452.7 299.8 451.7 300.8 452.1 301.5C452.7 303.2 459.3 302.2 460.6 302L460.5 301.5ZM402.1 303.3C401.4 302.2 401.7 300.7 403.1 298.9L402.6 298.6C401.1 300.6 400.8 302.3 401.6 303.6L402.1 303.3Z" fill="black"/>
<path d="M398 298.7C398 300.5 399.3 302.2 401.8 303.7L402.1 303.3C399.8 301.9 398.6 300.3 398.5 298.6C398.5 296.1 401.1 294.2 401.1 294.1L400.8 293.7C400.7 293.7 397.8 295.8 398 298.7ZM450 299.3C449.2 300.6 449.5 302.1 449.5 302.1H450C450 302.1 449.8 300.7 450.5 299.6C450.736 299.277 451.035 299.004 451.379 298.798C451.722 298.592 452.103 298.456 452.5 298.4V297.9C451.4 298.1 450.5 298.6 450 299.3ZM330.8 276H330.6V276.1C330.6 276.1 330.3 277.7 329.6 278.1C329.499 278.169 329.383 278.214 329.262 278.232C329.14 278.249 329.016 278.238 328.9 278.2L327.7 277.5C327.4 277.2 327.2 277.1 326.9 277.2C326.602 276.836 326.458 276.369 326.5 275.9C326.6 275.1 327.1 274.4 328 273.8L327.9 273.5C326.9 274.2 326.3 275 326.2 275.8C326.1 276.8 326.6 277.4 326.7 277.5H326.8C327.1 277.4 327.2 277.5 327.5 277.7L328.8 278.5H329.8C330.5 278 330.8 276.6 330.8 276.3C334.1 277 336.8 273 336.8 272.9L336.6 272.7C336.6 272.7 333.9 276.7 330.8 276Z" fill="black"/>
<path d="M323 275.4C322.8 276 323 276.7 323.3 277.3C323.7 277.9 324 278.2 324.4 278.3C324.9 278.3 325.2 278 325.5 277.7C325.7 277.4 326 277.2 326.1 277.3L326.4 277.5L326.7 277.3L326.2 277C325.9 277 325.6 277.2 325.3 277.4C325 277.7 324.7 278 324.4 277.9C324.2 277.9 323.9 277.6 323.6 277.1C323.438 276.852 323.328 276.573 323.276 276.281C323.225 275.988 323.233 275.689 323.3 275.4C323.6 274 325.3 272.9 325.3 272.9V272.7C325.2 272.7 323.3 273.7 323 275.4ZM318.5 296C318.7 295.4 319.1 295 319.8 294.6C319.7 294.6 320.5 295.3 321.2 295.2L321.6 295C321.8 295.1 323 296.2 323 297.6C323 297.9 323 298.2 322.8 298.5L323.1 298.6C324.1 296.6 321.8 294.6 321.8 294.6H321.6L321.1 294.9C320.6 294.9 319.9 294.3 319.8 294.3C318.9 294.7 318.4 295.3 318.2 295.9L318.5 296ZM328.9 290.7C328.2 290.7 326.3 291.1 325.7 292C325.5 292.4 325.5 292.8 325.7 293.2L325.9 293.9C326.5 295.4 327.1 297 327.7 297.4L327.9 297.1C327.3 296.8 326.7 295.1 326.2 293.7L325.9 293.1C325.83 292.96 325.793 292.806 325.793 292.65C325.793 292.494 325.83 292.34 325.9 292.2C326.5 291.4 328.1 291 328.9 291C329.3 291 329.4 292.5 329.5 293.5H329.8C329.8 292 329.6 290.6 328.8 290.7H328.9Z" fill="black"/>
<path d="M323.8 292.2C323.679 292.313 323.589 292.455 323.536 292.612C323.484 292.769 323.472 292.937 323.5 293.1C323.5 293.2 323.6 297.1 325.5 297.9L325.6 297.6C323.9 296.9 323.8 293.1 323.8 293.1C323.8 293.1 323.7 292.7 324 292.4C324.2 292.2 324.8 292.2 325.6 292.4V292.1C324.8 291.8 324.1 291.9 323.8 292.2Z" fill="black"/>
<path d="M322.3 292.5C321.5 293.1 321.5 294.7 321.5 294.8H321.8C321.8 294.8 321.8 293.2 322.5 292.8C322.7 292.6 323.1 292.6 323.5 292.8V292.5C323.1 292.3 322.6 292.3 322.3 292.5Z" fill="black"/>
<path d="M366.209 271.094C366.209 271.094 367.073 273.088 367.073 274.618C367.073 274.883 366.94 275.083 366.874 275.282L366.541 274.418L366.342 275.083C366.342 275.083 365.943 276.014 366.541 277.011C367.339 278.341 369.334 279.139 372.525 279.471V279.537C372.432 279.536 372.34 279.559 372.259 279.604L372.126 279.737V280.003C372.259 280.335 372.591 280.335 373.323 280.335L373.788 280.402L374.187 280.535L374.121 280.468C374.785 280.468 375.65 280.668 376.514 281L375.849 281.133L376.581 281.466C376.647 281.466 382.365 283.793 384.692 285.654C384.027 286.253 381.168 288.314 376.248 287.117L375.45 286.917L375.982 287.582C375.982 287.582 379.24 291.306 379.905 293.566C378.775 293.566 374.453 293.566 372.924 292.236L372.591 292.569C372.591 292.569 374.586 295.627 375.118 297.954C374.453 298.087 373.123 298.154 372.259 297.023L371.86 296.558L371.661 297.888C371.262 297.555 370.73 297.156 370.73 296.624V296.358L369.533 296.558L367.007 295.029C366.878 294.934 366.745 294.845 366.608 294.763L366.342 295.228L366.741 295.428C367.272 295.827 368.203 296.558 368.27 297.622H366.674V297.954C366.674 298.154 366.674 298.885 366.076 300.414C365.344 300.281 362.552 299.284 360.89 294.563L360.358 294.696V294.829C360.358 295.295 360.225 296.358 358.762 296.757L354.441 298.087C354.819 297.543 355.007 296.888 354.973 296.225V295.694C354.891 295.121 354.847 294.543 354.84 293.965C354.84 292.968 355.039 292.369 355.77 291.97L355.504 291.438C355.438 291.438 349.122 294.031 345.997 292.968C346.13 292.303 346.662 290.175 347.726 287.915L347.593 288.048C347.792 287.915 347.992 287.649 347.792 286.585V286.253L347.46 286.386C347.46 286.386 345.465 287.316 342.54 286.253C342.54 285.987 342.739 285.588 343.338 285.322L343.537 285.255V284.723C343.537 283.926 343.603 282.064 344.734 281.665L344.601 281.133C344.601 281.133 341.21 281.399 339.149 280.269C340.039 279.629 341.061 279.197 342.141 279.006H342.34V278.74C342.331 278.213 342.219 277.693 342.008 277.21C342.806 277.476 343.736 277.676 344.069 277.41L344.202 277.343L344.069 275.282H343.537L343.603 277.011L341.609 276.546L340.811 276.28L341.343 276.945C341.665 277.413 341.828 277.972 341.808 278.54C340.602 278.801 339.467 279.323 338.484 280.069L338.152 280.335L338.484 280.535C340.08 281.599 342.54 281.732 343.803 281.665C343.237 282.56 342.937 283.598 342.939 284.657V284.923C342.674 285.077 342.447 285.289 342.275 285.542C342.102 285.795 341.988 286.083 341.941 286.386V286.585L342.074 286.651C343.723 287.41 345.595 287.529 347.327 286.984V287.582C345.997 290.375 345.332 293.101 345.332 293.101V293.367H345.532C348.125 294.43 352.646 293.034 354.707 292.303C354.441 292.768 354.241 293.3 354.241 293.965C354.249 294.722 354.316 295.478 354.441 296.225C354.441 297.755 353.443 298.353 353.377 298.353L353.576 298.885L358.895 297.289C360.092 296.957 360.557 296.225 360.757 295.627C362.818 300.547 366.076 300.946 366.275 301.012H366.475L366.541 300.813C366.893 299.964 367.117 299.068 367.206 298.154C367.738 298.133 368.27 298.111 368.802 298.087V297.755C368.802 297.289 368.735 296.89 368.536 296.558L369.467 297.09L370.331 296.957C370.53 297.821 371.594 298.552 371.727 298.619L372.059 298.818L372.259 297.688C373.589 298.818 375.384 298.486 375.517 298.486L375.716 298.42V298.154C375.45 296.358 374.254 294.231 373.522 293.101C375.849 294.164 380.104 294.098 380.304 294.098H380.57V293.766C379.694 291.566 378.433 289.54 376.846 287.782C382.298 288.779 385.224 285.92 385.357 285.787L385.556 285.588L385.29 285.455C382.901 283.747 380.311 282.34 377.578 281.266L378.176 281.133L377.511 280.801C376.317 280.191 374.996 279.872 373.655 279.87C372.99 279.072 372.658 279.006 372.591 278.939C368.868 278.54 367.538 277.543 367.007 276.745V276.546L367.14 276.346C367.472 275.881 367.605 275.282 367.605 274.618C367.605 272.889 366.741 270.961 366.741 270.894L366.209 271.094Z" fill="black"/>
<path d="M349.255 270.03C349.255 270.03 348.856 272.025 347.127 273.022C345.798 273.687 344.135 273.687 342.074 272.822L341.808 272.756V273.022C341.957 273.878 342.434 274.641 343.138 275.149C344.002 275.814 345.332 276.08 347.061 275.947C346.462 276.612 344.667 278.873 344.667 281.133V281.466C344.933 281.599 347.726 282.396 349.055 280.734C349.055 281.399 349.321 283.726 350.186 284.59C350.717 285.122 350.85 285.787 350.85 286.386C350.85 286.917 350.717 287.316 350.717 287.316L350.585 287.715L350.917 287.449C351.05 287.383 353.643 285.455 354.441 282.995C354.441 282.995 354.906 282.33 355.704 282.13V282.463C355.704 283.46 356.103 285.189 358.895 286.253L359.095 286.319V286.12C359.087 285.965 359.087 285.809 359.095 285.654C359.095 284.923 359.095 283.66 359.826 282.995C360.121 282.721 360.318 282.36 360.39 281.964C360.462 281.569 360.404 281.16 360.225 280.801C360.823 280.934 362.153 281.399 362.685 282.396C363.483 283.859 366.209 282.662 366.342 282.662L366.275 282.33C366.275 282.33 365.078 282.596 364.347 282.13C364.194 282.01 364.067 281.86 363.976 281.688C363.884 281.516 363.829 281.327 363.815 281.133L363.682 279.538C363.682 278.873 363.549 278.407 363.217 278.075C363.549 278.075 364.281 278.075 364.547 278.74C365.078 279.803 366.741 279.87 366.807 279.87L367.405 279.936L366.94 279.604C366.94 279.604 365.477 278.673 365.743 277.41L365.943 276.479C366.342 274.817 367.007 272.091 366.408 270.362L366.142 270.495C366.275 270.894 366.342 271.426 366.342 271.958C366.342 273.421 365.876 275.282 365.677 276.413L365.411 277.343C365.4 277.454 365.4 277.565 365.411 277.676C365.411 278.54 365.876 279.139 366.275 279.471C365.81 279.405 365.145 279.139 364.946 278.607C364.48 277.676 363.416 277.676 362.951 277.742L362.552 277.809L362.818 278.075C363.283 278.341 363.35 278.74 363.35 279.604L363.483 281.133C363.549 281.665 363.815 282.064 364.148 282.33C364.547 282.596 364.946 282.596 365.278 282.662C364.48 282.862 363.35 282.995 362.951 282.263C362.22 280.801 360.092 280.468 360.026 280.402H359.693L359.826 280.668C359.826 280.668 360.092 281.067 360.092 281.599C360.092 281.931 359.959 282.396 359.627 282.729C358.895 283.46 358.762 284.856 358.762 285.588V285.854C356.369 284.856 355.97 283.394 355.97 282.529V281.865L356.103 281.665H355.837C355.487 281.725 355.155 281.863 354.867 282.071C354.579 282.278 354.342 282.549 354.175 282.862C353.514 284.487 352.436 285.909 351.05 286.984C351.088 286.764 351.11 286.542 351.116 286.319C351.116 285.721 350.983 284.989 350.452 284.391C349.454 283.46 349.321 280.402 349.321 280.402V279.87L349.055 280.335C347.992 282.197 344.933 281.266 344.867 281.266C344.734 278.939 347.526 275.881 347.526 275.814L347.792 275.548H347.393C345.598 275.814 344.202 275.548 343.271 274.883C342.743 274.462 342.368 273.878 342.207 273.221C344.202 273.953 345.93 274.019 347.26 273.288C347.835 272.939 348.332 272.475 348.721 271.926C349.11 271.378 349.382 270.755 349.521 270.096C351.515 265.708 353.177 264.977 353.177 264.977L353.111 264.711C352.978 264.711 351.249 265.376 349.255 270.03Z" fill="black"/>
<path d="M353.709 263.448H353.576L351.981 265.642H352.446C357.407 266.033 362.06 268.205 365.544 271.759L365.743 271.958L367.272 270.296L367.14 270.096C362.818 263.315 353.776 263.448 353.643 263.448H353.709ZM353.842 264.046C354.906 264.046 362.618 264.246 366.608 270.229L365.743 271.16C362.236 267.827 357.724 265.746 352.911 265.243C353.221 264.844 353.531 264.445 353.842 264.046Z" fill="black"/>
<path d="M352.446 267.969C351.73 268.905 351.252 270 351.05 271.16L351.116 271.426C350.654 271.911 350.298 272.486 350.069 273.115C349.84 273.745 349.744 274.415 349.787 275.083C349.787 275.947 349.92 276.812 350.186 277.609L350.385 278.075C351.183 280.335 351.914 282.33 355.571 281.133C359.028 280.069 359.161 279.803 360.026 278.341L360.292 278.008C360.757 277.21 361.289 277.078 361.821 276.878C362.486 276.679 363.15 276.479 363.815 275.282L364.347 274.418C365.012 273.554 365.81 272.424 365.876 271.094H365.61C365.412 272.248 364.907 273.327 364.148 274.219L363.483 275.149C363.338 275.517 363.104 275.843 362.802 276.098C362.501 276.353 362.141 276.53 361.754 276.612C361.398 276.68 361.061 276.821 360.763 277.027C360.465 277.234 360.214 277.5 360.026 277.809L359.76 278.208C358.962 279.604 358.829 279.803 355.438 280.867C352.114 281.931 351.449 280.269 350.651 277.942L350.452 277.476C349.521 274.95 350.252 272.424 351.515 271.493L351.914 271.16L351.316 271.227V271.16C351.316 270.695 351.781 269.432 352.646 268.168C353.443 267.105 355.305 266.107 355.305 266.041L355.172 265.775C355.039 265.841 353.244 266.905 352.446 267.969Z" fill="black"/>
<path d="M350.85 277.21C351.449 277.609 352.247 277.543 353.31 277.21C353.31 277.543 353.31 278.341 353.975 278.873C354.773 279.537 355.97 279.67 357.632 279.272V278.939C356.036 279.338 354.84 279.205 354.175 278.607C353.963 278.401 353.8 278.152 353.697 277.876C353.593 277.6 353.552 277.305 353.576 277.011V276.745L353.377 276.878C352.38 277.277 351.582 277.343 350.983 276.878C349.986 276.213 350.053 274.418 350.053 274.418H349.787C349.787 274.418 349.654 276.413 350.85 277.21Z" fill="black"/>
<path d="M352.712 274.751C352.313 274.883 352.18 275.216 352.18 275.482V275.681C352.313 276.479 353.178 277.011 353.909 277.21C354.707 277.41 355.638 277.476 355.97 277.011C356.103 276.812 356.236 276.479 355.97 275.881C355.684 275.32 355.193 274.89 354.6 274.679C354.006 274.469 353.354 274.495 352.779 274.751H352.712ZM354.042 276.945C353.377 276.745 352.579 276.28 352.513 275.615C352.513 275.615 352.446 275.149 352.845 275.016C353.359 274.808 353.932 274.802 354.45 274.999C354.969 275.197 355.393 275.583 355.638 276.08C355.837 276.346 355.837 276.612 355.704 276.745C355.505 277.078 354.773 277.144 354.042 276.945ZM353.776 278.74C353.577 280.402 353.776 280.468 353.842 280.468H353.975L354.108 280.402L355.039 279.072L353.842 278.54V278.74H353.776ZM354.108 279.006L354.574 279.205L354.042 279.936V279.006H354.108ZM351.316 277.41L351.25 278.939L352.579 277.343L351.25 277.21V277.41H351.316ZM351.582 277.543H351.981L351.582 278.075V277.543Z" fill="black"/>
<path d="M350.385 276.878C350.385 276.878 351.382 278.806 351.582 279.538C351.648 279.936 352.247 280.468 352.912 280.668C353.576 280.934 354.241 280.934 354.707 280.601L355.571 279.87C355.837 279.538 355.97 279.471 356.236 279.538V279.205C355.837 279.205 355.637 279.338 355.372 279.604L354.507 280.269C353.975 280.668 353.377 280.535 353.045 280.402C352.38 280.202 351.914 279.737 351.848 279.405C351.648 278.74 350.718 276.812 350.651 276.745L350.385 276.878ZM351.715 271.16C350.965 271.555 350.394 272.221 350.119 273.022L350.385 273.088C350.385 273.088 350.85 271.892 351.781 271.426C352.032 271.312 352.304 271.253 352.579 271.253C352.854 271.253 353.126 271.312 353.377 271.426L353.443 271.16C352.779 270.894 352.247 270.894 351.648 271.16H351.715ZM358.895 274.618C359.028 274.618 361.023 276.213 359.893 278.075L360.092 278.274C361.422 276.08 359.095 274.352 359.095 274.285L358.895 274.618ZM352.779 274.883C352.779 274.883 352.446 276.014 354.108 276.413C354.108 276.413 352.579 276.413 352.446 276.014C352.38 275.615 352.446 274.751 352.779 274.883ZM357.765 276.213C357.765 276.346 357.632 276.413 357.566 276.413C357.522 276.415 357.48 276.403 357.444 276.379C357.408 276.356 357.38 276.32 357.366 276.28C357.366 276.147 357.433 276.08 357.566 276.08C357.632 276.08 357.765 276.147 357.765 276.28V276.213ZM357.898 277.011C357.898 277.078 357.898 277.144 357.765 277.144C357.722 277.146 357.679 277.135 357.643 277.111C357.607 277.087 357.58 277.052 357.566 277.011C357.566 276.958 357.587 276.907 357.624 276.87C357.661 276.833 357.712 276.812 357.765 276.812C357.832 276.812 357.898 276.878 357.898 277.011Z" fill="black"/>
<path d="M356.701 276.812C356.811 276.812 356.901 276.722 356.901 276.612C356.901 276.502 356.811 276.413 356.701 276.413C356.591 276.413 356.502 276.502 356.502 276.612C356.502 276.722 356.591 276.812 356.701 276.812Z" fill="black"/>
<path d="M357.233 277.676C357.233 277.729 357.212 277.78 357.175 277.817C357.137 277.854 357.087 277.875 357.034 277.875C356.981 277.875 356.93 277.854 356.893 277.817C356.855 277.78 356.834 277.729 356.834 277.676C356.834 277.609 356.901 277.543 357.034 277.543L357.233 277.676ZM352.513 272.822C352.513 272.875 352.492 272.926 352.454 272.963C352.417 273.001 352.366 273.022 352.313 273.022C352.26 273.022 352.21 273.001 352.172 272.963C352.135 272.926 352.114 272.875 352.114 272.822C352.132 272.795 352.157 272.772 352.186 272.757C352.215 272.741 352.247 272.733 352.28 272.733C352.313 272.733 352.345 272.741 352.374 272.757C352.403 272.772 352.428 272.795 352.446 272.822H352.513Z" fill="black"/>
<path d="M352.446 273.753C352.556 273.753 352.646 273.664 352.646 273.554C352.646 273.444 352.556 273.354 352.446 273.354C352.336 273.354 352.247 273.444 352.247 273.554C352.247 273.664 352.336 273.753 352.446 273.753Z" fill="black"/>
<path d="M351.449 273.421C351.559 273.421 351.648 273.331 351.648 273.221C351.648 273.111 351.559 273.022 351.449 273.022C351.339 273.022 351.25 273.111 351.25 273.221C351.25 273.331 351.339 273.421 351.449 273.421Z" fill="black"/>
<path d="M351.914 274.285C351.917 274.328 351.905 274.371 351.881 274.407C351.857 274.443 351.822 274.47 351.781 274.485C351.728 274.485 351.678 274.464 351.64 274.426C351.603 274.389 351.582 274.338 351.582 274.285C351.582 274.232 351.603 274.181 351.64 274.144C351.678 274.107 351.728 274.086 351.781 274.086C351.822 274.1 351.857 274.127 351.881 274.163C351.905 274.199 351.917 274.242 351.914 274.285ZM355.106 267.902C355.106 267.902 357.433 269.365 355.172 272.091C355.172 272.091 356.302 271.227 356.369 269.831C356.502 268.434 355.571 267.304 355.039 267.902H355.106ZM364.081 271.825C363.283 272.224 362.22 271.493 361.688 270.828C361.156 270.163 360.026 269.964 359.294 271.227C358.629 272.423 357.632 272.889 357.632 272.889C357.632 272.889 358.629 272.357 359.627 271.227C360.624 270.163 361.222 271.027 362.22 271.559C363.15 272.091 363.35 272.224 364.015 271.892V271.825H364.081Z" fill="black"/>
<path d="M363.882 272.025C363.67 272.189 363.406 272.272 363.138 272.26C362.87 272.248 362.615 272.141 362.419 271.958C361.754 271.426 361.289 270.761 360.557 271.16C359.759 271.559 358.363 272.623 358.363 272.623C358.363 272.623 360.69 271.027 361.156 271.426C361.555 271.759 362.618 272.623 363.217 272.357L363.882 272.025Z" fill="black"/>
<path d="M362.087 272.955C361.355 272.423 360.624 273.62 360.026 273.487C359.361 273.354 358.895 272.291 358.895 272.291C358.895 272.291 359.427 273.354 360.225 273.155C361.089 272.889 361.621 272.357 362.153 272.756C362.618 273.155 362.087 272.955 362.087 272.955Z" fill="black"/>
<path d="M360.957 273.155C360.767 273.194 360.57 273.191 360.382 273.146C360.193 273.101 360.017 273.015 359.865 272.895C359.713 272.774 359.589 272.622 359.502 272.449C359.415 272.276 359.367 272.085 359.361 271.892C359.361 271.892 359.826 273.088 361.089 272.889L360.957 273.155Z" fill="black"/>
<path d="M360.89 272.224C360.956 272.556 360.956 272.756 360.558 272.756C360.159 272.756 359.893 272.623 359.893 272.224C359.893 271.892 360.824 271.958 360.89 272.224ZM355.704 270.229C355.688 270.341 355.632 270.443 355.546 270.516C355.461 270.59 355.351 270.63 355.239 270.628C354.973 270.628 354.906 270.495 354.906 270.229C354.906 269.964 354.906 269.764 355.239 269.764C355.571 269.764 355.704 269.964 355.704 270.229Z" fill="black"/>
<path d="M354.042 268.567C354.042 268.567 356.568 268.567 355.372 271.692C355.372 271.692 356.302 270.163 355.704 269.033C355.039 267.969 354.175 268.235 354.175 268.235C354.175 268.235 353.909 268.434 354.042 268.567Z" fill="black"/>
<path d="M354.042 269.831C354.042 270.495 354.441 271.094 355.239 271.759L355.438 271.493C354.707 270.894 354.308 270.362 354.308 269.831C354.308 269.299 354.707 268.966 354.707 268.966L354.507 268.767C354.507 268.767 354.042 269.166 353.975 269.831H354.042Z" fill="black"/>
<path d="M354.574 270.362C354.64 270.695 354.973 271.027 355.371 271.16L355.504 270.894C355.172 270.761 354.906 270.495 354.84 270.229C354.707 269.698 355.105 269.099 355.105 269.099L354.84 268.9C354.84 268.9 354.374 269.698 354.574 270.362ZM357.964 272.091C357.964 272.091 358.43 273.088 357.765 274.152L357.1 275.216C357.1 275.216 357.898 273.687 357.565 273.088C357.3 272.423 357.964 272.091 357.964 272.091ZM367.671 282.596C370.198 283.061 375.982 287.582 375.982 287.582L376.315 287.183C376.115 286.984 370.397 282.529 367.738 282.064L367.605 282.596H367.671ZM369.932 288.912C370.065 291.239 372.591 292.635 372.591 292.702L372.924 292.236C372.924 292.236 370.597 290.907 370.464 288.912H369.932ZM363.749 289.444C363.749 291.97 366.142 295.029 366.275 295.162L366.674 294.829C366.674 294.829 364.281 291.771 364.281 289.444H363.749ZM355.704 289.71C356.103 290.574 356.103 290.973 355.97 291.173C355.837 291.438 355.571 291.438 355.571 291.438L355.637 291.97C355.837 291.97 356.236 291.837 356.435 291.438C356.701 290.973 356.635 290.308 356.169 289.444L355.704 289.71Z" fill="black"/>
<path d="M319.5 277.1C319.5 277.1 319.5 278.8 320.9 279.8C320.9 279.8 320.7 278 321.1 277.2C321.1 277.2 320.4 276.4 319.4 277.2L319.5 277.1ZM322.1 278.2C322.1 278.2 322.4 279.7 323.3 280.4L323.8 280.3C323.8 280.3 324.1 278.3 324.4 278.1C324.7 277.9 323.1 278.8 322.1 278.2Z" fill="white" stroke="black" stroke-width="0.2" stroke-miterlimit="3"/>
<path d="M324.4 278.1L325.4 279.7L326.6 279.1L326.3 277.2C326.3 277.2 325.6 277 324.3 278.2L324.4 278.1Z" fill="white" stroke="black" stroke-width="0.2" stroke-miterlimit="3"/>
<path d="M329.1 278.4L327.8 279.5C327.8 279.5 327.1 279 326.5 279.1L326.8 277.4C326.8 277.4 327.8 276.7 329.1 278.4ZM319.7 294.4C319.7 294.4 319.5 292.1 319.8 291.9C319.8 291.9 320.8 292.2 321.1 291.9C321.1 291.9 321.7 293.8 321.5 294.5C321.4 295.3 320.5 295 319.7 294.5V294.4ZM325.7 292C325.7 292 325.7 290 326 289.7C326 289.7 328 290 328.4 289L329.1 290.9C329.1 290.9 326.9 290.7 325.7 291.9V292Z" fill="white" stroke="black" stroke-width="0.2" stroke-miterlimit="3"/>
<path d="M323.6 292.4C323.6 292.4 324 290.3 324.4 290.2C324.4 290.2 325.4 290.5 325.7 290.2V292.7C325.7 292.7 325.7 291.6 323.7 292.4H323.6ZM321.4 292.7C321.4 292.7 321.8 290.8 322.1 290.8C322.4 290.8 323.2 291.3 323.6 291V292.4C323.6 292.4 321.9 292 321.6 294.4L321.4 292.7Z" fill="white"/>
<path d="M323.6 292.4C323.6 292.4 324 290.3 324.4 290.2C324.4 290.2 325.4 290.5 325.7 290.2V292.7C325.7 292.7 325.7 291.6 323.7 292.4H323.6ZM323.6 292.4V291C323.2 291.3 322.4 290.8 322.1 290.8C321.8 290.8 321.4 292.7 321.4 292.7L321.6 294.4C321.9 292 323.6 292.4 323.6 292.4Z" stroke="black" stroke-width="0.2" stroke-miterlimit="3"/>
<path d="M351.5 331.2C351.5 331.2 356.8 336.2 355.5 340.4C355.5 340.4 358.8 333.1 355.2 331C351.5 328.8 351.4 330.5 351.5 331.2Z" fill="#00A651" stroke="black" stroke-width="0.5" stroke-miterlimit="4.8"/>
<path d="M344.9 336C344.9 336 343.5 337.9 345 339.2C345 339.2 343.4 341.6 344.6 343.6C344.6 343.6 343.6 345.7 343.9 348C343.9 348 343 351.5 344.9 353.1C344.9 353.1 346.9 354.1 347.8 353.3C347.8 353.3 349.5 350.6 348.4 347.9C348.4 347.9 349.7 345.6 348.3 342.8C348.3 342.8 348.7 341.1 347.5 339.2C347.5 339.2 348.3 338 347.6 337C347.6 337 345.1 334.4 344.9 336Z" fill="#964B36" stroke="black" stroke-width="0.5" stroke-miterlimit="4.8"/>
<path d="M346.4 329.8C346.4 329.8 340.1 317.8 335.7 317.3C331.4 316.8 331.1 312.5 331.1 312.5C331.1 312.5 331.6 314.5 335.1 314.5C338.6 314.5 345.4 319.5 346.1 323.2C346.9 327 347.6 326.5 347.6 326.5L346.4 329.8Z" fill="#00A651" stroke="black" stroke-width="0.5" stroke-miterlimit="4.8"/>
<path d="M346.4 329C346.4 329 348.7 313.8 358.6 313.5C368.5 313.2 365.2 314.3 367.6 312.7C367.6 312.7 360.9 316.2 356.8 316.7C352.7 317.2 349.3 325.2 349.4 326.7C349.5 328.2 347.2 331.1 346 330.1C344.9 329.1 346.4 329 346.4 329Z" fill="#00A651" stroke="black" stroke-width="0.5" stroke-miterlimit="4.8"/>
<path d="M348.6 334.6C348.6 334.6 350.9 328.6 354.8 330.6C354.8 330.6 351.8 324.8 346.4 329.8C346.4 329.8 348.8 333.1 348.7 334.6H348.6ZM341.1 328.6C341.1 328.6 344.5 342 339.5 346C339.5 346 339.6 339.1 336.6 335C333.6 330.9 339.6 326.4 341.2 328.5L341.1 328.6Z" fill="#00A651" stroke="black" stroke-width="0.5" stroke-miterlimit="4.8"/>
<path d="M341.5 331C341.5 331 347.5 336.6 347.8 338.5C348.2 340.4 349.5 332.9 346.8 330.7C345.086 329.43 343.101 328.574 341 328.2L341.5 331Z" fill="#00A651" stroke="black" stroke-width="0.5" stroke-miterlimit="4.8"/>
<path d="M330.6 345.8C330.6 345.8 331.2 348.1 332.6 348.6C332.6 348.6 332.7 350.3 334 350.9C334 350.9 333.3 352.3 334.5 353.2C334.5 353.2 334.2 356.2 335.3 356.8C335.3 356.8 337.9 356.6 338.8 355.8C338.8 355.8 339.4 353.9 337.9 352C337.9 352 338.1 350.2 336.7 349.2C336.7 349.2 337.1 346.7 335.3 345.8C335.3 345.8 335 343.8 333.9 342.8C333.9 342.8 331.6 346 330.6 345.8Z" fill="#964B36" stroke="black" stroke-width="0.5" stroke-miterlimit="4.8"/>
<path d="M333.5 342.9C333.5 342.9 325.8 340 321.5 344.1C321.5 344.1 328.1 345 329 346.3C329.8 347.6 333.9 344.2 333.6 342.9H333.5Z" fill="#00A651" stroke="black" stroke-width="0.5" stroke-miterlimit="4.8"/>
<path d="M331.2 347.7L329.8 346.6C329 346.1 322.5 344.3 321.6 350.6C321.6 350.6 319.3 344.4 322.7 343.6C326.1 342.6 328.9 344.6 331.2 347.6M326.1 334.9C326.1 334.9 328.5 339.9 329.4 340.3C330.2 340.5 330.9 339.6 330.9 339.6C330.9 339.6 327.7 335 326.1 334.9ZM324.3 326.9C324.3 326.9 322.3 320.3 320 322.1C317.6 323.8 318.2 328.6 318.2 328.6C318.2 328.6 313.4 323.7 316.2 319.8C319 315.9 324.4 320.2 324.4 327L324.3 326.9Z" fill="#00A651"/>
<path d="M331.2 347.7L329.8 346.6C329 346.1 322.5 344.3 321.6 350.6C321.6 350.6 319.3 344.4 322.7 343.6C326.1 342.6 328.9 344.6 331.2 347.6M326.1 334.9C326.1 334.9 328.5 339.9 329.4 340.3C330.2 340.5 330.9 339.6 330.9 339.6C330.9 339.6 327.7 335 326.1 334.9ZM324.3 326.9C324.3 326.9 322.3 320.3 320 322.1C317.6 323.8 318.2 328.6 318.2 328.6C318.2 328.6 313.4 323.7 316.2 319.8C319 315.9 324.4 320.2 324.4 327L324.3 326.9Z" stroke="black" stroke-width="0.5" stroke-miterlimit="4.8"/>
<path d="M329.7 340.6C329.7 340.6 329.7 341.9 330.7 342.2C331.5 342.6 333.1 343.2 333.1 342.5C333.1 341.8 331.9 338.9 331.4 339.2C330.9 339.6 330 339.6 329.7 340.6Z" fill="#964B36" stroke="black" stroke-width="0.5" stroke-miterlimit="4.8"/>
<path d="M328.2 332.9C328.2 332.9 328 327.1 331.7 324.9C331.7 324.9 332.5 325.1 332.9 323.9C332.9 323.9 329.9 331.2 330.7 334.9V335.4" fill="#00A651"/>
<path d="M328.2 332.9C328.2 332.9 328 327.1 331.7 324.9C331.7 324.9 332.5 325.1 332.9 323.9C332.9 323.9 329.9 331.2 330.7 334.9V335.4" stroke="black" stroke-width="0.5" stroke-miterlimit="4.8"/>
<path d="M329 325.8C329 325.8 335.8 311.8 344 316.7C344 316.7 335.4 318.4 332.3 324.6L329.1 329.2L329 325.8Z" fill="#00A651" stroke="black" stroke-width="0.5" stroke-miterlimit="4.8"/>
<path d="M325.4 331C325.4 331 323.4 321.6 322.1 320.3C320.8 319.1 318.7 317.7 316.2 319.8C316.2 319.8 320.6 315.9 325.2 319.2C329.9 322.5 328.9 327.6 328.9 327.6L328.4 334.1L325.2 331.2" fill="#00A651"/>
<path d="M325.4 331C325.4 331 323.4 321.6 322.1 320.3C320.8 319.1 318.7 317.7 316.2 319.8C316.2 319.8 320.6 315.9 325.2 319.2C329.9 322.5 328.9 327.6 328.9 327.6L328.4 334.1L325.2 331.2" stroke="black" stroke-width="0.5" stroke-miterlimit="4.8"/>
<path d="M332.6 342.1C332.6 342.1 324.3 326.5 319 337.6C319 337.6 318 340.5 319 341.6C319 341.6 316 339.4 317.4 333.8C318.8 328.4 328 330.8 330.6 335.4C333.2 339.9 334 342.1 333.6 342.4C333.2 342.6 332.6 342.1 332.6 342.1ZM355.9 346.6C355.9 346.6 361.9 334.2 365.5 339.9C365.5 339.9 366.5 342.6 364.9 343.8C364.9 343.8 362.6 340.8 360.4 344.4C358.4 347.9 359.2 347.6 359.2 347.6C359.2 347.6 356.9 348.3 355.9 346.6Z" fill="#00A651" stroke="black" stroke-width="0.5" stroke-miterlimit="4.8"/>
<path d="M364.9 343.8C364.9 343.8 368.2 345.5 367.1 349C367.1 349 371.5 340.6 365.4 339.9C365.4 339.9 366.6 342.5 365 343.8H364.9ZM365.3 335.2C365.3 335.2 373.3 337.5 373.5 340.9C373.5 340.9 374.8 334.4 370.3 332.4C370.3 332.4 364.9 333.2 365.3 335.2Z" fill="#00A651" stroke="black" stroke-width="0.5" stroke-miterlimit="4.8"/>
<path d="M368.8 324.8C372.2 318.2 376.5 327 376.5 327C376.5 327 378 320 373.7 318.8C369.4 317.6 366.7 333.5 366.7 333.5L361.7 334.6C361.7 334.6 363.1 320.7 370.6 319.4L371.5 319.6" fill="#00A651"/>
<path d="M368.8 324.8C372.2 318.2 376.5 327 376.5 327C376.5 327 378 320 373.7 318.8C369.4 317.6 366.7 333.5 366.7 333.5L361.7 334.6C361.7 334.6 363.1 320.7 370.6 319.4L371.5 319.6" stroke="black" stroke-width="0.5" stroke-miterlimit="4.8"/>
<path d="M362.8 328.8C362.8 328.8 358 319.1 354.8 318.1C351.5 317.1 356.6 315.6 358.6 317.4C360.6 319.4 364.3 321.7 363.9 326.7L362.9 328.8H362.8ZM357.9 342.2C357.9 342.2 359.3 335.6 363.1 333.6C366.8 331.6 370.3 332.3 370.3 332.3C370.3 332.3 365.8 333.3 365.1 335.6C364.3 337.9 363.1 338 363.1 338L357.9 342.2Z" fill="#00A651" stroke="black" stroke-width="0.5" stroke-miterlimit="4.8"/>
<path d="M355.9 346.6C355.9 346.6 353.8 350.6 354.3 351.3C354.3 351.3 352 354.5 352.9 356.2C352.9 356.2 355.2 357.9 356.2 357.2C356.2 357.2 358.8 353.5 358.1 351.5C358.1 351.5 359.8 349.1 359.1 347.6C359.1 347.6 356.6 347.8 355.9 346.6Z" fill="#964B36" stroke="black" stroke-width="0.5" stroke-miterlimit="4.8"/>
<path d="M344.9 339.5C345 339.5 346.3 340.2 347.2 339.9L347.8 339.4L347.3 339.1C347 339.7 345.6 339.2 345.1 339L344.9 339.5ZM344.7 343.4L344.6 343.9C344.7 343.9 347.2 344.4 348.5 343.3L348.1 342.9C347.1 343.9 344.7 343.4 344.7 343.4ZM344 347.8L343.7 348.2C343.7 348.2 346.7 350.4 348.7 348.1L348.2 347.7C346.6 349.7 344.2 347.9 344.1 347.7L344 347.8ZM332.6 348.4V348.7C332.8 348.7 335.3 347.7 335.5 345.8H335.2C335 347.5 332.6 348.4 332.6 348.4ZM334 350.7V351C334.1 351 336.4 350.8 336.8 349.2H336.5C336.2 350.6 334 350.7 334 350.7ZM334.5 353.1V353.4C334.5 353.4 337.2 353.5 338 352.1L337.8 351.9C337 353.2 334.5 353.1 334.5 353.1ZM354.1 351.5C354.1 351.5 355.3 352.6 356.6 352.5C356.924 352.494 357.243 352.419 357.535 352.281C357.828 352.144 358.089 351.946 358.3 351.7L357.9 351.4C357.556 351.754 357.093 351.967 356.6 352C356.201 351.982 355.81 351.884 355.449 351.712C355.089 351.54 354.766 351.298 354.5 351L354.1 351.5Z" fill="black"/>
<path d="M431.9 360.6C431.745 360.668 431.609 360.771 431.5 360.9L431.9 360.6ZM441.1 358.3C441.1 358.1 441 358.2 440.9 358.1L440.5 357.3H440.2L439.5 355.9C439.517 355.834 439.517 355.766 439.5 355.7C439.504 355.567 439.504 355.433 439.5 355.3C439.4 355.2 439.3 355.3 439.2 355.1V354.4L439.1 354V353.4C439.113 353.267 439.113 353.133 439.1 353C438.9 352.6 438.7 352.3 438.7 351.8L438.8 350.8L438.6 349.8L438.8 348.9V343.6C438.6 343.2 438.7 342.9 438.6 342.6V340.6L438.5 343.1C438.5 340.9 438.3 338.8 438.3 338.8L435 337.3C435 337.3 434.7 343.4 434.8 344.3C434.8 345.1 435.1 351 435 351.7C434.8 352.4 434.5 355.9 434.5 355.9C434.5 355.9 432.9 357.1 432.2 358.4C431.6 359.6 431.7 360.1 431.5 360.1L433.1 359.8L431.9 360.6C432.015 360.553 432.141 360.538 432.264 360.555C432.387 360.573 432.503 360.623 432.6 360.7L432.9 360.9L433.1 360.7L433.8 361.1L434.2 360.8L434.4 360.4H435.5C435.8 360.4 436 360 436.3 359.7C436.6 359.5 436.8 359.4 437.1 359.4C437.4 359.4 437.7 359.7 438 359.8C438.2 359.8 438.4 359.8 438.6 359.5L438.9 358.9H440.8L441.1 359.1L441.2 358.7V358.3H441.1Z" fill="#964B36"/>
<path d="M431.9 360.6C431.745 360.668 431.609 360.771 431.5 360.9L431.9 360.6ZM431.9 360.6L433.1 359.8L431.5 360.1C431.7 360.1 431.6 359.6 432.2 358.4C432.9 357.1 434.5 355.9 434.5 355.9C434.5 355.9 434.8 352.4 435 351.7C435.1 351 434.8 345.1 434.8 344.3C434.7 343.4 435 337.3 435 337.3L438.3 338.8C438.3 338.8 438.5 340.9 438.5 343.1L438.6 340.6V342.6C438.7 342.9 438.6 343.2 438.8 343.6V348.9L438.6 349.8L438.8 350.8L438.7 351.8C438.7 352.3 438.9 352.6 439.1 353C439.113 353.133 439.113 353.267 439.1 353.4V354L439.2 354.4V355.1C439.3 355.3 439.4 355.2 439.5 355.3C439.504 355.433 439.504 355.567 439.5 355.7C439.517 355.766 439.517 355.834 439.5 355.9L440.2 357.3H440.5L440.9 358.1C441 358.2 441.1 358.1 441.1 358.3H441.2V358.7L441.1 359.1L440.8 358.9H438.9L438.6 359.5C438.4 359.8 438.2 359.8 438 359.8C437.7 359.7 437.4 359.4 437.1 359.4C436.8 359.4 436.6 359.5 436.3 359.7C436 360 435.8 360.4 435.5 360.4H434.4L434.2 360.8L433.8 361.1L433.1 360.7L432.9 360.9L432.6 360.7C432.503 360.623 432.387 360.573 432.264 360.555C432.141 360.538 432.015 360.553 431.9 360.6Z" stroke="black" stroke-width="0.3" stroke-miterlimit="4.8"/>
<path d="M434.4 360.5L434.9 360.6L435 360.8C435.03 360.818 435.065 360.827 435.1 360.827C435.135 360.827 435.17 360.818 435.2 360.8L435.5 360.9H435.8L436.2 361C436.4 361.1 436.6 361 436.8 360.9C437 360.7 437.1 360.9 437.3 361.1C437.5 361.3 437.5 361.2 437.6 361.1C437.599 361.067 437.599 361.033 437.6 361L437.9 360.9L438.3 360.8L438.6 360.6L439 360.8C439.071 360.824 439.138 360.857 439.2 360.9C439.4 360.6 439.8 360.5 440 360.3H441.3C441.4 360.2 441.4 360.1 441.6 360.1L442.3 360.5C442.4 360.5 443 360.7 442.9 360.2C442.9 359.8 442.5 360.1 442.4 359.8V359.2C442.365 359.109 442.311 359.027 442.242 358.958C442.173 358.889 442.091 358.835 442 358.8H441.7L441.5 358.3C441.4 358.3 441.3 358.4 441.1 358.3L440.9 358.1C440.6 357.8 440.4 358.3 440.2 358.2C440 358.2 439.8 357.7 439.6 357.5C439.6 357.4 439.3 357 439.2 357.1C439 357.2 439.2 357.6 439.1 357.8C439 357.9 438.7 357.8 438.7 357.8C438.5 357.8 438.5 357.8 438.4 358.1C438.1 358.4 438 358.7 437.7 358.7L437.2 358.5C437.1 358.6 437 358.8 436.8 358.8C436.668 358.827 436.532 358.827 436.4 358.8C436.2 358.8 436.1 358.5 436 358.4C436 358.373 435.989 358.348 435.971 358.329C435.952 358.311 435.927 358.3 435.9 358.3C435.873 358.3 435.848 358.311 435.829 358.329C435.811 358.348 435.8 358.373 435.8 358.4L435.6 358.3C435.4 358.2 435.4 358.3 435.3 358.5V359L434.9 359.4L434.5 359.5C434.4 359.5 434.2 359.8 434.1 359.5C434 359.1 434.4 358.4 433.9 358.5C433.9 358.5 433.7 358.5 433.6 358.8V359.4C433.6 359.7 433 360.2 433.1 360.4C433.1 360.7 433.4 360.4 433.5 360.4C433.6 360.5 433.5 360.7 433.7 360.8C433.8 361.1 434.4 360.4 434.4 360.8M432.3 358.1V358L431.8 357.8L431.4 358.2C431.1 358.7 431.2 359.2 430.7 359.2H430.3C430.1 359.3 430.3 359.7 430.3 359.9V360.2C430.2 360.2 430.1 360.2 430 360.4C430 360.8 430.3 360.7 430.4 360.7H431.4L432 360.5L432.5 360.4C432.587 360.242 432.654 360.074 432.7 359.9V359.5C432.7 359.3 432.9 359.4 433 359.1C433 358.4 432.3 358.9 432.4 358.2" fill="#964B36"/>
<path d="M434.4 360.5L434.9 360.6L435 360.8C435.03 360.818 435.065 360.827 435.1 360.827C435.135 360.827 435.17 360.818 435.2 360.8L435.5 360.9H435.8L436.2 361C436.4 361.1 436.6 361 436.8 360.9C437 360.7 437.1 360.9 437.3 361.1C437.5 361.3 437.5 361.2 437.6 361.1C437.599 361.067 437.599 361.033 437.6 361L437.9 360.9L438.3 360.8L438.6 360.6L439 360.8C439.071 360.824 439.138 360.857 439.2 360.9C439.4 360.6 439.8 360.5 440 360.3H441.3C441.4 360.2 441.4 360.1 441.6 360.1L442.3 360.5C442.4 360.5 443 360.7 442.9 360.2C442.9 359.8 442.5 360.1 442.4 359.8V359.2C442.365 359.109 442.311 359.027 442.242 358.958C442.173 358.889 442.091 358.835 442 358.8H441.7L441.5 358.3C441.4 358.3 441.3 358.4 441.1 358.3L440.9 358.1C440.6 357.8 440.4 358.3 440.2 358.2C440 358.2 439.8 357.7 439.6 357.5C439.6 357.4 439.3 357 439.2 357.1C439 357.2 439.2 357.6 439.1 357.8C439 357.9 438.7 357.8 438.7 357.8C438.5 357.8 438.5 357.8 438.4 358.1C438.1 358.4 438 358.7 437.7 358.7L437.2 358.5C437.1 358.6 437 358.8 436.8 358.8C436.668 358.827 436.532 358.827 436.4 358.8C436.2 358.8 436.1 358.5 436 358.4C436 358.373 435.989 358.348 435.971 358.329C435.952 358.311 435.927 358.3 435.9 358.3C435.873 358.3 435.848 358.311 435.829 358.329C435.811 358.348 435.8 358.373 435.8 358.4L435.6 358.3C435.4 358.2 435.4 358.3 435.3 358.5V359L434.9 359.4L434.5 359.5C434.4 359.5 434.2 359.8 434.1 359.5C434 359.1 434.4 358.4 433.9 358.5C433.9 358.5 433.7 358.5 433.6 358.8V359.4C433.6 359.7 433 360.2 433.1 360.4C433.1 360.7 433.4 360.4 433.5 360.4C433.6 360.5 433.5 360.7 433.7 360.8C433.8 361.1 434.4 360.4 434.4 360.8M432.3 358.1V358L431.8 357.8L431.4 358.2C431.1 358.7 431.2 359.2 430.7 359.2H430.3C430.1 359.3 430.3 359.7 430.3 359.9V360.2C430.2 360.2 430.1 360.2 430 360.4C430 360.8 430.3 360.7 430.4 360.7H431.4L432 360.5L432.5 360.4C432.587 360.242 432.654 360.074 432.7 359.9V359.5C432.7 359.3 432.9 359.4 433 359.1C433 358.4 432.3 358.9 432.4 358.2" stroke="black" stroke-width="0.3" stroke-miterlimit="4.8"/>
<path d="M440.7 338.7C440.7 339.7 440.1 340.4 439.3 340.4C438.5 340.4 437.9 339.6 437.9 338.7C437.9 337.8 438.5 337.1 439.3 337.1C440.1 337.1 440.7 337.8 440.7 338.7ZM436.2 336.7C436.2 337.7 435.5 338.3 434.8 338.3C434 338.3 433.4 337.6 433.4 336.7C433.4 335.8 434 335.1 434.8 335.1C435.5 335.1 436.2 335.8 436.2 336.7Z" fill="black" stroke="black" stroke-width="0.5" stroke-miterlimit="4.8"/>
<path d="M438.5 337.3C438.5 338.3 437.9 339 437.2 339C436.4 339 435.8 338.2 435.8 337.3C435.8 336.4 436.4 335.7 437.2 335.7C437.9 335.7 438.5 336.4 438.5 337.3Z" fill="black" stroke="black" stroke-width="0.5" stroke-miterlimit="4.8"/>
<path d="M436.2 338.8C436.2 339.8 435.6 340.5 434.9 340.5C434.1 340.5 433.5 339.7 433.5 338.8C433.5 337.9 434.1 337.2 434.9 337.2C435.6 337.2 436.2 337.9 436.2 338.8Z" fill="black" stroke="black" stroke-width="0.5" stroke-miterlimit="4.8"/>
<path d="M438.4 340C438.4 341 437.8 341.7 437 341.7C436.2 341.7 435.6 341 435.6 340.1C435.6 339.1 436.2 338.4 437 338.4C437.8 338.4 438.4 339.2 438.4 340.1V340Z" fill="black" stroke="black" stroke-width="0.5" stroke-miterlimit="4.8"/>
<path d="M439 322.3C439 322.3 453 302.9 467.9 323.1C467.9 323.1 467.9 325.1 466.6 327.1L466.2 325.6L465.4 325.8L465.1 324.8L463.5 324.7L464 322.6L462.2 323.9L462.5 322.4L460.5 324.4L460.7 320.2L458.6 323.8L458.8 321.3L458.1 322.4L457.6 321L457 322.4L456 321.7V322.7L454.2 321.2L453.6 323.2L452.6 321.1L452.4 322.5L451.6 320.8L451.4 322.7L448.6 321.4L449.2 323.2L447.8 322.2L448.1 323.2L446.1 322.8L446.3 323.9L444.3 323.6L444.7 324.6L441.9 324.2L442.9 325.3L442.6 325.8C442.6 325.8 457.7 320.8 458.7 339.6L456 341L456.7 339.5L456 339L453.7 337.2L454.3 334.8L453.6 335.1L453.4 333.7L453.1 334L452.1 332.6L451.9 333.1L451.3 331.4L450.7 332.6L450.3 329.8L449.3 331.6L449.2 330.6L448.8 331.2L447.6 329.7L447.2 330.7L446.7 329.9L446.3 330.9L444.9 329.6V330.6L444.1 329.8L443.7 330.3L441.5 329.2V330.2L440.3 329.2L439.9 330.2C439.9 330.2 453.6 338 449.3 350.6L448.6 352.3L448.3 348L447.1 350.3L447.9 345.3L447.1 346.3L446.9 344.3L445.8 346.3L445.4 344.1L444.9 344.7L444.2 341.5L443.5 342.9L442.5 339.2L441.8 340.7L441.3 337.6L440.8 339.5L439.3 336.7L439 337.8L438.2 335.6L437.7 336.3C437.7 336.3 435.2 336.3 434.4 335.6C433.6 335 431.5 339.4 431.5 339.4L431.8 336.7L430.8 338.5V336.7L429.3 342L428.9 338.2L428 341.5L427.6 340.5L427.4 341.9L426.9 341.4L426.4 342.8L425.6 342.2V344.2L424.9 343.2L424.2 346.2L423.9 345V346.4L423.2 345.6L422.6 348.6L421.7 347.4V349.5L422 351.1L421 350.6L421.4 353.3C421.4 353.3 417.4 346 422.1 339C426.8 332 433.1 330 433.1 330L432.4 329.5L432.3 328.8L428.5 330.8L428.6 329.6L427.6 330.4L427.4 329.2L426.8 330.3L426.6 329.8L425.8 331.2L425.3 329.2L424.6 331.6L424 329.9L422.7 333.5V330.8L421.7 333.6L421.4 330.6L420.6 334.1V330.9L419.5 334.1L418.7 331.1L418.2 334L417.5 331.7L416.7 335.1L415.6 332.1L415 336.6L414.2 334.8L414.1 338.1L413.2 336.1L414.1 340.3L413 338.7L413.3 341.3L411.7 338.5L411.8 341.9L411 340.7L410.6 342C410.6 342 410.2 329 419.1 326.4C428 323.9 433.8 327.2 433.8 327.2L430.4 324.4L430.8 323.6H429.5L430 322.6H427.5L428.2 321.6L426.2 321.9V321.3L425 322.3L425.5 321.2L423.7 322.3V320.6L422.7 322.1L422.2 320.6L418.2 324.6L419.3 320.4L418.6 321.4L418.5 320.4L417.3 322.2L417.1 320.9L416.6 322.4L416.2 320.7L415.3 322.4L414.5 320.8L414.1 322.9L413.4 321.9L412.7 323.4L411.7 322.4L411.6 323.4L409.6 322.6L410.1 324.1L408.6 322.8L408.2 324.8L407.3 323.8L406.7 326.3L406.1 323.9L405.4 325.9C405.4 325.9 413.3 305.7 433.1 318.9C433.1 318.9 435.3 320.9 435.8 322.4C436.3 323.9 435.8 322.7 435.8 322.7L435.5 308.7L436.3 314.7L436.8 312.7L436.6 315.7L438.6 311.4C438.6 311.4 436.3 318.7 437.1 321.4C437.1 321.4 438.1 312.9 441.1 311.9L438.3 317.9L439.1 317.8L438.5 319H439.3L438.3 321L437.9 322L438.4 323L439.1 322.3H439Z" fill="#00A651" stroke="black" stroke-width="0.5" stroke-miterlimit="4.8"/>
<path d="M437 330.5L437.4 330.8C437.4 330.8 438.7 329.5 440.7 331.2L441.1 330.8C438.6 328.7 437 330.5 437 330.5ZM436.4 323.7L436.3 324.1L437.3 323.7L436.6 324.9L438 324.4L436.2 326.7L436.7 327.1L439.5 323.3L437.7 323.9L438.5 322.6L437 323.3L437.3 321.3H436.8L436.4 323.7Z" fill="black"/>
<path d="M433.7 323.8L434.3 325.2L433.3 324.8L436.3 329.8L436.6 329.4L436 330.9L436.5 331.1L437.8 327.9L437.3 327.6L436.3 328.9L434.6 325.9L435.4 326.2L434.6 324.4L435.6 325.1V323.1H435.1V324.1L433.5 323L433.8 323.8H433.7ZM431.9 330.2L432.1 330.7C432.9 330.4 433.5 330.3 434.1 330.6C434.6 330.8 434.8 331.4 434.8 331.4L435.3 331.3C435.3 331.3 435.1 330.5 434.3 330.1C433.6 329.8 432.8 329.8 431.9 330.2ZM434.1 335.6L433.7 332.8H434.2L434.7 335.6H434.1ZM438 335.2L437.3 333L437.8 332.9L438.5 335L438 335.2ZM439.4 336.8L438.9 334.6L439.4 334.5L439.9 336.6L439.4 336.8Z" fill="black"/>
<path d="M332.5 401C332.5 401 330.1 400 329 400.8C328 401.6 328 402.7 327.1 402.6C327.1 402.6 330.7 403.4 331.5 402.5L332.5 401.3M332.9 402.1C332.9 402.1 331.3 404.1 331.9 405.3C332.4 406.5 333.5 406.6 333.3 407.5C333.3 407.5 334.8 404.2 334.1 403.3L333.1 402.1M330.3 396.3C330.3 396.3 327.8 397.1 327.5 398.3C327.2 399.7 328.1 400.4 327.4 401C327.4 401 330.5 399.2 330.5 398C330.509 397.498 330.476 396.996 330.4 396.5M331.7 397.2C331.7 397.2 332.9 394.9 332.1 393.8C331.4 392.7 330.2 392.8 330.4 391.8C330.4 391.8 329.4 395.4 330.4 396.2L331.4 397.2M329.3 396.3C329.3 396.3 329.3 393.8 328.2 393.1C327.1 392.4 326.1 393 325.8 392.1C325.8 392.1 326.4 395.7 327.6 396.1L329.1 396.4M333.5 400.6C333.5 400.6 336.2 399.7 336.5 402.6C336.6 405.6 336.3 404.6 336.3 404.6C336.3 404.6 334.9 401.4 333.3 400.9L333.5 400.6Z" fill="#00A651"/>
<path d="M332.5 401C332.5 401 330.1 400 329 400.8C328 401.6 328 402.7 327.1 402.6C327.1 402.6 330.7 403.4 331.5 402.5L332.5 401.3M332.9 402.1C332.9 402.1 331.3 404.1 331.9 405.3C332.4 406.5 333.5 406.6 333.3 407.5C333.3 407.5 334.8 404.2 334.1 403.3L333.1 402.1M330.3 396.3C330.3 396.3 327.8 397.1 327.5 398.3C327.2 399.7 328.1 400.4 327.4 401C327.4 401 330.5 399.2 330.5 398C330.509 397.498 330.476 396.996 330.4 396.5M331.7 397.2C331.7 397.2 332.9 394.9 332.1 393.8C331.4 392.7 330.2 392.8 330.4 391.8C330.4 391.8 329.4 395.4 330.4 396.2L331.4 397.2M329.3 396.3C329.3 396.3 329.3 393.8 328.2 393.1C327.1 392.4 326.1 393 325.8 392.1C325.8 392.1 326.4 395.7 327.6 396.1L329.1 396.4M333.5 400.6C333.5 400.6 336.2 399.7 336.5 402.6C336.6 405.6 336.3 404.6 336.3 404.6C336.3 404.6 334.9 401.4 333.3 400.9L333.5 400.6Z" stroke="black" stroke-width="0.5" stroke-miterlimit="4.8"/>
<path d="M332.8 402.1L333.1 404.4H333.5L333.2 402.1L334.2 397.2H333.7L332.8 402.1Z" fill="black"/>
<path d="M330.4 401.4L330.2 401.7C331.5 402.2 333.3 400.7 333.4 400.7L333.2 400.4C333.2 400.4 331.4 401.8 330.4 401.4ZM333.7 398.5L327.7 395.5L327.9 395L333.9 398L333.7 398.5Z" fill="black"/>
<path d="M329.4 397.8L329 397.5L330.2 396.2L330.6 396.6L329.4 397.8ZM331.4 397.2L330.2 394.5L330.7 394.2L332 397L331.4 397.2ZM333.3 400.6V401.2C334.9 401.1 335.3 402.2 335.3 402.2L335.9 402C335.9 401.7 335.2 400.5 333.3 400.6Z" fill="black"/>
<path d="M361 401.9C363 400.8 363.4 396.8 363.4 396.8C363 398.2 359.3 399.7 359.3 399.7C362 398 365.3 390.3 365.3 390.3C364.4 393.1 357.3 395.3 352.6 397.9C348 400.5 350.4 407.9 350.4 407.9C348.209 405.61 346.747 402.722 346.2 399.6C345.7 396.1 344.3 394.8 341.2 394.4C338 394 336.2 397.5 336.2 397.5L331.5 400L336.2 400.2C336.2 400.2 339.6 401.3 339.6 404C339.6 406.7 336.6 417.3 341.6 423.3C345 427.4 357.6 429.8 357.6 429.8" fill="white"/>
<path d="M361 401.9C363 400.8 363.4 396.8 363.4 396.8C363 398.2 359.3 399.7 359.3 399.7C362 398 365.3 390.3 365.3 390.3C364.4 393.1 357.3 395.3 352.6 397.9C348 400.5 350.4 407.9 350.4 407.9C348.209 405.61 346.747 402.722 346.2 399.6C345.7 396.1 344.3 394.8 341.2 394.4C338 394 336.2 397.5 336.2 397.5L331.5 400L336.2 400.2C336.2 400.2 339.6 401.3 339.6 404C339.6 406.7 336.6 417.3 341.6 423.3C345 427.4 357.6 429.8 357.6 429.8" stroke="black" stroke-width="0.7" stroke-miterlimit="4.8"/>
<path d="M351.8 410.1C351.8 410.1 352.8 405.3 355.8 405.5C359 405.7 359.9 402 361.8 401.4C363.6 400.8 373.2 398.3 374.3 393.6C374.3 393.6 373.3 401.2 364.6 405C364.6 405 371.6 402.7 372.5 401.1C372.5 401.1 369.3 407.9 361.7 409C361.7 409 368.9 408.4 369.9 406.5C369.9 406.5 366.7 410.8 361.4 411.3C361.4 411.3 366.3 413.3 367.6 411.6C367.6 411.6 364.9 414.8 361.6 415L362.5 415.3C362.5 415.3 359.3 419 355.9 416.5C352.4 414 352.3 417.1 352.3 417.1" fill="white"/>
<path d="M351.8 410.1C351.8 410.1 352.8 405.3 355.8 405.5C359 405.7 359.9 402 361.8 401.4C363.6 400.8 373.2 398.3 374.3 393.6C374.3 393.6 373.3 401.2 364.6 405C364.6 405 371.6 402.7 372.5 401.1C372.5 401.1 369.3 407.9 361.7 409C361.7 409 368.9 408.4 369.9 406.5C369.9 406.5 366.7 410.8 361.4 411.3C361.4 411.3 366.3 413.3 367.6 411.6C367.6 411.6 364.9 414.8 361.6 415L362.5 415.3C362.5 415.3 359.3 419 355.9 416.5C352.4 414 352.3 417.1 352.3 417.1" stroke="black" stroke-width="0.7" stroke-miterlimit="4.8"/>
<path d="M358.9 417.3C358.9 417.3 362.9 424.1 363.4 427.7C363.4 427.7 371.1 436.3 374 436.7C374 436.7 372.7 437.3 370.2 435.2C370.2 435.2 372.2 437.4 372.7 437.5C373.1 437.5 371 437.3 370.7 436.7C370.7 436.7 371.5 438 372.1 438.2L371.5 438C371.5 438 370.5 437.9 370 437.5C369.5 437.1 369.8 438.5 369.8 438.5C369.8 438.5 368.6 438.2 368.2 437.8C367.8 437.4 368.4 438.7 368.4 438.7L367.4 438.4L366.6 438.9C366.6 438.9 366.6 439.4 366 439C365.6 438.6 364.7 439 364.7 439C364.7 439 364 439.6 363.7 439.2C363.4 438.8 362.2 440.7 362.2 440.7L357.1 428.4" fill="white"/>
<path d="M358.9 417.3C358.9 417.3 362.9 424.1 363.4 427.7C363.4 427.7 371.1 436.3 374 436.7C374 436.7 372.7 437.3 370.2 435.2C370.2 435.2 372.2 437.4 372.7 437.5C373.1 437.5 371 437.3 370.7 436.7C370.7 436.7 371.5 438 372.1 438.2L371.5 438C371.5 438 370.5 437.9 370 437.5C369.5 437.1 369.8 438.5 369.8 438.5C369.8 438.5 368.6 438.2 368.2 437.8C367.8 437.4 368.4 438.7 368.4 438.7L367.4 438.4L366.6 438.9C366.6 438.9 366.6 439.4 366 439C365.6 438.6 364.7 439 364.7 439C364.7 439 364 439.6 363.7 439.2C363.4 438.8 362.2 440.7 362.2 440.7L357.1 428.4" stroke="black" stroke-width="0.7" stroke-miterlimit="4.8"/>
<path d="M363.7 439.6L357.3 427.3L358 427L364.4 439.2L363.7 439.6ZM369.3 438.7L358.3 426.4L358.9 425.9L369.9 438.2L369.3 438.7ZM371.9 437.7L359.3 426L359.8 425.4L372.5 437L371.9 437.7Z" fill="black"/>
<path d="M340.346 398.281C340.346 398.281 339.548 396.819 338.816 397.417C338.152 397.949 337.753 398.082 337.62 398.016C337.62 398.016 338.285 398.016 338.75 397.683C339.149 397.284 339.814 397.484 340.346 398.348V398.281ZM335.958 397.617L336.423 398.547L335.891 400.077L336.29 400.21L336.755 398.547L336.29 397.484L335.958 397.617Z" fill="black"/>
<path d="M340.213 398.082C340.213 398.082 339.548 398.747 338.75 398.614L337.886 398.414H339.082C339.548 398.414 340.146 398.215 340.213 398.082Z" fill="black"/>
<path d="M340.013 398.215C340.013 398.215 339.215 397.417 338.684 397.683C338.684 397.683 339.614 397.351 340.146 398.149L340.013 398.215Z" fill="black"/>
<path d="M339.88 398.082C339.88 398.082 339.016 398.68 338.085 398.082L338.019 397.949H338.151C338.151 397.949 339.282 398.414 339.88 398.082Z" fill="black"/>
<path d="M339.149 398.215C339.296 398.215 339.415 398.096 339.415 397.949C339.415 397.802 339.296 397.683 339.149 397.683C339.002 397.683 338.883 397.802 338.883 397.949C338.883 398.096 339.002 398.215 339.149 398.215Z" fill="black"/>
<path d="M339.9 420.4C339.9 420.4 339.2 421.7 339.6 422.4C339.9 423.1 341.5 423.5 341.6 424.5C341.9 425.5 342.4 425.5 343.1 425.3L344.1 425.2C344.1 425.2 341 423.5 340.1 420.9L339.9 420.4Z" fill="black"/>
<path d="M439.3 395.6C439.3 395.6 444.8 388.2 449.8 390.2C454.8 392.2 458 393.1 458 393.1C458 393.1 458.1 398.1 455.5 398.1C452.8 398.1 450.3 393.1 447.9 394.5C445.5 396 443.5 398 443.4 398.7C443.2 399.4 437 399.6 439.3 395.7V395.6Z" fill="#964B36" stroke="black" stroke-width="0.3" stroke-miterlimit="4.8"/>
<path d="M418 431.2C418 431.2 416.5 432.8 417.2 433.2C417.9 433.6 419.2 433.2 419.2 432.6C419.2 432 418.3 431 418 431.2Z" fill="#964B36" stroke="black" stroke-width="0.5" stroke-miterlimit="4.8"/>
<path d="M416.8 432.8C416.8 432.8 413.9 431.1 411.7 435C409.4 438.9 407.5 445.2 406.2 446C404.9 446.8 419 439.8 419.2 436.9C419.2 436.9 420.2 433.1 418.6 433.1C417.2 433.2 417.1 433.4 416.8 432.7V432.8Z" fill="#964B36" stroke="black" stroke-width="0.5" stroke-miterlimit="4.8"/>
<path d="M417.2 433.2C417.2 433.2 414.2 433.9 413.6 438.1C413 442.3 408.9 444.4 408.6 444.6M458 393C458 393 453.5 394.6 454.3 397.7L458 393Z" fill="#964B36"/>
<path d="M417.2 433.2C417.2 433.2 414.2 433.9 413.6 438.1C413 442.3 408.9 444.4 408.6 444.6M458 393C458 393 453.5 394.6 454.3 397.7" stroke="black" stroke-width="0.3" stroke-miterlimit="4.8"/>
<path d="M423.6 402.1C423.6 402.1 423.7 391.5 432.4 392C434.1 392.1 433.3 394 433.3 394C433.3 394 435.2 392.7 436 394.8C436 394.8 438.8 393.6 439 396.3C439 396.3 442 395.9 441.7 398.3C441.7 398.3 443.7 397.9 443.7 399.6C443.7 399.6 446 398.6 445.7 401C445.7 401 448.3 399.3 447.9 402.4C447.9 402.4 450.6 400.6 451.5 403.7C452.5 406.7 448.8 413.4 445.3 415.1" fill="#FFF200"/>
<path d="M423.6 402.1C423.6 402.1 423.7 391.5 432.4 392C434.1 392.1 433.3 394 433.3 394C433.3 394 435.2 392.7 436 394.8C436 394.8 438.8 393.6 439 396.3C439 396.3 442 395.9 441.7 398.3C441.7 398.3 443.7 397.9 443.7 399.6C443.7 399.6 446 398.6 445.7 401C445.7 401 448.3 399.3 447.9 402.4C447.9 402.4 450.6 400.6 451.5 403.7C452.5 406.7 448.8 413.4 445.3 415.1" stroke="black" stroke-width="0.3" stroke-miterlimit="4.8"/>
<path d="M447.7 402.8C447.7 402.8 448.9 411.1 444.2 414.1L444.4 414.3C449.2 411.3 448 402.8 448 402.7H447.7V402.8ZM442.1 411.8L442.3 412C445.3 409.1 445.9 401.4 445.9 401H445.6C445.6 401.1 445 409 442.1 411.8ZM439.3 409.9H439.6C440 405.2 443.8 399.7 443.8 399.7L443.5 399.5C443.5 399.5 439.7 405.1 439.3 409.9ZM437.2 408.5H437.5C438 402.8 441.8 398.5 441.8 398.5L441.6 398.2C441.6 398.2 437.7 402.7 437.2 408.5ZM434.2 406.6H434.4C434.7 399.8 439.2 396.5 439.3 396.4L439.1 396.2C439.1 396.2 434.4 399.6 434.1 406.6H434.2ZM431.3 404.9H431.7C431.4 398.7 436.2 394.9 436.2 394.9L436.1 394.7C436.1 394.7 431.1 398.6 431.3 404.9ZM426.3 402.7H426.6C426.823 400.774 427.591 398.951 428.813 397.446C430.035 395.94 431.661 394.814 433.5 394.2L433.4 393.9C431.519 394.552 429.862 395.726 428.623 397.284C427.383 398.842 426.612 400.72 426.4 402.7H426.3Z" fill="black"/>
<path d="M418.5 415C418.5 415 417 405.2 422.9 402C422.9 402 423.9 401.8 424.6 403.2C424.6 403.2 427.7 401.9 427.8 404.5C427.8 404.5 429.3 403.3 429.8 405C429.8 405 433.1 404.3 432.4 406.8C432.4 406.8 435.2 406 435 408.4C435 408.4 437.8 407.4 437.3 409.4C437.3 409.4 440.3 408.8 439.6 411.2C439.6 411.2 443.2 410.8 442.1 413.4C442.1 413.4 444.8 412.7 444.2 414.8C444.2 414.8 447.8 415.4 446.2 417.6C443.606 420.802 440.231 423.281 436.4 424.8" fill="#00A651"/>
<path d="M418.5 415C418.5 415 417 405.2 422.9 402C422.9 402 423.9 401.8 424.6 403.2C424.6 403.2 427.7 401.9 427.8 404.5C427.8 404.5 429.3 403.3 429.8 405C429.8 405 433.1 404.3 432.4 406.8C432.4 406.8 435.2 406 435 408.4C435 408.4 437.8 407.4 437.3 409.4C437.3 409.4 440.3 408.8 439.6 411.2C439.6 411.2 443.2 410.8 442.1 413.4C442.1 413.4 444.8 412.7 444.2 414.8C444.2 414.8 447.8 415.4 446.2 417.6C443.606 420.802 440.231 423.281 436.4 424.8" stroke="black" stroke-width="0.3" stroke-miterlimit="4.8"/>
<path d="M415.3 425C415.3 425 412.9 416.7 417.5 414.6C417.5 414.6 418.3 414.4 418.5 415.2C418.5 415.2 419.5 413.9 420.3 415.1C420.3 415.1 422.6 414 423.1 415.7C423.1 415.7 424.7 414.4 425.5 416.3C425.5 416.3 426.9 415.7 426.9 417.3C426.9 417.3 428.9 416.3 428.9 418.3C428.9 418.3 430.9 417.5 430.5 419.6C430.5 419.6 433.5 420 432.5 421.4C432.5 421.4 435.2 422.1 434.2 423.2C434.2 423.2 437.1 422.9 435.5 424.8C435.5 424.8 437.7 424.1 436.5 426.5C435.2 428.9 431.4 431.5 428.6 431.9" fill="#00A651"/>
<path d="M415.3 425C415.3 425 412.9 416.7 417.5 414.6C417.5 414.6 418.3 414.4 418.5 415.2C418.5 415.2 419.5 413.9 420.3 415.1C420.3 415.1 422.6 414 423.1 415.7C423.1 415.7 424.7 414.4 425.5 416.3C425.5 416.3 426.9 415.7 426.9 417.3C426.9 417.3 428.9 416.3 428.9 418.3C428.9 418.3 430.9 417.5 430.5 419.6C430.5 419.6 433.5 420 432.5 421.4C432.5 421.4 435.2 422.1 434.2 423.2C434.2 423.2 437.1 422.9 435.5 424.8C435.5 424.8 437.7 424.1 436.5 426.5C435.2 428.9 431.4 431.5 428.6 431.9" stroke="black" stroke-width="0.3" stroke-miterlimit="4.8"/>
<path d="M418.2 431.4C418.2 431.4 413.1 426.4 415.5 425C415.5 425 416.5 425.3 416.9 426.4C416.9 426.4 418.2 424.6 418.9 426.4C418.9 426.4 420.7 425.8 420.7 427.1L422.2 428.1C422.2 428.1 423.9 428.1 423.6 429.1C423.6 429.1 425.5 428.9 425.4 429.9C425.4 429.9 427 429.9 426.9 431C426.9 431 429.6 431.5 428.4 432.9C428.4 432.9 423.5 433.9 420.1 432.5C420.1 432.5 418.3 431.9 418.1 431.5L418.2 431.4Z" fill="#00A651" stroke="black" stroke-width="0.3" stroke-miterlimit="4.8"/>
<path d="M435.7 423.2L435.8 423.5C438.8 422.3 444.1 415.2 444.3 414.8L444.1 414.7C444.1 414.7 438.7 422.1 435.7 423.2ZM434 421.9L434.1 422.2C437.157 419.655 439.879 416.731 442.2 413.5L442 413.3C442 413.3 436.6 420.5 434 421.9ZM432.5 421.3L432.7 421.5C435.5 419.2 439.5 411.5 439.7 411.3L439.4 411.1C439.4 411.2 435.2 419.1 432.4 421.3H432.5ZM431.1 419.5H431.4C432 415.7 437.4 409.7 437.4 409.5L437.2 409.4C437 409.6 431.7 415.6 431.2 419.5H431.1ZM420.3 414.9H420.6C420.1 409.4 424.6 403.4 424.7 403.3L424.5 403.1C424.5 403.1 419.8 409.3 420.3 414.9ZM423.1 415.3H423.4C422.7 410.9 427.8 404.7 427.9 404.6L427.7 404.4C427.4 404.7 422.4 410.8 423.1 415.4V415.3ZM427.5 416.9H427.8C427.8 411.9 432.5 406.9 432.5 406.9L432.3 406.7C432.3 406.7 427.4 411.8 427.5 416.9ZM417 425.9H417.3C415.6 421.3 418.6 415.4 418.6 415.3L418.3 415.2C418.3 415.2 415.3 421.2 417 426V425.9ZM419 426.3L419.3 426.2C417.8 421.5 420.3 415.2 420.4 415.2L420.1 415C420.1 415 417.5 421.5 419.1 426.3H419ZM427.3 431L427.4 431.3C432.4 429.5 435.6 425 435.7 424.9L435.4 424.8C435.4 424.8 432.2 429.2 427.4 431H427.3ZM426.3 429.9L426.4 430.2C430.4 428.4 434.1 423.4 434.1 423.4L433.9 423.2C433.9 423.2 430.2 428.2 426.3 429.9ZM425.3 429.5L425.5 429.8C428.6 427.5 432.5 421.8 432.6 421.8L432.4 421.6C432.4 421.6 428.4 427.3 425.4 429.6L425.3 429.5ZM420.4 426.6H420.7C420.582 422.832 421.48 419.101 423.3 415.8L423 415.6C423 415.6 419.7 421.6 420.4 426.6ZM422.6 428L422.8 428.2C426 425.3 427 417.6 427.1 417.2H426.8C426.8 417.3 425.7 425.2 422.6 428Z" fill="black"/>
<path d="M424.8 428.9L424.9 429.2C429.4 425.9 430.6 419.6 430.7 419.6H430.4C430.4 419.6 429.2 425.7 424.8 428.9ZM425.3 415.5V416.3L421.9 427.3L422.2 427.4L425.6 416.4C425.1 411 429.8 405.1 429.8 405.1L429.6 404.9C429.6 404.9 425.3 410.3 425.3 415.5Z" fill="black"/>
<path d="M428.8 418.1C428.8 418.3 427.8 425.9 423.7 428.7L423.8 428.9C428 426 429.1 418.6 429.1 418.3C430.9 416.1 435.1 408.5 435.1 408.5L434.9 408.3C434.9 408.4 430.7 415.9 428.9 418.1H428.8ZM416.8 426.4C416.8 426.6 417.5 430.4 418.3 431.7L418.5 431.5C417.8 430.2 417.1 426.5 417.1 426.4H416.8ZM418.8 426.4C418.8 428.4 418.8 431.4 418.6 431.7H418.9C419.1 431.4 419 427.3 419 426.5H418.7L418.8 426.4Z" fill="black"/>
<path d="M418.9 431.8L419.2 432C420.5 429.1 420.9 427.1 420.9 427.1H420.6C420.6 427.1 420.2 429.1 418.9 431.8Z" fill="black"/>
<path d="M419.2 432L419.3 432.2C420.786 431.312 421.863 429.875 422.3 428.2H422C422 428.2 421.5 430.6 419.2 431.9V432ZM419.6 432.1V432.4C422 432.2 423.6 429.3 423.7 429.2L423.5 429C423.5 429 421.8 432 419.6 432.1Z" fill="black"/>
<path d="M419.9 432.3V432.6C420.963 432.583 422.011 432.342 422.976 431.894C423.94 431.446 424.8 430.801 425.5 430L425.3 429.8C425.3 429.8 423.5 432.1 419.9 432.3Z" fill="black"/>
<path d="M420.1 432.4V432.7C420.3 432.7 425.1 433.7 426.8 431.2L426.6 431C425 433.4 420.2 432.4 420.1 432.4Z" fill="black"/>
<path d="M310.7 254V390.4C310.7 435 391.3 461.5 391.3 461.5C391.3 461.5 471.9 435 471.9 390.5V254H310.7Z" stroke="black" stroke-width="2.8" stroke-miterlimit="4.8"/>
<path d="M0.5 0H256.5V256H0.5V0Z" fill="#012169"/>
<path d="M256.5 0V32L161.5 128L256.5 221.5V256H223L127.5 162L34.5 256H0.5V222L93.5 128.5L0.5 37V0H31.5L127.5 94L220.5 0H256.5Z" fill="white"/>
<path d="M92.5 162L98 179L21.5 256H0.5V254.5L92.5 162ZM154.5 156L181.5 160L256.5 233.5V256L154.5 156ZM256.5 0L160.5 98L158.5 76L233.5 0H256.5ZM0.5 0.5L97 95L67.5 91L0.5 24.5V0.5Z" fill="#C8102E"/>
<path d="M88.5 0V256H168.5V0H88.5ZM0.5 88V168H256.5V88H0.5Z" fill="white"/>
<path d="M0.5 104V152H256.5V104H0.5ZM104.5 0V256H152.5V0H104.5Z" fill="#C8102E"/>
</g>
<defs>
<clipPath id="clip0_103_5345">
<rect width="512" height="512" fill="white" transform="translate(0.5)"/>
</clipPath>
</defs>
</svg>
