<svg width="513" height="512" viewBox="0 0 513 512" fill="none" xmlns="http://www.w3.org/2000/svg">
<g clip-path="url(#clip0_103_5457)">
<path d="M0.5 0H512.5V512H0.5V0Z" fill="#012169"/>
<path fill-rule="evenodd" clip-rule="evenodd" d="M315.692 323.163C315.056 323.147 314.419 323.179 313.788 323.258C310.551 323.83 305.41 334.397 302.65 340.585C298.175 345.916 295.89 350.105 294.082 353.151C293.32 354.389 292.178 355.722 292.558 357.34C285.894 358.958 285.514 364.67 285.514 366.86C285.514 369.335 286.275 370.478 286.275 370.478L290.274 377.903V377.998C294.558 386.852 300.746 398.657 304.363 399.609C309.314 401.037 322.261 396.277 331.971 387.994C350.681 395.786 370.729 399.86 390.995 399.99C413.653 399.99 434.026 394.563 449.924 387.994C459.634 396.277 472.486 401.037 477.532 399.609C481.054 398.657 487.338 386.757 491.622 377.998L495.525 370.478C495.525 370.478 496.286 369.335 496.286 366.955C496.286 364.766 495.906 358.958 489.242 357.435C489.622 355.817 488.575 354.389 487.814 353.151C485.91 350.01 483.625 345.821 479.246 340.394C476.39 334.206 471.249 323.83 468.107 323.258C463.538 322.497 453.827 324.782 453.827 325.638V326.114L434.121 344.488C434.121 344.964 435.073 358.292 438.881 370.192C423.452 375.681 407.18 378.42 390.805 378.284C371.955 378.284 355.866 374.952 342.824 370.097C345.274 361.711 346.869 353.099 347.584 344.393L328.068 326.114V325.638C328.068 324.972 320.547 323.163 315.692 323.163ZM320.642 346.011C323.118 346.011 325.688 348.106 327.878 350.295L327.687 351.628C326.91 355.059 325.892 358.431 324.641 361.719C319.779 358.927 315.217 355.641 311.027 351.914C313.122 349.629 316.549 346.582 320.166 346.106H320.642V346.011ZM461.158 346.011H461.634C465.251 346.582 468.678 349.629 470.868 351.914C466.65 355.647 462.055 358.933 457.159 361.719C455.907 358.432 454.889 355.059 454.113 351.628C454.031 351.187 453.967 350.742 453.923 350.295C456.017 348.01 458.682 346.011 461.158 346.011ZM303.126 372.096C305.696 374.095 309.123 376.38 313.217 378.76C312.112 379.501 310.888 380.048 309.599 380.378C307.886 380.759 306.172 380.664 304.363 380.283C303.682 378.551 303.296 376.717 303.221 374.857C303.17 373.937 303.138 373.017 303.126 372.096ZM478.77 372.096L478.579 374.857C478.503 376.716 478.116 378.55 477.437 380.283C475.935 380.641 474.376 380.69 472.854 380.428C471.332 380.167 469.879 379.599 468.583 378.76C472.772 376.38 476.199 374.095 478.77 372.096Z" fill="url(#paint0_linear_103_5457)" stroke="white" stroke-width="9.52"/>
<path fill-rule="evenodd" clip-rule="evenodd" d="M332.598 357.13C332.598 357.13 325.735 346.042 320.196 346.924C314.538 347.68 309.24 354.736 308.879 355.114C305.745 352.338 302.954 349.163 300.571 345.664C300.932 345.286 309.24 324.874 313.815 323.992C318.657 323.521 323.535 324.3 328.022 326.26L332.598 357.13Z" fill="url(#paint1_linear_103_5457)" stroke="black" stroke-width="1.47802"/>
<path fill-rule="evenodd" clip-rule="evenodd" d="M347.648 345.286C347.648 346.042 345.24 375.274 335.608 385.48C325.976 395.686 309.962 401.986 304.304 400.474C298.765 398.836 285.882 369.352 285.882 369.352C285.882 369.352 299.488 383.464 309.601 381.07C319.715 378.802 325.735 361.036 327.661 352.342C329.588 343.774 328.022 326.764 328.022 326.764L347.768 345.286H347.648Z" fill="url(#paint2_linear_103_5457)" stroke="black" stroke-width="1.47802"/>
<path fill-rule="evenodd" clip-rule="evenodd" d="M449.302 357.13C449.302 357.13 456.165 346.042 461.704 346.924C467.362 347.68 472.66 354.736 473.021 355.114C476.155 352.338 478.946 349.163 481.329 345.664C480.968 345.286 472.66 324.874 468.085 323.992C463.243 323.521 458.365 324.3 453.878 326.26L449.302 357.13Z" fill="url(#paint3_linear_103_5457)" stroke="black" stroke-width="1.47802"/>
<path fill-rule="evenodd" clip-rule="evenodd" d="M434.252 345.286C434.252 346.042 436.66 375.274 446.292 385.48C455.924 395.686 471.938 401.986 477.596 400.474C483.135 398.836 496.018 369.352 496.018 369.352C496.018 369.352 482.412 383.464 472.299 381.07C462.185 378.802 456.165 361.036 454.239 352.342C452.312 343.774 453.878 326.764 453.878 326.764L434.132 345.286H434.252Z" fill="url(#paint4_linear_103_5457)" stroke="black" stroke-width="1.47802"/>
<path fill-rule="evenodd" clip-rule="evenodd" d="M302.793 340.347C298.318 345.774 295.938 350.058 294.034 353.199C292.13 356.341 293.273 360.815 297.557 367.003C302.317 373.667 340.778 400.038 390.948 400.038C441.118 400.038 479.579 373.762 484.244 367.003C488.623 360.72 489.766 356.341 487.862 353.199C485.958 350.058 483.578 345.774 479.103 340.347C479.103 348.534 447.211 378.427 390.948 378.427C334.685 378.427 302.793 348.534 302.793 340.347Z" fill="url(#paint5_linear_103_5457)" stroke="black" stroke-width="1.428"/>
<path fill-rule="evenodd" clip-rule="evenodd" d="M476.731 396.13L485.4 381.136L481.066 377.986C479.862 381.766 474.925 383.026 474.082 387.814C473.24 392.602 477.454 397.264 476.731 396.13Z" fill="url(#paint6_linear_103_5457)" stroke="black" stroke-width="1.47802"/>
<path fill-rule="evenodd" clip-rule="evenodd" d="M484.7 391.78C484.7 391.78 486.265 385.102 481.329 384.22C476.513 383.464 473.864 388 474.586 386.236C475.309 384.22 478.198 382.33 478.68 375.652C479.041 368.974 478.319 365.32 478.319 365.32C478.319 365.32 480.245 356.752 488.071 357.886C496.018 359.146 496.379 365.446 496.379 367.714C496.379 369.982 495.656 371.242 495.656 371.242L484.7 391.78Z" fill="url(#paint7_linear_103_5457)" stroke="black" stroke-width="1.47802"/>
<path d="M457.3 366.1L458.9 369L459.9 368.3L459.2 366.5L459.4 366.1L461.3 364.9L466.1 373.6V374L465.1 374.7L465.6 375.5L470.2 372.5L469.8 371.7L468.8 372.3H468.3L463.5 363.6L465.3 362.4H465.7L466.9 364L467.9 363.3L466.3 360.5L457.3 366.2V366.1ZM445.6 372.8L446 373.6L447 373.2L447.4 373.3L451.6 382.1V382.5L450.6 383.1L451 383.9L455.6 381.5L455.2 380.6L454.2 381H453.8L451.8 376.8L456.5 374.4L458.5 378.4V378.8L457.5 379.5L457.9 380.3L462.6 377.9L462.2 377.1L461.2 377.5L460.8 377.3L456.5 368.6L456.6 368.2L457.6 367.6L457.2 366.8L452.5 369.2L452.9 370L453.9 369.6L454.3 369.7L456.1 373.3L451.4 375.8L449.6 372.2L449.8 371.8L450.7 371.2L450.3 370.4L445.6 372.8ZM442.9 380.3L443.2 381.1L444.5 380.8L444.9 381L445.9 384.6L444.9 385C442.3 385.8 440.1 384.5 439.2 381.3C438.2 378.2 439.3 375.8 441.9 375C442.421 374.859 442.965 374.825 443.5 374.9L443.8 375.1L444.8 376.8L446 376.4L445.2 373.4C443.7 373.4 442.4 373.6 441.2 374C437.4 375.3 435.6 378.4 436.6 382.1C437.6 385.8 440.9 387.5 444.6 386.3C445.937 385.845 447.188 385.169 448.3 384.3L447.1 380.3L447.3 380L448.3 379.6L448.1 378.6L442.9 380.3ZM432.1 390.5L437.3 388.9L437.1 387.9L435.8 388.2L435.5 388.1L432.7 378.6L432.8 378.3L434 377.8L433.7 377L428.5 378.6L428.7 379.4L430 379.2L430.3 379.3L433.1 388.8L432.9 389.1L431.9 389.6L432.1 390.4V390.5ZM403.7 395.1L412.9 394.3L412.6 391H411.5L411.3 393L411.1 393.4L407.1 393.8L406.7 388.8H409L409.3 389L409.5 390.3H410.5L410.2 385.9H409.2V387.3L408.9 387.7L406.7 387.8L406.3 383.4L409.7 383.2L410 383.3L410.3 385L411.5 384.9L411.3 381.9L402.7 382.8V383.6H403.8L404 383.9L404.9 393.7L404.7 394L403.7 394.2V395.2V395.1ZM389.9 383V384H391L391.2 384.3L391.4 394.1L391.2 394.4L390.2 394.6V395.4H395.1V394.5H394.1L393.7 394.1V389.5L398.6 389.4L398.7 394L398.5 394.4H397.5V395.4H402.3V394.4H401.3L401 394L400.9 384.2L401.1 383.8H402.1V382.8H397.2V383.8L398.2 383.9L398.6 384.2V388.2L393.6 388.3V384.3L393.9 384H394.9V383H389.9ZM379.5 382.7V386H380.7L381 384L381.2 383.8H383.2V393.8L382.9 394.2H381.8V395.2H386.9V394.4L385.8 394.2L385.5 393.9L385.6 383.9H387.6L388 384.1L388.2 386.1H389.4V382.9L379.5 382.7ZM363.6 393.2L372.6 393.6L372.7 390.4L371.7 390.3L371.3 392.3L371 392.5L367.1 392.3L367.4 387.4L369.6 387.6L369.7 387.8L369.9 389.2H370.9L371 385H370L369.8 386.2L369.6 386.4H367.4L367.6 382L370.9 382.1L371.1 382.4L371.4 384H372.5V381L364.2 380.6V381.6L365.2 381.7L365.4 382L365 391.8L364.7 392.1H363.7V393.1L363.6 393.2ZM343 387.8L347.7 389.5L348 388.6L347 388.2L346.8 387.8L349.7 378.4L350 378.2L351.2 378.5L351.4 377.6L346.6 376L346.3 376.8L347.3 377.3L347.6 377.6L344.6 387L344.3 387.3L343.3 386.9L343 387.8ZM334.4 384.6C335.293 385.313 336.31 385.856 337.4 386.2C340 387 342.1 386 342.8 384C342.962 383.451 342.983 382.87 342.861 382.31C342.738 381.751 342.477 381.231 342.1 380.8C341.3 379.8 340.6 379.3 340.2 378.8C339.5 378 339.2 377.2 339.4 376.4C339.7 375.5 340.7 375 341.9 375.4L343 376.1V376.4L342.8 378.3L344 378.7L344.8 375.9C343.979 375.167 343.03 374.591 342 374.2C339.7 373.4 337.8 374.5 337.1 376.4C336.968 376.869 336.936 377.36 337.005 377.842C337.074 378.324 337.242 378.787 337.5 379.2C338.1 380.1 338.8 380.7 339.3 381.2C340.3 382.2 340.6 383.1 340.3 384C340 385 339 385.5 337.7 385C337.224 384.809 336.785 384.539 336.4 384.2L336.2 383.9L336.6 381.7L335.4 381.3L334.4 384.6ZM323.6 380L331.8 384L333.1 381L332.1 380.6L331.1 382.2L330.8 382.4L327.2 380.6L329.2 376.3L331.2 377.3V377.6L330.9 378.9L331.8 379.4L333.5 375.4L332.7 375L331.9 376.1L331.6 376.3L329.6 375.3L331.4 371.3L334.4 372.8L334.6 373.2L334.1 374.7L335.1 375.2L336.4 372.6L328.7 368.8L328.4 369.6L329.2 370.1L329.4 370.6L325.4 379.4L325 379.5L324 379.2L323.7 380H323.6ZM322.3 365.2L318.3 362.3L317.7 363.1L318.6 363.8V364.2L313.4 372.3L313 372.4L312.2 371.9L311.6 372.8L315.7 375.5C317.2 376.5 318.4 377 319.7 376.8C321.4 376.7 323 375.7 324.1 373.8C326.1 370.6 325.6 367.4 322.3 365.2ZM320.6 365.2L321.4 365.8C323.6 367.3 323.8 369.5 322 372.3C320.2 375.1 318.1 375.9 316 374.3L315.1 373.9L320.6 365.3V365.2ZM353.2 378.1L353 378.9L354 379.2L354.2 379.5L352.2 389.1L351.9 389.4L350.9 389.3L350.7 390.1L355.4 391.1L355.6 390.4L354.6 390L354.3 389.6L355.1 385.6H355.5C357.1 386 357.5 386.9 357.5 388.7C357.5 389.7 357.5 390.4 358.3 391.4C358.6 391.8 359.1 392.2 360 392.4C360.528 392.505 361.063 392.572 361.6 392.6L361.7 391.7H361.6C360.4 391.4 360 391 359.9 390C359.8 389 359.9 388 359.5 387C359.207 386.329 358.672 385.793 358 385.5C360 385.5 361 384.7 361.4 383.1C361.8 381.1 360.8 379.7 358.2 379.1L353.2 378.1ZM356.4 379.8L357.1 379.9C358.7 380.3 359.4 381.3 359.1 382.8C358.7 384.5 357.8 385.1 356 384.7C355.8 384.7 355.6 384.7 355.4 384.5L356.4 379.8ZM416.8 380.8L416.9 381.8H418.3L419.9 391.7L419.6 391.9L418.6 392.2L418.7 393L423.7 392.2V391.3L422.5 391.4L422.2 391.2L421.6 387.1H421.9C423.7 386.7 424.3 387.4 425.2 389.1C425.6 389.9 425.8 390.7 426.9 391.3C427.4 391.5 428.1 391.7 428.9 391.5C429.511 391.375 430.112 391.208 430.7 391L430.5 390.2H430.3C429.1 390.4 428.5 390.2 427.9 389.3C427.4 388.5 427.1 387.5 426.5 386.8C426 386.3 425.3 386 424.5 386C426.4 385.2 427.3 384 427 382.3C426.7 380.3 425 379.4 422.3 379.8L416.8 380.8ZM420.7 381.2H421.5C423.2 380.8 424.3 381.5 424.5 383C424.7 384.7 424 385.6 422.1 386H421.4L420.6 381.2H420.7Z" fill="black"/>
<path fill-rule="evenodd" clip-rule="evenodd" d="M305.169 396.13L296.5 381.136L300.835 377.986C302.039 381.766 306.975 383.026 307.818 387.814C308.66 392.602 304.447 397.264 305.169 396.13Z" fill="url(#paint8_linear_103_5457)" stroke="black" stroke-width="1.47802"/>
<path fill-rule="evenodd" clip-rule="evenodd" d="M297.2 391.78C297.2 391.78 295.635 385.102 300.571 384.22C305.387 383.464 308.036 388 307.314 386.236C306.591 384.22 303.702 382.33 303.22 375.652C302.859 368.974 303.581 365.32 303.581 365.32C303.581 365.32 301.655 356.752 293.829 357.886C285.882 359.146 285.521 365.446 285.521 367.714C285.521 369.982 286.244 371.242 286.244 371.242L297.2 391.78Z" fill="url(#paint9_linear_103_5457)" stroke="black" stroke-width="1.47802"/>
<path fill-rule="evenodd" clip-rule="evenodd" d="M391.068 373.56C391.068 373.56 300.166 346.596 300.768 244.788L301.37 109.968H480.645L481.247 244.032C481.849 345.84 390.947 373.434 390.947 373.434L391.068 373.56Z" fill="#0072C4" stroke="white" stroke-width="4.80356"/>
<path fill-rule="evenodd" clip-rule="evenodd" d="M313.8 140.1C314 140.1 315 139.1 316.1 138.1C317.5 137.4 318.8 136.5 320.1 135.7C321.3 135.2 323.4 134.7 324.3 134.2C325.65 133.567 326.845 132.645 327.8 131.5C327.9 129.7 328.2 128.4 328.2 126.4L332.2 124.4C334.2 123.8 334.5 123.1 336.4 122.8C337.6 122.4 339.6 122.4 341.3 122.4C343.2 122.4 344.3 123.8 346 124C348 124.8 349 125.4 350.6 126.8C351.4 127.9 352 128.8 353.6 129.7C354.7 130.4 355.9 131.3 357.3 131.7C358.9 132.6 360.2 133.1 361.4 134.4C362.6 135.2 363.1 136.4 364 137.2C365.222 138.238 366.526 139.175 367.9 140C369.5 141 371.1 141.8 373.6 141.6C375 141.6 376.5 141.4 378.1 141.6C380 141.6 381.8 141.6 383.4 142.1C385.4 142.1 386.9 142.3 388.7 142.5C390.4 142.8 392.1 142.8 393.9 142.8C395.6 143.3 397.4 143.2 399.2 143.2H409.8C411.8 143.2 413.7 143.3 415 143.6C416.773 143.58 418.544 143.446 420.3 143.2C422.3 143.2 423.9 142.9 426 142.8H432.3C434 143.3 436.1 143.6 437.3 144.5C438.8 144.9 439.5 145.6 441 146.1C442.451 146.707 443.749 147.629 444.8 148.8C445.984 150.096 446.992 151.542 447.8 153.1C448.8 154.6 449.2 156.4 450 158.2C450.4 160 450.8 161.7 450.8 163.7C451.2 165.4 451.2 167.3 451.2 169.2C450.7 171 450.7 173 450 174.7C450 176.7 449.6 178.4 449.3 179.8C449 181.5 448.5 182.5 448.5 184.6V190.1C448.5 191.9 448 193.1 447.8 195.1C446.787 197.047 445.886 199.05 445.1 201.1C443.93 201.914 442.914 202.93 442.1 204.1C441.3 204.8 440.9 205.5 441 205.8C442.5 206.3 442.1 207.4 442.1 209.3C442.3 210.9 442.4 212.8 442.9 214.5C443 216.3 443.4 217.5 443.9 218.8C444.6 219.6 444.8 219.2 443.2 219.2C442.2 220 441 219.6 440.6 218C439.754 216.675 439.24 215.166 439.1 213.6C438.9 211.9 438.6 210.1 438.1 208.9C437.8 206.7 437.2 206.7 435.1 206.6C434 205.6 432.6 205.4 430.5 205.4C428.5 205.4 428.3 205.2 428.2 207.4V212.9C427.8 214.5 427.2 215.8 426.7 217.2C425.6 218 425.1 219.4 423.7 220.3C423 222.1 422.1 222.4 420.3 222.8L418.1 220C419.1 218.2 420.1 218 420.7 216C421.5 214.5 422 213.5 422.5 212.1C421.7 210.9 421.1 210.3 420.3 208.6C419.476 207.245 418.805 205.803 418.3 204.3C417.2 203.8 415.3 203.7 414.3 203.1C412.4 202.6 412 204.7 409.8 204.7H404.5C402.2 204.7 401.6 205.9 399.6 205.8C399 206 397.6 205.8 395.5 205.8C393.9 206.4 392 206.2 390.2 206.2C388.3 206.2 386.8 205.7 385.3 205.4C383.6 204.9 381.9 204.4 380.1 204.3C377.8 204.3 377 204.4 375.5 205.4C374.4 206.1 372.7 207.7 371.5 208.6C370.9 209.9 370.6 212.1 369.8 213.6C369.5 215.3 368.8 216.2 368.3 217.6C367.706 219.134 367.368 220.756 367.3 222.4C367.1 225 366.6 224.7 365 223.9C364.4 222.8 363.4 221.6 362.7 220.3C363.1 218.3 363.5 217.4 363.5 215.3C363.1 213.6 362.3 213.8 361.3 214.9C361.3 216.9 361.3 218.5 360.4 219.6C360.09 220.85 359.299 221.928 358.2 222.6C357.7 224.2 356.4 224.9 355.2 225.5V223.8C354.3 222.1 355.2 220.6 355.2 218.4C355.2 216.4 355.1 215.1 355.6 213.4C355.6 211.4 354.8 209.6 354.5 208.2C353.8 206.7 353.4 206 351.5 205.4C350.1 204.8 348.2 204.2 347.3 203C346.445 201.796 345.266 200.86 343.9 200.3C342.3 199.7 341.4 199.1 340.1 198.3C339.1 197 338.1 196.5 337.5 194.8C336.7 193.6 336.6 191.3 336.1 189.7C335.918 188.086 335.514 186.504 334.9 185C334.735 183.36 334.365 181.748 333.8 180.2L332.7 175.1C332.7 173.2 332.7 171.3 332.2 169.6V164.1C332 162.5 331.9 160.1 331.5 159C331.5 156.8 331.3 155.7 330.7 154.2C329.9 152.8 329.9 152.2 328.5 151.9C327.5 153.1 326 153.7 324 153.9C322.6 153.6 320.7 153.3 319.1 152.7C317.6 152.4 316.6 151.7 315.4 151.1C314.691 150.025 313.923 148.99 313.1 148C312.8 146 312.4 144.9 312.3 142.8C312.3 141.4 312.3 142.2 313.9 140.1H313.8Z" fill="#BCBCBC"/>
<path fill-rule="evenodd" clip-rule="evenodd" d="M336.1 154.3L336.4 154C335.7 154.6 336 154.3 337.4 153.7C338.3 153.3 339.8 152.4 340.4 151.7C341 151.5 342.2 151 342.8 150.4C343.5 149.6 344.2 148.9 345.2 148.2C346.2 147.3 347.2 147 348.4 146.2C349.8 146.1 350.4 145.4 351.8 145.9C353.1 146.2 353.7 146.2 354.8 145.1C355.8 144.5 357 143.7 357.4 142.7V140.9C357.4 142.7 357 143.4 355.8 143.9C355 145 353.8 146.1 353.4 147.1C352.5 148.3 352.4 148.9 351.6 149.5C350.8 150.4 349.6 150.9 349.4 152.4C349.8 153 349.4 153.4 350.3 153.4C351 154.1 351.8 153.8 352.9 153.4C353.737 152.45 354.413 151.369 354.9 150.2L356.9 147.3C357.9 146.7 358.4 146.2 358.7 145.1C359.7 144.5 360.7 143.8 361.4 143.1C362.2 142.7 362.6 142.3 363.8 142.1C363.866 143.16 363.585 144.213 363 145.1C362.7 146.7 362.8 147.4 363.3 148.4C364 148.9 363.9 149.4 364.3 150.4C364.8 149.4 365 147.6 365.2 146.4V146.2C365.2 147.4 365.2 149 364.8 149.8C364.8 151.5 365.3 152.2 365.7 153.4C366.1 154.1 366.5 154.4 367 154.8C367 153.2 367.5 152.2 367.5 150.8C367.9 151.8 367.8 153.3 368 154.6C368.1 155.9 368.6 156.8 369 157.9C369.7 158.2 369.9 159.4 370.1 158.5C370.8 156.5 370.8 154.4 371.2 152.4C371.179 151.239 371.383 150.084 371.8 149L371.2 152.3C371.2 151.3 371.4 149.8 371.8 149V148.7C372.073 150.186 372.241 151.69 372.3 153.2C372.3 154.4 372.3 155.6 372.6 156.8C373.4 156.4 374 155.4 374.5 154.3C375.042 153.222 375.714 152.215 376.5 151.3L374.5 154.3C375.042 153.222 375.714 152.215 376.5 151.3V151C376.36 152.262 376.293 153.531 376.3 154.8C376.3 156.1 376.3 157.6 376.6 158.5C376.9 159.9 377.3 160.2 377.4 161.7C377.4 162.5 377.2 163.4 377.6 163.7C378.8 164 378.8 163.4 378.9 161.8C378.9 160 379.4 158.8 379.5 157.1C379.5 155 379.8 157.3 380 158.1C380.487 159.275 380.758 160.529 380.8 161.8C380.8 162.6 380.8 163.4 381.1 163.8C382.1 163.3 382.5 162.1 383.1 161.5L384.8 158.7C386.2 158.5 386.1 157.9 386.1 156.3C386.1 154.9 386.1 153.5 386.4 152.3C386.834 151.122 387.201 149.92 387.5 148.7C388 148.4 388.5 149.2 388.8 149.8C389.4 150.8 389.3 152 389.3 153.4C389.642 154.581 390.112 155.721 390.7 156.8C391.208 157.782 391.847 158.69 392.6 159.5C392.8 160.5 392.8 162 392.8 163.2C393.8 162 394 160.2 394.1 158.5C393.9 157.3 393.9 155.7 393.6 154.5C393.543 153.379 393.342 152.269 393 151.2C392.2 150.8 392 150.4 392.8 149.2C393.6 148.5 394.6 148.9 396 149C396.7 149.8 397 150.2 397 151.8C397 153.3 397 154.4 397.6 155.4C398.1 156.2 398.6 156.8 398.9 158.1C399.3 158.6 399.6 159.1 400.2 158.5C400.5 157.7 400.8 156 401 155.1C401.3 154.1 401.8 153.5 402.3 153.1C402.3 154.7 402.3 155.6 402.9 156.8L404.2 159.8C404.8 160.3 404.9 161.1 405.6 161.5C405.8 160.2 405.8 158.7 405.8 157.1V153.1C405.9 151.9 406.2 151.1 406.7 150.1C407.5 151.2 407.5 151.6 407.5 153.1C408.3 152.8 408.5 152.2 408.8 151.2C409.3 150.6 409.6 150.4 409.8 151.8L410.6 155.9C411.1 156.6 411.8 158.1 412.4 158.7C412.883 159.525 413.453 160.296 414.1 161C414.5 161.8 414.6 162.4 415.7 162.6C415.7 160.8 415.7 158.9 415.4 157.1C415.4 155.5 415 154.9 414.9 153.4C414.4 152.5 414.2 151.1 414.3 150.6C415.391 151.519 416.248 152.685 416.8 154L418.4 157.7C419.158 158.529 419.828 159.434 420.4 160.4C421.4 161.2 421.9 162.1 422.9 162.9C423.4 163.4 424.5 163.7 424.7 163.4C424.7 161.8 424.4 160.4 423.9 159C423.896 157.852 423.622 156.722 423.1 155.7C422.1 154.8 421.2 154.2 420.7 152.9C420.3 152.5 420.3 152.3 420.2 151.5C421.592 152.639 422.836 153.95 423.9 155.4C424.444 156.25 425.203 156.94 426.1 157.4C426.5 158 428.1 158.7 429.2 159C429.868 159.871 430.826 160.474 431.9 160.7L429.2 159C429.868 159.871 430.826 160.474 431.9 160.7V161C431.716 159.398 431.169 157.859 430.3 156.5C429.759 155.289 428.894 154.251 427.8 153.5C427.147 152.47 426.255 151.613 425.2 151C424.5 150.2 423.4 148.7 422.8 148.2C424 147.4 425.3 148.7 426.5 149.2C427.6 150.4 428.5 151.9 429.2 152.6C429.84 153.953 430.683 155.201 431.7 156.3C432.8 156.9 433.5 157.6 434.5 158.5C436.2 158.9 435.5 158.3 435.1 157.1C434.5 155.5 435.1 155.5 436.1 156.5C436.9 157.1 437.8 157.9 438.8 158.5C439.3 159 440 159.5 440.6 159C441 158.6 441 158.6 441 158.2C440.4 156.4 439.8 155.2 438.5 154.6C437.9 153.7 436.9 152.9 436.1 152.1L434.5 149.8L436.2 152C435.6 151.2 435 150.8 434.5 149.8H434.3C435.9 149.8 436.5 150.3 437.7 151C438.677 151.421 439.51 152.115 440.1 153C440.6 153.6 441.5 154.3 442.1 155.1L444.6 157.1C445.6 158.2 445.6 159 445.6 160.7C446.3 161.5 446.3 163.1 446.6 164C446.3 165.6 445.8 164.3 445.6 163.4C445.6 162.2 445 162.3 444.1 162.6C444.1 164.3 444.3 164.7 444.9 166C444.773 166.963 444.431 167.886 443.9 168.7C443.2 169.1 443.1 167.9 442.5 167.4C442.5 165.7 442 165.4 440.9 164.6V165.7C441.5 166.9 442.2 167.9 442.3 169.6C442.69 170.758 442.859 171.979 442.8 173.2C442.8 174.6 442.8 175.9 442.5 177.2L442.3 180.7V188.5C442.086 189.688 441.986 190.893 442 192.1L442.3 188.5C442.1 189.5 442 190.7 442 192.1V192.4C441.5 191 441 189.8 440.6 188.3C439.808 187.467 439.195 186.48 438.8 185.4L438.3 181.9C437.9 180.9 437.5 179.9 436.6 180.5C436.3 182.5 436.8 183.7 437.5 185.7C437.9 187 437.9 188.1 438.3 189.4C438.9 190.8 439.4 191 438.3 192.6C437.7 193.6 437.5 193.8 437.3 194.9C436.3 195.4 436 195.7 435.9 196.9C435.6 195.8 434.8 194.5 434.3 193.3L433 189.3C432.3 188.3 431.6 186.9 430.9 186.3C430.1 185.4 429.2 183.8 428.7 183C427.7 181.8 427.4 181 426.5 180.5C426.4 179.9 426.1 179.2 425.5 179.7C425.5 181 425.5 182.4 425.8 183.5C426.1 185.1 426.5 186 426.6 187.6V190.7C426 189.1 425.2 187.8 424.7 186.3C424.1 185.4 423.7 183.8 422.9 183.3C422.4 182.1 422.1 181.3 421.5 180.5C421.4 179.7 421 179.7 420.7 179.1C420.7 180.6 421.2 181.2 421.5 182.4C422.003 183.459 422.21 184.633 422.1 185.8C421.4 183.8 420.8 181.7 419.9 179.9C419.1 178.8 418.3 177.3 417.9 176.2C417 175.3 416.2 175.2 415.4 174.6C414.696 174.285 414.079 173.804 413.6 173.2C413.7 174.7 414.3 175.7 414.6 176.8C414.8 178.2 415.5 179.3 415.7 180.5C415.4 182.4 414.9 179.9 414.7 179.1C414.47 177.914 413.993 176.789 413.3 175.8C412.5 175.2 412 174.3 411.1 173.8C410.3 173.5 410.6 173.8 410.6 174.8C410.6 176.6 410.6 177.8 411.1 178.8C411.7 179.6 411.7 180.6 411.7 182.1C411.7 183.5 411.4 184.6 411.4 186.1V188.2C410.8 187.1 410.2 186.3 409.8 184.9C408.9 183.6 408.6 182.7 408 181.3C407.4 181 406.3 180.8 405.8 181.3C405.9 182.7 406.6 183.3 406.7 184.9C405.6 185.9 405.7 186.3 405 184.6C404.5 183.3 403.7 183.4 402.9 182.6C401.6 182.6 402 181.6 401.6 180.4C401.6 179.4 401.6 178.3 401.3 177.4C399.8 177.4 399 177.4 398.1 178.2C397.7 179 397.9 180.6 398.1 181.9V185.7C397.8 186.7 397.3 186.7 397.1 188C396.5 189.1 396.4 190.4 396 191.2C395 192.2 395.4 192.2 395 190.7V181.7L395.2 178.2C394.7 177.1 394.5 176.8 392.7 176.8C392.4 177.5 392.6 178.8 392.7 179.6C392.7 181 392.9 182.3 393 183.2C393 184.7 393.2 185.6 393.3 186.8C393.3 188.3 393 189.4 392.3 190.1C391.3 190.4 392.1 191.1 391.2 191.3C390.107 190.786 389.095 190.112 388.2 189.3C387.2 189 386.2 188.8 384.8 188.8C383 188.8 383 188.5 382.4 187.2C381.932 185.733 381.597 184.227 381.4 182.7C380.7 181.4 380.6 180.5 380.4 179C380.022 178.194 379.435 177.503 378.7 177C378.3 178.5 377.9 179.7 377.9 181.3C377.6 181.9 377.5 183.6 377.4 184.3C376.8 183.5 376.6 181.9 376.3 180.7C375.8 179.1 375.3 178 373.6 178.5C371.9 178.5 371.8 178.5 371.8 180.5L373.8 183.7V187.7C373.8 189.3 374 189.7 372.8 190.1C372.284 188.404 371.472 186.813 370.4 185.4C370.3 184.4 370 184.6 368.8 184.6C368.1 184.6 367.4 184.5 367 184.9V187.3C366.3 187.5 366.1 187.3 365.7 186.8C365.2 187.6 365.6 188.8 365.7 189.8C365.459 190.904 365.018 191.954 364.4 192.9C364.2 192.5 363.9 192.7 364.4 192.7L359.4 191.1C358.6 191.1 357.9 192 357.4 192.7C356 193.1 355.4 193.5 353.9 193.5C352.5 193.5 351.8 193.8 350.5 193.8C349.5 194 348.3 194.1 347 194.1C346.3 193.8 345 193.8 344.6 193.5C345.2 192.7 345.8 192.3 346.3 191.1C347.023 190.493 347.693 189.823 348.3 189.1L350.5 186.8C350.9 185.4 351.5 185.2 352.4 184.6C354 184.6 354.2 185.2 355.8 185.4C357.3 186 358.2 186.3 359.1 185.1C360.3 184.6 361.3 183.7 362.7 183.5L365.4 181.9C366.6 181.1 367 180.4 368 179.6C368.3 178.4 369.2 177.6 368.8 176.3C367.4 175.9 366.5 176 365.6 176.8C364.6 177.8 364.3 178.2 363 179C362 179.3 361.3 179.8 360 180.2C359 180.6 357.6 180.4 356.4 180.4C355.2 180.4 353.6 180.4 352.9 180.7C354.033 179.863 355.279 179.19 356.6 178.7C357.6 178 358.1 177.7 359.6 177.7C360.2 176.8 360.9 176.8 361.2 175.4C361.6 173.8 360.2 174.3 359 174.9C358 175.1 356.7 175.9 355.8 176.2C354.703 176.567 353.557 176.769 352.4 176.8C352 176.3 352.6 175.9 352.9 175.2C354.1 174.7 354.3 174.5 354.5 173.2C353.1 173.4 352.5 173.9 351.2 174C349.9 174.4 348.5 174.5 347 174.6H343.3C342 174.6 341.3 174.3 339.8 174.3C338.8 173.7 338.8 173.5 338.8 171.8C339.6 170.8 340.4 171 342 171L344.9 169.6C345.9 169.4 346.5 169 346.3 168.5H342.5C341 167.8 342.5 167.6 343.3 167.1C344.6 167.1 345.9 167.1 346.8 167.6C348.4 167.6 349 167 350.3 166C351.3 165.2 351.7 164.6 352.9 164C353.7 163.1 354.5 162.6 354.9 161.8C356.1 160.8 356.9 160.2 357.4 159.3C358.1 158.9 358.6 158.5 358.2 157.9C356.5 158.1 355.8 158.7 354.7 159.5C354.13 160.172 353.455 160.746 352.7 161.2C351.669 161.921 350.456 162.336 349.2 162.4C347.8 162.4 346.8 162.1 345.4 162.1C344 161.9 345.3 161.6 345.7 160.9C346.3 160.6 346.7 159.7 346.3 159C345.1 158.6 343.8 158.7 342.5 158.7H338.8C337.4 158.7 336.8 158.4 335.8 157.9C335.6 157.1 335.8 157.3 336.8 157.3C338.016 157.283 339.225 157.115 340.4 156.8C341.6 156.4 341.8 155.9 342 154.6C340.7 154.6 339.3 154.6 338.5 154.3H336.1ZM313.1 148C312.8 146 312.4 144.9 312.3 142.8C312.3 141.4 312.3 142.2 313.8 140.1C314 140.1 315 139.1 316.1 138.1C317.5 137.4 318.8 136.5 320.1 135.7C321.2 135.2 323.4 134.7 324.3 134.2C325.65 133.567 326.845 132.645 327.8 131.5C327.8 129.7 328.1 128.4 328.1 126.4L332.2 124.4C334.2 123.8 334.5 123.1 336.4 122.8C337.6 122.4 339.6 122.4 341.3 122.4C343.2 122.4 344.3 123.8 346 124C348 124.8 349 125.4 350.5 126.8C351.4 127.9 352 128.8 353.5 129.7C354.7 130.4 355.9 131.3 357.3 131.7C357.3 133.1 357.6 132.9 356.6 132.9C356.4 134.3 356.1 134.3 354.7 134.3C353.726 133.782 352.9 133.025 352.3 132.1C352.9 130.6 352.5 133.2 352.3 133.7C351.6 134.3 351.3 134.8 350.5 134.3C350 132.9 349.7 132 349.7 130.3C349.4 128.6 349 129.9 348.7 130.6C348.2 132.1 348.4 132.6 348.9 133.7L345.4 133.5C344.4 133.2 343.4 133.5 342.2 133.9C340.8 134.9 341.2 134.9 341.9 135.9C343.2 136.3 344.1 136.9 345.2 137.5C346.3 137.4 347.6 137 348.9 136.7C350.2 136.3 351.3 136.7 352.6 136.7C353.3 137.1 354.1 137.2 354.5 137.5C354.5 138.5 354.5 139.3 354.2 139.8C353.7 140.2 353.2 141.2 352.2 141.4C351.082 142.077 349.868 142.582 348.6 142.9C347 142.9 346.3 143.3 345.1 143.9C345 145.4 344.5 145.8 343.2 146.2C342.082 146.765 340.852 147.072 339.6 147.1C338.8 147.1 338 147.1 337.7 146.7C338.592 145.772 339.304 144.687 339.8 143.5C340.1 142.9 340.6 142.5 340.1 142C338.5 142 338.1 142 337.9 143.6C337.8 145.2 337.2 145.4 336.1 145.9C336.4 144.6 336.5 143.5 336.9 142.3C335.777 142.495 334.64 142.595 333.5 142.6C332.7 143.2 332.3 143.3 332.7 144.2C331.6 144.6 330.2 144.4 328.9 144.2C327.8 144.2 328.4 143.7 327.6 143.2C327 142.1 326.5 141.8 325.2 141.8C324.6 142.6 323.5 142.8 322.8 143.4C321.6 143.8 320.9 143.4 319.8 142.9C318.6 142.9 318.8 143.3 319 144.3C319.6 144.6 319 145 319.9 145.1C320.7 145.8 321.3 145.9 322.8 145.9C323.9 145.7 325.2 145.7 326.5 145.7C327.8 145.7 327.6 146 327.6 147.3C326.8 148 325.5 147.9 324.1 147.9C323.005 147.765 321.93 147.496 320.9 147.1C319.7 147 318.7 146.7 317.7 147.1C317.3 147.6 316.1 147.7 317.5 147.9C318.1 148.4 321.2 148.1 321.3 149.1C322.1 149.9 321.9 151 320.7 151C320.415 150.823 320.086 150.729 319.75 150.729C319.414 150.729 319.085 150.823 318.8 151L315.3 151.1C317.3 151.3 313.8 148.9 313.1 148Z" fill="#FEFEFE"/>
<path fill-rule="evenodd" clip-rule="evenodd" d="M321.5 138.7L319.9 139.8C318.787 140.463 317.718 141.198 316.7 142C316.1 142.5 316.1 142.8 315.4 142.8C316.6 142.7 317.2 142.3 318.4 141.8C319.7 141.6 321 141.3 321.7 140.6C322.5 140.4 321.7 139.3 321.5 138.6V138.7ZM333.7 125.7C333.9 125.7 334.2 126.4 334.7 127C335.2 128 335.6 128.8 335.6 130.1C335.9 128.7 336.4 127.7 336.6 126.2C336.2 125.4 336.2 125.2 335 125.1C335 125.9 335.2 125.3 333.7 125.6V125.7Z" fill="#BCBCBC"/>
<path fill-rule="evenodd" clip-rule="evenodd" d="M325.578 137.502C324.976 137.502 326.541 136.872 327.143 136.746C327.625 135.738 327.865 135.108 328.708 134.478C330.033 134.478 330.755 134.982 331.357 135.864C332.561 136.242 332.922 136.746 334.247 136.998C334.849 137.502 335.451 137.502 334.247 137.88C333.524 138.258 332.441 138.384 331.116 138.384C330.029 138.469 328.967 138.769 327.986 139.266C326.18 139.266 326.421 139.266 325.578 137.502Z" fill="#C4C4C2" stroke="black" stroke-width="1.10851"/>
<path fill-rule="evenodd" clip-rule="evenodd" d="M338.5 125.9V126.2C338.5 125.4 338.5 125.8 338.8 127.2C339.2 128.2 339.3 129.2 339.3 130.7C340.089 130.042 340.678 129.176 341 128.2C341 126 340.6 126 338.5 125.9ZM348.3 157.9H348.6C347.8 157.9 348.3 157.9 349.6 157.1C350.6 156.4 351.3 155.5 352.6 155.1C353.598 154.226 354.752 153.548 356 153.1C356.7 152.8 357.3 152.4 358 152.8C357.8 154.2 357.5 154.8 356.3 155.4C355.7 156.2 354.8 156.7 353.9 157C353.1 157.4 352.1 157.5 351.8 158.5C350.3 159.1 350.2 159 348.4 157.9H348.3ZM353.4 165.9L356.4 163.2C357.114 162.136 357.992 161.191 359 160.4C359.8 159.2 360.8 158.4 361.4 157.4L363.5 154.6C363.5 155.8 363.4 157.4 363.8 158.1C363.896 159.289 363.616 160.478 363 161.5C362.4 162.5 362 163.1 360.5 163.8C359.4 164.4 358.6 164.6 357.7 165.4C356.899 165.923 356.064 166.39 355.2 166.8C354.5 167.1 354.8 167 353.4 166V165.9ZM345.1 172.3H345.4C344.6 172.3 345 172.4 346.5 171.5C347.6 170.4 348.5 169.9 349.9 169.3C351.043 169.261 352.166 168.989 353.2 168.5C353.8 168.3 354.2 167.9 354.7 168.5C355.6 169.6 355.8 170 354.5 170.7C353.702 171.342 352.784 171.817 351.8 172.1C351.2 172.7 349.8 172.7 348.5 172.9C347.5 172.9 346.9 173.1 346.5 172.3L348.6 172.9C347.6 172.9 347 173.1 345.1 172.3ZM356.5 172.3V172.1C356.5 172.9 356.5 172.5 357.1 170.9C358.1 169.4 358.5 168.5 359.8 168.2C360.4 167.4 361.4 167.2 362.8 166.8C363.2 167.6 362.8 168.6 362.8 169.6C362.4 170.6 361.4 171.3 360.8 172.1C360 172.7 359.8 173.2 358.4 173.5C357.4 173.5 358 173.5 356.6 172.3H356.5Z" fill="#BCBCBC"/>
<path fill-rule="evenodd" clip-rule="evenodd" d="M330.5 136.2C330.5 137 330 137.6 329.2 137.6C328.4 137.6 327.8 137 327.8 136.2C327.8 135.4 328.5 134.8 329.2 134.8C330 134.8 330.5 135.4 330.5 136.2Z" fill="black"/>
<path fill-rule="evenodd" clip-rule="evenodd" d="M333.767 214.296H334.851C331.48 214.296 333.526 214.044 339.065 218.706C341.473 216.69 341.473 216.438 343.279 219.966C344.483 221.856 344.724 219.714 346.53 217.698C347.372 221.73 347.854 225.888 350.744 222.108C354.115 222.108 357.486 221.856 359.292 223.242C361.459 227.4 360.737 222.486 362.422 224.376C367.238 224.88 367.118 220.092 372.175 218.832C375.305 222.99 376.75 219.84 380.603 217.824C383.613 218.58 386.382 223.242 386.984 218.706C389.392 214.674 389.512 214.926 391.198 218.706C393.606 220.974 394.569 217.698 396.496 216.564C400.108 218.706 404.081 219.084 409.258 217.698C410.221 221.352 412.388 219.714 414.676 218.706C419.372 220.848 420.937 221.478 426.355 218.706C429.004 215.43 427.559 218.832 429.485 220.974C433.458 219.714 432.375 219.462 436.95 219.84C441.646 219.84 442.007 219.84 443.331 216.564C445.739 218.958 446.462 220.722 449.712 217.698C454.769 217.698 453.204 218.328 456.094 216.438C458.381 221.478 458.863 217.95 461.512 219.84C460.022 223.562 457.397 226.663 454.047 228.66C452 232.44 450.676 236.22 446.582 237.732C443.572 240.882 440.321 242.772 436.95 245.544C432.375 246.804 427.318 246.552 422.141 246.552H377.352C374.222 248.316 368.924 249.072 364.59 249.954C359.774 249.954 354.115 249.954 350.744 248.82C348.456 246.426 344.483 243.78 342.316 241.008C339.908 239.118 339.908 235.464 337.981 233.196C336.296 230.046 335.573 225.006 333.767 222.108V214.296Z" fill="#005120" stroke="#002B0D" stroke-width="1.64224"/>
<path fill-rule="evenodd" clip-rule="evenodd" d="M436.95 224.376V225.384C436.95 222.36 437.07 223.998 434.783 229.92C434.422 231.306 433.338 231.684 431.652 232.188M427.438 228.786H428.522C424.549 232.566 421.9 234.456 421.057 238.866L428.522 228.786C424.549 232.566 421.9 234.456 421.057 238.866M412.509 223.242C412.509 223.242 412.388 227.148 411.425 228.786L412.509 223.242ZM399.746 224.376H400.83H399.626C400.108 224.376 400.469 224.376 399.626 224.376H399.746ZM340.148 224.376C340.63 224.376 342.797 227.904 345.446 229.92C344.844 233.196 343.76 236.976 345.446 240M348.697 231.054C349.178 231.054 351.225 234.582 353.994 236.598L348.697 231.054C349.178 231.054 351.225 234.582 353.994 236.598V237.732C353.994 234.204 353.754 230.676 355.078 228.786C356.282 230.928 357.727 234.204 358.208 231.054C364.228 230.802 367.118 229.038 370.971 227.652C370.971 229.29 370.73 228.534 372.175 229.92M444.415 225.384H445.498C443.452 227.148 441.886 230.802 440.201 233.196M400.83 222.108H409.258H400.83Z" fill="#005120"/>
<path d="M436.95 224.376V225.384C436.95 222.36 437.07 223.998 434.783 229.92C434.422 231.306 433.338 231.684 431.652 232.188M427.438 228.786H428.522M428.522 228.786C424.549 232.566 421.9 234.456 421.057 238.866L428.522 228.786ZM412.509 223.242C412.509 223.242 412.388 227.148 411.425 228.786M408.295 231.054V232.062M399.626 224.376H400.83H399.746H399.626ZM399.626 224.376C400.108 224.376 400.469 224.376 399.626 224.376ZM340.148 224.376C340.63 224.376 342.797 227.904 345.446 229.92C344.844 233.196 343.76 236.976 345.446 240M353.994 236.598C351.225 234.582 349.178 231.054 348.697 231.054L353.994 236.598ZM353.994 236.598V237.732C353.994 234.204 353.754 230.676 355.078 228.786C356.282 230.928 357.727 234.204 358.208 231.054C364.228 230.802 367.118 229.038 370.971 227.652C370.971 229.29 370.73 228.534 372.175 229.92M444.415 225.384H445.498C443.452 227.148 441.886 230.802 440.201 233.196M400.83 222.108H409.258" stroke="#002B0D" stroke-width="1.64224"/>
<path fill-rule="evenodd" clip-rule="evenodd" d="M331.2 230C318.4 230 314.2 243.4 301.4 243.4H300.6V244.2C300.6 253.5 301.3 262.2 302.6 270.2C314.5 269.4 318.8 256.8 331.2 256.8C344 256.8 348.3 270.2 361.1 270.2C373.9 270.2 378.1 256.8 390.9 256.8C403.7 256.8 408 270.2 420.9 270.2C433.6 270.2 437.9 256.8 450.7 256.8C463 256.8 467.4 269.2 479.2 270.1C480.631 261.307 481.301 252.408 481.2 243.5H480.5C467.7 243.5 463.5 230.1 450.7 230.1C437.9 230.1 433.5 243.5 420.8 243.5C408.1 243.5 403.8 230.1 390.9 230.1C378.1 230.1 373.9 243.5 361.1 243.5C348.4 243.5 344 230.1 331.1 230.1L331.2 230ZM331.2 282.3C321.2 282.3 316.5 290.4 308.8 293.9C311.35 300.907 314.53 307.668 318.3 314.1C321.912 311.024 326.459 309.262 331.2 309.1C344 309.1 348.3 322.5 361 322.5C373.9 322.5 378.1 309.1 391 309.1C403.7 309.1 408 322.5 420.8 322.5C433.5 322.5 437.8 309.1 450.7 309.1C455.335 309.254 459.779 310.982 463.3 314C467.065 307.565 470.245 300.804 472.8 293.8C465.3 290.2 460.5 282.3 450.7 282.3C437.9 282.3 433.5 295.6 420.7 295.6C408 295.6 403.7 282.3 390.9 282.3C378.1 282.3 373.9 295.6 361 295.6C348.2 295.6 344 282.3 331.2 282.3ZM390.9 334.4C378.1 334.4 373.9 347.9 361.1 347.9C349 347.9 344.5 335.9 333.2 334.6C345.587 348.16 360.455 359.226 377 367.2C381 364.1 385 370.9 390.8 370.9C396.8 370.9 400.8 364 404.7 367C421.083 359.08 435.811 348.119 448.1 334.7C437.2 336.3 432.7 347.9 420.8 347.9C408 347.9 403.8 334.5 390.9 334.5V334.4Z" fill="white"/>
<path d="M312.02 289.304C316.174 287.826 320.396 286.565 324.67 285.526L344.309 305.3L328.164 308.701L312.02 289.304Z" stroke="#512007" stroke-width="0.615928"/>
<path d="M350.198 315.045C350.505 310.496 359.179 284.392 359.179 284.392M353.158 315.341L359.995 284.59M355.505 315.44L361.22 284.59M350.505 311.287C352.035 310.496 356.423 309.31 356.423 309.31M352.648 306.739C354.076 306.739 357.036 305.552 357.036 305.552M353.464 303.278C354.918 302.745 356.422 302.348 357.954 302.092M354.076 298.927L358.873 298.136M356.219 295.17C356.219 295.467 359.485 295.467 359.485 295.467M357.036 291.808L360.301 292.302" stroke="#512007" stroke-width="0.602709"/>
<path d="M402.879 334.986C402.517 327.205 392.276 282.549 392.276 282.549M399.385 333.464L391.313 282.718M395.77 329.573C395.529 326.697 389.867 282.887 389.867 282.887M402.517 328.558C400.71 327.205 395.529 325.175 395.529 325.175M399.987 320.777C398.3 320.777 394.807 318.747 394.807 318.747M399.023 314.857C397.306 313.945 395.531 313.266 393.722 312.827M398.3 307.414L392.638 306.061M395.77 300.986C395.77 301.494 391.915 301.494 391.915 301.494M394.807 295.235L390.951 296.081" stroke="#512007" stroke-width="0.571026"/>
<path d="M432.543 323.514C432.181 317.72 421.94 284.469 421.94 284.469M429.049 322.38L420.977 284.595M425.434 319.483C425.193 317.342 419.531 284.721 419.531 284.721M432.181 318.728C430.374 317.72 425.193 316.209 425.193 316.209M429.651 312.934C427.964 312.934 424.471 311.423 424.471 311.423M428.687 308.526C426.97 307.847 425.195 307.341 423.386 307.014M427.964 302.984L422.302 301.976M425.434 298.198C425.434 298.575 421.579 298.575 421.579 298.575M424.471 293.915L420.615 294.545" stroke="#512007" stroke-width="0.615928"/>
<path fill-rule="evenodd" clip-rule="evenodd" d="M387.681 328.097L388.766 236.152C388.766 236.152 391.898 235.775 391.898 236.152C391.898 236.53 391.537 327.72 391.175 328.097C390.814 328.475 387.32 328.727 387.681 328.097ZM422.018 240.183L421.295 317.391L418.886 320.414L419.609 240.183H422.018Z" fill="#DD8B59" stroke="#512007" stroke-width="0.615928"/>
<path fill-rule="evenodd" clip-rule="evenodd" d="M348.766 312.983C348.766 312.983 352.381 350.769 392.621 349.635C432.861 348.502 444.066 311.598 444.066 311.598L426.596 310.842C426.235 310.842 412.621 328.475 395.031 328.097C377.441 327.72 371.899 323.311 368.043 319.659C364.188 315.88 360.814 310.464 360.814 310.464L340.333 302.025L341.538 310.086L348.766 312.983ZM457.56 309.205L456.355 304.166V299.884L458.283 295.35C458.283 295.35 427.801 300.01 427.801 300.388L427.681 308.953L457.56 309.079V309.205Z" fill="#DD8B59" stroke="#512007" stroke-width="0.615928"/>
<path d="M347.441 312.605C348.525 312.605 356.597 314.495 356.597 314.495L365.031 326.208M451.777 299.884L451.054 307.441H455.993L455.632 299.884H451.777ZM446.596 300.262L446.235 308.323L449.367 307.945L449.728 300.262H446.596ZM441.295 308.323V302.025L444.427 300.892L444.789 307.189L441.295 308.323ZM435.271 307.945L435.994 302.403L439.608 302.781L439.849 308.701L435.271 307.945ZM428.644 307.945L429.006 303.159L432.62 302.781V308.323L428.644 307.945Z" stroke="#512007" stroke-width="0.615928"/>
<path d="M353.345 314.117C353.706 314.494 360.694 339.055 394.308 339.055C427.922 339.055 435.994 311.22 435.994 311.22" stroke="#512007" stroke-width="0.615928"/>
<path d="M441.295 311.976C441.295 311.976 425.151 348.502 394.308 345.983C363.585 343.464 358.646 331.372 356.236 325.074C353.827 318.777 352.381 313.739 352.381 313.739" stroke="#512007" stroke-width="0.615928"/>
<path fill-rule="evenodd" clip-rule="evenodd" d="M361.055 310.464C361.417 308.323 361.417 241.946 361.417 241.946L359.369 241.694L359.007 309.33L361.055 310.59V310.464ZM311.056 288.926L337.562 302.403L336.959 304.292C336.959 304.292 311.418 291.697 311.418 291.319C311.418 290.942 311.659 289.43 311.056 288.8V288.926Z" fill="#DD8B59" stroke="#512007" stroke-width="0.615928"/>
<path fill-rule="evenodd" clip-rule="evenodd" d="M323.225 284.896C323.225 285.903 327.08 308.323 327.08 308.323C327.08 308.323 329.49 308.701 329.49 308.323L325.393 285.274L323.225 284.896ZM347.803 285.526C349.128 285.526 373.103 281.495 373.103 281.495L372.621 285.526L349.128 288.045L347.803 285.526Z" fill="#DD8B59" stroke="#512007" stroke-width="0.615928"/>
<path fill-rule="evenodd" clip-rule="evenodd" d="M351.176 255.171C352.019 255.171 359.61 259.202 362.863 258.194C366.116 257.186 363.947 254.415 364.549 254.415C365.272 254.415 367.682 256.305 369.128 254.793C370.573 253.408 371.537 248.999 370.935 249.377C370.212 249.755 351.658 256.683 351.297 255.171H351.176Z" fill="#FECF3E" stroke="#512007" stroke-width="0.615928"/>
<path fill-rule="evenodd" clip-rule="evenodd" d="M348.164 264.366C349.489 264.743 376.838 256.683 376.838 256.683C376.838 256.683 376.838 259.202 376.477 259.202L348.164 266.885V264.366Z" fill="#DD8B59" stroke="#512007" stroke-width="0.615928"/>
<path fill-rule="evenodd" clip-rule="evenodd" d="M411.416 253.03C411.416 253.03 413.223 257.438 415.03 256.683C416.838 255.927 418.524 254.415 418.524 254.415C418.524 254.415 419.97 258.194 422.38 257.438C424.789 256.683 426.235 252.652 426.235 252.652C426.235 252.652 428.645 253.408 429.729 253.03C430.813 252.652 432.138 246.732 432.138 246.732L411.536 253.03H411.416ZM409.368 288.548C409.006 289.304 411.175 291.067 412.982 291.067C414.789 291.067 415.392 288.548 415.753 289.304C416.115 289.934 416.115 293.335 420.572 292.201C425.03 291.067 425.151 287.793 425.151 287.793C425.151 287.793 423.825 288.926 426.958 289.304C430.09 289.682 433.223 284.518 432.982 284.518C432.5 284.518 410.091 288.926 409.368 288.548Z" fill="#FECF3E" stroke="#512007" stroke-width="0.615928"/>
<path fill-rule="evenodd" clip-rule="evenodd" d="M349.248 253.66C349.028 254.795 349.111 255.972 349.489 257.06L372.381 248.999C372.381 248.999 373.344 247.11 372.381 247.11C371.417 247.11 348.887 254.415 349.128 253.786L349.248 253.66ZM379.368 248.622C379.971 248.622 402.741 240.939 402.741 240.939C402.741 240.939 403.103 244.213 402.741 244.213L381.417 250.763L379.248 248.622H379.368Z" fill="#DD8B59" stroke="#512007" stroke-width="0.615928"/>
<path fill-rule="evenodd" clip-rule="evenodd" d="M409.368 264.744C409.368 264.744 405.874 268.774 406.958 274.19C408.043 279.732 409.368 284.518 409.729 284.518C410.091 284.518 413.946 277.213 418.163 276.835C422.38 276.457 430.09 280.865 430.09 280.865C430.09 280.865 429.006 272.049 429.367 268.018C429.729 263.988 435.632 257.06 435.632 257.06L409.368 264.618V264.744Z" fill="#FECF3E" stroke="#512007" stroke-width="0.615928"/>
<path fill-rule="evenodd" clip-rule="evenodd" d="M377.561 258.068C377.561 258.068 376.838 261.469 377.2 261.469L406.958 253.408V251.015L377.561 257.942V258.068Z" fill="#DD8B59" stroke="#512007" stroke-width="0.615928"/>
<path fill-rule="evenodd" clip-rule="evenodd" d="M339.73 302.403C339.73 302.403 332.742 301.396 333.104 303.159C333.465 305.048 336.598 306.811 336.959 307.945C337.321 309.079 335.875 312.983 338.044 312.731C340.092 312.353 342.14 310.842 342.14 309.708L341.778 303.411L339.73 302.403Z" fill="#B6B6B4" stroke="#512007" stroke-width="0.615928"/>
<path fill-rule="evenodd" clip-rule="evenodd" d="M378.646 284.14V286.659L403.826 283.007L403.103 281.117L378.646 284.14Z" fill="#DD8B59" stroke="#512007" stroke-width="0.615928"/>
<path fill-rule="evenodd" clip-rule="evenodd" d="M348.766 288.548C349.248 288.548 348.766 291.823 351.658 291.067C354.429 290.312 355.152 288.548 355.152 288.548C355.152 288.548 355.875 292.579 359.73 292.201C363.585 291.823 365.754 287.415 365.754 287.415C365.754 287.415 365.995 290.69 368.405 289.556C370.814 288.422 371.537 285.903 371.537 285.903L349.489 289.178L348.887 288.548H348.766ZM348.766 266.885C348.766 266.885 345.634 268.018 346.718 274.568C347.802 281.117 350.333 284.896 350.574 284.896C350.935 284.896 353.706 278.598 357.923 277.591C362.14 276.331 369.489 280.865 369.489 280.865C369.489 280.865 368.766 274.946 369.85 269.53C370.624 266.003 372.194 262.72 374.429 259.957C374.429 259.957 349.851 266.885 348.887 266.885H348.766Z" fill="#FECF3E" stroke="#512007" stroke-width="0.615928"/>
<path fill-rule="evenodd" clip-rule="evenodd" d="M407.681 285.903L408.042 288.171C408.042 288.171 433.343 284.896 433.343 284.392C433.343 284.14 433.343 281.873 432.861 281.873C432.5 281.873 408.042 286.281 407.561 285.903H407.681ZM407.32 262.476L407.681 264.995L437.44 256.683C437.44 256.683 438.162 254.415 437.801 254.415C437.44 254.415 408.042 263.61 407.32 262.476Z" fill="#DD8B59" stroke="#512007" stroke-width="0.615928"/>
<path d="M457.078 293.209L435.391 257.438M432.5 282.251C432.861 281.243 433.946 259.202 433.946 259.202M410.452 250.763C410.452 250.763 410.091 253.03 410.452 253.03C410.814 253.03 432.5 247.488 432.5 247.11C432.5 246.732 434.669 244.591 432.861 244.969C431.175 245.347 411.175 251.896 410.452 250.763Z" stroke="#512007" stroke-width="0.615928"/>
<path fill-rule="evenodd" clip-rule="evenodd" d="M380.091 249.755C381.296 250.007 383.826 253.786 385.272 253.03C386.718 252.274 388.766 250.007 388.766 250.007C388.766 250.007 388.404 254.415 391.175 253.786C394.067 253.03 394.428 250.007 394.428 250.007C394.428 250.007 396.477 251.267 398.284 250.007C399.97 248.999 401.657 243.458 401.055 243.458C400.452 243.458 380.694 250.007 379.971 249.755H380.091ZM379.368 260.335C379.368 261.091 375.754 266.885 376.959 272.427C378.164 277.968 379.971 283.007 380.332 283.007C380.694 283.007 385.995 277.213 390.573 276.079C395.031 274.946 401.778 279.732 401.416 279.732C401.055 279.732 399.609 274.19 399.609 270.159C399.609 266.129 404.91 253.786 404.91 253.786L379.368 260.335ZM379.368 286.785C379.368 287.037 380.332 289.556 382.862 289.556C385.272 289.556 385.633 287.037 385.633 287.037C385.633 287.037 385.272 291.445 389.127 291.067C392.983 290.69 394.308 286.659 394.308 286.659C394.308 286.659 394.669 288.926 397.922 287.793C401.055 286.659 405.151 283.007 404.91 283.007C404.549 283.007 379.609 287.793 379.248 286.785H379.368Z" fill="#FECF3E" stroke="#512007" stroke-width="0.615928"/>
<path fill-rule="evenodd" clip-rule="evenodd" d="M382.216 267.268C382.711 267.289 383.179 267.515 383.515 267.897C383.852 268.278 384.03 268.784 384.011 269.302C383.991 269.821 383.776 270.31 383.412 270.662C383.048 271.014 382.565 271.2 382.07 271.179C381.575 271.158 381.107 270.932 380.771 270.551C380.434 270.17 380.256 269.664 380.275 269.145C380.294 268.627 380.51 268.138 380.874 267.786C381.238 267.434 381.72 267.248 382.216 267.268Z" fill="#BE0F17" stroke="#512007" stroke-width="0.603966"/>
<path fill-rule="evenodd" clip-rule="evenodd" d="M394.888 263.908C395.383 263.929 395.85 264.155 396.187 264.537C396.524 264.918 396.702 265.424 396.683 265.942C396.663 266.461 396.448 266.95 396.084 267.302C395.72 267.654 395.237 267.84 394.742 267.819C394.246 267.798 393.779 267.572 393.442 267.191C393.106 266.81 392.928 266.304 392.947 265.785C392.966 265.267 393.182 264.778 393.546 264.426C393.91 264.074 394.392 263.888 394.888 263.908Z" fill="#BE0F17" stroke="#512007" stroke-width="0.603966"/>
<path fill-rule="evenodd" clip-rule="evenodd" d="M388.552 270.82C389.047 270.841 389.515 271.067 389.851 271.449C390.188 271.83 390.366 272.336 390.347 272.854C390.327 273.373 390.112 273.862 389.748 274.214C389.384 274.566 388.901 274.752 388.406 274.731C387.91 274.71 387.443 274.484 387.107 274.103C386.77 273.722 386.592 273.216 386.611 272.697C386.63 272.179 386.846 271.69 387.21 271.338C387.574 270.986 388.056 270.8 388.552 270.82Z" fill="#BE0F17" stroke="#512007" stroke-width="0.603966"/>
<path fill-rule="evenodd" clip-rule="evenodd" d="M388.552 260.26C389.047 260.281 389.515 260.507 389.851 260.889C390.188 261.27 390.366 261.776 390.347 262.294C390.327 262.813 390.112 263.302 389.748 263.654C389.384 264.006 388.901 264.192 388.406 264.171C387.91 264.15 387.443 263.924 387.107 263.543C386.77 263.162 386.592 262.656 386.611 262.137C386.63 261.619 386.846 261.13 387.21 260.778C387.574 260.426 388.056 260.24 388.552 260.26Z" fill="#BE0F17" stroke="#512007" stroke-width="0.603966"/>
<path d="M391.175 237.16C391.175 236.908 402.019 241.946 402.019 242.324C402.019 242.702 440.572 296.232 440.934 296.232M421.657 242.324L431.536 246.732L434.669 254.793M360.694 241.694C360.333 241.694 371.537 250.511 371.537 250.511L372.983 257.69M322.622 295.098C327.441 292.957 361.417 261.847 361.417 261.847M313.466 289.178L351.658 255.549M377.2 260.587L413.344 323.311M409.006 286.533C409.006 286.533 413.223 301.27 417.44 303.537C420.586 305.302 423.642 307.236 426.597 309.33" stroke="#512007" stroke-width="0.615928"/>
<path d="M408.524 286.911C408.524 286.911 411.536 304.292 415.753 307.567C419.97 310.842 424.187 314.495 424.187 314.495" stroke="#512007" stroke-width="0.615928"/>
<path d="M379.525 285.609C379.525 285.609 383.621 309.792 392.055 315.334C397.221 318.692 402.362 322.093 407.476 325.536" stroke="#512007" stroke-width="0.615928"/>
<path d="M379.163 285.231C379.163 285.231 388.199 304.376 396.03 310.17C403.621 316.09 414.102 321.506 414.102 321.506M349.766 286.869C352.176 291.277 351.814 299.716 354.585 302.613C357.133 305.623 359.468 308.822 361.573 312.185M350.369 287.121C351.814 289.262 355.67 300.22 358.079 303.494C359.886 306.517 377.717 325.158 377.717 325.158" stroke="#512007" stroke-width="0.615928"/>
<path fill-rule="evenodd" clip-rule="evenodd" d="M371.814 326.04C371.814 326.404 371.745 326.764 371.612 327.1C371.479 327.436 371.284 327.742 371.038 327.999C370.792 328.257 370.499 328.461 370.178 328.6C369.856 328.739 369.512 328.811 369.163 328.811C368.815 328.811 368.471 328.739 368.149 328.6C367.828 328.461 367.535 328.257 367.289 327.999C367.043 327.742 366.848 327.436 366.715 327.1C366.581 326.764 366.513 326.404 366.513 326.04C366.513 325.305 366.792 324.6 367.289 324.081C367.786 323.561 368.461 323.269 369.163 323.269C369.866 323.269 370.541 323.561 371.038 324.081C371.535 324.6 371.814 325.305 371.814 326.04ZM384.705 331.96C384.705 332.594 384.464 333.203 384.035 333.652C383.606 334.101 383.023 334.353 382.416 334.353C381.809 334.353 381.227 334.101 380.798 333.652C380.368 333.203 380.127 332.594 380.127 331.96C380.127 331.325 380.368 330.716 380.798 330.267C381.227 329.819 381.809 329.567 382.416 329.567C383.023 329.567 383.606 329.819 384.035 330.267C384.464 330.716 384.705 331.325 384.705 331.96ZM401.211 333.471C401.211 334.106 400.97 334.714 400.541 335.163C400.111 335.612 399.529 335.864 398.922 335.864C398.315 335.864 397.733 335.612 397.303 335.163C396.874 334.714 396.633 334.106 396.633 333.471C396.633 332.836 396.874 332.228 397.303 331.779C397.733 331.33 398.315 331.078 398.922 331.078C399.529 331.078 400.111 331.33 400.541 331.779C400.97 332.228 401.211 332.836 401.211 333.471ZM415.548 327.803C415.548 329.063 414.705 329.944 413.621 329.944C412.536 329.944 411.693 328.937 411.693 327.803C411.693 326.67 412.536 325.536 413.621 325.536C414.705 325.536 415.548 326.544 415.548 327.803ZM427.114 320.624C427.114 321.757 426.03 322.639 424.825 322.639C423.62 322.639 422.536 321.757 422.536 320.624C422.536 319.49 423.62 318.609 424.825 318.609C426.03 318.609 427.114 319.49 427.114 320.624Z" fill="black" stroke="#512007" stroke-width="0.615928"/>
<path fill-rule="evenodd" clip-rule="evenodd" d="M359.164 242.03C358.079 242.786 340.61 247.194 343.019 246.816C345.429 246.438 359.525 250.595 359.164 249.335C358.802 248.076 359.164 242.786 359.164 242.03ZM388.922 236.614C388.199 236.614 378.079 240.644 378.44 240.644C378.802 240.644 390.007 243.919 389.645 243.163C389.284 242.408 389.284 237.622 388.922 236.614ZM419.404 240.267C418.681 240.644 406.753 243.541 408.922 243.919C411.091 244.297 419.042 247.194 419.042 246.438C419.042 245.808 419.042 240.644 419.404 240.141V240.267Z" fill="#FF0000" stroke="#512007" stroke-width="0.615928"/>
<path d="M406.753 325.914C407.115 320.12 417.355 286.869 417.355 286.869M410.247 324.78L418.319 286.995M413.861 321.883C414.102 319.742 419.765 287.121 419.765 287.121M407.115 321.128C408.922 320.12 414.102 318.609 414.102 318.609M409.645 315.334C411.331 315.334 414.825 313.823 414.825 313.823M410.609 310.926C412.326 310.247 414.101 309.741 415.91 309.414M411.331 305.384L416.994 304.376M413.861 300.598C413.861 300.975 417.717 300.975 417.717 300.975M414.825 296.315L418.681 296.945" stroke="#512007" stroke-width="0.615928"/>
<path d="M376.993 326.03C377.355 320.011 387.595 285.467 387.595 285.467M380.487 326.423L388.559 285.729M383.258 326.553L390.005 285.729M377.355 321.058C379.162 320.011 384.342 318.441 384.342 318.441M379.885 315.039C381.571 315.039 385.065 313.469 385.065 313.469M380.849 310.459C382.566 309.754 384.341 309.228 386.15 308.889M381.571 304.702L387.234 303.655M384.101 299.73C384.101 300.122 387.957 300.122 387.957 300.122M385.065 295.281L388.921 295.935" stroke="#512007" stroke-width="0.627785"/>
<path d="M372.927 322.043C372.565 316.214 362.325 282.76 362.325 282.76M369.433 320.903L361.361 282.887M365.818 317.988C365.577 315.834 359.915 283.013 359.915 283.013M372.565 317.228C370.758 316.214 365.577 314.693 365.577 314.693M370.035 311.399C368.349 311.399 364.855 309.878 364.855 309.878M369.071 306.964C367.354 306.281 365.579 305.772 363.77 305.443M368.349 301.388L362.686 300.374M365.818 296.572C365.818 296.953 361.963 296.953 361.963 296.953M364.855 292.264L360.999 292.898" stroke="#512007" stroke-width="0.617803"/>
<path fill-rule="evenodd" clip-rule="evenodd" d="M425.151 310.842L458.403 311.598L458.765 309.079L424.428 308.701L425.151 310.842ZM426.596 301.647C430.452 301.647 459.487 295.854 459.487 295.854C459.487 295.854 460.572 292.075 459.487 292.075C458.403 292.075 426.596 299.128 426.596 299.128V301.647Z" fill="#DD8B59" stroke="#512007" stroke-width="0.615928"/>
<path fill-rule="evenodd" clip-rule="evenodd" d="M388.552 265.54C389.047 265.561 389.515 265.787 389.851 266.169C390.188 266.55 390.366 267.056 390.347 267.574C390.327 268.093 390.112 268.582 389.748 268.934C389.384 269.286 388.901 269.472 388.406 269.451C387.91 269.43 387.443 269.204 387.107 268.823C386.77 268.442 386.592 267.936 386.611 267.417C386.63 266.899 386.846 266.41 387.21 266.058C387.574 265.706 388.056 265.52 388.552 265.54Z" fill="#BE0F17" stroke="#512007" stroke-width="0.603966"/>
<path d="M0.5 0H256.5V256H0.5V0Z" fill="#012169"/>
<path d="M256.5 0V32L161.5 128L256.5 221.5V256H223L127.5 162L34.5 256H0.5V222L93.5 128.5L0.5 37V0H31.5L127.5 94L220.5 0H256.5Z" fill="white"/>
<path d="M92.5 162L98 179L21.5 256H0.5V254.5L92.5 162ZM154.5 156L181.5 160L256.5 233.5V256L154.5 156ZM256.5 0L160.5 98L158.5 76L233.5 0H256.5ZM0.5 0.5L97 95L67.5 91L0.5 24.5V0.5Z" fill="#C8102E"/>
<path d="M88.5 0V256H168.5V0H88.5ZM0.5 88V168H256.5V88H0.5Z" fill="white"/>
<path d="M0.5 104V152H256.5V104H0.5ZM104.5 0V256H152.5V0H104.5Z" fill="#C8102E"/>
</g>
<defs>
<linearGradient id="paint0_linear_103_5457" x1="101.238" y1="579.083" x2="126.467" y2="564.621" gradientUnits="userSpaceOnUse">
<stop stop-color="#A43907"/>
<stop offset="1" stop-color="white"/>
</linearGradient>
<linearGradient id="paint1_linear_103_5457" x1="332.437" y1="350.733" x2="299.829" y2="332.872" gradientUnits="userSpaceOnUse">
<stop stop-color="#A43907"/>
<stop offset="1" stop-color="white"/>
</linearGradient>
<linearGradient id="paint2_linear_103_5457" x1="352.734" y1="363.745" x2="282.026" y2="354.525" gradientUnits="userSpaceOnUse">
<stop stop-color="#A43907"/>
<stop offset="1" stop-color="white"/>
</linearGradient>
<linearGradient id="paint3_linear_103_5457" x1="483.276" y1="333.774" x2="450.542" y2="335.516" gradientUnits="userSpaceOnUse">
<stop stop-color="#A43907"/>
<stop offset="1" stop-color="white"/>
</linearGradient>
<linearGradient id="paint4_linear_103_5457" x1="496.557" y1="351.903" x2="427.032" y2="356.062" gradientUnits="userSpaceOnUse">
<stop stop-color="#A43907"/>
<stop offset="1" stop-color="white"/>
</linearGradient>
<linearGradient id="paint5_linear_103_5457" x1="488.814" y1="370.145" x2="293.082" y2="370.145" gradientUnits="userSpaceOnUse">
<stop stop-color="#A43907"/>
<stop offset="1" stop-color="white"/>
</linearGradient>
<linearGradient id="paint6_linear_103_5457" x1="298.462" y1="384.472" x2="584.735" y2="385.499" gradientUnits="userSpaceOnUse">
<stop stop-color="#A43907"/>
<stop offset="1" stop-color="white"/>
</linearGradient>
<linearGradient id="paint7_linear_103_5457" x1="495.696" y1="368.936" x2="472.549" y2="369.607" gradientUnits="userSpaceOnUse">
<stop stop-color="#A43907"/>
<stop offset="1" stop-color="white"/>
</linearGradient>
<linearGradient id="paint8_linear_103_5457" x1="292.295" y1="391.821" x2="314.725" y2="393.305" gradientUnits="userSpaceOnUse">
<stop stop-color="#A43907"/>
<stop offset="1" stop-color="white"/>
</linearGradient>
<linearGradient id="paint9_linear_103_5457" x1="314.152" y1="388.56" x2="273.416" y2="378.511" gradientUnits="userSpaceOnUse">
<stop stop-color="#A43907"/>
<stop offset="1" stop-color="white"/>
</linearGradient>
<clipPath id="clip0_103_5457">
<rect width="512" height="512" fill="white" transform="translate(0.5)"/>
</clipPath>
</defs>
</svg>
