<svg width="513" height="512" viewBox="0 0 513 512" fill="none" xmlns="http://www.w3.org/2000/svg">
<g clip-path="url(#clip0_103_5560)">
<path d="M0.5 0H512.5V512H0.5V0Z" fill="white"/>
<path d="M512.5 204.8H0.5V307.2H512.5V204.8Z" fill="#CC0000"/>
<path d="M304.5 512V0H208.5V512H304.5Z" fill="#CC0000"/>
<path fill-rule="evenodd" clip-rule="evenodd" d="M291.7 156.4C294.7 151.2 292.9 147.9 288.3 146.9C288.3 146.9 273.4 151.9 257.3 152.5C241.3 153.1 222.3 148.2 222.3 148.2C218.8 150.5 219.6 156 221.3 159.4C221.3 159.4 238.1 165.3 257.3 164.7C267.558 164.208 277.693 162.255 287.4 158.9C291.1 157.6 291.7 156.4 291.7 156.4Z" fill="#EBEAE3" stroke="black" stroke-width="0.5"/>
<path d="M256.5 381.475L225.6 312.994L154.7 318.754L194.7 256.034L154.7 193.314L225.7 199.074L256.5 130.701L287.4 198.967L358.3 193.314L318.3 256.034L358.3 318.754L287.3 312.994L256.5 381.475Z" fill="white" stroke="#161111" stroke-width="1.65248"/>
<path fill-rule="evenodd" clip-rule="evenodd" d="M256 130.4C294.8 137.2 293.4 139.1 293.4 139.1L303.5 107C303.5 107 304.6 100.6 301.8 96.7C299 92.8 291.3 95 291.3 95C291.3 95 290.3 89.8 286.8 88.6C283.4 87.3 270.8 93.5 266.8 94.8C262.8 96.2 260.8 97.5 255.3 97.4C249.205 96.3437 243.347 94.2104 238 91.1C235.896 89.8843 233.528 89.1979 231.1 89.1C228.7 89.2 226.1 89.9 224.8 91.7C223.6 93.6 223.6 95.8 223.6 95.8C223.6 95.8 221.6 94.5 218.3 94.5C215.1 94.5 213.3 94.9 211.8 96.7C210.4 98.6 208.4 103.7 208.4 103.7L212.1 112.4L212.3 124.4L219.8 137.2L256 130.5V130.4Z" fill="#B02320" stroke="black" stroke-width="1.4"/>
<path fill-rule="evenodd" clip-rule="evenodd" d="M292.2 148.6C292.2 148.6 294.2 151.1 294.1 152C294 152.8 293.1 153.6 293.1 153.6C293.1 153.6 293.8 154.3 293.6 155.3C293.5 156.3 292.2 156.3 292.2 156.3C292.2 156.3 292.5 157.2 291.7 157.6C290.9 158 287.9 158.6 287.9 158.6C287.9 158.6 272.9 154.1 256.9 154.1C240.9 154.1 221.9 159.7 221.9 159.7C221.9 159.7 219.9 158.9 219.9 157.6C219.7 156.2 220 155.2 220 155.2C220 155.2 219 155.4 218.7 154.4C218.3 153 218.8 151.9 218.8 151.9C218.8 151.9 218.1 152.1 218.9 150.3C219.192 149.527 219.716 148.863 220.4 148.4C220.4 148.4 237.2 142 256.4 142C268.635 142.014 280.765 144.25 292.2 148.6Z" fill="#EBEAE3" stroke="black" stroke-width="0.5"/>
<path d="M212.7 108.3C212.7 108.3 212.1 105.9 213.5 103.9C214.014 103.174 214.751 102.635 215.599 102.364C216.447 102.093 217.36 102.106 218.2 102.4C219 102.8 218.9 103.7 219.9 104C220.9 104.3 221.7 103.5 221.7 103.5" stroke="black" stroke-width="1.2"/>
<path fill-rule="evenodd" clip-rule="evenodd" d="M306.3 113.7L300.5 126.5L298.2 127C298.2 127 296.8 126 292.8 126.4C290 126.6 289.1 127.4 289.1 127.4L294.3 114.6C294.3 114.6 294.7 117.3 295.3 118.9C296.1 120.9 299 122.9 299 122.9C299 122.9 299.4 120.5 298.6 117.5C297.8 114.2 295.8 109.7 295.8 109.7L306.3 113.7Z" fill="#FFCC00" fill-opacity="0.9" stroke="black" stroke-width="1.2"/>
<path d="M253 73.8H259.5V103.3H253V73.8Z" fill="#121116" stroke="#121116" stroke-width="1.2" stroke-linejoin="round"/>
<path fill-rule="evenodd" clip-rule="evenodd" d="M213.1 128.3L217.2 137.8C217.2 137.8 235.1 130.4 256.1 130.5C287.6 130.7 296.6 137.5 296.6 137.5L301.2 125.7L297.7 127.8L294.1 130.2L290.1 131.9L285.1 131.5L280.7 128L278.5 123L274.8 126.7L268.2 128.3L261.8 126.5L256.2 118.9C256.2 118.9 252 127.3 246.6 127.9C238.9 128.6 234.5 123.9 234.5 123.9C234.5 123.9 231.6 130.7 226.9 131.9C219.4 133.9 213.2 128.3 213.1 128.3Z" fill="#F6CA1F" stroke="black"/>
<path d="M284.979 70.0336C284.98 70.983 284.63 71.8945 284.005 72.571C283.38 73.2476 282.532 73.635 281.641 73.6496C280.742 73.6496 279.88 73.2687 279.244 72.5905C278.609 71.9124 278.251 70.9926 278.251 70.0336C278.251 69.0841 278.601 68.1727 279.226 67.4961C279.85 66.8195 280.699 66.4321 281.589 66.4175C282.488 66.4175 283.351 66.7985 283.986 67.4766C284.622 68.1548 284.979 69.0745 284.979 70.0336Z" fill="#EEEEEE" stroke="#1E1E1E" stroke-width="1.18504" stroke-linejoin="round"/>
<path fill-rule="evenodd" clip-rule="evenodd" d="M280 71.9C280 71.9 282.7 71.9 283 70.7C283.3 69.5 282.8 68 282.8 68C282.8 68 284.1 69.5 283.8 70.7C283.4 71.8 283 72.1 282.1 72.4C281.5 72.5 280.5 72.3 280.1 71.9H280Z" fill="#A3AFB8"/>
<path d="M276.779 74.1336C276.78 75.0831 276.43 75.9945 275.805 76.6711C275.18 77.3477 274.332 77.7351 273.442 77.7497C272.542 77.7497 271.68 77.3687 271.044 76.6906C270.409 76.0124 270.051 75.0926 270.051 74.1336C270.051 73.1841 270.401 72.2727 271.026 71.5961C271.65 70.9195 272.499 70.5321 273.389 70.5175C274.288 70.5175 275.151 70.8985 275.787 71.5766C276.422 72.2548 276.779 73.1746 276.779 74.1336Z" fill="#EEEEEE" stroke="#1E1E1E" stroke-width="1.18504" stroke-linejoin="round"/>
<path fill-rule="evenodd" clip-rule="evenodd" d="M271.8 76C271.8 76 274.6 76 274.8 74.7C275.1 73.6 274.6 72 274.6 72C274.6 72 275.9 73.6 275.6 74.7C275.2 75.9 274.8 76.2 273.9 76.5C273.3 76.6 272.3 76.4 271.9 76H271.8Z" fill="#A3AFB8"/>
<path d="M294.379 67.6336C294.38 68.5831 294.03 69.4945 293.405 70.1711C292.78 70.8477 291.932 71.2351 291.042 71.2497C290.142 71.2497 289.28 70.8687 288.644 70.1906C288.009 69.5124 287.651 68.5926 287.651 67.6336C287.651 66.6841 288.001 65.7727 288.626 65.0961C289.25 64.4195 290.099 64.0321 290.989 64.0175C291.888 64.0175 292.751 64.3985 293.386 65.0766C294.022 65.7548 294.379 66.6746 294.379 67.6336Z" fill="#EEEEEE" stroke="#1E1E1E" stroke-width="1.18504" stroke-linejoin="round"/>
<path fill-rule="evenodd" clip-rule="evenodd" d="M289.5 69.5C289.5 69.5 292.2 69.5 292.5 68.3C292.8 67.1 292.3 65.6 292.3 65.6C292.3 65.6 293.6 67.1 293.3 68.3C292.9 69.4 292.5 69.8 291.6 70C290.862 70.0997 290.114 69.9215 289.5 69.5Z" fill="#A3AFB8"/>
<path d="M305.079 69.9336C305.08 70.8831 304.73 71.7945 304.105 72.4711C303.48 73.1476 302.632 73.5351 301.742 73.5497C300.842 73.5497 299.98 73.1687 299.344 72.4905C298.709 71.8124 298.351 70.8926 298.351 69.9336C298.351 68.9841 298.701 68.0727 299.326 67.3961C299.95 66.7195 300.799 66.3321 301.689 66.3175C302.588 66.3175 303.451 66.6985 304.087 67.3766C304.722 68.0548 305.079 68.9745 305.079 69.9336Z" fill="#EEEEEE" stroke="#1E1E1E" stroke-width="1.18504" stroke-linejoin="round"/>
<path fill-rule="evenodd" clip-rule="evenodd" d="M300.2 71.8C300.2 71.8 302.9 71.8 303.2 70.6C303.5 69.4 303 67.9 303 67.9C303 67.9 304.3 69.4 304 70.6C303.6 71.7 303.2 72.1 302.3 72.3C301.6 72.5 300.7 72.2 300.2 71.8Z" fill="#A3AFB8"/>
<path d="M313.279 77.1336C313.28 78.0831 312.93 78.9945 312.305 79.6711C311.68 80.3477 310.832 80.7351 309.942 80.7497C309.042 80.7497 308.18 80.3687 307.544 79.6906C306.909 79.0124 306.551 78.0926 306.551 77.1336C306.551 76.1841 306.901 75.2727 307.526 74.5961C308.15 73.9195 308.999 73.5321 309.889 73.5175C310.788 73.5175 311.651 73.8985 312.287 74.5766C312.922 75.2548 313.279 76.1746 313.279 77.1336Z" fill="#EEEEEE" stroke="#1E1E1E" stroke-width="1.18504" stroke-linejoin="round"/>
<path fill-rule="evenodd" clip-rule="evenodd" d="M308.4 79C308.4 79 311.1 79 311.4 77.7C311.6 76.5 311.2 75 311.2 75C311.2 75 312.5 76.5 312.1 77.7C311.7 78.9 311.4 79.2 310.4 79.4C309.8 79.6 308.9 79.4 308.4 78.9V79Z" fill="#A3AFB8"/>
<path d="M316.779 88.8336C316.78 89.7831 316.43 90.6945 315.805 91.3711C315.18 92.0477 314.332 92.4351 313.442 92.4497C312.542 92.4497 311.68 92.0687 311.044 91.3906C310.409 90.7124 310.051 89.7927 310.051 88.8336C310.051 87.8841 310.401 86.9727 311.026 86.2961C311.65 85.6196 312.499 85.2321 313.389 85.2175C314.288 85.2175 315.151 85.5985 315.787 86.2767C316.422 86.9548 316.779 87.8746 316.779 88.8336Z" fill="#EEEEEE" stroke="#1E1E1E" stroke-width="1.18504" stroke-linejoin="round"/>
<path fill-rule="evenodd" clip-rule="evenodd" d="M311.9 90.7C311.9 90.7 314.6 90.7 314.9 89.5C315.1 88.3 314.7 86.8 314.7 86.8C314.7 86.8 316 88.3 315.6 89.5C315.2 90.7 314.9 91 313.9 91.2C313.3 91.4 312.4 91.1 311.9 90.7Z" fill="#A3AFB8"/>
<path d="M315.479 100.734C315.48 101.683 315.13 102.594 314.505 103.271C313.88 103.948 313.032 104.335 312.141 104.35C311.242 104.35 310.38 103.969 309.744 103.291C309.109 102.612 308.751 101.693 308.751 100.734C308.751 99.7841 309.101 98.8727 309.726 98.1961C310.35 97.5195 311.199 97.1321 312.089 97.1175C312.988 97.1175 313.851 97.4985 314.486 98.1766C315.122 98.8548 315.479 99.7745 315.479 100.734Z" fill="#EEEEEE" stroke="#1E1E1E" stroke-width="1.18504" stroke-linejoin="round"/>
<path fill-rule="evenodd" clip-rule="evenodd" d="M310.5 102.6C310.5 102.6 313.3 102.6 313.5 101.4C313.8 100.2 313.4 98.7 313.4 98.7C313.4 98.7 314.7 100.2 314.3 101.4C313.9 102.5 313.6 102.9 312.6 103.1C312 103.2 311.1 103 310.6 102.6H310.5Z" fill="#A3AFB8"/>
<path d="M310.579 111.134C310.58 112.083 310.23 112.995 309.605 113.671C308.98 114.348 308.132 114.735 307.242 114.75C306.342 114.75 305.48 114.369 304.844 113.691C304.209 113.012 303.851 112.093 303.851 111.134C303.851 110.184 304.201 109.273 304.826 108.596C305.45 107.92 306.299 107.532 307.189 107.518C308.088 107.518 308.951 107.898 309.587 108.577C310.222 109.255 310.579 110.175 310.579 111.134Z" fill="#EEEEEE" stroke="#1E1E1E" stroke-width="1.18504" stroke-linejoin="round"/>
<path fill-rule="evenodd" clip-rule="evenodd" d="M305.6 113C305.6 113 308.3 113 308.6 111.8C308.9 110.6 308.4 109.1 308.4 109.1C308.4 109.1 309.7 110.6 309.4 111.8C309 113 308.6 113.3 307.7 113.5C307.1 113.7 306.1 113.5 305.7 113H305.6Z" fill="#A3AFB8"/>
<path d="M268.779 77.2336C268.78 78.1831 268.43 79.0945 267.805 79.7711C267.18 80.4476 266.332 80.835 265.442 80.8497C264.542 80.8497 263.68 80.4687 263.044 79.7905C262.409 79.1124 262.051 78.1926 262.051 77.2336C262.051 76.2841 262.401 75.3727 263.026 74.6961C263.65 74.0195 264.499 73.6321 265.389 73.6175C266.288 73.6175 267.151 73.9985 267.787 74.6766C268.422 75.3548 268.779 76.2745 268.779 77.2336Z" fill="#EEEEEE" stroke="#1E1E1E" stroke-width="1.18504" stroke-linejoin="round"/>
<path fill-rule="evenodd" clip-rule="evenodd" d="M263.9 79.1C263.9 79.1 266.6 79.1 266.9 77.9C267.2 76.7 266.7 75.2 266.7 75.2C266.7 75.2 268 76.7 267.7 77.9C267.3 79 266.9 79.3 266 79.6C265.262 79.6997 264.514 79.5215 263.9 79.1Z" fill="#A3AFB8"/>
<path d="M258.61 76.2979C258.611 77.0919 258.318 77.8541 257.796 78.4199C257.273 78.9857 256.563 79.3097 255.819 79.3219C255.067 79.3219 254.346 79.0033 253.814 78.4362C253.283 77.8691 252.984 77.0999 252.984 76.2979C252.984 75.5039 253.277 74.7417 253.799 74.1759C254.321 73.6101 255.031 73.2861 255.775 73.2739C256.527 73.2739 257.248 73.5925 257.78 74.1596C258.312 74.7267 258.61 75.4959 258.61 76.2979Z" fill="#EEEEEE" stroke="#1E1E1E" stroke-width="1.21624" stroke-linejoin="round"/>
<path fill-rule="evenodd" clip-rule="evenodd" d="M254.5 77.9C254.5 77.9 256.8 77.9 257 76.9C257.3 75.9 256.9 74.6 256.9 74.6C256.9 74.6 257.9 75.8 257.7 76.8C257.3 77.8 257 78.1 256.3 78.3C255.989 78.3611 255.668 78.3572 255.358 78.2883C255.048 78.2195 254.756 78.0873 254.5 77.9Z" fill="#A3AFB8"/>
<path d="M258.71 80.0979C258.711 80.8919 258.418 81.6541 257.896 82.2199C257.373 82.7857 256.663 83.1097 255.919 83.1219C255.167 83.1219 254.446 82.8033 253.914 82.2362C253.383 81.6691 253.084 80.8999 253.084 80.0979C253.084 79.3039 253.377 78.5417 253.899 77.9759C254.421 77.4101 255.131 77.0861 255.875 77.0739C256.627 77.0739 257.348 77.3925 257.88 77.9596C258.412 78.5267 258.71 79.2959 258.71 80.0979Z" fill="#EEEEEE" stroke="#1E1E1E" stroke-width="1.21624" stroke-linejoin="round"/>
<path fill-rule="evenodd" clip-rule="evenodd" d="M254.5 81.6C254.5 81.6 256.8 81.6 257.1 80.6C257.3 79.6 256.9 78.4 256.9 78.4C256.9 78.4 257.9 79.6 257.7 80.6C257.4 81.6 257.1 81.9 256.3 82.1C255.703 82.1954 255.092 82.0517 254.6 81.7L254.5 81.6Z" fill="#A3AFB8"/>
<path d="M258.911 85.5979C258.911 86.3919 258.618 87.1541 258.096 87.7199C257.573 88.2857 256.863 88.6097 256.119 88.6219C255.367 88.6219 254.646 88.3033 254.114 87.7362C253.583 87.1691 253.284 86.3999 253.284 85.5979C253.284 84.8039 253.577 84.0417 254.099 83.4759C254.621 82.9101 255.331 82.5861 256.075 82.5739C256.827 82.5739 257.548 82.8925 258.08 83.4596C258.612 84.0267 258.911 84.7959 258.911 85.5979Z" fill="#EEEEEE" stroke="#1E1E1E" stroke-width="1.21624" stroke-linejoin="round"/>
<path fill-rule="evenodd" clip-rule="evenodd" d="M254.8 87.2C254.8 87.2 257 87.2 257.3 86.2C257.5 85.2 257.1 83.9 257.1 83.9C257.1 83.9 258.1 85.2 257.9 86.2C257.6 87.2 257.3 87.4 256.5 87.6C255.903 87.6954 255.292 87.5517 254.8 87.2Z" fill="#A3AFB8"/>
<path d="M259.105 91.4744C259.106 92.3331 258.789 93.1574 258.224 93.7693C257.659 94.3811 256.892 94.7315 256.087 94.7447C255.274 94.7447 254.494 94.4002 253.919 93.7869C253.344 93.1736 253.021 92.3417 253.021 91.4744C253.021 90.6157 253.337 89.7914 253.902 89.1795C254.467 88.5676 255.235 88.2173 256.04 88.204C256.853 88.204 257.632 88.5486 258.207 89.1619C258.782 89.7752 259.105 90.607 259.105 91.4744Z" fill="#EEEEEE" stroke="#1E1E1E" stroke-width="1.21788" stroke-linejoin="round"/>
<path fill-rule="evenodd" clip-rule="evenodd" d="M254.7 93.3C254.7 93.3 257.2 93.2 257.4 92.1C257.7 91.1 257.3 89.7 257.3 89.7C257.3 89.7 258.4 91.1 258.1 92.1C257.7 93.2 257.4 93.5 256.6 93.7C256.266 93.7493 255.925 93.7304 255.599 93.6445C255.272 93.5585 254.967 93.4073 254.7 93.2V93.3Z" fill="#A3AFB8"/>
<path d="M259.479 99.4336C259.48 100.383 259.13 101.295 258.505 101.971C257.88 102.648 257.032 103.035 256.141 103.05C255.242 103.05 254.38 102.669 253.744 101.991C253.109 101.312 252.751 100.393 252.751 99.4336C252.751 98.4841 253.101 97.5727 253.726 96.8961C254.35 96.2195 255.199 95.8321 256.089 95.8175C256.988 95.8175 257.851 96.1985 258.486 96.8766C259.122 97.5548 259.479 98.4745 259.479 99.4336Z" fill="#EEEEEE" stroke="#1E1E1E" stroke-width="1.18504" stroke-linejoin="round"/>
<path fill-rule="evenodd" clip-rule="evenodd" d="M254.5 101.3C254.5 101.3 257.3 101.3 257.5 100.1C257.8 98.9 257.4 97.4 257.4 97.4C257.4 97.4 258.7 98.9 258.3 100.1C257.9 101.3 257.6 101.6 256.6 101.8C256 102 255.1 101.8 254.6 101.3H254.5Z" fill="#A3AFB8"/>
<path d="M259.116 115.762C259.117 116.653 258.788 117.509 258.201 118.145C257.615 118.78 256.818 119.144 255.982 119.158C255.137 119.158 254.327 118.8 253.73 118.163C253.133 117.526 252.798 116.662 252.798 115.762C252.798 114.87 253.126 114.014 253.713 113.378C254.299 112.743 255.097 112.379 255.933 112.365C256.777 112.365 257.587 112.723 258.184 113.36C258.781 113.997 259.116 114.861 259.116 115.762Z" fill="#EEEEEE" stroke="#1E1E1E" stroke-width="1.21413" stroke-linejoin="round"/>
<path fill-rule="evenodd" clip-rule="evenodd" d="M254.5 117.5C254.5 117.5 257.1 117.5 257.3 116.4C257.6 115.2 257.2 113.8 257.2 113.8C257.2 113.8 258.4 115.2 258 116.3C257.7 117.5 257.3 117.7 256.5 118C256.15 118.057 255.792 118.043 255.448 117.957C255.104 117.871 254.782 117.715 254.5 117.5Z" fill="#A3AFB8"/>
<path d="M250.079 77.1336C250.08 78.0831 249.73 78.9945 249.105 79.6711C248.48 80.3477 247.632 80.7351 246.742 80.7497C245.842 80.7497 244.98 80.3687 244.344 79.6906C243.709 79.0124 243.351 78.0926 243.351 77.1336C243.351 76.1841 243.701 75.2727 244.326 74.5961C244.95 73.9195 245.799 73.5321 246.689 73.5175C247.588 73.5175 248.451 73.8985 249.087 74.5766C249.722 75.2548 250.079 76.1746 250.079 77.1336Z" fill="#EEEEEE" stroke="#1E1E1E" stroke-width="1.18504" stroke-linejoin="round"/>
<path fill-rule="evenodd" clip-rule="evenodd" d="M245.1 79C245.1 79 247.8 79 248.1 77.8C248.4 76.6 247.9 75.1 247.9 75.1C247.9 75.1 249.2 76.6 248.9 77.8C248.5 78.9 248.1 79.3 247.2 79.5C246.6 79.6 245.6 79.4 245.2 79H245.1Z" fill="#A3AFB8"/>
<path d="M241.679 73.6336C241.68 74.5831 241.33 75.4945 240.705 76.1711C240.08 76.8477 239.232 77.2351 238.341 77.2497C237.442 77.2497 236.58 76.8687 235.944 76.1906C235.309 75.5124 234.951 74.5926 234.951 73.6336C234.951 72.6841 235.301 71.7727 235.926 71.0961C236.55 70.4195 237.399 70.0321 238.289 70.0175C239.188 70.0175 240.051 70.3985 240.686 71.0766C241.322 71.7548 241.679 72.6746 241.679 73.6336Z" fill="#EEEEEE" stroke="#1E1E1E" stroke-width="1.18504" stroke-linejoin="round"/>
<path fill-rule="evenodd" clip-rule="evenodd" d="M236.8 75.5C236.8 75.5 239.5 75.5 239.8 74.3C240 73.1 239.6 71.6 239.6 71.6C239.6 71.6 240.9 73.1 240.6 74.3C240.1 75.4 239.8 75.7 238.8 76C238.2 76.1 237.3 75.9 236.8 75.5Z" fill="#A3AFB8"/>
<path d="M233.679 69.6336C233.68 70.5831 233.33 71.4945 232.705 72.1711C232.08 72.8477 231.232 73.2351 230.341 73.2497C229.442 73.2497 228.58 72.8687 227.944 72.1906C227.309 71.5124 226.951 70.5926 226.951 69.6336C226.951 68.6841 227.301 67.7727 227.926 67.0961C228.55 66.4195 229.399 66.0321 230.289 66.0175C231.188 66.0175 232.051 66.3985 232.686 67.0766C233.322 67.7548 233.679 68.6746 233.679 69.6336Z" fill="#EEEEEE" stroke="#1E1E1E" stroke-width="1.18504" stroke-linejoin="round"/>
<path fill-rule="evenodd" clip-rule="evenodd" d="M228.8 71.5C228.8 71.5 231.5 71.5 231.8 70.3C232.1 69.1 231.6 67.6 231.6 67.6C231.6 67.6 232.9 69.1 232.6 70.3C232.2 71.4 231.8 71.7 230.9 72C230.162 72.0997 229.414 71.9215 228.8 71.5Z" fill="#A3AFB8"/>
<path d="M224.579 67.4336C224.58 68.3831 224.23 69.2945 223.605 69.9711C222.98 70.6476 222.132 71.0351 221.242 71.0497C220.342 71.0497 219.48 70.6687 218.844 69.9905C218.209 69.3124 217.851 68.3926 217.851 67.4336C217.851 66.4841 218.201 65.5727 218.826 64.8961C219.45 64.2195 220.299 63.8321 221.189 63.8175C222.088 63.8175 222.951 64.1985 223.587 64.8766C224.222 65.5548 224.579 66.4745 224.579 67.4336Z" fill="#EEEEEE" stroke="#1E1E1E" stroke-width="1.18504" stroke-linejoin="round"/>
<path fill-rule="evenodd" clip-rule="evenodd" d="M219.6 69.3C219.6 69.3 222.3 69.3 222.6 68.1C222.9 66.9 222.4 65.4 222.4 65.4C222.4 65.4 223.7 66.9 223.4 68.1C223 69.3 222.6 69.6 221.7 69.8C221.1 70 220.1 69.8 219.7 69.3H219.6Z" fill="#A3AFB8"/>
<path d="M213.679 70.2336C213.68 71.1831 213.33 72.0945 212.705 72.7711C212.08 73.4476 211.232 73.835 210.341 73.8497C209.442 73.8497 208.58 73.4687 207.944 72.7905C207.309 72.1124 206.951 71.1926 206.951 70.2336C206.951 69.2841 207.301 68.3727 207.926 67.6961C208.55 67.0195 209.399 66.6321 210.289 66.6175C211.188 66.6175 212.051 66.9985 212.686 67.6766C213.322 68.3548 213.679 69.2745 213.679 70.2336Z" fill="#EEEEEE" stroke="#1E1E1E" stroke-width="1.18504" stroke-linejoin="round"/>
<path fill-rule="evenodd" clip-rule="evenodd" d="M208.8 72.1C208.8 72.1 211.5 72.1 211.8 70.9C212.1 69.7 211.6 68.2 211.6 68.2C211.6 68.2 212.9 69.7 212.6 70.9C212.2 72.1 211.8 72.4 210.9 72.6C210.2 72.8 209.3 72.5 208.9 72.1H208.8Z" fill="#A3AFB8"/>
<path d="M206.079 78.3336C206.08 79.2831 205.73 80.1945 205.105 80.8711C204.48 81.5477 203.632 81.9351 202.742 81.9497C201.842 81.9497 200.98 81.5687 200.344 80.8906C199.709 80.2124 199.351 79.2927 199.351 78.3336C199.351 77.3841 199.701 76.4727 200.326 75.7961C200.95 75.1196 201.799 74.7321 202.689 74.7175C203.588 74.7175 204.451 75.0985 205.087 75.7767C205.722 76.4548 206.079 77.3746 206.079 78.3336Z" fill="#EEEEEE" stroke="#1E1E1E" stroke-width="1.18504" stroke-linejoin="round"/>
<path fill-rule="evenodd" clip-rule="evenodd" d="M201.2 80.3C201.2 80.3 203.9 80.2 204.2 79C204.4 77.8 204 76.3 204 76.3C204 76.3 205.3 77.8 204.9 79C204.5 80.2 204.2 80.5 203.2 80.7C202.6 80.9 201.7 80.7 201.2 80.2V80.3Z" fill="#A3AFB8"/>
<path d="M202.879 89.7336C202.88 90.6831 202.53 91.5945 201.905 92.2711C201.28 92.9476 200.432 93.335 199.542 93.3497C198.642 93.3497 197.78 92.9687 197.144 92.2905C196.509 91.6124 196.151 90.6926 196.151 89.7336C196.151 88.7841 196.501 87.8727 197.126 87.1961C197.75 86.5195 198.599 86.1321 199.489 86.1175C200.388 86.1175 201.251 86.4985 201.886 87.1766C202.522 87.8548 202.879 88.7745 202.879 89.7336Z" fill="#EEEEEE" stroke="#1E1E1E" stroke-width="1.18504" stroke-linejoin="round"/>
<path fill-rule="evenodd" clip-rule="evenodd" d="M198 91.7C198 91.7 200.7 91.7 201 90.4C201.3 89.2 200.8 87.7 200.8 87.7C200.8 87.7 202.1 89.2 201.8 90.4C201.4 91.6 201 91.9 200.1 92.1C199.4 92.3 198.5 92.1 198 91.7Z" fill="#A3AFB8"/>
<path d="M204.279 101.634C204.279 102.583 203.929 103.495 203.305 104.171C202.68 104.848 201.832 105.235 200.941 105.25C200.042 105.25 199.18 104.869 198.544 104.191C197.909 103.512 197.551 102.593 197.551 101.634C197.551 100.684 197.901 99.7727 198.526 99.0961C199.15 98.4195 199.999 98.0321 200.889 98.0175C201.788 98.0175 202.651 98.3985 203.286 99.0766C203.922 99.7548 204.279 100.675 204.279 101.634Z" fill="#EEEEEE" stroke="#1E1E1E" stroke-width="1.18504" stroke-linejoin="round"/>
<path fill-rule="evenodd" clip-rule="evenodd" d="M199.4 103.6C199.4 103.6 202.1 103.6 202.4 102.3C202.7 101.2 202.2 99.6 202.2 99.6C202.2 99.6 203.5 101.2 203.2 102.3C202.8 103.5 202.4 103.8 201.5 104.1C200.762 104.2 200.014 104.022 199.4 103.6Z" fill="#A3AFB8"/>
<path d="M209.479 112.434C209.48 113.383 209.13 114.295 208.505 114.971C207.88 115.648 207.032 116.035 206.141 116.05C205.242 116.05 204.38 115.669 203.744 114.991C203.109 114.312 202.751 113.393 202.751 112.434C202.751 111.484 203.101 110.573 203.726 109.896C204.35 109.22 205.199 108.832 206.089 108.818C206.988 108.818 207.851 109.198 208.486 109.877C209.122 110.555 209.479 111.475 209.479 112.434Z" fill="#EEEEEE" stroke="#1E1E1E" stroke-width="1.18504" stroke-linejoin="round"/>
<path fill-rule="evenodd" clip-rule="evenodd" d="M204.5 114.3C204.5 114.3 207.3 114.3 207.5 113.1C207.8 111.9 207.4 110.4 207.4 110.4C207.4 110.4 208.7 111.9 208.4 113.1C207.9 114.3 207.6 114.6 206.6 114.8C206 115 205.1 114.8 204.6 114.3H204.5Z" fill="#A3AFB8"/>
<path d="M215.353 126.062C215.584 126.979 215.593 127.92 215.379 128.682C215.164 129.444 214.744 129.965 214.208 130.133C213.664 130.289 213.049 130.07 212.499 129.525C211.949 128.98 211.51 128.153 211.277 127.227C211.047 126.31 211.038 125.369 211.252 124.607C211.466 123.846 211.886 123.324 212.422 123.156C212.967 123.001 213.582 123.219 214.131 123.764C214.681 124.309 215.121 125.136 215.353 126.062Z" fill="#EEEEEE" stroke="#1E1E1E" stroke-width="1.19477" stroke-linejoin="round"/>
<path fill-rule="evenodd" clip-rule="evenodd" d="M212.8 128.7C212.8 128.7 214.4 128.2 214.3 127C214.3 125.8 213.6 124.4 213.6 124.4C213.6 124.4 214.7 125.7 214.8 126.9C214.8 128.1 214.7 128.4 214.2 128.9C213.9 129.1 213.2 129 212.8 128.7Z" fill="#A3AFB8"/>
<path d="M302.325 126.73C302.112 127.652 301.694 128.481 301.161 129.037C300.629 129.594 300.025 129.834 299.48 129.706C298.932 129.561 298.493 129.053 298.258 128.293C298.023 127.533 298.013 126.582 298.228 125.651C298.441 124.729 298.859 123.901 299.392 123.344C299.924 122.787 300.528 122.547 301.073 122.676C301.621 122.82 302.06 123.328 302.295 124.088C302.53 124.849 302.54 125.799 302.325 126.73Z" fill="#EEEEEE" stroke="#1E1E1E" stroke-width="1.19473" stroke-linejoin="round"/>
<path fill-rule="evenodd" clip-rule="evenodd" d="M298.8 127.8C298.8 127.8 300.5 128.2 300.9 127.1C301.4 126 301.4 124.4 301.4 124.4C301.4 124.4 301.9 126.1 301.4 127.2C300.9 128.3 300.6 128.5 300 128.6C299.6 128.6 299 128.2 298.8 127.8Z" fill="#A3AFB8"/>
<path fill-rule="evenodd" clip-rule="evenodd" d="M253.2 57.4L253.5 63.4C253.5 63.4 246.7 64.1 246.5 64.8C245.1 67.9 248 72.1 248 72.1C248 72.1 250.3 70.3 256 70.3C261.5 70.3 264.3 71.8 264.3 71.8C264.3 71.8 265.7 69.3 265.7 67.5C265.7 65.7 265.1 63.9 265.1 63.9L261.5 63.5H259L258.8 57.3L253.2 57.4Z" fill="#B3A192" stroke="black" stroke-width="1.2"/>
<path d="M262.9 66.8C262.9 67.5 262.3 68.1 261.7 68.1C261.525 68.1153 261.35 68.0921 261.185 68.0322C261.02 67.9722 260.871 67.877 260.747 67.7531C260.623 67.6292 260.528 67.4796 260.468 67.315C260.408 67.1503 260.385 66.9746 260.4 66.8C260.4 66.4817 260.526 66.1765 260.751 65.9515C260.977 65.7264 261.282 65.6 261.6 65.6C261.766 65.5861 261.933 65.6069 262.09 65.6609C262.247 65.715 262.392 65.8012 262.514 65.9141C262.636 66.0269 262.734 66.1639 262.8 66.3164C262.867 66.469 262.901 66.6336 262.9 66.8ZM265.6 67.5C265.6 68.2 265.1 68.8 264.4 68.8C263.7 68.8 263.1 68.2 263.1 67.5C263.1 67.3293 263.134 67.1602 263.199 67.0025C263.264 66.8448 263.36 66.7015 263.481 66.5808C263.601 66.46 263.745 66.3643 263.903 66.2989C264.06 66.2336 264.229 66.2 264.4 66.2C265.1 66.2 265.6 66.8 265.6 67.5ZM260.1 66.8C260.1 67.5 259.5 68 258.9 68C258.2 68 257.7 67.5 257.7 66.8C257.686 66.6423 257.704 66.4834 257.752 66.3326C257.8 66.1818 257.877 66.0419 257.979 65.9211C258.082 65.8002 258.207 65.7008 258.348 65.6285C258.488 65.5563 258.642 65.5126 258.8 65.5C258.975 65.4847 259.15 65.5079 259.315 65.5678C259.48 65.6277 259.629 65.723 259.753 65.8469C259.877 65.9708 259.972 66.1203 260.032 66.285C260.092 66.4496 260.115 66.6254 260.1 66.8ZM254.5 66.8C254.5 67.6 253.9 68.1 253.2 68.1C252.5 68.1 252 67.6 252 66.9C252 66.1 252.5 65.6 253.2 65.6C253.9 65.6 254.5 66.1 254.5 66.8ZM251.4 67.1C251.4 67.8 250.8 68.4 250.1 68.4C249.4 68.4 248.9 67.8 248.9 67.1C248.9 66.4 249.4 65.8 250.1 65.8C250.8 65.8 251.4 66.4 251.4 67.1ZM257.1 63.4C257.1 64 256.6 64.4 256.1 64.4C255.961 64.414 255.82 64.3985 255.687 64.3546C255.553 64.3107 255.431 64.2392 255.327 64.1449C255.224 64.0506 255.141 63.9356 255.084 63.8073C255.028 63.6789 254.999 63.5402 255 63.4C254.986 63.2605 255.001 63.1196 255.045 62.9865C255.089 62.8534 255.161 62.731 255.255 62.6273C255.349 62.5236 255.464 62.4408 255.593 62.3844C255.721 62.3281 255.86 62.2993 256 62.3C256.265 62.3 256.52 62.4053 256.707 62.5929C256.895 62.7804 257 63.0348 257 63.3M257 58.3C257 58.9 256.6 59.3 256 59.3C255.735 59.3 255.48 59.1946 255.293 59.0071C255.105 58.8196 255 58.5652 255 58.3C255 58.0348 255.105 57.7804 255.293 57.5929C255.48 57.4053 255.735 57.3 256 57.3C256.265 57.3 256.52 57.4053 256.707 57.5929C256.895 57.7804 257 58.0348 257 58.3ZM257 61C257 61.6 256.6 62.1 256 62.1C255.735 62.1 255.48 61.9946 255.293 61.8071C255.105 61.6196 255 61.3652 255 61.1C254.97 60.953 254.973 60.8012 255.01 60.6557C255.047 60.5102 255.116 60.3748 255.212 60.2596C255.308 60.1444 255.428 60.0522 255.565 59.9899C255.701 59.9277 255.85 59.897 256 59.9C256.14 59.8993 256.279 59.9281 256.407 59.9845C256.536 60.0408 256.651 60.1236 256.745 60.2273C256.839 60.331 256.911 60.4534 256.955 60.5865C256.999 60.7196 257.014 60.8605 257 61ZM248.2 68C248.2 68.7 247.7 69.2 247 69.2C246.4 69.2 245.8 68.7 245.8 68C245.786 67.8342 245.807 67.6673 245.861 67.51C245.915 67.3527 246.001 67.2083 246.114 67.086C246.227 66.9638 246.364 66.8664 246.516 66.7999C246.669 66.7334 246.834 66.6994 247 66.7C247.166 66.6994 247.331 66.7334 247.484 66.7999C247.636 66.8664 247.773 66.9638 247.886 67.086C247.999 67.2083 248.085 67.3527 248.139 67.51C248.193 67.6673 248.214 67.8342 248.2 68Z" fill="#F0DDCB"/>
<path d="M257.1 63.4C257.1 64 256.6 64.4 256.1 64.4C255.961 64.414 255.82 64.3985 255.687 64.3546C255.553 64.3107 255.431 64.2392 255.327 64.1449C255.224 64.0506 255.141 63.9356 255.084 63.8073C255.028 63.6789 254.999 63.5402 255 63.4C254.986 63.2605 255.001 63.1196 255.045 62.9865C255.089 62.8534 255.161 62.731 255.255 62.6273C255.349 62.5236 255.464 62.4408 255.593 62.3844C255.721 62.3281 255.86 62.2993 256 62.3C256.265 62.3 256.52 62.4053 256.707 62.5929C256.895 62.7804 257 63.0348 257 63.3M262.9 66.8C262.9 67.5 262.3 68.1 261.7 68.1C261.525 68.1153 261.35 68.0921 261.185 68.0322C261.02 67.9722 260.871 67.877 260.747 67.7531C260.623 67.6292 260.528 67.4796 260.468 67.315C260.408 67.1503 260.385 66.9745 260.4 66.8C260.4 66.4817 260.526 66.1765 260.751 65.9515C260.977 65.7264 261.282 65.6 261.6 65.6C261.766 65.5861 261.933 65.6069 262.09 65.6609C262.247 65.715 262.392 65.8012 262.514 65.9141C262.636 66.0269 262.734 66.1639 262.8 66.3164C262.867 66.469 262.901 66.6336 262.9 66.8ZM265.6 67.5C265.6 68.2 265.1 68.8 264.4 68.8C263.7 68.8 263.1 68.2 263.1 67.5C263.1 67.3293 263.134 67.1602 263.199 67.0025C263.264 66.8448 263.36 66.7015 263.481 66.5808C263.601 66.46 263.745 66.3643 263.903 66.2989C264.06 66.2336 264.229 66.2 264.4 66.2C265.1 66.2 265.6 66.8 265.6 67.5ZM260.1 66.8C260.1 67.5 259.5 68 258.9 68C258.2 68 257.7 67.5 257.7 66.8C257.686 66.6423 257.704 66.4834 257.752 66.3326C257.8 66.1818 257.877 66.0419 257.979 65.9211C258.082 65.8002 258.207 65.7008 258.348 65.6285C258.488 65.5563 258.642 65.5126 258.8 65.5C258.975 65.4847 259.15 65.5079 259.315 65.5678C259.48 65.6277 259.629 65.723 259.753 65.8469C259.877 65.9708 259.972 66.1203 260.032 66.285C260.092 66.4496 260.115 66.6254 260.1 66.8ZM254.5 66.8C254.5 67.6 253.9 68.1 253.2 68.1C252.5 68.1 252 67.6 252 66.9C252 66.1 252.5 65.6 253.2 65.6C253.9 65.6 254.5 66.1 254.5 66.8ZM251.4 67.1C251.4 67.8 250.8 68.4 250.1 68.4C249.4 68.4 248.9 67.8 248.9 67.1C248.9 66.4 249.4 65.8 250.1 65.8C250.8 65.8 251.4 66.4 251.4 67.1ZM257 58.3C257 58.9 256.6 59.3 256 59.3C255.735 59.3 255.48 59.1946 255.293 59.0071C255.105 58.8196 255 58.5652 255 58.3C255 58.0348 255.105 57.7804 255.293 57.5929C255.48 57.4053 255.735 57.3 256 57.3C256.265 57.3 256.52 57.4053 256.707 57.5929C256.895 57.7804 257 58.0348 257 58.3ZM257 61C257 61.6 256.6 62.1 256 62.1C255.735 62.1 255.48 61.9946 255.293 61.8071C255.105 61.6196 255 61.3652 255 61.1C254.97 60.953 254.973 60.8012 255.01 60.6557C255.047 60.5102 255.116 60.3748 255.212 60.2596C255.308 60.1444 255.428 60.0522 255.565 59.9899C255.701 59.9277 255.85 59.897 256 59.9C256.14 59.8993 256.279 59.9281 256.407 59.9845C256.536 60.0408 256.651 60.1236 256.745 60.2273C256.839 60.331 256.911 60.4534 256.955 60.5865C256.999 60.7196 257.014 60.8605 257 61ZM248.2 68C248.2 68.7 247.7 69.2 247 69.2C246.4 69.2 245.8 68.7 245.8 68C245.786 67.8342 245.807 67.6673 245.861 67.51C245.915 67.3527 246.001 67.2083 246.114 67.086C246.227 66.9638 246.364 66.8664 246.516 66.7999C246.669 66.7334 246.834 66.6994 247 66.7C247.166 66.6994 247.331 66.7334 247.484 66.7999C247.636 66.8664 247.773 66.9638 247.886 67.086C247.999 67.2083 248.085 67.3527 248.139 67.51C248.193 67.6673 248.214 67.8342 248.2 68Z" stroke="#121116" stroke-width="0.6" stroke-linejoin="round"/>
<path d="M257.4 66.5C257.4 67.3 256.8 67.9 256 67.9C255.646 67.8747 255.315 67.7161 255.074 67.4562C254.833 67.1964 254.699 66.8546 254.7 66.5C254.723 66.1629 254.868 65.8457 255.107 65.6067C255.346 65.3678 255.663 65.2233 256 65.2C256.355 65.1991 256.696 65.3328 256.956 65.5741C257.216 65.8154 257.375 66.1463 257.4 66.5Z" fill="#916C68" stroke="#4D3126" stroke-width="0.6" stroke-linejoin="round"/>
<path d="M258.512 48.462C258.512 49.1647 258.253 49.8393 257.79 50.34C257.328 50.8407 256.7 51.1274 256.041 51.1383C255.376 51.1383 254.738 50.8563 254.267 50.3544C253.797 49.8525 253.532 49.1718 253.532 48.462C253.532 47.7593 253.791 47.0848 254.253 46.584C254.716 46.0833 255.344 45.7966 256.003 45.7858C256.668 45.7858 257.306 46.0677 257.777 46.5696C258.247 47.0715 258.512 47.7522 258.512 48.462Z" fill="#EEEEEE" stroke="#1E1E1E" stroke-width="1.19597" stroke-linejoin="round"/>
<path fill-rule="evenodd" clip-rule="evenodd" d="M254.9 49.9C254.9 49.9 256.9 49.9 257.1 48.9C257.3 48.1 257 46.9 257 46.9C257 46.9 258 48.1 257.7 48.9C257.4 49.9 257.1 50.1 256.5 50.2C256.227 50.265 255.944 50.2719 255.668 50.2202C255.392 50.1685 255.131 50.0594 254.9 49.9Z" fill="#A3AFB8"/>
<path fill-rule="evenodd" clip-rule="evenodd" d="M216.5 138.8C216.5 138.8 218.7 141 219.3 143C219.9 145 220.8 150.3 220.8 150.3C220.8 150.3 244 143.3 255.4 143.9C266.8 144.5 293.1 150.7 293.1 150.7L294.1 144.5C294.6 141.3 296.8 137.9 296.8 137.9C296.8 137.9 271.6 129.5 255.8 130.3C239.9 131.1 232 132.9 228.5 134.1C224.46 135.563 220.459 137.13 216.5 138.8Z" fill="#FFCC00" stroke="black" stroke-width="0.5"/>
<path fill-rule="evenodd" clip-rule="evenodd" d="M251.2 38.5H261.2C261.2 38.5 258.7 40.3 258.2 42C257.8 43.5 257.9 46 257.9 46C257.9 46 260.6 46 261.9 44.9L265.6 41.9V55.4C265.6 55.4 263.1 52.9 261.6 52C259.9 51 258.1 50.7 258.1 50.7C258.1 50.7 258.1 52.9 258.9 54.2L263.2 60.4L248.9 61C248.9 61 252.3 57.2 253.6 54.4C254.6 52.6 254.2 50.7 254.2 50.7C254.2 50.7 251.8 50.7 250.6 51.6C249.3 52.5 247.2 55.2 247.2 55.2V42.2C247.2 42.2 248.2 44.7 250.2 45.6C252.2 46.6 254 46.1 254 46.1C254 46.1 254.4 43.5 253.6 41.9C252.7 40.2 251 38.4 251.2 38.5Z" fill="#FFCC00" stroke="black" stroke-width="1.2"/>
<path fill-rule="evenodd" clip-rule="evenodd" d="M250.4 81.5C250.4 81.5 243.3 81.5 237.2 77.6C231.1 73.8 224.9 69.8 215.9 72C214.1 72.5 207.2 75.7 204.2 86C202.2 93.3 204.6 102 206.7 106C208.9 109.9 212.3 113.9 212.3 113.9L216 111.2C216 111.2 206.6 102.8 207.8 91.8C208.8 80.8 214 78.3 214 78.3C214 78.3 220.4 73 228.9 78C236.726 82.5323 245.291 85.6468 254.2 87.2C254.8 87.2 250.2 81.5 250.4 81.5Z" fill="#FFCC00" stroke="#121116" stroke-width="1.2"/>
<path fill-rule="evenodd" clip-rule="evenodd" d="M211 122.7L207.2 114.7L218.6 110C218.6 110 215.8 114 215.2 116.7C214.4 120.1 214.7 123 214.7 123C214.7 123 215.7 122.1 217 120C218 118.2 219.6 112.1 219.6 112.1L224.7 129.5C224.7 129.5 222.1 126.7 220.2 126.4C218.2 126 215.6 126.7 215.6 126.7L212.6 127.7L211 122.7Z" fill="#FFCC00" stroke="black" stroke-width="1.2"/>
<path fill-rule="evenodd" clip-rule="evenodd" d="M263.2 81.4C263.2 81.4 270.3 81.4 276.4 77.4C282.5 73.6 288.6 69.6 297.7 71.9C299.5 72.4 306.3 75.5 309.3 85.9C311.4 93.1 309 101.9 306.8 105.9L303.2 112.1L298.8 110.4C298.8 110.4 306.9 102.6 305.8 91.6C304.7 80.6 299.6 78.1 299.6 78.1C299.6 78.1 293.2 72.8 284.7 77.8C276.2 82.8 267.9 85.1 267.9 85.1C267.9 85.1 260.1 87.1 259.4 87.1C258.7 87 263.4 81.3 263.2 81.4Z" fill="#FFCC00" stroke="#121116" stroke-width="1.2"/>
<path d="M259.5 73.9H262.5V103.4H259.5V73.9ZM249.5 73.8H253V103.3H249.5V73.8Z" fill="#FFCC00" stroke="#121116" stroke-width="1.2" stroke-linejoin="round"/>
<path d="M265.7 66.9C265.687 68.1607 265.426 69.4065 264.931 70.5662C264.437 71.726 263.718 72.7769 262.818 73.6591C261.917 74.5413 260.851 75.2374 259.681 75.7077C258.512 76.1779 257.261 76.4132 256 76.4C254.739 76.4132 253.488 76.1779 252.319 75.7077C251.149 75.2374 250.083 74.5413 249.182 73.6591C248.282 72.7769 247.563 71.726 247.069 70.5662C246.574 69.4065 246.313 68.1607 246.3 66.9C246.326 64.3713 247.349 61.9551 249.147 60.1763C250.944 58.3976 253.371 57.3999 255.9 57.4C257.161 57.3735 258.414 57.5956 259.589 58.0537C260.764 58.5118 261.837 59.1968 262.747 60.0697C263.657 60.9427 264.387 61.9863 264.893 63.1411C265.4 64.2959 265.674 65.5392 265.7 66.8" fill="#FFCC00"/>
<path d="M265.7 66.9C265.687 68.1607 265.426 69.4065 264.931 70.5662C264.437 71.726 263.718 72.7769 262.818 73.6591C261.917 74.5413 260.851 75.2374 259.681 75.7077C258.512 76.178 257.261 76.4132 256 76.4C254.739 76.4132 253.488 76.178 252.319 75.7077C251.149 75.2374 250.083 74.5413 249.182 73.6591C248.282 72.7769 247.563 71.726 247.069 70.5662C246.574 69.4065 246.313 68.1607 246.3 66.9C246.326 64.3713 247.349 61.9551 249.147 60.1763C250.944 58.3976 253.371 57.3999 255.9 57.4C257.161 57.3735 258.414 57.5956 259.589 58.0537C260.764 58.5118 261.837 59.1968 262.747 60.0697C263.657 60.9427 264.387 61.9863 264.893 63.1411C265.4 64.2959 265.674 65.5392 265.7 66.8" stroke="#121116" stroke-width="1.2" stroke-linejoin="round"/>
<path fill-rule="evenodd" clip-rule="evenodd" d="M247.4 103.2L264.1 103.1C264.1 103.1 262.1 104.3 260.5 107.5C258.8 110.7 259 112.7 259 112.7C259 112.7 261.6 112.7 263.3 111.2C265.1 109.9 267.1 107.2 267.1 107.2V123.7C267.1 123.7 265.8 121.6 263.8 120.3C261.8 119.1 259 119.1 259 119.1H253.3C253.3 119.1 250.7 119.3 249.6 120.1C248.273 121.127 247.036 122.265 245.9 123.5L245.5 108C245.5 108 246.3 110.7 249 111.8C251.7 112.9 253.2 112.8 253.2 112.8C253.2 112.8 253.2 109.3 251.8 107.5C250.4 105.7 247.3 103.3 247.3 103.2H247.4Z" fill="#FFCC00" stroke="black"/>
<path fill-rule="evenodd" clip-rule="evenodd" d="M256.7 116C256.7 116 259.1 122.1 262 124.8C263.6 126.4 268.6 127.6 270.8 127C275.8 125.6 279.4 121.3 279.4 121.3C279.4 121.3 279.2 126 282.4 128.6C285.5 131.2 288 131.9 290.6 131.1C293.3 130.3 300.6 124.5 300.6 124.5L302.2 125.9C302.2 125.9 297.9 130.3 293.5 132.6C291.2 133.8 284.2 133.2 282 131.2C279.7 129.3 278.4 124.7 278.4 124.7C278.4 124.7 277 127.7 274 128.7C271 129.7 267 129.7 263.1 128.5C260.6 127.7 257.2 124 256.6 122.7C256 121.5 256.2 120.7 256.2 120.7C256.2 120.7 254.2 126.5 250.4 128.1C246.72 129.518 242.67 129.659 238.9 128.5C235.3 127.4 235 125.2 235 125.2C235 125.2 234.8 131.2 227 133C219 134.8 212.8 128.6 212.8 128.6L213.9 126.9C213.9 126.9 218.3 132.2 225.1 131.7C231.9 131.2 234.1 121.9 234.1 121.9C234.1 121.9 237.1 126.8 245.1 126.9C253 126.9 255.3 115.9 255.3 115.9L256.7 116.1V116Z" fill="#F6CA1F" stroke="black"/>
<path fill-rule="evenodd" clip-rule="evenodd" d="M237.097 119.59C237.097 119.59 237.097 116.642 237.723 115.752C237.993 115.298 238.39 114.946 238.858 114.746C239.326 114.546 239.841 114.509 240.33 114.639C241.008 114.862 241.791 115.529 241.634 117.588C241.53 119.646 241.008 120.647 241.582 121.426C242.104 122.205 242.208 122.706 243.355 122.539C244.399 122.372 244.92 121.983 244.659 120.87C244.451 119.757 244.138 120.981 243.877 120.035C243.668 119.145 244.972 115.195 244.764 112.748C244.555 110.355 243.721 108.408 241.999 107.963C240.383 107.518 238.974 107.518 237.462 108.687C236.14 110.11 235.031 111.742 234.176 113.526V121.482L237.149 121.259L237.097 119.59Z" fill="#FFCC00" stroke="black" stroke-width="1.18504"/>
<path fill-rule="evenodd" clip-rule="evenodd" d="M231.464 121.704C231.464 121.704 230.264 119.034 229.378 118.478C228.965 118.189 228.481 118.04 227.988 118.05C227.495 118.06 227.016 118.229 226.614 118.533C226.092 119.09 225.623 119.98 226.509 121.871C227.396 123.652 228.23 124.375 228.022 125.321C227.761 126.266 227.918 126.767 226.822 127.101C225.727 127.435 225.153 127.268 224.945 126.155C224.788 125.042 225.518 125.988 225.362 125.042C225.205 124.152 222.546 121.037 221.868 118.7C221.137 116.475 221.19 114.25 222.598 113.137C223.902 112.024 225.205 111.468 226.979 111.913C228.752 112.303 231.829 114.917 231.829 114.917L234.854 122.15L231.986 123.262L231.464 121.704Z" fill="#FFCC00" stroke="black" stroke-width="1.18504"/>
<path fill-rule="evenodd" clip-rule="evenodd" d="M230.89 98.2277C230.89 98.2277 227.917 103.513 228.596 107.574C229.221 111.635 233.185 120.369 233.185 120.369V121.482L235.271 121.259L234.854 120.035C234.854 120.035 235.897 109.632 235.219 106.35C234.75 103.902 230.89 98.2834 230.89 98.2277ZM235.584 122.372C235.584 122.372 237.045 124.263 238.818 125.154C240.695 126.155 241.53 126.155 242.26 125.543C242.782 125.098 242.625 123.206 241.999 122.65C241.321 122.149 240.591 122.428 240.435 122.928C240.278 123.818 240.017 123.763 239.392 123.429L236.523 121.593L235.584 122.372ZM233.289 122.817C233.289 122.817 232.664 125.154 231.412 126.711C230.056 128.492 229.326 128.881 228.387 128.658C227.709 128.492 227.187 126.656 227.552 125.877C227.97 125.098 228.752 125.042 229.013 125.487C229.534 126.155 229.795 126.044 230.212 125.487C230.876 124.501 231.52 123.5 232.142 122.483L233.289 122.817Z" fill="#FFCC00" stroke="black" stroke-width="1.18504"/>
<path d="M238.977 120.948C239.081 121.606 237.11 122.523 234.641 122.965C232.172 123.407 229.977 123.236 229.813 122.532C229.709 121.873 231.68 120.957 234.201 120.505C236.721 120.054 238.865 120.235 238.969 120.893" fill="#FFCC00"/>
<path d="M238.977 120.948C239.081 121.606 237.11 122.523 234.641 122.965C232.172 123.407 229.977 123.236 229.813 122.532C229.709 121.873 231.68 120.957 234.201 120.505C236.721 120.054 238.865 120.235 238.969 120.893" stroke="black" stroke-width="1.18518" stroke-linejoin="round"/>
<path fill-rule="evenodd" clip-rule="evenodd" d="M282.173 120.773C282.173 120.773 283.142 118.012 284.021 117.412C284.423 117.088 284.911 116.907 285.415 116.895C285.919 116.883 286.414 117.041 286.829 117.346C287.391 117.808 287.904 118.726 287.081 120.595C286.306 122.484 285.489 123.226 285.77 124.17C286.002 125.095 285.935 125.603 287.065 125.876C288.097 126.11 288.713 125.94 288.835 124.8C289.005 123.68 288.31 124.709 288.376 123.726C288.474 122.815 290.993 119.603 291.603 117.233C292.194 114.914 292.052 112.779 290.587 111.718C289.219 110.697 287.9 110.17 286.1 110.698C284.394 111.537 282.819 112.651 281.432 114.002L278.816 121.452L281.673 122.356L282.173 120.773Z" fill="#FFCC00" stroke="black" stroke-width="1.18559"/>
<path fill-rule="evenodd" clip-rule="evenodd" d="M276.203 120.646C276.203 120.646 275.958 117.696 275.31 116.844C275.019 116.419 274.614 116.098 274.149 115.923C273.684 115.748 273.18 115.727 272.703 115.862C272.032 116.188 271.3 116.846 271.508 118.949C271.753 120.948 272.297 121.937 271.791 122.745C271.235 123.533 271.217 124.06 270.082 123.963C268.946 123.866 268.464 123.495 268.634 122.375C268.854 121.275 269.227 122.433 269.391 121.489C269.537 120.597 268.07 116.684 268.204 114.243C268.251 111.886 269.032 109.821 270.716 109.306C272.303 108.752 273.707 108.718 275.222 109.798C276.754 110.826 278.776 114.426 278.776 114.426L279.231 122.331L276.179 122.3L276.203 120.646Z" fill="#FFCC00" stroke="black" stroke-width="1.18559"/>
<path fill-rule="evenodd" clip-rule="evenodd" d="M283.384 98.4451C283.384 98.4451 278.863 102.282 278.162 106.339C277.413 110.377 278.254 120.039 278.254 120.039L277.888 121.081L279.915 121.653L279.927 120.351C279.927 120.351 284.324 110.999 284.768 107.671C285.133 105.203 283.366 98.4972 283.384 98.4451ZM279.842 122.812C279.842 122.812 280.588 125.13 281.956 126.627C283.385 128.267 284.167 128.579 285.052 128.279C285.686 128.058 286.162 126.228 285.758 125.473C285.288 124.75 284.513 124.737 284.202 125.148C283.762 125.923 283.537 125.773 283.06 125.226L280.977 122.434L279.842 122.812ZM277.547 122.371C277.547 122.371 276.192 124.325 274.508 125.315C272.653 126.475 271.841 126.567 271.035 126.007C270.455 125.597 270.57 123.683 271.168 123.09C271.815 122.517 272.566 122.757 272.664 123.272C272.933 124.092 273.213 124.085 273.787 123.72C274.733 123.045 275.665 122.348 276.582 121.629L277.547 122.371Z" fill="#FFCC00" stroke="black" stroke-width="1.18559"/>
<path d="M283.395 122.797C283.276 123.453 281.129 123.574 278.671 123.064C276.214 122.554 274.214 121.573 274.292 120.852C274.412 120.197 276.559 120.076 279.068 120.596C281.577 121.116 283.525 122.087 283.405 122.743" fill="#FFCC00"/>
<path d="M283.395 122.797C283.276 123.453 281.129 123.574 278.671 123.064C276.214 122.554 274.214 121.573 274.292 120.852C274.412 120.197 276.559 120.076 279.068 120.596C281.577 121.116 283.525 122.087 283.405 122.743" stroke="black" stroke-width="1.18522" stroke-linejoin="round"/>
<path fill-rule="evenodd" clip-rule="evenodd" d="M215.5 138.5C215.5 138.5 216.1 140.7 217.3 139.5C218.4 138.5 234.5 131.7 257.1 131.7C279.7 131.7 294.7 138.3 295.6 138.7C296.5 139.1 296.9 139.7 297.6 138.7C298.4 137.8 296.9 136.3 296.9 136.3C296.9 136.3 281.1 129.2 256.5 129.3C231.8 129.3 215.9 136.9 215.9 136.9C215.9 136.9 214.9 137.7 215.6 138.5H215.5Z" fill="#CCA715" stroke="black" stroke-width="0.5"/>
<path fill-rule="evenodd" clip-rule="evenodd" d="M244.3 148.6C244.3 148.6 245.1 146.4 246.3 146C247.3 145.7 248.9 146.8 248.9 146.8C248.9 146.8 247 146.6 246.4 146.9C245.9 147.3 245.7 148.2 245.7 148.2C245.7 148.2 246.1 147.5 247.6 147.5L249.2 147.6C249.2 147.6 246.7 147.8 246.2 148.6C245.6 149.3 248.5 149.6 248.5 149.6C248.5 149.6 244 149.7 243.5 149.4C242.8 149.1 242.5 148.2 241.5 148.4C240.5 148.8 239.5 149.7 239.5 149.7C239.5 149.7 240.5 147.7 241.3 147.7C242 147.7 242.4 147.7 243.1 147.9C243.8 148.1 244.3 148.6 244.3 148.6ZM227.6 152.5C227.6 152.5 227.9 150.2 229.1 149.5C230.1 149 231.8 149.8 231.8 149.8C231.8 149.8 229.8 149.9 229.3 150.4C228.9 150.9 228.9 151.8 228.9 151.8C228.9 151.8 229.1 151 230.6 150.8L232.2 150.5C232.2 150.5 229.8 151.2 229.4 152.1C228.9 153 231.9 152.7 231.9 152.7C231.9 152.7 227.5 153.7 226.9 153.5C226.2 153.3 225.7 152.5 224.7 152.9C223.8 153.4 223 154.5 223 154.5C223 154.5 223.8 152.3 224.5 152.1C225.2 152 225.5 151.9 226.3 152.1C227 152.2 227.6 152.5 227.6 152.5ZM258.5 147.8C258.5 147.8 259.3 145.7 260.5 145.4C261.6 145.1 263.1 146.2 263.1 146.2C263.1 146.2 261.2 146 260.6 146.2C260.1 146.6 259.8 147.5 259.8 147.5C259.8 147.5 260.3 146.8 261.8 147L263.4 147.1C263.4 147.1 260.9 147.1 260.3 147.9C259.7 148.6 262.6 149.2 262.6 149.2C262.6 149.2 258.1 148.9 257.6 148.6C257 148.3 256.6 147.3 255.6 147.5C254.6 147.7 253.6 148.6 253.6 148.6C253.6 148.6 254.8 146.6 255.5 146.6C256.2 146.7 256.6 146.7 257.3 147.1L258.5 147.8ZM272.6 149.5C272.6 149.5 273.6 147.5 275 147.4C276 147.2 277.4 148.5 277.4 148.5C277.4 148.5 275.6 148 274.9 148.2C274.3 148.5 274 149.4 274 149.4C274 149.4 274.5 148.7 276 149.1L277.6 149.4C277.6 149.4 275.1 149.2 274.4 149.8C273.7 150.5 276.5 151.4 276.5 151.4C276.5 151.4 272.1 150.6 271.5 150.2C271.1 149.8 270.8 148.7 269.8 148.8C268.8 148.9 267.6 149.8 267.6 149.8C267.6 149.8 269.1 147.9 269.8 148C270.5 148.1 270.9 148.2 271.5 148.6L272.6 149.5ZM286.6 152.2C286.6 152.2 287.6 150.7 288.7 150.6C289.6 150.6 290.6 151.8 290.6 151.8C290.6 151.8 289.1 151.2 288.6 151.4C288.1 151.4 287.8 152.2 287.8 152.2C287.8 152.2 288.3 151.7 289.4 152.1L290.7 152.5C290.7 152.5 288.7 152.1 288.1 152.5C287.5 153 289.7 154 289.7 154C289.7 154 286.2 153 285.7 152.6C285.4 152.3 285.3 151.4 284.5 151.4C283.6 151.4 282.6 152 282.6 152C282.6 152 283.9 150.6 284.5 150.8C285 150.9 285.4 151 285.8 151.4L286.7 152.2H286.6Z" fill="black"/>
<path d="M241.5 138.4C241.9 140.2 239.9 142.1 237.1 142.7C234.4 143.3 231.8 142.3 231.5 140.5C231.2 138.7 233.1 136.8 235.9 136.2C238.7 135.6 241.2 136.6 241.5 138.4Z" fill="#0F6545" stroke="black" stroke-width="0.7" stroke-linejoin="round"/>
<path d="M235.3 138C235.3 138.5 234.9 139 234.3 139.1C233.7 139.2 233.1 139 233 138.6C233 138.1 233.4 137.6 234 137.6C234.6 137.4 235.2 137.6 235.3 138.1V138Z" fill="#CECFC1"/>
<path d="M280.6 140.5C280.1 142.3 277.6 143 274.8 142.1C272.1 141.1 270.4 139.1 270.8 137.3C271.4 135.5 274 134.8 276.7 135.7C279.4 136.7 281.2 138.7 280.7 140.5H280.6Z" fill="#0F6545" stroke="black" stroke-width="0.7" stroke-linejoin="round"/>
<path d="M275.3 137C275.1 137.5 274.6 137.7 274 137.5C273.4 137.3 273 136.8 273.1 136.3C273.2 135.9 273.8 135.7 274.4 135.9C275 136.1 275.4 136.6 275.3 137.1V137Z" fill="#CECFC1"/>
<path d="M251.1 134.3H261.2V139.8H251.1V134.3Z" fill="#1F2D86" stroke="black" stroke-linejoin="round"/>
<path d="M255.4 135.5C255.4 135.8 254.9 136 254.4 136C253.9 136 253.4 135.7 253.4 135.5C253.4 135.3 253.9 135.1 254.4 135.1C254.9 135.1 255.4 135.3 255.4 135.5Z" fill="#707C8B"/>
<path fill-rule="evenodd" clip-rule="evenodd" d="M222.5 139.8L224.1 145.1L221.1 146.9C221.1 146.9 219.6 147.9 218.1 147.1C216.8 146.3 215.9 143.9 216.7 142.9C218.2 140.9 222.4 139.7 222.4 139.8H222.5Z" fill="#9F1209" stroke="black" stroke-width="0.5"/>
<path d="M219.8 143.6C219.8 144.4 219.2 145.2 218.4 145.2C217.6 145.2 217 144.4 217 143.6C217 142.6 217.6 141.9 218.4 141.9C219.2 141.9 219.8 142.7 219.8 143.5V143.6Z" fill="#8F322F"/>
<path d="M218.5 143C218.5 143.216 218.43 143.427 218.3 143.6C218.2 143.8 218 143.8 217.8 143.7C217.6 143.7 217.5 143.4 217.4 143.1C217.376 142.85 217.448 142.6 217.6 142.4C217.659 142.328 217.741 142.278 217.832 142.26C217.923 142.242 218.018 142.256 218.1 142.3C218.3 142.3 218.5 142.6 218.5 142.9V143Z" fill="#E2A494"/>
<path fill-rule="evenodd" clip-rule="evenodd" d="M290.4 140.5L288.7 145.2L292.7 147.4C292.7 147.4 294.4 148.2 295.5 147.2C296.5 146.3 296.7 144.2 295.9 143.2C295.2 142.2 290.3 140.5 290.4 140.5Z" fill="#9F1209" stroke="black" stroke-width="0.5"/>
<path d="M295.1 144.3C295.1 144.8 294.5 145.3 293.8 145.3C293.1 145.3 292.6 144.8 292.6 144.3C292.6 143.7 293.2 143.2 293.8 143.2C294.5 143.2 295.1 143.7 295.1 144.2V144.3Z" fill="#AA675D"/>
<path d="M293.9 144C293.9 144.4 293.8 144.6 293.6 144.8C293.513 144.865 293.408 144.9 293.3 144.9C293.192 144.9 293.087 144.865 293 144.8C292.896 144.717 292.814 144.61 292.761 144.488C292.709 144.366 292.688 144.232 292.7 144.1C292.7 143.8 292.8 143.6 293 143.4C293.087 143.335 293.192 143.3 293.3 143.3C293.408 143.3 293.513 143.335 293.6 143.4C293.8 143.6 293.9 143.8 293.9 144.1V144Z" fill="#E2A494"/>
<path d="M265.1 134.8C265.101 134.901 265.08 135.001 265.039 135.093C264.998 135.185 264.937 135.268 264.861 135.334C264.785 135.401 264.695 135.45 264.599 135.478C264.502 135.507 264.4 135.514 264.3 135.5C264.114 135.5 263.936 135.426 263.805 135.295C263.674 135.164 263.6 134.986 263.6 134.8C263.6 134.614 263.674 134.436 263.805 134.305C263.936 134.174 264.114 134.1 264.3 134.1C264.4 134.086 264.502 134.093 264.599 134.122C264.695 134.15 264.785 134.2 264.861 134.266C264.937 134.333 264.998 134.415 265.039 134.507C265.08 134.599 265.101 134.699 265.1 134.8ZM269.4 135.1C269.4 135.286 269.326 135.464 269.195 135.595C269.064 135.726 268.886 135.8 268.7 135.8C268.6 135.814 268.498 135.807 268.401 135.778C268.305 135.75 268.215 135.701 268.139 135.634C268.063 135.568 268.002 135.485 267.961 135.393C267.92 135.301 267.899 135.201 267.9 135.1C267.899 134.999 267.92 134.899 267.961 134.807C268.002 134.715 268.063 134.633 268.139 134.566C268.215 134.5 268.305 134.45 268.401 134.422C268.498 134.393 268.6 134.386 268.7 134.4C268.886 134.4 269.064 134.474 269.195 134.605C269.326 134.736 269.4 134.914 269.4 135.1ZM267.2 136.9C267.201 137.027 267.175 137.153 267.123 137.269C267.072 137.385 266.997 137.49 266.902 137.575C266.808 137.66 266.696 137.724 266.575 137.762C266.454 137.801 266.326 137.814 266.2 137.8C266.082 137.788 265.967 137.752 265.862 137.695C265.758 137.637 265.666 137.56 265.591 137.467C265.517 137.374 265.461 137.267 265.429 137.153C265.396 137.038 265.386 136.918 265.4 136.8C265.4 136.4 265.8 136 266.3 136C266.8 136 267.2 136.4 267.2 136.9ZM269.2 139.9C269.202 140.07 269.142 140.234 269.032 140.363C268.921 140.491 268.768 140.576 268.6 140.6C268.5 140.614 268.398 140.607 268.301 140.578C268.204 140.55 268.115 140.501 268.039 140.434C267.963 140.368 267.902 140.285 267.861 140.193C267.82 140.101 267.799 140.001 267.8 139.9C267.786 139.8 267.793 139.698 267.822 139.601C267.85 139.505 267.9 139.415 267.966 139.339C268.033 139.263 268.115 139.202 268.207 139.161C268.299 139.12 268.399 139.099 268.5 139.1C268.609 139.083 268.72 139.092 268.825 139.126C268.93 139.16 269.025 139.219 269.103 139.297C269.181 139.375 269.24 139.47 269.274 139.575C269.308 139.68 269.317 139.791 269.3 139.9H269.2ZM265.1 139.3C265.1 139.486 265.026 139.664 264.895 139.795C264.764 139.926 264.586 140 264.4 140C264.214 140 264.036 139.926 263.905 139.795C263.774 139.664 263.7 139.486 263.7 139.3C263.7 139.114 263.774 138.936 263.905 138.805C264.036 138.674 264.214 138.6 264.4 138.6C264.586 138.6 264.764 138.674 264.895 138.805C265.026 138.936 265.1 139.114 265.1 139.3ZM244.2 135.6C244.23 135.692 244.241 135.789 244.232 135.885C244.223 135.982 244.194 136.075 244.147 136.16C244.1 136.244 244.036 136.318 243.959 136.377C243.882 136.435 243.794 136.477 243.7 136.5C243.601 136.53 243.497 136.538 243.394 136.523C243.292 136.508 243.194 136.47 243.108 136.413C243.022 136.355 242.95 136.28 242.897 136.191C242.843 136.102 242.81 136.003 242.8 135.9C242.786 135.808 242.79 135.714 242.813 135.624C242.836 135.533 242.876 135.448 242.932 135.374C242.988 135.299 243.058 135.237 243.138 135.19C243.219 135.143 243.308 135.112 243.4 135.1C243.572 135.069 243.749 135.103 243.897 135.195C244.045 135.288 244.153 135.432 244.2 135.6ZM248.5 134.8C248.53 134.899 248.538 135.003 248.523 135.106C248.508 135.208 248.47 135.306 248.413 135.392C248.355 135.478 248.28 135.55 248.191 135.603C248.102 135.657 248.003 135.69 247.9 135.7C247.728 135.731 247.551 135.698 247.403 135.605C247.255 135.513 247.147 135.368 247.1 135.2C247.052 135.103 247.027 134.996 247.027 134.888C247.027 134.779 247.052 134.672 247.101 134.575C247.149 134.478 247.22 134.394 247.306 134.329C247.393 134.264 247.493 134.22 247.6 134.2C247.699 134.17 247.803 134.162 247.906 134.177C248.008 134.192 248.106 134.23 248.192 134.287C248.278 134.345 248.35 134.42 248.403 134.509C248.457 134.598 248.49 134.697 248.5 134.8ZM246.7 137.1C246.717 137.309 246.669 137.517 246.561 137.697C246.453 137.876 246.292 138.017 246.1 138.1C245.875 138.163 245.634 138.135 245.428 138.023C245.223 137.911 245.069 137.723 245 137.5C244.99 137.279 245.053 137.062 245.18 136.881C245.306 136.7 245.489 136.566 245.7 136.5C245.911 136.465 246.127 136.506 246.31 136.616C246.494 136.726 246.632 136.898 246.7 137.1ZM249.4 139.5C249.43 139.592 249.441 139.689 249.432 139.785C249.423 139.882 249.394 139.975 249.347 140.06C249.3 140.144 249.236 140.218 249.159 140.277C249.082 140.335 248.994 140.377 248.9 140.4C248.808 140.43 248.711 140.441 248.615 140.432C248.518 140.423 248.425 140.394 248.34 140.347C248.256 140.3 248.182 140.236 248.123 140.159C248.065 140.082 248.023 139.994 248 139.9C247.952 139.803 247.927 139.696 247.927 139.588C247.927 139.479 247.952 139.372 248.001 139.275C248.049 139.178 248.12 139.094 248.206 139.029C248.293 138.964 248.393 138.92 248.5 138.9C248.599 138.87 248.703 138.862 248.806 138.877C248.908 138.892 249.006 138.93 249.092 138.987C249.178 139.045 249.25 139.12 249.303 139.209C249.357 139.298 249.39 139.397 249.4 139.5ZM245.2 140C245.231 140.172 245.198 140.349 245.105 140.497C245.013 140.645 244.868 140.753 244.7 140.8C244.608 140.83 244.511 140.841 244.415 140.832C244.318 140.823 244.225 140.794 244.14 140.747C244.056 140.7 243.982 140.636 243.923 140.559C243.865 140.482 243.823 140.394 243.8 140.3C243.77 140.201 243.762 140.097 243.777 139.994C243.792 139.892 243.83 139.794 243.887 139.708C243.945 139.622 244.02 139.55 244.109 139.497C244.198 139.443 244.297 139.41 244.4 139.4C244.492 139.386 244.586 139.39 244.676 139.413C244.767 139.436 244.852 139.476 244.926 139.532C245.001 139.588 245.063 139.658 245.11 139.738C245.157 139.819 245.188 139.908 245.2 140ZM226 139.8C226.07 139.987 226.067 140.192 225.993 140.377C225.92 140.562 225.779 140.713 225.6 140.8C225.508 140.83 225.411 140.841 225.315 140.832C225.218 140.823 225.125 140.794 225.04 140.747C224.956 140.7 224.882 140.636 224.823 140.559C224.765 140.482 224.723 140.394 224.7 140.3C224.63 140.113 224.633 139.908 224.707 139.723C224.78 139.538 224.921 139.387 225.1 139.3C225.197 139.252 225.304 139.227 225.412 139.227C225.521 139.227 225.628 139.252 225.725 139.301C225.822 139.349 225.906 139.42 225.971 139.506C226.036 139.593 226.08 139.693 226.1 139.8H226ZM230.1 138.4C230.17 138.587 230.167 138.792 230.093 138.977C230.02 139.162 229.879 139.313 229.7 139.4C229.608 139.43 229.511 139.441 229.415 139.432C229.318 139.423 229.225 139.394 229.14 139.347C229.056 139.3 228.982 139.236 228.923 139.159C228.865 139.082 228.823 138.994 228.8 138.9C228.73 138.713 228.733 138.508 228.807 138.323C228.88 138.138 229.021 137.987 229.2 137.9C229.297 137.852 229.404 137.827 229.512 137.827C229.621 137.827 229.728 137.852 229.825 137.901C229.922 137.949 230.006 138.02 230.071 138.106C230.136 138.193 230.18 138.293 230.2 138.4H230.1ZM228.7 140.9C228.773 141.127 228.763 141.372 228.672 141.592C228.58 141.812 228.413 141.992 228.2 142.1C228.089 142.149 227.969 142.174 227.847 142.175C227.726 142.176 227.605 142.153 227.493 142.106C227.381 142.059 227.28 141.991 227.195 141.904C227.11 141.817 227.044 141.713 227 141.6C226.933 141.361 226.958 141.106 227.069 140.884C227.18 140.663 227.369 140.49 227.6 140.4C227.813 140.332 228.043 140.346 228.246 140.438C228.45 140.53 228.611 140.695 228.7 140.9ZM231.7 142.9C231.77 143.087 231.767 143.292 231.693 143.477C231.62 143.662 231.479 143.813 231.3 143.9C231.203 143.948 231.096 143.973 230.988 143.973C230.879 143.973 230.772 143.948 230.675 143.899C230.578 143.851 230.494 143.78 230.429 143.694C230.364 143.607 230.32 143.507 230.3 143.4C230.236 143.201 230.253 142.985 230.346 142.798C230.44 142.611 230.603 142.468 230.8 142.4C230.892 142.37 230.989 142.359 231.085 142.368C231.182 142.377 231.275 142.406 231.36 142.453C231.444 142.5 231.518 142.564 231.577 142.641C231.635 142.718 231.677 142.806 231.7 142.9ZM227.6 143.9C227.67 144.087 227.667 144.292 227.593 144.477C227.52 144.662 227.379 144.813 227.2 144.9C227.11 144.949 227.01 144.978 226.907 144.984C226.804 144.99 226.702 144.973 226.606 144.935C226.511 144.897 226.425 144.838 226.355 144.763C226.284 144.688 226.232 144.598 226.2 144.5C226.136 144.301 226.153 144.085 226.246 143.898C226.34 143.711 226.503 143.568 226.7 143.5C226.872 143.435 227.064 143.44 227.232 143.515C227.401 143.59 227.533 143.728 227.6 143.9ZM283.8 137.7C283.732 137.897 283.589 138.06 283.402 138.154C283.215 138.247 282.999 138.264 282.8 138.2C282.603 138.132 282.44 137.989 282.346 137.802C282.253 137.615 282.236 137.399 282.3 137.2C282.368 137.003 282.511 136.84 282.698 136.746C282.885 136.653 283.101 136.636 283.3 136.7C283.497 136.768 283.66 136.911 283.754 137.098C283.847 137.285 283.864 137.501 283.8 137.7ZM288.2 139.1C288.152 139.295 288.033 139.464 287.867 139.575C287.7 139.686 287.498 139.731 287.3 139.7C287.193 139.677 287.092 139.632 287.004 139.568C286.915 139.505 286.84 139.424 286.784 139.33C286.727 139.236 286.691 139.132 286.677 139.024C286.662 138.915 286.67 138.805 286.7 138.7C286.768 138.503 286.911 138.34 287.098 138.246C287.285 138.153 287.501 138.136 287.7 138.2C287.897 138.268 288.06 138.411 288.154 138.598C288.247 138.785 288.264 139.001 288.2 139.2V139.1ZM285.5 140.4C285.431 140.629 285.282 140.826 285.08 140.954C284.878 141.082 284.637 141.134 284.4 141.1C284.267 141.076 284.141 141.026 284.028 140.952C283.916 140.878 283.819 140.782 283.744 140.67C283.67 140.558 283.618 140.432 283.594 140.3C283.569 140.168 283.571 140.032 283.6 139.9C283.67 139.651 283.835 139.438 284.059 139.308C284.282 139.177 284.548 139.138 284.8 139.2C285.3 139.3 285.6 139.9 285.5 140.4ZM287 144.1C286.977 144.207 286.932 144.308 286.868 144.397C286.805 144.485 286.723 144.56 286.63 144.616C286.536 144.673 286.432 144.709 286.324 144.723C286.215 144.738 286.105 144.73 286 144.7C285.803 144.632 285.64 144.489 285.546 144.302C285.453 144.115 285.436 143.899 285.5 143.7C285.567 143.524 285.694 143.377 285.859 143.286C286.024 143.195 286.215 143.164 286.4 143.2C286.507 143.223 286.608 143.268 286.697 143.332C286.785 143.395 286.86 143.477 286.916 143.57C286.973 143.664 287.009 143.768 287.023 143.876C287.038 143.985 287.03 144.095 287 144.2V144.1ZM282.7 142.4C282.633 142.576 282.506 142.723 282.341 142.814C282.176 142.905 281.985 142.936 281.8 142.9C281.603 142.832 281.44 142.689 281.346 142.502C281.253 142.315 281.236 142.099 281.3 141.9C281.367 141.724 281.494 141.577 281.659 141.486C281.824 141.395 282.015 141.364 282.2 141.4C282.397 141.468 282.56 141.611 282.654 141.798C282.747 141.985 282.764 142.201 282.7 142.4Z" fill="#F5D8BC"/>
<path d="M292.5 94.9C292.5 94.9 290.5 96.9 288 96.9C286.325 96.9345 284.692 96.3667 283.4 95.3C282.6 94.7 283.6 93.1 283.6 93.1" stroke="black" stroke-width="1.2"/>
<path d="M249.4 99C249.4 99 245.7 98.3 244.1 97.7C242.6 97.2 243 96.1 241.1 96.2C239.4 96.4 237.6 97.7 238 99.6C238.4 101.6 239.7 101.8 241 101.4C242.2 101 241.8 98.7 240.2 98.8C238.5 99 239.9 100.5 239.9 100.5M223.8 96C223.8 96 224.8 97.6 227.5 97.3C230.2 97.1 231.2 95.5 231.3 94.9C231.4 94.2 231.3 92.9 230.8 92.4C230.3 91.9 228.5 91.6 228.5 91.6" stroke="black" stroke-width="1.1"/>
<path d="M275.7 288.427C278.26 285.867 282.1 282.966 284.34 276.651C286.42 270.678 287.54 259.926 289.46 254.465C291.86 245.078 296.82 236.032 291.06 236.544C285.3 237.227 283.38 243.03 281.3 247.296C280.34 249.003 278.1 252.416 277.62 254.123C277.62 251.051 276.02 241.494 275.7 231.936C275.38 223.062 275.7 213.846 275.38 210.432C275.06 205.824 275.06 201.558 274.1 198.144C273.62 196.438 271.54 195.072 270.42 195.072C268.02 195.072 266.74 197.291 266.42 199.339L266.1 202.24L265.94 211.115V220.672L265.14 232.96C265.14 230.742 264.18 220.502 263.86 210.774C263.728 207.191 263.621 203.607 263.54 200.022L263.38 192.171C262.9 188.416 261.78 186.88 259.38 186.88C257.78 186.88 255.22 188.075 254.58 192.171C254.157 194.762 253.996 197.394 254.1 200.022L254.26 208.555C254.1 219.648 253.94 231.595 253.46 235.008C253.46 233.814 252.34 228.011 252.18 220.16C252.032 216.746 251.872 213.333 251.7 209.92L251.38 199.68C251.38 197.974 250.74 193.024 247.7 193.366C246.1 193.195 244.34 194.39 243.7 198.998C243.22 201.558 243.22 205.995 243.22 209.408C243.22 216.064 242.9 221.696 243.22 227.499V235.691C243.22 236.203 242.42 232.619 241.94 227.84L241.14 218.624C241.14 216.235 241.14 212.651 240.82 209.579C240.82 207.36 240.82 204.8 238.42 204.971C236.02 205.142 234.58 205.995 234.1 210.432C233.78 213.163 233.62 219.307 233.62 221.526C233.565 229.072 232.976 236.602 231.86 244.054C231.7 246.784 230.58 250.198 230.26 253.953C229.563 261.302 229.887 268.72 231.22 275.969C233.14 283.478 238.26 286.891 237.94 292.011V310.102C237.94 314.198 241.14 314.369 248.02 312.833C259.22 310.273 265.3 315.393 274.42 311.638C273.3 300.374 275.54 293.718 275.54 289.622L275.7 288.427ZM269.3 262.145C271.54 255.318 274.42 252.587 277.3 251.222L269.3 262.145Z" fill="#CC0000"/>
<path d="M269.3 262.145C271.54 255.318 274.42 252.587 277.3 251.222M275.7 288.427C278.26 285.867 282.1 282.966 284.34 276.651C286.42 270.678 287.54 259.926 289.46 254.465C291.86 245.078 296.82 236.032 291.06 236.544C285.3 237.227 283.38 243.03 281.3 247.296C280.34 249.003 278.1 252.416 277.62 254.123C277.62 251.051 276.02 241.494 275.7 231.936C275.38 223.062 275.7 213.846 275.38 210.432C275.06 205.824 275.06 201.558 274.1 198.144C273.62 196.438 271.54 195.072 270.42 195.072C268.02 195.072 266.74 197.291 266.42 199.339L266.1 202.24L265.94 211.115V220.672L265.14 232.96C265.14 230.742 264.18 220.502 263.86 210.774C263.728 207.191 263.621 203.607 263.54 200.022L263.38 192.171C262.9 188.416 261.78 186.88 259.38 186.88C257.78 186.88 255.22 188.075 254.58 192.171C254.157 194.762 253.996 197.394 254.1 200.022L254.26 208.555C254.1 219.648 253.94 231.595 253.46 235.008C253.46 233.814 252.34 228.011 252.18 220.16C252.032 216.746 251.872 213.333 251.7 209.92L251.38 199.68C251.38 197.974 250.74 193.024 247.7 193.366C246.1 193.195 244.34 194.39 243.7 198.998C243.22 201.558 243.22 205.995 243.22 209.408C243.22 216.064 242.9 221.696 243.22 227.499V235.691C243.22 236.203 242.42 232.619 241.94 227.84L241.14 218.624C241.14 216.235 241.14 212.651 240.82 209.579C240.82 207.36 240.82 204.8 238.42 204.971C236.02 205.142 234.58 205.995 234.1 210.432C233.78 213.163 233.62 219.307 233.62 221.526C233.565 229.072 232.976 236.602 231.86 244.054C231.7 246.784 230.58 250.198 230.26 253.953C229.563 261.302 229.887 268.72 231.22 275.969C233.14 283.478 238.26 286.891 237.94 292.011V310.102C237.94 314.198 241.14 314.369 248.02 312.833C259.22 310.273 265.3 315.393 274.42 311.638C273.3 300.374 275.54 293.718 275.54 289.622L275.7 288.427Z" stroke="#161111" stroke-width="1.65247"/>
<path d="M243.86 255.147C247.38 253.611 250.9 252.587 254.42 251.222C258.9 250.027 263.06 248.15 267.38 247.467C269.62 246.955 271.7 246.443 273.78 246.272M237.78 291.158C238.26 290.817 238.74 291.499 239.22 291.499C239.86 291.67 240.5 292.011 241.14 291.841C242.527 291.812 243.914 291.812 245.3 291.841C246.9 291.841 248.18 291.841 249.46 290.817M259.54 291.329C260.02 291.841 260.5 292.182 261.14 292.353C261.94 292.694 262.74 292.865 268.5 292.353C271.86 292.523 274.9 289.451 275.86 288.427" stroke="#161111" stroke-width="1.65247"/>
</g>
<defs>
<clipPath id="clip0_103_5560">
<rect width="512" height="512" fill="white" transform="translate(0.5)"/>
</clipPath>
</defs>
</svg>
