<svg width="513" height="512" viewBox="0 0 513 512" fill="none" xmlns="http://www.w3.org/2000/svg">
<g clip-path="url(#clip0_103_5681)">
<path d="M0.5 256H512.5V512H0.5V256Z" fill="#00AB39"/>
<path d="M0.5 0H512.5V256H0.5V0Z" fill="white"/>
<path d="M340 113.2C306.555 131.188 274.939 152.388 245.6 176.5C231.3 189.1 235.3 199.1 234.8 210.3C235.2 217.9 233.1 224.9 228.5 229.1L196.5 235.6L193.5 226.8C194.5 222.3 198.2 220 206.1 222.8C206.7 217.1 202.1 214.8 196.6 212.7C194.6 211.2 192.4 210.1 192.6 205.1C191.7 193.7 210 205.9 210.1 205.9C210.3 205.9 209.5 194.4 201.1 192.1C196.6 190.5 194.7 185.7 196.4 182.1C200 174.8 206.9 182.7 212.2 183C212 178.2 210.6 174.8 206.5 171C204.3 169.6 198.9 168.6 198.8 166.3C198.7 163.3 203.8 161.9 211 162.8C209.5 158.4 204.7 155.6 198.1 153.6L194.2 146.8C192.4 143.4 191.5 143.3 195.8 136.8L208.6 128.3L204.4 127.8C204.9 123.2 205 121.6 206.1 113.9C201.9 119.5 196.8 118.5 192.1 120.9C192.1 120.9 178.9 123.2 174.7 128.9L141.4 127.1C134.4 128.1 128.4 130.1 127.1 137C111.1 138.6 94.1 137.2 81.8 152.6C90.2 152.2 97.5 150.2 106.9 151.4C106.9 151.4 114.9 151.6 116.6 160.1C116.8 160.4 119.3 160.4 119.3 160.4L122.3 162.8L123.6 159.5L126.3 161.5L127.1 157.9L129.8 159.7L130 155.5L133.6 158V152.4C133.6 152.4 146.7 152.4 150.7 160.8C150.9 160.9 113.9 167.6 78.1 164.5L88.4 159.4C75.4 156.7 63.1 154.4 51.6 145.3C56 161.7 78.4 180.9 83 180.8L78.6 172.8L117.5 174.5C118.9 178.8 118.3 183.6 121.7 187.4C121.7 187.4 119.6 194.5 124.3 197.4C124.5 197.8 130 183 130 183C130 183 131.7 187 133.4 189.6C135.9 176.9 149.7 174.8 149.7 174.8L152.7 181.6C148.3 182.3 142.9 191.1 145.8 195.9C142.9 195.9 137.8 204.5 139.4 209.1C136.9 211.5 130.9 214.8 132.4 224.9C127.6 225.9 124.8 234.7 126.3 243.9C118.9 250.8 120.7 263.4 127.3 268.5C124.6 271 122.9 272.8 122.9 275.8C120.3 274.8 117.9 275.7 116.8 277.4C113.6 274.1 109 271.2 105.8 274.3C104.9 270.4 99.8 266.2 94.4 266.7C94.7 262.6 92.6 257.6 86.7 255.8C86.7 255.8 85.6 236.7 79.7 230.5C79.2 227 80.1 224.7 84.9 221.9C89.6 219.3 90.7 217.3 90.3 210.1C92.2 205.3 93.6 200.4 87.8 197.1C87.9 202.8 86.2 205.6 83.8 208.1C81.1 207.7 80.1 210.9 78.3 212.4C75.6 208.8 83.8 203.4 77.7 195.5C77.4 195.2 73.5 185.3 64 185.5C66.024 186.69 67.6877 188.407 68.8146 190.467C69.9414 192.527 70.4893 194.854 70.4 197.2C66.884 205.005 66.3503 213.828 68.9 222C64.9 216 62.7 204.8 59.4 202.8C56.5 202.3 55.1 195.5 44 197.4C48.8 198.7 50.3 202.4 51.6 205.7C48.6 207.3 50.1 211.3 52.3 214C51.9 220.6 55.8 224.4 61.6 226.8L58.7 253.4C56.4 253.1 52.8 262.2 51.4 262.4C49.2 263.8 45.2 267.6 49.7 268.7C48.4 273.6 47.1 276.5 39.9 277.5C39.9 277.5 47.6 282.1 53.9 274.3C60.7 274.1 58.5 266 61.8 262.4C61.8 262.3 63.6 261.1 66.4 253.9C67.6 260.3 74.1 279.9 88.9 289.6C101.9 303.4 112.5 316.5 112.4 334.9C117.4 330.2 120.4 322.8 122.7 315.7C129.7 313.3 139.7 312.4 148.7 312.7C147.2 316 145.5 319.1 147.7 321.2C141.4 323.3 140.1 327.8 142.6 332.4C136 336.8 135.6 339.7 135.5 347.1C123.3 362.7 115.8 362.2 103.7 358.1C99.7 355.8 93.7 352.5 90.8 354.3C85.6 350.8 78.1 350.3 76.8 358.2C80.8 354.9 83.1 355.6 86.2 358.7C85.6 360.3 85.1 361.8 87.4 362.7L84.4 366.1C78.8 365.3 71.2 365.3 69.3 373.4C72.1 371.1 78.5 370.4 83.7 372.8L86.6 373.8L86.9 377.7C86.9 377.7 79.3 376.5 77.2 388.9C84.4 381.3 89.5 383.3 89.5 383.3C92.2 387.3 102.4 386.7 109.7 380.1C119.9 374.3 122.9 382.6 129.5 377.1C135 373.1 141.5 375.8 146 380.6C151.1 382.5 156.5 384.1 160.8 380.6C160.8 380.6 165.9 377.3 171.1 382.6C171.1 376.6 166.9 373.4 161.1 373.3L159.4 371.6C154 370.4 147.9 370.9 143.1 368.2C144.966 359.676 149.074 351.805 155 345.4C162.8 337 168.6 333.2 178.6 320.2C178.2 327.5 183.8 335.6 186.7 343.1C186.7 343.1 192.7 333.6 193.5 325.9C193.7 325.9 200.9 322.1 204 318.9C210.6 322.9 221.2 315.7 228.1 309.6C232.086 311.161 236.514 311.161 240.5 309.6C236.5 317.6 242.8 325.1 252.8 328.3C253.7 335.4 260.8 336.9 271.8 336.9C272.2 341.1 278.8 341.7 278.8 341.7C274.6 343.7 272.5 345.5 272.6 349.9C268.4 349.9 265.2 350.9 264.1 355.8C258.368 355.514 252.658 356.684 247.5 359.2C241.54 358.482 235.949 355.931 231.5 351.9C229.4 350.1 228.8 347.5 225.1 346.5C222.7 343.6 219.9 344.3 219 347C216.5 345 207.3 344.1 205.7 352.9C210 349.7 213.9 348.5 216.7 352.4C215.1 355.1 220.2 356.6 224.6 357.7C227.6 357.9 233.2 360.7 234.9 365.5C232.538 366.148 230.065 366.277 227.649 365.88C225.232 365.483 222.93 364.569 220.9 363.2C219.377 361.926 217.482 361.18 215.5 361.072C213.517 360.963 211.553 361.5 209.9 362.6C206.1 360.2 197.4 364.6 197.1 371.7C200.7 368.3 204.1 366.7 207.4 368.9C205.8 369.3 206.4 369.4 206.6 370.4L215.1 375.3C210.9 376.4 207 378.1 208.8 385.8C208.8 385.8 212.2 379.1 219.8 381.6C220 381.4 220.8 384 223 382.3C226.3 378.5 234 376.8 240.5 376.2C245.9 375.5 251.2 374 255.8 377C259.9 374.9 264.5 373.4 269.2 376.8C274.8 378.6 278.8 385 285.9 382.1C289.4 379.7 293.7 379.5 298.1 384.5C298.1 378.3 293.5 376.2 286.9 374.8L282.3 372.1C278.1 371.4 273.8 372.2 269.5 370.2C279.609 367.785 289.134 363.374 297.514 357.226C305.894 351.078 312.961 343.318 318.3 334.4L328.8 338.1C331.3 338.3 331.5 339.1 336.6 340.7C336.8 333.1 333.6 325.3 320 324.6L302.1 317.8C298.4 313.8 296.6 305.3 301.5 300.3C306.2 296.1 307 296.6 310.1 291.5C313.9 291.1 317.5 295 321 295C322.7 300 332.2 304.3 338.3 302.8C342.1 306.2 349.3 308.1 357.3 305.4C361.8 309.4 367.7 311 374.6 307.9C376.5 309.7 380.3 311.2 384.8 310.3C385.2 310.3 387.1 315.2 392 316.9C389.8 318.9 391.1 327.9 393.3 331.2C391.8 334.6 391.3 338.2 392.6 341.9C387.7 345 386.7 347.4 388.9 352.7C382.5 363.1 374.8 364.2 367.5 361L359.7 356.1L351.4 348C350 346.6 347.1 346.2 346.4 349.2C346.4 349.2 335.8 346.8 334.9 355.8C339.3 351.5 345.6 355.3 345.6 355.4C345.6 355.6 344.1 356.6 345.3 358.4C345.5 358.1 353.1 361.2 359.8 364C356.858 362.68 353.713 361.868 350.5 361.6C346.7 361.2 342.7 360.7 340.9 363.6C336.8 365.3 330.4 366.7 330.7 374.3C333.4 369.8 337.2 370 342 370.3C342 370.7 341.8 371.1 341.7 371.4C346.9 373.8 346 370.7 350.8 370.3C354.9 369.9 360.8 371.4 363.8 372.4C359.9 373.5 354.7 373.1 352.2 375.8C351.8 376.8 350.2 376.3 350.9 378.5C350.9 378.5 343.4 378.3 341.4 388.7C349 383.8 354.8 384 354.9 384L357.3 384.5C357.3 384.5 366.5 378.3 366.7 378.3C366.8 378.3 375.5 374.5 379.6 378.9C383 380.6 386.8 380.7 390.4 378.5C397.6 375.5 404.2 375.2 410.8 379.5L416.8 383.1L419.3 381.4C419.3 381.4 426 379.5 430.9 385.4C428.9 375.1 421.5 374.8 421.5 374.8L419.8 373.3L409.3 369.2C407.7 365.4 403.9 362.4 407.7 357.8C411.7 338.3 416.3 323.8 408.7 304C415.8 307 421.1 316.5 430 313.2C430 305.2 400.8 290.2 378.5 278.2C415 276.2 458.9 249.3 442 215.1L450 190.3C453.934 197.612 460.408 203.232 468.2 206.1C462.6 195.3 459.3 162.5 462.6 139.9C447.665 157.809 431.563 174.713 414.4 190.5C422.8 192.5 430.3 191.1 438.4 190.1L431.6 204.4C409.1 191.2 382.8 201.1 382.6 218.6C383.4 239.1 408.6 242 423.2 234.9C420.3 253.5 377.5 246.6 377.5 246.6C362.3 241.4 347.8 242.3 331.9 242.4C335.2 232.2 353.6 223.1 367.7 227.1C348 205.1 370.5 177.7 397.5 169.2C368 159.5 393.5 137 415.5 120.9C415.5 120.9 352 147.6 346.2 147.5C328.2 146.2 333.1 124.8 339.9 113.3L340 113.2ZM140.5 139C142 139 143.7 139.2 145.1 139.5C148 140.2 151.5 140.6 151.4 141.5C150.1 143.7 146.8 146.4 143.6 146.2C140.4 146.1 138.6 144.2 137.5 139.3C137.8 139.1 139 139 140.5 139ZM408 214.4C412.1 214.4 417.1 216.1 422 221.3C419.6 228 399.3 231.5 398 221.5C397.6 218.5 401.9 214.5 408 214.5V214.4Z" fill="#D21034" stroke="black" stroke-width="1.2"/>
<path d="M161.5 197.9L164.5 202.4M164.5 202.5C164.5 202.5 164.5 208.5 165.7 208.7M162.9 211.9L166.1 217.2M157.3 218.6L161.3 223M164.5 219.6C164.5 219.8 168.1 226.5 168.4 226.5M159.8 224.2C159.8 224.2 161.1 232.4 162.2 232.1M154.5 239.1L158.1 244.6M161.2 233.4C161.2 233.4 163.2 241.1 164.7 240.4M166.3 228.7C166.4 228.9 169.9 233.9 170.9 233.2M170.1 235.2L173.4 241.9M164.4 240.4C164.6 240.6 167.2 248.4 167.2 248.4M158 244.4C158 244.4 160.5 253 162.8 251.6M157 255.8C157 255.8 157.2 260.3 159.4 260.5M160.9 253.5C160.9 253.7 163.2 256.8 163.2 256.8M167.3 248.2L169.2 251.2M173.2 242.8L176.1 246.3M160.3 202.6C160.4 206.4 166.4 201.2 168.8 198M157.8 215.7C157.8 215.7 164.3 211.1 169.4 204.1M155.5 226.8C160.1 225.5 168.6 215.2 170.3 209.8M154.6 237C155.9 237.6 171.8 226.1 172.2 217.7M154.2 245.8C154.2 245.7 168.7 242.1 174.8 226.1M153.4 258C153.4 258 176.6 244.1 177.9 233.9M334.5 281.3C334.5 281.3 333 293.3 321 295.1M338.3 302.7C338.5 302.6 349.8 290.1 346.9 286.3M364.7 290.7C364.7 290.7 364.5 299.4 357.4 305.4M378.8 293.2C378.8 293.2 379.1 303.7 374.6 307.9M391.8 299.5C391.8 299.5 386.8 309.3 385 310.3M391.6 316.9C391.6 316.9 398.2 318.6 400.3 314.2M393.3 331.2C393.3 331.2 399.5 332.3 402.3 326.4M392.7 342.2C392.7 342.2 397.7 346.4 401 340.9M321.7 261.3C321.7 261.3 321.1 282.6 351.1 286.9C384.6 296.2 400.4 291.3 402.4 328.8C401.1 343.1 399.4 359.2 389 353.1M289.9 280.9C289.9 280.9 294.6 289.4 300.4 288.9C307.9 286.6 310.7 291.3 310.7 291.3M269.4 289.4C269.4 289.4 282 295.6 292.8 285.6M270.8 280.6C271.9 295.3 253.8 303.7 246.7 302.3M271.7 337C271.8 337 281.5 331.2 279.5 327.1M252.5 328.4C252.7 328.1 268.7 326.6 271.6 320.8M245 304.8C245 304.7 267.7 304.9 269.2 309.1M275.2 291.4C275.2 291.4 253 329.2 293.9 329.2M251.7 290.8C251.7 290.8 247 305 240.2 309.8M228.2 285.9C228.2 285.9 236.4 301.9 228.2 309.7M206.8 290.4C206.9 290.7 209.4 313 203.8 319.3M196.1 291.1C196.1 291.1 197 305.3 192.8 310.3C188.6 315.3 193.8 325.8 193.8 325.8M142.7 332.6C142.7 332.6 145.7 337.9 149.9 336.1M147.8 321.1C147.8 321.1 154.5 324.1 156.8 322.9M155.1 297.3C155.1 297.3 145.1 300.1 148.9 311.8C154.6 316.5 160.3 315.8 160.3 315.8M135.5 347.3C135.3 347.3 136.5 356.5 143 349.5C147.5 340.1 161.7 313.7 164.9 304.5M171.5 300.2C171.5 300.2 164.6 294.9 164.9 302.3C164.7 306.9 166.9 308.1 166.9 308.1C167.3 311.4 170.2 316.1 172.6 311.8C173.6 307.7 171.9 305.8 171.9 305.8M175.9 298.3C169.6 297.8 166.3 311.4 178.2 302.9M182.2 293.6C182.2 293.6 180.7 295.7 178.3 293.5C177.1 291.3 172.6 303.5 180.4 304C181.8 300.4 186.2 299.4 186.2 299.4M189.8 287.8C189.8 287.8 186.3 289.4 185.1 289.2C180.9 290.2 181.7 299.9 187.1 299.4C188.8 297.3 190.8 294.4 190.8 294.4M156.8 274.9C156.6 274.9 142.8 296.6 164.5 302.3M331.5 242.3C331.5 242.3 323.1 249.5 330.9 261C304.9 260.6 290.9 272.6 289.7 280.7C256.5 278.4 262.5 288.2 251.7 291.4C237.3 279.4 216.1 286.1 217.5 298.1C207.9 284.5 193 291.1 191.2 294.5C189.4 297.8 190.1 277.8 190.1 277.8C190.1 277.8 180.4 282.1 173.7 290.1V273.3C165.7 274.9 157.8 275 149.5 274.9M127.6 268.7C127.6 268.7 139.6 275.4 154.6 266.3M126.6 244.4C126.6 244.4 136 252.9 153.6 250.2M132.5 225C132.5 225 134.6 231.9 154.8 232.3M139.3 209.1C139.3 209.1 146.9 218.4 157.2 217.1M145.8 195.8C145.8 195.8 148.8 200.9 160 201.8M152.4 181.1C152.4 181.1 158.3 187.6 165 186.5M187.4 128.8C187.4 128.8 190 126.2 194.4 127.5M185.5 142.5C185.5 142.5 177.5 142.2 178 139C178.6 135.4 186.5 132.8 186.5 132.8C186.5 132.8 197.1 126 198.7 123.7M150.9 160.7L161.2 180.4L166.2 173L168.7 178.1L172.9 170.7L180.2 175.4L177.4 166.4L183.5 166C183.5 166 181.9 161.6 176.4 160.7C178.529 159.178 180.696 157.711 182.9 156.3C182.9 156.3 180 152.9 175.5 152.8C177 151.2 179 147.3 178.9 147.3L174.4 146.3C174.4 146.3 184.7 149.6 192.6 145M172.9 129C173.1 129.2 172.4 133.1 170.2 135.4M133.2 139.9C133.2 139.9 139.6 138.2 144.4 139.1C149.1 140.1 155.4 141.8 155.4 141.8C155.4 141.8 163 140.8 165.4 139M117.5 144.1C117.5 144.1 116.6 147.1 116.3 149.1C116.3 150.6 111.7 152.5 111.7 152.5M120.5 138C120.5 138 124.5 143 124.7 146C124.8 148.9 121.7 151 121.7 151M78.7 172.6L74.5 165.8L78.2 164.5M154.5 266.5C151.1 262.1 157 195.5 169.5 178C165.1 209.4 179.5 241.5 183.2 241.4M116.6 159.4C116.6 159.4 122.2 161.6 134 152.3M150 174.8L158.4 174.9M411.8 122.5C411.8 122.5 271.1 188.3 269.1 191.7C292.8 184.6 393.5 167.7 396 169.2C390 170.7 267.8 198.7 262.1 205.5C292.6 204.5 356.5 215.3 366.5 225.7C344.8 220.8 279.9 211.2 260.1 215.5C274.6 219 330.3 255 330.3 260.8C321.9 252.8 254.9 225.1 252.3 227.8C267.6 237 289.3 271.2 289.3 279.6C284.8 272.4 246.1 230.8 243.9 233.6C247.9 239.2 256.1 288.3 251.9 290.6C251.9 284.6 236.9 241.7 235.7 240.5C232.7 241.3 213.5 292.9 217.3 297.7C214.8 280.5 217.7 244.6 222.3 246C214 247.2 187.2 282.5 190.1 288C190.9 279.3 192.1 273.4 207.2 244.2C190.4 245.2 155.6 267.1 149.7 274.9C154.4 260.9 183.9 237.4 196.7 235.8M257.5 184.5C272.4 176.3 318.3 159.5 349 147.1M228.5 228.9C228.5 228.9 238.5 228.8 248.7 201.3C258.7 163.6 337.9 121.7 339.5 113.8M94.5 266.8C94.5 266.8 92.1 271.8 89.2 273.2M105.8 274.4C105.8 274.4 102.6 280.4 101.9 283.4M116.6 277.4C116.6 277.4 119.3 285.7 117.1 289.6M86.5 255.7C78.5 260.2 91 288.6 128.8 291.3M122.8 276C122.8 276 121.7 281 128.8 291.2C126.8 302.5 137.4 311.3 141.6 312.8M119.6 174.2L120.8 171.2L122.1 174.5H124.1L125.5 171.1L126.7 174.5H128.7L130 170.7L132 174.3H133.6L134.9 170L137.5 173.1L138.5 172.7L139.3 168.4L141.9 171.4L142.7 171L143.9 166.8L146.1 169.9L147.1 169.6L148.1 166L150.2 169.3M117.3 174.6L133.1 174.3C138.1 174.3 146.4 167.3 155.7 169.5M84 208.4C84 208.4 86.6 214 90.3 210.8M78 212.1C78 212.1 72.9 225.8 79 228.9M70.7 197.1C70.7 197.1 70.7 200.3 77.4 195.3M50 268.6C50 268.6 55.4 270.2 54.5 274.3M52 206C52 206 55.4 207.7 58.6 202.7M87.4 362.7C92.6 362.4 93.7 364.7 98.4 364.7C103.9 364.9 109.2 362.7 116.2 360.8M160.9 373.4C160.8 373.4 158.4 378.4 160.5 380.8M86.6 373.8C86.6 373.8 94.9 367.1 99.2 371.3C103.4 372.7 105.7 372.4 105.7 372.4M91 354.4C91 354.4 93 359.7 86.2 359M84.2 366.5C84.2 366.5 88.5 369.2 83.6 372.8M86.8 377.8C86.8 377.8 92.8 378.6 89.3 383.4M272.8 349.7C278.8 354.6 276.3 357.5 295.2 344.7M264.2 355.7C264.2 355.7 273.1 365.3 279.5 353.7M247.2 359.2L235.2 365.5M213.5 374.4C213.5 374.4 220.8 368.1 224.2 371.4C227.7 374.8 242.2 368.6 242.2 368.6M219 347C219 347 221.5 352 216.6 352.6M209.4 362.6C209.4 362.6 212 367.3 207 368.6M215 375.4C215 375.4 222.7 375.8 220 381.5M286.1 374.4C286.1 374.4 281.9 377.9 285.1 381.9M346.6 349.1C346.6 349.1 351.4 351.4 345.6 355.4M340.9 363.7C340.9 363.7 344.5 367.5 342.1 370.7M351 378.3C351 378.3 356 379.7 355.4 383.8M421 374.6C421 374.6 416.8 377.6 419 381.6M346.9 253C356.9 251.8 371.2 274 378.5 278.4M422.3 221.5C422.3 221.5 427.3 225.9 422.9 236.6M431.7 204.5C433.1 205.6 438.6 208.5 442.2 215.2M445.6 171.2L438.6 190.2M453.5 170.2C453.5 170.2 452.1 187.2 450.1 190.6M278.5 341.7C278.5 341.7 294.6 343.4 295.4 344.6C297.2 342.6 311.6 331 293.9 329.3C293.078 332.785 291.117 335.897 288.328 338.142C285.539 340.388 282.08 341.64 278.5 341.7ZM422.1 221.3C419.8 228.1 399.4 231.5 398.1 221.5C397.4 216.5 410.1 208.5 422.1 221.3Z" stroke="black" stroke-width="1.2" stroke-linejoin="round"/>
<path d="M140.3 139L148.2 140.4C148.2 140.4 142.7 147.8 140.3 139Z" fill="black" stroke="black" stroke-width="1.2" stroke-linejoin="round"/>
</g>
<defs>
<clipPath id="clip0_103_5681">
<rect width="512" height="512" fill="white" transform="translate(0.5)"/>
</clipPath>
</defs>
</svg>
