<svg width="513" height="512" viewBox="0 0 513 512" fill="none" xmlns="http://www.w3.org/2000/svg">
<g clip-path="url(#clip0_103_5690)">
<path d="M0.5 0H512.5V512H0.5V0Z" fill="#CE1126"/>
<path d="M72.2 71.7H440.8V440.3H72.2V71.7Z" fill="#007A5E"/>
<path d="M72.2 71.7H440.8L72.2 440.4H440.8L72.2 71.7Z" fill="#FCD116"/>
<path d="M256.4 317.5C290.31 317.5 317.8 290.01 317.8 256.1C317.8 222.19 290.31 194.7 256.4 194.7C222.49 194.7 195 222.19 195 256.1C195 290.01 222.49 317.5 256.4 317.5Z" fill="#CE1126"/>
<path d="M256.5 199.68L239.096 253.243L265.878 261.945" fill="#FCD116"/>
<path d="M256.5 199.68L273.904 253.243L247.122 261.945" fill="#FCD116"/>
<path d="M310.063 238.596H253.743V266.756" fill="#FCD116"/>
<path d="M310.063 238.596L264.5 271.7L247.948 248.918" fill="#FCD116"/>
<path d="M289.604 301.564L272.2 248L245.418 256.702" fill="#FCD116"/>
<path d="M289.604 301.564L244.04 268.46L260.592 245.678" fill="#FCD116"/>
<path d="M223.396 301.564L268.96 268.46L252.408 245.678" fill="#FCD116"/>
<path d="M223.396 301.564L240.8 248L267.582 256.702" fill="#FCD116"/>
<path d="M202.936 238.596L248.5 271.7L265.052 248.918" fill="#FCD116"/>
<path d="M202.936 238.596H259.256V266.756" fill="#FCD116"/>
<path d="M140.1 2.52002L129.816 34.1712L145.641 39.3132" fill="#FCD116"/>
<path d="M140.1 2.52002L150.384 34.1712L134.558 39.3132" fill="#FCD116"/>
<path d="M171.751 25.5159H138.471V42.1559" fill="#FCD116"/>
<path d="M171.751 25.5159L144.827 45.0774L135.046 31.6154" fill="#FCD116"/>
<path d="M159.661 62.7241L149.377 31.073L133.552 36.215" fill="#FCD116"/>
<path d="M159.661 62.7241L132.737 43.1626L142.518 29.7006" fill="#FCD116"/>
<path d="M120.539 62.7241L147.463 43.1626L137.682 29.7005" fill="#FCD116"/>
<path d="M120.539 62.7241L130.823 31.0729L146.648 36.2149" fill="#FCD116"/>
<path d="M108.449 25.5159L135.373 45.0774L145.154 31.6154" fill="#FCD116"/>
<path d="M108.449 25.5159H141.729V42.1559" fill="#FCD116"/>
<path d="M256.5 2.62L246.216 34.2712L262.041 39.4132" fill="#FCD116"/>
<path d="M256.5 2.62L266.784 34.2712L250.959 39.4132" fill="#FCD116"/>
<path d="M288.151 25.6159H254.871V42.2559" fill="#FCD116"/>
<path d="M288.151 25.6159L261.227 45.1774L251.446 31.7154" fill="#FCD116"/>
<path d="M276.062 62.8241L265.777 31.1729L249.952 36.315" fill="#FCD116"/>
<path d="M276.062 62.8241L249.137 43.2626L258.918 29.8006" fill="#FCD116"/>
<path d="M236.939 62.824L263.863 43.2625L254.082 29.8005" fill="#FCD116"/>
<path d="M236.939 62.824L247.223 31.1729L263.048 36.3149" fill="#FCD116"/>
<path d="M224.849 25.6159L251.773 45.1774L261.554 31.7154" fill="#FCD116"/>
<path d="M224.849 25.6159H258.129V42.2559" fill="#FCD116"/>
<path d="M372.9 2.62L362.616 34.2712L378.441 39.4132" fill="#FCD116"/>
<path d="M372.9 2.62L383.184 34.2712L367.358 39.4132" fill="#FCD116"/>
<path d="M404.551 25.6159H371.271V42.2559" fill="#FCD116"/>
<path d="M404.551 25.6159L377.627 45.1774L367.846 31.7154" fill="#FCD116"/>
<path d="M392.461 62.8241L382.177 31.1729L366.352 36.315" fill="#FCD116"/>
<path d="M392.461 62.8241L365.537 43.2626L375.318 29.8006" fill="#FCD116"/>
<path d="M353.339 62.824L380.263 43.2625L370.482 29.8005" fill="#FCD116"/>
<path d="M353.339 62.824L363.623 31.1729L379.448 36.3149" fill="#FCD116"/>
<path d="M341.249 25.6159L368.173 45.1774L377.954 31.7154" fill="#FCD116"/>
<path d="M341.249 25.6159H374.529V42.2559" fill="#FCD116"/>
<path d="M100.3 256.8C108 271.1 122.9 286.6 136 292.1C136.2 277.6 131 258.9 124 244.1L100.3 256.8Z" fill="#CE1126"/>
<path d="M87.3 207.6C98.4 230.9 58.3 286.3 125.1 299.3C116.133 286.214 112.062 270.388 113.6 254.6C128.373 261.509 140.512 273.017 148.2 287.4C165.7 224 103.4 227.9 87.2 207.6H87.3Z" fill="#FCD116"/>
<path d="M140.1 444.62L129.816 476.271L145.641 481.413" fill="#FCD116"/>
<path d="M140.1 444.62L150.384 476.271L134.558 481.413" fill="#FCD116"/>
<path d="M171.751 467.616H138.471V484.256" fill="#FCD116"/>
<path d="M171.751 467.616L144.827 487.177L135.046 473.715" fill="#FCD116"/>
<path d="M159.661 504.824L149.377 473.173L133.552 478.315" fill="#FCD116"/>
<path d="M159.661 504.824L132.737 485.263L142.518 471.801" fill="#FCD116"/>
<path d="M120.539 504.824L147.463 485.263L137.682 471.801" fill="#FCD116"/>
<path d="M120.539 504.824L130.823 473.173L146.648 478.315" fill="#FCD116"/>
<path d="M108.449 467.616L135.373 487.177L145.154 473.715" fill="#FCD116"/>
<path d="M108.449 467.616H141.729V484.256" fill="#FCD116"/>
<path d="M256.5 444.72L246.216 476.371L262.041 481.513" fill="#FCD116"/>
<path d="M256.5 444.72L266.784 476.371L250.959 481.513" fill="#FCD116"/>
<path d="M288.151 467.716H254.871V484.356" fill="#FCD116"/>
<path d="M288.151 467.716L261.227 487.277L251.446 473.815" fill="#FCD116"/>
<path d="M276.062 504.924L265.777 473.273L249.952 478.415" fill="#FCD116"/>
<path d="M276.062 504.924L249.137 485.363L258.918 471.901" fill="#FCD116"/>
<path d="M236.939 504.924L263.863 485.363L254.082 471.901" fill="#FCD116"/>
<path d="M236.939 504.924L247.223 473.273L263.048 478.415" fill="#FCD116"/>
<path d="M224.849 467.716L251.773 487.277L261.554 473.815" fill="#FCD116"/>
<path d="M224.849 467.716H258.129V484.356" fill="#FCD116"/>
<path d="M372.9 444.82L362.616 476.471L378.441 481.613" fill="#FCD116"/>
<path d="M372.9 444.82L383.184 476.471L367.358 481.613" fill="#FCD116"/>
<path d="M404.551 467.816H371.271V484.456" fill="#FCD116"/>
<path d="M404.551 467.816L377.627 487.377L367.846 473.915" fill="#FCD116"/>
<path d="M392.461 505.024L382.177 473.373L366.352 478.515" fill="#FCD116"/>
<path d="M392.461 505.024L365.537 485.463L375.318 472.001" fill="#FCD116"/>
<path d="M353.339 505.024L380.263 485.463L370.482 472.001" fill="#FCD116"/>
<path d="M353.339 505.024L363.623 473.373L379.448 478.515" fill="#FCD116"/>
<path d="M341.249 467.816L368.173 487.377L377.954 473.915" fill="#FCD116"/>
<path d="M341.249 467.816H374.529V484.456" fill="#FCD116"/>
</g>
<defs>
<clipPath id="clip0_103_5690">
<rect width="512" height="512" fill="white" transform="translate(0.5)"/>
</clipPath>
</defs>
</svg>
