<svg width="513" height="512" viewBox="0 0 513 512" fill="none" xmlns="http://www.w3.org/2000/svg">
<g clip-path="url(#clip0_103_5809)">
<path d="M0.5 0H512.5V512H0.5V0Z" fill="white"/>
<path d="M205.5 0H307.5V512H205.5V0Z" fill="#FF0000"/>
<path d="M0.5 205H512.5V307H0.5V205Z" fill="#FF0000"/>
<path fill-rule="evenodd" clip-rule="evenodd" d="M114.6 397.9C115.7 379.9 118.9 364.5 118.9 364.5C118.9 364.5 108.3 365.5 103 365.5C97.7 365.5 87.1 364.5 87.1 364.5C87.1 364.5 90.3 379.8 91.4 397.9C73.4 396.8 58 393.6 58 393.6C58 393.6 59 401.6 59 409.5C59 417.4 58 425.4 58 425.4C58 425.4 73.3 422.2 91.4 421.1C90.3 439.1 87.1 454.5 87.1 454.5C87.1 454.5 95.1 453.5 103 453.5C111 453.5 118.9 454.5 118.9 454.5C118.9 454.5 115.7 439.2 114.6 421.1C132.6 422.2 148 425.4 148 425.4C148 425.4 147 414.8 147 409.5C147 404.2 148 393.6 148 393.6C148 393.6 132.7 396.8 114.6 397.9ZM421.6 90.9C422.7 72.9 425.9 57.5 425.9 57.5C425.9 57.5 415.3 58.5 410 58.5C404.7 58.5 394.1 57.5 394.1 57.5C394.1 57.5 397.3 72.9 398.4 90.9C380.4 89.8 365 86.6 365 86.6C365 86.6 366 94.6 366 102.5C366 110.5 365 118.4 365 118.4C365 118.4 380.3 115.2 398.4 114.1C397.3 132.1 394.1 147.5 394.1 147.5C394.1 147.5 402.1 146.5 410 146.5C417.9 146.5 425.9 147.5 425.9 147.5C425.9 147.5 422.7 132.2 421.6 114.1C439.6 115.2 455 118.4 455 118.4C455 118.4 454 107.8 454 102.5C454 97.3 455 86.6 455 86.6C455 86.6 439.6 89.8 421.6 90.9ZM114.6 90.9C115.7 72.9 118.9 57.5 118.9 57.5C118.9 57.5 108.3 58.5 103 58.5C97.7 58.5 87.1 57.5 87.1 57.5C87.1 57.5 90.3 72.9 91.4 90.9C73.4 89.8 58 86.6 58 86.6C58 86.6 59 94.6 59 102.5C59 110.5 58 118.4 58 118.4C58 118.4 73.3 115.2 91.4 114.1C90.3 132.1 87.1 147.5 87.1 147.5C87.1 147.5 95.1 146.5 103 146.5C111 146.5 118.9 147.5 118.9 147.5C118.9 147.5 115.7 132.2 114.6 114.1C132.6 115.2 148 118.4 148 118.4C148 118.4 147 107.8 147 102.5C147 97.3 148 86.6 148 86.6C148 86.6 132.7 89.8 114.6 90.9ZM421.6 397.9C422.7 379.9 425.9 364.5 425.9 364.5C425.9 364.5 415.3 365.5 410 365.5C404.7 365.5 394.1 364.5 394.1 364.5C394.1 364.5 397.3 379.8 398.4 397.9C380.4 396.8 365 393.6 365 393.6C365 393.6 366 401.6 366 409.5C366 417.4 365 425.4 365 425.4C365 425.4 380.3 422.2 398.4 421.1C397.3 439.1 394.1 454.5 394.1 454.5C394.1 454.5 402.1 453.5 410 453.5C417.9 453.5 425.9 454.5 425.9 454.5C425.9 454.5 422.7 439.2 421.6 421.1C439.6 422.2 455 425.4 455 425.4C455 425.4 454 414.8 454 409.5C454 404.2 455 393.6 455 393.6C455 393.6 439.6 396.8 421.6 397.9Z" fill="#FF0000"/>
</g>
<defs>
<clipPath id="clip0_103_5809">
<rect width="512" height="512" fill="white" transform="translate(0.5)"/>
</clipPath>
</defs>
</svg>
