<svg width="513" height="512" viewBox="0 0 513 512" fill="none" xmlns="http://www.w3.org/2000/svg">
<g clip-path="url(#clip0_103_5831)">
<path d="M0.5 0H512.5V512H0.5V0Z" fill="#DA000C"/>
<path d="M0.5 0H512.5V343H0.5V0Z" fill="white"/>
<path d="M137.7 232.6H265.7V320.6H137.7V232.6Z" fill="black"/>
<path d="M204.1 307.8H126.1L108.7 319.2V331.2H204.1M171.5 257.2C182.7 257.2 191.9 266.6 191.9 278.2V307.6H206.5V195.6H125.9V307.6H151.1V278.2C151.1 267 160.1 257.2 171.5 257.2Z" fill="#DA000C"/>
<path d="M204.1 307.8H126.1L108.7 319.2V331.2H204.1M171.5 257.2C182.7 257.2 191.9 266.6 191.9 278.2V307.6H206.5V195.6H125.9V307.6H151.1V278.2C151.1 267 160.1 257.2 171.5 257.2Z" stroke="black" stroke-width="2" stroke-linecap="square"/>
<path d="M153.5 120H190.7V188H153.5V120Z" fill="black"/>
<path d="M190.5 177.4H158.1V165.8H134.3V177.4H118.3V165.8H108.5V186.6H190.5M118.1 186.6H188.1V195.6H118.1V186.6ZM146.1 95.2V166H158.1V146.6C158.1 139.4 163.1 133.4 170.3 133H171.1C172.886 133 174.654 133.352 176.305 134.035C177.955 134.719 179.454 135.72 180.717 136.983C181.98 138.246 182.981 139.746 183.665 141.396C184.348 143.046 184.7 144.814 184.7 146.6V166H196.1V95.2H146.1ZM141.5 85.6V95.2H200.1V85.6H141.5ZM134.1 67.4V85.6H204.1V67.4H193.5V76.8H180.3V67.4H160.3V76.8H147.3V67.4H134.1ZM108.5 319.2H204.5H108.5ZM266.5 313.6H201.7L182.1 323V337H266.5" fill="#DA000C"/>
<path d="M190.5 177.4H158.1V165.8H134.3V177.4H118.3V165.8H108.5V186.6H190.5M108.5 319.2H204.5M266.5 313.6H201.7L182.1 323V337H266.5M118.1 186.6H188.1V195.6H118.1V186.6ZM146.1 95.2V166H158.1V146.6C158.1 139.4 163.1 133.4 170.3 133H171.1C172.886 133 174.654 133.352 176.305 134.035C177.955 134.719 179.454 135.72 180.717 136.983C181.98 138.246 182.981 139.746 183.665 141.396C184.348 143.046 184.7 144.814 184.7 146.6V166H196.1V95.2H146.1ZM141.5 85.6V95.2H200.1V85.6H141.5ZM134.1 67.4V85.6H204.1V67.4H193.5V76.8H180.3V67.4H160.3V76.8H147.3V67.4H134.1Z" stroke="black" stroke-width="2" stroke-linecap="square"/>
<path d="M182.1 323H268.5H182.1Z" fill="#DA000C"/>
<path d="M182.1 323H268.5" stroke="black" stroke-width="2"/>
<path d="M375.3 232.6H247.3V320.6H375.3V232.6Z" fill="black"/>
<path d="M308.9 307.8H386.9L404.3 319.2V331.2H308.9M341.5 257.2C330.3 257.2 321.1 266.6 321.1 278.2V307.6H306.5V195.6H387.1V307.6H361.9V278.2C361.9 267 352.9 257.2 341.5 257.2Z" fill="#DA000C"/>
<path d="M308.9 307.8H386.9L404.3 319.2V331.2H308.9M341.5 257.2C330.3 257.2 321.1 266.6 321.1 278.2V307.6H306.5V195.6H387.1V307.6H361.9V278.2C361.9 267 352.9 257.2 341.5 257.2Z" stroke="black" stroke-width="2" stroke-linecap="square"/>
<path d="M359.5 120H322.3V188H359.5V120Z" fill="black"/>
<path d="M322.5 177.4H354.9V165.8H378.7V177.4H394.7V165.8H404.5V186.6H322.5M394.9 186.6H324.9V195.6H394.9V186.6ZM366.9 95.2V166H354.9V146.6C354.9 139.4 349.9 133.4 342.7 133H341.9C340.114 133 338.346 133.352 336.695 134.035C335.045 134.719 333.546 135.72 332.283 136.983C331.02 138.246 330.019 139.746 329.335 141.396C328.652 143.046 328.3 144.814 328.3 146.6V166H316.9V95.2H366.9ZM371.5 85.6V95.2H312.9V85.6H371.5ZM378.9 67.4V85.6H308.9V67.4H319.5V76.8H332.7V67.4H352.7V76.8H365.7V67.4H378.9ZM404.5 319.2H308.5H404.5ZM246.5 313.6H311.3L330.9 323V337H246.5" fill="#DA000C"/>
<path d="M322.5 177.4H354.9V165.8H378.7V177.4H394.7V165.8H404.5V186.6H322.5M404.5 319.2H308.5M246.5 313.6H311.3L330.9 323V337H246.5M394.9 186.6H324.9V195.6H394.9V186.6ZM366.9 95.2V166H354.9V146.6C354.9 139.4 349.9 133.4 342.7 133H341.9C340.114 133 338.346 133.352 336.695 134.035C335.045 134.719 333.546 135.72 332.283 136.983C331.02 138.246 330.019 139.746 329.335 141.396C328.652 143.046 328.3 144.814 328.3 146.6V166H316.9V95.2H366.9ZM371.5 85.6V95.2H312.9V85.6H371.5ZM378.9 67.4V85.6H308.9V67.4H319.5V76.8H332.7V67.4H352.7V76.8H365.7V67.4H378.9Z" stroke="black" stroke-width="2" stroke-linecap="square"/>
<path d="M330.9 323H244.5H330.9Z" fill="#DA000C"/>
<path d="M330.9 323H244.5" stroke="black" stroke-width="2"/>
<path d="M291.1 300C285.7 302 281.1 304.8 276.1 307.6C269.878 311.154 263.928 315.165 258.3 319.6C256.3 321 254.3 322.4 252.9 324.4C250.9 326 248.9 328.4 249.3 331.4C249.3 332.6 250.9 329.8 252.1 329.6C253.999 328.584 256.205 328.299 258.3 328.8C260.9 326 264.3 324.2 267.1 322C275.252 316.1 283.96 311.01 293.1 306.8L291.1 300Z" fill="#F8D80E" stroke="black" stroke-width="1.6" stroke-linecap="round"/>
<path d="M265.3 314.8V322.6V314.8ZM270.1 311.4V319.2V311.4ZM274.9 308.4V316V308.4ZM279.9 305.4V313.4V305.4Z" fill="#F8D80E"/>
<path d="M265.3 314.8V322.6M270.1 311.4V319.2M274.9 308.4V316M279.9 305.4V313.4" stroke="black" stroke-width="2" stroke-linecap="round"/>
<path d="M222.3 300.4L219.9 307C230.953 311.239 241.541 316.601 251.5 323C254.9 325.4 258.5 327.6 261.1 330.8C261.7 332.4 260.1 333.8 258.5 333.2C257.1 332.8 255.5 332.2 254.1 333.2C251.9 334.2 249.9 337.6 253.1 338.6C257.9 341.8 265.3 340.4 267.5 335C268.7 332.2 268.9 328.6 266.5 326.2C262.5 321.6 256.9 318.2 251.7 314.8C242.362 309.109 232.521 304.289 222.3 300.4Z" fill="#F8D80E" stroke="black" stroke-width="1.6" stroke-linecap="round"/>
<path d="M252.5 316L251.9 322.8L252.5 316ZM258.1 319.4L256.5 326L258.1 319.4ZM264.1 324L260.5 329.2L264.1 324ZM265.9 336.4L260.7 333.6L265.9 336.4ZM267.5 330.8L261.5 331.4L267.5 330.8ZM259.9 339.4L259.5 334.2L259.9 339.4ZM257.5 333.6L252.7 337.2L257.5 333.6ZM233.9 305.8V312V305.8ZM246.5 312.6V319.6V312.6ZM240.1 309.2V315.8V309.2Z" fill="#F8D80E"/>
<path d="M252.5 316L251.9 322.8M258.1 319.4L256.5 326M264.1 324L260.5 329.2M265.9 336.4L260.7 333.6M267.5 330.8L261.5 331.4M259.9 339.4L259.5 334.2M257.5 333.6L252.7 337.2M233.9 305.8V312M246.5 312.6V319.6M240.1 309.2V315.8" stroke="black" stroke-width="2" stroke-linecap="round"/>
<path d="M216.1 455.2V471.2H226.1V463.2H239.9V471.2H250.7V455.2H216.1ZM216.1 477.2V493.2H250.5V477.2H239.7V485.2H225.9V477.2H216.1Z" fill="#F8D80E" stroke="black" stroke-width="2"/>
<path d="M250.5 387.4H260.5V503.4H250.5V387.4Z" fill="#F8D80E" stroke="black" stroke-width="2"/>
<path d="M250.5 397.4H260.5V497.4H250.5V397.4ZM255.7 358.8L276.9 371.2L255.7 383.6L234.3 371.2L255.7 358.8ZM227.1 366.8H221.7V375.6H227.1L255.7 392.2L284.1 375.6H289.7V366.8H284.1L255.7 350.2L227.1 366.8Z" fill="#F8D80E" stroke="black" stroke-width="2"/>
<path d="M255.1 328.6C252.772 329.073 250.689 330.359 249.224 332.228C247.758 334.097 247.005 336.427 247.1 338.8V361.2C247.284 363.579 248.312 365.814 249.999 367.501C251.686 369.188 253.921 370.216 256.3 370.4C258.279 370.548 260.256 370.092 261.971 369.092C263.685 368.092 265.055 366.596 265.9 364.8L262.5 362.8C262.028 363.971 261.187 364.957 260.104 365.607C259.021 366.256 257.756 366.535 256.5 366.4C253.3 366.4 250.7 363.2 251.1 360.2V337.8C251.251 336.333 251.956 334.978 253.071 334.012C254.185 333.046 255.626 332.541 257.1 332.6C258.3 332.2 260.1 334 260.9 332.6C262.1 330.8 260.1 329.6 258.9 328.6H255.1ZM266.7 336.4C265.723 337.769 264.416 338.87 262.9 339.6V354.6L266.9 356.8V336.4H266.7Z" fill="#F8D80E" stroke="black" stroke-width="2"/>
<path d="M226.1 76.8H284.7V183.2H226.1V76.8Z" fill="black"/>
<path d="M222.1 76.8V165.8H240.7V139.4C240.7 133.4 244.7 124.8 256.5 124.8C268.3 124.8 272.5 133.4 272.5 139.4V166H290.9V76.8H222.1ZM253.7 86.8H259.3V117.2H253.7V86.8ZM237.1 92.8H243.1V115H237.1V92.8ZM270.1 92.8H275.9V115H269.9L270.1 92.8ZM215.7 64V76.6H297.3V64H215.7ZM208.1 49.2V64H305.1V49.2H292.9V57.2H278.9V49.2H263.3V57.2H249.7V49.2H233.9V57.2H220.5V49.2H208.1ZM190.1 195.6V204.8H323.1V195.6H190.1Z" fill="#DA000C" stroke="black" stroke-width="2"/>
<path d="M184.5 165.8V195.8H328.5V165.8H314.9V177.4H296.5V165.8H272.1V177.4H240.5V165.8H216.1V177.4H198.1V165.8H184.5Z" fill="#DA000C" stroke="black" stroke-width="2"/>
<path d="M201.9 204.8V313.6H227.5V272.8C227.5 253.8 240.3 244.8 256.5 244.8C272.1 244.8 285.5 253.8 285.5 272.8V313.6H311.1V204.8H201.9Z" fill="#DA000C" stroke="black" stroke-width="2" stroke-linejoin="round"/>
</g>
<defs>
<clipPath id="clip0_103_5831">
<rect width="512" height="512" fill="white" transform="translate(0.5)"/>
</clipPath>
</defs>
</svg>
