<svg width="513" height="512" viewBox="0 0 513 512" fill="none" xmlns="http://www.w3.org/2000/svg">
<g clip-path="url(#clip0_103_5862)">
<path d="M0.5 0H512.5V512H0.5V0Z" fill="white"/>
<path d="M0.5 256H512.5V512H0.5V256ZM53.8 256C53.8 278.417 58.2153 300.614 66.7938 321.324C75.3722 342.034 87.9459 360.852 103.797 376.703C119.648 392.554 138.466 405.128 159.176 413.706C179.886 422.285 202.083 426.7 224.5 426.7C246.917 426.7 269.114 422.285 289.824 413.706C310.534 405.128 329.352 392.554 345.203 376.703C361.054 360.852 373.628 342.034 382.206 321.324C390.785 300.614 395.2 278.417 395.2 256C395.2 210.728 377.216 167.309 345.203 135.297C313.191 103.284 269.772 85.3 224.5 85.3C179.228 85.3 135.809 103.284 103.797 135.297C71.7844 167.309 53.8 210.728 53.8 256Z" fill="#D00C33"/>
</g>
<defs>
<clipPath id="clip0_103_5862">
<rect width="512" height="512" fill="white" transform="translate(0.5)"/>
</clipPath>
</defs>
</svg>
