<svg width="513" height="512" viewBox="0 0 513 512" fill="none" xmlns="http://www.w3.org/2000/svg">
<g clip-path="url(#clip0_103_5881)">
<path d="M0.5 0H512.5V512H0.5V0Z" fill="#E32118"/>
<path d="M0.5 0H512.5V341.3H0.5V0Z" fill="white"/>
<path d="M0.5 0H512.5V170.7H0.5V0Z" fill="#3E9A00"/>
<path d="M0.5 0V512L160.5 256L0.5 0Z" fill="#0073CE"/>
<path d="M215.5 204.5H297.2V290.1C297.2 318.9 259.7 296.7 256.5 312.1C250.9 296.3 215.7 319.1 215.7 288.4L215.5 204.5Z" fill="white" stroke="black"/>
<path d="M262.2 298.4C262.2 298.4 261.2 299.5 259.2 298.7C257.3 297.8 257.1 243.8 257.1 243.8C261.4 239.1 264.8 237.7 264.8 237.7L267.3 239.7C257.7 244.7 258.6 251.7 259.4 263.9C259.7 268.4 259.7 274.1 260.7 279.7C262.2 286.7 265.2 292.7 265.4 297.2C265.6 300 262.2 298.5 262.2 298.5V298.4Z" fill="#73452B" stroke="black" stroke-width="0.2"/>
<path d="M255.6 236.4H259.5C256.2 267.4 259 285.7 259 294.6C259 297.6 260.7 298.6 260.5 298.6C256.7 302.9 254.7 298.4 254.7 298.4L255.6 236.4Z" fill="#73452B" stroke="black" stroke-width="0.2"/>
<path d="M249.6 298.4C246 300.2 245.6 296.8 245.8 296.4C253.7 280.4 257.1 245.1 249.8 241.3L250.3 237.9C253 238.7 255.6 242.3 255.6 242.3C256.6 281.8 255.6 298 255 298.7C251.1 302.7 249.6 298 249.4 297.6" fill="#A36629"/>
<path d="M249.6 298.4C246 300.2 245.6 296.8 245.8 296.4C253.7 280.4 257.1 245.1 249.8 241.3L250.3 237.9C253 238.7 255.6 242.3 255.6 242.3C256.6 281.8 255.6 298 255 298.7C251.1 302.7 249.6 298 249.4 297.6" stroke="black" stroke-width="0.2"/>
<path d="M249.5 297.8C248.8 294.4 255 285.6 254.5 276.5M259.9 284C261.8 289.3 262.7 294 262.2 298.5" stroke="black" stroke-width="0.2"/>
<path d="M268.2 221.9C269.5 220.4 269.5 220.4 271.8 220.4C272.2 217.2 277.6 217.2 278 221.2C282.3 220.4 283.1 222.9 281.4 225.5C285.4 224.5 289.1 225.5 288 230.2C295.3 232.2 292.5 237.2 289.3 238.2C288.9 241.5 285.9 242.6 281.8 241.2C276.8 244.9 273.8 243.6 271.4 240C265.6 240.8 265.2 239.6 262.7 236.4C258.2 238.3 257.3 238.3 253.5 235.9C253.3 238.9 252.2 238.1 250.3 237.9C250.5 241.7 249 243.4 245.6 242.1C248.1 247.5 241.6 249.8 238.3 245.3C235.3 245.5 235.1 244.7 233.6 243.6C232.4 247.9 227.6 247.3 226.8 244.9C220.8 244 221.5 240.9 226.4 240.6C226.8 237.2 229.8 237.9 231.7 238.3C231.9 236.2 233.2 236.6 234.3 237C233.6 235.5 234.1 234.7 236 234.2C233.2 230.6 235 229.3 237.7 228C236.2 224.6 238.7 224.8 240.7 224.6C240.5 221 241.5 220.4 245.4 219.9C244.9 218.7 245.6 217.6 247.7 217.6C246.4 214 248.1 213.1 252 213.8C252.6 208.5 264 211 263 218.2C266.3 218.7 267.3 219.3 268.2 221.9Z" fill="#009A3B" stroke="black" stroke-width="0.2"/>
<path d="M245.4 220C246.2 220.4 247.3 220 247.5 222.3C249.2 219.3 251.3 221 251.3 224.4M263.1 218.2C262.2 219.5 259.1 219.5 259.4 222.9C258.4 221.4 256.3 221 255.4 222.5M268.2 221.9C268.2 222.7 268 225.3 267.2 226.6M281.4 225.5C281.6 225.7 278.4 225.5 276.9 226.5M289.3 238.3C288.5 237.9 286.7 236.8 285.5 238.5C285.5 237.6 285.5 235.3 283.1 235.3M281.9 241.3C281.9 239.1 281.4 238.5 280.9 237.9M274.9 238.3C273.1 237 271.4 238.9 271.4 240M262.4 236.4C262.4 235.5 261.8 233.8 263.3 233.2M238.1 245.3C238.5 243.2 240.1 243.2 239.8 242.1M239.8 242.1C239.6 240.4 237.7 238.9 235.3 241.3M239.8 242.1C241.1 241.7 242.4 241.9 242.8 242.6M236.2 234.2C237.1 233.4 239.2 233.6 240.5 234.2M240.5 229.2C241.5 229.2 243.5 228.7 244.1 230.6C246.4 227 248.1 227.4 248.6 228.3M252.8 227.8C254.5 227.2 257.5 228.9 259.2 231.8C260.1 229.6 261.4 230 262.7 229.8M270.7 231.8C273.5 230.6 275.2 233.2 276.1 234.2C277.4 232.5 278.4 232.5 279.7 232.5M244.9 237C245.6 236 247.1 235.7 248.1 236.4C247.9 234.4 249.2 233.6 250.1 234" stroke="black" stroke-width="0.2"/>
<path d="M253.7 192.6L249 192.8L246.7 197L244.1 193L239.4 193.2L241.5 188.9L239 184.9L243.9 184.7L246 180.5L248.6 184.5L253.3 184.3L251.1 188.5L253.7 192.6ZM233.7 194.1L228.9 195.3L227.7 199.8L224.3 196.4L219.8 197.5L221 193L217.9 189.5L222.3 188.4L223.6 183.8L227 187.2L231.7 186.2L230.2 190.7L233.7 194.1ZM214.2 198.1L210 200.2L209.7 205L205.7 202.4L201.4 204.4L201.8 199.7L197.8 197.1L202.1 194.9L202.5 190.2L206.3 192.8L210.6 190.8L210.4 195.5L214.2 198.1ZM259.9 192.6L264.6 192.8L266.7 197L269.3 193L274 193.2L271.8 188.9L274.4 184.9L269.7 184.7L267.3 180.5L264.8 184.5L260.1 184.3L262.2 188.5L259.9 192.6ZM279.9 194.1L284.4 195.3L285.7 199.8L289.1 196.4L293.6 197.5L292.3 193L295.7 189.5L291 188.4L289.7 183.8L286.3 187.2L281.9 186.2L283.1 190.7L279.9 194.1ZM299.1 198.1L303.4 200.2L303.6 205L307.6 202.4L311.9 204.4L311.7 199.7L315.5 197.1L311.3 194.9L311.1 190.2L307.1 192.8L302.7 190.8L303.2 195.5L299.1 198.1Z" fill="#FFD700" stroke="black" stroke-width="0.8"/>
<path d="M304.9 288.4L310.2 296.1L315.2 288.8L311.7 282.7L304.9 288.4ZM270.9 310.8L271.4 318.5C271.4 318.5 273.5 318.5 275.4 317.9C277.2 317.2 278.7 315.9 278.7 315.9L278.4 311.9L270.9 310.8ZM242.4 310.8L241.9 318.3C241.9 318.3 240 318.3 238.1 317.9C236.959 317.576 235.879 317.069 234.9 316.4L232.8 311.2L242.4 310.8ZM208 288.4L202.5 296.1L196.5 286.3L201 281.6L208 288.4Z" fill="white" stroke="black" stroke-width="0.8"/>
<path d="M234.7 326.2C234.7 333.4 278.7 333.4 278.7 326.2V316C278.7 321.3 234.7 320.2 234.7 316V326.2Z" fill="white" stroke="black" stroke-width="0.8"/>
<path d="M195.5 302.5C199.3 322.1 234.7 322.5 234.7 322.5V316C233.9 313.4 235.3 312.5 241.1 311.7C243.5 311.5 242.4 308.1 242.4 308.1C242.4 308.1 227 310.8 216.1 306.6C201.4 300.6 199.3 289.1 199.3 289.1C199.3 289.1 198.3 298.1 195.4 302.5H195.5ZM317.7 302.5C314.1 322.1 278.7 322.5 278.7 322.5V316C279.3 313.4 277.7 312.5 272 311.7C269.7 311.5 271 308.1 271 308.1C271 308.1 286.3 310.8 297.2 306.6C311.7 300.6 313.4 289.1 313.4 289.1C313.4 289.1 314.9 298.1 317.7 302.5Z" fill="white" stroke="black" stroke-width="0.8"/>
<path d="M198.2 295C188.4 289.7 196.1 284.2 196.9 268.4C198.4 278 209.3 282 208 288.2C203.5 288.4 201.4 281.6 199.3 289.1L198.3 295.1L198.2 295ZM314.9 295C324.7 289.5 316.6 284.2 315.8 268.4C314.3 278 303.6 282 304.8 288.2C309.2 288.4 311.3 281.6 313.4 289.1L314.9 294.8V295Z" fill="white" stroke="black" stroke-width="0.8"/>
<path d="M204.2 302.3L205.2 303.1L202.9 305.7C201.9 306.7 201.7 307.4 202.4 308C203.2 308.8 203.8 308.5 204.6 307.6L207.2 304.9L208 305.7L205.5 308.7C204.1 310.3 202.8 309.9 201.7 308.9C200.7 308.1 200.2 306.8 201.7 305.2L204.2 302.3ZM208.5 305.9L209.5 306.6L209.3 311.6L211.7 308L212.7 308.7L209.3 314.2L208 313.6L208.2 308.5L205.9 312.1L204.9 311.5L208.5 305.9ZM210.4 314.9L213.4 308.9L214.4 309.5L211.7 315.3L210.4 314.9ZM215.1 309.8L212.7 315.9L215.1 316.8C217.3 317.6 218.3 316.6 219 314.8C219.7 312.8 219.4 311.5 217.2 310.6L215.1 309.8ZM215.9 311.3C218.1 312 218.3 312.9 217.7 314.3C217.1 315.8 216.5 316.3 214.4 315.3L215.9 311.3ZM222.1 312.1L218.3 317.9L219.8 318.3L220.6 316.8L223.2 317.4L223.4 318.9L224.9 319.1L223.4 312.3L222.1 312.1ZM222.5 313.6L223 316.2L221.3 316L222.5 313.6ZM225.8 312.6L225.5 319.3H228C230.4 319.3 231 318.1 231.1 316.1C231.1 314.1 230.4 312.9 228.1 312.8L225.8 312.7V312.6ZM227 313.8C229.4 313.8 229.8 314.6 229.7 316.2C229.7 317.8 229.3 318.5 226.9 318.2L227 313.8ZM248.1 321.9V328.7H249.6V326.2C249.6 326.2 250.9 326.2 252 326C252.8 325.8 253.4 325.2 253.4 323.9C253.4 322.6 252.7 321.9 251.4 321.9H248.1ZM249.6 322.9L251.1 323C252.4 323 252.1 324.9 251.1 324.9H249.6V322.9ZM255.8 321.9L253 328.7H254.5L255.2 327H258L258.6 328.7H260.1L257.3 321.9H255.8ZM256.5 323.4L257.5 326H255.6L256.5 323.4ZM260.1 327.4L263.7 323H260.5V322H265.6V323L261.8 327.5H265.6V328.8H260.1V327.4ZM281.6 314.2L282.9 314L283.5 317.9C283.8 319.2 283.1 320.2 282.2 320.5C281.1 320.9 279.7 320.5 279.5 318.7L280.5 318.5C280.8 319.6 281.3 319.7 281.8 319.5C282.2 319.4 282.4 318.7 282.3 318.1L281.6 314.2ZM283.8 313.9L285 313.6L285.6 316.8C285.9 318.2 286.3 318.8 287.2 318.6C288.2 318.4 288.4 317.8 288.2 316.6L287.4 313.2L288.7 313L289.5 316.5C290 318.5 289 319.5 287.5 319.7C286.2 319.9 284.9 319.6 284.5 317.6L283.8 313.9ZM290.4 316.8L291.4 316.4C292 317.4 292.8 317.3 293.4 317C294.3 316.6 294.4 315.8 294 315.6C293.3 315.2 291.9 315.7 291 315.4C290.1 315.1 289.7 314.5 289.7 313.7C289.8 312.7 290.7 312.2 291.7 311.9C292.7 311.6 293.7 311.7 294.4 312.9L293.2 313.4C292.7 312.7 292.2 312.7 291.7 312.9C291.3 313.1 290.7 313.5 291 314.1C291.3 314.5 292.9 314.2 293.7 314.2C294.6 314.2 295.3 314.9 295.4 315.7C295.5 316.8 295.1 317.4 293.8 318C292.1 318.6 290.7 317.9 290.4 316.8ZM296.1 311.5L294.4 312.3L294 311.3L298.7 309.3L299.1 310.2L297.4 311L299.4 315.7L298.3 316.4L296.1 311.5ZM298.9 309.1L299.9 308.5L302.9 314L301.9 314.7L298.9 309.1ZM306.2 309.5L307.4 309.1C307.547 309.498 307.594 309.926 307.538 310.346C307.482 310.767 307.323 311.167 307.077 311.512C306.83 311.857 306.503 312.137 306.123 312.326C305.744 312.516 305.324 312.61 304.9 312.6C301.7 312.6 301.3 309 301.9 307.8C302.7 305.8 305.1 305.9 306.2 307L305.1 307.8C304.4 307 302.9 307.5 302.8 308.3C302.71 308.919 302.816 309.551 303.103 310.107C303.39 310.662 303.843 311.115 304.4 311.4C305.4 311.9 306.9 310.7 306.2 309.5ZM305.5 305.1L306.5 304.2L310.5 309.3L309.4 310.2L305.5 305.1ZM309.5 301.9L308.5 302.7L310.9 309.1L311.9 308.1L311.3 306.8L313.2 305.1L314.5 305.7L315.5 304.9L309.5 301.9ZM310 303.4L312.1 304.4L310.9 305.7L310 303.4Z" fill="black"/>
</g>
<defs>
<clipPath id="clip0_103_5881">
<rect width="512" height="512" fill="white" transform="translate(0.5)"/>
</clipPath>
</defs>
</svg>
