<svg width="513" height="512" viewBox="0 0 513 512" fill="none" xmlns="http://www.w3.org/2000/svg">
<g clip-path="url(#clip0_103_5915)">
<path d="M0.5 0H512.5V512H0.5V0Z" fill="#000066"/>
<path d="M373.9 348.6C373.9 348.6 371.6 354.6 370.3 354.6C369 354.6 364.3 352.1 364.3 352.1C364.3 352.1 360.8 357.6 359 357.9C357.2 358.3 352.4 357.1 352.4 357.1C352.4 357.1 347.9 357.1 347.7 356.5C347.5 355.8 347.9 354.5 347.9 354.5C347.9 354.5 341.3 359.7 339.9 359.4C338.4 359.1 333.5 352.9 333.5 352.9L332.7 356.1L323.4 355.8L315.2 350.6C315.2 350.6 310.6 358.1 310.4 357.9C310.3 357.8 302.4 359.7 302.4 359.7L301.9 358.3L296.7 355.2C296.7 355.2 300.7 349.4 300.7 349.2L298.8 348.5L295.8 350.9L289.8 354.9L283.8 352.1L286.4 347.1L286.7 343.5L291.5 336.4L349.5 280L378.1 332.8L373.9 348.6Z" fill="#6A4C2D" stroke="black" stroke-width="0.9"/>
<path d="M415.1 352L430.1 351.5L423.8 348.3L481.3 346.1L473.2 343.1L466 333.3L436.2 331C436.2 331 433.9 329.3 430.2 330.2C430.2 327.9 427.3 324.8 427.3 324.8L409 323.5L397.5 331.3L405.2 351.1L415.1 352Z" fill="white" stroke="black" stroke-width="0.9"/>
<path d="M356.3 182.9L357.8 177.7C357.8 177.7 360.5 173.2 360.5 171.2C360.5 169.2 362.5 166.9 362.5 166.9C362.5 166.9 368.5 165.2 369.9 168.9C376.4 159 384.1 168.4 384.1 168.4L386.2 165.9L390.5 160.6C390.5 160.6 396.7 166.4 396.8 167.4C396.8 168.4 397.8 167.7 397.8 167.7L404.5 167.1C404.279 168.437 404.402 169.809 404.857 171.086C405.312 172.363 406.084 173.503 407.1 174.4C409.4 175.8 411.5 184 411.5 184L356.3 182.9Z" fill="url(#paint0_linear_103_5915)" stroke="black" stroke-width="0.9"/>
<path d="M415.1 244.4C416.3 243.7 419.9 242.6 419.4 237.2C419 231.9 414.4 231.3 411.8 231.5C409.962 231.786 408.253 232.623 406.9 233.9L398.4 228.5C398.4 228.5 402.7 201.5 407.2 199.9C411.5 196.8 412.2 195.5 412.2 194.8C412.2 194 410.7 192.3 410.7 192.3L382.9 189L356.6 192C356.6 192 354.6 195.2 354.9 196.4C355.1 197.7 355.2 199 359.9 202.6C365.1 206.6 368.7 229.6 368.7 229.6C368.7 229.6 361.3 233.2 360.9 232.8C360.4 232.4 358.2 231.9 357.1 232.1C355.9 232.3 352.1 234.2 352.1 239.3C352.1 244.3 355.9 247.3 355.9 247.3C355.9 247.3 381 244.3 384.8 251.3C388.4 242.9 412.3 245.8 415.1 244.4Z" fill="#656263" stroke="black" stroke-width="0.9"/>
<path d="M442.1 216.5C442.1 216.5 442.4 213.5 444.5 212.2C446.5 210.8 460.5 210.1 463.8 212.2C467.2 214.2 468.4 224.5 468.4 224.5C468.4 224.5 470.4 228.2 470.6 230.8L471 235.2C471 235.2 482.2 249.7 482.3 262.8C483.5 271.6 483.3 295.4 479.8 304.4C479.789 310.918 478.101 317.323 474.9 323C474.9 323 476 325 475.9 327C475.8 329.2 474.7 331.1 474.7 331.1L490.9 339.1L484.9 336.9L490.9 341.9L484.1 338.7L488.1 342.7L478.3 338.3L482.6 342.5L475.2 339L479.5 343.5C479.4 343.2 473.1 340.7 473.1 340.7L473.4 343.1C473.4 343.1 468.4 342.8 468.4 339.1C465.9 337.6 464.2 335.7 464.2 335.7L452.7 333.7L439.7 294.7L442.7 228.7L443.5 225.4L442.1 216.5Z" fill="black" stroke="black" stroke-width="0.9" stroke-linejoin="round"/>
<path d="M433.5 427.4C433.5 427.4 426.7 413.4 423.4 413.1C420.4 407.4 433.9 360.5 459.9 357.8C474.2 359 461.1 374.3 451.7 369.6C452.8 373.7 457.5 379.6 457.5 379.6C457.5 379.6 438.9 387.6 433.5 427.4ZM343.7 429.4C343.7 429.4 349.3 413.4 352.7 413.2C356 413 343.7 359.8 317 359.4C302.6 360.6 315.8 376 325.3 371.3C324.2 375.5 319.4 381.3 319.4 381.3C319.4 381.3 338.2 389.5 343.7 429.4Z" fill="#FFBB00" stroke="black" stroke-width="0.9"/>
<path d="M368.2 329.4C368.2 329.3 361.6 331.4 365.8 338.6C366.2 335.8 369.1 334.1 369.1 334.1C369.1 334.1 364.6 339.5 369.4 344C370 339.7 372.7 338.4 372.7 338.4C372.7 338.4 369.3 348.2 372.7 350.2C373.1 346.3 375.7 344.6 375.7 344.6C375.7 344.6 372.6 353.4 375.3 355.4C375.6 352 377.9 350.6 377.9 350.6C377.9 350.6 376.5 359.6 380 360.3C380.1 357.1 382.7 354 382.7 354C382.7 354 381.5 361.4 387.1 361.8C387.1 358.9 388.1 355.7 388.1 355.7C388.1 355.7 390.7 363.7 394.3 362.3V355.6C394.3 355.6 396.6 363.2 401 361.8C400.4 359.6 401.3 357.1 401.3 357.1C401.3 357.1 403.6 361.8 407.8 360.3C408.5 358.9 407.6 356.1 407.6 356.1C407.6 356.1 413.6 362.4 415.6 358.6C417.4 354.8 410.6 353.6 410.6 353.6H415.2C415.2 353.6 413.8 349.6 407.6 348.8C409.7 347.8 411.9 348.6 411.9 348.6C411.9 348.6 410.6 343.7 404.3 343.2C406.7 342.4 409.4 343 409.4 343C409.4 343 408.6 338.4 401.7 337.1C402.7 335.9 405.7 336.3 405.7 336.3C405.7 336.3 402.9 332 399.7 332.3C396.7 332.5 368.1 329.3 368.2 329.3V329.4Z" fill="#00713D" stroke="black" stroke-width="0.9"/>
<path d="M396.3 352.6C396.3 352.6 398.8 353.8 398.8 354.9M397.8 350.6C397.8 350.6 401 352.9 401 354.6M400.6 349.5C400.6 349.5 403.2 351.1 403.3 353.5M404.9 350.5C404.9 350.5 406.2 353.3 405.8 353.8M407.5 352C407.7 354.2 407.3 354.3 407.3 354.3M375.8 338.1C375.8 338.1 378.8 340.1 378.6 342.8M375.6 340.5C375.6 340.5 377 341.8 376.7 342.7M379.3 338.2C379.3 338.2 381.3 341 380.7 342.9M382.7 340C382.7 340 383.7 341.7 382.8 342.7M384.4 340.8C384.4 340.8 385.4 342.6 384.4 343.2M383.1 346.6C383.1 346.6 386 347.2 386.4 349.3M384.8 344.6C384.8 344.6 387.8 344.8 388.1 348M388.7 343.5C388.8 343.5 390.7 347 390.4 348M392.5 343.9C392.5 343.9 393.3 347.1 392.7 348.2M395 345.1V348.9M391.2 340C391.2 340 393.1 340.7 393 342.5M393 338.3C393 338.3 395.4 339.7 395.1 342.3M395.7 337.2C395.7 337.2 397.8 339.7 397 342.4M399.3 337.8C399.3 337.8 398.6 340.8 398.9 342.1M401.5 339.9C401.5 339.9 400.2 340.9 400.9 342.2M389.8 351.6C389.8 351.6 390.3 354 389.8 354.3M386.9 350.3C386.9 350.3 388.3 352.9 387.9 354.2M383.7 350.2C383.7 350.2 385.4 352.1 385.3 353.6M381.1 350.6C381.1 350.6 382.7 352 382.6 352.9M379.8 352.8C379.8 352.8 381.3 354.3 381.2 354.7" stroke="#3EC26D" stroke-width="0.9" stroke-linecap="round"/>
<path d="M347.8 247.2L369.1 246.8C369.1 246.8 383.1 246.8 384.6 251.4C387.3 245.3 399.5 245.7 399.5 245.7L421.5 244.9L421.9 298.1C419.904 307.443 415.587 316.133 409.348 323.368C403.108 330.603 395.148 336.151 386.2 339.5C377.005 336.38 368.81 330.861 362.463 323.512C356.116 316.163 351.848 307.252 350.1 297.7L347.8 247.2Z" fill="white" stroke="black" stroke-width="0.9"/>
<path d="M355.4 247L386.4 329.6L414.4 245.2C405.7 245.8 387 243.8 384.7 251.8C381.1 244.7 361.5 247.5 355.4 247Z" fill="#006B00" stroke="black" stroke-width="0.9"/>
<path d="M376.5 291.7C377.7 292.3 377.6 269.3 379.2 268.6L380.4 263.8C379.1 261.4 373 261.6 370.8 263.6C371.246 265.052 371.747 266.486 372.3 267.9C375.3 272.8 374.7 292.2 376.5 291.7Z" fill="#FFC900" stroke="#006B00" stroke-width="0.5" stroke-linecap="round"/>
<path d="M368.2 113.7C368.2 113.7 370.4 111.2 370.5 110.6C370.5 110 380.5 109.6 386.3 98.6C389.6 92.9 386.3 96.2 386.3 96.2L386.1 93.5C386.1 93.5 390.1 89.5 388.7 87.5C387.2 85.4 387.7 90.2 385.3 90.1C382.9 90 384.2 84.9 384.2 84.9C384.2 84.9 384 84.3 383.3 84C382.3 84.1 382.6 85.9 381.7 86C380.8 86.3 380 82 380 82C380 82 378.5 80 377.2 86.2C377.9 92.9 382.2 91.6 382.2 95.9C382.2 100.3 378.4 103.7 377.3 103.9C376.3 103.9 376.6 100.1 376.6 100.1C376.6 100.1 376 98.3 375.6 98.3C375.2 98.3 377.8 97.9 377.4 93C376.5 87 375.8 94.4 374.2 94C372.6 93.8 373.8 88.6 374.4 88C375 87.4 373.7 84.9 370.3 91.3C370 94.3 369.6 90.5 368.9 90.7C367.7 93.2 367.9 94.9 369.6 97.2C372.1 99.5 373.6 101.8 373.6 103C373.4 104.2 372.1 106.9 370.4 106.9C368.6 106.9 370.4 103.6 370.4 102.5C370.3 101.5 367.3 97.5 367.3 97.5C367.3 97.5 365.2 94.1 365.3 94C365.6 93.9 365.2 93.4 364.2 96.8C363.2 100.3 362 94.6 362 94.6C362 94.6 360.6 98.8 363.6 101.4C361.3 101.1 361.1 102 361.1 102C361.1 103.2 364.1 103.7 364.6 105.8C365 107.8 361.4 109.1 361.4 109.1C361.4 109.1 362.9 111.1 367.1 107.1C367.132 108.714 366.561 110.283 365.5 111.5C366.9 112.1 368 112 368.2 113.7Z" fill="#CDAD56" stroke="black" stroke-width="0.9" stroke-linejoin="round"/>
<path d="M354.5 113.7L352.5 110.4C352.5 109.8 343.5 111 339.1 100C336.3 94.7 339.1 97.8 339.1 97.8L339.3 95.3C339.3 95.3 336.3 91.6 337.6 89.7C338.9 87.8 338.3 92.2 340 92.2C342 92.2 340.9 87.5 340.9 87.5C340.9 87.5 341.1 86.9 341.7 86.7C342.5 86.7 342.9 89.5 343.7 89.7C344.4 89.9 345.9 86.5 346.4 85.7C347.1 85.7 347.1 83 348.2 88.7C347.6 94.7 342.6 93.6 342.6 97.5C342.6 101.5 345.8 104.6 346.7 104.7C347.7 104.7 347.3 101.3 347.3 101.3C347.3 101.3 347.8 99.7 348.2 99.7C348.5 99.7 345.2 100.3 345.6 95.8C346.3 91.6 348 96.1 349.4 95.8C350.7 95.5 349.2 91.3 349.6 90.7C349.6 90.1 351.6 87.3 352.4 93.4C352.7 96.2 354.2 91 354.8 91.1C355.8 93.4 354.4 96.4 352.9 98.5C350.9 100.6 349.9 102.9 349.9 104C350 105 350.5 106.4 352.1 106.4C353.6 106.4 352.6 104.5 352.7 103.5C352.7 102.5 355.3 99.3 355.3 99.3C355.8 98.5 355.3 97 355.9 96.3C356.7 96.3 357 95.2 357.9 98.3C358.7 101.5 359.8 96.3 359.8 96.3C359.8 96.3 360.9 100.2 358.4 102.5C360.4 102.2 360.5 103.1 360.5 103.1C360.5 104.1 359.5 104.6 359.2 106.5C358.9 108.5 360.2 109.5 360.2 109.5C360.2 109.5 359 111.4 355.4 107.7C355.442 109.146 355.931 110.543 356.8 111.7C355.6 112.2 354.7 112.2 354.5 113.7Z" fill="#CDAD56" stroke="black" stroke-width="0.8" stroke-linejoin="round"/>
<path d="M409.2 259.3C407.3 257.6 407.2 259.1 406.2 258.7C405.8 258.6 405.4 258.1 405 257.7C404.7 257.4 404.3 257.3 403.8 257.1L403.3 258.6C403.2 259.1 403.8 259.9 403.8 260.6C403.7 261.7 403.2 262.6 401.8 263C402.2 262.3 402.4 262.2 402.3 261.3C402.3 260.8 400.9 259.9 401.1 259.5C401.3 258.7 401.7 257.9 401.4 257.2C400.9 257.6 400.1 257.4 399.5 257.6C399.1 257.8 399 258.7 398.4 259.1C397.7 259.4 396.2 259.2 394.9 258.5C395.7 257.9 396.3 258.3 397.1 257.7C397.5 257.4 397.4 256.2 397.8 255.9L399.5 255C399.2 254.6 399.2 254 398.9 253.6C398.5 253.2 396.9 253.3 396.6 252.9C395.9 252.1 396.1 251.1 395.4 250.3C397.2 250.9 396.9 251.8 397.4 251.7C398.2 251.3 399 251.2 399.4 251.4C399.9 251.6 400.8 252.7 401.2 252.9L401.8 251.3C402 250.8 401.1 249.9 401.2 249.4C401.6 248.4 402.4 247.5 402.7 246.5L403.1 249.3C403.2 249.7 404.1 250 404.2 250.5C404.2 251 403.7 252.1 403.8 252.5H405.6C406.1 252.3 406.4 251.1 406.9 251C407.9 250.8 408.7 250.9 409.8 251C409 251.8 408.4 251.7 407.9 252.4C407.5 252.7 408.1 253.7 406.9 254.4C406.5 254.6 405.4 254.3 405 254.6L406 255.8C406.4 256.2 408 256.3 408.3 256.8C409 257.5 409.3 258.5 409.2 259.3ZM361.5 260.1C363.4 258.5 363.6 259.9 364.5 259.5C365 259.4 365.3 258.9 365.7 258.5C366 258.2 366.4 258.1 366.9 257.9L367.4 259.4C367.6 259.9 366.9 260.7 366.9 261.4C367.1 262.6 367.5 263.4 368.9 263.9C368.5 263.1 368.3 263 368.4 262.1C368.4 261.6 369.8 260.7 369.7 260.3C369.4 259.6 369 258.7 369.3 258C369.9 258.4 370.6 258.2 371.2 258.4C371.7 258.6 371.7 259.5 372.4 259.9C373.1 260.2 374.6 260 375.8 259.3C375.1 258.7 374.4 259.1 373.7 258.6C373.3 258.3 373.3 257 372.9 256.7L371.2 255.8C371.6 255.4 371.5 254.8 371.9 254.4C372.2 254 373.8 254.1 374.1 253.7C374.8 252.9 374.7 251.9 375.4 251.1C373.6 251.7 373.8 252.6 373.4 252.5C372.5 252.1 371.7 252 371.2 252.2C370.8 252.4 369.9 253.5 369.5 253.7L368.9 252.1C368.7 251.6 369.7 250.7 369.5 250.2C369.2 249.2 368.3 248.4 368 247.4L367.6 250.1C367.6 250.6 366.6 250.8 366.6 251.3C366.5 251.8 367 252.9 367 253.3H365.2C364.7 253.1 364.3 251.9 363.8 251.8C362.8 251.6 362 251.7 361 251.8C361.7 252.6 362.3 252.6 362.8 253.2C363.2 253.5 362.7 254.5 363.8 255.2C364.2 255.4 365.3 255.1 365.7 255.4L364.7 256.6C364.3 257 362.7 257.2 362.4 257.6C361.7 258.3 361.4 259.3 361.5 260.1Z" fill="#FFC900"/>
<path d="M407.5 264.6C405.8 266 395 268.7 394.9 278.1C394.8 287.5 396.8 289.7 394.8 289.9C390.8 289.9 390.3 279.4 390.4 274.8C390.5 270.1 390.6 270.8 390.6 270.8C390.6 270.8 393.3 271.6 393.1 273.8C392.9 276.1 395.8 268.2 394.8 266.1C396.6 267.9 398.9 267.1 398.9 267.1C398.9 266.9 397.6 265.5 397 264.4C396.5 263.4 399 265 399 265C399 265 399.1 263.2 396.9 263.3C393.9 263.3 397.4 262.3 397.4 262.3C397.4 262.3 399 263.9 400.2 262.3C398.9 260.9 397.2 260.3 397.2 260.3C397.2 260.3 395.6 257.3 393.4 256.7C391 256.1 391.4 257.7 388.5 257.5C388 258.5 388 258.7 389.1 259C387.1 260.3 388.1 263 388.1 263C388.1 263 391.2 261.7 391.1 263.8C391 266 389.3 265.6 388.1 264.3C387.1 263.7 386.8 264.9 386.8 264.9L388.4 266.5C388.4 266.5 385.4 266.5 384.6 268.5C385.478 268.367 386.375 268.471 387.2 268.8C387.2 268.8 383.7 270.4 383.4 271.2C383 272 382.9 270.2 382.8 270.2L379.5 269.1L378.3 274.2C378.3 274.2 380.6 276.4 381.8 275.7C383 275 385.3 272.9 386.6 273.5C382.7 276.5 378.8 280.7 376.6 281.3C376.1 280.9 374.2 278.9 373.4 279.9C372.6 280.9 373.2 282 374.2 281.9C375.2 281.9 371 282.9 371.9 284.7C372.7 286.5 372.6 286.3 373.4 285.9C374.2 285.4 372.7 285.3 375.7 284.4C378.6 283.6 378.5 282.8 378.5 282.8C378.5 282.8 377.9 284.1 376.3 284.4C374.8 284.8 373.5 284.8 373.9 285.3C374.2 285.7 374.9 286.6 374.6 287.1C374.4 287.5 377.9 284.6 378.8 286.9C381.1 286.9 382.7 283.9 381.6 282.3C381.6 284.1 382.8 284.7 382.1 285.5C381.5 286.3 387.4 282.8 384.5 280.6C385.3 282.4 385.4 283.8 385.4 283.8C385.4 283.8 386.7 283.8 387.1 283.2C387.4 282.8 386.4 284.6 386.8 284.9C387.3 285.3 389.4 287.3 388.5 288.7C388 287.9 387.8 286.6 387.2 286.7C386.5 286.8 383.7 288.8 382 289C380.4 289 384 295.2 384 295.2C384 295.2 381.5 294.8 381.1 295C380.8 295.3 379.1 292.9 378.8 294.3C378.2 296.1 379.3 295.4 379.3 295.4C379.3 295.4 377.9 294.7 377.1 295.5C376.3 296.4 375.5 297.2 376.1 297.5C376.7 297.9 379.1 297.9 379.5 297.8C379.8 297.7 376.7 298 376.5 298.4C376.2 298.7 375.8 300.1 376.5 300.5C377.1 301 378.8 300.3 378.9 299.9C379 299.6 379.1 301.2 379.1 301.2C379.1 301.2 382.1 301.5 382.1 298.5C382.1 295.5 382.3 300.6 382.3 300.6C382.3 300.6 385.2 301.1 385.3 298.1C385.3 295.1 385.6 300.1 385.6 300.1C385.6 300.1 387.6 299.6 387.6 299.1C387.6 298.6 387.4 305.1 386.1 306.9C383.9 305.4 382.6 307.8 382.6 307.8C382.6 307.8 382.7 311.3 382.5 312.1C382.3 312.9 383.9 311.6 384 311.3C384.2 310.9 386.2 309.9 386.3 309.7L386.9 308.3C386.9 308.3 386.5 309.9 385.7 310.2C384.9 310.4 384.2 311.2 384.5 312C384.8 312.7 386.1 313.2 386.5 313.9C386.9 314.6 388.5 309.7 388.5 309.7L388.6 310.7C388.6 310.7 390.6 310.3 390.9 309.4C391.1 308.4 388.7 307.6 390.6 306C392.6 304.5 390.6 307.4 390.6 307.4C390.6 307.4 391.3 309.7 391.8 309.7C392.2 309.7 393.3 305.4 392.2 304.3L393.9 305.7C393.9 305.7 395.5 301.2 393.8 300.7L391.3 299.8C391.3 299.8 392.3 298.6 391.8 298.5C391.3 298.4 394.1 301.1 394.6 300.5C395 299.7 395.6 297.5 392.4 296.4C389.2 295.2 392.4 291.8 392.4 291.8C392.4 291.8 394.4 294.2 395.8 292.9C397.2 291.6 395.7 291.6 395.7 291.6C395.7 291.6 399.8 289 399.9 287.6L397.8 287.8C397.8 287.8 400.1 286.2 399.6 283.8C398.6 285 397.5 285 397.5 285C397.5 285 399.5 283 399.1 281.1C397.9 282.1 398.1 282.8 397.2 282.5C396.5 282.3 395.2 274.8 398.2 274.3C401.4 273.8 399.7 278 399.8 278C399.9 278 404.5 276 399.8 273C400.9 272.6 403.3 274.8 403.3 274.8C403.3 274.8 402.3 269.5 397.3 272.8C398.5 271.4 399.3 270.6 400.3 270.8C401.3 271.1 404.8 270.8 404.8 269.7C404 268.9 402.1 270 401 269.7C400 269.3 408.2 268.7 407.5 264.7V264.6Z" fill="#FFC900" stroke="#006B00" stroke-width="0.5" stroke-linecap="round" stroke-linejoin="round"/>
<path d="M372.1 267.7C372.1 267.7 376.6 265.2 378.8 268.3M380.5 273.1C380.5 273.1 379 274.7 378.7 274.7M383.6 278.1C383.6 278.1 387.7 278.5 390.4 274.1" stroke="#006B00" stroke-width="0.5" stroke-linecap="round"/>
<path d="M388.1 276.8C388.1 276.8 388.4 279.2 389.1 279.2C389.7 279.2 388 279.8 387.3 279.3C388.1 280.3 388.5 282.3 387.3 283" stroke="#006B00" stroke-width="0.5" stroke-linecap="round"/>
<path d="M385.9 306.8C385.9 306.8 384.5 308.5 382.7 308.6L385.9 306.8Z" fill="#E80000"/>
<path d="M385.9 306.8C385.9 306.8 384.5 308.5 382.7 308.6" stroke="#006B00" stroke-width="0.5" stroke-linecap="round"/>
<path d="M387.6 299.2C387.6 299.2 386.7 294.4 387.3 293.2C387.6 291.7 389.1 291.2 390.2 289.1" stroke="#006B00" stroke-width="0.5" stroke-linecap="round"/>
<path d="M387.2 295.8C387.2 295.8 386.1 298.6 381.2 297.7M388.5 288.6C388.5 288.6 388.8 292.4 384.4 291M383 271.4C383 271.4 381.2 273.1 382 275.4" stroke="#006B00" stroke-width="0.5" stroke-linecap="round"/>
<path d="M389.7 267.3C389.7 267.3 392.1 266.3 392.5 265.8C393.126 265.199 393.634 264.487 394 263.7C394.2 263 392.4 261.9 393.3 260.3C393.9 259.6 394.7 259.5 396 260.3C397.3 261.2 394.8 257.7 393.4 257.6C392.1 257.5 391.2 258.6 390.9 258.3C390.5 258.1 390.9 259.3 390.4 259.3C389.9 259.3 391.5 260.3 391.4 260.8C391.4 261.4 393.2 263.4 393.1 263.9C393 264.4 390.3 267.1 389.7 267.3Z" fill="#006B00"/>
<path d="M391.5 259.4C392.5 259.1 392.6 259.4 392.5 260.4C392 260.1 391.8 259.9 391.5 259.4Z" fill="#FFC900" stroke="#FFC900" stroke-width="0.5" stroke-linecap="round" stroke-linejoin="round"/>
<path d="M384.3 312.5C384.3 312.5 383.9 315 384.8 315.2C384.8 314.2 385 313.6 385.2 313.3L384.2 312.5H384.3ZM382.2 309.4C381.4 309.4 379.9 310.1 380.3 311C381 310.3 381.7 311 382.1 310.4C382.3 310.2 382.3 309.7 382.2 309.4ZM382.2 307.7C382.2 307.7 380.9 307.4 380.7 308.4C381.6 308.3 381.9 308.2 382.2 308.4V307.7ZM376.5 293.6C376.5 293.6 377.3 293.9 377.5 294.8C378.2 294.4 378.5 292.5 376.5 293.6ZM374.5 295.7C374.6 295.7 376.2 294.7 376.5 295.7C376.1 296 375.9 296.3 375.6 296.3C375.4 296.3 375 295.7 374.6 295.7H374.5ZM374.4 299.2C374.4 299.2 375.4 298.2 375.9 298.8C376.2 299.5 375.5 299.4 375.5 299.4L374.4 299.2ZM373 280C373 280 371.6 279.4 371 280.4C372 280.5 372.3 280.8 372.7 281.2C372.5 280.8 372.4 280.2 373 280ZM370.5 287.2C370.5 287.2 370.5 285.6 371.2 284.9C371.6 285.2 371.7 285.5 372 286C371.5 286.2 370.7 286.2 370.4 287.2H370.5ZM373.9 286C373.9 286 372.5 286.7 372.9 287.5C373.4 287 373.9 287.2 373.9 287.1V286.1V286Z" fill="#E80000" stroke="#006B00" stroke-width="0.5" stroke-linejoin="round"/>
<path d="M371.8 270.5C371.3 271.1 372.5 272.5 373.7 272.2C374 270.8 372.1 270 371.8 270.5Z" fill="#FFC900" stroke="#006B00" stroke-width="0.5" stroke-linejoin="round"/>
<path d="M373.2 269.4C373.2 269.4 373.4 270.5 374.4 270.2C374.3 269.3 373.5 268.7 373.5 268.7C373.5 268.9 373.7 269.3 373.2 269.4ZM373.9 272.7C373.9 272.7 374.4 273.4 375.6 272C375.1 272.2 374.1 271.7 374.1 271.7C374.1 271.7 374.1 272.7 373.9 272.7Z" fill="#E80000" stroke="#006B00" stroke-width="0.5" stroke-linejoin="round"/>
<path d="M371.8 267.9C371.3 268.5 372 269.3 373.2 269.1C373.5 267.7 372.1 267.4 371.8 267.9Z" fill="#FFC900" stroke="#006B00" stroke-width="0.5" stroke-linejoin="round"/>
<path d="M372.3 262.1C372.3 262.1 377.1 260.8 379.6 262.8C382.2 264.8 382.2 263 382.2 263C382.2 263 385.9 264.4 387 264.1C388 263.8 386.2 264.2 387.7 263.3C389.2 262.4 384.7 263.5 384.3 261.6C383.7 260.5 384.4 259 382.9 259.5C381.8 258.1 383.6 257.1 383.2 255.7C382.1 256.4 381.5 255.4 380.6 257.3C378.6 256.9 380.3 254.1 378.1 253.8C378.1 255.8 376.4 256 376.3 257.1C375.3 257.8 371 260.4 372.3 262.1Z" fill="url(#paint1_linear_103_5915)"/>
<path d="M316.9 418.8C319.9 418 336.9 422.5 343.4 429.5C342 417 338.6 407.5 338.6 407.5C338.6 407.5 328.5 404.6 327.1 406C325.1 408.1 319 414.5 316.9 418.8ZM311.7 361.2C310.5 361.4 309.3 362.2 308.1 364.2C306.7 367.5 305.8 376 303.8 378C301.8 380 300 380.2 300 382C300 383.8 300.2 388 305.6 389.5C310.9 389.7 319.4 381 319.4 381C319.4 381 323.8 376.2 325.5 371.1C315.3 374.7 307.9 365.1 311.7 361.2ZM460.5 416.8C450.674 417.426 441.296 421.135 433.7 427.4C434.543 419.987 436.151 412.681 438.5 405.6C439.7 405.2 448.5 402.7 449.8 404.1C451.8 406.2 458.3 412.6 460.4 416.8H460.5ZM465.2 359.6C466.4 359.8 466.8 361.3 467.8 363.3C469.1 366.6 470.5 371.5 472.5 373.5C474.5 375.5 476.2 378.3 476.2 380.1C476.2 381.9 475.8 384.3 470.5 385.8C465.2 386 457.5 379.2 457.5 379.2C457.5 379.2 453.2 374.5 451.5 369.4C461.7 372.9 468.3 363.8 465.2 359.6Z" fill="#C01500" stroke="black" stroke-width="0.9"/>
<path d="M305.8 407.9C305.8 407.9 316.4 415.2 316.6 418.6C345.3 376 418.5 362.8 460.2 415.6C463.113 411.488 466.994 408.157 471.5 405.9C427.5 348.6 340.2 355.7 305.8 407.9Z" fill="#FFBB00" stroke="black" stroke-width="0.9"/>
<path d="M414.5 245.2H418.7L411.3 254.6L420.3 265L402.6 287.2L419.2 307.2C417.4 311.7 415.2 315.8 412.4 319.5L402.9 308.9L420.2 287.3L406 271.2L414.5 245.2ZM354.8 247.1L350.4 247.2L358.7 256.2L349.9 267.3L368.3 287.3L353 307.7C354.876 312.355 357.328 316.756 360.3 320.8L369.3 309.4L350.8 288.7L364.4 271.4L354.8 247.1Z" fill="#1E5AA6" stroke="black" stroke-width="0.9"/>
<path d="M375.5 300.8L369 309.6L392.4 336.8C396.6 334.7 399.8 332.3 403.4 329.4L391.2 315.3L396.2 300.6L403.3 308.9L380.9 337.5C376.716 335.654 372.811 333.231 369.3 330.3L381.1 315.3L375.5 300.8ZM368.3 287.2L372.5 292.6L369.8 285.3L368.3 287.2ZM398.9 292L402.4 287.4L401.1 285.6L398.9 292Z" fill="#1E5AA6" stroke="black" stroke-width="0.9"/>
<path d="M448.4 217.2C448.4 217.2 452.5 213.7 455.4 213.6" stroke="#FFF700" stroke-width="0.9" stroke-linecap="round"/>
<path d="M449 216.7C449 216.7 473.7 213.2 474.4 212.4M449.1 217C449.1 216.8 476.6 214.6 476.6 214.6" stroke="#FFF700" stroke-width="0.9" stroke-linecap="round"/>
<path d="M480 217.1C478.2 215.6 449 217 449 217L476.5 219.2M448.9 217C448.9 217 477.5 217.1 477.9 217.8M448.7 217.1C448.8 217.1 476.7 219.6 479.4 223.1" stroke="#FFF700" stroke-width="0.9" stroke-linecap="round"/>
<path d="M480.9 228.1C480.9 228.1 471.4 216.8 448.6 217.1" stroke="#FFF700" stroke-width="0.9" stroke-linecap="round"/>
<path d="M448.7 217.2C448.7 217.2 464.5 218.3 469.5 223.8" stroke="#FFF700" stroke-width="0.9" stroke-linecap="round"/>
<path d="M449 217C449 217 459.2 215 470 228" stroke="#FFF700" stroke-width="0.9" stroke-linecap="round"/>
<path d="M442.5 228.7C442.5 228.7 456.7 229.3 456.7 230.7C456.7 232 446.2 234.7 446 240.5C445.9 246.4 454 246.8 454.6 254.1C455.2 261.5 448.3 262.6 446.9 264.6C445.5 265.6 442.1 275.9 442.6 282.1C443 288.1 444.8 308.9 448 313.1C450.5 315 454.2 321.2 458.3 319.3C462.3 317.3 459.5 310.3 459.1 308.3C458.7 306.3 460.8 303.2 460.8 300.3C460.8 297.3 459.2 295 459.4 294.3C459.5 293.6 470.6 296.9 469.9 307.9C469.2 318.9 464.8 315.5 464.8 315.5C464.8 315.5 466.2 329 462.7 330.8C456.5 334.2 451.9 330.1 451.9 330.1L452.5 332.9L447.7 330.4C447.7 330.4 441.6 321.7 440.2 317.8C438.415 309.589 437.576 301.201 437.7 292.8C438.3 289 438.7 267.1 438.4 265.9C438.1 264.9 437 246.5 437.7 243.7C438.4 240.9 442.7 228.7 442.6 228.7H442.5Z" fill="url(#paint2_linear_103_5915)" stroke="black" stroke-width="0.9"/>
<path d="M427.3 225C427.3 225 437.1 215.5 442.8 216.6C445.8 216.6 443 218.7 443 218.7C443 218.7 448 219.1 448.7 221.3C448.8 222.3 446.3 222.6 446.3 222.6C446.3 222.6 448.3 223 448.5 224.8C448.7 226.6 427.5 225.2 427.3 225.1V225Z" fill="#FF7000" stroke="black" stroke-width="0.9"/>
<path d="M427.8 224.7C427.8 224.7 438.4 223.3 442.8 218.8" stroke="black" stroke-width="0.9"/>
<path d="M438.5 221.8C438.5 221.8 446.3 221.5 446.3 222.6" stroke="black" stroke-width="0.9"/>
<path d="M466.2 335.4C466.2 335.4 472.8 333.9 474.7 331.5C475.7 330.7 481.6 340.3 466.2 335.5V335.4Z" fill="white" stroke="black" stroke-width="0.9" stroke-linejoin="round"/>
<path d="M464.4 280.3C464.4 280.3 465.2 285.4 462.8 288.9C461.6 290.3 457.8 292.6 457.8 294.3C457.8 296 459.2 298.2 459 300.1C458.7 302.1 456.6 304.1 456.7 305.7C456.7 307.3 459.1 316.2 458.8 316.4M452.2 263.6C452.2 263.6 446.9 265.4 445.8 270.6" stroke="white" stroke-width="0.9" stroke-linecap="round"/>
<path d="M449.9 221.8C449.9 221.8 451.7 226.8 457.6 222C453.8 216.9 449.9 221.9 449.9 221.8Z" fill="#C75B00" stroke="black" stroke-width="0.9"/>
<path d="M454.2 221.6C454.2 221.8 454 222 453.6 222C453.3 222 453 221.8 453 221.6C453 221.3 453.3 221.1 453.6 221.1C454 221.1 454.2 221.3 454.2 221.6Z" fill="black"/>
<path d="M402.2 210.2C402.2 210.2 413.2 222.2 420.4 222C421.7 225.5 417.2 228.8 415.4 230.3C411.7 229.2 408.4 230.6 400 220.1C400.5 213.5 402.3 210.4 402.2 210.1V210.2ZM417.2 182.3C418.6 177.9 421.5 174.3 423.9 174C423.3 170.6 429.2 155.6 446.2 149.9C447.2 157.6 438.9 165.1 438.9 165.1C438.9 165.1 464 160.8 469.1 154.4C468.6 157.3 463.5 175.1 436.7 175C446.9 184.6 433.5 192.3 427.7 190C438.3 182 424.7 177 417.2 182.3Z" fill="white" stroke="black" stroke-width="0.9"/>
<path d="M425.8 176C430.8 172.8 432.7 172.8 436.8 173.4C433.8 173.8 433.8 174 433.8 174C433.8 174 433.6 174.4 435.4 176C433.4 175.5 431.5 174.4 425.8 176Z" fill="#CCCCCD" stroke="#CCCCCC" stroke-width="0.9"/>
<path d="M423.8 174C423.8 174 433.8 168.6 439.4 165" stroke="black" stroke-width="0.9"/>
<path d="M415.2 230.3C415.2 230.3 429 234.1 430.6 214.3C427.6 205.7 423.4 187.3 429.8 181.9C423.9 177.9 417.6 182 417.6 182C417.2 183 412 190.4 419 203.4C402.3 199 409.1 214.7 409.1 214.7C409.8 212.2 418.6 209.9 420.8 222.5C421.8 225.6 414.8 230.5 415.2 230.3Z" fill="#0000FF" stroke="black" stroke-width="0.9"/>
<path d="M430.7 214.5C430.7 214.5 445.3 206.6 444.9 188.3C432.5 188.5 428.1 204.6 428.1 204.6L430.7 214.5Z" fill="#0000FF" stroke="black" stroke-width="0.9"/>
<path d="M365.4 213.5C365.4 213.5 354.6 222.9 348.4 219.9C343.9 222.7 338.6 217.9 338.6 217.9C338.6 217.9 344.8 240.9 367.2 224.2C366.968 220.581 366.364 216.996 365.4 213.5Z" fill="white" stroke="black" stroke-width="0.9"/>
<path d="M348.3 219.5C349.3 214.7 353 212.4 356 216.9C360 217.7 364 201.2 349.7 203.9C353.7 182.3 341.7 174.2 341.7 174.2C341.7 174.2 337.4 198.2 339.3 202.6C341.3 207 336.5 194.4 321 190.9C320.7 208.9 338.3 217.4 338.3 217.4C338.3 217.4 343.3 222 348.3 219.5Z" fill="#0000FF" stroke="black" stroke-width="0.9"/>
<path d="M349.7 203.8C349.7 203.8 343 209.5 344.5 217.3M339.5 203C339.5 203 337.9 208.6 341.3 216.5" stroke="black" stroke-width="0.9"/>
<path d="M338.5 218.4C338.5 218.4 341.5 213.3 348.3 219.8" stroke="black" stroke-width="0.9"/>
<path d="M339.7 183.2C339.7 183.1 329.4 183.2 335.6 193.6C331 195.1 320.8 188.4 327.9 179.6C304.9 179 295.5 168 295.5 157.8C302.2 164.8 318.4 162 324.1 166.3C317.1 159.8 318.5 150.8 318.5 150.8C318.5 150.8 338.2 156.7 341.7 174.1C340.5 177.5 340 183.5 339.7 183.2Z" fill="white" stroke="black" stroke-width="0.9"/>
<path d="M323.9 165.8C327.7 169.7 337.4 170.8 342.4 175.1" stroke="black" stroke-width="0.9"/>
<path d="M328.4 177.2C328.4 177.2 336.4 176.2 338.8 179C335.6 179 334.6 178.3 330 180C331.3 179.3 331 178.1 331.7 178.1C332.4 178.1 328.7 177.2 328.4 177.2Z" fill="#CCCCCD" stroke="#CCCCCC" stroke-width="0.6"/>
<path d="M368.6 114C368.6 114 373 110.2 377.9 113.7C375.7 120.2 367.9 117.7 367.9 117.7C367.9 117.7 368.1 121 367.3 122.5C368.9 123.7 370.2 127.6 370.2 127.6C370.2 127.6 378.2 125.6 380 129.2C383 128.8 385.3 129.2 385.3 129.2C385.3 129.2 391.5 127.6 393.7 127.6C396 127.6 403 129.4 403.7 130.7C404.3 132 406.7 140.7 408.2 140.7C409.8 140.5 404.4 142.7 403 140.5C401.6 138.3 402 143.4 402 143.4C402 143.4 406.4 148.1 406.9 149.1C407.4 150.1 404.2 158.6 406.6 164.5C404.5 164.7 404.3 166.9 404.3 166.9C404.2 169.5 400.9 170.2 400.9 170.2L400.1 166.7L397.9 168L398.9 165.2C398.9 165.2 401.9 158 402.1 155.6C402.3 153.3 399.3 149.1 397 149.1C394.7 149.1 393 156.5 393 156.5C393 156.5 391.8 162.1 392.2 162.6L390.6 160.8C390.6 160.8 389.6 164.2 388.8 165.2C388 166.2 386.3 166.7 386.3 166.7C386.3 166.7 385.2 163.3 385.5 162C385.9 160.7 391.9 155.6 391.5 152C390.9 148.3 391.5 149.2 391.3 149.1C391.1 149 388.2 146.4 388 144.9C387.9 143.5 384.1 146.8 379.2 145.7C377.7 148.4 377.5 155 377.5 155C377.5 155 377 162.9 378 163.8C379 164.8 375.4 166.7 375.4 166.7L372.8 170.2L371.8 168.2L370.1 169.4L371.1 166.8C371.1 164.8 373.6 159.4 373.6 154.8C373.6 150.3 374 145.5 374 145.5C374 145.5 369.1 145.2 369.3 150.1C369.4 155.1 368.1 155.4 368.3 156.8C368.6 158.2 369.9 162.2 369.5 163.4C369.1 164.6 367.5 165 367.5 165L367.2 165.6C367.2 165.6 362.4 167.8 362.5 168.8L362.4 166.2L362.1 162.4C362.1 162.4 365 160.6 365 156C365 151.4 364.3 150.8 364.5 149.8C364.5 148.8 365.2 144.9 365.1 144.5C365 144.2 362.4 145.5 361.6 145.5C360.8 145.5 363 142.9 363.3 140.9C363.5 138.9 360.7 142.7 358.3 140.5C359.4 138.1 361.1 137.4 361.3 135.5C361.6 133.7 359.5 137.1 357.7 135.8C357.8 134.1 359.7 132.6 359.7 132.6C359.7 132.6 358.2 132.4 357.6 132.6C356.4 132.2 358.9 130.4 359 127.7C359.1 125.1 357.6 124.1 357.6 124C357.6 123.8 355 121.6 354.6 120.7C354.2 119.8 354.2 118.7 354.2 118.7C354.2 118.7 349.9 121.9 344.8 115.3C349.4 111.3 354.4 114.3 354.4 114.3C354.4 114.3 355.7 110.6 361.7 110.8C367.7 111.1 368.9 114.5 368.7 114.1L368.6 114Z" fill="#923F00" stroke="black" stroke-width="0.9"/>
<path d="M401.4 181.4C401.4 181.4 412.4 181.7 412.5 187.6C412.6 193.5 409.2 191.9 409.1 191.9L401.1 190.9L401.4 181.4Z" fill="#0000FF" stroke="black" stroke-width="0.9"/>
<path d="M390.7 179.8C390.7 179.8 404.4 179.7 403.7 185.6C402.9 191.6 399.4 190.4 399.4 190.4L392.8 189.9L390.7 179.8Z" fill="#FFFEFF" stroke="black" stroke-width="0.9"/>
<path d="M383 179.1L391 179.8C391 179.8 395.7 180.4 395.5 185C395.3 189.6 390.6 189.7 390.6 189.7L382.9 189.2L383 179.1Z" fill="#0000FF" stroke="black" stroke-width="0.9"/>
<path d="M364.5 181.4C364.4 181.4 353.5 181.7 353.3 187.6C353.3 193.5 356.7 191.9 356.8 191.9L364.8 190.9L364.5 181.4Z" fill="white" stroke="black" stroke-width="0.9"/>
<path d="M375.1 179.8C375.1 179.8 361.5 179.7 362.2 185.6C363 191.6 366.5 190.4 366.5 190.4L373.1 189.9L375.1 179.8Z" fill="#0000FF" stroke="black" stroke-width="0.9"/>
<path d="M382.8 179.1L374.9 179.8C374.9 179.8 370.1 180.4 370.4 185C370.6 189.6 375.2 189.7 375.2 189.7L382.9 189.2L382.8 179.1Z" fill="white" stroke="black" stroke-width="0.9"/>
<path d="M404 245C404 245 409.7 236.6 412.1 237.5C414.2 238.2 412.6 244.7 411.6 245.3L404 245ZM365 246.5C363.2 244 360.6 237.1 358.2 239C356.2 239.7 357.7 246.2 358.7 246.8L365 246.5Z" fill="#5E0043" stroke="black" stroke-width="0.9"/>
<path d="M368.8 229.9C368.8 229.9 379.8 236.7 383.5 236.9C387.2 237.1 398.7 228 398.7 228" stroke="black" stroke-width="0.9"/>
<path d="M369.9 203L371.9 200.4L382.6 205.8L393.5 201L395.5 203.3L383.5 211.8L369.9 203Z" fill="#5E0043" stroke="black" stroke-width="0.9"/>
<path d="M361.4 203C362.3 204 369.1 212.4 370.4 219.3C371.6 226.3 369.7 209.8 369.7 209.8C369.7 209.8 378.2 214 378.5 216.7C378.7 219.3 382.5 216.5 382.7 216L358.1 200L361.4 203ZM403.5 202.5C403.5 202.5 394.5 214.3 395.5 227.1C393.7 221 395.2 210.8 395.2 210.8L393.2 212.1C393.2 212.1 391.2 220.7 388.7 222.1C388.2 221.1 388.3 220.7 388.3 220.7C388.3 220.7 385.6 224.2 385 224.6C384.5 224.9 385.2 236.6 385.2 236.6C385.2 236.6 386.2 245 387.2 244.9C386.279 245.361 385.378 245.862 384.5 246.4L383.4 223.9L385.9 221.4C385.9 221.4 389.3 217.3 389.5 213.3C388.626 214.042 387.603 214.588 386.5 214.9C386.5 214.9 386 220.6 384.7 221.4C383.3 222.2 383.3 223.6 383.3 223.6L383 216.2L403.5 202.5Z" fill="#474747" stroke="#474747" stroke-width="0.9" stroke-linejoin="round"/>
<path d="M383 216.1L384.7 251.6" stroke="black" stroke-width="0.9" stroke-linecap="round"/>
<path d="M361.2 233C361.2 233 365.2 235.5 366.7 242.7C380.1 241.7 384.2 246.5 384.2 246.5C384.2 246.5 395.2 241.2 400.2 242.2C402.058 239.063 404.347 236.202 407 233.7" stroke="black" stroke-width="0.9"/>
<path d="M355.5 198.3L383 216.3L407.6 199.6C407.6 199.6 412.8 196.8 412.3 194.8C411.9 192.8 410.1 193.5 409.3 193.8C408.3 194.2 383.4 211.8 383.4 211.8L356.9 195.1C356.9 195.1 354.9 194.5 354.6 195.7C354.2 197 355.3 197.7 355.6 198.3H355.5Z" fill="#B4B6B9" stroke="black" stroke-width="0.9"/>
<path d="M404.5 193.6C404.5 193.6 397.5 190.6 397.5 193.2C397.5 195.8 397.8 196.1 398.9 197.7C400 199.4 398 200.4 398 200.4L397.4 198.6C397 197.5 393.2 196.6 392.9 195.4C392.5 194 393.7 191.9 391.4 191.7C389.2 191.4 387 192.6 386.5 195.2C386.1 197.7 383.2 203.8 383.2 203.8L383.5 190.1C388.5 190.4 397.7 191.5 404.7 192.3C402.6 192 405.5 192.5 405.4 193.2C405.2 193.8 404.5 193.8 404.6 193.6H404.5ZM379.8 190.2C378.5 190.2 372.2 190.9 370.7 191.9C369.1 192.8 373.2 194.2 372.7 195.5C372.2 196.7 372.1 199.3 370.1 198.7C368.1 198.2 361.5 194.9 361.3 193.7C361.1 192.7 359.7 192.6 359.7 192.6C359.7 192.6 378.9 190 379.7 190.2H379.8Z" fill="#474747" stroke="#474747" stroke-width="0.9" stroke-linejoin="round"/>
<path d="M382.8 188.6V205.4M369.9 168.8L362 181.7" stroke="black" stroke-width="0.9"/>
<path d="M384 168.5C384 168.5 387.4 173.1 387 174.4C388.258 175.991 389.239 177.783 389.9 179.7" fill="url(#paint3_linear_103_5915)"/>
<path d="M384 168.5C384 168.5 387.4 173.1 387 174.4C388.258 175.991 389.239 177.783 389.9 179.7" stroke="black" stroke-width="0.9"/>
<path d="M396.9 167.8C396.9 167.8 389.7 177.9 389.9 178.7" stroke="black" stroke-width="0.9"/>
<path d="M359.9 119.3C359.8 119.9 358.9 120.1 357.9 119.8C356.9 119.5 356.2 118.8 356.4 118.2C356.6 117.6 357.4 117.4 358.4 117.7C359.4 118 360.1 118.7 359.9 119.3ZM362.8 119C363 119.7 363.9 119.9 364.9 119.6C365.9 119.3 366.5 118.6 366.4 118C366.2 117.4 365.3 117.2 364.4 117.5C363.4 117.8 362.7 118.5 362.8 119.1V119Z" fill="black"/>
<path d="M447.5 330.2C447.5 330.2 444.7 330.7 444.8 331C444.9 331.2 437 331.5 436.8 331.2C436.7 331 435.7 332.6 435.7 332.6L436.9 331.8C436.9 331.8 438.9 333.8 439.5 333.6C440 333.5 439.2 334.4 439.4 334.6C439.5 334.7 440.1 334.2 440.1 334.2L453.1 334L447.5 330.2ZM452.3 334.3L441.6 334.6C441.6 334.6 439 337 438.8 337.6C438.6 338.2 440.5 338.3 440.5 338.3L441.1 340.3L442.5 339.8C442.5 339.8 451.5 341.2 459.8 339.3C464 337.9 464.8 336.1 461.8 335C458.8 334 452.3 334.3 452.3 334.3Z" fill="#FF7000" stroke="black" stroke-width="0.9" stroke-linejoin="round"/>
<path d="M415.9 356L434.9 355.2L431.4 352.2L483.2 350.1L481.4 346L423.4 348.3L430.4 351.6L414.8 352L415.2 353.7L411.2 353.5C411.2 353.5 415.7 355.3 415.9 356.1V356Z" fill="url(#paint4_linear_103_5915)" stroke="black" stroke-width="0.9"/>
<path d="M437.3 250.4C435.8 249.6 429.1 248.7 421.7 253.6L422 270.7C422 270.7 432.9 264.8 438.2 266.2C437.9 260.9 437.9 254 437.3 250.4Z" fill="url(#paint5_linear_103_5915)" stroke="black" stroke-width="0.9"/>
<path d="M331.5 302.5L286.5 347.3M351.6 302.8L315 351.1M350 290.3L301.1 349.4M299.6 348.6L304.4 343.1M359.3 320L340.3 346.2M339.5 349.6L340 359.6M368 329.2L347.9 354.3M364.4 352.4L372.5 339M367.5 336.4L357.7 347.4M364.5 325.9L357.8 334.1M355.9 314C355.9 314 335.4 343.9 335.8 346.3M353.8 310C353.3 310.4 336.1 333 336.1 333M335.1 340.3L332.1 344M328.1 349.8L323.4 356" stroke="black" stroke-width="0.9"/>
<path d="M329.3 233.7C329.3 233.7 327.9 238 329.3 240.2C330.7 242.4 339.3 260 339.3 260C339.3 260 345.3 252.7 347.5 252.5C349.7 252.3 348.7 271.5 348.7 271.5C348.7 271.5 345.1 274.8 342.9 274.6C340.8 274.4 348.3 282.1 348.1 288.6C347.9 295.2 338.1 327.6 334.6 328.2C331.1 328.8 336.2 322.2 336 320.5C335.8 318.7 334.8 319.9 334 317.9C333.2 315.9 335.2 312.9 334.8 310.9C334.4 309 332.7 309.4 332.5 308C332.3 306.6 333.6 306.2 333.5 304.7C333.2 303.1 331.1 303.5 331.3 302.1C331.5 300.7 331.7 301.3 331.5 298.7C331.3 296.2 330.9 300.5 328.7 300.7C326.5 300.9 324.7 305.9 324.7 305.9C324.7 305.9 320.4 311.9 316 309.2C318.6 314.8 316.6 317.2 315.6 317.3C314.6 317.5 316.4 321.7 314.1 321.9C311.7 322.1 315.8 331.2 313.1 331.9C316.1 333.3 313.7 335.1 313.7 335.1C313.7 335.1 306.8 335.7 308.3 344.6C288.2 337.5 278.3 325.2 278.5 312.8C278.7 300.3 282.6 289 292.3 284.8C295.1 274.6 299.8 263.5 299.8 263.5C299.8 263.5 299 259 299.6 256C300.2 253 303 250 303 250C303 250 302.6 243 302.8 239.4C303 235.8 304.4 234.3 304.6 232.3C304.8 230.3 304 220.3 306 218.4C308 216.7 311.7 216.9 313.7 215.7C315.7 214.5 318.2 212.3 320.7 212.5C323.4 212.7 325.5 214.5 325.5 214.5C325.5 214.5 335.2 214.5 335.8 218.2C336.4 222 333.8 223.4 333.8 223.4C333.8 223.4 335.2 228.7 329.3 233.7Z" fill="#8A9396" stroke="#2B2B2B" stroke-width="0.9"/>
<path d="M320.7 220C321 220.5 320.3 221.5 319.1 222.2C317.9 222.8 316.7 222.9 316.4 222.2C316.1 221.7 316.8 220.7 318 220.1C319.2 219.5 320.4 219.4 320.7 220Z" fill="#CECFCF" stroke="#2B2B2B" stroke-width="0.9"/>
<path d="M319 221C319 221.3 318.7 221.6 318.3 221.6C317.9 221.6 317.6 221.3 317.6 221C317.6 220.6 317.9 220.3 318.3 220.3C318.7 220.3 319 220.6 319 221Z" fill="black"/>
<path d="M333.5 227.5C333.5 227.5 335.9 238.2 333 245.6M334.2 222.8C334.2 222.8 338.9 229 338.3 236.8M334.7 221.5C334.8 221.5 338.7 224.8 338.5 227.1M335.6 220.1C335.6 220.1 338.2 221.9 338.8 223.7" stroke="#2B2B2B" stroke-width="0.4"/>
<path d="M334.4 219C334.4 219 325.2 234 326.4 243.4" stroke="black" stroke-width="0.9"/>
<path d="M335 218.6C335 218.6 322.8 225.8 320.5 249.6" stroke="#2B2B2B" stroke-width="0.4"/>
<path d="M333.6 223L328.8 226.6" stroke="black" stroke-width="0.9"/>
<path d="M316 251C316 251 322.8 222.7 334.8 218.6" stroke="#2B2B2B" stroke-width="0.4"/>
<path d="M339.5 260.5C339.5 260.5 346 252.3 347.5 252.6C349.1 252.9 348.6 271.5 348.6 271.5C348.6 271.5 343.8 275.1 342.7 275C341.7 274.8 348.1 283.7 348 287L347.7 290.4C347.7 290.4 347.7 288.4 346.2 285.2C344.7 282.1 345.6 278.4 335.8 270.4C333.3 265.4 340.6 273.4 342.1 272.2C343.6 271 339.4 260.6 339.5 260.5Z" fill="#2B2B2B" stroke="#2B2B2B" stroke-width="0.9"/>
<path d="M328 214.5C328 214.5 325.2 215.2 324.9 216.4C324.5 217.4 322.9 218.6 322 218.2C321.1 217.8 319.5 216.5 319.5 216.5" stroke="#2B2B2B" stroke-width="0.9"/>
<path d="M312.5 224C312.5 224 308.4 228.2 310.3 228.7C312.3 229.1 314.4 225.4 314.4 225.4C314.4 225.4 314.4 231.8 316.2 230.8C317.9 229.8 323 226.2 323 226.2C323 226.2 324.8 226 325.1 226.2C325.5 226.2 329.8 230 332.7 228.7C331.1 232.9 329.2 233.4 329.2 233.4C329.2 233.4 326.2 237.2 322.4 236.4C318.5 235.4 317.5 233.9 317.5 233.9C317.5 233.9 314.3 234.1 313.3 232.6C312.3 231.1 312 230.3 312 230.3C312 230.3 310.1 232.1 309.6 231.3C309.1 230.3 309.6 225.3 312.5 224.1V224Z" fill="#2B2B2B" stroke="#2B2B2B" stroke-width="0.9" stroke-linejoin="round"/>
<path d="M335.7 218.3C335.7 218.3 328.1 216.1 325.5 219.8C322.9 223.6 323.5 225.7 324.9 226" stroke="#2B2B2B" stroke-width="0.9"/>
<path d="M336.8 218.1C336.8 219.1 336.2 219.7 335.4 219.7C334.6 219.7 334 219 334 218.1C334 217.2 334.6 216.5 335.4 216.5C336.2 216.5 336.8 217.2 336.8 218.1Z" fill="black"/>
<path d="M314.8 237.5C314.8 237.5 317.8 242.2 321.6 243.5C325.3 244.8 319 246 315.3 243.5C312.7 239.8 313.3 237.2 313.3 237.2C313.3 237.2 314.1 236.5 314.8 237.5ZM341.2 265.5C341.2 265.5 332.6 253.5 330.1 252.8C327.6 252.1 332 251.6 334.6 254.2C337.3 256.7 333.9 250 333.9 250L341.2 265.5Z" fill="#2B2B2B" stroke="#2B2B2B" stroke-width="0.9"/>
<path d="M314 335.2C317.3 334.3 331.8 343.5 335 345.8C338.3 348.1 345.2 346.7 345.2 346.7C345.2 346.7 342 348.6 340 349C338 349.5 345.9 349.5 345.9 349.5C345.9 349.5 327.3 354.6 308.5 344.7C306.8 337 312.5 335.3 314 335.2Z" fill="#2B2B2B" stroke="#2B2B2B" stroke-width="0.9" stroke-linejoin="round"/>
<path d="M335.2 268.5C335.2 268.5 332.7 268 331.5 266.5C330.2 265.2 328.5 261.6 326.6 260.2C324.8 258.7 315.6 253.6 312.2 254C308.9 254.3 307.9 253.6 307.5 253.2C307.1 252.8 305.7 253.4 305.9 255.2C306.2 256.8 303.4 260.6 304.4 262.4C305.4 264.2 310.2 271.4 311.1 271.7C312.1 271.9 311.5 275.9 311.5 275.9C311.5 275.9 315.7 280.2 316.8 280.4C317.8 280.7 318.9 281.4 318.8 282.4C318.7 283.4 314.1 289 314.1 289C314.1 289 309.3 291.5 309.2 293C309.2 294.4 310.4 297.3 314.2 298.3C319.161 299.109 324.237 298.871 329.1 297.6C329.844 295.413 330.183 293.109 330.1 290.8C329.7 290.3 327.1 288.7 325.8 288.9C324.5 289.2 323.4 290.2 323.5 290.5C323.5 290.7 321.6 291.7 321.6 290.8C321.6 289.8 325.5 285.5 325.8 285.8C326.2 286.2 331.7 286.8 332.7 289.5C333.7 292.2 333.7 294.2 336.5 293.9C339.4 293.6 343.4 290.9 343.7 285.5C344.1 280.1 340.5 276.4 339.7 275.8C338.7 275.3 335.7 273.5 335.5 272.7C335.3 271.9 334.7 269.1 335.2 268.5Z" fill="#2B2B2B" stroke="#2B2B2B" stroke-width="0.9"/>
<path d="M283.8 292.6C283.8 292.6 293 290.2 295.4 290.3C297.7 290.3 306.7 294.5 309.4 297.1C311.9 299.6 317.3 305.7 320.8 305.1C324.3 304.6 325.3 303.9 325.3 303.9L323.9 306.5C323.9 306.5 321.1 307.3 319.7 306.9C318.2 306.6 315.5 305.7 312.7 302.9C309.9 300.2 301.3 292.9 293.9 293.4C286.6 293.9 282.4 301.1 282.4 301.1C282.4 301.1 282.4 297.6 282.8 296.8C283.1 296 281.2 298.5 281.2 298.5L283.8 292.6Z" fill="#2B2B2B" stroke="#2B2B2B" stroke-width="0.9"/>
<path d="M317.7 299.7C317.7 299.7 320 300.4 323.8 300.4C327.6 300.4 329.7 298.7 329.7 298.7L329.4 297.2L330 295.2C330 295.2 333 298.2 332.9 298.7C332.8 299.3 331.7 299.6 331.7 299.6L331.3 298.1L330.3 299.4C330.3 299.4 324.7 303.8 321.7 303.1C318.7 302.5 315.9 300.5 316.7 300.1C317.4 299.6 317.8 299.7 317.7 299.7ZM304.3 307.5C304.3 307.5 301 307.5 299.5 308.2C298 308.9 297.5 309.8 296.5 309.6C295.5 309.6 294.7 308.2 295 307.6C295.4 306.9 297.3 305.8 301 306.1C304.8 306.4 304.3 307.5 304.3 307.5ZM315.9 316.5C315.9 316.4 315.7 311.7 313.9 309.8C313.251 309.096 312.432 308.569 311.522 308.272C310.611 307.974 309.64 307.915 308.7 308.1C307.7 308.3 312.5 310.4 313 311.8C313.4 313.2 315 317 314.6 317.9C314.1 318.9 313.4 315.2 310.5 314.2C307.5 313.2 303.5 313.8 304.3 315.1C305.2 316.4 308.4 315.1 310.1 318C311.8 320.8 313.1 323.7 313.1 323.7L313.6 321.7L315 321.3L315.2 317.4L315.9 316.5Z" fill="#2B2B2B" stroke="#2B2B2B" stroke-width="0.9"/>
<path d="M313.5 331.7L310.5 325.7C310.5 325.7 309.5 321.8 307 320.7C304.5 319.7 301 319.9 301 321.2C301 322.5 306.5 324.2 306.8 324.9C307.2 325.6 307 326.8 306.5 326.9C306.1 326.9 303.6 325.9 302.4 326.2C301.1 326.5 300.4 328.2 298.6 327.7C296.7 327.2 295.2 321.3 295.9 320.7C296.6 320.1 294.5 321.7 294.1 320.2C293.7 318.7 294.7 313.9 294.1 313.2C293.3 312.7 289.8 310.6 289.8 310.2C289.8 309.8 290 286.5 309.4 305.8C301.1 295.9 297.8 297 296.3 296.9C295.1 296.9 287.6 297.6 285.7 307.2C283.7 316.8 281.5 310.8 281.5 310.8C281.5 310.8 281.1 315 283.1 316.2C285.1 317.4 282.1 320.8 282.1 320.8C282.1 320.8 278.6 312 279.1 308.1C278.268 314.735 279.675 321.457 283.1 327.2C289.568 334.587 297.688 340.343 306.8 344C313.9 333.2 313.6 331.9 313.6 331.7H313.5Z" fill="#2B2B2B" stroke="#2B2B2B" stroke-width="0.9" stroke-linejoin="round"/>
<path d="M300.8 331.8C300.8 331.8 304.8 332.3 305.8 334.3C306.9 336.3 307.4 339.4 307.4 339.4C308 338.1 308.4 337 309.6 336C310.9 335 311.9 335 311.8 334.2C311.8 333.5 307.7 329.2 305.6 329C303.6 328.7 299.9 331.2 299.9 331.2C299.9 331.2 299.2 332.2 300.9 331.8H300.8Z" fill="#8A9396" stroke="#2B2B2B" stroke-width="0.9" stroke-linejoin="round"/>
<path d="M309.8 342C309.8 342 320 346.7 336.7 347" stroke="#8A9396" stroke-width="0.9" stroke-linecap="round"/>
<path d="M343.7 294.9C343.7 294.9 342.8 303.4 336.3 320.2" stroke="#2B2B2B" stroke-width="0.9" stroke-linecap="round"/>
<path d="M342.5 300.1C342.5 300.1 340.5 306.2 335 310.8" stroke="#2B2B2B" stroke-width="0.9"/>
<path d="M312.7 406L314.5 404L315 404.5L314.9 404.7L314.7 404.9V405L314.9 405.2L317.2 407.2L317.4 407.4H317.5L317.7 407.3L318.1 406.6C318.167 406.333 318.167 406.067 318.1 405.8C318.1 405.6 318 405.333 317.8 405L318.5 404.6L319.5 406.5L316.8 409.5L316.2 409.1L316.4 408.9L316.5 408.7V408.5L316.3 408.3L314 406.3L313.8 406.1H313.6L313.5 406.3L313.3 406.5L312.7 406ZM316.5 401.7L319.8 398.5L321.4 399.3L321.1 399.9L320.3 399.8H319.7L319.2 400.3L318.6 400.9L319.6 401.9L319.7 401.7L320 401.3V401.1L319.8 400.8L319.6 400.7L320.1 400.2L321.7 401.8L321.3 402.3L321.1 402.1L320.8 401.9H320.6L320.3 402.2L320.1 402.4L321 403.3L321.1 403.4H321.2L321.4 403.3L321.8 402.9L322.3 402.2V401.5C322.3 401.167 322.233 400.867 322.1 400.6L322.8 400.3L323.8 402.3L320.4 405.5L319.9 405V404.9L320.2 404.6V404.4L320 404.2L317.9 402.1L317.6 401.9H317.5L317.3 402L317.1 402.2L316.6 401.7H316.5ZM323.4 395.2C324.067 394.6 324.733 394.333 325.4 394.4C326.2 394.4 326.867 394.733 327.4 395.4C327.733 395.8 327.967 396.267 328.1 396.8C328.167 397.267 328.1 397.733 327.9 398.2C327.767 398.667 327.433 399.1 326.9 399.5C326.367 399.967 325.767 400.2 325.1 400.2C324.233 400.2 323.533 399.867 323 399.2C322.467 398.533 322.233 397.867 322.3 397.2C322.3 396.4 322.633 395.733 323.3 395.2H323.4ZM323.9 395.8C323.633 396.067 323.5 396.4 323.5 396.8C323.5 397.267 323.7 397.733 324.1 398.2C324.5 398.667 324.933 398.967 325.4 399.1C325.8 399.1 326.133 399 326.4 398.8C326.733 398.533 326.9 398.2 326.9 397.8C326.9 397.333 326.7 396.867 326.3 396.4L325.4 395.7L324.6 395.5C324.333 395.5 324.1 395.6 323.9 395.8ZM329.3 390.4L329.7 390.1H329.8L332.4 388.4L332.3 388.2L332.7 387.9L334.4 389.1L333.9 389.7L333.3 389.4H332.2V389.8L334 392.3L334.2 392.6H334.5L334.9 392.4L335.3 393L333.1 394.5L332.7 393.9H332.8L333.1 393.6V393.4L332.9 393.1L331.1 390.5L331 390.4H330.9C330.767 390.467 330.667 390.6 330.6 390.8L330.5 391.4V392.1L329.8 392.3L329.3 390.3V390.4ZM334.2 387.2L338.1 384.8L339.5 386L339 386.6C338.8 386.4 338.567 386.267 338.3 386.2H337.7C337.5 386.2 337.3 386.3 337.1 386.5L336.4 386.9L337.1 388.1L337.3 387.9L337.6 387.7C337.667 387.633 337.667 387.567 337.6 387.5V387.1L337.4 386.9L338 386.6L339.2 388.6L338.6 388.9L338.5 388.7L338.3 388.4H338.1L337.7 388.6L337.5 388.7L338.1 389.7L338.2 390H338.3L338.6 389.9L339 389.6C339.267 389.467 339.467 389.3 339.6 389.1L339.9 388.4V387.4H340.6L341 389.4L337 391.8L336.6 391.2H336.8L337 390.9C337.067 390.9 337.067 390.833 337 390.7V390.4L335.4 387.9L335.2 387.6H335.1L334.8 387.7L334.6 387.8L334.2 387.2ZM339.7 383.9L342.7 382.4L343.3 382.1L344.1 382L344.7 382.2L345.2 382.7C345.4 383.1 345.4 383.467 345.2 383.8C345.067 384.2 344.867 384.533 344.6 384.8L346.2 385.4L346.5 385.5H346.9L347.1 385.3L347.5 386L345.9 386.8L343.3 385.5L342.9 385.7L343.4 386.7L343.6 387H344L344.2 386.8L344.6 387.5L342.2 388.7L341.9 388.1L342.1 387.9L342.3 387.8V387.4L340.8 384.6L340.7 384.4H340.3L340.1 384.6L339.7 383.9ZM341.9 383.8L342.5 385L343.3 384.6L343.8 384.2C343.933 384.133 344 384.033 344 383.9V383.4L343.7 383.2C343.567 383.133 343.433 383.133 343.3 383.2L342.7 383.4L341.9 383.8ZM345.8 380.8L348.9 379.4L349.6 379.2H350.3C350.567 379.2 350.8 379.267 351 379.4L351.4 380C351.533 380.333 351.533 380.667 351.4 381C351.2 381.4 350.933 381.733 350.6 382L352.2 382.7L352.5 382.8H353L353.2 382.7L353.5 383.3L351.9 384L349.3 382.6L348.9 382.8L349.4 383.8L349.5 384.1H349.9L350.2 384L350.5 384.7L348 385.7L347.7 385H347.9L348.2 384.8V384.4L346.9 381.6L346.8 381.3H346.4L346.2 381.5L345.8 380.8ZM348 380.8L348.6 382.1L349.3 381.7L350 381.4L350.2 381V380.6L349.9 380.3C349.767 380.233 349.633 380.233 349.5 380.3L348.9 380.4L348 380.8ZM354 377.4L355.2 376.9L358.2 380.3L358.5 380.6H358.9L359.1 381.3L356.7 382.2L356.5 381.4H356.6C356.733 381.4 356.833 381.333 356.9 381.2V381.1L356.7 380.8L356.4 380.4L354.9 381V381.9H355.5L355.7 382.5L353.7 383.2L353.5 382.5L353.8 382.4V382.2L353.9 382L354 377.4ZM354.9 380.2L355.9 379.8L354.9 378.6V380.2ZM358.3 375.8L360.6 375.1L362.4 378.1V374.6L364.9 373.9L365.1 374.6L364.8 374.7C364.667 374.7 364.6 374.767 364.6 374.9V375.2L365.4 378.2L365.5 378.5H366.2L366.4 379.1L363.9 379.9L363.7 379.1H363.9L364.1 379L364.2 378.8V378.6L363.2 375.4V380.1L362.5 380.3L360.1 376.4L361 379.6V379.8H361.7L361.9 380.4L359.8 381.1L359.6 380.3H359.8L360 380.2L360.1 380V379.7L359.2 376.7V376.5H358.5L358.3 375.8ZM369.1 373L371.9 372.5L372.9 372.4L373.5 372.6L374 373.1L374.3 373.7C374.367 374.167 374.267 374.567 374 374.9C373.667 375.3 373.2 375.567 372.6 375.7L371.6 375.8L371.9 376.8V377.1H372.6L372.7 377.8L370.1 378.3L370 377.6H370.2L370.5 377.5V377L370 374L369.9 373.8L369.8 373.7H369.3L369.1 373ZM371.2 373.5L371.5 375H372L372.6 374.7C372.733 374.633 372.8 374.533 372.8 374.4V373.9C372.8 373.7 372.7 373.533 372.5 373.4H371.2V373.5ZM374.9 372L378.2 371.5H378.9L379.6 371.6C379.867 371.733 380.067 371.9 380.2 372.1L380.4 372.7C380.467 373.167 380.367 373.533 380.1 373.8C379.833 374.067 379.5 374.267 379.1 374.4L380.4 375.6L380.7 375.8H381.4V376.6L379.7 376.8L377.7 374.7H377.3V375.8L377.5 376.2C377.633 376.267 377.767 376.267 377.9 376.2H378.1L378.2 377L375.6 377.3L375.5 376.6H375.7L376 376.5V376L375.7 373V372.8L375.5 372.7H375L374.9 371.9V372ZM376.9 372.6L377.2 374L378 373.9L378.7 373.7L379 373.4V373L378.9 372.6L378.5 372.4H377.9L376.9 372.6ZM384.7 370.8C385.567 370.8 386.267 371.033 386.8 371.5C387.333 372.033 387.667 372.7 387.8 373.5C387.8 374.033 387.667 374.533 387.4 375C387.2 375.4 386.867 375.733 386.4 376C386.067 376.267 385.567 376.433 384.9 376.5C384.1 376.5 383.433 376.3 382.9 375.9C382.233 375.433 381.9 374.767 381.9 373.9C381.9 373.033 382.133 372.333 382.6 371.8C383.133 371.2 383.8 370.867 384.6 370.8H384.7ZM384.7 371.8C384.3 371.8 383.967 371.933 383.7 372.2C383.433 372.6 383.333 373.133 383.4 373.8C383.4 374.4 383.567 374.867 383.9 375.2C384.167 375.467 384.5 375.6 384.9 375.6C385.3 375.6 385.633 375.433 385.9 375.1C386.167 374.7 386.267 374.2 386.2 373.6C386.2 373.133 386.133 372.8 386 372.6C385.867 372.267 385.667 372.033 385.4 371.9C385.2 371.767 384.967 371.7 384.7 371.7V371.8ZM388.8 370.8H392.6L393.2 371.2L393.6 371.8L393.7 372.4C393.7 372.867 393.533 373.267 393.2 373.6C392.867 373.933 392.367 374.1 391.7 374.1H390.7V375.1L390.8 375.3L390.9 375.4H391.4V376.2H388.8V375.4H389.3L389.4 375.3V371.5H388.8V370.8ZM390.8 371.7V373.2H391.9L392.2 372.9L392.3 372.4C392.3 372.133 392.2 371.933 392 371.8L391.4 371.7H390.8ZM394.7 370.8L398 371C398.267 371 398.5 371.067 398.7 371.2C398.967 371.2 399.2 371.3 399.4 371.5L399.9 372V372.7C399.9 373.1 399.767 373.433 399.5 373.7C399.167 373.9 398.8 374.033 398.4 374.1L399.4 375.5L399.6 375.7L399.8 375.8H400.1L400.3 375.9V376.6H398.5L396.9 374.1H396.5L396.4 375.1V375.5L396.5 375.6H397V376.4L394.3 376.2V375.5H394.9L395 375.4V375.1L395.3 372.1V371.8L395.2 371.7H394.8L394.6 371.6V370.8H394.7ZM396.7 371.8L396.5 373.3H398.1L398.4 373C398.533 372.933 398.6 372.833 398.6 372.7L398.5 372.3L398.2 372H397.5L396.6 371.8H396.7ZM401.5 371.3L404 371.7V372.4H403.4L403.2 372.8L402.9 375.8V376.2H403.2L403.5 376.3L403.4 377.1L400.8 376.7V376H401.4L401.5 375.7L401.9 372.7V372.2H401.6L401.3 372.1L401.4 371.3H401.5ZM407.1 372.1L408.3 372.3L409.2 376.8L409.3 377.2L409.7 377.3L409.6 378.1L407 377.6L407.1 376.9H407.6L407.7 376.8V376L406 375.7L405.7 376.2L405.6 376.4V376.5L405.7 376.6L406.1 376.7L406 377.5L403.9 377.1L404 376.4H404.3L404.5 376.3L404.7 376.1L407.1 372.1ZM406.4 375L407.4 375.2L407.2 373.6L406.4 375ZM411.5 373L413.9 373.5L414 377L415.8 374L418.2 374.6L418 375.3H417.5L417.3 375.6L416.6 378.6C416.533 378.733 416.533 378.8 416.6 378.8V379H416.8L417.1 379.1L416.9 379.9L414.4 379.2L414.6 378.5H415.2V378.3L416.1 375L413.7 379L413 378.9L412.8 374.3L412 377.5V377.9H412.3L412.6 378L412.4 378.7L410.2 378.2L410.4 377.5H411L411.2 377.2L411.9 374.2V373.8H411.7L411.4 373.7L411.6 372.9L411.5 373ZM422.5 376L425.2 377C425.533 377.067 425.8 377.2 426 377.4C426.2 377.533 426.333 377.7 426.4 377.9L426.6 378.5V379.2C426.4 379.667 426.067 380 425.6 380.2C425.2 380.333 424.7 380.267 424.1 380L423.2 379.7L422.9 380.7L422.8 380.9V381.1H423.1L423.3 381.3L423.1 382L420.6 381L420.9 380.4H421L421.3 380.5H421.5L421.6 380.2L422.6 377.3L422.7 377V376.9L422.4 376.8L422.2 376.7L422.5 376ZM424 377.5L423.5 378.9L423.9 379.1L424.5 379.2L424.9 379.1L425.2 378.7V378.1C425.067 377.9 424.867 377.767 424.6 377.7L424 377.5ZM428 378L431 379.4L431.7 379.7L432.2 380.2L432.5 380.9L432.3 381.6C432.167 381.933 431.9 382.167 431.5 382.3C431.167 382.433 430.8 382.433 430.4 382.3L430.9 384V384.3L431.1 384.5L431.3 384.6L431.5 384.7L431.2 385.4L429.7 384.7L429 381.8L428.6 381.7L428.2 382.7L428 383V383.1L428.3 383.3H428.5L428.2 384.1L425.8 383L426.1 382.3L426.3 382.4H426.8V382.1L428.1 379.3L428.2 379.1V379L428 378.8H427.7L428 378ZM429.5 379.6L428.9 380.9L429.6 381.3L430.3 381.5L430.8 381.4L431 381.1C431.067 380.967 431.067 380.833 431 380.7L430.9 380.3L430.3 380L429.5 379.6ZM437 382.2C437.733 382.6 438.233 383.133 438.5 383.8C438.7 384.533 438.6 385.267 438.2 386C437.933 386.467 437.6 386.833 437.2 387.1C436.8 387.367 436.333 387.5 435.8 387.5C435.333 387.5 434.833 387.367 434.3 387.1C433.633 386.7 433.167 386.2 432.9 385.6C432.567 384.867 432.633 384.1 433.1 383.3C433.5 382.567 434.033 382.1 434.7 381.9C435.433 381.633 436.2 381.733 437 382.2ZM436.6 382.9C436.2 382.7 435.867 382.7 435.6 382.9C435.067 383.1 434.667 383.467 434.4 384C434.133 384.533 434.033 385.033 434.1 385.5C434.167 385.9 434.367 386.2 434.7 386.4C435.1 386.533 435.467 386.533 435.8 386.4C436.267 386.2 436.6 385.867 436.8 385.4C437.067 384.933 437.2 384.567 437.2 384.3L437.1 383.5C436.967 383.233 436.8 383.033 436.6 382.9ZM441 384.3L441.5 384.6V384.8L444 386.4L444.2 386.3L444.6 386.5L444.2 388.5L443.4 388.3V387.6L443.3 387L443 386.7H442.9L442.7 386.8L441.1 389.5L440.9 389.8V389.9L441 390L441.4 390.3L441 390.9L438.7 389.5L439.1 388.9H439.3L439.6 389.1H439.7L439.9 388.8L441.6 386.1C441.667 385.967 441.667 385.9 441.6 385.9V385.8L441.1 385.7L440.5 385.8L439.9 386.2L439.5 385.6L441 384.3ZM445.9 387.6L449.6 390.2L449.1 392L448.4 391.8V391L448.2 390.4L447.7 390L447 389.5L446.2 390.5L446.4 390.7L446.8 390.9H447L447.3 390.6V390.5L448 390.9L446.6 392.7L446.1 392.3V392.1C446.233 392.033 446.3 391.933 446.3 391.8V391.6L446 391.3L445.8 391.2L445.1 392.2L444.9 392.4V392.5L445.1 392.7L445.5 392.9L446.3 393.3C446.567 393.367 446.833 393.367 447.1 393.3L447.9 392.9L448.3 393.5L446.6 394.8L442.7 392L443.2 391.4L443.6 391.7H443.8L444 391.4L445.7 389L445.9 388.7V388.6L445.7 388.4L445.5 388.2L445.9 387.6ZM452 395.4L454 397L453.5 397.6H453.4L453.1 397.4H453L452.8 397.6L451.8 398.9L451.1 398.4V398C450.833 398 450.6 397.933 450.4 397.8L449.7 397.3C449.3 397.033 449 396.667 448.8 396.2C448.667 395.733 448.667 395.267 448.8 394.8C448.8 394.333 449 393.867 449.4 393.4C449.733 393 450.133 392.733 450.6 392.6C451 392.4 451.433 392.333 451.9 392.4C452.433 392.467 452.867 392.667 453.2 393L453.7 393.5L454.1 394.1H454.3L454.7 394.4L454 396.1L453.3 395.8V394.8L453.2 394.2L452.8 393.8L452.2 393.5L451.4 393.7L450.6 394.3C450.333 394.633 450.167 394.967 450.1 395.3C449.967 395.633 449.967 395.967 450.1 396.3C450.1 396.5 450.2 396.667 450.4 396.8L450.9 397.1H451.4L451.7 396.9V396.7L451.9 396.5V396.4L451.7 396.1L451.5 396L452 395.4ZM457.8 397.1L458.8 398L457 402.1V402.6L457.2 402.9L456.7 403.5L454.7 401.7L455.3 401.2H455.4L455.7 401.4H455.8L456 401.1L456.2 400.6L455 399.6L454.4 399.8L454.2 399.9V400.2L454.5 400.4L454 401L452.5 399.5L453 399L453.2 399.2H453.4L453.7 399.1L457.8 397.1ZM455.8 399.1L456.5 399.9L457.1 398.4L455.7 399.1H455.8ZM461.4 400.3L461.8 400.7L461.7 400.8L463.7 403.1L464 403L464.3 403.3L463.4 405.1L462.7 404.8L462.9 404.1V403.5C462.9 403.3 462.833 403.167 462.7 403.1H462.4L460.2 405.3L459.9 405.6V405.8L460.2 406.1L459.7 406.7L457.9 404.7L458.4 404.2L458.5 404.3L458.8 404.6H458.9L459.2 404.3L461.5 402.1L461.6 402V401.9L461.2 401.7H460.5L459.9 401.8L459.6 401.1L461.4 400.3Z" fill="black"/>
<path d="M0.5 0H256.5V256H0.5V0Z" fill="#012169"/>
<path d="M256.5 0V32L161.5 128L256.5 221.5V256H223L127.5 162L34.5 256H0.5V222L93.5 128.5L0.5 37V0H31.5L127.5 94L220.5 0H256.5Z" fill="white"/>
<path d="M92.5 162L98 179L21.5 256H0.5V254.5L92.5 162ZM154.5 156L181.5 160L256.5 233.5V256L154.5 156ZM256.5 0L160.5 98L158.5 76L233.5 0H256.5ZM0.5 0.5L97 95L67.5 91L0.5 24.5V0.5Z" fill="#C8102E"/>
<path d="M88.5 0V256H168.5V0H88.5ZM0.5 88V168H256.5V88H0.5Z" fill="white"/>
<path d="M0.5 104V152H256.5V104H0.5ZM104.5 0V256H152.5V0H104.5Z" fill="#C8102E"/>
</g>
<defs>
<linearGradient id="paint0_linear_103_5915" x1="413.903" y1="177.225" x2="414.211" y2="157.095" gradientUnits="userSpaceOnUse">
<stop stop-color="#474747"/>
<stop offset="1" stop-color="#FF5500"/>
</linearGradient>
<linearGradient id="paint1_linear_103_5915" x1="407.056" y1="252.785" x2="407.091" y2="264.158" gradientUnits="userSpaceOnUse">
<stop stop-color="#B50000"/>
<stop offset="1" stop-color="#FFC500"/>
</linearGradient>
<linearGradient id="paint2_linear_103_5915" x1="456.981" y1="259.733" x2="475.556" y2="259.49" gradientUnits="userSpaceOnUse">
<stop stop-color="#D5DFFF"/>
<stop offset="1" stop-color="white"/>
</linearGradient>
<linearGradient id="paint3_linear_103_5915" x1="410.363" y1="173.406" x2="417.053" y2="173.406" gradientUnits="userSpaceOnUse">
<stop stop-color="#474747"/>
<stop offset="1" stop-color="#FF5500"/>
</linearGradient>
<linearGradient id="paint4_linear_103_5915" x1="507.149" y1="353.144" x2="503.894" y2="332.913" gradientUnits="userSpaceOnUse">
<stop stop-color="#D5DFFF"/>
<stop offset="1" stop-color="white"/>
</linearGradient>
<linearGradient id="paint5_linear_103_5915" x1="461.482" y1="266.666" x2="453.181" y2="253.279" gradientUnits="userSpaceOnUse">
<stop stop-color="#D5DFFF"/>
<stop offset="1" stop-color="white"/>
</linearGradient>
<clipPath id="clip0_103_5915">
<rect width="512" height="512" fill="white" transform="translate(0.5)"/>
</clipPath>
</defs>
</svg>
