<svg width="513" height="512" viewBox="0 0 513 512" fill="none" xmlns="http://www.w3.org/2000/svg">
<g clip-path="url(#clip0_103_6027)">
<path d="M0.5 0H512.5V512H0.5V0Z" fill="#4997D0"/>
<path d="M171.2 0H341.8V512H171.2V0Z" fill="white"/>
<path d="M236.818 311.781C238.725 311.493 239.785 310.918 241.056 310.486M242.681 307.536C243.619 308.494 244.342 309.648 244.799 310.918M239.078 307.249C239.976 308.101 240.696 309.129 241.197 310.27M206.235 211.997C205.529 213.149 204.117 213.94 202.845 214.443M202.633 214.3C202.633 213.292 202.492 212.141 202.633 211.134M201.291 214.731C201.291 215.019 201.574 215.738 201.715 216.17M203.198 216.89L201.786 217.105M198.961 216.458C198.961 218.328 199.172 220.487 199.314 222.141M198.042 221.422C198.396 221.997 198.749 222.501 199.172 222.789M195.923 227.465C196.277 228.112 196.63 228.904 196.842 230.343M199.455 226.961L198.042 228.041M199.243 231.206C198.537 231.853 197.689 232.285 196.771 232.717M194.087 261.781C194.804 263.084 195.764 264.233 196.912 265.163M197.336 266.386C196.59 266.292 195.869 266.047 195.217 265.666M198.325 271.781L199.526 272.501M199.243 274.947C200.091 275.522 201.009 276.601 201.856 277.752M200.868 279.767C201.856 279.983 202.633 280.27 203.128 280.486M202.421 282.285H203.834M204.752 278.472L204.399 281.493M205.105 282.644L205.388 281.493M208.707 285.81L208.637 288.112M236.324 308.184L235.476 309.335M233.781 306.529L233.287 305.234" stroke="#24420E" stroke-width="0.285132"/>
<path d="M260.832 317.177C260.248 316.321 259.441 315.649 258.502 315.234C253.063 312.357 247.625 310.99 241.55 309.983C240.067 309.767 238.655 308.4 237.171 307.68C233.64 306.026 229.755 305.378 226.365 303.58C226.153 303.508 225.306 303.004 224.952 302.501C223.54 300.918 221.068 300.414 219.585 298.903C213.652 293.292 207.436 288.112 204.187 280.558C200.232 271.422 195.358 261.997 195.994 251.638C196.418 245.019 195.5 238.4 197.054 232.213C199.455 222.861 202.421 213.724 207.931 206.026L207.012 206.602C201.782 214.519 198.09 223.384 196.135 232.717C194.511 238.976 195.429 245.666 195.076 252.141C194.37 262.573 199.314 271.997 203.198 281.134C206.447 288.616 212.733 293.868 218.596 299.551C220.15 300.99 222.551 301.493 223.964 303.148C224.388 303.567 224.863 303.929 225.376 304.227C228.837 305.954 232.722 306.601 236.253 308.328C237.666 309.047 239.078 310.342 240.491 310.63C246.431 311.38 252.207 313.131 257.583 315.81C258.519 316.231 259.324 316.902 259.914 317.752L260.832 317.105" fill="#406325"/>
<path d="M260.832 317.177C260.248 316.321 259.441 315.649 258.502 315.234C253.063 312.357 247.625 310.99 241.55 309.983C240.067 309.767 238.655 308.4 237.171 307.68C233.64 306.026 229.755 305.378 226.365 303.58C226.153 303.508 225.306 303.004 224.952 302.501C223.54 300.918 221.068 300.414 219.585 298.903C213.652 293.292 207.436 288.112 204.187 280.558C200.232 271.422 195.358 261.997 195.994 251.638C196.418 245.019 195.5 238.4 197.054 232.213C199.455 222.861 202.421 213.724 207.931 206.026L207.012 206.602C201.782 214.519 198.09 223.384 196.135 232.717C194.511 238.976 195.429 245.666 195.076 252.141C194.37 262.573 199.314 271.997 203.198 281.134C206.447 288.616 212.733 293.868 218.596 299.551C220.15 300.99 222.551 301.493 223.964 303.148C224.388 303.567 224.863 303.929 225.376 304.227C228.837 305.954 232.722 306.601 236.253 308.328C237.666 309.047 239.078 310.342 240.491 310.63C246.431 311.38 252.207 313.131 257.583 315.81C258.519 316.231 259.324 316.902 259.914 317.752L260.832 317.105" stroke="#24420E" stroke-width="0.142566"/>
<path d="M204.47 278.76C203.015 273.228 202.966 267.41 204.328 261.853C209.061 271.206 207.507 278.904 204.47 278.76ZM236.889 311.421C231.13 312.766 225.805 315.589 221.421 319.623C232.086 319.695 238.372 314.371 236.889 311.421ZM242.186 308.328C237.362 302.925 233.961 296.367 232.298 289.263C242.892 297.105 245.647 306.745 242.186 308.328Z" fill="#67923D" stroke="#24420E" stroke-width="0.142566"/>
<path d="M238.584 308.4C233.5 304.008 229.609 298.36 227.283 291.997C238.09 297.896 241.621 306.529 238.584 308.4ZM227.566 303.508C228.272 297.896 223.61 286.098 222.268 284.803C220.15 296.673 224.387 304.659 227.566 303.508ZM208.284 286.026C207.143 281.041 207.265 275.842 208.637 270.918C212.522 279.335 210.968 286.17 208.284 286.026ZM198.607 230.774C202.474 225.678 207.589 221.708 213.44 219.264C208.637 229.767 200.726 233.58 198.607 230.774Z" fill="#67923D" stroke="#24420E" stroke-width="0.142566"/>
<path d="M199.102 226.746C201.904 220.945 206.139 215.986 211.391 212.357C208.778 223.652 201.715 229.048 199.102 226.746ZM218.808 298.112C215.544 292.325 213.77 285.792 213.652 279.119C221.562 288.112 222.127 297.321 218.737 298.112H218.808ZM198.537 271.853C193.593 272.645 183.422 268.544 182.292 267.321C192.604 265.019 199.526 268.76 198.537 271.853ZM196.983 264.875C197.548 260.918 203.057 253.508 204.258 252.932C203.552 261.566 199.031 266.314 196.983 264.875ZM233.216 307.033C226.336 308.594 219.98 311.968 214.782 316.817C227.495 316.889 235.052 310.558 233.216 307.033Z" fill="#67923D" stroke="#24420E" stroke-width="0.142566"/>
<path d="M204.54 278.688C207.507 278.832 209.061 271.206 204.328 261.853C205.22 267.423 205.292 273.097 204.54 278.688ZM212.451 293.076C208.095 289.111 202.821 286.338 197.124 285.019C203.41 293.724 211.18 295.882 212.451 293.076ZM195.217 254.947C193.213 248.388 189.618 242.45 184.764 237.681C185.823 250.055 192.251 256.889 195.217 254.947ZM201.15 279.623C197.619 276.961 187.73 275.738 186.318 276.17C193.522 282.213 200.585 282.285 201.15 279.623ZM194.511 261.781C191.46 257.459 187.342 254.034 182.574 251.853C186.459 260.774 192.886 264.084 194.511 261.709V261.781ZM196.488 227.537C197.054 222.069 192.533 210.703 191.262 209.408C189.214 220.918 193.31 228.616 196.418 227.537H196.488ZM199.596 216.818C201.503 212.141 200.161 200.703 199.243 199.264C194.723 208.976 196.559 216.962 199.596 216.818Z" fill="#406325" stroke="#24420E" stroke-width="0.142566"/>
<path d="M203.128 211.278C205.073 206.906 205.923 202.11 205.6 197.321C200.514 204.3 200.656 210.918 203.128 211.278ZM207.366 206.89C210.501 203.339 212.689 199.029 213.722 194.372C206.871 199.408 205.105 205.739 207.366 206.89ZM195.994 237.969C196.065 238.616 195.288 232.069 188.931 224.803C189.214 235.451 193.31 239.479 195.994 237.969ZM219.019 299.695C213.402 296.708 207.132 295.223 200.797 295.378C209.696 302.86 218.384 303.004 219.019 299.695ZM227.566 303.508C224.317 304.587 220.15 296.673 222.198 284.803C223.115 291.255 224.897 297.549 227.495 303.508H227.566ZM236.959 311.421C238.372 314.371 232.157 319.695 221.562 319.623C230.038 316.026 236.536 312.5 236.959 311.493V311.421ZM242.115 308.256C245.576 306.601 242.892 297.105 232.227 289.263C238.301 298.76 242.469 306.961 242.115 308.256Z" fill="#406325" stroke="#24420E" stroke-width="0.142566"/>
<path d="M238.584 308.328C241.55 306.385 238.09 297.896 227.283 291.997C233.993 300.054 238.725 307.105 238.584 308.328ZM208.354 286.026C210.968 286.17 212.592 279.335 208.707 270.918C209.202 278.832 208.99 285.306 208.354 286.026ZM198.607 230.846C200.726 233.58 208.496 229.839 213.369 219.336C209.025 223.884 204.052 227.762 198.607 230.846Z" fill="#406325" stroke="#24420E" stroke-width="0.142566"/>
<path d="M199.243 226.746C201.786 229.048 208.778 223.652 211.391 212.357C205.741 220.487 200.373 226.602 199.243 226.746ZM218.808 298.04C222.127 297.249 221.633 288.112 213.652 279.119C217.183 288.832 219.302 296.961 218.808 298.04ZM198.396 271.853C199.384 268.76 192.533 265.091 182.292 267.321C190.979 268.904 197.83 270.918 198.396 271.853ZM197.054 264.947C199.102 266.242 203.481 261.566 204.328 252.932C202.481 257.272 200.031 261.318 197.054 264.947ZM233.216 307.105C234.982 310.702 227.566 316.961 214.852 316.889C224.882 312.644 232.722 308.4 233.216 307.105Z" fill="#406325" stroke="#24420E" stroke-width="0.142566"/>
<path d="M199.596 274.947C196.638 270.154 192.498 266.234 187.589 263.58C191.121 273.364 197.619 277.321 199.596 274.947Z" fill="#406325" stroke="#24420E" stroke-width="0.142566"/>
<path d="M194.652 237.321C197.477 233.94 207.012 230.702 208.496 230.846C202.845 238.4 195.782 239.911 194.652 237.321ZM212.38 293.076C211.109 295.954 203.41 293.796 197.054 285.091C201.756 288.494 206.919 291.184 212.38 293.076ZM195.147 254.947C192.18 256.889 185.894 250.055 184.764 237.681C189.425 247.249 193.946 254.587 195.147 254.947ZM201.079 279.623C200.585 282.285 193.522 282.213 186.388 276.242C191.099 278.085 196.048 279.224 201.079 279.623ZM194.37 261.709C192.745 264.012 186.459 260.774 182.574 251.853C188.366 257.609 193.522 261.709 194.44 261.709H194.37ZM196.347 227.465C193.24 228.616 189.214 220.99 191.191 209.479C193.098 219.192 195.429 226.889 196.347 227.465ZM199.526 216.746C196.488 216.961 194.652 208.976 199.172 199.264C198.607 208.472 198.819 216.026 199.526 216.746ZM203.057 211.278C200.656 210.846 200.444 204.3 205.6 197.321C204.072 201.818 203.215 206.523 203.057 211.278ZM207.295 206.89C205.105 205.667 206.8 199.408 213.652 194.444C210.941 198.25 208.799 202.444 207.295 206.89Z" fill="#67923D" stroke="#24420E" stroke-width="0.142566"/>
<path d="M195.994 237.968C193.24 239.479 189.214 235.451 188.931 224.803C192.463 233.22 195.005 237.609 195.994 237.968ZM218.949 299.695C218.313 303.004 209.696 302.86 200.797 295.45C210.12 298.544 217.96 300.27 218.949 299.695ZM213.157 292.86C210.491 288.727 208.888 283.977 208.496 279.047C214.852 285.306 215.7 292.069 213.298 292.86H213.157ZM201.291 274.875C198.749 270.702 198.466 259.839 199.172 258.328C205.035 266.889 204.328 274.659 201.291 274.875ZM199.384 274.947C197.477 277.321 190.979 273.436 187.518 263.58C190.893 267.952 194.893 271.783 199.384 274.947Z" fill="#67923D" stroke="#24420E" stroke-width="0.142566"/>
<path d="M194.652 237.321C195.782 239.911 202.704 238.4 208.425 230.918C199.949 235.81 196.63 237.969 194.652 237.321ZM201.221 274.731C204.258 274.515 204.964 266.817 199.102 258.328C200.665 263.67 201.381 269.231 201.221 274.803V274.731ZM213.228 292.86C215.629 292.141 214.782 285.306 208.496 279.047C211.603 286.026 213.581 291.997 213.228 292.86Z" fill="#406325" stroke="#24420E" stroke-width="0.142566"/>
<path d="M195.923 250.127C197.336 244.084 194.723 233.868 192.886 231.71C189.567 242.789 192.745 250.846 195.923 250.127Z" fill="#406325" stroke="#24420E" stroke-width="0.142566"/>
<path d="M195.782 251.566C191.544 252.501 189.637 242.933 192.886 232.069C193.593 241.782 194.864 250.846 195.712 251.494L195.782 251.566Z" fill="#67923D" stroke="#24420E" stroke-width="0.142566"/>
<path d="M194.864 251.494C195.484 245.121 197.67 239.009 201.221 233.724C202.633 245.091 198.042 252.645 194.864 251.494Z" fill="#67923D" stroke="#24420E" stroke-width="0.142566"/>
<path d="M194.935 251.422C198.113 252.573 202.633 245.091 201.221 233.724C198.749 243.292 195.923 250.846 194.935 251.422Z" fill="#406325" stroke="#24420E" stroke-width="0.142566"/>
<path d="M195.853 258.4C196.831 252.144 199.414 246.263 203.34 241.35C203.905 253.004 198.89 259.983 195.853 258.4Z" fill="#67923D" stroke="#24420E" stroke-width="0.142566"/>
<path d="M195.923 258.472C198.89 260.055 203.905 253.148 203.34 241.566C200.232 250.774 196.983 258.04 195.923 258.472Z" fill="#406325" stroke="#24420E" stroke-width="0.142566"/>
<path d="M197.76 221.782C198.189 221.782 198.537 221.427 198.537 220.99C198.537 220.553 198.189 220.199 197.76 220.199C197.331 220.199 196.983 220.553 196.983 220.99C196.983 221.427 197.331 221.782 197.76 221.782Z" fill="#BA1F3E" stroke="#511124" stroke-width="0.142566"/>
<path d="M203.693 217.321C204.122 217.321 204.47 216.967 204.47 216.53C204.47 216.093 204.122 215.739 203.693 215.739C203.264 215.739 202.916 216.093 202.916 216.53C202.916 216.967 203.264 217.321 203.693 217.321Z" fill="#BA1F3E" stroke="#511124" stroke-width="0.142566"/>
<path d="M201.15 214.875C201.579 214.875 201.927 214.521 201.927 214.084C201.927 213.647 201.579 213.292 201.15 213.292C200.721 213.292 200.373 213.647 200.373 214.084C200.373 214.521 200.721 214.875 201.15 214.875Z" fill="#BA1F3E" stroke="#511124" stroke-width="0.142566"/>
<path d="M194.723 266.386C195.23 266.386 195.641 265.967 195.641 265.45C195.641 264.934 195.23 264.515 194.723 264.515C194.216 264.515 193.805 264.934 193.805 265.45C193.805 265.967 194.216 266.386 194.723 266.386Z" fill="#BA1F3E" stroke="#511124" stroke-width="0.142566"/>
<path d="M196.488 254.875C196.996 254.875 197.407 254.456 197.407 253.94C197.407 253.423 196.996 253.004 196.488 253.004C195.981 253.004 195.57 253.423 195.57 253.94C195.57 254.456 195.981 254.875 196.488 254.875Z" fill="#BA1F3E" stroke="#511124" stroke-width="0.142566"/>
<path d="M205.812 281.781C206.319 281.781 206.73 281.363 206.73 280.846C206.73 280.329 206.319 279.911 205.812 279.911C205.305 279.911 204.893 280.329 204.893 280.846C204.893 281.363 205.305 281.781 205.812 281.781Z" fill="#BA1F3E" stroke="#511124" stroke-width="0.142566"/>
<path d="M201.715 283.148C202.222 283.148 202.633 282.729 202.633 282.213C202.633 281.696 202.222 281.278 201.715 281.278C201.208 281.278 200.797 281.696 200.797 282.213C200.797 282.729 201.208 283.148 201.715 283.148Z" fill="#BA1F3E" stroke="#511124" stroke-width="0.142566"/>
<path d="M233.004 305.594C233.511 305.594 233.922 305.175 233.922 304.659C233.922 304.142 233.511 303.724 233.004 303.724C232.497 303.724 232.086 304.142 232.086 304.659C232.086 305.175 232.497 305.594 233.004 305.594Z" fill="#BA1F3E" stroke="#511124" stroke-width="0.142566"/>
<path d="M235.052 310.702C235.56 310.702 235.971 310.283 235.971 309.767C235.971 309.25 235.56 308.831 235.052 308.831C234.545 308.831 234.134 309.25 234.134 309.767C234.134 310.283 234.545 310.702 235.052 310.702Z" fill="#BA1F3E" stroke="#511124" stroke-width="0.142566"/>
<path d="M313.805 226.53C314.299 226.961 314.653 227.105 315.429 227.897M310.768 214.3C310.768 213.292 310.344 211.638 310.132 210.703M312.604 212.861C312.604 214.228 312.392 215.523 311.827 216.746M308.861 216.386C310.132 217.537 311.333 218.544 312.604 219.192M315.288 220.055C315.359 221.494 315.218 222.933 314.794 224.371M315.076 225.451L315.994 223.796M314.652 232.573C315.641 232.789 316.63 234.012 317.125 235.091M317.478 234.156L318.608 232.573M319.808 254.731C319.314 255.595 318.747 256.413 318.113 257.177M315.288 257.177C315.853 258.184 316.418 259.335 317.125 260.055M318.89 264.299C318.063 265.495 316.975 266.48 315.712 267.177M315.853 270.414C315.076 270.99 314.087 272.573 313.24 273.796M319.173 259.263L317.69 259.911M316.701 254.587L317.548 255.307M310.98 282.213H309.567M308.084 280.918L308.508 282.069M303.14 285.738C302.928 287.105 303.069 288.4 303.21 289.767M306.248 283.292L306.954 284.875M309.708 284.803L307.943 285.019M286.189 303.22L285.482 304.515M293.887 301.637C292.828 301.781 291.91 301.637 290.991 301.493M287.107 305.81C286.4 305.45 285.694 305.306 284.988 305.09M274.605 307.033C273.97 307.536 273.193 308.759 272.486 309.911M272.063 306.673C270.367 307.608 269.802 309.335 268.955 310.846M270.933 312.86C269.802 312.572 268.531 311.997 267.189 311.421M278.984 310.918C277.36 310.054 275.665 310.198 273.97 309.911M281.598 309.623C278.984 309.119 276.654 309.191 274.323 309.551M279.832 307.68L278.843 307.249M274.888 311.205L273.263 310.27M314.158 274.875C313.311 275.45 312.392 276.529 311.545 277.681M312.816 220.415L311.262 219.839" stroke="#24420E" stroke-width="0.285132"/>
<path d="M252.569 317.105C253.134 316.169 254.052 315.666 254.9 315.162C260.338 312.285 265.777 310.99 271.851 309.982C273.334 309.695 274.747 308.328 276.23 307.68C279.761 305.954 283.646 305.306 287.036 303.58C287.248 303.436 288.096 302.932 288.449 302.429C289.861 300.846 292.333 300.342 293.817 298.831C299.75 293.22 305.965 288.04 309.214 280.486C313.169 271.35 318.043 261.925 317.407 251.566C316.983 244.947 317.901 238.328 316.348 232.141C314.389 222.788 310.697 213.9 305.471 205.954L306.389 206.53C311.628 214.469 315.32 223.359 317.266 232.717C318.89 238.904 317.972 245.594 318.325 252.141C319.032 262.501 314.087 271.925 310.203 281.134C306.954 288.616 300.668 293.796 294.805 299.479C293.252 300.918 290.85 301.421 289.438 303.076C289.013 303.495 288.538 303.857 288.025 304.155C284.564 305.882 280.679 306.601 277.148 308.256C275.735 308.975 274.323 310.27 272.91 310.558C266.97 311.308 261.194 313.059 255.818 315.738C254.883 316.159 254.077 316.83 253.487 317.68L252.569 317.105Z" fill="#406325" stroke="#24420E" stroke-width="0.142566"/>
<path d="M308.508 280.918C310.485 275.594 308.508 263.076 307.519 261.494C302.787 272.573 305.117 281.35 308.508 280.918Z" fill="#406325" stroke="#24420E" stroke-width="0.142566"/>
<path d="M303.493 285.954C305.117 281.925 303.987 272.069 303.21 270.846C299.326 279.263 300.88 286.17 303.493 285.954ZM315.429 232.645C311.866 227.989 307.166 224.367 301.798 222.141C306.177 231.71 313.452 235.235 315.429 232.645Z" fill="#406325" stroke="#24420E" stroke-width="0.142566"/>
<path d="M314.299 226.889C311.964 222.049 308.435 217.909 304.058 214.875C306.248 224.228 312.11 228.76 314.299 226.889ZM317.619 237.609C315.147 234.731 306.883 231.925 305.612 232.069C310.556 238.544 316.63 239.911 317.619 237.609ZM315.641 270.99C320.695 270.954 325.646 269.538 329.979 266.889C320.868 264.875 314.794 268.256 315.641 270.99ZM315.5 266.889C315.5 262.86 311.05 254.803 309.85 253.94C309.497 262.573 313.311 267.968 315.5 266.889Z" fill="#406325" stroke="#24420E" stroke-width="0.142566"/>
<path d="M315.853 257.033C314.863 250.803 312.281 244.947 308.366 240.055C307.801 251.709 312.816 258.616 315.853 257.033ZM278.419 311.205C282.87 315.204 288.279 317.934 294.099 319.119C287.884 310.27 279.903 308.256 278.49 311.205H278.419Z" fill="#406325" stroke="#24420E" stroke-width="0.142566"/>
<path d="M308.508 280.774C305.047 281.206 302.787 272.573 307.519 261.494C307.166 271.709 307.66 279.983 308.508 280.774ZM270.791 312.141C276.546 313.535 281.865 316.38 286.259 320.414C275.594 320.486 269.308 315.162 270.721 312.213L270.791 312.141ZM270.791 306.457C272.204 300.702 281.386 291.206 283.152 290.558C280.609 302.86 273.475 308.903 270.791 306.457ZM285.835 303.508C286.014 296.916 287.837 290.479 291.133 284.803C293.252 296.601 289.014 304.587 285.835 303.508ZM301.021 293.004C305.357 289.049 310.605 286.277 316.277 284.947C309.991 293.652 302.292 295.81 300.95 293.004H301.021ZM319.173 254.659C319.879 250.127 326.024 241.781 327.366 241.062C326.518 250.846 321.504 256.17 319.173 254.731V254.659Z" fill="#67923D" stroke="#24420E" stroke-width="0.142566"/>
<path d="M310.909 282.069C316.237 279.299 322.163 277.938 328.143 278.112C319.808 285.091 311.545 285.162 310.909 282.069ZM318.184 264.443C321.384 259.93 325.696 256.357 330.685 254.083C326.589 263.436 319.879 266.889 318.184 264.443ZM317.125 231.638C317.125 226.17 322.775 215.307 324.188 214.228C324.964 225.81 320.162 233.076 317.125 231.638ZM312.251 213.005C311.044 208.29 311.02 203.343 312.18 198.616C316.065 206.458 314.794 213.005 312.18 213.005H312.251Z" fill="#67923D" stroke="#24420E" stroke-width="0.142566"/>
<path d="M309.214 211.422C305.505 206.827 302.98 201.362 301.868 195.523C310.203 202.213 312.039 210.199 309.214 211.422ZM317.478 236.242C317.266 236.889 319.597 230.702 327.507 225.235C324.682 235.522 319.738 238.4 317.478 236.242ZM293.393 300.918C299.767 297.59 306.856 295.933 314.017 296.098C303.987 304.587 294.099 304.731 293.393 300.918ZM303.493 285.954C300.88 286.098 299.255 279.263 303.14 270.846C302.645 278.76 302.857 285.234 303.493 285.954ZM315.429 232.645C313.522 235.235 306.248 231.781 301.868 222.141C305.833 226.331 310.407 229.873 315.429 232.645ZM314.229 226.889C312.039 228.76 306.248 224.3 304.058 214.875C308.79 221.638 313.24 226.746 314.229 226.889ZM317.619 237.681C316.63 239.911 310.627 238.616 305.682 232.141C313.028 236.386 315.924 238.184 317.69 237.681H317.619ZM315.783 270.918C314.864 268.184 320.939 264.947 330.05 266.961C325.124 267.533 320.313 268.868 315.783 270.918ZM315.5 266.889C313.24 267.968 309.497 262.645 309.85 254.012C311.113 258.582 313.016 262.943 315.5 266.961V266.889Z" fill="#67923D" stroke="#24420E" stroke-width="0.142566"/>
<path d="M315.783 257.177C312.746 258.76 307.801 251.853 308.366 240.271C311.474 249.479 314.723 256.745 315.783 257.177ZM278.561 311.205C279.973 308.184 287.813 310.198 294.099 318.975C286.33 314.155 279.62 310.846 278.561 311.205Z" fill="#67923D" stroke="#24420E" stroke-width="0.142566"/>
<path d="M285.835 303.364C289.084 304.515 293.252 296.601 291.203 284.731C289.226 294.803 286.824 302.788 285.835 303.436V303.364Z" fill="#406325" stroke="#24420E" stroke-width="0.142566"/>
<path d="M293.11 299.623C295.784 293.531 296.902 286.849 296.359 280.198C289.296 289.983 289.72 299.119 293.11 299.623ZM270.721 312.213C269.308 315.162 275.453 320.486 286.118 320.342C277.642 316.889 271.144 313.292 270.721 312.213ZM270.862 306.385C273.546 308.831 280.609 302.86 283.152 290.558C277.43 299.479 272.063 306.241 270.862 306.385ZM301.021 293.004C302.292 295.882 309.991 293.724 316.348 285.019C311.645 288.422 306.482 291.112 301.021 293.004ZM319.243 254.659C321.574 256.17 326.518 250.846 327.366 241.134C325.329 246.026 322.592 250.584 319.243 254.659ZM310.909 282.069C311.615 285.234 319.738 285.091 328.143 278.112C319.314 280.99 311.898 282.573 310.98 282.069H310.909ZM318.255 264.371C320.02 266.817 326.66 263.364 330.756 254.012C327.132 258.094 322.916 261.588 318.255 264.371ZM317.266 231.566C320.232 233.004 325.035 225.81 324.188 214.3C321.362 223.652 318.255 231.062 317.195 231.566H317.266ZM312.322 212.933C314.794 213.005 316.136 206.458 312.18 198.544C312.887 206.098 312.887 212.285 312.322 212.933ZM309.285 211.35C312.11 210.127 310.273 202.213 301.939 195.523C305.15 200.395 307.626 205.73 309.285 211.35ZM317.478 236.314C319.738 238.472 324.682 235.594 327.507 225.235C321.998 232.501 318.537 236.17 317.478 236.314ZM293.463 300.99C294.17 304.731 303.987 304.587 313.946 296.17C303.422 299.623 294.594 301.637 293.463 300.99Z" fill="#406325" stroke="#24420E" stroke-width="0.142566"/>
<path d="M298.266 295.45C300.298 290.926 301.172 285.951 300.809 280.99C295.512 288.184 295.724 295.018 298.266 295.378V295.45ZM312.11 274.803C314.652 270.702 314.935 259.767 314.229 258.256C308.366 266.817 309.073 274.587 312.11 274.803Z" fill="#406325" stroke="#24420E" stroke-width="0.142566"/>
<path d="M293.11 299.551C289.72 299.119 289.367 289.983 296.289 280.27C293.746 290.198 292.475 298.544 293.11 299.551ZM317.972 250.415C317.266 244.803 320.797 235.954 322.634 234.228C324.47 244.587 320.727 251.494 317.972 250.415ZM298.266 295.378C295.724 295.019 295.512 288.184 300.809 280.99C299.252 285.628 298.395 290.479 298.266 295.378ZM314.794 220.415C313.24 216.098 314.794 206.026 315.641 204.731C319.385 213.508 317.478 220.631 314.794 220.415ZM273.758 306.817C275.523 301.062 285.2 291.709 287.036 290.99C283.999 303.58 276.442 309.407 273.758 306.817ZM312.322 276.889C315.26 272.105 319.375 268.187 324.258 265.522C320.727 275.306 314.229 279.263 312.251 276.889H312.322ZM312.18 274.731C309.143 274.443 308.437 266.817 314.299 258.256C312.736 263.598 312.02 269.159 312.18 274.731Z" fill="#67923D" stroke="#24420E" stroke-width="0.142566"/>
<path d="M317.972 251.709C321.645 253.076 324.329 244.659 322.634 234.515C321.807 240.449 320.24 246.251 317.972 251.781V251.709Z" fill="#406325" stroke="#24420E" stroke-width="0.142566"/>
<path d="M318.537 251.422C318.89 246.026 313.593 234.875 312.18 233.652C310.768 245.019 315.359 252.573 318.537 251.422ZM314.794 220.343C317.548 220.631 319.385 213.58 315.641 204.731C315.924 213.005 315.5 219.695 314.794 220.343ZM273.828 306.745C276.512 309.407 283.999 303.58 287.036 291.062C280.821 299.911 275.029 306.601 273.828 306.745ZM312.392 276.889C314.37 279.263 320.868 275.378 324.399 265.522C320.981 269.905 316.933 273.737 312.392 276.889Z" fill="#406325" stroke="#24420E" stroke-width="0.142566"/>
<path d="M318.466 251.35C315.288 252.573 310.768 245.091 312.18 233.724C314.652 243.22 317.478 250.774 318.466 251.35Z" fill="#67923D" stroke="#24420E" stroke-width="0.142566"/>
<path d="M316.277 224.372C316.706 224.372 317.054 224.017 317.054 223.58C317.054 223.143 316.706 222.789 316.277 222.789C315.848 222.789 315.5 223.143 315.5 223.58C315.5 224.017 315.848 224.372 316.277 224.372Z" fill="#BA1F3E" stroke="#511124" stroke-width="0.142566"/>
<path d="M318.961 232.933C319.39 232.933 319.738 232.578 319.738 232.141C319.738 231.704 319.39 231.35 318.961 231.35C318.532 231.35 318.184 231.704 318.184 232.141C318.184 232.578 318.532 232.933 318.961 232.933Z" fill="#BA1F3E" stroke="#511124" stroke-width="0.142566"/>
<path d="M319.95 260.055C320.457 260.055 320.868 259.636 320.868 259.119C320.868 258.603 320.457 258.184 319.95 258.184C319.443 258.184 319.032 258.603 319.032 259.119C319.032 259.636 319.443 260.055 319.95 260.055Z" fill="#BA1F3E" stroke="#511124" stroke-width="0.142566"/>
<path d="M316.277 255.019C316.784 255.019 317.195 254.6 317.195 254.084C317.195 253.567 316.784 253.148 316.277 253.148C315.77 253.148 315.359 253.567 315.359 254.084C315.359 254.6 315.77 255.019 316.277 255.019Z" fill="#BA1F3E" stroke="#511124" stroke-width="0.142566"/>
<path d="M305.894 283.724C306.401 283.724 306.813 283.305 306.813 282.788C306.813 282.272 306.401 281.853 305.894 281.853C305.387 281.853 304.976 282.272 304.976 282.788C304.976 283.305 305.387 283.724 305.894 283.724Z" fill="#BA1F3E" stroke="#511124" stroke-width="0.142566"/>
<path d="M310.344 285.666C310.851 285.666 311.262 285.247 311.262 284.731C311.262 284.214 310.851 283.796 310.344 283.796C309.837 283.796 309.426 284.214 309.426 284.731C309.426 285.247 309.837 285.666 310.344 285.666Z" fill="#BA1F3E" stroke="#511124" stroke-width="0.142566"/>
<path d="M280.397 308.975C280.904 308.975 281.315 308.556 281.315 308.04C281.315 307.523 280.904 307.105 280.397 307.105C279.89 307.105 279.479 307.523 279.479 308.04C279.479 308.556 279.89 308.975 280.397 308.975Z" fill="#BA1F3E" stroke="#511124" stroke-width="0.142566"/>
<path d="M275.453 312.572C275.96 312.572 276.371 312.154 276.371 311.637C276.371 311.121 275.96 310.702 275.453 310.702C274.946 310.702 274.535 311.121 274.535 311.637C274.535 312.154 274.946 312.572 275.453 312.572Z" fill="#BA1F3E" stroke="#511124" stroke-width="0.142566"/>
<path d="M310.98 220.343C311.409 220.343 311.757 219.988 311.757 219.551C311.757 219.114 311.409 218.76 310.98 218.76C310.551 218.76 310.203 219.114 310.203 219.551C310.203 219.988 310.551 220.343 310.98 220.343Z" fill="#BA1F3E" stroke="#511124" stroke-width="0.142566"/>
<path d="M224.246 282.141C224.105 282.86 224.811 283.796 225.659 283.58C226.012 283.58 226.153 283.22 225.8 283.22C225.517 283.364 225.164 283.22 224.952 283.004C224.783 282.812 224.667 282.577 224.618 282.324C224.568 282.071 224.586 281.809 224.67 281.565L224.246 282.141Z" fill="#8C959D" stroke="#485654" stroke-width="0.071283"/>
<path d="M226.294 283.58C225.588 284.443 224.529 284.803 223.893 284.227C223.469 283.796 223.328 283.364 223.54 282.788L222.833 283.724C222.833 283.724 223.257 284.659 223.964 285.019C224.882 285.378 226.082 284.803 226.789 283.868C227.354 283.148 227.919 282.141 227.495 281.278C227.173 280.72 226.675 280.289 226.082 280.055L225.376 280.774C225.729 280.63 226.224 280.774 226.577 281.062C227.495 281.781 227.001 282.86 226.294 283.58Z" fill="#8C959D"/>
<path d="M226.294 283.58C226.082 283.867 225.818 284.111 225.517 284.299C225.164 284.443 224.811 284.587 224.458 284.515C224.272 284.512 224.094 284.435 223.964 284.299C223.879 284.255 223.805 284.194 223.744 284.12C223.683 284.046 223.638 283.96 223.61 283.868C223.469 283.724 223.469 283.58 223.399 283.364C223.399 283.148 223.399 283.004 223.54 282.788L223.61 282.86L222.833 283.796V283.724L223.54 284.659L224.034 284.947L224.599 285.019C225.002 285.011 225.394 284.886 225.729 284.659C226.082 284.515 226.436 284.227 226.648 283.939L227.354 282.932C227.495 282.573 227.636 282.213 227.566 281.781C227.566 281.565 227.566 281.422 227.424 281.206C227.101 280.693 226.634 280.292 226.082 280.055H226.153L225.447 280.846H225.376C225.517 280.702 225.729 280.702 225.871 280.702L226.436 280.846C226.718 281.062 227.001 281.35 227.071 281.709C227.142 282.069 227.071 282.429 226.93 282.716C226.789 283.076 226.577 283.364 226.294 283.58ZM226.294 283.58C226.577 283.364 226.718 283.076 226.859 282.716C227.001 282.429 227.071 281.997 227.001 281.709C226.93 281.35 226.648 281.134 226.365 280.99C226.082 280.774 225.659 280.702 225.447 280.846H225.376L226.082 279.983C226.67 280.226 227.165 280.655 227.495 281.206C227.636 281.35 227.707 281.565 227.707 281.781C227.707 282.213 227.636 282.645 227.424 283.004C227.283 283.364 227.071 283.724 226.718 284.011C226.506 284.371 226.153 284.587 225.8 284.803C225.447 285.019 225.094 285.162 224.599 285.162C224.392 285.171 224.185 285.137 223.991 285.063C223.797 284.989 223.62 284.876 223.469 284.731C223.178 284.439 222.939 284.098 222.763 283.724L223.469 282.788H223.61L223.54 283.364C223.54 283.508 223.54 283.724 223.681 283.868L224.034 284.227C224.105 284.371 224.317 284.443 224.458 284.443C224.811 284.515 225.164 284.443 225.517 284.299L226.294 283.58Z" fill="#485654"/>
<path d="M281.386 219.551L253.063 247.969L224.034 276.17L220.785 280.055C219.373 281.709 217.678 283.868 215.7 285.81C215.347 286.314 214.923 286.098 214.499 286.386C213.228 287.105 211.886 288.4 210.968 289.479L202.28 299.191C201.786 299.839 201.574 300.198 201.998 300.63L206.659 306.961C207.507 307.824 208.496 308.256 208.919 307.537C211.109 303.58 216.689 297.608 218.808 292.932C220.008 290.055 221.562 284.947 222.692 283.724C224.105 282.141 227.707 278.112 231.027 274.587L231.733 273.868C231.874 273.58 232.086 273.364 232.369 273.148C248.967 255.882 268.178 234.947 282.163 220.199L281.456 219.479L281.386 219.551Z" fill="#6C301E" stroke="#351710" stroke-width="0.142566" stroke-linejoin="round"/>
<path d="M222.551 276.242C221.703 276.242 221.138 275.738 220.503 275.234C221.35 275.522 222.198 275.81 222.975 275.45L222.551 276.242Z" fill="#8C959D" stroke="#485654" stroke-width="0.071283"/>
<path d="M310.909 198.544L288.449 217.393C288.237 217.681 288.025 217.609 287.813 217.393L285.765 215.666V215.235L286.754 214.228C286.895 214.084 286.754 214.012 286.683 213.796L286.259 213.364C286.047 213.292 285.906 213.364 285.765 213.508L284.776 214.587C284.282 214.587 283.858 215.019 283.787 215.595C270.226 229.048 258.502 241.062 245.011 254.299L229.049 269.839C228.484 270.558 226.012 271.925 224.387 273.004C223.822 273.364 223.328 273.724 223.116 274.083L221.845 278.04C221.421 278.904 220.079 280.918 220.079 281.062L222.763 283.724L230.603 275.163L231.238 274.443C230.719 273.711 230.101 273.057 229.402 272.501L228.908 272.141C228.837 271.997 229.12 271.781 229.261 271.637C247.907 253.22 268.107 233.005 284.493 216.53C284.721 216.618 284.972 216.618 285.2 216.53L287.248 218.76C287.672 219.264 288.096 219.264 288.449 219.048L310.98 198.544H310.909Z" fill="#B2B6BA" stroke="#485654" stroke-width="0.142566"/>
<path d="M221.915 277.896H222.339L222.692 277.824L223.187 276.098L223.752 274.371L223.257 276.098L222.763 277.824L222.339 277.968L221.845 277.896H221.915Z" fill="#485654"/>
<path d="M227.001 276.673C227.235 276.673 227.424 276.48 227.424 276.242C227.424 276.003 227.235 275.81 227.001 275.81C226.767 275.81 226.577 276.003 226.577 276.242C226.577 276.48 226.767 276.673 227.001 276.673Z" stroke="#485654" stroke-width="0.142566"/>
<path d="M224.317 279.407C224.551 279.407 224.741 279.214 224.741 278.975C224.741 278.737 224.551 278.544 224.317 278.544C224.083 278.544 223.893 278.737 223.893 278.975C223.893 279.214 224.083 279.407 224.317 279.407Z" stroke="#485654" stroke-width="0.142566"/>
<path d="M228.978 272.141C228.517 271.803 228.091 271.417 227.707 270.99C228.169 271.328 228.595 271.713 228.978 272.141Z" fill="#485654"/>
<path d="M272.204 226.53L274.676 229.048L275.1 228.616L272.628 226.17L272.204 226.602V226.53Z" fill="#8C959D" stroke="#485654" stroke-width="0.071283"/>
<path d="M277.163 283.131C277.269 283.857 276.519 284.756 275.683 284.498C275.33 284.48 275.206 284.114 275.559 284.132C275.834 284.289 276.194 284.163 276.416 283.958C276.594 283.775 276.721 283.546 276.783 283.296C276.845 283.045 276.839 282.783 276.767 282.535L277.163 283.131Z" fill="#8C959D" stroke="#485654" stroke-width="0.071283"/>
<path d="M275.048 284.466C275.712 285.364 276.753 285.776 277.415 285.233C277.859 284.822 278.021 284.398 277.837 283.813L278.498 284.782C278.498 284.782 278.029 285.695 277.307 286.019C276.372 286.333 275.201 285.698 274.54 284.729C274.01 283.982 273.494 282.948 273.959 282.107C274.308 281.566 274.825 281.16 275.428 280.956L276.099 281.71C275.754 281.548 275.253 281.667 274.886 281.937C273.935 282.61 274.377 283.713 275.048 284.466Z" fill="#8C959D"/>
<path d="M275.048 284.466C275.246 284.764 275.498 285.021 275.789 285.224C276.135 285.385 276.481 285.546 276.837 285.492C277.023 285.498 277.205 285.43 277.341 285.301C277.428 285.261 277.505 285.204 277.569 285.133C277.633 285.062 277.683 284.978 277.715 284.887C277.863 284.751 277.87 284.607 277.95 284.395C277.961 284.179 277.968 284.036 277.837 283.813L277.763 283.881L278.494 284.854L278.498 284.782L277.747 285.681L277.24 285.944L276.672 285.988C276.27 285.96 275.885 285.816 275.56 285.572C275.215 285.411 274.876 285.106 274.678 284.808L274.021 283.767C273.897 283.401 273.773 283.034 273.864 282.607C273.875 282.391 273.881 282.247 274.033 282.039C274.38 281.543 274.867 281.165 275.428 280.956L275.358 280.952L276.025 281.778L276.096 281.781C275.962 281.631 275.75 281.62 275.609 281.613L275.038 281.729C274.745 281.93 274.449 282.204 274.361 282.559C274.274 282.915 274.327 283.278 274.454 283.572C274.578 283.939 274.776 284.237 275.048 284.466ZM275.048 284.466C274.776 284.237 274.649 283.942 274.525 283.576C274.398 283.281 274.348 282.847 274.432 282.563C274.52 282.207 274.812 282.006 275.101 281.876C275.394 281.674 275.821 281.624 276.025 281.778L276.096 281.781L275.432 280.884C274.834 281.098 274.319 281.501 273.962 282.035C273.814 282.172 273.733 282.384 273.723 282.6C273.702 283.031 273.752 283.465 273.947 283.835C274.07 284.202 274.265 284.571 274.604 284.876C274.798 285.246 275.141 285.479 275.483 285.712C275.825 285.946 276.171 286.107 276.665 286.131C276.871 286.15 277.079 286.127 277.277 286.062C277.474 285.998 277.657 285.894 277.814 285.757C278.119 285.48 278.374 285.151 278.568 284.786L277.908 283.816L277.766 283.809L277.809 284.388C277.802 284.531 277.792 284.747 277.644 284.884L277.274 285.225C277.197 285.366 276.982 285.427 276.841 285.42C276.484 285.474 276.135 285.385 275.789 285.224L275.048 284.466Z" fill="#485654"/>
<path d="M223.093 217.773L250.019 247.566L277.661 277.178L280.719 281.22C282.051 282.943 283.64 285.183 285.523 287.221C285.851 287.742 286.285 287.547 286.694 287.856C287.93 288.638 289.208 289.998 290.073 291.121L298.285 301.254C298.747 301.925 298.942 302.295 298.498 302.705L293.538 308.797C292.65 309.617 291.642 309.999 291.253 309.259C289.256 305.198 283.969 298.956 282.077 294.18C281.016 291.246 279.709 286.067 278.639 284.789C277.304 283.138 273.899 278.935 270.752 275.249L270.082 274.495C269.954 274.201 269.753 273.975 269.481 273.745C253.731 255.674 235.547 233.808 222.286 218.381L223.026 217.698L223.093 217.773Z" fill="#6C301E" stroke="#351710" stroke-width="0.142566" stroke-linejoin="round"/>
<path d="M279.139 277.323C279.985 277.365 280.574 276.891 281.233 276.419C280.372 276.664 279.512 276.91 278.753 276.512L279.139 277.323Z" fill="#8C959D" stroke="#485654" stroke-width="0.071283"/>
<path d="M194.612 195.322L216.142 215.266C216.34 215.564 216.555 215.503 216.777 215.298L218.905 213.675L218.926 213.244L217.987 212.189C217.852 212.038 217.997 211.973 218.078 211.761L218.522 211.351C218.737 211.29 218.875 211.369 219.009 211.519L219.945 212.646C220.439 212.671 220.841 213.123 220.884 213.702C233.784 227.813 244.918 240.397 257.757 254.29L272.955 270.605C273.485 271.351 275.889 272.84 277.46 273.998C278.007 274.386 278.483 274.77 278.678 275.139L279.758 279.155C280.14 280.038 281.383 282.117 281.377 282.261L278.568 284.786L271.148 275.845L270.548 275.095C271.101 274.389 271.75 273.766 272.475 273.246L272.986 272.911C273.064 272.771 272.792 272.541 272.658 272.391C254.917 253.068 235.71 231.871 220.134 214.601C219.902 214.678 219.651 214.665 219.428 214.565L217.275 216.691C216.828 217.173 216.405 217.152 216.062 216.919L194.542 195.319L194.612 195.322Z" fill="#B2B6BA" stroke="#485654" stroke-width="0.142566"/>
<path d="M279.694 279.008L279.271 278.987L278.922 278.897L278.511 277.148L278.029 275.395L278.44 277.144L278.851 278.894L279.267 279.058L279.765 279.011L279.694 279.008Z" fill="#485654"/>
<path d="M274.673 277.533C274.44 277.521 274.259 277.319 274.271 277.081C274.282 276.843 274.481 276.659 274.715 276.671C274.949 276.682 275.129 276.885 275.117 277.123C275.106 277.361 274.907 277.545 274.673 277.533Z" stroke="#485654" stroke-width="0.142566"/>
<path d="M277.223 280.397C276.989 280.385 276.809 280.183 276.821 279.945C276.832 279.707 277.031 279.523 277.265 279.535C277.498 279.546 277.679 279.749 277.667 279.987C277.656 280.225 277.457 280.409 277.223 280.397Z" stroke="#485654" stroke-width="0.142566"/>
<path d="M272.916 272.908C273.393 272.593 273.837 272.229 274.241 271.821C273.763 272.136 273.319 272.5 272.916 272.908Z" fill="#485654"/>
<path d="M231.929 225.2L229.339 227.592L228.937 227.14L231.523 224.82L231.926 225.272L231.929 225.2Z" fill="#8C959D" stroke="#485654" stroke-width="0.071283"/>
<path d="M224.034 303.076C217.203 301.409 210.058 301.633 203.34 303.724C214.852 309.479 224.175 307.033 223.964 303.004L224.034 303.076ZM286.895 305.45C292.404 303.076 305.824 304.947 307.448 306.17C296.006 311.853 286.612 309.407 286.824 305.45H286.895Z" fill="#67923D" stroke="#24420E" stroke-width="0.142566"/>
<path d="M223.893 303.148C224.105 307.105 214.852 309.551 203.34 303.795C214.146 304.515 222.975 304.083 223.822 303.076L223.893 303.148ZM286.895 305.522C286.754 309.479 296.006 311.925 307.519 306.17C296.712 306.889 287.884 306.457 286.966 305.45L286.895 305.522Z" fill="#406325" stroke="#24420E" stroke-width="0.142566"/>
<path d="M276.654 299.191C262.429 279.11 244.089 262.418 222.904 250.271C225.376 250.127 230.956 253.076 233.287 254.587C250.167 265.666 264.576 280.342 279.62 297.608C278.772 298.472 278.207 299.047 277.219 299.767L276.654 299.191Z" fill="#B2B6BA" stroke="#485654" stroke-width="0.142566"/>
<path d="M278.137 299.047L277.007 299.911C260.762 278.616 238.16 258.256 222.833 250.271C244.093 260.199 261.963 280.27 277.925 298.903H277.996L278.137 299.047Z" fill="#8C959D"/>
<path d="M278.137 299.047L277.007 299.911C269.501 290.092 261.183 280.946 252.145 272.573C245.387 266.254 238.213 260.413 230.673 255.091C228.131 253.364 225.517 251.709 222.833 250.271V250.127C228.484 252.789 233.711 256.026 238.725 259.695C243.669 263.292 248.331 267.393 252.851 271.637C257.316 275.914 261.627 280.353 265.777 284.947C270.014 289.551 273.97 294.299 278.066 298.975L278.137 299.047ZM278.137 299.047C274.04 294.299 270.014 289.695 265.777 285.091C261.629 280.495 257.318 276.055 252.851 271.781C248.331 267.537 243.669 263.508 238.725 259.839C233.781 256.242 228.484 252.932 222.904 250.343V250.199C228.231 253.279 233.351 256.716 238.231 260.486C247.96 268.05 256.991 276.503 265.211 285.738C269.358 290.317 273.317 295.07 277.077 299.983L278.137 299.047Z" fill="#485654"/>
<path d="M283.01 295.594C281.598 296.026 280.397 296.529 279.267 297.249C279.126 298.256 277.854 299.407 276.795 299.623L276.371 299.047H276.23L275.806 299.263C275.382 299.263 274.888 299.407 274.676 299.983C274.393 300.702 274.888 301.637 275.523 302.213C276.23 302.716 276.512 302.932 277.219 302.932C277.996 302.716 278.419 301.997 278.631 301.781C281.244 305.019 283.222 306.817 286.542 309.407C288.025 309.407 288.802 308.472 288.308 307.393C288.166 307.033 287.742 306.817 287.389 306.961V306.601C289.084 305.019 289.861 303.004 288.025 299.551C286.471 296.673 284.705 295.666 283.081 295.666H283.01V295.594ZM287.389 298.903C287.742 299.407 287.884 299.911 288.096 300.342C289.226 302.501 288.308 305.162 286.471 305.954H286.33C286.612 305.45 285.765 304.371 285.341 304.731C285.553 304.227 284.847 303.292 284.282 303.508C284.564 303.004 283.928 302.141 283.293 302.429C283.575 301.925 283.081 301.134 282.375 301.278C282.586 300.702 282.092 299.983 281.456 300.126C281.456 299.551 281.315 299.263 281.103 299.047C281.81 298.472 282.728 297.537 283.505 297.105C285.412 296.242 286.612 297.824 287.389 298.903Z" fill="#FAB81C" stroke="#6C301E" stroke-width="0.142566"/>
<path d="M288.237 301.206C287.884 300.99 287.672 300.63 287.813 300.414C287.954 300.126 288.308 300.054 288.661 300.27C289.014 300.414 289.226 300.774 289.155 300.99C289.014 301.277 288.59 301.349 288.237 301.206Z" fill="#FAB81C" stroke="#6C301E" stroke-width="0.071283"/>
<path d="M288.025 300.486C287.672 300.27 287.46 299.911 287.601 299.623C287.742 299.407 288.096 299.335 288.449 299.551C288.802 299.695 289.014 300.055 288.943 300.27C288.802 300.558 288.378 300.63 288.025 300.486Z" fill="#FAB81C" stroke="#6C301E" stroke-width="0.071283"/>
<path d="M287.601 299.623C287.248 299.479 287.036 299.119 287.177 298.904C287.319 298.616 287.672 298.544 288.025 298.688C288.378 298.903 288.59 299.263 288.449 299.479C288.378 299.767 287.954 299.839 287.601 299.623Z" fill="#FAB81C" stroke="#6C301E" stroke-width="0.071283"/>
<path d="M287.036 298.903C286.683 298.688 286.471 298.328 286.612 298.112C286.754 297.896 287.107 297.824 287.46 297.968C287.813 298.184 288.025 298.544 287.954 298.76C287.813 298.975 287.389 299.119 287.036 298.903Z" fill="#FAB81C" stroke="#6C301E" stroke-width="0.071283"/>
<path d="M286.33 298.184C285.906 298.04 285.765 297.608 285.906 297.465V297.321C286.047 297.393 286.4 297.465 286.33 297.249C286.33 297.105 286.259 297.033 286.33 297.105L286.754 297.249C287.107 297.465 287.319 297.824 287.177 298.04C287.107 298.328 286.683 298.4 286.33 298.184Z" fill="#FAB81C" stroke="#6C301E" stroke-width="0.071283"/>
<path d="M278.631 301.781C279.126 300.486 280.044 299.335 281.103 299.047L278.631 301.781ZM278.772 301.997C279.691 302.141 281.103 301.062 281.456 300.126L278.772 301.997ZM279.62 303.004C280.75 303.292 281.951 302.141 282.445 301.277L279.62 303.004ZM280.679 304.155C282.092 304.155 282.869 303.22 283.293 302.429L280.679 304.155ZM281.739 305.234C282.94 305.234 283.999 304.299 284.282 303.508L281.739 305.234ZM282.728 306.241C284.07 306.241 284.917 305.594 285.341 304.803L282.728 306.241ZM283.928 307.249C285.129 307.321 286.047 306.601 286.33 305.954L283.928 307.249ZM285.2 308.328C286.33 308.328 287.107 307.608 287.389 306.889L285.2 308.328Z" fill="#FAB81C"/>
<path d="M278.631 301.781C278.945 300.871 279.509 300.072 280.256 299.479C280.468 299.263 280.75 299.119 281.103 299.047C280.799 299.141 280.512 299.287 280.256 299.479C279.993 299.69 279.756 299.931 279.549 300.198C279.162 300.672 278.852 301.207 278.631 301.781ZM278.772 301.997C279.055 301.997 279.338 301.997 279.62 301.853L280.326 301.421L281.033 300.846L281.456 300.126C281.388 300.404 281.241 300.654 281.033 300.846C280.645 301.289 280.161 301.634 279.62 301.853C279.338 301.997 279.055 302.069 278.772 301.997ZM279.62 303.004H280.468L281.174 302.572C281.664 302.237 282.074 301.795 282.375 301.277L281.88 301.997L281.245 302.644L280.538 303.004H279.62ZM280.679 304.155C280.962 304.155 281.245 304.155 281.456 304.011L282.163 303.652L282.869 303.076L283.293 302.357C283.087 302.913 282.717 303.39 282.233 303.723L281.527 304.083H280.679V304.155ZM281.739 305.234C282.304 305.234 282.798 305.018 283.222 304.659C283.652 304.356 284.013 303.964 284.282 303.508C284.211 303.723 284.07 304.011 283.858 304.227L283.293 304.731L282.587 305.162C282.312 305.244 282.023 305.269 281.739 305.234ZM282.728 306.241C283.01 306.241 283.293 306.241 283.505 306.098C284.026 305.98 284.512 305.733 284.917 305.378L285.341 304.731L284.917 305.45C284.705 305.594 284.494 305.81 284.211 305.882C283.787 306.169 283.293 306.241 282.798 306.241H282.728ZM283.928 307.249C284.42 307.242 284.904 307.119 285.341 306.889L285.906 306.529C286.047 306.313 286.259 306.17 286.33 305.954C286.33 306.17 286.118 306.385 285.977 306.529C285.701 306.806 285.366 307.014 284.999 307.139C284.632 307.263 284.241 307.301 283.858 307.249H283.928ZM285.2 308.328L285.906 308.256L286.471 307.968L286.966 307.536L287.389 306.961C287.222 307.401 286.917 307.774 286.521 308.021C286.125 308.268 285.661 308.375 285.2 308.328Z" fill="#6C301E"/>
<path d="M233.846 297.308C249.215 278.121 268.495 262.566 290.35 251.72C287.89 251.427 282.149 254.035 279.734 255.402C262.238 265.442 247 279.222 230.977 295.549C231.773 296.462 232.304 297.07 233.249 297.848L233.846 297.308Z" fill="#B2B6BA" stroke="#485654" stroke-width="0.142566"/>
<path d="M232.374 297.075L233.452 298.005C250.908 277.729 274.655 258.77 290.42 251.724C268.62 260.351 249.613 279.308 232.594 296.944L232.524 296.939L232.374 297.075Z" fill="#8C959D"/>
<path d="M232.374 297.074L233.452 298.005C241.516 288.656 250.352 280.029 259.862 272.217C266.976 266.317 274.477 260.92 282.313 256.062C284.952 254.493 287.657 252.999 290.42 251.724L290.429 251.581C284.633 253.897 279.227 256.813 274.008 260.172C268.863 263.464 263.971 267.276 259.211 271.24C254.506 275.239 249.943 279.41 245.534 283.745C241.035 288.086 236.811 292.586 232.449 297.007L232.374 297.074ZM232.374 297.074C236.74 292.582 241.027 288.229 245.525 283.889C249.933 279.552 254.495 275.381 259.203 271.384C263.962 267.42 268.85 263.68 273.999 260.316C279.144 257.024 284.625 254.04 290.345 251.792L290.354 251.648C284.857 254.402 279.546 257.523 274.455 260.992C264.303 267.955 254.796 275.847 246.052 284.569C241.646 288.89 237.418 293.395 233.377 298.072L232.374 297.074Z" fill="#485654"/>
<path d="M227.71 293.333C229.095 293.849 230.265 294.424 231.351 295.211C231.433 296.225 232.635 297.451 233.68 297.73L234.137 297.181L234.278 297.19L234.688 297.431C235.111 297.456 235.596 297.63 235.775 298.217C236.015 298.952 235.467 299.856 234.799 300.392C234.064 300.852 233.77 301.051 233.065 301.008C232.302 300.746 231.92 300.002 231.721 299.774C228.924 302.847 226.845 304.523 223.381 306.908C221.9 306.819 221.179 305.838 221.735 304.791C221.897 304.44 222.333 304.25 222.677 304.415L222.698 304.056C221.098 302.374 220.44 300.316 222.474 296.98C224.193 294.201 226.014 293.302 227.636 293.4L227.706 293.405L227.71 293.333ZM223.146 296.372C222.764 296.853 222.594 297.347 222.357 297.766C221.104 299.852 221.865 302.564 223.652 303.465L223.793 303.474C223.541 302.954 224.45 301.928 224.852 302.313C224.67 301.797 225.429 300.906 225.98 301.156C225.728 300.636 226.413 299.813 227.03 300.138C226.778 299.619 227.317 298.858 228.014 299.045C227.836 298.457 228.371 297.769 228.998 297.951C229.031 297.377 229.189 297.098 229.413 296.895C228.741 296.278 227.879 295.289 227.129 294.811C225.275 293.834 223.985 295.342 223.146 296.372Z" fill="#FAB81C" stroke="#6C301E" stroke-width="0.142566"/>
<path d="M222.166 298.619C222.531 298.425 222.764 298.078 222.635 297.854C222.511 297.559 222.163 297.466 221.798 297.66C221.437 297.782 221.204 298.128 221.262 298.348C221.386 298.644 221.805 298.741 222.166 298.619Z" fill="#FAB81C" stroke="#6C301E" stroke-width="0.0712831"/>
<path d="M222.42 297.913C222.785 297.719 223.017 297.373 222.893 297.077C222.764 296.853 222.416 296.76 222.051 296.954C221.69 297.077 221.458 297.423 221.516 297.643C221.64 297.938 222.059 298.036 222.42 297.913Z" fill="#FAB81C" stroke="#6C301E" stroke-width="0.0712831"/>
<path d="M222.893 297.077C223.254 296.955 223.486 296.609 223.358 296.385C223.234 296.089 222.885 295.996 222.524 296.118C222.159 296.312 221.927 296.658 222.055 296.882C222.109 297.174 222.528 297.271 222.893 297.077Z" fill="#FAB81C" stroke="#6C301E" stroke-width="0.0712831"/>
<path d="M223.499 296.393C223.864 296.199 224.096 295.853 223.968 295.629C223.84 295.405 223.491 295.312 223.13 295.434C222.765 295.628 222.533 295.974 222.591 296.194C222.719 296.418 223.134 296.587 223.499 296.393Z" fill="#FAB81C" stroke="#6C301E" stroke-width="0.0712831"/>
<path d="M224.246 295.718C224.677 295.6 224.843 295.177 224.711 295.025L224.719 294.882C224.574 294.945 224.217 294.995 224.3 294.784C224.309 294.64 224.383 294.573 224.309 294.64L223.877 294.759C223.512 294.953 223.28 295.299 223.408 295.523C223.462 295.814 223.881 295.912 224.246 295.718Z" fill="#FAB81C" stroke="#6C301E" stroke-width="0.0712831"/>
<path d="M231.722 299.774C231.303 298.451 230.454 297.247 229.413 296.895L231.722 299.774ZM231.568 299.981C230.643 300.069 229.296 298.906 228.998 297.951L231.568 299.981ZM230.663 300.935C229.518 301.154 228.387 299.932 227.943 299.041L230.663 300.935ZM229.539 302.02C228.128 301.935 227.407 300.954 227.03 300.138L229.539 302.02ZM228.418 303.033C227.22 302.961 226.216 301.963 225.981 301.156L228.418 303.033ZM227.372 303.979C226.033 303.898 225.224 303.2 224.848 302.385L227.372 303.979ZM226.115 304.912C224.912 304.911 224.038 304.137 223.793 303.474L226.115 304.912ZM224.783 305.912C223.655 305.844 222.922 305.079 222.681 304.344L224.783 305.912Z" fill="#FAB81C"/>
<path d="M231.722 299.774C231.461 298.846 230.945 298.015 230.234 297.377C230.035 297.149 229.761 296.988 229.413 296.895C229.711 297.008 229.989 297.171 230.234 297.377C230.484 297.604 230.706 297.859 230.897 298.138C231.256 298.635 231.534 299.187 231.722 299.774ZM231.568 299.981C231.286 299.964 231.004 299.946 230.73 299.786L230.05 299.312L229.379 298.695L228.998 297.951C229.049 298.232 229.182 298.491 229.379 298.695C229.74 299.161 230.203 299.534 230.73 299.786C231.004 299.946 231.282 300.035 231.568 299.981ZM230.663 300.935L229.817 300.884L229.137 300.41C228.667 300.046 228.284 299.58 228.014 299.045L228.466 299.793L229.063 300.478L229.747 300.879L230.663 300.935ZM229.539 302.02C229.257 302.003 228.975 301.986 228.771 301.829L228.087 301.428L227.416 300.81L227.035 300.067C227.208 300.634 227.55 301.133 228.013 301.495L228.697 301.897L229.543 301.948L229.539 302.02ZM228.418 303.033C227.854 302.999 227.373 302.754 226.971 302.369C226.56 302.041 226.222 301.627 225.981 301.156C226.038 301.376 226.163 301.671 226.362 301.9L226.896 302.437L227.576 302.91C227.846 303.009 228.132 303.05 228.418 303.033ZM227.372 303.979C227.09 303.962 226.808 303.945 226.605 303.788C226.091 303.639 225.621 303.363 225.237 302.985L224.852 302.313L225.233 303.057C225.436 303.213 225.635 303.441 225.913 303.53C226.319 303.843 226.808 303.945 227.302 303.974L227.372 303.979ZM226.115 304.912C225.625 304.875 225.149 304.723 224.726 304.467L224.183 304.074C224.055 303.85 223.851 303.694 223.793 303.474C223.781 303.689 223.98 303.918 224.112 304.07C224.372 304.362 224.694 304.59 225.053 304.737C225.412 304.884 225.8 304.945 226.186 304.916L226.115 304.912ZM224.783 305.912L224.082 305.798L223.535 305.476L223.067 305.015L222.677 304.415C222.819 304.865 223.102 305.255 223.482 305.526C223.863 305.796 224.32 305.932 224.783 305.912Z" fill="#6C301E"/>
<path d="M206.518 212.861C212.115 209.84 216.857 205.406 220.291 199.983C209.273 203.005 204.258 210.271 206.518 212.933V212.861ZM309.496 216.242C307.089 210.587 303.295 205.657 298.478 201.926C300.456 212.861 306.954 218.328 309.496 216.314V216.242Z" fill="#406325" stroke="#24420E" stroke-width="0.142566"/>
<path d="M206.518 212.861C204.187 210.271 209.202 203.077 220.22 200.055C212.451 206.098 206.659 211.71 206.518 212.861ZM309.496 216.242C306.883 218.4 300.526 212.933 298.549 202.069C303.634 209.983 308.437 216.098 309.496 216.242Z" fill="#67923D" stroke="#24420E" stroke-width="0.142566"/>
<path d="M236.889 269.048C236.889 269.048 232.58 269.551 231.309 263.436C230.038 256.889 235.052 256.242 235.052 256.242C235.052 256.242 240.774 255.594 244.376 255.522L245.93 268.472L236.889 269.048Z" fill="url(#paint0_radial_103_6027)" stroke="#999270" stroke-width="0.142566"/>
<path d="M237.454 267.105C237.454 267.105 234.629 267.609 234.064 263.076C233.64 259.839 235.617 259.407 235.617 259.407L242.115 260.558V266.458L237.454 267.105Z" fill="url(#paint1_radial_103_6027)" stroke="#999270" stroke-width="0.142566"/>
<path d="M235.618 259.407C235.618 259.407 239.855 259.12 241.974 258.832L242.892 262.932L237.878 263.22C237.878 263.22 237.525 259.551 235.618 259.407Z" fill="url(#paint2_radial_103_6027)" stroke="#999270" stroke-width="0.142566"/>
<path d="M234.77 256.314C234.77 256.314 240.067 254.947 240.774 260.918C240.915 262.501 240.067 266.098 237.454 267.105L247.271 266.026L246.353 255.235L243.104 255.523C243.104 255.523 236.041 255.738 234.77 256.242V256.314Z" fill="url(#paint3_radial_103_6027)" stroke="#999270" stroke-width="0.142566"/>
<path d="M236.889 269.048C236.889 269.048 273.546 266.53 277.289 266.674C288.449 260.487 277.289 236.098 267.895 222.429C268.955 219.336 246.777 212.429 236.818 213.077C235.476 213.077 234.276 213.221 233.145 213.293C227.707 213.868 227.636 220.99 229.826 225.523C231.945 229.839 251.297 265.091 237.736 268.904L236.889 269.048Z" fill="#F9F0AA" stroke="#999270" stroke-width="0.142566"/>
<path d="M276.159 236.818C273.687 231.566 270.721 226.53 267.895 222.429C268.955 219.336 246.777 212.429 236.818 213.077C235.476 213.077 234.276 213.221 233.145 213.293C227.707 213.868 227.636 220.99 229.826 225.523C230.532 226.818 232.863 231.278 235.406 236.818" fill="url(#paint4_linear_103_6027)"/>
<path d="M276.159 236.818C273.687 231.566 270.721 226.53 267.895 222.429C268.955 219.336 246.777 212.429 236.818 213.077C235.476 213.077 234.276 213.221 233.145 213.293C227.707 213.868 227.636 220.99 229.826 225.523C230.532 226.818 232.863 231.278 235.406 236.818" stroke="#999270" stroke-width="0.142566"/>
<path d="M238.866 245.235C242.822 255.738 245.011 266.817 237.736 268.904L236.889 269.048C236.889 269.048 273.616 266.53 277.289 266.673C283.363 263.292 282.798 254.587 279.549 245.091" fill="url(#paint5_linear_103_6027)"/>
<path d="M238.866 245.235C242.822 255.738 245.011 266.817 237.736 268.904L236.889 269.048C236.889 269.048 273.616 266.53 277.289 266.673C283.363 263.292 282.798 254.587 279.549 245.091" stroke="#999270" stroke-width="0.142566"/>
<path d="M233.499 215.379C230.885 215.379 230.179 217.969 230.25 219.552C230.32 223.868 233.499 224.012 233.499 224.012L237.736 223.796L239.714 215.019L233.499 215.379Z" fill="url(#paint6_radial_103_6027)" stroke="#999270" stroke-width="0.142566"/>
<path d="M233.499 215.379L239.714 215.019L240.42 221.566L234.911 221.854C234.911 221.854 236.677 216.602 233.499 215.379Z" fill="url(#paint7_linear_103_6027)" stroke="#999270" stroke-width="0.142566"/>
<path d="M267.895 222.429C272.628 221.71 272.557 215.235 269.308 212.573C258.36 212.141 244.023 212.501 233.569 213.293C234.77 213.293 238.09 213.58 238.443 217.969C238.516 218.92 238.361 219.875 237.992 220.752C237.623 221.63 237.051 222.402 236.324 223.005C235.507 223.63 234.52 223.982 233.499 224.012H236.041L238.16 223.724C252.993 221.782 267.825 222.429 267.825 222.429H267.895Z" fill="url(#paint8_linear_103_6027)" stroke="#999270" stroke-width="0.142566"/>
<path d="M241.339 232.573C241.197 232.357 241.056 232.069 240.774 231.997C240.632 231.997 240.35 231.997 240.42 231.71H240.985L242.115 231.566C242.398 231.638 242.327 231.925 242.115 231.925C241.762 231.925 241.974 232.285 242.045 232.501L242.963 234.659C243.034 234.947 243.246 235.163 243.457 235.163L244.234 235.091C244.446 234.947 244.376 234.659 244.376 234.371C244.305 234.156 244.729 234.228 244.729 234.371L245.011 235.379C245.011 235.523 244.87 235.451 244.729 235.451L242.61 235.595C242.398 235.595 242.045 235.81 241.904 235.595C241.904 235.307 242.327 235.451 242.327 235.235L242.115 234.515L241.339 232.573ZM244.729 232.285C244.658 232.141 244.517 231.854 244.234 231.782C244.093 231.782 243.811 231.782 243.811 231.494C243.952 231.35 244.164 231.494 244.305 231.494L245.506 231.35C245.718 231.35 245.788 231.71 245.506 231.638C245.294 231.638 245.294 231.925 245.364 232.141L246.424 234.587C246.424 234.731 246.565 234.947 246.777 235.019C246.918 235.019 247.201 235.019 247.271 235.235C247.271 235.451 246.989 235.307 246.848 235.307C246.495 235.307 246.141 235.307 245.718 235.451C245.576 235.451 245.364 235.451 245.364 235.235C245.364 235.019 245.718 235.235 245.788 234.947C245.788 234.731 245.647 234.515 245.506 234.228L244.729 232.357V232.285ZM247.907 232.861C247.907 233.005 248.19 232.861 248.26 232.861C248.472 232.861 248.684 232.789 248.684 232.573C248.684 232.213 248.472 231.854 248.19 231.71C247.978 231.494 247.695 231.566 247.413 231.566L247.483 231.925L247.907 232.861ZM248.331 234.012C248.472 234.228 248.543 234.515 248.755 234.731C248.896 234.875 249.178 234.803 249.32 234.731C249.532 234.731 249.673 234.515 249.602 234.371C249.532 233.868 249.249 233.436 248.755 233.292H248.048L248.19 233.652L248.331 234.012ZM246.918 232.285C246.777 232.069 246.706 231.71 246.424 231.566C246.283 231.566 246 231.638 245.929 231.422C245.929 231.206 246.353 231.35 246.495 231.278C247.13 231.278 247.766 231.062 248.331 231.278C248.825 231.422 249.32 231.854 249.39 232.429C249.39 232.717 249.178 232.933 248.967 233.005L249.32 233.077C249.744 233.22 250.097 233.508 250.309 233.94C250.45 234.228 250.52 234.587 250.309 234.875C250.026 235.163 249.602 235.163 249.32 235.163C248.755 235.163 248.26 235.163 247.695 235.307C247.483 235.307 247.413 234.947 247.695 234.947C247.907 234.947 247.907 234.659 247.837 234.515L246.918 232.357V232.285ZM252.145 230.918C252.357 230.918 252.427 231.134 252.498 231.278L252.71 231.925C252.498 232.069 252.357 231.782 252.286 231.638C252.145 231.494 252.004 231.278 251.792 231.35H250.944C250.803 231.494 250.944 231.638 251.015 231.782L251.439 232.789C251.58 232.789 251.862 232.789 252.004 232.573C252.004 232.429 251.792 232.069 252.145 232.141C252.357 232.285 252.286 232.573 252.427 232.789L252.781 233.58C252.569 233.796 252.427 233.508 252.357 233.292C252.216 233.077 251.862 233.077 251.651 233.077C251.509 233.077 251.651 233.22 251.651 233.292L252.074 234.371C252.216 234.587 252.569 234.587 252.781 234.587C252.992 234.587 253.346 234.587 253.487 234.3C253.628 234.156 253.275 233.796 253.487 233.724C253.769 233.724 253.769 234.012 253.84 234.156C253.84 234.371 253.981 234.587 254.052 234.731C254.052 234.875 253.84 234.875 253.769 234.875L251.651 235.019C251.368 235.019 251.015 235.163 250.944 234.875C250.944 234.659 251.439 234.803 251.368 234.515L251.085 233.796L250.309 231.854C250.167 231.638 250.026 231.35 249.744 231.35C249.602 231.35 249.32 231.35 249.461 231.062H250.167L252.145 230.918ZM253.769 231.854C253.699 231.638 253.558 231.35 253.275 231.206C253.134 231.206 252.781 231.206 252.781 230.918C252.992 230.774 253.275 230.918 253.487 230.918C254.052 230.918 254.617 230.702 255.182 230.918C255.747 230.99 256.241 231.566 256.312 232.213C256.312 232.501 256.1 232.717 255.818 232.789C255.606 232.789 255.959 232.861 256.03 232.933C256.524 233.148 256.736 233.58 257.018 234.012C257.089 234.156 257.372 234.515 257.442 234.156C257.442 233.796 257.866 234.156 257.795 234.371C257.795 234.659 257.513 234.803 257.301 234.803C257.018 234.803 256.665 234.659 256.524 234.371C256.241 233.94 256.03 233.436 255.606 233.148C255.533 233.074 255.442 233.022 255.343 232.997C255.243 232.971 255.139 232.974 255.041 233.005V233.364L255.465 234.228C255.606 234.443 255.888 234.443 256.171 234.443C256.383 234.515 256.312 234.875 256.03 234.803H254.829C254.617 234.947 254.193 234.803 254.334 234.587C254.546 234.587 254.829 234.443 254.688 234.228L253.981 232.357L253.769 231.854ZM254.758 232.573C254.9 232.717 255.182 232.573 255.394 232.573C255.606 232.573 255.606 232.213 255.535 232.069C255.465 231.71 255.253 231.35 254.9 231.206C254.758 231.206 254.334 231.062 254.264 231.278L254.758 232.429V232.501V232.573ZM259.844 233.724C259.914 233.94 260.055 234.156 260.267 234.228C260.409 234.228 260.691 234.228 260.762 234.443C260.762 234.659 260.479 234.515 260.338 234.587H259.208C258.996 234.659 258.784 234.587 258.784 234.371C258.925 234.228 259.279 234.371 259.279 234.084L258.925 233.292L258.148 231.206C258.078 230.99 257.795 230.99 257.654 230.99C257.442 230.99 257.16 230.99 257.16 231.278C257.16 231.494 257.301 231.71 257.16 231.854C256.948 231.854 256.877 231.638 256.807 231.494C256.807 231.278 256.665 231.062 256.524 230.774C256.524 230.63 256.807 230.702 256.877 230.702L259.844 230.559C260.056 230.559 260.197 230.702 260.197 230.918L260.479 231.638C260.409 231.854 260.126 231.638 260.055 231.422C259.985 231.206 259.702 230.918 259.42 230.918C259.279 230.918 258.996 230.918 258.855 231.062L258.996 231.566L259.844 233.724ZM262.528 233.077C262.386 233.077 262.457 233.292 262.457 233.364V233.94C262.528 234.228 262.81 234.156 263.022 234.228C263.163 234.228 263.093 234.587 262.881 234.515H262.033C261.821 234.587 261.468 234.443 261.68 234.228C261.821 234.228 261.962 234.156 262.033 234.012V230.415C262.174 230.199 262.386 230.415 262.457 230.559L265 233.796C265.141 233.94 265.353 234.084 265.565 234.084C265.777 234.084 265.847 234.443 265.565 234.371H264.505C264.364 234.371 264.152 234.515 264.011 234.371C263.87 234.3 264.011 234.084 264.152 234.084C264.364 234.084 264.152 233.796 264.081 233.652L263.658 233.077H262.528ZM263.304 232.717C263.446 232.717 263.304 232.645 263.304 232.573L262.386 231.35V232.789H263.304V232.717ZM265.494 231.422C265.423 231.134 265.282 230.702 264.929 230.702C264.717 230.702 264.435 230.559 264.576 230.415H265.777C266.271 230.343 266.765 230.343 267.189 230.487C268.249 230.846 269.096 231.782 269.308 232.933C269.308 233.364 269.237 233.868 268.884 234.084C268.319 234.443 267.684 234.371 267.118 234.3L266.13 234.371C265.918 234.371 265.847 234.012 266.13 234.084C266.412 234.084 266.412 233.724 266.271 233.58L265.494 231.422ZM266.907 233.22C266.977 233.436 267.048 233.724 267.26 233.94H267.966C268.319 233.94 268.46 233.58 268.46 233.292C268.43 232.763 268.286 232.247 268.037 231.782C267.754 231.278 267.33 230.918 266.765 230.774C266.532 230.734 266.293 230.734 266.059 230.774C265.988 230.774 266.059 230.918 266.059 231.062L266.907 233.22ZM252.004 242.141C252.004 242.357 252.286 242.573 252.569 242.573C252.71 242.573 253.063 242.573 253.063 242.861C252.922 243.005 252.639 242.861 252.498 242.861L251.439 243.005H250.803C250.662 243.005 250.662 242.717 250.874 242.717C251.085 242.717 251.297 242.645 251.297 242.429L251.156 241.853L250.309 239.839C250.309 239.623 250.026 239.623 249.814 239.623C249.673 239.623 249.39 239.695 249.32 239.479C249.32 239.264 249.673 239.335 249.814 239.192L250.52 238.976C250.662 238.976 250.732 239.048 250.732 239.192L252.004 242.069V242.141ZM252.498 238.904H253.911C254.193 238.904 254.052 238.544 254.193 238.544C254.476 238.544 254.476 238.904 254.476 239.048C254.476 239.335 254.264 239.551 254.052 239.479H252.992L253.346 240.343L253.769 240.199C254.476 240.199 255.323 240.63 255.606 241.35C255.747 241.71 255.818 242.069 255.606 242.429C255.323 242.789 254.9 242.861 254.476 242.861C254.123 242.861 253.769 242.789 253.487 242.429C253.416 242.285 253.416 241.925 253.628 241.997C253.911 241.997 254.123 242.141 254.123 242.429C254.193 242.573 254.476 242.501 254.617 242.501C254.829 242.501 255.041 242.357 255.041 242.141C255.041 241.782 254.899 241.422 254.688 241.134C254.546 240.846 254.193 240.63 253.769 240.63L253.204 240.702C252.992 240.702 252.992 240.487 252.922 240.343L252.427 238.976L252.569 238.904H252.498ZM257.372 239.623C257.23 239.335 257.089 238.976 256.736 238.904C256.595 238.904 256.241 238.832 256.453 238.616H257.583C258.078 238.472 258.643 238.544 259.067 238.688C260.126 239.048 260.974 239.983 261.186 241.134C261.186 241.566 261.115 241.997 260.691 242.285C260.197 242.573 259.561 242.501 258.996 242.501L258.078 242.645C257.866 242.645 257.795 242.285 258.078 242.285C258.29 242.285 258.29 241.997 258.219 241.782L257.372 239.623ZM258.784 241.422C258.855 241.638 258.996 241.925 259.208 242.141H259.914C260.197 242.069 260.338 241.71 260.338 241.422C260.338 240.918 260.126 240.415 259.844 239.911C259.561 239.407 259.137 239.048 258.572 238.976C258.338 238.936 258.1 238.936 257.866 238.976V239.264L258.784 241.422ZM263.304 238.328C263.516 238.328 263.587 238.544 263.658 238.688C263.658 238.904 263.799 239.048 263.87 239.264C263.728 239.479 263.516 239.264 263.446 239.048C263.375 238.904 263.234 238.688 263.022 238.688H262.104C261.962 238.832 262.104 239.048 262.104 239.12L262.528 240.127C262.739 240.127 262.951 240.127 263.093 239.983C263.234 239.839 262.881 239.479 263.234 239.551C263.446 239.551 263.446 239.911 263.516 240.127L263.87 240.918C263.799 241.206 263.516 240.918 263.446 240.702C263.375 240.487 263.093 240.487 262.881 240.487C262.739 240.487 262.598 240.487 262.739 240.63L263.163 241.71C263.304 241.997 263.658 241.925 263.87 241.925C264.152 241.925 264.435 241.925 264.576 241.71C264.717 241.566 264.435 241.278 264.576 241.134C264.858 241.134 264.929 241.35 264.929 241.494L265.141 242.213C265.141 242.285 264.929 242.213 264.858 242.213L262.669 242.357C262.457 242.357 262.174 242.501 262.033 242.285C261.892 241.997 262.386 242.141 262.457 241.925L262.245 241.278L261.468 239.192C261.327 238.976 261.186 238.76 260.903 238.688C260.762 238.688 260.479 238.688 260.621 238.4H261.327L263.304 238.328ZM244.093 248.616C244.164 248.976 244.517 249.12 244.799 249.192C245.364 249.335 246 249.551 246.353 249.983C246.565 250.271 246.706 250.63 246.706 250.99C246.706 251.35 246.353 251.638 246 251.71C245.647 251.853 245.223 251.781 244.799 251.638C244.658 251.566 244.729 251.925 244.446 251.853C244.305 251.71 244.376 251.422 244.305 251.206C244.225 250.961 244.131 250.72 244.022 250.486C244.022 250.271 244.305 250.486 244.376 250.63C244.588 251.062 245.011 251.35 245.506 251.422C245.788 251.422 246.071 251.278 246.071 250.99C246.071 250.63 245.788 250.271 245.506 250.127C245.011 249.911 244.517 249.839 244.093 249.551C243.891 249.433 243.722 249.267 243.598 249.066C243.475 248.865 243.402 248.636 243.387 248.4C243.387 248.112 243.669 247.825 243.952 247.753C244.305 247.609 244.658 247.609 245.082 247.753C245.223 247.753 245.294 247.537 245.506 247.681C245.506 247.825 245.506 247.969 245.647 248.112L245.859 248.76C245.718 248.904 245.506 248.76 245.506 248.616C245.294 248.328 245.153 248.04 244.799 248.04C244.517 248.04 244.234 248.04 244.093 248.256V248.616ZM248.755 247.393C249.037 247.393 249.037 247.609 249.108 247.753L249.249 248.328C249.249 248.544 248.967 248.328 248.896 248.184C248.825 248.04 248.684 247.825 248.402 247.825H247.554C247.413 247.969 247.554 248.184 247.554 248.256L247.907 249.263C248.119 249.263 248.331 249.263 248.472 249.12C248.613 248.976 248.331 248.688 248.543 248.616C248.825 248.616 248.825 248.976 248.896 249.12C248.896 249.407 249.108 249.695 249.178 250.055C249.108 250.271 248.825 250.055 248.825 249.839C248.755 249.623 248.472 249.551 248.26 249.623C248.119 249.623 247.978 249.623 248.048 249.767L248.472 250.846C248.543 251.062 248.755 251.062 248.967 251.062C249.249 251.062 249.602 251.062 249.814 250.846C249.955 250.702 249.814 250.415 249.814 250.271C250.026 250.127 250.238 250.271 250.238 250.486L250.379 251.206C250.379 251.35 250.167 251.35 250.097 251.35L247.978 251.494C247.695 251.494 247.413 251.71 247.271 251.494C247.271 251.206 247.625 251.278 247.695 251.062C247.695 250.918 247.695 250.702 247.554 250.486L246.848 248.328C246.848 248.112 246.636 247.897 246.353 247.897C246.212 247.897 245.93 247.825 246.071 247.609H246.777L248.755 247.393ZM251.721 250.415C251.792 250.63 251.933 250.846 252.145 250.918C252.357 250.918 252.639 250.846 252.71 251.062C252.71 251.35 252.357 251.206 252.216 251.206C251.792 251.206 251.509 251.206 251.085 251.35C250.944 251.35 250.732 251.35 250.662 251.206C250.662 250.918 251.015 251.062 251.085 250.918L251.015 250.343L250.309 248.184C250.167 247.969 250.097 247.681 249.814 247.681C249.673 247.681 249.39 247.681 249.461 247.393C249.532 247.249 249.744 247.393 249.955 247.393C250.45 247.393 250.944 247.177 251.509 247.249C251.768 247.267 252.017 247.357 252.229 247.509C252.44 247.661 252.607 247.87 252.71 248.112C252.851 248.4 252.851 248.832 252.71 249.048C252.357 249.335 251.933 249.407 251.509 249.479C251.368 249.479 251.509 249.623 251.509 249.695L251.721 250.415ZM251.297 249.12H251.792C252.004 249.048 252.145 248.832 252.074 248.616C252.074 248.256 251.933 247.969 251.721 247.753C251.509 247.537 251.156 247.537 250.944 247.609C250.803 247.681 250.944 247.825 250.944 247.969L251.297 249.12ZM255.676 250.199C255.676 250.343 255.818 250.63 256.03 250.63C256.171 250.63 256.524 250.63 256.524 250.846C256.524 251.062 256.171 250.99 256.03 250.99L254.9 251.062C254.758 251.062 254.546 251.062 254.546 250.846C254.688 250.702 255.041 250.846 255.041 250.558L254.829 249.695L254.123 247.609C254.123 247.393 253.84 247.465 253.628 247.465C253.487 247.465 253.204 247.465 253.134 247.681V248.256C252.992 248.4 252.781 248.256 252.851 248.04L252.569 247.321C252.569 247.105 252.781 247.177 252.922 247.105L255.818 246.961C256.03 246.961 256.171 247.105 256.171 247.321L256.453 248.04C256.383 248.184 256.1 248.04 256.1 247.897C255.959 247.681 255.747 247.393 255.394 247.393C255.253 247.393 255.041 247.321 254.829 247.393L254.97 247.897L255.676 250.199ZM257.16 247.825C257.089 247.609 257.018 247.321 256.736 247.249C256.595 247.249 256.312 247.249 256.312 246.961C256.383 246.817 256.595 246.961 256.736 246.961L258.007 246.817C258.219 246.746 258.36 247.105 258.148 247.105C257.937 247.105 257.725 247.249 257.795 247.465L258.148 248.616L258.643 250.199C258.643 250.343 258.855 250.486 258.996 250.486C259.208 250.486 259.49 250.487 259.42 250.774H258.925L257.795 250.918C257.654 250.918 257.372 250.774 257.513 250.63C257.654 250.558 257.937 250.63 257.937 250.343L257.725 249.479L257.16 247.825ZM261.256 246.674C261.468 246.674 261.468 246.889 261.539 247.033L261.68 247.609C261.609 247.825 261.327 247.609 261.327 247.465C261.256 247.249 261.115 247.033 260.832 247.033H260.055C259.914 247.177 260.055 247.393 260.055 247.537L260.409 248.472C260.55 248.472 260.762 248.472 260.974 248.328C261.115 248.256 260.832 247.897 261.044 247.897C261.327 247.897 261.327 248.184 261.397 248.328C261.397 248.688 261.609 248.976 261.68 249.263C261.609 249.479 261.327 249.263 261.327 249.12C261.256 248.904 260.974 248.832 260.762 248.832C260.691 248.832 260.409 248.832 260.55 248.976L260.903 250.055C260.974 250.271 261.256 250.343 261.397 250.343C261.68 250.343 262.033 250.343 262.245 250.127C262.386 249.983 262.245 249.695 262.316 249.479C262.528 249.407 262.669 249.551 262.669 249.767L262.81 250.486C262.81 250.63 262.669 250.63 262.528 250.63L260.409 250.702C260.126 250.702 259.914 250.846 259.702 250.702C259.632 250.415 260.055 250.486 260.126 250.343C260.154 250.247 260.162 250.146 260.15 250.047C260.138 249.948 260.106 249.853 260.055 249.767L259.349 247.609C259.349 247.393 259.137 247.105 258.855 247.105C258.714 247.105 258.431 246.961 258.572 246.817H259.279L261.327 246.674H261.256ZM262.669 247.393C262.598 247.105 262.386 246.889 262.104 246.889C261.892 246.961 261.751 246.458 262.104 246.602H263.163L263.658 247.249L265.211 249.335C265.07 249.335 265.211 249.192 265.141 249.12L265.423 246.53C265.565 246.386 265.918 246.53 266.13 246.386C266.342 246.386 266.836 246.386 266.695 246.674C266.412 246.674 266.13 246.817 266.271 247.105L267.118 249.695C267.118 249.983 267.401 250.127 267.684 250.055C267.895 250.055 267.895 250.487 267.684 250.415H266.412C266.2 250.487 265.847 250.486 265.918 250.199C266.13 250.199 266.483 250.055 266.342 249.767L265.635 247.465C265.706 247.537 265.635 247.681 265.635 247.753L265.494 249.911L265.423 250.486C265.211 250.558 265.141 250.415 265.07 250.271L263.022 247.609L263.163 247.825C263.375 248.544 263.516 249.263 263.799 249.911C263.799 250.199 264.152 250.271 264.364 250.271C264.646 250.415 264.435 250.63 264.223 250.558H263.163C262.951 250.558 262.951 250.271 263.163 250.271C263.516 250.271 263.446 249.911 263.304 249.695L262.598 247.393H262.669ZM268.814 247.969C268.814 248.112 269.096 247.969 269.167 247.969C269.379 247.969 269.591 247.969 269.661 247.681C269.661 247.393 269.52 246.961 269.308 246.817C269.026 246.602 268.743 246.674 268.46 246.674V247.033L268.814 247.969ZM269.167 249.12L269.449 249.839C269.661 249.983 269.873 249.911 270.085 249.911C270.226 249.911 270.438 249.767 270.367 249.551C270.367 249.12 270.156 248.616 269.732 248.472H269.026V248.688L269.167 249.12ZM267.825 247.393C267.754 247.105 267.684 246.817 267.401 246.674C267.26 246.674 266.977 246.674 266.977 246.458C266.977 246.242 267.33 246.458 267.472 246.386C268.178 246.386 268.743 246.242 269.379 246.386C269.873 246.53 270.297 247.033 270.297 247.537C270.297 247.825 270.014 248.04 269.802 248.184C269.802 248.04 270.085 248.184 270.156 248.184C270.509 248.328 270.862 248.616 271.003 249.048C271.144 249.335 271.215 249.695 271.003 249.983C270.721 250.271 270.297 250.271 269.944 250.271L268.319 250.343C268.107 250.343 268.037 249.983 268.319 250.055C268.531 250.055 268.602 249.767 268.46 249.551L267.825 247.393ZM271.427 247.249C271.427 247.033 271.286 246.674 271.003 246.53C270.862 246.53 270.579 246.53 270.579 246.314C270.721 246.098 271.003 246.314 271.286 246.242H272.698C273.263 246.242 273.758 246.674 273.899 247.249C273.97 247.537 273.899 247.969 273.616 248.112L273.334 248.256C273.758 248.4 274.111 248.76 274.323 249.12L274.676 249.695C274.817 249.839 274.888 249.623 274.888 249.479C275.17 249.335 275.312 249.695 275.17 249.911C275.1 250.199 274.676 250.271 274.464 250.199C274.338 250.192 274.218 250.147 274.117 250.07C274.017 249.993 273.941 249.888 273.899 249.767L273.193 248.544C272.981 248.472 272.769 248.328 272.557 248.472V248.76L272.91 249.623C272.981 249.839 273.263 249.911 273.475 249.911C273.758 249.911 273.758 250.271 273.475 250.199H272.204C272.063 250.199 271.78 250.343 271.709 250.199C271.568 249.839 271.992 249.983 272.133 249.839L271.992 249.192L271.427 247.249ZM272.345 247.969C272.416 248.184 272.769 247.969 272.91 247.969C273.122 247.969 273.263 247.753 273.193 247.609C273.193 247.249 273.051 246.889 272.84 246.674C272.628 246.53 272.345 246.53 272.133 246.602C271.992 246.602 272.063 246.817 272.133 246.961L272.345 247.897V247.969ZM277.219 246.098C277.43 246.098 277.43 246.314 277.501 246.458C277.501 246.674 277.642 246.889 277.713 247.033C277.572 247.249 277.36 247.033 277.289 246.889C277.289 246.745 277.148 246.458 276.865 246.458H275.947C275.806 246.53 275.947 246.745 275.947 246.889L276.23 247.897C276.442 247.897 276.654 247.897 276.795 247.753C277.007 247.681 276.724 247.393 276.936 247.249C277.219 247.249 277.219 247.537 277.219 247.753C277.219 248.112 277.43 248.4 277.501 248.688C277.43 248.904 277.148 248.688 277.148 248.544C277.148 248.328 276.865 248.184 276.654 248.256C276.583 248.256 276.3 248.112 276.371 248.256L276.724 249.479C276.795 249.695 277.007 249.695 277.219 249.695C277.501 249.695 277.854 249.695 278.066 249.551C278.207 249.407 278.066 249.12 278.137 248.976C278.349 248.832 278.561 248.976 278.49 249.192L278.631 249.911C278.631 250.055 278.419 250.055 278.349 250.055H276.159C275.947 250.055 275.735 250.199 275.594 250.055C275.382 249.767 275.735 249.839 275.877 249.695C276.018 249.551 275.877 249.335 275.877 249.192L275.241 246.961C275.241 246.746 275.029 246.458 274.817 246.458C274.605 246.458 274.393 246.386 274.464 246.17H275.17L277.289 246.098H277.219ZM254.052 255.522C254.052 255.307 253.911 254.947 253.628 254.803C253.416 254.803 253.134 254.803 253.275 254.587L253.981 254.515C254.546 254.515 255.111 254.371 255.676 254.515C256.524 254.659 257.301 255.379 257.513 256.17C257.654 256.745 257.725 257.321 257.372 257.825C257.018 258.256 256.383 258.4 255.818 258.4C255.323 258.4 254.9 258.4 254.476 258.544C254.334 258.616 254.052 258.472 254.193 258.256C254.405 258.256 254.688 258.184 254.617 257.897L254.334 256.817L254.052 255.522ZM255.182 257.321C255.253 257.537 255.323 257.825 255.465 257.968C255.676 258.112 255.959 258.04 256.171 257.968C256.453 257.968 256.736 257.681 256.807 257.321C256.862 256.777 256.764 256.228 256.524 255.738C256.433 255.515 256.288 255.319 256.103 255.169C255.918 255.018 255.698 254.917 255.465 254.875C255.208 254.826 254.944 254.826 254.688 254.875C254.617 254.875 254.688 255.019 254.688 255.163L255.182 257.321ZM260.197 254.084C260.409 254.084 260.409 254.299 260.479 254.443L260.621 255.091C260.479 255.235 260.267 255.091 260.267 254.947C260.197 254.731 260.056 254.515 259.844 254.515H258.925C258.784 254.587 258.925 254.803 258.925 254.947C258.925 255.307 259.067 255.666 259.137 255.954C259.349 255.954 259.561 255.954 259.702 255.81C259.844 255.666 259.632 255.379 259.844 255.307C260.126 255.307 260.055 255.666 260.126 255.81L260.338 256.745C260.338 256.961 259.985 256.745 259.985 256.602C259.985 256.386 259.702 256.242 259.49 256.314C259.42 256.314 259.137 256.242 259.279 256.386C259.279 256.745 259.42 257.105 259.561 257.537C259.561 257.753 259.844 257.753 260.055 257.753C260.338 257.753 260.691 257.753 260.903 257.537C261.044 257.393 260.903 257.105 261.044 256.961C261.186 256.817 261.327 257.033 261.327 257.249C261.327 257.465 261.327 257.681 261.468 257.968C261.397 258.112 261.256 258.04 261.115 258.04L258.996 258.184C258.784 258.184 258.572 258.328 258.36 258.184C258.219 258.04 258.431 257.897 258.643 257.897C258.855 257.825 258.784 257.537 258.714 257.393L258.219 255.091C258.148 254.875 258.007 254.587 257.795 254.587C257.583 254.587 257.372 254.515 257.442 254.299H258.148L260.197 254.084ZM264.788 257.033C264.788 257.249 265 257.465 265.211 257.537C265.353 257.537 265.635 257.537 265.706 257.681C265.777 257.897 265.423 257.825 265.282 257.825L264.081 257.897C263.87 257.897 263.658 257.968 263.516 257.897C263.304 257.897 263.375 257.609 263.587 257.609C263.799 257.609 264.011 257.537 264.081 257.321L264.011 256.745L263.516 254.731C263.516 254.515 263.304 254.515 263.093 254.515C262.951 254.515 262.669 254.659 262.598 254.443C262.598 254.156 262.951 254.227 263.093 254.156L263.87 253.868C264.011 253.868 264.081 253.94 264.081 254.084L264.788 257.033ZM267.401 254.659C267.401 254.371 267.189 254.084 266.907 254.084C266.695 254.084 266.412 254.084 266.342 254.299C266.271 254.587 266.342 254.875 266.624 255.019L267.26 255.379L267.401 254.947V254.659ZM267.966 256.745C267.966 256.386 267.542 256.17 267.26 256.026C267.118 256.026 266.977 255.882 266.907 255.954C266.797 256.034 266.712 256.144 266.662 256.272C266.612 256.399 266.599 256.539 266.624 256.674C266.765 257.105 266.977 257.393 267.33 257.393C267.613 257.465 267.895 257.393 268.037 257.105V256.745H267.966ZM268.672 256.602C268.672 256.961 268.531 257.321 268.249 257.537C267.895 257.825 267.33 257.825 266.836 257.681C266.412 257.609 266.13 257.249 265.988 256.817C265.988 256.458 266.059 256.098 266.342 255.81C266.412 255.81 266.695 255.738 266.483 255.666C266.13 255.522 265.777 255.235 265.777 254.803C265.635 254.443 265.777 254.084 266.13 253.868C266.442 253.704 266.804 253.665 267.144 253.758C267.483 253.851 267.776 254.07 267.966 254.371C268.107 254.659 268.107 255.019 267.966 255.235L267.542 255.594C267.895 255.594 268.249 255.882 268.39 256.17C268.531 256.242 268.602 256.458 268.602 256.602H268.672ZM270.933 257.033C271.074 257.033 271.286 256.889 271.286 256.745C271.356 256.602 271.286 256.242 271.498 256.314C271.709 256.314 271.639 256.53 271.709 256.745C271.709 257.033 271.709 257.321 271.427 257.537C271.286 257.681 271.074 257.609 270.862 257.609H269.661C269.52 257.609 269.308 257.753 269.167 257.609C269.025 257.465 269.167 257.249 269.167 257.105C269.308 256.602 269.591 256.242 269.873 255.954C270.156 255.738 270.438 255.522 270.438 255.163C270.438 254.875 270.438 254.587 270.297 254.299C270.247 254.218 270.181 254.148 270.104 254.093C270.026 254.038 269.939 253.999 269.847 253.979C269.755 253.959 269.66 253.958 269.567 253.976C269.475 253.994 269.386 254.03 269.308 254.084C269.096 254.156 268.955 254.443 269.096 254.587C269.237 254.731 269.52 254.587 269.591 254.875C269.732 255.019 269.591 255.307 269.379 255.307C269.096 255.307 268.814 255.091 268.672 254.803C268.602 254.443 268.743 254.012 269.096 253.796C269.449 253.58 269.873 253.58 270.297 253.652C270.65 253.796 271.003 254.084 271.144 254.515C271.215 254.803 271.215 255.163 271.074 255.45C270.791 255.954 270.226 256.17 269.873 256.674C269.802 256.745 269.732 256.889 269.802 257.105C269.802 256.889 270.085 256.961 270.156 256.961H270.862L270.933 257.033ZM273.687 256.745C273.687 256.889 273.899 257.105 274.111 257.177C274.252 257.177 274.535 257.177 274.605 257.321C274.747 257.537 274.393 257.537 274.252 257.537H272.345C272.204 257.465 272.345 257.177 272.486 257.249C272.698 257.249 272.91 257.177 272.981 256.961V256.386L272.486 254.371C272.486 254.156 272.274 254.156 272.133 254.156C271.921 254.156 271.709 254.299 271.639 254.156C271.498 253.868 271.851 253.868 271.992 253.796L272.84 253.508C273.051 253.508 273.051 253.58 273.122 253.724L273.687 256.674V256.745Z" fill="#B07E09"/>
<path d="M253.558 198.041L250.874 201.35C250.026 205.091 252.145 207.969 256.312 210.415C259.632 212.573 265.847 213.077 267.825 211.35L258.148 201.998L253.558 198.113V198.041Z" fill="url(#paint9_radial_103_6027)" stroke="#4C0505" stroke-width="0.142566"/>
<path d="M273.193 295.09L271.78 293.292C265.641 301.779 257.759 308.8 248.684 313.867C259.349 310.846 266.342 302.932 273.193 295.09ZM262.245 320.774C266.219 312.854 270.507 305.102 275.1 297.537L273.616 295.594C268.39 304.371 262.316 314.803 262.316 320.774H262.245ZM291.768 238.4C291.098 235.178 290.08 232.041 288.731 229.048C281.158 216.044 270.527 205.166 257.795 197.393V197.177H258.078L258.007 197.106H258.29L258.148 196.89H258.431L258.219 196.602H258.502L258.29 196.386H258.643L258.431 196.098H258.714L258.431 195.882L258.855 195.811L258.502 195.595L258.855 195.523L258.572 195.307L258.996 195.163L258.643 194.947L259.067 194.731L258.643 194.444L259.137 194.3L258.572 194.084L259.067 193.796H258.502L258.855 193.293H258.36L258.572 192.933H258.148L258.36 192.573L257.866 192.645L258.078 192.213L257.654 192.501L257.795 191.998L257.301 192.285L257.372 191.782L256.948 192.142L257.018 191.638L256.665 191.998V191.494L256.312 191.926V191.422L256.03 191.782L255.888 191.35L255.606 191.782L255.535 191.278L255.323 191.782L255.182 191.278L254.97 191.782L254.829 191.35L254.688 191.782L254.546 191.35L254.405 191.926L254.264 191.422L254.052 191.998L253.84 191.494V192.07L253.558 191.566V192.142L253.204 191.71V192.285L252.922 191.854V192.357L252.639 192.142L252.781 192.645L252.427 192.429L252.569 192.861L252.286 192.717L252.357 193.149H252.074L252.216 193.436H252.004L252.145 193.724C251.889 194.536 251.793 195.392 251.862 196.242C251.862 196.386 252.286 196.53 252.357 196.674C252.569 196.962 252.498 197.106 252.498 197.106C251.368 198.976 250.379 200.415 250.309 202.573C251.156 201.422 252.145 199.983 253.416 199.983C252.781 201.062 252.498 204.372 253.204 204.875L253.769 203.94C253.769 204.659 253.84 205.235 254.052 205.595C254.264 205.163 254.476 204.659 254.758 204.372C254.758 205.451 254.899 206.314 255.182 206.746C255.535 206.17 255.888 205.882 256.312 205.595C256.171 206.242 255.959 206.818 256.1 207.537C256.524 206.818 256.948 206.314 257.442 205.739C257.16 206.89 257.442 207.753 257.725 208.976C258.007 207.537 258.148 207.321 258.784 206.746C258.855 208.113 258.643 209.336 258.925 210.127C259.49 208.904 259.914 209.048 260.338 208.257C260.197 209.408 259.985 210.631 260.338 211.638C260.543 210.867 261.021 210.201 261.68 209.767C261.68 211.35 262.033 211.062 261.115 212.429C261.539 212.573 262.881 212.141 263.658 211.782C263.304 212.645 263.375 213.292 263.022 213.94C263.728 213.508 264.435 212.861 265.07 212.213C264.788 213.221 264.011 214.228 264.364 215.163C264.576 214.228 265.282 213.508 265.988 213.364C265.847 213.868 265.777 214.947 265.07 215.451C266.765 215.595 267.472 214.444 268.319 213.508C268.249 214.444 268.319 215.235 269.449 216.602C269.237 214.875 269.591 215.235 270.367 214.228C270.791 215.738 271.215 217.393 272.769 218.544C272.063 216.89 272.063 216.026 272.345 215.019C272.557 216.098 273.546 217.393 273.758 218.328C273.97 217.249 274.111 216.17 274.464 215.451C274.983 216.738 275.316 218.095 275.453 219.479C275.806 218.76 276.088 218.041 276.23 217.321C290.214 232.069 293.322 250.918 277.996 270.846C283.505 267.105 284.917 261.134 287.954 256.026C284.988 262.717 283.717 270.199 278.419 275.738C283.505 271.278 284.564 267.177 287.601 262.86C284.423 271.853 279.832 281.709 273.616 290.774L277.007 294.515L279.832 289.551C286.471 278.472 297.277 262.573 291.839 238.4H291.768Z" fill="#448127" stroke="#34541F" stroke-width="0.142566"/>
<path d="M251.721 195.091C251.015 195.235 250.732 195.523 250.167 196.098C250.874 196.242 251.368 196.314 252.004 196.314C252.145 196.314 252.216 196.026 252.216 195.882L252.074 195.163C252.074 195.019 251.651 195.091 251.509 195.163L251.721 195.091Z" fill="#EAC102" stroke="#A08307" stroke-width="0.142566"/>
<path d="M250.167 196.098C250.67 195.919 251.191 195.798 251.721 195.739C251.219 195.919 250.697 196.04 250.167 196.098Z" fill="#A08307"/>
<path d="M254.9 195.739C255.212 195.739 255.465 195.481 255.465 195.163C255.465 194.845 255.212 194.588 254.9 194.588C254.587 194.588 254.334 194.845 254.334 195.163C254.334 195.481 254.587 195.739 254.9 195.739Z" fill="black" stroke="black" stroke-width="0.071283"/>
<path d="M255.041 195.379C255.158 195.379 255.253 195.25 255.253 195.091C255.253 194.932 255.158 194.803 255.041 194.803C254.924 194.803 254.829 194.932 254.829 195.091C254.829 195.25 254.924 195.379 255.041 195.379Z" fill="url(#paint10_radial_103_6027)"/>
<path d="M262.316 320.558C263.596 316.247 265.35 312.096 267.542 308.184C269.112 305.199 270.784 302.272 272.557 299.407L274.393 296.529L272.628 299.407C270.929 302.327 269.281 305.277 267.684 308.256C265.617 312.201 263.824 316.287 262.316 320.486V320.558ZM248.967 313.723C257.219 310.068 264.434 304.352 269.944 297.105C267.161 299.79 264.521 302.624 262.033 305.594C258.118 308.979 253.71 311.721 248.967 313.723ZM275.312 292.644C275.877 291.925 276.371 291.062 276.865 290.27C278.382 287.888 279.796 285.44 281.103 282.932C282.092 281.278 282.94 279.551 283.787 277.896L286.4 272.86L285.2 275.378L283.928 277.968C282.216 281.334 280.403 284.645 278.49 287.896C277.497 289.524 276.437 291.108 275.312 292.644ZM279.479 274.587C281.901 271.667 283.921 268.423 285.482 264.947C287.778 259.706 289.21 254.115 289.72 248.4C289.662 249.358 289.638 250.318 289.649 251.278C289.055 256.038 287.67 260.66 285.553 264.947C283.958 268.421 281.916 271.663 279.479 274.587Z" fill="#34541F"/>
<path d="M278.349 270.414C280.819 267.74 282.89 264.71 284.493 261.422C285.675 258.969 286.713 256.446 287.601 253.868L287.813 253.22L288.025 252.573L288.449 251.278C289.172 247.626 289.22 243.869 288.59 240.199C288.634 242.055 288.799 243.905 289.084 245.738C289.084 247.609 288.943 249.479 288.59 251.278C288.378 251.71 288.307 252.213 288.166 252.645L287.954 253.292L287.672 253.94C286.699 256.508 285.662 259.051 284.564 261.566C283.786 263.214 282.888 264.801 281.88 266.314C280.852 267.829 279.668 269.227 278.349 270.486V270.414Z" fill="#34541F"/>
<path d="M274.181 291.421C275.1 290.27 275.877 289.047 276.724 287.824L277.996 286.026L279.196 284.227L281.315 280.342L283.152 276.386C284.423 273.724 285.624 271.062 286.683 268.256C288.795 262.781 290.058 257.005 290.426 251.134C291.021 245.264 290.396 239.332 288.59 233.724C290.583 239.288 291.26 245.253 290.568 251.134C290.193 257.027 288.931 262.826 286.824 268.328C285.765 271.062 284.564 273.724 283.293 276.386L281.315 280.342C280.679 281.709 280.044 283.004 279.267 284.227C278.914 284.947 278.49 285.45 278.066 286.098L276.795 287.896L274.252 291.493L274.181 291.421Z" fill="#34541F"/>
<path d="M276.159 293.652C279.482 288.116 282.638 282.478 285.624 276.745C289.938 268.01 292.049 258.318 291.768 248.544C291.768 245.307 291.486 242.069 290.921 238.904C290.944 238.904 290.968 238.904 290.991 238.904C291.627 242.069 291.839 245.379 291.839 248.544C291.822 255.033 290.967 261.491 289.296 267.753C288.367 270.868 287.186 273.9 285.765 276.817C282.755 282.526 279.576 288.14 276.23 293.652H276.159ZM256.524 199.048H257.513C258.519 199.209 259.495 199.525 260.409 199.983C262.768 201.262 264.914 202.913 266.765 204.875C264.889 202.981 262.747 201.381 260.409 200.127C259.174 199.57 257.865 199.207 256.524 199.048Z" fill="#34541F"/>
<path d="M268.107 206.818C268.107 206.818 270.226 208.113 271.427 209.983C271.427 209.983 268.107 209.336 265.777 206.674" fill="#448127"/>
<path d="M268.107 206.818C269.46 207.595 270.62 208.678 271.498 209.983L271.568 210.127H271.427C270.328 209.872 269.278 209.435 268.319 208.832C267.33 208.257 266.483 207.537 265.706 206.674C266.867 207.904 268.294 208.84 269.873 209.408L271.427 209.911V210.055C271.001 209.379 270.477 208.773 269.873 208.257C269.328 207.724 268.737 207.242 268.107 206.818Z" fill="#34541F"/>
<path d="M263.304 206.17C263.304 206.17 268.39 209.48 269.167 209.767C269.167 209.767 267.966 207.249 265.565 206.17" fill="#448127"/>
<path d="M263.304 206.17L266.2 207.969C266.925 208.409 267.655 208.841 268.39 209.264L269.096 209.695V209.767C268.72 208.992 268.219 208.287 267.613 207.681C267.018 207.064 266.326 206.553 265.565 206.17C266.365 206.488 267.088 206.979 267.684 207.609C268.293 208.239 268.794 208.969 269.167 209.767L269.308 209.911L269.096 209.839L267.613 208.976C266.155 208.052 264.718 207.092 263.304 206.098V206.17Z" fill="#34541F"/>
<path d="M265.353 204.516C265.353 204.516 267.966 205.667 268.602 207.609C268.602 207.609 263.799 205.595 262.951 204.516" fill="#448127"/>
<path d="M265.353 204.516C266.065 204.795 266.732 205.183 267.33 205.667L268.107 206.53L268.672 207.609V207.753H268.531C266.839 206.952 265.189 206.064 263.587 205.091L262.951 204.516L263.587 205.019L264.293 205.451C265.659 206.307 267.102 207.03 268.602 207.609H268.531C268.39 207.321 268.249 206.89 267.966 206.674C267.789 206.342 267.549 206.048 267.26 205.811C266.692 205.284 266.049 204.847 265.353 204.516Z" fill="#34541F"/>
<path d="M261.327 206.602C261.327 206.602 265.988 209.983 267.401 209.983C267.401 209.983 265.988 207.609 263.587 206.602" fill="#448127"/>
<path d="M261.327 206.602C263.034 207.694 264.777 208.726 266.553 209.695L267.401 209.911L267.33 210.055C266.889 209.306 266.341 208.628 265.706 208.041C265.069 207.463 264.355 206.979 263.587 206.602C264.8 207.084 265.871 207.877 266.695 208.904L267.401 209.983L267.542 210.055H267.401C267.048 210.055 266.765 209.983 266.483 209.839L265.777 209.48C264.192 208.693 262.7 207.728 261.327 206.602Z" fill="#34541F"/>
<path d="M261.327 207.609C261.327 207.609 263.728 209.767 265.141 209.767C265.141 209.767 263.728 207.393 261.327 206.314" fill="#448127"/>
<path d="M261.327 207.609C262.224 208.279 263.168 208.88 264.152 209.408L264.576 209.552L265.141 209.695L265.07 209.767C264.623 209.044 264.076 208.39 263.446 207.825C262.808 207.247 262.095 206.763 261.327 206.386C262.532 206.848 263.602 207.615 264.435 208.616L265.141 209.695L265.282 209.839H265.141C264.749 209.824 264.364 209.726 264.011 209.552C263.347 209.23 262.729 208.819 262.174 208.329C261.848 208.148 261.56 207.903 261.327 207.609Z" fill="#34541F"/>
<path d="M260.056 202.933C260.056 202.933 265.141 206.602 265.706 208.616C265.706 208.616 261.186 206.458 260.338 205.379" fill="#448127"/>
<path d="M260.056 202.933C261.968 204.337 263.742 205.928 265.353 207.681L265.847 208.544V208.76L265.706 208.688C264.061 207.834 262.458 206.898 260.903 205.882L261.609 206.314C262.955 207.162 264.374 207.884 265.847 208.472L265.706 208.616L265.211 207.753C264.181 206.413 262.995 205.205 261.68 204.156L260.056 202.933Z" fill="#34541F"/>
<path d="M231.804 306.601C227.362 308.968 222.406 310.156 217.395 310.054C224.458 304.155 231.309 304.011 231.804 306.601ZM281.103 309.839C284.776 313.22 295.936 315.594 297.701 315.162C290.215 307.465 282.092 306.673 281.103 309.839Z" fill="#406325" stroke="#24420E" stroke-width="0.142566"/>
<path d="M231.804 306.601C231.309 303.939 224.387 304.155 217.395 310.054C221.999 308.169 226.857 307.005 231.804 306.601ZM281.174 309.767C282.163 306.601 290.215 307.393 297.701 315.162C292.482 312.548 286.913 310.73 281.174 309.767Z" fill="#67923D" stroke="#24420E" stroke-width="0.142566"/>
</g>
<defs>
<radialGradient id="paint0_radial_103_6027" cx="0" cy="0" r="1" gradientUnits="userSpaceOnUse" gradientTransform="translate(233.499 261.997) scale(11.654 11.8704)">
<stop offset="0.2" stop-color="#F9F0AA"/>
<stop offset="1" stop-color="#B07E09"/>
</radialGradient>
<radialGradient id="paint1_radial_103_6027" cx="0" cy="0" r="1" gradientUnits="userSpaceOnUse" gradientTransform="translate(236.465 265.379) scale(7.69867 7.84166)">
<stop offset="0.2" stop-color="#F9F0AA"/>
<stop offset="1" stop-color="#B07E09"/>
</radialGradient>
<radialGradient id="paint2_radial_103_6027" cx="0" cy="0" r="1" gradientUnits="userSpaceOnUse" gradientTransform="translate(238.231 262.213) scale(6.92175 7.05032)">
<stop offset="0.2" stop-color="#F9F0AA"/>
<stop offset="1" stop-color="#B07E09"/>
</radialGradient>
<radialGradient id="paint3_radial_103_6027" cx="0" cy="0" r="1" gradientUnits="userSpaceOnUse" gradientTransform="translate(241.268 261.134) scale(12.2896 12.5179)">
<stop offset="0.2" stop-color="#F9F0AA"/>
<stop offset="1" stop-color="#B07E09"/>
</radialGradient>
<linearGradient id="paint4_linear_103_6027" x1="252.216" y1="226.674" x2="251.117" y2="207.108" gradientUnits="userSpaceOnUse">
<stop offset="0.2" stop-color="#B07E09" stop-opacity="0"/>
<stop offset="1" stop-color="#B07E09"/>
</linearGradient>
<linearGradient id="paint5_linear_103_6027" x1="258.714" y1="253.652" x2="260.472" y2="275.157" gradientUnits="userSpaceOnUse">
<stop offset="0.2" stop-color="#B07E09" stop-opacity="0"/>
<stop offset="1" stop-color="#B07E09"/>
</linearGradient>
<radialGradient id="paint6_radial_103_6027" cx="0" cy="0" r="1" gradientUnits="userSpaceOnUse" gradientTransform="translate(232.51 221.782) scale(9.18192 9.35246)">
<stop offset="0.2" stop-color="#F9F0AA"/>
<stop offset="1" stop-color="#B07E09"/>
</radialGradient>
<linearGradient id="paint7_linear_103_6027" x1="236.394" y1="219.695" x2="239.235" y2="213.331" gradientUnits="userSpaceOnUse">
<stop offset="0.2" stop-color="#F9F0AA"/>
<stop offset="1" stop-color="#B07E09"/>
</linearGradient>
<linearGradient id="paint8_linear_103_6027" x1="251.792" y1="210.846" x2="253.697" y2="234.726" gradientUnits="userSpaceOnUse">
<stop offset="0.2" stop-color="#F9F0AA"/>
<stop offset="1" stop-color="#B07E09"/>
</linearGradient>
<radialGradient id="paint9_radial_103_6027" cx="0" cy="0" r="1" gradientUnits="userSpaceOnUse" gradientTransform="translate(255.041 195.091) scale(0.21189 0.215826)">
<stop offset="0.3" stop-color="#A50A0A"/>
<stop offset="1" stop-color="#4C0505"/>
</radialGradient>
<radialGradient id="paint10_radial_103_6027" cx="0" cy="0" r="1" gradientUnits="userSpaceOnUse" gradientTransform="translate(255.03 195.043) scale(0.207033 0.22089)">
<stop stop-color="white"/>
<stop offset="1" stop-color="white" stop-opacity="0"/>
</radialGradient>
<clipPath id="clip0_103_6027">
<rect width="512" height="512" fill="white" transform="translate(0.5)"/>
</clipPath>
</defs>
</svg>
