<svg width="513" height="512" viewBox="0 0 513 512" fill="none" xmlns="http://www.w3.org/2000/svg">
<g clip-path="url(#clip0_103_6194)">
<path fill-rule="evenodd" clip-rule="evenodd" d="M0.5 0H512.5V512H0.5V0Z" fill="#BE0027"/>
<path fill-rule="evenodd" clip-rule="evenodd" d="M21 20.5H491V491.5H21V20.5Z" fill="#3B5AA3"/>
<path fill-rule="evenodd" clip-rule="evenodd" d="M252.4 396.1C254.2 397.1 257.1 397.1 258.7 396.2C362 341.2 362.1 190.4 258.8 136.2C257.765 135.712 256.632 135.468 255.488 135.485C254.344 135.502 253.22 135.781 252.2 136.3C151.5 191.4 151.2 340.5 252.4 396.1Z" fill="#CBE0E5"/>
<path fill-rule="evenodd" clip-rule="evenodd" d="M252.4 398.9C254 400.2 257.2 400 258.7 398.9C334.8 341.9 335.3 306.4 331.9 306.4H181.2C178.9 306.4 182.5 342.5 252.4 398.8V398.9Z" fill="#ADD2D9"/>
<path fill-rule="evenodd" clip-rule="evenodd" d="M193.1 334.6C199.989 332.444 207.431 332.907 214 335.9C219.7 338.9 223 338.9 229.1 338.9C235.6 339 240.6 343.8 247.6 343.9C260.4 344.3 265.9 350.6 255.9 350.7C251.2 350.7 241.1 347.5 236.2 348.2C226 349.2 219.5 351.5 209.9 362.2L221 369.8C230.6 365.8 232.2 361.5 237.5 361.3C243.5 361.1 245.5 357.3 252.5 357.3C260.4 358.8 271 356.3 277.3 355C288.4 352.4 283.1 344.7 276.4 341.8C271 339.5 260.8 341.8 254.4 339.5C249.7 337.6 253.6 334.6 256.2 334C258.8 333.5 261.6 334.4 264.8 334.9C270.6 335.4 277.8 334.9 282.8 334C293.3 332.4 292.8 329.3 297.9 329.3C301.145 329.204 304.284 328.122 306.9 326.2C309.9 324.2 312.9 320.2 316.5 320.3L326.1 320.7L312.5 351L274.5 389.8L254.7 397.3L211.5 369L189.5 335.5L193 334.6H193.1Z" fill="#FDF9A1"/>
<path fill-rule="evenodd" clip-rule="evenodd" d="M242.9 305.1L329.9 304.7L331.5 297L325.9 296.4C322.7 296.2 317.4 299.7 313.8 299.7C311.2 299.7 308.3 295.1 305.8 295.2C301.4 295.2 301 299.2 296.8 299.2C293.4 299.2 292 296.6 287.6 296.8C283 297.1 283.4 299.6 277.6 299.5C269.9 299.3 266.9 292.6 260.8 292.5C250.5 292.5 250.2 302.3 242.9 305.1Z" fill="#179A3B"/>
<path fill-rule="evenodd" clip-rule="evenodd" d="M242.9 307L332.5 306.5V304.1L240.9 304.6L242.9 307Z" fill="#FDF9A1"/>
<path fill-rule="evenodd" clip-rule="evenodd" d="M279.7 334C281.1 339.2 282.6 341 288.1 342.4C293.6 343.7 302 338.4 296.8 333.2C291.8 328.4 286.6 327.2 282.2 322.8C272.8 313.6 258.7 290.9 258.7 275C258.7 261.2 257.4 233.1 257.4 206.5C257.4 204.7 252.2 211.3 252.2 213C252.4 236.6 252.4 254.3 253.3 278C254.8 295.4 263.1 307 270.3 317.6C273.6 322.6 278.3 328.1 279.7 333.9V334Z" fill="#A79270"/>
<path d="M224.282 261.1C224.082 260.488 223.818 259.939 223.491 259.455C223.17 258.964 222.785 258.545 222.336 258.2C221.894 257.855 221.391 257.591 220.827 257.409C220.264 257.227 219.645 257.136 218.973 257.136C217.87 257.136 216.867 257.421 215.964 257.991C215.061 258.561 214.342 259.4 213.809 260.509C213.276 261.618 213.009 262.979 213.009 264.591C213.009 266.203 213.279 267.564 213.818 268.673C214.358 269.782 215.088 270.621 216.009 271.191C216.93 271.761 217.967 272.045 219.118 272.045C220.185 272.045 221.124 271.818 221.936 271.364C222.755 270.903 223.391 270.255 223.845 269.418C224.306 268.576 224.536 267.585 224.536 266.445L225.227 266.591H219.627V264.591H226.718V266.591C226.718 268.124 226.391 269.458 225.736 270.591C225.088 271.724 224.191 272.603 223.045 273.227C221.906 273.845 220.597 274.155 219.118 274.155C217.47 274.155 216.021 273.767 214.773 272.991C213.53 272.215 212.561 271.112 211.864 269.682C211.173 268.252 210.827 266.555 210.827 264.591C210.827 263.118 211.024 261.794 211.418 260.618C211.818 259.436 212.382 258.43 213.109 257.6C213.836 256.77 214.697 256.133 215.691 255.691C216.685 255.249 217.779 255.027 218.973 255.027C219.955 255.027 220.87 255.176 221.718 255.473C222.573 255.764 223.333 256.179 224 256.718C224.673 257.252 225.233 257.891 225.682 258.636C226.13 259.376 226.439 260.197 226.609 261.1H224.282Z" fill="#BD0728"/>
<path d="M224.282 261.1L223.521 261.348L223.702 261.9H224.282V261.1ZM223.491 259.455L222.821 259.893L222.828 259.902L223.491 259.455ZM222.336 258.2L221.844 258.831L221.848 258.834L222.336 258.2ZM220.827 257.409L221.073 256.648L221.073 256.648L220.827 257.409ZM213.809 260.509L214.53 260.856V260.856L213.809 260.509ZM213.818 268.673L213.099 269.023L213.818 268.673ZM216.009 271.191L215.588 271.871L216.009 271.191ZM221.936 271.364L222.327 272.062L222.329 272.061L221.936 271.364ZM223.845 269.418L223.144 269.034L223.143 269.036L223.845 269.418ZM224.536 266.445L224.701 265.663L223.736 265.46V266.445H224.536ZM225.227 266.591V267.391L225.392 265.808L225.227 266.591ZM219.627 266.591H218.827V267.391H219.627V266.591ZM219.627 264.591V263.791H218.827V264.591H219.627ZM226.718 264.591H227.518V263.791H226.718V264.591ZM225.736 270.591L225.044 270.191L225.042 270.194L225.736 270.591ZM223.045 273.227L223.427 273.93L223.428 273.93L223.045 273.227ZM214.773 272.991L214.349 273.67L214.35 273.67L214.773 272.991ZM211.864 269.682L211.143 270.03L211.144 270.032L211.864 269.682ZM211.418 260.618L210.66 260.362L210.66 260.364L211.418 260.618ZM213.109 257.6L213.711 258.127L213.109 257.6ZM215.691 255.691L215.366 254.96L215.691 255.691ZM221.718 255.473L221.454 256.228L221.46 256.23L221.718 255.473ZM224 256.718L223.497 257.34L223.503 257.345L224 256.718ZM225.682 258.636L224.996 259.049L224.998 259.051L225.682 258.636ZM226.609 261.1V261.9H227.573L227.395 260.952L226.609 261.1ZM225.042 260.852C224.821 260.176 224.527 259.559 224.154 259.007L222.828 259.902C223.11 260.32 223.342 260.8 223.521 261.348L225.042 260.852ZM224.16 259.017C223.792 258.453 223.347 257.968 222.825 257.566L221.848 258.834C222.223 259.123 222.547 259.474 222.821 259.893L224.16 259.017ZM222.829 257.569C222.308 257.163 221.721 256.857 221.073 256.648L220.582 258.17C221.061 258.325 221.48 258.546 221.844 258.831L222.829 257.569ZM221.073 256.648C220.42 256.437 219.718 256.336 218.973 256.336V257.936C219.573 257.936 220.107 258.017 220.582 258.17L221.073 256.648ZM218.973 256.336C217.724 256.336 216.572 256.661 215.537 257.314L216.39 258.668C217.161 258.181 218.016 257.936 218.973 257.936V256.336ZM215.537 257.314C214.488 257.976 213.676 258.939 213.088 260.162L214.53 260.856C215.008 259.861 215.633 259.145 216.39 258.668L215.537 257.314ZM213.088 260.162C212.489 261.408 212.209 262.894 212.209 264.591H213.809C213.809 263.063 214.062 261.829 214.53 260.856L213.088 260.162ZM212.209 264.591C212.209 266.289 212.493 267.776 213.099 269.023L214.538 268.323C214.065 267.351 213.809 266.118 213.809 264.591H212.209ZM213.099 269.023C213.695 270.249 214.521 271.211 215.588 271.871L216.43 270.511C215.655 270.031 215.02 269.315 214.538 268.323L213.099 269.023ZM215.588 271.871C216.644 272.524 217.828 272.845 219.118 272.845V271.245C218.106 271.245 217.217 270.997 216.43 270.511L215.588 271.871ZM219.118 272.845C220.301 272.845 221.379 272.592 222.327 272.062L221.546 270.666C220.869 271.044 220.068 271.245 219.118 271.245V272.845ZM222.329 272.061C223.28 271.525 224.023 270.767 224.548 269.8L223.143 269.036C222.759 269.742 222.229 270.281 221.544 270.667L222.329 272.061ZM224.547 269.802C225.083 268.822 225.336 267.694 225.336 266.445H223.736C223.736 267.476 223.529 268.33 223.144 269.034L224.547 269.802ZM224.372 267.228L225.062 267.374L225.392 265.808L224.701 265.663L224.372 267.228ZM225.227 265.791H219.627V267.391H225.227V265.791ZM220.427 266.591V264.591H218.827V266.591H220.427ZM219.627 265.391H226.718V263.791H219.627V265.391ZM225.918 264.591V266.591H227.518V264.591H225.918ZM225.918 266.591C225.918 268.008 225.617 269.199 225.044 270.191L226.429 270.991C227.165 269.717 227.518 268.24 227.518 266.591H225.918ZM225.042 270.194C224.467 271.198 223.678 271.972 222.663 272.525L223.428 273.93C224.704 273.235 225.709 272.25 226.431 270.988L225.042 270.194ZM222.664 272.524C221.657 273.07 220.483 273.355 219.118 273.355V274.955C220.711 274.955 222.155 274.621 223.427 273.93L222.664 272.524ZM219.118 273.355C217.6 273.355 216.302 272.999 215.195 272.311L214.35 273.67C215.741 274.534 217.339 274.955 219.118 274.955V273.355ZM215.196 272.312C214.092 271.623 213.22 270.639 212.583 269.331L211.144 270.032C211.901 271.585 212.968 272.807 214.349 273.67L215.196 272.312ZM212.584 269.334C211.956 268.035 211.627 266.462 211.627 264.591H210.027C210.027 266.647 210.389 268.468 211.143 270.03L212.584 269.334ZM211.627 264.591C211.627 263.189 211.815 261.952 212.177 260.872L210.66 260.364C210.234 261.635 210.027 263.048 210.027 264.591H211.627ZM212.176 260.875C212.547 259.78 213.061 258.869 213.711 258.127L212.507 257.073C211.702 257.992 211.09 259.093 210.66 260.362L212.176 260.875ZM213.711 258.127C214.363 257.383 215.13 256.816 216.016 256.422L215.366 254.96C214.264 255.45 213.31 256.157 212.507 257.073L213.711 258.127ZM216.016 256.422C216.898 256.029 217.88 255.827 218.973 255.827V254.227C217.678 254.227 216.472 254.468 215.366 254.96L216.016 256.422ZM218.973 255.827C219.873 255.827 220.698 255.963 221.454 256.228L221.982 254.718C221.042 254.388 220.036 254.227 218.973 254.227V255.827ZM221.46 256.23C222.231 256.492 222.907 256.863 223.497 257.34L224.503 256.096C223.76 255.495 222.915 255.035 221.976 254.715L221.46 256.23ZM223.503 257.345C224.1 257.818 224.597 258.384 224.996 259.049L226.367 258.224C225.87 257.397 225.246 256.685 224.497 256.091L223.503 257.345ZM224.998 259.051C225.393 259.703 225.67 260.433 225.823 261.248L227.395 260.952C227.209 259.961 226.867 259.048 226.366 258.221L224.998 259.051ZM226.609 260.3H224.282V261.9H226.609V260.3Z" fill="white"/>
<path d="M246.773 255.382H249.027V267.709C249.027 268.982 248.727 270.118 248.127 271.118C247.533 272.112 246.694 272.897 245.609 273.473C244.524 274.042 243.252 274.327 241.791 274.327C240.33 274.327 239.058 274.042 237.973 273.473C236.888 272.897 236.045 272.112 235.445 271.118C234.852 270.118 234.555 268.982 234.555 267.709V255.382H236.809V267.527C236.809 268.436 237.009 269.245 237.409 269.955C237.809 270.658 238.379 271.212 239.118 271.618C239.864 272.018 240.755 272.218 241.791 272.218C242.827 272.218 243.718 272.018 244.464 271.618C245.209 271.212 245.779 270.658 246.173 269.955C246.573 269.245 246.773 268.436 246.773 267.527V255.382Z" fill="#BD0728"/>
<path d="M246.773 255.382V254.582H245.973V255.382H246.773ZM249.027 255.382H249.827V254.582H249.027V255.382ZM248.127 271.118L247.441 270.707L247.441 270.708L248.127 271.118ZM245.609 273.473L245.981 274.181L245.984 274.179L245.609 273.473ZM237.973 273.473L237.598 274.179L237.601 274.181L237.973 273.473ZM235.445 271.118L234.758 271.527L234.761 271.532L235.445 271.118ZM234.555 255.382V254.582H233.755V255.382H234.555ZM236.809 255.382H237.609V254.582H236.809V255.382ZM237.409 269.955L236.712 270.348L236.714 270.35L237.409 269.955ZM239.118 271.618L238.733 272.319L238.74 272.323L239.118 271.618ZM244.464 271.618L244.842 272.323L244.846 272.321L244.464 271.618ZM246.173 269.955L245.476 269.561L245.475 269.563L246.173 269.955ZM246.773 256.182H249.027V254.582H246.773V256.182ZM248.227 255.382V267.709H249.827V255.382H248.227ZM248.227 267.709C248.227 268.851 247.96 269.842 247.441 270.707L248.813 271.53C249.495 270.394 249.827 269.113 249.827 267.709H248.227ZM247.441 270.708C246.926 271.569 246.198 272.254 245.234 272.766L245.984 274.179C247.19 273.539 248.141 272.656 248.814 271.529L247.441 270.708ZM245.237 272.764C244.287 273.263 243.147 273.527 241.791 273.527V275.127C243.356 275.127 244.761 274.821 245.981 274.181L245.237 272.764ZM241.791 273.527C240.435 273.527 239.295 273.263 238.345 272.764L237.601 274.181C238.82 274.821 240.225 275.127 241.791 275.127V273.527ZM238.348 272.766C237.383 272.254 236.651 271.567 236.13 270.705L234.761 271.532C235.44 272.657 236.393 273.54 237.598 274.179L238.348 272.766ZM236.133 270.71C235.62 269.845 235.355 268.852 235.355 267.709H233.755C233.755 269.112 234.083 270.392 234.758 271.527L236.133 270.71ZM235.355 267.709V255.382H233.755V267.709H235.355ZM234.555 256.182H236.809V254.582H234.555V256.182ZM236.009 255.382V267.527H237.609V255.382H236.009ZM236.009 267.527C236.009 268.558 236.237 269.505 236.712 270.348L238.106 269.561C237.781 268.986 237.609 268.315 237.609 267.527H236.009ZM236.714 270.35C237.19 271.187 237.87 271.845 238.733 272.319L239.503 270.917C238.888 270.579 238.428 270.128 238.104 269.559L236.714 270.35ZM238.74 272.323C239.625 272.798 240.652 273.018 241.791 273.018V271.418C240.857 271.418 240.102 271.238 239.496 270.913L238.74 272.323ZM241.791 273.018C242.93 273.018 243.957 272.798 244.842 272.323L244.085 270.913C243.48 271.238 242.725 271.418 241.791 271.418V273.018ZM244.846 272.321C245.717 271.847 246.399 271.187 246.871 270.346L245.475 269.563C245.159 270.128 244.701 270.578 244.081 270.916L244.846 272.321ZM246.869 270.348C247.345 269.505 247.573 268.558 247.573 267.527H245.973C245.973 268.315 245.801 268.986 245.476 269.561L246.869 270.348ZM247.573 267.527V255.382H245.973V267.527H247.573Z" fill="white"/>
<path d="M263.218 274H260.855L267.691 255.382H270.018L276.855 274H274.491L268.927 258.327H268.782L263.218 274ZM264.091 266.727H273.618V268.727H264.091V266.727Z" fill="#BD0728"/>
<path d="M263.218 274V274.8H263.783L263.972 274.268L263.218 274ZM260.855 274L260.104 273.724L259.709 274.8H260.855V274ZM267.691 255.382V254.582H267.132L266.94 255.106L267.691 255.382ZM270.018 255.382L270.769 255.106L270.577 254.582H270.018V255.382ZM276.855 274V274.8H278.001L277.606 273.724L276.855 274ZM274.491 274L273.737 274.268L273.926 274.8H274.491V274ZM268.927 258.327L269.681 258.06L269.492 257.527H268.927V258.327ZM268.782 258.327V257.527H268.217L268.028 258.06L268.782 258.327ZM264.091 266.727V265.927H263.291V266.727H264.091ZM273.618 266.727H274.418V265.927H273.618V266.727ZM273.618 268.727V269.527H274.418V268.727H273.618ZM264.091 268.727H263.291V269.527H264.091V268.727ZM263.218 273.2H260.855V274.8H263.218V273.2ZM261.606 274.276L268.442 255.658L266.94 255.106L260.104 273.724L261.606 274.276ZM267.691 256.182H270.018V254.582H267.691V256.182ZM269.267 255.658L276.104 274.276L277.606 273.724L270.769 255.106L269.267 255.658ZM276.855 273.2H274.491V274.8H276.855V273.2ZM275.245 273.732L269.681 258.06L268.173 258.595L273.737 274.268L275.245 273.732ZM268.927 257.527H268.782V259.127H268.927V257.527ZM268.028 258.06L262.464 273.732L263.972 274.268L269.536 258.595L268.028 258.06ZM264.091 267.527H273.618V265.927H264.091V267.527ZM272.818 266.727V268.727H274.418V266.727H272.818ZM273.618 267.927H264.091V269.527H273.618V267.927ZM264.891 268.727V266.727H263.291V268.727H264.891Z" fill="white"/>
<path d="M285.955 255.282H288.645L294.973 270.736H295.191L301.518 255.282H304.209V273.9H302.1V259.755H301.918L296.1 273.9H294.064L288.245 259.755H288.064V273.9H285.955V255.282Z" fill="#BD0728"/>
<path d="M285.955 255.282V254.482H285.155V255.282H285.955ZM288.645 255.282L289.386 254.979L289.182 254.482H288.645V255.282ZM294.973 270.736L294.232 271.039L294.436 271.536H294.973V270.736ZM295.191 270.736V271.536H295.728L295.931 271.039L295.191 270.736ZM301.518 255.282V254.482H300.981L300.778 254.979L301.518 255.282ZM304.209 255.282H305.009V254.482H304.209V255.282ZM304.209 273.9V274.7H305.009V273.9H304.209ZM302.1 273.9H301.3V274.7H302.1V273.9ZM302.1 259.755H302.9V258.955H302.1V259.755ZM301.918 259.755V258.955H301.382L301.178 259.45L301.918 259.755ZM296.1 273.9V274.7H296.636L296.84 274.204L296.1 273.9ZM294.064 273.9L293.324 274.204L293.528 274.7H294.064V273.9ZM288.245 259.755L288.985 259.45L288.781 258.955H288.245V259.755ZM288.064 259.755V258.955H287.264V259.755H288.064ZM288.064 273.9V274.7H288.864V273.9H288.064ZM285.955 273.9H285.155V274.7H285.955V273.9ZM285.955 256.082H288.645V254.482H285.955V256.082ZM287.905 255.585L294.232 271.039L295.713 270.433L289.386 254.979L287.905 255.585ZM294.973 271.536H295.191V269.936H294.973V271.536ZM295.931 271.039L302.259 255.585L300.778 254.979L294.451 270.433L295.931 271.039ZM301.518 256.082H304.209V254.482H301.518V256.082ZM303.409 255.282V273.9H305.009V255.282H303.409ZM304.209 273.1H302.1V274.7H304.209V273.1ZM302.9 273.9V259.755H301.3V273.9H302.9ZM302.1 258.955H301.918V260.555H302.1V258.955ZM301.178 259.45L295.36 273.596L296.84 274.204L302.658 260.059L301.178 259.45ZM296.1 273.1H294.064V274.7H296.1V273.1ZM294.804 273.596L288.985 259.45L287.506 260.059L293.324 274.204L294.804 273.596ZM288.245 258.955H288.064V260.555H288.245V258.955ZM287.264 259.755V273.9H288.864V259.755H287.264ZM288.064 273.1H285.955V274.7H288.064V273.1ZM286.755 273.9V255.282H285.155V273.9H286.755Z" fill="white"/>
<path fill-rule="evenodd" clip-rule="evenodd" d="M212.4 207.3C211.2 209.5 215.1 206.7 216 206.3C221 204.6 223 198.3 231.6 202C238.4 205 247.6 203.3 242.8 206.2C236.8 209.8 225.1 213.7 224.8 231.2C225.8 232.9 226 232.6 226.8 230.8C228.5 226.8 237.1 215.6 241.3 216.6C243 217 247.9 211.6 248.1 213.1C248.5 217.5 241.3 226.3 241.4 238.1C241.4 240.9 244.8 241.8 246.4 239.9C248 238.2 248.9 236.4 251.8 234.2C256.8 230.1 255.4 212.7 256 213.5C259.5 218.1 260 231 265.4 236.3C269.7 240.7 273.3 238.6 272.4 232.5C270.4 220.2 264.6 223.7 261.9 211C261.3 208.5 261.2 206.3 264.4 207.3C268.4 208.5 270.8 210.3 273.8 214.9C276.8 219.2 282.3 223.3 285.6 225.9C291.2 230.2 293.2 226.4 290.5 220.9C287.066 214.549 281.456 209.649 274.7 207.1C270.1 205.5 268.4 205.4 264.3 204.6C263.3 204.4 262 202 264 200.8C268.367 197.653 273.457 195.658 278.8 195C283.8 194.9 287.8 198.9 291.3 200C298.4 201.8 298.3 197.3 295.3 194C292.7 191.2 287.3 186.5 282.3 187C272.1 188.3 272.7 188 266.5 192.2C264.2 193.5 261.7 195 262.6 193.4C264.9 189.3 262.7 190 266.3 185.8C269 182.8 271 180.5 273.8 179.8C276.4 179.1 279.8 176.4 280.8 175C283.4 171.5 281.2 169.5 277.3 170.7C273.9 171.7 272 173.9 269.7 174.5C264.2 176.2 259.7 188.8 259.1 190.5C258.2 192.7 257.3 191.6 257.4 189.8C258.2 181 259 166.1 255.9 160C251.2 151 251.6 155.2 249.8 159.5C247.575 165.913 247.575 172.888 249.8 179.3C250.5 182.6 253.2 186.3 253.8 189C254.1 191 252.5 188.3 251.7 187.1C248.7 182.6 246.5 179.5 241.7 177.1C236.886 175.136 231.605 174.615 226.5 175.6C225.2 176 228 178 229.2 178.9C232.4 181.5 238.5 182.3 242.6 184.9C246.2 186.9 248.9 188.4 250 191.4C250.5 193.6 251.2 196.9 249.8 196.8C245.9 196.6 239.9 193.3 227.6 194.6C221.3 195.5 215.9 200.9 212.4 207.3Z" fill="#239E46"/>
<path fill-rule="evenodd" clip-rule="evenodd" d="M239.2 319.8H242.8V325.8H239.2V319.8Z" fill="black"/>
<path fill-rule="evenodd" clip-rule="evenodd" d="M221.5 280.2C235.6 299.8 258.3 311.2 258.8 320.2L214.5 320C224.6 307.8 230.8 299.5 221.4 280.1L221.5 280.2Z" fill="#FDF9FF"/>
<path fill-rule="evenodd" clip-rule="evenodd" d="M208.6 320.6C227.9 324.9 250.8 327.2 265.5 320C265.5 324.3 260.7 330.4 256.7 330.4H219.8C224.1 329.8 226.5 328.5 233.5 328.1L213.9 328.4C211.8 328.4 207.9 322.7 208.6 320.6Z" fill="#A68861"/>
<path fill-rule="evenodd" clip-rule="evenodd" d="M252.2 406C253.264 406.5 254.425 406.758 255.6 406.758C256.775 406.758 257.936 406.5 259 406C370.1 346.9 370.2 184.7 259.2 126.4C258.096 125.854 256.881 125.569 255.65 125.569C254.418 125.569 253.204 125.854 252.1 126.4C143.8 185.7 143.5 346.1 252.2 405.9V406ZM252.8 392.6C253.724 393.029 254.731 393.252 255.75 393.252C256.769 393.252 257.776 393.029 258.7 392.6C351.7 337.9 352.8 193.3 258.8 141.5C257 140.2 254.4 140.6 252.6 141.5C163.6 194.2 158.6 332.9 252.8 392.5V392.6Z" fill="#BE0027"/>
<path d="M219.2 255.7C220.933 255.7 222.433 256.033 223.7 256.7C225.5 257.633 226.6 259.3 227 261.7H224.6C224.267 260.367 223.6 259.367 222.6 258.7C221.733 258.1 220.567 257.8 219.1 257.8C217.433 257.8 216 258.467 214.8 259.8C213.667 261.067 213.1 262.967 213.1 265.5C213.1 267.633 213.567 269.4 214.5 270.8C215.5 272.133 217.067 272.8 219.2 272.8C220.867 272.8 222.233 272.333 223.3 271.4C224.433 270.467 225 268.9 225 266.7H219.3V264.7H227.3V274.5H225.7L225.1 272.1C224.3 273.033 223.567 273.7 222.9 274.1C221.767 274.7 220.367 275 218.7 275C216.567 275 214.7 274.3 213.1 272.9C211.367 271.1 210.5 268.667 210.5 265.6C210.5 262.533 211.333 260.1 213 258.3C214.6 256.567 216.667 255.7 219.2 255.7Z" fill="#BD0728"/>
<path d="M237 256.2V267.6C237 268.933 237.233 270.033 237.7 270.9C238.433 272.233 239.7 272.9 241.5 272.9C243.567 272.9 245 272.2 245.8 270.8C246.2 270 246.4 268.933 246.4 267.6V256.2H248.9V266.6C248.9 268.8 248.567 270.533 247.9 271.8C246.833 274 244.767 275.1 241.7 275.1C238.567 275.1 236.433 274 235.3 271.8C234.7 270.533 234.4 268.8 234.4 266.6V256.2H237Z" fill="#BD0728"/>
<path d="M271.6 267L268.8 259L265.8 267H271.6ZM267.5 256.2H270.3L277 274.6H274.2L272.4 269.1H265.1L263.1 274.6H260.6L267.5 256.2Z" fill="#BD0728"/>
<path d="M285.6 256.1H289.2L294.4 271.7L299.7 256.1H303.2V274.5H300.8V259L295.6 274.5H293.2L287.9 259V274.5H285.6V256.1Z" fill="#BD0728"/>
</g>
<defs>
<clipPath id="clip0_103_6194">
<rect width="512" height="512" fill="white" transform="translate(0.5)"/>
</clipPath>
</defs>
</svg>
