<svg width="513" height="512" viewBox="0 0 513 512" fill="none" xmlns="http://www.w3.org/2000/svg">
<g clip-path="url(#clip0_103_6243)">
<path d="M0.5 0H512.5V512H0.5" fill="#EC1B2E"/>
<path d="M282.8 119.2C203.5 114 167.1 218 242.1 256.4C216.1 234 221.5 201 232 184L233.9 185C220.1 208.6 222.7 237.8 244.9 256C232.3 243.8 235.5 217 257.1 207.2C278.7 197.4 280.7 167.9 273.5 158.1C263.7 141.033 266.8 128.033 282.8 119.1V119.2ZM244.4 180L239.7 187.4L237.9 178.8L229.3 176.5L237.1 172.2L236.5 163.2L243 169.4L251.3 166.1L247.6 174.1L253.2 181L244.4 180Z" fill="white"/>
<path d="M392.878 248.291C373.318 171.265 263.16 168.784 249.816 251.98C263.085 220.33 296.139 215.268 315.552 220.001L315.188 222.117C288.478 216.286 261.511 227.782 251.062 254.519C258.771 238.766 285.248 233.528 301.243 251.042C317.238 268.556 345.913 261.343 353.008 251.467C366.211 236.872 379.533 235.803 392.973 248.26L392.878 248.291ZM323.188 230.558L314.697 228.375L322.32 224.006L321.85 215.116L328.35 221.205L336.724 217.853L332.836 225.951L338.539 232.825L329.788 231.779L324.956 239.237L323.188 230.558Z" fill="white"/>
<path d="M304.122 392.872C371.333 350.468 339.652 244.935 256.404 257.952C290.605 260.792 305.633 290.663 307.131 310.588L305.006 310.896C302.299 283.692 283.032 261.597 254.374 259.922C271.739 262.386 284.903 285.948 273.188 306.573C261.474 327.197 277.195 352.239 288.781 355.935C306.74 363.982 311.874 376.321 304.18 392.953L304.122 392.872ZM299.45 321.113L298.903 312.364L305.414 318.263L313.724 315.069L309.941 323.133L315.716 330.061L306.814 328.866L302.038 336.414L300.329 327.767L291.743 325.477L299.45 321.113Z" fill="white"/>
<path d="M139.189 353.138C200.287 403.956 290.865 341.214 252.76 266.064C260.628 299.468 236.862 322.992 218.375 330.573L217.426 328.647C242.462 317.666 257.522 292.514 250.26 264.741C253.282 282.018 234.941 301.818 211.706 297.051C188.471 292.283 169.513 314.973 169.578 327.134C167.474 346.701 157.325 355.396 139.13 353.219L139.189 353.138ZM205.992 326.521L214.144 323.297L210.546 331.312L216.151 338.228L207.314 337.122L202.509 344.756L200.895 335.919L192.24 333.71L199.936 329.413L199.461 320.539L205.992 326.521Z" fill="white"/>
<path d="M126.012 183.999C96.561 257.811 184.223 324.567 243.919 265.104C214.581 282.91 184.865 267.577 171.942 252.337L173.48 250.839C191.661 271.257 220.235 277.807 244.404 262.318C228.908 270.531 204.408 259.206 201.763 235.635C199.117 212.064 171.679 201.046 160.134 204.865C140.874 208.911 129.468 201.946 125.916 183.968L126.012 183.999ZM171.97 239.308L177.555 246.065L168.82 245.119L163.975 252.587L162.295 243.84L153.551 241.63L161.456 237.364L160.882 228.45L167.347 234.441L175.64 231.248L171.97 239.308Z" fill="white"/>
</g>
<defs>
<clipPath id="clip0_103_6243">
<rect width="512" height="512" fill="white" transform="translate(0.5)"/>
</clipPath>
</defs>
</svg>
