<svg width="513" height="512" viewBox="0 0 513 512" fill="none" xmlns="http://www.w3.org/2000/svg">
<g clip-path="url(#clip0_103_6257)">
<path d="M0.5 0H512.5V512H0.5V0Z" fill="#18C3DF"/>
<path d="M0.5 170.7H512.5V341.3H0.5V170.7Z" fill="white"/>
<path d="M256.5 227.556L247.967 256L262.189 258.844L256.5 227.556Z" fill="#18C3DF"/>
<path d="M256.5 227.556L265.033 256L250.811 258.844L256.5 227.556Z" fill="#18C3DF"/>
<path d="M283.552 247.21L253.863 247.884L255.553 262.289L283.552 247.21Z" fill="#18C3DF"/>
<path d="M283.552 247.21L259.137 264.116L252.037 251.468L283.552 247.21Z" fill="#18C3DF"/>
<path d="M229.448 247.21L253.863 264.116L260.963 251.469L229.448 247.21Z" fill="#18C3DF"/>
<path d="M229.448 247.21L259.137 247.884L257.447 262.29L229.448 247.21Z" fill="#18C3DF"/>
<path d="M273.219 279.012L263.404 250.984L250.226 257.043L273.219 279.012Z" fill="#18C3DF"/>
<path d="M273.219 279.012L249.596 261.016L259.431 250.355L273.219 279.012Z" fill="#18C3DF"/>
<path d="M239.781 279.012L263.404 261.016L253.569 250.355L239.781 279.012Z" fill="#18C3DF"/>
<path d="M239.781 279.012L249.596 250.984L262.774 257.043L239.781 279.012Z" fill="#18C3DF"/>
<path d="M398.7 182.056L390.167 210.5L404.389 213.344L398.7 182.056Z" fill="#18C3DF"/>
<path d="M398.7 182.056L407.233 210.5L393.011 213.344L398.7 182.056Z" fill="#18C3DF"/>
<path d="M425.752 201.71L396.063 202.384L397.753 216.789L425.752 201.71Z" fill="#18C3DF"/>
<path d="M425.752 201.71L401.337 218.616L394.237 205.968L425.752 201.71Z" fill="#18C3DF"/>
<path d="M371.648 201.71L396.063 218.616L403.163 205.969L371.648 201.71Z" fill="#18C3DF"/>
<path d="M371.648 201.71L401.337 202.384L399.647 216.79L371.648 201.71Z" fill="#18C3DF"/>
<path d="M415.419 233.512L405.604 205.484L392.426 211.543L415.419 233.512Z" fill="#18C3DF"/>
<path d="M415.419 233.512L391.796 215.516L401.63 204.855L415.419 233.512Z" fill="#18C3DF"/>
<path d="M381.981 233.512L405.604 215.516L395.769 204.855L381.981 233.512Z" fill="#18C3DF"/>
<path d="M381.981 233.512L391.796 205.484L404.974 211.543L381.981 233.512Z" fill="#18C3DF"/>
<path d="M398.7 267.355L390.167 295.8L404.389 298.644L398.7 267.355Z" fill="#18C3DF"/>
<path d="M398.7 267.355L407.233 295.8L393.011 298.644L398.7 267.355Z" fill="#18C3DF"/>
<path d="M425.752 287.01L396.063 287.684L397.753 302.089L425.752 287.01Z" fill="#18C3DF"/>
<path d="M425.752 287.01L401.337 303.916L394.237 291.268L425.752 287.01Z" fill="#18C3DF"/>
<path d="M371.648 287.01L396.063 303.916L403.163 291.268L371.648 287.01Z" fill="#18C3DF"/>
<path d="M371.648 287.01L401.337 287.684L399.647 302.089L371.648 287.01Z" fill="#18C3DF"/>
<path d="M415.419 318.812L405.604 290.784L392.426 296.843L415.419 318.812Z" fill="#18C3DF"/>
<path d="M415.419 318.812L391.796 300.816L401.63 290.155L415.419 318.812Z" fill="#18C3DF"/>
<path d="M381.981 318.812L405.604 300.816L395.769 290.155L381.981 318.812Z" fill="#18C3DF"/>
<path d="M381.981 318.812L391.796 290.784L404.974 296.843L381.981 318.812Z" fill="#18C3DF"/>
<path d="M114.3 182.056L105.767 210.5L119.989 213.344L114.3 182.056Z" fill="#18C3DF"/>
<path d="M114.3 182.056L122.833 210.5L108.611 213.344L114.3 182.056Z" fill="#18C3DF"/>
<path d="M141.352 201.71L111.663 202.384L113.353 216.789L141.352 201.71Z" fill="#18C3DF"/>
<path d="M141.352 201.71L116.937 218.616L109.837 205.968L141.352 201.71Z" fill="#18C3DF"/>
<path d="M87.2478 201.71L111.663 218.616L118.763 205.969L87.2478 201.71Z" fill="#18C3DF"/>
<path d="M87.2478 201.71L116.937 202.384L115.247 216.79L87.2478 201.71Z" fill="#18C3DF"/>
<path d="M131.019 233.512L121.204 205.484L108.026 211.543L131.019 233.512Z" fill="#18C3DF"/>
<path d="M131.019 233.512L107.396 215.516L117.231 204.855L131.019 233.512Z" fill="#18C3DF"/>
<path d="M97.5808 233.512L121.204 215.516L111.37 204.855L97.5808 233.512Z" fill="#18C3DF"/>
<path d="M97.5809 233.512L107.396 205.484L120.574 211.543L97.5809 233.512Z" fill="#18C3DF"/>
<path d="M114.3 267.355L105.767 295.8L119.989 298.644L114.3 267.355Z" fill="#18C3DF"/>
<path d="M114.3 267.355L122.833 295.8L108.611 298.644L114.3 267.355Z" fill="#18C3DF"/>
<path d="M141.352 287.01L111.663 287.684L113.353 302.089L141.352 287.01Z" fill="#18C3DF"/>
<path d="M141.352 287.01L116.937 303.916L109.837 291.268L141.352 287.01Z" fill="#18C3DF"/>
<path d="M87.2478 287.01L111.663 303.916L118.763 291.268L87.2478 287.01Z" fill="#18C3DF"/>
<path d="M87.2478 287.01L116.937 287.684L115.247 302.089L87.2478 287.01Z" fill="#18C3DF"/>
<path d="M131.019 318.812L121.204 290.784L108.026 296.843L131.019 318.812Z" fill="#18C3DF"/>
<path d="M131.019 318.812L107.396 300.816L117.231 290.155L131.019 318.812Z" fill="#18C3DF"/>
<path d="M97.5808 318.812L121.204 300.816L111.37 290.155L97.5808 318.812Z" fill="#18C3DF"/>
<path d="M97.5809 318.812L107.396 290.784L120.574 296.843L97.5809 318.812Z" fill="#18C3DF"/>
</g>
<defs>
<clipPath id="clip0_103_6257">
<rect width="512" height="512" fill="white" transform="translate(0.5)"/>
</clipPath>
</defs>
</svg>
