<svg width="513" height="512" viewBox="0 0 513 512" fill="none" xmlns="http://www.w3.org/2000/svg">
<g clip-path="url(#clip0_103_6406)">
<path d="M0.5 0H512.5V512H0.5V0Z" fill="#D21034"/>
<path d="M0.5 0H512.5V256H0.5V0Z" fill="#00209F"/>
<path d="M175.7 191.6H337.3V320.2H175.7V191.6Z" fill="white"/>
<path d="M289 284.6L256 285.6L223.2 285.9C223.2 285.9 206.4 292.2 199.5 293.6C192.6 295 193.5 297.2 188.2 298.4C183.9 299.4 183.4 299.7 180.9 299.8C179.4 299.9 177.6 301.1 175.7 302.4V320.2H337.3V303.2C335.632 302.348 333.892 301.645 332.1 301.1C329.8 300.3 328.1 299.4 323.9 298.4C318.6 297.2 319.5 295 312.6 293.6C305.7 292.2 289 284.6 289 284.6Z" fill="#016A16" stroke="#016A16" stroke-width="0.3"/>
<path d="M247.081 244.907H249.47L253.907 263.168L252.883 268.971L247.081 245.078V244.907Z" fill="#F1B517" stroke="black" stroke-width="0.341334"/>
<path d="M244.521 232.619L246.227 246.784H247.934L244.521 232.79V232.619Z" fill="white" stroke="black" stroke-width="0.341334"/>
<path d="M249.129 263.851L241.79 244.224L244.521 244.054L253.054 267.947L249.129 263.851Z" fill="#F1B517" stroke="black" stroke-width="0.341334"/>
<path d="M238.377 232.96L241.449 246.614H243.838L238.377 232.96Z" fill="white" stroke="black" stroke-width="0.341334"/>
<path d="M242.643 257.024L238.377 247.638L240.083 247.296L248.105 262.656L242.643 257.024Z" fill="#F1B517" stroke="black" stroke-width="0.341334"/>
<path d="M232.574 236.886L237.524 249.856H239.913L232.745 236.886H232.574Z" fill="white" stroke="black" stroke-width="0.341334"/>
<path d="M243.326 258.39L223.7 237.056C217.555 241.835 218.75 250.71 218.75 250.71L240.937 268.118L243.156 258.39H243.326Z" fill="#0A328C" stroke="black" stroke-width="0.341334"/>
<path d="M254.59 269.995L240.083 255.318C233.939 255.659 238.718 264.704 239.059 265.899L254.419 279.04V269.995H254.59Z" fill="#D20014" stroke="black" stroke-width="0.341334"/>
<path d="M253.225 267.606L223.358 235.52L222.163 236.374L253.907 271.531L253.225 267.606ZM221.651 233.472L220.969 232.619V231.083L214.825 227.158L217.555 233.472L219.774 233.814L220.286 234.496L221.651 233.472Z" fill="#F1B517" stroke="black" stroke-width="0.341334"/>
<path d="M218.409 235.691C219.666 234.131 221.235 232.852 223.017 231.936L224.723 234.496L220.969 237.568L218.409 235.862V235.691Z" fill="#F1B517" stroke="black" stroke-width="0.341334"/>
<path d="M215.166 241.152L216.19 242.859C216.873 242.688 223.017 236.886 223.017 236.886H227.625L228.819 235.35C225.406 231.936 222.505 235.862 222.505 235.862L215.166 240.982V241.152Z" fill="#0A328C" stroke="#0A328C" stroke-width="0.341334"/>
<path d="M218.921 244.054C218.921 242.347 221.993 238.592 222.334 238.422C224.553 239.104 226.601 240.47 228.99 235.35C226.942 237.739 223.017 235.35 223.017 235.35L221.31 236.715V237.398L216.19 242.176L218.75 244.054H218.921Z" fill="#D20014" stroke="#D20014" stroke-width="0.341334"/>
<path d="M234.793 264.022L210.217 244.566C205.95 248.832 209.534 261.974 209.534 261.974L233.427 274.944L234.622 264.022H234.793Z" fill="#0A328C" stroke="black" stroke-width="0.341334"/>
<path d="M255.102 279.894L234.793 263.51C227.966 264.534 233.428 274.603 233.769 275.798L255.102 287.403V279.723V279.894Z" fill="#D20014" stroke="black" stroke-width="0.341334"/>
<path d="M254.249 276.48L210.558 243.712L209.705 244.736L255.444 280.576L254.249 276.48ZM208.51 242.006L207.827 241.323L207.486 239.958L200.659 237.056L204.585 242.688H206.803L207.486 243.371L208.51 242.006Z" fill="#F1B517" stroke="black" stroke-width="0.341334"/>
<path d="M205.779 244.736C206.756 242.994 208.095 241.481 209.705 240.299L211.753 242.518L208.681 246.102L205.779 244.736Z" fill="#F1B517" stroke="black" stroke-width="0.341334"/>
<path d="M203.561 250.198V252.075C204.243 251.734 209.875 245.76 209.875 245.76L214.142 244.907L215.166 243.542C212.094 239.958 208.852 244.736 208.852 244.736L203.39 250.198H203.561Z" fill="#0A328C" stroke="#0A328C" stroke-width="0.341334"/>
<path d="M206.974 253.44C206.633 251.734 209.022 246.955 209.363 246.614C212.094 247.467 214.483 248.662 215.337 243.2C213.63 245.931 209.363 243.883 209.363 243.883L207.998 245.59V246.443L203.731 252.075L206.974 253.44Z" fill="#D20014" stroke="#D20014" stroke-width="0.341334"/>
<path d="M232.915 275.968C222.368 270.035 211.844 264.062 201.342 258.048C199.123 261.974 201.171 267.435 202.195 268.288C202.195 270.848 201.171 272.214 203.39 277.675C204.073 281.089 205.609 284.331 207.998 286.209C210.729 297.131 221.993 297.985 226.259 288.939L233.086 275.968H232.915Z" fill="#0A328C" stroke="black" stroke-width="0.341334"/>
<path d="M253.566 287.574L232.233 275.115C225.406 275.968 232.233 288.768 232.745 289.963L253.566 297.302V287.574Z" fill="#D20014" stroke="black" stroke-width="0.341334"/>
<path d="M249.982 282.966L201.683 257.366L200.83 258.39L252.03 286.891L249.982 282.966ZM199.294 256L198.441 255.488L197.929 254.123L190.931 252.416L195.539 257.366L197.587 257.024L198.611 257.536L199.294 256Z" fill="#F1B517" stroke="black" stroke-width="0.341334"/>
<path d="M197.075 259.072C197.758 257.366 198.441 255.83 200.147 253.952L202.537 255.83L200.147 259.926L197.075 259.072Z" fill="#F1B517" stroke="black" stroke-width="0.341334"/>
<path d="M195.198 264.875L196.222 266.923L201.342 259.072L205.609 257.536L206.462 255.83C203.049 252.758 200.489 258.219 200.489 258.219L195.198 264.875Z" fill="#0A328C" stroke="#0A328C" stroke-width="0.341334"/>
<path d="M199.806 267.606C199.465 265.899 200.659 260.438 201.001 260.267C203.561 261.12 205.779 261.291 206.462 255.83C204.755 258.39 200.83 257.536 200.83 257.536L199.635 259.243L199.806 259.926L196.393 266.752L199.806 267.606Z" fill="#D20014" stroke="#D20014" stroke-width="0.341334"/>
<path d="M265.684 244.907H263.294L258.857 263.168L259.881 268.971L265.684 245.078V244.907Z" fill="#F1B517" stroke="black" stroke-width="0.341334"/>
<path d="M268.244 232.619L266.537 246.784H264.83L268.244 232.79V232.619Z" fill="white" stroke="black" stroke-width="0.341334"/>
<path d="M263.635 263.851L270.974 244.224L268.243 244.054L259.71 267.947L263.635 263.851Z" fill="#F1B517" stroke="black" stroke-width="0.341334"/>
<path d="M274.388 232.96L271.316 246.614H268.926L274.388 232.96Z" fill="white" stroke="black" stroke-width="0.341334"/>
<path d="M270.121 257.024L274.388 247.638L272.681 247.296L264.66 262.656L270.121 257.024Z" fill="#F1B517" stroke="black" stroke-width="0.341334"/>
<path d="M280.19 236.886L275.241 249.856H272.851L280.02 236.886H280.19Z" fill="white" stroke="black" stroke-width="0.341334"/>
<path d="M269.438 258.39L289.065 237.056C295.209 241.835 294.014 250.71 294.014 250.71L271.828 268.118L269.609 258.39H269.438Z" fill="#0A328C" stroke="black" stroke-width="0.341334"/>
<path d="M258.174 269.995L272.681 255.318C278.825 255.659 274.046 264.704 273.705 265.899L258.345 279.04V269.995H258.174Z" fill="#D20014" stroke="black" stroke-width="0.341334"/>
<path d="M259.54 267.606L289.406 235.52L290.601 236.374L258.857 271.531L259.54 267.606ZM291.113 233.472L291.796 232.619V231.083L297.94 227.158L295.209 233.472L292.99 233.814L292.478 234.496L291.113 233.472Z" fill="#F1B517" stroke="black" stroke-width="0.341334"/>
<path d="M294.356 235.691C293.099 234.131 291.529 232.852 289.748 231.936L288.041 234.496L291.796 237.568L294.356 235.862V235.691Z" fill="#F1B517" stroke="black" stroke-width="0.341334"/>
<path d="M297.598 241.152L296.574 242.859C295.891 242.688 289.747 236.886 289.747 236.886H285.139L283.945 235.35C287.358 231.936 290.259 235.862 290.259 235.862L297.598 240.982V241.152Z" fill="#0A328C" stroke="#0A328C" stroke-width="0.341334"/>
<path d="M293.844 244.054C293.844 242.347 290.772 238.592 290.43 238.422C288.212 239.104 286.164 240.47 283.774 235.35C285.822 237.739 289.748 235.35 289.748 235.35L291.454 236.715V237.398L296.574 242.176L294.014 244.054H293.844Z" fill="#D20014" stroke="#D20014" stroke-width="0.341334"/>
<path d="M277.972 264.022L302.548 244.566C306.814 248.832 303.23 261.974 303.23 261.974L279.337 274.944L278.142 264.022H277.972Z" fill="#0A328C" stroke="black" stroke-width="0.341334"/>
<path d="M257.662 279.894L277.972 263.51C284.798 264.534 279.337 274.603 278.996 275.798L257.662 287.403V279.723V279.894Z" fill="#D20014" stroke="black" stroke-width="0.341334"/>
<path d="M258.516 276.48L302.206 243.712L303.06 244.736L257.321 280.576L258.516 276.48ZM304.254 242.006L304.937 241.323L305.278 239.958L312.105 237.056L308.18 242.688H305.961L305.278 243.371L304.254 242.006Z" fill="#F1B517" stroke="black" stroke-width="0.341334"/>
<path d="M306.985 244.736C306.008 242.994 304.67 241.481 303.06 240.299L301.012 242.518L304.084 246.102L306.985 244.736Z" fill="#F1B517" stroke="black" stroke-width="0.341334"/>
<path d="M309.204 250.198V252.075C308.521 251.734 302.889 245.76 302.889 245.76L298.622 244.907L297.598 243.542C300.67 239.958 303.913 244.736 303.913 244.736L309.374 250.198H309.204Z" fill="#0A328C" stroke="#0A328C" stroke-width="0.341334"/>
<path d="M305.79 253.44C306.132 251.734 303.742 246.955 303.401 246.614C300.67 247.467 298.281 248.662 297.428 243.2C299.134 245.931 303.401 243.883 303.401 243.883L304.766 245.59V246.443L309.033 252.075L305.79 253.44Z" fill="#D20014" stroke="#D20014" stroke-width="0.341334"/>
<path d="M279.849 275.968C290.396 270.035 300.921 264.062 311.422 258.048C313.641 261.974 311.593 267.435 310.569 268.288C310.569 270.848 311.593 272.214 309.374 277.675C308.692 281.089 307.156 284.331 304.766 286.209C302.036 297.131 290.771 297.985 286.505 288.939L279.678 275.968H279.849Z" fill="#0A328C" stroke="black" stroke-width="0.341334"/>
<path d="M259.198 287.574L280.532 275.115C287.358 275.968 280.532 288.768 280.02 289.963L259.198 297.302V287.574Z" fill="#D20014" stroke="black" stroke-width="0.341334"/>
<path d="M262.782 282.966L311.081 257.366L311.934 258.39L260.734 286.891L262.782 282.966ZM313.47 256L314.324 255.488L314.836 254.123L321.833 252.416L317.225 257.366L315.177 257.024L314.153 257.536L313.47 256Z" fill="#F1B517" stroke="black" stroke-width="0.341334"/>
<path d="M315.689 259.072C315.006 257.366 314.324 255.83 312.617 253.952L310.228 255.83L312.617 259.926L315.689 259.072Z" fill="#F1B517" stroke="black" stroke-width="0.341334"/>
<path d="M317.566 264.875L316.542 266.923L311.422 259.072L307.156 257.536L306.302 255.83C309.716 252.758 312.276 258.219 312.276 258.219L317.566 264.875Z" fill="#0A328C" stroke="#0A328C" stroke-width="0.341334"/>
<path d="M312.958 267.606C313.3 265.899 312.105 260.438 311.764 260.267C309.204 261.12 306.985 261.291 306.302 255.83C308.009 258.39 311.934 257.536 311.934 257.536L313.129 259.243L312.958 259.926L316.372 266.752L312.958 267.606Z" fill="#D20014" stroke="#D20014" stroke-width="0.341334"/>
<path d="M254.42 214.358L253.566 229.718H258.516L257.833 214.358L262.953 213.846L262.441 207.702L249.641 208.214V213.675L254.42 214.358Z" fill="#016A16" stroke="#016A16" stroke-width="0.341334"/>
<path d="M256.126 208.043C242.814 194.731 232.403 201.216 230.014 203.094C231.721 203.435 233.086 202.411 233.94 202.24L232.233 204.288C232.233 204.288 236.5 202.582 237.012 202.582C236.329 203.094 235.646 204.288 235.646 204.288C235.988 204.288 238.377 202.411 238.718 202.411C238.036 203.094 237.865 204.971 237.865 204.971L239.913 204.118C240.425 204.459 239.742 205.142 240.084 205.142C243.497 204.8 248.105 208.043 248.617 209.067" fill="#016A16"/>
<path d="M256.126 208.043C242.814 194.731 232.403 201.216 230.014 203.094C231.721 203.435 233.086 202.411 233.94 202.24L232.233 204.288C232.233 204.288 236.5 202.582 237.012 202.582C236.329 203.094 235.646 204.288 235.646 204.288C235.988 204.288 238.377 202.411 238.718 202.411C238.036 203.094 237.865 204.971 237.865 204.971L239.913 204.118C240.425 204.459 239.742 205.142 240.084 205.142C243.497 204.8 248.105 208.043 248.617 209.067" stroke="black" stroke-width="0.341334"/>
<path d="M252.883 210.432C251.518 207.36 226.259 201.899 221.139 210.944C223.187 211.456 225.065 209.238 225.065 209.238V211.286L228.307 208.555L227.113 211.286L229.673 209.067V211.286L233.086 207.872L232.574 209.75L235.475 208.555L235.134 210.262" fill="#016A16"/>
<path d="M252.883 210.432C251.518 207.36 226.259 201.899 221.139 210.944C223.187 211.456 225.065 209.238 225.065 209.238V211.286L228.307 208.555L227.113 211.286L229.673 209.067V211.286L233.086 207.872L232.574 209.75L235.475 208.555L235.134 210.262" stroke="black" stroke-width="0.341334"/>
<path d="M251.689 210.944C245.203 206.678 235.305 209.579 235.305 209.579C228.819 212.992 225.406 212.48 224.723 219.136C225.235 218.966 226.942 216.747 226.942 216.747L228.307 219.307L228.649 215.723L229.673 218.624L231.379 213.846L231.721 217.088L234.11 213.846L235.134 214.87L236.158 212.31L237.182 214.016C237.182 214.016 238.889 212.992 239.742 213.504L241.449 211.456L241.961 212.992L243.667 211.286L244.179 212.48L245.715 211.115V212.139H250.835" fill="#016A16"/>
<path d="M251.689 210.944C245.203 206.678 235.305 209.579 235.305 209.579C228.819 212.992 225.406 212.48 224.723 219.136C225.235 218.966 226.942 216.747 226.942 216.747L228.307 219.307L228.649 215.723L229.673 218.624L231.379 213.846L231.721 217.088L234.11 213.846L235.134 214.87L236.158 212.31L237.182 214.016C237.182 214.016 238.889 212.992 239.742 213.504L241.449 211.456L241.961 212.992L243.667 211.286L244.179 212.48L245.715 211.115V212.139H250.835" stroke="black" stroke-width="0.341334"/>
<path d="M250.323 211.627C245.715 211.627 232.745 216.576 229.502 221.526C230.223 221.145 230.963 220.803 231.721 220.502L232.233 222.55L233.086 220.502L233.257 222.208C233.769 220.843 234.281 220.843 235.305 222.038L235.646 220.16L236.158 221.867L237.011 219.99C237.011 219.99 237.523 222.038 237.865 222.038C237.865 222.038 239.23 218.283 239.913 218.112L240.083 220.502L240.937 218.112L241.79 219.819V217.43L242.814 219.136C242.814 219.136 243.155 217.43 243.838 217.088L245.203 218.283L251.006 214.016" fill="#016A16"/>
<path d="M250.323 211.627C245.715 211.627 232.745 216.576 229.502 221.526C230.223 221.145 230.963 220.803 231.721 220.502L232.233 222.55L233.086 220.502L233.257 222.208C233.769 220.843 234.281 220.843 235.305 222.038L235.646 220.16L236.158 221.867L237.011 219.99C237.011 219.99 237.523 222.038 237.865 222.038C237.865 222.038 239.23 218.283 239.913 218.112L240.083 220.502L240.937 218.112L241.79 219.819V217.43L242.814 219.136C242.814 219.136 243.155 217.43 243.838 217.088L245.203 218.283L251.006 214.016" stroke="black" stroke-width="0.341334"/>
<path d="M251.177 212.822C245.203 215.04 239.742 223.403 240.254 226.816C242.814 223.403 242.302 223.915 243.497 227.84C243.497 227.84 243.838 224.427 244.35 224.086L245.203 226.475L245.374 223.232H246.227L246.057 221.355L247.251 222.208C246.91 221.014 246.739 220.672 247.934 219.648C247.934 219.648 246.227 219.819 247.593 217.088L248.787 218.112C248.787 218.112 248.446 216.918 248.787 216.406L253.225 215.04" fill="#016A16"/>
<path d="M251.177 212.822C245.203 215.04 239.742 223.403 240.254 226.816C242.814 223.403 242.302 223.915 243.497 227.84C243.497 227.84 243.838 224.427 244.35 224.086L245.203 226.475L245.374 223.232H246.227L246.057 221.355L247.251 222.208C246.91 221.014 246.739 220.672 247.934 219.648C247.934 219.648 246.227 219.819 247.593 217.088L248.787 218.112C248.787 218.112 248.446 216.918 248.787 216.406L253.225 215.04" stroke="black" stroke-width="0.341334"/>
<path d="M251.689 213.334L249.47 217.771L250.665 218.112L247.934 219.99L250.153 219.819C250.153 219.819 246.74 221.014 246.398 224.427L249.812 222.72C249.812 222.72 246.91 225.792 246.398 227.67L248.617 225.963C248.617 225.963 246.569 228.011 246.91 231.083L248.446 229.376C248.105 233.302 248.105 233.643 249.812 236.544C249.812 236.544 249.47 232.107 249.812 231.424L253.737 235.52L251.689 229.888C251.689 229.888 254.078 233.302 255.444 233.131L252.372 228.523L255.444 230.912L252.03 225.792L255.102 226.816C255.102 226.816 252.884 223.915 253.054 222.038L255.273 224.427C255.273 224.427 254.42 221.867 254.59 221.014L255.785 221.184L253.566 218.795L255.102 218.454L254.932 216.747L255.956 216.576V214.699M254.078 214.699C250.324 219.819 252.201 227.499 249.982 231.595L254.078 214.699Z" fill="#016A16"/>
<path d="M251.689 213.334L249.47 217.771L250.665 218.112L247.934 219.99L250.153 219.819C250.153 219.819 246.74 221.014 246.398 224.427L249.812 222.72C249.812 222.72 246.91 225.792 246.398 227.67L248.617 225.963C248.617 225.963 246.569 228.011 246.91 231.083L248.446 229.376C248.105 233.302 248.105 233.643 249.812 236.544C249.812 236.544 249.47 232.107 249.812 231.424L253.737 235.52L251.689 229.888C251.689 229.888 254.078 233.302 255.444 233.131L252.372 228.523L255.444 230.912L252.03 225.792L255.102 226.816C255.102 226.816 252.884 223.915 253.054 222.038L255.273 224.427C255.273 224.427 254.42 221.867 254.59 221.014L255.785 221.184L253.566 218.795L255.102 218.454L254.932 216.747L255.956 216.576V214.699M254.078 214.699C250.324 219.819 252.201 227.499 249.982 231.595" stroke="black" stroke-width="0.341334"/>
<path d="M256.638 208.043C269.95 194.731 280.361 201.216 282.75 203.094C281.043 203.435 279.678 202.411 278.825 202.24L280.531 204.288C280.531 204.288 276.265 202.582 275.753 202.582C276.435 203.094 277.118 204.288 277.118 204.288C276.777 204.288 274.387 202.411 274.046 202.411C274.729 203.094 274.899 204.971 274.899 204.971L272.851 204.118C272.339 204.459 273.022 205.142 272.681 205.142C269.267 204.8 264.659 208.043 264.147 209.067" fill="#016A16"/>
<path d="M256.638 208.043C269.95 194.731 280.361 201.216 282.75 203.094C281.043 203.435 279.678 202.411 278.825 202.24L280.531 204.288C280.531 204.288 276.265 202.582 275.753 202.582C276.435 203.094 277.118 204.288 277.118 204.288C276.777 204.288 274.387 202.411 274.046 202.411C274.729 203.094 274.899 204.971 274.899 204.971L272.851 204.118C272.339 204.459 273.022 205.142 272.681 205.142C269.267 204.8 264.659 208.043 264.147 209.067" stroke="black" stroke-width="0.341334"/>
<path d="M259.881 210.432C261.246 207.36 286.505 201.899 291.625 210.944C289.577 211.456 287.699 209.238 287.699 209.238V211.286L284.457 208.555L285.651 211.286L283.091 209.067V211.286L279.678 207.872L280.19 209.75L277.289 208.555L277.63 210.262" fill="#016A16"/>
<path d="M259.881 210.432C261.246 207.36 286.505 201.899 291.625 210.944C289.577 211.456 287.699 209.238 287.699 209.238V211.286L284.457 208.555L285.651 211.286L283.091 209.067V211.286L279.678 207.872L280.19 209.75L277.289 208.555L277.63 210.262" stroke="black" stroke-width="0.341334"/>
<path d="M261.075 210.944C267.561 206.678 277.459 209.579 277.459 209.579C283.945 212.992 287.358 212.48 288.041 219.136C287.529 218.966 285.822 216.747 285.822 216.747L284.457 219.307L284.115 215.723L283.091 218.624L281.385 213.846L281.043 217.088L278.654 213.846L277.63 214.87L276.606 212.31L275.582 214.016C275.582 214.016 273.875 212.992 273.022 213.504L271.315 211.456L270.803 212.992L269.097 211.286L268.585 212.48L267.049 211.115V212.139H261.929" fill="#016A16"/>
<path d="M261.075 210.944C267.561 206.678 277.459 209.579 277.459 209.579C283.945 212.992 287.358 212.48 288.041 219.136C287.529 218.966 285.822 216.747 285.822 216.747L284.457 219.307L284.115 215.723L283.091 218.624L281.385 213.846L281.043 217.088L278.654 213.846L277.63 214.87L276.606 212.31L275.582 214.016C275.582 214.016 273.875 212.992 273.022 213.504L271.315 211.456L270.803 212.992L269.097 211.286L268.585 212.48L267.049 211.115V212.139H261.929" stroke="black" stroke-width="0.341334"/>
<path d="M262.441 211.627C267.049 211.627 280.02 216.576 283.262 221.526C282.542 221.145 281.801 220.803 281.044 220.502L280.532 222.55L279.678 220.502L279.508 222.208C278.996 220.843 278.484 220.843 277.46 222.038L277.118 220.16L276.606 221.867L275.753 219.99C275.753 219.99 275.241 222.038 274.9 222.038C274.9 222.038 273.534 218.283 272.852 218.112L272.681 220.502L271.828 218.112L270.974 219.819V217.43L269.95 219.136C269.95 219.136 269.609 217.43 268.926 217.088L267.561 218.283L261.758 214.016" fill="#016A16"/>
<path d="M262.441 211.627C267.049 211.627 280.02 216.576 283.262 221.526C282.542 221.145 281.801 220.803 281.044 220.502L280.532 222.55L279.678 220.502L279.508 222.208C278.996 220.843 278.484 220.843 277.46 222.038L277.118 220.16L276.606 221.867L275.753 219.99C275.753 219.99 275.241 222.038 274.9 222.038C274.9 222.038 273.534 218.283 272.852 218.112L272.681 220.502L271.828 218.112L270.974 219.819V217.43L269.95 219.136C269.95 219.136 269.609 217.43 268.926 217.088L267.561 218.283L261.758 214.016" stroke="black" stroke-width="0.341334"/>
<path d="M261.587 212.822C267.561 215.04 273.022 223.403 272.51 226.816C269.95 223.403 270.462 223.915 269.267 227.84C269.267 227.84 268.926 224.427 268.414 224.086L267.561 226.475L267.39 223.232H266.537L266.707 221.355L265.513 222.208C265.854 221.014 266.025 220.672 264.83 219.648C264.83 219.648 266.537 219.819 265.171 217.088L263.977 218.112C263.977 218.112 264.318 216.918 263.977 216.406L259.539 215.04" fill="#016A16"/>
<path d="M261.587 212.822C267.561 215.04 273.022 223.403 272.51 226.816C269.95 223.403 270.462 223.915 269.267 227.84C269.267 227.84 268.926 224.427 268.414 224.086L267.561 226.475L267.39 223.232H266.537L266.707 221.355L265.513 222.208C265.854 221.014 266.025 220.672 264.83 219.648C264.83 219.648 266.537 219.819 265.171 217.088L263.977 218.112C263.977 218.112 264.318 216.918 263.977 216.406L259.539 215.04" stroke="black" stroke-width="0.341334"/>
<path d="M261.076 213.334L263.294 217.771L262.1 218.112L264.83 219.99L262.612 219.819C262.612 219.819 266.025 221.014 266.366 224.427L262.953 222.72C262.953 222.72 265.854 225.792 266.366 227.67L264.148 225.963C264.148 225.963 266.196 228.011 265.854 231.083L264.318 229.376C264.66 233.302 264.66 233.643 262.953 236.544C262.953 236.544 263.294 232.107 262.953 231.424L259.028 235.52L261.076 229.888C261.076 229.888 258.686 233.302 257.321 233.131L260.393 228.523L257.321 230.912L260.734 225.792L257.662 226.816C257.662 226.816 259.881 223.915 259.71 222.038L257.492 224.427C257.492 224.427 258.345 221.867 258.174 221.014L256.98 221.184L259.198 218.795L257.662 218.454L257.833 216.747L256.809 216.576V214.699M258.686 214.699C262.441 219.819 260.564 227.499 262.782 231.595L258.686 214.699Z" fill="#016A16"/>
<path d="M261.076 213.334L263.294 217.771L262.1 218.112L264.83 219.99L262.612 219.819C262.612 219.819 266.025 221.014 266.366 224.427L262.953 222.72C262.953 222.72 265.854 225.792 266.366 227.67L264.148 225.963C264.148 225.963 266.196 228.011 265.854 231.083L264.318 229.376C264.66 233.302 264.66 233.643 262.953 236.544C262.953 236.544 263.294 232.107 262.953 231.424L259.028 235.52L261.076 229.888C261.076 229.888 258.686 233.302 257.321 233.131L260.393 228.523L257.321 230.912L260.734 225.792L257.662 226.816C257.662 226.816 259.881 223.915 259.71 222.038L257.492 224.427C257.492 224.427 258.345 221.867 258.174 221.014L256.98 221.184L259.198 218.795L257.662 218.454L257.833 216.747L256.809 216.576V214.699M258.686 214.699C262.441 219.819 260.564 227.499 262.782 231.595" stroke="black" stroke-width="0.341334"/>
<path d="M258.174 284.161C258.174 284.161 260.051 267.094 260.051 259.926C260.051 254.123 258.686 241.494 258.686 241.494H253.054C253.054 241.494 252.201 254.123 252.371 259.926C252.371 267.094 254.249 284.161 254.249 284.161H258.174Z" fill="#F1B517" stroke="black" stroke-width="0.341334"/>
<path d="M252.542 242.347H259.369L258.515 237.739H253.566L252.542 242.176V242.347Z" fill="#F1B517" stroke="black" stroke-width="0.341334"/>
<path d="M253.054 238.593H259.027L257.833 233.984H254.078L252.883 238.593H253.054Z" fill="#F1B517" stroke="black" stroke-width="0.341334"/>
<path d="M253.396 235.008H258.516L257.492 230.4H254.249L253.396 235.008Z" fill="#F1B517" stroke="black" stroke-width="0.341334"/>
<path d="M257.662 229.888H254.249L253.737 231.595H258.003L257.662 229.888ZM258.345 280.577H253.907H258.345ZM258.686 277.163H253.566H258.686ZM259.369 273.75H252.883H259.369ZM259.71 270.166H252.883H259.71ZM259.71 266.411H252.713H259.71ZM259.881 262.998H252.371H259.881ZM259.881 260.096H252.03H259.881ZM259.881 256.342H252.03H259.881ZM259.71 252.758H252.03H259.71ZM259.369 249.003H252.371H259.369ZM259.027 245.59H252.713H259.027Z" fill="#F1B517"/>
<path d="M258.345 280.577H253.907M258.686 277.163H253.566M259.369 273.75H252.883M259.71 270.166H252.883M259.71 266.411H252.713M259.881 262.998H252.371M259.881 260.096H252.03M259.881 256.342H252.03M259.71 252.758H252.03M259.369 249.003H252.371M259.027 245.59H252.713M257.662 229.888H254.249L253.737 231.595H258.003L257.662 229.888Z" stroke="black" stroke-width="0.341334"/>
<path d="M256.467 203.094C255.102 202.582 252.542 200.875 253.225 199.851L254.419 197.803C256.126 194.048 254.419 195.414 254.419 194.39C254.078 193.024 260.905 194.048 260.905 196.608C260.905 197.462 260.393 196.95 260.563 201.046L259.198 203.606C258.218 203.734 257.221 203.617 256.297 203.264L256.467 203.094Z" fill="#0A328C" stroke="#0A328C" stroke-width="0.341334"/>
<path d="M257.15 213.334L255.443 211.798L255.955 199.68L257.662 200.192L257.15 213.163V213.334Z" fill="#F1B517" stroke="black" stroke-width="0.341334"/>
<path d="M259.369 203.606C260.393 202.923 261.075 201.046 260.393 200.022C258.686 197.803 257.491 198.656 254.59 197.632C254.078 198.315 252.883 199.339 253.054 200.363C256.979 202.07 255.443 200.704 256.809 200.875C257.491 200.875 257.833 201.728 259.369 203.435V203.606Z" fill="#D20014" stroke="#D20014" stroke-width="0.341334"/>
<path d="M236.841 273.579C236.499 272.726 235.134 272.043 233.427 272.043C231.721 272.043 230.526 272.726 230.014 273.579C229.956 273.355 229.956 273.12 230.014 272.897C230.014 271.702 231.55 270.849 233.427 270.849C235.475 270.849 237.011 271.702 237.011 272.897C237.069 273.12 237.069 273.355 237.011 273.579H236.841Z" fill="#016A16" stroke="white" stroke-width="0.341334" stroke-linecap="round"/>
<path d="M236.67 276.139C236.67 278.187 235.134 280.065 233.427 280.065C231.721 280.065 230.355 278.358 230.355 275.969V273.921H236.67V275.969V276.139Z" fill="#016A16" stroke="white" stroke-width="0.341334" stroke-linecap="round"/>
<path d="M233.427 274.774C235.124 274.774 236.499 274.086 236.499 273.238C236.499 272.39 235.124 271.702 233.427 271.702C231.731 271.702 230.355 272.39 230.355 273.238C230.355 274.086 231.731 274.774 233.427 274.774Z" fill="white"/>
<path d="M232.745 274.774L232.233 269.312H234.622L234.281 274.945H232.745V274.774Z" fill="#016A16" stroke="#F1B517" stroke-width="0.341334"/>
<path d="M236.841 273.238C236.499 274.091 235.134 274.774 233.427 274.774C231.721 274.774 230.526 274.091 230.014 273.238C229.956 273.462 229.956 273.697 230.014 273.921C230.014 275.115 231.55 275.969 233.427 275.969C235.475 275.969 237.011 275.115 237.011 273.921C237.069 273.697 237.069 273.462 237.011 273.238H236.841Z" fill="#016A16" stroke="white" stroke-width="0.341334" stroke-linecap="round"/>
<path d="M249.641 294.913L237.694 291.158L232.403 282.113L213.801 281.259L214.483 288.086L230.355 290.987L231.721 293.718L249.982 298.838L249.641 294.913Z" fill="#F1B517" stroke="black" stroke-width="0.341334"/>
<path d="M237.182 297.473L218.067 269.312L217.214 270.166L235.987 298.155L237.182 297.473Z" fill="#503200" stroke="black" stroke-width="0.341334"/>
<path d="M219.945 270.507L217.897 267.094C217.385 266.411 216.873 266.241 216.019 266.753C215.166 267.094 215.337 267.947 215.678 268.63L217.385 271.873L219.945 270.507Z" fill="white" stroke="black" stroke-width="0.341334"/>
<path d="M239.401 280.065L201.001 276.139L199.977 281.771L238.206 285.697L239.401 280.065Z" fill="#F1B517" stroke="black" stroke-width="0.341334"/>
<path d="M200.147 274.774L199.294 282.454H201.001L202.025 275.457L200.318 274.774H200.147ZM206.633 275.969L206.291 282.966H207.315L208.169 276.993L206.803 275.969H206.633ZM232.745 279.041L231.721 285.526H233.598L234.451 279.041H232.745ZM238.377 279.211L237.182 286.721L239.23 287.062L239.913 283.137C239.913 283.99 240.766 284.502 241.619 284.502C242.643 284.502 243.326 283.649 243.326 282.795C243.326 281.771 242.643 281.089 241.619 281.089C241.264 281.059 240.907 281.142 240.601 281.326C240.295 281.51 240.054 281.785 239.913 282.113L240.425 279.382L238.377 279.211ZM224.723 280.406L219.262 286.379L219.945 287.062L226.771 282.454L224.553 280.406H224.723ZM212.094 295.254L217.385 289.281L216.873 288.598L210.046 293.206L212.094 295.254ZM225.918 293.718L219.603 288.769L218.921 289.281L224.041 295.766L225.918 293.718ZM210.046 282.283L216.702 287.062L217.385 286.55L212.265 280.065L210.046 282.283ZM217.214 278.358L217.897 286.209H218.75L220.798 278.529L217.214 278.358ZM219.262 297.131L218.75 289.451H217.726L216.531 297.302H219.262V297.131ZM227.966 286.891L219.774 287.574V288.427L227.966 289.451V286.721V286.891ZM208.51 289.451L216.531 288.257V287.574L208.339 286.721V289.451H208.51Z" fill="#F1B517" stroke="black" stroke-width="0.341334"/>
<path d="M218.409 289.793C219.634 289.793 220.627 288.876 220.627 287.745C220.627 286.613 219.634 285.697 218.409 285.697C217.183 285.697 216.19 286.613 216.19 287.745C216.19 288.876 217.183 289.793 218.409 289.793Z" fill="#F1B517" stroke="black" stroke-width="0.341334"/>
<path fill-rule="evenodd" clip-rule="evenodd" d="M229.843 287.745C229.843 293.718 224.723 298.838 218.409 298.838C216.929 298.861 215.46 298.591 214.085 298.046C212.71 297.501 211.455 296.69 210.393 295.66C209.331 294.63 208.483 293.4 207.896 292.042C207.31 290.684 206.996 289.224 206.974 287.745C206.974 281.601 212.094 276.651 218.409 276.651C219.888 276.629 221.357 276.898 222.732 277.443C224.108 277.988 225.362 278.799 226.424 279.829C227.486 280.859 228.334 282.089 228.921 283.447C229.508 284.805 229.821 286.265 229.843 287.745ZM227.625 287.745C227.602 288.932 227.346 290.104 226.871 291.193C226.396 292.282 225.711 293.267 224.855 294.091C223.999 294.915 222.989 295.563 221.883 295.996C220.777 296.43 219.596 296.642 218.409 296.619C217.206 296.642 216.012 296.425 214.895 295.98C213.777 295.536 212.76 294.873 211.902 294.031C211.044 293.189 210.362 292.184 209.897 291.075C209.432 289.967 209.192 288.776 209.193 287.574C209.282 285.205 210.297 282.965 212.021 281.337C213.744 279.71 216.038 278.823 218.409 278.87C219.596 278.847 220.777 279.059 221.883 279.493C222.989 279.926 223.999 280.574 224.855 281.398C225.711 282.222 226.396 283.207 226.871 284.296C227.346 285.385 227.602 286.557 227.625 287.745Z" fill="#F1B517" stroke="black" stroke-width="0.341334" stroke-linecap="round"/>
<path d="M211.241 282.113L209.534 280.747L211.241 282.113ZM224.041 280.747L225.747 279.041L224.041 280.747ZM227.454 294.742L225.577 293.206L227.454 294.742ZM211.241 296.449L212.947 294.742L211.241 296.449ZM249.982 276.651L251.859 286.891L250.323 287.574L248.617 276.822H249.982V276.651Z" fill="#F1B517"/>
<path d="M211.241 282.113L209.534 280.747M224.041 280.747L225.747 279.041M227.454 294.742L225.577 293.206M211.241 296.449L212.947 294.742M249.982 276.651L251.859 286.891L250.323 287.574L248.617 276.822H249.982V276.651Z" stroke="black" stroke-width="0.341334"/>
<path d="M248.958 275.457C248.105 274.945 246.91 275.627 244.862 273.238C241.619 276.139 244.862 276.651 245.203 279.553C246.057 279.894 246.739 277.163 249.129 276.993L253.054 276.651L252.201 275.457H248.787H248.958Z" fill="white" stroke="black" stroke-width="0.341334"/>
<path d="M250.323 277.334L249.982 274.433C249.47 273.238 248.275 274.262 248.275 274.774L248.617 277.675L250.323 277.334Z" fill="white" stroke="black" stroke-width="0.341334"/>
<path fill-rule="evenodd" clip-rule="evenodd" d="M240.766 285.697V288.427C239.742 288.769 239.913 289.451 239.913 290.475V298.497C239.742 299.179 238.718 299.179 238.206 299.521C237.694 300.033 237.865 300.886 239.913 301.227L241.619 301.398C244.18 300.886 244.692 300.033 243.326 299.691C242.814 299.35 241.79 299.009 241.619 298.667V296.619H243.326C243.668 296.619 244.521 295.595 244.521 294.742V290.475C244.521 288.086 242.814 287.745 242.132 287.915V285.697H240.766ZM243.497 290.305C243.497 289.622 242.473 288.939 242.132 288.939C241.79 288.939 240.937 289.793 240.937 290.475V292.182C240.937 292.865 241.449 294.913 242.473 295.083C242.814 295.083 243.497 294.401 243.497 293.718V290.305Z" fill="#F1B517" stroke="black" stroke-width="0.341334"/>
<path d="M229.673 294.059C228.478 293.718 228.478 296.107 228.478 296.107H230.185C231.038 296.449 231.55 297.473 231.209 298.155C230.697 298.497 227.454 297.302 227.283 298.155C227.795 301.398 232.233 302.593 233.769 301.227C235.305 299.691 235.646 296.107 230.697 294.913L229.673 294.059ZM230.697 295.083L230.185 296.107L230.697 295.083Z" fill="white"/>
<path d="M230.185 296.107H228.478C228.478 296.107 228.478 293.718 229.673 294.059L230.697 294.913C235.646 296.107 235.305 299.691 233.769 301.227C232.233 302.593 227.795 301.398 227.283 298.155C227.454 297.302 230.697 298.497 231.209 298.155C231.55 297.473 231.038 296.449 230.185 296.107ZM230.185 296.107L230.697 295.083" stroke="black" stroke-width="0.341334"/>
<path d="M196.734 295.254L195.027 288.427L196.734 295.254ZM198.611 294.913L196.051 289.622L198.611 294.913ZM202.878 293.547L197.246 290.475L202.878 293.547ZM205.438 292.865L194.857 288.257L205.438 292.865Z" fill="#F1B517"/>
<path d="M196.734 295.254L195.027 288.427M198.611 294.913L196.051 289.622M202.878 293.547L197.246 290.475M205.438 292.865L194.857 288.257" stroke="black" stroke-width="0.341334"/>
<path d="M188.542 283.307L184.105 283.478C183.763 283.649 184.958 285.014 184.787 285.355C183.763 287.233 177.278 287.062 176.766 286.721C175.913 285.867 182.739 285.355 182.91 285.014C182.91 284.331 181.886 282.966 182.057 282.113C182.057 280.918 184.958 280.406 184.958 280.406L188.542 283.307Z" fill="#D20014" stroke="#D20014" stroke-width="0.341334"/>
<path d="M193.662 286.721L185.129 279.553C185.129 279.553 184.617 279.211 184.275 279.553C183.934 279.894 184.275 280.235 184.275 280.235L193.491 287.745L193.662 286.891V286.721Z" fill="#503200" stroke="black" stroke-width="0.341334"/>
<path d="M202.195 293.889L195.027 287.745L194.515 286.038L193.15 287.062C192.638 287.403 192.126 288.427 192.126 288.427H194.003L200.147 294.23L202.025 293.889H202.195Z" fill="#F1B517" stroke="black" stroke-width="0.341334"/>
<path d="M226.601 303.446C227.26 303.446 227.795 302.911 227.795 302.251C227.795 301.592 227.26 301.057 226.601 301.057C225.941 301.057 225.406 301.592 225.406 302.251C225.406 302.911 225.941 303.446 226.601 303.446Z" fill="#F1B517" stroke="black" stroke-width="0.341334"/>
<path d="M223.358 301.057C224.018 301.057 224.553 300.522 224.553 299.862C224.553 299.202 224.018 298.667 223.358 298.667C222.698 298.667 222.163 299.202 222.163 299.862C222.163 300.522 222.698 301.057 223.358 301.057Z" fill="#F1B517" stroke="black" stroke-width="0.341334"/>
<path d="M219.091 302.593C219.751 302.593 220.286 302.058 220.286 301.398C220.286 300.738 219.751 300.203 219.091 300.203C218.432 300.203 217.897 300.738 217.897 301.398C217.897 302.058 218.432 302.593 219.091 302.593Z" fill="#F1B517" stroke="black" stroke-width="0.341334"/>
<path d="M212.435 303.958C213.095 303.958 213.63 303.423 213.63 302.763C213.63 302.103 213.095 301.569 212.435 301.569C211.776 301.569 211.241 302.103 211.241 302.763C211.241 303.423 211.776 303.958 212.435 303.958Z" fill="#F1B517" stroke="black" stroke-width="0.341334"/>
<path d="M209.534 304.299C210.194 304.299 210.729 303.764 210.729 303.105C210.729 302.445 210.194 301.91 209.534 301.91C208.874 301.91 208.339 302.445 208.339 303.105C208.339 303.764 208.874 304.299 209.534 304.299Z" fill="#F1B517" stroke="black" stroke-width="0.341334"/>
<path d="M206.633 304.299C207.292 304.299 207.827 303.764 207.827 303.105C207.827 302.445 207.292 301.91 206.633 301.91C205.973 301.91 205.438 302.445 205.438 303.105C205.438 303.764 205.973 304.299 206.633 304.299Z" fill="#F1B517" stroke="black" stroke-width="0.341334"/>
<path d="M203.902 304.299C204.562 304.299 205.097 303.764 205.097 303.105C205.097 302.445 204.562 301.91 203.902 301.91C203.242 301.91 202.707 302.445 202.707 303.105C202.707 303.764 203.242 304.299 203.902 304.299Z" fill="#F1B517" stroke="black" stroke-width="0.341334"/>
<path d="M205.267 302.081C205.927 302.081 206.462 301.546 206.462 300.886C206.462 300.226 205.927 299.691 205.267 299.691C204.608 299.691 204.073 300.226 204.073 300.886C204.073 301.546 204.608 302.081 205.267 302.081Z" fill="#F1B517" stroke="black" stroke-width="0.341334"/>
<path d="M207.998 302.251C208.658 302.251 209.193 301.716 209.193 301.057C209.193 300.397 208.658 299.862 207.998 299.862C207.338 299.862 206.803 300.397 206.803 301.057C206.803 301.716 207.338 302.251 207.998 302.251Z" fill="#F1B517" stroke="black" stroke-width="0.341334"/>
<path d="M210.558 301.91C211.218 301.91 211.753 301.375 211.753 300.715C211.753 300.055 211.218 299.521 210.558 299.521C209.898 299.521 209.363 300.055 209.363 300.715C209.363 301.375 209.898 301.91 210.558 301.91Z" fill="#F1B517" stroke="black" stroke-width="0.341334"/>
<path d="M209.363 299.862C210.023 299.862 210.558 299.327 210.558 298.667C210.558 298.008 210.023 297.473 209.363 297.473C208.704 297.473 208.169 298.008 208.169 298.667C208.169 299.327 208.704 299.862 209.363 299.862Z" fill="#F1B517" stroke="black" stroke-width="0.341334"/>
<path d="M206.633 299.691C207.292 299.691 207.827 299.156 207.827 298.497C207.827 297.837 207.292 297.302 206.633 297.302C205.973 297.302 205.438 297.837 205.438 298.497C205.438 299.156 205.973 299.691 206.633 299.691Z" fill="#F1B517" stroke="black" stroke-width="0.341334"/>
<path fill-rule="evenodd" clip-rule="evenodd" d="M233.427 303.787C233.427 303.275 232.062 303.446 232.062 302.763C232.062 302.081 234.11 302.763 234.281 303.275C235.475 302.251 235.987 302.934 236.67 303.275C237.694 301.91 238.889 301.91 240.083 302.934C240.766 302.251 242.473 302.422 242.985 303.275C244.179 302.251 245.203 302.422 245.886 303.275C246.227 302.763 246.739 302.763 247.081 303.275C247.593 302.081 249.129 302.422 249.811 303.275C250.323 302.593 251.006 303.105 251.689 303.446C252.201 303.105 253.054 303.105 253.054 303.446C253.054 304.129 252.03 303.958 252.03 304.47C252.03 304.811 252.713 304.47 252.713 305.153C252.713 305.665 251.689 305.835 251.518 305.153C251.006 305.835 249.641 305.494 249.47 304.811C249.342 304.957 249.184 305.073 249.008 305.153C248.831 305.232 248.64 305.274 248.446 305.274C248.252 305.274 248.061 305.232 247.884 305.153C247.708 305.073 247.55 304.957 247.422 304.811C246.91 305.153 246.227 305.153 246.057 304.811C245.203 305.665 243.667 305.494 243.155 304.47H242.643C242.483 304.652 242.286 304.797 242.066 304.897C241.845 304.996 241.605 305.048 241.363 305.048C241.121 305.048 240.882 304.996 240.661 304.897C240.44 304.797 240.244 304.652 240.083 304.47C238.547 305.494 237.694 305.153 236.841 304.47C235.987 305.665 234.451 305.665 234.281 304.47C233.598 304.982 232.233 305.153 232.233 304.47C232.233 304.129 233.427 304.299 233.427 303.787ZM236.158 303.958C236.158 304.299 235.817 304.47 235.475 304.47C235.134 304.47 234.793 304.299 234.793 303.958C234.793 303.617 234.963 303.617 235.475 303.617C235.987 303.617 236.158 303.787 236.158 303.958ZM239.401 303.617C239.401 303.958 238.889 304.129 238.377 304.129C237.865 304.129 237.523 303.958 237.523 303.617C237.523 303.446 237.865 303.105 238.377 303.105C238.889 303.105 239.23 303.446 239.23 303.617H239.401ZM245.374 303.958C245.374 304.299 245.033 304.47 244.521 304.47C244.009 304.47 243.838 304.299 243.838 303.958C243.838 303.787 244.179 303.446 244.521 303.446C244.862 303.446 245.374 303.617 245.374 303.958ZM242.131 303.958C242.131 304.299 241.79 304.47 241.278 304.47C240.766 304.47 240.595 304.299 240.595 303.787C240.595 303.446 240.937 303.105 241.278 303.105C241.619 303.105 242.131 303.446 242.131 303.787V303.958ZM248.958 303.958C248.958 304.129 248.787 304.47 248.446 304.47C247.934 304.47 247.593 304.129 247.593 303.787C247.593 303.446 247.934 303.275 248.446 303.275C248.787 303.275 249.129 303.446 249.129 303.787L248.958 303.958ZM246.91 303.958C246.91 304.299 246.91 304.47 246.569 304.47C246.227 304.47 246.057 304.299 246.057 303.958C246.057 303.617 246.227 303.617 246.569 303.617L246.91 303.958ZM251.006 304.129C251.006 304.47 251.006 304.811 250.494 304.811C250.323 304.811 249.982 304.47 249.982 304.129C249.982 303.787 250.323 303.617 250.494 303.617C250.835 303.617 251.006 303.787 251.006 304.129Z" fill="#F1B517" stroke="black" stroke-width="0.341334"/>
<path d="M263.123 294.913L275.07 291.158L280.361 282.113L298.963 281.259L298.281 288.086L282.409 290.987L281.043 293.718L262.782 298.838L263.123 294.913Z" fill="#F1B517" stroke="black" stroke-width="0.341334"/>
<path d="M275.582 297.473L294.697 269.312L295.55 270.166L276.777 298.155L275.582 297.473Z" fill="#503200" stroke="black" stroke-width="0.341334"/>
<path d="M292.819 270.507L294.867 267.094C295.379 266.411 295.891 266.241 296.745 266.753C297.598 267.094 297.427 267.947 297.086 268.63L295.379 271.873L292.819 270.507Z" fill="white" stroke="black" stroke-width="0.341334"/>
<path d="M273.364 280.065L311.764 276.139L312.788 281.771L274.558 285.697L273.364 280.065Z" fill="#F1B517" stroke="black" stroke-width="0.341334"/>
<path d="M312.617 274.774L313.47 282.454H311.764L310.74 275.457L312.446 274.774H312.617ZM306.132 275.969L306.473 282.966H305.449L304.596 276.993L305.961 275.969H306.132ZM280.019 279.041L281.043 285.526H279.166L278.313 279.041H280.019ZM274.387 279.211L275.582 286.721L273.534 287.062L272.851 283.137C272.851 283.99 271.998 284.502 271.145 284.502C270.121 284.502 269.438 283.649 269.438 282.795C269.438 281.771 270.121 281.089 271.145 281.089C271.501 281.059 271.857 281.142 272.163 281.326C272.469 281.51 272.71 281.785 272.851 282.113L272.339 279.382L274.387 279.211ZM288.041 280.406L293.502 286.379L292.819 287.062L285.993 282.454L288.211 280.406H288.041ZM300.67 295.254L295.38 289.281L295.892 288.598L302.718 293.206L300.67 295.254ZM286.846 293.718L293.161 288.769L293.844 289.281L288.723 295.766L286.846 293.718ZM302.718 282.283L296.062 287.062L295.38 286.55L300.5 280.065L302.718 282.283ZM295.55 278.358L294.868 286.209H294.014L291.966 278.529L295.55 278.358ZM293.502 297.131L294.014 289.451H295.038L296.233 297.302H293.502V297.131ZM284.798 286.891L292.99 287.574V288.427L284.798 289.451V286.721V286.891ZM304.254 289.451L296.233 288.257V287.574L304.425 286.721V289.451H304.254Z" fill="#F1B517" stroke="black" stroke-width="0.341334"/>
<path d="M294.356 289.793C293.13 289.793 292.137 288.876 292.137 287.745C292.137 286.613 293.13 285.697 294.356 285.697C295.581 285.697 296.574 286.613 296.574 287.745C296.574 288.876 295.581 289.793 294.356 289.793Z" fill="#F1B517" stroke="black" stroke-width="0.341334"/>
<path fill-rule="evenodd" clip-rule="evenodd" d="M282.921 287.745C282.921 293.718 288.041 298.838 294.356 298.838C295.835 298.861 297.304 298.591 298.679 298.046C300.055 297.501 301.309 296.69 302.371 295.66C303.433 294.63 304.281 293.4 304.868 292.042C305.455 290.684 305.768 289.224 305.79 287.745C305.79 281.601 300.67 276.651 294.356 276.651C292.876 276.629 291.407 276.898 290.032 277.443C288.657 277.988 287.402 278.799 286.34 279.829C285.279 280.859 284.43 282.089 283.843 283.447C283.257 284.805 282.943 286.265 282.921 287.745ZM285.14 287.745C285.162 288.932 285.418 290.104 285.893 291.193C286.368 292.282 287.053 293.267 287.909 294.091C288.765 294.915 289.775 295.563 290.881 295.996C291.987 296.43 293.168 296.642 294.356 296.619C295.558 296.642 296.752 296.425 297.87 295.98C298.987 295.536 300.004 294.873 300.862 294.031C301.72 293.189 302.402 292.184 302.867 291.075C303.332 289.967 303.572 288.776 303.572 287.574C303.483 285.205 302.467 282.965 300.743 281.337C299.02 279.71 296.726 278.823 294.356 278.87C293.168 278.847 291.987 279.059 290.881 279.493C289.775 279.926 288.765 280.574 287.909 281.398C287.053 282.222 286.368 283.207 285.893 284.296C285.418 285.385 285.162 286.557 285.14 287.745Z" fill="#F1B517" stroke="black" stroke-width="0.341334" stroke-linecap="round"/>
<path d="M301.524 282.113L303.23 280.747L301.524 282.113ZM288.724 280.747L287.017 279.041L288.724 280.747ZM285.31 294.742L287.188 293.206L285.31 294.742ZM301.524 296.449L299.817 294.742L301.524 296.449ZM262.782 276.651L260.905 286.891L262.441 287.574L264.147 276.822H262.782V276.651Z" fill="#F1B517"/>
<path d="M301.524 282.113L303.23 280.747M288.724 280.747L287.017 279.041M285.31 294.742L287.188 293.206M301.524 296.449L299.817 294.742M262.782 276.651L260.905 286.891L262.441 287.574L264.147 276.822H262.782V276.651Z" stroke="black" stroke-width="0.341334"/>
<path d="M263.806 275.457C264.659 274.945 265.854 275.627 267.902 273.238C271.145 276.139 267.902 276.651 267.561 279.553C266.708 279.894 266.025 277.163 263.636 276.993L259.71 276.651L260.564 275.457H263.977H263.806Z" fill="white" stroke="black" stroke-width="0.341334"/>
<path d="M262.441 277.334L262.782 274.433C263.294 273.238 264.489 274.262 264.489 274.774L264.147 277.675L262.441 277.334Z" fill="white" stroke="black" stroke-width="0.341334"/>
<path fill-rule="evenodd" clip-rule="evenodd" d="M271.998 285.697V288.427C273.022 288.769 272.851 289.451 272.851 290.475V298.497C273.022 299.179 274.046 299.179 274.558 299.521C275.07 300.033 274.899 300.886 272.851 301.227L271.145 301.398C268.585 300.886 268.073 300.033 269.438 299.691C269.95 299.35 270.974 299.009 271.145 298.667V296.619H269.438C269.097 296.619 268.243 295.595 268.243 294.742V290.475C268.243 288.086 269.95 287.745 270.633 287.915V285.697H271.998ZM269.267 290.305C269.267 289.622 270.291 288.939 270.633 288.939C270.974 288.939 271.827 289.793 271.827 290.475V292.182C271.827 292.865 271.315 294.913 270.291 295.083C269.95 295.083 269.267 294.401 269.267 293.718V290.305Z" fill="#F1B517" stroke="black" stroke-width="0.341334"/>
<path d="M283.092 294.059C284.286 293.718 284.286 296.107 284.286 296.107H282.58C281.726 296.449 281.214 297.473 281.556 298.155C282.068 298.497 285.31 297.302 285.481 298.155C284.969 301.398 280.532 302.593 278.996 301.227C277.46 299.691 277.118 296.107 282.068 294.913L283.092 294.059ZM282.068 295.083L282.58 296.107L282.068 295.083Z" fill="white"/>
<path d="M282.58 296.107H284.286C284.286 296.107 284.286 293.718 283.092 294.059L282.068 294.913C277.118 296.107 277.46 299.691 278.996 301.227C280.532 302.593 284.969 301.398 285.481 298.155C285.31 297.302 282.068 298.497 281.556 298.155C281.214 297.473 281.726 296.449 282.58 296.107ZM282.58 296.107L282.068 295.083" stroke="black" stroke-width="0.341334"/>
<path d="M316.03 295.254L317.737 288.427L316.03 295.254ZM314.153 294.913L316.713 289.622L314.153 294.913ZM309.886 293.547L315.518 290.475L309.886 293.547ZM307.326 292.865L317.907 288.257L307.326 292.865Z" fill="#F1B517"/>
<path d="M316.03 295.254L317.737 288.427M314.153 294.913L316.713 289.622M309.886 293.547L315.518 290.475M307.326 292.865L317.907 288.257" stroke="black" stroke-width="0.341334"/>
<path d="M324.222 283.307L328.66 283.478C329.001 283.649 327.806 285.014 327.977 285.355C329.001 287.233 335.486 287.062 335.998 286.721C336.852 285.867 330.025 285.355 329.854 285.014C329.854 284.331 330.878 282.966 330.708 282.113C330.708 280.918 327.806 280.406 327.806 280.406L324.222 283.307Z" fill="#D20014" stroke="#D20014" stroke-width="0.341334"/>
<path d="M319.102 286.721L327.636 279.553C327.636 279.553 328.148 279.211 328.489 279.553C328.83 279.894 328.489 280.235 328.489 280.235L319.273 287.745L319.102 286.891V286.721Z" fill="#503200" stroke="black" stroke-width="0.341334"/>
<path d="M310.569 293.889L317.737 287.745L318.249 286.038L319.614 287.062C320.126 287.403 320.638 288.427 320.638 288.427H318.761L312.617 294.23L310.739 293.889H310.569Z" fill="#F1B517" stroke="black" stroke-width="0.341334"/>
<path d="M286.163 303.446C285.504 303.446 284.969 302.911 284.969 302.251C284.969 301.592 285.504 301.057 286.163 301.057C286.823 301.057 287.358 301.592 287.358 302.251C287.358 302.911 286.823 303.446 286.163 303.446Z" fill="#F1B517" stroke="black" stroke-width="0.341334"/>
<path d="M289.406 301.057C288.746 301.057 288.211 300.522 288.211 299.862C288.211 299.202 288.746 298.667 289.406 298.667C290.066 298.667 290.601 299.202 290.601 299.862C290.601 300.522 290.066 301.057 289.406 301.057Z" fill="#F1B517" stroke="black" stroke-width="0.341334"/>
<path d="M293.673 302.593C293.013 302.593 292.478 302.058 292.478 301.398C292.478 300.738 293.013 300.203 293.673 300.203C294.333 300.203 294.867 300.738 294.867 301.398C294.867 302.058 294.333 302.593 293.673 302.593Z" fill="#F1B517" stroke="black" stroke-width="0.341334"/>
<path d="M300.329 303.958C299.669 303.958 299.134 303.423 299.134 302.763C299.134 302.103 299.669 301.569 300.329 301.569C300.989 301.569 301.523 302.103 301.523 302.763C301.523 303.423 300.989 303.958 300.329 303.958Z" fill="#F1B517" stroke="black" stroke-width="0.341334"/>
<path d="M303.23 304.299C302.57 304.299 302.035 303.764 302.035 303.105C302.035 302.445 302.57 301.91 303.23 301.91C303.89 301.91 304.425 302.445 304.425 303.105C304.425 303.764 303.89 304.299 303.23 304.299Z" fill="#F1B517" stroke="black" stroke-width="0.341334"/>
<path d="M306.132 304.299C305.472 304.299 304.937 303.764 304.937 303.105C304.937 302.445 305.472 301.91 306.132 301.91C306.791 301.91 307.326 302.445 307.326 303.105C307.326 303.764 306.791 304.299 306.132 304.299Z" fill="#F1B517" stroke="black" stroke-width="0.341334"/>
<path d="M308.862 304.299C308.202 304.299 307.668 303.764 307.668 303.105C307.668 302.445 308.202 301.91 308.862 301.91C309.522 301.91 310.057 302.445 310.057 303.105C310.057 303.764 309.522 304.299 308.862 304.299Z" fill="#F1B517" stroke="black" stroke-width="0.341334"/>
<path d="M307.497 302.081C306.837 302.081 306.302 301.546 306.302 300.886C306.302 300.226 306.837 299.691 307.497 299.691C308.157 299.691 308.691 300.226 308.691 300.886C308.691 301.546 308.157 302.081 307.497 302.081Z" fill="#F1B517" stroke="black" stroke-width="0.341334"/>
<path d="M304.766 302.251C304.106 302.251 303.572 301.716 303.572 301.057C303.572 300.397 304.106 299.862 304.766 299.862C305.426 299.862 305.961 300.397 305.961 301.057C305.961 301.716 305.426 302.251 304.766 302.251Z" fill="#F1B517" stroke="black" stroke-width="0.341334"/>
<path d="M302.206 301.91C301.546 301.91 301.012 301.375 301.012 300.715C301.012 300.055 301.546 299.521 302.206 299.521C302.866 299.521 303.401 300.055 303.401 300.715C303.401 301.375 302.866 301.91 302.206 301.91Z" fill="#F1B517" stroke="black" stroke-width="0.341334"/>
<path d="M303.401 299.862C302.741 299.862 302.206 299.327 302.206 298.667C302.206 298.008 302.741 297.473 303.401 297.473C304.061 297.473 304.595 298.008 304.595 298.667C304.595 299.327 304.061 299.862 303.401 299.862Z" fill="#F1B517" stroke="black" stroke-width="0.341334"/>
<path d="M306.132 299.691C305.472 299.691 304.937 299.156 304.937 298.497C304.937 297.837 305.472 297.302 306.132 297.302C306.791 297.302 307.326 297.837 307.326 298.497C307.326 299.156 306.791 299.691 306.132 299.691Z" fill="#F1B517" stroke="black" stroke-width="0.341334"/>
<path fill-rule="evenodd" clip-rule="evenodd" d="M279.337 303.787C279.337 303.275 280.702 303.446 280.702 302.763C280.702 302.081 278.654 302.763 278.483 303.275C277.289 302.251 276.777 302.934 276.094 303.275C275.07 301.91 273.875 301.91 272.681 302.934C271.998 302.251 270.291 302.422 269.779 303.275C268.585 302.251 267.561 302.422 266.878 303.275C266.537 302.763 266.025 302.763 265.683 303.275C265.171 302.081 263.635 302.422 262.953 303.275C262.441 302.593 261.758 303.105 261.075 303.446C260.563 303.105 259.71 303.105 259.71 303.446C259.71 304.129 260.734 303.958 260.734 304.47C260.734 304.811 260.051 304.47 260.051 305.153C260.051 305.665 261.075 305.835 261.246 305.153C261.758 305.835 263.123 305.494 263.294 304.811C263.422 304.957 263.58 305.073 263.756 305.153C263.933 305.232 264.124 305.274 264.318 305.274C264.512 305.274 264.703 305.232 264.88 305.153C265.056 305.073 265.214 304.957 265.342 304.811C265.854 305.153 266.537 305.153 266.707 304.811C267.561 305.665 269.097 305.494 269.609 304.47H270.121C270.281 304.652 270.478 304.797 270.699 304.897C270.919 304.996 271.159 305.048 271.401 305.048C271.643 305.048 271.882 304.996 272.103 304.897C272.324 304.797 272.521 304.652 272.681 304.47C274.217 305.494 275.07 305.153 275.923 304.47C276.777 305.665 278.313 305.665 278.483 304.47C279.166 304.982 280.531 305.153 280.531 304.47C280.531 304.129 279.337 304.299 279.337 303.787ZM276.606 303.958C276.606 304.299 276.947 304.47 277.289 304.47C277.63 304.47 277.971 304.299 277.971 303.958C277.971 303.617 277.801 303.617 277.289 303.617C276.777 303.617 276.606 303.787 276.606 303.958ZM273.363 303.617C273.363 303.958 273.875 304.129 274.387 304.129C274.899 304.129 275.241 303.958 275.241 303.617C275.241 303.446 274.899 303.105 274.387 303.105C273.875 303.105 273.534 303.446 273.534 303.617H273.363ZM267.39 303.958C267.39 304.299 267.731 304.47 268.243 304.47C268.755 304.47 268.926 304.299 268.926 303.958C268.926 303.787 268.585 303.446 268.243 303.446C267.902 303.446 267.39 303.617 267.39 303.958ZM270.633 303.958C270.633 304.299 270.974 304.47 271.486 304.47C271.998 304.47 272.169 304.299 272.169 303.787C272.169 303.446 271.827 303.105 271.486 303.105C271.145 303.105 270.633 303.446 270.633 303.787V303.958ZM263.806 303.958C263.806 304.129 263.977 304.47 264.318 304.47C264.83 304.47 265.171 304.129 265.171 303.787C265.171 303.446 264.83 303.275 264.318 303.275C263.977 303.275 263.635 303.446 263.635 303.787L263.806 303.958ZM265.854 303.958C265.854 304.299 265.854 304.47 266.195 304.47C266.537 304.47 266.707 304.299 266.707 303.958C266.707 303.617 266.537 303.617 266.195 303.617L265.854 303.958ZM261.758 304.129C261.758 304.47 261.758 304.811 262.27 304.811C262.441 304.811 262.782 304.47 262.782 304.129C262.782 303.787 262.441 303.617 262.27 303.617C261.929 303.617 261.758 303.787 261.758 304.129Z" fill="#F1B517" stroke="black" stroke-width="0.341334"/>
<path d="M256.126 282.795C251.859 282.795 248.446 284.502 248.446 286.379C248.446 286.721 248.446 287.062 248.787 287.403C249.641 288.427 252.713 289.11 256.297 289.11C259.71 289.11 262.441 288.598 263.465 287.574C263.806 287.233 263.977 286.891 263.977 286.379C263.977 284.502 260.563 282.966 256.126 282.966V282.795Z" fill="#0A328C" stroke="#0A328C" stroke-width="0.341334"/>
<path d="M263.977 286.721V298.667C263.977 300.203 260.563 301.227 256.297 301.227C252.03 301.227 248.446 300.203 248.446 298.667V286.721C248.446 288.086 251.859 289.281 256.126 289.281C260.563 289.281 263.977 288.086 263.977 286.721Z" fill="#F1B517" stroke="black" stroke-width="0.341334"/>
<path d="M248.446 286.721V288.427L252.201 300.374L255.273 291.158L258.686 300.545L260.905 291.67L263.977 297.643V294.401L261.246 288.598C260.909 288.725 260.568 288.839 260.222 288.939L258.515 295.425L255.955 289.281C255.557 289.29 255.159 289.29 254.761 289.281L252.201 295.425L249.47 287.915C248.787 287.574 248.446 287.062 248.446 286.721Z" fill="#D20014" stroke="#D20014" stroke-width="0.341334"/>
<path d="M263.977 296.449V298.667C263.977 300.203 260.563 301.227 256.297 301.227C252.03 301.227 248.446 300.203 248.446 298.667V296.449C248.446 297.985 251.859 299.009 256.126 299.009C260.563 299.009 263.977 297.985 263.977 296.449Z" fill="#0A328C" stroke="#0A328C" stroke-width="0.341334"/>
<path d="M259.369 298.667L257.491 299.009V301.227L259.539 301.057V298.838L259.369 298.667ZM251.177 298.497V300.715L253.054 301.057V298.838C252.422 298.764 251.795 298.65 251.177 298.497ZM248.446 296.449V298.667C248.446 299.179 248.787 299.521 249.299 299.862V297.643C248.787 297.302 248.446 296.961 248.446 296.449ZM263.977 296.79C263.977 297.131 263.294 297.643 262.611 297.985V300.203C263.465 299.862 263.977 299.35 263.977 298.667V296.961V296.79Z" fill="#F1B517" stroke="black" stroke-width="0.341334"/>
<path d="M263.977 286.721V298.667C263.977 300.203 260.563 301.227 256.297 301.227C252.03 301.227 248.446 300.203 248.446 298.667V286.721" stroke="black" stroke-width="0.341334"/>
<path d="M262.27 285.867C262.27 286.721 259.54 287.574 256.297 287.574C252.883 287.574 250.153 286.721 250.153 285.867C250.153 285.014 252.884 284.331 256.126 284.331C259.54 284.331 262.27 285.014 262.27 286.038V285.867Z" fill="white" stroke="white" stroke-width="0.341334"/>
<path d="M254.249 287.062L254.59 289.11H256.297L256.467 287.062H254.249ZM261.246 286.55L259.539 286.891L259.71 288.939L261.417 288.598V286.721L261.246 286.55ZM252.03 283.137L250.835 283.649L251.006 285.355L252.03 285.014V283.307V283.137ZM256.126 282.625H255.614L255.955 284.673H256.979L257.321 282.625C256.923 282.61 256.524 282.61 256.126 282.625ZM260.734 283.307L260.563 285.014L261.758 285.526V283.819C261.428 283.627 261.086 283.456 260.734 283.307ZM249.641 288.086L249.982 285.867L248.275 285.014V287.574L249.641 288.086ZM263.977 287.574V285.355L262.611 285.867L263.977 287.574ZM279.849 273.067C281.214 273.067 283.262 274.774 283.433 277.334C283.433 279.041 280.531 279.041 280.531 279.041C280.531 279.894 278.825 280.577 277.459 280.747C276.094 280.747 277.801 278.187 277.801 278.187C276.947 275.969 278.142 273.579 278.142 273.579L279.849 273.067Z" fill="#F1B517" stroke="black" stroke-width="0.341334"/>
<path d="M277.801 278.187H279.166C279.166 278.187 279.166 278.699 279.507 278.699C279.849 278.699 280.019 278.017 280.019 278.017H282.067" fill="#F1B517"/>
<path d="M277.801 278.187H279.166C279.166 278.187 279.166 278.699 279.507 278.699C279.849 278.699 280.019 278.017 280.019 278.017H282.067" stroke="black" stroke-width="0.341334"/>
<path d="M280.532 274.603C281.726 273.75 280.702 272.043 279.849 272.043H278.142C277.118 272.043 275.753 273.067 275.923 273.75C275.923 274.603 276.606 274.945 277.289 274.774C277.63 274.774 278.313 273.75 278.654 273.75C279.166 273.75 280.361 274.774 280.532 274.603Z" fill="#D20014" stroke="#F1B517" stroke-width="0.341334"/>
<path fill-rule="evenodd" clip-rule="evenodd" d="M195.369 298.326C194.345 298.497 194.174 299.691 194.515 300.886C190.078 302.081 185.982 303.787 181.886 304.982C181.715 304.129 183.934 301.91 183.934 301.91C184.446 302.081 184.958 303.446 184.958 303.446C184.958 300.715 187.689 299.009 187.689 299.009C185.982 298.667 181.374 300.715 180.862 301.398C180.862 301.398 182.569 301.057 182.91 301.398C182.91 301.398 179.155 305.323 178.985 306.518C179.667 307.713 185.811 308.737 185.811 308.737C185.811 309.078 184.105 310.443 184.105 310.443C186.665 310.785 190.419 309.078 191.443 308.054C191.443 308.054 188.542 307.713 186.323 305.835C186.323 305.835 186.665 307.03 186.323 307.542C186.323 307.542 182.91 306.518 182.398 305.835C182.398 305.835 190.931 303.787 195.027 302.422C195.198 303.275 196.051 304.641 197.075 304.299C197.587 304.129 197.417 302.934 197.075 301.91C197.214 302.033 197.376 302.127 197.552 302.186C197.728 302.245 197.914 302.267 198.099 302.251C198.782 302.251 199.294 301.739 199.294 301.057C199.294 300.374 198.782 299.862 198.099 299.862C197.84 299.876 197.589 299.963 197.378 300.114C197.166 300.266 197.002 300.474 196.905 300.715C196.734 299.862 196.222 298.326 195.539 298.497L195.369 298.326ZM198.782 301.057C198.782 301.398 198.441 301.569 198.099 301.569C198.02 301.597 197.934 301.605 197.851 301.592C197.767 301.58 197.688 301.546 197.621 301.496C197.553 301.445 197.499 301.378 197.463 301.302C197.428 301.225 197.412 301.141 197.417 301.057C197.417 300.715 197.758 300.374 198.099 300.374C198.441 300.374 198.611 300.715 198.611 301.057H198.782Z" fill="#F1B517" stroke="black" stroke-width="0.341334"/>
<path d="M329.854 303.617C330.196 302.934 329.854 299.862 329.854 299.862C329.001 299.862 328.148 301.057 328.148 301.057C329.001 298.326 326.782 294.23 326.782 294.23C328.318 294.401 333.438 299.35 333.609 300.374C333.609 300.374 331.39 299.521 331.049 299.691C331.561 302.251 333.268 303.446 333.95 304.811C333.95 304.811 331.049 305.323 331.219 307.883H329.342C328.66 307.03 329.513 305.665 329.513 305.665L316.371 300.203C315.518 299.862 313.641 298.838 313.982 297.814C314.153 296.961 317.395 298.326 318.078 298.667L330.025 303.617H329.854Z" fill="#F1B517" stroke="black" stroke-width="0.341334"/>
<path d="M317.225 301.227L318.932 298.497C319.444 297.643 318.249 296.79 317.396 297.814L315.689 300.374C315.006 301.91 316.542 302.251 317.396 301.227H317.225Z" fill="#F1B517" stroke="black" stroke-width="0.341334"/>
<path d="M224.7 307.8L224.6 304.8L220.8 304.9L220.6 308.3L224.7 307.8Z" fill="white" stroke="black" stroke-width="0.3"/>
<path d="M197.2 312.2L192.2 309.4C212.9 311.3 217.2 304 222.2 303.6C225.2 303.4 225.7 307 219.8 305.3L221.3 309.1C221.3 309.1 206.5 317.4 192.1 314.1L197.1 312.1L197.2 312.2ZM287.7 307.8V304.8H292.4L292.6 308.2L287.6 307.8H287.7Z" fill="white" stroke="black" stroke-width="0.3"/>
<path d="M316.1 311.4L320.9 308.8C297.1 309.6 302.5 304.9 290.6 303.6C287.6 303.3 285.2 307.3 293 305.3L291.5 309.1H295.2C303.084 313.877 312.535 315.35 321.5 313.2L316.1 311.4Z" fill="white" stroke="black" stroke-width="0.3"/>
<path d="M219.7 305.3V310.7C219.7 310.7 232.9 315.7 256.4 315.7C280 315.7 293.1 310.7 293.1 310.7V305.3C293.1 305.3 283.1 309.9 256.4 309.9C229.8 309.9 219.7 305.3 219.7 305.3Z" fill="white" stroke="black" stroke-width="0.3"/>
<path d="M221.6 310.8L222.8 306.8L223.3 307L222.3 310.4L224.3 311L224.2 311.5L221.6 310.7V310.8ZM225.5 309V308.2L225.7 307.6L226.3 307.7L226.1 308.4L225.8 309.1H225.5V309ZM231.1 308.7L231.7 308.9L231.2 311.2C231.2 311.6 231 311.9 230.8 312.2L230.2 312.6C229.872 312.685 229.528 312.685 229.2 312.6C228.836 312.561 228.49 312.422 228.2 312.2C228.04 312.036 227.935 311.826 227.9 311.6V310.6L228.4 308.2L229 308.3L228.5 310.6C228.4 311 228.4 311.3 228.5 311.4C228.5 311.6 228.5 311.8 228.7 311.9L229.2 312.1H230.2C230.4 311.9 230.5 311.6 230.6 311.1L231.1 308.7ZM231.7 313L232.4 309H233L234.7 312.6L235.2 309.4L235.7 309.5L235 313.5H234.5L232.8 309.9L232.3 313.1H231.7V313ZM236.1 313.7L236.7 309.7H237.2L236.6 313.7H236.1ZM237.7 311.9C237.729 311.328 237.98 310.79 238.4 310.4C238.623 310.223 238.881 310.096 239.157 310.027C239.433 309.958 239.72 309.949 240 310C240.4 310 240.7 310.1 241 310.3C241.3 310.6 241.5 310.8 241.6 311.2C241.7 311.5 241.8 311.9 241.7 312.3C241.644 312.659 241.507 313.001 241.3 313.3C241.1 313.7 240.8 313.9 240.5 314C240.187 314.144 239.844 314.213 239.5 314.2C239.136 314.161 238.79 314.022 238.5 313.8C238.1 313.6 237.9 313.3 237.8 312.9C237.69 312.579 237.656 312.237 237.7 311.9ZM238.3 311.9C238.2 312.5 238.3 312.9 238.5 313.2C238.8 313.5 239.1 313.7 239.5 313.7C239.9 313.7 240.3 313.7 240.6 313.4C240.9 313.1 241.1 312.8 241.1 312.2C241.168 311.904 241.168 311.596 241.1 311.3C240.999 311.053 240.824 310.844 240.6 310.7C240.399 310.537 240.156 310.433 239.9 310.4C239.5 310.4 239.2 310.4 238.9 310.7C238.5 310.9 238.3 311.4 238.3 312V311.9ZM242.2 314.4L242.5 310.3H243.1L245.1 313.7L245.3 310.5H245.9L245.5 314.7H245L243 311.2L242.7 314.4H242.2ZM248.2 314.8L248.3 310.7L251.3 310.8L251.2 311.3H248.9V312.5H250.9L250.8 313H248.8V314.8H248.2ZM251.2 314.9L253 310.9H253.6L255.3 315H254.6L254.1 313.7H252.5L252 315H251.4L251.2 314.9ZM252.5 313.3H254L253.6 312.2C253.487 311.904 253.387 311.604 253.3 311.3C253.3 311.6 253.1 311.8 253 312.1L252.5 313.3ZM255.8 315V310.9H256.4V315H255.8ZM258.4 315V311.4H257V310.9H260.3V311.3H258.9L259 315H258.4ZM262.6 314.9L262.4 310.8H263L263.1 314.4L265.2 314.3V314.8H262.6V314.9ZM265.5 314.8L266.8 310.6H267.4L269.4 314.5H268.8L268.2 313.3L266.4 313.5L266.1 314.7H265.5V314.8ZM266.5 313H268L267.5 311.8C267.356 311.539 267.222 311.272 267.1 311C267.054 311.271 266.987 311.539 266.9 311.8L266.6 313H266.5ZM271.5 314.3L271.1 310.3L273.9 309.9V310.4L271.7 310.7L271.8 311.9L273.8 311.7V312.2L271.9 312.4L272.1 314.2L271.6 314.3H271.5ZM274.7 312C274.6 311.3 274.7 310.7 275 310.3C275.165 310.077 275.375 309.89 275.616 309.753C275.857 309.615 276.124 309.529 276.4 309.5C276.745 309.479 277.089 309.548 277.4 309.7C277.8 309.7 278.1 310 278.3 310.3C278.516 310.619 278.655 310.983 278.707 311.365C278.76 311.746 278.723 312.135 278.6 312.5C278.485 312.821 278.276 313.099 278 313.3C277.7 313.5 277.3 313.7 277 313.7C276.631 313.771 276.25 313.736 275.9 313.6C275.572 313.447 275.294 313.205 275.1 312.9C274.889 312.603 274.752 312.26 274.7 311.9V312ZM275.2 311.9C275.3 312.4 275.5 312.8 275.8 312.9C276.1 313.2 276.5 313.3 276.9 313.3C277.3 313.3 277.7 313 277.9 312.7C278.1 312.4 278.2 312 278.1 311.4C278.059 311.115 277.956 310.842 277.8 310.6C277.656 310.376 277.446 310.201 277.2 310.1C276.949 309.989 276.671 309.954 276.4 310C276.208 310.01 276.02 310.06 275.848 310.146C275.676 310.232 275.523 310.352 275.4 310.5C275.2 310.8 275.2 311.3 275.3 311.9H275.2ZM279.7 313.3L278.9 309.3L280.8 308.9H281.7C281.9 308.9 282.1 309 282.2 309.2C282.4 309.3 282.5 309.5 282.5 309.8C282.523 310.05 282.452 310.3 282.3 310.5C282.2 310.7 281.9 310.9 281.5 311L281.9 311.2L282.5 311.6L283.4 312.6L282.7 312.7L282 312C281.841 311.826 281.674 311.659 281.5 311.5C281.41 311.42 281.309 311.352 281.2 311.3C281.101 311.283 280.999 311.283 280.9 311.3H279.9L280.3 313.2H279.7V313.3ZM279.8 310.9L281 310.7C281.3 310.7 281.5 310.7 281.6 310.5C281.704 310.441 281.788 310.353 281.842 310.246C281.895 310.139 281.915 310.018 281.9 309.9C281.896 309.798 281.867 309.699 281.815 309.611C281.762 309.524 281.688 309.451 281.6 309.4H280.9L279.6 309.6L279.8 310.9ZM286.5 310.5H287.1C287.1 310.9 287 311.3 286.7 311.6C286.5 311.9 286.1 312.1 285.7 312.2C285.34 312.303 284.959 312.303 284.6 312.2C284.228 312.077 283.91 311.83 283.7 311.5C283.501 311.197 283.365 310.857 283.3 310.5V309.4C283.3 309 283.5 308.7 283.8 308.5C284.09 308.278 284.436 308.139 284.8 308.1C285.126 308.005 285.473 308.005 285.8 308.1C286.2 308.3 286.5 308.5 286.7 308.9L286.2 309.1C286.056 308.876 285.846 308.701 285.6 308.6C285.372 308.53 285.128 308.53 284.9 308.6C284.5 308.6 284.3 308.7 284.1 308.9C283.911 309.085 283.804 309.336 283.8 309.6C283.748 310.163 283.889 310.727 284.2 311.2C284.4 311.5 284.6 311.6 284.8 311.7C285.1 311.7 285.3 311.8 285.6 311.7C285.9 311.7 286.1 311.6 286.3 311.3C286.5 311.1 286.6 310.8 286.5 310.5ZM288.1 311.5L287 307.6L290 306.8V307.3L287.6 308L288 309.2L290.2 308.6L290.4 309L288.1 309.6L288.5 311L291 310.3L291.2 310.8L288.2 311.6L288.1 311.5Z" fill="black"/>
</g>
<defs>
<clipPath id="clip0_103_6406">
<rect width="512" height="512" fill="white" transform="translate(0.5)"/>
</clipPath>
</defs>
</svg>
