<svg width="513" height="512" viewBox="0 0 513 512" fill="none" xmlns="http://www.w3.org/2000/svg">
<g clip-path="url(#clip0_103_6600)">
<mask id="mask0_103_6600" style="mask-type:luminance" maskUnits="userSpaceOnUse" x="2" y="0" width="522" height="521">
<path d="M2.24 0H523.11V520.8H2.31L2.24 0Z" fill="white"/>
</mask>
<g mask="url(#mask0_103_6600)">
<path fill-rule="evenodd" clip-rule="evenodd" d="M642.6 520.8H-101.5V0H642.6V520.8Z" fill="#BA0000"/>
<path fill-rule="evenodd" clip-rule="evenodd" d="M288.12 382.55C288.33 381.85 288.82 375.55 288.54 375.55C288.26 375.55 278.95 364.49 279.16 364.49C279.37 364.49 291.2 367.15 291.2 366.73C291.2 366.38 295.96 355.11 295.96 354.83L301.7 368.62L313.32 373.73L305.13 380.45L307.02 393.75C307.02 393.96 298.83 386.05 298.83 386.05L289.73 387.03C289.73 387.03 288.54 382.97 288.12 382.55Z" fill="#FFEF00" stroke="black" stroke-width="2.24"/>
<path fill-rule="evenodd" clip-rule="evenodd" d="M224.7 210.49C217 214.48 187.11 248.64 182.98 253.89C179.55 261.66 172.83 271.39 165.9 277.69C158.55 283.29 154.42 290.99 155.47 298.13C155.4 307.16 160.37 313.25 164.43 319.62C166.81 322.42 170.03 324.31 173.39 324.52C180.39 325.5 181.02 327.6 184.45 328.93C198.24 347.69 218.75 361.48 233.45 372.33C240.159 375.547 246.304 379.825 251.65 385C254.768 391.28 255.798 398.393 254.59 405.3L243.67 446.6C241.78 457.87 251.58 455.35 252.07 453.11C256.55 447.37 263.13 451.43 272.51 418.25L285.46 400.75C285.46 400.75 290.5 398.79 290.5 398.3C298.06 389.2 292.25 384.02 287.98 382.34L278.53 378.84C278.53 378.84 267.54 367.92 267.05 367.92C261.87 352.73 236.25 320.39 230.37 315.91C227.481 312.597 224.106 309.741 220.36 307.44C214.41 304.57 212.45 303.59 208.81 302.12C205.73 300.93 207.9 297.57 209.86 296.03C230.09 285.04 246.12 272.79 265.58 260.33L268.59 258.3L261.59 218.4L229.18 206.99C227.5 208.18 226.24 209.3 224.7 210.49Z" fill="white" stroke="black" stroke-width="2.66"/>
<path fill-rule="evenodd" clip-rule="evenodd" d="M251.79 420.35C251.93 419.93 272.09 416.22 272.09 416.22L269.64 423.71L249.55 429.73L251.79 420.35Z" fill="#FFEC00"/>
<path d="M199.22 344.4C201.293 339.632 204.309 335.333 208.086 331.76C211.864 328.187 216.324 325.415 221.2 323.61" stroke="black" stroke-width="2.24"/>
<path d="M251.09 420.49C252.42 420.14 258.16 418.39 259.84 418.18L265.16 416.78C267.19 416.29 268.38 415.94 270.48 415.59C272.09 414.89 273.7 414.54 275.38 414.12M247.38 432.95C247.59 432.74 248.99 431.55 249.97 430.92C251.16 430.57 255.08 428.82 256.62 428.61L261.38 427.21C263.13 426.79 264.18 426.37 266.07 426.02C267.524 425.417 269.022 424.926 270.55 424.55" stroke="black" stroke-width="2.45"/>
<path d="M255.64 347.34H255.36C256.27 347.34 255.71 347.27 254.45 348.74C254.03 349.93 250.32 352.52 247.52 352.52C246.12 352.66 244.09 352.8 242.76 352.8C242.34 352.8 241.85 352.52 241.43 352.52M255.36 406.98H256.76C258.3 406.98 259.77 407.19 261.1 407.26C262.57 407.26 264.04 407.68 265.51 407.68C266.91 407.89 268.73 407.82 270.2 408.03C271.88 408.03 273.28 408.38 275.03 408.38M275.03 408.38C276.43 408.38 277.2 408.66 278.81 408.66L275.03 408.38ZM245.49 442.26C245.63 442.05 246.89 440.86 247.8 440.23C248.85 439.88 252.49 438.2 253.89 437.92L258.23 436.52C259.84 436.1 260.89 435.68 262.57 435.33C263.9 434.7 265.23 434.28 266.63 433.93M272.65 391.93C271.81 394.31 272.86 394.94 273.35 395.92C274.05 396.9 276.01 398.44 279.09 399.42L282.59 400.54C283.5 400.68 283.92 400.89 284.62 401.17M158.06 304.71H158.34C157.43 304.71 157.99 304.78 159.53 303.59C160.44 302.54 161.21 302.05 162.12 301M176.82 325.36C176.96 325.36 193.62 316.96 195.44 315.14C196.7 314.23 197.61 313.32 199.15 312.27C200.13 311.78 200.83 311.08 201.74 310.52C202.51 309.4 203.49 308.77 204.05 307.72C205.1 306.88 204.68 305.9 205.45 304.85C205.87 303.73 206.64 301.91 206.85 300.86M228.06 313.32C228.13 313.95 227.78 315.77 227.85 317.17C227.78 318.78 225.68 323.82 223.16 325.36" stroke="black" stroke-width="2.24"/>
<path d="M198.1 313.18L205.03 315.28C210.917 317.89 216.542 321.054 221.83 324.73C222.88 325.57 224.77 326.34 225.54 327.32C226.66 328.3 227.5 329.42 228.34 330.54C229.347 331.61 230.238 332.783 231 334.04C234.22 336.63 242.9 354.69 243.18 355.74C243.688 356.771 244.155 357.822 244.58 358.89C245.28 359.59 245.7 360.64 246.33 361.76C246.96 363.16 247.66 363.86 248.43 364.98C249.34 365.68 250.6 366.87 251.86 367.57C253.12 368.69 254.38 369.11 255.36 369.88C256.69 370.44 271.95 380.1 272.65 380.59C274.05 381.71 278.25 386.19 275.31 389.34C274.05 390.39 272.93 391.86 271.81 392.49C270.657 393.445 269.324 394.159 267.89 394.59C261.03 396.69 257.53 395.99 256.2 395.99H254.8M164.5 279.09C166.39 279.79 165.62 279.23 167.37 280.07C168.56 280.56 169.33 280.56 170.52 280.98C171.71 281.4 175.14 282.03 176.82 283.71C178.01 284.76 178.92 285.67 180.32 286.51C181.769 287.47 183.318 288.268 184.94 288.89C186.62 289.52 188.44 290.22 190.12 290.29H198.1H193.9H197.96" stroke="black" stroke-width="2.24"/>
<path fill-rule="evenodd" clip-rule="evenodd" d="M164.01 298.34C168.35 298.06 175.56 299.39 175.7 299.39L185.29 299.25C190.26 298.76 191.38 296.8 192.22 295.47C194.11 292.6 195.37 291.55 196.84 289.38C199.15 287.63 202.37 291.69 202.44 291.69C210.63 299.39 204.12 308.77 203.63 309.12C199.57 312.76 198.73 313.04 196.28 310.66C193.83 307.79 193.06 306.46 191.03 305.48C187.18 303.59 179.06 305.06 178.92 305.06L174.72 306.6C172.69 307.3 171.43 309.05 168.07 309.68C164.57 309.89 163.38 309.54 161.7 306.74C159.32 303.17 160.51 298.83 164.01 298.34Z" fill="#FFE606" stroke="black" stroke-width="2.24"/>
<path fill-rule="evenodd" clip-rule="evenodd" d="M390.67 122.78C390.04 122.85 384.37 125.58 384.37 125.79C384.37 126 379.47 139.65 379.4 139.44C379.33 139.23 375.76 127.54 375.41 127.82C375.06 128.03 362.95 129.43 362.81 129.5C362.6 129.64 371.91 117.81 371.91 117.81L370.65 105.14L380.59 108.92L391.3 100.8C391.44 100.73 388.5 111.79 388.5 111.79L393.82 119.14C393.82 119.14 390.81 122.22 390.67 122.78Z" fill="#FFEF00" stroke="black" stroke-width="2.24"/>
<path fill-rule="evenodd" clip-rule="evenodd" d="M271.81 262.36C279.09 267.19 323.47 276.5 330.12 277.48C338.52 276.64 350.42 277.69 359.24 280.63C367.71 284.34 376.39 284.13 382.2 279.79C390.04 275.45 392.91 268.03 396.48 261.45C397.81 257.95 397.88 254.24 396.41 251.16C393.75 244.65 395.36 243.04 394.8 239.4C404.39 218.26 406.35 193.62 408.66 175.35C408.177 167.935 408.886 160.49 410.76 153.3C414.678 147.524 420.346 143.156 426.93 140.84L468.37 130.13C479.08 126.21 472.08 118.93 469.84 119.63C462.7 118.51 462.98 110.81 429.45 118.93L407.89 116.13C407.89 116.13 403.69 112.77 403.27 112.98C391.65 110.88 389.97 118.44 390.67 122.99L392.21 132.93C392.21 132.93 388.01 147.84 388.29 148.33C377.65 160.23 361.76 198.73 360.71 206.08C360.29 213.01 357.63 211.75 358.33 218.47C358.33 223.79 357.77 220.5 359.52 231.35C359.94 234.57 355.95 234.36 353.64 233.45C334.11 221.13 315.56 213.15 295.19 202.37L291.97 200.69L260.68 226.31L266.56 260.19C268.38 261.1 270.06 261.59 271.81 262.36Z" fill="white" stroke="black" stroke-width="2.66"/>
<path fill-rule="evenodd" clip-rule="evenodd" d="M441.42 135.94C441 136.01 427.91 120.26 427.91 120.26L435.61 118.72L450.73 133.28L441.42 135.94Z" fill="#FFEC00"/>
<path d="M401.03 218.96C395.856 219.497 390.626 218.98 385.658 217.44C380.689 215.9 376.084 213.369 372.12 210" stroke="black" stroke-width="2.24"/>
<path d="M441.91 136.5C441 135.52 436.66 131.32 435.61 129.92C434.379 128.585 433.095 127.301 431.76 126.07L428.12 122.01C426.825 120.881 425.609 119.665 424.48 118.37M454.58 133.56C453.533 133.253 452.523 132.83 451.57 132.3C450.73 131.46 447.3 128.8 446.32 127.68C445.183 126.46 443.992 125.293 442.75 124.18L439.39 120.68C438.169 119.718 437.022 118.665 435.96 117.53" stroke="black" stroke-width="2.45"/>
<path d="M375.9 168.35L376.04 168.63C375.62 167.86 375.83 168.35 377.72 168.63C378.98 168.49 383.04 170.45 384.44 172.83C385.364 174.144 386.228 175.498 387.03 176.89C387.24 177.24 387.24 177.87 387.45 178.15M428.05 139.37L427.91 139.16L427.35 138.11C426.65 136.85 426.09 135.31 425.46 134.19C424.76 132.93 424.41 131.46 423.71 130.2C423.15 128.8 422.24 127.4 421.68 125.93C420.91 124.39 420.56 123.06 419.65 121.52M419.65 121.52C418.95 120.26 418.81 119.42 418.04 118.09L419.65 121.52ZM463.68 130.69C463.4 130.69 461.72 130.13 460.81 129.64C459.97 128.94 456.68 126.56 455.77 125.44C454.698 124.384 453.577 123.38 452.41 122.43C451.22 121.17 450.38 120.47 449.26 119.21C448.09 118.367 446.99 117.43 445.97 116.41M406.49 131.6C409.01 131.18 409.01 129.92 409.64 129.08C410.13 127.89 410.48 125.44 409.85 122.29C409.552 121.114 409.319 119.922 409.15 118.72C408.8 117.88 408.73 117.32 408.66 116.62M386.61 274.19L386.47 273.98C386.96 274.68 386.75 274.26 384.93 273.49C383.53 273.21 382.76 272.79 381.43 272.51M395.43 247.8C395.36 247.59 379.89 237.23 377.44 236.53C376.04 235.83 374.64 235.55 373.03 234.71C372.12 234.08 371.21 233.8 370.23 233.31C368.9 233.17 367.85 232.61 366.73 232.61C365.4 232.19 364.77 233.03 363.44 232.82L359.38 233.52M359.8 209.02C360.29 208.6 362.11 208.04 363.3 207.27C364.7 206.57 370.16 205.87 372.68 207.41" stroke="black" stroke-width="2.24"/>
<path d="M374.29 235.2L372.82 228.2C372.21 221.798 372.21 215.352 372.82 208.95C373.03 207.55 372.75 205.59 373.24 204.4C373.59 202.93 374.15 201.6 374.64 200.34C375.2 198.8 375.76 197.47 376.39 196.35C377.09 192.29 388.57 175.84 389.34 175.14C390.003 174.179 390.703 173.245 391.44 172.34C391.72 171.36 392.42 170.45 393.12 169.33C394.03 168.14 394.31 167.23 394.87 166.04C395.01 164.85 395.43 163.1 395.43 161.7C395.78 160.02 395.57 158.76 395.78 157.5C395.57 156.1 396.48 138.04 396.62 137.2C396.9 135.45 398.65 129.57 402.92 130.62C404.46 131.18 406.28 131.46 407.33 132.09C408.87 132.51 410.06 133.63 411.18 134.47C416.29 139.44 417.41 142.87 418.04 144.06L418.74 145.32M361.06 280.7L360.92 280.42C361.27 281.12 361.06 280.77 360.57 279.3L359.87 275.1C359.59 273.77 358.96 272.3 359.17 271.46C358.68 270.2 358.96 269.08 359.17 267.82C359.45 266.21 359.66 265.09 359.66 263.55C359.87 261.66 359.66 260.26 359.8 258.44C359.31 257.04 359.24 255.71 358.4 254.24C357.7 252.84 357.21 251.51 356.44 250.04L354.41 246.54" stroke="black" stroke-width="2.24"/>
<path fill-rule="evenodd" clip-rule="evenodd" d="M378.21 272.23C375.83 268.59 373.38 261.66 373.31 261.52L368.48 253.26C365.68 249.06 363.37 249.06 361.83 249.06C358.33 248.78 356.86 248.15 354.27 247.94C351.61 246.82 353.57 242.06 353.5 241.92C356.23 231.07 367.57 232.12 368.06 232.4C373.31 234.08 373.94 234.78 373.1 238C371.7 241.64 371 242.9 371.07 245.14C371.35 249.48 376.6 255.85 376.67 255.99L380.17 258.79C381.71 260.19 383.81 260.47 386.05 263.13C387.94 266.07 388.22 267.26 386.61 270.13C384.58 273.91 380.31 275.03 378.21 272.23Z" fill="#FFE606" stroke="black" stroke-width="2.24"/>
<path fill-rule="evenodd" clip-rule="evenodd" d="M109.34 171.64C109.83 172.06 115.22 175.35 115.36 175.14C115.5 174.93 129.57 171.71 129.5 171.92C129.43 172.13 121.59 181.44 121.94 181.58C122.29 181.79 130.13 191.17 130.34 191.24L115.5 189.98L105.56 198.03L103.32 187.6L90.72 183.12C90.51 183.05 101.36 179.41 101.36 179.41L104.58 171.01C104.58 171.01 108.78 171.78 109.34 171.64Z" fill="#FFEF00" stroke="black" stroke-width="2.24"/>
<path fill-rule="evenodd" clip-rule="evenodd" d="M291.2 194.6C291.27 185.85 274.75 143.57 271.95 137.48C265.927 129.708 261.416 120.875 258.65 111.44C257.11 102.34 252.21 95.13 245.35 92.75C237.44 88.55 229.67 90.16 222.25 90.79C218.54 91.56 215.39 93.59 213.64 96.46C209.65 102.2 207.41 101.78 204.68 104.3C181.72 107.8 160.02 119.7 143.5 127.75C137.562 132.211 130.944 135.686 123.9 138.04C114.59 138.11 107.8 133.7 104.58 131.32L72.94 102.62C63.84 95.76 61.53 105.56 63.28 107.1C66.36 113.68 59.78 117.6 84.84 141.26L94.36 160.86C94.36 160.86 93.8 166.18 94.29 166.46C98.84 177.31 106.19 174.58 109.55 171.5L117.04 164.71C117.04 164.71 131.74 160.09 132.02 159.6C147.84 161.98 188.72 154.21 195.44 150.99C201.53 147.63 201.88 150.5 207.13 146.23C211.54 143.29 209.16 145.6 217.28 138.18C219.73 136.08 221.76 139.58 222.18 141.96C222.67 165.06 226.1 184.87 228.2 207.9L228.62 211.4L267.19 223.65L292.32 200.13C292.04 198.1 291.62 196.42 291.27 194.53L291.2 194.6Z" fill="white" stroke="black" stroke-width="2.66"/>
<path fill-rule="evenodd" clip-rule="evenodd" d="M92.54 121.94C92.89 122.22 86.87 141.82 86.87 141.82L81.34 136.22L85.26 115.57L92.54 121.87V121.94Z" fill="#FFEC00"/>
<path d="M184.1 110.25C187.388 114.275 189.828 118.923 191.272 123.916C192.715 128.908 193.133 134.142 192.5 139.3" stroke="black" stroke-width="2.24"/>
<path d="M92.75 121.24C92.47 122.57 91.35 128.45 90.72 130.06C90.2729 131.841 89.8992 133.639 89.6 135.45L88.2 140.7C87.99 142.38 87.64 144.06 87.15 145.74M83.37 112.21C83.51 112.49 83.93 114.31 84 115.43C83.79 116.62 83.44 120.89 82.95 122.43C82.5985 124.027 82.3182 125.638 82.11 127.26L80.92 132.02C80.8002 133.552 80.5663 135.073 80.22 136.57" stroke="black" stroke-width="2.45"/>
<path d="M155.61 158.9L155.68 158.69C155.33 159.53 155.68 159.04 154.84 157.29C154 156.31 153.44 151.83 154.7 149.38C155.282 147.879 155.936 146.407 156.66 144.97C156.8 144.62 157.36 144.27 157.5 143.99M102.76 131.25L102.69 131.46L102.13 132.51C101.43 133.91 100.52 135.03 99.89 136.22C99.19 137.55 98.14 138.6 97.51 139.93C96.67 141.12 95.9 142.73 94.99 143.92C94.15 145.39 93.24 146.51 92.47 148.05M92.47 148.05C91.77 149.31 91.14 149.87 90.44 151.27L92.47 148.05ZM75.95 106.19C76.09 106.47 76.65 108.15 76.65 109.2C76.51 110.32 76.37 114.31 75.95 115.64C75.67 117.18 75.39 118.65 75.25 120.19L74.2 124.6C74.1241 126.013 73.9369 127.417 73.64 128.8M108.08 153.51C106.33 151.69 105.28 152.32 104.23 152.25C102.97 152.46 100.73 153.51 98.42 155.75C97.6061 156.661 96.7414 157.526 95.83 158.34C95.34 159.04 94.92 159.39 94.43 159.88M238.28 91.98L238.14 92.26C238.56 91.42 238.21 91.91 238.63 93.8C239.12 95.13 239.19 96.04 239.75 97.3M211.33 99.12C211.26 99.26 210.98 117.95 211.75 120.33C212.03 121.87 212.45 123.13 212.66 125.02C212.66 126.07 212.87 127.05 212.94 128.1C213.64 129.29 213.71 130.48 214.34 131.46C214.69 132.79 215.74 132.86 216.3 134.05C217.14 134.89 218.4 136.43 219.17 137.06M198.38 150.15C197.82 149.94 196.28 148.75 195.09 148.19C193.69 147.35 190.19 143.22 189.98 140.28" stroke="black" stroke-width="2.24"/>
<path d="M212.38 123.69L207.34 128.8C202.316 132.8 196.926 136.315 191.24 139.3C189.98 139.86 188.44 141.26 187.18 141.4C185.78 142.03 184.38 142.24 182.98 142.52C181.44 142.87 180.04 143.22 178.78 143.22C174.93 144.9 154.98 144.27 153.86 144.06C152.691 144.036 151.523 143.966 150.36 143.85C149.45 144.06 148.26 143.99 147 144.06C145.46 143.92 144.55 144.2 143.22 144.41C142.24 144.9 140.49 145.53 139.37 146.3C137.76 146.93 136.78 147.77 135.66 148.26C129.905 151.888 124.07 155.389 118.16 158.76C116.55 159.46 110.67 161.21 109.2 157.08C108.85 155.47 108.08 153.79 108.01 152.53C107.59 151.06 107.8 149.45 107.94 148.05C109.34 141.05 111.51 138.25 112.14 137.06L112.84 135.8M257.74 109.9L257.6 110.11C257.95 109.41 257.81 109.83 256.83 111.02C255.78 111.86 254.59 113.12 253.68 113.96C252.77 114.87 251.86 116.13 251.02 116.48C250.18 117.6 249.13 117.88 248.01 118.58C246.642 119.045 245.328 119.656 244.09 120.4C242.41 121.31 241.29 122.15 239.75 123.06C238.84 124.32 237.86 125.09 236.95 126.56C236.25 127.89 235.41 129.01 234.64 130.48L232.75 134.12M244.65 208.46L245 207.97C244.51 208.95 244.65 208.67 245.14 207.06C245.14 205.17 245.56 202.86 245.63 201.11C245.91 199.36 246.19 197.4 246.19 195.51C246.12 193.41 246.12 191.52 245.77 189.49C245.77 187.6 245.56 185.64 245.49 183.75C245.485 182.009 245.298 180.272 244.93 178.57C244.893 176.973 244.729 175.381 244.44 173.81C244.65 172.48 244.3 171.29 244.02 170.31L242.76 165.06L241.71 160.86C241.5 159.32 240.66 157.36 240.31 155.96C239.782 154.849 239.406 153.671 239.19 152.46C238.7 151.34 238.07 150.08 237.79 148.82L236.25 145.04L234.85 141.4C234.36 140 233.66 138.81 233.38 137.34C232.89 136.85 232.75 136.36 232.47 135.94" stroke="black" stroke-width="2.24"/>
<path fill-rule="evenodd" clip-rule="evenodd" d="M241.22 100.17C239.47 104.16 234.99 109.97 234.92 110.11L230.72 118.65C228.76 123.34 230.02 125.23 230.79 126.56C232.47 129.57 232.82 131.18 234.08 133.49C234.57 136.29 229.46 137.34 229.39 137.41C218.89 141.05 213.5 130.97 213.43 130.41C212.03 125.16 212.24 124.25 215.46 123.2C219.17 122.29 220.64 122.29 222.46 120.96C225.96 118.37 228.41 110.46 228.48 110.32L228.97 105.91C229.25 103.81 228.27 101.85 229.32 98.5601C230.72 95.4101 231.56 94.5001 234.92 94.2201C239.12 93.8701 242.48 96.8801 241.22 100.17Z" fill="#FFE606" stroke="black" stroke-width="2.24"/>
<path fill-rule="evenodd" clip-rule="evenodd" d="M227.36 203.07C225.82 201.67 257.32 214.55 261.66 214.69C267.61 212.52 292.11 191.8 292.11 191.8C292.32 193.9 293.23 199.08 295.61 200.2C286.09 207.9 277.55 215.25 268.1 222.95C268.8 235.13 266.56 248.01 272.72 261.59C272.72 261.59 265.3 261.73 265.3 261.59C258.79 255.08 256.48 223.65 256.48 223.65L225.4 210C226.94 209.02 228.13 206.01 227.5 203.14L227.36 203.07Z" fill="#FFEF00" stroke="black" stroke-width="2.24"/>
<path d="M257.39 235.27C257.95 234.92 251.79 238.21 250.11 238.98C221.41 254.31 206.71 276.57 205.8 277.41C205.31 278.32 204.4 279.58 203.56 280.84C202.86 281.89 201.88 282.94 201.25 283.99C200.09 285.613 198.852 287.178 197.54 288.68C197.4 289.38 198.03 288.47 197.82 288.89M276.99 217.14C276.43 216.86 282.17 220.85 283.64 221.9C310.38 240.38 336.84 243.39 338.03 243.81C339.15 243.81 340.69 244.02 342.16 244.23C343.35 244.3 344.75 244.72 346.01 244.79C347.41 245 350.49 245.49 351.89 245.98C352.59 245.77 351.47 245.63 351.89 245.63" stroke="black" stroke-width="2.24"/>
</g>
</g>
<defs>
<clipPath id="clip0_103_6600">
<rect width="512" height="512" fill="white" transform="translate(0.5)"/>
</clipPath>
</defs>
</svg>
