<svg width="513" height="512" viewBox="0 0 513 512" fill="none" xmlns="http://www.w3.org/2000/svg">
<g clip-path="url(#clip0_103_6860)">
<path d="M0.5 170.7H512.5V341.3H0.5V170.7Z" fill="white"/>
<path d="M0.5 0H512.5V170.7H0.5V0Z" fill="#CE1126"/>
<path d="M0.5 341.3H512.5V512H0.5V341.3Z" fill="black"/>
<path d="M332.129 224.641C331.156 224.174 330.271 223.542 329.513 222.773C328.953 221.839 329.326 221.839 331.756 222.399C336.053 223.707 338.856 223.147 341.659 220.904L344.088 218.849L346.891 220.157C348.573 221.091 350.255 221.652 350.628 221.465C351.936 221.091 354.552 217.728 354.366 216.606C354.366 215.298 355.487 215.672 356.234 217.167C357.355 220.157 355.674 223.707 352.497 224.455C351.189 224.828 349.881 224.641 347.639 223.894C345.023 222.96 344.462 222.96 343.154 223.894C341.588 225.077 339.711 225.778 337.753 225.911C335.795 226.044 333.841 225.603 332.129 224.641ZM342.967 214.738C341.702 212.452 341.058 209.875 341.099 207.263C341.285 206.142 341.659 205.769 342.593 206.142C344.462 206.703 344.836 208.011 344.462 211.748C344.462 215.112 343.901 216.046 342.967 214.738ZM216.65 211.188C216.463 213.617 221.134 219.783 223.19 220.904C221.695 221.465 220.013 221.278 218.705 221.839C211.231 229.313 184.323 255.473 179.465 261.827C194.04 262.2 210.11 261.64 223.751 261.079C223.751 251.176 233.093 250.615 239.447 247.065C242.623 252.11 250.658 251.736 251.779 259.397V292.285H127.518C127.048 294.778 126.059 297.146 124.616 299.233C123.174 301.321 121.309 303.082 119.142 304.403C116.976 305.724 114.556 306.575 112.039 306.902C109.523 307.229 106.966 307.023 104.534 306.299C108.271 302.562 114.624 301.067 116.867 295.648C118.735 283.689 113.129 276.402 109.392 269.488C114.093 267.981 118.512 265.708 122.472 262.761C118.175 275.841 134.058 274.533 145.643 274.159C146.017 269.675 145.83 264.443 142.466 263.695C146.764 262.013 147.512 261.453 154.799 255.473V273.412L240.942 273.225C240.942 267.619 242.437 258.463 237.952 258.463C233.841 258.463 237.952 270.048 234.588 270.048H167.879V258.837C170.682 255.847 170.309 256.034 189.555 236.787C191.424 234.919 205.064 222.586 216.837 211.188H216.65ZM383.142 210.627C387.814 213.243 391.551 216.606 397.157 218.101C396.596 220.531 394.354 221.465 393.793 223.894V274.346C400.146 275.654 401.641 271.917 404.631 270.048C405.378 278.083 410.61 285.932 410.237 292.472H383.142V210.814V210.627ZM346.891 237.722C346.891 237.722 356.795 229.313 356.795 228.939V272.851H363.896L363.709 223.707C366.512 220.717 372.304 216.607 373.612 213.617V292.098H311.201C310.267 275.841 310.08 259.024 329.14 262.574V256.034C328.579 254.913 327.458 256.221 327.271 254.726C330.261 251.736 331.195 250.989 339.417 243.888L339.604 272.851H346.891V237.722ZM323.347 272.478C324.655 274.346 329.326 274.346 328.953 270.983C328.392 268.18 322.413 269.114 323.347 272.478Z" fill="#007A3D"/>
<path d="M142.466 305.365C144.53 305.365 146.204 303.692 146.204 301.628C146.204 299.564 144.53 297.891 142.466 297.891C140.402 297.891 138.729 299.564 138.729 301.628C138.729 303.692 140.402 305.365 142.466 305.365Z" fill="#007A3D"/>
<path d="M260.188 210.814C264.86 213.243 268.597 216.793 274.39 218.288C273.642 220.531 271.587 221.465 271.026 223.894V274.346C277.379 275.654 278.687 272.104 281.677 270.048C282.611 278.083 287.657 286.118 287.47 292.472H260.188V210.814Z" fill="#007A3D"/>
</g>
<defs>
<clipPath id="clip0_103_6860">
<rect width="512" height="512" fill="white" transform="translate(0.5)"/>
</clipPath>
</defs>
</svg>
