<svg width="513" height="512" viewBox="0 0 513 512" fill="none" xmlns="http://www.w3.org/2000/svg">
<g clip-path="url(#clip0_103_6868)">
<mask id="mask0_103_6868" style="mask-type:luminance" maskUnits="userSpaceOnUse" x="0" y="0" width="513" height="512">
<path d="M0.470703 0H512.392V511.922H0.470703V0Z" fill="white"/>
</mask>
<g mask="url(#mask0_103_6868)">
<path fill-rule="evenodd" clip-rule="evenodd" d="M-191.5 0H704.466V511.922H-191.5V0Z" fill="white"/>
<path fill-rule="evenodd" clip-rule="evenodd" d="M-191.5 343.792H704.466V512.025H-191.5V343.792Z" fill="#DA0000"/>
<path fill-rule="evenodd" clip-rule="evenodd" d="M-21.2036 350.914H27.9244V354.32H-21.2036V350.914ZM-13.8757 367.84H-10.4698V371.143H-13.9789L-13.8757 367.84ZM28.0276 367.737V371.143H18.2226V367.737H28.0276ZM33.2913 350.914H36.6972V371.143H33.2913V350.914Z" fill="white"/>
<path fill-rule="evenodd" clip-rule="evenodd" d="M52.798 367.737V371.143H34.2202V367.737H52.798ZM18.2227 359.893H21.6286V371.143H18.2227V359.893Z" fill="white"/>
<path fill-rule="evenodd" clip-rule="evenodd" d="M50.0113 350.914H53.4172V371.143H50.1145L50.0113 350.914ZM41.6513 350.914H44.954V371.143H41.7545L41.6513 350.914ZM-3.14186 358.964V362.37H-21.2036V358.964H-3.14186ZM36.0779 358.964V362.37H18.2226V358.964H36.0779Z" fill="white"/>
<path fill-rule="evenodd" clip-rule="evenodd" d="M18.2227 359.79H21.6286V371.143H18.2227V359.79Z" fill="white"/>
<path fill-rule="evenodd" clip-rule="evenodd" d="M18.2227 359.79H21.6286V371.143H18.2227V359.79Z" fill="white"/>
<path fill-rule="evenodd" clip-rule="evenodd" d="M18.2226 359.79H21.6285V371.143H18.2226V359.79ZM-20.9972 359.79H-17.6945V371.143H-21.2036L-20.9972 359.79ZM7.69519 359.79H11.1011V371.143H7.69519V359.79ZM-6.5478 359.79H-3.14186V371.143H-6.5478V359.79Z" fill="white"/>
<path fill-rule="evenodd" clip-rule="evenodd" d="M10.0691 367.737V371.143H-5.10278V367.737H10.0691ZM11.1012 358.964V362.37H1.50265V358.964H11.1012Z" fill="white"/>
<path fill-rule="evenodd" clip-rule="evenodd" d="M58.7842 350.914H107.809V354.32H58.7842V350.914ZM66.0089 367.84H69.4148V371.143H66.1121L66.0089 367.84ZM107.912 367.737V371.143H98.1072V367.737H107.912ZM113.176 350.914H116.582V371.143H113.176V350.914Z" fill="white"/>
<path fill-rule="evenodd" clip-rule="evenodd" d="M132.786 367.737V371.143H114.208V367.737H132.786ZM98.1072 359.893H101.513V371.143H98.1072V359.893Z" fill="white"/>
<path fill-rule="evenodd" clip-rule="evenodd" d="M129.999 350.914H133.405V371.143H129.999V350.914ZM121.536 350.914H124.942V371.143H121.536V350.914ZM76.7428 358.964V362.37H58.8875V358.964H76.7428ZM115.963 358.964V362.37H98.1073V358.964H115.963Z" fill="white"/>
<path fill-rule="evenodd" clip-rule="evenodd" d="M98.1072 359.79H101.513V371.143H98.1072V359.79Z" fill="white"/>
<path fill-rule="evenodd" clip-rule="evenodd" d="M98.1072 359.79H101.513V371.143H98.1072V359.79Z" fill="white"/>
<path fill-rule="evenodd" clip-rule="evenodd" d="M98.1073 359.79H101.513V371.143H98.1073V359.79ZM58.8875 359.79H62.1902V371.143H58.8875V359.79ZM87.683 359.79H90.9858V371.143H87.683V359.79ZM73.3369 359.79H76.7428V371.143H73.3369V359.79Z" fill="white"/>
<path fill-rule="evenodd" clip-rule="evenodd" d="M90.0568 367.737V371.143H74.7817V367.737H90.0568ZM91.0889 358.964V362.37H81.3872V358.964H91.0889Z" fill="white"/>
<path fill-rule="evenodd" clip-rule="evenodd" d="M139.185 350.914H188.21V354.32H139.185V350.914ZM146.513 367.84H149.919V371.143H146.513V367.84ZM188.416 367.737V371.143H178.611V367.737H188.416ZM193.576 350.914H196.982V371.143H193.68L193.576 350.914Z" fill="white"/>
<path fill-rule="evenodd" clip-rule="evenodd" d="M213.186 367.737V371.143H194.609V367.737H213.186ZM178.611 359.893H181.914V371.143H178.611V359.893Z" fill="white"/>
<path fill-rule="evenodd" clip-rule="evenodd" d="M210.4 350.914H213.806V371.143H210.4V350.914ZM202.04 350.914H205.342V371.143H201.937L202.04 350.914ZM157.143 358.964V362.37H139.288V358.964H157.143ZM196.466 358.964V362.37H178.611V358.964H196.466Z" fill="white"/>
<path fill-rule="evenodd" clip-rule="evenodd" d="M178.611 359.79H181.914V371.143H178.611V359.79Z" fill="white"/>
<path fill-rule="evenodd" clip-rule="evenodd" d="M178.611 359.79H181.914V371.143H178.611V359.79Z" fill="white"/>
<path fill-rule="evenodd" clip-rule="evenodd" d="M178.611 359.79H181.914V371.143H178.611V359.79ZM139.288 359.79H142.694V371.143H139.288V359.79ZM168.084 359.79H171.49V371.143H168.084V359.79ZM153.841 359.79H157.247V371.143H153.841V359.79Z" fill="white"/>
<path fill-rule="evenodd" clip-rule="evenodd" d="M170.458 367.737V371.143H155.286V367.737H170.458ZM171.49 358.964V362.37H161.891V358.964H171.49Z" fill="white"/>
<path fill-rule="evenodd" clip-rule="evenodd" d="M219.895 350.914H269.023V354.32H219.895V350.914ZM227.223 367.84H230.629V371.143H227.223V367.84ZM269.126 367.737V371.143H259.321V367.737H269.126ZM274.39 350.914H277.796V371.143H274.39V350.914Z" fill="white"/>
<path fill-rule="evenodd" clip-rule="evenodd" d="M293.897 367.737V371.143H275.319V367.737H293.897ZM259.321 359.893H262.727V371.143H259.321V359.893Z" fill="white"/>
<path fill-rule="evenodd" clip-rule="evenodd" d="M291.11 350.914H294.516V371.143H291.11V350.914ZM282.75 350.914H286.053V371.143H282.75V350.914ZM237.957 358.964V362.37H219.998V358.964H237.957ZM277.177 358.964V362.37H259.321V358.964H277.177Z" fill="white"/>
<path fill-rule="evenodd" clip-rule="evenodd" d="M259.321 359.79H262.727V371.143H259.321V359.79Z" fill="white"/>
<path fill-rule="evenodd" clip-rule="evenodd" d="M259.321 359.79H262.727V371.143H259.321V359.79Z" fill="white"/>
<path fill-rule="evenodd" clip-rule="evenodd" d="M259.321 359.79H262.727V371.143H259.321V359.79ZM220.101 359.79H223.404V371.143H219.998L220.101 359.79ZM248.794 359.79H252.2V371.143H248.794V359.79ZM234.551 359.79H237.957V371.143H234.551V359.79Z" fill="white"/>
<path fill-rule="evenodd" clip-rule="evenodd" d="M251.271 367.737V371.143H236.099V367.737H251.271ZM252.2 358.964V362.37H242.601V358.964H252.2Z" fill="white"/>
<path fill-rule="evenodd" clip-rule="evenodd" d="M-191.5 0H704.466V168.232H-191.5V0Z" fill="#239F40"/>
<path fill-rule="evenodd" clip-rule="evenodd" d="M301.121 350.914H350.146V354.32H301.121V350.914ZM308.449 367.84H311.855V371.143H308.449V367.84ZM350.353 367.737V371.143H340.548V367.737H350.353ZM355.513 350.914H359.022V371.143H355.513V350.914Z" fill="white"/>
<path fill-rule="evenodd" clip-rule="evenodd" d="M375.123 367.737V371.143H356.545V367.737H375.123ZM340.548 359.893H343.85V371.143H340.548V359.893Z" fill="white"/>
<path fill-rule="evenodd" clip-rule="evenodd" d="M372.336 350.914H375.742V371.143H372.336V350.914ZM363.976 350.914H367.279V371.143H363.976V350.914ZM319.183 358.964V362.37H301.225V358.964H319.183ZM358.403 358.964V362.37H340.548V358.964H358.403Z" fill="white"/>
<path fill-rule="evenodd" clip-rule="evenodd" d="M340.548 359.79H343.85V371.143H340.548V359.79Z" fill="white"/>
<path fill-rule="evenodd" clip-rule="evenodd" d="M340.548 359.79H343.85V371.143H340.548V359.79Z" fill="white"/>
<path fill-rule="evenodd" clip-rule="evenodd" d="M340.548 359.79H343.85V371.143H340.548V359.79ZM301.225 359.79H304.631V371.143H301.225V359.79ZM330.02 359.79H333.426V371.143H330.02V359.79ZM315.777 359.79H319.183V371.143H315.777V359.79Z" fill="white"/>
<path fill-rule="evenodd" clip-rule="evenodd" d="M332.394 367.737V371.143H317.222V367.737H332.394ZM333.426 358.964V362.37H323.828V358.964H333.426Z" fill="white"/>
<path fill-rule="evenodd" clip-rule="evenodd" d="M381.832 350.914H430.959V354.32H381.832V350.914ZM389.159 367.84H392.565V371.143H389.159V367.84ZM431.063 367.737V371.143H421.258V367.737H431.063ZM436.326 350.914H439.732V371.143H436.326V350.914Z" fill="white"/>
<path fill-rule="evenodd" clip-rule="evenodd" d="M455.833 367.737V371.143H437.255V367.737H455.833ZM421.258 359.893H424.664V371.143H421.258V359.893Z" fill="white"/>
<path fill-rule="evenodd" clip-rule="evenodd" d="M453.15 350.914H456.452V371.143H453.15V350.914ZM444.687 350.914H448.092V371.143H444.687V350.914ZM399.893 358.964V362.37H381.935V358.964H399.893ZM439.113 358.964V362.37H421.258V358.964H439.113Z" fill="white"/>
<path fill-rule="evenodd" clip-rule="evenodd" d="M421.258 359.79H424.664V371.143H421.258V359.79Z" fill="white"/>
<path fill-rule="evenodd" clip-rule="evenodd" d="M421.258 359.79H424.664V371.143H421.258V359.79Z" fill="white"/>
<path fill-rule="evenodd" clip-rule="evenodd" d="M421.258 359.79H424.664V371.143H421.258V359.79ZM382.038 359.79H385.341V371.143H381.935L382.038 359.79ZM410.73 359.79H414.136V371.143H410.73V359.79ZM396.487 359.79H399.893V371.143H396.487V359.79Z" fill="white"/>
<path fill-rule="evenodd" clip-rule="evenodd" d="M413.104 367.737V371.143H398.036V367.737H413.104ZM414.136 358.964V362.37H404.538V358.964H414.136Z" fill="white"/>
<path fill-rule="evenodd" clip-rule="evenodd" d="M462.645 350.914H511.67V354.32H462.645V350.914ZM469.87 367.84H473.276V371.143H469.87V367.84ZM511.773 367.737V371.143H502.071V367.737H511.773ZM517.037 350.914H520.443V371.143H517.037V350.914Z" fill="white"/>
<path fill-rule="evenodd" clip-rule="evenodd" d="M536.647 367.737V371.143H518.069V367.737H536.647ZM501.968 359.893H505.374V371.143H501.968V359.893Z" fill="white"/>
<path fill-rule="evenodd" clip-rule="evenodd" d="M533.86 350.914H537.266V371.143H533.86V350.914ZM525.397 350.914H528.803V371.143H525.397V350.914ZM480.604 358.964V362.37H462.645V358.964H480.604ZM519.823 358.964V362.37H502.071V358.964H519.823Z" fill="white"/>
<path fill-rule="evenodd" clip-rule="evenodd" d="M502.071 359.79H505.374V371.143H501.968L502.071 359.79Z" fill="white"/>
<path fill-rule="evenodd" clip-rule="evenodd" d="M502.071 359.79H505.374V371.143H501.968L502.071 359.79Z" fill="white"/>
<path fill-rule="evenodd" clip-rule="evenodd" d="M502.071 359.79H505.374V371.143H501.968L502.071 359.79ZM462.645 359.79H466.051V371.143H462.645V359.79ZM491.544 359.79H494.847V371.143H491.441L491.544 359.79ZM477.198 359.79H480.604V371.143H477.198V359.79Z" fill="white"/>
<path fill-rule="evenodd" clip-rule="evenodd" d="M493.814 367.737V371.143H478.746V367.737H493.814ZM494.847 358.964V362.37H485.248V358.964H494.847Z" fill="white"/>
<path fill-rule="evenodd" clip-rule="evenodd" d="M-21.2036 143.462H27.9244V146.765H-21.2036V143.462ZM-13.8757 160.285H-10.4698V163.588H-13.9789L-13.8757 160.285ZM28.0276 160.285V163.588H18.2226V160.182L28.0276 160.285ZM33.2913 143.462H36.6972V163.588H33.2913V143.462Z" fill="white"/>
<path fill-rule="evenodd" clip-rule="evenodd" d="M52.798 160.182V163.588H34.2202V160.182H52.798ZM18.2227 152.338H21.6286V163.691H18.2227V152.338Z" fill="white"/>
<path fill-rule="evenodd" clip-rule="evenodd" d="M50.0113 143.462H53.4172V163.588H50.1145L50.0113 143.462ZM41.6513 143.462H44.954V163.588H41.7545L41.6513 143.462ZM-3.14186 151.409V154.815H-21.2036V151.512L-3.14186 151.409ZM36.0779 151.409V154.815H18.2226V151.512L36.0779 151.409Z" fill="white"/>
<path fill-rule="evenodd" clip-rule="evenodd" d="M18.2227 152.338H21.6286V163.691H18.2227V152.338Z" fill="white"/>
<path fill-rule="evenodd" clip-rule="evenodd" d="M18.2227 152.338H21.6286V163.691H18.2227V152.338Z" fill="white"/>
<path fill-rule="evenodd" clip-rule="evenodd" d="M18.2226 152.338H21.6285V163.691H18.2226V152.338ZM-20.9972 152.338H-17.6945V163.691H-21.2036L-20.9972 152.338ZM7.69519 152.338H11.1011V163.691H7.69519V152.338ZM-6.5478 152.338H-3.14186V163.691H-6.5478V152.338Z" fill="white"/>
<path fill-rule="evenodd" clip-rule="evenodd" d="M10.0691 160.182V163.588H-5.10278V160.182H10.0691ZM11.1012 151.512V154.815H1.50265V151.512H11.1012Z" fill="white"/>
<path fill-rule="evenodd" clip-rule="evenodd" d="M58.7842 143.462H107.809V146.765H58.7842V143.462ZM66.0089 160.285H69.4148V163.588H66.1121L66.0089 160.285ZM107.912 160.285V163.588H98.1072V160.182L107.912 160.285ZM113.176 143.462H116.582V163.588H113.176V143.462Z" fill="white"/>
<path fill-rule="evenodd" clip-rule="evenodd" d="M132.786 160.182V163.588H114.208V160.182H132.786ZM98.1072 152.338H101.513V163.691H98.1072V152.338Z" fill="white"/>
<path fill-rule="evenodd" clip-rule="evenodd" d="M129.999 143.462H133.405V163.588H129.999V143.462ZM121.536 143.462H124.942V163.588H121.536V143.462ZM76.7428 151.409V154.815H58.8875V151.512L76.7428 151.409ZM115.963 151.409V154.815H98.1073V151.512L115.963 151.409Z" fill="white"/>
<path fill-rule="evenodd" clip-rule="evenodd" d="M98.1072 152.338H101.513V163.691H98.1072V152.338Z" fill="white"/>
<path fill-rule="evenodd" clip-rule="evenodd" d="M98.1072 152.338H101.513V163.691H98.1072V152.338Z" fill="white"/>
<path fill-rule="evenodd" clip-rule="evenodd" d="M98.1073 152.338H101.513V163.691H98.1073V152.338ZM58.8875 152.338H62.1902V163.691H58.8875V152.338ZM87.683 152.338H90.9858V163.691H87.683V152.338ZM73.3369 152.338H76.7428V163.691H73.3369V152.338Z" fill="white"/>
<path fill-rule="evenodd" clip-rule="evenodd" d="M90.0568 160.182V163.588H74.7817V160.182H90.0568ZM91.0889 151.512V154.815H81.3872V151.512H91.0889Z" fill="white"/>
<path fill-rule="evenodd" clip-rule="evenodd" d="M139.185 143.462H188.21V146.765H139.185V143.462ZM146.513 160.285H149.919V163.588H146.513V160.285ZM188.416 160.285V163.588H178.611V160.182L188.416 160.285ZM193.576 143.462H196.982V163.588H193.68L193.576 143.462Z" fill="white"/>
<path fill-rule="evenodd" clip-rule="evenodd" d="M213.186 160.182V163.588H194.609V160.182H213.186ZM178.611 152.338H181.914V163.691H178.611V152.338Z" fill="white"/>
<path fill-rule="evenodd" clip-rule="evenodd" d="M210.4 143.462H213.806V163.588H210.4V143.462ZM202.04 143.462H205.342V163.588H201.937L202.04 143.462ZM157.143 151.409V154.815H139.288V151.512L157.143 151.409ZM196.466 151.409V154.815H178.611V151.512L196.466 151.409Z" fill="white"/>
<path fill-rule="evenodd" clip-rule="evenodd" d="M178.611 152.338H181.914V163.691H178.611V152.338Z" fill="white"/>
<path fill-rule="evenodd" clip-rule="evenodd" d="M178.611 152.338H181.914V163.691H178.611V152.338Z" fill="white"/>
<path fill-rule="evenodd" clip-rule="evenodd" d="M178.611 152.338H181.914V163.691H178.611V152.338ZM139.288 152.338H142.694V163.691H139.288V152.338ZM168.084 152.338H171.49V163.691H168.084V152.338ZM153.841 152.338H157.247V163.691H153.841V152.338Z" fill="white"/>
<path fill-rule="evenodd" clip-rule="evenodd" d="M170.458 160.182V163.588H155.286V160.182H170.458ZM171.49 151.512V154.815H161.891V151.512H171.49Z" fill="white"/>
<path fill-rule="evenodd" clip-rule="evenodd" d="M219.895 143.462H269.023V146.765H219.895V143.462ZM227.223 160.285H230.629V163.588H227.223V160.285ZM269.126 160.285V163.588H259.321V160.182L269.126 160.285ZM274.39 143.462H277.796V163.588H274.39V143.462Z" fill="white"/>
<path fill-rule="evenodd" clip-rule="evenodd" d="M293.897 160.182V163.588H275.319V160.182H293.897ZM259.321 152.338H262.727V163.691H259.321V152.338Z" fill="white"/>
<path fill-rule="evenodd" clip-rule="evenodd" d="M291.11 143.462H294.516V163.588H291.11V143.462ZM282.75 143.462H286.053V163.588H282.75V143.462ZM237.957 151.409V154.815H219.998V151.512L237.957 151.409ZM277.177 151.409V154.815H259.321V151.512L277.177 151.409Z" fill="white"/>
<path fill-rule="evenodd" clip-rule="evenodd" d="M259.321 152.338H262.727V163.691H259.321V152.338Z" fill="white"/>
<path fill-rule="evenodd" clip-rule="evenodd" d="M259.321 152.338H262.727V163.691H259.321V152.338Z" fill="white"/>
<path fill-rule="evenodd" clip-rule="evenodd" d="M259.321 152.338H262.727V163.691H259.321V152.338ZM220.101 152.338H223.404V163.691H219.998L220.101 152.338ZM248.794 152.338H252.2V163.691H248.794V152.338ZM234.551 152.338H237.957V163.691H234.551V152.338Z" fill="white"/>
<path fill-rule="evenodd" clip-rule="evenodd" d="M251.271 160.182V163.588H236.099V160.182H251.271ZM252.2 151.512V154.815H242.601V151.512H252.2Z" fill="white"/>
<path fill-rule="evenodd" clip-rule="evenodd" d="M301.121 143.462H350.146V146.765H301.121V143.462ZM308.449 160.285H311.855V163.588H308.449V160.285ZM350.353 160.285V163.588H340.548V160.182L350.353 160.285ZM355.513 143.462H359.022V163.588H355.513V143.462Z" fill="white"/>
<path fill-rule="evenodd" clip-rule="evenodd" d="M375.123 160.182V163.588H356.545V160.182H375.123ZM340.548 152.338H343.85V163.691H340.548V152.338Z" fill="white"/>
<path fill-rule="evenodd" clip-rule="evenodd" d="M372.336 143.462H375.742V163.588H372.336V143.462ZM363.976 143.462H367.279V163.588H363.976V143.462ZM319.183 151.409V154.815H301.225V151.512L319.183 151.409ZM358.403 151.409V154.815H340.548V151.512L358.403 151.409Z" fill="white"/>
<path fill-rule="evenodd" clip-rule="evenodd" d="M340.548 152.338H343.85V163.691H340.548V152.338Z" fill="white"/>
<path fill-rule="evenodd" clip-rule="evenodd" d="M340.548 152.338H343.85V163.691H340.548V152.338Z" fill="white"/>
<path fill-rule="evenodd" clip-rule="evenodd" d="M340.548 152.338H343.85V163.691H340.548V152.338ZM301.225 152.338H304.631V163.691H301.225V152.338ZM330.02 152.338H333.426V163.691H330.02V152.338ZM315.777 152.338H319.183V163.691H315.777V152.338Z" fill="white"/>
<path fill-rule="evenodd" clip-rule="evenodd" d="M332.394 160.182V163.588H317.222V160.182H332.394ZM333.426 151.512V154.815H323.828V151.512H333.426Z" fill="white"/>
<path fill-rule="evenodd" clip-rule="evenodd" d="M381.832 143.462H430.959V146.765H381.832V143.462ZM389.159 160.285H392.565V163.588H389.159V160.285ZM431.063 160.285V163.588H421.258V160.182L431.063 160.285ZM436.326 143.462H439.732V163.588H436.326V143.462Z" fill="white"/>
<path fill-rule="evenodd" clip-rule="evenodd" d="M455.833 160.182V163.588H437.255V160.182H455.833ZM421.258 152.338H424.664V163.691H421.258V152.338Z" fill="white"/>
<path fill-rule="evenodd" clip-rule="evenodd" d="M453.15 143.462H456.452V163.588H453.15V143.462ZM444.687 143.462H448.092V163.588H444.687V143.462ZM399.893 151.409V154.815H381.935V151.512L399.893 151.409ZM439.113 151.409V154.815H421.258V151.512L439.113 151.409Z" fill="white"/>
<path fill-rule="evenodd" clip-rule="evenodd" d="M421.258 152.338H424.664V163.691H421.258V152.338Z" fill="white"/>
<path fill-rule="evenodd" clip-rule="evenodd" d="M421.258 152.338H424.664V163.691H421.258V152.338Z" fill="white"/>
<path fill-rule="evenodd" clip-rule="evenodd" d="M421.258 152.338H424.664V163.691H421.258V152.338ZM382.038 152.338H385.341V163.691H381.935L382.038 152.338ZM410.73 152.338H414.136V163.691H410.73V152.338ZM396.487 152.338H399.893V163.691H396.487V152.338Z" fill="white"/>
<path fill-rule="evenodd" clip-rule="evenodd" d="M413.104 160.182V163.588H398.036V160.182H413.104ZM414.136 151.512V154.815H404.538V151.512H414.136Z" fill="white"/>
<path fill-rule="evenodd" clip-rule="evenodd" d="M462.645 143.462H511.67V146.765H462.645V143.462ZM469.87 160.285H473.276V163.588H469.87V160.285ZM511.773 160.285V163.588H502.071V160.182L511.773 160.285ZM517.037 143.462H520.443V163.588H517.037V143.462Z" fill="white"/>
<path fill-rule="evenodd" clip-rule="evenodd" d="M536.647 160.182V163.588H518.069V160.182H536.647ZM501.968 152.338H505.374V163.691H501.968V152.338Z" fill="white"/>
<path fill-rule="evenodd" clip-rule="evenodd" d="M533.86 143.462H537.266V163.588H533.86V143.462ZM525.397 143.462H528.803V163.588H525.397V143.462ZM480.604 151.409V154.815H462.645V151.512L480.604 151.409ZM519.823 151.409V154.815H502.071V151.512L519.823 151.409Z" fill="white"/>
<path fill-rule="evenodd" clip-rule="evenodd" d="M502.071 152.338H505.374V163.691H501.968L502.071 152.338Z" fill="white"/>
<path fill-rule="evenodd" clip-rule="evenodd" d="M502.071 152.338H505.374V163.691H501.968L502.071 152.338Z" fill="white"/>
<path fill-rule="evenodd" clip-rule="evenodd" d="M502.071 152.338H505.374V163.691H501.968L502.071 152.338ZM462.645 152.338H466.051V163.691H462.645V152.338ZM491.544 152.338H494.847V163.691H491.441L491.544 152.338ZM477.198 152.338H480.604V163.691H477.198V152.338Z" fill="white"/>
<path fill-rule="evenodd" clip-rule="evenodd" d="M493.814 160.182V163.588H478.746V160.182H493.814ZM494.847 151.512V154.815H485.248V151.512H494.847Z" fill="white"/>
<path fill-rule="evenodd" clip-rule="evenodd" d="M-68.3705 339.561H-62.2811V349.882H-68.3705V339.561ZM92.1211 339.561H98.2105V349.882H92.1211V339.561ZM-191.5 339.561H-185.514V349.882H-191.5V339.561ZM-110.067 339.561H-103.978V349.882H-110.067V339.561ZM-29.1507 339.561H-23.1645V349.882H-29.1507V339.561ZM10.8948 339.561H16.881V349.882H10.8948V339.561ZM51.6628 339.561H57.8554V349.882H51.6628V339.561ZM132.167 339.561H138.256V349.882H132.167V339.561ZM335.284 339.561H341.27V349.882H335.284V339.561ZM173.038 339.561H179.127V349.882H173.038V339.561ZM213.083 339.561H219.173V349.882H213.083V339.561ZM253.542 339.561H259.528V349.882H253.542V339.561ZM294 339.561H299.986V349.882H294V339.561ZM617.047 339.561H623.24V349.882H617.047V339.561ZM374.504 339.561H380.49V349.882H374.4L374.504 339.561ZM415.272 339.561H421.361V349.882H415.272V339.561ZM456.556 339.561H462.645V349.882H456.556V339.561ZM495.363 339.561H501.452V349.882H495.363V339.561ZM536.647 339.561H542.736V349.882H536.543L536.647 339.561ZM577.105 339.561H583.091V349.882H577.105V339.561ZM696.828 339.561H702.815V349.882H696.725L696.828 339.561ZM658.021 339.561H664.008V349.882H658.021V339.561ZM-150.938 339.561H-144.849V349.882H-150.938V339.561Z" fill="#D90000"/>
<path fill-rule="evenodd" clip-rule="evenodd" d="M-68.3705 162.659H-62.2811V173.083H-68.3705V162.659ZM92.1211 162.659H98.2105V173.083H92.1211V162.659ZM-191.5 162.659H-185.514V173.083H-191.5V162.659ZM-110.067 162.659H-103.978V173.083H-110.067V162.659ZM-29.1507 162.659H-23.1645V173.083H-29.1507V162.659ZM10.8948 162.659H16.881V173.083H10.8948V162.659ZM51.6628 162.659H57.8554V173.083H51.6628V162.659ZM132.167 162.659H138.256V173.083H132.167V162.659ZM335.284 162.659H341.27V173.083H335.284V162.659ZM173.038 162.659H179.127V173.083H173.038V162.659ZM213.083 162.659H219.173V173.083H213.083V162.659ZM253.542 162.659H259.528V173.083H253.542V162.659ZM294 162.659H299.986V173.083H294V162.659ZM617.047 162.659H623.24V173.083H617.047V162.659ZM374.504 162.659H380.49V173.083H374.4L374.504 162.659ZM415.272 162.659H421.361V173.083H415.272V162.659ZM456.556 162.659H462.645V173.083H456.556V162.659ZM495.363 162.659H501.452V173.083H495.363V162.659ZM536.647 162.659H542.736V173.083H536.543L536.647 162.659ZM577.105 162.659H583.091V173.083H577.105V162.659ZM696.828 162.659H702.815V173.083H696.725L696.828 162.659ZM658.021 162.659H664.008V173.083H658.021V162.659ZM-150.938 162.659H-144.849V173.083H-150.938V162.659Z" fill="#239E3F"/>
<path fill-rule="evenodd" clip-rule="evenodd" d="M280.17 197.544C288.736 207.865 314.745 265.146 264.482 302.715C240.847 320.467 255.502 321.293 256.225 324.389C294.206 304.16 306.591 276.912 306.282 252.348C305.972 227.888 293.071 206.317 280.273 197.544H280.17Z" fill="#DA0000"/>
<path fill-rule="evenodd" clip-rule="evenodd" d="M285.33 194.861C294.577 200.524 302.452 208.17 308.387 217.245C314.322 226.321 318.169 236.6 319.65 247.342C321.131 258.085 320.209 269.022 316.951 279.365C313.694 289.707 308.181 299.199 300.812 307.153C328.059 301.167 362.738 220.766 285.124 194.861H285.33ZM227.636 194.861C218.389 200.524 210.514 208.17 204.579 217.245C198.644 226.321 194.797 236.6 193.316 247.342C191.835 258.085 192.757 269.022 196.014 279.365C199.272 289.707 204.785 299.199 212.154 307.153C184.804 301.167 150.125 220.766 227.636 194.861Z" fill="#DA0000"/>
<path fill-rule="evenodd" clip-rule="evenodd" d="M232.693 197.544C224.23 207.865 198.118 265.146 248.381 302.715C272.016 320.467 257.36 321.293 256.638 324.389C218.76 304.16 206.271 276.912 206.581 252.348C206.89 227.888 219.895 206.317 232.693 197.544Z" fill="#DA0000"/>
<path fill-rule="evenodd" clip-rule="evenodd" d="M304.63 319.125C288.298 319.757 272.044 316.576 257.154 309.836C259.424 314.275 261.282 317.061 263.656 321.602C276.867 322.738 295.135 324.286 304.63 319.125ZM209.677 319.125C224.539 319.332 243.324 317.061 257.154 309.836C254.883 314.275 253.025 317.061 250.652 321.602C237.441 322.738 219.173 324.286 209.677 319.125ZM236.925 180.411C240.021 188.358 247.865 189.597 256.328 184.849C262.521 188.565 272.016 188.771 275.319 180.721C277.796 200.537 256.947 195.893 256.225 192.074C248.484 199.505 234.035 195.17 236.925 180.411Z" fill="#DA0000"/>
<path fill-rule="evenodd" clip-rule="evenodd" d="M256.844 331.614L264.688 322.634L265.72 202.498L256.431 194.241L247.142 202.085L249 323.047L256.844 331.614Z" fill="#DA0000"/>
</g>
</g>
<defs>
<clipPath id="clip0_103_6868">
<rect width="512" height="512" fill="white" transform="translate(0.5)"/>
</clipPath>
</defs>
</svg>
