<svg width="513" height="512" viewBox="0 0 513 512" fill="none" xmlns="http://www.w3.org/2000/svg">
<g clip-path="url(#clip0_103_7073)">
<mask id="mask0_103_7073" style="mask-type:luminance" maskUnits="userSpaceOnUse" x="0" y="0" width="513" height="512">
<path d="M0.455566 0H512.456V512H0.455566V0Z" fill="white"/>
</mask>
<g mask="url(#mask0_103_7073)">
<path d="M-175.9 0H677.434V512H-175.9V0Z" fill="white"/>
<path fill-rule="evenodd" clip-rule="evenodd" d="M-175.9 0V34.1333L193.878 256L-175.9 477.867V512H-119.011L250.767 290.133L620.545 512H677.434V477.867L307.656 256L677.434 34.1333V0H620.545L250.767 221.867L-119.011 0H-175.9Z" fill="#DF112D"/>
<path d="M296.278 76.7999C307.656 122.311 301.967 176.355 250.767 207.644C202.411 179.2 193.878 122.311 208.1 76.7999C219.478 65.4221 270.678 59.7332 296.278 76.7999Z" fill="#E8112D"/>
<path d="M250.767 68.2666C266.702 67.7329 282.468 71.6744 296.278 79.6444C298.456 64.2575 304.31 49.6222 313.345 36.9777C304.811 36.9777 301.967 42.6666 301.967 45.511C301.967 39.8221 290.589 39.8221 287.745 45.511C296.278 51.1999 287.745 62.5777 282.056 59.7332L276.367 51.1999C277.707 50.8538 278.876 50.0305 279.653 48.8845C280.43 47.7385 280.763 46.3484 280.588 44.9748C280.414 43.6012 279.744 42.3384 278.705 41.4231C277.666 40.5078 276.329 40.0028 274.945 40.0028C273.56 40.0028 272.223 40.5078 271.184 41.4231C270.145 42.3384 269.475 43.6012 269.301 44.9748C269.127 46.3484 269.459 47.7385 270.236 48.8845C271.013 50.0305 272.182 50.8538 273.522 51.1999L262.145 56.8888L256.456 45.511C256.456 36.9777 264.989 36.9777 267.833 36.9777C267.833 31.2888 256.456 25.5999 253.611 31.2888C259.3 25.5999 256.456 17.0666 253.611 11.3777C250.611 13.614 248.43 16.7742 247.402 20.3718C246.374 23.9695 246.557 27.8053 247.922 31.2888C247.922 25.5999 236.545 31.2888 236.545 36.9777C236.545 36.9777 247.922 36.9777 247.922 45.511C247.922 51.1999 247.922 54.0444 242.233 54.0444C240.257 54.648 238.154 54.7022 236.15 54.2011C234.145 53.6999 232.315 52.6624 230.856 51.1999L222.322 56.8888C220.059 57.6432 217.589 57.4677 215.455 56.4008C213.321 55.3339 211.699 53.4631 210.945 51.1999C210.19 48.9367 210.366 46.4666 211.433 44.3328C212.499 42.1991 214.37 40.5765 216.633 39.8221C213.789 36.9777 205.256 36.9777 202.411 42.6666C202.411 39.8221 199.567 34.1332 188.189 34.1332C198.24 46.498 205.079 61.1546 208.1 76.7999C221.173 69.5627 235.826 65.6551 250.767 65.4221V68.2666Z" fill="#F9DD16"/>
<path d="M290.589 113.778L296.278 110.933V102.4C296.028 101.967 295.897 101.477 295.897 100.978C295.897 100.478 296.028 99.9878 296.278 99.5554H287.745L276.367 96.711C282.056 96.711 287.745 96.711 287.745 91.0221C287.745 88.1777 282.056 85.3332 273.522 85.3332H250.767L262.145 82.4888H276.367H247.922C247.922 91.0221 259.3 91.0221 270.678 88.1777H282.056C282.056 93.8665 276.367 93.8665 270.678 93.8665C265.99 92.8679 261.144 92.8679 256.456 93.8665H245.078L233.7 91.0221L225.167 96.711V105.244H213.789L208.1 102.4V105.244H210.945L213.789 108.089L216.633 110.933C216.633 110.933 228.011 113.778 228.011 110.933H236.545V105.244H256.456L262.145 102.4H279.211C284.9 102.4 287.745 102.4 287.745 108.089H279.211V113.778H287.745H290.589ZM222.322 85.3332V88.1777L225.167 85.3332H222.322Z" fill="#F9DD16"/>
<path d="M230.856 85.3332L236.544 88.1776L233.7 96.711H222.322V85.3332C222.322 85.3332 222.322 79.6443 228.011 79.6443L230.856 85.3332Z" fill="#F9DD16"/>
<path d="M216.633 96.711H213.789H219.478C219.478 96.711 219.478 99.5554 216.633 96.711C216.633 99.5554 219.478 102.4 225.167 102.4L230.856 105.244C230.856 105.244 225.167 99.5554 230.856 96.711C222.322 96.711 222.322 96.711 219.478 91.0221L213.789 82.4888H210.945V91.0221C210.945 88.1777 210.945 88.1777 208.1 91.0221L216.633 96.711ZM262.145 110.933H259.3H273.522V102.4C267.833 96.711 256.456 102.4 256.456 102.4L264.989 108.089H253.611V113.778C253.611 113.778 253.611 116.622 256.456 113.778C257.32 113.278 258.302 113.015 259.3 113.015C260.299 113.015 261.28 113.278 262.145 113.778V110.933Z" fill="#F9DD16"/>
<path d="M230.856 96.7111V91.0222H228.011V93.8667L230.856 96.7111Z" fill="#FF0016"/>
<path d="M210.945 82.4888L205.256 85.3332H208.1L210.945 82.4888ZM210.945 88.1777H205.256H208.1H210.945ZM210.945 102.4L208.1 108.089V105.244L210.945 102.4ZM253.611 110.933V116.622V113.778V110.933ZM282.056 110.933C279.211 110.933 282.056 108.089 282.056 110.933V110.933ZM282.056 110.933V116.622C284.9 116.622 282.056 113.778 282.056 113.778V110.933ZM230.856 93.8665V102.4V96.711V93.8665Z" fill="#0051BA"/>
<path d="M284.9 147.911H290.589V142.222C289.835 142.222 289.111 141.922 288.578 141.389C288.044 140.855 287.745 140.132 287.745 139.378C287.745 138.623 288.044 137.9 288.578 137.366C289.111 136.833 289.835 136.533 290.589 136.533H273.522L282.056 130.844C282.056 125.155 279.211 122.311 270.678 125.155H250.767C250.767 125.155 259.3 119.466 262.145 122.311H276.367L264.989 119.466C262.145 116.622 250.767 119.466 250.767 125.155C250.767 130.844 259.3 128 270.678 125.155L279.211 128L270.678 130.844C266 129.753 261.134 129.753 256.456 130.844C253.611 133.689 250.767 130.844 245.078 130.844H236.545L228.011 133.689V142.222H219.478L213.789 139.378V142.222H216.634V145.066C216.634 145.066 219.478 147.911 222.322 145.066V150.755L230.856 147.911H239.389V142.222H256.456L262.145 139.378H279.211C282.056 139.378 284.9 139.378 284.9 145.066H279.211V147.911C279.211 150.755 279.211 150.755 279.211 147.911H284.9ZM228.011 122.311H222.322L225.167 128V122.311H228.011Z" fill="#F9DD16"/>
<path d="M230.856 122.311C236.545 122.311 236.545 122.311 236.545 128L233.7 133.689H228.011L225.167 128C225.167 125.155 225.167 122.311 230.856 122.311Z" fill="#F9DD16"/>
<path d="M216.634 133.689L219.478 136.533L225.167 139.378L230.856 142.222C230.856 142.222 228.011 136.533 230.856 136.533L219.478 130.844V122.311H213.789V128C213.789 128 213.789 133.689 219.478 133.689H216.634ZM259.3 147.911H264.989C267.834 147.911 264.989 147.911 264.989 145.067V139.378C262.145 133.689 253.611 139.378 253.611 139.378L259.3 142.222C259.3 142.222 262.145 142.222 259.3 145.067H250.767C250.767 150.755 250.767 145.067 253.611 145.067V147.911C254.476 147.412 255.457 147.149 256.456 147.149C257.454 147.149 258.435 147.412 259.3 147.911Z" fill="#F9DD16"/>
<path d="M230.856 133.689C230.856 133.689 233.7 133.689 230.856 130.844V133.689Z" fill="#FF0016"/>
<path d="M213.789 122.311C213.789 119.467 210.945 122.311 210.945 122.311H213.789ZM213.789 122.311H208.1C208.1 122.311 210.945 125.156 210.945 122.311H213.789ZM213.789 128H208.1H210.945H213.789ZM213.789 139.378C213.789 139.378 210.945 142.222 213.789 145.067V142.222V139.378ZM253.611 147.911C253.611 147.911 250.767 147.911 253.611 150.756V147.911ZM279.211 145.067L276.367 150.756V147.911L279.211 145.067ZM230.856 133.689V142.222V139.378V136.533V133.689Z" fill="#0051BA"/>
<path d="M269.426 188.302C268.516 188.302 268.516 189.724 268.289 189.724C270.109 189.724 271.019 188.871 271.474 187.733V189.44C272.84 188.871 273.295 187.449 272.84 186.595L274.433 187.164C273.522 186.311 274.205 184.32 272.612 183.182C273.067 183.182 273.978 183.751 274.433 184.604C274.205 182.613 273.978 181.475 272.612 180.338H273.75C273.453 180.09 273.212 179.75 273.053 179.351C272.893 178.952 272.82 178.508 272.84 178.062C272.84 176.924 272.385 176.924 271.474 177.209L267.378 177.493C265.103 177.493 262.827 177.493 261.007 175.787C263.965 177.493 267.834 174.08 267.834 171.52C267.834 168.675 264.648 165.831 258.731 167.538C252.815 169.244 245.533 168.675 245.533 166.115C245.533 163.555 250.767 163.271 253.498 163.84C256.228 164.409 258.049 164.693 263.055 162.418C261.917 162.987 257.821 163.271 254.635 162.133C251.45 160.995 243.713 160.995 243.713 166.115C243.713 171.52 251.905 170.951 259.186 169.529C263.282 168.96 265.558 169.529 265.558 170.951C265.558 172.658 261.69 173.227 258.731 172.942C255.608 172.416 252.431 172.706 249.402 173.795C246.443 174.933 244.395 173.795 241.21 174.649C239.617 174.649 235.748 174.649 233.928 170.667C232.79 171.804 229.377 173.795 228.694 176.071C228.011 177.778 228.694 179.769 229.604 181.76C230.97 184.035 228.922 183.751 227.329 183.751C225.508 183.751 222.778 183.751 221.412 181.475C220.047 179.769 218.454 178.347 217.089 179.484C216.406 180.338 217.089 181.191 217.544 180.907L219.364 181.475C218.999 181.268 218.595 181.184 218.196 181.234C217.796 181.284 217.414 181.466 217.089 181.76C216.406 182.329 217.089 183.467 217.771 183.182C218.226 182.898 219.364 182.613 220.047 183.182C219.364 183.182 218.454 183.182 218.226 183.751C217.999 184.32 218.226 184.889 218.909 184.889C220.274 184.889 220.502 186.027 221.867 185.742C221.549 185.764 221.24 185.878 220.963 186.076C220.687 186.273 220.451 186.549 220.274 186.88C221.64 186.027 222.778 188.018 224.37 187.449C223.915 187.733 222.777 188.587 222.777 189.155C223.688 187.733 230.059 190.293 230.059 187.164L229.832 189.44C230.514 188.871 233.018 188.587 233.928 186.595C233.928 187.164 233.928 188.018 233.473 188.302C234.155 188.302 235.293 187.733 236.431 185.742C236.886 184.889 236.886 184.32 236.886 183.751C238.024 183.751 238.706 183.467 239.617 182.613C240.527 181.76 241.437 183.467 243.03 182.044C244.395 180.907 245.761 182.044 246.671 181.475C247.354 180.907 248.491 181.475 249.402 180.907C250.312 180.338 251.677 181.191 253.042 179.769C255.318 180.907 258.276 182.613 264.875 181.191C268.516 180.338 269.882 182.044 269.882 184.035C269.882 185.742 268.971 185.742 268.516 185.742C266.241 186.027 265.558 184.889 264.648 185.173C264.193 185.458 263.738 186.595 264.648 187.164C263.965 187.449 263.965 188.302 264.42 188.587C264.875 188.871 265.558 188.587 266.241 188.302C265.33 188.587 264.648 189.44 265.103 190.293C265.33 190.862 266.013 191.147 266.696 190.293C267.378 189.155 268.516 188.302 269.426 188.302ZM227.101 165.547C225.281 164.693 224.825 164.693 225.053 166.684C225.053 167.538 225.736 168.675 226.191 169.244C226.191 168.391 226.418 166.4 227.101 165.831V165.547Z" fill="#F9DD16" stroke="black" stroke-width="0.254415"/>
<path d="M233.245 165.831C235.065 164.693 235.748 164.693 235.293 166.684C235.293 167.538 234.61 168.675 234.155 169.244C234.155 168.391 234.155 166.4 233.245 165.831Z" fill="#F9DD16" stroke="black" stroke-width="0.254415"/>
<path d="M230.287 164.409C233.928 164.409 234.383 166.684 234.155 169.244C234.155 172.089 233.017 170.951 232.335 174.933C232.107 176.071 231.197 176.355 230.059 176.355C229.376 176.355 228.466 176.355 228.011 174.649C227.328 170.951 226.191 171.804 226.191 168.96C226.191 166.684 226.646 164.409 230.287 164.409Z" fill="#F9DD16" stroke="black" stroke-width="0.254415"/>
<path d="M220.957 174.933C220.047 174.364 219.364 174.933 218.909 174.933C220.274 175.218 220.274 177.209 223.005 177.778C222.322 177.778 222.095 178.347 221.412 177.778C222.55 178.916 223.688 180.338 226.418 180.338C228.011 180.338 226.873 181.191 225.963 180.622C226.873 182.044 228.921 180.907 230.287 183.467C230.287 181.476 228.011 178.631 229.149 176.64C225.281 176.356 225.053 173.795 223.005 171.804C221.185 170.098 220.957 168.391 220.274 165.262C220.047 163.84 218.681 162.987 217.999 163.271C217.316 163.271 216.861 164.124 217.544 164.693C217.999 165.262 218.909 165.262 218.909 166.684C218.226 165.547 217.089 165.262 216.633 165.831C216.406 166.4 216.633 167.253 217.089 167.253C218.226 167.253 217.544 168.96 218.681 170.098C217.544 168.675 216.633 168.391 215.951 169.244C215.723 169.813 215.951 170.667 216.861 170.667C217.999 170.667 219.137 174.08 220.957 174.933ZM250.539 188.018C250.084 188.018 250.312 189.44 249.401 189.44C251.222 189.44 252.36 188.871 253.042 188.018L252.587 189.44C253.497 188.587 256.001 188.302 257.138 188.587C258.276 188.871 258.504 188.302 258.959 187.449C259.414 186.311 258.959 185.742 258.276 185.173C257.593 184.32 257.366 183.182 257.593 181.476C254.408 175.787 248.491 178.631 248.491 180.907C250.539 184.036 250.767 183.751 252.587 184.036C254.18 184.604 255.318 184.604 254.18 185.742C253.725 186.311 251.905 185.742 250.767 186.027C247.809 186.027 246.216 183.467 245.533 184.889C244.85 186.027 245.533 186.596 246.898 186.596C245.988 186.596 244.623 186.596 244.85 187.733C245.305 189.724 246.671 187.449 247.353 188.018C246.898 188.018 245.988 188.302 245.988 188.871C245.988 189.44 247.126 190.293 248.264 188.871C248.924 188.277 249.726 187.976 250.539 188.018Z" fill="#F9DD16" stroke="black" stroke-width="0.254415"/>
<path d="M253.042 179.769C252.132 179.2 250.994 178.915 249.857 179.2M237.113 179.2C236.203 181.475 236.658 182.613 236.886 183.751M227.784 167.822C228.239 168.391 228.694 167.253 229.604 168.391M229.604 168.391C229.377 168.107 228.921 169.244 228.239 168.391M229.604 168.391V169.244C229.377 171.235 228.921 172.089 230.059 172.089C231.425 172.089 230.969 171.235 230.742 169.244V168.391M232.79 168.107C232.107 168.107 231.652 167.253 230.742 168.391M230.742 168.391C230.969 168.107 231.425 169.244 232.107 168.391" stroke="black" stroke-width="0.254415"/>
<path d="M230.287 175.502C231.197 175.502 231.652 175.502 231.652 173.796C231.652 173.227 232.335 172.942 231.88 171.804C232.335 172.942 230.287 172.942 230.287 172.373C230.287 172.942 228.011 172.942 228.466 171.804C228.239 172.942 228.922 173.227 228.694 173.796C228.694 175.502 229.149 175.502 230.287 175.502Z" fill="#FF0016" stroke="black" stroke-width="0.254415"/>
<path d="M229.149 172.089L226.874 171.236L229.149 172.089ZM229.149 172.089H226.874H229.149ZM229.149 172.373L227.101 173.227L229.149 172.373ZM230.97 172.089L233.245 171.236L230.97 172.089ZM230.97 172.089H233.7H230.97ZM230.97 172.373L233.245 173.227L230.97 172.373Z" fill="black"/>
<path d="M226.874 171.236L229.149 172.089H226.874M229.149 172.373L227.101 173.227M233.245 171.236L230.97 172.089H233.7M230.97 172.373L233.245 173.227" stroke="black" stroke-width="0.254415"/>
</g>
</g>
<defs>
<clipPath id="clip0_103_7073">
<rect width="512" height="512" fill="white" transform="translate(0.5)"/>
</clipPath>
</defs>
</svg>
