<svg width="513" height="512" viewBox="0 0 513 512" fill="none" xmlns="http://www.w3.org/2000/svg">
<g clip-path="url(#clip0_103_7134)">
<path d="M0.5 0H512.5V512H0.5V0Z" fill="white"/>
<path d="M0.5 0H512.5V153.6H0.5V0Z" fill="black"/>
<path d="M0.5 358.4H512.5V512H0.5V358.4Z" fill="#006600"/>
<path d="M164.78 408L170.54 411.2L319.98 152C328.62 150.08 333.42 141.76 338.22 133.44C341.42 127.68 354.22 105.6 359.66 76.8C344.478 90.2909 331.614 106.182 321.58 123.84C316.78 132.16 311.98 140.48 314.22 149.12L164.78 408Z" fill="black" stroke="black" stroke-width="3.2"/>
<path d="M164.78 408L170.54 411.2L319.98 152C328.62 150.08 333.42 141.76 338.22 133.44C341.42 127.68 354.22 105.6 359.66 76.8C344.478 90.2909 331.614 106.182 321.58 123.84C316.78 132.16 311.98 140.48 314.22 149.12L164.78 408Z" fill="white"/>
<path d="M347.92 408L342.16 411.2L192.72 152C184.08 150.08 179.28 141.76 174.48 133.44C171.28 127.68 158.48 105.6 153.04 76.8C168.221 90.2909 181.086 106.182 191.12 123.84C195.92 132.16 200.72 140.48 198.48 149.12L347.92 408Z" fill="black" stroke="black" stroke-width="3.2"/>
<path d="M347.92 408L342.16 411.2L192.72 152C184.08 150.08 179.28 141.76 174.48 133.44C171.28 127.68 158.48 105.6 153.04 76.8C168.221 90.2909 181.086 106.182 191.12 123.84C195.92 132.16 200.72 140.48 198.48 149.12L347.92 408Z" fill="white"/>
<path d="M256.3 102.4C237.1 102.4 205.1 153.6 195.5 179.2H0.5V332.8H195.5C205.2 358.4 237.2 409.6 256.4 409.6C275.6 409.6 307.6 358.4 317.2 332.8H512.5V179.2H317.1C307.5 153.6 275.5 102.4 256.3 102.4Z" fill="#BB0000"/>
<path d="M317.1 332.8C326.991 308.365 332.411 282.352 333.1 256C332.411 229.648 326.991 203.635 317.1 179.2C307.209 203.635 301.789 229.648 301.1 256C301.789 282.352 307.209 308.365 317.1 332.8Z" fill="black"/>
<path d="M195.6 332.8C185.709 308.365 180.289 282.352 179.6 256C180.289 229.648 185.709 203.635 195.6 179.2C205.491 203.635 210.911 229.648 211.6 256C210.911 282.352 205.491 308.365 195.6 332.8Z" fill="black"/>
<path d="M256.3 275.2C263.369 275.2 269.1 266.604 269.1 256C269.1 245.396 263.369 236.8 256.3 236.8C249.231 236.8 243.5 245.396 243.5 256C243.5 266.604 249.231 275.2 256.3 275.2Z" fill="white"/>
<path d="M259.5 274.56C259.5 274.56 272.3 300.16 272.3 341.76C272.3 383.36 259.5 408.96 259.5 408.96V274.56Z" fill="white"/>
<path d="M253.1 237.44C253.1 237.44 240.3 211.84 240.3 170.24C240.3 128.64 253.1 103.04 253.1 103.04V237.44Z" fill="white"/>
<path d="M253.1 274.56C253.1 274.56 240.3 300.16 240.3 341.76C240.3 383.36 253.1 408.96 253.1 408.96V274.56Z" fill="white"/>
<path d="M259.5 237.44C259.5 237.44 272.3 211.84 272.3 170.24C272.3 128.64 259.5 103.04 259.5 103.04V237.44Z" fill="white"/>
</g>
<defs>
<clipPath id="clip0_103_7134">
<rect width="512" height="512" fill="white" transform="translate(0.5)"/>
</clipPath>
</defs>
</svg>
