<svg width="513" height="512" viewBox="0 0 513 512" fill="none" xmlns="http://www.w3.org/2000/svg">
<g clip-path="url(#clip0_103_7153)">
<mask id="mask0_103_7153" style="mask-type:luminance" maskUnits="userSpaceOnUse" x="0" y="0" width="513" height="513">
<path d="M0.420044 0H512.469V512.049H0.543042L0.420044 0Z" fill="white"/>
</mask>
<g mask="url(#mask0_103_7153)">
<path fill-rule="evenodd" clip-rule="evenodd" d="M-127.5 0H641.25V512.049H-127.5V0Z" fill="#FF0000"/>
<path fill-rule="evenodd" clip-rule="evenodd" d="M105.954 261.129C119.607 244.524 147.897 260.76 171.021 248.829C143.592 250.305 128.709 235.668 107.061 237.759C129.447 223.983 148.512 242.187 173.604 234.807C140.394 232.101 141.87 217.218 111.735 215.127C138.549 203.688 151.71 226.935 178.032 221.646C147.036 214.512 142.977 196.308 119.976 192.372C153.555 187.329 151.341 207.132 184.305 209.592C150.849 195.324 159.705 182.778 131.661 171.954C163.026 171.216 160.935 192.864 192.546 198.522C165.486 181.302 168.807 165.558 146.421 153.258C172.989 153.75 175.572 180.933 202.632 189.297C178.524 170.232 184.797 153.996 164.01 136.899C190.332 143.049 186.519 166.542 213.948 181.425C193.653 158.916 201.402 142.68 183.69 124.107C209.028 132.348 199.434 154.611 225.756 175.767C210.627 150.921 219.975 135.054 205.092 114.021C228.708 126.321 217.269 148.953 239.163 171.585C228.831 146.124 239.163 130.257 228.585 107.625C248.757 122.754 236.826 146.985 253.062 170.232C247.158 138.252 260.934 132.963 256.629 105.042C271.881 123.861 254.784 142.68 266.469 170.232C265.239 138.867 281.844 131.487 278.892 106.272C294.144 128.904 270.405 148.584 280.368 172.815C282.828 142.926 302.508 135.3 302.877 112.053C314.808 133.332 288.732 148.707 293.037 176.997C301.524 145.755 322.434 141.942 325.017 120.909C332.151 145.509 303.615 157.071 305.337 184.377C313.824 156.702 339.9 153.381 345.312 132.963C348.51 159.039 322.803 163.713 315.669 192.495C329.199 169.125 352.815 167.034 363.393 148.461C362.532 174.291 333.504 177.612 324.648 201.843C341.376 181.302 362.286 184.869 379.014 166.665C377.292 190.035 347.772 188.682 332.028 212.79C350.232 196.062 377.538 201.105 391.437 186.714C390.699 207.255 354.537 205.779 337.317 224.106C358.473 212.667 385.164 219.432 400.662 208.608C397.71 226.689 359.58 222.63 341.13 236.652C366.345 229.641 385.779 240.342 406.32 232.593C396.357 250.182 361.671 239.112 343.221 250.551C365.115 246.861 388.362 260.022 408.288 255.84C401.769 270.969 363.762 254.856 343.098 264.45C367.698 264.081 383.688 279.825 406.32 278.718C394.02 292.494 360.564 273.552 341.13 276.75C364.869 281.67 382.95 301.35 401.031 302.334C386.271 313.65 358.596 287.82 336.087 291.141C359.211 297.291 378.645 323.613 391.929 324.228C377.661 334.068 349.371 301.719 330.06 302.826C353.43 313.527 364.254 340.341 379.752 344.154C360.687 350.304 341.868 315.003 321.327 313.773C345.066 328.779 346.419 351.657 364.746 361.743C345.558 366.663 331.782 326.688 311.487 323.367C331.044 337.635 333.873 368.262 346.911 377.979C327.231 378.963 320.22 337.266 300.171 331.239C317.391 345.63 313.209 376.749 326.493 390.156C306.198 385.974 308.781 349.566 287.502 337.266C302.754 356.7 294.882 384.129 304.968 399.627C285.042 391.632 293.775 359.037 274.71 340.587C285.042 361.251 273.972 385.236 282.09 405.162C264.009 396.306 276.186 357.807 262.287 342.432C268.683 366.294 256.875 385.974 261.672 407.253C243.099 385.728 264.501 364.203 248.388 342.063C252.57 367.401 234.981 384.867 237.81 406.023C223.05 388.803 245.682 361.128 234.243 339.48C236.703 364.203 213.948 385.851 215.547 401.472C203.616 381.546 228.831 357.93 222.066 335.175C220.59 358.791 197.712 371.583 193.407 392.985C185.658 369.369 212.964 352.272 210.627 329.025C202.755 351.165 180.615 360.021 172.743 381.423C166.347 357.807 198.696 345.261 199.557 320.415C189.594 343.785 163.026 348.828 154.293 366.663C150.972 343.293 188.118 332.715 189.471 310.452C177.54 331.854 148.512 332.592 138.426 349.689C136.95 326.319 176.064 323.367 182.214 298.89C170.283 317.094 138.426 314.88 125.265 329.64C127.356 307.869 169.545 306.516 176.31 287.082C160.566 302.211 131.415 295.938 114.81 307.992C124.035 286.59 163.764 291.141 172.62 275.643C155.154 284.868 124.035 276.012 108.66 285.114C122.682 264.942 153.555 276.996 171.021 262.974C142.608 267.156 125.511 255.84 105.831 261.129H105.954Z" fill="#FFFF00"/>
<path fill-rule="evenodd" clip-rule="evenodd" d="M356.382 256.086C356.851 269.407 354.633 282.686 349.859 295.131C345.085 307.576 337.853 318.932 328.595 328.521C319.337 338.111 308.243 345.738 295.974 350.947C283.704 356.156 270.512 358.841 257.183 358.841C243.853 358.841 230.661 356.156 218.391 350.947C206.122 345.738 195.028 338.111 185.77 328.521C176.512 318.932 169.28 307.576 164.506 295.131C159.732 282.686 157.514 269.407 157.983 256.086C158.888 230.381 169.736 206.031 188.241 188.167C206.745 170.303 231.462 160.319 257.183 160.319C282.903 160.319 307.62 170.303 326.124 188.167C344.629 206.031 355.477 230.381 356.382 256.086Z" fill="#FFFF00"/>
<path fill-rule="evenodd" clip-rule="evenodd" d="M343.59 256.332C343.59 267.655 341.36 278.867 337.027 289.328C332.694 299.789 326.342 309.294 318.336 317.301C310.329 325.308 300.824 331.659 290.363 335.992C279.902 340.325 268.69 342.555 257.367 342.555C246.044 342.555 234.832 340.325 224.371 335.992C213.91 331.659 204.405 325.308 196.398 317.301C188.392 309.294 182.04 299.789 177.707 289.328C173.374 278.867 171.144 267.655 171.144 256.332C171.144 233.448 180.235 211.501 196.416 195.32C212.598 179.138 234.544 170.048 257.429 170.048C280.313 170.048 302.259 179.138 318.441 195.32C334.622 211.501 343.713 233.448 343.713 256.332H343.59Z" fill="#FF0000"/>
<path fill-rule="evenodd" clip-rule="evenodd" d="M331.659 256.455C331.659 276.109 323.851 294.959 309.953 308.857C296.056 322.755 277.206 330.562 257.551 330.562C237.897 330.562 219.047 322.755 205.15 308.857C191.252 294.959 183.444 276.109 183.444 256.455C183.444 236.8 191.252 217.951 205.15 204.053C219.047 190.155 237.897 182.347 257.551 182.347C277.206 182.347 296.056 190.155 309.953 204.053C323.851 217.951 331.659 236.8 331.659 256.455Z" fill="#FFFF00"/>
<path fill-rule="evenodd" clip-rule="evenodd" d="M194.514 207.87C215.055 207.501 240.516 209.346 257.367 222.876C275.417 211.578 296.679 206.522 317.883 208.485L328.953 228.657C312.963 227.058 297.342 229.272 278.892 236.775C290.106 245.049 299.121 255.945 305.147 268.511C311.172 281.077 314.025 294.929 313.455 308.853C310.749 312.297 306.567 315.987 303.861 319.308C307.797 290.895 292.791 259.038 270.897 242.31C288.609 268.017 299.187 291.018 296.235 322.875L286.149 329.148C290.823 301.104 284.304 268.263 263.517 249.198C271.458 260.939 277.003 274.132 279.831 288.021C282.659 301.91 282.717 316.221 279.999 330.132C276.801 331.116 271.881 333.822 268.56 334.806C272.484 321.673 273.548 307.852 271.681 294.273C269.814 280.694 265.059 267.673 257.736 256.086C250.551 267.595 245.902 280.503 244.1 293.95C242.297 307.397 243.381 321.073 247.281 334.068L236.703 330.993C231.045 300.858 238.917 267.033 252.57 249.321C238.671 257.439 225.51 292.002 229.2 327.303L219.852 322.998C215.301 296.676 227.232 262.359 244.452 242.556C225.018 254.856 209.151 284.868 211.98 317.217C209.028 314.634 206.199 313.281 203.247 310.698C199.803 282.408 216.162 253.995 235.227 236.898C219.472 230.225 202.353 227.4 185.289 228.657C188.364 222.138 191.439 214.512 194.514 207.993V207.87Z" fill="#FF0000"/>
</g>
</g>
<defs>
<clipPath id="clip0_103_7153">
<rect width="512" height="512" fill="white" transform="translate(0.5)"/>
</clipPath>
</defs>
</svg>
