<svg width="513" height="512" viewBox="0 0 513 512" fill="none" xmlns="http://www.w3.org/2000/svg">
<g clip-path="url(#clip0_103_7164)">
<path d="M0.5 0H512.5V512H0.5V0Z" fill="#032EA1"/>
<path d="M0.5 128H512.5V384H0.5V128Z" fill="#E00025"/>
<path d="M184.42 241.38H330.084V297.444H184.42V241.38Z" fill="white" stroke="black" stroke-width="1.28" stroke-linejoin="bevel"/>
<path d="M322.66 272.228H327.14V293.348H322.66V272.228ZM184.42 261.86H330.084V268.26H184.42V261.86ZM184.42 252.9H330.084V258.788H184.42V252.9Z" fill="white" stroke="black" stroke-width="1.28" stroke-linejoin="bevel"/>
<path d="M184.42 244.196H330.084V249.7H184.42V244.196Z" fill="white" stroke="black" stroke-width="1.152" stroke-linejoin="bevel"/>
<path d="M222.82 272.228H227.428V293.348H222.82V272.228ZM285.54 272.228H290.148V293.348H285.54V272.228ZM185.7 272.228H190.18V293.348H185.7V272.228ZM194.66 272.228H199.14V293.348H194.66V272.228ZM204.26 272.228H208.74V293.348H204.26V272.228ZM213.86 272.228H218.34V293.348H213.86V272.228ZM294.244 272.228H298.852V293.348H294.244V272.228ZM303.844 272.228H308.452V293.348H303.844V272.228ZM313.444 272.228H318.052V293.348H313.444V272.228Z" fill="white" stroke="black" stroke-width="1.28" stroke-linejoin="bevel"/>
<path d="M127.46 300.26C130.136 298.803 132.152 296.375 133.092 293.476H380.26C381.2 296.375 383.215 298.803 385.892 300.26H127.46Z" fill="white" stroke="black" stroke-width="1.28"/>
<path d="M253.54 156.004C253.54 156.004 253.412 150.756 256.484 150.628C259.428 150.628 259.3 156.004 259.3 156.004H253.54ZM237.54 225.764V218.724C237.54 215.14 233.956 214.884 233.956 212.324C233.956 212.324 233.444 208.484 234.468 206.692C235.876 211.812 238.308 210.916 238.308 208.74C238.308 206.948 237.028 205.156 234.084 200.676C233.06 199.268 233.7 194.788 234.98 193.124C235.492 196.964 236.132 198.884 237.796 198.884C238.82 198.884 239.588 198.244 239.588 196.324C239.588 193.764 237.924 192.484 237.028 190.18C236.587 189.033 236.485 187.784 236.735 186.581C236.984 185.378 237.575 184.272 238.436 183.396C239.076 187.236 238.948 188.772 240.612 188.772C244.068 187.62 240.612 182.628 239.844 181.348C239.076 179.94 241.124 176.996 241.124 176.996C242.148 180.452 242.404 180.708 243.684 180.324C245.22 179.94 244.964 177.764 243.172 175.972C242.02 174.692 242.148 173.028 243.428 171.748C244.708 174.18 246.244 174.052 246.372 172.516L245.348 166.884H267.62L266.468 172.388C266.212 173.924 268.26 174.308 269.54 171.748C270.82 173.028 270.948 174.82 269.796 175.972C268.004 177.764 267.748 179.94 269.284 180.324C270.564 180.708 270.82 180.324 271.844 176.996C271.844 176.996 273.764 178.916 273.124 181.348C272.356 182.628 268.9 187.748 272.356 188.772C274.02 188.772 273.892 187.236 274.532 183.396C275.371 184.286 275.938 185.398 276.165 186.601C276.392 187.803 276.269 189.045 275.812 190.18C275.044 192.484 273.252 193.764 273.252 196.324C273.252 198.244 274.148 198.884 275.172 198.884C276.836 198.884 277.476 197.092 277.988 193.124C279.268 194.788 279.908 199.268 278.884 200.804C275.94 205.156 274.532 206.948 274.532 208.74C274.532 210.916 277.092 211.812 278.372 206.692C279.524 208.484 279.012 212.324 279.012 212.324C279.012 214.884 275.556 215.14 275.428 218.724V225.764H237.54ZM246.756 166.884L246.244 162.916H266.596L266.084 166.884H246.756ZM248.036 162.788L247.78 159.588H265.06L264.676 162.788H248.036ZM250.98 159.46L250.596 156.132H262.116L261.988 159.46H250.98ZM293.22 300.26C290.66 299.364 286.82 296.548 286.82 293.86V262.756L290.148 258.404H222.82L226.02 262.756V293.86C226.02 296.548 223.46 299.364 220.9 300.26H293.22Z" fill="white" stroke="black" stroke-width="1.28"/>
<path d="M234.596 272.228H239.204V293.348H234.596V272.228ZM273.508 272.228H278.116V293.348H273.508V272.228Z" fill="white" stroke="black" stroke-width="1.28" stroke-linejoin="bevel"/>
<path d="M221.54 223.076V258.404H290.66V223.076C289.861 223.368 289.143 223.845 288.565 224.468C287.986 225.091 287.564 225.842 287.332 226.66V241.764H224.996V226.66C224.996 226.66 224.228 224.1 221.412 223.076H221.54Z" fill="white" stroke="black" stroke-width="1.28"/>
<path d="M281.188 300.26C278.884 299.364 274.02 296.548 274.02 293.86V259.044C274.532 257.124 277.092 255.972 278.756 254.692H233.06C235.236 255.972 237.668 256.868 238.564 259.044V293.86C238.564 296.548 234.724 299.364 232.42 300.26H281.188Z" fill="white" stroke="black" stroke-width="1.28"/>
<path d="M287.332 255.076V229.988H281.06V227.556H231.396V230.116H224.996V255.076H287.332ZM271.46 300.26C269.156 299.364 265.956 296.548 265.956 293.86V264.164L267.748 261.476H245.092L247.012 264.036V293.86C247.012 296.548 243.684 299.364 241.508 300.26H271.46Z" fill="white" stroke="black" stroke-width="1.28"/>
<path d="M250.596 261.476H262.116V300.26H250.596V261.476Z" fill="white" stroke="black" stroke-width="1.28"/>
<path d="M268.132 252.9C268.132 250.34 275.556 250.212 279.396 248.036H233.316C237.156 250.212 244.452 250.34 244.452 252.9L245.988 257.892L265.188 258.66L268.132 252.9Z" fill="white" stroke="black" stroke-width="1.28" stroke-linejoin="bevel"/>
<path d="M277.092 225.764C277.092 219.492 277.348 217.188 279.268 217.188V236.9C274.532 238.692 271.204 244.58 271.204 244.58H241.508C241.508 244.58 238.18 238.692 233.444 236.9V217.06C235.748 217.06 235.748 219.62 235.748 225.636L277.092 225.764ZM279.268 223.204C279.268 216.036 285.54 215.268 285.54 215.268V221.668C283.108 221.54 281.956 223.716 281.956 226.788C281.956 229.988 283.876 229.988 283.876 229.988V248.164H279.268V223.204Z" fill="white" stroke="black" stroke-width="1.28"/>
<path d="M233.444 223.204C233.444 216.036 227.172 215.268 227.172 215.268V221.668C229.604 221.54 230.756 223.716 230.756 226.788C230.756 229.988 228.836 229.988 228.836 229.988V248.164H233.444V223.204Z" fill="white" stroke="black" stroke-width="1.28"/>
<path d="M245.604 173.668H267.62M243.044 180.58H269.924M240.484 188.9H272.356M237.796 199.012H275.556M236.9 210.532H275.812" stroke="black" stroke-width="1.024"/>
<path d="M225.124 248.42H287.332M244.836 248.42H267.876V256.868H244.836V248.42Z" stroke="black" stroke-width="1.28"/>
<path d="M242.02 229.476C245.86 234.084 245.348 241.892 245.348 246.5H267.62C267.62 241.892 267.108 234.084 270.948 229.476H242.02ZM254.436 176.996L251.364 175.332V170.852C252.644 171.236 253.924 171.364 254.18 173.412C254.564 170.468 255.46 170.724 256.612 169.572C257.892 170.724 258.532 170.468 259.044 173.412C259.044 171.364 260.58 171.236 261.732 170.852V175.332L258.788 176.868L254.436 176.996Z" fill="white" stroke="black" stroke-width="1.28"/>
<path d="M254.18 184.292L249.06 180.708V176.74C250.98 177.124 252.9 177.38 253.156 179.556C253.668 176.356 254.82 174.82 256.612 173.54C258.276 174.82 259.428 176.356 260.068 179.556C260.196 177.38 262.244 177.124 263.908 176.74V180.836L258.916 184.292H254.18Z" fill="white" stroke="black" stroke-width="1.28"/>
<path d="M253.796 195.684L248.036 190.564V184.548C250.084 185.06 252.388 185.316 252.644 188.516C253.284 184.036 254.564 181.604 256.484 179.812C258.532 181.604 259.812 184.036 260.58 188.516C260.836 185.316 263.14 185.06 265.188 184.548V190.564L259.3 195.684H253.796ZM264.548 202.468L259.428 209.764H253.412L248.164 202.468H264.548ZM245.092 214.628C247.652 216.036 248.676 218.98 248.932 224.356H263.78C264.036 218.98 265.06 216.036 267.62 214.628H245.092Z" fill="white" stroke="black" stroke-width="1.28"/>
<path d="M267.876 202.34V195.172C266.774 195.407 265.75 195.917 264.899 196.656C264.048 197.395 263.399 198.338 263.012 199.396C263.012 196.836 259.812 191.332 256.356 188.516C252.9 191.588 249.572 196.708 249.7 199.268C249.06 197.348 247.396 195.812 244.836 195.172V202.468L267.876 202.34Z" fill="white" stroke="black" stroke-width="1.28" stroke-linejoin="bevel"/>
<path d="M268.9 214.628V207.46C266.212 208.228 264.42 209.636 263.652 211.684C263.652 209.124 260.196 203.62 256.356 200.804C252.516 204.004 248.932 208.996 249.06 211.684C248.42 209.764 246.5 208.228 243.812 207.46V214.756L268.9 214.628Z" fill="white" stroke="black" stroke-width="1.28" stroke-linejoin="bevel"/>
<path d="M271.972 229.604V221.156C269.307 221.988 267.004 223.704 265.444 226.02C265.444 221.54 260.324 214.5 256.356 212.324C252.26 214.628 247.268 221.796 247.268 226.02C245.668 223.688 243.32 221.972 240.612 221.156V229.604H271.972Z" fill="white" stroke="black" stroke-width="1.28" stroke-linejoin="bevel"/>
<path d="M270.18 248.42V239.716C267.108 240.868 266.34 243.684 265.316 245.732C265.7 236.9 260.452 227.556 256.356 225.124C252.26 227.556 246.884 237.156 247.396 245.604C246.372 243.812 245.476 240.868 242.532 239.716V248.292L270.18 248.42Z" fill="white" stroke="black" stroke-width="1.28" stroke-linejoin="bevel"/>
<path d="M268.132 261.476V252.772C264.932 253.54 264.804 254.692 263.78 256.612C264.164 251.364 260.452 245.348 256.356 243.044C252.26 245.348 248.676 251.364 248.932 256.612C247.908 254.692 247.78 253.54 244.58 252.772V261.476H268.132Z" fill="white" stroke="black" stroke-width="1.28"/>
<path d="M133.22 293.476V267.364C132.324 264.036 129.38 260.964 127.332 260.452V237.412L132.068 239.972L137.572 264.164V293.604L133.22 293.476Z" fill="white" stroke="black" stroke-width="1.28"/>
<path d="M133.22 293.604V267.364C132.324 264.036 129.38 260.964 127.332 260.452V235.876C130.532 235.876 132.068 239.972 132.068 239.972L137.572 264.164V293.476L133.22 293.604Z" fill="white" stroke="black" stroke-width="1.28"/>
<path d="M129.764 300.26C131.94 299.364 135.14 296.548 135.14 293.86V261.092L133.604 258.532H189.54L187.364 261.092V293.86C187.458 295.217 187.91 296.524 188.675 297.648C189.439 298.773 190.489 299.674 191.716 300.26H129.764Z" fill="white" stroke="black" stroke-width="1.28"/>
<path d="M180.324 300.26C178.148 299.364 174.948 296.548 174.948 293.86V262.756L179.556 258.404H141.668L146.276 262.756V293.86C146.276 296.548 143.076 299.364 140.9 300.26H180.324Z" fill="white" stroke="black" stroke-width="1.28"/>
<path d="M175.076 300.26C172.9 299.364 169.572 296.548 169.572 293.86V265.7L172.644 261.476H148.58L151.652 265.7V293.86C151.652 296.548 148.452 299.364 146.148 300.26H175.076Z" fill="white" stroke="black" stroke-width="1.28"/>
<path d="M154.98 261.476H166.372V300.388H154.852L154.98 261.476Z" fill="white" stroke="black" stroke-width="1.28"/>
<path d="M139.236 272.228H143.844V293.348H139.236V272.228ZM178.66 272.228H183.14V293.348H178.532L178.66 272.228ZM135.268 236.644H140.9V258.404H135.268V236.644ZM135.268 232.548H140.772V236.644H135.268V232.548ZM180.836 241.38H188.644V258.02H180.836V241.38Z" fill="white"/>
<path d="M135.268 236.644H140.9V258.404H135.268V236.644ZM135.268 236.644H140.772V232.548H135.268V236.644ZM139.236 272.228H143.844V293.348H139.236V272.228ZM178.66 272.228H183.14V293.348H178.532L178.66 272.228ZM180.836 241.38H188.644V258.02H180.836V241.38Z" stroke="black" stroke-width="1.28" stroke-linejoin="bevel"/>
<path d="M140.772 258.148V221.028C142.308 221.028 142.564 226.532 146.148 226.532C148.068 226.532 147.94 224.228 146.788 222.436C145.892 220.772 144.74 218.596 146.276 214.372C147.428 217.572 150.244 218.596 149.732 216.676C148.836 213.22 146.148 212.58 148.196 207.332C148.836 211.684 151.652 211.556 151.012 208.996C150.244 206.052 148.58 204.772 150.628 200.676C151.78 205.412 153.188 205.156 153.188 202.212C153.188 197.86 153.188 193.252 158.564 191.588C158.564 191.588 158.948 187.748 160.996 187.748C162.916 187.748 163.3 191.588 163.3 191.588C168.804 193.252 168.676 197.988 168.676 202.212C168.676 205.156 170.084 205.412 171.236 200.676C173.284 204.772 171.62 206.052 170.852 208.996C170.212 211.556 173.028 211.684 173.668 207.332C175.716 212.58 173.028 213.22 172.132 216.676C171.62 218.596 174.436 217.572 175.588 214.372C177.124 218.596 175.972 220.772 175.076 222.436C174.052 224.228 173.796 226.532 175.716 226.532C179.3 226.532 179.556 221.156 181.092 221.156V258.148H140.772ZM131.94 230.116V258.404H135.14V230.116C133.988 229.476 132.964 229.476 131.94 230.116Z" fill="white" stroke="black" stroke-width="1.28"/>
<path d="M132.196 248.42C136.164 250.468 140.132 252.9 141.156 258.404H132.196V248.42ZM187.492 239.972V258.404H190.052V239.972C189.284 239.588 188.132 239.46 187.492 239.972Z" fill="white" stroke="black" stroke-width="1.28"/>
<path d="M190.052 248.42C186.084 250.34 182.116 252.644 181.092 258.276H190.052V248.42ZM163.684 205.284L165.988 203.364V200.804C165.22 200.804 164.708 201.188 164.068 202.084C163.819 201.262 163.408 200.499 162.858 199.839C162.309 199.179 161.632 198.637 160.868 198.244C160.093 198.609 159.399 199.125 158.828 199.763C158.256 200.4 157.818 201.146 157.54 201.956C156.9 201.06 156.516 200.932 155.62 200.676V203.236L157.924 205.284H163.684Z" fill="white" stroke="black" stroke-width="1.28"/>
<path d="M164.964 211.556L165.988 209.124V205.924C165.22 205.924 164.708 206.308 164.068 207.204C163.819 206.382 163.408 205.618 162.858 204.959C162.309 204.299 161.632 203.757 160.868 203.364C160.093 203.729 159.399 204.245 158.828 204.883C158.256 205.52 157.818 206.266 157.54 207.076C156.9 206.18 156.516 206.052 155.62 205.924V209.124L156.644 211.556H164.964Z" fill="white" stroke="black" stroke-width="1.28"/>
<path d="M165.22 220.004L168.548 215.78V211.684C167.268 211.684 166.628 212.324 165.732 213.732C164.836 210.788 163.172 210.276 160.868 208.868C158.436 210.148 156.772 210.788 156.004 213.604C154.98 212.196 154.34 211.812 153.06 211.684V215.78L156.516 220.004H165.22Z" fill="white" stroke="black" stroke-width="1.28"/>
<path d="M166.116 228.324C166.116 228.324 170.212 224.868 170.34 222.948V218.468C168.804 218.596 167.396 218.98 166.244 220.9C165.22 217.188 163.684 216.164 160.868 214.5C157.924 216.164 156.388 217.188 155.492 220.9C154.212 218.98 152.932 218.596 151.268 218.34V222.948C152.343 224.978 153.774 226.799 155.492 228.324H166.116Z" fill="white" stroke="black" stroke-width="1.28"/>
<path d="M167.78 243.684C167.78 243.684 173.412 237.668 173.54 235.236V228.324C171.492 228.58 169.444 229.988 167.908 232.932C166.628 227.172 164.58 223.204 160.868 220.388C157.028 223.204 154.98 227.172 153.7 232.932C152.164 229.988 150.244 228.58 148.196 228.324V235.236C148.58 237.668 153.828 243.684 153.828 243.684H167.78Z" fill="white" stroke="black" stroke-width="1.28"/>
<path d="M167.78 252.772C167.78 252.772 172.516 248.036 173.54 245.988V239.076C171.492 239.332 169.444 240.74 167.908 243.556C167.566 241.227 166.768 238.988 165.56 236.968C164.352 234.947 162.757 233.184 160.868 231.78C157.028 234.596 154.98 237.796 153.7 243.556C152.164 240.74 150.244 239.332 148.196 239.076V245.988C149.476 248.036 153.828 252.772 153.828 252.772H167.78Z" fill="white" stroke="black" stroke-width="1.28"/>
<path d="M169.7 258.148C168.42 252.132 167.14 247.652 160.612 243.172C153.956 247.652 152.804 252.132 151.396 258.148H169.7Z" fill="white" stroke="black" stroke-width="1.28"/>
<path d="M173.156 261.476V252.772C170.084 254.052 167.396 255.716 166.372 257.636C165.348 252.772 163.172 250.724 160.484 247.78C157.796 250.724 156.004 252.9 154.852 257.636C153.828 255.716 151.14 253.924 148.196 252.772V261.476H173.156Z" fill="white" stroke="black" stroke-width="1.28"/>
<path d="M379.876 293.476V267.364C380.772 264.036 383.716 260.964 385.764 260.452V237.412L381.028 239.972L375.524 264.164V293.604L379.876 293.476Z" fill="white" stroke="black" stroke-width="1.28"/>
<path d="M379.876 293.604V267.364C380.772 264.036 383.716 260.964 385.764 260.452V235.876C382.564 235.876 381.028 239.972 381.028 239.972L375.524 264.164V293.476L379.876 293.604Z" fill="white" stroke="black" stroke-width="1.28"/>
<path d="M383.332 300.26C381.156 299.364 377.956 296.548 377.956 293.86V261.092L379.492 258.532H323.556L325.732 261.092V293.86C325.638 295.217 325.186 296.524 324.421 297.648C323.657 298.773 322.607 299.674 321.38 300.26H383.332Z" fill="white" stroke="black" stroke-width="1.28"/>
<path d="M332.772 300.26C334.948 299.364 338.148 296.548 338.148 293.86V262.756L333.54 258.404H371.428L366.82 262.756V293.86C366.82 296.548 370.02 299.364 372.196 300.26H332.772Z" fill="white" stroke="black" stroke-width="1.28"/>
<path d="M338.02 300.26C340.196 299.364 343.524 296.548 343.524 293.86V265.7L340.452 261.476H364.516L361.444 265.7V293.86C361.444 296.548 364.644 299.364 366.948 300.26H338.02Z" fill="white" stroke="black" stroke-width="1.28"/>
<path d="M358.116 261.476H346.724V300.388H358.244L358.116 261.476Z" fill="white" stroke="black" stroke-width="1.28"/>
<path d="M373.86 272.228H369.252V293.348H373.86V272.228ZM334.436 272.228H329.956V293.348H334.564L334.436 272.228ZM377.828 236.644H372.196V258.404H377.828V236.644ZM377.828 232.548H372.324V236.644H377.828V232.548ZM332.26 241.38H324.452V258.02H332.26V241.38Z" fill="white"/>
<path d="M377.828 236.644H372.196V258.404H377.828V236.644ZM377.828 236.644H372.324V232.548H377.828V236.644ZM373.86 272.228H369.252V293.348H373.86V272.228ZM334.436 272.228H329.956V293.348H334.564L334.436 272.228ZM332.26 241.38H324.452V258.02H332.26V241.38Z" stroke="black" stroke-width="1.28" stroke-linejoin="bevel"/>
<path d="M372.324 258.148V221.028C370.788 221.028 370.532 226.532 366.948 226.532C365.028 226.532 365.156 224.228 366.308 222.436C367.204 220.772 368.356 218.596 366.82 214.372C365.668 217.572 362.852 218.596 363.364 216.676C364.26 213.22 366.948 212.58 364.9 207.332C364.26 211.684 361.444 211.556 362.084 208.996C362.852 206.052 364.516 204.772 362.468 200.676C361.316 205.412 359.908 205.156 359.908 202.212C359.908 197.86 359.908 193.252 354.532 191.588C354.532 191.588 354.148 187.748 352.1 187.748C350.18 187.748 349.796 191.588 349.796 191.588C344.292 193.252 344.42 197.988 344.42 202.212C344.42 205.156 343.012 205.412 341.86 200.676C339.812 204.772 341.476 206.052 342.244 208.996C342.884 211.556 340.068 211.684 339.428 207.332C337.38 212.58 340.068 213.22 340.964 216.676C341.476 218.596 338.66 217.572 337.508 214.372C335.972 218.596 337.124 220.772 338.02 222.436C339.044 224.228 339.3 226.532 337.38 226.532C333.796 226.532 333.54 221.156 332.004 221.156V258.148H372.324ZM381.156 230.116V258.404H377.956V230.116C379.108 229.476 380.132 229.476 381.156 230.116Z" fill="white" stroke="black" stroke-width="1.28"/>
<path d="M380.9 248.42C376.932 250.468 372.964 252.9 371.94 258.404H380.9V248.42ZM325.604 239.972V258.404H323.044V239.972C323.812 239.588 324.964 239.46 325.604 239.972Z" fill="white" stroke="black" stroke-width="1.28"/>
<path d="M323.044 248.42C327.012 250.34 330.98 252.644 332.004 258.276H323.044V248.42ZM349.412 205.284L347.108 203.364V200.804C347.876 200.804 348.388 201.188 349.028 202.084C349.276 201.262 349.688 200.499 350.238 199.839C350.787 199.179 351.464 198.637 352.228 198.244C353.003 198.609 353.697 199.125 354.268 199.763C354.84 200.4 355.278 201.146 355.556 201.956C356.196 201.06 356.58 200.932 357.476 200.676V203.236L355.172 205.284H349.412Z" fill="white" stroke="black" stroke-width="1.28"/>
<path d="M348.132 211.556L347.108 209.124V205.924C347.876 205.924 348.388 206.308 349.028 207.204C349.276 206.382 349.688 205.618 350.238 204.959C350.787 204.299 351.464 203.757 352.228 203.364C353.003 203.729 353.697 204.245 354.268 204.883C354.84 205.52 355.278 206.266 355.556 207.076C356.196 206.18 356.58 206.052 357.476 205.924V209.124L356.452 211.556H348.132Z" fill="white" stroke="black" stroke-width="1.28"/>
<path d="M347.876 220.004L344.548 215.78V211.684C345.828 211.684 346.468 212.324 347.364 213.732C348.26 210.788 349.924 210.276 352.228 208.868C354.66 210.148 356.324 210.788 357.092 213.604C358.116 212.196 358.756 211.812 360.036 211.684V215.78L356.58 220.004H347.876Z" fill="white" stroke="black" stroke-width="1.28"/>
<path d="M346.98 228.324C346.98 228.324 342.884 224.868 342.756 222.948V218.468C344.292 218.596 345.7 218.98 346.852 220.9C347.876 217.188 349.412 216.164 352.228 214.5C355.172 216.164 356.708 217.188 357.604 220.9C358.884 218.98 360.164 218.596 361.828 218.34V222.948C360.753 224.978 359.322 226.799 357.604 228.324H346.98Z" fill="white" stroke="black" stroke-width="1.28"/>
<path d="M345.316 243.684C345.316 243.684 339.684 237.668 339.556 235.236V228.324C341.604 228.58 343.652 229.988 345.188 232.932C346.468 227.172 348.516 223.204 352.228 220.388C356.068 223.204 358.116 227.172 359.396 232.932C360.932 229.988 362.852 228.58 364.9 228.324V235.236C364.516 237.668 359.268 243.684 359.268 243.684H345.316Z" fill="white" stroke="black" stroke-width="1.28"/>
<path d="M345.316 252.772C345.316 252.772 340.58 248.036 339.556 245.988V239.076C341.604 239.332 343.652 240.74 345.188 243.556C345.53 241.227 346.328 238.988 347.536 236.968C348.744 234.947 350.339 233.184 352.228 231.78C356.068 234.596 358.116 237.796 359.396 243.556C360.932 240.74 362.852 239.332 364.9 239.076V245.988C363.62 248.036 359.268 252.772 359.268 252.772H345.316Z" fill="white" stroke="black" stroke-width="1.28"/>
<path d="M343.396 258.148C344.676 252.132 345.956 247.652 352.484 243.172C359.14 247.652 360.292 252.132 361.7 258.148H343.396Z" fill="white" stroke="black" stroke-width="1.28"/>
<path d="M339.94 261.476V252.772C343.012 254.052 345.7 255.716 346.724 257.636C347.748 252.772 349.924 250.724 352.612 247.78C355.3 250.724 357.092 252.9 358.244 257.636C359.268 255.716 361.956 253.924 364.9 252.772V261.476H339.94Z" fill="white" stroke="black" stroke-width="1.28"/>
<path d="M99.556 332.004H413.54V348.004H99.556V332.004ZM91.236 348.004H421.86V364.004H91.236V348.004ZM116.068 307.94H396.9V318.308H116.068V307.94Z" fill="white" stroke="black" stroke-width="1.28"/>
<path d="M107.876 318.308H405.348V331.876H107.876V318.308ZM120.932 300.004H392.292V307.94H120.932V300.004Z" fill="white" stroke="black" stroke-width="1.28"/>
<path d="M150.372 300.004H170.852V364.004H150.372V300.004Z" fill="white" stroke="black" stroke-width="1.28"/>
<path d="M154.98 300.004H166.372V364.004H154.852L154.98 300.004ZM245.86 300.004H266.34V364.004H245.86V300.004Z" fill="white" stroke="black" stroke-width="1.28"/>
<path d="M250.596 300.004H262.116V364.004H250.596V300.004ZM342.116 300.004H362.596V364.004H342.116V300.004Z" fill="white" stroke="black" stroke-width="1.28"/>
<path d="M346.596 300.004H358.116V364.004H346.596V300.004Z" fill="white" stroke="black" stroke-width="1.28"/>
<path d="M133.22 293.476H380.26M154.724 355.94H166.5M154.724 347.876H166.5M154.724 339.94H166.5M154.724 331.876H166.5M154.724 323.94H166.5M154.724 315.876H166.5M154.724 307.94H166.5M250.724 355.94H261.732M250.724 347.876H261.732M250.724 339.94H261.732M250.724 331.876H261.732M250.724 323.94H261.732M250.724 315.876H261.732M250.724 307.94H261.732M346.468 355.94H358.244M346.468 347.876H358.244M346.468 339.94H358.244M346.468 331.876H358.244M346.468 323.94H358.244M346.468 315.876H358.244M346.468 307.94H358.244" stroke="black" stroke-width="1.28"/>
</g>
<defs>
<clipPath id="clip0_103_7164">
<rect width="512" height="512" fill="white" transform="translate(0.5)"/>
</clipPath>
</defs>
</svg>
