<svg width="513" height="512" viewBox="0 0 513 512" fill="none" xmlns="http://www.w3.org/2000/svg">
<g clip-path="url(#clip0_103_7237)">
<mask id="mask0_103_7237" style="mask-type:luminance" maskUnits="userSpaceOnUse" x="0" y="0" width="513" height="512">
<path d="M0.482346 0.0395508H512.49V511.943H0.482346V0.0395508Z" fill="white"/>
</mask>
<g mask="url(#mask0_103_7237)">
<path fill-rule="evenodd" clip-rule="evenodd" d="M-163.835 0.0395508H671.913V306.39H-163.835V0.0395508Z" fill="#E73E2D"/>
<path fill-rule="evenodd" clip-rule="evenodd" d="M204.785 282.023C185.313 266.925 149.076 272.027 143.14 230.792C170.839 252.242 165.841 229.542 207.285 250.056L204.785 282.023Z" fill="#FEC74A" stroke="#D8AA3F" stroke-width="1.66608"/>
<path fill-rule="evenodd" clip-rule="evenodd" d="M209.992 263.28C196.038 242.871 160.01 236.727 166.986 195.596C186.771 224.544 188.958 201.427 222.175 233.603L209.888 263.28H209.992Z" fill="#FEC74A" stroke="#D8AA3F" stroke-width="1.66608"/>
<path fill-rule="evenodd" clip-rule="evenodd" d="M216.24 249.952C211.241 225.898 180.315 206.321 202.495 171.021C209.784 205.384 220.509 184.766 238.94 227.251L216.24 249.952Z" fill="#FEC74A" stroke="#D8AA3F" stroke-width="1.66608"/>
<path fill-rule="evenodd" clip-rule="evenodd" d="M230.818 237.664C233.421 213.09 209.992 185.079 241.856 158.213C238.211 193.097 254.872 176.957 259.349 222.774L230.714 237.664H230.818Z" fill="#FEC74A" stroke="#D8AA3F" stroke-width="1.66608"/>
<path fill-rule="evenodd" clip-rule="evenodd" d="M243.73 227.668C256.226 206.425 246.229 171.229 286.319 159.775C268.721 190.077 290.484 182.059 275.802 225.897L243.73 227.668Z" fill="#FEC74A" stroke="#D8AA3F" stroke-width="1.66608"/>
<path fill-rule="evenodd" clip-rule="evenodd" d="M262.578 230.271C281.113 214.027 282.883 177.581 324.535 179.456C298.19 202.572 321.411 201.948 293.608 238.81L262.578 230.271Z" fill="#FEC74A" stroke="#D8AA3F" stroke-width="1.66608"/>
<path fill-rule="evenodd" clip-rule="evenodd" d="M279.134 239.747C301.626 229.75 314.018 195.387 353.275 209.445C321.307 223.815 343.695 230.063 306.208 257.032L279.134 239.851V239.747Z" fill="#FEC74A" stroke="#D8AA3F" stroke-width="1.66608"/>
<path fill-rule="evenodd" clip-rule="evenodd" d="M292.879 254.95C317.35 251.618 338.905 222.045 372.643 246.619C337.864 251.409 357.648 263.697 314.122 279.108L292.879 254.95Z" fill="#FEC74A" stroke="#D8AA3F" stroke-width="1.66608"/>
<path fill-rule="evenodd" clip-rule="evenodd" d="M379.932 259.531L267.888 262.031L272.574 292.228L379.932 259.636V259.531Z" fill="#FEC74A" stroke="#D8AA3F" stroke-width="1.66608"/>
<path fill-rule="evenodd" clip-rule="evenodd" d="M363.48 218.4L259.662 258.282L277.052 291.604L363.48 218.4Z" fill="#FEC74A" stroke="#D8AA3F" stroke-width="1.66608"/>
<path fill-rule="evenodd" clip-rule="evenodd" d="M281.009 280.67L334.74 183.1L252.373 259.74L281.009 280.566V280.67Z" fill="#FEC74A" stroke="#D8AA3F" stroke-width="1.66608"/>
<path fill-rule="evenodd" clip-rule="evenodd" d="M280.034 272.591L297.317 163.126L243.486 260.496L280.034 272.591Z" fill="#FEC74A" stroke="#D8AA3F" stroke-width="1.72639"/>
<path fill-rule="evenodd" clip-rule="evenodd" d="M273.511 263.697L255.393 153.423L235.4 264.217L273.511 263.697Z" fill="#FEC74A" stroke="#D8AA3F" stroke-width="1.66608"/>
<path fill-rule="evenodd" clip-rule="evenodd" d="M264.064 254.348L211.739 162.336L231.83 274.182L264.064 254.348Z" fill="#FEC74A" stroke="#D8AA3F" stroke-width="1.72808"/>
<path fill-rule="evenodd" clip-rule="evenodd" d="M256.017 253.596L174.9 185.079L232.588 283.065L256.017 253.596Z" fill="#FEC74A" stroke="#D8AA3F" stroke-width="1.66608"/>
<path fill-rule="evenodd" clip-rule="evenodd" d="M146.473 218.921L233.421 290.77L246.854 253.18L146.368 218.817L146.473 218.921Z" fill="#FEC74A" stroke="#D8AA3F" stroke-width="1.66608"/>
<path fill-rule="evenodd" clip-rule="evenodd" d="M232.588 260.885L130.228 259.427L232.172 293.374L232.484 260.885H232.588Z" fill="#FEC74A" stroke="#D8AA3F" stroke-width="1.66608"/>
<path fill-rule="evenodd" clip-rule="evenodd" d="M315.58 279.316C315.921 287.59 314.585 295.847 311.654 303.592C308.723 311.337 304.256 318.409 298.522 324.384C292.789 330.358 285.906 335.112 278.289 338.36C270.671 341.607 262.476 343.282 254.195 343.282C245.914 343.282 237.719 341.607 230.101 338.36C222.484 335.112 215.601 330.358 209.868 324.384C204.134 318.409 199.667 311.337 196.736 303.592C193.805 295.847 192.47 287.59 192.81 279.316C192.81 263.022 199.283 247.395 210.805 235.874C222.326 224.352 237.953 217.879 254.247 217.879C270.541 217.879 286.168 224.352 297.689 235.874C309.211 247.395 315.684 263.022 315.684 279.316H315.58Z" fill="#FEC74A" stroke="#D8AA3F" stroke-width="1.66608"/>
<path fill-rule="evenodd" clip-rule="evenodd" d="M-164.668 303.37H675.245V511.942H-164.668V303.37Z" fill="#005989"/>
<path fill-rule="evenodd" clip-rule="evenodd" d="M-165.084 453.942C-149.465 461.231 -127.181 479.246 -103.231 479.246C-63.1411 479.038 -62.0998 451.86 -21.4891 453.213C19.1216 454.255 11.8325 482.786 66.709 482.578C112.006 482.578 126.688 447.903 165.841 452.068C194.789 450.61 206.66 484.765 251.227 485.181C297.357 486.223 314.226 447.903 343.174 451.131C374.101 451.131 384.201 481.953 427.52 482.161C482.708 482.474 492.288 450.089 526.755 452.172C551.33 451.651 570.698 475.914 606.727 476.434C635.363 476.955 659.417 455.296 675.661 447.486L676.494 410.624C659.417 416.976 634.113 437.698 608.706 438.01C572.26 439.364 549.664 414.06 524.256 414.269C493.85 414.581 481.771 445.508 430.227 445.508C383.056 445.508 372.226 414.269 341.821 414.269C312.143 414.477 303.084 448.319 251.644 447.59C209.68 447.174 193.331 415.31 163.55 415.622C132.103 415.622 99.51 446.549 64.6264 444.987C16.5184 442.904 6.10536 415.622 -25.446 415.622C-48.9794 415.622 -74.3871 441.238 -102.71 441.655C-130.826 442.176 -162.585 416.143 -165.501 415.622L-165.084 453.942ZM-165.084 381.051C-149.465 388.34 -127.181 406.355 -103.231 406.355C-63.1411 406.042 -62.0998 378.864 -21.4891 380.218C19.1216 381.259 11.8325 409.791 66.709 409.687C112.006 409.583 126.688 375.012 165.841 379.177C194.789 377.615 206.66 411.874 251.227 412.29C297.357 413.332 314.226 375.012 343.174 378.136C374.101 378.136 384.201 408.958 427.52 409.27C482.708 409.479 492.288 377.198 526.755 379.177C551.33 378.656 570.698 402.919 606.727 403.543C635.363 404.064 659.417 382.301 675.661 374.595L676.494 337.733C659.417 343.981 634.113 364.807 608.706 365.015C572.26 366.369 549.664 341.065 524.256 341.274C493.85 341.586 481.771 372.513 430.227 372.513C383.056 372.513 372.226 341.274 341.821 341.274C312.143 341.586 303.084 375.324 251.644 374.699C209.68 374.179 193.331 342.419 163.55 342.731C132.103 342.731 99.51 373.554 64.6264 372.096C16.5184 370.013 6.10536 342.731 -25.446 342.731C-48.9794 342.731 -74.3871 368.347 -102.71 368.764C-130.826 369.18 -162.585 343.252 -165.501 342.731L-165.084 381.051Z" fill="white"/>
<path fill-rule="evenodd" clip-rule="evenodd" d="M-165.084 308.889C-149.465 316.178 -127.181 334.193 -103.231 334.193C-63.2452 333.88 -62.2039 306.807 -21.6974 308.056C18.9133 309.097 11.6242 337.629 66.5007 337.525C111.797 337.525 126.48 302.85 165.424 307.015C194.477 305.557 206.243 339.712 250.811 340.128C296.836 341.169 313.809 302.85 342.758 306.078C373.58 306.078 383.681 336.9 426.895 337.108C482.084 337.317 491.663 305.036 526.13 307.119C550.705 306.598 569.969 330.756 605.998 331.381C634.634 331.902 658.688 310.139 674.828 302.433L675.661 265.571C658.688 271.923 633.28 292.645 607.977 292.853C571.531 294.207 548.935 268.903 523.631 269.216C493.225 269.424 481.146 300.455 429.602 300.455C382.535 300.455 371.706 269.216 341.404 269.216C311.727 269.424 302.563 303.162 251.227 302.537C209.263 302.121 192.915 270.257 163.238 270.569C131.79 270.569 99.3017 301.392 64.4182 299.934C16.3101 297.851 5.89709 270.569 -25.5502 270.569C-49.0835 270.569 -74.4913 296.185 -102.815 296.602C-130.93 297.018 -162.585 271.09 -165.501 270.569L-165.188 308.889H-165.084Z" fill="white"/>
<path fill-rule="evenodd" clip-rule="evenodd" d="M137.309 75.9502C198.329 71.785 187.187 66.5785 211.762 62.6216C242.689 66.7868 246.229 85.5302 263.515 97.0886C263.515 97.0886 257.059 118.956 235.816 115.936C233.005 107.189 246.125 104.482 208.326 81.365C186.354 80.1154 147.097 85.2178 137.309 75.9502ZM326.513 109.897L282.571 111.667V122.6C312.248 123.538 317.558 119.477 326.513 109.897Z" fill="#FFC84B" stroke="#D8AA3F" stroke-width="1.77021"/>
<path fill-rule="evenodd" clip-rule="evenodd" d="M175.317 108.022C183.022 104.066 186.771 105.732 193.435 105.419C198.017 113.75 202.286 114.479 212.283 115.52C216.708 122.07 222.638 127.465 229.577 131.252C236.516 135.038 244.262 137.106 252.165 137.283C282.05 136.45 291.526 115.52 311.623 113.229H332.865C329.325 107.189 326.618 103.753 318.912 103.441C300.786 102.193 282.574 103.384 264.764 106.981L239.773 113.229C232.484 109.689 214.469 90.841 203.015 91.2575C196.247 93.0277 196.247 95.4227 192.915 97.9219C186.459 100.733 180.002 99.3797 175.212 108.022H175.317Z" fill="#FFC84B" stroke="#D8AA3F" stroke-width="1.66608" stroke-linejoin="round"/>
<path fill-rule="evenodd" clip-rule="evenodd" d="M205.514 98.859C205.514 99.6875 205.185 100.482 204.599 101.068C204.013 101.654 203.219 101.983 202.39 101.983C201.562 101.983 200.767 101.654 200.181 101.068C199.596 100.482 199.267 99.6875 199.267 98.859C199.267 98.0305 199.596 97.2359 200.181 96.6501C200.767 96.0642 201.562 95.7351 202.39 95.7351C203.219 95.7351 204.013 96.0642 204.599 96.6501C205.185 97.2359 205.514 98.0305 205.514 98.859Z" fill="#FFC84B" stroke="#D8AA3F" stroke-width="1.66608"/>
<path fill-rule="evenodd" clip-rule="evenodd" d="M226.028 107.814C270.908 53.6664 310.165 60.2266 361.397 56.582C363.063 62.8298 362.438 72.2015 338.072 80.5319C304.75 85.5302 244.875 120.726 244.667 120.726C233.525 120.205 225.716 108.543 225.924 107.814H226.028Z" fill="#FFC84B" stroke="#D8AA3F" stroke-width="1.77021"/>
<path d="M318.287 72.5139L351.4 73.9717M314.747 77.9287L338.905 79.9071" stroke="#D9A43E" stroke-width="1.77021" stroke-linecap="round"/>
</g>
</g>
<defs>
<clipPath id="clip0_103_7237">
<rect width="512" height="512" fill="white" transform="translate(0.5)"/>
</clipPath>
</defs>
</svg>
