<svg width="513" height="512" viewBox="0 0 513 512" fill="none" xmlns="http://www.w3.org/2000/svg">
<g clip-path="url(#clip0_103_7291)">
<mask id="mask0_103_7291" style="mask-type:luminance" maskUnits="userSpaceOnUse" x="0" y="-1" width="513" height="513">
<path d="M0.526123 -0.0742188H512.53V511.934H0.526123V-0.0742188Z" fill="white"/>
</mask>
<g mask="url(#mask0_103_7291)">
<path fill-rule="evenodd" clip-rule="evenodd" d="M776.467 511.512H-75.3774V0.558594H776.467V511.512Z" fill="white" stroke="black" stroke-width="1.04912"/>
<path fill-rule="evenodd" clip-rule="evenodd" d="M776.467 419.024H-75.3774V511.618H776.467V419.024Z" fill="#3E5698"/>
<path fill-rule="evenodd" clip-rule="evenodd" d="M776.467 397.615H-75.3774V114.455H776.467V397.615Z" fill="#C60000"/>
<path fill-rule="evenodd" clip-rule="evenodd" d="M776.467 0.558594H-75.3774V92.9416H776.467V0.558594Z" fill="#3E5698"/>
<path fill-rule="evenodd" clip-rule="evenodd" d="M328.981 256.088C328.981 319.47 275.935 370.934 210.468 370.934C144.915 370.934 91.7828 319.47 91.7828 255.983C91.7828 192.601 144.915 141.137 210.468 141.137C276.021 141.137 328.981 192.601 328.981 256.088Z" fill="white"/>
<path fill-rule="evenodd" clip-rule="evenodd" d="M268.517 336.343L211.503 295.636L153.627 336.765L176.312 270.536L119.298 229.934L190.371 229.618L212.97 163.178L234.102 229.407L305.175 228.985L247.213 270.114L268.517 336.343Z" fill="#C40000"/>
</g>
</g>
<defs>
<clipPath id="clip0_103_7291">
<rect width="512" height="512" fill="white" transform="translate(0.5)"/>
</clipPath>
</defs>
</svg>
