<svg width="513" height="512" viewBox="0 0 513 512" fill="none" xmlns="http://www.w3.org/2000/svg">
<g clip-path="url(#clip0_103_7326)">
<path d="M0.5 0H512.5V512H0.5V0Z" fill="#000066"/>
<path d="M0.5 -0.5H256.5V255.5H0.5V-0.5Z" fill="#012169"/>
<path d="M256.5 -0.5V31.5L161.5 127.5L256.5 221V255.5H223L127.5 161.5L34.5 255.5H0.5V221.5L93.5 128L0.5 36.5V-0.5H31.5L127.5 93.5L220.5 -0.5H256.5Z" fill="white"/>
<path d="M92.5 161.5L98 178.5L21.5 255.5H0.5V254L92.5 161.5ZM154.5 155.5L181.5 159.5L256.5 233V255.5L154.5 155.5ZM256.5 -0.5L160.5 97.5L158.5 75.5L233.5 -0.5H256.5ZM0.5 0L97 94.5L67.5 90.5L0.5 24V0Z" fill="#C8102E"/>
<path d="M88.5 -0.5V255.5H168.5V-0.5H88.5ZM0.5 87.5V167.5H256.5V87.5H0.5Z" fill="white"/>
<path d="M0.5 103.5V151.5H256.5V103.5H0.5ZM104.5 -0.5V255.5H152.5V-0.5H104.5Z" fill="#C8102E"/>
<path d="M448.813 207.38V275.357C448.813 334.31 420.938 354.543 383.602 370.555C346.265 354.543 318.099 334.31 318.099 275.357V207.307H448.813V207.38Z" fill="white" stroke="white" stroke-width="6.98698" stroke-linejoin="round"/>
<path d="M277.56 365.024C279.67 370.555 294.663 377.906 312.131 368.517C323.994 361.821 331.636 352.505 338.987 335.766C341.025 331.544 342.116 326.304 337.24 323.174C333.383 320.336 327.051 317.206 324.285 314.441C322.902 312.985 321.519 311.966 320.5 310.947C321.228 311.675 321.883 312.33 322.538 313.349C329.525 321.719 322.247 333.946 314.532 341.297C308.928 346.537 298.884 359.419 284.183 347.192C281.053 344.427 273.702 355.926 277.632 365.024H277.56ZM489.644 365.024C487.169 370.555 472.176 377.906 455.072 368.517C443.282 361.821 435.567 352.505 427.925 335.766C426.178 331.544 425.087 326.304 429.963 323.174C433.82 320.336 440.152 317.206 442.918 314.441C444.301 312.985 445.32 311.966 446.703 310.947C445.975 311.675 445.32 312.33 444.665 313.349C437.678 321.719 444.956 333.946 452.307 341.297C457.911 346.537 468.319 359.419 483.02 347.192C486.15 344.427 493.137 355.926 489.571 365.024H489.644Z" fill="#FCEA83" stroke="white" stroke-width="6.98698" stroke-linejoin="round"/>
<path d="M383.602 395.009C411.477 395.009 454.418 382.418 477.489 338.459C481.274 331.18 477.489 327.323 472.904 324.921C467.721 322.311 463 318.869 458.93 314.732C464.534 320.336 463.442 324.193 459.658 330.453C441.826 360.147 417.445 375.14 383.602 375.14C349.758 375.14 325.377 360.147 307.545 330.453C303.761 324.193 302.669 320.336 307.909 314.805C303.9 318.993 299.166 322.42 293.935 324.921C289.423 327.323 285.566 331.18 289.423 338.459C312.422 382.418 355.654 395.009 383.602 395.009Z" fill="#FCEA83" stroke="white" stroke-width="6.98698" stroke-linejoin="round"/>
<path d="M319.045 336.057C318.317 332.563 313.877 333.946 312.495 338.167C310.611 335.753 308.954 333.171 307.546 330.452C303.397 324.193 302.669 319.972 308.637 314.077C311.403 311.311 317.007 308.109 320.792 311.602C328.798 318.225 324.649 329.07 319.045 336.057ZM447.794 336.057C448.522 332.563 453.399 333.946 454.781 338.167C456.528 335.693 458.275 333.291 459.658 330.452C463.806 324.193 464.534 319.972 458.202 314.077C455.8 311.311 450.196 308.109 446.048 311.602C438.333 318.225 442.19 329.07 447.794 336.057ZM277.56 365.023C274.066 359.783 271.301 346.1 270.573 342.68C269.554 339.55 269.19 336.712 273.047 335.402C276.905 333.946 280.325 338.822 282.072 343.044C283.819 347.192 286.657 353.451 289.787 361.166C282.072 356.654 275.813 359.71 277.56 365.023ZM489.644 365.023C492.773 359.783 495.539 346.1 496.631 342.68C497.358 339.55 498.013 336.712 494.156 335.402C490.299 333.946 486.878 338.822 485.131 343.044C483.384 347.192 480.546 353.451 477.416 361.166C485.131 356.654 491.026 359.71 489.644 365.023Z" fill="#C8102E" stroke="white" stroke-width="6.98698" stroke-linejoin="round"/>
<path d="M356.745 207.016C352.233 208.035 349.103 208.399 344.882 204.541C342.116 201.776 342.771 196.899 345.61 195.08C348.74 193.042 351.505 191.659 355.363 192.678C359.22 193.77 369.337 203.159 366.862 203.522C364.387 203.522 360.603 205.924 356.745 207.016ZM367.517 190.276C368.973 189.185 370.719 188.53 375.232 188.093C379.453 187.802 382.51 187.802 383.602 191.004C385.057 194.789 386.076 199.301 388.842 201.412C387.095 202.431 378.361 203.522 375.232 201.776C371.083 199.665 369.992 191.586 367.59 190.276H367.517ZM397.576 190.64C398.958 189.549 400.705 189.549 405.218 189.912C409.73 190.276 411.477 190.64 412.496 193.77C413.587 197.263 412.496 201.776 414.679 204.905C412.496 205.633 405.581 205.633 403.107 203.159C399.322 200.393 399.613 192.314 397.576 190.567V190.64Z" fill="white" stroke="white" stroke-width="6.98698" stroke-linejoin="round"/>
<path d="M418.464 192.678C415.334 191.95 413.224 191.659 411.914 192.678C413.588 194.789 412.205 203.159 415.698 205.924C418.1 207.671 424.432 208.108 425.815 204.177C427.561 200.684 427.561 195.444 418.537 192.678H418.464ZM382.583 189.185C383.602 188.166 385.712 187.802 389.861 187.802C394.446 187.802 397.139 188.53 398.595 191.295C400.05 194.789 399.614 199.301 402.088 202.14C401.069 203.522 391.608 203.522 388.842 201.412C384.985 198.937 384.621 190.931 382.583 189.185ZM352.961 192.314C352.961 190.567 355.363 190.276 361.695 189.912C367.881 189.185 368.245 189.548 370.356 194.061C371.375 196.535 372.757 200.684 375.596 202.067C367.881 203.886 365.407 204.905 361.258 202.431C358.228 200.536 355.725 197.907 353.98 194.789C353.616 193.77 353.616 192.678 352.888 192.314H352.961Z" fill="#073163" stroke="white" stroke-width="6.98698" stroke-linejoin="round"/>
<path d="M353.616 161.309C351.141 161.309 349.103 160.29 347.648 158.544C345.246 155.341 338.623 153.958 335.785 156.797C334.766 157.525 333.383 157.525 332.364 157.816C330.617 157.816 328.506 159.563 329.161 163.056C330.617 161.964 330.908 163.056 332 163.056C332.728 162.692 332.364 163.42 332.364 164.075C332.364 165.822 336.148 169.315 339.642 168.951C343.499 168.951 345.246 170.407 345.901 171.135C346.993 172.081 346.265 171.79 346.993 173.537C348.012 174.555 348.376 174.919 346.629 176.302C345.834 176.965 345.195 177.794 344.756 178.731C344.318 179.668 344.09 180.69 344.09 181.724C344.09 182.759 344.318 183.781 344.756 184.718C345.195 185.655 345.834 186.484 346.629 187.147C351.141 190.567 362.641 195.88 375.596 185.691C388.114 175.938 407.619 181.542 409.075 184.963C410.822 188.529 411.477 190.567 411.841 192.314C412.205 193.77 413.951 195.152 416.426 194.789C418.828 194.789 421.593 195.808 422.976 196.899C424.796 197.918 427.197 197.627 426.542 194.425C425.087 184.672 419.192 183.289 418.537 178.777C421.957 179.068 424.359 179.068 425.815 177.685C426.834 176.302 428.216 173.828 429.672 173.173C430.691 172.445 430.691 171.717 429.308 172.081C427.561 172.445 426.542 173.173 423.34 172.809C407.328 171.062 362.35 158.835 353.616 161.309Z" fill="#059334" stroke="white" stroke-width="6.98698" stroke-linejoin="round"/>
<path d="M424.796 173.173C422.135 175.05 419.862 177.422 418.1 180.16C414.679 184.672 404.199 189.185 391.244 189.185C378.725 189.185 371.083 187.147 365.479 182.634C363.086 180.721 360.501 179.062 357.764 177.685C353.98 175.938 353.252 172.081 354.271 168.951C353.252 170.698 352.597 172.445 350.486 172.081C349.031 172.081 346.265 172.081 346.993 173.537C346.629 172.809 346.629 171.79 346.265 171.353L345.537 170.698C346.629 171.426 349.103 169.315 350.85 169.315C352.233 169.679 353.98 167.933 353.616 165.822L352.597 161.309C355.363 159.854 391.971 166.55 399.322 167.205C406.6 167.569 427.561 170.698 424.796 173.173Z" fill="black" stroke="white" stroke-width="6.98698" stroke-linejoin="round"/>
<path d="M358.492 159.927C361.986 156.433 366.134 154.686 370.356 155.705H371.374C373.558 153.959 378.361 153.595 381.2 154.977H382.583C386.731 153.595 394.737 154.977 397.576 157.816L398.595 158.544C408.056 157.816 413.587 161.964 420.21 168.66C420.938 169.388 421.957 170.698 423.704 171.062C425.815 171.426 426.179 172.518 424.432 173.537C421.634 175.267 419.169 177.486 417.154 180.087C413.951 184.308 403.835 188.53 391.244 188.53C379.089 188.53 371.738 186.346 366.134 182.198C363.005 179.796 360.603 178.413 358.856 177.321C356.745 176.593 353.98 173.828 354.999 171.062C355.726 168.296 353.98 164.803 352.597 161.309C353.616 160.582 356.382 159.563 357.764 160.29L358.492 159.927Z" fill="#059334" stroke="white" stroke-width="6.98698" stroke-linejoin="round"/>
<path d="M420.211 168.66C413.66 161.964 408.056 157.816 398.595 158.471C398.595 158.835 398.595 159.927 398.231 160.654C404.825 163.613 410.67 168.016 415.334 173.537C416.79 172.081 419.192 170.407 420.211 168.66ZM397.576 157.816C394.737 155.05 386.731 153.595 382.583 155.05C382.583 156.433 382.583 158.544 381.855 159.927C384.329 160.946 386.367 163.42 388.478 165.822C389.934 165.458 393.354 164.439 395.101 164.075C396.143 162.081 396.973 159.983 397.576 157.816ZM381.2 154.977C378.361 153.595 373.485 153.959 371.374 155.705C370.647 157.161 370.356 159.927 370.356 161.309C371.811 161.309 373.849 162.328 374.504 163.056C376.687 162.328 379.453 160.946 380.472 159.927C380.836 158.471 381.491 156.433 381.2 155.05V154.977ZM358.492 159.927C361.986 156.433 366.134 154.686 370.356 155.705C369.628 156.797 369.337 158.835 369.337 160.946C365.479 160.582 360.603 161.673 358.492 163.056V159.927Z" fill="#00493D" stroke="white" stroke-width="6.98698" stroke-linejoin="round"/>
<path d="M413.951 174.192C409.567 169 404.102 164.827 397.94 161.964C397.94 162.328 397.212 163.711 396.848 164.803C398.958 167.933 403.107 174.919 404.854 178.777C406.6 178.049 411.477 175.938 413.951 174.192ZM387.459 181.906C388.062 177.15 388.402 172.363 388.478 167.569C390.225 167.205 393.718 166.186 395.101 165.822C396.848 168.66 401.069 176.011 402.816 179.432C398.595 180.451 391.608 182.198 387.459 181.906ZM375.232 165.167C376.979 164.439 379.453 162.983 381.127 161.673C382.583 162.692 385.348 165.167 386.367 166.55C386.367 169.679 385.348 178.777 384.985 181.834C382.219 181.834 377.706 181.179 375.232 179.796C375.596 174.556 375.96 168.66 375.232 165.167ZM357.764 169.315C358.128 168.588 358.492 166.186 358.492 165.167C361.258 163.42 368.245 161.673 373.485 164.439C373.849 167.933 373.485 176.666 373.121 178.777C368.453 174.981 363.316 171.801 357.837 169.315H357.764Z" fill="#00493D" stroke="white" stroke-width="6.98698" stroke-linejoin="round"/>
<path d="M340.37 162.983C339.642 162.983 339.278 160.945 337.895 160.945C337.531 160.945 336.512 161.309 336.148 160.945C336.148 161.673 336.512 162.401 336.876 162.692C337.24 163.711 338.987 163.056 340.37 163.056V162.983Z" fill="black"/>
<path d="M340.37 168.951C344.518 168.951 345.246 163.711 347.357 163.42M342.771 169.315C345.901 170.771 348.376 163.42 350.777 163.711M336.512 160.29C337.531 160.29 338.259 158.835 340.006 160.581C340.734 161.309 341.752 161.673 342.48 161.673M341.752 165.458C340.297 167.641 337.895 168.951 336.512 168.296M335.784 156.797C334.766 157.525 334.11 158.835 333.383 159.926M332.364 161.964V163.711" stroke="white" stroke-width="6.98698" stroke-linejoin="round"/>
<path d="M369.7 156.797C362.349 151.193 353.616 145.953 345.61 144.934C353.963 150.503 361.894 156.682 369.336 163.42" fill="black"/>
<path d="M369.7 156.797C362.349 151.193 353.616 145.953 345.61 144.934C353.963 150.503 361.894 156.682 369.336 163.42" stroke="white" stroke-width="6.98698" stroke-linejoin="round"/>
<path d="M373.849 151.557C365.115 145.589 354.999 138.966 345.246 138.311C354.373 143.6 362.502 150.448 369.264 158.544M384.985 141.804C388.925 132.848 394.76 124.852 402.088 118.369C398.595 125.72 394.81 140.712 392.99 146.68" fill="black"/>
<path d="M373.849 151.557C365.115 145.589 354.999 138.966 345.246 138.311C354.373 143.6 362.502 150.448 369.264 158.544M384.985 141.804C388.925 132.848 394.76 124.852 402.088 118.369C398.595 125.72 394.81 140.712 392.99 146.68" stroke="white" stroke-width="6.98698" stroke-linejoin="round"/>
<path d="M392.699 140.057C396.072 131.856 402.413 125.229 410.458 121.498C404.414 129.038 399.913 137.694 397.212 146.972" fill="black"/>
<path d="M392.699 140.057C396.072 131.856 402.413 125.229 410.458 121.498C404.414 129.038 399.913 137.694 397.212 146.972" stroke="white" stroke-width="6.98698" stroke-linejoin="round"/>
<path d="M395.829 146.972C402.511 136.743 412.089 128.736 423.34 123.973C414.606 132.707 401.724 148.718 398.595 155.05M400.705 154.686C406.964 151.193 419.555 145.589 428.58 147.408C423.049 149.446 406.309 157.088 398.958 164.148" fill="black"/>
<path d="M395.829 146.972C402.511 136.743 412.089 128.736 423.34 123.973C414.606 132.707 401.724 148.718 398.595 155.05M400.705 154.686C406.964 151.193 419.555 145.589 428.58 147.408C423.049 149.446 406.309 157.088 398.958 164.148" stroke="white" stroke-width="6.98698" stroke-linejoin="round"/>
<path d="M399.322 152.212C405.218 145.953 416.062 136.564 427.561 132.707C419.192 140.712 401.36 158.908 398.958 161.673M382.583 148.427C378.361 135.472 372.102 123.318 362.714 119.46C370.191 130.152 375.394 142.266 377.998 155.05M374.504 148.063C367.59 139.694 358.128 131.324 347.357 129.577C357.912 136.484 366.251 146.289 371.374 157.816" fill="black"/>
<path d="M399.322 152.212C405.218 145.953 416.062 136.564 427.561 132.707C419.192 140.712 401.36 158.908 398.958 161.673M382.583 148.427C378.361 135.472 372.102 123.318 362.714 119.46C370.191 130.152 375.394 142.266 377.998 155.05M374.504 148.063C367.59 139.694 358.128 131.324 347.357 129.577C357.912 136.484 366.251 146.289 371.374 157.816" stroke="white" stroke-width="6.98698" stroke-linejoin="round"/>
<path d="M378.434 147.699C369.7 131.979 363.005 129.213 359.22 126.083C362.35 131.979 369.992 147.699 374.504 154.323" fill="black"/>
<path d="M378.434 147.699C369.7 131.979 363.005 129.213 359.22 126.083C362.35 131.979 369.992 147.699 374.504 154.323" stroke="white" stroke-width="6.98698" stroke-linejoin="round"/>
<path d="M360.967 146.68C365.945 149.811 370.209 153.952 373.485 158.835" stroke="white" stroke-width="6.98698" stroke-linejoin="round"/>
<path d="M360.967 153.959C363.005 155.705 366.862 157.816 370.356 160.946L360.967 153.959ZM402.452 159.199C405.945 156.433 413.587 151.921 417.445 150.465L402.452 159.199ZM399.977 156.797C403.471 152.212 410.458 145.953 412.932 143.842L399.977 156.797ZM409.73 135.108C405.04 140.364 400.619 145.854 396.484 151.557L409.73 135.108ZM400.705 131.979C397.402 136.865 394.482 141.999 391.971 147.336L400.705 131.979ZM373.121 132.707C375.232 138.311 379.089 147.699 380.399 151.557L373.121 132.707ZM369.992 138.602C371.447 140.785 374.213 145.589 375.232 149.082L369.992 138.602Z" fill="black"/>
<path d="M360.967 153.959C363.005 155.705 366.862 157.816 370.356 160.946M402.452 159.199C405.945 156.433 413.587 151.921 417.445 150.465M399.977 156.797C403.471 152.212 410.458 145.953 412.932 143.842M409.73 135.108C405.04 140.364 400.619 145.854 396.484 151.557M400.705 131.979C397.402 136.865 394.482 141.999 391.971 147.336M373.121 132.707C375.232 138.311 379.089 147.699 380.399 151.557M369.992 138.602C371.447 140.785 374.213 145.589 375.232 149.082" stroke="white" stroke-width="6.98698" stroke-linejoin="round"/>
<path d="M381.855 136.855C381.855 133.725 383.966 130.305 386.076 130.305C388.478 130.305 390.225 134.453 390.225 136.855C390.225 139.693 388.114 142.095 386.076 142.095C383.893 142.095 381.855 140.057 381.855 136.855Z" fill="black" stroke="white" stroke-width="6.98698" stroke-linejoin="round"/>
<path d="M377.342 139.693C377.706 136.2 380.108 133.434 382.219 133.725C384.329 134.089 385.348 138.311 384.984 140.712C384.621 143.478 382.219 145.589 380.472 145.225C378.725 145.225 376.979 142.823 377.342 139.693ZM386.731 140.712C386.003 137.583 387.459 134.162 389.57 133.725C391.608 133.434 393.718 136.855 394.082 139.693C394.81 142.459 392.99 145.225 391.244 145.225C389.57 145.589 387.095 143.842 386.731 140.712Z" fill="black" stroke="white" stroke-width="6.98698" stroke-linejoin="round"/>
<path d="M381.491 143.478C381.491 140.057 383.602 136.928 385.712 136.928C388.114 136.928 389.861 140.712 389.861 143.478C389.861 146.316 387.823 148.718 385.712 148.718C383.602 148.718 381.491 146.68 381.491 143.478Z" fill="black" stroke="white" stroke-width="6.98698" stroke-linejoin="round"/>
<path d="M375.232 145.225C375.232 142.095 377.706 138.675 379.744 138.675C381.928 138.675 383.966 142.823 383.966 145.225C383.966 148.063 381.491 150.465 379.744 150.465C377.706 150.465 375.232 148.427 375.232 145.225ZM388.114 143.842C388.114 140.712 390.298 137.292 392.335 137.292C394.737 137.292 396.484 141.44 396.484 143.842C396.484 146.68 394.446 149.082 392.335 149.082C390.225 149.082 388.114 146.972 388.114 143.842Z" fill="black" stroke="white" stroke-width="6.98698" stroke-linejoin="round"/>
<path d="M386.731 146.68C386.731 143.187 389.206 140.057 391.244 140.057C393.427 140.057 395.465 143.842 395.465 146.608C395.465 149.446 393.354 151.921 391.244 151.921C389.206 151.921 386.731 149.737 386.731 146.68Z" fill="black" stroke="white" stroke-width="6.98698" stroke-linejoin="round"/>
<path d="M381.2 149.81C381.2 146.316 383.238 143.187 385.349 143.187C387.823 143.187 389.57 147.335 389.57 149.737C389.57 152.648 387.386 155.05 385.349 155.05C383.238 155.05 381.127 152.867 381.127 149.81H381.2ZM372.466 149.81C372.466 146.316 374.213 143.187 375.96 143.187C377.707 143.187 379.089 147.335 379.089 149.737C379.089 152.648 377.343 155.05 375.96 155.05C374.213 155.05 372.466 152.867 372.466 149.81ZM391.972 149.155C391.972 145.953 393.718 142.823 395.465 142.823C397.212 142.823 398.959 146.68 398.959 149.082C398.959 152.212 396.848 154.322 395.465 154.322C393.718 154.322 391.972 152.212 391.972 149.082V149.155Z" fill="black" stroke="white" stroke-width="6.98698" stroke-linejoin="round"/>
<path d="M394.082 154.978C394.81 151.557 396.848 148.718 398.231 149.155C399.686 149.446 399.977 153.595 399.322 156.069C398.958 159.199 396.848 160.946 395.465 160.582C394.009 160.291 393.354 157.816 394.009 155.05L394.082 154.978Z" fill="black" stroke="white" stroke-width="6.98698" stroke-linejoin="round"/>
<path d="M387.459 153.959C387.823 150.829 389.861 147.699 391.608 148.063C393.718 148.063 394.737 152.212 394.446 154.614C394.082 157.816 392.263 159.927 390.589 159.563C388.842 159.563 387.095 157.088 387.459 153.959ZM377.706 154.978C376.615 151.557 374.504 149.155 373.121 149.446C371.738 149.81 371.374 153.959 372.102 156.433C372.83 159.199 374.868 160.946 376.251 160.582C377.342 160.291 378.434 157.816 377.706 155.05V154.978Z" fill="black" stroke="white" stroke-width="6.98698" stroke-linejoin="round"/>
<path d="M375.232 154.322C375.232 151.193 376.979 148.063 378.725 148.063C380.836 148.063 382.219 151.921 382.219 154.322C382.219 157.452 380.472 159.563 378.725 159.563C377.27 159.563 375.232 157.452 375.232 154.322Z" fill="black" stroke="white" stroke-width="6.98698" stroke-linejoin="round"/>
<path d="M380.472 155.705C380.472 152.212 382.583 149.155 384.621 149.155C387.095 149.155 388.842 152.94 388.842 155.705C388.842 158.544 386.731 160.946 384.621 160.946C382.583 160.946 380.472 158.835 380.472 155.705ZM382.219 117.35C381.491 120.115 379.089 122.59 380.763 126.447C377.707 125.356 374.941 124.992 372.466 127.83C375.596 127.466 378.362 128.558 379.744 130.596C376.979 130.232 375.596 131.688 374.868 133.434C377.343 132.707 379.744 131.979 380.836 132.343C379.744 133.434 377.998 135.108 377.707 136.564C379.744 134.817 382.219 135.108 383.602 134.089C382.583 136.564 384.621 138.966 386.368 141.367C386.076 137.947 388.114 135.545 387.095 133.725C390.225 134.453 390.589 137.219 395.101 137.219C393.354 136.2 392.336 132.707 390.225 132.707C391.244 132.343 395.465 131.979 396.193 132.707C395.465 131.251 392.991 129.941 391.608 129.941C393.063 128.485 395.465 125.72 397.212 124.992C394.737 125.356 390.953 125.72 389.57 127.83C392.991 124.992 392.336 119.824 396.12 119.096C394.082 118.733 390.953 120.115 388.478 122.59C389.57 120.479 389.57 117.714 390.953 116.986C388.114 117.714 384.985 121.207 383.966 122.954C383.815 120.978 383.218 119.062 382.219 117.35Z" fill="black" stroke="white" stroke-width="6.98698" stroke-linejoin="round"/>
<path d="M383.965 122.954C383.965 123.973 383.965 126.084 383.602 126.739L383.965 122.954ZM388.478 122.59C387.75 123.318 386.367 125.72 386.367 127.83L388.478 122.59Z" fill="black"/>
<path d="M383.965 122.954C383.965 123.973 383.965 126.084 383.602 126.739M388.478 122.59C387.75 123.318 386.367 125.72 386.367 127.83" stroke="white" stroke-width="6.98698" stroke-linejoin="round"/>
<path d="M390.589 126.739C389.389 127.455 388.505 128.599 388.114 129.941" stroke="white" stroke-width="6.98698" stroke-linejoin="round"/>
<path d="M277.56 365.024C279.67 370.555 294.663 377.906 312.131 368.517C323.994 361.821 331.636 352.505 338.987 335.766C341.025 331.544 342.116 326.304 337.24 323.174C333.383 320.336 327.051 317.206 324.285 314.441C322.902 312.985 321.519 311.966 320.5 310.947C321.228 311.675 321.883 312.33 322.538 313.349C329.525 321.719 322.247 333.946 314.532 341.297C308.928 346.537 298.884 359.419 284.183 347.192C281.053 344.427 273.702 355.926 277.632 365.024H277.56ZM489.644 365.024C487.169 370.555 472.176 377.906 455.072 368.517C443.282 361.821 435.567 352.505 427.925 335.766C426.178 331.544 425.087 326.304 429.963 323.174C433.82 320.336 440.152 317.206 442.918 314.441C444.301 312.985 445.32 311.966 446.703 310.947C445.975 311.675 445.32 312.33 444.665 313.349C437.678 321.719 444.956 333.946 452.307 341.297C457.911 346.537 468.319 359.419 483.02 347.192C486.15 344.427 493.137 355.926 489.571 365.024H489.644Z" fill="#FCEA83" stroke="black" stroke-width="1.01893"/>
<path d="M383.602 395.009C411.477 395.009 454.418 382.418 477.489 338.459C481.274 331.18 477.489 327.323 472.904 324.921C467.721 322.311 463 318.869 458.93 314.732C464.534 320.336 463.442 324.193 459.658 330.453C441.826 360.147 417.445 375.14 383.602 375.14C349.758 375.14 325.377 360.147 307.545 330.453C303.761 324.193 302.669 320.336 307.909 314.805C303.9 318.993 299.166 322.42 293.935 324.921C289.423 327.323 285.566 331.18 289.423 338.459C312.422 382.418 355.654 395.009 383.602 395.009Z" fill="#FCEA83" stroke="black" stroke-width="1.01893"/>
<path d="M319.045 336.057C318.317 332.563 313.877 333.946 312.495 338.167C310.611 335.753 308.954 333.171 307.546 330.452C303.397 324.193 302.669 319.972 308.637 314.077C311.403 311.311 317.007 308.109 320.792 311.602C328.798 318.225 324.649 329.07 319.045 336.057ZM447.794 336.057C448.522 332.563 453.399 333.946 454.781 338.167C456.528 335.693 458.275 333.291 459.658 330.452C463.806 324.193 464.534 319.972 458.202 314.077C455.8 311.311 450.196 308.109 446.048 311.602C438.333 318.225 442.19 329.07 447.794 336.057ZM277.56 365.023C274.066 359.783 271.301 346.1 270.573 342.68C269.554 339.55 269.19 336.712 273.047 335.402C276.905 333.946 280.325 338.822 282.072 343.044C283.819 347.192 286.657 353.451 289.787 361.166C282.072 356.654 275.813 359.71 277.56 365.023ZM489.644 365.023C492.773 359.783 495.539 346.1 496.631 342.68C497.358 339.55 498.013 336.712 494.156 335.402C490.299 333.946 486.878 338.822 485.131 343.044C483.384 347.192 480.546 353.451 477.416 361.166C485.131 356.654 491.026 359.71 489.644 365.023Z" fill="#C8102E" stroke="black" stroke-width="1.01893"/>
<path d="M297.793 333.582L295.027 335.038C294.299 335.329 294.299 336.057 294.299 336.421H293.936L292.553 333.291H292.917C292.917 333.582 293.281 334.019 293.936 333.582L299.904 330.453C300.631 330.089 300.631 329.725 300.268 329.434L300.559 329.07L302.305 332.563H302.014C301.65 332.199 301.286 331.835 300.559 332.199L298.157 333.655L299.176 335.693L302.014 334.674C302.742 334.31 302.305 333.582 302.305 333.218H302.669L304.125 336.421C303.761 336.057 303.397 335.693 302.669 336.057L296.774 339.186C296.046 339.55 296.046 339.914 296.41 340.205L296.046 340.569L294.299 337.44L294.663 337.076C295.027 337.44 295.391 337.804 296.119 337.44L298.885 335.984L297.793 333.582ZM303.761 338.167C304.489 337.804 304.489 337.44 304.052 336.712H304.416L307.91 341.952L305.508 343.699V343.408C306.891 342.316 306.891 340.933 306.527 340.569C306.163 340.205 305.799 339.841 305.799 339.55C305.508 339.55 305.508 339.186 304.78 339.914L302.305 341.661C302.669 341.952 303.033 343.044 304.78 341.952H305.144L301.286 344.791V344.427C303.033 342.971 302.305 341.952 302.014 341.661L299.54 343.408C298.812 343.699 298.812 344.135 298.812 344.427C299.176 344.427 299.176 344.791 299.54 345.154C299.904 345.882 300.995 346.537 302.669 345.882L303.033 346.173L300.268 347.192L296.774 341.661H297.138C297.429 341.952 297.866 342.389 298.521 341.952L303.761 338.167ZM309.292 351.414L306.891 353.451C306.527 353.815 306.527 354.543 306.891 354.907H306.527L304.052 352.433L304.416 352.069C304.78 352.433 305.144 352.796 305.872 352.069L310.384 347.556C311.112 347.192 311.112 346.828 310.675 346.101L313.15 349.012C312.786 348.575 312.131 348.575 311.694 349.012L309.656 351.05L311.403 352.796L313.514 351.05C314.241 350.322 313.878 350.031 313.514 349.594L313.878 349.303L316.279 352.069H315.915C315.624 352.069 315.188 351.777 314.533 352.433L310.02 356.654C309.292 357.382 309.292 357.673 309.656 358.037V358.401L307.255 355.562C307.546 355.562 308.273 355.926 308.637 355.562L311.039 353.16L309.292 351.414ZM314.533 358.764L315.624 359.783L317.007 356.654C317.007 356.654 315.915 356.945 314.169 358.037L314.533 358.764L314.169 359.056L313.441 358.328C313.15 358.692 312.786 358.692 312.422 359.056C311.403 359.783 311.694 360.147 312.131 360.511V360.802L310.384 359.056H310.675L312.131 358.692L319.045 354.907L319.409 355.198C319.409 355.198 319.045 355.562 315.915 362.549C315.915 363.277 315.624 363.568 315.915 364.296L313.15 361.894L313.514 361.53C313.878 362.258 314.533 362.258 314.897 361.53C314.897 361.166 315.26 360.438 315.26 360.075L314.169 359.056L314.533 358.692V358.764ZM317.298 365.679L317.662 365.315C318.026 365.679 318.39 365.679 319.118 365.315L323.63 359.419L323.266 359.056C322.539 358.692 321.52 358.692 320.501 359.783V359.419L321.883 357.673L327.124 361.53L325.377 363.568H325.013C326.032 362.549 325.741 361.166 325.013 360.802V360.438L320.501 366.406C319.773 366.77 320.137 367.425 320.501 367.789H320.137L317.298 365.679Z" fill="#00493D"/>
<path d="M326.396 367.061L324.649 369.536C324.285 370.264 324.649 370.555 325.013 370.992L324.649 371.283L321.884 369.172V368.808C322.611 369.172 322.902 369.172 323.266 368.517L327.124 363.277C327.415 362.549 327.124 362.185 326.76 361.821L327.124 361.53L329.889 363.568V363.932C329.162 363.568 328.871 363.568 328.434 364.296L326.76 366.77L328.871 368.153L330.617 365.679C330.908 364.951 330.617 364.66 330.253 364.296L330.617 363.932L333.383 366.042V366.406C333.019 366.042 332.364 366.042 331.927 366.77L328.507 372.302C327.779 372.666 328.143 373.029 328.507 373.393V373.684L325.377 371.647H325.741C326.032 371.647 326.469 371.647 326.76 371.283L328.507 368.517L326.396 367.061ZM333.383 376.887L333.747 376.523C334.111 376.887 334.766 376.887 335.13 376.159L337.895 370.264C338.259 369.536 337.895 369.172 337.531 368.808L343.5 371.647L342.044 374.412L341.753 374.048C342.772 372.666 341.753 371.283 341.389 370.919C341.025 370.919 340.661 370.555 340.37 370.555C340.006 370.555 340.006 370.555 339.642 371.283C339.278 371.647 338.259 373.684 338.259 373.684C338.623 374.048 339.278 374.776 340.734 372.957H341.025L338.987 377.178L338.623 376.887C339.642 374.703 338.259 374.412 337.895 374.412L336.513 377.178C336.149 377.906 336.513 378.27 336.876 378.27V378.634L333.383 376.887ZM343.5 381.763C342.481 381.035 342.481 378.925 343.5 376.887C344.227 374.703 345.61 373.029 346.993 373.684C348.012 374.048 347.721 376.159 346.993 378.27C345.901 380.671 344.518 382.054 343.5 381.763H343.136C345.61 382.782 347.357 381.399 348.376 378.925C349.395 376.887 349.104 374.412 346.92 373.393C344.882 372.302 342.772 373.684 341.753 376.159C340.734 378.634 341.025 381.035 343.208 381.763H343.5ZM354.271 382.418L355.727 378.27C356.018 377.542 355.727 377.178 355.363 376.814L357.11 377.178V377.542C356.746 377.542 356.382 377.542 356.018 378.27L354.635 382.418C353.907 384.165 352.888 385.548 350.85 384.893C349.395 384.529 348.376 382.782 349.104 381.035L350.85 376.523C351.141 375.795 350.85 375.431 350.486 375.067V374.776L353.616 376.159V376.523C353.252 376.159 352.597 376.159 352.597 376.887L350.778 381.326C350.414 382.709 350.414 384.092 351.505 384.456C352.524 384.82 353.543 384.092 354.198 382.345L354.271 382.418ZM357.473 377.906C357.473 377.542 357.473 377.542 357.11 377.542L359.511 377.906L361.695 384.529L362.714 380.308C363.005 379.58 362.714 379.289 362.35 378.925L364.388 379.289L364.097 379.653C363.733 379.653 363.369 379.653 363.005 380.38L361.258 388.022H360.967L358.128 379.653L356.382 385.257C356.382 386.276 356.746 386.276 357.11 386.639V387.003L354.999 386.276V385.912C355.363 386.276 356.018 385.912 356.018 385.184L357.765 378.925L357.473 377.906ZM369.337 384.893C368.609 388.022 367.153 388.75 366.498 388.75H365.77C365.77 388.75 365.479 388.386 365.77 388.022L366.862 381.035C367.226 380.671 367.226 380.308 367.59 380.671H368.318C368.973 380.671 369.628 382.127 369.337 384.893L370.356 385.257C371.084 381.763 369.628 380.308 367.881 380.016C366.498 379.653 364.388 379.289 364.388 379.289V379.653C364.752 380.016 365.479 380.016 365.115 381.108L364.097 387.295C363.733 388.022 363.369 388.386 363.005 388.386H362.714L366.134 389.114C367.881 389.405 369.628 389.114 370.356 385.257L369.337 384.893ZM372.466 382.054C372.466 381.326 371.739 381.035 371.375 381.035V380.671L377.707 381.399L377.343 384.165C377.343 382.418 376.251 381.763 375.596 381.763C375.232 381.399 374.868 381.399 374.504 381.399C374.213 381.399 374.213 381.399 374.213 382.418L373.849 385.257C374.213 385.257 375.232 385.548 375.96 383.51L375.596 388.022H375.232C375.232 385.912 374.213 385.912 373.776 385.912L373.485 389.041C373.485 389.769 373.485 389.769 373.849 389.769L374.577 390.133C375.596 390.133 376.615 389.769 377.343 387.658H377.707L376.979 390.424L370.356 389.696C371.084 389.696 371.375 389.405 371.811 388.75L372.466 382.054ZM383.966 386.276C383.966 389.405 382.874 390.424 381.855 390.424C381.491 390.133 381.491 390.133 381.127 390.133L380.836 389.769L381.2 382.491C381.2 382.054 381.2 382.054 381.491 382.054H382.219C382.947 382.054 383.966 383.146 383.966 386.276H385.349C385.349 382.782 383.602 381.763 381.855 381.763C380.399 381.399 378.362 381.399 378.362 381.399V381.763C378.726 381.763 379.453 382.054 379.453 382.782L379.089 389.405C379.089 390.133 378.726 390.424 378.362 390.424V390.788H381.491C383.238 390.788 384.985 390.06 385.349 386.276H383.893H383.966ZM394.082 389.041C394.082 389.769 394.446 389.769 395.101 389.769V390.133L391.244 390.424C391.608 390.133 392.336 389.696 392.336 389.041L391.608 382.491C391.244 381.763 390.88 381.763 390.225 381.763V381.399L394.082 381.035C393.718 381.399 392.991 381.763 393.354 382.491L394.082 389.041ZM397.576 389.769V389.405C397.94 389.405 398.304 389.041 398.304 388.386L396.848 381.108H396.484C395.756 381.399 395.101 382.054 395.465 383.51H395.101L394.737 381.035L401.069 380.016L401.36 382.418H401.069C401.069 381.035 399.978 380.671 398.886 380.671H398.595L400.05 387.95C400.05 388.677 400.341 389.041 401.069 389.041V389.405L397.576 389.769ZM412.569 382.782L411.113 378.634C411.113 377.906 410.458 377.906 410.094 377.906V377.542L411.841 376.814V377.178C411.477 377.542 411.477 377.542 411.477 378.27L412.933 382.782C413.224 384.238 413.224 386.276 411.186 387.003C409.73 387.295 408.056 386.639 407.692 384.529L406.237 380.016C405.946 379.289 405.582 379.289 405.218 379.289L404.854 378.925L408.347 377.906V378.27C408.056 378.634 407.62 378.997 408.056 379.653L409.075 384.165C409.439 385.621 410.531 386.276 411.477 386.276C412.569 385.912 412.933 384.529 412.569 382.782ZM416.426 380.308C418.1 379.58 417.809 378.634 417.445 377.542C417.081 376.523 416.426 375.795 415.698 376.159C415.334 376.159 414.97 376.523 415.334 376.887L416.426 380.308L416.717 380.671L417.445 383.51C417.809 384.238 418.464 384.238 418.901 383.801V384.165L415.698 385.621L415.334 385.257C416.062 384.893 416.062 384.529 416.062 383.801L413.588 377.906C413.224 376.887 412.86 377.178 412.205 377.178V376.887L415.698 375.431C417.154 375.14 418.464 375.431 419.192 376.887C419.556 378.634 418.828 379.653 417.445 380.38C417.081 380.38 416.717 380.671 416.717 380.671L416.426 380.308Z" fill="#00493D"/>
<path d="M425.087 381.326C424.068 381.763 422.685 380.308 421.594 377.906C420.575 375.795 420.575 373.684 421.594 373.393C422.685 373.029 424.068 374.412 425.087 376.523C426.179 378.634 426.179 380.671 425.087 381.399C427.27 380.671 427.925 378.27 426.834 375.795C425.815 373.684 423.704 372.302 421.594 373.029C421.104 373.275 420.668 373.617 420.314 374.034C419.959 374.452 419.692 374.937 419.529 375.46C419.366 375.983 419.31 376.534 419.365 377.079C419.419 377.624 419.583 378.153 419.847 378.634C420.938 381.035 423.049 382.418 425.087 381.399V381.326ZM425.451 371.647H424.796L426.834 370.191L433.166 373.684L430.982 369.9C430.691 369.172 429.963 369.172 429.672 369.172V368.808L431.419 368.08C431.055 368.517 430.691 368.808 431.419 369.536L434.912 376.523L434.549 376.887L426.834 372.666L429.672 377.906C429.963 378.634 430.691 378.634 431.055 378.27V378.634L429.308 379.652V379.289C429.672 378.925 429.672 378.561 429.308 377.906L426.543 372.302L425.451 371.574V371.647ZM441.172 372.666V372.302C441.172 371.938 441.536 371.574 441.172 370.919L436.95 365.024H436.586C435.859 365.315 435.567 366.77 436.586 367.789L436.295 368.153L434.84 365.679L440.08 362.185L441.536 364.368C440.444 363.277 439.352 363.277 438.697 363.641L438.333 363.932L442.554 369.9C442.918 370.628 443.573 370.628 444.01 370.264V370.555L441.172 372.666Z" fill="#00493D"/>
<path d="M445.029 364.296L447.067 366.77C447.431 367.061 448.159 367.061 448.522 366.77V367.061L445.684 369.536V369.172C446.048 368.808 446.048 368.444 445.684 367.789L441.535 362.549C441.172 361.821 440.808 362.185 440.08 362.185L442.918 359.783V360.147C442.918 360.438 442.554 360.875 442.918 361.53L444.665 363.568L446.703 362.185L445.029 359.783C444.665 359.055 443.937 359.419 443.573 359.419L446.412 356.945V357.309C446.048 357.673 446.048 358.037 446.412 358.764L450.56 363.932C450.924 364.296 451.288 364.296 451.652 363.932L451.943 364.296L449.177 366.77L448.814 366.406C449.177 366.042 449.541 365.679 449.177 364.951L447.067 362.549L445.029 364.296ZM448.159 356.945C447.795 356.654 447.067 356.654 446.703 356.945V356.654L451.288 352.432L453.399 354.543H453.035C451.943 353.087 450.56 353.815 449.905 354.179C449.905 354.543 449.541 354.543 449.177 354.907C449.177 354.907 449.177 355.198 449.541 355.926L451.652 358.037C451.943 357.673 453.035 356.945 451.652 355.198H451.943L454.782 358.4V358.692C453.035 356.945 452.307 357.964 451.943 358.4L454.127 360.438C454.418 361.166 454.782 361.166 454.782 361.166L455.801 360.147C456.164 359.783 456.528 358.692 455.801 356.654H456.164L457.547 359.055L453.035 363.568L452.671 363.277C453.035 362.913 453.399 362.549 452.671 361.821L448.159 356.945ZM456.528 347.192C456.164 347.556 456.164 348.284 456.819 348.648C457.547 349.303 458.275 349.303 459.658 348.648C460.386 348.284 461.696 347.92 462.788 348.939C464.534 350.686 463.806 352.069 463.515 352.796C463.151 353.16 462.424 353.524 462.06 353.815C461.696 353.815 461.696 353.815 461.696 354.179V354.543L459.294 352.432H459.658C461.041 353.16 462.424 353.451 463.151 352.432C463.879 351.705 463.151 350.977 462.788 350.686C462.06 349.958 461.332 349.958 460.313 350.686C459.294 351.05 457.911 351.05 456.819 350.322C455.437 348.939 455.437 347.92 456.092 346.828L457.547 345.809C457.911 345.809 457.911 345.809 457.547 345.082L460.022 346.828H459.658C457.911 346.1 456.819 346.537 456.528 347.192ZM459.658 344.427C458.93 344.063 458.566 344.427 458.202 344.79H457.911L461.769 339.186L464.17 340.933L463.806 341.297C463.371 340.923 462.816 340.717 462.242 340.717C461.668 340.717 461.112 340.923 460.677 341.297C460.677 341.661 460.313 342.025 460.313 342.316C460.022 342.316 460.022 342.68 460.677 343.044C461.041 343.408 463.151 344.79 463.151 344.79C463.515 344.427 464.17 343.699 462.788 342.316V341.952L466.281 344.79C464.17 343.699 463.806 344.79 463.515 345.082L465.917 346.828C466.645 347.192 466.936 347.192 466.936 347.192C466.936 346.828 467.3 346.464 467.664 346.173C468.028 345.445 468.392 344.427 466.936 343.044L467.3 342.68L469.047 344.79L465.553 350.031H465.189C465.553 349.303 465.553 348.939 464.898 348.284L459.658 344.427ZM469.047 338.167L468.028 339.914C466.572 338.458 465.917 337.44 465.917 337.44L469.047 338.167H469.774C470.138 338.167 470.793 338.458 471.157 338.458C472.176 338.822 471.885 339.186 471.521 339.914H471.885L473.632 336.712C472.904 337.44 472.54 337.076 471.885 337.076C464.534 335.693 463.879 335.329 463.879 335.329V335.693L469.411 341.952C469.774 342.316 469.774 343.044 469.774 343.408H470.138L471.157 341.661L470.793 341.297C470.43 342.025 470.066 342.316 469.411 341.297L468.683 340.569L469.774 338.167H469.047ZM466.936 330.453C466.645 330.816 466.645 331.544 467.664 331.908C468.683 332.199 469.119 331.908 470.138 331.18C471.157 330.453 472.176 329.725 473.559 330.453C475.743 331.544 475.306 333.291 475.015 333.946L473.923 335.402V336.057L471.157 334.601C472.904 334.965 474.287 334.601 474.651 333.582C475.015 332.854 474.287 332.199 473.923 331.835C473.195 331.544 472.54 331.835 471.521 332.563C470.43 333.582 469.338 334.019 468.028 333.291C466.572 332.563 465.917 331.544 466.572 330.453C466.572 329.725 467.3 329.434 467.664 329.07C467.664 328.706 467.664 328.706 467.3 328.342V328.051L470.138 329.434H469.774C468.028 329.07 466.936 329.798 466.936 330.453Z" fill="#00493D"/>
<path d="M356.746 207.016C352.233 208.035 349.104 208.399 344.882 204.541C342.117 201.776 342.772 196.899 345.61 195.08C348.74 193.042 351.505 191.659 355.363 192.678C359.22 193.77 369.337 203.159 366.862 203.522C364.388 203.522 360.603 205.924 356.746 207.016ZM367.517 190.276C368.973 189.185 370.72 188.53 375.232 188.093C379.453 187.802 382.51 187.802 383.602 191.004C385.057 194.789 386.076 199.301 388.842 201.412C387.095 202.431 378.362 203.522 375.232 201.776C371.084 199.665 369.992 191.586 367.59 190.276H367.517ZM397.576 190.64C398.959 189.549 400.705 189.549 405.218 189.912C409.73 190.276 411.477 190.64 412.496 193.77C413.588 197.263 412.496 201.776 414.679 204.905C412.496 205.633 405.582 205.633 403.107 203.159C399.323 200.393 399.614 192.314 397.576 190.567V190.64Z" fill="white" stroke="black" stroke-width="1.01893"/>
<path d="M418.464 192.678C415.335 191.95 413.224 191.659 411.914 192.678C413.588 194.789 412.205 203.159 415.698 205.924C418.1 207.671 424.432 208.108 425.815 204.177C427.562 200.684 427.562 195.444 418.537 192.678H418.464ZM382.583 189.185C383.602 188.166 385.713 187.802 389.861 187.802C394.446 187.802 397.139 188.53 398.595 191.295C400.051 194.789 399.614 199.301 402.088 202.14C401.069 203.522 391.608 203.522 388.842 201.412C384.985 198.937 384.621 190.931 382.583 189.185ZM352.961 192.314C352.961 190.567 355.363 190.276 361.695 189.912C367.881 189.185 368.245 189.548 370.356 194.061C371.375 196.535 372.758 200.684 375.596 202.067C367.881 203.886 365.407 204.905 361.258 202.431C358.228 200.536 355.725 197.907 353.98 194.789C353.616 193.77 353.616 192.678 352.888 192.314H352.961Z" fill="#073163" stroke="black" stroke-width="1.01893"/>
<path d="M369.701 156.797C362.35 151.193 353.616 145.953 345.61 144.934C353.964 150.503 361.894 156.682 369.337 163.42" fill="#F9D050"/>
<path d="M369.701 156.797C362.35 151.193 353.616 145.953 345.61 144.934C353.964 150.503 361.894 156.682 369.337 163.42" stroke="black" stroke-width="0.436686"/>
<path d="M373.849 151.557C365.116 145.589 354.999 138.966 345.246 138.311C354.373 143.6 362.502 150.448 369.264 158.544M384.985 141.804C388.925 132.848 394.76 124.852 402.088 118.369C398.595 125.72 394.81 140.712 392.991 146.68" fill="#F9D050"/>
<path d="M373.849 151.557C365.116 145.589 354.999 138.966 345.246 138.311C354.373 143.6 362.502 150.448 369.264 158.544M384.985 141.804C388.925 132.848 394.76 124.852 402.088 118.369C398.595 125.72 394.81 140.712 392.991 146.68" stroke="black" stroke-width="0.436686"/>
<path d="M392.699 140.057C396.072 131.856 402.414 125.229 410.458 121.498C404.414 129.038 399.914 137.694 397.212 146.972" fill="#F9D050"/>
<path d="M392.699 140.057C396.072 131.856 402.414 125.229 410.458 121.498C404.414 129.038 399.914 137.694 397.212 146.972" stroke="black" stroke-width="0.436686"/>
<path d="M395.829 146.972C402.511 136.743 412.089 128.736 423.34 123.973C414.607 132.707 401.724 148.718 398.595 155.05M400.705 154.686C406.965 151.193 419.556 145.589 428.581 147.408C423.049 149.446 406.31 157.088 398.959 164.148" fill="#F9D050"/>
<path d="M395.829 146.972C402.511 136.743 412.089 128.736 423.34 123.973C414.607 132.707 401.724 148.718 398.595 155.05M400.705 154.686C406.965 151.193 419.556 145.589 428.581 147.408C423.049 149.446 406.31 157.088 398.959 164.148" stroke="black" stroke-width="0.436686"/>
<path d="M399.323 152.212C405.218 145.953 416.062 136.564 427.562 132.707C419.192 140.712 401.36 158.908 398.959 161.673M382.583 148.427C378.362 135.472 372.103 123.318 362.714 119.46C370.192 130.152 375.394 142.266 377.998 155.05M374.504 148.063C367.59 139.694 358.129 131.324 347.357 129.577C357.912 136.484 366.251 146.289 371.375 157.816" fill="#F9D050"/>
<path d="M399.323 152.212C405.218 145.953 416.062 136.564 427.562 132.707C419.192 140.712 401.36 158.908 398.959 161.673M382.583 148.427C378.362 135.472 372.103 123.318 362.714 119.46C370.192 130.152 375.394 142.266 377.998 155.05M374.504 148.063C367.59 139.694 358.129 131.324 347.357 129.577C357.912 136.484 366.251 146.289 371.375 157.816" stroke="black" stroke-width="0.436686"/>
<path d="M378.434 147.699C369.701 131.979 363.005 129.213 359.22 126.083C362.35 131.979 369.992 147.699 374.504 154.323" fill="#F9D050"/>
<path d="M378.434 147.699C369.701 131.979 363.005 129.213 359.22 126.083C362.35 131.979 369.992 147.699 374.504 154.323" stroke="black" stroke-width="0.436686"/>
<path d="M360.967 146.68C365.945 149.811 370.21 153.952 373.485 158.835" stroke="black" stroke-width="0.436686"/>
<path d="M360.967 153.959C363.005 155.705 366.862 157.816 370.356 160.946L360.967 153.959ZM402.452 159.199C405.946 156.433 413.588 151.921 417.445 150.465L402.452 159.199ZM399.978 156.797C403.471 152.212 410.458 145.953 412.933 143.842L399.978 156.797ZM409.73 135.108C405.04 140.364 400.619 145.854 396.484 151.557L409.73 135.108ZM400.705 131.979C397.402 136.865 394.482 141.999 391.972 147.336L400.705 131.979ZM373.121 132.707C375.232 138.311 379.09 147.699 380.4 151.557L373.121 132.707ZM369.992 138.602C371.448 140.785 374.213 145.589 375.232 149.082L369.992 138.602Z" fill="#F9D050"/>
<path d="M360.967 153.959C363.005 155.705 366.862 157.816 370.356 160.946M402.452 159.199C405.946 156.433 413.588 151.921 417.445 150.465M399.978 156.797C403.471 152.212 410.458 145.953 412.933 143.842M409.73 135.108C405.04 140.364 400.619 145.854 396.484 151.557M400.705 131.979C397.402 136.865 394.482 141.999 391.972 147.336M373.121 132.707C375.232 138.311 379.09 147.699 380.4 151.557M369.992 138.602C371.448 140.785 374.213 145.589 375.232 149.082" stroke="black" stroke-width="0.436686"/>
<path d="M381.855 136.855C381.855 133.725 383.966 130.305 386.077 130.305C388.478 130.305 390.225 134.453 390.225 136.855C390.225 139.693 388.114 142.095 386.077 142.095C383.893 142.095 381.855 140.057 381.855 136.855Z" fill="#F9D050" stroke="black" stroke-width="0.436686"/>
<path d="M377.343 139.693C377.707 136.2 380.108 133.434 382.219 133.725C384.33 134.089 385.349 138.311 384.985 140.712C384.621 143.478 382.219 145.589 380.472 145.225C378.726 145.225 376.979 142.823 377.343 139.693ZM386.731 140.712C386.004 137.583 387.459 134.162 389.57 133.725C391.608 133.434 393.718 136.855 394.082 139.693C394.81 142.459 392.991 145.225 391.244 145.225C389.57 145.589 387.095 143.842 386.731 140.712Z" fill="#F9D050" stroke="black" stroke-width="0.436686"/>
<path d="M381.491 143.478C381.491 140.057 383.602 136.928 385.712 136.928C388.114 136.928 389.861 140.712 389.861 143.478C389.861 146.316 387.823 148.718 385.712 148.718C383.602 148.718 381.491 146.68 381.491 143.478Z" fill="#F9D050" stroke="black" stroke-width="0.436686"/>
<path d="M375.232 145.225C375.232 142.095 377.706 138.675 379.744 138.675C381.928 138.675 383.966 142.823 383.966 145.225C383.966 148.063 381.491 150.465 379.744 150.465C377.706 150.465 375.232 148.427 375.232 145.225ZM388.114 143.842C388.114 140.712 390.298 137.292 392.335 137.292C394.737 137.292 396.484 141.44 396.484 143.842C396.484 146.68 394.446 149.082 392.335 149.082C390.225 149.082 388.114 146.972 388.114 143.842Z" fill="#F9D050" stroke="black" stroke-width="0.436686"/>
<path d="M386.731 146.68C386.731 143.187 389.206 140.057 391.244 140.057C393.427 140.057 395.465 143.842 395.465 146.608C395.465 149.446 393.354 151.921 391.244 151.921C389.206 151.921 386.731 149.737 386.731 146.68Z" fill="#F9D050" stroke="black" stroke-width="0.436686"/>
<path d="M381.2 149.81C381.2 146.316 383.238 143.187 385.349 143.187C387.823 143.187 389.57 147.335 389.57 149.737C389.57 152.648 387.386 155.05 385.349 155.05C383.238 155.05 381.127 152.867 381.127 149.81H381.2ZM372.466 149.81C372.466 146.316 374.213 143.187 375.96 143.187C377.707 143.187 379.089 147.335 379.089 149.737C379.089 152.648 377.343 155.05 375.96 155.05C374.213 155.05 372.466 152.867 372.466 149.81ZM391.972 149.155C391.972 145.953 393.718 142.823 395.465 142.823C397.212 142.823 398.959 146.68 398.959 149.082C398.959 152.212 396.848 154.322 395.465 154.322C393.718 154.322 391.972 152.212 391.972 149.082V149.155Z" fill="#F9D050" stroke="black" stroke-width="0.436686"/>
<path d="M394.082 154.978C394.81 151.557 396.848 148.718 398.231 149.155C399.687 149.446 399.978 153.595 399.323 156.069C398.959 159.199 396.848 160.946 395.465 160.582C394.01 160.291 393.355 157.816 394.01 155.05L394.082 154.978Z" fill="#F9D050" stroke="black" stroke-width="0.436686"/>
<path d="M387.459 153.959C387.823 150.829 389.861 147.699 391.608 148.063C393.718 148.063 394.737 152.212 394.446 154.614C394.082 157.816 392.263 159.927 390.589 159.563C388.842 159.563 387.095 157.088 387.459 153.959ZM377.707 154.978C376.615 151.557 374.504 149.155 373.121 149.446C371.739 149.81 371.375 153.959 372.102 156.433C372.83 159.199 374.868 160.946 376.251 160.582C377.343 160.291 378.434 157.816 377.707 155.05V154.978Z" fill="#F9D050" stroke="black" stroke-width="0.436686"/>
<path d="M375.232 154.322C375.232 151.193 376.979 148.063 378.725 148.063C380.836 148.063 382.219 151.921 382.219 154.322C382.219 157.452 380.472 159.563 378.725 159.563C377.27 159.563 375.232 157.452 375.232 154.322Z" fill="#F9D050" stroke="black" stroke-width="0.436686"/>
<path d="M380.472 155.705C380.472 152.212 382.583 149.155 384.621 149.155C387.095 149.155 388.842 152.94 388.842 155.705C388.842 158.544 386.731 160.946 384.621 160.946C382.583 160.946 380.472 158.835 380.472 155.705ZM382.219 117.35C381.491 120.115 379.089 122.59 380.763 126.447C377.707 125.356 374.941 124.992 372.466 127.83C375.596 127.466 378.362 128.558 379.744 130.596C376.979 130.232 375.596 131.688 374.868 133.434C377.343 132.707 379.744 131.979 380.836 132.343C379.744 133.434 377.998 135.108 377.707 136.564C379.744 134.817 382.219 135.108 383.602 134.089C382.583 136.564 384.621 138.966 386.368 141.367C386.076 137.947 388.114 135.545 387.095 133.725C390.225 134.453 390.589 137.219 395.101 137.219C393.354 136.2 392.336 132.707 390.225 132.707C391.244 132.343 395.465 131.979 396.193 132.707C395.465 131.251 392.991 129.941 391.608 129.941C393.063 128.485 395.465 125.72 397.212 124.992C394.737 125.356 390.953 125.72 389.57 127.83C392.991 124.992 392.336 119.824 396.12 119.096C394.082 118.733 390.953 120.115 388.478 122.59C389.57 120.479 389.57 117.714 390.953 116.986C388.114 117.714 384.985 121.207 383.966 122.954C383.815 120.978 383.218 119.062 382.219 117.35Z" fill="#F9D050" stroke="black" stroke-width="0.436686"/>
<path d="M383.966 122.954C383.966 123.973 383.966 126.084 383.602 126.739L383.966 122.954ZM388.478 122.59C387.75 123.318 386.368 125.72 386.368 127.83L388.478 122.59Z" fill="#F9D050"/>
<path d="M383.966 122.954C383.966 123.973 383.966 126.084 383.602 126.739M388.478 122.59C387.75 123.318 386.368 125.72 386.368 127.83" stroke="black" stroke-width="0.436686"/>
<path d="M390.589 126.739C389.389 127.455 388.505 128.599 388.114 129.941" stroke="black" stroke-width="0.436686"/>
<path d="M353.616 161.309C351.142 161.309 349.104 160.29 347.648 158.544C345.246 155.341 338.623 153.958 335.785 156.797C334.766 157.525 333.383 157.525 332.364 157.816C330.617 157.816 328.507 159.563 329.162 163.056C330.617 161.964 330.908 163.056 332 163.056C332.728 162.692 332.364 163.42 332.364 164.075C332.364 165.822 336.149 169.315 339.642 168.951C343.5 168.951 345.246 170.407 345.901 171.135C346.993 172.081 346.265 171.79 346.993 173.537C348.012 174.555 348.376 174.919 346.629 176.302C345.835 176.965 345.195 177.794 344.757 178.731C344.318 179.668 344.09 180.69 344.09 181.724C344.09 182.759 344.318 183.781 344.757 184.718C345.195 185.655 345.835 186.484 346.629 187.147C351.142 190.567 362.641 195.88 375.596 185.691C388.114 175.938 407.62 181.542 409.075 184.963C410.822 188.529 411.477 190.567 411.841 192.314C412.205 193.77 413.952 195.152 416.426 194.789C418.828 194.789 421.594 195.808 422.976 196.899C424.796 197.918 427.198 197.627 426.543 194.425C425.087 184.672 419.192 183.289 418.537 178.777C421.957 179.068 424.359 179.068 425.815 177.685C426.834 176.302 428.217 173.828 429.672 173.173C430.691 172.445 430.691 171.717 429.308 172.081C427.562 172.445 426.543 173.173 423.34 172.809C407.329 171.062 362.35 158.835 353.616 161.309Z" fill="#059334" stroke="black" stroke-width="1.01893"/>
<path d="M424.796 173.173C422.136 175.05 419.862 177.422 418.1 180.16C414.679 184.672 404.199 189.185 391.244 189.185C378.725 189.185 371.084 187.147 365.479 182.634C363.087 180.721 360.501 179.062 357.765 177.685C353.98 175.938 353.252 172.081 354.271 168.951C353.252 170.698 352.597 172.445 350.486 172.081C349.031 172.081 346.265 172.081 346.993 173.537C346.629 172.809 346.629 171.79 346.265 171.353L345.537 170.698C346.629 171.426 349.104 169.315 350.85 169.315C352.233 169.679 353.98 167.933 353.616 165.822L352.597 161.309C355.363 159.854 391.972 166.55 399.323 167.205C406.601 167.569 427.562 170.698 424.796 173.173Z" fill="black" stroke="black" stroke-width="1.01893"/>
<path d="M358.492 159.927C361.986 156.433 366.134 154.686 370.356 155.705H371.375C373.558 153.959 378.362 153.595 381.2 154.977H382.583C386.731 153.595 394.737 154.977 397.576 157.816L398.595 158.544C408.056 157.816 413.588 161.964 420.211 168.66C420.939 169.388 421.957 170.698 423.704 171.062C425.815 171.426 426.179 172.518 424.432 173.537C421.634 175.267 419.169 177.486 417.154 180.087C413.952 184.308 403.835 188.53 391.244 188.53C379.089 188.53 371.739 186.346 366.134 182.198C363.005 179.796 360.603 178.413 358.856 177.321C356.746 176.593 353.98 173.828 354.999 171.062C355.727 168.296 353.98 164.803 352.597 161.309C353.616 160.582 356.382 159.563 357.765 160.29L358.492 159.927Z" fill="#059334" stroke="black" stroke-width="1.01893"/>
<path d="M420.211 168.66C413.66 161.964 408.056 157.816 398.595 158.471C398.595 158.835 398.595 159.927 398.231 160.654C404.825 163.613 410.67 168.016 415.334 173.537C416.79 172.081 419.192 170.407 420.211 168.66ZM397.576 157.816C394.737 155.05 386.731 153.595 382.583 155.05C382.583 156.433 382.583 158.544 381.855 159.927C384.33 160.946 386.368 163.42 388.478 165.822C389.934 165.458 393.355 164.439 395.101 164.075C396.144 162.081 396.973 159.983 397.576 157.816ZM381.2 154.977C378.362 153.595 373.485 153.959 371.375 155.705C370.647 157.161 370.356 159.927 370.356 161.309C371.811 161.309 373.849 162.328 374.504 163.056C376.688 162.328 379.453 160.946 380.472 159.927C380.836 158.471 381.491 156.433 381.2 155.05V154.977ZM358.492 159.927C361.986 156.433 366.134 154.686 370.356 155.705C369.628 156.797 369.337 158.835 369.337 160.946C365.479 160.582 360.603 161.673 358.492 163.056V159.927Z" fill="#00493D" stroke="black" stroke-width="1.01893"/>
<path d="M413.952 174.192C409.567 169 404.103 164.827 397.94 161.964C397.94 162.328 397.212 163.711 396.848 164.803C398.959 167.933 403.107 174.919 404.854 178.777C406.601 178.049 411.477 175.938 413.952 174.192ZM387.459 181.906C388.063 177.15 388.403 172.363 388.478 167.569C390.225 167.205 393.718 166.186 395.101 165.822C396.848 168.66 401.069 176.011 402.816 179.432C398.595 180.451 391.608 182.198 387.459 181.906ZM375.232 165.167C376.979 164.439 379.453 162.983 381.127 161.673C382.583 162.692 385.349 165.167 386.368 166.55C386.368 169.679 385.349 178.777 384.985 181.834C382.219 181.834 377.707 181.179 375.232 179.796C375.596 174.556 375.96 168.66 375.232 165.167ZM357.765 169.315C358.129 168.588 358.492 166.186 358.492 165.167C361.258 163.42 368.245 161.673 373.485 164.439C373.849 167.933 373.485 176.666 373.121 178.777C368.454 174.981 363.317 171.801 357.837 169.315H357.765Z" fill="#00493D" stroke="black" stroke-width="1.01893"/>
<path d="M340.37 162.983C339.642 162.983 339.278 160.945 337.895 160.945C337.531 160.945 336.513 161.309 336.149 160.945C336.149 161.673 336.513 162.401 336.876 162.692C337.24 163.711 338.987 163.056 340.37 163.056V162.983Z" fill="black"/>
<path d="M340.37 168.951C344.518 168.951 345.246 163.711 347.357 163.42M342.772 169.315C345.901 170.771 348.376 163.42 350.778 163.711M336.513 160.29C337.531 160.29 338.259 158.835 340.006 160.581C340.734 161.309 341.753 161.673 342.481 161.673M341.753 165.458C340.297 167.641 337.895 168.951 336.513 168.296M335.785 156.797C334.766 157.525 334.111 158.835 333.383 159.926M332.364 161.964V163.711" stroke="black" stroke-width="1.01893"/>
<path d="M448.814 207.38V275.357C448.814 334.31 420.938 354.543 383.602 370.555C346.265 354.543 318.099 334.31 318.099 275.357V207.307H448.814V207.38Z" fill="white"/>
<path d="M383.602 264.877C386.731 264.877 391.608 262.111 395.829 257.89C400.341 253.013 408.056 251.339 416.062 257.89C424.068 264.513 428.944 261.747 433.166 257.89C437.314 254.105 440.808 252.649 448.814 252.649V207.38H318.026V252.722C326.032 252.722 329.526 254.178 333.747 257.962C337.895 261.82 342.772 264.586 350.85 257.962C359.22 251.412 366.498 253.086 371.375 257.962C375.232 262.184 380.108 264.949 383.602 264.949V264.877Z" fill="#C8102E"/>
<path d="M383.602 299.812C387.823 299.812 396.193 295.226 398.231 294.207C405.946 289.622 411.477 293.843 416.062 295.954C420.938 297.992 429.963 300.467 435.567 295.954C441.172 291.369 444.301 291.733 448.159 291.733C448.886 286.493 448.886 281.252 448.886 275.357V271.136C443.937 270.117 441.535 271.5 436.295 276.085C431.055 280.597 425.087 279.578 417.372 276.813C410.094 273.61 402.816 268.079 395.465 276.813C392.416 280.22 388.162 282.308 383.602 282.635C378.362 282.635 373.849 279.214 371.738 276.813C364.096 268.079 357.11 273.61 349.759 276.813C342.117 279.578 335.785 280.597 330.617 276.085C325.741 271.5 323.266 270.117 318.026 271.136V275.357C318.026 281.252 318.39 286.493 319.045 291.733C322.902 291.733 325.741 291.369 331.272 295.954C336.876 300.467 346.265 297.992 350.85 295.954C355.727 293.843 361.258 289.622 368.973 294.207C371.083 295.226 379.089 299.739 383.602 299.739V299.812ZM383.602 314.804C389.645 314.478 395.517 312.679 400.705 309.564C407.692 305.707 412.569 307.381 419.556 310.947C426.834 314.44 432.802 313.349 437.023 310.947C439.061 309.491 440.808 306.726 445.32 307.817C443.282 316.551 440.08 324.193 436.295 330.452C433.322 331.438 430.182 331.823 427.059 331.586C423.935 331.349 420.89 330.493 418.1 329.069C410.822 325.576 401.724 323.465 396.848 326.595C392.893 329.169 388.317 330.628 383.602 330.816C379.744 330.816 374.868 329.361 370.356 326.595C365.479 323.465 356.382 325.576 349.104 329.069C346.318 330.505 343.276 331.373 340.152 331.623C337.029 331.873 333.886 331.5 330.908 330.525C327.124 324.193 323.994 316.478 321.884 307.817C326.396 306.726 328.143 309.564 330.253 310.947C332.863 312.42 335.809 313.194 338.805 313.194C341.802 313.194 344.747 312.42 347.357 310.947C354.635 307.453 359.511 305.707 366.498 309.491C371.68 312.632 377.552 314.456 383.602 314.804ZM383.602 370.555C397.092 365.327 409.688 358.034 420.938 348.939C418.1 347.92 416.426 348.575 413.951 346.828C411.477 345.081 404.199 344.426 397.94 347.92C393.599 350.452 388.664 351.786 383.638 351.786C378.613 351.786 373.678 350.452 369.337 347.92C363.005 344.426 355.727 345.081 353.325 346.828C350.85 348.575 349.104 347.92 346.265 349.011C357.471 358.154 370.078 365.429 383.602 370.555Z" fill="#0B50A0"/>
<path d="M374.504 224.41C374.868 225.138 374.213 226.885 374.504 227.54C375.232 228.996 375.232 229.723 376.251 230.379H378.726C386.368 230.379 395.465 227.249 403.107 227.249C410.458 227.249 414.97 229.651 419.119 229.651C421.594 229.651 423.704 227.904 423.704 226.157C423.704 224.41 420.939 223.392 414.97 223.392C406.601 223.392 402.088 225.502 395.101 225.502C384.621 225.502 382.874 221.645 382.874 219.898C382.874 218.151 384.621 215.75 390.225 215.75C391.972 215.75 393.355 215.386 394.082 214.658C394.446 213.93 395.465 212.547 397.576 211.528C399.978 210.073 404.854 211.528 407.328 209.781C407.328 211.237 405.218 213.275 403.471 214.003C406.965 212.911 410.749 212.911 411.477 215.75C409.73 214.658 406.965 215.386 405.946 215.75C404.49 216.041 403.835 216.477 402.452 216.768C403.835 216.405 404.563 219.17 406.601 219.17C404.563 220.917 401.069 220.917 397.576 219.534C396.484 219.17 393.718 218.151 391.972 218.151C388.478 218.151 386.368 218.879 386.368 220.262C386.368 222.009 388.551 223.028 394.737 223.028C401.069 223.028 404.563 221.281 413.952 221.281C413.224 220.262 414.315 219.17 412.933 218.151C416.426 218.151 420.211 219.17 421.666 221.645C421.302 219.17 423.34 217.132 422.685 215.022C424.796 215.386 426.543 217.423 426.834 219.17C426.834 218.151 428.289 218.151 428.289 217.132C429.263 217.659 430.05 218.472 430.545 219.462C431.04 220.451 431.218 221.569 431.055 222.664C432.074 220.917 433.166 221.645 433.821 219.534C434.549 220.99 434.185 225.138 431.71 226.521C433.894 225.065 436.95 225.066 439.061 227.54C436.95 227.249 435.931 228.268 434.912 228.632C429.834 231.227 424.159 232.433 418.464 232.125C412.933 231.761 412.205 230.67 408.711 230.67C410.822 231.034 414.97 235.255 418.901 235.255C421.302 235.255 423.049 235.255 424.068 234.891C425.087 234.527 426.834 234.891 428.217 235.619C429.308 236.638 431.419 237.657 432.802 237.366C432.438 238.748 431.71 239.403 430.691 239.767C432.438 240.859 431.419 241.514 433.166 242.897C432.438 242.897 431.71 243.625 430.691 243.261C431.71 244.28 431.71 245.735 432.802 246.39C432.438 246.39 431.346 246.754 430.691 246.39C431.71 247.846 430.691 249.52 431.71 250.248C432.802 251.703 430.691 253.377 428.944 251.994C429.308 253.013 428.217 254.105 427.198 253.741C426.179 253.377 425.451 252.286 425.742 251.994C425.742 251.631 425.742 251.631 426.179 251.267C425.451 252.358 424.068 252.358 423.34 251.994C423.049 251.631 422.612 251.267 422.612 250.976C420.211 251.703 419.192 249.52 419.556 248.501C419.847 247.482 421.957 247.045 422.685 247.482C423.413 247.773 424.068 248.21 424.796 247.482C425.524 247.118 425.815 246.39 425.815 245.735C425.815 244.644 424.796 241.514 420.211 241.878C414.97 242.242 406.601 240.859 402.452 239.403C402.088 239.112 401.724 239.112 401.36 238.676C401.36 240.131 399.978 240.859 399.978 242.242C399.978 243.989 400.705 245.371 402.816 246.026C401.724 247.773 399.978 247.482 399.323 246.39C399.323 247.482 397.867 248.137 397.867 249.52C397.576 248.792 397.139 248.501 396.848 247.773C395.829 250.248 392.991 251.631 391.608 250.976C389.861 252.358 387.823 251.994 387.095 250.612C386.076 251.339 384.621 251.339 383.966 250.612C383.966 251.631 383.238 251.339 382.874 252.722C382.874 253.45 381.491 253.741 380.836 253.45C380.108 253.013 379.744 251.631 380.472 250.976C379.453 251.703 378.362 251.703 377.707 250.976C377.707 250.248 377.707 249.229 378.434 248.792H379.089C378.362 248.501 377.343 248.792 376.615 248.501C375.887 247.773 375.887 247.045 376.251 246.39C376.615 246.026 377.707 245.371 378.434 246.026L378.726 246.39C378.726 245.663 379.089 245.008 379.453 245.008C380.181 244.644 381.127 244.644 382.219 245.735C382.947 246.754 383.602 246.754 385.713 246.463C387.459 246.463 390.225 244.644 392.263 242.897C386.44 241.878 389.861 238.021 391.608 236.638C390.225 236.274 388.114 236.274 386.731 237.002C379.453 240.859 371.739 245.371 366.862 243.989C366.93 244.718 367.18 245.419 367.59 246.026C366.498 246.026 364.388 246.026 363.733 245.008C363.369 245.735 362.714 247.482 363.369 248.865C362.641 248.137 360.603 247.409 359.511 247.118C360.239 247.846 359.511 249.229 359.875 250.248C358.856 249.229 357.11 248.501 356.382 249.229C355.654 249.957 354.271 250.248 353.252 249.957C352.574 250.916 351.604 251.631 350.486 251.994C350.486 251.267 350.486 250.248 350.123 249.884C349.759 250.976 348.667 252.358 347.357 253.013C347.357 252.286 347.357 251.267 346.993 250.612C346.993 251.994 344.227 252.722 343.863 253.741C344.227 252.722 344.227 251.631 344.227 250.976C343.841 251.594 343.332 252.127 342.731 252.54C342.13 252.953 341.45 253.238 340.734 253.377C341.025 252.65 341.462 251.922 341.025 251.267C340.734 252.722 338.623 253.45 336.876 253.013C336.876 253.741 335.421 254.76 333.747 253.741C332.655 253.377 332 252.286 332.655 251.631C331.272 251.631 329.889 250.248 330.617 249.229C330.617 248.865 330.908 248.501 330.908 248.137C329.889 247.409 329.526 246.026 330.617 245.008C330.908 244.644 332 244.644 332.655 244.644C332.655 241.878 335.13 241.878 336.149 243.916C336.876 245.008 338.987 246.754 340.734 246.39C341.462 246.39 341.753 246.026 342.481 246.026C345.611 244.992 348.559 243.469 351.214 241.514C351.505 240.495 351.505 239.767 351.505 239.112C350.123 239.84 348.74 240.495 348.012 241.514V240.495C346.993 240.495 345.246 240.131 344.518 240.131C344.882 239.767 345.246 238.021 345.974 237.657C344.227 238.021 342.481 237.657 341.025 237.366C341.753 236.638 341.753 235.619 342.117 234.527C341.389 234.891 339.642 234.236 338.259 234.527C338.623 233.508 338.987 232.125 340.006 231.761C338.55 232.125 336.876 231.761 335.13 231.034C336.585 231.034 337.24 229.287 338.259 229.287C335.494 229.287 334.766 227.904 333.383 227.249C334.402 227.54 335.13 226.521 336.149 226.521C335.13 226.157 333.383 224.41 334.111 223.392C333.747 223.755 333.383 224.41 332.655 224.847C331.927 225.138 330.617 224.847 329.526 223.755C328.798 222.3 329.162 220.626 330.617 220.262C330.298 220.241 329.991 220.13 329.733 219.94C329.475 219.751 329.277 219.491 329.162 219.192C329.047 218.894 329.021 218.568 329.085 218.255C329.149 217.941 329.302 217.653 329.526 217.423C329.889 216.696 331.272 215.75 332 216.696L333.019 218.151C332.655 217.423 332.655 216.041 332.655 215.022C333.019 214.003 333.747 214.003 334.839 213.566C335.785 213.566 336.513 214.658 336.513 215.75C336.513 216.768 336.876 217.423 337.24 218.879L337.531 217.423C337.531 216.041 339.278 216.405 340.37 216.696C341.389 217.132 341.753 219.17 340.37 220.262C339.642 220.99 340.006 222.009 340.734 222.664C343.136 226.521 347.284 229.651 350.85 230.015C350.85 228.559 351.578 227.249 352.597 226.157C352.597 225.429 352.888 224.41 353.325 223.755C353.616 221.645 354.635 220.626 356.018 221.281C355.727 220.917 355.29 220.553 355.29 220.262C354.271 219.17 353.252 217.423 353.98 216.041C354.708 214.658 356.746 215.022 357.473 215.75C357.11 213.566 359.511 211.892 359.511 210.8C359.875 211.892 360.603 213.275 360.239 214.294C360.603 212.911 363.005 211.164 364.752 210.509C364.024 211.528 366.207 213.275 365.843 214.294C366.571 212.547 369.337 211.528 371.375 211.528C370.647 212.256 370.647 213.639 370.647 214.294C371.739 214.294 373.558 214.003 374.213 212.911C374.213 214.367 373.485 215.75 372.757 216.405C373.121 216.041 374.504 216.041 375.596 216.041C374.504 217.132 374.868 218.224 373.849 218.879C375.232 218.151 376.979 218.151 377.343 219.607C378.07 220.626 376.979 222.373 376.251 223.392C375.523 223.755 374.868 224.41 374.504 224.41Z" fill="#F9D050" stroke="black" stroke-width="1.01893"/>
<path d="M352.961 228.632C350.487 229.651 349.759 232.125 349.395 233.508" stroke="black" stroke-width="1.01893"/>
<path d="M352.597 231.034C349.104 233.217 347.648 234.891 348.376 238.748M354.271 241.587C356.454 240.859 357.764 240.131 359.511 237.002" stroke="black" stroke-width="1.01893"/>
<path d="M358.492 238.385C357.764 239.84 358.492 242.242 357.473 243.261C358.41 242.795 359.217 242.107 359.826 241.257C360.435 240.407 360.827 239.421 360.967 238.385" stroke="black" stroke-width="1.01893"/>
<path d="M359.22 242.242C360.603 241.514 362.714 239.404 363.733 237.002C363.369 238.021 363.733 239.767 363.005 240.859C364.752 239.112 365.479 238.021 365.843 236.274L366.134 237.73C366.862 237.002 367.59 236.274 367.59 234.891M367.517 235.91V237.657C368.973 236.638 369.337 235.255 369.337 233.508" stroke="black" stroke-width="1.01893"/>
<path d="M368.973 235.619C371.083 234.163 371.375 232.125 371.375 228.996M371.375 232.489C372.83 231.398 373.121 230.743 373.121 227.54M368.609 218.151C367.881 218.151 367.153 218.515 367.153 219.607C367.153 220.262 366.134 221.281 366.134 222.373C365.843 223.756 365.115 224.119 364.096 223.756C363.005 223.028 363.005 223.028 363.005 222.009C363.005 220.553 364.752 220.262 364.752 218.879C365.115 218.151 365.479 217.132 365.843 217.132C364.097 218.151 361.622 217.424 361.258 215.386" stroke="black" stroke-width="1.01893"/>
<path d="M371.738 219.17C371.011 219.534 370.283 218.443 369.337 218.879C368.973 218.879 367.881 219.17 367.59 218.879" stroke="black" stroke-width="1.01893"/>
<path d="M366.862 220.917C367.226 221.281 368.973 222.009 370.72 221.281C369.264 221.645 368.245 219.898 369.628 218.879M363.733 217.424C362.277 217.424 361.258 218.515 361.622 219.607C361.986 220.626 363.369 220.626 364.388 219.898M361.258 234.891C361.622 234.527 361.986 233.872 361.986 233.436C362.714 233.436 363.442 233.144 363.733 232.781C365.115 232.781 366.134 231.762 366.498 230.743C367.226 230.743 367.59 228.996 367.954 228.268C368.245 228.632 368.973 228.268 369.337 226.812C370.065 227.249 371.084 226.812 371.375 225.794M357.11 223.392C357.11 223.756 356.382 224.411 355.654 224.847C356.018 225.502 355.654 227.249 354.999 227.54C355.363 228.268 354.999 229.287 354.635 230.015C354.635 230.379 354.999 231.47 354.999 231.762M358.492 216.405C357.765 218.152 358.129 220.262 359.511 220.626" stroke="black" stroke-width="1.01893"/>
<path d="M359.22 221.936C358.856 223.756 358.856 226.157 358.492 227.249C358.128 227.977 357.473 230.379 360.239 231.034C363.369 231.761 365.115 231.398 366.862 226.157M372.102 239.767C372.102 240.131 371.738 240.859 371.083 240.859M374.504 239.112C374.504 239.84 373.776 240.859 373.485 241.15M376.979 238.385C376.979 239.112 376.979 240.131 376.251 240.495M355.727 216.769C356.018 216.769 356.454 217.496 356.746 218.151C355.727 217.424 354.635 219.17 355.29 220.262M354.635 222.664L353.252 223.756M353.616 225.793C353.252 225.793 352.888 226.157 352.597 226.157M336.876 219.534C336.876 219.17 336.876 219.17 337.24 218.806M333.747 218.515C333.383 218.515 333.383 218.515 333.019 218.151M334.038 223.392H334.766M332.655 221.281C332.102 220.732 331.388 220.375 330.617 220.262M351.869 234.236C349.395 236.274 348.376 238.021 348.012 240.495M354.271 235.91C353.653 237.206 352.698 238.312 351.505 239.112M340.734 246.39C339.569 246.766 338.333 246.869 337.122 246.693C335.911 246.516 334.756 246.064 333.747 245.372C333.383 245.008 333.019 245.008 332.655 244.644M351.141 241.587C350.85 242.897 350.414 244.644 349.759 245.008C352.597 243.552 354.999 241.514 355.363 238.385M330.908 248.137C332 247.773 333.092 248.501 333.747 247.773M391.608 236.638C392.335 237.002 393.354 237.366 393.718 237.657C394.082 236.929 395.465 235.91 396.484 235.619M366.862 243.989C366.498 242.533 367.226 240.859 369.337 240.131M353.252 249.884C353.616 249.156 353.616 248.137 353.98 247.482M337.895 250.976C337.531 251.703 336.876 252.358 336.876 253.014M332.655 251.631C332.655 251.631 332.655 251.267 333.019 251.267C333.747 250.976 334.766 250.248 335.13 249.52M380.108 246.754C379.38 247.118 379.089 246.754 378.725 246.39M379.744 248.501C379.744 248.501 379.453 248.865 379.017 248.865M381.491 250.248C381.127 250.612 380.763 250.976 380.472 250.976M391.608 250.976C392.335 250.612 392.699 249.884 393.063 248.501M387.095 250.612C388.114 250.248 388.842 249.52 389.861 248.501M396.848 247.773C396.848 247.045 396.848 246.39 397.212 245.735M422.685 250.976C421.957 250.248 421.957 249.229 423.049 248.501C423.777 248.137 424.068 247.773 424.796 247.482" stroke="black" stroke-width="1.01893"/>
<path d="M401.36 238.676C395.829 236.274 396.193 233.144 391.608 233.508M426.179 249.593C426.543 249.884 426.179 250.976 426.179 251.267M429.308 249.593C428.944 250.612 428.944 250.976 428.944 251.995M402.452 216.769H399.541M373.121 228.632C373.121 229.36 374.213 230.743 376.979 230.743C376.615 230.743 376.251 230.379 376.251 230.379M374.504 224.411C374.213 224.774 373.776 224.411 373.776 224.411C373.121 223.683 374.213 222.373 375.232 221.645C374.213 222.009 373.485 222.009 372.757 222.009C372.03 224.119 369.992 225.138 368.609 223.756C368.245 225.138 366.498 226.885 365.115 226.521C363.66 225.793 363.369 224.774 363.66 223.756C361.986 225.793 359.875 224.483 359.22 223.756C358.856 223.028 359.22 221.281 359.948 219.17" stroke="black" stroke-width="1.01893"/>
<path d="M396.848 237.657C395.829 238.385 394.737 237.657 393.718 238.748C392.991 239.476 394.082 239.767 394.737 239.767C394.446 240.859 394.446 241.223 396.193 241.223C395.465 242.242 397.576 242.606 397.212 243.989C397.65 243.534 397.951 242.965 398.08 242.347C398.209 241.729 398.16 241.087 397.94 240.495C397.576 239.403 395.756 238.748 396.848 237.657Z" fill="black"/>
<path d="M365.115 226.521C363.66 225.793 363.369 224.774 363.66 223.755C363.369 224.483 362.714 224.774 361.986 224.774C360.53 227.904 358.856 230.742 356.746 230.742C354.271 231.034 354.635 233.508 356.382 233.508C360.239 234.236 361.986 232.78 365.115 226.521ZM330.617 218.151C331.636 217.132 330.908 216.041 330.253 215.75C329.162 215.386 327.124 215.75 326.032 217.423C327.124 217.132 328.215 217.132 328.507 217.787C328.87 218.515 329.525 219.243 330.617 218.151ZM332.364 211.892C334.766 211.892 335.494 212.256 335.785 213.275C336.149 214.003 335.494 215.022 334.766 215.022C333.747 215.022 332.655 214.294 333.019 214.003C333.383 213.275 333.383 212.256 332.291 211.819L332.364 211.892ZM339.278 217.423C341.025 217.787 341.753 216.696 340.734 215.386C340.37 214.294 339.278 213.639 337.531 213.93C339.278 215.022 337.531 216.768 339.278 217.423ZM326.396 223.392C326.709 224.011 327.233 224.498 327.874 224.764C328.514 225.031 329.229 225.061 329.889 224.847C330.908 224.41 331.345 223.392 330.908 222.664C330.181 221.645 329.162 221.281 328.87 222.664C328.143 224.119 327.124 223.755 326.396 223.392ZM331.636 244.644C330.908 243.261 328.87 243.261 327.124 244.644C327.852 244.28 329.162 244.644 329.525 245.371C329.889 246.099 330.617 246.099 330.981 246.099C331.272 245.735 332 245.371 331.636 244.644ZM334.402 242.606C334.402 240.859 332 240.422 330.617 241.15C331.345 241.15 332.364 241.878 332.364 242.606C332.655 243.333 333.383 243.625 333.747 243.625C334.475 243.261 334.766 242.897 334.475 242.606H334.402ZM330.908 248.865C328.87 248.501 327.779 250.976 327.779 252.649C328.143 251.631 329.234 250.975 330.253 251.267C331.272 251.267 331.636 250.976 331.636 250.248C332 249.52 331.636 249.229 330.908 248.792V248.865ZM331.272 254.76C332 255.124 332.728 254.396 333.019 253.377C333.019 252.649 334.475 252.649 334.766 253.013C335.494 253.377 335.494 254.76 334.402 255.488C333.674 255.852 332 256.216 331.272 254.76ZM379.744 244.28C379.017 243.989 377.343 243.261 375.96 244.28C376.979 243.989 377.707 244.644 377.998 245.371C377.998 246.099 379.089 246.39 379.453 245.735C379.744 245.371 380.181 244.644 379.744 244.28ZM376.615 246.754C375.232 246.026 373.485 247.773 373.121 249.229C373.833 248.649 374.688 248.271 375.596 248.137C376.324 248.501 376.979 248.137 376.979 247.409C377.343 247.118 377.343 246.754 376.615 246.754ZM378.434 249.593C377.343 249.593 375.96 250.975 375.96 252.358C376.251 251.631 376.979 251.267 377.706 251.631C378.434 251.631 379.453 251.267 379.453 250.612C379.453 249.884 379.089 249.52 378.362 249.52L378.434 249.593ZM381.491 252.358C380.763 251.994 379.744 252.358 379.744 253.377C379.744 254.396 379.744 255.488 379.453 255.852C380.181 255.124 380.836 254.76 381.491 254.396C381.855 254.105 382.219 253.013 381.491 252.358ZM420.938 249.229C420.211 248.501 419.192 248.865 418.828 249.52C418.464 250.248 418.1 251.994 418.828 253.377C418.828 252.649 419.556 251.631 420.283 251.631C421.302 251.267 421.593 249.884 420.938 249.229ZM423.049 250.612C421.593 251.339 421.593 253.741 422.685 255.124C422.685 254.396 423.049 253.377 423.704 253.013C424.796 253.013 425.16 251.631 424.796 250.976C424.068 250.248 423.34 250.612 423.049 250.612ZM427.198 251.994C426.47 251.631 425.742 252.358 425.742 253.013C425.451 254.105 426.179 255.488 427.198 256.143C427.198 255.415 427.561 254.76 427.925 254.396C428.944 253.668 428.653 252.358 427.198 251.994ZM430.327 251.631C429.599 251.631 428.944 252.649 429.599 253.741C429.963 254.469 430.691 254.76 432.074 254.469C431.71 254.469 431.055 253.377 431.346 253.013C431.71 252.286 431.346 251.631 430.327 251.631Z" fill="#073163"/>
<path d="M333.383 316.842L350.85 263.13L368.318 316.842L322.539 283.727H379.162L333.383 316.842Z" fill="#F9D050"/>
<path d="M336.876 311.966L373.121 285.474H328.507L364.388 311.966L350.85 269.462L336.876 311.966Z" fill="#024919"/>
<path d="M398.959 316.842L416.426 263.13L433.893 316.842L388.114 283.727H444.738L398.959 316.842Z" fill="#F9D050"/>
<path d="M402.452 311.966L438.697 285.474H394.082L429.963 311.966L416.426 269.462L402.452 311.966Z" fill="#024919"/>
<path d="M366.134 354.834L383.602 301.122L401.069 354.834L355.29 321.719H411.914L366.134 354.834Z" fill="#F9D050"/>
<path d="M369.628 349.958L405.873 323.465H361.258L397.139 349.958L383.602 307.454L369.628 349.958Z" fill="#024919"/>
<path d="M448.814 207.38V275.357C448.814 334.31 420.938 354.543 383.602 370.555C346.265 354.543 318.099 334.31 318.099 275.357V207.307H448.814V207.38Z" stroke="black" stroke-width="1.01893"/>
</g>
<defs>
<clipPath id="clip0_103_7326">
<rect width="512" height="512" fill="white" transform="translate(0.5)"/>
</clipPath>
</defs>
</svg>
