<svg width="513" height="512" viewBox="0 0 513 512" fill="none" xmlns="http://www.w3.org/2000/svg">
<g clip-path="url(#clip0_103_7449)">
<path d="M0.5 0H512.5V512H0.5V0Z" fill="#00ABC2"/>
<path d="M277.2 283.915C315.261 283.915 346.115 253.061 346.115 215C346.115 176.939 315.261 146.085 277.2 146.085C239.139 146.085 208.285 176.939 208.285 215C208.285 253.061 239.139 283.915 277.2 283.915Z" fill="#FFEC2D"/>
<path d="M277.2 136.715C281.296 136.664 282.832 134.104 282.832 131.032C282.832 126.936 277.2 107.428 277.2 107.428C277.2 107.428 271.568 126.936 271.568 131.032C271.568 134.104 273.104 136.715 277.2 136.715Z" fill="#FFEC2D"/>
<path d="M355.485 215C355.536 219.096 358.096 220.632 361.168 220.632C365.264 220.632 384.771 215 384.771 215C384.771 215 365.264 209.368 361.168 209.368C358.096 209.368 355.485 210.904 355.485 215Z" fill="#FFEC2D"/>
<path d="M277.2 293.284C273.104 293.336 271.568 295.896 271.568 298.968C271.568 303.064 277.2 322.571 277.2 322.571C277.2 322.571 282.832 303.064 282.832 298.968C282.832 295.896 281.296 293.284 277.2 293.284Z" fill="#FFEC2D"/>
<path d="M198.915 215C198.864 210.904 196.304 209.368 193.232 209.368C189.136 209.368 169.629 215 169.629 215C169.629 215 189.136 220.632 193.232 220.632C196.304 220.632 198.915 219.096 198.915 215Z" fill="#FFEC2D"/>
<path d="M307.158 142.674C310.962 144.194 313.361 142.417 314.536 139.579C316.104 135.795 318.366 115.617 318.366 115.617C318.366 115.617 305.697 131.484 304.13 135.268C302.954 138.106 303.374 141.107 307.158 142.674Z" fill="#FFEC2D"/>
<path d="M349.526 244.958C348.005 248.762 349.783 251.161 352.621 252.336C356.405 253.904 376.583 256.165 376.583 256.165C376.583 256.165 360.716 243.497 356.932 241.93C354.093 240.754 351.093 241.174 349.526 244.958Z" fill="#FFEC2D"/>
<path d="M247.242 287.325C243.438 285.805 241.039 287.583 239.864 290.421C238.296 294.205 236.034 314.383 236.034 314.383C236.034 314.383 248.703 298.516 250.27 294.731C251.446 291.893 251.026 288.893 247.242 287.325Z" fill="#FFEC2D"/>
<path d="M204.874 185.041C206.394 181.238 204.617 178.839 201.779 177.663C197.995 176.096 177.817 173.834 177.817 173.834C177.817 173.834 193.684 186.502 197.468 188.07C200.307 189.246 203.307 188.826 204.874 185.041Z" fill="#FFEC2D"/>
<path d="M332.556 159.644C335.488 162.504 338.384 161.78 340.557 159.608C343.453 156.711 353.264 138.935 353.264 138.935C353.264 138.935 335.488 148.747 332.592 151.643C330.42 153.815 329.659 156.748 332.556 159.644Z" fill="#FFEC2D"/>
<path d="M332.556 270.355C329.695 273.288 330.42 276.184 332.592 278.356C335.488 281.253 353.264 291.064 353.264 291.064C353.264 291.064 343.453 273.288 340.557 270.392C338.384 268.219 335.452 267.459 332.556 270.355Z" fill="#FFEC2D"/>
<path d="M221.844 270.355C218.912 267.495 216.016 268.219 213.843 270.392C210.947 273.288 201.136 291.064 201.136 291.064C201.136 291.064 218.912 281.253 221.808 278.356C223.98 276.184 224.741 273.252 221.844 270.355Z" fill="#FFEC2D"/>
<path d="M221.844 159.644C224.704 156.711 223.98 153.815 221.808 151.643C218.912 148.747 201.136 138.935 201.136 138.935C201.136 138.935 210.947 156.711 213.843 159.608C216.016 161.78 218.948 162.54 221.844 159.644Z" fill="#FFEC2D"/>
<path d="M349.526 185.041C351.14 188.806 354.093 189.245 356.932 188.07C360.716 186.502 376.583 173.834 376.583 173.834C376.583 173.834 356.405 176.096 352.621 177.663C349.783 178.839 347.958 181.257 349.526 185.041Z" fill="#FFEC2D"/>
<path d="M307.158 287.325C303.394 288.94 302.954 291.893 304.13 294.731C305.697 298.516 318.366 314.383 318.366 314.383C318.366 314.383 316.104 294.205 314.536 290.421C313.361 287.583 310.942 285.758 307.158 287.325Z" fill="#FFEC2D"/>
<path d="M204.874 244.958C203.259 241.193 200.307 240.754 197.468 241.93C193.684 243.497 177.817 256.165 177.817 256.165C177.817 256.165 197.995 253.904 201.779 252.336C204.617 251.16 206.442 248.742 204.874 244.958Z" fill="#FFEC2D"/>
<path d="M247.242 142.674C251.006 141.059 251.446 138.106 250.27 135.268C248.702 131.484 236.034 115.617 236.034 115.617C236.034 115.617 238.296 135.795 239.863 139.579C241.039 142.417 243.457 144.242 247.242 142.674Z" fill="#FFEC2D"/>
<path d="M292.54 138.233C296.567 138.985 298.574 136.776 299.176 133.763C299.979 129.747 298.278 109.514 298.278 109.514C298.278 109.514 288.933 127.539 288.131 131.556C287.529 134.568 288.523 137.43 292.54 138.233Z" fill="#FFEC2D"/>
<path d="M353.967 230.339C353.215 234.366 355.424 236.374 358.437 236.976C362.453 237.778 382.686 236.078 382.686 236.078C382.686 236.078 364.661 226.733 360.644 225.93C357.631 225.328 354.77 226.323 353.967 230.339Z" fill="#FFEC2D"/>
<path d="M261.861 291.767C257.834 291.015 255.826 293.224 255.224 296.237C254.421 300.253 256.122 320.486 256.122 320.486C256.122 320.486 265.467 302.46 266.27 298.444C266.872 295.431 265.877 292.57 261.861 291.767Z" fill="#FFEC2D"/>
<path d="M200.433 199.66C201.185 195.634 198.976 193.626 195.964 193.024C191.947 192.221 171.714 193.922 171.714 193.922C171.714 193.922 189.74 203.267 193.756 204.07C196.769 204.671 199.63 203.677 200.433 199.66Z" fill="#FFEC2D"/>
<path d="M320.75 149.946C324.182 152.182 326.882 150.91 328.591 148.357C330.87 144.953 337.042 125.61 337.042 125.61C337.042 125.61 321.51 138.687 319.231 142.091C317.522 144.643 317.346 147.668 320.75 149.946Z" fill="#FFEC2D"/>
<path d="M342.254 258.549C340.018 261.982 341.291 264.682 343.843 266.391C347.247 268.67 366.59 274.841 366.59 274.841C366.59 274.841 353.513 259.309 350.109 257.031C347.557 255.322 344.532 255.146 342.254 258.549Z" fill="#FFEC2D"/>
<path d="M233.651 280.053C230.219 277.817 227.518 279.09 225.809 281.643C223.531 285.047 217.359 304.39 217.359 304.39C217.359 304.39 232.891 291.313 235.169 287.909C236.878 285.356 237.055 282.332 233.651 280.053Z" fill="#FFEC2D"/>
<path d="M212.147 171.45C214.383 168.018 213.11 165.318 210.557 163.609C207.154 161.33 187.81 155.159 187.81 155.159C187.81 155.159 200.887 170.69 204.291 172.969C206.844 174.678 209.868 174.854 212.147 171.45Z" fill="#FFEC2D"/>
<path d="M342.33 171.564C344.645 174.943 347.627 174.801 350.183 173.096C353.59 170.824 366.694 155.315 366.694 155.315C366.694 155.315 347.34 161.453 343.933 163.725C341.377 165.43 340.057 168.156 342.33 171.564Z" fill="#FFEC2D"/>
<path d="M320.636 280.129C317.257 282.445 317.399 285.427 319.104 287.982C321.376 291.39 336.885 304.494 336.885 304.494C336.885 304.494 330.748 285.14 328.475 281.733C326.77 279.177 324.044 277.857 320.636 280.129Z" fill="#FFEC2D"/>
<path d="M212.071 258.436C209.756 255.057 206.774 255.199 204.218 256.904C200.81 259.176 187.706 274.685 187.706 274.685C187.706 274.685 207.06 268.547 210.468 266.275C213.023 264.57 214.344 261.844 212.071 258.436Z" fill="#FFEC2D"/>
<path d="M233.764 149.87C237.144 147.555 237.001 144.573 235.297 142.017C233.024 138.61 217.515 125.505 217.515 125.505C217.515 125.505 223.653 144.859 225.925 148.267C227.63 150.823 230.357 152.143 233.764 149.87Z" fill="#FFEC2D"/>
<path d="M353.994 199.794C354.84 203.802 357.649 204.812 360.663 204.215C364.681 203.42 382.723 194.106 382.723 194.106C382.723 194.106 362.493 192.37 358.475 193.166C355.461 193.762 353.198 195.776 353.994 199.794Z" fill="#FFEC2D"/>
<path d="M292.406 291.794C288.398 292.64 287.388 295.449 287.985 298.463C288.78 302.481 298.094 320.522 298.094 320.522C298.094 320.522 299.83 300.293 299.034 296.275C298.438 293.261 296.424 290.998 292.406 291.794Z" fill="#FFEC2D"/>
<path d="M200.406 230.205C199.56 226.197 196.751 225.188 193.737 225.784C189.719 226.58 171.678 235.894 171.678 235.894C171.678 235.894 191.907 237.629 195.925 236.834C198.939 236.237 201.202 234.223 200.406 230.205Z" fill="#FFEC2D"/>
<path d="M261.994 138.206C266.002 137.36 267.012 134.551 266.415 131.537C265.62 127.519 256.306 109.477 256.306 109.477C256.306 109.477 254.57 129.707 255.366 133.725C255.962 136.738 257.976 139.002 261.994 138.206Z" fill="#FFEC2D"/>
<path d="M274.81 335.36C273.018 338.585 271.942 342.323 269.69 345.241C262.726 338.944 252.691 339.097 243.885 338.739C236.614 338.329 228.73 337.664 223.098 332.493C217.21 327.629 212.346 321.382 205.792 317.44C199.633 316.114 193.845 313.439 188.845 309.606C178.502 301.158 172.563 288.614 162.426 279.91C160.531 278.067 158.227 276.582 156.077 274.995C154.029 275.507 154.95 279.91 152.442 277.657C151.059 276.633 147.629 276.582 147.322 277.965C150.394 282.061 153.517 286.669 153.978 291.891C151.827 292.096 148.09 291.43 147.066 292.198C149.879 296.419 153.415 300.111 157.51 303.104C155.565 303.411 151.725 303.257 150.957 304.025C154.79 307.696 159.523 310.292 164.678 311.552C165.702 312.985 163.091 315.75 165.344 316.979C166.624 317.491 170.925 318.413 167.955 319.897C165.907 321.229 166.675 324.454 169.286 324.352C170.925 325.222 174.611 325.376 174.918 326.912C173.434 328.345 168.928 330.086 172.768 331.52C176.388 333.572 180.439 334.747 184.595 334.95C182.547 336.691 179.987 337.664 177.888 339.302C187.36 344.883 197.856 348.518 208.301 352.102C212.397 353.433 216.646 354.713 220.947 355.533C208.454 354.816 196.371 351.129 185.005 346.061C179.117 343.501 173.229 340.992 167.187 338.79C169.798 337.408 172.87 337.049 175.635 335.872C169.901 334.745 163.706 334.336 158.739 331.264C159.456 329.83 162.323 329.779 163.962 329.062C167.034 328.345 168.877 327.526 164.627 327.219C160.326 326.041 155.411 326.553 151.571 323.993C151.827 322.457 155.821 322.969 157.408 322.304C159.456 321.945 161.709 321.638 163.347 320.256C156.691 317.542 147.987 319.488 142.765 313.6C141.587 311.347 146.502 313.139 147.885 312.781C151.469 312.781 155.309 313.907 158.739 312.473C149.011 308.224 138.618 304.281 131.245 296.397C130.426 295.117 127.968 291.635 129.965 291.225C135.699 291.993 139.846 298.24 146.042 297.267C146.861 296.192 142.458 294.4 141.331 292.813C132.069 285.371 123.99 276.567 117.37 266.701C116.96 263.27 122.234 262.758 123.616 265.369C130.477 272.025 136.672 279.705 145.222 284.211C148.294 285.696 143.482 282.47 142.867 281.293C134.735 272.277 127.705 262.326 121.926 251.648C120.902 249.702 119.315 246.169 122.285 245.145C125.203 243.661 128.173 245.657 129.658 248.217C135.443 255.539 139.744 264.243 146.963 270.336C140.819 258.406 134.214 245.76 134.061 232.038C134.214 229.376 134.368 225.382 138.003 225.433C141.075 224.973 140.563 228.864 141.587 230.707C144.557 240.845 145.837 251.801 151.827 260.71C150.547 253.235 148.55 245.504 149.882 237.875C150.189 235.315 152.954 234.598 154.848 236.134C156.333 239.718 156.64 244.275 157.971 248.166C165.951 274.67 182.752 297.65 205.587 313.293C224.285 326.087 246.102 333.572 268.717 334.95C270.765 335.155 272.813 335.206 274.81 335.309M344.646 381.952C340.96 384.205 338.093 380.211 335.021 379.033C332.768 380.262 332.563 384.256 330.515 386.201C328.058 389.017 324.986 385.382 325.242 382.617C322.272 385.126 320.787 390.809 316.026 389.99C313.722 388.147 312.032 384.256 310.291 388.71C308.909 390.861 305.171 393.933 303.174 390.656C302.56 387.789 301.126 384.409 299.59 388.966C298.464 392.243 294.982 394.598 291.706 393.165C289.862 391.68 293.139 386.15 290.835 386.509C287.354 388.864 285.306 394.547 280.442 394.086C278.547 392.038 281.619 388.403 279.52 386.048C277.114 389.171 274.4 393.779 270.15 394.086C268.102 392.448 270.253 387.686 268.922 387.021C264.621 389.581 260.013 394.24 254.586 392.806C256.685 384.614 265.594 381.798 273.018 381.184C285.869 379.597 299.386 382.515 311.776 377.856C313.773 376.627 318.586 374.937 316.896 372.121C315.36 369.869 320.838 370.739 321.35 368.128C321.043 364.851 323.91 365.312 326.675 365.056C339.168 364.493 351.507 367.104 363.949 367.565C364.87 373.606 358.163 377.856 352.685 376.013C350.125 376.422 346.285 370.073 347.053 374.681C346.541 377.139 346.848 380.313 344.646 381.952ZM238.458 369.561C241.325 372.173 243.373 369.049 246.086 367.872C254.948 364.403 263.273 359.697 270.816 353.894C275.526 350.003 279.622 344.934 285.971 343.654C298.362 339.917 311.52 340.377 323.91 336.896C333.382 323.993 349.408 319.334 362.874 311.91C365.894 310.989 367.072 308.48 367.994 305.766C373.114 297.625 380.128 290.457 388.422 285.542C392.337 283.23 396.95 282.395 401.427 283.187C400.81 288.41 398.317 293.231 394.413 296.755C397.434 296.704 400.045 294.809 403.014 294.912C404.038 300.339 398.202 303.155 395.078 306.534C396.819 306.944 403.475 307.456 399.84 309.197C395.232 312.371 389.958 314.573 385.709 318.31C389.651 319.027 390.112 319.846 386.118 321.28C383.917 322.713 379.77 323.225 379.36 326.093C382.33 327.936 378.029 329.677 376.339 330.291C373.165 331.059 369.786 332.441 374.035 334.899C372.448 337.305 368.966 337.817 366.15 337.561C367.021 340.326 368.25 343.398 364.717 344.627C356.792 350.891 347.299 354.859 337.274 356.096C349.818 357.017 362.771 354.713 373.472 347.904C374.906 346.214 382.33 344.371 378.182 342.989C376.237 342.169 372.038 341.248 371.731 339.763C377.568 336.179 384.89 337.459 391.136 335.36C391.29 333.312 386.374 333.875 384.531 333.414C380.179 333.056 380.435 331.929 384.634 331.52C389.958 330.086 396 329.83 400.506 326.4C396.87 324.659 392.262 326.144 388.371 324.761C394.976 321.894 402.758 321.587 408.698 317.235C411.411 314.214 405.216 315.187 403.424 315.238C399.789 315.904 398.099 314.112 402.246 312.627C409.363 307.353 418.323 303.974 423.341 296.397C424.518 294.707 426.106 289.587 422.317 291.379C417.402 293.069 413.05 298.598 407.366 296.909C418.528 288.256 429.075 278.477 436.704 266.547C437.114 263.065 431.686 262.707 430.304 265.421C423.136 272.281 416.685 280.422 407.52 284.774C416.158 276.137 423.66 266.433 429.843 255.897C431.226 252.825 434.861 249.088 432.915 245.657C429.69 242.995 425.696 245.453 424.058 248.576C418.477 255.846 414.278 264.294 407.162 270.233C413.357 258.304 419.859 245.555 419.962 231.833C419.962 228.966 419.45 224.768 415.558 225.331C412.486 225.843 413.254 230.451 411.974 232.755C409.21 242.176 407.878 252.365 402.246 260.557C403.526 252.928 405.728 244.941 404.038 237.261C403.219 233.779 397.638 235.264 398.406 238.694C391.75 272.435 369.069 301.926 339.526 318.976C325.958 326.656 310.854 331.571 295.392 333.824C291.296 334.694 286.79 334.182 282.848 335.616C273.222 342.937 267.437 355.277 255.302 359.117C249.824 361.83 242.758 362.393 238.867 367.411C238.552 368.082 238.411 368.822 238.458 369.561ZM264.928 364.288C263.085 364.39 261.293 364.595 259.501 365.158C257.094 365.517 254.79 366.336 252.435 366.694L251.462 366.899L249.875 367.053C250.082 367.911 250.082 368.806 249.875 369.664C249.709 370.051 249.465 370.399 249.158 370.688C248.851 371.097 248.493 371.405 248.032 371.609C247.616 371.814 247.163 371.936 246.701 371.968C246.24 371.968 245.779 371.968 245.318 371.763C244.858 371.609 244.448 371.353 244.038 370.995L242.605 371.251H241.274L239.84 370.739C239.377 370.558 238.932 370.335 238.509 370.073C236.768 371.097 234.822 372.07 233.747 373.862C233.247 374.682 232.965 375.616 232.928 376.576C232.826 377.805 233.133 379.033 233.645 380.16C233.85 380.467 234.003 378.982 234.566 378.777C235.539 377.958 236.768 377.395 237.997 377.088C239.021 376.576 238.867 377.088 238.458 377.907C238.355 378.368 237.792 379.955 238.56 379.136C242.1 377.813 245.84 377.103 249.619 377.037C255.046 376.473 260.474 376.32 265.901 376.269L281.261 376.576C283.718 376.678 286.176 377.19 288.582 376.781C289.146 376.627 290.067 376.627 290.426 376.269C289.299 375.654 288.019 375.603 286.842 375.449H277.062C274.349 375.193 271.533 375.142 268.973 374.118C268.256 373.862 267.642 373.197 266.976 373.913C266.001 374.262 264.986 374.485 263.955 374.579C262.163 374.681 260.371 374.323 258.733 373.657C259.91 372.019 261.344 370.585 262.675 369.049L259.501 368.384C261.395 367.104 263.085 365.619 264.928 364.288Z" fill="#FFEC2D"/>
<path d="M246.24 370.329C246.919 370.329 247.469 369.779 247.469 369.101C247.469 368.422 246.919 367.872 246.24 367.872C245.561 367.872 245.011 368.422 245.011 369.101C245.011 369.779 245.561 370.329 246.24 370.329Z" fill="#FFEC2D"/>
<path d="M246.137 369.408C246.42 369.408 246.649 369.179 246.649 368.896C246.649 368.613 246.42 368.384 246.137 368.384C245.855 368.384 245.625 368.613 245.625 368.896C245.625 369.179 245.855 369.408 246.137 369.408Z" fill="#FFEC2D" stroke="#FFEC2D" stroke-width="0.2048"/>
<path d="M61.94 37.3759C61.94 37.3759 57.0248 33.1775 55.3352 35.2767C52.6728 38.6047 63.6296 55.2447 63.6296 61.0815C63.6296 70.7071 57.1784 73.3183 49.2936 74.6495C43.9688 75.5711 35.316 74.2911 35.316 74.2911C36.9544 72.0895 38.0296 71.4239 40.7432 71.2703C37.6712 69.7343 34.5992 66.2527 34.5992 60.8767C34.5992 52.6335 37.9784 49.2031 37.9784 39.8847C37.9784 34.8159 33.78 28.1599 33.78 28.1599C41.2552 28.9279 44.9416 35.8399 42.8424 41.3695C43.4186 41.4842 44.0142 41.4554 44.5767 41.2858C45.1391 41.1161 45.6513 40.8108 46.068 40.3967C46.58 41.9327 45.7608 43.7247 44.5832 45.2607C45.5048 45.7727 46.2216 45.4655 47.6552 45.1583C47.5528 46.6943 46.6312 48.4351 44.276 50.0223C51.0344 48.2815 55.1304 52.9407 55.1304 57.8559C55.1304 61.5935 52.5704 64.2559 50.0104 64.2559C49.1912 64.2559 47.9624 63.8975 47.2968 63.3855C46.7848 64.4095 47.092 65.7919 47.5528 66.8159C45.7096 66.3039 44.4808 65.1775 45.3512 62.8735C43.9176 62.7711 42.7912 62.2591 42.0232 61.3375C42.7912 60.3135 43.9688 59.8015 45.3512 59.8015C44.3272 57.6511 45.5048 56.4735 47.1944 55.5007C47.1944 55.5007 46.1192 59.8015 48.8328 59.8015C50.0616 59.8015 51.188 59.4431 51.188 57.5999C51.188 56.0127 49.8056 53.8111 46.58 53.9647C43.4056 54.1183 40.7944 56.1663 40.7944 61.2863C40.7944 65.9967 44.6344 68.3519 49.652 68.4543C54.1576 68.6591 57.588 66.2015 57.588 61.5423C57.588 55.2959 48.628 41.1647 48.628 35.6351C48.628 31.4879 52.3144 29.1327 56.0008 29.1327C60.7112 29.1327 64.7048 33.8431 64.7048 33.8431L61.94 37.3247V37.3759Z" fill="#FFEC2D"/>
<path d="M62.964 149.555C62.964 159.949 53.6456 165.274 46.324 165.274C36.4936 165.274 31.22 159.386 31.22 151.654C31.22 147.302 32.0392 144.538 34.036 140.39L56.6664 93.44C57.4862 91.4651 57.8367 89.3269 57.6904 87.1936C57.6904 82.9952 53.5944 79.5648 49.3448 79.5136C45.4536 79.36 41.1528 83.0976 41.1528 87.3472C41.1528 92.5184 43.8664 94.8224 46.6312 94.8224C50.0104 94.8224 51.3416 93.44 51.3416 91.0336C51.3416 89.3952 50.5736 88.6784 49.396 88.6784C46.4776 88.6784 47.348 92.5696 47.348 92.5696C46.9626 92.4983 46.5977 92.3428 46.2794 92.1143C45.9611 91.8857 45.6971 91.5897 45.5064 91.2474C45.3156 90.905 45.2028 90.5248 45.176 90.1338C45.1492 89.7428 45.209 89.3508 45.3512 88.9856C44.2552 88.7398 43.2677 88.1473 42.5352 87.296C43.3032 86.528 44.2248 85.9648 45.3512 85.76C44.6856 83.5072 45.6072 82.432 47.5528 81.92C47.2027 82.6896 47.1128 83.5523 47.2968 84.3776C50.3688 83.456 55.1304 84.8896 55.1304 90.2144C55.1304 95.5392 51.444 99.9936 44.532 98.9184C46.1704 99.6864 46.9896 101.274 47.1944 103.066C45.9144 102.554 44.532 102.554 44.532 102.554C45.3512 103.936 46.4776 105.114 46.4264 107.981C45.1464 107.366 43.9176 106.291 42.3304 106.957C44.8904 112.077 41.716 119.04 33.6264 120.678C36.596 117.197 38.0296 113.51 38.0296 109.773C38.0296 97.7408 34.7016 95.744 34.7016 87.3472C34.7543 85.3998 35.2692 83.4928 36.2039 81.7836C37.1387 80.0744 38.4664 78.6119 40.0776 77.5168V77.6704C39.0868 77.4669 38.1503 77.056 37.3296 76.4648C36.5089 75.8736 35.8227 75.1153 35.316 74.24C41.0196 72.668 47.049 72.7212 52.724 74.3936C54.6222 74.6621 56.4358 75.3537 58.031 76.4171C59.6261 77.4805 60.962 78.8887 61.94 80.5376C62.9622 82.8701 63.49 85.3892 63.49 87.936C63.49 90.4827 62.9622 93.0018 61.94 95.3344C58.7144 101.99 43.6616 134.042 38.9512 144.077C37.9272 146.227 37.364 148.48 37.364 150.938C37.364 157.082 42.996 159.232 46.1704 159.232C50.0104 159.232 53.9528 156.314 53.9528 152.678C53.9528 150.374 52.6728 148.941 50.8808 148.941C46.5288 148.941 46.7848 152.627 47.6552 154.982C44.9416 153.754 43.4056 151.603 43.8152 149.35C42.1351 149.068 40.6104 148.197 39.5144 146.893C40.5384 145.562 41.8696 144.538 43.8152 144.486C42.9448 140.954 45.3512 139.469 47.6552 138.65C46.9384 141.21 46.4264 144.23 50.8808 144.23C54.1064 144.23 56.6152 144.742 58.1 146.893L58.4584 133.069C58.6632 128.922 52.9288 128.973 49.2424 130.253C50.6248 125.491 53.4408 122.88 59.9944 123.546C58.9903 123.159 58.1334 122.467 57.5452 121.566C56.957 120.666 56.6674 119.603 56.7176 118.528C56.7176 114.637 59.892 110.336 61.94 109.056L62.964 149.504V149.555Z" fill="#FFEC2D"/>
<path d="M62.964 180.685C62.964 170.291 53.6456 164.966 46.324 164.966C36.4936 164.966 31.22 170.854 31.22 178.586C31.22 182.938 32.0392 185.702 34.036 189.85L56.6664 236.8C57.4862 238.775 57.8367 240.913 57.6904 243.046C57.6904 247.245 53.5944 250.675 49.3448 250.726C45.4536 250.88 41.1528 247.142 41.1528 242.893C41.1528 237.722 43.8664 235.418 46.6312 235.418C50.0104 235.418 51.3416 236.8 51.3416 239.206C51.3416 240.845 50.5736 241.562 49.396 241.562C46.4776 241.562 47.348 237.67 47.348 237.67C46.9626 237.742 46.5977 237.897 46.2794 238.126C45.9611 238.354 45.6971 238.65 45.5064 238.993C45.3156 239.335 45.2028 239.715 45.176 240.106C45.1492 240.497 45.209 240.889 45.3512 241.254C44.2552 241.5 43.2677 242.093 42.5352 242.944C43.3032 243.712 44.2248 244.275 45.3512 244.48C44.6856 246.733 45.6072 247.808 47.5528 248.32C47.2027 247.55 47.1128 246.688 47.2968 245.862C50.3688 246.784 55.1304 245.35 55.1304 240.026C55.1304 234.701 51.444 230.246 44.532 231.322C46.1704 230.554 46.9896 228.966 47.1944 227.174C45.9144 227.686 44.532 227.686 44.532 227.686C45.3512 226.304 46.4776 225.126 46.4264 222.259C45.1464 222.874 43.9176 223.949 42.3304 223.283C44.8904 218.163 41.716 211.2 33.6264 209.562C36.596 213.043 38.0296 216.73 38.0296 220.467C38.0296 232.499 34.7016 234.496 34.7016 242.893C34.7543 244.84 35.2692 246.747 36.2039 248.456C37.1387 250.166 38.4664 251.628 40.0776 252.723V252.57C39.0868 252.773 38.1503 253.184 37.3296 253.775C36.5089 254.366 35.8227 255.125 35.316 256C41.0196 257.572 47.049 257.519 52.724 255.846C54.6222 255.578 56.4358 254.886 58.031 253.823C59.6261 252.759 60.962 251.351 61.94 249.702C62.9622 247.37 63.49 244.851 63.49 242.304C63.49 239.757 62.9622 237.238 61.94 234.906C58.7144 228.25 43.6616 196.198 38.9512 186.163C37.9272 184.013 37.364 181.76 37.364 179.302C37.364 173.158 42.996 171.008 46.1704 171.008C50.0104 171.008 53.9528 173.926 53.9528 177.562C53.9528 179.866 52.6728 181.299 50.8808 181.299C46.5288 181.299 46.7848 177.613 47.6552 175.258C44.9416 176.486 43.4056 178.637 43.8152 180.89C42.1351 181.172 40.6104 182.043 39.5144 183.347C40.5384 184.678 41.8696 185.702 43.8152 185.754C42.9448 189.286 45.3512 190.771 47.6552 191.59C46.9384 189.03 46.4264 186.01 50.8808 186.01C54.1064 186.01 56.6152 185.498 58.1 183.347L58.4584 197.171C58.6632 201.318 52.9288 201.267 49.2424 199.987C50.6248 204.749 53.4408 207.36 59.9944 206.694C58.9903 207.081 58.1334 207.773 57.5452 208.674C56.957 209.574 56.6674 210.637 56.7176 211.712C56.7176 215.603 59.892 219.904 61.94 221.184L62.964 180.736V180.685Z" fill="#FFEC2D"/>
<path d="M61.9399 37.3759C61.9399 37.3759 66.8551 33.1775 68.5447 35.2767C71.2071 38.6047 60.2502 55.2447 60.2502 61.0815C60.2502 70.7071 66.7015 73.3183 74.5863 74.6495C79.9111 75.5711 88.5639 74.2911 88.5639 74.2911C86.9255 72.0895 85.8503 71.4239 83.1367 71.2703C86.2087 69.7343 89.2807 66.2527 89.2807 60.8767C89.2807 52.6335 85.9015 49.2031 85.9015 39.8847C85.9015 34.8159 90.0999 28.1599 90.0999 28.1599C82.6247 28.9279 78.9383 35.8399 81.0375 41.3695C80.4613 41.4842 79.8657 41.4554 79.3032 41.2858C78.7407 41.1161 78.2286 40.8108 77.8119 40.3967C77.2999 41.9327 78.1191 43.7247 79.2967 45.2607C78.3751 45.7727 77.6583 45.4655 76.2247 45.1583C76.3271 46.6943 77.2487 48.4351 79.6039 50.0223C72.8455 48.2815 68.7495 52.9407 68.7495 57.8559C68.7495 61.5935 71.3095 64.2559 73.8695 64.2559C74.6887 64.2559 75.9175 63.8975 76.5831 63.3855C77.0951 64.4095 76.7879 65.7919 76.3271 66.8159C78.1703 66.3039 79.3991 65.1775 78.5287 62.8735C79.9623 62.7711 81.0887 62.2591 81.8567 61.3375C81.0887 60.3135 79.9111 59.8015 78.5287 59.8015C79.5527 57.6511 78.3751 56.4735 76.6855 55.5007C76.6855 55.5007 77.7607 59.8015 75.0471 59.8015C73.8183 59.8015 72.6919 59.4431 72.6919 57.5999C72.6919 56.0127 74.0743 53.8111 77.2999 53.9647C80.4743 54.1183 83.0855 56.1663 83.0855 61.2863C83.0855 65.9967 79.2455 68.3519 74.2279 68.4543C69.7223 68.6591 66.2919 66.2015 66.2919 61.5423C66.2919 55.2959 75.2519 41.1647 75.2519 35.6351C75.2519 31.4879 71.5655 29.1327 67.8791 29.1327C63.1687 29.1327 59.1751 33.8431 59.1751 33.8431L61.9399 37.3247V37.3759Z" fill="#FFEC2D"/>
<path d="M60.9159 149.555C60.9159 159.949 70.2343 165.274 77.5559 165.274C87.3863 165.274 92.6599 159.386 92.6599 151.654C92.6599 147.302 91.8407 144.538 89.8439 140.39L67.2135 93.44C66.3937 91.4651 66.0431 89.3269 66.1895 87.1936C66.1895 82.9952 70.2855 79.5648 74.5351 79.5136C78.4263 79.36 82.7271 83.0976 82.7271 87.3472C82.7271 92.5184 80.0135 94.8224 77.2487 94.8224C73.8695 94.8224 72.5383 93.44 72.5383 91.0336C72.5383 89.3952 73.3063 88.6784 74.4839 88.6784C77.4023 88.6784 76.5319 92.5696 76.5319 92.5696C76.9173 92.4983 77.2821 92.3428 77.6005 92.1143C77.9188 91.8857 78.1828 91.5897 78.3735 91.2474C78.5643 90.905 78.6771 90.5248 78.7039 90.1338C78.7307 89.7428 78.6709 89.3508 78.5287 88.9856C79.6246 88.7398 80.6122 88.1473 81.3447 87.296C80.5767 86.528 79.6551 85.9648 78.5287 85.76C79.1943 83.5072 78.2727 82.432 76.3271 81.92C76.6772 82.6896 76.767 83.5523 76.5831 84.3776C73.5111 83.456 68.7495 84.8896 68.7495 90.2144C68.7495 95.5392 72.4359 99.9936 79.3479 98.9184C77.7095 99.6864 76.8903 101.274 76.6855 103.066C77.9655 102.554 79.3479 102.554 79.3479 102.554C78.5287 103.936 77.4023 105.114 77.4535 107.981C78.7335 107.366 79.9623 106.291 81.5495 106.957C78.9895 112.077 82.1639 119.04 90.2535 120.678C87.2839 117.197 85.8503 113.51 85.8503 109.773C85.8503 97.7408 89.1783 95.744 89.1783 87.3472C89.1256 85.3998 88.6107 83.4928 87.6759 81.7836C86.7412 80.0744 85.4135 78.6119 83.8023 77.5168V77.6704C84.7931 77.4669 85.7296 77.056 86.5503 76.4648C87.3709 75.8736 88.0572 75.1153 88.5639 74.24C82.8603 72.668 76.8309 72.7212 71.1559 74.3936C69.2577 74.6621 67.4441 75.3537 65.8489 76.4171C64.2538 77.4805 62.9179 78.8887 61.9399 80.5376C60.9177 82.8701 60.3899 85.3892 60.3899 87.936C60.3899 90.4827 60.9177 93.0018 61.9399 95.3344C65.1655 101.99 80.2183 134.042 84.9287 144.077C85.9527 146.227 86.5159 148.48 86.5159 150.938C86.5159 157.082 80.8839 159.232 77.7095 159.232C73.8695 159.232 69.9271 156.314 69.9271 152.678C69.9271 150.374 71.2071 148.941 72.9991 148.941C77.3511 148.941 77.0951 152.627 76.2247 154.982C78.9383 153.754 80.4743 151.603 80.0647 149.35C81.7448 149.068 83.2695 148.197 84.3655 146.893C83.3415 145.562 82.0103 144.538 80.0647 144.486C80.9351 140.954 78.5287 139.469 76.2247 138.65C76.9415 141.21 77.4535 144.23 72.9991 144.23C69.7735 144.23 67.2647 144.742 65.7799 146.893L65.4215 133.069C65.2167 128.922 70.9511 128.973 74.6375 130.253C73.2551 125.491 70.4391 122.88 63.8855 123.546C64.8896 123.159 65.7465 122.467 66.3347 121.566C66.9229 120.666 67.2125 119.603 67.1623 118.528C67.1623 114.637 63.9879 110.336 61.9399 109.056L60.9159 149.504V149.555Z" fill="#FFEC2D"/>
<path d="M60.9159 180.685C60.9159 170.291 70.2343 164.966 77.5559 164.966C87.3863 164.966 92.6599 170.854 92.6599 178.586C92.6599 182.938 91.8407 185.702 89.8439 189.85L67.2135 236.8C66.3937 238.775 66.0431 240.913 66.1895 243.046C66.1895 247.245 70.2855 250.675 74.5351 250.726C78.4263 250.88 82.7271 247.142 82.7271 242.893C82.7271 237.722 80.0135 235.418 77.2487 235.418C73.8695 235.418 72.5383 236.8 72.5383 239.206C72.5383 240.845 73.3063 241.562 74.4839 241.562C77.4023 241.562 76.5319 237.67 76.5319 237.67C76.9173 237.742 77.2821 237.897 77.6005 238.126C77.9188 238.354 78.1828 238.65 78.3735 238.993C78.5643 239.335 78.6771 239.715 78.7039 240.106C78.7307 240.497 78.6709 240.889 78.5287 241.254C79.6246 241.5 80.6122 242.093 81.3447 242.944C80.5767 243.712 79.6551 244.275 78.5287 244.48C79.1943 246.733 78.2727 247.808 76.3271 248.32C76.6772 247.55 76.767 246.688 76.5831 245.862C73.5111 246.784 68.7495 245.35 68.7495 240.026C68.7495 234.701 72.4359 230.246 79.3479 231.322C77.7095 230.554 76.8903 228.966 76.6855 227.174C77.9655 227.686 79.3479 227.686 79.3479 227.686C78.5287 226.304 77.4023 225.126 77.4535 222.259C78.7335 222.874 79.9623 223.949 81.5495 223.283C78.9895 218.163 82.1639 211.2 90.2535 209.562C87.2839 213.043 85.8503 216.73 85.8503 220.467C85.8503 232.499 89.1783 234.496 89.1783 242.893C89.1256 244.84 88.6107 246.747 87.6759 248.456C86.7412 250.166 85.4135 251.628 83.8023 252.723V252.57C84.7931 252.773 85.7296 253.184 86.5503 253.775C87.3709 254.366 88.0572 255.125 88.5639 256C82.8603 257.572 76.8309 257.519 71.1559 255.846C69.2577 255.578 67.4441 254.886 65.8489 253.823C64.2538 252.759 62.9179 251.351 61.9399 249.702C60.9177 247.37 60.3899 244.851 60.3899 242.304C60.3899 239.757 60.9177 237.238 61.9399 234.906C65.1655 228.25 80.2183 196.198 84.9287 186.163C85.9527 184.013 86.5159 181.76 86.5159 179.302C86.5159 173.158 80.8839 171.008 77.7095 171.008C73.8695 171.008 69.9271 173.926 69.9271 177.562C69.9271 179.866 71.2071 181.299 72.9991 181.299C77.3511 181.299 77.0951 177.613 76.2247 175.258C78.9383 176.486 80.4743 178.637 80.0647 180.89C81.7448 181.172 83.2695 182.043 84.3655 183.347C83.3415 184.678 82.0103 185.702 80.0647 185.754C80.9351 189.286 78.5287 190.771 76.2247 191.59C76.9415 189.03 77.4535 186.01 72.9991 186.01C69.7735 186.01 67.2647 185.498 65.7799 183.347L65.4215 197.171C65.2167 201.318 70.9511 201.267 74.6375 199.987C73.2551 204.749 70.4391 207.36 63.8855 206.694C64.8896 207.081 65.7465 207.773 66.3347 208.674C66.9229 209.574 67.2125 210.637 67.1623 211.712C67.1623 215.603 63.9879 219.904 61.9399 221.184L60.9159 180.736V180.685Z" fill="#FFEC2D"/>
<path d="M61.94 474.624C61.94 474.624 57.0248 478.822 55.3352 476.723C52.6728 473.395 63.6296 456.755 63.6296 450.918C63.6296 441.293 57.1784 438.681 49.2936 437.35C43.9688 436.429 35.316 437.709 35.316 437.709C36.9544 439.91 38.0296 440.576 40.7432 440.729C37.6712 442.265 34.5992 445.747 34.5992 451.123C34.5992 459.366 37.9784 462.797 37.9784 472.115C37.9784 477.184 33.78 483.84 33.78 483.84C41.2552 483.072 44.9416 476.16 42.8424 470.63C43.4186 470.516 44.0142 470.544 44.5767 470.714C45.1391 470.884 45.6513 471.189 46.068 471.603C46.58 470.067 45.7608 468.275 44.5832 466.739C45.5048 466.227 46.2216 466.534 47.6552 466.841C47.5528 465.305 46.6312 463.565 44.276 461.977C51.0344 463.718 55.1304 459.059 55.1304 454.144C55.1304 450.406 52.5704 447.744 50.0104 447.744C49.1912 447.744 47.9624 448.102 47.2968 448.614C46.7848 447.59 47.092 446.208 47.5528 445.184C45.7096 445.696 44.4808 446.822 45.3512 449.126C43.9176 449.229 42.7912 449.741 42.0232 450.662C42.7912 451.686 43.9688 452.198 45.3512 452.198C44.3272 454.349 45.5048 455.526 47.1944 456.499C47.1944 456.499 46.1192 452.198 48.8328 452.198C50.0616 452.198 51.188 452.557 51.188 454.4C51.188 455.987 49.8056 458.189 46.58 458.035C43.4056 457.881 40.7944 455.833 40.7944 450.713C40.7944 446.003 44.6344 443.648 49.652 443.545C54.1576 443.341 57.588 445.798 57.588 450.457C57.588 456.704 48.628 470.835 48.628 476.365C48.628 480.512 52.3144 482.867 56.0008 482.867C60.7112 482.867 64.7048 478.157 64.7048 478.157L61.94 474.675V474.624Z" fill="#FFEC2D"/>
<path d="M62.964 362.445C62.964 352.051 53.6456 346.726 46.324 346.726C36.4936 346.726 31.22 352.614 31.22 360.345C31.22 364.697 32.0392 367.462 34.036 371.609L56.6664 418.56C57.4862 420.535 57.8367 422.673 57.6904 424.806C57.6904 429.005 53.5944 432.435 49.3448 432.486C45.4536 432.64 41.1528 428.902 41.1528 424.653C41.1528 419.481 43.8664 417.177 46.6312 417.177C50.0104 417.177 51.3416 418.56 51.3416 420.966C51.3416 422.605 50.5736 423.321 49.396 423.321C46.4776 423.321 47.348 419.43 47.348 419.43C46.9626 419.501 46.5977 419.657 46.2794 419.885C45.9611 420.114 45.6971 420.41 45.5064 420.752C45.3156 421.095 45.2028 421.475 45.176 421.866C45.1492 422.257 45.209 422.649 45.3512 423.014C44.2552 423.26 43.2677 423.852 42.5352 424.704C43.3032 425.472 44.2248 426.035 45.3512 426.24C44.6856 428.493 45.6072 429.568 47.5528 430.08C47.2027 429.31 47.1128 428.447 47.2968 427.622C50.3688 428.544 55.1304 427.11 55.1304 421.785C55.1304 416.461 51.444 412.006 44.532 413.081C46.1704 412.313 46.9896 410.726 47.1944 408.934C45.9144 409.446 44.532 409.446 44.532 409.446C45.3512 408.064 46.4776 406.886 46.4264 404.019C45.1464 404.633 43.9176 405.709 42.3304 405.043C44.8904 399.923 41.716 392.96 33.6264 391.321C36.596 394.803 38.0296 398.489 38.0296 402.227C38.0296 414.259 34.7016 416.256 34.7016 424.653C34.7543 426.6 35.2692 428.507 36.2039 430.216C37.1387 431.925 38.4664 433.388 40.0776 434.483V434.329C39.0868 434.533 38.1503 434.944 37.3296 435.535C36.5089 436.126 35.8227 436.884 35.316 437.76C41.0196 439.332 47.049 439.279 52.724 437.606C54.6222 437.338 56.4358 436.646 58.031 435.583C59.6261 434.519 60.962 433.111 61.94 431.462C62.9622 429.13 63.49 426.611 63.49 424.064C63.49 421.517 62.9622 418.998 61.94 416.665C58.7144 410.009 43.6616 377.958 38.9512 367.923C37.9272 365.773 37.364 363.52 37.364 361.062C37.364 354.918 42.996 352.768 46.1704 352.768C50.0104 352.768 53.9528 355.686 53.9528 359.321C53.9528 361.625 52.6728 363.059 50.8808 363.059C46.5288 363.059 46.7848 359.373 47.6552 357.017C44.9416 358.246 43.4056 360.397 43.8152 362.649C42.1351 362.931 40.6104 363.803 39.5144 365.107C40.5384 366.438 41.8696 367.462 43.8152 367.513C42.9448 371.046 45.3512 372.531 47.6552 373.35C46.9384 370.79 46.4264 367.769 50.8808 367.769C54.1064 367.769 56.6152 367.257 58.1 365.107L58.4584 378.931C58.6632 383.078 52.9288 383.027 49.2424 381.747C50.6248 386.509 53.4408 389.12 59.9944 388.454C58.9903 388.84 58.1334 389.533 57.5452 390.433C56.957 391.334 56.6674 392.397 56.7176 393.472C56.7176 397.363 59.892 401.664 61.94 402.944L62.964 362.496V362.445Z" fill="#FFEC2D"/>
<path d="M62.964 331.315C62.964 341.709 53.6456 347.034 46.324 347.034C36.4936 347.034 31.22 341.146 31.22 333.414C31.22 329.062 32.0392 326.298 34.036 322.15L56.6664 275.2C57.4862 273.225 57.8367 271.087 57.6904 268.954C57.6904 264.755 53.5944 261.325 49.3448 261.274C45.4536 261.12 41.1528 264.858 41.1528 269.107C41.1528 274.278 43.8664 276.582 46.6312 276.582C50.0104 276.582 51.3416 275.2 51.3416 272.794C51.3416 271.155 50.5736 270.438 49.396 270.438C46.4776 270.438 47.348 274.33 47.348 274.33C46.9626 274.258 46.5977 274.103 46.2794 273.874C45.9611 273.646 45.6971 273.35 45.5064 273.007C45.3156 272.665 45.2028 272.285 45.176 271.894C45.1492 271.503 45.209 271.111 45.3512 270.746C44.2552 270.5 43.2677 269.907 42.5352 269.056C43.3032 268.288 44.2248 267.725 45.3512 267.52C44.6856 265.267 45.6072 264.192 47.5528 263.68C47.2027 264.45 47.1128 265.312 47.2968 266.138C50.3688 265.216 55.1304 266.65 55.1304 271.974C55.1304 277.299 51.444 281.754 44.532 280.678C46.1704 281.446 46.9896 283.034 47.1944 284.826C45.9144 284.314 44.532 284.314 44.532 284.314C45.3512 285.696 46.4776 286.874 46.4264 289.741C45.1464 289.126 43.9176 288.051 42.3304 288.717C44.8904 293.837 41.716 300.8 33.6264 302.438C36.596 298.957 38.0296 295.27 38.0296 291.533C38.0296 279.501 34.7016 277.504 34.7016 269.107C34.7543 267.16 35.2692 265.253 36.2039 263.544C37.1387 261.834 38.4664 260.372 40.0776 259.277V259.43C39.0868 259.227 38.1503 258.816 37.3296 258.225C36.5089 257.634 35.8227 256.875 35.316 256C41.0196 254.428 47.049 254.481 52.724 256.154C54.6222 256.422 56.4358 257.114 58.031 258.177C59.6261 259.241 60.962 260.649 61.94 262.298C62.9622 264.63 63.49 267.149 63.49 269.696C63.49 272.243 62.9622 274.762 61.94 277.094C58.7144 283.75 43.6616 315.802 38.9512 325.837C37.9272 327.987 37.364 330.24 37.364 332.698C37.364 338.842 42.996 340.992 46.1704 340.992C50.0104 340.992 53.9528 338.074 53.9528 334.438C53.9528 332.134 52.6728 330.701 50.8808 330.701C46.5288 330.701 46.7848 334.387 47.6552 336.742C44.9416 335.514 43.4056 333.363 43.8152 331.11C42.1351 330.828 40.6104 329.957 39.5144 328.653C40.5384 327.322 41.8696 326.298 43.8152 326.246C42.9448 322.714 45.3512 321.229 47.6552 320.41C46.9384 322.97 46.4264 325.99 50.8808 325.99C54.1064 325.99 56.6152 326.502 58.1 328.653L58.4584 314.829C58.6632 310.682 52.9288 310.733 49.2424 312.013C50.6248 307.251 53.4408 304.64 59.9944 305.306C58.9903 304.919 58.1334 304.227 57.5452 303.326C56.957 302.426 56.6674 301.363 56.7176 300.288C56.7176 296.397 59.892 292.096 61.94 290.816L62.964 331.264V331.315Z" fill="#FFEC2D"/>
<path d="M61.9399 474.624C61.9399 474.624 66.8551 478.822 68.5447 476.723C71.2071 473.395 60.2502 456.755 60.2502 450.918C60.2502 441.293 66.7015 438.681 74.5863 437.35C79.9111 436.429 88.5639 437.709 88.5639 437.709C86.9255 439.91 85.8503 440.576 83.1367 440.729C86.2087 442.265 89.2807 445.747 89.2807 451.123C89.2807 459.366 85.9015 462.797 85.9015 472.115C85.9015 477.184 90.0999 483.84 90.0999 483.84C82.6247 483.072 78.9383 476.16 81.0375 470.63C80.4613 470.516 79.8657 470.544 79.3032 470.714C78.7407 470.884 78.2286 471.189 77.8119 471.603C77.2999 470.067 78.1191 468.275 79.2967 466.739C78.3751 466.227 77.6583 466.534 76.2247 466.841C76.3271 465.305 77.2487 463.565 79.6039 461.977C72.8455 463.718 68.7495 459.059 68.7495 454.144C68.7495 450.406 71.3095 447.744 73.8695 447.744C74.6887 447.744 75.9175 448.102 76.5831 448.614C77.0951 447.59 76.7879 446.208 76.3271 445.184C78.1703 445.696 79.3991 446.822 78.5287 449.126C79.9623 449.229 81.0887 449.741 81.8567 450.662C81.0887 451.686 79.9111 452.198 78.5287 452.198C79.5527 454.349 78.3751 455.526 76.6855 456.499C76.6855 456.499 77.7607 452.198 75.0471 452.198C73.8183 452.198 72.6919 452.557 72.6919 454.4C72.6919 455.987 74.0743 458.189 77.2999 458.035C80.4743 457.881 83.0855 455.833 83.0855 450.713C83.0855 446.003 79.2455 443.648 74.2279 443.545C69.7223 443.341 66.2919 445.798 66.2919 450.457C66.2919 456.704 75.2519 470.835 75.2519 476.365C75.2519 480.512 71.5655 482.867 67.8791 482.867C63.1687 482.867 59.1751 478.157 59.1751 478.157L61.9399 474.675V474.624Z" fill="#FFEC2D"/>
<path d="M60.9159 362.445C60.9159 352.051 70.2343 346.726 77.5559 346.726C87.3863 346.726 92.6599 352.614 92.6599 360.345C92.6599 364.697 91.8407 367.462 89.8439 371.609L67.2135 418.56C66.3937 420.535 66.0431 422.673 66.1895 424.806C66.1895 429.005 70.2855 432.435 74.5351 432.486C78.4263 432.64 82.7271 428.902 82.7271 424.653C82.7271 419.481 80.0135 417.177 77.2487 417.177C73.8695 417.177 72.5383 418.56 72.5383 420.966C72.5383 422.605 73.3063 423.321 74.4839 423.321C77.4023 423.321 76.5319 419.43 76.5319 419.43C76.9173 419.501 77.2821 419.657 77.6005 419.885C77.9188 420.114 78.1828 420.41 78.3735 420.752C78.5643 421.095 78.6771 421.475 78.7039 421.866C78.7307 422.257 78.6709 422.649 78.5287 423.014C79.6246 423.26 80.6122 423.852 81.3447 424.704C80.5767 425.472 79.6551 426.035 78.5287 426.24C79.1943 428.493 78.2727 429.568 76.3271 430.08C76.6772 429.31 76.767 428.447 76.5831 427.622C73.5111 428.544 68.7495 427.11 68.7495 421.785C68.7495 416.461 72.4359 412.006 79.3479 413.081C77.7095 412.313 76.8903 410.726 76.6855 408.934C77.9655 409.446 79.3479 409.446 79.3479 409.446C78.5287 408.064 77.4023 406.886 77.4535 404.019C78.7335 404.633 79.9623 405.709 81.5495 405.043C78.9895 399.923 82.1639 392.96 90.2535 391.321C87.2839 394.803 85.8503 398.489 85.8503 402.227C85.8503 414.259 89.1783 416.256 89.1783 424.653C89.1256 426.6 88.6107 428.507 87.6759 430.216C86.7412 431.925 85.4135 433.388 83.8023 434.483V434.329C84.7931 434.533 85.7296 434.944 86.5503 435.535C87.3709 436.126 88.0572 436.884 88.5639 437.76C82.8603 439.332 76.8309 439.279 71.1559 437.606C69.2577 437.338 67.4441 436.646 65.8489 435.583C64.2538 434.519 62.9179 433.111 61.9399 431.462C60.9177 429.13 60.3899 426.611 60.3899 424.064C60.3899 421.517 60.9177 418.998 61.9399 416.665C65.1655 410.009 80.2183 377.958 84.9287 367.923C85.9527 365.773 86.5159 363.52 86.5159 361.062C86.5159 354.918 80.8839 352.768 77.7095 352.768C73.8695 352.768 69.9271 355.686 69.9271 359.321C69.9271 361.625 71.2071 363.059 72.9991 363.059C77.3511 363.059 77.0951 359.373 76.2247 357.017C78.9383 358.246 80.4743 360.397 80.0647 362.649C81.7448 362.931 83.2695 363.803 84.3655 365.107C83.3415 366.438 82.0103 367.462 80.0647 367.513C80.9351 371.046 78.5287 372.531 76.2247 373.35C76.9415 370.79 77.4535 367.769 72.9991 367.769C69.7735 367.769 67.2647 367.257 65.7799 365.107L65.4215 378.931C65.2167 383.078 70.9511 383.027 74.6375 381.747C73.2551 386.509 70.4391 389.12 63.8855 388.454C64.8896 388.84 65.7465 389.533 66.3347 390.433C66.9229 391.334 67.2125 392.397 67.1623 393.472C67.1623 397.363 63.9879 401.664 61.9399 402.944L60.9159 362.496V362.445Z" fill="#FFEC2D"/>
<path d="M60.9159 331.315C60.9159 341.709 70.2343 347.034 77.5559 347.034C87.3863 347.034 92.6599 341.146 92.6599 333.414C92.6599 329.062 91.8407 326.298 89.8439 322.15L67.2135 275.2C66.3937 273.225 66.0431 271.087 66.1895 268.954C66.1895 264.755 70.2855 261.325 74.5351 261.274C78.4263 261.12 82.7271 264.858 82.7271 269.107C82.7271 274.278 80.0135 276.582 77.2487 276.582C73.8695 276.582 72.5383 275.2 72.5383 272.794C72.5383 271.155 73.3063 270.438 74.4839 270.438C77.4023 270.438 76.5319 274.33 76.5319 274.33C76.9173 274.258 77.2821 274.103 77.6005 273.874C77.9188 273.646 78.1828 273.35 78.3735 273.007C78.5643 272.665 78.6771 272.285 78.7039 271.894C78.7307 271.503 78.6709 271.111 78.5287 270.746C79.6246 270.5 80.6122 269.907 81.3447 269.056C80.5767 268.288 79.6551 267.725 78.5287 267.52C79.1943 265.267 78.2727 264.192 76.3271 263.68C76.6772 264.45 76.767 265.312 76.5831 266.138C73.5111 265.216 68.7495 266.65 68.7495 271.974C68.7495 277.299 72.4359 281.754 79.3479 280.678C77.7095 281.446 76.8903 283.034 76.6855 284.826C77.9655 284.314 79.3479 284.314 79.3479 284.314C78.5287 285.696 77.4023 286.874 77.4535 289.741C78.7335 289.126 79.9623 288.051 81.5495 288.717C78.9895 293.837 82.1639 300.8 90.2535 302.438C87.2839 298.957 85.8503 295.27 85.8503 291.533C85.8503 279.501 89.1783 277.504 89.1783 269.107C89.1256 267.16 88.6107 265.253 87.6759 263.544C86.7412 261.834 85.4135 260.372 83.8023 259.277V259.43C84.7931 259.227 85.7296 258.816 86.5503 258.225C87.3709 257.634 88.0572 256.875 88.5639 256C82.8603 254.428 76.8309 254.481 71.1559 256.154C69.2577 256.422 67.4441 257.114 65.8489 258.177C64.2538 259.241 62.9179 260.649 61.9399 262.298C60.9177 264.63 60.3899 267.149 60.3899 269.696C60.3899 272.243 60.9177 274.762 61.9399 277.094C65.1655 283.75 80.2183 315.802 84.9287 325.837C85.9527 327.987 86.5159 330.24 86.5159 332.698C86.5159 338.842 80.8839 340.992 77.7095 340.992C73.8695 340.992 69.9271 338.074 69.9271 334.438C69.9271 332.134 71.2071 330.701 72.9991 330.701C77.3511 330.701 77.0951 334.387 76.2247 336.742C78.9383 335.514 80.4743 333.363 80.0647 331.11C81.7448 330.828 83.2695 329.957 84.3655 328.653C83.3415 327.322 82.0103 326.298 80.0647 326.246C80.9351 322.714 78.5287 321.229 76.2247 320.41C76.9415 322.97 77.4535 325.99 72.9991 325.99C69.7735 325.99 67.2647 326.502 65.7799 328.653L65.4215 314.829C65.2167 310.682 70.9511 310.733 74.6375 312.013C73.2551 307.251 70.4391 304.64 63.8855 305.306C64.8896 304.919 65.7465 304.227 66.3347 303.326C66.9229 302.426 67.2125 301.363 67.1623 300.288C67.1623 296.397 63.9879 292.096 61.9399 290.816L60.9159 331.264V331.315Z" fill="#FFEC2D"/>
</g>
<defs>
<clipPath id="clip0_103_7449">
<rect width="512" height="512" fill="white" transform="translate(0.5)"/>
</clipPath>
</defs>
</svg>
