<svg width="513" height="512" viewBox="0 0 513 512" fill="none" xmlns="http://www.w3.org/2000/svg">
<g clip-path="url(#clip0_103_7527)">
<mask id="mask0_103_7527" style="mask-type:luminance" maskUnits="userSpaceOnUse" x="0" y="0" width="513" height="512">
<path d="M0.480469 0H512.402V511.922H0.480469V0Z" fill="white"/>
</mask>
<g mask="url(#mask0_103_7527)">
<path fill-rule="evenodd" clip-rule="evenodd" d="M-127.5 383.941H640.382V511.922H-127.5V383.941ZM-127.5 0H640.382V127.98H-127.5V0Z" fill="#EE161F"/>
<path fill-rule="evenodd" clip-rule="evenodd" d="M-127.5 127.98H640.382V383.941H-127.5V127.98Z" fill="white"/>
<path d="M252.623 129.941C244.779 145.526 239.515 145.526 226.51 155.95C221.35 161.111 213.506 163.691 223.93 168.955C213.609 174.115 208.345 176.696 203.082 187.12L205.765 189.7C205.765 189.7 215.57 184.849 216.086 187.12C217.841 189.184 203.082 197.131 201.224 198.473C199.366 199.815 190.077 205.285 190.077 205.285C177.073 215.709 169.229 213.129 161.488 228.713L187.497 226.133C192.658 244.298 174.493 246.878 161.488 254.722L140.64 267.727C145.8 285.892 161.488 275.468 174.493 270.307L177.073 272.887V278.048L151.167 291.052C151.167 291.052 120.411 308.598 119.894 309.217C119.688 310.249 119.894 314.378 119.894 314.378C130.319 317.061 145.903 319.641 156.328 314.378C169.332 309.217 172.016 304.057 187.6 304.057C172.559 315.815 154.48 323.046 135.479 324.905V335.226C151.167 335.226 161.591 335.226 174.596 332.646L208.449 322.325C216.189 322.325 224.033 330.066 221.453 337.806C213.609 366.396 182.44 361.235 171.912 384.664L213.609 369.079C224.033 363.919 234.458 358.655 247.462 361.235C263.047 366.396 263.047 376.82 283.895 381.98L278.735 369.079C283.895 371.659 289.056 371.659 294.319 374.24C307.324 379.4 309.904 384.561 325.592 381.98C312.588 366.499 309.904 369.079 299.583 358.655C289.159 343.07 283.895 319.641 299.583 317.061L317.748 322.222C336.016 324.905 336.016 319.641 362.025 330.066C377.61 335.226 382.874 343.07 401.038 337.806C393.298 319.641 364.605 306.637 346.337 301.476C367.186 288.472 362.025 306.637 390.717 298.896V293.736C369.869 278.048 362.025 265.043 333.333 265.043L377.713 259.883V254.722C377.713 254.722 333.849 243.266 332.817 242.853C333.088 241.803 333.617 240.838 334.356 240.045C335.095 239.252 336.02 238.656 337.048 238.312C345.305 243.679 370.385 243.06 371.83 242.956C371.108 236.557 359.238 231.294 348.814 226.133C348.814 226.133 304.228 198.576 304.021 196.202C304.847 189.184 322.289 197.234 340.97 202.704C335.81 192.383 325.386 187.12 314.961 184.54L330.546 181.959C320.225 158.531 294.113 161.111 278.528 150.687C268.104 142.946 268.104 137.682 252.519 129.941H252.623Z" fill="#00A850"/>
<path fill-rule="evenodd" clip-rule="evenodd" d="M224.446 303.024C226.407 296.832 228.884 291.362 217.325 286.098C205.765 280.834 223.104 307.256 224.549 303.024H224.446ZM238.173 290.639C235.799 290.949 234.664 299.515 239.205 301.786C244.469 302.612 240.237 290.742 238.173 290.639ZM251.694 289.71C249.32 290.433 249.217 302.508 257.68 300.341C266.246 298.277 257.68 288.781 251.694 289.814V289.71ZM267.485 258.954C269.343 256.064 267.382 243.988 260.054 249.046C252.726 254.206 265.214 259.779 267.485 258.954ZM251.487 248.942C253.758 248.117 253.964 240.686 247.565 242.75C241.166 244.608 249.836 250.491 251.487 248.942ZM237.038 251.936C237.038 251.936 232.6 245.743 229.091 246.981C224.756 251.11 237.347 252.039 237.038 251.936ZM187.497 271.649C189.355 271.855 203.495 269.378 208.345 263.908C213.299 258.438 183.265 266.178 183.265 266.282C183.265 266.385 186.052 271.133 187.394 271.649H187.497ZM328.585 236.764C329.308 235.422 321.051 229.539 316.2 231.913C314.961 236.248 328.585 237.589 328.585 236.764ZM300.822 222.727C302.37 220.56 297.209 211.374 287.095 216.534C276.98 221.695 297.725 226.339 300.822 222.727ZM268.723 217.36C268.723 217.36 271.2 209.103 277.393 210.755C284.205 216.018 269.033 217.67 268.723 217.36ZM262.737 211.168C261.705 208.897 255.409 210.239 248.081 215.09C240.753 219.837 264.904 216.431 262.737 211.168ZM281.315 189.081C281.315 189.081 287.92 186.088 289.881 189.081C292.565 193.415 281.315 189.081 281.418 189.081H281.315ZM275.948 186.191C274.606 183.61 267.382 183.301 267.588 187.223C266.349 190.113 276.877 189.597 275.845 186.191H275.948ZM258.712 186.191C257.989 184.643 247.772 186.191 244.675 192.383C249.629 194.757 260.983 190.113 258.712 186.191ZM236.728 192.487C236.728 192.487 223.311 200.743 222.382 206.833C222.795 211.993 239.205 197.337 239.205 197.337C239.205 197.337 240.65 191.558 236.728 192.487ZM221.763 184.952C222.176 183.301 228.471 179.379 228.987 179.792C229.503 181.443 223.827 185.984 221.763 184.952ZM226.098 216.534C226.407 214.161 209.997 214.367 216.189 221.798C221.35 228.094 227.233 217.67 226.098 216.638V216.534ZM211.029 227.372C210.203 225.72 208.965 221.282 206.694 220.869C204.939 220.869 195.031 222.934 194.309 224.482C193.896 225.823 198.437 233.977 199.882 234.183C201.637 234.803 210.719 228.197 211.029 227.372ZM299.377 282.486C299.893 280.731 316.613 274.951 322.392 280.421C329.204 289.71 298.964 285.376 299.377 282.486ZM345.408 293.426C349.021 287.233 334.055 279.802 327.863 286.924C329.927 295.387 342.415 298.483 345.408 293.426Z" fill="white" stroke="white" stroke-width="3.19951" stroke-linecap="round" stroke-linejoin="round"/>
</g>
</g>
<defs>
<clipPath id="clip0_103_7527">
<rect width="512" height="512" fill="white" transform="translate(0.5)"/>
</clipPath>
</defs>
</svg>
