<svg width="513" height="512" viewBox="0 0 513 512" fill="none" xmlns="http://www.w3.org/2000/svg">
<g clip-path="url(#clip0_103_7543)">
<path d="M0.5 0H512.6V256H0.5V0Z" fill="#002B7F"/>
<path d="M0.5 256H512.6V512H0.5V256Z" fill="#CE1126"/>
<path d="M131.161 104.362L129.539 157.695H75.4381C68.7821 144.725 63.3208 133.802 63.3208 118.869C63.3208 106.41 73.1341 96.5117 87.214 96.5117C102.147 96.5117 118.617 101.546 131.161 104.362Z" fill="#FFD83D"/>
<path d="M69.806 106.837V137.557V106.837ZM74.0727 103.68V144.639V103.68ZM78.51 101.546V150.357V101.546ZM82.7766 100.522V138.837V100.522ZM87.1286 100.352V139.007V100.352ZM91.4806 98.9009V139.007V98.9009ZM95.8326 98.9009V139.007V98.9009ZM100.185 99.3275V139.434V99.3275ZM104.537 99.7542V139.775V99.7542ZM108.889 102.229V142.335V102.229ZM113.155 102.656V147.797V102.656ZM117.593 102.656V142.762V102.656ZM121.859 102.656V142.762V102.656Z" fill="#FFD83D"/>
<path d="M69.806 106.837V137.557M74.0727 103.68V144.639M78.51 101.546V150.357M82.7766 100.522V138.837M87.1286 100.352V139.007M91.4806 98.9009V139.007M95.8326 98.9009V139.007M100.185 99.3275V139.434M104.537 99.7542V139.775M108.889 102.229V142.335M113.155 102.656V147.797M117.593 102.656V142.762M121.859 102.656V142.762" stroke="black" stroke-width="1.27999" stroke-linecap="round" stroke-linejoin="round"/>
<path d="M97.0273 100.693C106.243 102.144 126.382 111.615 124.078 124.33C120.835 142.421 110.254 135.167 96.2593 132.607L85.678 136.106C81.838 139.946 76.2913 143.53 72.5367 138.837H66.222V163.413H135.683V104.106L97.0273 100.693Z" fill="black" stroke="black" stroke-width="1.27999" stroke-linecap="round" stroke-linejoin="round"/>
<path d="M128.089 100.608C130.398 100.608 132.27 98.7357 132.27 96.4264C132.27 94.1172 130.398 92.2451 128.089 92.2451C125.779 92.2451 123.907 94.1172 123.907 96.4264C123.907 98.7357 125.779 100.608 128.089 100.608Z" fill="#FFD83D" stroke="black" stroke-width="1.70666" stroke-linecap="round" stroke-linejoin="round"/>
<path d="M118.616 98.3035C120.926 98.3035 122.798 96.4315 122.798 94.1222C122.798 91.813 120.926 89.9409 118.616 89.9409C116.307 89.9409 114.435 91.813 114.435 94.1222C114.435 96.4315 116.307 98.3035 118.616 98.3035Z" fill="#FFD83D" stroke="black" stroke-width="1.70666" stroke-linecap="round" stroke-linejoin="round"/>
<path d="M108.974 95.9144C111.283 95.9144 113.155 94.0424 113.155 91.7331C113.155 89.4238 111.283 87.5518 108.974 87.5518C106.665 87.5518 104.793 89.4238 104.793 91.7331C104.793 94.0424 106.665 95.9144 108.974 95.9144Z" fill="#FFD83D" stroke="black" stroke-width="1.70666" stroke-linecap="round" stroke-linejoin="round"/>
<path d="M99.3313 94.2931C101.641 94.2931 103.513 92.421 103.513 90.1117C103.513 87.8025 101.641 85.9304 99.3313 85.9304C97.0221 85.9304 95.15 87.8025 95.15 90.1117C95.15 92.421 97.0221 94.2931 99.3313 94.2931Z" fill="#FFD83D" stroke="black" stroke-width="1.70666" stroke-linecap="round" stroke-linejoin="round"/>
<path d="M89.6886 93.3543C91.9979 93.3543 93.87 91.4823 93.87 89.173C93.87 86.8637 91.9979 84.9917 89.6886 84.9917C87.3794 84.9917 85.5073 86.8637 85.5073 89.173C85.5073 91.4823 87.3794 93.3543 89.6886 93.3543Z" fill="#FFD83D" stroke="black" stroke-width="1.70666" stroke-linecap="round" stroke-linejoin="round"/>
<path d="M80.3021 93.8663C82.6113 93.8663 84.4834 91.9943 84.4834 89.685C84.4834 87.3757 82.6113 85.5037 80.3021 85.5037C77.9928 85.5037 76.1207 87.3757 76.1207 89.685C76.1207 91.9943 77.9928 93.8663 80.3021 93.8663Z" fill="#FFD83D" stroke="black" stroke-width="1.70666" stroke-linecap="round" stroke-linejoin="round"/>
<path d="M71.2568 96.9383C73.566 96.9383 75.4381 95.0663 75.4381 92.757C75.4381 90.4477 73.566 88.5757 71.2568 88.5757C68.9475 88.5757 67.0754 90.4477 67.0754 92.757C67.0754 95.0663 68.9475 96.9383 71.2568 96.9383Z" fill="#FFD83D" stroke="black" stroke-width="1.70666" stroke-linecap="round" stroke-linejoin="round"/>
<path d="M63.662 102.57C65.9713 102.57 67.8433 100.698 67.8433 98.3891C67.8433 96.0798 65.9713 94.2078 63.662 94.2078C61.3528 94.2078 59.4807 96.0798 59.4807 98.3891C59.4807 100.698 61.3528 102.57 63.662 102.57Z" fill="#FFD83D" stroke="black" stroke-width="1.70666" stroke-linecap="round" stroke-linejoin="round"/>
<path d="M58.2861 110.336C60.5953 110.336 62.4674 108.463 62.4674 106.154C62.4674 103.845 60.5953 101.973 58.2861 101.973C55.9768 101.973 54.1047 103.845 54.1047 106.154C54.1047 108.463 55.9768 110.336 58.2861 110.336Z" fill="#FFD83D" stroke="black" stroke-width="1.70666" stroke-linecap="round" stroke-linejoin="round"/>
<path d="M55.6408 119.552C57.9501 119.552 59.8221 117.68 59.8221 115.37C59.8221 113.061 57.9501 111.189 55.6408 111.189C53.3315 111.189 51.4595 113.061 51.4595 115.37C51.4595 117.68 53.3315 119.552 55.6408 119.552Z" fill="#FFD83D" stroke="black" stroke-width="1.70666" stroke-linecap="round" stroke-linejoin="round"/>
<path d="M55.7261 129.024C58.0354 129.024 59.9074 127.151 59.9074 124.842C59.9074 122.533 58.0354 120.661 55.7261 120.661C53.4168 120.661 51.5448 122.533 51.5448 124.842C51.5448 127.151 53.4168 129.024 55.7261 129.024Z" fill="#FFD83D" stroke="black" stroke-width="1.70666" stroke-linecap="round" stroke-linejoin="round"/>
<path d="M57.6034 138.325C59.9127 138.325 61.7848 136.453 61.7848 134.143C61.7848 131.834 59.9127 129.962 57.6034 129.962C55.2942 129.962 53.4221 131.834 53.4221 134.143C53.4221 136.453 55.2942 138.325 57.6034 138.325Z" fill="#FFD83D" stroke="black" stroke-width="1.70666" stroke-linecap="round" stroke-linejoin="round"/>
<path d="M129.966 101.973L129.539 107.52C119.043 105.813 104.195 100.01 90.286 100.01C77.486 100.01 67.5874 105.13 67.5874 118.101C67.5874 130.815 72.9634 142.421 80.1314 154.197L72.7074 157.61C66.0514 144.81 60.5048 133.717 60.5048 118.869C60.5048 106.41 70.318 94.1223 87.214 94.1223C102.147 94.1223 117.422 99.2423 129.966 101.973Z" fill="#FFD83D" stroke="black" stroke-width="1.70666" stroke-linecap="round" stroke-linejoin="round"/>
<path d="M140.718 104.362L142.339 157.695H196.44C203.096 144.725 208.558 133.802 208.558 118.869C208.558 106.41 198.744 96.5117 184.664 96.5117C169.731 96.5117 153.262 101.546 140.718 104.362Z" fill="#FFD83D"/>
<path d="M202.072 106.837V137.557V106.837ZM197.806 103.68V144.639V103.68ZM193.368 101.546V150.357V101.546ZM189.102 100.522V138.837V100.522ZM184.75 100.352V139.007V100.352ZM180.398 98.9009V139.007V98.9009ZM176.046 98.9009V139.007V98.9009ZM171.694 99.3275V139.434V99.3275ZM167.342 99.7542V139.775V99.7542ZM162.99 102.229V142.335V102.229ZM158.723 102.656V147.797V102.656ZM154.286 102.656V142.762V102.656ZM150.019 102.656V142.762V102.656Z" fill="#FFD83D"/>
<path d="M202.072 106.837V137.557M197.806 103.68V144.639M193.368 101.546V150.357M189.102 100.522V138.837M184.75 100.352V139.007M180.398 98.9009V139.007M176.046 98.9009V139.007M171.694 99.3275V139.434M167.342 99.7542V139.775M162.99 102.229V142.335M158.723 102.656V147.797M154.286 102.656V142.762M150.019 102.656V142.762" stroke="black" stroke-width="1.27999" stroke-linecap="round" stroke-linejoin="round"/>
<path d="M174.851 100.693C165.635 102.144 145.497 111.615 147.801 124.33C151.043 142.421 161.625 135.167 175.619 132.607L186.2 136.106C190.04 139.946 195.587 143.53 199.342 138.837H205.656V163.413H136.195V104.106L174.851 100.693Z" fill="black" stroke="black" stroke-width="1.27999" stroke-linecap="round" stroke-linejoin="round"/>
<path d="M143.79 100.608C141.481 100.608 139.609 98.7357 139.609 96.4264C139.609 94.1172 141.481 92.2451 143.79 92.2451C146.099 92.2451 147.971 94.1172 147.971 96.4264C147.971 98.7357 146.099 100.608 143.79 100.608Z" fill="#FFD83D" stroke="black" stroke-width="1.70666" stroke-linecap="round" stroke-linejoin="round"/>
<path d="M153.262 98.3035C150.953 98.3035 149.081 96.4315 149.081 94.1222C149.081 91.813 150.953 89.9409 153.262 89.9409C155.571 89.9409 157.443 91.813 157.443 94.1222C157.443 96.4315 155.571 98.3035 153.262 98.3035Z" fill="#FFD83D" stroke="black" stroke-width="1.70666" stroke-linecap="round" stroke-linejoin="round"/>
<path d="M162.905 95.9144C160.595 95.9144 158.723 94.0424 158.723 91.7331C158.723 89.4238 160.595 87.5518 162.905 87.5518C165.214 87.5518 167.086 89.4238 167.086 91.7331C167.086 94.0424 165.214 95.9144 162.905 95.9144Z" fill="#FFD83D" stroke="black" stroke-width="1.70666" stroke-linecap="round" stroke-linejoin="round"/>
<path d="M172.547 94.2931C170.238 94.2931 168.366 92.421 168.366 90.1117C168.366 87.8025 170.238 85.9304 172.547 85.9304C174.856 85.9304 176.728 87.8025 176.728 90.1117C176.728 92.421 174.856 94.2931 172.547 94.2931Z" fill="#FFD83D" stroke="black" stroke-width="1.70666" stroke-linecap="round" stroke-linejoin="round"/>
<path d="M182.19 93.3543C179.88 93.3543 178.008 91.4823 178.008 89.173C178.008 86.8637 179.88 84.9917 182.19 84.9917C184.499 84.9917 186.371 86.8637 186.371 89.173C186.371 91.4823 184.499 93.3543 182.19 93.3543Z" fill="#FFD83D" stroke="black" stroke-width="1.70666" stroke-linecap="round" stroke-linejoin="round"/>
<path d="M191.576 93.8663C189.267 93.8663 187.395 91.9943 187.395 89.685C187.395 87.3757 189.267 85.5037 191.576 85.5037C193.886 85.5037 195.758 87.3757 195.758 89.685C195.758 91.9943 193.886 93.8663 191.576 93.8663Z" fill="#FFD83D" stroke="black" stroke-width="1.70666" stroke-linecap="round" stroke-linejoin="round"/>
<path d="M200.622 96.9383C198.312 96.9383 196.44 95.0663 196.44 92.757C196.44 90.4477 198.312 88.5757 200.622 88.5757C202.931 88.5757 204.803 90.4477 204.803 92.757C204.803 95.0663 202.931 96.9383 200.622 96.9383Z" fill="#FFD83D" stroke="black" stroke-width="1.70666" stroke-linecap="round" stroke-linejoin="round"/>
<path d="M208.216 102.57C205.907 102.57 204.035 100.698 204.035 98.3891C204.035 96.0798 205.907 94.2078 208.216 94.2078C210.526 94.2078 212.398 96.0798 212.398 98.3891C212.398 100.698 210.526 102.57 208.216 102.57Z" fill="#FFD83D" stroke="black" stroke-width="1.70666" stroke-linecap="round" stroke-linejoin="round"/>
<path d="M213.592 110.336C211.283 110.336 209.411 108.463 209.411 106.154C209.411 103.845 211.283 101.973 213.592 101.973C215.902 101.973 217.774 103.845 217.774 106.154C217.774 108.463 215.902 110.336 213.592 110.336Z" fill="#FFD83D" stroke="black" stroke-width="1.70666" stroke-linecap="round" stroke-linejoin="round"/>
<path d="M216.238 119.552C213.928 119.552 212.056 117.68 212.056 115.37C212.056 113.061 213.928 111.189 216.238 111.189C218.547 111.189 220.419 113.061 220.419 115.37C220.419 117.68 218.547 119.552 216.238 119.552Z" fill="#FFD83D" stroke="black" stroke-width="1.70666" stroke-linecap="round" stroke-linejoin="round"/>
<path d="M216.152 129.024C213.843 129.024 211.971 127.151 211.971 124.842C211.971 122.533 213.843 120.661 216.152 120.661C218.462 120.661 220.334 122.533 220.334 124.842C220.334 127.151 218.462 129.024 216.152 129.024Z" fill="#FFD83D" stroke="black" stroke-width="1.70666" stroke-linecap="round" stroke-linejoin="round"/>
<path d="M214.275 138.325C211.966 138.325 210.094 136.453 210.094 134.143C210.094 131.834 211.966 129.962 214.275 129.962C216.584 129.962 218.456 131.834 218.456 134.143C218.456 136.453 216.584 138.325 214.275 138.325Z" fill="#FFD83D" stroke="black" stroke-width="1.70666" stroke-linecap="round" stroke-linejoin="round"/>
<path d="M141.913 101.973L142.339 107.52C152.835 105.813 167.683 100.01 181.592 100.01C194.392 100.01 204.291 105.13 204.291 118.101C204.291 130.815 198.915 142.421 191.747 154.197L199.171 157.61C205.827 144.81 211.374 133.717 211.374 118.869C211.374 106.41 201.56 94.1223 184.664 94.1223C169.731 94.1223 154.457 99.2423 141.913 101.973Z" fill="#FFD83D" stroke="black" stroke-width="1.70666" stroke-linecap="round" stroke-linejoin="round"/>
<path d="M135.939 45.3119L131.502 53.5892L135.939 61.7812L140.291 53.5892L135.939 45.2266V45.3119ZM135.939 66.1331L131.502 74.3251L135.939 82.6024L140.206 74.2398L135.854 66.0478L135.939 66.1331ZM120.238 63.9998L127.15 68.3518L134.062 63.9998L127.235 59.5625L120.238 63.9998ZM137.731 63.9998L144.643 68.3518L151.64 63.9998L144.643 59.5625L137.817 63.9998H137.731Z" fill="#FFD83D" stroke="black" stroke-width="1.70666" stroke-linecap="round" stroke-linejoin="round"/>
<path d="M135.939 67.4131C137.777 67.4131 139.267 65.9231 139.267 64.0851C139.267 62.2471 137.777 60.7571 135.939 60.7571C134.101 60.7571 132.611 62.2471 132.611 64.0851C132.611 65.9231 134.101 67.4131 135.939 67.4131Z" fill="#FFD83D" stroke="black" stroke-width="1.70666" stroke-linecap="round" stroke-linejoin="round"/>
<path d="M135.939 94.293C140.888 94.293 144.899 90.2815 144.899 85.333C144.899 80.3846 140.888 76.373 135.939 76.373C130.991 76.373 126.979 80.3846 126.979 85.333C126.979 90.2815 130.991 94.293 135.939 94.293Z" fill="#FFD83D" stroke="black" stroke-width="1.70666" stroke-linecap="round" stroke-linejoin="round"/>
<path d="M133.635 76.7144V82.3463C131.519 82.4482 129.41 82.6762 127.321 83.029M144.558 83.029C142.44 82.672 140.303 82.444 138.158 82.3463V76.7144M127.235 87.5516C130.11 87.0537 133.022 86.7969 135.939 86.7836C138.841 86.7836 141.742 87.0396 144.472 87.5516" stroke="black" stroke-width="1.27999" stroke-linecap="round" stroke-linejoin="round"/>
<path d="M127.235 100.437C126.382 114.944 124.675 129.877 118.958 140.629L128.174 136.874C131.416 124.672 132.099 108.885 133.038 101.376L127.235 100.437ZM144.643 100.437L138.755 101.376C139.779 108.885 140.462 124.672 143.619 136.874L152.835 140.629C147.203 129.877 145.496 115.029 144.643 100.437Z" fill="#FFD83D" stroke="black" stroke-width="1.70666" stroke-linecap="round" stroke-linejoin="round"/>
<path d="M135.939 132.01C124.846 132.01 116.739 137.13 116.313 150.442C113.582 145.664 102.233 130.816 91.566 132.778C85.2514 133.973 79.6194 142.762 80.6434 152.746C75.3528 137.728 60.0782 135.253 48.8142 144.213C58.7982 152.32 63.2355 176.469 71.5981 186.879H200.195C208.558 176.469 212.995 152.32 222.979 144.213C211.8 135.253 196.44 137.728 191.235 152.746C192.088 142.762 186.542 133.973 180.142 132.778C169.56 130.816 158.211 145.664 155.48 150.442C155.054 137.216 146.947 132.01 135.854 132.01H135.939Z" fill="#FFD83D" stroke="black" stroke-width="1.70666" stroke-linecap="round" stroke-linejoin="round"/>
<path d="M200.024 186.879C200.024 191.658 171.352 196.863 135.939 196.863C100.526 196.863 71.7687 191.743 71.7687 186.879C71.7687 182.186 100.526 179.626 135.939 179.626C171.267 179.626 200.024 182.186 200.024 186.879Z" fill="black" stroke="black" stroke-width="1.27999" stroke-linecap="round" stroke-linejoin="round"/>
<path d="M135.939 100.608C137.589 100.608 138.926 99.2704 138.926 97.6209C138.926 95.9714 137.589 94.6343 135.939 94.6343C134.29 94.6343 132.953 95.9714 132.953 97.6209C132.953 99.2704 134.29 100.608 135.939 100.608Z" fill="#FFD83D" stroke="black" stroke-width="1.27999" stroke-linecap="round" stroke-linejoin="round"/>
<path d="M135.939 107.264C137.683 107.264 139.096 105.85 139.096 104.106C139.096 102.363 137.683 100.949 135.939 100.949C134.195 100.949 132.782 102.363 132.782 104.106C132.782 105.85 134.195 107.264 135.939 107.264Z" fill="#FFD83D" stroke="black" stroke-width="1.27999" stroke-linecap="round" stroke-linejoin="round"/>
<path d="M135.939 114.602C137.871 114.602 139.438 113.036 139.438 111.104C139.438 109.171 137.871 107.605 135.939 107.605C134.007 107.605 132.44 109.171 132.44 111.104C132.44 113.036 134.007 114.602 135.939 114.602Z" fill="#FFD83D" stroke="black" stroke-width="1.27999" stroke-linecap="round" stroke-linejoin="round"/>
<path d="M135.939 122.879C138.154 122.879 139.95 121.084 139.95 118.869C139.95 116.654 138.154 114.858 135.939 114.858C133.724 114.858 131.928 116.654 131.928 118.869C131.928 121.084 133.724 122.879 135.939 122.879Z" fill="#FFD83D" stroke="black" stroke-width="1.27999" stroke-linecap="round" stroke-linejoin="round"/>
<path d="M135.939 131.839C138.343 131.839 140.291 129.891 140.291 127.487C140.291 125.084 138.343 123.135 135.939 123.135C133.536 123.135 131.587 125.084 131.587 127.487C131.587 129.891 133.536 131.839 135.939 131.839Z" fill="#FFD83D" stroke="black" stroke-width="1.27999" stroke-linecap="round" stroke-linejoin="round"/>
<path d="M134.232 135.85C133.72 135.85 133.294 136.277 133.379 137.045L133.891 140.714C134.062 141.994 134.744 141.567 135 140.714C135.171 139.69 135.086 139.007 135.171 137.215C135.171 136.277 134.659 135.85 134.147 135.85H134.232ZM137.646 135.85C137.134 135.85 136.707 136.277 136.707 137.215C136.707 139.007 136.707 139.69 136.878 140.629C137.048 141.653 137.731 141.994 137.987 140.629L138.414 137.045C138.584 136.191 138.072 135.85 137.646 135.85ZM131.075 136.362C130.849 136.362 130.632 136.452 130.472 136.612C130.312 136.772 130.222 136.989 130.222 137.215C130.222 138.069 130.478 139.178 130.563 140.458C130.734 141.738 131.673 141.311 131.758 140.458C131.758 139.775 131.928 138.581 131.758 137.13C131.758 136.618 131.587 136.362 131.246 136.277C131.189 136.27 131.132 136.27 131.075 136.277V136.362ZM140.547 136.362C140.291 136.362 140.035 136.618 139.95 137.215C139.904 138.299 139.961 139.385 140.12 140.458C140.12 141.311 141.144 141.738 141.23 140.458C141.23 139.178 141.571 138.154 141.571 137.301C141.571 136.789 141.144 136.447 140.718 136.362C140.661 136.355 140.604 136.355 140.547 136.362ZM127.406 137.813C126.979 137.898 126.553 138.41 126.723 138.922C126.979 140.031 127.235 141.226 127.235 142.335C127.235 143.274 128.003 142.933 128.089 142.335C128.155 141.199 128.183 140.06 128.174 138.922C128.174 138.069 127.747 137.727 127.321 137.813H127.406ZM144.131 137.813C143.875 137.898 143.619 138.239 143.619 138.922L143.79 142.335C143.79 142.933 144.643 143.274 144.643 142.335C144.643 141.226 144.814 140.031 145.07 138.922C145.24 138.41 144.814 137.898 144.472 137.813C144.388 137.791 144.3 137.791 144.216 137.813H144.131ZM93.7846 137.983C93.2727 137.983 92.9313 138.581 93.2726 139.263C93.7846 140.458 94.382 141.141 94.894 142.335C95.3206 143.445 96.0886 142.762 95.8326 141.994L94.638 138.837C94.382 138.239 94.0406 137.983 93.7846 137.983ZM178.094 137.983C177.752 137.983 177.496 138.239 177.24 138.837C176.472 140.458 176.216 141.226 175.96 141.994C175.79 142.847 176.472 143.445 176.984 142.335L178.52 139.263C178.862 138.581 178.52 137.983 178.094 137.983ZM97.198 137.983C96.7713 138.154 96.6006 138.581 96.7713 139.093C97.2833 140.117 97.8806 141.226 98.3073 142.335C98.6486 143.274 99.5019 143.018 99.1606 142.165L98.3073 139.007C97.966 138.154 97.454 137.898 97.198 137.983ZM174.424 137.983C174.083 138.069 173.742 138.41 173.571 139.007C172.974 140.714 172.888 141.226 172.632 142.165C172.291 143.018 173.144 143.274 173.486 142.335L175.022 139.093C175.192 138.581 175.022 138.154 174.68 137.983C174.596 137.962 174.508 137.962 174.424 137.983ZM101.465 138.837C100.953 138.922 100.611 139.605 100.953 140.458C101.294 141.482 101.806 142.421 102.318 143.615C102.83 144.81 103.598 144.554 103.427 143.786C103.171 143.018 103.001 141.823 102.403 139.946C102.147 139.093 101.806 138.751 101.465 138.837ZM170.414 138.837C170.072 138.837 169.646 139.093 169.39 139.946C168.878 141.823 168.536 143.018 168.451 143.786C168.195 144.639 169.048 144.81 169.475 143.615C169.987 142.421 170.499 141.482 170.84 140.458C171.182 139.605 170.84 138.922 170.414 138.837ZM90.8833 139.434C90.3713 139.434 90.03 140.287 90.286 140.885C90.7127 141.738 91.054 142.079 91.4806 143.103C91.9926 144.127 92.5046 143.359 92.334 142.677C92.078 141.994 91.822 141.226 91.6513 140.287C91.4807 139.605 91.1393 139.434 90.798 139.434H90.8833ZM180.995 139.434C180.654 139.434 180.398 139.605 180.142 140.287L179.544 142.677C179.374 143.359 179.886 144.127 180.398 143.103C180.824 142.079 181.08 141.823 181.592 140.885C181.848 140.287 181.422 139.519 180.995 139.434ZM123.822 141.823C123.225 141.823 122.713 142.506 122.969 143.103C123.139 144.127 123.651 144.981 123.907 146.261C124.249 147.37 125.017 146.858 124.931 146.09C124.869 144.944 124.727 143.803 124.505 142.677C124.334 142.079 124.078 141.823 123.737 141.823H123.822ZM148.056 141.823C147.8 141.823 147.459 142.079 147.374 142.677C147.123 143.801 146.952 144.942 146.862 146.09C146.862 146.858 147.63 147.37 147.886 146.261L148.91 143.103C149.08 142.506 148.568 141.823 148.056 141.823ZM135.939 142.847C135.256 142.847 135.171 143.701 135.171 144.298C135.119 146.241 134.528 148.132 133.464 149.759C132.611 150.783 131.502 150.527 130.478 149.93C129.485 149.389 128.543 148.761 127.662 148.053C126.467 147.199 125.614 147.711 126.979 149.674C130.905 155.306 135.171 160.085 135.171 169.301C135.171 170.41 135.427 170.751 135.939 170.751C136.451 170.751 136.622 170.41 136.622 169.215C136.622 160.085 140.888 155.306 144.814 149.589C146.179 147.711 145.326 147.199 144.216 148.053C143.339 148.766 142.396 149.395 141.4 149.93C140.291 150.527 139.182 150.783 138.414 149.759C137.35 148.132 136.759 146.241 136.707 144.298C136.622 143.701 136.536 142.847 135.854 142.847H135.939ZM105.817 141.482C105.76 141.473 105.702 141.473 105.646 141.482C105.39 141.567 105.305 141.823 105.39 142.335L106.329 145.663C106.585 146.517 107.523 146.261 107.353 145.237L106.841 142.591C106.67 141.909 106.158 141.482 105.817 141.482ZM166.062 141.482C165.635 141.482 165.208 141.909 165.038 142.591C164.696 143.786 164.696 144.127 164.526 145.151C164.27 146.261 165.294 146.431 165.464 145.663L166.488 142.25C166.488 141.823 166.403 141.567 166.147 141.482C166.091 141.473 166.033 141.473 165.976 141.482H166.062ZM87.8967 141.823C87.3847 141.823 87.0433 142.506 87.5553 143.359C88.0673 144.383 89.006 145.578 89.4327 146.346C89.8593 147.029 90.6273 146.517 90.1153 145.663C89.6033 144.81 89.4327 143.701 88.75 142.421C88.6937 142.241 88.5794 142.085 88.425 141.977C88.2707 141.869 88.0849 141.815 87.8967 141.823ZM183.896 141.823C183.64 141.823 183.299 141.994 183.043 142.421C182.446 143.701 182.19 144.725 181.763 145.663C181.251 146.517 181.934 147.029 182.36 146.346C182.787 145.578 183.726 144.383 184.238 143.359C184.75 142.506 184.408 141.823 183.896 141.823ZM60.8461 144.639C60.3341 144.639 60.1634 145.663 60.6754 146.346C61.3381 147.185 62.0812 147.956 62.8941 148.65C63.5768 149.333 63.7474 148.479 63.4061 147.797L61.8701 145.493C61.4434 144.895 61.1021 144.639 60.8461 144.639ZM210.947 144.639C210.691 144.639 210.35 144.895 210.008 145.493L208.387 147.797C208.046 148.479 208.216 149.333 208.984 148.65C209.798 147.957 210.541 147.185 211.203 146.346C211.715 145.663 211.544 144.639 210.947 144.639ZM65.1981 145.493C64.6861 145.493 64.3448 145.834 64.7714 146.602L66.3928 149.845C66.8194 150.698 68.0994 150.954 67.5874 149.674L66.4781 146.431C66.2221 145.834 65.6248 145.578 65.1981 145.578V145.493ZM206.68 145.493C206.168 145.493 205.571 145.834 205.315 146.431L204.291 149.674C203.779 150.954 205.059 150.698 205.486 149.845C205.912 148.991 206.595 147.711 207.022 146.602C207.448 145.834 207.107 145.493 206.68 145.493ZM56.8355 145.834C56.1528 145.834 56.1528 146.431 56.7501 146.858C57.5181 147.455 58.4568 148.053 59.3101 148.821C60.4194 149.674 60.7608 148.821 60.1634 148.138C59.6514 147.455 59.1394 146.773 57.6888 146.005C57.3475 145.834 57.0915 145.834 56.8355 145.834ZM214.958 145.834C214.787 145.834 214.446 145.834 214.104 146.005C212.739 146.773 212.142 147.455 211.544 148.138C211.032 148.906 211.459 149.674 212.483 148.821C213.336 148.053 214.36 147.455 215.043 146.858C215.726 146.431 215.64 145.834 215.043 145.834H214.958ZM121.433 146.431C121.006 146.431 120.75 146.858 120.835 147.455L121.689 150.527C121.859 151.466 122.969 151.466 122.798 150.527C122.627 149.674 122.542 148.565 122.201 147.199C122.115 146.687 121.859 146.431 121.518 146.346C121.489 146.344 121.461 146.344 121.433 146.346V146.431ZM150.275 146.431C150.019 146.431 149.763 146.687 149.592 147.285C149.251 148.565 149.166 149.674 148.995 150.613C148.824 151.466 149.934 151.466 150.104 150.527L150.958 147.455C151.128 146.858 150.787 146.431 150.446 146.431C150.389 146.422 150.332 146.422 150.275 146.431ZM95.662 144.725C95.406 144.725 95.2353 145.322 95.4913 146.175C96.3964 148.635 96.8586 151.235 96.8566 153.855C96.6006 154.879 96.0033 154.965 95.2353 154.709C94.3982 154.296 93.5987 153.81 92.846 153.258C92.1633 152.831 91.3953 153.343 92.4193 154.197C97.5393 158.463 101.209 163.327 102.659 169.215C102.83 170.41 103.598 170.581 103.427 169.215C102.233 161.791 101.977 155.647 103.769 151.893C104.451 150.442 103.769 149.077 102.745 151.381C101.977 152.917 100.867 153.514 99.9286 152.234C98.5944 150.152 97.452 147.952 96.5153 145.663C96.3446 145.066 96.0886 144.81 95.8326 144.725C95.8044 144.72 95.7755 144.72 95.7473 144.725H95.662ZM175.96 144.725C175.704 144.725 175.448 145.066 175.278 145.578C174.68 147.285 172.803 150.869 171.864 152.234C170.926 153.599 169.816 152.917 169.134 151.381C168.024 149.077 167.427 150.442 168.024 151.893C169.816 155.647 169.56 161.791 168.451 169.215C168.195 170.581 168.963 170.41 169.304 169.215C170.883 163.222 174.429 157.933 179.374 154.197C180.398 153.343 179.63 152.831 178.947 153.343C178.19 153.84 177.39 154.268 176.558 154.623C175.704 154.965 175.192 154.879 174.936 153.77C174.766 152.746 175.107 150.442 176.387 146.09C176.558 145.407 176.387 144.81 176.131 144.725C176.076 144.705 176.016 144.705 175.96 144.725ZM69.7207 146.773C69.2941 146.773 68.8674 147.114 69.1234 147.797C69.4647 148.991 70.1474 150.186 70.4034 150.869C70.6594 151.637 71.4274 151.295 71.2567 150.271L70.8301 147.626C70.8301 147.114 70.2327 146.773 69.7207 146.773ZM202.072 146.773C201.56 146.773 201.048 147.114 200.963 147.626L200.622 150.271C200.451 151.295 201.219 151.637 201.475 150.869C201.646 150.186 202.328 148.991 202.67 147.797C202.926 147.114 202.584 146.773 202.072 146.773ZM85.7633 145.322C85.2513 145.237 85.166 146.602 85.5927 147.199L87.982 149.845C88.6647 150.698 89.0913 149.93 88.6647 149.247L86.446 146.005C86.19 145.578 85.934 145.322 85.7633 145.322ZM186.03 145.322C185.859 145.322 185.603 145.578 185.347 146.005L183.128 149.247C182.702 149.93 183.128 150.698 183.896 149.845L186.2 147.199C186.627 146.602 186.627 145.237 186.03 145.322ZM73.3901 148.735C73.0487 148.735 72.7927 148.906 72.9634 149.589C73.1341 150.613 73.3901 151.295 73.6461 152.234C73.9021 153.087 74.4994 153.002 74.4994 152.149L74.2434 149.418C74.2062 149.214 74.1022 149.027 73.9478 148.888C73.7934 148.749 73.5972 148.666 73.3901 148.65V148.735ZM198.403 148.735C198.203 148.731 198.009 148.797 197.853 148.922C197.697 149.047 197.589 149.222 197.55 149.418L197.294 152.149C197.294 153.002 197.976 153.173 198.147 152.234L198.915 149.674C199.086 148.906 198.744 148.65 198.403 148.65V148.735ZM84.5687 149.93C84.0567 149.93 83.63 150.527 84.2273 151.295C85.166 152.575 86.2753 153.429 86.702 153.855C87.0433 154.367 87.982 154.197 87.3847 153.258L85.422 150.271C85.2513 149.93 84.91 149.845 84.5687 149.93ZM186.968 149.93C186.798 149.93 186.542 150.015 186.456 150.271L184.408 153.258C183.811 154.197 184.75 154.367 185.176 153.941C185.518 153.429 186.627 152.575 187.651 151.295C188.248 150.442 187.736 149.93 187.224 149.93C187.168 149.924 187.11 149.924 187.054 149.93H186.968ZM66.9048 153.429C66.5634 153.429 66.3928 153.77 66.9048 154.538C68.2226 156.137 69.1828 157.999 69.7207 159.999C69.8061 161.194 69.2941 161.194 68.7821 161.194C67.1608 161.194 66.3927 159.999 65.0274 159.658C63.5768 159.402 63.3208 160.085 64.3448 160.853C69.2359 163.946 73.4931 167.942 76.8887 172.629C77.742 174.25 78.8514 174.762 78.254 173.311C76.5961 169.984 75.8875 166.263 76.206 162.559C76.6327 160.17 77.23 158.634 77.1447 157.269C77.1447 155.989 76.2914 156.074 76.0354 157.269L75.1821 159.658C74.8407 160.085 73.6461 160.341 72.6221 158.89C71.1708 157.109 69.5723 155.454 67.8434 153.941C67.5874 153.685 67.2461 153.514 66.9901 153.429H66.9048ZM204.888 153.429C204.632 153.429 204.291 153.599 203.95 153.941C202.251 155.458 200.681 157.113 199.256 158.89C198.147 160.341 196.952 160.085 196.696 159.743C196.307 158.958 196.02 158.127 195.843 157.269C195.502 156.074 194.734 155.989 194.648 157.269C194.648 158.634 195.16 160.17 195.587 162.559C196.014 164.949 195.587 168.703 193.624 173.311C192.942 174.762 194.136 174.165 194.99 172.629C198.354 167.945 202.583 163.948 207.448 160.853C208.472 160.085 208.302 159.402 206.851 159.658C205.4 159.999 204.632 161.194 203.096 161.194C202.584 161.194 201.987 161.194 202.072 159.999C202.158 158.89 203.608 156.245 204.888 154.538C205.4 153.685 205.315 153.429 204.888 153.429Z" fill="black"/>
<path d="M74.5847 181.503L76.2914 186.709L74.5847 181.503ZM77.998 180.479L79.534 185.77L77.998 180.479ZM81.7527 179.797L82.7767 185.258L81.7527 179.797ZM85.166 179.199L86.2753 184.575L85.166 179.199ZM89.518 178.773L90.3713 184.234L89.518 178.773ZM94.2113 178.773L95.15 184.149L94.2113 178.773ZM98.8193 177.237L99.502 182.698L98.8193 177.237ZM103.086 177.493L103.769 182.954L103.086 177.493ZM107.267 176.981L107.95 182.442L107.267 176.981ZM111.363 176.469L111.79 182.015L111.363 176.469ZM115.886 176.469L116.227 182.015L115.886 176.469ZM119.982 176.213L120.238 181.759L119.982 176.213ZM124.419 175.957L124.675 181.418L124.419 175.957ZM129.539 175.786L129.795 181.333L129.539 175.786ZM197.208 181.503L195.502 186.709L197.208 181.503ZM193.795 180.479L192.344 185.77L193.795 180.479ZM190.126 179.797L189.102 185.258L190.126 179.797ZM186.712 179.199L185.603 184.575L186.712 179.199ZM182.19 178.773L181.336 184.234L182.19 178.773ZM177.582 178.773L176.643 184.234L177.582 178.773ZM173.059 177.237L172.376 182.698L173.059 177.237ZM168.707 177.493L168.024 182.954L168.707 177.493ZM164.611 176.981L163.843 182.442L164.611 176.981ZM160.43 176.469L160.003 182.015L160.43 176.469ZM155.907 176.469L155.566 182.015L155.907 176.469ZM151.896 176.213L151.64 181.759L151.896 176.213ZM147.374 175.957L147.203 181.418L147.374 175.957ZM142.254 175.786L142.083 181.333L142.254 175.786ZM135.939 175.359V181.503V175.359Z" fill="#FFD83D"/>
<path d="M74.5847 181.503L76.2914 186.709M77.998 180.479L79.534 185.77M81.7527 179.797L82.7767 185.258M85.166 179.199L86.2753 184.575M89.518 178.773L90.3713 184.234M94.2113 178.773L95.15 184.149M98.8193 177.237L99.502 182.698M103.086 177.493L103.769 182.954M107.267 176.981L107.95 182.442M111.363 176.469L111.79 182.015M115.886 176.469L116.227 182.015M119.982 176.213L120.238 181.759M124.419 175.957L124.675 181.418M129.539 175.786L129.795 181.333M197.208 181.503L195.502 186.709M193.795 180.479L192.344 185.77M190.126 179.797L189.102 185.258M186.712 179.199L185.603 184.575M182.19 178.773L181.336 184.234M177.582 178.773L176.643 184.234M173.059 177.237L172.376 182.698M168.707 177.493L168.024 182.954M164.611 176.981L163.843 182.442M160.43 176.469L160.003 182.015M155.907 176.469L155.566 182.015M151.896 176.213L151.64 181.759M147.374 175.957L147.203 181.418M142.254 175.786L142.083 181.333M135.939 175.359V181.503" stroke="black" stroke-width="1.27999" stroke-linecap="round" stroke-linejoin="round"/>
</g>
<defs>
<clipPath id="clip0_103_7543">
<rect width="512" height="512" fill="white" transform="translate(0.5)"/>
</clipPath>
</defs>
</svg>
