<svg width="513" height="512" viewBox="0 0 513 512" fill="none" xmlns="http://www.w3.org/2000/svg">
<g clip-path="url(#clip0_103_7598)">
<path d="M0.5 0H512.5V512H0.5V0Z" fill="#FFB700"/>
<path d="M21.8 256L91.9001 21.3H162V490.7H92L21.8 256Z" fill="#FF5B00"/>
<path d="M21.8 21.3H91.9001V490.7H21.9L21.8 21.3Z" fill="#005641"/>
<path d="M183.2 21.3H491.2V490.7H183.2V21.3Z" fill="#8D2029"/>
<path d="M463.9 454.9C463.9 454.9 466.8 460.8 470 463.2C474.8 466.7 484.5 466.5 488.6 470.6C493.6 475.6 488.2 482 488.3 482.6L488.6 486C488.6 486 485.2 486 483.8 486.3C481.7 486.6 480.8 488.3 476.9 488.1C467 487.4 467.4 478.5 466.9 470.9C466.4 467.9 465.2 464.2 464.6 461.3C464 458.8 463.9 454.9 463.9 454.9Z" fill="#FFB700" stroke="black" stroke-width="0.9"/>
<path d="M213.4 454.9C213.4 454.9 210.5 460.8 207.3 463.2C202.5 466.7 192.8 466.5 188.7 470.6C183.7 475.6 189.1 482 189 482.6L188.7 486C188.7 486 192.1 486 193.5 486.3C195.6 486.6 196.5 488.3 200.4 488.1C210.3 487.4 209.9 478.5 210.4 470.9C210.9 467.9 212.1 464.2 212.7 461.3C213.3 458.8 213.4 454.9 213.4 454.9Z" fill="#FFB700" stroke="black" stroke-width="0.9"/>
<path d="M463.9 57.1001C463.9 57.1001 466.8 51.2001 470 48.8001C474.8 45.3001 484.5 45.5001 488.6 41.4001C493.6 36.4001 488.2 30.0001 488.3 29.4001L488.6 26.0001C488.6 26.0001 485.2 26.0001 483.8 25.7001C481.7 25.4001 480.8 23.7001 476.9 23.9001C467 24.6001 467.4 33.5001 466.9 41.1001C466.4 44.1001 465.2 47.8001 464.6 50.7001C464 53.2001 463.9 57.1001 463.9 57.1001Z" fill="#FFB700" stroke="black" stroke-width="0.9"/>
<path d="M213.3 57.1001C213.3 57.1001 210.4 51.2001 207.2 48.8001C202.4 45.3001 192.7 45.5001 188.6 41.4001C183.6 36.4001 189 30.0001 188.9 29.4001L188.6 26.0001C188.6 26.0001 192 26.0001 193.4 25.7001C195.5 25.4001 196.4 23.7001 200.3 23.9001C210.2 24.6001 209.8 33.5001 210.3 41.1001C210.8 44.1001 212 47.8001 212.6 50.7001C213.2 53.2001 213.3 57.1001 213.3 57.1001Z" fill="#FFB700" stroke="black" stroke-width="0.9"/>
<path d="M291.3 335.84L293.14 334.72L293.94 335.84C294.98 337.28 297.94 337.2 299.86 335.84L301.38 334.64L302.66 335.76C304.26 337.28 307.3 337.28 309.3 335.76C310.66 334.8 310.9 334.72 311.7 335.52C312.26 336 313.86 336.48 315.22 336.72C317.78 337.04 317.78 337.04 319.22 334.8C320.5 332.96 320.66 332.24 320.42 330.4C320.197 328.995 320.036 327.58 319.94 326.16C319.78 324.08 319.86 324.08 322.82 322.96C324.289 322.509 325.732 321.975 327.14 321.36C328.34 320.64 331.7 316.72 331.7 315.92C331.7 315.76 330.42 315.44 328.82 315.28C322.42 314.48 321.38 311.12 325.54 304.88C332.18 294.48 336.26 284.48 336.26 278.16C336.26 275.28 336.5 274.32 336.82 274.96C338.34 277.44 335.62 288.08 331.62 295.76L330.02 298.8L331.54 298.48C332.34 298.24 337.46 296.08 342.74 293.68C357.3 287.12 362.26 285.84 371.7 286.24C379.62 286.56 382.9 288.08 388.5 293.92C391.46 297.12 394.34 299.28 399.54 302.56C410.58 309.44 411.06 310.08 411.62 318.24C412.18 326.48 411.86 326.96 405.62 328.32C400.26 329.52 396.9 332 396.02 335.52C395.54 337.28 396.58 337.36 399.22 335.6L401.22 334.32L402.1 335.6C403.3 337.28 405.7 337.28 407.7 335.6L409.3 334.4L410.9 335.6C413.3 337.6 416.5 337.12 417.46 334.64C417.62 334.24 418.1 334.32 419.06 335.2C420.9 336.8 425.46 337.44 425.94 336.16C426.1 335.68 425.78 334.56 425.14 333.6C422.5 329.6 421.62 327.76 421.62 325.6C421.62 322.56 422.42 321.04 425.94 318.64C430.1 315.6 431.38 311.76 428.18 311.76C426.26 311.76 424.26 310 422.98 307.2C420.42 301.44 420.98 295.04 424.82 284.32C427.764 278.013 429.241 271.12 429.14 264.16C429.14 258.24 428.98 257.28 427.7 254C426.699 251.72 425.466 249.548 424.02 247.52L421.78 244.56L424.58 242.16C433.22 235.04 431.46 223.36 421.06 218.88C417.86 217.44 417.06 217.36 411.46 217.36C408.26 217.36 403.06 217.84 400.26 218.4C396.502 218.995 392.705 219.316 388.9 219.36C383.46 219.36 382.5 219.2 380.42 218.08C378.26 216.96 377.86 216.4 377.46 213.68C377.422 213.424 377.321 213.181 377.168 212.972C377.015 212.763 376.813 212.594 376.58 212.48C375.78 212.24 372.42 215.2 371.94 216.48C371.62 217.2 371.46 217.12 370.74 216.24C370.061 215.368 369.522 214.397 369.14 213.36C368.34 210.72 369.38 208.8 372.5 207.28L374.9 206.16L373.46 205.28C370.58 203.44 365.62 204.72 363.86 207.68C363.3 208.48 362.74 209.28 362.58 209.28C362.42 209.28 361.46 208.48 360.5 207.44C356.74 203.76 358.02 198.32 363.06 196.72C365.7 195.84 368.1 196.48 368.58 198.32C369.38 200.96 371.62 197.44 371.22 194.16C370.98 192 370.98 191.92 372.5 191.92C374.58 191.92 378.9 194.64 380.34 196.72C381.94 199.2 381.78 203.12 380.02 206L378.66 208.24L380.5 207.92C383.06 207.36 385.62 205.76 386.9 203.76C387.575 202.486 387.954 201.077 388.009 199.637C388.064 198.196 387.795 196.762 387.22 195.44C386.02 193.28 386.18 192.96 387.94 193.68C390.82 194.88 392.42 196.24 393.54 198.56C394.66 200.64 394.74 201.12 394.18 203.36C393.797 204.724 393.203 206.02 392.42 207.2C391.46 208.48 391.38 208.72 392.18 208.72C393.62 208.72 396.5 207.36 397.54 206.32C398.1 205.68 398.9 204.32 399.3 203.12L400.1 201.12L400.9 202.72C402.1 204.88 404.5 206.88 407.38 208.16C410.5 209.44 411.78 209.52 410.18 208.32C409.06 207.52 406.98 201.52 407.7 200.96C411.153 202.894 414.306 205.319 417.06 208.16C421.62 212.24 424.5 213.6 428.66 213.6C434.02 213.6 437.14 208.96 434.74 204.56C433.38 202 430.26 201.6 428.34 203.76C427.54 204.8 427.3 205.6 427.54 206.72C427.86 208 427.78 208.16 426.58 208.16C424.98 208.16 421.94 206.16 416.5 201.6C408.928 195.084 400.224 190.013 390.82 186.64C384.45 185.168 377.871 184.816 371.38 185.6C366.26 186.56 360.18 189.52 356.82 192.64C350.98 198.24 350.9 205.68 356.58 212.48L358.18 214.4L357.14 216.16C356.358 217.421 355.97 218.886 356.027 220.369C356.084 221.852 356.583 223.283 357.46 224.48C358.26 225.6 359.06 226.48 359.3 226.48C359.46 226.48 359.62 225.76 359.7 224.88C359.86 222.72 360.82 221.28 362.42 220.72C363.86 220.16 364.82 220.48 371.38 223.12C378.34 225.84 389.78 226 401.94 223.6C407.21 222.383 412.695 222.438 417.94 223.76C423.7 226.16 424.98 232.32 420.82 236.96C418.98 239.04 417.3 239.84 411.46 241.44C406.376 242.781 401.09 243.188 395.86 242.64C387.22 242.56 384.1 242.72 380.66 243.44C376.74 244.24 374.42 244.32 363.22 244.08L350.18 243.76L351.62 244.88C352.391 245.565 353.221 246.181 354.1 246.72C355.14 247.28 355.06 247.36 353.62 247.92C352.82 248.24 350.9 248.48 349.38 248.48H346.74L346.42 250.72C346.204 251.776 346.204 252.864 346.42 253.92C346.74 254.72 346.58 254.88 345.78 254.56C345.22 254.32 343.7 253.92 342.34 253.68C340.968 253.386 339.628 252.957 338.34 252.4C336.82 251.6 336.66 251.6 336.1 252.64C335.62 253.44 331.14 256.8 330.5 256.8C330.211 254.725 329.618 252.703 328.74 250.8C327.94 249.12 327.22 247.2 326.98 246.64C326.74 245.76 326.58 245.68 326.18 246.4C325.94 246.8 325.62 248 325.38 248.96C325.1 250.256 324.614 251.498 323.94 252.64L322.74 254.4L321.94 252.88C321.14 251.28 319.86 249.52 319.38 249.52C319.22 249.52 318.98 250 318.82 250.72C318.42 252 315.3 255.76 314.5 255.76C314.26 255.76 314.02 254.72 314.02 253.36C314.02 252.16 313.78 251.04 313.46 251.04C313.14 251.04 312.9 251.44 312.9 251.84C312.9 252.8 310.26 255.84 309.3 255.84C308.98 255.84 308.34 256.16 307.94 256.64C306.98 257.68 306.18 257.52 306.58 256.32C306.692 255.296 306.583 254.259 306.26 253.28L305.46 250.72C305.3 250.32 304.34 250.48 302.26 251.12C299.06 252.16 297.94 251.92 299.62 250.64C300.26 250.16 301.22 248.48 301.7 246.96C302.26 245.36 303.06 244 303.46 243.84C304.02 243.68 304.02 243.84 303.3 244.8C302.837 245.409 302.534 246.124 302.42 246.88C302.42 247.28 302.02 248.32 301.62 249.2C301.14 250 300.82 250.8 300.9 250.88C300.98 250.96 302.26 250.48 303.7 249.84L306.26 248.56V249.68C306.26 250.32 306.58 251.92 306.98 253.28L307.7 255.68L309.46 254.88C311.22 254.08 312.9 251.2 312.9 248.88C312.9 247.76 313.54 247.92 313.86 249.12C313.86 249.44 314.34 250.8 314.66 252.08L315.46 254.32L316.66 252.88C317.38 252.08 318.18 250.48 318.5 249.44C319.14 247.52 320.1 246.64 320.1 248.08C320.1 249.04 322.82 252.72 323.3 252.4C323.62 252.24 324.1 250.88 324.5 249.36C325.3 246.16 326.5 244.08 327.3 244.56C327.62 244.72 327.7 245.04 327.54 245.36C327.38 245.52 328.02 247.6 328.98 249.84C329.676 251.519 330.369 253.199 331.06 254.88C331.38 255.68 331.7 255.68 333.7 253.84C334.9 252.72 336.1 251.52 336.18 251.12C336.42 250.48 336.66 250.56 337.78 251.28C340.139 252.526 342.723 253.288 345.38 253.52C345.54 253.36 345.7 251.92 345.7 250.32L345.78 247.36L347.38 247.68C348.18 247.92 350.02 247.92 351.38 247.68L353.78 247.36L351.62 245.76C350.42 244.96 349.22 243.92 348.9 243.44C348.66 242.96 347.54 242.48 346.34 242.4C343.06 242.08 337.22 238.88 337.22 237.28C337.22 236.96 338.02 237.52 338.98 238.4C341.22 240.4 344.26 241.6 346.98 241.6H348.9L347.7 240C346.845 238.76 346.297 237.334 346.1 235.84C345.94 233.44 345.7 233.12 343.22 231.44C341.782 230.421 340.443 229.269 339.22 228L337.86 226.48L337.14 228.32C336.74 229.36 336.34 230.16 336.1 230.16C335.94 230.16 335.14 229.52 334.5 228.8C334.05 228.279 333.508 227.845 332.9 227.52C332.66 227.52 332.1 228.48 331.46 229.68L330.34 231.84L329.54 230.64C328.828 229.659 328.025 228.748 327.14 227.92C326.18 227.12 325.78 226.48 326.1 226.48C326.42 226.48 327.46 227.28 328.5 228.32L330.26 230.16L331.06 228.8C331.522 227.858 331.663 226.79 331.46 225.76C331.14 224.32 331.22 224.24 331.7 225.2C332.39 226.103 333.197 226.91 334.1 227.6L335.86 229.04L337.06 226.88C338.26 224.64 338.26 224.64 338.74 226C339.54 227.68 344.74 232 349.14 234.48C349.94 234.88 349.62 233.6 348.34 230.48C347.956 229.455 347.74 228.374 347.7 227.28C347.7 225.84 347.3 225.2 345.46 223.76C344.316 223.029 343.359 222.04 342.664 220.874C341.97 219.707 341.558 218.394 341.46 217.04C341.22 215.68 340.74 214.24 340.34 213.76C339.86 212.96 339.7 213.44 339.86 215.84C340.02 217.52 339.78 219.6 339.38 220.48L338.74 222.08L338.26 220.72C337.94 220 336.66 218.72 335.46 217.92C334.26 217.12 333.38 216.32 333.54 216.16C333.7 216 334.98 216.72 336.34 217.76C338.5 219.44 338.9 219.6 339.22 218.88C339.54 218.08 339.22 214.4 338.58 211.84C338.26 210.56 338.26 210.56 339.86 212.16C340.98 213.28 341.62 214.72 342.18 217.12C342.82 220.16 343.14 220.72 345.94 223.2C347.62 224.72 349.14 225.84 349.22 225.76C349.38 225.6 349.54 221.76 349.7 217.12C350.02 208.24 349.7 206.08 347.54 203.36L346.42 201.92L348.18 200.08C350.152 198.194 351.469 195.728 351.94 193.04L352.26 190.88L350.34 192.72C348.74 194.24 347.94 194.56 346.1 194.56C344.26 194.56 343.54 194.24 342.34 192.96C340.471 191.161 338.192 189.843 335.7 189.12C334.74 188.8 334.42 188.96 334.42 189.6C334.42 190.08 333.94 191.36 333.3 192.56L332.18 194.64L329.78 192.24C328.26 190.88 326.58 189.68 325.22 189.36C321.94 188.56 321.78 188.56 321.78 191.04C321.78 194.8 320.18 195.52 317.3 193.04C315.06 191.12 313.3 190.64 309.06 191.2L305.86 191.52L306.42 192.96C306.9 194.16 306.82 194.72 305.78 196.08C304.1 198.32 301.94 199.28 298.58 199.28C296.98 199.28 295.06 199.6 294.26 200C293.46 200.4 291.38 200.8 289.7 200.96C288.1 201.12 286.26 201.44 285.7 201.6C284.9 201.92 284.9 201.6 285.14 199.84C285.54 197.12 283.54 195.04 280.58 195.04C276.66 195.04 274.9 198.56 276.42 203.2C276.731 204.201 276.998 205.216 277.22 206.24C278.271 208.241 279.681 210.03 281.38 211.52C283.46 213.6 285.38 215.76 285.7 216.32C286.344 217.154 287.163 217.837 288.1 218.32L289.86 219.28L289.62 217.36C289.38 215.28 289.78 214.96 290.9 216.48C291.3 216.96 292.34 217.84 293.14 218.32C294.5 219.12 294.74 219.12 294.74 218.48C294.74 218 294.98 216.96 295.3 216.16L295.86 214.72L296.9 216.72C297.46 217.84 299.3 220.32 300.98 222.32C304.26 226.08 306.34 230.32 305.3 231.28C304.82 231.68 303.7 231.68 301.3 231.2C299.54 230.88 297.3 230.64 296.34 230.8C294.5 231.04 294.34 230.8 295.54 229.36C296.74 227.76 296.5 227.52 294.1 227.52C291.3 227.52 284.34 226.16 281.62 225.12C279.06 224.08 278.42 224.32 277.62 226.8L276.26 231.28L275.46 233.68L278.34 233.44C279.825 233.285 281.296 233.017 282.74 232.64C283.307 232.451 283.904 232.37 284.5 232.4C284.66 232.48 284.26 233.44 283.7 234.56L282.58 236.48L284.34 236.16C285.3 235.92 286.74 235.44 287.54 235.04C288.98 234.4 289.14 234.4 290.26 236.24C291.62 238.4 292.66 238.32 292.9 236C293.14 233.6 293.94 233.92 295.46 237.12C296.9 240.16 298.34 241.28 298.66 239.52C298.74 238.88 299.46 237.92 300.34 237.28C302.1 236.08 303.38 236.48 304.1 238.32C304.9 240.32 303.14 242.32 298.18 245.36C293.587 247.896 289.634 251.449 286.625 255.748C283.616 260.046 281.631 264.976 280.82 270.16C279.3 279.6 284.02 289.36 293.3 296.48C297.78 299.84 304.9 303.36 304.42 302.08C302.5 296.24 302.58 285.28 304.5 283.44C304.82 283.12 304.74 284.24 304.26 285.92C302.66 292.24 303.46 297.2 307.46 308.88C310.98 319.44 310.5 324 305.38 326.96C303.78 327.92 302.74 328.08 298.34 328C293.54 328 292.98 328 291.46 329.28C289.622 331.157 288.419 333.563 288.02 336.16C288.02 337.2 289.14 337.04 291.22 335.84H291.3Z" fill="#FFB700" stroke="black" stroke-width="4.48"/>
<path d="M368.9 335.6L370.9 334.32L372.26 335.6C374.02 337.28 376.18 337.2 377.86 335.52C378.66 334.72 379.3 334.24 379.38 334.32L380.1 335.6C380.5 336.32 381.38 336.64 382.98 336.8C384.82 336.88 385.38 336.8 386.18 335.68L386.98 334.32L388.98 335.6C394.42 339.12 397.3 335.44 394.82 328.16C393.62 324.48 394.34 322.4 398.26 317.76C399.94 315.76 401.3 313.6 401.3 312.96C401.3 312.08 400.98 311.92 398.74 312C396.66 312 396.02 311.76 394.9 310.56C393.06 308.56 393.22 306.24 395.22 303.68L396.82 301.68L393.94 299.76C391.641 298.062 389.499 296.161 387.54 294.08C385.794 292.019 383.659 290.322 381.256 289.087C378.854 287.852 376.232 287.102 373.54 286.88L369.78 286.48V289.36C369.78 292.96 371.54 296.48 376.18 302.4C381.46 309.12 381.78 310.16 382.02 318.96L382.26 326.4L380.66 327.84C379.3 329.12 378.74 329.36 374.26 329.6C370.02 329.84 369.06 330.08 367.86 331.2C366.456 332.224 365.485 333.737 365.14 335.44C364.9 336.64 364.98 336.88 365.86 336.88C366.42 336.88 367.78 336.32 368.9 335.6ZM255.14 316.4C255.624 315.69 255.901 314.859 255.94 314C255.94 313.2 256.42 312.88 258.5 312.56L260.98 312.24L259.38 310.88C257.38 309.28 257.14 308.08 258.9 308.08C260.66 308.08 263.54 306.32 264.02 304.96C264.26 304.32 264.02 303.52 263.7 303.12C262.74 302 260.9 302.16 260.58 303.44C260.18 304.72 259.62 304.72 258.18 303.44C256.18 301.44 256.1 297.36 258.18 294.96C259.06 293.84 259.06 293.84 257.86 292.64C256.58 291.36 255.62 288.96 256.26 288.32C256.42 288.16 257.46 288.32 258.5 288.72C260.1 289.2 260.66 289.2 261.3 288.72C263.14 287.2 261.14 285.28 258.1 285.76C256.82 285.92 256.34 285.76 256.18 285.12C256.02 284.64 254.98 284 253.78 283.68C251.62 283.12 251.62 283.12 251.62 284.64C251.62 286.24 250.66 286.56 248.9 285.52C247.46 284.72 246.1 285.36 246.1 286.88C246.1 288.32 247.46 288.96 250.1 288.8C252.02 288.72 252.1 290.16 250.26 292.24L248.9 293.84L249.94 295.36C251.54 297.6 251.38 301.36 249.7 303.28L248.34 304.72L247.46 303.52C246.18 301.92 244.5 302 244.02 303.76C243.78 304.88 244.02 305.36 245.46 306.64C246.42 307.44 247.86 308.08 248.58 308.08C250.42 308.08 250.34 309.6 248.42 311.04L246.82 312.24L249.22 312.56C250.5 312.8 251.62 313.12 251.62 313.36C251.62 314.4 253.22 317.52 253.7 317.52C254.02 317.52 254.66 316.96 255.14 316.32V316.4Z" fill="#FFB700" stroke="black" stroke-width="4.48"/>
<path d="M285.7 303.12C287.86 302.32 292.5 298.32 292.5 297.44C292.5 297.12 291.22 295.68 289.62 294.24C286.42 291.36 282.82 286.32 281.86 283.44C281.38 281.84 279.06 279.28 272.5 272.88L263.78 264.48L261.3 265.12C259.86 265.44 258.18 265.76 257.54 265.76C256.34 265.76 256.34 265.76 257.94 267.04L259.54 268.32L261.94 267.04C264.1 265.76 264.18 265.76 264.42 266.8C264.58 267.36 264.26 268.4 263.62 269.12C263.06 269.84 262.74 270.72 262.82 270.96C263.06 271.2 262.5 271.76 261.62 272.24C260.02 273.04 258.82 275.68 260.1 275.68C261.3 275.68 263.86 272.48 263.54 271.44C263.38 270.88 263.54 270.32 263.7 270.16C264.74 269.6 264.66 272.08 263.7 273.36C263.06 274 262.74 274.8 262.9 275.12C263.06 275.36 262.5 275.92 261.62 276.4C260.02 277.2 258.82 279.84 260.1 279.84C261.38 279.84 263.86 276.8 263.62 275.68C263.46 275.12 263.46 274.48 263.7 274.32C264.42 274 264.74 275.92 264.18 276.88C264.033 277.15 263.956 277.453 263.956 277.76C263.956 278.067 264.033 278.37 264.18 278.64C264.74 279.68 264.18 281.6 263.14 282.24C262.74 282.48 262.98 283.04 264.1 283.84C265.7 284.96 265.7 285.12 265.7 290.24C265.7 294.56 265.86 295.68 266.66 296.4C267.46 297.2 267.62 297.2 267.62 296.4C267.62 295.6 269.22 294.48 270.42 294.48C270.82 294.48 273.14 296.48 275.62 298.88C278.1 301.28 280.74 303.44 281.46 303.52L283.22 303.84C283.46 303.84 284.58 303.6 285.7 303.04V303.12ZM259.06 282.24C259.06 280.88 256.18 279.36 252.74 279.04C249.94 278.64 249.94 278.72 249.94 280.08C249.94 281.2 250.34 281.68 252.34 282.48C255.38 283.84 259.06 283.68 259.06 282.24Z" fill="#FFB700" stroke="black" stroke-width="4.48"/>
<path d="M262.18 282.08C263.62 280.8 264.26 279.36 263.38 279.36C262.42 279.36 259.86 281.6 259.86 282.56C259.86 283.84 260.34 283.76 262.26 282.08H262.18ZM259.22 278C259.3 277.2 258.82 276.72 257.38 276C254.18 274.64 250.5 273.92 249.62 274.64C247.94 276 249.06 277.76 251.7 278.08C252.82 278.16 254.26 278.48 254.98 278.8C257.06 279.6 258.98 279.2 259.22 278ZM259.22 273.76C259.38 272.72 258.66 272.32 252.82 270.24C248.42 268.64 246.5 269.44 247.94 272.08C248.42 272.96 249.22 273.36 251.06 273.68C252.42 273.84 254.26 274.24 255.14 274.56C257.54 275.36 258.98 275.04 259.14 273.76H259.22ZM262.1 269.84C262.98 268.96 263.7 267.92 263.7 267.44C263.7 266.24 260.26 268.48 259.78 270.08C259.3 271.92 260.18 271.84 262.18 269.84H262.1ZM259.22 269.6C259.38 268.32 257.3 267.2 253.14 266.32C250.02 265.6 248.66 266 248.9 267.44C249.06 268.24 250.1 268.8 252.9 269.68C257.62 271.12 258.98 271.12 259.22 269.6ZM263.22 263.68C268.66 261.28 269.06 255.28 264.02 253.68C261.94 253.04 260.66 253.44 259.86 254.8C259.22 255.92 259.62 257.84 260.42 257.84C260.74 257.84 260.98 258.24 260.98 258.64C260.98 260.8 252.82 261.68 249.46 260C248.26 259.44 247.86 257.84 248.74 257.84C249.54 257.84 250.02 256.24 249.62 255.2C249.14 253.6 247.54 253.12 245.38 253.76C240.34 255.04 240.5 260.96 245.62 263.36C251.284 265.439 257.484 265.552 263.22 263.68Z" fill="#FFB700" stroke="black" stroke-width="4.48"/>
<path d="M259.94 259.04C260.26 258.72 260.1 258.24 259.62 257.92C258.5 257.04 258.58 255.68 259.78 254.16C260.74 253.04 260.82 251.28 261.14 234.08C261.7 204.4 263.94 182.08 266.82 176.64C268.02 174.56 267.86 174.56 264.82 176.64C260.832 179.419 257.612 183.162 255.46 187.52C250.5 196.72 248.82 209.12 248.82 235.68C248.82 250.72 248.9 252.72 249.78 254.08C250.58 255.52 250.58 256 250.1 257.44C249.7 258.32 249.54 259.28 249.7 259.44C250.82 260.48 258.82 260.24 259.94 259.04ZM304.82 230.72C305.06 230.48 304.66 229.12 304.02 227.84C303.06 225.76 302.66 225.44 301.3 225.44C294.903 224.884 288.665 223.148 282.9 220.32C278.82 218.48 277.3 218.08 276.9 218.56C275.62 219.76 277.7 222.56 280.9 224.08C285.609 225.777 290.542 226.774 295.54 227.04C297.7 227.04 297.78 227.04 296.5 228.88L295.7 230.16H298.1L302.1 230.64C304.5 231.2 304.5 231.2 304.82 230.72Z" fill="#FFB700" stroke="black" stroke-width="4.48"/>
<path d="M330.1 244.08C330.1 243.28 327.78 241.28 325.54 239.92C323.7 238.88 323.38 238.8 323.38 239.68C323.38 240.96 322.26 244.24 321.78 244.24C321.54 244.24 321.14 243.6 320.98 242.88C320.74 242.08 319.86 240.48 318.98 239.44L317.38 237.44L316.26 239.28C315.14 241.04 313.14 242.72 312.26 242.72C312.1 242.72 312.02 241.76 312.26 240.72C312.34 239.44 312.26 238.48 311.86 238.32C311.54 238.08 311.22 238.16 311.22 238.48C311.22 239.12 308.5 242.16 308.02 242.16C307.7 242.16 307.38 241.36 307.22 240.24L306.58 236.4C306.42 235.44 306.82 236.08 307.38 238L308.66 241.28L309.94 239.28C310.519 238.454 310.952 237.533 311.22 236.56C311.22 236.16 311.46 236 311.78 236.16C312.1 236.32 312.5 237.68 312.66 239.12L313.06 241.84L314.5 240.24C315.254 239.438 315.949 238.582 316.58 237.68C317.14 236.72 317.22 236.72 318.42 237.68C319.06 238.32 320.1 239.68 320.74 240.8C321.38 241.92 321.94 242.72 322.02 242.64L322.5 240.08L322.82 237.68C322.9 237.28 327.14 240.08 328.74 241.44C329.7 242.32 330.66 242.96 330.82 242.8C330.98 242.64 331.14 241.36 331.14 239.84C331.14 237.6 330.9 236.96 329.54 235.76C327.94 234.32 327.94 234.32 327.3 235.36C326.5 236.72 325.62 236.72 325.62 235.36C325.62 234.4 322.58 230.64 321.86 230.64C321.62 230.64 320.98 231.44 320.42 232.48C319.86 233.52 319.22 234.32 319.06 234.32C318.26 234.32 314.02 229.52 314.02 228.72C314.02 228.08 314.34 228.24 315.06 229.36C315.775 230.411 316.607 231.377 317.54 232.24C319.14 233.68 319.78 233.36 320.42 230.56C320.66 229.76 320.98 229.12 321.22 229.12C321.86 229.12 325.54 233.04 326.02 234.32L326.58 235.6L326.98 234.16C327.46 232.4 328.02 232.4 328.82 234C329.14 234.64 330.74 236.08 332.34 237.04L335.3 238.96L335.86 237.04C336.18 236 336.66 235.44 336.82 235.76C337.14 236.16 336.34 239.36 335.78 240C335.78 240.08 334.74 239.52 333.7 238.8L331.7 237.36V239.92C331.7 241.28 331.54 242.96 331.38 243.6C330.98 244.88 330.02 245.2 330.02 244.08H330.1ZM315.3 223.76C311.78 220.88 311.3 220.24 311.3 218.8L311.38 217.36L311.62 218.72C311.78 219.52 312.74 220.8 313.86 221.76L315.94 223.36L317.14 221.92C317.86 221.12 318.42 220.16 318.42 219.84C318.42 218.88 318.58 218.96 320.98 221.04C323.06 222.88 323.14 222.88 323.38 221.68C323.62 221.04 323.54 219.76 323.38 218.88C322.58 216.48 322.74 216.16 323.78 217.6L325.7 219.84C326.5 220.72 326.58 220.72 326.9 219.6C327.14 218.88 327.3 217.68 327.3 216.88V215.36L329.14 217.52C330.98 219.6 331.14 219.68 331.62 218.64C332.02 218.08 332.26 216.72 332.26 215.68C332.26 214.24 332.42 213.92 332.74 214.4C333.38 215.36 332.98 217.76 331.86 219.84L331.06 221.44L330.02 219.76C328.66 217.68 328.18 217.68 327.38 219.92C326.58 222.08 326.02 222.24 325.22 220.56C324.74 219.52 324.58 219.68 324.26 221.92L323.86 224.32L321.46 222.48L319.06 220.64L317.86 221.84C317.3 222.56 316.82 223.44 316.82 223.76C316.82 224.56 316.18 224.56 315.3 223.76ZM346.5 212.88C345.3 211.76 344.42 210.64 344.58 210.48C344.82 210.24 344.98 210.16 345.06 210.32C345.834 211.145 346.635 211.946 347.46 212.72C350.18 215.6 349.62 215.68 346.58 212.88H346.5ZM304.9 208.56C303.78 206.96 303.86 206 305.3 204.24C306.26 203.04 306.74 202.88 308.5 203.12C309.7 203.2 312.18 204.24 314.02 205.36C316.679 206.949 319.723 207.779 322.82 207.76L321.46 205.52C319.7 202.88 319.7 202.56 321.78 204.16C323.86 205.84 326.34 206.32 331.94 206.16L334.66 206.08L333.06 204.48C330.9 202.32 331.54 202.08 334.02 204.24C336.26 206.24 336.18 206.4 331.3 206.88C329.265 207.086 327.21 206.95 325.22 206.48C322.5 205.68 322.34 205.76 322.9 206.64C323.22 207.2 323.7 207.6 323.94 207.6C324.26 207.6 324.5 207.92 324.5 208.24C324.5 209.28 318.58 208.32 315.7 206.96C309.3 203.68 308.5 203.36 306.9 203.84C306.474 204.004 306.085 204.251 305.755 204.567C305.425 204.883 305.162 205.261 304.98 205.68C303.94 208.32 307.7 210.4 309.22 208.08C309.7 207.36 309.62 206.96 308.82 206.08C307.7 204.96 307.86 204.8 309.3 205.28C310.34 205.68 310.42 208.16 309.46 209.12C308.42 210.16 305.86 209.92 304.9 208.56Z" fill="black" stroke="black" stroke-width="4.48"/>
<path d="M330.42 202.08C329.62 201.28 330.26 201.12 333.86 201.04C338.34 200.96 341.06 200.24 344.26 198.16C346.82 196.56 347.54 196.88 345.06 198.56C342.9 200.16 339.46 201.28 336.02 201.6L331.94 202.16C331.3 202.32 330.58 202.24 330.34 202.08H330.42Z" fill="black" stroke="black" stroke-width="4.48"/>
<path d="M291.3 335.84L293.14 334.72L293.94 335.84C294.98 337.28 297.94 337.2 299.86 335.84L301.38 334.64L302.66 335.76C304.26 337.28 307.3 337.28 309.3 335.76C310.66 334.8 310.9 334.72 311.7 335.52C312.26 336 313.86 336.48 315.22 336.72C317.78 337.04 317.78 337.04 319.22 334.8C320.5 332.96 320.66 332.24 320.42 330.4C320.197 328.995 320.036 327.58 319.94 326.16C319.78 324.08 319.86 324.08 322.82 322.96C324.289 322.509 325.732 321.975 327.14 321.36C328.34 320.64 331.7 316.72 331.7 315.92C331.7 315.76 330.42 315.44 328.82 315.28C322.42 314.48 321.38 311.12 325.54 304.88C332.18 294.48 336.26 284.48 336.26 278.16C336.26 275.28 336.5 274.32 336.82 274.96C338.34 277.44 335.62 288.08 331.62 295.76L330.02 298.8L331.54 298.48C332.34 298.24 337.46 296.08 342.74 293.68C357.3 287.12 362.26 285.84 371.7 286.24C379.62 286.56 382.9 288.08 388.5 293.92C391.46 297.12 394.34 299.28 399.54 302.56C410.58 309.44 411.06 310.08 411.62 318.24C412.18 326.48 411.86 326.96 405.62 328.32C400.26 329.52 396.9 332 396.02 335.52C395.54 337.28 396.58 337.36 399.22 335.6L401.22 334.32L402.1 335.6C403.3 337.28 405.7 337.28 407.7 335.6L409.3 334.4L410.9 335.6C413.3 337.6 416.5 337.12 417.46 334.64C417.62 334.24 418.1 334.32 419.06 335.2C420.9 336.8 425.46 337.44 425.94 336.16C426.1 335.68 425.78 334.56 425.14 333.6C422.5 329.6 421.62 327.76 421.62 325.6C421.62 322.56 422.42 321.04 425.94 318.64C430.1 315.6 431.38 311.76 428.18 311.76C426.26 311.76 424.26 310 422.98 307.2C420.42 301.44 420.98 295.04 424.82 284.32C427.764 278.013 429.241 271.12 429.14 264.16C429.14 258.24 428.98 257.28 427.7 254C426.699 251.72 425.466 249.548 424.02 247.52L421.78 244.56L424.58 242.16C433.22 235.04 431.46 223.36 421.06 218.88C417.86 217.44 417.06 217.36 411.46 217.36C408.26 217.36 403.06 217.84 400.26 218.4C396.502 218.995 392.705 219.316 388.9 219.36C383.46 219.36 382.5 219.2 380.42 218.08C378.26 216.96 377.86 216.4 377.46 213.68C377.422 213.424 377.321 213.181 377.168 212.972C377.015 212.763 376.813 212.594 376.58 212.48C375.78 212.24 372.42 215.2 371.94 216.48C371.62 217.2 371.46 217.12 370.74 216.24C370.061 215.368 369.522 214.397 369.14 213.36C368.34 210.72 369.38 208.8 372.5 207.28L374.9 206.16L373.46 205.28C370.58 203.44 365.62 204.72 363.86 207.68C363.3 208.48 362.74 209.28 362.58 209.28C362.42 209.28 361.46 208.48 360.5 207.44C356.74 203.76 358.02 198.32 363.06 196.72C365.7 195.84 368.1 196.48 368.58 198.32C369.38 200.96 371.62 197.44 371.22 194.16C370.98 192 370.98 191.92 372.5 191.92C374.58 191.92 378.9 194.64 380.34 196.72C381.94 199.2 381.78 203.12 380.02 206L378.66 208.24L380.5 207.92C383.06 207.36 385.62 205.76 386.9 203.76C387.575 202.486 387.954 201.077 388.009 199.637C388.064 198.196 387.795 196.762 387.22 195.44C386.02 193.28 386.18 192.96 387.94 193.68C390.82 194.88 392.42 196.24 393.54 198.56C394.66 200.64 394.74 201.12 394.18 203.36C393.797 204.724 393.203 206.02 392.42 207.2C391.46 208.48 391.38 208.72 392.18 208.72C393.62 208.72 396.5 207.36 397.54 206.32C398.1 205.68 398.9 204.32 399.3 203.12L400.1 201.12L400.9 202.72C402.1 204.88 404.5 206.88 407.38 208.16C410.5 209.44 411.78 209.52 410.18 208.32C409.06 207.52 406.98 201.52 407.7 200.96C411.153 202.894 414.306 205.319 417.06 208.16C421.62 212.24 424.5 213.6 428.66 213.6C434.02 213.6 437.14 208.96 434.74 204.56C433.38 202 430.26 201.6 428.34 203.76C427.54 204.8 427.3 205.6 427.54 206.72C427.86 208 427.78 208.16 426.58 208.16C424.98 208.16 421.94 206.16 416.5 201.6C408.928 195.084 400.224 190.013 390.82 186.64C384.45 185.168 377.871 184.816 371.38 185.6C366.26 186.56 360.18 189.52 356.82 192.64C350.98 198.24 350.9 205.68 356.58 212.48L358.18 214.4L357.14 216.16C356.358 217.421 355.97 218.886 356.027 220.369C356.084 221.852 356.583 223.283 357.46 224.48C358.26 225.6 359.06 226.48 359.3 226.48C359.46 226.48 359.62 225.76 359.7 224.88C359.86 222.72 360.82 221.28 362.42 220.72C363.86 220.16 364.82 220.48 371.38 223.12C378.34 225.84 389.78 226 401.94 223.6C407.21 222.383 412.695 222.438 417.94 223.76C423.7 226.16 424.98 232.32 420.82 236.96C418.98 239.04 417.3 239.84 411.46 241.44C406.376 242.781 401.09 243.188 395.86 242.64C387.22 242.56 384.1 242.72 380.66 243.44C376.74 244.24 374.42 244.32 363.22 244.08L350.18 243.76L351.62 244.88C352.391 245.565 353.221 246.181 354.1 246.72C355.14 247.28 355.06 247.36 353.62 247.92C352.82 248.24 350.9 248.48 349.38 248.48H346.74L346.42 250.72C346.204 251.776 346.204 252.864 346.42 253.92C346.74 254.72 346.58 254.88 345.78 254.56C345.22 254.32 343.7 253.92 342.34 253.68C340.968 253.386 339.628 252.957 338.34 252.4C336.82 251.6 336.66 251.6 336.1 252.64C335.62 253.44 331.14 256.8 330.5 256.8C330.211 254.725 329.618 252.703 328.74 250.8C327.94 249.12 327.22 247.2 326.98 246.64C326.74 245.76 326.58 245.68 326.18 246.4C325.94 246.8 325.62 248 325.38 248.96C325.1 250.256 324.614 251.498 323.94 252.64L322.74 254.4L321.94 252.88C321.14 251.28 319.86 249.52 319.38 249.52C319.22 249.52 318.98 250 318.82 250.72C318.42 252 315.3 255.76 314.5 255.76C314.26 255.76 314.02 254.72 314.02 253.36C314.02 252.16 313.78 251.04 313.46 251.04C313.14 251.04 312.9 251.44 312.9 251.84C312.9 252.8 310.26 255.84 309.3 255.84C308.98 255.84 308.34 256.16 307.94 256.64C306.98 257.68 306.18 257.52 306.58 256.32C306.692 255.296 306.583 254.259 306.26 253.28L305.46 250.72C305.3 250.32 304.34 250.48 302.26 251.12C299.06 252.16 297.94 251.92 299.62 250.64C300.26 250.16 301.22 248.48 301.7 246.96C302.26 245.36 303.06 244 303.46 243.84C304.02 243.68 304.02 243.84 303.3 244.8C302.837 245.409 302.534 246.124 302.42 246.88C302.42 247.28 302.02 248.32 301.62 249.2C301.14 250 300.82 250.8 300.9 250.88C300.98 250.96 302.26 250.48 303.7 249.84L306.26 248.56V249.68C306.26 250.32 306.58 251.92 306.98 253.28L307.7 255.68L309.46 254.88C311.22 254.08 312.9 251.2 312.9 248.88C312.9 247.76 313.54 247.92 313.86 249.12C313.86 249.44 314.34 250.8 314.66 252.08L315.46 254.32L316.66 252.88C317.38 252.08 318.18 250.48 318.5 249.44C319.14 247.52 320.1 246.64 320.1 248.08C320.1 249.04 322.82 252.72 323.3 252.4C323.62 252.24 324.1 250.88 324.5 249.36C325.3 246.16 326.5 244.08 327.3 244.56C327.62 244.72 327.7 245.04 327.54 245.36C327.38 245.52 328.02 247.6 328.98 249.84C329.676 251.519 330.369 253.199 331.06 254.88C331.38 255.68 331.7 255.68 333.7 253.84C334.9 252.72 336.1 251.52 336.18 251.12C336.42 250.48 336.66 250.56 337.78 251.28C340.139 252.526 342.723 253.288 345.38 253.52C345.54 253.36 345.7 251.92 345.7 250.32L345.78 247.36L347.38 247.68C348.18 247.92 350.02 247.92 351.38 247.68L353.78 247.36L351.62 245.76C350.42 244.96 349.22 243.92 348.9 243.44C348.66 242.96 347.54 242.48 346.34 242.4C343.06 242.08 337.22 238.88 337.22 237.28C337.22 236.96 338.02 237.52 338.98 238.4C341.22 240.4 344.26 241.6 346.98 241.6H348.9L347.7 240C346.845 238.76 346.297 237.334 346.1 235.84C345.94 233.44 345.7 233.12 343.22 231.44C341.782 230.421 340.443 229.269 339.22 228L337.86 226.48L337.14 228.32C336.74 229.36 336.34 230.16 336.1 230.16C335.94 230.16 335.14 229.52 334.5 228.8C334.05 228.279 333.508 227.845 332.9 227.52C332.66 227.52 332.1 228.48 331.46 229.68L330.34 231.84L329.54 230.64C328.828 229.659 328.025 228.748 327.14 227.92C326.18 227.12 325.78 226.48 326.1 226.48C326.42 226.48 327.46 227.28 328.5 228.32L330.26 230.16L331.06 228.8C331.522 227.858 331.663 226.79 331.46 225.76C331.14 224.32 331.22 224.24 331.7 225.2C332.39 226.103 333.197 226.91 334.1 227.6L335.86 229.04L337.06 226.88C338.26 224.64 338.26 224.64 338.74 226C339.54 227.68 344.74 232 349.14 234.48C349.94 234.88 349.62 233.6 348.34 230.48C347.956 229.455 347.74 228.374 347.7 227.28C347.7 225.84 347.3 225.2 345.46 223.76C344.316 223.029 343.359 222.04 342.664 220.874C341.97 219.707 341.558 218.394 341.46 217.04C341.22 215.68 340.74 214.24 340.34 213.76C339.86 212.96 339.7 213.44 339.86 215.84C340.02 217.52 339.78 219.6 339.38 220.48L338.74 222.08L338.26 220.72C337.94 220 336.66 218.72 335.46 217.92C334.26 217.12 333.38 216.32 333.54 216.16C333.7 216 334.98 216.72 336.34 217.76C338.5 219.44 338.9 219.6 339.22 218.88C339.54 218.08 339.22 214.4 338.58 211.84C338.26 210.56 338.26 210.56 339.86 212.16C340.98 213.28 341.62 214.72 342.18 217.12C342.82 220.16 343.14 220.72 345.94 223.2C347.62 224.72 349.14 225.84 349.22 225.76C349.38 225.6 349.54 221.76 349.7 217.12C350.02 208.24 349.7 206.08 347.54 203.36L346.42 201.92L348.18 200.08C350.152 198.194 351.469 195.728 351.94 193.04L352.26 190.88L350.34 192.72C348.74 194.24 347.94 194.56 346.1 194.56C344.26 194.56 343.54 194.24 342.34 192.96C340.471 191.161 338.192 189.843 335.7 189.12C334.74 188.8 334.42 188.96 334.42 189.6C334.42 190.08 333.94 191.36 333.3 192.56L332.18 194.64L329.78 192.24C328.26 190.88 326.58 189.68 325.22 189.36C321.94 188.56 321.78 188.56 321.78 191.04C321.78 194.8 320.18 195.52 317.3 193.04C315.06 191.12 313.3 190.64 309.06 191.2L305.86 191.52L306.42 192.96C306.9 194.16 306.82 194.72 305.78 196.08C304.1 198.32 301.94 199.28 298.58 199.28C296.98 199.28 295.06 199.6 294.26 200C293.46 200.4 291.38 200.8 289.7 200.96C288.1 201.12 286.26 201.44 285.7 201.6C284.9 201.92 284.9 201.6 285.14 199.84C285.54 197.12 283.54 195.04 280.58 195.04C276.66 195.04 274.9 198.56 276.42 203.2C276.731 204.201 276.998 205.216 277.22 206.24C278.271 208.241 279.681 210.03 281.38 211.52C283.46 213.6 285.38 215.76 285.7 216.32C286.344 217.154 287.163 217.837 288.1 218.32L289.86 219.28L289.62 217.36C289.38 215.28 289.78 214.96 290.9 216.48C291.3 216.96 292.34 217.84 293.14 218.32C294.5 219.12 294.74 219.12 294.74 218.48C294.74 218 294.98 216.96 295.3 216.16L295.86 214.72L296.9 216.72C297.46 217.84 299.3 220.32 300.98 222.32C304.26 226.08 306.34 230.32 305.3 231.28C304.82 231.68 303.7 231.68 301.3 231.2C299.54 230.88 297.3 230.64 296.34 230.8C294.5 231.04 294.34 230.8 295.54 229.36C296.74 227.76 296.5 227.52 294.1 227.52C291.3 227.52 284.34 226.16 281.62 225.12C279.06 224.08 278.42 224.32 277.62 226.8L276.26 231.28L275.46 233.68L278.34 233.44C279.825 233.285 281.296 233.017 282.74 232.64C283.307 232.451 283.904 232.37 284.5 232.4C284.66 232.48 284.26 233.44 283.7 234.56L282.58 236.48L284.34 236.16C285.3 235.92 286.74 235.44 287.54 235.04C288.98 234.4 289.14 234.4 290.26 236.24C291.62 238.4 292.66 238.32 292.9 236C293.14 233.6 293.94 233.92 295.46 237.12C296.9 240.16 298.34 241.28 298.66 239.52C298.74 238.88 299.46 237.92 300.34 237.28C302.1 236.08 303.38 236.48 304.1 238.32C304.9 240.32 303.14 242.32 298.18 245.36C293.587 247.896 289.634 251.449 286.625 255.748C283.616 260.046 281.631 264.976 280.82 270.16C279.3 279.6 284.02 289.36 293.3 296.48C297.78 299.84 304.9 303.36 304.42 302.08C302.5 296.24 302.58 285.28 304.5 283.44C304.82 283.12 304.74 284.24 304.26 285.92C302.66 292.24 303.46 297.2 307.46 308.88C310.98 319.44 310.5 324 305.38 326.96C303.78 327.92 302.74 328.08 298.34 328C293.54 328 292.98 328 291.46 329.28C289.622 331.157 288.419 333.563 288.02 336.16C288.02 337.2 289.14 337.04 291.22 335.84H291.3Z" fill="#FFB700"/>
<path d="M368.9 335.6L370.9 334.32L372.26 335.6C374.02 337.28 376.18 337.2 377.86 335.52C378.66 334.72 379.3 334.24 379.38 334.32L380.1 335.6C380.5 336.32 381.38 336.64 382.98 336.8C384.82 336.88 385.38 336.8 386.18 335.68L386.98 334.32L388.98 335.6C394.42 339.12 397.3 335.44 394.82 328.16C393.62 324.48 394.34 322.4 398.26 317.76C399.94 315.76 401.3 313.6 401.3 312.96C401.3 312.08 400.98 311.92 398.74 312C396.66 312 396.02 311.76 394.9 310.56C393.06 308.56 393.22 306.24 395.22 303.68L396.82 301.68L393.94 299.76C391.641 298.062 389.499 296.161 387.54 294.08C385.794 292.019 383.659 290.322 381.256 289.087C378.854 287.852 376.232 287.102 373.54 286.88L369.78 286.48V289.36C369.78 292.96 371.54 296.48 376.18 302.4C381.46 309.12 381.78 310.16 382.02 318.96L382.26 326.4L380.66 327.84C379.3 329.12 378.74 329.36 374.26 329.6C370.02 329.84 369.06 330.08 367.86 331.2C366.456 332.224 365.485 333.737 365.14 335.44C364.9 336.64 364.98 336.88 365.86 336.88C366.42 336.88 367.78 336.32 368.9 335.6ZM255.14 316.4C255.624 315.69 255.901 314.859 255.94 314C255.94 313.2 256.42 312.88 258.5 312.56L260.98 312.24L259.38 310.88C257.38 309.28 257.14 308.08 258.9 308.08C260.66 308.08 263.54 306.32 264.02 304.96C264.26 304.32 264.02 303.52 263.7 303.12C262.74 302 260.9 302.16 260.58 303.44C260.18 304.72 259.62 304.72 258.18 303.44C256.18 301.44 256.1 297.36 258.18 294.96C259.06 293.84 259.06 293.84 257.86 292.64C256.58 291.36 255.62 288.96 256.26 288.32C256.42 288.16 257.46 288.32 258.5 288.72C260.1 289.2 260.66 289.2 261.3 288.72C263.14 287.2 261.14 285.28 258.1 285.76C256.82 285.92 256.34 285.76 256.18 285.12C256.02 284.64 254.98 284 253.78 283.68C251.62 283.12 251.62 283.12 251.62 284.64C251.62 286.24 250.66 286.56 248.9 285.52C247.46 284.72 246.1 285.36 246.1 286.88C246.1 288.32 247.46 288.96 250.1 288.8C252.02 288.72 252.1 290.16 250.26 292.24L248.9 293.84L249.94 295.36C251.54 297.6 251.38 301.36 249.7 303.28L248.34 304.72L247.46 303.52C246.18 301.92 244.5 302 244.02 303.76C243.78 304.88 244.02 305.36 245.46 306.64C246.42 307.44 247.86 308.08 248.58 308.08C250.42 308.08 250.34 309.6 248.42 311.04L246.82 312.24L249.22 312.56C250.5 312.8 251.62 313.12 251.62 313.36C251.62 314.4 253.22 317.52 253.7 317.52C254.02 317.52 254.66 316.96 255.14 316.32V316.4Z" fill="#FFB700"/>
<path d="M285.7 303.12C287.86 302.32 292.5 298.32 292.5 297.44C292.5 297.12 291.22 295.68 289.62 294.24C286.42 291.36 282.82 286.32 281.86 283.44C281.38 281.84 279.06 279.28 272.5 272.88L263.78 264.48L261.3 265.12C259.86 265.44 258.18 265.76 257.54 265.76C256.34 265.76 256.34 265.76 257.94 267.04L259.54 268.32L261.94 267.04C264.1 265.76 264.18 265.76 264.42 266.8C264.58 267.36 264.26 268.4 263.62 269.12C263.06 269.84 262.74 270.72 262.82 270.96C263.06 271.2 262.5 271.76 261.62 272.24C260.02 273.04 258.82 275.68 260.1 275.68C261.3 275.68 263.86 272.48 263.54 271.44C263.38 270.88 263.54 270.32 263.7 270.16C264.74 269.6 264.66 272.08 263.7 273.36C263.06 274 262.74 274.8 262.9 275.12C263.06 275.36 262.5 275.92 261.62 276.4C260.02 277.2 258.82 279.84 260.1 279.84C261.38 279.84 263.86 276.8 263.62 275.68C263.46 275.12 263.46 274.48 263.7 274.32C264.42 274 264.74 275.92 264.18 276.88C264.033 277.15 263.956 277.453 263.956 277.76C263.956 278.067 264.033 278.37 264.18 278.64C264.74 279.68 264.18 281.6 263.14 282.24C262.74 282.48 262.98 283.04 264.1 283.84C265.7 284.96 265.7 285.12 265.7 290.24C265.7 294.56 265.86 295.68 266.66 296.4C267.46 297.2 267.62 297.2 267.62 296.4C267.62 295.6 269.22 294.48 270.42 294.48C270.82 294.48 273.14 296.48 275.62 298.88C278.1 301.28 280.74 303.44 281.46 303.52L283.22 303.84C283.46 303.84 284.58 303.6 285.7 303.04V303.12ZM259.06 282.24C259.06 280.88 256.18 279.36 252.74 279.04C249.94 278.64 249.94 278.72 249.94 280.08C249.94 281.2 250.34 281.68 252.34 282.48C255.38 283.84 259.06 283.68 259.06 282.24Z" fill="#FFB700"/>
<path d="M262.18 282.08C263.62 280.8 264.26 279.36 263.38 279.36C262.42 279.36 259.86 281.6 259.86 282.56C259.86 283.84 260.34 283.76 262.26 282.08H262.18ZM259.22 278C259.3 277.2 258.82 276.72 257.38 276C254.18 274.64 250.5 273.92 249.62 274.64C247.94 276 249.06 277.76 251.7 278.08C252.82 278.16 254.26 278.48 254.98 278.8C257.06 279.6 258.98 279.2 259.22 278ZM259.22 273.76C259.38 272.72 258.66 272.32 252.82 270.24C248.42 268.64 246.5 269.44 247.94 272.08C248.42 272.96 249.22 273.36 251.06 273.68C252.42 273.84 254.26 274.24 255.14 274.56C257.54 275.36 258.98 275.04 259.14 273.76H259.22ZM262.1 269.84C262.98 268.96 263.7 267.92 263.7 267.44C263.7 266.24 260.26 268.48 259.78 270.08C259.3 271.92 260.18 271.84 262.18 269.84H262.1ZM259.22 269.6C259.38 268.32 257.3 267.2 253.14 266.32C250.02 265.6 248.66 266 248.9 267.44C249.06 268.24 250.1 268.8 252.9 269.68C257.62 271.12 258.98 271.12 259.22 269.6ZM263.22 263.68C268.66 261.28 269.06 255.28 264.02 253.68C261.94 253.04 260.66 253.44 259.86 254.8C259.22 255.92 259.62 257.84 260.42 257.84C260.74 257.84 260.98 258.24 260.98 258.64C260.98 260.8 252.82 261.68 249.46 260C248.26 259.44 247.86 257.84 248.74 257.84C249.54 257.84 250.02 256.24 249.62 255.2C249.14 253.6 247.54 253.12 245.38 253.76C240.34 255.04 240.5 260.96 245.62 263.36C251.284 265.439 257.484 265.552 263.22 263.68Z" fill="#FFB700"/>
<path d="M259.94 259.04C260.26 258.72 260.1 258.24 259.62 257.92C258.5 257.04 258.58 255.68 259.78 254.16C260.74 253.04 260.82 251.28 261.14 234.08C261.7 204.4 263.94 182.08 266.82 176.64C268.02 174.56 267.86 174.56 264.82 176.64C260.832 179.419 257.612 183.162 255.46 187.52C250.5 196.72 248.82 209.12 248.82 235.68C248.82 250.72 248.9 252.72 249.78 254.08C250.58 255.52 250.58 256 250.1 257.44C249.7 258.32 249.54 259.28 249.7 259.44C250.82 260.48 258.82 260.24 259.94 259.04ZM304.82 230.72C305.06 230.48 304.66 229.12 304.02 227.84C303.06 225.76 302.66 225.44 301.3 225.44C294.903 224.884 288.665 223.148 282.9 220.32C278.82 218.48 277.3 218.08 276.9 218.56C275.62 219.76 277.7 222.56 280.9 224.08C285.609 225.777 290.542 226.774 295.54 227.04C297.7 227.04 297.78 227.04 296.5 228.88L295.7 230.16H298.1L302.1 230.64C304.5 231.2 304.5 231.2 304.82 230.72Z" fill="#FFB700"/>
<path d="M330.1 244.08C330.1 243.28 327.78 241.28 325.54 239.92C323.7 238.88 323.38 238.8 323.38 239.68C323.38 240.96 322.26 244.24 321.78 244.24C321.54 244.24 321.14 243.6 320.98 242.88C320.74 242.08 319.86 240.48 318.98 239.44L317.38 237.44L316.26 239.28C315.14 241.04 313.14 242.72 312.26 242.72C312.1 242.72 312.02 241.76 312.26 240.72C312.34 239.44 312.26 238.48 311.86 238.32C311.54 238.08 311.22 238.16 311.22 238.48C311.22 239.12 308.5 242.16 308.02 242.16C307.7 242.16 307.38 241.36 307.22 240.24L306.58 236.4C306.42 235.44 306.82 236.08 307.38 238L308.66 241.28L309.94 239.28C310.519 238.454 310.952 237.533 311.22 236.56C311.22 236.16 311.46 236 311.78 236.16C312.1 236.32 312.5 237.68 312.66 239.12L313.06 241.84L314.5 240.24C315.254 239.438 315.949 238.582 316.58 237.68C317.14 236.72 317.22 236.72 318.42 237.68C319.06 238.32 320.1 239.68 320.74 240.8C321.38 241.92 321.94 242.72 322.02 242.64L322.5 240.08L322.82 237.68C322.9 237.28 327.14 240.08 328.74 241.44C329.7 242.32 330.66 242.96 330.82 242.8C330.98 242.64 331.14 241.36 331.14 239.84C331.14 237.6 330.9 236.96 329.54 235.76C327.94 234.32 327.94 234.32 327.3 235.36C326.5 236.72 325.62 236.72 325.62 235.36C325.62 234.4 322.58 230.64 321.86 230.64C321.62 230.64 320.98 231.44 320.42 232.48C319.86 233.52 319.22 234.32 319.06 234.32C318.26 234.32 314.02 229.52 314.02 228.72C314.02 228.08 314.34 228.24 315.06 229.36C315.775 230.411 316.607 231.377 317.54 232.24C319.14 233.68 319.78 233.36 320.42 230.56C320.66 229.76 320.98 229.12 321.22 229.12C321.86 229.12 325.54 233.04 326.02 234.32L326.58 235.6L326.98 234.16C327.46 232.4 328.02 232.4 328.82 234C329.14 234.64 330.74 236.08 332.34 237.04L335.3 238.96L335.86 237.04C336.18 236 336.66 235.44 336.82 235.76C337.14 236.16 336.34 239.36 335.78 240C335.78 240.08 334.74 239.52 333.7 238.8L331.7 237.36V239.92C331.7 241.28 331.54 242.96 331.38 243.6C330.98 244.88 330.02 245.2 330.02 244.08H330.1ZM315.3 223.76C311.78 220.88 311.3 220.24 311.3 218.8L311.38 217.36L311.62 218.72C311.78 219.52 312.74 220.8 313.86 221.76L315.94 223.36L317.14 221.92C317.86 221.12 318.42 220.16 318.42 219.84C318.42 218.88 318.58 218.96 320.98 221.04C323.06 222.88 323.14 222.88 323.38 221.68C323.62 221.04 323.54 219.76 323.38 218.88C322.58 216.48 322.74 216.16 323.78 217.6L325.7 219.84C326.5 220.72 326.58 220.72 326.9 219.6C327.14 218.88 327.3 217.68 327.3 216.88V215.36L329.14 217.52C330.98 219.6 331.14 219.68 331.62 218.64C332.02 218.08 332.26 216.72 332.26 215.68C332.26 214.24 332.42 213.92 332.74 214.4C333.38 215.36 332.98 217.76 331.86 219.84L331.06 221.44L330.02 219.76C328.66 217.68 328.18 217.68 327.38 219.92C326.58 222.08 326.02 222.24 325.22 220.56C324.74 219.52 324.58 219.68 324.26 221.92L323.86 224.32L321.46 222.48L319.06 220.64L317.86 221.84C317.3 222.56 316.82 223.44 316.82 223.76C316.82 224.56 316.18 224.56 315.3 223.76ZM346.5 212.88C345.3 211.76 344.42 210.64 344.58 210.48C344.82 210.24 344.98 210.16 345.06 210.32C345.834 211.145 346.635 211.946 347.46 212.72C350.18 215.6 349.62 215.68 346.58 212.88H346.5ZM304.9 208.56C303.78 206.96 303.86 206 305.3 204.24C306.26 203.04 306.74 202.88 308.5 203.12C309.7 203.2 312.18 204.24 314.02 205.36C316.679 206.949 319.723 207.779 322.82 207.76L321.46 205.52C319.7 202.88 319.7 202.56 321.78 204.16C323.86 205.84 326.34 206.32 331.94 206.16L334.66 206.08L333.06 204.48C330.9 202.32 331.54 202.08 334.02 204.24C336.26 206.24 336.18 206.4 331.3 206.88C329.265 207.086 327.21 206.95 325.22 206.48C322.5 205.68 322.34 205.76 322.9 206.64C323.22 207.2 323.7 207.6 323.94 207.6C324.26 207.6 324.5 207.92 324.5 208.24C324.5 209.28 318.58 208.32 315.7 206.96C309.3 203.68 308.5 203.36 306.9 203.84C306.474 204.004 306.085 204.251 305.755 204.567C305.425 204.883 305.162 205.261 304.98 205.68C303.94 208.32 307.7 210.4 309.22 208.08C309.7 207.36 309.62 206.96 308.82 206.08C307.7 204.96 307.86 204.8 309.3 205.28C310.34 205.68 310.42 208.16 309.46 209.12C308.42 210.16 305.86 209.92 304.9 208.56Z" fill="black"/>
<path d="M330.42 202.08C329.62 201.28 330.26 201.12 333.86 201.04C338.34 200.96 341.06 200.24 344.26 198.16C346.82 196.56 347.54 196.88 345.06 198.56C342.9 200.16 339.46 201.28 336.02 201.6L331.94 202.16C331.3 202.32 330.58 202.24 330.34 202.08H330.42Z" fill="black"/>
</g>
<defs>
<clipPath id="clip0_103_7598">
<rect width="512" height="512" fill="white" transform="translate(0.5)"/>
</clipPath>
</defs>
</svg>
