<svg width="513" height="512" viewBox="0 0 513 512" fill="none" xmlns="http://www.w3.org/2000/svg">
<g clip-path="url(#clip0_103_7634)">
<path d="M0.5 0H512.5V512H0.5V0Z" fill="white"/>
<path d="M0.5 358.4H512.5V512H0.5V358.4Z" fill="#009543"/>
<path d="M0.5 0H512.5V153.6H0.5V0Z" fill="#00209F"/>
<path d="M258.1 163.1C255.1 163.1 252.3 166.4 252.3 166.4L252.6 200.9L241.6 212.4H250.6L250.4 232.1L198.2 302.5L190.5 299.8L177 328.6C177 328.6 210.4 349.5 258.8 348.9C312 348.2 340.8 327.6 340.8 327.6L326.9 299.2L320.1 302.2L267.1 232.2V211.8H275.9L263.9 200.5L264 166.1C264 166.1 261 163.1 258.1 163.1Z" fill="black" stroke="black" stroke-width="1.7"/>
<path d="M276.3 245.8H240.2C240.2 245.8 227.1 218.2 229.2 198.8C231.4 179.2 242.6 169.9 257.6 169.8C275.2 169.5 284.4 178.4 287.2 198.1C290 217.6 276.3 245.8 276.3 245.8Z" stroke="black" stroke-width="8.5"/>
<path d="M195 311.6C194.4 312.4 190 321 190 321L197.5 319.4L195 311.6ZM199.3 322.8L191.4 325.4L200.9 329.1L199.3 322.8ZM202.9 311.8L206.8 323.4L216.4 320.6L213.9 315.1L202.9 311.8ZM208.9 327.5L210.3 332.2L223.1 335.4L218.1 324.6L209 327.6L208.9 327.5ZM223.1 317.7L227.6 328.5L237.3 324.8L234.1 320L223.1 317.7ZM229.4 332.4L231 336.6L246 338.7L239.6 328.9L229.4 332.4ZM243.8 320.8L249.3 330.5L263.3 325.4L261.7 321.6L243.7 320.8H243.8ZM251.8 334L254.8 339.1L272.1 338.5L265.6 328.9L251.8 334ZM270.1 321.2L274.9 329.2L285.9 324L282.9 319.7L270.1 321.2ZM288.2 327.3L277.2 332.8L280.2 337.6L294.9 335.2L288.2 327.3ZM291.8 318.9L297.5 325.9L306.7 318.7L303.6 315.3L291.8 318.9ZM308.7 322.6L299.8 329.3L302.2 333.4L314.4 330.3L308.7 322.6ZM320.9 308.6L323.1 311.8L317 320.8L310.7 312.8L320.9 308.6ZM325 316.5L328.8 324L321.3 326.5L320.7 323L325 316.5Z" fill="white"/>
</g>
<defs>
<clipPath id="clip0_103_7634">
<rect width="512" height="512" fill="white" transform="translate(0.5)"/>
</clipPath>
</defs>
</svg>
