<svg width="513" height="512" viewBox="0 0 513 512" fill="none" xmlns="http://www.w3.org/2000/svg">
<g clip-path="url(#clip0_103_7654)">
<mask id="mask0_103_7654" style="mask-type:luminance" maskUnits="userSpaceOnUse" x="0" y="-1" width="513" height="513">
<path d="M0.5 -0.0119629H512.5V511.988H0.5V-0.0119629Z" fill="white"/>
</mask>
<g mask="url(#mask0_103_7654)">
<path d="M-255.5 -0.0119629H768.5V511.988H-255.5V-0.0119629Z" fill="#239E46"/>
<path d="M-255.5 -0.0119629H768.5V383.988H-255.5V-0.0119629Z" fill="black"/>
<path d="M-255.5 -0.0119629H768.5V127.988H-255.5V-0.0119629Z" fill="#E70013"/>
<path d="M301.761 210.727C293.446 204.794 283.659 201.266 273.471 200.53C263.283 199.793 253.09 201.877 244.008 206.553C234.927 211.229 227.31 218.316 221.991 227.037C216.673 235.757 213.859 245.774 213.859 255.988C213.859 266.202 216.673 276.219 221.991 284.94C227.31 293.66 234.927 300.747 244.008 305.423C253.09 310.099 263.283 312.183 273.471 311.447C283.659 310.71 293.446 307.182 301.761 301.249C292.81 310.198 281.406 316.291 268.992 318.76C256.577 321.228 243.71 319.959 232.016 315.115C220.323 310.27 210.328 302.067 203.297 291.543C196.265 281.018 192.512 268.645 192.512 255.988C192.512 243.331 196.265 230.958 203.297 220.433C210.328 209.909 220.323 201.706 232.016 196.861C243.71 192.017 256.577 190.748 268.992 193.217C281.406 195.685 292.81 201.778 301.761 210.727ZM287.63 255.988L373.748 228.033L320.5 301.249V210.727L373.748 283.943L287.63 255.988Z" fill="white"/>
</g>
</g>
<defs>
<clipPath id="clip0_103_7654">
<rect width="512" height="512" fill="white" transform="translate(0.5)"/>
</clipPath>
</defs>
</svg>
