<svg width="513" height="512" viewBox="0 0 513 512" fill="none" xmlns="http://www.w3.org/2000/svg">
<g clip-path="url(#clip0_103_7670)">
<path fill-rule="evenodd" clip-rule="evenodd" d="M0.5 0H171.2V512H0.5V0Z" fill="#00319C"/>
<path fill-rule="evenodd" clip-rule="evenodd" d="M171.2 0H341.8V512H171.2V0Z" fill="#FFDE00"/>
<path fill-rule="evenodd" clip-rule="evenodd" d="M341.8 0H512.5V512H341.8V0Z" fill="#DE2110"/>
<path fill-rule="evenodd" clip-rule="evenodd" d="M290.161 321.522L309.861 349.945C310.974 351.551 312.057 353.113 310.423 354.147C308.742 355.211 309.272 359.369 310.385 360.975C312.581 364.143 315.329 364.715 316.963 363.681L331.905 354.224C333.54 353.19 334.061 350.549 331.865 347.381C330.627 345.789 326.953 343.686 325.318 344.72C323.637 345.784 322.555 344.222 321.472 342.661L301.711 314.148" fill="#FF1900"/>
<path d="M290.161 321.522L309.861 349.945C310.974 351.551 312.057 353.113 310.423 354.147C308.742 355.211 309.272 359.369 310.385 360.975C312.581 364.143 315.329 364.715 316.963 363.681L331.905 354.224C333.54 353.19 334.061 350.549 331.865 347.381C330.627 345.789 326.953 343.686 325.318 344.72C323.637 345.784 322.555 344.222 321.472 342.661L301.711 314.148" stroke="black" stroke-width="0.730307"/>
<path fill-rule="evenodd" clip-rule="evenodd" d="M297.795 301.414C306.593 311.407 309.653 322.864 304.639 326.895C299.625 330.926 288.335 326.083 279.538 316.09C270.74 306.098 267.723 294.606 272.737 290.575C277.751 286.544 289.005 291.346 297.838 301.379L297.795 301.414Z" fill="#A77B3B" stroke="black" stroke-width="1.69805"/>
<path fill-rule="evenodd" clip-rule="evenodd" d="M210.137 309.881L192.746 339.647C191.763 341.329 190.807 342.964 189.096 342.051C187.335 341.112 183.712 343.47 182.73 345.152C180.791 348.47 181.52 351.065 183.231 351.978L198.88 360.327C200.592 361.24 203.286 360.471 205.225 357.153C206.137 355.372 206.407 351.287 204.695 350.374C202.935 349.434 203.89 347.799 204.846 346.164L222.292 316.304" fill="#FF1900"/>
<path d="M210.137 309.881L192.746 339.647C191.763 341.329 190.807 342.964 189.096 342.051C187.335 341.112 183.712 343.47 182.73 345.152C180.791 348.47 181.52 351.065 183.231 351.978L198.88 360.327C200.592 361.24 203.286 360.471 205.225 357.153C206.137 355.372 206.407 351.287 204.695 350.374C202.935 349.434 203.89 347.799 204.846 346.164L222.292 316.304" stroke="black" stroke-width="0.73025"/>
<path fill-rule="evenodd" clip-rule="evenodd" d="M266.325 289.182H250.475C249.915 289.718 245.435 318.082 240.562 329C234.626 342.272 216.759 353.993 216.759 353.993C216.759 353.993 227.401 357.204 230.649 359.344C231.433 359.13 248.459 355.545 250.475 334.726C252.436 355.545 238.546 365.017 238.546 365.017C238.546 365.017 258.428 370.69 258.428 384.016C258.428 370.744 278.255 365.017 278.255 365.017C278.255 365.017 268.286 355.545 266.325 334.673C270.246 355.545 285.368 359.13 286.208 359.291C289.4 357.204 300.042 353.939 300.042 353.939C300.042 353.939 282.231 342.326 276.295 329C271.422 318.136 266.886 289.664 266.381 289.182H266.325Z" fill="#A77B3B" stroke="black" stroke-width="1.6972"/>
<path fill-rule="evenodd" clip-rule="evenodd" d="M198.82 194.304L228.615 203.776C233.761 203.45 238.608 201.349 242.255 197.864C245.902 194.38 248.1 189.748 248.442 184.831C248.778 163.745 240.489 156.359 238.529 156.359L242.449 152.613L236.568 146.833C236.568 146.833 238.585 136.986 258.411 137.361C278.238 137.735 278.237 146.833 278.237 156.306C278.237 165.832 268.324 165.832 268.324 184.777C268.679 189.699 270.889 194.332 274.545 197.815C278.201 201.299 283.055 203.398 288.207 203.723L317.946 194.25V289.191H198.82V194.304Z" fill="#A77B3B" stroke="black" stroke-width="1.6972"/>
<path d="M244.448 198.089L246.426 203.791L248.418 198.089L250.396 203.791L254.367 198.089L256.304 204.095L258.337 198.089L261.264 204.095L264.285 198.089L266.263 203.791L268.255 198.089" stroke="black" stroke-width="0.136181"/>
<path d="M252.418 177.231L248.442 198.103M254.378 177.231V198.103M258.355 177.231V198.103M262.331 177.231L264.292 198.103M266.308 177.231L268.268 198.103" stroke="black" stroke-width="0.164245"/>
<path fill-rule="evenodd" clip-rule="evenodd" d="M178.994 137.414C159.167 146.887 159.167 165.886 159.167 175.358C159.839 183.975 159.167 364.973 159.167 364.973C159.167 364.973 160.455 354.269 169.08 346.027L178.938 336.555L188.851 327.082C196.132 320.767 198.764 308.083 198.764 298.61V165.886C198.764 165.886 198.764 156.359 178.938 137.414H178.994Z" fill="#A77B3B" stroke="black" stroke-width="1.6972"/>
<path d="M198.82 175.393C198.596 175.393 188.907 165.921 188.907 165.921L178.994 175.393L169.081 165.921L159.167 175.393" stroke="black" stroke-width="1.6972"/>
<path d="M198.82 184.807C198.596 184.807 188.907 194.279 188.907 194.279L178.994 184.807L169.081 194.279L159.167 184.807" stroke="black" stroke-width="1.6972"/>
<path d="M198.82 213.193C198.596 213.193 188.907 203.721 188.907 203.721L178.994 213.193L169.081 203.721L159.167 213.193" stroke="black" stroke-width="1.6972"/>
<path d="M188.795 165.917L188.907 327.145" stroke="black" stroke-width="2.33764"/>
<path d="M178.995 175.437L179.107 336.273" stroke="black" stroke-width="2.21463"/>
<path d="M169.095 165.917L169.207 346.089" stroke="black" stroke-width="2.34398"/>
<path fill-rule="evenodd" clip-rule="evenodd" d="M337.806 137.414C357.633 146.887 357.633 165.886 357.633 175.358C356.961 183.975 357.633 364.973 357.633 364.973C357.633 364.973 356.345 354.269 347.72 346.027L337.862 336.555L327.949 327.082C320.668 320.767 318.036 308.083 318.036 298.61V165.886C318.036 165.886 318.036 156.359 337.862 137.414H337.806Z" fill="#A77B3B" stroke="black" stroke-width="1.6972"/>
<path d="M317.98 175.393C318.204 175.393 327.893 165.921 327.893 165.921L337.806 175.393L347.72 165.921L357.633 175.393" stroke="black" stroke-width="1.6972"/>
<path d="M317.98 184.807C318.204 184.807 327.893 194.279 327.893 194.279L337.806 184.807L347.72 194.279L357.633 184.807" stroke="black" stroke-width="1.6972"/>
<path d="M317.98 213.193C318.204 213.193 327.893 203.721 327.893 203.721L337.806 213.193L347.72 203.721L357.633 213.193" stroke="black" stroke-width="1.6972"/>
<path d="M328.005 165.917L327.893 327.145" stroke="black" stroke-width="2.33764"/>
<path d="M337.805 175.437L337.693 336.273" stroke="black" stroke-width="2.21463"/>
<path d="M347.705 165.917L347.593 346.089" stroke="black" stroke-width="2.34398"/>
<path fill-rule="evenodd" clip-rule="evenodd" d="M232.321 307.254C227.065 319.308 217.815 327.163 211.766 324.754C205.717 322.346 205.041 310.539 210.297 298.485C215.553 286.431 224.854 278.597 230.903 281.006C236.952 283.414 237.65 295.171 232.372 307.275L232.321 307.254Z" fill="#A77B3B" stroke="black" stroke-width="1.69764"/>
<path fill-rule="evenodd" clip-rule="evenodd" d="M198.9 203.8H317.9V260.7H198.9V203.8Z" fill="#FF0000"/>
<path fill-rule="evenodd" clip-rule="evenodd" d="M198.9 260.7H317.9V289C317.9 308 288.2 308 258.4 327C228.6 308 198.9 308 198.9 289V260.6V260.7Z" fill="#564DFF"/>
<path d="M198.82 203.776H317.89V289.191C317.89 308.136 288.151 308.136 258.355 327.135C228.615 308.136 198.82 308.136 198.82 289.138V203.83V203.776Z" stroke="#FFFF00" stroke-width="1.36871"/>
<path fill-rule="evenodd" clip-rule="evenodd" d="M236.575 207.644C236.575 207.644 216.737 221.591 216.737 234.935C216.737 248.279 237.555 252.752 237.555 252.752C237.555 252.752 230.615 252.752 230.615 270.544C230.615 279.465 251.433 275.017 251.433 279.465C251.433 283.913 251.159 294.669 251.433 301.731C251.433 306.179 237.555 301.731 237.555 306.179C237.555 308.39 247.983 319.523 258.412 319.523C268.84 319.523 279.23 308.39 279.23 306.179C279.23 301.731 265.351 306.179 265.351 301.731V279.465C265.351 275.017 286.169 279.465 286.169 270.544C286.169 252.752 279.23 252.752 279.23 252.752C279.23 252.752 300.087 248.304 300.087 234.935C300.087 221.566 280.21 207.644 280.21 207.644C280.21 207.644 291.383 226.039 291.383 234.935C291.383 239.383 286.169 248.304 272.29 248.304C272.29 248.304 268.762 243.831 265.351 248.304C265.351 248.304 261.352 243.831 258.412 248.304C257.392 249.812 255.589 243.831 251.433 248.304C249.708 249.485 248.297 243.831 244.494 248.304C237.555 248.304 223.676 243.831 223.676 234.935C223.676 226.039 236.575 207.644 236.575 207.644Z" fill="#FFFF00" stroke="black" stroke-width="0.941647"/>
<path fill-rule="evenodd" clip-rule="evenodd" d="M236.938 287.322C235.526 288.227 238.741 302.727 239.682 303.355C241.093 304.235 249.444 304.235 250.816 303.355C251.796 302.727 250.816 289.107 249.444 288.227C248.033 287.322 237.918 286.719 236.898 287.322H236.938Z" fill="#FFFF00" stroke="black" stroke-width="0.941647"/>
<path fill-rule="evenodd" clip-rule="evenodd" d="M279.862 287.322C281.274 288.227 278.059 302.727 277.118 303.355C275.707 304.235 267.356 304.235 265.984 303.355C265.004 302.727 265.984 289.107 267.356 288.227C268.767 287.322 278.882 286.719 279.902 287.322H279.862Z" fill="#FFFF00" stroke="black" stroke-width="0.941647"/>
<path fill-rule="evenodd" clip-rule="evenodd" d="M251.231 281.982C251.231 283.312 250.472 284.587 249.119 285.527C247.767 286.467 245.933 286.995 244.021 286.995C242.109 286.995 240.275 286.467 238.923 285.527C237.571 284.587 236.811 283.312 236.811 281.982C236.811 280.653 237.571 279.378 238.923 278.438C240.275 277.498 242.109 276.97 244.021 276.97C245.933 276.97 247.767 277.498 249.119 278.438C250.472 279.378 251.231 280.653 251.231 281.982Z" fill="#FFFF00" stroke="black" stroke-width="1.12717"/>
<path fill-rule="evenodd" clip-rule="evenodd" d="M279.931 281.984C279.931 283.314 279.172 284.589 277.819 285.529C276.467 286.469 274.633 286.997 272.721 286.997C270.809 286.997 268.975 286.469 267.623 285.529C266.271 284.589 265.511 283.314 265.511 281.984C265.511 280.655 266.271 279.38 267.623 278.44C268.975 277.5 270.809 276.972 272.721 276.972C274.633 276.972 276.467 277.5 277.819 278.44C279.172 279.38 279.931 280.655 279.931 281.984Z" fill="#FFFF00" stroke="black" stroke-width="1.12719"/>
<path fill-rule="evenodd" clip-rule="evenodd" d="M270.9 311C270.9 312.2 269.3 313.2 267.4 313.2C265.5 313.2 264 312.2 264 311C264 309.8 265.5 308.8 267.4 308.8C269.3 308.8 270.9 309.8 270.9 311ZM252.9 311C252.9 312.2 251.3 313.2 249.4 313.2C247.5 313.2 245.9 312.2 245.9 311C245.9 309.8 247.5 308.8 249.4 308.8C251.3 308.8 252.8 309.8 252.8 311H252.9Z" fill="black"/>
<path fill-rule="evenodd" clip-rule="evenodd" d="M258.392 239.871L254.13 234.493L247.136 235.381L248.12 228.698L242.492 224.677L248.12 220.605L247.136 213.922L254.13 214.861L258.392 209.483L262.654 214.861L269.594 213.922L268.665 220.605L274.238 224.677L268.665 228.75L269.594 235.381L262.6 234.493L258.392 239.871Z" fill="#FFFF00" stroke="black" stroke-width="0.712176"/>
<path fill-rule="evenodd" clip-rule="evenodd" d="M288.095 260.666L300.024 266.393L311.954 260.666L300.024 254.993L288.151 260.666H288.095Z" fill="#FFFF00" stroke="black" stroke-width="0.729978"/>
<path fill-rule="evenodd" clip-rule="evenodd" d="M202.795 260.666L214.724 266.393L226.654 260.666L214.724 254.993L202.851 260.666H202.795Z" fill="#FFFF00" stroke="black" stroke-width="0.729978"/>
<path fill-rule="evenodd" clip-rule="evenodd" d="M306.647 294.654C302.995 292.338 296.842 293.492 293.394 295.384C289.946 297.277 286.497 299.169 286.034 306.027C282.073 299.437 285.192 293.343 290.438 290.465C293.219 289.158 296.404 288.867 299.395 289.647C302.385 290.427 304.974 292.224 306.675 294.7L306.647 294.654Z" fill="#FFFF00" stroke="black" stroke-width="0.730264"/>
<path fill-rule="evenodd" clip-rule="evenodd" d="M224.699 283.437C224.699 284.438 224.283 285.398 223.542 286.105C222.802 286.813 221.798 287.21 220.75 287.21C219.703 287.21 218.699 286.813 217.958 286.105C217.218 285.398 216.802 284.438 216.802 283.437C216.802 282.437 217.218 281.477 217.958 280.769C218.699 280.062 219.703 279.664 220.75 279.664C221.798 279.664 222.802 280.062 223.542 280.769C224.283 281.477 224.699 282.437 224.699 283.437Z" fill="#FFFF00" stroke="black" stroke-width="0.729978"/>
<path fill-rule="evenodd" clip-rule="evenodd" d="M220.699 296.737C220.699 297.738 220.283 298.698 219.542 299.405C218.802 300.113 217.798 300.51 216.75 300.51C215.703 300.51 214.699 300.113 213.958 299.405C213.218 298.698 212.802 297.738 212.802 296.737C212.802 295.737 213.218 294.777 213.958 294.069C214.699 293.362 215.703 292.964 216.75 292.964C217.798 292.964 218.802 293.362 219.542 294.069C220.283 294.777 220.699 295.737 220.699 296.737Z" fill="#FFFF00" stroke="black" stroke-width="0.729978"/>
<path fill-rule="evenodd" clip-rule="evenodd" d="M218.699 289.137C218.699 290.138 218.283 291.098 217.542 291.805C216.802 292.513 215.798 292.91 214.75 292.91C213.703 292.91 212.699 292.513 211.958 291.805C211.218 291.098 210.802 290.138 210.802 289.137C210.802 288.137 211.218 287.177 211.958 286.469C212.699 285.762 213.703 285.364 214.75 285.364C215.798 285.364 216.802 285.762 217.542 286.469C218.283 287.177 218.699 288.137 218.699 289.137Z" fill="#FFFF00" stroke="black" stroke-width="0.729978"/>
<path fill-rule="evenodd" clip-rule="evenodd" d="M228.599 296.737C228.599 297.738 228.183 298.698 227.443 299.405C226.702 300.113 225.698 300.51 224.651 300.51C223.603 300.51 222.599 300.113 221.859 299.405C221.118 298.698 220.702 297.738 220.702 296.737C220.702 295.737 221.118 294.777 221.859 294.069C222.599 293.362 223.603 292.964 224.651 292.964C225.698 292.964 226.702 293.362 227.443 294.069C228.183 294.777 228.599 295.737 228.599 296.737Z" fill="#FFFF00" stroke="black" stroke-width="0.729978"/>
<path fill-rule="evenodd" clip-rule="evenodd" d="M230.599 289.137C230.599 290.138 230.183 291.098 229.443 291.805C228.702 292.513 227.698 292.91 226.651 292.91C225.603 292.91 224.599 292.513 223.859 291.805C223.118 291.098 222.702 290.138 222.702 289.137C222.702 288.137 223.118 287.177 223.859 286.469C224.599 285.762 225.603 285.364 226.651 285.364C227.698 285.364 228.702 285.762 229.443 286.469C230.183 287.177 230.599 288.137 230.599 289.137Z" fill="#FFFF00" stroke="black" stroke-width="0.729978"/>
<path fill-rule="evenodd" clip-rule="evenodd" d="M224.699 291.037C224.699 292.038 224.283 292.998 223.542 293.705C222.802 294.413 221.798 294.81 220.75 294.81C219.703 294.81 218.699 294.413 217.958 293.705C217.218 292.998 216.802 292.038 216.802 291.037C216.802 290.037 217.218 289.077 217.958 288.369C218.699 287.662 219.703 287.264 220.75 287.264C221.798 287.264 222.802 287.662 223.542 288.369C224.283 289.077 224.699 290.037 224.699 291.037Z" fill="#FFFF00" stroke="black" stroke-width="0.729978"/>
<path fill-rule="evenodd" clip-rule="evenodd" d="M239.2 159C229.2 159 227.9 160.5 223.4 162C223.4 157.7 234.5 152.6 244.5 152.6C244.5 155.8 241.9 158.9 239.2 158.9V159Z" fill="#DA4500"/>
<path fill-rule="evenodd" clip-rule="evenodd" d="M254.5 148.8C254.5 150.9 252.7 152.6 250.5 152.6C248.3 152.6 246.5 150.9 246.5 148.8C246.5 146.7 248.3 145 250.5 145C252.7 145 254.5 146.7 254.5 148.8Z" fill="#CAC9C7"/>
<path fill-rule="evenodd" clip-rule="evenodd" d="M212.709 135.541V141.214H222.623V169.632H228.615V141.214H238.529V135.541H228.615V127.941H222.567V135.541H212.653H212.709Z" fill="#FFFF00" stroke="black" stroke-width="0.729978"/>
<path fill-rule="evenodd" clip-rule="evenodd" d="M244.5 152.6C236.436 152.155 228.36 153.241 220.7 155.8C220.7 149.9 227.5 143.1 239.2 143.1C241.9 143.1 244.5 149.4 244.5 152.6Z" fill="#DA4500"/>
<path fill-rule="evenodd" clip-rule="evenodd" d="M141.315 253.266C138.458 247.109 138.525 245.144 143.606 252.189L204.813 368.227L202.94 368.756L141.346 253.29L141.315 253.266Z" fill="#008500" stroke="black" stroke-width="0.268397"/>
<path fill-rule="evenodd" clip-rule="evenodd" d="M182.8 329.6C183.5 321 167.8 311.7 167.1 312.3C166.5 312.9 168.1 317.9 171.1 320.5C165.3 317.6 159.3 315.8 159.1 317.1C158.7 318.8 168.1 322.9 168.9 324.5C168.9 325.6 161.9 325.5 162.1 326.6C162.2 327.8 181.8 337.6 182.8 329.6ZM167.1 304.6C167.7 296 152 286.6 151.3 287.3C150.7 287.9 152.3 292.9 155.3 295.5C149.6 292.5 143.6 290.7 143.4 292C143 293.7 152.4 297.8 153.1 299.4C153.2 300.6 146.2 300.4 146.4 301.6C146.5 302.7 166.1 312.6 167.1 304.6ZM155.1 281.8C155.7 273.2 139.9 263.9 139.3 264.5C138.7 265.1 140.3 270.1 143.3 272.7C137.5 269.7 131.5 268 131.4 269.3C130.9 271 140.4 275.1 141.1 276.7C141.2 277.8 134.2 277.7 134.3 278.8C134.5 279.9 154 289.8 155 281.8H155.1ZM143.1 257.2C143.8 248.6 128.1 239.2 127.4 239.9C126.8 240.5 128.4 245.5 131.4 248.1C125.6 245.1 119.6 243.3 119.5 244.6C119 246.3 128.4 250.4 129.2 252C129.3 253.2 122.3 253 122.4 254.2C122.5 255.2 142.1 265.2 143.1 257.2Z" fill="#008F00"/>
<path fill-rule="evenodd" clip-rule="evenodd" d="M147.2 256C154.9 251.4 153.4 233.8 152.5 233.7C151.6 233.5 148.3 237.7 147.9 241.6C146.9 235.4 144.9 229.7 143.9 230.4C142.1 231.1 144.2 240.7 143.3 242.3C142.4 243 138.3 237.6 137.5 238.3C136.6 239.1 139.9 260 147.2 256ZM158.2 277.7C167.1 275.7 171.8 258.7 171.1 258.3C170.3 257.9 165.7 260.8 164 264.3C165.3 258.2 165.3 252.2 164 252.4C162.2 252.5 160.7 262.2 159.4 263.4C158.3 263.9 156.4 257.4 155.3 257.9C154.2 258.3 150 279.1 158.3 277.7H158.2ZM171.5 299.8C179.5 295.8 179.7 278.2 178.8 278C177.9 277.8 174.3 281.7 173.5 285.5C173.1 279.3 171.7 273.5 170.5 274C168.7 274.5 169.8 284.3 168.8 285.8C167.8 286.4 164.4 280.6 163.4 281.3C162.4 282 163.8 303.2 171.4 299.8H171.5ZM185.7 328.8C194.1 325.6 196.2 308 195.3 307.8C194.5 307.4 190.4 310.9 189.3 314.6C189.6 308.4 188.7 302.5 187.5 302.9C185.6 303.3 185.8 313.1 184.6 314.5C183.6 315.1 180.7 309 179.7 309.5C178.7 310.2 177.7 331.3 185.7 328.7V328.8Z" fill="#008F00"/>
<path fill-rule="evenodd" clip-rule="evenodd" d="M204.242 358.835C202.112 362.48 195.377 362.81 189.117 359.47C182.858 356.131 179.617 350.479 181.747 346.834C183.876 343.19 190.66 342.886 196.871 346.199C203.082 349.513 206.371 355.191 204.242 358.835Z" fill="#FF1900" stroke="black" stroke-width="0.73025"/>
<path fill-rule="evenodd" clip-rule="evenodd" d="M365.822 236.746L366.875 234.026L369.714 234.92L370.768 232.2L373.606 233.094L372.567 235.776L375.487 236.695L374.418 239.453L371.498 238.534L368.871 245.314L366.033 244.421L368.66 237.64L365.822 236.746ZM359.725 260.701L362.564 261.595L332.063 340.318L329.225 339.424L359.725 260.701Z" fill="#FFFF00" stroke="black" stroke-width="0.250748"/>
<path fill-rule="evenodd" clip-rule="evenodd" d="M328.285 337.624L334.043 339.437L325.627 361.158L319.869 359.345L328.285 337.624ZM362.141 246.247L370.778 248.967C376.495 250.767 363.53 263.447 363.53 263.447L357.812 261.646C357.812 261.646 356.383 244.433 362.141 246.247ZM370.079 246.426C369.634 247.575 368.02 248.098 366.439 247.6C364.858 247.102 363.916 245.774 364.347 244.663C364.777 243.552 366.405 242.99 367.987 243.489C369.568 243.987 370.509 245.315 370.064 246.464L370.079 246.426Z" fill="#FFFF00" stroke="black" stroke-width="0.250748"/>
<path fill-rule="evenodd" clip-rule="evenodd" d="M332.978 348.987C335.391 352.468 332.607 358.338 326.63 362.12C320.653 365.903 313.911 366.062 311.499 362.581C309.086 359.101 311.917 353.202 317.847 349.448C323.777 345.695 330.566 345.507 332.978 348.987Z" fill="#FF1900" stroke="black" stroke-width="0.730307"/>
</g>
<defs>
<clipPath id="clip0_103_7670">
<rect width="512" height="512" fill="white" transform="translate(0.5)"/>
</clipPath>
</defs>
</svg>
