<svg width="513" height="512" viewBox="0 0 513 512" fill="none" xmlns="http://www.w3.org/2000/svg">
<g clip-path="url(#clip0_103_7859)">
<path fill-rule="evenodd" clip-rule="evenodd" d="M0.5 0H512.4V512H0.5V0Z" fill="#3B5AA3"/>
<path fill-rule="evenodd" clip-rule="evenodd" d="M139.5 1.19995L134.2 89.2L111 33.0999L120 92.8L84.1 44.5999L107.6 99.6L60.6 63.0999L97.2 109L44 85.4L90.6 120.7L32.6 113L87.5 134.7L1.5 142.6L87.5 148.3L33 170.7L90.5 163L44.1 197.2L97.9 173.6L61.2 219.8L107.9 184.4L84.5 238.4L121.9 191.6L111.9 249.9L135.3 195.4L140.7 281.5L148.9 195.6L169.2 250.5L161.5 191.4L198.7 238.2L174.2 183.5L220.9 221.1L183.9 174.1L239.3 197.2L190.2 161.4L250 171.4L192.7 149.4L281.7 143.9L192.7 135.6L251.5 116L190.8 123.6L241 88.6L184.4 111.3L223.4 64L175.9 101.1L198.9 44.2999L161.9 92.6L169.9 32.2999L147.9 89.2L139.7 1.19995H139.5Z" fill="white"/>
<path fill-rule="evenodd" clip-rule="evenodd" d="M0.5 498.2L512.5 0V92.7L0.5 512V498.2Z" fill="#E2AE57"/>
<path fill-rule="evenodd" clip-rule="evenodd" d="M18.5 512L512.5 191.2L512.4 89.3L0.400024 512H18.4H18.5Z" fill="white"/>
</g>
<defs>
<clipPath id="clip0_103_7859">
<rect width="512" height="512" fill="white" transform="translate(0.5)"/>
</clipPath>
</defs>
</svg>
