<svg width="513" height="512" viewBox="0 0 513 512" fill="none" xmlns="http://www.w3.org/2000/svg">
<g clip-path="url(#clip0_103_7883)">
<path d="M0.5 0H512.5V512H0.5V0Z" fill="#DA2032"/>
<path d="M171.2 0H341.8V512H171.2V0Z" fill="#0066B3"/>
<path d="M85.8 231.6C105.13 231.6 120.8 215.93 120.8 196.6C120.8 177.27 105.13 161.6 85.8 161.6C66.47 161.6 50.8 177.27 50.8 196.6C50.8 215.93 66.47 231.6 85.8 231.6Z" fill="#FFD900"/>
<path d="M85.8 218.9C106.897 218.9 124 201.797 124 180.7C124 159.603 106.897 142.5 85.8 142.5C64.7027 142.5 47.6 159.603 47.6 180.7C47.6 201.797 64.7027 218.9 85.8 218.9Z" fill="#DA2032"/>
<path d="M85.8 212.5C99.8833 212.5 111.3 201.083 111.3 187C111.3 172.917 99.8833 161.5 85.8 161.5C71.7167 161.5 60.3 172.917 60.3 187C60.3 201.083 71.7167 212.5 85.8 212.5Z" fill="#FFD900"/>
<path d="M88.5 104.3C87.1925 104.86 86.0683 105.775 85.2551 106.941C84.4419 108.108 83.9724 109.48 83.9 110.9C83.7 113.1 84.7 115.5 84.8 117.6C84.8 121.3 81 122.5 81 127.7C81 129.5 82.7 131.5 82.7 136.1C82.4 138.6 81 139.1 79.5 139.3C78.6513 139.3 77.8374 138.963 77.2372 138.363C76.6371 137.763 76.3 136.949 76.3 136.1C76.3064 135.278 76.6287 134.491 77.2 133.9C77.2932 133.794 77.3935 133.693 77.5 133.6C78.2 132.9 79.2 132.6 79.2 130.6C79.2 129.6 78.6 128.8 78 127C77.7231 125.943 77.6872 124.837 77.8949 123.764C78.1026 122.69 78.5486 121.678 79.2 120.8C77 121.6 75.6 123.8 74.9 125.7C74.2 128 74.8 129.4 73.8 131.4C73.2 132.6 72.4 133.1 71.8 134.2C70.9 135.4 70 138 70 139.3C70.4392 143.21 72.3034 146.82 75.2364 149.442C78.1695 152.064 81.9658 153.514 85.9 153.514C89.8342 153.514 93.6305 152.064 96.5635 149.442C99.4966 146.82 101.361 143.21 101.8 139.3C101.8 138 100.8 135.3 100 134.2C99.3 133.2 98.5 132.6 98 131.4C97 129.4 97.6 128 96.8 125.7C96.1 123.7 94.8 121.7 92.5 120.7C93.1834 121.581 93.656 122.607 93.8813 123.699C94.1067 124.791 94.0789 125.92 93.8 127C93.1 128.8 92.5 129.7 92.5 130.7C92.5 132.6 93.5 132.9 94.2 133.7C94.3037 133.761 94.4038 133.828 94.5 133.9C95.1081 134.474 95.467 135.264 95.5 136.1C95.5002 136.529 95.4142 136.953 95.2472 137.348C95.0802 137.743 94.8355 138.1 94.5276 138.399C94.2198 138.697 93.8552 138.931 93.4553 139.086C93.0555 139.241 92.6285 139.313 92.2 139.3C90.5 139.1 89.2 138.3 89 136.1C89 130 91.7 129.6 91.7 125.1C91.7 118.6 85.9 115.5 85.9 110.8C85.9 109.2 86.2 106.5 88.5 104.3ZM15.8 237.9H47.7V390.7H15.8V237.9ZM124 237.9H155.8V390.7H124V237.9ZM54 237.9H117.7L85.8 257L54 237.9ZM54 263.4H117.7V276H54V263.4ZM54 352.4H117.7V365.2H54V352.4ZM54 371.6H117.7L85.8 390.6L54 371.6Z" fill="#FFD900"/>
<path d="M85.8 346.1C103.363 346.1 117.6 331.863 117.6 314.3C117.6 296.737 103.363 282.5 85.8 282.5C68.2373 282.5 54 296.737 54 314.3C54 331.863 68.2373 346.1 85.8 346.1Z" fill="#FFD900"/>
<path d="M85.772 303.78C89.2865 303.78 92.1356 300.931 92.1356 297.417C92.1356 293.902 89.2865 291.053 85.772 291.053C82.2575 291.053 79.4084 293.902 79.4084 297.417C79.4084 300.931 82.2575 303.78 85.772 303.78Z" fill="#DA2032"/>
<path d="M85.772 337.507C89.2865 337.507 92.1356 334.658 92.1356 331.144C92.1356 327.629 89.2865 324.78 85.772 324.78C82.2575 324.78 79.4084 327.629 79.4084 331.144C79.4084 334.658 82.2575 337.507 85.772 337.507Z" fill="#DA2032"/>
<path d="M85.772 278.644C90.7508 278.644 95.5257 280.622 99.0463 284.143C102.567 287.663 104.545 292.438 104.545 297.417C104.545 302.396 102.567 307.171 99.0463 310.691C95.5257 314.212 90.7508 316.19 85.772 316.19C81.8058 316.19 78.0021 317.765 75.1976 320.57C72.3931 323.374 70.8175 327.178 70.8175 331.144C70.8175 335.11 72.3931 338.914 75.1976 341.718C78.0021 344.523 81.8058 346.098 85.772 346.098V349.917C80.7932 349.917 76.0183 347.939 72.4978 344.418C68.9772 340.898 66.9994 336.123 66.9994 331.144C66.9994 326.165 68.9772 321.39 72.4978 317.87C76.0183 314.349 80.7932 312.371 85.772 312.371C89.7382 312.371 93.5419 310.796 96.3464 307.991C99.1509 305.187 100.726 301.383 100.726 297.417C100.726 293.451 99.1509 289.647 96.3464 286.843C93.5419 284.038 89.7382 282.462 85.772 282.462V278.644Z" fill="#DA2032"/>
</g>
<defs>
<clipPath id="clip0_103_7883">
<rect width="512" height="512" fill="white" transform="translate(0.5)"/>
</clipPath>
</defs>
</svg>
