<svg width="513" height="512" viewBox="0 0 513 512" fill="none" xmlns="http://www.w3.org/2000/svg">
<g clip-path="url(#clip0_103_7895)">
<path d="M0.5 0H512.5V512H0.5V0Z" fill="#00785E"/>
<path d="M273 147.4L256.5 96.5L240 147.5L283.3 116H229.7L273 147.4Z" fill="#FBD116"/>
<path d="M256.5 353.7H147.2C145.841 352.325 144.507 350.925 143.2 349.5H256.5C256.916 349.653 257.279 349.924 257.545 350.278C257.812 350.633 257.969 351.058 258 351.5C258 352.5 257.4 353.4 256.5 353.7ZM256.5 320.3C257.1 319 258.4 316 257.8 312.3C257.594 310.871 257.155 309.486 256.5 308.2C246.658 317.535 234.778 324.451 221.8 328.4C213.693 330.852 205.27 332.099 196.8 332.1H129.4C131.4 335.039 133.501 337.907 135.7 340.7H200.7C221.13 340.727 240.905 333.498 256.5 320.3ZM139.6 294C136.3 295.258 132.826 296 129.3 296.2C137.399 305.407 147.368 312.783 158.542 317.835C169.715 322.887 181.837 325.5 194.1 325.5C205.758 325.511 217.298 323.16 228.023 318.588C238.748 314.016 248.435 307.319 256.5 298.9C259.506 278.064 261.11 257.051 261.3 236C261.557 211.846 259.952 187.708 256.5 163.8C249.5 170.1 236.3 183.8 230.1 204.7C227.722 212.684 226.509 220.969 226.5 229.3C226.474 246.429 231.557 263.176 241.1 277.4C229.386 262.258 223.052 243.644 223.1 224.5C223.051 211.711 225.853 199.071 231.3 187.5C227.598 183.584 224.859 178.859 223.3 173.7C215.932 186.687 212.072 201.369 212.1 216.3C212.093 234.816 218.054 252.84 229.1 267.7C219.076 257.135 206.894 248.852 193.383 243.417C179.872 237.981 165.348 235.52 150.8 236.2C153.728 238.929 156.164 242.143 158 245.7C171.706 245.708 185.268 248.495 197.866 253.892C210.465 259.289 221.838 267.184 231.3 277.1C213.02 261.809 189.933 253.452 166.1 253.5C152.3 253.5 139.1 256.2 127.1 261.3C133.759 278.854 145.942 293.769 161.814 303.797C177.686 313.826 196.387 318.424 215.1 316.9C210.018 317.823 204.865 318.291 199.7 318.3C177.268 318.329 155.708 309.611 139.6 294ZM256.5 388.7H199.9C217.912 395.852 237.12 399.517 256.5 399.5C257.349 397.862 257.794 396.045 257.8 394.2C257.823 392.288 257.376 390.4 256.5 388.7ZM256.5 362.5H156.6C159.321 364.83 162.123 367.065 165 369.2H256.5C257.367 368.316 257.867 367.137 257.9 365.9C257.9 363.9 256.7 362.8 256.5 362.5ZM256.5 375.9H174.7C179.666 379.026 184.808 381.864 190.1 384.4H256.5C257.337 383.052 257.755 381.486 257.7 379.9C257.661 378.484 257.247 377.104 256.5 375.9Z" fill="white"/>
<path d="M156.1 211.7L149.1 175.3L133.4 208.9L165.8 190.9L129 186.4L156.1 211.7ZM205.4 152.9L175.8 130.6L186.6 166L198.7 131L168.4 152.3L205.4 152.9Z" fill="#FBD116"/>
<path d="M256.5 353.7H365.8C367.159 352.325 368.493 350.925 369.8 349.5H256.5C256.084 349.653 255.721 349.924 255.455 350.278C255.188 350.633 255.031 351.058 255 351.5C255 352.5 255.6 353.4 256.5 353.7ZM256.5 320.3C255.9 319 254.6 316 255.2 312.3C255.406 310.871 255.845 309.486 256.5 308.2C266.342 317.535 278.222 324.451 291.2 328.4C299.307 330.852 307.73 332.099 316.2 332.1H383.6C381.6 335.039 379.499 337.907 377.3 340.7H312.3C291.87 340.727 272.095 333.498 256.5 320.3ZM373.4 294C376.7 295.258 380.174 296 383.7 296.2C375.601 305.407 365.632 312.783 354.458 317.835C343.285 322.887 331.163 325.5 318.9 325.5C307.242 325.511 295.702 323.16 284.977 318.588C274.252 314.016 264.565 307.319 256.5 298.9C253.494 278.064 251.89 257.051 251.7 236C251.443 211.846 253.048 187.708 256.5 163.8C263.5 170.1 276.7 183.8 282.9 204.7C285.278 212.684 286.491 220.969 286.5 229.3C286.526 246.429 281.443 263.176 271.9 277.4C283.614 262.258 289.948 243.644 289.9 224.5C289.949 211.711 287.147 199.071 281.7 187.5C285.402 183.584 288.141 178.859 289.7 173.7C297.068 186.687 300.928 201.369 300.9 216.3C300.907 234.816 294.946 252.84 283.9 267.7C293.924 257.135 306.106 248.852 319.617 243.417C333.128 237.981 347.652 235.52 362.2 236.2C359.272 238.929 356.836 242.143 355 245.7C341.294 245.708 327.732 248.495 315.134 253.892C302.535 259.289 291.162 267.184 281.7 277.1C299.98 261.809 323.067 253.452 346.9 253.5C360.7 253.5 373.9 256.2 385.9 261.3C379.241 278.854 367.058 293.769 351.186 303.797C335.314 313.826 316.613 318.424 297.9 316.9C302.982 317.823 308.135 318.291 313.3 318.3C335.732 318.329 357.292 309.611 373.4 294ZM256.5 388.7H313.1C295.088 395.852 275.88 399.517 256.5 399.5C255.651 397.862 255.206 396.045 255.2 394.2C255.177 392.288 255.624 390.4 256.5 388.7ZM256.5 362.5H356.4C353.679 364.83 350.877 367.065 348 369.2H256.5C255.633 368.316 255.133 367.137 255.1 365.9C255.1 363.9 256.3 362.8 256.5 362.5ZM256.5 375.9H338.3C333.334 379.026 328.192 381.864 322.9 384.4H256.5C255.663 383.052 255.245 381.486 255.3 379.9C255.339 378.484 255.753 377.104 256.5 375.9Z" fill="white"/>
<path d="M356.9 211.7L363.9 175.3L379.6 208.9L347.2 190.9L384 186.4L356.9 211.7ZM307.6 152.9L337.2 130.6L326.4 166L314.3 131L344.6 152.3L307.6 152.9Z" fill="#FBD116"/>
</g>
<defs>
<clipPath id="clip0_103_7895">
<rect width="512" height="512" fill="white" transform="translate(0.5)"/>
</clipPath>
</defs>
</svg>
