<svg width="513" height="512" viewBox="0 0 513 512" fill="none" xmlns="http://www.w3.org/2000/svg">
<g clip-path="url(#clip0_103_7904)">
<mask id="mask0_103_7904" style="mask-type:luminance" maskUnits="userSpaceOnUse" x="0" y="0" width="513" height="512">
<path d="M0.460815 0H512.382V511.922H0.460815V0Z" fill="white"/>
</mask>
<g mask="url(#mask0_103_7904)">
<path fill-rule="evenodd" clip-rule="evenodd" d="M-255.5 0H768.446V511.922H-255.5V0Z" fill="#0071BC"/>
<path fill-rule="evenodd" clip-rule="evenodd" d="M315.664 404.996C315.664 404.996 333.726 385.902 351.065 389.514C356.226 369.492 375.939 367.84 375.939 367.84C375.939 367.84 373.978 345.65 399.161 340.799C399.884 325.731 415.159 313.139 415.159 313.139C415.159 313.139 412.062 289.814 428.06 284.344C418.255 265.766 431.363 252.348 431.156 251.936C430.95 251.523 414.643 222.521 429.195 214.264C413.714 201.259 418.874 186.397 418.874 186.397C418.874 186.397 401.948 182.166 408.037 161.936C394.207 159.563 391.42 137.166 391.42 137.166C391.42 137.166 369.953 141.398 367.476 122.82C353.336 125.09 351.788 111.157 351.581 111.157C351.478 111.157 323.715 118.691 318.141 97.7398C307.407 103.21 302.66 93.3018 302.66 93.3018C302.66 93.3018 287.178 100.939 277.993 86.1803C259.621 97.6366 249.403 85.6643 249.403 85.6643C249.403 85.6643 225.252 101.662 217.305 89.2766C203.062 103.726 190.367 97.5334 190.367 97.5334C190.367 97.5334 179.633 116.524 162.191 111.673C158.269 129.425 138.246 129.735 138.246 129.735C138.246 129.735 140.31 145.423 116.366 149.551C113.269 167.923 100.781 171.122 100.781 171.122C100.781 171.122 102.019 188.977 90.6664 194.654C94.7948 204.769 84.2673 217.051 84.2673 217.051C84.2673 217.051 95.414 231.19 80.2421 246.672C94.8979 250.491 84.3705 275.674 84.3705 275.674C84.3705 275.674 104.393 284.756 91.6984 301.476C106.148 306.018 101.607 317.577 101.813 324.286C111.102 328.414 119.152 326.35 115.23 344.928C143.51 348.024 130.093 363.712 130.093 363.712C130.093 363.712 143.303 364.228 138.143 374.652C162.191 374.136 165.7 392.714 165.7 392.714C165.7 392.714 188.097 386.831 191.09 395.501C193.98 404.17 181.285 462.587 181.285 462.587C181.285 462.587 162.397 462.587 148.258 447.518C115.334 446.693 122.661 425.019 122.145 425.019C121.629 425.019 111.205 428.941 105.838 410.879C83.7513 415.42 84.4738 396.842 84.2673 396.636C84.0609 396.533 74.3592 392.198 78.0747 383.012C55.3685 385.076 57.0199 362.886 57.0199 362.886C52.0658 360.822 50.208 356.178 50.9305 351.533C48.0406 350.501 27.8115 350.191 38.2357 323.667C19.0386 312.004 31.011 298.586 31.011 298.586C31.011 298.586 4.3828 284.86 24.8184 269.068C9.74972 246.672 26.2633 235.319 26.2633 235.319C26.2633 235.319 5.10526 213.851 26.5729 198.576C23.0638 165.858 42.5705 158.118 42.5705 158.118C42.5705 158.118 32.2495 131.593 60.1162 120.446C61.8708 93.6114 81.2742 92.7858 81.2742 92.7858C81.2742 92.7858 81.7903 71.4213 112.237 73.5887C118.223 54.4948 139.072 58.3136 139.072 58.3136C139.072 58.3136 145.471 35.1946 173.75 46.3413C188.2 18.1649 209.564 32.6143 209.564 32.6143C209.564 32.6143 223.085 23.7383 229.897 26.4217C238.463 11.7659 256.731 25.9057 268.6 28.7956C272.935 27.1442 288.21 15.5847 299.976 30.1373C315.664 19.8163 328.978 38.3941 328.978 38.3941C328.978 38.3941 350.549 27.3506 360.561 52.4306C406.283 48.3022 399.677 78.1299 399.677 78.1299C399.677 78.1299 435.594 69.8731 427.75 105.687C460.468 107.958 457.165 129.425 457.165 129.425C457.165 129.425 477.807 145.113 468.725 159.15C487.096 159.975 480.387 177.728 480.387 177.728C480.387 177.728 494.424 183.094 482.761 204.975C509.699 226.546 487.922 247.807 487.922 247.704C487.612 247.498 502.268 265.043 489.057 285.169C493.082 317.164 476.878 325.318 476.878 325.318C476.878 325.318 481.007 345.96 463.048 351.843C462.635 376.097 439.723 379.09 439.723 379.09C439.723 379.09 445.915 389.618 423.106 400.764C422.177 417.072 398.439 418.31 398.439 418.31C398.439 418.31 396.168 448.241 365.927 440.191C358.703 464.135 323.302 457.014 322.579 456.704C321.857 456.395 315.767 405.306 315.767 405.099L315.664 404.996Z" fill="white" stroke="black" stroke-width="1.96099"/>
<path fill-rule="evenodd" clip-rule="evenodd" d="M96.343 118.485C96.343 118.485 103.98 125.091 102.536 134.999C101.091 144.907 95.4141 158.634 96.5494 168.852C97.2719 172.98 96.9622 180.308 96.9622 180.308C96.9622 180.308 90.1503 170.606 90.0471 160.182C89.9439 149.758 97.4783 139.85 97.4783 132.109C97.4783 124.368 96.1365 118.382 96.343 118.485ZM92.5242 121.478C92.5242 121.478 82.616 130.974 81.3775 140.159C80.3454 144.907 80.0358 166.994 79.9326 176.902L78.178 196.099C77.8684 200.434 85.4027 188.668 85.9187 179.173C85.5041 167.918 85.7453 156.649 86.6412 145.423C87.5701 141.295 87.3637 136.857 88.7054 132.831L92.5242 121.478Z" fill="#217900" stroke="black" stroke-width="1.96099" stroke-linejoin="round"/>
<path fill-rule="evenodd" clip-rule="evenodd" d="M311.02 90.5151C311.02 90.5151 323.921 84.5289 327.533 73.4854C331.146 62.442 316.387 62.3388 314.426 65.8479C312.465 69.357 316.077 78.1299 315.148 80.4005C314.219 82.7743 308.956 88.3477 311.02 90.5151Z" fill="#FFD200" stroke="#EF8A10" stroke-width="1.96099"/>
<path fill-rule="evenodd" clip-rule="evenodd" d="M196.869 94.5402C196.869 94.5402 205.229 83.0839 203.062 71.6276C200.998 60.1713 187.89 67.2928 187.89 71.3179C187.89 75.3431 195.321 81.2261 195.631 83.7031C195.941 86.1802 194.083 93.6113 196.869 94.5402ZM174.266 101.352C174.266 101.352 182.626 89.8957 180.459 78.4394C178.395 66.9831 165.287 74.1046 165.287 78.1298C165.287 82.155 172.718 88.038 173.028 90.515C173.338 92.992 171.48 100.423 174.266 101.352ZM149.186 109.093C149.186 109.093 157.546 97.6365 155.379 86.1802C153.315 74.7239 140.207 81.8454 140.207 85.8706C140.207 89.8957 147.638 95.7787 147.948 98.2558C148.258 100.733 146.4 108.164 149.186 109.093ZM131.641 126.639C131.641 126.639 139.898 115.285 137.833 103.829C135.563 92.3728 122.558 99.4943 122.558 103.519C122.558 107.545 129.989 113.428 130.299 115.905C130.609 118.382 128.751 125.813 131.538 126.742L131.641 126.639ZM113.063 143.771C113.063 143.771 121.32 132.315 119.256 120.859C116.985 109.402 103.98 116.524 103.98 120.549C103.98 124.574 111.412 130.457 111.721 132.934C112.031 135.411 110.173 142.842 112.96 143.771H113.063Z" fill="#FFD200" stroke="#EF8A10" stroke-width="2.68346"/>
<path fill-rule="evenodd" clip-rule="evenodd" d="M155.689 44.5866C155.689 44.5866 144.542 53.3595 143.613 64.919C142.581 76.5817 157.03 73.1758 158.062 69.357C159.095 65.435 153.624 57.7975 153.934 55.3205C154.347 52.8434 158.062 46.238 155.689 44.5866ZM192.844 33.1303C192.844 33.1303 181.698 41.9032 180.665 53.4627C179.633 65.1254 194.083 61.7195 195.218 57.9007C196.25 53.9787 190.78 46.3412 191.09 43.8642C191.503 41.3871 195.218 34.7817 192.844 33.1303ZM54.4396 133.347C54.4396 133.347 56.7102 147.384 66.412 153.783C76.1137 160.182 80.1389 146.042 77.249 143.152C74.3591 140.262 64.9671 141.604 63.0061 140.056C60.9419 138.611 57.0199 132.005 54.4396 133.347ZM35.8618 180.824C35.8618 180.824 35.9651 195.067 44.5315 202.911C53.0979 210.858 59.2905 197.441 56.9167 194.138C54.5429 190.835 45.0475 190.629 43.2929 188.874C41.5384 187.016 38.6485 179.998 35.8618 180.824ZM78.694 233.874C78.694 233.874 73.5335 220.663 62.7996 216.328C52.0658 211.89 50.9305 226.649 54.3364 228.713C57.6392 230.984 66.7216 227.991 68.889 229.023C71.1596 230.055 76.3201 235.732 78.694 233.874ZM69.7147 210.961C69.7147 210.961 78.3844 199.608 76.4234 188.255C74.4624 176.695 61.3547 183.611 61.2515 187.636C61.2515 191.661 68.4762 197.647 68.7858 200.124C68.9922 202.601 67.0313 210.032 69.8179 210.961H69.7147ZM337.441 101.971C337.441 101.971 350.239 95.9852 353.955 84.9417C357.671 73.8983 342.808 73.7951 340.847 77.3042C338.886 80.8133 342.499 89.5862 341.57 91.8568C340.641 94.2306 335.377 99.804 337.441 101.971ZM376.352 121.375C376.352 121.375 383.886 109.403 380.996 98.0494C378.106 86.7995 365.515 94.7467 365.824 98.7719C366.134 102.9 373.875 108.164 374.391 110.641C374.907 113.118 373.462 120.652 376.352 121.375ZM482.658 231.706C482.658 231.706 477.497 218.495 466.764 214.057C455.927 209.619 454.894 224.378 458.197 226.649C461.603 228.713 470.582 225.72 472.853 226.855C475.124 227.888 480.284 233.564 482.658 231.706ZM430.64 239.963C430.64 239.963 430.95 225.72 439.619 217.979C448.289 210.135 454.275 223.656 451.901 226.855C449.424 230.055 439.929 230.261 438.174 232.016C436.42 233.874 433.427 240.892 430.64 239.963ZM422.28 89.5862C422.28 89.5862 409.069 84.5289 398.542 89.5862C388.014 94.6435 398.335 105.481 402.257 104.345C406.179 103.313 409.792 94.6435 412.165 93.6114C414.436 92.6825 422.074 92.5793 422.28 89.5862ZM391.936 64.1965C391.936 64.1965 378.725 59.1392 368.198 64.1965C357.774 69.357 367.992 80.0909 371.914 78.9556C375.836 77.9235 379.551 69.2538 381.822 68.2217C384.092 67.2928 391.833 67.1896 391.936 64.1965ZM346.73 39.9422C346.73 39.9422 335.48 48.6118 334.345 60.2745C333.313 71.8341 347.762 68.6346 348.795 64.8158C349.93 60.8938 344.46 53.2563 344.873 50.7792C345.285 48.3022 349.104 41.6967 346.73 40.0454V39.9422ZM317.212 33.0271C317.212 33.0271 312.052 46.238 317.109 56.7654C322.166 67.2928 332.9 56.9718 331.868 53.1531C330.836 49.3343 322.063 45.5155 321.134 43.1417C320.205 40.8711 320.102 33.2335 317.212 33.0271ZM233.612 83.9096C233.612 83.9096 242.798 73.1758 241.456 61.5131C240.114 49.9535 226.594 56.1461 226.284 60.1713C226.078 64.1965 232.993 70.4923 233.199 73.0726C233.199 75.5496 230.929 82.7743 233.612 83.9096Z" fill="#FFD200" stroke="#EF8A10" stroke-width="1.96099"/>
<path fill-rule="evenodd" clip-rule="evenodd" d="M283.463 107.029C283.463 107.029 305.446 108.474 306.582 121.065C307.717 133.657 301.318 141.294 301.318 141.294C301.318 141.294 304.105 168.542 282.534 176.489C259.518 179.276 223.394 177.108 223.394 177.108C223.394 177.108 212.867 179.792 208.532 157.808C204.197 135.824 202.959 120.24 202.959 120.24C202.959 120.24 205.126 107.958 220.608 107.235C236.089 106.409 283.359 107.338 283.566 107.029H283.463Z" fill="#8C8A8C" stroke="black" stroke-width="1.96099"/>
<path d="M301.215 141.191C301.215 141.191 289.345 155.95 290.584 161.833" stroke="black" stroke-width="1.96099" stroke-linecap="round"/>
<path fill-rule="evenodd" clip-rule="evenodd" d="M285.32 175.767C288.21 178.244 290.997 180.927 291.616 190.01L292.855 208.174L308.233 346.476L321.753 446.486L322.682 461.968C322.682 461.968 319.483 473.321 310.297 474.353C303.795 488.08 267.981 492.105 264.472 491.899C261.272 491.796 249.816 487.048 242.901 487.667C235.986 488.286 224.014 492.828 218.647 492.105C213.28 491.383 201.101 487.151 199.037 478.378C183.968 473.631 181.491 462.174 181.491 462.174L197.798 346.476L213.589 200.124C213.589 200.124 215.447 180.617 223.291 177.728C231.445 177.005 273.554 178.553 285.32 175.663V175.767Z" fill="#8C8A8C" stroke="black" stroke-width="1.96099"/>
<path d="M202.34 375.994L199.14 478.275M301.834 389.515L310.813 473.837" stroke="black" stroke-width="1.96099"/>
<path d="M38.9581 322.738L38.5453 323.976M463.977 319.125L464.287 320.157" stroke="black" stroke-width="1.0321"/>
<path d="M27.5018 184.643C27.5018 184.643 34.3136 193.932 35.449 199.299C36.6875 204.666 38.9581 215.193 41.848 219.528C44.8411 223.759 61.4579 247.807 62.49 257.819C62.49 264.321 55.4717 275.571 44.9443 275.777C38.4421 275.571 21.5156 271.236 20.7932 256.787C20.0707 242.337 25.9536 241.924 26.6761 233.048C27.3986 224.275 27.5018 184.849 27.5018 184.54V184.643Z" stroke="#6B18B5" stroke-width="1.96099" stroke-linejoin="round"/>
<path d="M143.2 57.7977C143.2 57.7977 136.182 58.2105 130.815 61.1004C126.687 63.6806 119.668 67.293 114.714 74.208C102.226 83.9098 83.3385 88.451 77.4555 96.6046C73.8432 102.075 74.0496 115.389 83.0288 120.962C88.7054 124.265 105.425 129.322 113.476 117.35C121.733 105.274 116.779 101.868 120.7 94.0244C127.409 75.9626 143.097 57.9009 143.2 57.6944V57.7977ZM312.155 40.0455C312.155 40.0455 306.995 35.2979 301.112 33.5433C296.364 32.3048 288.52 32.8208 280.366 31.9952C264.575 29.8277 248.371 18.4746 238.463 19.8164C232.064 21.1581 222.672 30.5502 224.839 40.768C226.388 47.167 233.509 60.0683 247.855 57.488C262.098 55.011 261.995 51.8115 270.458 49.2312C290.997 37.6717 311.949 39.9423 312.155 39.9423V40.0455ZM479.768 202.911C481.007 200.227 478.736 195.273 477.291 189.287C475.743 184.643 473.575 177.418 468.105 171.019C461.603 156.57 462.738 136.65 456.339 129.013C451.798 124.162 438.794 121.169 431.259 128.496C426.718 133.244 417.842 148.21 427.544 159.047C437.246 169.781 441.477 165.755 448.186 171.432C464.183 182.166 471.924 200.95 479.768 202.911ZM474.195 329.653C476.259 326.556 480.284 320.88 479.768 316.029C479.458 312.107 481.523 300.548 481.832 295.387C483.277 279.699 493.185 266.798 490.399 253.071C488.851 246.775 479.458 237.589 469.344 240.273C463.048 242.234 449.115 249.871 452.314 264.011C455.514 278.254 460.055 277.945 463.151 286.305C471.821 303.437 466.248 323.77 474.195 329.653Z" stroke="#6B18B5" stroke-width="1.0321" stroke-linejoin="round"/>
<path d="M357.877 430.179C357.877 430.179 355.194 435.34 365.927 439.778M379.345 418C379.345 418 391.214 415.11 399.264 418M414.952 387.863C414.952 388.069 413.301 393.23 422.796 400.661M421.764 374.446C421.764 374.446 428.782 379.606 440.548 379.4M351.065 389.514C351.065 389.514 351.478 403.138 344.46 409.537M374.597 368.46C374.597 368.46 386.053 371.349 395.549 366.602M448.495 348.54C448.495 348.54 450.972 352.049 463.771 351.43M398.748 340.49C399.058 340.696 413.714 345.444 423.003 341.109M427.957 284.343C427.957 284.343 428.576 283.621 433.117 299.515M439.31 239.654C439.31 239.654 438.69 248.117 431.879 251.832M482.761 205.078C482.761 205.078 472.853 213.129 474.711 216.431M433.427 199.298C433.427 199.298 438.587 207.968 430.227 213.954M408.553 162.246C408.553 162.246 417.429 161.833 421.351 169.471M391.833 137.063H398.645M427.131 106.1C427.131 106.409 428.989 108.061 425.48 111.57M363.863 107.029C363.863 107.029 368.611 114.46 367.785 123.542M391.214 81.8454C393.278 81.639 400.296 78.5427 400.296 78.5427M360.767 52.3274C360.56 52.3274 358.083 61.6163 362.625 64.919M349.311 94.6435C349.311 104.552 357.155 102.075 351.788 111.57M330.114 86.3867C325.545 89.5814 321.385 93.325 317.728 97.5333M298.428 81.2262C298.428 81.2262 303.589 86.3867 302.35 93.4049M283.359 77.0978C283.359 77.0978 280.676 84.9417 277.167 87.0059M255.906 75.0336C255.699 75.4464 251.571 84.3225 248.681 85.9738M218.44 75.24C218.647 75.24 222.569 83.4968 217.408 89.483M209.771 32.6143C209.977 32.8207 210.596 39.0133 206.674 44.3802M172.615 46.6508C172.615 46.8572 174.37 53.6691 163.326 55.9397M151.87 109.402C152.076 109.815 162.397 111.467 162.397 111.467M126.171 133.244C130.313 131.873 134.476 130.565 138.659 129.322M106.148 148.726C106.561 148.726 114.817 150.17 116.882 149.138M100.368 156.363C100.368 156.363 103.052 157.808 100.781 171.638M60.1162 120.033L65.1735 127.464M43.293 158.221C43.293 158.014 48.2471 165.652 54.8525 167.097M82.2031 197.028C82.4096 197.028 90.2535 195.273 91.492 194.448M78.694 224.998C78.9004 224.998 78.4876 219.837 84.8866 216.328M70.2308 237.796C70.2308 238.002 76.217 245.433 80.3454 246.465M66.7217 251.935C67.3409 251.729 73.7399 246.156 81.171 246.569M64.6575 271.133C64.6575 271.133 64.8638 277.532 83.8545 275.88M66.5152 293.736C66.5152 293.529 72.0886 280.938 83.4417 276.19M81.7903 309.836C81.7903 309.836 83.4417 304.469 92.937 300.754M92.3177 330.994C92.3177 330.994 99.1296 325.421 101.607 324.595M100.781 347.508C100.781 347.508 104.909 351.843 115.23 344.412M51.0337 350.914C52.2722 350.707 67.2377 347.198 72.3982 355.042M56.9167 363.299C56.9167 363.299 72.811 361.235 74.8752 362.886M113.682 366.602C113.682 366.602 111.618 370.937 131.228 363.712M137.937 374.446C134.427 380.329 138.762 385.076 134.221 387.863M78.4876 382.703C79.0036 382.186 85.7123 379.916 84.6802 370.524M84.3705 396.842C85.1962 396.636 96.1365 391.888 98.4071 394.365M105.735 410.776C105.735 410.776 107.18 401.074 110.276 400.042M122.145 425.432C122.145 425.432 131.228 425.225 135.15 422.335M139.691 392.611C139.898 392.817 148.154 397.152 165.7 392.817M146.297 432.037C146.297 432.037 148.774 444.525 148.567 447.518" stroke="black" stroke-width="1.96099"/>
<path fill-rule="evenodd" clip-rule="evenodd" d="M462.864 238.594C462.373 234.662 460.355 230.921 457.819 229.241C454.878 227.413 451.825 227.794 449.805 230.243C447.786 232.692 446.535 236.642 447.027 240.574C447.543 244.702 449.536 248.246 452.096 250.123C455.038 251.951 458.091 251.57 460.11 249.121C462.13 246.672 463.571 242.699 462.889 238.791L462.864 238.594Z" fill="#DE2010" stroke="black" stroke-width="2.60249"/>
<path fill-rule="evenodd" clip-rule="evenodd" d="M461.109 217.642C460.618 213.711 458.6 209.969 456.065 208.29C453.123 206.461 450.07 206.843 448.051 209.291C446.031 211.74 444.781 215.69 445.272 219.622C445.788 223.75 447.782 227.295 450.342 229.171C453.283 231 456.336 230.618 458.356 228.169C460.375 225.721 461.816 221.747 461.134 217.839L461.109 217.642Z" fill="#DE2010" stroke="black" stroke-width="2.60249"/>
<path fill-rule="evenodd" clip-rule="evenodd" d="M456.795 195.37C455.96 191.496 453.621 187.947 450.948 186.497C447.857 184.934 444.849 185.582 443.053 188.199C441.256 190.815 440.358 194.86 441.193 198.733C442.07 202.8 444.367 206.156 447.082 207.8C450.173 209.363 453.181 208.715 454.977 206.098C456.773 203.481 457.86 199.396 456.837 195.563L456.795 195.37Z" fill="#DE2010" stroke="black" stroke-width="2.60249"/>
<path fill-rule="evenodd" clip-rule="evenodd" d="M449.077 172.026C447.282 168.493 444.115 165.658 441.161 164.937C437.773 164.213 435.03 165.607 433.96 168.595C432.89 171.583 433.053 175.723 434.848 179.256C436.732 182.965 439.809 185.624 442.853 186.522C446.241 187.245 448.983 185.851 450.053 182.863C451.124 179.875 451.133 175.648 449.166 172.203L449.077 172.026Z" fill="#DE2010" stroke="black" stroke-width="2.60249"/>
<path fill-rule="evenodd" clip-rule="evenodd" d="M440.82 153.242C439.025 149.709 435.859 146.873 432.904 146.152C429.517 145.429 426.774 146.823 425.704 149.811C424.634 152.799 424.796 156.939 426.591 160.472C428.475 164.181 431.552 166.84 434.596 167.738C437.984 168.461 440.727 167.067 441.797 164.079C442.867 161.091 442.876 156.864 440.91 153.418L440.82 153.242Z" fill="#DE2010" stroke="black" stroke-width="2.60249"/>
<path fill-rule="evenodd" clip-rule="evenodd" d="M429.104 134.422C427.016 131.054 423.621 128.497 420.616 128.029C417.18 127.595 414.565 129.216 413.751 132.284C412.938 135.352 413.451 139.463 415.538 142.831C417.73 146.367 421.021 148.756 424.13 149.393C427.567 149.827 430.182 148.206 430.995 145.138C431.808 142.07 431.459 137.857 429.208 134.591L429.104 134.422Z" fill="#DE2010" stroke="black" stroke-width="2.60249"/>
<path fill-rule="evenodd" clip-rule="evenodd" d="M415.984 116.241C413.581 113.091 409.954 110.873 406.918 110.698C403.455 110.598 401.009 112.464 400.497 115.597C399.984 118.729 400.891 122.772 403.295 125.922C405.818 129.23 409.325 131.289 412.481 131.622C415.943 131.722 418.39 129.856 418.902 126.724C419.415 123.591 418.661 119.432 416.104 116.398L415.984 116.241Z" fill="#DE2010" stroke="black" stroke-width="2.60249"/>
<path fill-rule="evenodd" clip-rule="evenodd" d="M400.383 99.4023C397.548 96.6336 393.639 94.9656 390.609 95.2321C387.169 95.6353 385.019 97.8364 384.966 101.01C384.913 104.184 386.397 108.052 389.231 110.82C392.208 113.728 395.976 115.257 399.147 115.129C402.587 114.726 404.737 112.525 404.79 109.351C404.843 106.178 403.494 102.172 400.525 99.5407L400.383 99.4023Z" fill="#DE2010" stroke="black" stroke-width="2.6025"/>
<path fill-rule="evenodd" clip-rule="evenodd" d="M382.795 83.7486C379.717 81.2524 375.671 79.951 372.679 80.4951C369.29 81.213 367.352 83.6025 367.591 86.7675C367.83 89.9325 369.663 93.6479 372.74 96.144C375.972 98.765 379.864 99.9415 383.011 99.5223C386.399 98.8044 388.337 96.4149 388.098 93.2499C387.859 90.0849 386.147 86.2202 382.949 83.8734L382.795 83.7486Z" fill="#DE2010" stroke="black" stroke-width="2.60249"/>
<path fill-rule="evenodd" clip-rule="evenodd" d="M364.128 71.3277C360.679 69.377 356.473 68.7654 353.612 69.7987C350.39 71.0692 348.875 73.7473 349.636 76.8287C350.398 79.9101 352.822 83.2696 356.271 85.2203C359.893 87.2684 363.927 87.7825 366.96 86.8467C370.182 85.5763 371.696 82.8982 370.935 79.8168C370.174 76.7353 367.844 73.2084 364.301 71.4252L364.128 71.3277Z" fill="#DE2010" stroke="black" stroke-width="2.60249"/>
<path fill-rule="evenodd" clip-rule="evenodd" d="M343.243 60.3536C339.631 58.725 335.386 58.4988 332.632 59.7882C329.538 61.3467 328.274 64.1515 329.312 67.1508C330.351 70.1502 333.071 73.2751 336.683 74.9037C340.476 76.6137 344.54 76.7584 347.475 75.5505C350.568 73.992 351.833 71.1872 350.795 68.1879C349.756 65.1885 347.115 61.8883 343.424 60.435L343.243 60.3536Z" fill="#DE2010" stroke="black" stroke-width="2.60249"/>
<path fill-rule="evenodd" clip-rule="evenodd" d="M322.824 52.0639C319.11 50.6811 314.86 50.74 312.198 52.2111C309.216 53.9734 308.143 56.8567 309.38 59.7797C310.617 62.7027 313.541 65.6382 317.254 67.021C321.153 68.4729 325.218 68.3448 328.065 66.9429C331.047 65.1805 332.121 62.2973 330.884 59.3743C329.647 56.4513 326.79 53.3356 323.009 52.133L322.824 52.0639Z" fill="#DE2010" stroke="black" stroke-width="2.60249"/>
<path fill-rule="evenodd" clip-rule="evenodd" d="M302.073 45.522C298.265 44.4266 294.032 44.8097 291.49 46.4797C288.651 48.4645 287.8 51.4213 289.257 54.2414C290.714 57.0614 293.853 59.7653 297.661 60.8606C301.659 62.0107 305.702 61.5729 308.435 59.9577C311.273 57.9729 312.124 55.0161 310.667 52.196C309.211 49.3759 306.124 46.4873 302.263 45.5767L302.073 45.522Z" fill="#DE2010" stroke="black" stroke-width="2.6025"/>
<path fill-rule="evenodd" clip-rule="evenodd" d="M279.14 41.6483C275.209 41.1525 271.085 42.183 268.83 44.2245C266.331 46.6227 265.946 49.6753 267.82 52.2374C269.693 54.7995 273.211 56.9876 277.143 57.4834C281.271 58.004 285.198 56.9488 287.649 54.9321C290.148 52.5338 290.533 49.4813 288.659 46.9191C286.786 44.357 283.292 41.9782 279.336 41.6731L279.14 41.6483Z" fill="#DE2010" stroke="black" stroke-width="2.60249"/>
<path fill-rule="evenodd" clip-rule="evenodd" d="M256.58 40.4306C252.621 40.2716 248.6 41.6498 246.527 43.876C244.242 46.4785 244.118 49.5528 246.203 51.9459C248.288 54.339 251.98 56.2193 255.939 56.3783C260.097 56.5453 263.92 55.1592 266.19 52.9409C268.475 50.3384 268.599 47.2641 266.514 44.871C264.429 42.4779 260.745 40.4054 256.778 40.4386L256.58 40.4306Z" fill="#DE2010" stroke="black" stroke-width="2.6025"/>
<path fill-rule="evenodd" clip-rule="evenodd" d="M235.835 41.05C231.875 40.891 227.854 42.2692 225.782 44.4954C223.497 47.0979 223.373 50.1721 225.458 52.5653C227.543 54.9584 231.235 56.8387 235.194 56.9977C239.351 57.1646 243.174 55.7786 245.445 53.5603C247.73 50.9578 247.854 47.8835 245.769 45.4904C243.684 43.0973 240 41.0248 236.033 41.058L235.835 41.05Z" fill="#DE2010" stroke="black" stroke-width="2.6025"/>
<path fill-rule="evenodd" clip-rule="evenodd" d="M211.663 44.0337C207.8 44.9167 204.28 47.2994 202.863 49.9904C201.338 53.1004 202.024 56.0998 204.663 57.8637C207.301 59.6275 211.357 60.4758 215.22 59.5929C219.276 58.6657 222.602 56.3272 224.213 53.5921C225.737 50.482 225.052 47.4827 222.413 45.7188C219.774 43.9549 215.676 42.9191 211.856 43.9896L211.663 44.0337Z" fill="#DE2010" stroke="black" stroke-width="2.60249"/>
<path fill-rule="evenodd" clip-rule="evenodd" d="M189.574 49.5214C185.797 50.72 182.486 53.3849 181.296 56.1836C180.033 59.4089 180.963 62.3414 183.739 63.8816C186.514 65.4219 190.625 65.9328 194.402 64.7342C198.368 63.4757 201.491 60.8707 202.87 58.012C204.133 54.7868 203.202 51.8542 200.427 50.314C197.651 48.7738 193.482 48.0796 189.763 49.4615L189.574 49.5214Z" fill="#DE2010" stroke="black" stroke-width="2.6025"/>
<path fill-rule="evenodd" clip-rule="evenodd" d="M169.461 58.2227C165.854 59.8626 162.883 62.903 162.035 65.8235C161.165 69.1762 162.438 71.9771 165.377 73.1757C168.316 74.3744 172.459 74.392 176.066 72.752C179.854 71.0301 182.644 68.0718 183.673 65.0692C184.543 61.7165 183.269 58.9157 180.33 57.717C177.391 56.5183 173.169 56.3257 169.641 58.1407L169.461 58.2227Z" fill="#DE2010" stroke="black" stroke-width="2.60248"/>
<path fill-rule="evenodd" clip-rule="evenodd" d="M149.382 68.4991C145.928 70.4408 143.227 73.7235 142.631 76.7058C142.05 80.1205 143.558 82.8025 146.589 83.7461C149.619 84.6896 153.748 84.3537 157.202 82.412C160.829 80.3733 163.357 77.1877 164.126 74.1083C164.706 70.6936 163.199 68.0116 160.168 67.068C157.138 66.1244 152.914 66.2927 149.554 68.402L149.382 68.4991Z" fill="#DE2010" stroke="black" stroke-width="2.60248"/>
<path fill-rule="evenodd" clip-rule="evenodd" d="M130.418 81.3572C127.195 83.6627 124.867 87.2194 124.599 90.2489C124.393 93.7064 126.183 96.2087 129.298 96.8174C132.413 97.4261 136.481 96.6435 139.704 94.338C143.088 91.9172 145.254 88.4758 145.684 85.331C145.89 81.8735 144.1 79.3712 140.985 78.7625C137.87 78.1538 133.689 78.7801 130.579 81.242L130.418 81.3572Z" fill="#DE2010" stroke="black" stroke-width="2.60249"/>
<path fill-rule="evenodd" clip-rule="evenodd" d="M112.813 94.6503C109.797 97.2202 107.779 100.961 107.767 104.002C107.854 107.465 109.85 109.807 113.005 110.15C116.161 110.493 120.148 109.368 123.164 106.799C126.331 104.1 128.199 100.488 128.361 97.3179C128.274 93.8554 126.278 91.5135 123.123 91.1706C119.967 90.8277 115.855 91.8055 112.964 94.5218L112.813 94.6503Z" fill="#DE2010" stroke="black" stroke-width="2.60248"/>
<path fill-rule="evenodd" clip-rule="evenodd" d="M97.3144 110.889C94.4904 113.669 92.7456 117.545 92.9523 120.579C93.2875 124.027 95.4458 126.219 98.6177 126.335C101.79 126.451 105.686 125.044 108.51 122.264C111.476 119.346 113.079 115.609 113.014 112.435C112.678 108.988 110.52 106.795 107.348 106.679C104.176 106.564 100.145 107.834 97.4556 110.75L97.3144 110.889Z" fill="#DE2010" stroke="black" stroke-width="2.60249"/>
<path fill-rule="evenodd" clip-rule="evenodd" d="M84.0085 128.935C81.4271 131.941 80.0128 135.95 80.4728 138.956C81.0955 142.364 83.4297 144.368 86.6001 144.218C89.7706 144.068 93.5359 142.339 96.1173 139.333C98.8278 136.176 100.113 132.318 99.7821 129.162C99.1595 125.754 96.8252 123.75 93.6548 123.9C90.4843 124.05 86.5731 125.653 84.1376 128.785L84.0085 128.935Z" fill="#DE2010" stroke="black" stroke-width="2.60249"/>
<path fill-rule="evenodd" clip-rule="evenodd" d="M71.8438 147.328C69.5976 150.593 68.6189 154.729 69.3968 157.669C70.3793 160.991 72.9139 162.735 76.0503 162.247C79.1867 161.76 82.7463 159.64 84.9924 156.376C87.3508 152.948 88.2173 148.975 87.5516 145.872C86.5692 142.55 84.0345 140.806 80.8981 141.293C77.7618 141.781 74.0438 143.792 71.9561 147.165L71.8438 147.328Z" fill="#DE2010" stroke="black" stroke-width="2.60249"/>
<path fill-rule="evenodd" clip-rule="evenodd" d="M61.6553 168.268C60.0033 171.869 59.7496 176.112 61.021 178.875C62.5595 181.978 65.356 183.261 68.362 182.242C71.368 181.223 74.5105 178.523 76.1625 174.922C77.897 171.14 78.0681 167.077 76.8793 164.134C75.3409 161.031 72.5443 159.748 69.5383 160.767C66.5323 161.786 63.2151 164.406 61.7379 168.088L61.6553 168.268Z" fill="#DE2010" stroke="black" stroke-width="2.60249"/>
<path fill-rule="evenodd" clip-rule="evenodd" d="M53.5172 190.16C52.1986 193.896 52.3306 198.145 53.8473 200.781C55.6607 203.732 58.562 204.756 61.4632 203.469C64.3645 202.182 67.2492 199.208 68.5679 195.471C69.9525 191.548 69.7545 187.486 68.3038 184.663C66.4904 181.712 63.5891 180.688 60.6878 181.975C57.7866 183.263 54.7205 186.172 53.5832 189.973L53.5172 190.16Z" fill="#DE2010" stroke="black" stroke-width="2.60247"/>
<path fill-rule="evenodd" clip-rule="evenodd" d="M46.609 231.444C46.243 234.607 47.4088 237.884 49.5235 239.636C52.0028 241.575 55.0664 241.803 57.5653 240.234C60.0643 238.666 62.1352 235.789 62.5012 232.626C62.8855 229.305 61.7014 226.187 59.605 224.276C57.1257 222.337 54.0621 222.109 51.5632 223.678C49.0642 225.247 46.8018 228.109 46.6273 231.286L46.609 231.444Z" fill="#DE2010" stroke="black" stroke-width="2.33111"/>
<path fill-rule="evenodd" clip-rule="evenodd" d="M48.4288 212.181C47.5482 216.044 48.1675 220.249 49.977 222.694C52.1174 225.417 55.1172 226.101 57.8513 224.489C60.5855 222.877 63.1095 219.591 63.9901 215.728C64.9147 211.671 64.2514 207.659 62.4859 205.022C60.3455 202.298 57.3457 201.615 54.6115 203.227C51.8774 204.839 49.1659 208.082 48.4728 211.988L48.4288 212.181Z" fill="#DE2010" stroke="black" stroke-width="2.60249"/>
<path fill-rule="evenodd" clip-rule="evenodd" d="M446.328 202.292C448.805 199.505 451.179 198.679 454.172 199.711C453.14 192.487 450.869 190.113 447.979 190.939C445.296 191.764 444.057 195.48 446.225 202.292H446.328ZM450.147 223.966C452.933 221.386 455.307 220.869 458.197 221.902C457.681 214.677 455.617 212.097 452.83 212.819C449.94 213.438 448.495 216.948 450.147 223.863V223.966ZM440.858 182.372C442.716 179.069 444.78 177.728 447.979 177.934C445.089 171.329 442.303 169.471 439.826 171.019C437.349 172.567 437.039 176.489 440.858 182.372ZM431.259 162.762C433.014 159.356 435.181 158.015 438.278 158.221C435.491 151.512 432.601 149.758 430.124 151.306C427.75 152.854 427.441 156.776 431.259 162.659V162.762ZM408.14 126.432C409.379 122.923 411.237 121.272 414.333 120.859C410.514 114.666 407.418 113.428 405.25 115.389C403.083 117.35 403.393 121.169 408.14 126.432ZM392.968 110.641C394.001 107.029 395.858 105.377 399.058 104.965C394.929 98.9785 391.833 97.74 389.769 99.8042C387.602 101.765 388.014 105.584 392.968 110.641ZM361.18 83.8066C361.18 80.091 362.212 77.8204 365.102 76.5819C359.425 72.0407 356.019 71.9375 354.678 74.5177C353.233 76.9947 354.987 80.5039 361.18 83.8066ZM377.693 96.1918C378.313 92.4762 379.758 90.5153 382.854 89.6896C378.003 84.3227 374.7 83.6002 372.946 85.8708C371.088 88.1414 372.12 91.857 377.797 96.1918H377.693ZM342.292 73.3824C341.879 69.6668 342.808 67.3962 345.389 65.7449C339.196 61.9261 335.997 62.0293 334.861 64.7128C333.726 67.3962 335.79 70.8021 342.292 73.3824ZM322.992 65.0224C321.96 61.41 322.579 59.0362 325.056 56.972C318.348 54.0821 315.148 54.8046 314.426 57.5913C313.703 60.3779 316.18 63.371 322.992 65.0224ZM302.247 58.6234C300.905 55.1142 301.318 52.6372 303.589 50.3666C296.674 48.0959 293.474 49.0248 292.958 51.9147C292.545 54.8046 295.229 57.5913 302.247 58.6234ZM281.811 54.7014C280.263 51.2955 280.47 48.8184 282.534 46.4446C275.515 44.5868 272.419 45.7221 272.11 48.612C271.8 51.5019 274.69 54.0821 281.811 54.5982V54.7014ZM260.137 53.05C258.279 49.7473 258.176 47.2703 260.137 44.7932C252.912 43.6579 249.816 45.1029 249.816 47.9927C249.919 50.8826 253.119 53.1532 260.137 53.05ZM217.821 56.1463C215.241 53.4629 214.518 51.089 215.757 48.1992C208.532 48.8184 205.952 50.9858 206.674 53.7725C207.397 56.6624 211.009 58.1073 217.821 56.1463ZM238.669 53.4629C236.399 50.3666 236.089 47.9927 237.637 45.2061C230.413 44.8964 227.523 46.651 227.936 49.5409C228.245 52.4308 231.651 54.3918 238.669 53.4629ZM197.385 60.6876C194.289 58.3137 193.36 56.0431 194.083 52.9468C187.064 54.7014 184.794 57.1784 185.929 59.8619C187.064 62.5453 190.883 63.4742 197.282 60.5844L197.385 60.6876ZM158.166 78.6461C154.863 76.8915 153.418 74.8273 153.521 71.731C146.916 74.8273 145.264 77.614 146.813 79.9878C148.464 82.4649 152.386 82.6713 158.166 78.6461ZM177.053 68.9444C173.957 66.8802 172.822 64.7128 173.338 61.6165C166.422 63.7839 164.358 66.4673 165.7 69.0476C166.939 71.6278 170.861 72.2471 177.053 69.0476V68.9444ZM123.074 103.004C119.462 102.178 117.604 100.423 117.088 97.3271C111.308 101.662 110.173 104.861 112.237 106.822C114.301 108.887 118.223 108.164 123.074 103.107V103.004ZM139.794 89.4832C136.285 88.2446 134.634 86.3869 134.324 83.2906C128.132 87.1093 126.893 90.2056 128.751 92.373C130.712 94.5404 134.531 94.2308 139.794 89.4832ZM108.109 117.659C104.496 117.04 102.536 115.492 101.71 112.499C96.2397 117.247 95.5172 120.549 97.7878 122.304C99.9552 124.162 103.774 123.233 108.109 117.659ZM94.7947 134.999C91.0792 134.689 89.015 133.347 87.8797 130.354C82.9256 135.721 82.5127 139.024 84.8866 140.675C87.2604 142.223 90.976 140.882 94.7947 134.999ZM83.6481 152.751C79.9325 153.061 77.6619 152.028 76.1137 149.242C71.9853 155.331 71.9853 158.634 74.6688 159.872C77.3523 161.111 80.7582 159.253 83.6481 152.751ZM73.8431 171.742C70.1276 172.464 67.7537 171.742 65.8959 169.264C62.6964 175.664 63.1093 178.966 65.8959 179.895C68.6826 180.721 71.7789 178.45 73.8431 171.638V171.742ZM65.9992 191.145C62.49 192.487 60.013 192.177 57.7424 189.906C55.6782 196.822 56.6071 200.021 59.3937 200.434C62.2836 200.847 65.0703 198.06 65.9992 191.145ZM60.7354 212.819C57.3295 214.264 54.8525 214.161 52.4786 212.097C50.7241 219.115 51.9626 222.211 54.8525 222.418C57.7424 222.727 60.3226 219.734 60.7354 212.716V212.819ZM58.6712 230.778C55.3685 232.429 52.8915 232.635 50.4144 231.397C49.3823 237.073 50.9305 239.344 53.8204 239.138C56.7103 238.931 58.9809 236.351 58.568 230.778H58.6712ZM422.693 145.113C423.931 141.604 425.789 139.953 428.885 139.643C425.17 133.451 422.074 132.109 419.906 133.967C417.739 135.928 418.048 139.746 422.693 145.113ZM452.521 245.846C455.307 243.369 457.681 242.75 460.571 243.989C460.055 236.764 457.991 234.08 455.204 234.7C452.314 235.422 450.869 239.034 452.521 245.846Z" fill="#FFE300"/>
<path fill-rule="evenodd" clip-rule="evenodd" d="M424.138 127.98C424.034 127.98 415.881 136.031 417.326 145.939C418.668 155.847 424.963 168.026 423.828 178.244C422.693 188.565 420.732 195.273 420.732 195.273C420.732 195.273 430.33 184.436 430.433 174.012C430.537 163.691 423.931 149.861 423.931 142.223C423.931 134.586 424.241 127.774 424.138 127.877V127.98ZM439.103 161.008C439.103 161.008 432.704 165.755 433.323 176.489C433.943 187.223 445.089 207.039 445.089 207.039C445.089 207.039 453.243 223.759 452.933 228.094C452.727 232.429 454.481 223.966 453.656 214.367C452.83 204.872 440.548 183.817 440.548 183.817C440.548 183.817 437.968 179.482 438.174 172.361C438.484 165.136 439.206 161.111 439.103 161.008Z" fill="#217900" stroke="black" stroke-width="1.96099" stroke-linejoin="round"/>
<path fill-rule="evenodd" clip-rule="evenodd" d="M248.165 27.6604C248.165 25.3898 245.585 23.532 242.488 23.532C239.392 23.532 236.915 25.3898 236.915 27.6604C236.915 29.8278 239.392 31.6856 242.488 31.6856C245.585 31.6856 248.062 29.8278 248.062 27.5572L248.165 27.6604ZM250.539 36.9493C250.539 34.8851 247.855 33.1305 244.759 33.1305C241.559 33.1305 238.979 34.8851 238.979 37.0525C238.979 39.2199 241.559 40.8713 244.759 40.8713C247.855 40.8713 250.539 39.1167 250.539 36.9493ZM257.66 25.9058C257.66 25.9058 251.055 30.8599 253.738 32.8209C256.525 34.7819 264.059 28.4861 264.059 28.4861L257.66 25.9058ZM451.385 139.024C451.39 138.357 451.233 137.698 450.927 137.105C450.621 136.512 450.177 136.002 449.631 135.618C449.115 135.263 448.503 135.073 447.876 135.073C447.25 135.073 446.638 135.263 446.122 135.618C445.595 136.013 445.17 136.528 444.883 137.121C444.595 137.713 444.454 138.366 444.47 139.024C444.466 139.691 444.623 140.35 444.928 140.943C445.234 141.536 445.679 142.046 446.225 142.43C446.73 142.763 447.322 142.94 447.928 142.94C448.533 142.94 449.125 142.763 449.631 142.43C450.177 142.046 450.621 141.536 450.927 140.943C451.233 140.35 451.39 139.691 451.385 139.024ZM448.805 129.632C448.805 127.258 447.257 125.4 445.193 125.4C443.129 125.4 441.58 127.258 441.58 129.632C441.58 132.006 443.232 133.863 445.193 133.863C447.154 133.863 448.805 132.006 448.805 129.632ZM450.56 148.829C450.56 147.59 449.94 146.558 449.115 146.558C448.392 146.558 447.773 147.59 447.773 148.829C447.773 150.067 448.392 150.996 449.115 150.996C449.94 150.996 450.56 149.964 450.56 148.829ZM456.339 131.696C456.339 130.251 455.72 129.116 454.998 129.116C454.172 129.116 453.553 130.251 453.553 131.696C453.553 133.141 454.172 134.173 454.998 134.173C455.72 134.173 456.339 133.141 456.339 131.696ZM440.548 133.347C440.548 132.315 439.929 131.283 439.103 131.283C438.278 131.283 437.658 132.315 437.658 133.347C437.658 134.38 438.278 135.412 439.103 135.412C439.929 135.412 440.548 134.483 440.548 133.347ZM443.025 146.971C443.025 145.113 441.684 143.565 440.032 143.565C438.381 143.565 437.039 145.113 437.039 146.971C437.039 148.726 438.381 150.171 440.135 150.171C441.89 150.171 443.025 148.726 443.025 146.868V146.971ZM435.181 140.985C435.181 139.437 434.046 138.095 432.601 138.095C431.259 138.095 430.124 139.334 430.124 140.985C430.124 142.636 431.259 143.772 432.601 143.772C434.046 143.772 435.181 142.533 435.181 140.985ZM433.943 132.935C433.943 132.109 433.53 131.283 432.911 130.87C432.574 130.648 432.179 130.53 431.775 130.53C431.372 130.53 430.977 130.648 430.64 130.87C430.307 131.098 430.037 131.407 429.856 131.769C429.676 132.13 429.59 132.531 429.608 132.935C429.608 133.76 429.918 134.586 430.64 134.999C430.966 135.2 431.341 135.306 431.724 135.306C432.107 135.306 432.482 135.2 432.808 134.999C433.141 134.771 433.411 134.462 433.591 134.101C433.772 133.739 433.857 133.338 433.84 132.935H433.943ZM469.757 173.703C466.454 169.368 461.293 167.51 458.094 169.574C454.998 171.638 454.998 176.799 458.3 181.134C461.5 185.468 466.764 187.223 469.86 185.159C473.059 183.095 472.956 177.934 469.757 173.703ZM479.046 252.761C479.562 247.498 476.981 242.853 473.266 242.44C469.447 241.924 465.835 245.846 465.215 251.11C464.596 256.271 467.176 261.018 470.995 261.431C474.814 261.844 478.323 258.025 478.942 252.761H479.046ZM480.903 298.69C481.935 293.529 479.871 288.782 476.156 287.956C472.337 287.13 468.518 290.743 467.383 295.903C466.351 301.064 468.415 305.915 472.234 306.74C475.949 307.463 479.871 303.954 480.903 298.793V298.69ZM489.779 255.651C489.779 253.587 488.334 251.936 486.683 251.936C485.032 251.936 483.587 253.587 483.587 255.651C483.587 257.715 484.929 259.47 486.683 259.47C488.438 259.47 489.779 257.715 489.779 255.651ZM482.039 264.321L475.64 271.546C475.64 271.546 469.55 271.752 469.86 273.713C470.273 275.777 478.22 281.66 478.117 284.034C478.117 286.305 483.484 283.415 483.484 283.415L487.818 270.204C487.818 270.204 487.612 261.121 485.238 261.225C482.864 261.431 482.245 264.114 482.142 264.321H482.039ZM58.2584 261.431C58.2584 260.61 57.9322 259.822 57.3515 259.242C56.7708 258.661 55.9833 258.335 55.1621 258.335C54.3409 258.335 53.5534 258.661 52.9727 259.242C52.392 259.822 52.0658 260.61 52.0658 261.431C52.0658 262.252 52.392 263.04 52.9727 263.62C53.5534 264.201 54.3409 264.527 55.1621 264.527C55.9833 264.527 56.7708 264.201 57.3515 263.62C57.9322 263.04 58.2584 262.252 58.2584 261.431ZM61.1483 252.142C61.1483 250.284 59.7033 248.839 58.052 248.839C56.4006 248.839 54.9557 250.284 54.9557 252.039C54.9557 253.793 56.4006 255.342 58.052 255.342C59.7033 255.342 61.1483 253.897 61.1483 252.039V252.142ZM35.965 207.452C34.8297 204.872 32.3527 203.427 30.5981 204.356C28.7404 205.078 28.2243 207.865 29.3596 210.445C30.5981 213.026 32.972 214.47 34.7265 213.542C36.5843 212.819 37.1003 210.032 35.965 207.452ZM43.4994 235.319C41.9512 231.913 38.6485 230.055 36.2747 231.19C33.9009 232.326 32.972 235.732 34.5201 239.034C36.0683 242.337 39.4742 244.195 41.9512 243.163C44.4283 242.131 45.0475 238.622 43.4994 235.216V235.319ZM51.7562 255.651C52.169 251.523 50.5176 247.601 47.8342 247.085C45.1507 246.466 42.6737 249.459 42.1576 253.587C41.5384 257.715 43.293 261.637 45.9764 262.153C48.5567 262.67 51.1369 259.78 51.653 255.651H51.7562ZM38.6485 258.541C40.1967 254.722 39.6806 250.594 37.2036 249.252C34.7265 247.911 31.6302 250.181 29.9789 254C28.3275 257.819 28.9468 262.05 31.3206 263.289C33.6944 264.527 36.9971 262.463 38.5453 258.644L38.6485 258.541Z" fill="#6B18B5"/>
<path fill-rule="evenodd" clip-rule="evenodd" d="M32.6623 249.768C32.6623 247.807 31.1142 246.259 29.2564 246.259C27.3986 246.259 25.8505 247.911 25.8505 249.871C25.8505 251.832 27.3986 253.381 29.2564 253.381C31.1142 253.381 32.6623 251.832 32.6623 249.871V249.768ZM29.9789 240.995C30.0072 240.572 29.948 240.147 29.8051 239.747C29.6623 239.347 29.4387 238.981 29.1483 238.671C28.8579 238.362 28.5069 238.115 28.1172 237.947C27.7274 237.778 27.3071 237.692 26.8826 237.693C25.128 237.693 23.7863 239.138 23.7863 240.995C23.7863 242.853 25.128 244.195 26.8826 244.195C28.6371 244.195 29.9789 242.75 29.9789 240.995ZM32.8687 223.966C32.8687 220.869 31.527 218.496 29.7724 218.496C28.2243 218.496 26.8826 220.973 26.8826 223.966C26.8826 226.959 28.2243 229.436 29.8756 229.436C31.527 229.436 32.8687 226.959 32.8687 223.966ZM42.0544 222.624C42.364 219.631 41.4352 217.051 39.7838 216.844C38.1324 216.638 36.4811 218.908 36.0682 221.798C35.6554 224.895 36.6875 227.372 38.3389 227.681C39.9902 227.888 41.6416 225.617 42.0544 222.624ZM107.386 92.1666C108.625 88.0382 107.386 83.7034 104.6 82.6713C101.813 81.6392 98.6135 84.3227 97.375 88.5543C96.1365 92.6827 97.375 97.0175 100.162 98.0496C102.948 99.0817 106.148 96.3982 107.386 92.1666ZM95.0012 111.054C98.6135 107.958 100.162 103.623 98.4071 101.456C96.7557 99.2881 92.4209 100.011 88.7053 103.107C84.9898 106.203 83.5449 110.435 85.2994 112.705C86.9508 114.77 91.2856 114.15 95.0012 111.054ZM87.7765 100.527C91.2856 97.9464 92.937 94.2308 91.1824 92.2698C89.4278 90.3088 85.1962 91.1345 81.5839 93.7148C77.9715 96.3982 76.4234 100.114 78.0747 101.972C79.7261 103.829 84.1641 103.21 87.7765 100.527ZM115.643 82.1552C118.12 80.4007 119.152 77.8204 118.017 76.4787C116.778 75.137 113.889 75.653 111.515 77.5108C109.141 79.3686 108.006 81.8456 109.141 83.1873C110.379 84.5291 113.269 84.1162 115.643 82.1552Z" fill="#6B18B5"/>
<path fill-rule="evenodd" clip-rule="evenodd" d="M101.091 100.01C102.742 97.4302 102.845 94.6435 101.297 93.8179C99.8521 92.9922 97.1686 94.3339 95.6205 96.9142C94.0723 99.4944 93.7627 102.281 95.3108 103.107C96.859 103.932 99.4392 102.591 101.091 100.01ZM122.145 88.967C124.726 86.7996 125.758 83.8065 124.416 82.4648C122.971 81.123 119.772 81.7423 117.191 83.9097C114.611 86.0771 113.579 89.0702 114.921 90.5151C116.262 91.8569 119.462 91.2376 122.145 88.967ZM84.0609 114.666C86.4348 114.563 88.2926 113.325 88.1893 111.983C87.9829 110.538 85.8155 109.506 83.4417 109.712C80.9646 109.712 79.1069 111.054 79.3133 112.396C79.5197 113.737 81.5839 114.769 84.0609 114.666ZM129.989 75.4465C131.641 72.763 131.744 70.0795 130.196 69.2539C128.751 68.325 126.067 69.7699 124.519 72.3502C122.971 74.9304 122.765 77.6139 124.21 78.5428C125.758 79.3684 128.338 77.9235 129.989 75.4465Z" fill="#6B18B5"/>
<path fill-rule="evenodd" clip-rule="evenodd" d="M406.902 153.267C406.902 153.267 414.436 141.294 411.546 129.941C408.656 118.691 396.065 126.639 396.374 130.664C396.684 134.792 404.425 140.056 404.941 142.533C405.457 145.01 404.115 152.544 406.902 153.267Z" fill="#FFD200" stroke="#EF8A10" stroke-width="1.0321"/>
<path fill-rule="evenodd" clip-rule="evenodd" d="M262.305 53.566C262.305 53.566 289.552 54.5981 289.758 72.247C289.655 75.0336 289.758 78.2331 288.726 86.1803C291.406 84.4192 293.578 81.9873 295.027 79.1265C296.475 76.2656 297.15 73.0755 296.983 69.8731C297.19 51.9146 272.729 39.7358 262.305 53.566Z" fill="#217900" stroke="black" stroke-width="2.47704" stroke-linejoin="round"/>
<path fill-rule="evenodd" clip-rule="evenodd" d="M244.965 52.7403C244.965 52.7403 266.949 48.199 267.155 65.8479C267.362 83.3936 260.137 86.2835 260.137 86.2835C260.137 86.2835 277.064 82.6712 277.064 64.8158C277.167 46.8573 255.39 38.9101 244.965 52.7403Z" fill="#217900" stroke="black" stroke-width="2.47704" stroke-linejoin="round"/>
<path fill-rule="evenodd" clip-rule="evenodd" d="M319.689 433.791C319.689 433.791 422.59 404.789 453.553 278.46C435.491 408.092 322.889 449.17 322.889 449.17L319.586 433.791H319.689Z" fill="#F7DF73" stroke="black" stroke-width="2.68346" stroke-linejoin="round"/>
<path fill-rule="evenodd" clip-rule="evenodd" d="M330.217 441.739C333.416 441.739 341.26 432.966 345.801 432.037C350.343 431.005 350.859 426.464 345.595 426.257C340.435 426.154 335.893 432.14 335.893 432.14C335.893 432.14 331.455 436.062 326.708 436.475C322.063 436.991 325.056 442.874 330.217 441.635V441.739Z" fill="#8C1800"/>
<path fill-rule="evenodd" clip-rule="evenodd" d="M389.562 397.462C389.562 397.462 378.829 403.654 380.273 405.203C381.822 406.647 391.317 399.32 391.523 399.113C391.73 399.01 395.549 394.262 389.459 397.462H389.562Z" fill="#8C1800" stroke="#8C1800" stroke-width="2.68346"/>
<path fill-rule="evenodd" clip-rule="evenodd" d="M352.2 425.638C352.2 425.638 349.001 424.503 357.154 421.303C365.411 418.104 364.895 414.388 367.475 412.943C370.262 411.395 375.939 407.37 377.074 409.744C378.209 412.117 371.088 416.762 369.437 417.278C367.785 417.794 359.528 425.328 357.154 425.948C354.884 426.67 353.129 426.257 352.2 425.638Z" fill="#8C1800"/>
<path d="M405.457 381.774C398.439 389.618 398.438 389.411 398.438 389.411" stroke="#8C1800" stroke-width="3.19951" stroke-linecap="round"/>
<path d="M415.984 368.873L409.276 377.129" stroke="#8C1800" stroke-width="2.99309" stroke-linecap="round"/>
<path d="M426.512 352.153L418.977 364.125" stroke="#8C1800" stroke-width="2.68346" stroke-linecap="round"/>
<path d="M435.388 335.02L429.195 347.405M439.413 325.937L437.349 330.375" stroke="#8C1800" stroke-width="2.47704" stroke-linecap="round"/>
<path d="M443.954 314.068L442.303 319.229" stroke="#8C1800" stroke-width="1.44494" stroke-linecap="round"/>
<path fill-rule="evenodd" clip-rule="evenodd" d="M184.684 431.219C184.684 431.219 82.5997 401.57 51.9744 272.89C69.8391 404.999 181.543 446.749 181.543 446.749L184.684 431.219Z" fill="#F7DF73" stroke="black" stroke-width="2.65315" stroke-linejoin="round"/>
<path fill-rule="evenodd" clip-rule="evenodd" d="M174.266 439.159C171.17 439.159 163.326 430.282 158.785 429.25C154.347 428.218 153.934 423.574 158.991 423.471C164.152 423.264 168.693 429.457 168.693 429.457C168.693 429.457 173.131 433.379 177.776 433.895C182.42 434.411 179.427 440.294 174.266 439.055V439.159Z" fill="#8C1800"/>
<path fill-rule="evenodd" clip-rule="evenodd" d="M115.581 394.107C115.581 394.107 126.182 400.562 124.611 402.175C123.237 403.587 113.814 396.124 113.618 395.923C113.421 395.721 109.691 390.88 115.581 394.107Z" fill="#8C1800" stroke="#8C1800" stroke-width="2.65315"/>
<path fill-rule="evenodd" clip-rule="evenodd" d="M152.592 422.748C152.592 422.748 155.689 421.613 147.535 418.31C139.485 415.111 139.898 411.395 137.214 409.847C134.634 408.299 128.957 404.17 127.925 406.544C126.893 408.918 133.808 413.769 135.459 414.285C137.111 414.801 145.264 422.438 147.535 423.161C149.909 423.78 151.56 423.471 152.592 422.748Z" fill="#8C1800"/>
<path d="M99.8754 378.174L106.746 386.04" stroke="#8C1800" stroke-width="3.18378" stroke-linecap="round"/>
<path d="M89.2744 365.063L95.9491 373.333" stroke="#8C1800" stroke-width="2.98479" stroke-linecap="round"/>
<path d="M78.8696 347.92L86.3296 360.223" stroke="#8C1800" stroke-width="2.78581" stroke-linecap="round"/>
<path d="M70.0354 330.574L76.3175 343.281M66.1091 321.296L68.0723 325.733" stroke="#8C1800" stroke-width="2.58682" stroke-linecap="round"/>
<path d="M61.5938 309.195L63.3606 314.64" stroke="#8C1800" stroke-width="1.59189" stroke-linecap="round"/>
<path fill-rule="evenodd" clip-rule="evenodd" d="M458.61 255.135C459.126 263.082 466.867 270.617 463.771 284.55C459.952 300.135 446.225 337.497 448.702 343.999C444.573 338.425 445.296 333.265 444.986 325.421C444.573 317.68 456.236 288.885 457.268 279.08C457.268 270.307 458.094 258.438 458.61 255.135Z" fill="#217900" stroke="black" stroke-width="2.47704" stroke-linejoin="round"/>
<path fill-rule="evenodd" clip-rule="evenodd" d="M458.61 255.342C458.61 255.342 471.202 271.339 470.582 284.034C469.86 296.626 462.842 311.488 465.215 318.093C461.087 312.52 460.055 308.908 459.745 301.167C459.436 293.426 465.938 284.86 464.699 276.396C463.358 267.933 458.507 255.342 458.507 255.342H458.61ZM44.3251 258.851C43.809 266.798 37.9261 273.919 40.9192 287.749C44.8411 303.334 58.6713 323.254 56.4007 346.063C60.2534 340.261 62.2346 333.417 62.0772 326.453C62.3868 318.712 46.6989 292.6 45.6668 282.795C45.6668 274.023 44.8411 262.153 44.3251 258.851Z" fill="#217900" stroke="black" stroke-width="2.47704" stroke-linejoin="round"/>
<path fill-rule="evenodd" clip-rule="evenodd" d="M44.325 259.057C44.325 259.057 31.9398 274.539 32.6623 287.233C32.8687 295.593 48.3502 330.891 46.0796 337.497C50.1047 331.923 51.24 332.543 51.0336 324.079C46.4924 302.509 38.442 288.678 39.7837 280.318C41.1255 271.855 44.5314 259.057 44.325 259.057Z" fill="#217900" stroke="black" stroke-width="2.47704" stroke-linejoin="round"/>
<path d="M254.657 117.204L285.058 211.462H384.553L304.404 269.786L334.944 364.044L254.795 305.859L174.646 364.044L205.047 269.786L124.76 211.462H223.979L254.657 117.204Z" fill="white" stroke="black" stroke-width="2.07297" stroke-linecap="square" stroke-linejoin="round"/>
</g>
</g>
<defs>
<clipPath id="clip0_103_7904">
<rect width="512" height="512" fill="white" transform="translate(0.5)"/>
</clipPath>
</defs>
</svg>
