<svg width="513" height="512" viewBox="0 0 513 512" fill="none" xmlns="http://www.w3.org/2000/svg">
<g clip-path="url(#clip0_103_7988)">
<path d="M0.5 0H512.5V512H0.5V0Z" fill="#CD2A3E"/>
<path d="M0.5 76.8H512.5V435.2H0.5V76.8Z" fill="#006233"/>
<path d="M416.5 164.9C416.5 207.335 399.643 248.031 369.637 278.037C339.631 308.043 298.935 324.9 256.5 324.9C214.065 324.9 173.369 308.043 143.363 278.037C113.357 248.031 96.5 207.335 96.5 164.9C92.9227 178.546 91.1079 192.593 91.1 206.7C91.069 230.214 96.0521 253.465 105.717 274.901C115.382 296.337 129.506 315.466 147.148 331.012C164.79 346.558 185.544 358.164 208.026 365.055C230.508 371.947 254.2 373.965 277.524 370.976C300.847 367.987 323.266 360.06 343.283 347.722C363.301 335.384 380.458 318.92 393.609 299.428C406.761 279.936 415.606 257.863 419.553 234.683C423.5 211.502 422.459 187.746 416.5 165V164.9Z" fill="#FFC400"/>
<path d="M256.5 100L242.1 144.3H195.6L233.2 171.6L218.9 215.8L256.5 188.5L294.1 215.8L279.7 171.6L317.4 144.3H270.9L256.5 100Z" fill="#FFC400"/>
</g>
<defs>
<clipPath id="clip0_103_7988">
<rect width="512" height="512" fill="white" transform="translate(0.5)"/>
</clipPath>
</defs>
</svg>
