<svg width="513" height="512" viewBox="0 0 513 512" fill="none" xmlns="http://www.w3.org/2000/svg">
<g clip-path="url(#clip0_103_7993)">
<path d="M0.699951 0H512.7V512H0.699951V0Z" fill="#012169"/>
<path d="M282.1 127H487.5L487.2 273.3C488.9 332 452.2 368.5 384.9 385C337 373 281.8 348.5 281.7 275L282 127H282.1Z" fill="white"/>
<path d="M286.6 131.4H483L482.8 271.6C484.4 327.9 449.4 362.8 385 378.6C339.2 367.2 286.4 343.6 286.4 273.2L286.6 131.4Z" fill="#00A2BD" stroke="black" stroke-width="1.8"/>
<path d="M481.5 288.2C474.3 341.9 432.9 365.4 384.9 377.9C342.5 366.5 296.9 348.3 287.9 288.4L481.5 288.2Z" fill="#A53D08"/>
<path d="M377.2 157.5L376.9 139.9L390.9 140L391 157.5H429.2L429.3 171.2L391 171.4L390.7 332.8L377.1 332.9L376.9 171.2L338.9 171.4V157.4L377.2 157.5Z" fill="black"/>
<path fill-rule="evenodd" clip-rule="evenodd" d="M346.3 294.8L381.3 331.1C393.3 317.8 384.9 268.1 369 259C367.1 264.9 363.9 272 360.4 274.2C352.8 279.4 334.3 285.4 340.4 289.2C341.9 287.3 345.6 285.5 347.4 289.8C349.4 296.7 339.6 297.1 339.6 297.1C339.6 297.1 333.4 296.3 332.3 290.1C331.3 283.7 341.6 277.9 342.4 277.5C343.4 277.2 356.8 273.5 359.1 261.6C361.9 249.8 364.9 251.6 365.4 251.4C383.1 253.1 394.6 284.7 395.3 306.9C395.9 329.1 386.3 343.9 384.5 344.9C382.7 345.8 342.5 297 342.5 297L346.3 294.8Z" fill="#FF9A08" stroke="black" stroke-width="0.8"/>
<path d="M371.7 261L372 326.5L371.7 261ZM367.8 262.3L368 321.7L367.8 262.3ZM363.5 270.9L363.8 318.1L363.5 270.9ZM360.1 274.2L360.3 313.3L360.1 274.2ZM356.4 276V309V276ZM352.4 278.6V304.7V278.6ZM348.9 280.7V300.7V280.7Z" fill="#FF9A08"/>
<path d="M371.7 261L372 326.5M367.8 262.3L368 321.7M363.5 270.9L363.8 318.1M360.1 274.2L360.3 313.3M356.4 276V309M352.4 278.6V304.7M348.9 280.7V300.7" stroke="black" stroke-width="0.8"/>
<path d="M345.7 299L381.7 340.2" stroke="#FFDF00" stroke-linecap="round"/>
<path d="M383.5 273C383.5 273 399.8 308.7 384.7 338M341.5 291.4C341.5 291.4 342.7 288.3 344.2 289.6M338.6 282.3C338.6 282.3 332.1 288.1 335.6 291.8" stroke="#FFDF00" stroke-width="1.4" stroke-linecap="round"/>
<path d="M391.1 191.4C393.5 189.4 394.8 188.1 396.3 188.4C397.8 188.6 399.8 188.4 401.3 188C405.236 187.086 409.312 186.95 413.3 187.6C414.3 187.8 415.7 188.3 417.9 190.1C420 191.9 423.1 195.1 422.1 203.7C421.1 212.3 421.4 216 420.9 220.9C420.1 229.4 418.2 236.4 414.9 235.9C419.4 243.9 419.9 250.9 422.9 256.4C425.9 261.9 427.7 273.2 426.6 285.4C425.4 297.7 422.2 325.1 431.9 343.6C430.3 344.7 426.4 343.6 422.9 339.9C419.4 336.2 417.9 336.3 415 338.5C406.3 345.2 398 353.3 386 345.2C383.2 343.4 382.3 341.2 384.4 335.5C389.4 321.5 391.9 302.1 391.1 293.1V191.4Z" fill="#008021" stroke="black" stroke-width="0.3"/>
<path d="M399.5 182.8C400.1 184.8 400.4 187.3 399.4 189.6C398.4 191.9 398.1 194.6 399.8 198C402.6 194.1 406.5 195 408.8 192.6C411.1 190.3 411.6 188.1 413.3 187.6C411.6 186.1 408.9 184.6 409.5 180.1C410.1 175.8 416.2 172.1 410.7 165.5C409.388 163.912 407.52 162.883 405.477 162.623C403.433 162.363 401.368 162.891 399.7 164.1C398.716 164.777 397.896 165.665 397.3 166.7C397 167.5 397.4 169.2 396.6 170.2L394.6 172.2C394 172.5 393.6 173 394.2 173.7C394.4 173.9 394.9 174 395.3 174.1C395.081 174.624 394.813 175.126 394.5 175.6C394.2 175.9 394.3 176.2 394.6 176.6C394.2 177.9 395 178.1 394.5 179.1C394 180 393.3 181.1 395.1 182.1C395.7 182.4 398.1 183 399.4 182.8H399.5ZM377 205.7C373.8 206.6 368.6 205.2 364.6 205.7C362.9 205.8 361.6 204.9 361.8 203.2C362 201.5 362.2 198.8 361.8 196.4C361.3 192.6 363.1 187.4 365.7 181.6C367.677 178.003 368.966 174.069 369.5 170C369.5 168.2 369.7 166.2 371.3 165.2C372.5 164.4 372.7 163.7 373.1 163.1C374.1 161.6 375.1 161.3 375.1 162.1C375.2 162.6 375.1 163.1 374.6 163.8C375.6 162.9 377.4 161.9 377.8 161.6C378.2 161.4 380.2 159.9 380.3 161.3C381.1 160.9 381.7 160.9 381.9 161.3C382.1 161.8 381.9 162 381.6 162.3C382.1 162.3 382.8 163.3 381.6 164.1C382.3 163.9 382.9 164.9 381.8 165.9C380.7 166.8 379.4 167.5 379 168.2C378.6 169 375.9 171.1 374.8 171.5C373.7 172 373.6 172.6 373.6 174.2C373.6 192 371.5 190.6 371.5 194.8C371.5 196 371.3 197 372.5 196.7C373.5 196.3 375.3 195.8 377 195.8V205.8V205.7ZM377.7 244C382.9 241.4 388.9 240.5 392 239.7C395 238.9 400 236.4 402.5 235.2C404.9 233.9 406.9 232.2 408.2 231.7C409.6 231.2 411.2 230.3 412 228.6C416.5 219.8 419 212.8 419 206.6C419 202.6 418 198.1 414 201.4C410.3 204.4 406.3 210.3 405.2 214.5C403.6 221 402.2 222.4 401.9 223.6C401.5 224.9 400.2 224.9 398.7 225.2C393.683 226.005 388.999 228.226 385.2 231.6C380.63 234.962 375.854 238.035 370.9 240.8C367.2 242.8 366.5 243.1 365.7 244.8C365.106 246.132 364.332 247.377 363.4 248.5C363.103 248.838 362.887 249.238 362.765 249.67C362.644 250.103 362.622 250.558 362.7 251L362.4 256.4C362.4 257.5 362.6 257.8 363.1 257.9C363.5 257.9 364.1 257.7 364.4 256.3C364.2 257.7 366.1 257.3 366.2 256.3C366.2 257.7 368.2 256.8 368.2 255.5C368.2 256.5 369.8 255.8 369.9 255.3L371 251.9C371.7 250.6 372.4 248.9 373.8 247.9C375.3 246.9 374.6 245.6 377.7 244ZM415 338.5L416.3 342.1C416.5 343 416.1 343.2 415.9 343.7C414.556 346.487 413.614 349.449 413.1 352.5C413.1 353.7 412.1 355 411.8 355.7C411.3 356.5 411.5 357.2 412.5 358C413 358.3 414.5 357.8 414.8 357C415.3 357.6 416.4 357.4 416.8 356.5C417.4 357 418.2 356.7 418.8 355.8C419.3 356.2 420.1 355.5 420.4 355C421.2 355.4 422 355 422.1 353.3L422.5 352.1C422.7 351.7 422.8 351 422.8 350.4C422.8 349.7 423.2 348.4 423.7 347.6C424.2 346.6 425.2 345.1 424.7 343.6C424.4 342.2 423.8 342.3 423.3 340.3C422 339 420.3 337.1 418.5 337C416.7 336.9 415.7 338.1 415 338.5ZM382.2 348.4C383.8 350 387.5 350.1 390 347.4C389 347 387 346.1 386.2 345.4C384.9 346.6 383.4 348 382.2 348.4Z" fill="#FFE1CF" stroke="black" stroke-width="0.3"/>
<path d="M398.5 165C399.2 161 402.1 161 403.9 161.5C404.7 161.6 406.5 161.8 408.2 161.3C411.7 160.4 414.2 161.6 413.9 164.9C414.9 165.6 415.8 167.2 415.6 168.6C415.4 170 415.7 170.6 417 170.7C418.3 170.9 421 172.5 419.2 174.7C420.9 175.7 422.2 178.4 421.3 180.1C420.4 181.9 417.6 182.2 416.5 180.6C415.2 181.2 413.1 181.3 411.9 180C411 181 408.9 180.9 408.4 180C408 179 407.4 178.6 406.5 178.3C405.5 178 405.5 175.5 406.9 175.2C406.7 174.4 406.8 173.6 407.1 173.2C407.5 172.8 407.2 172 406.4 171.4C405.6 170.7 404.9 168.4 405.7 167C404.3 167.5 401.3 166.1 400.7 165.2C400 164.2 399.1 164.2 398.6 165H398.5Z" fill="#870F00" stroke="black" stroke-width="0.3"/>
<path d="M399.5 182.8C401.7 182.5 402.5 181.1 404.1 181.2M394.6 176.5L395.2 176.9C395.6 177.1 396.2 177.2 396.6 177.2M395.3 174.1L396.3 174.7M400.5 165C399.2 163.8 402.8 161.2 406.5 164.9C407.2 165.5 409 165.6 409.5 165.4M405.7 167C407.4 166.6 410 166.6 410.7 168.5C411.5 170.5 413 169.2 414.2 171.5C415.4 173.9 417.4 176.5 419.2 174.7M411.9 180C411.601 179.511 411.41 178.963 411.341 178.394C411.272 177.824 411.326 177.247 411.5 176.7C410.8 175.9 411.1 174.3 411.5 173.5M406.9 175.2C406.9 175.9 407.9 177.2 409.3 177.4M416.5 180.6C415.7 179.6 415.8 178.6 416 177.4" stroke="black" stroke-width="0.3"/>
<path d="M408.1 169.1C408.1 170.1 408.6 171.5 409.7 172.1C410 172.6 411.1 174.2 413.4 174M413.9 165C412.403 163.667 410.571 162.767 408.6 162.4M399.8 198C397.8 200.7 396.6 204.4 397.5 209.6C398.5 214.7 399.9 222.4 396.1 225.8M414.8 235.9C412.2 235.3 408.4 235.3 406.3 236.8C405.124 237.527 403.783 237.946 402.402 238.015C401.02 238.085 399.644 237.805 398.4 237.2" stroke="black" stroke-width="0.3"/>
<path d="M409.2 235.7C406.9 236.1 405.8 237.7 405.8 242C405.8 246.2 404.9 252.5 405.7 258.6M405 237.5C403.5 237.9 402 237.9 402.2 242M397.2 242C397.2 239.6 398.2 237.3 399.8 237.7M413.8 242.5C414 237.1 412.8 235.5 411.1 235.5C413.3 235.6 414.8 235.9 415.7 244.9C416.4 251.5 417.8 253.9 419.4 259.2C423.6 272.8 421.5 293.8 423.6 301.2M410.7 244.2C416.375 260.174 416.198 277.644 410.2 293.5C415 306.9 419.9 316.6 420.8 322.1M396.8 274.1C397.6 271.3 394.8 270.9 397.3 260.8C398.3 256.4 398.6 253.8 397.9 252.3" stroke="black" stroke-width="0.3"/>
<path d="M397.9 258.3C396.9 262.8 401.2 271.3 399 277.3M393.5 278.5C393.5 282.5 394.5 287.5 394.3 291.5C394.1 295.4 395.7 297.2 397.5 300.9C404.2 314.3 408.8 323.9 408.1 336.4C408.1 338.7 408.8 343.6 406.4 345M393.8 348.4C394.5 348.4 395.2 348.1 396.1 346C396.9 344 399.7 331.5 398.6 323M399.9 332.6C400.44 336.778 399.995 341.025 398.6 345" stroke="black" stroke-width="0.3"/>
<path d="M404.3 324.7C405.3 330.3 405.3 335.4 404.4 339M402 339C402.1 341.3 403.2 347 401.4 347.5M410.7 312.2C414.9 318.9 418.3 335.4 421.8 338.9M414.4 336.2C414.2 334.4 414.1 331.8 413.1 330.7M368.3 255.5C368.3 254.2 368.1 253 369.5 251M366.2 256.2C366.4 251.8 366.3 251.4 367.6 250.2M364.5 256.3C364.5 253.2 364.1 252.1 365.3 250M380.3 161.2L375.7 164.6M381.5 162.2C381 162.3 379.5 163.6 376.6 165.8M381.7 164C380.7 164.4 379.1 166 377.5 167.2M374.5 163.7L372.9 165.3M414.8 357C414.5 356.7 414.5 355.7 415 354.6M416.8 356.5C416.5 356.2 416.8 354.8 417.2 353.9M418.8 355.8C418.4 355.6 418.3 354.8 418.8 353.8M420.4 355C420.1 355 420 354.5 420.4 353.2" stroke="black" stroke-width="0.3"/>
<path d="M397.7 168.7C398.5 169.7 399.4 169.7 399.5 170.4L399.9 171.4H399.3L397.9 171.3C397.5 171.3 397 170.8 397.3 170.7C397.6 170.7 397.6 170.6 397.5 170.4L397.8 169.8C398 169.7 397.8 169.8 397.8 169.4C397.6 169.1 397.5 168.4 397.7 168.7ZM398.2 167.7C399.464 167.828 400.654 168.353 401.6 169.2C402.3 170 401.7 169.8 401.4 169.8C401 169.8 400.4 169.6 400 169.2C399.7 168.8 398.6 168.2 398 168.1C397.8 168 397.5 167.6 398.2 167.7Z" fill="black"/>
<path d="M0.699951 0H256.7V256H0.699951V0Z" fill="#012169"/>
<path d="M256.7 0V32L161.7 128L256.7 221.5V256H223.2L127.7 162L34.7 256H0.699951V222L93.7 128.5L0.699951 37V0H31.7L127.7 94L220.7 0H256.7Z" fill="white"/>
<path d="M92.7 162L98.2 179L21.7 256H0.699951V254.5L92.7 162ZM154.7 156L181.7 160L256.7 233.5V256L154.7 156ZM256.7 0L160.7 98L158.7 76L233.7 0H256.7ZM0.699951 0.5L97.2 95L67.7 91L0.699951 24.5V0.5Z" fill="#C8102E"/>
<path d="M88.7 0V256H168.7V0H88.7ZM0.699951 88V168H256.7V88H0.699951Z" fill="white"/>
<path d="M0.699951 104V152H256.7V104H0.699951ZM104.7 0V256H152.7V0H104.7Z" fill="#C8102E"/>
</g>
<defs>
<clipPath id="clip0_103_7993">
<rect width="512" height="512" fill="white" transform="translate(0.5)"/>
</clipPath>
</defs>
</svg>
