<svg width="513" height="512" viewBox="0 0 513 512" fill="none" xmlns="http://www.w3.org/2000/svg">
<g clip-path="url(#clip0_103_8017)">
<path fill-rule="evenodd" clip-rule="evenodd" d="M256.5 0H512.5V512H256.5V0Z" fill="#CE0000"/>
<path fill-rule="evenodd" clip-rule="evenodd" d="M0.5 0H256.5V512H0.5V0Z" fill="white"/>
<path fill-rule="evenodd" clip-rule="evenodd" d="M105.294 108.106C105.294 108.911 104.384 109.576 103.264 109.576C102.109 109.576 101.198 108.876 101.198 108.106C101.198 107.301 102.109 106.636 103.229 106.636C104.349 106.636 105.329 107.301 105.329 108.106H105.294Z" fill="#F1EEEE"/>
<path fill-rule="evenodd" clip-rule="evenodd" d="M41.2 101.001V138.209H78.4453C78.6579 141.429 80.0307 144.462 82.3093 146.747C84.5879 149.032 87.6177 150.413 90.837 150.635V187.843H128.047V150.635C131.267 150.413 134.297 149.032 136.575 146.747C138.854 144.462 140.227 141.429 140.439 138.209H177.649V101.001H140.439C140.218 97.7873 138.842 94.7622 136.564 92.4845C134.286 90.2068 131.261 88.8305 128.047 88.6098V51.4016H90.837V88.6098C87.6233 88.8305 84.598 90.2068 82.3202 92.4845C80.0424 94.7622 78.666 97.7873 78.4453 101.001H41.2Z" fill="#CC0000"/>
<path fill-rule="evenodd" clip-rule="evenodd" d="M42.4602 102.261V136.984H79.6705C79.8912 140.198 81.2677 143.223 83.5455 145.5C85.8233 147.778 88.8485 149.154 92.0623 149.375V186.618H126.787V149.375C130.007 149.162 133.041 147.79 135.326 145.511C137.611 143.233 138.992 140.203 139.214 136.984H176.424V102.261H139.214C139 99.0356 137.623 95.9975 135.337 93.7118C133.051 91.4262 130.013 90.0484 126.787 89.8349V52.6267H92.0623V89.8349C88.8492 90.0647 85.8278 91.4496 83.5564 93.7337C81.285 96.0178 79.9171 99.0468 79.7055 102.261H42.4602Z" fill="#FFE600"/>
<path fill-rule="evenodd" clip-rule="evenodd" d="M43.6504 103.486V135.724H80.8607C81.0742 138.949 82.452 141.987 84.7379 144.273C87.0237 146.559 90.0619 147.936 93.2875 148.15V185.358H125.527V148.115C128.746 147.893 131.776 146.512 134.055 144.227C136.333 141.942 137.706 138.909 137.919 135.689H175.129V103.486H137.919C137.707 100.272 136.339 97.2428 134.068 94.9587C131.797 92.6746 128.775 91.2897 125.562 91.0599V53.8867H93.3225V91.0599C90.1025 91.2725 87.0688 92.6452 84.7838 94.9237C82.4988 97.2022 81.1174 100.232 80.8957 103.451H43.6504V103.486Z" fill="#707070"/>
<path fill-rule="evenodd" clip-rule="evenodd" d="M44.9104 104.711V134.464H82.1207C82.3333 137.683 83.7061 140.717 85.9847 143.002C88.2633 145.287 91.2931 146.668 94.5125 146.89V184.098H124.267V146.89C127.487 146.677 130.52 145.304 132.805 143.026C135.09 140.747 136.472 137.718 136.694 134.499H173.869V104.746H136.694C136.481 101.526 135.108 98.4928 132.829 96.2079C130.551 93.923 127.521 92.5417 124.302 92.32V55.1118H94.5475V92.32C91.3275 92.5326 88.2938 93.9053 86.0088 96.1838C83.7238 98.4623 82.3424 101.492 82.1207 104.711H44.9104Z" fill="#A0A0A0"/>
<path fill-rule="evenodd" clip-rule="evenodd" d="M94.8276 89.2399C97.0329 91.4451 95.2476 96.7305 90.907 101.106C86.5664 105.481 81.2456 107.231 79.0403 105.026C76.87 102.856 78.6553 97.5706 82.9959 93.1952C87.3365 88.8198 92.6572 87.0697 94.8276 89.2399Z" fill="#D0D0D0"/>
<path fill-rule="evenodd" clip-rule="evenodd" d="M92.2023 91.8651C94.4076 94.0703 93.8125 98.1657 90.9071 101.071C88.0017 103.976 83.8711 104.571 81.7008 102.401C79.4955 100.231 80.0906 96.1005 82.996 93.1953C85.9014 90.29 90.032 89.695 92.2023 91.8651Z" fill="#808080"/>
<path fill-rule="evenodd" clip-rule="evenodd" d="M81.2456 98.4456L82.1207 97.5705L85.6212 99.3207L83.871 95.8204L84.7461 94.9453L88.2466 101.946L81.2456 98.4456ZM86.4964 93.1951L87.3715 92.3201L92.6222 97.5705L91.7821 98.4456L86.4964 93.1951Z" fill="#D0D0D0"/>
<path fill-rule="evenodd" clip-rule="evenodd" d="M139.774 105.061C137.604 107.232 132.283 105.446 127.942 101.106C123.602 96.7656 121.817 91.4451 123.987 89.24C126.192 87.0698 131.478 88.8549 135.819 93.1953C140.159 97.5357 141.944 102.856 139.774 105.026V105.061Z" fill="#D0D0D0"/>
<path fill-rule="evenodd" clip-rule="evenodd" d="M137.149 102.401C134.978 104.571 130.848 104.011 127.942 101.106C125.037 98.2006 124.442 94.0703 126.612 91.9001C128.783 89.7299 132.913 90.2899 135.819 93.1952C138.724 96.1004 139.319 100.196 137.149 102.401Z" fill="#808080"/>
<path fill-rule="evenodd" clip-rule="evenodd" d="M130.568 91.4102L131.443 92.3202L129.693 95.8205L133.193 94.0704L134.068 94.9455L127.067 98.4458L130.568 91.4452V91.4102ZM135.819 96.6956L136.694 97.5707L131.443 102.821L130.568 101.981L135.819 96.6956Z" fill="#D0D0D0"/>
<path fill-rule="evenodd" clip-rule="evenodd" d="M123.987 149.97C121.817 147.8 123.602 142.479 127.942 138.139C132.283 133.799 137.604 132.013 139.774 134.184C141.944 136.354 140.194 141.674 135.819 146.015C131.443 150.355 126.192 152.14 123.987 149.97Z" fill="#D0D0D0"/>
<path fill-rule="evenodd" clip-rule="evenodd" d="M126.612 147.345C124.442 145.174 125.037 141.044 127.942 138.139C130.848 135.234 134.943 134.639 137.149 136.809C139.319 139.014 138.724 143.109 135.819 146.015C132.913 148.92 128.818 149.515 126.612 147.345Z" fill="#808080"/>
<path fill-rule="evenodd" clip-rule="evenodd" d="M137.604 140.764L136.729 141.639L133.228 139.889L134.978 143.389L134.068 144.264L130.568 137.264L137.569 140.764H137.604ZM132.353 146.014L131.443 146.889L126.192 141.639L127.067 140.764L132.353 146.014Z" fill="#D0D0D0"/>
<path fill-rule="evenodd" clip-rule="evenodd" d="M79.0753 134.183C81.2456 132.013 86.5313 133.763 90.9069 138.139C95.2826 142.514 97.0328 147.8 94.8625 149.97C92.6572 152.14 87.3714 150.39 82.9958 146.014C78.6202 141.639 76.8699 136.354 79.0753 134.183Z" fill="#D0D0D0"/>
<path fill-rule="evenodd" clip-rule="evenodd" d="M81.7005 136.809C83.8709 134.639 88.0014 135.234 90.9069 138.139C93.8123 141.044 94.4074 145.139 92.202 147.345C90.0317 149.515 85.9011 148.92 82.9957 146.015C80.0903 143.109 79.4952 139.014 81.7005 136.809Z" fill="#808080"/>
<path fill-rule="evenodd" clip-rule="evenodd" d="M88.2465 147.765L87.3714 146.89L89.1216 143.389L85.6211 145.139L84.746 144.264L91.747 140.764L88.2465 147.765ZM82.9957 142.514L82.1206 141.639L87.3714 136.389L88.2465 137.264L82.9957 142.514Z" fill="#D0D0D0"/>
<path d="M135.481 119.623C135.481 133.974 123.822 145.665 109.428 145.665C95.0333 145.665 83.4084 134.009 83.4084 119.623C83.4084 105.236 95.0675 93.5803 109.462 93.5803C123.856 93.5803 135.515 105.236 135.515 119.623H135.481Z" stroke="#707070" stroke-width="0.46126"/>
<path d="M129.276 119.617C129.276 130.551 120.393 139.459 109.426 139.459C98.4587 139.459 89.6016 130.578 89.6016 119.617C89.6016 108.656 98.4847 99.7754 109.452 99.7754C120.419 99.7754 129.302 108.656 129.302 119.617H129.276Z" stroke="#707070" stroke-width="0.351437"/>
<path fill-rule="evenodd" clip-rule="evenodd" d="M100.708 140.694C100.708 141.019 100.579 141.331 100.35 141.561C100.12 141.79 99.8082 141.919 99.4832 141.919C99.1583 141.919 98.8467 141.79 98.6169 141.561C98.3871 141.331 98.2581 141.019 98.2581 140.694C98.2581 140.369 98.3871 140.058 98.6169 139.828C98.8467 139.598 99.1583 139.469 99.4832 139.469C99.8082 139.469 100.12 139.598 100.35 139.828C100.579 140.058 100.708 140.369 100.708 140.694ZM120.591 140.694C120.591 141.024 120.46 141.34 120.227 141.573C119.994 141.806 119.678 141.937 119.349 141.937C119.019 141.937 118.703 141.806 118.47 141.573C118.237 141.34 118.106 141.024 118.106 140.694C118.106 140.369 118.235 140.058 118.465 139.828C118.695 139.598 119.006 139.469 119.331 139.469C119.656 139.469 119.968 139.598 120.197 139.828C120.427 140.058 120.556 140.369 120.556 140.694H120.591ZM108.585 140.694V141.989H106.939C105.294 141.989 105.294 143.285 106.939 143.285H108.585V144.58C108.585 145.91 110.055 146.085 110.16 144.685L110.265 143.285H111.91C113.555 143.285 113.555 141.989 111.91 141.989H110.265V140.694C110.265 139.399 108.585 139.399 108.585 140.694Z" fill="#D0D0D0"/>
<path fill-rule="evenodd" clip-rule="evenodd" d="M103.26 122.379V123.104C103.26 123.104 102.878 123.673 100.392 123.848C97.9062 124.024 97.5246 123.848 97.5246 123.848C97.594 124.48 98.0681 125.7 97.9293 127.149C98.0334 128.825 97.4668 130.356 97.4668 130.356C97.5246 130.439 97.2355 130.49 96.7036 130.439C97.1199 130.076 97.0621 129.011 97.1199 127.511C97.1662 126 95.5474 123.735 95.8827 123.114C96.218 122.493 103.26 122.379 103.26 122.379Z" fill="#D0D0D0" stroke="#707070" stroke-width="0.14583"/>
<path fill-rule="evenodd" clip-rule="evenodd" d="M113.069 119.717C115.486 119.603 119.533 119.624 119.533 119.624C119.533 119.624 120.492 121.537 120.446 122.593C120.4 123.648 120.076 124.558 119.637 124.103C119.197 123.648 119.833 123.741 119.914 122.593C119.995 121.455 119.151 120.275 119.151 120.275C119.151 120.275 117.417 121.031 114.815 120.875C112.213 120.72 113.37 119.758 113.081 119.717H113.069Z" fill="#D0D0D0" stroke="#707070" stroke-width="0.14583"/>
<path fill-rule="evenodd" clip-rule="evenodd" d="M113.914 121.612C116.331 121.488 117.915 121.86 117.915 121.86C117.915 121.86 118.863 123.774 118.829 124.829C118.794 125.884 118.459 126.795 118.008 126.34C117.557 125.884 118.216 125.978 118.297 124.829C118.378 123.691 117.522 122.501 117.522 122.501C117.522 122.501 115.788 123.257 113.197 123.112C110.596 122.957 111.336 122.801 111.047 122.76C110.758 122.719 110.677 123.484 106.745 123.588C102.814 123.691 100.802 122.76 100.802 122.76C100.802 122.76 100.409 123.319 97.9345 123.484C95.46 123.65 95.0669 123.484 95.0669 123.484C95.1247 124.126 95.6103 125.346 95.4716 126.795C95.5641 128.471 95.0091 130.002 95.0091 130.002C95.0669 130.085 94.7663 130.136 94.2459 130.085C94.6506 129.723 94.6044 128.657 94.6506 127.157C94.6969 125.647 93.0896 123.37 93.425 122.75C93.7603 122.129 95.541 122.708 95.8879 122.377C96.2232 122.057 94.2922 119.76 94.6506 117.618C95.0206 115.467 97.0557 116.067 99.5764 116.149C102.086 116.222 107.647 116.874 109 116.149C110.341 115.425 109.752 112.735 111.035 111.018C111.394 110.54 111.885 110.154 112.461 109.896C113.036 109.639 113.676 109.519 114.319 109.549C115.128 109.549 116.366 112.487 116.366 113.211L115.961 113.584H115.545V113.946C114.62 114.049 114.481 113.149 113.914 112.487C113.66 113.522 114.724 116.884 114.724 119.077C114.724 120.919 113.961 121.726 113.914 121.591V121.612Z" fill="#D0D0D0" stroke="#707070" stroke-width="0.14583"/>
<path fill-rule="evenodd" clip-rule="evenodd" d="M106.007 118.414C106.053 119.138 102.85 120.783 102.584 121.435C102.319 122.087 103.394 122.438 103.07 122.811C102.735 123.183 102.469 123.038 102.399 123.111C102.33 123.183 101.197 120.566 101.197 120.566C101.197 120.566 104.203 119.221 104.088 118.631C103.972 118.042 101.868 117.7 101.474 116.221C101.093 114.752 101.313 111.907 101 111.307C100.688 110.717 96.988 110.148 96.988 109.248C96.988 108.348 100.804 105.886 101.197 105.523C101.602 105.151 102.006 105.886 101.602 106.248C101.197 106.62 98.2253 108.886 98.2253 109.248C98.2253 109.62 100.688 109.982 101.509 109.982C102.319 109.982 102.735 109.62 102.735 109.258C102.735 108.937 101.925 108.886 101.925 108.151C101.925 107.417 102.33 107.055 103.151 107.055C103.556 107.055 104.342 107.52 104.377 108.151C104.411 108.772 103.648 108.834 103.556 109.248C103.463 109.662 104.365 109.982 105.198 109.982C106.007 109.982 108.817 112.114 109.222 112.486C109.626 112.848 110.031 112.848 109.626 113.21C109.222 113.583 109.464 114.017 109.048 113.645C108.701 113.293 108.643 112.92 108.643 112.92C108.609 112.579 105.602 111.079 105.198 111.451C104.781 111.814 105.198 116.21 105.198 116.583C105.198 117.307 106.042 117.307 106.007 118.414Z" fill="#D0D0D0" stroke="#707070" stroke-width="0.14583"/>
<path fill-rule="evenodd" clip-rule="evenodd" d="M100.779 109.927H105.679V115.072H100.779V109.927Z" fill="#A7A7A7"/>
<path d="M116.689 128.408L100.213 103.676C100.074 103.466 99.8846 103.337 99.7908 103.387C99.697 103.438 99.7339 103.648 99.8732 103.857L116.35 128.589C116.489 128.798 116.678 128.927 116.772 128.877C116.866 128.827 116.829 128.617 116.689 128.408Z" fill="#808080"/>
<path fill-rule="evenodd" clip-rule="evenodd" d="M102 105.888C102 106.083 101.913 106.269 101.759 106.407C101.605 106.545 101.397 106.622 101.179 106.622C100.961 106.622 100.752 106.545 100.598 106.407C100.444 106.269 100.358 106.083 100.358 105.888C100.358 105.693 100.444 105.506 100.598 105.368C100.752 105.231 100.961 105.153 101.179 105.153C101.397 105.153 101.605 105.231 101.759 105.368C101.913 105.506 102 105.693 102 105.888Z" fill="#D0D0D0" stroke="#707070" stroke-width="0.14583"/>
<path fill-rule="evenodd" clip-rule="evenodd" d="M116.356 112.552C116.356 112.902 114.465 113.252 112.26 113.252C110.055 113.252 108.165 112.902 108.165 112.552C108.165 112.272 110.055 113.007 112.26 113.007C114.465 113.007 116.356 112.272 116.356 112.552Z" fill="#808080"/>
<path fill-rule="evenodd" clip-rule="evenodd" d="M101.198 115.072H105.294V116.507H101.198V115.072Z" fill="#A7A7A7"/>
<path fill-rule="evenodd" clip-rule="evenodd" d="M114.5 111.432C114.15 112.202 113.73 112.727 113.66 112.622C113.59 112.552 113.87 111.852 114.255 111.117C114.675 110.382 115.06 109.857 115.095 109.927C115.165 110.032 114.92 110.697 114.5 111.432ZM115.55 113.357C115.095 113.777 114.745 114.057 114.71 113.952C114.71 113.882 115.06 113.497 115.515 113.077C115.971 112.692 116.356 112.412 116.356 112.517C116.356 112.587 116.006 112.972 115.55 113.357Z" fill="#808080"/>
<path fill-rule="evenodd" clip-rule="evenodd" d="M115.06 112.412C115.376 113.042 115.586 113.567 115.516 113.602C115.481 113.602 115.165 113.147 114.815 112.552C114.465 111.922 114.255 111.432 114.325 111.397C114.395 111.397 114.675 111.852 115.025 112.447L115.06 112.412ZM114.71 115.597C114.71 115.702 113.45 115.772 111.84 115.772C110.23 115.772 108.97 115.702 108.97 115.597C108.97 115.492 110.265 115.422 111.84 115.422C113.45 115.422 114.71 115.492 114.71 115.597ZM105.294 115.247C105.294 115.352 104.384 115.422 103.264 115.422C102.109 115.422 101.198 115.352 101.198 115.247C101.198 115.142 102.109 115.072 103.229 115.072C104.349 115.072 105.329 115.142 105.329 115.247H105.294Z" fill="#808080"/>
<path fill-rule="evenodd" clip-rule="evenodd" d="M96.2981 128.003C96.2981 128.003 96.9785 129.639 99.8515 129.662C102.724 129.685 103.73 129.171 102.558 128.298C101.386 127.425 99.2315 127.703 99.5113 128.453C99.791 129.203 98.6947 129.453 98.4377 128.926C98.1806 128.398 97.1524 126.834 99.0047 126.73C100.857 126.625 104.788 126.057 105.771 127.148C106.754 128.239 104.652 129.226 106.24 129.458C107.828 129.685 108.054 129.194 110.776 129.044C113.498 128.894 114.534 129.544 115.464 129.453C116.394 129.362 116.265 127.762 115.524 127.357C114.791 126.948 113.369 126.875 113.007 126.43C112.644 125.984 111.661 126.343 111.752 125.838C111.842 125.334 113.15 126.189 113.165 125.929C113.165 125.92 113.385 125.752 113.43 125.707C113.264 125.67 113.165 125.734 113.044 125.798C113.18 125.688 113.173 125.638 113.218 125.552C113.196 125.52 113.029 125.679 112.999 125.643C112.969 125.607 113.188 125.388 113.09 125.47C113.059 125.493 112.802 125.62 112.795 125.534C112.795 125.498 112.931 125.407 112.886 125.352C112.848 125.311 112.659 125.402 112.629 125.411C112.742 125.261 112.734 125.266 112.629 125.152C112.53 125.043 112.462 125.043 112.303 125.17C112.371 124.988 112.387 124.952 112.228 124.884C112.107 124.811 112.099 124.747 111.941 125.07C112.001 124.725 111.842 124.706 111.91 124.547C111.948 124.397 112.16 124.334 112.508 124.365C113.188 124.37 113.543 125.184 113.763 125.179C113.989 125.179 114.231 124.32 115.184 124.665C116.129 125.016 116.242 125.084 116.726 125.293C117.203 125.498 116.386 125.811 116.658 126.22C116.93 126.63 118.798 127.984 118.269 129.403C117.739 130.812 116.378 131.04 116.25 131.654C116.129 132.263 120.559 132.017 121.693 132.222C122.827 132.426 123.538 133.268 123.584 133.413C123.629 133.559 121.603 133.545 121.603 133.545C121.603 133.545 120.559 133.008 118.08 132.954C115.592 132.908 114.647 131.908 113.717 131.781C112.787 131.654 110.806 131.995 109.703 131.945C108.591 131.894 107.472 131.717 106.754 131.622C106.036 131.522 102.467 133.231 102.482 133.631C101.734 133.599 99.9876 133.509 100.056 133.554C100.131 133.599 100.373 132.781 101.734 132.636C103.095 132.49 104.433 131.835 104.38 131.408C104.342 130.976 104.652 129.498 104.758 128.871C104.864 128.244 105.386 127.934 105.265 127.598C105.144 127.271 103.586 126.93 102.089 126.939C100.592 126.948 98.9291 127.03 98.6872 127.393C98.4452 127.757 98.6343 128.803 98.9442 128.68C99.2466 128.562 98.8686 127.875 99.1937 127.734C99.7983 127.55 100.466 127.453 101.144 127.453C101.931 127.434 103.299 128.121 103.284 128.339C103.269 128.562 103.722 129.294 103.095 129.567C102.467 129.849 101.182 129.976 99.9498 129.912C98.8696 129.842 97.8499 129.577 97.0239 129.153C96.5703 128.88 96.2981 128.057 96.2981 127.998V128.003Z" fill="#D0D0D0" stroke="#808080" stroke-width="0.078172"/>
<path fill-rule="evenodd" clip-rule="evenodd" d="M114.536 125.573C114.536 125.666 114.499 125.755 114.433 125.821C114.367 125.886 114.278 125.923 114.185 125.923C114.093 125.923 114.004 125.886 113.938 125.821C113.872 125.755 113.835 125.666 113.835 125.573C113.835 125.48 113.872 125.391 113.938 125.326C114.004 125.26 114.093 125.223 114.185 125.223C114.278 125.223 114.367 125.26 114.433 125.326C114.499 125.391 114.536 125.48 114.536 125.573Z" fill="black"/>
<path d="M129.973 120.813L131.583 121.163L134.243 119.307L134.033 120.287L132.633 121.198L131.863 121.688L132.388 122.458L133.263 123.858L133.053 124.768L131.408 121.933L129.798 121.583L129.973 120.813ZM127.277 109.087L130.358 107.651L129.518 105.831L129.938 105.656L131.933 110.032L131.513 110.207L130.673 108.386L127.592 109.787L127.242 109.087H127.277ZM122.482 103.241L125.317 100.651L125.877 101.281L125.807 105.656L128.047 103.626L128.572 104.186L125.702 106.776L125.142 106.181L125.247 101.771L123.007 103.836L122.482 103.241ZM110.055 98.2356L110.545 94.3853L111.315 94.5253L110.93 97.8856L113.905 98.2356L113.835 98.6906L110.055 98.2356ZM103.964 98.7956L103.264 95.0153L104.069 94.8753L104.664 98.2006L107.604 97.6755L107.71 98.1306L103.964 98.7956ZM92.6574 104.361L92.3773 104.011L94.4076 102.401L95.2827 103.521C95.0935 103.92 94.8586 104.296 94.5826 104.641C94.3262 104.977 94.0326 105.282 93.7075 105.551C93.2775 105.907 92.7928 106.19 92.2723 106.391C91.7822 106.566 91.3622 106.601 90.9771 106.531C90.5921 106.461 90.277 106.251 90.032 105.971C89.8024 105.67 89.6793 105.3 89.6819 104.921C89.6685 104.475 89.7906 104.036 90.032 103.661C90.3376 103.206 90.7161 102.804 91.1521 102.471C91.4738 102.217 91.8267 102.005 92.2023 101.841C92.5173 101.701 92.7974 101.596 93.0774 101.596C93.3575 101.596 93.5675 101.666 93.8125 101.806L93.3224 102.366C93.1487 102.278 92.9572 102.23 92.7624 102.226C92.5873 102.226 92.4123 102.261 92.1673 102.366C91.9029 102.484 91.6556 102.637 91.4322 102.821C91.1521 103.031 90.9071 103.276 90.7321 103.521L90.417 104.116C90.3484 104.335 90.3349 104.568 90.3776 104.794C90.4203 105.02 90.518 105.232 90.6621 105.411C90.8529 105.66 91.1257 105.834 91.4322 105.901C91.7122 105.971 92.0273 105.936 92.3773 105.796C92.7274 105.656 93.0774 105.446 93.3925 105.236C93.6552 105.021 93.8903 104.774 94.0926 104.501C94.3026 104.221 94.4426 103.976 94.5126 103.801L94.0576 103.241L92.6574 104.361ZM92.5523 132.048L89.4019 134.289L87.0215 130.928L87.3716 130.683L89.2969 133.379L90.277 132.679L88.6318 130.333L88.9818 130.088L90.6621 132.399L92.0623 131.383L92.5523 132.083V132.048ZM87.9317 127.043C88.1405 126.985 88.3308 126.874 88.4841 126.72C88.6374 126.567 88.7485 126.377 88.8068 126.168C88.9468 125.713 88.9468 125.223 88.8068 124.628C88.6831 124.112 88.4017 123.647 88.0017 123.298C87.8294 123.154 87.6235 123.056 87.4031 123.013C87.1828 122.97 86.9552 122.984 86.7415 123.053C86.4663 123.128 86.2215 123.287 86.0414 123.508C85.8381 123.757 85.716 124.062 85.6914 124.383C85.6564 124.733 85.6914 125.083 85.7964 125.468C85.924 125.974 86.1907 126.435 86.5665 126.798C86.9165 127.148 87.3716 127.183 87.9317 127.043ZM88.1417 127.848C87.5116 128.023 86.9515 127.883 86.4615 127.498C85.9714 127.043 85.6213 126.448 85.3763 125.608C85.2363 125.048 85.1663 124.558 85.2013 124.068C85.2363 123.578 85.3763 123.193 85.6213 122.878C85.834 122.575 86.1423 122.353 86.4965 122.248C86.8665 122.139 87.263 122.164 87.6166 122.318C88.0176 122.497 88.358 122.789 88.5968 123.158C88.8822 123.574 89.0952 124.036 89.2269 124.523C89.3669 125.083 89.4369 125.573 89.3669 126.063C89.34 126.491 89.1946 126.903 88.9468 127.253C88.7522 127.536 88.4689 127.745 88.1417 127.848ZM88.4568 120.007L84.6062 119.937L84.6762 117.242C84.6762 116.682 84.7112 116.297 84.7812 116.017C84.8862 115.737 84.9913 115.492 85.1663 115.317C85.3413 115.177 85.5513 115.107 85.7614 115.107C86.0414 115.107 86.2514 115.247 86.4615 115.527C86.6715 115.807 86.7415 116.227 86.7765 116.822L86.9865 116.367C87.131 116.112 87.3074 115.877 87.5116 115.667L88.5618 114.652V115.702L87.7216 116.472L87.1966 117.032C87.0565 117.172 86.9865 117.312 86.9165 117.452C86.8684 117.565 86.8331 117.682 86.8115 117.802V118.257L86.7765 119.167L88.4568 119.237V120.042V120.007ZM86.3214 119.167L86.3565 117.417L86.3214 116.577C86.288 116.394 86.203 116.224 86.0764 116.087C85.9787 115.997 85.8573 115.936 85.7264 115.912C85.5513 115.912 85.3763 116.017 85.3063 116.262C85.1636 116.557 85.0917 116.88 85.0963 117.207L85.0613 119.132L86.3214 119.167ZM97.033 102.226V97.7105L97.8031 97.2555L101.899 99.3207L101.129 99.7757L99.9034 99.1457L97.7331 100.441V101.771L97.033 102.226ZM97.7331 99.9507L99.4833 98.9006L98.3982 98.3056L97.6281 97.8505L97.6981 98.6556V99.9507H97.7331ZM116.321 98.7606L120.486 97.0105L121.186 97.5355L120.941 102.086L120.171 101.561L120.311 100.196L118.211 98.7256L117.021 99.2507L116.321 98.7606ZM118.666 98.5156L120.346 99.7407L120.451 98.4806C120.486 98.1306 120.521 97.8156 120.591 97.6055L119.891 97.9906L118.666 98.5156ZM128.993 112.867L132.738 111.957L133.368 114.582C133.473 115.107 133.543 115.527 133.543 115.807C133.543 116.067 133.47 116.321 133.333 116.542C133.193 116.752 133.053 116.892 132.843 116.927C132.563 116.997 132.318 116.927 132.073 116.682C131.764 116.355 131.536 115.959 131.408 115.527C131.408 115.737 131.408 115.877 131.338 116.017C131.253 116.287 131.136 116.546 130.988 116.787L130.218 118.082L129.973 117.102L130.568 116.122L130.953 115.422C131.058 115.247 131.093 115.072 131.128 114.967C131.141 114.851 131.141 114.733 131.128 114.617L131.058 114.162L130.813 113.252L129.168 113.637L128.993 112.867ZM131.268 113.147L131.653 114.827C131.758 115.177 131.828 115.457 131.933 115.632C132.038 115.842 132.143 115.982 132.283 116.052C132.388 116.122 132.528 116.157 132.633 116.122C132.808 116.087 132.948 115.947 132.983 115.737C133.061 115.39 133.049 115.028 132.948 114.687L132.493 112.832L131.268 113.147Z" fill="#D0D0D0"/>
</g>
<defs>
<clipPath id="clip0_103_8017">
<rect width="512" height="512" fill="white" transform="translate(0.5)"/>
</clipPath>
</defs>
</svg>
