<svg width="513" height="512" viewBox="0 0 513 512" fill="none" xmlns="http://www.w3.org/2000/svg">
<g clip-path="url(#clip0_103_8066)">
<path d="M0.5 0H512.5V512H0.5V0Z" fill="#D21034"/>
<path d="M128.5 128H384.5V384H128.5V128Z" fill="#007E3A"/>
<path d="M288.5 341.3C335.61 341.3 373.8 303.11 373.8 256C373.8 208.89 335.61 170.7 288.5 170.7C241.39 170.7 203.2 208.89 203.2 256C203.2 303.11 241.39 341.3 288.5 341.3Z" fill="white"/>
<path d="M309.1 341.3C349.914 341.3 383 303.11 383 256C383 208.89 349.914 170.7 309.1 170.7C268.286 170.7 235.2 208.89 235.2 256C235.2 303.11 268.286 341.3 309.1 341.3Z" fill="#007E3A"/>
</g>
<defs>
<clipPath id="clip0_103_8066">
<rect width="512" height="512" fill="white" transform="translate(0.5)"/>
</clipPath>
</defs>
</svg>
