<svg width="513" height="512" viewBox="0 0 513 512" fill="none" xmlns="http://www.w3.org/2000/svg">
<g clip-path="url(#clip0_103_8071)">
<mask id="mask0_103_8071" style="mask-type:luminance" maskUnits="userSpaceOnUse" x="0" y="0" width="513" height="513">
<path d="M0.531494 0H512.56V512.029H0.531494V0Z" fill="white"/>
</mask>
<g mask="url(#mask0_103_8071)">
<path fill-rule="evenodd" clip-rule="evenodd" d="M-129.3 0H638.707V512.029H-129.3V0Z" fill="#F41408"/>
<path fill-rule="evenodd" clip-rule="evenodd" d="M-129.3 341.304H638.707V512.029H-129.3V341.304Z" fill="#21873B"/>
<path fill-rule="evenodd" clip-rule="evenodd" d="M-129.3 0H638.707V170.652H-129.3V0Z" fill="black"/>
<path fill-rule="evenodd" clip-rule="evenodd" d="M160.707 154.613C171.43 128.506 192.083 107.728 218.124 96.8483C244.166 85.9684 273.462 85.878 299.57 96.597C312.698 101.764 324.62 109.582 334.59 119.565C344.56 129.547 352.364 141.478 357.514 154.613H160.707ZM134.698 161.693C117.018 160.34 99.4905 157.439 82.3173 153.023C78.2713 151.579 78.0546 149.122 78.5603 147.244C78.9749 146.02 79.8421 145.001 80.9841 144.396C82.1261 143.792 83.4563 143.647 84.7015 143.992C90.4092 145.437 113.529 151.579 134.77 161.693H134.698ZM259.4 66.9027C255.209 43.783 254.125 18.2791 254.559 14.0164C254.92 9.68147 257.304 8.95898 259.255 8.95898C260.533 9.05048 261.728 9.62345 262.6 10.5622C263.472 11.5009 263.954 12.7354 263.951 14.0164C263.951 19.9408 263.807 43.8553 259.4 66.9027ZM270.959 67.4807C269.312 49.7989 269.191 32.008 270.598 14.3054C271.393 10.0427 273.777 9.46473 275.728 9.68147C277.679 9.82597 280.28 12.0657 279.991 15.1724C279.485 20.9523 277.317 44.7945 270.959 67.4807ZM281.363 68.9257C281.074 45.3725 284.253 20.0853 285.481 15.8949C286.565 11.7044 289.022 11.3432 290.972 11.7044C292.213 12.0142 293.291 12.7827 293.988 13.8551C294.685 14.9276 294.95 16.2244 294.729 17.4844C293.718 23.2643 289.6 46.8175 281.363 68.8534V68.9257ZM292.417 71.3099C294.224 47.9012 299.642 22.9753 301.087 18.9293C302.532 14.8834 305.061 14.7389 306.939 15.2446C308.147 15.6588 309.154 16.5147 309.757 17.6405C310.36 18.7662 310.515 20.0784 310.191 21.3136C308.673 27.0212 302.532 50.1409 292.417 71.3099ZM303.255 74.7778C306.156 57.2785 310.58 40.066 316.476 23.3365C318.355 19.4351 320.811 19.5073 322.69 20.1576C323.874 20.6829 324.812 21.6428 325.309 22.8393C325.807 24.0358 325.826 25.3775 325.363 26.5877C323.34 32.0787 315.104 54.5481 303.182 74.7778H303.255ZM313.37 79.0405C319.149 56.2098 328.831 32.6567 331.071 28.8997C333.238 25.1428 335.694 25.4318 337.428 26.2987C338.54 26.9126 339.38 27.9221 339.782 29.1268C340.183 30.3315 340.117 31.6431 339.596 32.8012C337.067 38.2198 327.025 59.8945 313.37 79.0405ZM323.34 84.2424C329.271 67.5116 336.619 51.3173 345.304 35.8356C347.76 32.2954 350.217 32.8012 351.951 33.8126C352.993 34.5446 353.722 35.6433 353.99 36.8891C354.258 38.1348 354.045 39.4358 353.395 40.5318C350.506 45.5892 338.584 66.3247 323.34 84.2424ZM332.732 90.2391C340.081 74.0909 348.833 58.6184 358.886 43.9997C361.632 40.6763 364.016 41.3988 365.606 42.5548C366.586 43.362 367.228 44.5087 367.402 45.767C367.576 47.0253 367.27 48.3031 366.545 49.3462C363.149 54.1869 349.494 73.7663 332.732 90.2391ZM341.547 97.1028C353.107 76.584 368.568 56.3543 371.675 53.2476C374.709 50.2132 377.021 51.0802 378.538 52.3806C379.983 53.6811 380.85 56.9323 378.827 59.3165C375.07 63.796 359.753 82.1472 341.547 97.1028ZM349.855 104.689C359.892 90.0585 371.182 76.3277 383.596 63.6515C386.919 60.906 389.159 61.9897 390.531 63.3625C391.377 64.3372 391.819 65.5984 391.765 66.8878C391.711 68.1773 391.167 69.3974 390.242 70.2984C377.813 82.95 364.272 94.4597 349.783 104.689H349.855ZM357.369 112.998C372.325 94.863 391.109 77.5955 394.65 75.1391C398.262 72.6826 400.285 73.9831 401.586 75.4281C402.34 76.4682 402.67 77.7565 402.509 79.0313C402.348 80.3061 401.708 81.4719 400.719 82.2917C387.191 93.7702 372.686 104.045 357.369 112.998ZM363.872 121.523C376.274 108.811 389.764 97.207 404.187 86.8434C407.944 84.6759 409.966 86.1932 411.05 87.8549C412.206 89.4444 412.206 92.7678 409.605 94.574C395.209 104.885 379.929 113.903 363.944 121.523H363.872ZM369.796 130.771C383.241 119.178 397.673 108.783 412.929 99.7037C416.83 97.8975 418.709 99.5592 419.72 101.221C420.659 102.883 420.443 106.278 417.697 107.868C412.64 110.758 391.976 122.896 369.796 130.771ZM375.287 141.319C389.761 131.049 405.085 122.033 421.093 114.37C425.139 112.925 426.873 114.732 427.667 116.538C428.114 117.73 428.094 119.047 427.612 120.226C427.13 121.405 426.221 122.358 425.066 122.896C409.046 130.486 392.389 136.651 375.287 141.319ZM379.477 151.506C394.732 142.464 410.763 134.799 427.378 128.603C431.569 127.52 433.158 129.47 433.809 131.277C434.531 133.083 433.592 136.334 430.63 137.418C414.031 143.624 396.913 148.339 379.477 151.506ZM382.801 162.344C398.842 154.686 415.523 148.448 432.653 143.703C436.843 142.981 438.216 145.004 438.722 146.955C438.948 148.195 438.704 149.475 438.035 150.545C437.367 151.614 436.323 152.395 435.109 152.734C429.329 154.324 406.282 160.465 382.801 162.271V162.344ZM248.129 67.2639C243.369 50.2168 240.105 32.7868 238.375 15.1724C238.375 10.8375 240.615 9.89822 242.566 9.68147C243.859 9.6597 245.112 10.1344 246.066 11.0079C247.02 11.8814 247.603 13.0873 247.695 14.3777C248.273 20.1576 250.368 43.9997 248.129 67.4084V67.2639ZM237.002 68.7089C230.768 52.1082 226.006 34.9915 222.769 17.5566C222.408 13.2217 224.576 12.0657 226.454 11.7044C227.742 11.5571 229.037 11.9097 230.072 12.6894C231.107 13.4692 231.803 14.6166 232.017 15.8949C233.029 21.6748 237.219 45.228 237.002 68.7089ZM225.948 71.1654C218.271 55.1496 212.01 38.4929 207.236 21.3858C206.513 17.1231 208.609 15.7504 210.487 15.2446C211.737 15.021 213.026 15.2758 214.096 15.9585C215.167 16.6411 215.942 17.7017 216.267 18.9293C217.856 24.637 224.07 47.6844 225.948 71.1654ZM215.544 74.4166C206.548 59.123 198.908 43.0705 192.714 26.4432C191.63 22.2528 193.581 20.6633 195.387 20.0131C196.623 19.6642 197.945 19.7986 199.086 20.389C200.226 20.9793 201.099 21.9815 201.528 23.192C203.551 28.7552 211.715 51.1524 215.544 74.4166ZM205.43 78.5348C195.127 64.1071 186.11 48.804 178.481 32.8012C177.036 28.683 178.77 27.0212 180.576 26.2265C181.777 25.7588 183.112 25.7675 184.307 26.251C185.502 26.7344 186.468 27.656 187.006 28.8275C189.463 34.1739 199.505 55.8486 205.357 78.6793L205.43 78.5348ZM195.17 83.8812C183.616 70.3884 173.269 55.9071 164.248 40.604C162.441 36.7026 164.031 34.8241 165.693 33.8849C166.849 33.3092 168.182 33.1981 169.418 33.5743C170.654 33.9505 171.7 34.7854 172.34 35.9079C175.302 40.9653 187.295 61.7008 195.17 83.8812ZM185.778 89.8056C173.109 77.351 161.554 63.813 151.243 49.3462C149.075 45.5892 150.52 43.5663 152.182 42.4825C153.293 41.8447 154.601 41.6394 155.854 41.9061C157.107 42.1727 158.218 42.8925 158.973 43.9275C162.369 48.7682 176.024 68.3477 185.778 89.8056ZM177.036 96.308C163.349 85.014 150.68 72.5392 139.177 59.0275C136.721 55.4873 138.021 53.3921 139.538 52.1639C140.579 51.4094 141.867 51.0792 143.142 51.2402C144.417 51.4012 145.582 52.0415 146.402 53.0309C150.159 57.5103 165.476 75.8616 177.036 96.3803V96.308ZM168.51 104.039C153.872 93.9856 140.14 82.6717 127.473 70.2261C124.727 66.9027 125.811 64.663 127.184 63.2902C128.159 62.4443 129.42 62.0031 130.709 62.0568C131.999 62.1105 133.219 62.6552 134.12 63.5792C138.31 67.7697 155.217 84.6037 168.51 104.039ZM161.141 111.914C145.718 103.141 131.092 93.0361 117.43 81.7137C114.396 78.6793 115.335 76.3673 116.636 74.8501C117.533 73.9466 118.738 73.415 120.011 73.3614C121.283 73.3078 122.529 73.7362 123.499 74.5611C128.051 78.318 146.258 93.7071 161.141 111.914ZM154.133 120.945C137.984 113.568 122.512 104.792 107.893 94.7186C104.57 91.9008 105.292 89.5166 106.448 87.9271C107.258 86.9265 108.419 86.2723 109.694 86.0978C110.969 85.9233 112.263 86.2416 113.312 86.9879C127.878 97.1012 141.537 108.463 154.133 120.945ZM147.847 130.626C131.103 124.757 114.906 117.432 99.4403 108.735C95.8278 106.206 96.3336 103.822 97.3451 102.088C98.0662 101.033 99.1599 100.29 100.406 100.009C101.653 99.7271 102.96 99.9279 104.064 100.571C109.194 103.461 129.929 115.382 147.847 130.626ZM142.573 140.524C119.814 134.744 96.1891 125.063 92.4321 122.896C88.7474 120.728 88.9642 118.272 89.8311 116.538C90.4584 115.421 91.481 114.579 92.6977 114.178C93.9144 113.777 95.2372 113.845 96.4058 114.37C101.752 116.827 123.427 126.942 142.645 140.524H142.573ZM138.382 150.495C120.871 147.547 103.657 143.05 86.9412 137.056C83.0397 135.25 83.112 132.722 83.7622 130.915C84.4847 129.109 87.2302 127.158 90.1924 128.242C95.6833 130.265 118.153 138.501 138.382 150.495Z" fill="#F31509"/>
<path fill-rule="evenodd" clip-rule="evenodd" d="M134.77 161.693C111.289 159.887 86.3632 154.541 82.3173 153.024C78.2713 151.579 78.0546 149.122 78.5603 147.244C78.9749 146.02 79.8421 145.001 80.9841 144.396C82.1261 143.792 83.4563 143.647 84.7015 143.992C90.4092 145.437 113.529 151.579 134.77 161.693Z" fill="#F31509"/>
<path fill-rule="evenodd" clip-rule="evenodd" d="M69.6016 155.119H450.86V169.063H69.6016V155.119Z" fill="black"/>
</g>
</g>
<defs>
<clipPath id="clip0_103_8071">
<rect width="512" height="512" fill="white" transform="translate(0.5)"/>
</clipPath>
</defs>
</svg>
