<svg width="513" height="512" viewBox="0 0 513 512" fill="none" xmlns="http://www.w3.org/2000/svg">
<g clip-path="url(#clip0_103_8450)">
<path d="M0.5 0H512.5V36.6H0.5V0Z" fill="#CC0000"/>
<path d="M0.5 36.6001H512.5V73.0001H0.5V36.6001Z" fill="white"/>
<path d="M0.5 73.1001H512.5V109.7H0.5V73.1001Z" fill="#CC0000"/>
<path d="M0.5 109.7H512.5V146.3H0.5V109.7Z" fill="white"/>
<path d="M0.5 146.3H512.5V182.9H0.5V146.3Z" fill="#CC0000"/>
<path d="M0.5 182.9H512.5V219.4H0.5V182.9Z" fill="white"/>
<path d="M0.5 219.4H512.5V256H0.5V219.4Z" fill="#CC0000"/>
<path d="M0.5 256H512.5V292.6H0.5V256Z" fill="white"/>
<path d="M0.5 292.6H512.5V329H0.5V292.6Z" fill="#CC0000"/>
<path d="M0.5 329.1H512.5V365.7H0.5V329.1Z" fill="white"/>
<path d="M0.5 365.7H512.5V402.3H0.5V365.7Z" fill="#CC0000"/>
<path d="M0.5 402.3H512.5V438.9H0.5V402.3Z" fill="white"/>
<path d="M0.5 438.9H512.5V475.4H0.5V438.9Z" fill="#CC0000"/>
<path d="M0.5 475.4H512.5V512H0.5V475.4Z" fill="white"/>
<path d="M0.5 0H256.5V292.6H0.5V0Z" fill="#000066"/>
<path d="M166.5 93.0001L171.3 125.5L189.7 98.3001L179.7 129.6L208.2 113L185.7 137L218.5 134.4L187.8 146.3L218.5 158L185.7 155.5L208.2 179.5L179.8 162.8L189.6 194.3L171.2 167L166.4 199.5L161.7 167L143.3 194.2L153.2 162.8L124.8 179.5L147.2 155.5L114.4 158L145.1 146.2L114.5 134.3L147.3 136.9L124.8 112.9L153.2 129.5L143.2 98.1001L161.7 125.4L166.5 92.8001V93.0001ZM139.8 94.3001C126.728 88.5253 111.962 87.8805 98.4373 92.4939C84.9121 97.1073 73.618 106.641 66.8 119.2C62.2927 127.529 59.9355 136.851 59.942 146.321C59.9485 155.791 62.3186 165.11 66.8374 173.432C71.3561 181.755 77.8806 188.818 85.8194 193.981C93.7582 199.144 102.86 202.244 112.3 203C121.715 203.74 131.165 202.125 139.8 198.3C130.236 205.162 118.966 209.253 107.227 210.125C95.4887 210.996 83.7374 208.613 73.2656 203.238C62.7938 197.863 54.0071 189.704 47.8718 179.659C41.7366 169.613 38.4905 158.071 38.4905 146.3C38.4905 134.529 41.7366 122.987 47.8718 112.941C54.0071 102.896 62.7938 94.7373 73.2656 89.3623C83.7374 83.9874 95.4887 81.6044 107.227 82.4756C118.966 83.3467 130.236 87.4382 139.8 94.3001Z" fill="#FFCC00"/>
</g>
<defs>
<clipPath id="clip0_103_8450">
<rect width="512" height="512" fill="white" transform="translate(0.5)"/>
</clipPath>
</defs>
</svg>
