<svg width="513" height="512" viewBox="0 0 513 512" fill="none" xmlns="http://www.w3.org/2000/svg">
<g clip-path="url(#clip0_103_8467)">
<mask id="mask0_103_8467" style="mask-type:luminance" maskUnits="userSpaceOnUse" x="0" y="0" width="513" height="512">
<path d="M0.5 0H512.422V511.922H0.5V0Z" fill="white"/>
</mask>
<g mask="url(#mask0_103_8467)">
<path fill-rule="evenodd" clip-rule="evenodd" d="M0.5 0H768.382V159.975H0.5V0Z" fill="#009A00"/>
<path fill-rule="evenodd" clip-rule="evenodd" d="M0.5 159.976H768.382V175.973H0.5V159.976Z" fill="white"/>
<path fill-rule="evenodd" clip-rule="evenodd" d="M0.5 175.973H768.382V335.949H0.5V175.973Z" fill="black"/>
<path fill-rule="evenodd" clip-rule="evenodd" d="M0.5 335.949H768.382V351.946H0.5V335.949Z" fill="white"/>
<path fill-rule="evenodd" clip-rule="evenodd" d="M0.5 351.946H768.382V511.922H0.5V351.946Z" fill="#FFCA00"/>
<path fill-rule="evenodd" clip-rule="evenodd" d="M0.5 0V511.922L336.552 255.961L0.5 0Z" fill="#FF0000"/>
<path fill-rule="evenodd" clip-rule="evenodd" d="M198.973 332.955L147.781 295.49L96.6917 332.955L116.508 272.681L64.903 235.525L128.48 235.835L147.781 175.457L167.184 235.835L230.658 235.525L179.053 272.681L198.973 332.955Z" fill="#FFCA00"/>
<path fill-rule="evenodd" clip-rule="evenodd" d="M103.297 290.949H140.246C143.239 294.252 149.845 295.594 156.141 290.949C167.7 284.55 190.097 290.949 190.097 290.949L194.535 286.202L183.801 251.007L179.879 246.879C179.879 246.879 171.622 241.924 155.934 243.576C140.246 245.227 134.776 242.957 134.776 242.957C134.776 242.957 120.946 244.608 117.127 246.672L112.689 251.11L103.4 291.052L103.297 290.949Z" fill="white" stroke="black" stroke-width="1.13531" stroke-linecap="round" stroke-linejoin="round"/>
<path d="M110.728 281.763C110.728 281.763 146.026 277.429 156.141 290.949C150.464 294.871 145.407 295.077 139.937 291.155C140.866 289.711 152.632 277.429 182.666 281.557" stroke="black" stroke-width="1.13531" stroke-linecap="round" stroke-linejoin="round"/>
<path d="M148.503 246.569L148.194 285.376M179.879 247.188L186.484 277.945" stroke="black" stroke-width="1.13531"/>
<path d="M117.437 246.672L113.825 262.566" stroke="black" stroke-width="1.13531" stroke-linecap="round" stroke-linejoin="round"/>
<path fill-rule="evenodd" clip-rule="evenodd" d="M79.3524 295.18L88.0221 305.295C89.0542 305.914 89.983 305.914 90.9119 305.295L103.71 289.813L109.18 283.208C109.549 282.786 109.83 282.295 110.007 281.763C110.184 281.232 110.254 280.67 110.212 280.112L120.533 270.823C121.359 271.029 121.875 271.132 122.597 271.132C121.669 270.823 120.946 270.41 121.772 269.275L124.042 267.52L125.9 269.791C125.9 269.791 123.32 273.197 123.01 273.197H120.224L114.753 278.048L117.127 280.112L120.74 289.917L125.074 286.82L122.288 276.809L128.48 270.1L126.107 266.488L127.655 264.424C127.655 264.424 149.019 277.841 157.276 274.229C157.482 274.332 157.792 264.63 157.792 264.63C157.792 264.63 135.602 262.36 135.086 258.025C134.57 253.587 140.04 253.071 140.04 253.071L137.666 249.768L138.182 247.91L142.104 252.864L150.774 245.33L202.276 304.056C205.062 302.921 205.681 302.199 205.888 299.412L155.315 241.511L159.237 237.383C159.959 236.557 160.269 236.144 160.269 234.803L166.152 229.642C167.744 230.204 169.092 231.297 169.971 232.738L186.278 219.011C186.691 219.424 188.033 219.837 188.858 219.321L215.693 193.519L186.484 214.161L185.452 213.438C185.452 212.612 186.484 212.406 185.452 210.858C184.317 209.516 182.562 212.2 182.356 212.2C182.15 212.2 178.124 210.755 177.196 209L176.989 213.748L169.455 220.663L163.778 220.456L155.521 228.404L154.489 231.5L155.831 234.08C155.831 234.08 151.496 237.899 151.496 237.692C151.496 237.383 150.567 236.557 150.464 236.351L154.283 233.048L154.799 230.674L153.56 228.713C153.148 229.023 148.4 234.08 148.09 233.564L134.363 217.773L135.086 214.883L126.313 205.388C123.217 204.356 118.056 204.149 117.024 211.064C116.302 212.716 109.593 211.271 109.593 211.271L106.084 212.096L85.7514 240.892L97.1045 254.516L120.224 225.204L120.843 216.947L125.694 222.314C127.345 222.521 128.893 222.521 130.338 221.798L144.065 237.073L141.794 239.344L143.859 241.614L146.129 239.963L147.161 241.305C145.923 241.924 145.097 242.75 144.065 243.369C142.104 242.234 140.35 240.686 140.556 238.312L132.815 244.711L132.506 246.052L109.593 265.043L107.529 265.353L107.013 271.236L121.978 258.85V257.096L123.526 258.334L135.086 249.046C135.086 249.046 135.911 250.078 135.602 250.078C135.292 250.078 125.281 259.367 125.281 259.367L125.074 260.399L123.32 261.947L122.288 261.224L108.354 273.61H106.29L98.5495 281.247C96.5885 281.453 94.8339 281.66 93.1826 282.795L79.3524 295.18Z" fill="black" stroke="black" stroke-width="1.13531" stroke-linecap="round" stroke-linejoin="round"/>
</g>
</g>
<defs>
<clipPath id="clip0_103_8467">
<rect width="512" height="512" fill="white" transform="translate(0.5)"/>
</clipPath>
</defs>
</svg>
