<svg width="513" height="512" viewBox="0 0 513 512" fill="none" xmlns="http://www.w3.org/2000/svg">
<g clip-path="url(#clip0_103_8484)">
<mask id="mask0_103_8484" style="mask-type:luminance" maskUnits="userSpaceOnUse" x="0" y="0" width="513" height="512">
<path d="M0.5 0H512.5V512H0.5V0Z" fill="white"/>
</mask>
<g mask="url(#mask0_103_8484)">
<path fill-rule="evenodd" clip-rule="evenodd" d="M0.5 0H512.5V512H0.5V0Z" fill="white"/>
<path fill-rule="evenodd" clip-rule="evenodd" d="M-107.7 0.2L-106.9 368.8L467.1 0L-107.7 0.2Z" fill="#3662A2"/>
<path fill-rule="evenodd" clip-rule="evenodd" d="M631.2 511.5L629.8 128.3L50.8 511.8L631.2 511.5Z" fill="#38A100"/>
<path fill-rule="evenodd" clip-rule="evenodd" d="M-107.4 396.6L-106.9 512L18.4 511.8L630.1 101.7L629.5 1.39995L505.7 0.199951L-107.3 396.6H-107.4Z" fill="#C70000"/>
<path fill-rule="evenodd" clip-rule="evenodd" d="M154.5 183.4L131.4 169.4L118 193L105 169.2L81.5 183L82.1 155.9L55.1 156.1L69.1 132.9L45.5 119.5L69.3 106.5L55.5 82.9999L82.5 83.5999L82.4 56.4999L105.6 70.4999L119 46.8999L132 70.5999L155.7 56.9999L155.1 83.9999L182.1 83.8999L168.1 107.1L191.7 120.4L167.9 133.5L181.6 156.9L154.6 156.4L154.5 183.4Z" fill="#FFE700"/>
<path fill-rule="evenodd" clip-rule="evenodd" d="M168.3 120C168.3 147.2 146 169.3 118.5 169.3C91 169.3 68.8 147.2 68.8 119.9C68.8 92.6001 91.1 70.6001 118.6 70.6001C146.1 70.6001 168.3 92.6001 168.3 119.9V120Z" fill="#3662A2"/>
<path fill-rule="evenodd" clip-rule="evenodd" d="M157.5 120C157.768 125.281 156.959 130.561 155.122 135.52C153.285 140.478 150.46 145.012 146.817 148.844C143.173 152.677 138.789 155.728 133.93 157.814C129.07 159.899 123.838 160.974 118.55 160.974C113.262 160.974 108.03 159.899 103.17 157.814C98.3111 155.728 93.9266 152.677 90.2835 148.844C86.6403 145.012 83.8145 140.478 81.978 135.52C80.1414 130.561 79.3323 125.281 79.6 120C80.1063 110.011 84.4309 100.599 91.6799 93.7076C98.9289 86.8167 108.548 82.9741 118.55 82.9741C128.552 82.9741 138.171 86.8167 145.42 93.7076C152.669 100.599 156.994 110.011 157.5 120Z" fill="#FFE700"/>
</g>
</g>
<defs>
<clipPath id="clip0_103_8484">
<rect width="512" height="512" fill="white" transform="translate(0.5)"/>
</clipPath>
</defs>
</svg>
