<svg width="513" height="512" viewBox="0 0 513 512" fill="none" xmlns="http://www.w3.org/2000/svg">
<g clip-path="url(#clip0_103_8496)">
<path d="M0.5 0H512.5V512H0.5V0Z" fill="#009543"/>
<path d="M0.5 0H512.5V341.3H0.5V0Z" fill="#ED4135"/>
<path d="M0.5 0H512.5V170.7H0.5V0Z" fill="#0035AD"/>
<path d="M226.1 423.8C318.773 423.8 393.9 348.673 393.9 256C393.9 163.327 318.773 88.2 226.1 88.2C133.427 88.2 58.3 163.327 58.3 256C58.3 348.673 133.427 423.8 226.1 423.8Z" fill="#FAE600" stroke="black" stroke-width="5.7"/>
<path d="M197.7 281H254.6H197.7ZM197.7 239H254.6H197.7ZM226.1 88.6001V375.4V88.6001Z" fill="black"/>
<path d="M197.7 281H254.6M197.7 239H254.6M226.1 88.6001V375.4" stroke="black" stroke-width="6.8"/>
<path d="M158.5 410C227.1 438 291.3 411.8 291.3 411.8C291.3 411.8 267 385.6 254.6 375.3C242.5 365.3 206.8 365.7 194.6 375.3C184.6 383.3 155.4 412.8 158.6 410.1L158.5 410Z" fill="black"/>
<path d="M226.1 360.7C236.483 360.7 244.9 348.477 244.9 333.4C244.9 318.323 236.483 306.1 226.1 306.1C215.717 306.1 207.3 318.323 207.3 333.4C207.3 348.477 215.717 360.7 226.1 360.7Z" fill="black"/>
<path d="M226.1 274.4C238.692 274.4 248.9 267.953 248.9 260C248.9 252.047 238.692 245.6 226.1 245.6C213.508 245.6 203.3 252.047 203.3 260C203.3 267.953 213.508 274.4 226.1 274.4Z" fill="black"/>
<path d="M226.1 216.2C238.692 216.2 248.9 205.992 248.9 193.4C248.9 180.808 238.692 170.6 226.1 170.6C213.508 170.6 203.3 180.808 203.3 193.4C203.3 205.992 213.508 216.2 226.1 216.2Z" fill="black"/>
<path d="M253.5 108.7C253.5 108.7 255.5 111.9 251.3 119.4C231.4 155.1 211.6 155.9 207.8 158.9C203.6 162.3 201.8 162.1 201.8 162.1C202.2 159.1 202.4 146.5 202.6 145.3C205.6 128.7 230.9 128.9 250.6 111.8C253.6 109.1 253.4 108.6 253.4 108.6L253.5 108.7ZM186.9 185.5C186.9 185.5 191.4 198.2 192 211.1C193.1 231.5 212.7 232.1 226.1 232.1V220.7C216.1 220.7 207.2 219.3 200 204.2C196.187 197.597 191.803 191.34 186.9 185.5ZM186.3 350.5C186.3 350.5 193.5 341.5 201.9 320.9C203.827 316.001 207.145 311.772 211.445 308.734C215.744 305.695 220.838 303.981 226.1 303.8V287.8C204.5 287.8 194.1 295.8 193.1 307.7C190.7 331.7 186.3 350.4 186.3 350.4V350.5ZM265.5 185.5C265.5 185.5 260.9 198.2 260.3 211.1C259.2 231.6 239.6 232.1 226.2 232.1V220.8C236.3 220.8 245.1 219.3 252.4 204.3C256.2 197.6 260.6 191.3 265.4 185.5H265.5ZM266 350.5C266 350.5 258.9 341.6 250.4 320.9C248.457 316.02 245.133 311.812 240.835 308.792C236.536 305.772 231.45 304.072 226.2 303.9V287.9C247.8 287.9 258.2 295.9 259.3 307.7C260.65 322.091 262.888 336.385 266 350.5Z" fill="black"/>
</g>
<defs>
<clipPath id="clip0_103_8496">
<rect width="512" height="512" fill="white" transform="translate(0.5)"/>
</clipPath>
</defs>
</svg>
