<svg width="513" height="512" viewBox="0 0 513 512" fill="none" xmlns="http://www.w3.org/2000/svg">
<g clip-path="url(#clip0_103_8512)">
<path fill-rule="evenodd" clip-rule="evenodd" d="M156.3 0H356.7V512H156.3V0Z" fill="white"/>
<path fill-rule="evenodd" clip-rule="evenodd" d="M0.5 0H156.3V512H0.5V0ZM356.7 0H512.5V512H356.7V0Z" fill="#198200"/>
<path fill-rule="evenodd" clip-rule="evenodd" d="M243.5 332.4V373.4L260 373.6C260 373.6 254.7 337.8 257.6 333C260.6 328.3 263.3 329 263.3 329C263.3 329 274.1 332.2 275.3 331.7C276.5 331.2 275.1 327.6 280.9 328.1C282.8 327.4 281.8 324.1 283.5 324C285.2 323.8 318.2 333.2 325.3 324.3C323.5 319.3 317 324 315.3 324.1C313.7 324.1 307.3 321.1 303.5 324.1C300 321.6 284.5 319.9 284.5 319.9C282.5 317.9 321.5 320.9 323.8 319.4C328.4 314.8 315.3 315.3 313.2 316.8C309.6 314.6 305 314.8 302.2 316.3C300.8 313.1 288.2 314.5 281.1 313.6C278.8 312.2 279.1 311.5 280.7 310.6C295.5 311.3 310.2 313.2 325 312.6C329 307.3 320 305.3 314.4 309.8C311.1 304.4 304.4 309.6 300 309.1C295.6 308.6 297.6 303.1 303.3 304C308.9 304.8 319 303.6 320.9 301C322.8 298.5 319.8 295.9 310.5 298.3C307.3 295.3 300.4 298.3 297.1 299.3C292.8 297 282.8 299 279.4 299.9C276 297.8 297 294.4 297 294.4C305 294.3 309.6 292.9 312.2 292.2C324.4 285.6 312 284.9 305.6 289.7C301.6 286.6 297.8 290 294.2 291.2C290.6 292.4 283.8 293.2 283.8 292.7C283.8 292.2 293.6 286.2 293.6 286.2C293.6 286.2 305.6 285.3 307.9 285C310.3 284.7 322.6 278.4 305.9 282.6C300.1 283.1 296.6 282.8 294.4 282.9C281.5 281.6 295.6 280.4 295.6 280.4C295.6 280.4 313.8 278.7 314.1 277.8C314.4 270.8 299.1 274.1 299.1 274.1C299.1 269 284.8 274.2 284.8 274.1C282.1 272.5 286.4 270.8 286.4 270.8C290.1 269.9 295.8 269.6 297.2 268.4C297.2 268.4 307.8 268.4 309.1 265.5C306.5 258.3 286.6 266.8 284 268.1C280.4 268.1 286.4 262.3 286.5 262.1C286.7 261.9 302.9 261.2 310.6 250.8C311.2 244.5 301.6 254.4 301.6 254.4C300.9 246.2 291.2 254.9 285.6 255.6C279.9 256.3 279.7 253 283.6 252.6C287.6 252 292 252.4 294.2 246.4C296.5 240.4 303.2 246.7 304.3 244.4C305.5 242.3 301.9 240.4 301.9 240.4C301.9 240.4 306.9 235.3 298.9 235.4C290.9 235.6 280.4 234.4 280.4 234.4C280.4 234.4 288.8 231.2 296.6 231.4C304.5 231.5 300.2 225.7 292.6 225.7C285.2 225.7 281.2 223.1 281.2 223.1L294.1 218.3L293.2 214.7C293.2 214.7 300.7 208.7 290.2 210.1L278.3 211.7L257 214.9C256.8 214.9 251.2 213.2 256.6 211.9C262.1 210.5 281.4 206.5 284.3 207.6C287.3 208.6 284 200.4 273.7 199.4C263.5 198.4 257.1 201.9 257.1 201.9C257.1 201.9 250.5 199.5 256.6 197.5C262.8 195.5 272.6 198.2 272.6 198.2C272.6 198.2 283.5 194.9 274.4 193.5C265.4 192.2 262.4 194.8 258.4 194.9C256.7 192.9 272.6 192.4 273.6 190.6C271.9 187.6 262 190.6 256.3 190.6C253.8 189.6 253.7 187.9 256.5 186.9C262.3 186.7 267.8 187 273.7 186.8C273.5 183.6 273.7 179.9 273.6 176.8C266.1 175.4 257.4 177.8 253.2 177.6C254.3 174.2 270.4 173.3 272.2 172.4C275.9 167.7 256.5 172.4 256.2 172.4C252.9 171.9 253.2 169.7 255.2 168.4C260.2 167.9 271.3 169.1 270.5 165.8C269.8 162.6 262.8 164.3 259.9 165C256.9 165.7 252.7 165.2 252.7 165.2C250.8 162.7 269.4 163.7 269.3 161.8C269 159.5 257.5 161.1 253.6 161.2C250.5 159.2 268.3 157.7 268.6 157.5C269.2 151.8 256.6 157.5 254.2 157.5C251.8 157.5 253 153.9 253 153.9C253 153.9 258 151.7 257.8 151.3C257.7 151 254.1 149.8 253.8 149.8C253.4 149.8 253.8 145.8 253.8 145.8C253.8 145.8 257.8 142.8 257.5 141.9C257.1 141.1 252.7 142.6 252.7 142.6V139.2C252.7 139.2 255.9 138.8 256.3 137.3C256.6 135.8 252.3 135.6 252.3 135.6L250.7 117.6L249.1 134.4L243.5 135.3C243.5 135.3 247.4 137.5 248.1 139.7C248.8 141.9 243.3 141.2 243.3 141.2C243.3 141.2 247.7 145 248.1 146.4C248.4 147.7 241.9 148.1 241.9 148.1C241.9 148.1 247.4 152.1 247.7 154.2C248.1 156.5 247.7 157.7 247.7 157.7C247.7 157.7 238.7 149.7 232.9 152C229.9 153.6 239.8 154.3 246.4 160C246.4 161.3 230.4 156.1 229.8 159.4C230.2 160.3 246.8 162.7 248.1 164.8C242 165.1 229.4 163.5 229.8 165.5C228.5 167.8 241.7 166.5 247.2 168.5C248.8 170.3 248.7 171.8 245.9 172C240.5 169.5 228.6 167.6 228.6 170.8C228.6 171.7 240.9 171.1 245.3 174.1C239.4 175.4 219.3 171.3 219.2 173.3C219.8 174.3 223 178.3 228.4 178.2C233.9 178 246.5 180.4 247.4 182.1C248.2 183.8 231 178.5 224.4 181.6C217.8 184.7 243.1 182.8 247.2 186.6C251.3 190.4 239 186.2 239 186.2C239 186.2 222 183.8 219.4 185C216.8 186.2 213.9 189 213.9 189C213.9 189 215.6 192.4 217.3 191.7C219 191 216.8 193.7 216.8 193.7C216.8 193.7 240.8 199.5 246 204.7C251.3 209.7 215.6 196.7 215.6 196.7C215.6 196.7 201.2 201.9 216.4 202.3C214.7 204.8 217.4 206.3 217.4 206.3C217.4 206.3 242.6 211.7 245.2 215.8C247.7 219.8 227.9 211.8 223.5 209.6C219 207.4 206.4 211 206.5 211.8C206.7 212.7 212.7 213.9 212.9 215.4C213 217 205.5 217.4 205.5 218.8C205.5 220.2 237.5 226.8 246 234.1C254.5 241.4 220.9 225.5 220.9 225.5C220.9 225.5 222.8 228.1 220.9 228.8C219 229.4 212.3 219.2 201.4 225.5C199.4 228.1 211 230.2 213.9 230.5C212.9 233 212 233.9 216.1 236.5C220.2 239 208.1 232.7 208.1 233L208.9 237.5C205.1 234.5 200.6 233.5 196.3 236.6C196.3 236.6 196.1 239.7 200.6 241.6C198.1 246.6 203.3 245 211.5 249.6C199.3 246.4 198.3 252.4 207 253.7C215.8 255.1 239.7 255.9 245.3 263.3C251 270.6 237.3 260.5 235.8 260.3C235.422 261.502 235.187 262.743 235.1 264C231.61 261.702 227.755 260.011 223.7 259C223.4 259.8 223.5 260.7 223.1 261.4C219.1 258.6 215.7 256.6 210 256.3L209.3 259C209.3 259 204.5 253 195.1 259C189.8 262.8 214.9 260.4 219.1 264.8C223.1 269.3 219.9 270 219.9 270L209.6 266.2C209.6 266.2 197.5 264 194.1 266.7C190.6 269.4 244 276.1 245.5 283.5C246.5 287.5 233 279.3 221.2 275.8L219.9 279.8C219.9 279.8 215.2 275 209.9 274.2L210.9 278.8C210.9 278.8 197.9 272.7 191.2 275.9C184.5 279.2 214.4 280.9 217.2 283.9C219.9 287.1 208.1 281.9 207 283.9C206 286 191.5 280.2 191.7 282.9C191.8 285.7 193.7 287.2 193.7 287.2C193.7 287.2 224 290.2 225 293.7C226 297.3 208.2 291.7 208.2 291.7C208.2 291.7 206.5 294.2 207.9 295.4C209.3 296.6 197.6 288.6 198.7 293.9C194.9 292.4 185.2 287.7 186.5 291.3C187.9 294.9 214.1 300 214.1 300C214.1 300 202.6 300.9 203.1 303.8C188.4 294.8 188.8 300.6 189.1 300.8C189.4 300.9 170.1 295.9 184.7 303.8C199.2 311.7 192.5 310.3 192.7 310.5C192.9 310.6 194.2 314.5 193.9 314.5C193.5 314.5 183.9 309.3 180.7 308.9C177.5 308.6 162.1 313.2 178.5 320.4C194.9 327.6 205 318.7 214.1 319.7C223.1 320.7 227.4 322.3 226.5 325.2C225.7 328.1 217.3 315.6 208.5 326.4C198.4 324.4 191.5 323.3 196.7 330.6C180.3 324.6 170.3 332.6 191 335.8C211.3 336.4 223.8 330.8 223.8 330.8C223.8 330.8 227.2 337.1 232.2 332.7C237.2 328.2 237.3 334.4 237.5 334.4L242.3 332.4H243.5Z" fill="#198200" stroke="black" stroke-width="0.7" stroke-linecap="round" stroke-linejoin="round"/>
<path fill-rule="evenodd" clip-rule="evenodd" d="M245.5 308V305.2C245.5 305.2 239 304.1 235.9 304.7C233.9 303.7 232.2 302.2 230 303.4C229.6 304.4 234 306.8 235.6 306.8C237.4 307.9 245.5 308.2 245.5 308.1V308ZM245.4 312.7C245.4 312.7 238.9 310.4 236.4 313.1C236.8 316 244 317.4 245.4 316.6C247 315.8 245.4 312.9 245.4 312.7ZM256.3 313.9V315.9C256.3 315.9 264 317.4 265.3 315.7C266.7 314.1 259.3 313 256.3 313.9ZM255.9 305.9L256.2 308.2C256.2 308.2 262.9 309.7 265.4 306C268 302.4 259.6 306 255.9 305.9ZM256.3 298.1V299.6C256.3 299.6 261.3 300.4 262.4 298.3C263.6 296.1 256.4 298.3 256.3 298.1ZM245.8 293.5C245 292.5 242.3 289.7 235 288.9C230 288.9 244.2 296.4 245.8 293.5ZM256.1 285.9L255.9 287.9C255.9 287.9 273.1 282.9 277.1 283.2C280.7 282.2 281.4 279.7 281.3 279.7C278.2 277.5 263.4 281.5 256.1 285.9ZM256.5 279.9L256.3 281.9C256.3 281.9 268.3 279.5 271.6 277.2C274.8 274.9 256.6 279.9 256.5 279.8V279.9ZM256 273.9V275.9C256 275.9 264 275.7 265.7 274C266.7 272.4 258.6 273.8 256 273.9ZM272.8 290.9C272.8 290.9 277 291.4 277.8 290.2C277.7 288 272.8 290.9 272.8 290.8V290.9ZM256.3 266.4L256.4 270.8C256.4 270.8 275.8 264.6 277 263.5C278.2 262.4 281 258.9 256.3 266.4ZM255.8 260.2V263.4C255.8 263.4 263.6 262.9 267.2 259.9C270.7 256.9 255.8 260.3 255.8 260.2ZM246.4 252.9L246.9 255.9L221.3 247.5C221.3 247.5 220 243.3 246.3 252.9H246.4ZM246.8 242.6C246.8 242.9 246.8 245.4 246.7 245.3C246.7 245.3 228.9 237.9 228.2 238.5C225.9 233 246.8 242.7 246.8 242.5V242.6ZM255.5 247.2L255.8 249.7C255.8 249.7 266.7 247.4 267.3 246.3C267.9 245.3 255.5 247.3 255.5 247.2ZM255.7 253L256.1 255.5C256.1 255.5 260.4 255.2 261.1 254.2C261.7 253.2 255.7 253 255.7 253ZM255.1 239.7V242.2C255.1 242.2 267.1 239.8 268.4 238.7C269.7 237.5 254.8 239.7 255.1 239.7ZM255.1 233.1C255.1 233.3 254.7 235.6 255 235.6C260.733 234.807 266.344 233.295 271.7 231.1C274 229.1 255.3 233.4 255.1 233.1ZM254.9 221.5V224C254.9 224 264.1 222.1 265.9 220.2C267.7 218.3 254.9 221.7 254.9 221.5ZM253.3 204.6L253.6 208.4C253.6 208.4 265.9 206.7 267.7 204.6C269.5 202.6 253.3 204.6 253.3 204.6ZM247.6 176.2V178.6C247.6 178.6 241.7 178.3 243.2 177.3C244.6 176.3 247.6 176.4 247.6 176.3V176.2ZM253.1 179.4V182.6C253.1 182.6 260.8 181.9 261.4 180.6C261.9 179.5 253.2 179.4 253.1 179.4ZM252.6 184L252.9 186C253 186 255.9 185.8 256.5 185C257.1 184.2 252.9 184.2 252.6 184ZM246.2 193.2C246.2 193.4 246.4 196.2 246.2 196.2C246.2 196.2 229.7 191.4 228.2 191.5C226.6 191.5 226.2 187.7 246.2 193.2ZM247.5 198.6C247.5 199.1 247.9 202.1 247.3 202C246.7 201.9 236.1 198.5 237.3 197.5C238.3 196.5 247.5 198.8 247.5 198.5V198.6ZM246.6 221.2V223.9C246.6 223.9 228.2 218.3 227.6 217.4C226.9 216.4 225.1 212.1 246.6 221.2ZM247.3 227.8C247.3 227.9 247.5 230.4 247.3 230.4L222.3 221.6C222.3 221.6 220.3 215 247.3 227.8Z" fill="white" stroke="black" stroke-width="0.8" stroke-linecap="round" stroke-linejoin="round"/>
<path fill-rule="evenodd" clip-rule="evenodd" d="M217.5 314.7V317.5C217.5 317.5 212.5 316.1 211 313.4C213.9 312.6 217.6 314.8 217.5 314.7Z" fill="white" stroke="black" stroke-width="0.8" stroke-linejoin="round"/>
</g>
<defs>
<clipPath id="clip0_103_8512">
<rect width="512" height="512" fill="white" transform="translate(0.5)"/>
</clipPath>
</defs>
</svg>
