<svg width="513" height="512" viewBox="0 0 513 512" fill="none" xmlns="http://www.w3.org/2000/svg">
<g clip-path="url(#clip0_103_8524)">
<path d="M0.5 0H512.5V512H0.5V0Z" fill="#0067C6"/>
<path d="M0.5 170.7H512.5V341.3H0.5V170.7Z" fill="white"/>
<path d="M179.7 255.4L188.2 256L188.3 254.7L184.9 254.5L185.2 250.5L188.8 247.9V246.3L185.1 249C185 248.1 184.5 247.2 183.6 246.9C182.8 246.6 181.9 246.5 181.2 247.1C180.4 247.7 180.2 248.9 180.1 249.8L179.7 255.4ZM181 254.3L181.3 250.1C181.4 249.4 181.5 248.6 182.1 248.1C182.235 247.994 182.395 247.925 182.565 247.898C182.734 247.872 182.908 247.89 183.069 247.95C183.229 248.011 183.372 248.111 183.482 248.243C183.593 248.374 183.668 248.532 183.7 248.7C184.2 249.7 184 250.9 183.9 252L183.7 254.5L181 254.3ZM180.8 242.3L189.1 244.3L191.1 236.2L189.8 235.9L188.2 242.9L185.7 242.2L187.1 236L186 235.7L184.5 241.9L182.3 241.4L183.8 234.8L182.6 234.5L180.8 242.3ZM183.8 231.2L191.8 234L192.3 232.8L189.1 231.8L190.4 228.1C190.6 227.1 190.8 225.9 190.2 225C189.962 224.664 189.648 224.388 189.283 224.197C188.917 224.006 188.512 223.904 188.1 223.9C187.1 223.9 186.4 224.6 186 225.4C185.4 226.5 185 227.8 184.6 229L183.8 231.2ZM185.4 230.4L186.7 226.8C186.9 226.1 187.3 225.4 188 225.2C188.6 225 189.3 225.5 189.3 226.2C189.5 227.2 189 228.4 188.6 229.4L188 231.4L185.4 230.4ZM188.3 220.9L192.8 223.5C193.7 224 194.8 224.3 195.7 223.7C196.9 223.1 197.7 221.7 198.3 220.6C198.7 219.6 199.1 218.3 198.5 217.2C197.8 216.2 196.6 215.7 195.6 215L192.6 213.3L192.1 214.3C193.5 215.3 195 216.1 196.4 216.9C197.1 217.3 197.7 218.1 197.5 218.9C197.331 219.886 196.919 220.814 196.3 221.6C195.8 222.3 195 222.8 194.2 222.6C193.2 222.5 192.6 221.9 191.8 221.5L188.8 219.8L188.3 220.8V220.9ZM194.4 210.9L201.2 216L204.3 211.9C204.9 211 205.5 209.9 205.1 208.9C204.917 208.456 204.614 208.072 204.226 207.79C203.838 207.507 203.379 207.338 202.9 207.3C202.5 207.3 201.9 207.5 201.7 207.7C201.9 206.7 201.2 205.9 200.4 205.7C199.4 205.3 198.4 206 197.7 206.7C196.9 207.5 196.2 208.5 195.5 209.4L194.4 210.8V210.9ZM196.1 210.6L198.5 207.6C198.9 207.1 199.5 206.6 200.1 206.9C200.7 207.2 200.8 207.9 200.5 208.3C200.1 209.3 199.5 209.9 198.9 210.7L197.9 212L196.1 210.6ZM198.9 212.6L201.3 209.6C201.8 209.1 202.3 208.5 203 208.6C203.6 208.8 204 209.4 203.9 210C203.5 211.1 202.7 212 202 213L201 214.3L198.9 212.7V212.6ZM202.1 201.8L207.9 208L212.9 203.2L212.1 202.4L208.1 206.2H207.9L202.9 200.9L202.1 201.8ZM209.6 195.2L214.8 202L215.8 201.2L210.6 194.4L209.6 195.2ZM217.2 190C216.417 190.499 215.738 191.144 215.2 191.9C214.691 192.531 214.397 193.308 214.361 194.117C214.325 194.927 214.549 195.727 215 196.4C215.412 197.077 216 197.63 216.7 198C217.4 198.3 218.1 198.5 218.9 198.4C219.912 198.212 220.875 197.823 221.734 197.256C222.593 196.69 223.329 195.956 223.9 195.1C224.289 194.328 224.395 193.443 224.2 192.6L223 193.1C223.3 194.8 222.2 195.6 221 196.4C219 197.5 217.2 197.4 216 195.7C214.9 193.7 216.2 192.1 217.8 191C219 190.3 220.1 189.8 221.2 190.5L222.2 189.7C221.558 189.253 220.78 189.041 220 189.1C219.1 189.1 218.2 189.4 217.2 190.1V190ZM227.3 185L226.4 194.5L227.8 194L228 191L232.4 189.3L234.6 191.3L235.9 190.7L228.7 184.4L227.3 185ZM228.5 186L231.3 188.4L228.1 189.7L228.5 186ZM246 179.7L246.6 188.2L251.2 187.9C252.4 187.8 253.7 187.5 254.5 186.5C254.966 185.879 255.28 185.158 255.419 184.395C255.558 183.631 255.517 182.845 255.3 182.1C255.073 181.451 254.674 180.876 254.146 180.435C253.617 179.995 252.979 179.706 252.3 179.6C251.1 179.3 249.8 179.5 248.4 179.6L246 179.7ZM247.3 180.8L251 180.6C251.716 180.563 252.423 180.775 253 181.2C253.424 181.501 253.758 181.911 253.97 182.386C254.181 182.861 254.26 183.384 254.2 183.9C254.168 184.485 253.96 185.046 253.603 185.51C253.246 185.974 252.757 186.319 252.2 186.5L250.2 186.8L247.7 186.9L247.3 180.9V180.8ZM257.9 179.2L257.4 187.7L265.7 188.2V187L258.7 186.6L258.9 184L265.2 184.4L265.3 183.2L259 182.8V180.5L265.9 180.9V179.7L257.9 179.2ZM280.2 182.8L277.2 190.8L278.2 191.1L280.7 184.8V184.5L280.9 184.9L283.9 193.3L285.3 193.9L288.3 185.9L287.3 185.5L284.8 191.8V192.1L284.6 191.8L281.6 183.3L280.2 182.8ZM291.7 187.7L287.7 195.3L286.7 194.7L290.5 187.1L291.7 187.7ZM298.1 191.5C297.344 190.977 296.496 190.604 295.6 190.4C294.81 190.195 293.975 190.25 293.219 190.556C292.462 190.862 291.825 191.403 291.4 192.1C290.956 192.719 290.68 193.443 290.6 194.2C290.6 195 290.8 195.8 291.2 196.5C291.782 197.317 292.532 197.999 293.4 198.5C294.4 199.2 295.3 199.5 296.2 199.6C297.2 199.6 297.9 199.4 298.7 198.9L297.7 197.9C296.3 198.9 295.1 198.3 293.9 197.5C292 196.3 291.3 194.5 292.4 192.8C293.7 190.8 295.8 191.3 297.4 192.4C298.6 193.1 299.5 194 299.4 195.3L300.4 195.8C300.573 195.022 300.466 194.208 300.1 193.5C299.609 192.679 298.921 191.992 298.1 191.5ZM306.2 197.5L297.3 201.1L298.3 202.1L301.1 201L304.7 204L304 207L305 207.9L307.3 198.5L306.3 197.5H306.2ZM305.9 199.1L304.9 202.7L302.4 200.5L305.9 199.1ZM312.7 203.5L306.1 208.9L306.9 209.9L309.5 207.8L312.1 210.9L311.3 215.2L312.3 216.5L313.1 211.9C313.9 212.5 315 212.9 315.8 212.3C316.6 212 317.3 211.3 317.3 210.4C317.4 209.2 316.6 208.3 315.9 207.4L312.7 203.5ZM312.5 205.2C313.5 206.4 314.5 207.5 315.3 208.7C315.7 209.3 316.3 210.1 315.7 210.8C315.4 211.4 314.5 211.4 314 211C313 210.3 312.3 209.2 311.4 208.3L310.4 207L312.5 205.2ZM322.6 217.1L313 217.5L313.8 218.8L316.8 218.6L319.1 222.6L317.4 225.2L318.2 226.4L323.4 218.4L322.7 217.1H322.6ZM321.8 218.4L319.8 221.5L318.1 218.5L321.8 218.4ZM328.1 228.4C327.6 226.9 326.7 225.4 325.3 224.7C324.502 224.311 323.598 224.197 322.729 224.379C321.86 224.56 321.076 225.025 320.5 225.7C319.5 226.9 319.5 228.5 319.7 229.9C319.993 231.578 320.756 233.139 321.9 234.4L321.3 234.6L321.7 235.7L325.7 234.3L324.1 230L323.2 230.3L324.4 233.5L323 234C321.869 232.928 321.1 231.53 320.8 230C320.5 228.8 320.5 227.4 321.4 226.6C322.4 225.6 324.1 225.2 325.4 226.1C326.457 227.037 327.163 228.307 327.4 229.7C327.7 230.6 327.7 231.7 327 232.4C326.8 232.5 327 232.7 327.1 232.9L327.5 233.4C327.854 233.111 328.137 232.744 328.328 232.328C328.519 231.912 328.612 231.458 328.6 231C328.6 230.1 328.4 229.2 328.1 228.4ZM330.6 235.1L325.8 236C324.9 236.2 324.3 236.4 323.8 236.8C323.4 237.2 323.1 237.7 322.9 238.4C322.766 239.265 322.8 240.148 323 241C323.2 242 323.5 242.8 324 243.4C324.3 244 324.8 244.4 325.3 244.6C325.9 244.7 326.6 244.8 327.5 244.6L332.2 243.6L332 242.4L327.4 243.4C325.3 243.7 324.6 242.6 324.2 240.8C323.8 238.8 324.1 237.6 326.2 237.2L330.8 236.2L330.6 235.1ZM333.2 249.6L324.4 245.8V247.2L327.2 248.4L327.5 253L325 254.6L325.1 256L333.3 251L333.2 249.6ZM331.9 250.4L328.7 252.4L328.4 248.9L331.9 250.4ZM186.3 271.7L185.1 272L186.4 277.2L187.7 276.9L186.3 271.7ZM326.7 271.7L327.9 272L326.6 277.2L325.3 276.9L326.7 271.7ZM199.5 293.5L190 294.6L190.8 295.8L193.8 295.5L196.3 299.4L194.9 302L195.7 303.2L200.3 294.7L199.5 293.5ZM198.8 294.9L197 298.2L195 295.3L198.8 294.9ZM203.2 298.8L197.1 304.4L197.9 305.4L203 300.5L200.3 307.9L201.3 308.9L208.6 306.7L203.6 311.4L204.4 312.2L210.4 306.6L209.2 305.2L201.8 307.5L204.6 300.2L203.2 298.8ZM212 307.8L206.9 314.6L213.5 319.6L214.2 318.6L208.6 314.4L210.2 312.4L215.2 316.1L216 315.1L210.9 311.3L212.3 309.5L217.7 313.6L218.4 312.6L212 307.8ZM220.4 313.9L216.4 321.4L217.4 322L219 319L222.7 321L223.5 325.3L224.9 326L224 321.5C225 321.8 226 321.6 226.7 320.9C227.2 320.3 227.6 319.4 227.3 318.6C227 317.5 225.9 316.9 225 316.4L220.4 313.9ZM220.9 315.6L224.8 317.6C225.3 318.1 226.1 318.6 226 319.4C226 320.1 225.2 320.4 224.6 320.4C223.3 320.1 222.3 319.4 221.2 318.8L219.6 318L220.9 315.6ZM230 318.9L226.8 326.9L228 327.3L231.2 319.4L230 318.9ZM237.7 321.6C236.834 321.296 235.917 321.16 235 321.2C234.191 321.208 233.405 321.474 232.757 321.96C232.11 322.446 231.634 323.125 231.4 323.9C231.13 324.635 231.061 325.429 231.2 326.2C231.4 327 231.8 327.7 232.4 328.2C233.148 328.882 234.035 329.394 235 329.7C236.1 330.1 237.1 330.1 238 330C238.879 329.816 239.661 329.318 240.2 328.6L239.1 328C237.9 329.3 236.6 329 235.2 328.6C233.1 327.8 232 326.3 232.6 324.3C233.3 322.1 235.4 322.1 237.3 322.7C238.6 323.1 239.7 323.7 239.9 325L241.1 325.1C241.002 324.34 240.649 323.635 240.1 323.1C239.436 322.41 238.612 321.894 237.7 321.6ZM246.3 323.6L240.7 331.3L242.1 331.5L243.8 329.1L248.4 329.8L249.4 332.6L250.8 332.8L247.7 323.8L246.3 323.5V323.6ZM246.8 325L248 328.5L244.6 328L246.8 325ZM266.3 323.6C265.376 323.761 264.493 324.101 263.7 324.6C263.004 325.005 262.455 325.62 262.132 326.357C261.808 327.094 261.727 327.914 261.9 328.7C262.055 329.442 262.4 330.131 262.9 330.7C263.4 331.4 264.1 331.7 264.9 332C265.7 332.2 266.7 332.2 267.9 332C268.898 331.811 269.829 331.363 270.6 330.7C271.281 330.145 271.742 329.365 271.9 328.5H270.5C270.2 330.2 268.9 330.5 267.5 330.9C265.2 331.3 263.5 330.5 263.1 328.5C262.7 326.2 264.5 325.1 266.4 324.7C267.7 324.4 269 324.4 269.7 325.4L270.9 325C270.462 324.378 269.829 323.92 269.1 323.7C268.126 323.404 267.091 323.37 266.1 323.6H266.3ZM272 322.6L274.4 330.8L282.4 328.4L282 327.2L275.3 329.2L274.5 326.8L280.6 324.9L280.3 323.8L274.2 325.6L273.5 323.4L280 321.4L279.7 320.3L272 322.6ZM281.2 319.6L284.8 327.4L285.8 326.9L282.8 320.5L291.1 324.3H291.7L292.7 323.7L289.2 316L288.2 316.5L291.1 322.9L282.6 319L281.2 319.7V319.6ZM290.6 315.3L291.3 316.3L294.3 314.3L294.4 314.2L298.4 320.3L299.4 319.6L295.5 313.6V313.4L298.6 311.4L298 310.4L290.6 315.3ZM299.2 309.3L305 315.7L305.9 314.8L303.6 312.4L306.6 309.6L311 310.1L312.1 309.1L307.5 308.5C308.1 307.7 308.3 306.5 307.8 305.7C307.4 305 306.7 304.4 305.8 304.4C304.6 304.4 303.8 305.2 302.8 306L299.2 309.4V309.3ZM300.9 309.4L304.2 306.4C304.7 306 305.6 305.4 306.3 305.9C306.9 306.3 306.9 307.1 306.5 307.7C305.9 308.7 304.9 309.5 304 310.4L302.8 311.4L300.9 309.4ZM309.1 299.4L312.9 308.3L313.9 307.2L312.6 304.4L315.6 300.8L318.5 301.5L319.4 300.3L310 298.3L309.1 299.5V299.4ZM310.6 299.8L314.3 300.5L312.1 303.2L310.6 299.8ZM312.8 294.6L320 299.3L323.7 293.5L322.7 292.8L319.7 297.4V297.6L319.5 297.5L313.5 293.5L312.8 294.6Z" fill="#C8A400"/>
<mask id="mask0_103_8524" style="mask-type:luminance" maskUnits="userSpaceOnUse" x="202" y="193" width="109" height="95">
<path d="M256.465 193.194L202.108 287.316H310.822L256.465 193.194Z" fill="white"/>
</mask>
<g mask="url(#mask0_103_8524)">
<path d="M256.465 193.194L229.585 239.7L216.444 262.484H296.486L283.942 240.81L256.465 193.194Z" fill="white"/>
<path opacity="0.6" d="M256.465 193.194L254.417 196.607L256.465 243.54L258.513 196.607L256.465 193.194Z" fill="#17C0EB" stroke="#17C0EB" stroke-width="0.085333"/>
<path d="M256.465 236.799H256.38L256.465 239.359L256.551 236.799H256.465Z" fill="white"/>
<path opacity="0.6" d="M304.429 228.042L300.55 227.149L256.546 243.599L301.815 231.044L304.429 228.042Z" fill="#17C0EB" stroke="#17C0EB" stroke-width="0.085333"/>
<path d="M262.958 241.516L262.931 241.435L260.523 242.307L262.984 241.597L262.958 241.516Z" fill="white"/>
<path opacity="0.6" d="M286.108 284.426L285.759 280.461L256.515 243.695L282.445 282.868L286.108 284.426Z" fill="#17C0EB" stroke="#17C0EB" stroke-width="0.085333"/>
<path d="M260.478 249.149L260.547 249.099L258.973 247.078L260.409 249.199L260.478 249.149Z" fill="white"/>
<path opacity="0.6" d="M226.822 284.426L230.485 282.868L256.415 243.695L227.172 280.461L226.822 284.426Z" fill="#17C0EB" stroke="#17C0EB" stroke-width="0.085333"/>
<path d="M252.453 249.149L252.522 249.199L253.957 247.077L252.384 249.098L252.453 249.149Z" fill="white"/>
<path opacity="0.6" d="M208.502 228.042L211.115 231.044L256.384 243.599L212.381 227.149L208.502 228.042Z" fill="#17C0EB" stroke="#17C0EB" stroke-width="0.085333"/>
<path d="M249.973 241.516L249.946 241.598L252.407 242.308L249.999 241.435L249.973 241.516Z" fill="white"/>
<path opacity="0.6" d="M263.484 193.685L260.981 196.78L256.477 243.541L265.037 197.35L263.484 193.685Z" fill="#17C0EB" stroke="#17C0EB" stroke-width="0.085333"/>
<path d="M257.415 236.866L257.331 236.854L257.059 239.401L257.5 236.878L257.415 236.866Z" fill="white"/>
<path opacity="0.6" d="M306.131 234.868L302.414 233.444L256.549 243.611L303.125 237.478L306.131 234.868Z" fill="#17C0EB" stroke="#17C0EB" stroke-width="0.085333"/>
<path d="M263.188 242.44L263.173 242.356L260.667 242.885L263.203 242.525L263.188 242.44Z" fill="white"/>
<path opacity="0.6" d="M280.141 288.154L280.347 284.179L256.505 243.701L276.731 286.102L280.141 288.154Z" fill="#17C0EB" stroke="#17C0EB" stroke-width="0.085333"/>
<path d="M259.67 249.653L259.745 249.613L258.468 247.393L259.595 249.693L259.67 249.653Z" fill="white"/>
<path opacity="0.6" d="M221.432 279.904L225.277 278.871L256.406 243.687L222.33 276.026L221.432 279.904Z" fill="#17C0EB" stroke="#17C0EB" stroke-width="0.085333"/>
<path d="M251.723 248.536L251.784 248.596L253.501 246.695L251.662 248.477L251.723 248.536Z" fill="white"/>
<path opacity="0.6" d="M211.138 221.518L213.308 224.855L256.389 243.588L215.103 221.173L211.138 221.518Z" fill="#17C0EB" stroke="#17C0EB" stroke-width="0.085333"/>
<path d="M250.33 240.633L250.292 240.709L252.631 241.755L250.367 240.556L250.33 240.633Z" fill="white"/>
<path opacity="0.6" d="M270.366 195.148L267.456 197.864L256.489 243.544L271.394 198.993L270.366 195.148Z" fill="#17C0EB" stroke="#17C0EB" stroke-width="0.085333"/>
<path d="M258.347 237.064L258.265 237.04L257.641 239.524L258.429 237.087L258.347 237.064Z" fill="white"/>
<path opacity="0.6" d="M306.866 241.866L303.383 239.938L256.55 243.623L303.526 244.031L306.866 241.866Z" fill="#17C0EB" stroke="#17C0EB" stroke-width="0.085333"/>
<path d="M263.288 243.388L263.285 243.302L260.729 243.477L263.291 243.473L263.288 243.388Z" fill="white"/>
<path opacity="0.6" d="M273.714 291.016L274.471 287.108L256.494 243.706L270.622 288.509L273.714 291.016Z" fill="#17C0EB" stroke="#17C0EB" stroke-width="0.085333"/>
<path d="M258.8 250.04L258.88 250.011L257.924 247.635L258.72 250.07L258.8 250.04Z" fill="white"/>
<path opacity="0.6" d="M216.724 274.675L220.675 274.187L256.398 243.678L218.153 270.959L216.724 274.675Z" fill="#17C0EB" stroke="#17C0EB" stroke-width="0.085333"/>
<path d="M251.086 247.829L251.138 247.896L253.103 246.253L251.033 247.762L251.086 247.829Z" fill="white"/>
<path opacity="0.6" d="M214.655 215.425L216.34 219.031L256.394 243.578L218.63 215.636L214.655 215.425Z" fill="#17C0EB" stroke="#17C0EB" stroke-width="0.085333"/>
<path d="M250.806 239.809L250.758 239.879L252.928 241.24L250.853 239.738L250.806 239.809Z" fill="white"/>
<path opacity="0.6" d="M276.978 197.554L273.718 199.839L256.5 243.547L277.46 201.505L276.978 197.554Z" fill="#17C0EB" stroke="#17C0EB" stroke-width="0.085333"/>
<path d="M259.242 237.389L259.164 237.354L258.201 239.728L259.32 237.424L259.242 237.389Z" fill="white"/>
<path opacity="0.6" d="M306.621 248.897L303.44 246.503L256.55 243.634L303.012 250.577L306.621 248.897Z" fill="#17C0EB" stroke="#17C0EB" stroke-width="0.085333"/>
<path d="M263.254 244.339L263.263 244.254L260.708 244.071L263.245 244.424L263.254 244.339Z" fill="white"/>
<path opacity="0.6" d="M266.95 292.955L268.244 289.191L256.483 243.709L264.237 290.042L266.95 292.955Z" fill="#17C0EB" stroke="#17C0EB" stroke-width="0.085333"/>
<path d="M257.884 250.303L257.968 250.285L257.352 247.799L257.801 250.321L257.884 250.303Z" fill="white"/>
<path opacity="0.6" d="M212.79 268.841L216.77 268.908L256.391 243.668L214.722 265.361L212.79 268.841Z" fill="#17C0EB" stroke="#17C0EB" stroke-width="0.085333"/>
<path d="M250.553 247.038L250.595 247.112L252.77 245.758L250.51 246.964L250.553 247.038Z" fill="white"/>
<path opacity="0.6" d="M218.987 209.88L220.153 213.686L256.402 243.568L222.894 210.642L218.987 209.88Z" fill="#17C0EB" stroke="#17C0EB" stroke-width="0.085333"/>
<path d="M251.392 239.058L251.335 239.121L253.294 240.771L251.449 238.994L251.392 239.058Z" fill="white"/>
<path opacity="0.6" d="M283.19 200.857L279.644 202.667L256.51 243.553L283.118 204.837L283.19 200.857Z" fill="#17C0EB" stroke="#17C0EB" stroke-width="0.085333"/>
<path d="M260.083 237.837L260.01 237.792L258.726 240.008L260.155 237.882L260.083 237.837Z" fill="white"/>
<path opacity="0.6" d="M305.399 255.826L302.582 253.013L256.548 243.646L301.591 256.987L305.399 255.826Z" fill="#17C0EB" stroke="#17C0EB" stroke-width="0.085333"/>
<path d="M263.089 245.277L263.11 245.194L260.605 244.658L263.068 245.36L263.089 245.277Z" fill="white"/>
<path opacity="0.6" d="M259.983 293.935L261.788 290.387L256.471 243.711L257.702 290.673L259.983 293.935Z" fill="#17C0EB" stroke="#17C0EB" stroke-width="0.085333"/>
<path d="M256.941 250.436L257.026 250.43L256.763 247.882L256.856 250.442L256.941 250.436Z" fill="white"/>
<path opacity="0.6" d="M209.705 262.518L213.637 263.138L256.386 243.658L212.103 259.34L209.705 262.518Z" fill="#17C0EB" stroke="#17C0EB" stroke-width="0.085333"/>
<path d="M250.136 246.183L250.167 246.262L252.509 245.224L250.104 246.104L250.136 246.183Z" fill="white"/>
<path opacity="0.6" d="M224.048 204.993L224.673 208.924L256.41 243.56L227.811 206.291L224.048 204.993Z" fill="#17C0EB" stroke="#17C0EB" stroke-width="0.085333"/>
<path d="M252.077 238.396L252.011 238.451L253.722 240.357L252.142 238.341L252.077 238.396Z" fill="white"/>
<path opacity="0.6" d="M288.882 204.993L285.119 206.291L256.52 243.56L288.257 208.924L288.882 204.993Z" fill="#17C0EB" stroke="#17C0EB" stroke-width="0.085333"/>
<path d="M260.853 238.396L260.788 238.341L259.208 240.357L260.919 238.451L260.853 238.396Z" fill="white"/>
<path opacity="0.6" d="M303.225 262.518L300.827 259.34L256.544 243.657L299.293 263.138L303.225 262.518Z" fill="#17C0EB" stroke="#17C0EB" stroke-width="0.085333"/>
<path d="M262.794 246.183L262.826 246.104L260.421 245.224L262.762 246.262L262.794 246.183Z" fill="white"/>
<path opacity="0.6" d="M252.947 293.934L255.228 290.672L256.459 243.71L251.142 290.386L252.947 293.934Z" fill="#17C0EB" stroke="#17C0EB" stroke-width="0.085333"/>
<path d="M255.989 250.435L256.074 250.441L256.167 247.882L255.904 250.43L255.989 250.435Z" fill="white"/>
<path opacity="0.6" d="M207.531 255.826L211.339 256.988L256.382 243.646L210.348 253.013L207.531 255.826Z" fill="#17C0EB" stroke="#17C0EB" stroke-width="0.085333"/>
<path d="M249.841 245.277L249.862 245.36L252.325 244.658L249.821 245.194L249.841 245.277Z" fill="white"/>
<path opacity="0.6" d="M229.74 200.857L229.812 204.837L256.42 243.553L233.286 202.667L229.74 200.857Z" fill="#17C0EB" stroke="#17C0EB" stroke-width="0.085333"/>
<path d="M252.848 237.837L252.775 237.882L254.204 240.008L252.92 237.791L252.848 237.837Z" fill="white"/>
<path opacity="0.6" d="M293.943 209.88L290.036 210.642L256.529 243.569L292.777 213.686L293.943 209.88Z" fill="#17C0EB" stroke="#17C0EB" stroke-width="0.085333"/>
<path d="M261.538 239.058L261.481 238.995L259.636 240.771L261.595 239.121L261.538 239.058Z" fill="white"/>
<path opacity="0.6" d="M300.14 268.841L298.208 265.361L256.539 243.668L296.16 268.908L300.14 268.841Z" fill="#17C0EB" stroke="#17C0EB" stroke-width="0.085333"/>
<path d="M262.377 247.039L262.42 246.965L260.16 245.759L262.334 247.113L262.377 247.039Z" fill="white"/>
<path opacity="0.6" d="M245.98 292.956L248.693 290.043L256.448 243.709L244.686 289.191L245.98 292.956Z" fill="#17C0EB" stroke="#17C0EB" stroke-width="0.085333"/>
<path d="M255.046 250.303L255.129 250.321L255.578 247.799L254.962 250.285L255.046 250.303Z" fill="white"/>
<path opacity="0.6" d="M206.31 248.897L209.918 250.577L256.38 243.635L209.49 246.504L206.31 248.897Z" fill="#17C0EB" stroke="#17C0EB" stroke-width="0.085333"/>
<path d="M249.676 244.339L249.685 244.424L252.222 244.072L249.667 244.255L249.676 244.339Z" fill="white"/>
<path opacity="0.6" d="M235.953 197.554L235.47 201.505L256.43 243.548L239.212 199.839L235.953 197.554Z" fill="#17C0EB" stroke="#17C0EB" stroke-width="0.085333"/>
<path d="M253.689 237.389L253.611 237.424L254.73 239.728L253.767 237.354L253.689 237.389Z" fill="white"/>
<path opacity="0.6" d="M298.275 215.424L294.3 215.635L256.536 243.578L296.591 219.031L298.275 215.424Z" fill="#17C0EB" stroke="#17C0EB" stroke-width="0.085333"/>
<path d="M262.125 239.808L262.077 239.737L260.003 241.24L262.173 239.879L262.125 239.808Z" fill="white"/>
<path opacity="0.6" d="M296.206 274.674L294.777 270.959L256.532 243.678L292.255 274.187L296.206 274.674Z" fill="#17C0EB" stroke="#17C0EB" stroke-width="0.085333"/>
<path d="M261.845 247.828L261.897 247.761L259.827 246.252L261.792 247.896L261.845 247.828Z" fill="white"/>
<path opacity="0.6" d="M239.217 291.016L242.309 288.509L256.436 243.706L238.46 287.108L239.217 291.016Z" fill="#17C0EB" stroke="#17C0EB" stroke-width="0.085333"/>
<path d="M254.131 250.04L254.211 250.069L255.006 247.635L254.05 250.011L254.131 250.04Z" fill="white"/>
<path opacity="0.6" d="M206.064 241.865L209.404 244.031L256.38 243.622L209.547 239.938L206.064 241.865Z" fill="#17C0EB" stroke="#17C0EB" stroke-width="0.085333"/>
<path d="M249.643 243.387L249.64 243.473L252.201 243.477L249.646 243.302L249.643 243.387Z" fill="white"/>
<path opacity="0.6" d="M242.564 195.147L241.537 198.993L256.442 243.544L245.474 197.864L242.564 195.147Z" fill="#17C0EB" stroke="#17C0EB" stroke-width="0.085333"/>
<path d="M254.583 237.063L254.501 237.087L255.289 239.524L254.666 237.04L254.583 237.063Z" fill="white"/>
<path opacity="0.6" d="M301.793 221.517L297.827 221.173L256.542 243.588L299.623 224.854L301.793 221.517Z" fill="#17C0EB" stroke="#17C0EB" stroke-width="0.085333"/>
<path d="M262.601 240.633L262.563 240.556L260.3 241.755L262.638 240.71L262.601 240.633Z" fill="white"/>
<path opacity="0.6" d="M291.498 279.903L290.6 276.025L256.524 243.687L287.654 278.87L291.498 279.903Z" fill="#17C0EB" stroke="#17C0EB" stroke-width="0.085333"/>
<path d="M261.207 248.536L261.269 248.477L259.429 246.695L261.146 248.596L261.207 248.536Z" fill="white"/>
<path opacity="0.6" d="M232.789 288.154L236.2 286.101L256.425 243.7L232.583 284.179L232.789 288.154Z" fill="#17C0EB" stroke="#17C0EB" stroke-width="0.085333"/>
<path d="M253.26 249.653L253.336 249.693L254.462 247.392L253.185 249.613L253.26 249.653Z" fill="white"/>
<path opacity="0.6" d="M206.799 234.868L209.805 237.477L256.381 243.61L210.517 233.444L206.799 234.868Z" fill="#17C0EB" stroke="#17C0EB" stroke-width="0.085333"/>
<path d="M249.742 242.44L249.727 242.524L252.263 242.884L249.757 242.356L249.742 242.44Z" fill="white"/>
<path opacity="0.6" d="M249.447 193.684L247.893 197.349L256.453 243.541L251.95 196.779L249.447 193.684Z" fill="#17C0EB" stroke="#17C0EB" stroke-width="0.085333"/>
<path d="M255.515 236.865L255.431 236.877L255.871 239.4L255.6 236.853L255.515 236.865Z" fill="white"/>
<path d="M256.465 226.815C247.375 226.805 238.587 230.077 231.719 236.031L219.26 257.706C218.814 260.04 218.585 262.411 218.577 264.788H222.844C223.278 256.175 227.006 248.059 233.255 242.116C239.505 236.174 247.799 232.86 256.423 232.86C265.046 232.86 273.34 236.174 279.59 242.116C285.84 248.059 289.567 256.175 290.001 264.788H294.268C294.288 262.414 294.088 260.043 293.67 257.706L281.212 236.031C274.339 230.084 265.554 226.812 256.465 226.815Z" fill="#FF0000"/>
<path d="M256.465 227.583C246.821 227.563 237.548 231.297 230.609 237.994L220.369 255.828C219.644 258.731 219.272 261.711 219.26 264.703H222.929C223.535 256.222 227.331 248.285 233.553 242.491C239.776 236.697 247.963 233.476 256.465 233.476C264.968 233.476 273.154 236.697 279.377 242.491C285.6 248.285 289.396 256.222 290.001 264.703H293.67C293.663 261.682 293.291 258.674 292.561 255.743L282.321 237.994C275.382 231.297 266.109 227.563 256.465 227.583Z" fill="#FF6600"/>
<path d="M256.465 228.266C251.309 228.252 246.209 229.333 241.502 231.436C236.795 233.54 232.588 236.618 229.159 240.468L221.735 253.268C220.552 256.992 219.976 260.882 220.028 264.788H222.844C223.278 256.175 227.006 248.059 233.255 242.116C239.505 236.174 247.799 232.86 256.422 232.86C265.046 232.86 273.34 236.174 279.59 242.116C285.839 248.059 289.567 256.175 290.001 264.788H292.988C292.988 260.778 292.305 256.938 291.196 253.354L283.686 240.468C280.27 236.625 276.078 233.55 271.385 231.446C266.693 229.343 261.607 228.259 256.465 228.266Z" fill="#FFFF00"/>
<path d="M256.465 228.948C250.579 228.945 244.784 230.391 239.59 233.16C234.395 235.928 229.963 239.932 226.684 244.82L224.295 249.001C221.876 253.912 220.621 259.314 220.625 264.788H222.929C223.535 256.307 227.331 248.37 233.553 242.576C239.776 236.782 247.963 233.561 256.465 233.561C264.968 233.561 273.154 236.782 279.377 242.576C285.599 248.37 289.396 256.307 290.001 264.788H292.305C292.309 259.314 291.054 253.912 288.636 249.001L286.246 244.735C282.967 239.847 278.535 235.842 273.341 233.074C268.147 230.306 262.351 228.86 256.465 228.863V228.948Z" fill="#00FF00"/>
<path d="M256.465 229.545C251.841 229.545 247.262 230.458 242.991 232.23C238.72 234.002 234.841 236.599 231.575 239.873C228.309 243.147 225.721 247.032 223.96 251.308C222.198 255.583 221.297 260.164 221.308 264.788H222.929C223.535 256.307 227.331 248.37 233.553 242.576C239.776 236.782 247.963 233.561 256.465 233.561C264.968 233.561 273.154 236.782 279.377 242.576C285.599 248.37 289.396 256.307 290.001 264.788H291.622C291.634 260.164 290.733 255.583 288.971 251.308C287.209 247.032 284.621 243.147 281.355 239.873C278.09 236.599 274.21 234.002 269.939 232.23C265.668 230.458 261.089 229.545 256.465 229.545Z" fill="#00CCFF"/>
<path d="M256.465 230.228C247.322 230.228 238.553 233.86 232.088 240.325C225.623 246.791 221.991 255.559 221.991 264.703H223.185C223.185 255.876 226.692 247.411 232.933 241.17C239.174 234.929 247.639 231.423 256.465 231.423C265.292 231.423 273.756 234.929 279.998 241.17C286.239 247.411 289.745 255.876 289.745 264.703H290.94C290.895 255.589 287.243 246.864 280.782 240.436C274.322 234.007 265.579 230.399 256.465 230.399V230.228Z" fill="#0000FF"/>
<path d="M256.465 230.996C251.977 230.996 247.533 231.889 243.394 233.625C239.255 235.36 235.503 237.903 232.357 241.104C229.211 244.306 226.735 248.102 225.072 252.271C223.409 256.44 222.594 260.898 222.673 265.386H223.356V264.703C223.446 255.922 227.022 247.536 233.295 241.391C239.568 235.246 248.025 231.845 256.806 231.935C265.588 232.026 273.973 235.601 280.118 241.874C286.263 248.147 289.665 256.605 289.574 265.386H290.257V264.703C290.257 260.265 289.383 255.871 287.685 251.771C285.987 247.672 283.497 243.946 280.36 240.809C277.222 237.671 273.497 235.182 269.397 233.483C265.297 231.785 260.903 230.911 256.465 230.911V230.996Z" fill="#800080"/>
<path d="M256.807 245.844C256.209 245.844 255.783 245.417 255.271 245.332C255.022 245.551 254.835 245.833 254.73 246.147C254.625 246.462 254.606 246.799 254.673 247.124C254.929 247.209 254.929 247.465 255.441 247.892C255.953 248.319 255.868 248.489 255.783 249.599C255.783 249.94 255.868 250.879 256.295 250.964C256.721 251.049 257.148 250.708 257.233 249.94C257.319 249.343 257.575 248.916 257.831 248.575C258.087 246.953 257.66 246.356 256.807 245.844Z" fill="#510000"/>
<path d="M254.076 241.919C253.564 241.919 252.71 242.772 252.369 242.346C252.198 242.09 252.113 241.578 252.369 241.151C252.753 240.302 253.416 239.61 254.246 239.188C256.209 237.994 257.574 238.335 258.513 240.042C259.452 241.578 260.39 243.284 260.476 244.65C260.476 245.076 260.732 245.844 260.305 246.271C259.196 247.466 256.38 244.991 254.758 245.418C254.246 245.503 253.564 245.93 253.052 245.588C252.71 245.332 253.052 244.735 253.308 244.479C253.82 244.052 254.588 242.431 254.502 241.748C254.502 241.407 254.502 241.919 254.076 241.919Z" fill="#FF0000"/>
<path d="M253.905 241.151C252.881 241.492 253.052 242.004 252.54 242.431C252.711 242.516 253.223 242.687 253.735 242.175C253.905 242.004 254.161 241.919 254.332 241.919L253.735 242.516C253.228 242.933 252.82 243.458 252.54 244.052C252.284 244.735 252.199 245.503 252.284 245.588C252.284 245.588 252.625 246.271 253.564 246.612C255.271 247.295 255.612 248.745 257.404 248.745C258.769 248.745 258.599 247.807 259.708 247.977C260.561 248.148 261.159 247.38 260.22 246.953C258.698 246.654 257.133 246.654 255.612 246.953C255.271 243.54 255.612 244.735 255.527 243.199C255.441 241.748 254.929 241.663 255.527 240.383C255.1 241.236 254.503 241.065 253.82 241.065L253.905 241.151Z" fill="url(#paint0_linear_103_8524)"/>
<path d="M257.318 238.762L257.233 239.274L257.489 240.127L257.66 240.98C257.66 241.236 258.001 241.322 258.257 241.492C258.598 241.748 258.257 242.346 258.513 242.431C258.684 242.431 258.94 241.578 258.94 241.407V240.81C258.806 240.549 258.664 240.293 258.513 240.042C258.461 239.954 258.404 239.868 258.342 239.786C258.153 239.498 257.923 239.24 257.66 239.018C257.577 238.957 257.492 238.9 257.404 238.847L257.233 238.762H257.318Z" fill="#FF2A2A"/>
<path d="M257.574 245.247L255.868 244.65C254.758 244.308 253.649 243.626 252.881 243.967C252.625 244.052 252.625 244.308 252.54 244.735C252.54 245.162 252.113 245.844 252.54 245.588C253.052 245.247 254.588 246.271 255.1 246.527C255.356 246.698 255.953 247.039 256.038 247.38C256.209 247.892 256.038 248.916 256.038 249.428C256.038 249.855 256.209 250.964 256.636 251.135C257.148 251.22 257.574 250.794 257.745 250.026C258.001 249.258 258.086 248.831 258.428 248.404C258.769 247.978 259.11 247.722 259.537 247.636C260.049 247.636 260.732 248.063 260.732 247.466C260.732 247.124 260.39 246.783 260.561 246.271C260.646 245.844 260.22 245.93 259.793 245.759L257.489 245.247H257.574Z" fill="url(#paint1_linear_103_8524)"/>
<path d="M255.1 246.527C254.758 246.356 253.137 245.247 252.54 245.674C252.284 245.674 252.198 245.674 252.198 245.418L252.369 244.65C252.369 244.394 252.54 243.967 252.796 243.796C253.393 243.284 254.758 244.223 255.441 244.479L255.1 246.527Z" fill="#910000"/>
<path d="M258.001 248.66C258.769 247.295 259.281 247.466 260.22 247.466C260.561 247.466 260.647 247.209 260.561 246.868C260.305 247.38 259.111 246.868 258.428 247.124C257.148 247.722 257.404 250.281 256.721 250.537C257.404 251.135 257.66 249.087 258.001 248.66Z" fill="#FF3A3A"/>
<path d="M216.444 262.484L207.911 277.247H305.105L296.572 262.57H216.529L216.444 262.484Z" fill="white"/>
<path d="M213.543 274.26C212.202 274.258 210.862 274.344 209.532 274.516L209.105 275.284C211.153 275.028 213.116 274.687 215.249 274.687C217.98 274.687 220.54 275.37 223.526 275.37H227.452C230.438 275.37 232.913 274.687 235.729 274.687C238.545 274.687 241.105 275.37 244.092 275.37H248.017C251.004 275.37 253.478 274.687 256.294 274.687C259.11 274.687 261.67 275.37 264.657 275.37H268.497C271.484 275.37 274.044 274.687 276.86 274.687C279.676 274.687 282.236 275.37 285.222 275.37H289.062C292.049 275.37 294.609 274.687 297.425 274.687C299.644 274.687 301.692 275.114 303.825 275.284L303.398 274.431C302.151 274.302 300.897 274.245 299.644 274.26H295.804C292.817 274.26 290.257 274.858 287.441 274.943C284.625 274.943 282.065 274.26 279.078 274.26H275.238C272.252 274.26 269.692 274.858 266.876 274.943C264.06 274.943 261.5 274.26 258.513 274.26H254.758C251.772 274.26 249.212 274.858 246.396 274.943C243.58 274.943 241.02 274.26 238.033 274.26H234.193C231.206 274.26 228.646 274.858 225.83 274.943C223.015 274.943 220.54 274.26 217.553 274.26H213.628H213.543Z" fill="url(#paint2_linear_103_8524)"/>
<path d="M213.543 273.321C212.202 273.319 210.862 273.405 209.532 273.577L209.105 274.345C211.153 274.089 213.116 273.748 215.249 273.748C217.98 273.748 220.54 274.431 223.526 274.431H227.452C230.438 274.431 232.913 273.748 235.729 273.748C238.545 273.748 241.105 274.431 244.092 274.431H248.017C251.004 274.431 253.478 273.748 256.294 273.748C259.11 273.748 261.67 274.431 264.657 274.431H268.497C271.484 274.431 274.044 273.748 276.86 273.748C279.676 273.748 282.236 274.431 285.222 274.431H289.062C292.049 274.431 294.609 273.748 297.425 273.748C299.644 273.748 301.692 274.175 303.825 274.345L303.398 273.492C302.151 273.363 300.897 273.306 299.644 273.321H295.804C292.817 273.321 290.257 273.919 287.441 274.004C284.625 274.004 282.065 273.321 279.078 273.321H275.238C272.252 273.321 269.692 273.919 266.876 274.004C264.06 274.004 261.5 273.321 258.513 273.321H254.758C251.772 273.321 249.212 273.919 246.396 274.004C243.58 274.004 241.02 273.321 238.033 273.321H234.193C231.206 273.321 228.646 273.919 225.83 274.004C223.015 274.004 220.54 273.321 217.553 273.321H213.628H213.543Z" fill="url(#paint3_linear_103_8524)"/>
<path d="M213.543 272.383C212.202 272.381 210.862 272.466 209.532 272.639L209.105 273.407C211.153 273.151 213.116 272.81 215.249 272.81C217.98 272.81 220.54 273.492 223.526 273.492H227.452C230.438 273.492 232.913 272.81 235.729 272.81C238.545 272.81 241.105 273.492 244.092 273.492H248.017C251.004 273.492 253.478 272.81 256.294 272.81C259.11 272.81 261.67 273.492 264.657 273.492H268.497C271.484 273.492 274.044 272.81 276.86 272.81C279.676 272.81 282.236 273.492 285.222 273.492H289.062C292.049 273.492 294.609 272.81 297.425 272.81C299.644 272.81 301.692 273.236 303.825 273.407L303.398 272.554C302.151 272.424 300.897 272.367 299.644 272.383H295.804C292.817 272.383 290.257 272.98 287.441 273.066C284.625 273.066 282.065 272.383 279.078 272.383H275.238C272.252 272.383 269.692 272.98 266.876 273.066C264.06 273.066 261.5 272.383 258.513 272.383H254.758C251.772 272.383 249.212 272.98 246.396 273.066C243.58 273.066 241.02 272.383 238.033 272.383H234.193C231.206 272.383 228.646 272.98 225.83 273.066C223.015 273.066 220.54 272.383 217.553 272.383H213.628H213.543Z" fill="url(#paint4_linear_103_8524)"/>
<path d="M213.543 271.444C212.202 271.442 210.862 271.528 209.532 271.7L209.105 272.468C211.153 272.212 213.116 271.871 215.249 271.871C217.98 271.871 220.54 272.554 223.526 272.554H227.452C230.438 272.554 232.913 271.871 235.729 271.871C238.545 271.871 241.105 272.554 244.092 272.554H248.017C251.004 272.554 253.478 271.871 256.294 271.871C259.11 271.871 261.67 272.554 264.657 272.554H268.497C271.484 272.554 274.044 271.871 276.86 271.871C279.676 271.871 282.236 272.554 285.222 272.554H289.062C292.049 272.554 294.609 271.871 297.425 271.871C299.644 271.871 301.692 272.298 303.825 272.468L303.398 271.615C302.151 271.486 300.897 271.429 299.644 271.444H295.804C292.817 271.444 290.257 272.042 287.441 272.127C284.625 272.127 282.065 271.444 279.078 271.444H275.238C272.252 271.444 269.692 272.042 266.876 272.127C264.06 272.127 261.5 271.444 258.513 271.444H254.758C251.772 271.444 249.212 272.042 246.396 272.127C243.58 272.127 241.02 271.444 238.033 271.444H234.193C231.206 271.444 228.646 272.042 225.83 272.127C223.015 272.127 220.54 271.444 217.553 271.444H213.628H213.543Z" fill="url(#paint5_linear_103_8524)"/>
<path d="M213.543 270.505C212.202 270.503 210.862 270.589 209.532 270.762L209.105 271.529C211.153 271.273 213.116 270.932 215.249 270.932C217.98 270.932 220.54 271.615 223.526 271.615H227.452C230.438 271.615 232.913 270.932 235.729 270.932C238.545 270.932 241.105 271.615 244.092 271.615H248.017C251.004 271.615 253.478 270.932 256.294 270.932C259.11 270.932 261.67 271.615 264.657 271.615H268.497C271.484 271.615 274.044 270.932 276.86 270.932C279.676 270.932 282.236 271.615 285.222 271.615H289.062C292.049 271.615 294.609 270.932 297.425 270.932C299.644 270.932 301.692 271.359 303.825 271.529L303.398 270.676C302.151 270.547 300.897 270.49 299.644 270.505H295.804C292.817 270.505 290.257 271.103 287.441 271.188C284.625 271.188 282.065 270.505 279.078 270.505H275.238C272.252 270.505 269.692 271.103 266.876 271.188C264.06 271.188 261.5 270.505 258.513 270.505H254.758C251.772 270.505 249.212 271.103 246.396 271.188C243.58 271.188 241.02 270.505 238.033 270.505H234.193C231.206 270.505 228.646 271.103 225.83 271.188C223.015 271.188 220.54 270.505 217.553 270.505H213.628H213.543Z" fill="url(#paint6_linear_103_8524)"/>
<path d="M213.543 269.567C212.202 269.565 210.862 269.65 209.532 269.823L209.105 270.591C211.153 270.335 213.116 269.994 215.249 269.994C217.98 269.994 220.54 270.676 223.526 270.676H227.452C230.438 270.676 232.913 269.994 235.729 269.994C238.545 269.994 241.105 270.676 244.092 270.676H248.017C251.004 270.676 253.478 269.994 256.294 269.994C259.11 269.994 261.67 270.676 264.657 270.676H268.497C271.484 270.676 274.044 269.994 276.86 269.994C279.676 269.994 282.236 270.676 285.222 270.676H289.062C292.049 270.676 294.609 269.994 297.425 269.994C299.644 269.994 301.692 270.42 303.825 270.591L303.398 269.738C302.151 269.608 300.897 269.551 299.644 269.567H295.804C292.817 269.567 290.257 270.164 287.441 270.25C284.625 270.25 282.065 269.567 279.078 269.567H275.238C272.252 269.567 269.692 270.164 266.876 270.25C264.06 270.25 261.5 269.567 258.513 269.567H254.758C251.772 269.567 249.212 270.164 246.396 270.25C243.58 270.25 241.02 269.567 238.033 269.567H234.193C231.206 269.567 228.646 270.164 225.83 270.25C223.015 270.25 220.54 269.567 217.553 269.567H213.628H213.543Z" fill="url(#paint7_linear_103_8524)"/>
<path d="M213.543 268.543C212.202 268.541 210.862 268.626 209.532 268.799L209.105 269.567C211.153 269.311 213.116 268.97 215.249 268.97C217.98 268.97 220.54 269.652 223.526 269.652H227.452C230.438 269.652 232.913 268.97 235.729 268.97C238.545 268.97 241.105 269.652 244.092 269.652H248.017C251.004 269.652 253.478 268.97 256.294 268.97C259.11 268.97 261.67 269.652 264.657 269.652H268.497C271.484 269.652 274.044 268.97 276.86 268.97C279.676 268.97 282.236 269.652 285.222 269.652H289.062C292.049 269.652 294.609 268.97 297.425 268.97C299.644 268.97 301.692 269.396 303.825 269.567L303.398 268.714C302.151 268.584 300.897 268.527 299.644 268.543H295.804C292.817 268.543 290.257 269.14 287.441 269.226C284.625 269.226 282.065 268.543 279.078 268.543H275.238C272.252 268.543 269.692 269.14 266.876 269.226C264.06 269.226 261.5 268.543 258.513 268.543H254.758C251.772 268.543 249.212 269.14 246.396 269.226C243.58 269.226 241.02 268.543 238.033 268.543H234.193C231.206 268.543 228.646 269.14 225.83 269.226C223.015 269.226 220.54 268.543 217.553 268.543H213.628H213.543Z" fill="url(#paint8_linear_103_8524)"/>
<path d="M213.543 267.604C212.202 267.602 210.862 267.687 209.532 267.86L209.105 268.628C211.153 268.372 213.116 268.031 215.249 268.031C217.98 268.031 220.54 268.713 223.526 268.713H227.452C230.438 268.713 232.913 268.031 235.729 268.031C238.545 268.031 241.105 268.713 244.092 268.713H248.017C251.004 268.713 253.478 268.031 256.294 268.031C259.11 268.031 261.67 268.713 264.657 268.713H268.497C271.484 268.713 274.044 268.031 276.86 268.031C279.676 268.031 282.236 268.713 285.222 268.713H289.062C292.049 268.713 294.609 268.031 297.425 268.031C299.644 268.031 301.692 268.457 303.825 268.628L303.398 267.775C302.151 267.645 300.897 267.588 299.644 267.604H295.804C292.817 267.604 290.257 268.201 287.441 268.287C284.625 268.287 282.065 267.604 279.078 267.604H275.238C272.252 267.604 269.692 268.201 266.876 268.287C264.06 268.287 261.5 267.604 258.513 267.604H254.758C251.772 267.604 249.212 268.201 246.396 268.287C243.58 268.287 241.02 267.604 238.033 267.604H234.193C231.206 267.604 228.646 268.201 225.83 268.287C223.015 268.287 220.54 267.604 217.553 267.604H213.628H213.543Z" fill="url(#paint9_linear_103_8524)"/>
<path d="M213.543 266.666C212.202 266.663 210.862 266.749 209.532 266.922L209.105 267.69C211.153 267.434 213.116 267.092 215.249 267.092C217.98 267.092 220.54 267.775 223.526 267.775H227.452C230.438 267.775 232.913 267.092 235.729 267.092C238.545 267.092 241.105 267.775 244.092 267.775H248.017C251.004 267.775 253.478 267.092 256.294 267.092C259.11 267.092 261.67 267.775 264.657 267.775H268.497C271.484 267.775 274.044 267.092 276.86 267.092C279.676 267.092 282.236 267.775 285.222 267.775H289.062C292.049 267.775 294.609 267.092 297.425 267.092C299.644 267.092 301.692 267.519 303.825 267.69L303.398 266.836C302.151 266.707 300.897 266.65 299.644 266.666H295.804C292.817 266.666 290.257 267.263 287.441 267.348C284.625 267.348 282.065 266.666 279.078 266.666H275.238C272.252 266.666 269.692 267.263 266.876 267.348C264.06 267.348 261.5 266.666 258.513 266.666H254.758C251.772 266.666 249.212 267.263 246.396 267.348C243.58 267.348 241.02 266.666 238.033 266.666H234.193C231.206 266.666 228.646 267.263 225.83 267.348C223.015 267.348 220.54 266.666 217.553 266.666H213.628H213.543Z" fill="url(#paint10_linear_103_8524)"/>
<path d="M216.529 262.399V262.57H296.486L296.401 262.399H216.529ZM216.359 262.655L216.273 262.911H296.572L296.486 262.655H216.273H216.359ZM216.188 262.996L216.017 263.252H296.913L296.742 262.996H216.188ZM215.932 263.423L215.676 263.85H297.254L296.998 263.423H215.932ZM215.591 264.02L215.335 264.447H297.596L297.34 264.02H215.591ZM215.249 264.618L215.079 264.959H297.852L297.681 264.618H215.249ZM214.908 265.215L214.737 265.556H298.278L298.022 265.215H214.908ZM214.567 265.812L214.311 266.324H298.62L298.364 265.812H214.652H214.567Z" fill="url(#paint11_linear_103_8524)"/>
<path d="M220.113 266.495C223.015 267.092 223.271 266.495 223.271 266.495H220.113ZM289.66 266.495C289.66 266.495 289.916 267.092 292.817 266.495H289.66Z" fill="url(#paint12_linear_103_8524)"/>
<path d="M282.577 253.439C281.126 253.439 280.7 254.207 280.7 254.207C278.396 263.252 270.63 272.383 261.415 272.383H254.588V281.599H306.982L301.692 272.212C293.414 271.018 286.673 262.57 284.54 254.207C284.54 254.207 284.028 253.439 282.577 253.439Z" fill="url(#paint13_linear_103_8524)"/>
<path d="M282.577 253.865C281.895 253.865 281.553 253.951 281.297 254.121L281.041 254.377C279.762 259.102 277.294 263.42 273.873 266.921C270.46 270.42 266.193 272.809 261.415 272.809H254.844V281.257H306.812L301.948 272.724C297.937 272.127 294.268 269.993 291.367 266.921C287.946 263.42 285.478 259.102 284.199 254.377L283.943 254.121C283.523 253.903 283.048 253.814 282.577 253.865Z" fill="#97C924"/>
<path d="M282.577 253.866H282.918V263.082C282.837 265.02 282.248 266.903 281.212 268.543C280.785 269.908 280.358 269.396 279.249 271.018C277.81 271.514 276.323 271.857 274.812 272.042C272.678 272.383 267.985 272.724 265.51 272.127C268.686 271.155 271.564 269.394 273.873 267.007C274.508 266.328 275.106 265.616 275.665 264.874C276.616 263.692 277.472 262.436 278.225 261.119L279.078 259.412C279.487 258.605 279.857 257.779 280.188 256.938C280.517 256.1 280.802 255.246 281.041 254.378L281.297 254.122L281.809 253.951L282.662 253.866H282.577Z" fill="#EDE71F"/>
<path d="M282.065 255.06C281.638 260.18 280.102 266.324 276.348 270.249C274.982 271.359 273.19 272.468 271.569 272.212C277.286 267.519 280.785 260.265 281.98 255.06H282.065Z" fill="#C6CB24"/>
<path d="M277.372 263.935C276.519 266.239 273.276 269.652 269.863 272.468H267.388C269.521 272.298 274.471 268.202 277.372 263.935Z" fill="#9ECB34"/>
<path d="M269.521 253.439C268.071 253.439 267.644 254.207 267.644 254.207C265.34 263.252 257.575 272.383 248.359 272.383H241.532V281.599H293.926L288.636 272.212C280.359 271.018 273.617 262.57 271.484 254.207C271.484 254.207 270.972 253.439 269.521 253.439Z" fill="url(#paint14_linear_103_8524)"/>
<path d="M269.521 253.865C268.839 253.865 268.497 253.951 268.241 254.121L267.985 254.377C266.706 259.102 264.238 263.42 260.817 266.921C257.404 270.42 253.137 272.809 248.359 272.809H241.788V281.257H293.756L288.892 272.724C284.881 272.127 281.212 269.993 278.311 266.921C274.89 263.42 272.422 259.102 271.143 254.377L270.887 254.121C270.467 253.903 269.992 253.814 269.521 253.865Z" fill="#97C924"/>
<path d="M269.521 253.866H269.863V263.082C269.781 265.02 269.193 266.903 268.156 268.543C267.729 269.908 267.303 269.396 266.193 271.018C264.754 271.514 263.267 271.857 261.756 272.042C259.623 272.383 254.929 272.724 252.455 272.127C255.63 271.155 258.508 269.394 260.817 267.007C261.452 266.328 262.05 265.616 262.609 264.874C263.56 263.692 264.416 262.436 265.169 261.119L266.023 259.412C266.431 258.605 266.801 257.779 267.132 256.938C267.461 256.1 267.746 255.246 267.985 254.378L268.241 254.122L268.753 253.951L269.607 253.866H269.521Z" fill="#EDE71F"/>
<path d="M269.009 255.06C268.582 260.18 267.046 266.324 263.292 270.249C261.926 271.359 260.135 272.468 258.513 272.212C264.23 267.519 267.729 260.265 268.924 255.06H269.009Z" fill="#C6CB24"/>
<path d="M264.316 263.935C263.463 266.239 260.22 269.652 256.807 272.468H254.332C256.465 272.298 261.415 268.202 264.316 263.935Z" fill="#9ECB34"/>
<path d="M258.343 254.292C260.732 263.252 268.412 272.383 277.628 272.383H284.54V281.599H228.391V272.383H235.217C244.433 272.383 252.199 263.252 254.503 254.207C254.503 254.207 255.015 253.524 256.465 253.524C257.916 253.524 258.343 254.207 258.343 254.207V254.292Z" fill="url(#paint15_linear_103_8524)"/>
<path d="M256.465 253.866C257.148 253.866 257.489 254.036 257.745 254.122L258.001 254.378C259.281 259.102 261.748 263.421 265.169 266.922C268.582 270.42 272.849 272.81 277.628 272.81H284.198V281.258H228.732V272.724H235.303C239.996 272.724 244.348 270.42 247.761 266.922C251.151 263.411 253.589 259.094 254.844 254.378L255.1 254.122C255.523 253.912 255.995 253.824 256.465 253.866Z" fill="#97C924"/>
<path d="M255.868 253.866C255.782 253.862 255.697 253.862 255.612 253.866L255.1 254.122L254.844 254.378C254.606 255.246 254.321 256.1 253.99 256.938C253.69 257.807 253.348 258.661 252.966 259.498C252.699 260.047 252.414 260.588 252.113 261.119C251.36 262.436 250.504 263.692 249.553 264.874C248.992 265.587 248.393 266.27 247.761 266.922C245.461 269.339 242.583 271.131 239.398 272.127C241.788 272.724 242.812 272.127 244.945 271.786C246.652 271.53 248.529 271.274 250.065 270.762C251.345 269.055 250.918 269.652 251.345 268.287C252.369 266.41 253.905 264.703 254.246 262.57C255.612 260.01 255.868 255.231 255.868 253.866Z" fill="#EDE71F"/>
<path d="M255.868 255.061C255.526 260.181 253.905 266.325 250.15 270.25C248.785 271.359 247.078 272.468 245.372 272.212C251.174 267.519 254.673 260.266 255.868 255.061Z" fill="#C6CB24"/>
<path d="M251.174 263.935C249.319 267.29 246.757 270.202 243.665 272.468H241.276C243.409 272.298 248.273 268.202 251.174 263.935Z" fill="#9ECB34"/>
<path d="M257.318 253.951L257.745 254.122L258.086 254.378C258.329 255.245 258.614 256.099 258.94 256.938C259.24 257.807 259.582 258.661 259.964 259.498L260.817 261.119C261.57 262.436 262.426 263.692 263.377 264.874C263.939 265.587 264.537 266.271 265.169 266.922C267.453 269.436 270.327 271.342 273.532 272.468C267.302 272.468 264.657 271.956 262.438 269.055C260.825 267.347 259.602 265.309 258.854 263.082C258.428 261.375 257.148 257.535 257.233 253.951H257.318Z" fill="#EDE71F"/>
<path d="M257.745 255.061C258.086 260.181 259.622 265.301 263.377 269.226C264.742 270.42 266.449 271.444 268.156 271.188C262.795 267.3 259.081 261.547 257.745 255.061Z" fill="#C6CB24"/>
<path d="M243.495 253.439C241.959 253.439 241.532 254.207 241.532 254.207C239.399 262.57 231.463 273.236 223.185 274.516L219.089 281.599H260.903V271.956C253.393 269.908 247.335 261.972 245.372 254.207C245.372 254.207 244.945 253.524 243.409 253.524L243.495 253.439Z" fill="url(#paint16_linear_103_8524)"/>
<path d="M243.494 253.866C242.812 253.866 242.385 254.036 242.129 254.122L241.873 254.378C240.438 259.059 238.089 263.41 234.961 267.178C232.06 270.847 226.684 274.516 223.015 274.858L219.345 281.258H260.305V272.127C257.224 271.11 254.44 269.352 252.198 267.007C248.765 263.482 246.296 259.133 245.03 254.378L244.774 254.122C244.378 253.923 243.936 253.835 243.494 253.866Z" fill="#97C924"/>
<path d="M242.3 255.06C241.788 262.74 237.521 272.553 232.657 274.175C231.036 274.772 228.305 274.943 227.367 275.028C231.129 272.938 234.41 270.08 236.998 266.64C239.585 263.2 241.421 259.255 242.385 255.06H242.3Z" fill="#93BC30"/>
<path d="M243.495 253.866H243.068V263.082C243.068 265.044 243.836 266.666 244.775 268.543L244.945 268.97C245.372 269.908 245.628 270.25 246.908 271.274C250.572 273.889 255.054 275.1 259.537 274.687C258.598 273.919 257.575 273.236 256.636 272.639L260.476 272.212C257.313 271.179 254.465 269.358 252.199 266.922C251.786 266.509 251.388 266.082 251.004 265.642L250.492 264.959C249.482 263.753 248.569 262.469 247.761 261.119C247.458 260.56 247.174 259.99 246.908 259.412C246.384 258.332 245.928 257.221 245.543 256.084C245.353 255.521 245.182 254.952 245.031 254.378L244.775 254.122C244.613 254.041 244.441 253.983 244.263 253.951C243.983 253.883 243.696 253.854 243.409 253.866H243.495Z" fill="#EDE71F"/>
<path d="M244.007 255.06C244.433 260.18 245.969 266.324 249.724 270.249C251.089 271.359 252.796 272.468 254.503 272.212C249.297 267.732 245.627 261.734 244.007 255.06Z" fill="#CCD11E"/>
<path d="M247.591 262.228C250.355 267.634 254.7 272.07 260.049 274.943H262.183C258.428 272.895 252.369 269.994 247.676 262.143L247.591 262.228Z" fill="#9ECB34"/>
<path d="M230.353 253.439C228.817 253.439 228.391 254.207 228.391 254.207C226.257 262.57 218.321 273.236 210.044 274.516L205.948 281.599H247.761V271.956C240.252 269.908 234.193 261.972 232.231 254.207C232.231 254.207 231.804 253.524 230.268 253.524L230.353 253.439Z" fill="url(#paint17_linear_103_8524)"/>
<path d="M230.353 253.866C229.671 253.866 229.244 254.036 228.988 254.122L228.732 254.378C227.297 259.059 224.948 263.41 221.82 267.178C218.919 270.847 213.543 274.516 209.873 274.858L206.204 281.258H247.164V272.127C244.083 271.11 241.299 269.352 239.057 267.007C235.624 263.482 233.155 259.133 231.889 254.378L231.633 254.122C231.237 253.923 230.795 253.835 230.353 253.866Z" fill="#97C924"/>
<path d="M229.159 255.06C228.647 262.74 224.38 272.553 219.516 274.175C217.895 274.772 215.164 274.943 214.225 275.028C217.988 272.938 221.269 270.08 223.856 266.64C226.444 263.2 228.279 259.255 229.244 255.06H229.159Z" fill="#93BC30"/>
<path d="M230.353 253.866H229.927V263.082C229.927 265.044 230.695 266.666 231.633 268.543L231.804 268.97C232.231 269.908 232.487 270.25 233.766 271.274C237.431 273.889 241.913 275.1 246.396 274.687C245.457 273.919 244.433 273.236 243.494 272.639L247.334 272.212C244.171 271.179 241.323 269.358 239.057 266.922C238.645 266.509 238.246 266.082 237.862 265.642L237.35 264.959C236.341 263.753 235.428 262.469 234.62 261.119C234.317 260.56 234.032 259.99 233.766 259.412C233.243 258.332 232.787 257.221 232.401 256.084C232.212 255.521 232.041 254.952 231.889 254.378L231.633 254.122C231.472 254.041 231.299 253.983 231.121 253.951C230.842 253.883 230.555 253.854 230.268 253.866H230.353Z" fill="#EDE71F"/>
<path d="M230.865 255.06C231.292 260.18 232.828 266.324 236.583 270.249C237.948 271.359 239.655 272.468 241.361 272.212C236.156 267.732 232.485 261.734 230.865 255.06Z" fill="#C6CB24"/>
<path d="M234.449 262.228C237.213 267.634 241.559 272.07 246.908 274.943H249.041C245.287 272.895 239.228 269.994 234.535 262.143L234.449 262.228Z" fill="#9ECB34"/>
<path d="M304.678 277.076C304.166 277.247 300.924 276.905 299.217 277.076L298.108 277.332H295.292C292.22 277.332 289.574 278.185 286.673 278.185C283.772 278.185 281.126 277.332 278.14 277.332H275.238C272.166 277.332 269.521 278.185 266.62 278.185C263.718 278.185 261.073 277.332 258.086 277.332H255.185C252.113 277.332 249.468 278.185 246.652 278.185C243.665 278.185 241.105 277.332 238.033 277.332H235.132C232.06 277.332 229.5 278.185 226.598 278.185C223.612 278.185 221.052 277.332 217.98 277.332H215.079C212.689 277.332 209.788 277.844 207.484 278.015L202.108 287.316H310.822L304.678 277.076Z" fill="white"/>
<path d="M297.425 275.711H296.913C294.182 275.796 292.134 276.65 287.356 276.65C282.577 276.65 282.065 275.796 276.604 275.967C271.484 275.967 269.436 276.991 266.62 276.991C263.889 276.991 259.452 276.394 255.953 276.735C252.54 277.076 248.444 277.844 245.713 277.844C242.385 277.844 239.057 277.247 235.644 277.588C232.145 277.93 230.524 278.868 226.172 278.868C222.417 278.868 218.492 278.271 215.249 278.271C212.348 278.271 209.105 279.124 206.716 279.466L205.948 280.746C207.911 280.49 213.287 279.636 215.164 279.636C217.212 279.636 224.295 280.063 228.22 279.892C232.231 279.807 232.657 278.868 237.351 278.868C240.593 278.868 242.983 279.21 246.311 279.21C248.444 279.21 250.321 278.186 253.478 278.186L255.868 278.1C258.513 277.674 263.036 278.1 266.108 278.271C268.924 278.442 270.801 277.759 273.788 277.674L277.542 277.588C280.529 277.418 283.004 278.1 285.82 278.1C288.55 277.93 291.281 277.247 294.182 277.247L298.022 277.076C299.985 277.076 303.057 277.076 305.105 277.503L304.422 276.308C302.374 276.223 299.9 275.711 297.425 275.711Z" fill="url(#paint18_linear_103_8524)"/>
<path d="M214.055 285.695C211.153 285.695 208.593 286.377 205.863 286.463C204.835 286.436 203.809 286.35 202.791 286.207L202.364 286.889H207.484C210.471 286.889 212.945 286.207 215.676 286.121C218.492 286.207 220.967 286.975 223.953 286.975H227.793C230.695 286.975 233.255 286.207 235.985 286.121C238.801 286.207 241.361 286.975 244.263 286.975H248.103C251.089 286.975 253.564 286.207 256.38 286.121C259.11 286.207 261.585 286.975 264.572 286.975H268.412C271.313 286.975 273.873 286.207 276.689 286.121C279.42 286.207 281.98 286.975 284.881 286.975H288.721C291.708 286.975 294.182 286.207 296.913 286.121C299.729 286.207 302.204 286.975 305.19 286.975H309.03L310.566 286.889L310.14 286.207C309.286 286.292 308.348 286.463 307.409 286.463C304.593 286.463 302.118 285.609 299.132 285.609H295.292C292.39 285.609 289.83 286.463 287.1 286.463C284.284 286.377 281.809 285.609 278.822 285.609H274.982C272.081 285.609 269.521 286.463 266.79 286.463C263.974 286.377 261.5 285.609 258.513 285.609H254.673C251.686 285.609 249.212 286.463 246.481 286.463C243.665 286.377 241.191 285.609 238.204 285.609H234.364C231.463 285.609 228.903 286.463 226.172 286.463C223.356 286.377 220.881 285.609 217.895 285.609H214.055V285.695Z" fill="url(#paint19_linear_103_8524)"/>
<path d="M214.055 284.585C211.153 284.585 208.593 285.268 205.863 285.353C204.835 285.326 203.809 285.241 202.791 285.097L202.364 285.78H207.484C210.471 285.78 212.945 285.097 215.676 285.012C218.492 285.097 220.967 285.865 223.953 285.865H227.793C230.695 285.865 233.255 285.097 235.985 285.012C238.801 285.097 241.361 285.865 244.263 285.865H248.103C251.089 285.865 253.564 285.097 256.38 285.012C259.11 285.097 261.585 285.865 264.572 285.865H268.412C271.313 285.865 273.873 285.097 276.689 285.012C279.42 285.097 281.98 285.865 284.881 285.865H288.721C291.708 285.865 294.182 285.097 296.913 285.012C299.729 285.097 302.204 285.865 305.19 285.865H309.03L310.566 285.78L310.14 285.097C309.286 285.183 308.348 285.353 307.409 285.353C304.593 285.353 302.118 284.5 299.132 284.5H295.292C292.39 284.5 289.83 285.353 287.1 285.353C284.284 285.268 281.809 284.5 278.822 284.5H274.982C272.081 284.5 269.521 285.353 266.79 285.353C263.974 285.268 261.5 284.5 258.513 284.5H254.673C251.686 284.5 249.212 285.353 246.481 285.353C243.665 285.268 241.191 284.5 238.204 284.5H234.364C231.463 284.5 228.903 285.353 226.172 285.353C223.356 285.268 220.881 284.5 217.895 284.5H214.055V284.585Z" fill="url(#paint20_linear_103_8524)"/>
<path d="M214.055 283.476C211.153 283.476 208.593 284.159 205.863 284.244C204.835 284.217 203.809 284.131 202.791 283.988L202.364 284.671H207.484C210.471 284.671 212.945 283.988 215.676 283.903C218.492 283.988 220.967 284.756 223.953 284.756H227.793C230.695 284.756 233.255 283.988 235.985 283.903C238.801 283.988 241.361 284.756 244.263 284.756H248.103C251.089 284.756 253.564 283.988 256.38 283.903C259.11 283.988 261.585 284.756 264.572 284.756H268.412C271.313 284.756 273.873 283.988 276.689 283.903C279.42 283.988 281.98 284.756 284.881 284.756H288.721C291.708 284.756 294.182 283.988 296.913 283.903C299.729 283.988 302.204 284.756 305.19 284.756H309.03L310.566 284.671L310.14 283.988C309.286 284.073 308.348 284.244 307.409 284.244C304.593 284.244 302.118 283.391 299.132 283.391H295.292C292.39 283.391 289.83 284.244 287.1 284.244C284.284 284.159 281.809 283.391 278.822 283.391H274.982C272.081 283.391 269.521 284.244 266.79 284.244C263.974 284.159 261.5 283.391 258.513 283.391H254.673C251.686 283.391 249.212 284.244 246.481 284.244C243.665 284.159 241.191 283.391 238.204 283.391H234.364C231.463 283.391 228.903 284.244 226.172 284.244C223.356 284.159 220.881 283.391 217.895 283.391H214.055V283.476Z" fill="url(#paint21_linear_103_8524)"/>
<path d="M214.055 282.367C211.153 282.367 208.593 283.049 205.863 283.135C204.835 283.108 203.809 283.022 202.791 282.879L202.364 283.561H207.484C210.471 283.561 212.945 282.879 215.676 282.793C218.492 282.879 220.967 283.647 223.953 283.647H227.793C230.695 283.647 233.255 282.879 235.985 282.793C238.801 282.879 241.361 283.647 244.263 283.647H248.103C251.089 283.647 253.564 282.879 256.38 282.793C259.11 282.879 261.585 283.647 264.572 283.647H268.412C271.313 283.647 273.873 282.879 276.689 282.793C279.42 282.879 281.98 283.647 284.881 283.647H288.721C291.708 283.647 294.182 282.879 296.913 282.793C299.729 282.879 302.204 283.647 305.19 283.647H309.03L310.566 283.561L310.14 282.879C309.286 282.964 308.348 283.135 307.409 283.135C304.593 283.135 302.118 282.281 299.132 282.281H295.292C292.39 282.281 289.83 283.135 287.1 283.135C284.284 283.049 281.809 282.281 278.822 282.281H274.982C272.081 282.281 269.521 283.135 266.79 283.135C263.974 283.049 261.5 282.281 258.513 282.281H254.673C251.686 282.281 249.212 283.135 246.481 283.135C243.665 283.049 241.191 282.281 238.204 282.281H234.364C231.463 282.281 228.903 283.135 226.172 283.135C223.356 283.049 220.881 282.281 217.895 282.281H214.055V282.367Z" fill="url(#paint22_linear_103_8524)"/>
<path d="M214.055 281.257C211.153 281.257 208.593 281.94 205.863 282.025C204.835 281.998 203.809 281.913 202.791 281.769L202.364 282.452H207.484C210.471 282.452 212.945 281.769 215.676 281.684C218.492 281.769 220.967 282.537 223.953 282.537H227.793C230.695 282.537 233.255 281.769 235.985 281.684C238.801 281.769 241.361 282.537 244.263 282.537H248.103C251.089 282.537 253.564 281.769 256.38 281.684C259.11 281.769 261.585 282.537 264.572 282.537H268.412C271.313 282.537 273.873 281.769 276.689 281.684C279.42 281.769 281.98 282.537 284.881 282.537H288.721C291.708 282.537 294.182 281.769 296.913 281.684C299.729 281.769 302.204 282.537 305.19 282.537H309.03L310.566 282.452L310.14 281.769C309.286 281.855 308.348 282.025 307.409 282.025C304.593 282.025 302.118 281.172 299.132 281.172H295.292C292.39 281.172 289.83 282.025 287.1 282.025C284.284 281.94 281.809 281.172 278.822 281.172H274.982C272.081 281.172 269.521 282.025 266.79 282.025C263.974 281.94 261.5 281.172 258.513 281.172H254.673C251.686 281.172 249.212 282.025 246.481 282.025C243.665 281.94 241.191 281.172 238.204 281.172H234.364C231.463 281.172 228.903 282.025 226.172 282.025C223.356 281.94 220.881 281.172 217.895 281.172H214.055V281.257Z" fill="url(#paint23_linear_103_8524)"/>
<path d="M214.055 280.148C211.153 280.148 208.593 280.83 205.863 280.916C204.835 280.889 203.809 280.803 202.791 280.66L202.364 281.342H207.484C210.471 281.342 212.945 280.66 215.676 280.574C218.492 280.66 220.967 281.428 223.953 281.428H227.793C230.695 281.428 233.255 280.66 235.985 280.574C238.801 280.66 241.361 281.428 244.263 281.428H248.103C251.089 281.428 253.564 280.66 256.38 280.574C259.11 280.66 261.585 281.428 264.572 281.428H268.412C271.313 281.428 273.873 280.66 276.689 280.574C279.42 280.66 281.98 281.428 284.881 281.428H288.721C291.708 281.428 294.182 280.66 296.913 280.574C299.729 280.66 302.204 281.428 305.19 281.428H309.03L310.566 281.342L310.14 280.66C309.286 280.745 308.348 280.916 307.409 280.916C304.593 280.916 302.118 280.062 299.132 280.062H295.292C292.39 280.062 289.83 280.916 287.1 280.916C284.284 280.83 281.809 280.062 278.822 280.062H274.982C272.081 280.062 269.521 280.916 266.79 280.916C263.974 280.83 261.5 280.062 258.513 280.062H254.673C251.686 280.062 249.212 280.916 246.481 280.916C243.665 280.83 241.191 280.062 238.204 280.062H234.364C231.463 280.062 228.903 280.916 226.172 280.916C223.356 280.83 220.881 280.062 217.895 280.062H214.055V280.148Z" fill="url(#paint24_linear_103_8524)"/>
<path d="M214.055 279.124C211.153 279.124 208.593 279.807 205.863 279.892C204.835 279.865 203.809 279.779 202.791 279.636L202.364 280.319H207.484C210.471 280.319 212.945 279.636 215.676 279.551C218.492 279.636 220.967 280.404 223.953 280.404H227.793C230.695 280.404 233.255 279.636 235.985 279.551C238.801 279.636 241.361 280.404 244.263 280.404H248.103C251.089 280.404 253.564 279.636 256.38 279.551C259.11 279.636 261.585 280.404 264.572 280.404H268.412C271.313 280.404 273.873 279.636 276.689 279.551C279.42 279.636 281.98 280.404 284.881 280.404H288.721C291.708 280.404 294.182 279.636 296.913 279.551C299.729 279.636 302.204 280.404 305.19 280.404H309.03L310.566 280.319L310.14 279.636C309.286 279.721 308.348 279.892 307.409 279.892C304.593 279.892 302.118 279.039 299.132 279.039H295.292C292.39 279.039 289.83 279.892 287.1 279.892C284.284 279.807 281.809 279.039 278.822 279.039H274.982C272.081 279.039 269.521 279.892 266.79 279.892C263.974 279.807 261.5 279.039 258.513 279.039H254.673C251.686 279.039 249.212 279.892 246.481 279.892C243.665 279.807 241.191 279.039 238.204 279.039H234.364C231.463 279.039 228.903 279.892 226.172 279.892C223.356 279.807 220.881 279.039 217.895 279.039H214.055V279.124Z" fill="url(#paint25_linear_103_8524)"/>
<path d="M214.055 278.015C211.153 278.015 208.593 278.697 205.863 278.783C204.835 278.755 203.809 278.67 202.791 278.527L202.364 279.209H207.484C210.471 279.209 212.945 278.527 215.676 278.441C218.492 278.527 220.967 279.295 223.953 279.295H227.793C230.695 279.295 233.255 278.527 235.985 278.441C238.801 278.527 241.361 279.295 244.263 279.295H248.103C251.089 279.295 253.564 278.527 256.38 278.441C259.11 278.527 261.585 279.295 264.572 279.295H268.412C271.313 279.295 273.873 278.527 276.689 278.441C279.42 278.527 281.98 279.295 284.881 279.295H288.721C291.708 279.295 294.182 278.527 296.913 278.441C299.729 278.527 302.204 279.295 305.19 279.295H309.03L310.566 279.209L310.14 278.527C309.286 278.612 308.348 278.783 307.409 278.783C304.593 278.783 302.118 277.929 299.132 277.929H295.292C292.39 277.929 289.83 278.783 287.1 278.783C284.284 278.697 281.809 277.929 278.822 277.929H274.982C272.081 277.929 269.521 278.783 266.79 278.783C263.974 278.697 261.5 277.929 258.513 277.929H254.673C251.686 277.929 249.212 278.783 246.481 278.783C243.665 278.697 241.191 277.929 238.204 277.929H234.364C231.463 277.929 228.903 278.783 226.172 278.783C223.356 278.697 220.881 277.929 217.895 277.929H214.055V278.015Z" fill="url(#paint26_linear_103_8524)"/>
<path d="M214.055 276.905C211.153 276.905 208.593 277.588 205.863 277.673C204.835 277.646 203.809 277.561 202.791 277.417L202.364 278.1H207.484C210.471 278.1 212.945 277.417 215.676 277.332C218.492 277.417 220.967 278.185 223.953 278.185H227.793C230.695 278.185 233.255 277.417 235.985 277.332C238.801 277.417 241.361 278.185 244.263 278.185H248.103C251.089 278.185 253.564 277.417 256.38 277.332C259.11 277.417 261.585 278.185 264.572 278.185H268.412C271.313 278.185 273.873 277.417 276.689 277.332C279.42 277.417 281.98 278.185 284.881 278.185H288.721C291.708 278.185 294.182 277.417 296.913 277.332C299.729 277.417 302.204 278.185 305.19 278.185H309.03L310.566 278.1L310.14 277.417C309.286 277.502 308.348 277.673 307.409 277.673C304.593 277.673 302.118 276.82 299.132 276.82H295.292C292.39 276.82 289.83 277.673 287.1 277.673C284.284 277.588 281.809 276.82 278.822 276.82H274.982C272.081 276.82 269.521 277.673 266.79 277.673C263.974 277.588 261.5 276.82 258.513 276.82H254.673C251.686 276.82 249.212 277.673 246.481 277.673C243.665 277.588 241.191 276.82 238.204 276.82H234.364C231.463 276.82 228.903 277.673 226.172 277.673C223.356 277.588 220.881 276.82 217.895 276.82H214.055V276.905Z" fill="url(#paint27_linear_103_8524)"/>
<path d="M208.593 277.076L206.46 280.66C208.935 280.233 212.519 279.209 215.591 279.209C218.663 279.209 222.417 279.977 226.172 280.063C230.439 280.063 232.145 279.039 235.559 278.697C239.057 278.356 242.385 279.124 245.798 279.209C248.444 279.209 252.54 278.271 256.038 277.929C259.452 277.503 262.609 278.185 266.705 278.185C270.886 278.271 271.569 277.161 276.604 277.076C282.065 276.991 282.577 277.844 287.356 277.844C290.94 278.015 294.097 277.076 297.34 276.905C300.582 276.649 302.033 276.905 304.422 276.905L302.801 274.175L216.359 276.137L208.593 277.076Z" fill="#97C924"/>
<path d="M299.132 276.991L302.545 277.247C303.368 277.345 304.193 277.431 305.02 277.503L304.678 277.076C304.166 277.247 300.924 276.905 299.217 277.076L299.132 276.991Z" fill="white"/>
</g>
<path d="M256.5 191.9L229.1 239.4L201.1 288H311.9L284.5 240.5L256.5 191.9ZM256.5 194.4L283.5 241.1L309.8 286.7H203.3L230.2 240.1L256.5 194.4Z" fill="#C8A400"/>
</g>
<defs>
<linearGradient id="paint0_linear_103_8524" x1="255.356" y1="246.697" x2="256.977" y2="241.833" gradientUnits="userSpaceOnUse">
<stop stop-color="#510000"/>
<stop offset="0.3" stop-color="#8A0000"/>
<stop offset="1" stop-color="#AA0000"/>
</linearGradient>
<linearGradient id="paint1_linear_103_8524" x1="257.66" y1="248.66" x2="258.94" y2="245.247" gradientUnits="userSpaceOnUse">
<stop stop-color="#FF2A2A"/>
<stop offset="1" stop-color="#FF0000"/>
</linearGradient>
<linearGradient id="paint2_linear_103_8524" x1="209.105" y1="270.932" x2="371.153" y2="270.932" gradientUnits="userSpaceOnUse">
<stop stop-color="#002255"/>
<stop offset="0.5" stop-color="#0044AA"/>
<stop offset="1" stop-color="#002255"/>
</linearGradient>
<linearGradient id="paint3_linear_103_8524" x1="209.105" y1="269.993" x2="371.153" y2="269.993" gradientUnits="userSpaceOnUse">
<stop stop-color="#002255"/>
<stop offset="0.5" stop-color="#0044AA"/>
<stop offset="1" stop-color="#002255"/>
</linearGradient>
<linearGradient id="paint4_linear_103_8524" x1="209.105" y1="269.055" x2="371.153" y2="269.055" gradientUnits="userSpaceOnUse">
<stop stop-color="#002255"/>
<stop offset="0.5" stop-color="#0044AA"/>
<stop offset="1" stop-color="#002255"/>
</linearGradient>
<linearGradient id="paint5_linear_103_8524" x1="209.105" y1="268.116" x2="371.153" y2="268.116" gradientUnits="userSpaceOnUse">
<stop stop-color="#002255"/>
<stop offset="0.5" stop-color="#0044AA"/>
<stop offset="1" stop-color="#002255"/>
</linearGradient>
<linearGradient id="paint6_linear_103_8524" x1="209.105" y1="267.177" x2="371.153" y2="267.177" gradientUnits="userSpaceOnUse">
<stop stop-color="#002255"/>
<stop offset="0.5" stop-color="#0044AA"/>
<stop offset="1" stop-color="#002255"/>
</linearGradient>
<linearGradient id="paint7_linear_103_8524" x1="209.105" y1="266.239" x2="371.153" y2="266.239" gradientUnits="userSpaceOnUse">
<stop stop-color="#002255"/>
<stop offset="0.5" stop-color="#0044AA"/>
<stop offset="1" stop-color="#002255"/>
</linearGradient>
<linearGradient id="paint8_linear_103_8524" x1="209.105" y1="265.215" x2="371.153" y2="265.215" gradientUnits="userSpaceOnUse">
<stop stop-color="#002255"/>
<stop offset="0.5" stop-color="#0044AA"/>
<stop offset="1" stop-color="#002255"/>
</linearGradient>
<linearGradient id="paint9_linear_103_8524" x1="209.105" y1="264.276" x2="371.153" y2="264.276" gradientUnits="userSpaceOnUse">
<stop stop-color="#002255"/>
<stop offset="0.5" stop-color="#0044AA"/>
<stop offset="1" stop-color="#002255"/>
</linearGradient>
<linearGradient id="paint10_linear_103_8524" x1="209.105" y1="263.338" x2="371.153" y2="263.338" gradientUnits="userSpaceOnUse">
<stop stop-color="#002255"/>
<stop offset="0.5" stop-color="#0044AA"/>
<stop offset="1" stop-color="#002255"/>
</linearGradient>
<linearGradient id="paint11_linear_103_8524" x1="209.105" y1="270.932" x2="371.153" y2="270.932" gradientUnits="userSpaceOnUse">
<stop stop-color="#002255"/>
<stop offset="0.5" stop-color="#0044AA"/>
<stop offset="1" stop-color="#002255"/>
</linearGradient>
<linearGradient id="paint12_linear_103_8524" x1="209.105" y1="270.932" x2="371.153" y2="270.932" gradientUnits="userSpaceOnUse">
<stop stop-color="#002255"/>
<stop offset="0.5" stop-color="#0044AA"/>
<stop offset="1" stop-color="#002255"/>
</linearGradient>
<linearGradient id="paint13_linear_103_8524" x1="243.495" y1="265.983" x2="243.495" y2="271.018" gradientUnits="userSpaceOnUse">
<stop stop-color="#F5F549"/>
<stop offset="1" stop-color="#97C924"/>
</linearGradient>
<linearGradient id="paint14_linear_103_8524" x1="230.439" y1="265.983" x2="230.439" y2="271.018" gradientUnits="userSpaceOnUse">
<stop stop-color="#F5F549"/>
<stop offset="1" stop-color="#97C924"/>
</linearGradient>
<linearGradient id="paint15_linear_103_8524" x1="243.495" y1="265.983" x2="243.495" y2="271.018" gradientUnits="userSpaceOnUse">
<stop stop-color="#F5F549"/>
<stop offset="1" stop-color="#97C924"/>
</linearGradient>
<linearGradient id="paint16_linear_103_8524" x1="243.495" y1="265.983" x2="243.495" y2="271.018" gradientUnits="userSpaceOnUse">
<stop stop-color="#F5F549"/>
<stop offset="1" stop-color="#97C924"/>
</linearGradient>
<linearGradient id="paint17_linear_103_8524" x1="230.353" y1="265.983" x2="230.353" y2="271.018" gradientUnits="userSpaceOnUse">
<stop stop-color="#F5F549"/>
<stop offset="1" stop-color="#97C924"/>
</linearGradient>
<linearGradient id="paint18_linear_103_8524" x1="205.958" y1="275.731" x2="305.228" y2="275.731" gradientUnits="userSpaceOnUse">
<stop stop-color="#002255"/>
<stop offset="0.5" stop-color="#0044AA"/>
<stop offset="1" stop-color="#002255"/>
</linearGradient>
<linearGradient id="paint19_linear_103_8524" x1="202.741" y1="285.644" x2="310.186" y2="285.644" gradientUnits="userSpaceOnUse">
<stop stop-color="#002255"/>
<stop offset="0.5" stop-color="#0044AA"/>
<stop offset="1" stop-color="#002255"/>
</linearGradient>
<linearGradient id="paint20_linear_103_8524" x1="202.741" y1="284.534" x2="310.186" y2="284.534" gradientUnits="userSpaceOnUse">
<stop stop-color="#002255"/>
<stop offset="0.5" stop-color="#0044AA"/>
<stop offset="1" stop-color="#002255"/>
</linearGradient>
<linearGradient id="paint21_linear_103_8524" x1="202.741" y1="283.425" x2="310.186" y2="283.425" gradientUnits="userSpaceOnUse">
<stop stop-color="#002255"/>
<stop offset="0.5" stop-color="#0044AA"/>
<stop offset="1" stop-color="#002255"/>
</linearGradient>
<linearGradient id="paint22_linear_103_8524" x1="202.741" y1="282.316" x2="310.186" y2="282.316" gradientUnits="userSpaceOnUse">
<stop stop-color="#002255"/>
<stop offset="0.5" stop-color="#0044AA"/>
<stop offset="1" stop-color="#002255"/>
</linearGradient>
<linearGradient id="paint23_linear_103_8524" x1="202.741" y1="281.206" x2="310.186" y2="281.206" gradientUnits="userSpaceOnUse">
<stop stop-color="#002255"/>
<stop offset="0.5" stop-color="#0044AA"/>
<stop offset="1" stop-color="#002255"/>
</linearGradient>
<linearGradient id="paint24_linear_103_8524" x1="202.741" y1="280.097" x2="310.186" y2="280.097" gradientUnits="userSpaceOnUse">
<stop stop-color="#002255"/>
<stop offset="0.5" stop-color="#0044AA"/>
<stop offset="1" stop-color="#002255"/>
</linearGradient>
<linearGradient id="paint25_linear_103_8524" x1="202.741" y1="279.073" x2="310.186" y2="279.073" gradientUnits="userSpaceOnUse">
<stop stop-color="#002255"/>
<stop offset="0.5" stop-color="#0044AA"/>
<stop offset="1" stop-color="#002255"/>
</linearGradient>
<linearGradient id="paint26_linear_103_8524" x1="202.741" y1="277.964" x2="310.186" y2="277.964" gradientUnits="userSpaceOnUse">
<stop stop-color="#002255"/>
<stop offset="0.5" stop-color="#0044AA"/>
<stop offset="1" stop-color="#002255"/>
</linearGradient>
<linearGradient id="paint27_linear_103_8524" x1="202.741" y1="276.854" x2="310.186" y2="276.854" gradientUnits="userSpaceOnUse">
<stop stop-color="#002255"/>
<stop offset="0.5" stop-color="#0044AA"/>
<stop offset="1" stop-color="#002255"/>
</linearGradient>
<clipPath id="clip0_103_8524">
<rect width="512" height="512" fill="white" transform="translate(0.5)"/>
</clipPath>
</defs>
</svg>
