<svg width="513" height="512" viewBox="0 0 513 512" fill="none" xmlns="http://www.w3.org/2000/svg">
<g clip-path="url(#clip0_103_8769)">
<mask id="mask0_103_8769" style="mask-type:luminance" maskUnits="userSpaceOnUse" x="0" y="0" width="513" height="512">
<path d="M0.5 0H512.5V512H0.5V0Z" fill="white"/>
</mask>
<g mask="url(#mask0_103_8769)">
<mask id="mask1_103_8769" style="mask-type:luminance" maskUnits="userSpaceOnUse" x="0" y="0" width="513" height="512">
<path d="M0.5 0H512.5V512H0.5V0Z" fill="white"/>
</mask>
<g mask="url(#mask1_103_8769)">
<path fill-rule="evenodd" clip-rule="evenodd" d="M7 505.5H385.8L137.9 254.1L395.2 254.4L7.1 6.5V505.5H7Z" fill="#CE0000" stroke="#000063" stroke-width="13"/>
<path fill-rule="evenodd" clip-rule="evenodd" d="M181.2 371.8L154.2 380.8L175.4 400.6L146.9 398.8L158.6 425L133.1 412.7L133.6 441.3L114.8 420.4L104.1 447L94.9 420.7L74.6 441.3L76.4 413.6L49.5 425L62.1 400L32.8 400.6L54.3 382.3L27 371.8L54 362.8L32.7 343L61.1 344.8L49.5 318.6L75.1 330.9L74.6 302.3L93.4 323.2L104.1 296.6L113.2 322.9L133.6 302.3L131.7 330L158.7 318.6L146 343.6L175.4 343L153.9 361.3L181.2 371.8ZM148.8 187.1L137.5 195.5L143.1 200.1C156.241 190.92 166.811 178.526 173.8 164.1C175.6 185.4 156.1 233.1 105.1 233.6C95.7784 233.719 86.5256 231.991 77.8755 228.515C69.2254 225.039 61.3493 219.884 54.7019 213.348C48.0544 206.812 42.7672 199.025 39.1454 190.435C35.5236 181.845 33.6389 172.622 33.6 163.3C43.6 181.5 49.8 190.3 65.6 199.8L70.3 195.4L59.7 186.5L73.4 182.9L66 170.5L80.4 171.5L78.6 157.1L91.2 164.5L95.2 151L104.2 161.8L112.7 151.5L117.3 165.5L129.1 157.3L127.6 171.6L141.8 169.9L135.1 183.1L148.8 187.1Z" fill="white"/>
</g>
</g>
</g>
<defs>
<clipPath id="clip0_103_8769">
<rect width="512" height="512" fill="white" transform="translate(0.5)"/>
</clipPath>
</defs>
</svg>
