<svg width="513" height="512" viewBox="0 0 513 512" fill="none" xmlns="http://www.w3.org/2000/svg">
<g clip-path="url(#clip0_103_8789)">
<path d="M0.5 0H512.5V512H0.5V0Z" fill="#FEDD00"/>
<path d="M0.5 0H256.5V256H0.5V0Z" fill="#012169"/>
<path d="M256.5 0V32L161.5 128L256.5 221.5V256H223L127.5 162L34.5 256H0.5V222L93.5 128.5L0.5 37V0H31.5L127.5 94L220.5 0H256.5Z" fill="white"/>
<path d="M92.5 162L98 179L21.5 256H0.5V254.5L92.5 162ZM154.5 156L181.5 160L256.5 233.5V256L154.5 156ZM256.5 0L160.5 98L158.5 76L233.5 0H256.5ZM0.5 0.5L97 95L67.5 91L0.5 24.5V0.5Z" fill="#C8102E"/>
<path d="M88.5 0V256H168.5V0H88.5ZM0.5 88V168H256.5V88H0.5Z" fill="white"/>
<path d="M0.5 104V152H256.5V104H0.5ZM104.5 0V256H152.5V0H104.5Z" fill="#C8102E"/>
<path d="M128.5 171.6C152.58 171.6 172.1 152.08 172.1 128C172.1 103.92 152.58 84.3999 128.5 84.3999C104.42 84.3999 84.8999 103.92 84.8999 128C84.8999 152.08 104.42 171.6 128.5 171.6Z" fill="#012169"/>
<path d="M128.5 84.4L154.1 163.2L87.1 114.5H169.9L102.9 163.2M53.8 104.9L68.8 151.2L29.5 122.6H78.2L38.8 151.2M203.2 104.9L218.2 151.2L178.8 122.6H227.5L188.1 151.2M128.5 190.2L143.5 236.5L104.2 207.9H152.8L113.5 236.5M128.5 19.5L143.5 66L104.2 37.3H152.8L113.5 66" fill="#FEDD00"/>
</g>
<defs>
<clipPath id="clip0_103_8789">
<rect width="512" height="512" fill="white" transform="translate(0.5)"/>
</clipPath>
</defs>
</svg>
