<svg width="513" height="512" viewBox="0 0 513 512" fill="none" xmlns="http://www.w3.org/2000/svg">
<g clip-path="url(#clip0_103_8800)">
<path fill-rule="evenodd" clip-rule="evenodd" d="M0.5 0H512.5V512H0.5V0Z" fill="#00247D"/>
<path d="M396.894 154.93V168.679L424.391 154.93H396.894Z" fill="white"/>
<path d="M402.393 171.428L396.894 160.43L424.391 154.93L402.393 171.428Z" fill="white"/>
<path d="M396.894 154.93V168.679L369.397 154.93H396.894Z" fill="white"/>
<path d="M391.395 171.428L396.894 160.43L369.397 154.93L391.395 171.428Z" fill="white"/>
<path d="M404.739 160.63L391.664 164.879L413.236 186.782L404.739 160.63Z" fill="white"/>
<path d="M390.748 170.959L399.509 162.33L413.236 186.782L390.748 170.959Z" fill="white"/>
<path d="M389.049 160.63L402.124 164.879L397.546 134.479L389.049 160.63Z" fill="white"/>
<path d="M406.439 160.498L394.279 162.33L397.546 134.479L406.439 160.498Z" fill="white"/>
<path d="M389.049 160.63L402.124 164.879L380.552 186.782L389.049 160.63Z" fill="white"/>
<path d="M403.04 170.959L394.279 162.33L380.552 186.782L403.04 170.959Z" fill="white"/>
<path d="M396.894 157.729V166.813L415.064 157.729H396.894Z" fill="#CC142B"/>
<path d="M400.528 168.63L396.894 161.362L415.064 157.729L400.528 168.63Z" fill="#CC142B"/>
<path d="M396.894 157.729V166.813L378.724 157.729H396.894Z" fill="#CC142B"/>
<path d="M393.26 168.63L396.894 161.362L378.724 157.729L393.26 168.63Z" fill="#CC142B"/>
<path d="M402.078 161.495L393.438 164.302L407.693 178.775L402.078 161.495Z" fill="#CC142B"/>
<path d="M392.833 168.32L398.622 162.618L407.693 178.775L392.833 168.32Z" fill="#CC142B"/>
<path d="M391.71 161.495L400.35 164.302L397.324 144.214L391.71 161.495Z" fill="#CC142B"/>
<path d="M403.201 161.407L395.166 162.618L397.324 144.214L403.201 161.407Z" fill="#CC142B"/>
<path d="M391.71 161.495L400.35 164.302L386.095 178.775L391.71 161.495Z" fill="#CC142B"/>
<path d="M400.955 168.32L395.166 162.618L386.095 178.775L400.955 168.32Z" fill="#CC142B"/>
<path d="M468.928 218.416L468.928 230.65L493.397 218.416L468.928 218.416Z" fill="white"/>
<path d="M473.822 233.097L468.928 223.31L493.397 218.416L473.822 233.097Z" fill="white"/>
<path d="M468.928 218.416L468.928 230.65L444.459 218.416L468.928 218.416Z" fill="white"/>
<path d="M464.034 233.097L468.928 223.31L444.459 218.416L464.034 233.097Z" fill="white"/>
<path d="M475.909 223.488L464.274 227.269L483.47 246.759L475.909 223.488Z" fill="white"/>
<path d="M463.459 232.679L471.255 225.001L483.47 246.759L463.459 232.679Z" fill="white"/>
<path d="M461.947 223.488L473.582 227.269L469.508 200.217L461.947 223.488Z" fill="white"/>
<path d="M477.421 223.371L466.601 225.001L469.508 200.217L477.421 223.371Z" fill="white"/>
<path d="M461.947 223.488L473.582 227.269L454.385 246.759L461.947 223.488Z" fill="white"/>
<path d="M474.397 232.679L466.601 225.001L454.385 246.759L474.397 232.679Z" fill="white"/>
<path d="M468.928 221.214L468.928 228.785L484.069 221.214L468.928 221.214Z" fill="#CC142B"/>
<path d="M471.956 230.299L468.928 224.243L484.069 221.214L471.956 230.299Z" fill="#CC142B"/>
<path d="M468.928 221.214L468.928 228.785L453.786 221.214L468.928 221.214Z" fill="#CC142B"/>
<path d="M465.9 230.299L468.928 224.243L453.786 221.214L465.9 230.299Z" fill="#CC142B"/>
<path d="M473.248 224.353L466.048 226.693L477.927 238.753L473.248 224.353Z" fill="#CC142B"/>
<path d="M465.544 230.041L470.368 225.289L477.927 238.753L465.544 230.041Z" fill="#CC142B"/>
<path d="M464.608 224.353L471.808 226.693L469.287 209.953L464.608 224.353Z" fill="#CC142B"/>
<path d="M474.184 224.28L467.488 225.289L469.287 209.953L474.184 224.28Z" fill="#CC142B"/>
<path d="M464.608 224.353L471.808 226.693L459.929 238.753L464.608 224.353Z" fill="#CC142B"/>
<path d="M472.312 230.041L467.488 225.289L459.929 238.753L472.312 230.041Z" fill="#CC142B"/>
<path d="M312.962 239.454L312.962 253.203L340.459 239.454L312.962 239.454Z" fill="white"/>
<path d="M318.461 255.952L312.962 244.953L340.459 239.454L318.461 255.952Z" fill="white"/>
<path d="M312.962 239.454L312.962 253.203L285.465 239.454L312.962 239.454Z" fill="white"/>
<path d="M307.462 255.952L312.962 244.953L285.465 239.454L307.462 255.952Z" fill="white"/>
<path d="M320.807 245.154L307.732 249.403L329.304 271.305L320.807 245.154Z" fill="white"/>
<path d="M306.816 255.483L315.577 246.854L329.304 271.305L306.816 255.483Z" fill="white"/>
<path d="M305.116 245.154L318.192 249.403L313.613 219.003L305.116 245.154Z" fill="white"/>
<path d="M322.507 245.022L310.347 246.854L313.613 219.003L322.507 245.022Z" fill="white"/>
<path d="M305.116 245.154L318.192 249.403L296.619 271.305L305.116 245.154Z" fill="white"/>
<path d="M319.108 255.483L310.347 246.854L296.619 271.305L319.108 255.483Z" fill="white"/>
<path d="M312.962 242.252L312.962 251.337L331.132 242.252L312.962 242.252Z" fill="#CC142B"/>
<path d="M316.596 253.154L312.962 245.886L331.132 242.252L316.596 253.154Z" fill="#CC142B"/>
<path d="M312.962 242.252L312.962 251.337L294.792 242.252L312.962 242.252Z" fill="#CC142B"/>
<path d="M309.328 253.154L312.962 245.886L294.792 242.252L309.328 253.154Z" fill="#CC142B"/>
<path d="M318.146 246.019L309.506 248.826L323.761 263.299L318.146 246.019Z" fill="#CC142B"/>
<path d="M308.901 252.844L314.69 247.142L323.761 263.299L308.901 252.844Z" fill="#CC142B"/>
<path d="M307.778 246.019L316.418 248.826L313.392 228.738L307.778 246.019Z" fill="#CC142B"/>
<path d="M319.269 245.931L311.234 247.142L313.392 228.738L319.269 245.931Z" fill="#CC142B"/>
<path d="M307.778 246.019L316.418 248.826L302.163 263.299L307.778 246.019Z" fill="#CC142B"/>
<path d="M317.023 252.844L311.234 247.142L302.163 263.299L317.023 252.844Z" fill="#CC142B"/>
<path d="M396.894 372.059V387.322L427.419 372.059H396.894Z" fill="white"/>
<path d="M402.999 390.374L396.894 378.164L427.419 372.059L402.999 390.374Z" fill="white"/>
<path d="M396.894 372.059V387.322L366.369 372.059H396.894Z" fill="white"/>
<path d="M390.789 390.374L396.894 378.164L366.369 372.059L390.789 390.374Z" fill="white"/>
<path d="M405.603 378.387L391.088 383.103L415.036 407.418L405.603 378.387Z" fill="white"/>
<path d="M390.071 389.853L399.797 380.273L415.036 407.418L390.071 389.853Z" fill="white"/>
<path d="M388.185 378.387L402.7 383.103L397.617 349.355L388.185 378.387Z" fill="white"/>
<path d="M407.49 378.24L393.991 380.273L397.617 349.355L407.49 378.24Z" fill="white"/>
<path d="M388.185 378.387L402.7 383.103L378.752 407.418L388.185 378.387Z" fill="white"/>
<path d="M403.717 389.853L393.991 380.273L378.752 407.418L403.717 389.853Z" fill="white"/>
<path d="M396.894 374.857V385.456L418.092 374.857H396.894Z" fill="#CC142B"/>
<path d="M401.134 387.576L396.894 379.097L418.092 374.857L401.134 387.576Z" fill="#CC142B"/>
<path d="M396.894 374.857V385.456L375.696 374.857H396.894Z" fill="#CC142B"/>
<path d="M392.654 387.576L396.894 379.097L375.696 374.857L392.654 387.576Z" fill="#CC142B"/>
<path d="M402.942 379.251L392.862 382.527L409.493 399.412L402.942 379.251Z" fill="#CC142B"/>
<path d="M392.156 387.214L398.91 380.562L409.493 399.412L392.156 387.214Z" fill="#CC142B"/>
<path d="M390.846 379.251L400.926 382.527L397.396 359.091L390.846 379.251Z" fill="#CC142B"/>
<path d="M404.252 379.15L394.878 380.562L397.396 359.091L404.252 379.15Z" fill="#CC142B"/>
<path d="M390.846 379.251L400.926 382.527L384.295 399.412L390.846 379.251Z" fill="#CC142B"/>
<path d="M401.632 387.214L394.878 380.562L384.295 399.412L401.632 387.214Z" fill="#CC142B"/>
<path d="M0.5 0H256.5V256H0.5V0Z" fill="#012169"/>
<path d="M256.5 0V32L161.5 128L256.5 221.5V256H223L127.5 162L34.5 256H0.5V222L93.5 128.5L0.5 37V0H31.5L127.5 94L220.5 0H256.5Z" fill="white"/>
<path d="M92.5 162L98 179L21.5 256H0.5V254.5L92.5 162ZM154.5 156L181.5 160L256.5 233.5V256L154.5 156ZM256.5 0L160.5 98L158.5 76L233.5 0H256.5ZM0.5 0.5L97 95L67.5 91L0.5 24.5V0.5Z" fill="#C8102E"/>
<path d="M88.5 0V256H168.5V0H88.5ZM0.5 88V168H256.5V88H0.5Z" fill="white"/>
<path d="M0.5 104V152H256.5V104H0.5ZM104.5 0V256H152.5V0H104.5Z" fill="#C8102E"/>
</g>
<defs>
<clipPath id="clip0_103_8800">
<rect width="512" height="512" fill="white" transform="translate(0.5)"/>
</clipPath>
</defs>
</svg>
