<svg width="513" height="512" viewBox="0 0 513 512" fill="none" xmlns="http://www.w3.org/2000/svg">
<g clip-path="url(#clip0_103_8939)">
<mask id="mask0_103_8939" style="mask-type:luminance" maskUnits="userSpaceOnUse" x="0" y="0" width="513" height="512">
<path d="M0.5 0H512.5V512H0.5V0Z" fill="white"/>
</mask>
<g mask="url(#mask0_103_8939)">
<path fill-rule="evenodd" clip-rule="evenodd" d="M-22.8 -21.6001H531.9V531.4H-22.8V-21.6001Z" fill="#EF2D29"/>
<path fill-rule="evenodd" clip-rule="evenodd" d="M165.1 341.3H541.5V549H165.1V341.3Z" fill="#009025"/>
<path fill-rule="evenodd" clip-rule="evenodd" d="M165.1 -19.3999H541.5V170.6H165.1V-19.3999Z" fill="white"/>
<path d="M137.881 76.2993H115.399C114.159 76.2993 113.154 77.2445 113.154 78.4104V89.0182C113.154 90.1841 114.159 91.1293 115.399 91.1293H137.881C139.121 91.1293 140.125 90.1841 140.125 89.0182V78.4104C140.125 77.2445 139.121 76.2993 137.881 76.2993Z" fill="white" stroke="#EF2D28" stroke-width="0.258335"/>
<path d="M137.315 76.9272H115.984C114.809 76.9272 113.857 77.7943 113.857 78.8639V88.5993C113.857 89.6689 114.809 90.5359 115.984 90.5359H137.315C138.49 90.5359 139.442 89.6689 139.442 88.5993V78.8639C139.442 77.7943 138.49 76.9272 137.315 76.9272Z" fill="white" stroke="#EF2D28" stroke-width="0.246034"/>
<path fill-rule="evenodd" clip-rule="evenodd" d="M125.756 80.6157L127.045 80.6668L127.098 81.259L128.162 81.8001L128.986 81.116L129.983 81.6571L129.052 82.2493L129.278 83.0661L130.448 83.0151V84.0871L129.517 84.0463L129.039 84.7201L130.102 85.4859L129.278 86.1189L128.388 85.445L127.098 85.7105L127.165 86.7009L125.756 86.803L125.57 85.8432L124.4 85.3532L123.749 86.027L122.752 85.5267L123.337 84.761L122.632 84.2709H121.635L121.582 82.8721L122.579 82.964L123.284 82.1472L122.459 81.5142L123.523 80.7995L124.28 81.3815L125.57 81.1977L125.756 80.6157Z" fill="white" stroke="#EF2D28" stroke-width="0.155327"/>
<path d="M126.123 84.7731C126.91 84.7731 127.548 84.23 127.548 83.5601C127.548 82.8902 126.91 82.3472 126.123 82.3472C125.335 82.3472 124.697 82.8902 124.697 83.5601C124.697 84.23 125.335 84.7731 126.123 84.7731Z" fill="white" stroke="#EF2D28" stroke-width="0.167268"/>
<path fill-rule="evenodd" clip-rule="evenodd" d="M117.311 77.5381L115.223 79.3875L117.311 77.5381ZM118.697 77.5381L116.609 79.3875L118.697 77.5381ZM120.063 77.5381L117.994 79.3875L120.063 77.5381ZM121.449 77.5381L119.38 79.3875L121.449 77.5381ZM122.834 77.5381L120.766 79.3875L122.834 77.5381ZM124.22 77.5381L122.151 79.3875L124.22 77.5381ZM125.606 77.5381L123.537 79.3875L125.606 77.5381ZM126.991 77.5381L124.922 79.3875L126.991 77.5381ZM128.377 77.5381L126.289 79.3875L128.377 77.5381ZM129.762 77.5381L127.655 79.3875L129.762 77.5381ZM131.109 77.5381L129.04 79.3875L131.109 77.5381ZM132.495 77.5381L130.426 79.3875L132.495 77.5381ZM126.972 77.5381L124.922 79.3875L126.972 77.5381ZM133.9 77.5381L131.831 79.3875L133.9 77.5381ZM135.285 77.5381L133.217 79.3875L135.285 77.5381ZM136.671 77.5381L134.602 79.3875L136.671 77.5381ZM138.057 77.5381L135.988 79.3875L138.057 77.5381ZM135.988 77.5381L138.057 79.3875L135.988 77.5381ZM134.602 77.5381L136.671 79.3875L134.602 77.5381ZM133.217 77.5381L135.285 79.3875L133.217 77.5381ZM131.831 77.5381L133.9 79.3875L131.831 77.5381ZM130.445 77.5381L132.514 79.3875L130.445 77.5381ZM129.06 77.5381L131.129 79.3875L129.06 77.5381ZM127.674 77.5381L129.762 79.3875L127.674 77.5381ZM126.289 77.5381L128.357 79.3875L126.289 77.5381ZM124.883 77.5381L126.972 79.3875L124.883 77.5381ZM123.517 77.5381L125.586 79.3875L123.517 77.5381ZM122.132 77.5381L124.2 79.3875L122.132 77.5381ZM120.746 77.5381L122.815 79.3875L120.746 77.5381ZM126.289 77.5381L128.357 79.3875L126.289 77.5381ZM119.38 77.5381L121.429 79.3875L119.38 77.5381ZM117.975 77.5381L120.063 79.3875L117.975 77.5381ZM116.589 77.5381L118.677 79.3875L116.589 77.5381ZM115.203 77.5381L117.311 79.3875L115.203 77.5381ZM117.311 88.0412L115.243 89.908L117.311 88.0412ZM118.677 88.0412L116.589 89.908L118.677 88.0412ZM120.082 88.0412L117.994 89.908L120.082 88.0412ZM121.449 88.0412L119.38 89.908L121.449 88.0412ZM122.834 88.0412L120.766 89.908L122.834 88.0412ZM124.22 88.0412L122.151 89.908L124.22 88.0412ZM125.606 88.0412L123.556 89.908L125.606 88.0412ZM126.991 88.0412L124.922 89.908L126.991 88.0412ZM128.377 88.0412L126.289 89.908L128.377 88.0412ZM129.743 88.0412L127.655 89.908L129.743 88.0412ZM131.168 88.0412L129.079 89.908L131.168 88.0412ZM132.534 88.0412L130.465 89.908L132.534 88.0412ZM126.991 88.0412L124.922 89.908L126.991 88.0412ZM133.9 88.0412L131.831 89.908L133.9 88.0412ZM135.285 88.0412L133.217 89.908L135.285 88.0412ZM136.671 88.0412L134.602 89.908L136.671 88.0412ZM138.057 88.0412L135.988 89.908L138.057 88.0412ZM135.988 88.0412L138.057 89.908L135.988 88.0412ZM134.602 88.0412L136.671 89.908L134.602 88.0412ZM133.217 88.0412L135.285 89.908L133.217 88.0412ZM131.831 88.0412L133.9 89.908L131.831 88.0412ZM130.445 88.0412L132.514 89.908L130.445 88.0412ZM129.06 88.0412L131.148 89.908L129.06 88.0412ZM127.655 88.0412L129.743 89.908L127.655 88.0412ZM126.289 88.0412L128.357 89.908L126.289 88.0412ZM124.922 88.0412L126.991 89.908L124.922 88.0412ZM123.537 88.0412L125.606 89.908L123.537 88.0412ZM122.151 88.0412L124.22 89.908L122.151 88.0412ZM120.766 88.0412L122.834 89.908L120.766 88.0412ZM126.308 88.0412L128.377 89.908L126.308 88.0412ZM119.399 88.0412L121.449 89.908L119.399 88.0412ZM117.994 88.0412L120.082 89.908L117.994 88.0412ZM116.609 88.0412L118.697 89.908L116.609 88.0412ZM115.243 88.0412L117.311 89.908L115.243 88.0412Z" fill="white"/>
<path d="M117.311 77.5381L115.223 79.3875M118.697 77.5381L116.609 79.3875M120.063 77.5381L117.994 79.3875M121.449 77.5381L119.38 79.3875M122.834 77.5381L120.766 79.3875M124.22 77.5381L122.151 79.3875M125.606 77.5381L123.537 79.3875M126.991 77.5381L124.922 79.3875L126.972 77.5381M128.377 77.5381L126.289 79.3875M129.762 77.5381L127.655 79.3875M131.109 77.5381L129.04 79.3875M132.495 77.5381L130.426 79.3875M133.9 77.5381L131.831 79.3875M135.285 77.5381L133.217 79.3875M136.671 77.5381L134.602 79.3875M138.057 77.5381L135.988 79.3875M135.988 77.5381L138.057 79.3875M134.602 77.5381L136.671 79.3875M133.217 77.5381L135.285 79.3875M131.831 77.5381L133.9 79.3875M130.445 77.5381L132.514 79.3875M129.06 77.5381L131.129 79.3875M127.674 77.5381L129.762 79.3875M126.289 77.5381L128.357 79.3875M124.883 77.5381L126.972 79.3875M123.517 77.5381L125.586 79.3875M122.132 77.5381L124.2 79.3875M120.746 77.5381L122.815 79.3875M119.38 77.5381L121.429 79.3875M117.975 77.5381L120.063 79.3875M116.589 77.5381L118.677 79.3875M115.203 77.5381L117.311 79.3875M117.311 88.0412L115.243 89.908M118.677 88.0412L116.589 89.908M120.082 88.0412L117.994 89.908M121.449 88.0412L119.38 89.908M122.834 88.0412L120.766 89.908M124.22 88.0412L122.151 89.908M125.606 88.0412L123.556 89.908M126.991 88.0412L124.922 89.908M128.377 88.0412L126.289 89.908M129.743 88.0412L127.655 89.908M131.168 88.0412L129.079 89.908M132.534 88.0412L130.465 89.908M133.9 88.0412L131.831 89.908M135.285 88.0412L133.217 89.908M136.671 88.0412L134.602 89.908M138.057 88.0412L135.988 89.908M135.988 88.0412L138.057 89.908M134.602 88.0412L136.671 89.908M133.217 88.0412L135.285 89.908M131.831 88.0412L133.9 89.908M130.445 88.0412L132.514 89.908M129.06 88.0412L131.148 89.908M127.655 88.0412L129.743 89.908M126.289 88.0412L128.357 89.908M124.922 88.0412L126.991 89.908M123.537 88.0412L125.606 89.908M122.151 88.0412L124.22 89.908M120.766 88.0412L122.834 89.908M126.308 88.0412L128.377 89.908M119.399 88.0412L121.449 89.908M117.994 88.0412L120.082 89.908M116.609 88.0412L118.697 89.908M115.243 88.0412L117.311 89.908" stroke="#EF2D28" stroke-width="0.246034"/>
<path d="M47.281 75.5996H24.7985C23.559 75.5996 22.5542 76.5448 22.5542 77.7107V88.3185C22.5542 89.4844 23.559 90.4296 24.7985 90.4296H47.281C48.5205 90.4296 49.5253 89.4844 49.5253 88.3185V77.7107C49.5253 76.5448 48.5205 75.5996 47.281 75.5996Z" fill="white" stroke="#EF2D28" stroke-width="0.258335"/>
<path d="M46.7151 76.2275H25.3841C24.2092 76.2275 23.2568 77.0946 23.2568 78.1642V87.8996C23.2568 88.9691 24.2092 89.8362 25.3841 89.8362H46.7151C47.8899 89.8362 48.8423 88.9691 48.8423 87.8996V78.1642C48.8423 77.0946 47.8899 76.2275 46.7151 76.2275Z" fill="white" stroke="#EF2D28" stroke-width="0.246034"/>
<path fill-rule="evenodd" clip-rule="evenodd" d="M35.1557 79.916L36.445 79.9671L36.4982 80.5592L37.5616 81.1004L38.3857 80.4163L39.3826 80.9574L38.4521 81.5496L38.6781 82.3664L39.8478 82.3154V83.3874L38.9174 83.3466L38.4388 84.0204L39.5022 84.7862L38.6781 85.4192L37.7875 84.7453L36.4982 85.0108L36.5647 86.0012L35.1557 86.1033L34.9696 85.1435L33.8 84.6534L33.1486 85.3273L32.1517 84.827L32.7366 84.0613L32.0321 83.5712H31.0352L30.9821 82.1724L31.979 82.2643L32.6834 81.4475L31.8593 80.8145L32.9227 80.0998L33.6803 80.6818L34.9696 80.498L35.1557 79.916Z" fill="white" stroke="#EF2D28" stroke-width="0.155327"/>
<path d="M35.5225 84.0734C36.31 84.0734 36.9483 83.5303 36.9483 82.8604C36.9483 82.1905 36.31 81.6475 35.5225 81.6475C34.735 81.6475 34.0967 82.1905 34.0967 82.8604C34.0967 83.5303 34.735 84.0734 35.5225 84.0734Z" fill="white" stroke="#EF2D28" stroke-width="0.167268"/>
<path fill-rule="evenodd" clip-rule="evenodd" d="M26.7111 76.8384L24.6229 78.6878L26.7111 76.8384ZM28.0968 76.8384L26.0085 78.6878L28.0968 76.8384ZM29.4629 76.8384L27.3942 78.6878L29.4629 76.8384ZM30.8485 76.8384L28.7798 78.6878L30.8485 76.8384ZM32.2341 76.8384L30.1655 78.6878L32.2341 76.8384ZM33.6198 76.8384L31.5511 78.6878L33.6198 76.8384ZM35.0054 76.8384L32.9367 78.6878L35.0054 76.8384ZM36.3911 76.8384L34.3224 78.6878L36.3911 76.8384ZM37.7767 76.8384L35.6885 78.6878L37.7767 76.8384ZM39.1623 76.8384L37.0546 78.6878L39.1623 76.8384ZM40.5089 76.8384L38.4402 78.6878L40.5089 76.8384ZM41.8946 76.8384L39.8259 78.6878L41.8946 76.8384ZM36.3715 76.8384L34.3224 78.6878L36.3715 76.8384ZM43.2997 76.8384L41.231 78.6878L43.2997 76.8384ZM44.6854 76.8384L42.6167 78.6878L44.6854 76.8384ZM46.071 76.8384L44.0023 78.6878L46.071 76.8384ZM47.4566 76.8384L45.3879 78.6878L47.4566 76.8384ZM45.3879 76.8384L47.4566 78.6878L45.3879 76.8384ZM44.0023 76.8384L46.071 78.6878L44.0023 76.8384ZM42.6167 76.8384L44.6854 78.6878L42.6167 76.8384ZM41.231 76.8384L43.2997 78.6878L41.231 76.8384ZM39.8454 76.8384L41.9141 78.6878L39.8454 76.8384ZM38.4598 76.8384L40.5285 78.6878L38.4598 76.8384ZM37.0741 76.8384L39.1623 78.6878L37.0741 76.8384ZM35.6885 76.8384L37.7572 78.6878L35.6885 76.8384ZM34.2833 76.8384L36.3715 78.6878L34.2833 76.8384ZM32.9172 76.8384L34.9859 78.6878L32.9172 76.8384ZM31.5316 76.8384L33.6003 78.6878L31.5316 76.8384ZM30.1459 76.8384L32.2146 78.6878L30.1459 76.8384ZM35.6885 76.8384L37.7572 78.6878L35.6885 76.8384ZM28.7798 76.8384L30.829 78.6878L28.7798 76.8384ZM27.3747 76.8384L29.4629 78.6878L27.3747 76.8384ZM25.989 76.8384L28.0772 78.6878L25.989 76.8384ZM24.6034 76.8384L26.7111 78.6878L24.6034 76.8384ZM26.7111 87.3415L24.6424 89.2083L26.7111 87.3415ZM28.0772 87.3415L25.989 89.2083L28.0772 87.3415ZM29.4824 87.3415L27.3942 89.2083L29.4824 87.3415ZM30.8485 87.3415L28.7798 89.2083L30.8485 87.3415ZM32.2341 87.3415L30.1655 89.2083L32.2341 87.3415ZM33.6198 87.3415L31.5511 89.2083L33.6198 87.3415ZM35.0054 87.3415L32.9562 89.2083L35.0054 87.3415ZM36.3911 87.3415L34.3224 89.2083L36.3911 87.3415ZM37.7767 87.3415L35.6885 89.2083L37.7767 87.3415ZM39.1428 87.3415L37.0546 89.2083L39.1428 87.3415ZM40.5675 87.3415L38.4793 89.2083L40.5675 87.3415ZM41.9336 87.3415L39.8649 89.2083L41.9336 87.3415ZM36.3911 87.3415L34.3224 89.2083L36.3911 87.3415ZM43.2997 87.3415L41.231 89.2083L43.2997 87.3415ZM44.6854 87.3415L42.6167 89.2083L44.6854 87.3415ZM46.071 87.3415L44.0023 89.2083L46.071 87.3415ZM47.4566 87.3415L45.3879 89.2083L47.4566 87.3415ZM45.3879 87.3415L47.4566 89.2083L45.3879 87.3415ZM44.0023 87.3415L46.071 89.2083L44.0023 87.3415ZM42.6167 87.3415L44.6854 89.2083L42.6167 87.3415ZM41.231 87.3415L43.2997 89.2083L41.231 87.3415ZM39.8454 87.3415L41.9141 89.2083L39.8454 87.3415ZM38.4598 87.3415L40.548 89.2083L38.4598 87.3415ZM37.0546 87.3415L39.1428 89.2083L37.0546 87.3415ZM35.6885 87.3415L37.7572 89.2083L35.6885 87.3415ZM34.3224 87.3415L36.3911 89.2083L34.3224 87.3415ZM32.9367 87.3415L35.0054 89.2083L32.9367 87.3415ZM31.5511 87.3415L33.6198 89.2083L31.5511 87.3415ZM30.1655 87.3415L32.2341 89.2083L30.1655 87.3415ZM35.708 87.3415L37.7767 89.2083L35.708 87.3415ZM28.7993 87.3415L30.8485 89.2083L28.7993 87.3415ZM27.3942 87.3415L29.4824 89.2083L27.3942 87.3415ZM26.0085 87.3415L28.0968 89.2083L26.0085 87.3415ZM24.6424 87.3415L26.7111 89.2083L24.6424 87.3415Z" fill="white"/>
<path d="M26.7111 76.8384L24.6229 78.6878M28.0968 76.8384L26.0085 78.6878M29.4629 76.8384L27.3942 78.6878M30.8485 76.8384L28.7798 78.6878M32.2342 76.8384L30.1655 78.6878M33.6198 76.8384L31.5511 78.6878M35.0054 76.8384L32.9367 78.6878M36.3911 76.8384L34.3224 78.6878L36.3715 76.8384M37.7767 76.8384L35.6885 78.6878M39.1623 76.8384L37.0546 78.6878M40.5089 76.8384L38.4402 78.6878M41.8946 76.8384L39.8259 78.6878M43.2997 76.8384L41.231 78.6878M44.6854 76.8384L42.6167 78.6878M46.071 76.8384L44.0023 78.6878M47.4566 76.8384L45.3879 78.6878M45.3879 76.8384L47.4566 78.6878M44.0023 76.8384L46.071 78.6878M42.6167 76.8384L44.6854 78.6878M41.231 76.8384L43.2997 78.6878M39.8454 76.8384L41.9141 78.6878M38.4598 76.8384L40.5285 78.6878M37.0741 76.8384L39.1623 78.6878M35.6885 76.8384L37.7572 78.6878M34.2833 76.8384L36.3715 78.6878M32.9172 76.8384L34.9859 78.6878M31.5316 76.8384L33.6003 78.6878M30.1459 76.8384L32.2146 78.6878M28.7798 76.8384L30.829 78.6878M27.3747 76.8384L29.4629 78.6878M25.989 76.8384L28.0772 78.6878M24.6034 76.8384L26.7111 78.6878M26.7111 87.3415L24.6424 89.2083M28.0772 87.3415L25.989 89.2083M29.4824 87.3415L27.3942 89.2083M30.8485 87.3415L28.7798 89.2083M32.2342 87.3415L30.1655 89.2083M33.6198 87.3415L31.5511 89.2083M35.0054 87.3415L32.9562 89.2083M36.3911 87.3415L34.3224 89.2083M37.7767 87.3415L35.6885 89.2083M39.1428 87.3415L37.0546 89.2083M40.5675 87.3415L38.4793 89.2083M41.9336 87.3415L39.8649 89.2083M43.2997 87.3415L41.231 89.2083M44.6854 87.3415L42.6167 89.2083M46.071 87.3415L44.0023 89.2083M47.4566 87.3415L45.3879 89.2083M45.3879 87.3415L47.4566 89.2083M44.0023 87.3415L46.071 89.2083M42.6167 87.3415L44.6854 89.2083M41.231 87.3415L43.2997 89.2083M39.8454 87.3415L41.9141 89.2083M38.4598 87.3415L40.548 89.2083M37.0546 87.3415L39.1428 89.2083M35.6885 87.3415L37.7572 89.2083M34.3224 87.3415L36.3911 89.2083M32.9367 87.3415L35.0054 89.2083M31.5511 87.3415L33.6198 89.2083M30.1655 87.3415L32.2342 89.2083M35.708 87.3415L37.7767 89.2083M28.7993 87.3415L30.8485 89.2083M27.3942 87.3415L29.4824 89.2083M26.0085 87.3415L28.0968 89.2083M24.6424 87.3415L26.7111 89.2083" stroke="#EF2D28" stroke-width="0.246034"/>
<path fill-rule="evenodd" clip-rule="evenodd" d="M64.9698 106.704C31.4125 139.617 17.0971 143.774 23.8275 146.431C30.5579 149.088 52.1615 132.097 74.6373 109.55C97.1132 87.0027 110.881 66.9194 104.15 64.2629C97.4198 61.6063 100.671 71.728 64.9698 106.704Z" fill="white" stroke="#EF2D28" stroke-width="0.411759"/>
<path fill-rule="evenodd" clip-rule="evenodd" d="M36.6011 130.699L48.3693 133.787C37.3037 144.308 24.8525 148.617 21.3982 146.768C17.9438 144.919 27.6238 140.592 36.6206 130.717L36.6011 130.699Z" fill="white" stroke="#EF2D28" stroke-width="0.239883"/>
<path fill-rule="evenodd" clip-rule="evenodd" d="M36.6582 131.91L46.3533 134.376C35.5746 144.492 24.91 147.361 22.1535 146.119C19.3781 144.895 27.9136 141.422 36.6582 131.91Z" fill="white" stroke="#EF2D28" stroke-width="0.232155"/>
<path d="M72.7698 105.311C72.7423 105.469 72.6598 106.177 72.5911 106.458C72.5911 106.848 72.5499 107.141 72.5086 107.447C72.3987 107.715 72.4124 107.959 72.0826 108.057C71.9302 108.301 71.6874 108.491 71.3954 108.594C71.1313 108.782 70.8401 108.938 70.5295 109.058C70.2046 109.183 69.8419 109.209 69.4987 109.131C69.1963 108.948 68.9764 108.753 68.729 108.594C68.6741 108.35 68.6191 107.996 68.5504 107.752C68.6577 108.077 68.7178 108.414 68.729 108.753C68.7016 109.119 68.5504 109.29 68.3854 109.583" stroke="#EF2D28" stroke-width="0.233139"/>
<path d="M69.5808 110.408L69.4983 110.335C69.7045 110.518 69.622 110.433 69.1547 110.176C68.8249 110.03 68.4675 109.957 68.0415 109.883H66.832C66.3647 109.883 66.0486 109.944 65.7187 110.03C65.4713 110.249 65.114 110.372 64.8529 110.567C64.6208 110.723 64.4442 110.934 64.3443 111.177C64.1107 111.385 63.9595 111.702 63.7396 111.861C63.6434 112.215 63.451 112.202 63.3135 112.471C63.7258 112.495 64.042 112.544 64.2619 112.776C64.6192 112.935 63.9595 112.617 63.8221 112.471C63.5472 112.398 63.4785 112.325 63.0524 112.325C62.6676 112.202 62.4202 112.41 62.0216 112.471C61.7879 112.593 61.7192 112.63 61.4169 112.63" stroke="#EF2D28" stroke-width="0.233139"/>
<path d="M64.9874 114.281C64.8088 114.281 64.0116 114.415 63.6955 114.281C63.3381 114.196 63.1457 114.037 62.9258 113.744C62.8159 113.537 62.9258 114.11 62.9258 114.354C62.8846 114.806 62.7334 114.806 62.486 115.111C62.2386 115.258 61.9775 115.453 61.7164 115.575C61.4873 115.741 61.2266 115.869 60.9467 115.953C60.6718 116.075 60.3832 116.173 60.177 116.332C59.8884 116.515 59.9021 116.735 59.7372 117.028C59.7785 117.394 59.8472 117.613 60.0808 117.784C60.1908 118.041 60.4107 118.297 60.6031 118.468C60.8093 118.834 61.0566 118.993 60.5206 119.078C60.2183 119.2 60.0533 119.103 59.7372 119.078" stroke="#EF2D28" stroke-width="0.233139"/>
<path d="M59.4463 119.594C59.2264 119.545 58.4842 119.325 58.1544 119.215H56.9449C56.4913 119.252 56.3951 119.374 56.0103 119.52C55.7492 119.752 55.5842 119.911 55.2269 120.058C55.0482 120.265 54.6771 120.631 54.5397 120.9C54.4266 121.215 54.3709 121.545 54.3748 121.876C54.3748 122.328 54.5122 122.413 54.5397 122.804C54.6359 123.139 54.8142 123.452 55.062 123.719C55.1032 123.817 55.1307 123.841 55.2269 123.866" stroke="#EF2D28" stroke-width="0.233139"/>
<path d="M55.3921 124.814C55.3531 124.814 55.275 125.007 55.1481 125.171C54.8652 125.46 54.8359 125.479 54.4163 125.479C54.026 125.46 54.0748 125.325 53.8015 125.238C53.6747 125.045 53.5186 124.891 53.3722 124.631C53.2746 124.477 53.1868 124.236 53.0794 124.091C52.9623 123.908 52.8257 123.773 52.7086 123.61C52.5915 123.561 52.5525 123.513 52.3964 123.484C52.7477 123.542 52.7867 123.667 53.0111 123.851C53.1218 124.025 53.2228 124.205 53.3136 124.39C53.3527 124.65 53.4307 124.853 53.4405 125.171C53.4405 125.508 53.4405 125.739 53.3136 126.018C53.1673 126.163 53.0697 126.317 52.8843 126.442C52.7301 126.59 52.5896 126.751 52.4647 126.924L51.9085 127.281C51.7328 127.387 51.5279 127.493 51.2449 127.521C50.8839 127.493 50.7766 127.396 50.5131 127.281C50.2789 127.117 50.1032 127.011 49.8983 126.857C49.7302 126.72 49.5852 126.557 49.469 126.375C49.147 126.298 48.9323 126.327 48.7371 126.5C48.5716 126.614 48.4293 126.758 48.3175 126.924C48.22 126.972 48.0443 127.117 47.9467 127.165" stroke="#EF2D28" stroke-width="0.232711"/>
<path d="M48.6789 127.333C48.7759 127.369 49.1399 127.621 49.2855 127.705C49.3825 128.03 49.5403 128.198 49.5888 128.547C49.6737 128.86 49.6737 129.22 49.6737 129.593C49.5888 129.978 49.4311 130.254 49.2855 130.555C49.0428 130.723 48.9215 130.844 48.6061 131.012C48.3028 131.06 47.9995 131.096 47.6234 131.096C47.3808 131.168 46.944 131.204 46.7135 131.096C46.3738 131.048 46.119 130.916 45.8764 130.795C45.5974 130.639 45.4275 130.483 45.1242 130.339C44.9665 130.122 44.736 129.918 44.5176 129.665C44.3235 129.413 44.19 129.268 44.0566 128.992C44.1779 129.304 44.3356 129.593 44.4327 129.894C44.6147 130.206 44.7117 130.326 44.736 130.711C44.8573 131.024 44.8209 131.409 44.8209 131.769C44.7845 132.01 44.7724 132.467 44.6632 132.671V132.9" stroke="#EF2D28" stroke-width="0.22948"/>
<path d="M37.4598 134.136V134.258C37.4598 133.962 37.4598 134.101 37.5964 134.695C37.8111 134.939 38.377 135.009 38.8064 134.904C39.1967 134.607 39.1967 134.381 39.8993 134.258C40.6018 134.293 40.8751 134.468 41.2654 134.695C41.6804 134.833 42.0266 135.099 42.2412 135.445C42.3778 135.811 42.4559 136.073 41.9875 136.213C41.5795 136.457 41.1101 136.607 40.6214 136.649C40.0749 136.649 39.6651 136.596 39.4114 136.876C39.021 137.224 39.0601 137.434 39.0601 138.062C38.9235 138.254 38.9039 138.83 38.8064 139.056C38.4705 139.215 38.0924 139.287 37.7135 139.266C37.5769 138.917 37.4402 138.324 37.3427 137.957C37.2451 137.573 37.2256 137.015 36.9719 136.753C36.7481 136.453 36.4635 136.193 36.1327 135.986C35.9353 135.786 35.6779 135.64 35.3911 135.567C35.879 135.776 35.9375 136.021 35.9961 136.544C35.5862 136.719 35.4691 136.858 34.7861 136.876C34.103 136.823 33.9469 136.666 33.6932 136.317C33.6346 136.876 33.4395 137.05 33.3029 137.539C33.0687 137.853 32.9711 138.184 32.7174 138.62C32.815 139.144 33.0491 139.161 33.0687 139.807C33.2248 140.243 33.2248 140.644 33.5566 140.906C33.7127 141.08 33.8298 141.098 34.1811 141.115C33.4785 141.115 33.0491 141.045 32.5808 140.801C32.2295 140.592 31.9563 140.347 31.605 140.138C31.1647 139.842 30.6692 139.617 30.1413 139.475C29.5753 139.475 29.1655 139.423 28.9313 139.702C28.58 139.929 28.3458 140.313 28.1897 140.801C28.0921 141.359 28.0335 141.743 28.3263 142.11C28.5214 142.528 28.58 142.685 28.3263 143.191C28.0335 143.54 27.6237 143.593 26.9602 143.732C26.5113 143.715 26.0624 143.628 25.7502 143.523" stroke="#EF2D28" stroke-width="0.239883"/>
<path fill-rule="evenodd" clip-rule="evenodd" d="M103.136 77.0759C118.018 51.3158 127.889 29.3648 125.198 28.1223C122.479 26.8669 108.197 46.781 93.3146 72.5411L103.136 77.0759Z" fill="white" stroke="#EF2D28" stroke-width="0.312784"/>
<path fill-rule="evenodd" clip-rule="evenodd" d="M102.153 76.6402C116.51 51.7892 126.398 30.7817 124.245 29.7876C122.07 28.7833 108.653 48.1614 94.2958 73.0124" fill="white"/>
<path d="M102.153 76.6402C116.51 51.7892 126.398 30.7817 124.245 29.7876C122.07 28.7833 108.653 48.1614 94.2958 73.0124" stroke="#EF2D28" stroke-width="0.274784"/>
<path fill-rule="evenodd" clip-rule="evenodd" d="M99.6871 63.6762C97.939 66.5804 96.0869 69.9078 94.2958 73.0081L102.175 76.6462C103.966 73.5459 105.929 70.2697 107.566 67.3143L99.6871 63.6762Z" fill="white" stroke="#EF2D28" stroke-width="0.311862"/>
<path fill-rule="evenodd" clip-rule="evenodd" d="M100.373 64.6801C98.6155 67.5998 97.4082 69.8111 95.6081 72.9269L101.49 75.6426C103.281 72.5423 104.617 70.3512 106.254 67.3958L100.373 64.6801Z" fill="white" stroke="#EF2D28" stroke-width="0.311862"/>
<path fill-rule="evenodd" clip-rule="evenodd" d="M104.647 68.0484L100.708 66.2294L97.2149 72.2749L101.155 74.094L104.647 68.0484ZM104.647 68.0484L97.2149 72.2749L104.647 68.0484ZM101.155 74.094L100.708 66.2294L101.155 74.094ZM122.415 37.2935L118.476 35.4744L122.415 37.2935Z" fill="white"/>
<path d="M104.647 68.0484L100.708 66.2294M104.647 68.0484L101.155 74.094M104.647 68.0484L97.2149 72.2749M100.708 66.2294L97.2149 72.2749M100.708 66.2294L101.155 74.094M97.2149 72.2749L101.155 74.094M122.415 37.2935L118.476 35.4744" stroke="#EF2D28" stroke-width="0.311862"/>
<path d="M122.392 34.4332C121.786 34.5862 121.185 34.2786 121.048 33.7462C120.912 33.2138 121.292 32.6581 121.897 32.5051C122.502 32.3521 123.104 32.6596 123.24 33.1921C123.377 33.7245 122.997 34.2801 122.392 34.4332Z" fill="#EF0000" stroke="#EF2D28" stroke-width="0.404089"/>
<path fill-rule="evenodd" clip-rule="evenodd" d="M97.33 106.104C130.887 139.017 145.203 143.174 138.472 145.831C131.742 148.487 110.138 131.497 87.6625 108.95C65.1866 86.4026 51.4193 66.3193 58.1497 63.6628C64.88 61.0062 61.6284 71.1279 97.33 106.104Z" fill="white" stroke="#EF2D28" stroke-width="0.411759"/>
<path fill-rule="evenodd" clip-rule="evenodd" d="M125.599 129.999L113.831 133.087C124.896 143.608 137.347 147.917 140.802 146.068C144.256 144.218 134.576 139.891 125.579 130.016L125.599 129.999Z" fill="white" stroke="#EF2D28" stroke-width="0.239883"/>
<path fill-rule="evenodd" clip-rule="evenodd" d="M125.542 131.31L115.847 133.776C126.625 143.892 137.29 146.761 140.046 145.519C142.822 144.295 134.286 140.822 125.542 131.31Z" fill="white" stroke="#EF2D28" stroke-width="0.232155"/>
<path d="M89.53 104.71C89.5575 104.869 89.64 105.577 89.7087 105.858C89.7087 106.248 89.7499 106.541 89.7912 106.846C89.9011 107.115 89.8874 107.359 90.2172 107.457C90.3696 107.701 90.6124 107.891 90.9044 107.994C91.1685 108.182 91.4597 108.338 91.7703 108.458C92.0952 108.583 92.4579 108.609 92.8011 108.531C93.1035 108.348 93.3234 108.153 93.5708 107.994C93.6257 107.75 93.6807 107.396 93.7494 107.152C93.6421 107.477 93.582 107.814 93.5708 108.153C93.5983 108.519 93.7494 108.69 93.9144 108.983" stroke="#EF2D28" stroke-width="0.233139"/>
<path d="M92.719 109.808L92.8015 109.735C92.5953 109.918 92.6778 109.832 93.1451 109.576C93.4749 109.43 93.8323 109.356 94.2583 109.283H95.4678C95.9351 109.283 96.2512 109.344 96.5811 109.43C96.8285 109.649 97.1858 109.771 97.4469 109.967C97.679 110.122 97.8556 110.334 97.9555 110.577C98.1891 110.785 98.3403 111.102 98.5602 111.261C98.6564 111.615 98.8488 111.602 98.9863 111.871C98.574 111.895 98.2578 111.944 98.0379 112.176C97.6806 112.335 98.3403 112.017 98.4777 111.871C98.7526 111.798 98.8213 111.724 99.2474 111.724C99.6322 111.602 99.8796 111.81 100.278 111.871C100.512 111.993 100.581 112.03 100.883 112.03" stroke="#EF2D28" stroke-width="0.233139"/>
<path d="M97.3124 113.581C97.491 113.581 98.2882 113.715 98.6043 113.581C98.9617 113.496 99.1541 113.337 99.374 113.044C99.4839 112.836 99.374 113.41 99.374 113.654C99.4152 114.106 99.5664 114.106 99.8138 114.411C100.061 114.557 100.322 114.753 100.583 114.875C100.812 115.041 101.073 115.169 101.353 115.253C101.628 115.375 101.917 115.473 102.123 115.632C102.411 115.815 102.398 116.034 102.563 116.327C102.521 116.694 102.453 116.913 102.219 117.084C102.109 117.34 101.889 117.597 101.697 117.768C101.491 118.134 101.243 118.292 101.779 118.378C102.082 118.5 102.246 118.402 102.563 118.378" stroke="#EF2D28" stroke-width="0.233139"/>
<path d="M102.754 118.994C102.973 118.945 103.716 118.725 104.045 118.615H105.255C105.708 118.652 105.805 118.774 106.19 118.92C106.451 119.152 106.616 119.311 106.973 119.457C107.152 119.665 107.523 120.031 107.66 120.3C107.773 120.615 107.829 120.945 107.825 121.276C107.825 121.728 107.688 121.813 107.66 122.204C107.564 122.539 107.386 122.852 107.138 123.119C107.097 123.217 107.069 123.241 106.973 123.266" stroke="#EF2D28" stroke-width="0.233139"/>
<path d="M106.808 124.214C106.847 124.214 106.925 124.407 107.052 124.571C107.335 124.86 107.364 124.879 107.784 124.879C108.174 124.86 108.125 124.725 108.398 124.638C108.525 124.446 108.681 124.291 108.828 124.031C108.925 123.877 109.013 123.636 109.12 123.492C109.237 123.309 109.374 123.174 109.491 123.01C109.608 122.962 109.647 122.914 109.803 122.885C109.452 122.943 109.413 123.068 109.189 123.251C109.078 123.425 108.977 123.605 108.886 123.79C108.847 124.051 108.769 124.253 108.759 124.571C108.759 124.908 108.759 125.139 108.886 125.419C109.033 125.563 109.13 125.717 109.316 125.843C109.47 125.991 109.61 126.152 109.735 126.324L110.291 126.681C110.467 126.787 110.672 126.893 110.955 126.922C111.316 126.893 111.423 126.797 111.687 126.681C111.921 126.517 112.097 126.411 112.301 126.257C112.47 126.12 112.615 125.957 112.731 125.775C113.053 125.698 113.268 125.727 113.463 125.901C113.628 126.015 113.771 126.158 113.882 126.324C113.98 126.373 114.156 126.517 114.253 126.565" stroke="#EF2D28" stroke-width="0.232711"/>
<path d="M113.621 126.732C113.524 126.768 113.16 127.021 113.014 127.105C112.917 127.43 112.76 127.598 112.711 127.947C112.626 128.259 112.626 128.62 112.626 128.993C112.711 129.378 112.869 129.654 113.014 129.955C113.257 130.123 113.378 130.243 113.694 130.412C113.997 130.46 114.3 130.496 114.676 130.496C114.919 130.568 115.356 130.604 115.586 130.496C115.926 130.448 116.181 130.316 116.423 130.195C116.702 130.039 116.872 129.883 117.176 129.738C117.333 129.522 117.564 129.318 117.782 129.065C117.976 128.813 118.11 128.668 118.243 128.392C118.122 128.704 117.964 128.993 117.867 129.294C117.685 129.606 117.588 129.726 117.564 130.111C117.443 130.424 117.479 130.809 117.479 131.169C117.515 131.41 117.527 131.867 117.637 132.071V132.3" stroke="#EF2D28" stroke-width="0.22948"/>
<path d="M124.74 133.436V133.558C124.74 133.262 124.74 133.401 124.603 133.994C124.389 134.239 123.823 134.309 123.393 134.204C123.003 133.907 123.003 133.68 122.301 133.558C121.598 133.593 121.325 133.768 120.934 133.994C120.519 134.132 120.173 134.398 119.959 134.745C119.822 135.111 119.744 135.373 120.212 135.512C120.62 135.757 121.09 135.906 121.578 135.949C122.125 135.949 122.535 135.896 122.788 136.175C123.179 136.524 123.14 136.734 123.14 137.362C123.276 137.554 123.296 138.129 123.393 138.356C123.729 138.514 124.107 138.587 124.486 138.566C124.623 138.217 124.76 137.623 124.857 137.257C124.955 136.873 124.974 136.315 125.228 136.053C125.452 135.753 125.736 135.492 126.067 135.286C126.265 135.085 126.522 134.94 126.809 134.867C126.321 135.076 126.262 135.32 126.204 135.844C126.614 136.018 126.731 136.158 127.414 136.175C128.097 136.123 128.253 135.966 128.507 135.617C128.565 136.175 128.76 136.35 128.897 136.838C129.131 137.152 129.229 137.484 129.482 137.92C129.385 138.443 129.151 138.461 129.131 139.106C128.975 139.543 128.975 139.944 128.643 140.206C128.487 140.38 128.37 140.398 128.019 140.415C128.721 140.415 129.151 140.345 129.619 140.101C129.97 139.892 130.244 139.647 130.595 139.438C131.035 139.141 131.531 138.917 132.059 138.775C132.625 138.775 133.034 138.723 133.269 139.002C133.62 139.229 133.854 139.612 134.01 140.101C134.108 140.659 134.166 141.043 133.874 141.409C133.678 141.828 133.62 141.985 133.874 142.491C134.166 142.84 134.576 142.892 135.24 143.032C135.689 143.015 136.137 142.927 136.45 142.823" stroke="#EF2D28" stroke-width="0.239883"/>
<path fill-rule="evenodd" clip-rule="evenodd" d="M59.0638 76.3757C44.1813 50.6156 34.3111 28.6646 37.0022 27.4221C39.7211 26.1667 54.0027 46.0808 68.8852 71.8409L59.0638 76.3757Z" fill="white" stroke="#EF2D28" stroke-width="0.312784"/>
<path fill-rule="evenodd" clip-rule="evenodd" d="M60.0468 75.94C45.6895 51.089 35.802 30.0815 37.955 29.0874C40.1301 28.0831 53.5467 47.4612 67.904 72.3122" fill="white"/>
<path d="M60.0468 75.94C45.6895 51.089 35.802 30.0815 37.955 29.0874C40.1301 28.0831 53.5467 47.4612 67.904 72.3122" stroke="#EF2D28" stroke-width="0.274784"/>
<path fill-rule="evenodd" clip-rule="evenodd" d="M62.5127 62.976C64.2608 65.8802 66.1129 69.2076 67.904 72.3079L60.0248 75.946C58.2336 72.8457 56.2706 69.5695 54.6334 66.6141L62.5127 62.976Z" fill="white" stroke="#EF2D28" stroke-width="0.311862"/>
<path fill-rule="evenodd" clip-rule="evenodd" d="M61.8273 63.9799C63.5844 66.8996 64.7916 69.1109 66.5917 72.2267L60.71 74.9424C58.9188 71.8421 57.5827 69.651 55.9456 66.6956L61.8273 63.9799Z" fill="white" stroke="#EF2D28" stroke-width="0.311862"/>
<path fill-rule="evenodd" clip-rule="evenodd" d="M57.5525 67.3482L61.4922 65.5292L64.9849 71.5748L61.0452 73.3938L57.5525 67.3482ZM57.5525 67.3482L64.9849 71.5748L57.5525 67.3482ZM61.0452 73.3938L61.4922 65.5292L61.0452 73.3938ZM39.7844 36.5933L43.7241 34.7742L39.7844 36.5933Z" fill="white"/>
<path d="M57.5525 67.3482L61.4922 65.5292M57.5525 67.3482L61.0452 73.3938M57.5525 67.3482L64.9849 71.5748M61.4922 65.5292L64.9849 71.5748M61.4922 65.5292L61.0452 73.3938M64.9849 71.5748L61.0452 73.3938M39.7844 36.5933L43.7241 34.7742" stroke="#EF2D28" stroke-width="0.311862"/>
<path d="M39.8081 33.733C40.4134 33.886 41.0149 33.5784 41.1515 33.046C41.2881 32.5136 40.9082 31.9579 40.3028 31.8049C39.6975 31.6519 39.096 31.9594 38.9594 32.4919C38.8228 33.0243 39.2028 33.5799 39.8081 33.733Z" fill="#EF0000" stroke="#EF2D28" stroke-width="0.404089"/>
<path fill-rule="evenodd" clip-rule="evenodd" d="M70.9649 63.2471C70.9649 84.8813 71.095 93.0291 69.5078 94.1457C67.9986 95.3495 26.0272 94.1457 26.0272 100.322C26.0272 106.498 60.5827 112.709 70.9649 112.709C84.8079 112.709 91.7034 106.516 91.7034 94.1457V63.2645H70.9649V63.2471Z" fill="white" stroke="#EF2D28" stroke-width="0.284092"/>
<path fill-rule="evenodd" clip-rule="evenodd" d="M70.9734 69.4229V72.5109C77.8342 73.5394 84.8386 73.5394 91.6994 72.5109V69.4229C84.8386 70.4513 77.8342 70.4513 70.9734 69.4229Z" fill="white" stroke="#EF2D28" stroke-width="0.246034"/>
<path fill-rule="evenodd" clip-rule="evenodd" d="M70.9734 63.2466V66.3347C77.8342 67.3631 84.8386 67.3631 91.6994 66.3347V63.2466C84.8386 64.275 77.8342 64.275 70.9734 63.2466Z" fill="white" stroke="#EF2D28" stroke-width="0.246034"/>
<path fill-rule="evenodd" clip-rule="evenodd" d="M70.9734 66.3345V69.4226C77.8342 70.451 84.8386 70.451 91.6994 69.4226V66.3345C84.8386 67.3629 77.8342 67.3629 70.9734 66.3345Z" fill="white" stroke="#EF2D28" stroke-width="0.246034"/>
<path fill-rule="evenodd" clip-rule="evenodd" d="M70.9734 72.5107V75.5988C77.8342 76.6273 84.8386 76.6273 91.6994 75.5988V72.5107C84.8386 73.5392 77.8342 73.5392 70.9734 72.5107Z" fill="white" stroke="#EF2D28" stroke-width="0.246034"/>
<path d="M71.9153 68.751C72.4385 68.751 72.8627 68.4522 72.8627 68.0835C72.8627 67.7149 72.4385 67.416 71.9153 67.416C71.3921 67.416 70.9679 67.7149 70.9679 68.0835C70.9679 68.4522 71.3921 68.751 71.9153 68.751Z" fill="white" stroke="#EF2D28" stroke-width="0.232579"/>
<path d="M75.6836 69.0835C76.2068 69.0835 76.631 68.7847 76.631 68.416C76.631 68.0474 76.2068 67.7485 75.6836 67.7485C75.1604 67.7485 74.7362 68.0474 74.7362 68.416C74.7362 68.7847 75.1604 69.0835 75.6836 69.0835Z" fill="white" stroke="#EF2D28" stroke-width="0.232579"/>
<path d="M79.4625 69.4229C79.9858 69.4229 80.4099 69.124 80.4099 68.7554C80.4099 68.3867 79.9858 68.0879 79.4625 68.0879C78.9393 68.0879 78.5151 68.3867 78.5151 68.7554C78.5151 69.124 78.9393 69.4229 79.4625 69.4229Z" fill="white" stroke="#EF2D28" stroke-width="0.232579"/>
<path d="M83.231 69.4229C83.7542 69.4229 84.1784 69.124 84.1784 68.7554C84.1784 68.3867 83.7542 68.0879 83.231 68.0879C82.7077 68.0879 82.2836 68.3867 82.2836 68.7554C82.2836 69.124 82.7077 69.4229 83.231 69.4229Z" fill="white" stroke="#EF2D28" stroke-width="0.232579"/>
<path d="M86.9993 69.0835C87.5225 69.0835 87.9467 68.7847 87.9467 68.416C87.9467 68.0474 87.5225 67.7485 86.9993 67.7485C86.476 67.7485 86.0519 68.0474 86.0519 68.416C86.0519 68.7847 86.476 69.0835 86.9993 69.0835Z" fill="white" stroke="#EF2D28" stroke-width="0.232579"/>
<path d="M90.7782 68.751C91.3015 68.751 91.7256 68.4522 91.7256 68.0835C91.7256 67.7149 91.3015 67.416 90.7782 67.416C90.255 67.416 89.8308 67.7149 89.8308 68.0835C89.8308 68.4522 90.255 68.751 90.7782 68.751Z" fill="white" stroke="#EF2D28" stroke-width="0.232579"/>
<path fill-rule="evenodd" clip-rule="evenodd" d="M70.9734 78.688L91.6994 95.3848L70.9734 78.688ZM73.0421 78.688L91.719 93.5179L73.0421 78.688ZM75.7939 79.3161L91.719 91.686L75.7939 79.3161ZM77.8626 79.2986L91.719 89.8192L77.8626 79.2986ZM79.9508 79.3161L91.6994 87.9698L79.9508 79.3161ZM82.0195 79.3161L91.6994 86.1204L82.0195 79.3161ZM84.0882 79.3161L91.6994 84.2536L84.0882 79.3161ZM86.1959 79.3161L91.7385 83.0148L86.1959 79.3161ZM88.2451 79.3161L91.719 81.7936L88.2451 79.3161ZM90.3333 79.3161L91.6994 80.5374L90.3333 79.3161ZM70.9734 80.5374L91.6994 97.2516L70.9734 80.5374ZM91.6994 78.7054L68.8657 97.2342L91.6994 78.7054ZM89.6112 78.688L69.5683 94.7741L89.6112 78.688ZM86.8595 79.3161L70.9539 91.6686L86.8595 79.3161ZM84.7713 79.3161L70.9539 89.8192L84.7713 79.3161ZM82.7221 79.3161L70.9734 87.9698L82.7221 79.3161ZM80.6534 79.3161L70.9734 86.1204L80.6534 79.3161ZM78.5847 79.3161L70.9734 84.2536L78.5847 79.3161ZM76.477 79.3161L70.9539 83.0148L76.477 79.3161ZM74.4083 79.3161L70.9539 81.7936L74.4083 79.3161ZM72.3201 79.3161L70.9539 80.5374L72.3201 79.3161ZM91.6994 80.5374L68.8657 99.1184L91.6994 80.5374ZM91.6994 82.4216L68.8657 100.95L91.6994 82.4216ZM91.6994 84.2536L68.8657 102.8L91.6994 84.2536ZM91.6994 86.103L68.8657 104.684L91.6994 86.103ZM91.6994 87.9872L68.8657 106.516L91.6994 87.9872ZM91.6994 89.8192L68.8657 108.365L91.6994 89.8192ZM91.6994 91.6686L68.8657 110.215L91.6994 91.6686ZM91.6994 93.5354L68.8657 112.082L91.6994 93.5354ZM91.6994 95.3848L70.2514 112.692L91.6994 95.3848ZM91.6994 97.2342L72.3396 112.692L91.6994 97.2342ZM90.9969 99.7116L75.7744 112.082L90.9969 99.7116ZM90.3333 102.172L77.8821 112.064L90.3333 102.172ZM88.9477 105.26L82.7026 110.197L88.9477 105.26ZM70.9734 82.3868L91.0164 98.4554L70.9734 82.3868ZM70.9734 84.2361L91.0164 100.322L70.9734 84.2361ZM70.9734 86.1204L90.3333 101.561L70.9734 86.1204ZM70.9734 87.9523L90.3333 103.428L70.9734 87.9523ZM70.9734 89.8192L89.6307 104.649L70.9734 89.8192ZM70.2709 91.0579L88.9477 105.888L70.2709 91.0579ZM70.2709 92.9247L87.562 106.533L70.2709 92.9247ZM69.5878 94.146L86.879 107.755L69.5878 94.146ZM68.8657 95.3673L85.4543 108.348L68.8657 95.3673ZM68.8657 97.2167L84.7713 109.587L68.8657 97.2167ZM68.8657 99.0835L82.7221 110.197L68.8657 99.0835Z" fill="white"/>
<path d="M70.9734 78.688L91.6994 95.3848L70.2514 112.692M73.0421 78.688L91.719 93.5179M75.7939 79.3161L91.719 91.686M77.8626 79.2986L91.719 89.8192M79.9508 79.3161L91.6994 87.9698M82.0195 79.3161L91.6994 86.1204M84.0882 79.3161L91.6994 84.2536L68.8657 102.8M86.1959 79.3161L91.7385 83.0148M88.2451 79.3161L91.719 81.7936M90.3333 79.3161L91.6994 80.5374L68.8657 99.1184M70.9734 80.5374L91.6994 97.2516M91.6994 78.7054L68.8657 97.2342M89.6112 78.688L69.5683 94.7741M86.8595 79.3161L70.9539 91.6686M84.7713 79.3161L70.9539 89.8192M82.7221 79.3161L70.9734 87.9698M80.6534 79.3161L70.9734 86.1204L90.3333 101.561M78.5847 79.3161L70.9734 84.2536M76.477 79.3161L70.9539 83.0148M74.4083 79.3161L70.9539 81.7936M72.3201 79.3161L70.9539 80.5374M91.6994 82.4216L68.8657 100.95M91.6994 86.103L68.8657 104.684M91.6994 87.9872L68.8657 106.516M91.6994 89.8192L68.8657 108.365M91.6994 91.6686L68.8657 110.215M91.6994 93.5354L68.8657 112.082M91.6994 97.2342L72.3396 112.692M90.9969 99.7116L75.7744 112.082M90.3333 102.172L77.8821 112.064M88.9477 105.26L82.7026 110.197M70.9734 82.3868L91.0164 98.4554M70.9734 84.2361L91.0164 100.322M70.9734 87.9523L90.3333 103.428M70.9734 89.8192L89.6307 104.649M70.2709 91.0579L88.9477 105.888M70.2709 92.9247L87.562 106.533M69.5878 94.146L86.879 107.755M68.8657 95.3673L85.4543 108.348M68.8657 97.2167L84.7713 109.587M68.8657 99.0835L82.7221 110.197" stroke="#EF2D28" stroke-width="0.246034"/>
<path fill-rule="evenodd" clip-rule="evenodd" d="M70.9734 75.6167V78.7048C77.8342 79.7332 84.8386 79.7332 91.6994 78.7048V75.6167C84.8386 76.6451 77.8342 76.6451 70.9734 75.6167Z" fill="white" stroke="#EF2D28" stroke-width="0.246034"/>
<path fill-rule="evenodd" clip-rule="evenodd" d="M68.8852 100.95L81.3364 110.843L68.8852 100.95ZM68.8852 102.817L79.9508 111.453L68.8852 102.817ZM68.8852 104.649L78.5652 112.081L68.8852 104.649ZM68.8852 106.498L75.8134 112.081L68.8852 106.498ZM68.8657 108.365L74.4083 112.692L68.8657 108.365ZM68.8657 110.215L72.3201 112.692L68.8657 110.215Z" fill="white"/>
<path d="M68.8852 100.95L81.3364 110.843M68.8852 102.817L79.9508 111.453M68.8852 104.649L78.5652 112.081M68.8852 106.498L75.8134 112.081M68.8657 108.365L74.4083 112.692M68.8657 110.215L72.3201 112.692" stroke="#EF2D28" stroke-width="0.246034"/>
<path d="M71.9153 78.0328C72.4385 78.0328 72.8627 77.7339 72.8627 77.3653C72.8627 76.9966 72.4385 76.6978 71.9153 76.6978C71.3921 76.6978 70.9679 76.9966 70.9679 77.3653C70.9679 77.7339 71.3921 78.0328 71.9153 78.0328Z" fill="white" stroke="#EF2D28" stroke-width="0.232579"/>
<path d="M75.6836 78.3653C76.2068 78.3653 76.631 78.0664 76.631 77.6978C76.631 77.3291 76.2068 77.0303 75.6836 77.0303C75.1604 77.0303 74.7362 77.3291 74.7362 77.6978C74.7362 78.0664 75.1604 78.3653 75.6836 78.3653Z" fill="white" stroke="#EF2D28" stroke-width="0.232579"/>
<path d="M79.4625 78.6875C79.9858 78.6875 80.4099 78.3887 80.4099 78.02C80.4099 77.6514 79.9858 77.3525 79.4625 77.3525C78.9393 77.3525 78.5151 77.6514 78.5151 78.02C78.5151 78.3887 78.9393 78.6875 79.4625 78.6875Z" fill="white" stroke="#EF2D28" stroke-width="0.232579"/>
<path d="M83.231 78.6875C83.7542 78.6875 84.1784 78.3887 84.1784 78.02C84.1784 77.6514 83.7542 77.3525 83.231 77.3525C82.7077 77.3525 82.2836 77.6514 82.2836 78.02C82.2836 78.3887 82.7077 78.6875 83.231 78.6875Z" fill="white" stroke="#EF2D28" stroke-width="0.232579"/>
<path d="M86.9993 78.3653C87.5225 78.3653 87.9467 78.0664 87.9467 77.6978C87.9467 77.3291 87.5225 77.0303 86.9993 77.0303C86.476 77.0303 86.0519 77.3291 86.0519 77.6978C86.0519 78.0664 86.476 78.3653 86.9993 78.3653Z" fill="white" stroke="#EF2D28" stroke-width="0.232579"/>
<path d="M90.7782 78.0328C91.3015 78.0328 91.7256 77.7339 91.7256 77.3653C91.7256 76.9966 91.3015 76.6978 90.7782 76.6978C90.255 76.6978 89.8308 76.9966 89.8308 77.3653C89.8308 77.7339 90.255 78.0328 90.7782 78.0328Z" fill="white" stroke="#EF2D28" stroke-width="0.232579"/>
<path fill-rule="evenodd" clip-rule="evenodd" d="M41.2311 107.754L66.114 94.7739L41.2311 107.754ZM39.8455 107.126L63.3623 94.7739L39.8455 107.126ZM39.1624 105.888L60.591 94.7739L39.1624 105.888ZM38.4598 104.666L57.1367 94.7739L38.4598 104.666ZM37.0547 103.428L54.3459 94.7739L37.0547 103.428ZM37.7573 101.578L49.5059 95.3846L37.7573 101.578ZM37.0547 100.322L46.032 95.3846L37.0547 100.322ZM37.0547 98.4727L43.2998 95.3846L37.0547 98.4727ZM43.2998 108.365L66.7971 95.9952L43.2998 108.365ZM45.388 108.976L67.4996 97.234L45.388 108.976ZM47.4567 109.604L68.2022 98.4727L47.4567 109.604ZM49.5254 110.215L66.8166 100.95L49.5254 110.215ZM52.2772 110.215L67.4996 102.189L52.2772 110.215ZM54.3459 110.843L67.4801 104.038L54.3459 110.843ZM56.4146 111.453L66.7971 105.888L56.4146 111.453ZM59.1858 111.471L67.4801 107.126L59.1858 111.471ZM61.9571 112.081L67.4996 108.976L61.9571 112.081ZM64.7674 112.081L68.2217 110.232L64.7674 112.081Z" fill="white"/>
<path d="M41.2311 107.754L66.114 94.7739M39.8455 107.126L63.3623 94.7739M39.1624 105.888L60.591 94.7739M38.4598 104.666L57.1367 94.7739M37.0547 103.428L54.3459 94.7739M37.7573 101.578L49.5059 95.3846M37.0547 100.322L46.032 95.3846M37.0547 98.4727L43.2998 95.3846M43.2998 108.365L66.7971 95.9952M45.388 108.976L67.4996 97.234M47.4567 109.604L68.2022 98.4727M49.5254 110.215L66.8166 100.95M52.2772 110.215L67.4996 102.189M54.3459 110.843L67.4801 104.038M56.4146 111.453L66.7971 105.888M59.1858 111.471L67.4801 107.126M61.9571 112.081L67.4996 108.976M64.7674 112.081L68.2217 110.232" stroke="#EF2D28" stroke-width="0.246034"/>
<path fill-rule="evenodd" clip-rule="evenodd" d="M69.5691 94.1636H66.1148C64.9644 100.297 64.9644 106.559 66.1148 112.692H69.5691C68.4187 106.559 68.4187 100.297 69.5691 94.1636Z" fill="white" stroke="#EF2D28" stroke-width="0.246034"/>
<path fill-rule="evenodd" clip-rule="evenodd" d="M28.7798 102.8L37.0741 96.6235L28.7798 102.8ZM28.7798 98.4729L37.0741 105.888L28.7798 98.4729Z" fill="white"/>
<path d="M28.7798 102.8L37.0741 96.6235M28.7798 98.4729L37.0741 105.888" stroke="#EF2D28" stroke-width="0.246034"/>
<path fill-rule="evenodd" clip-rule="evenodd" d="M41.2311 95.3721L37.0781 95.9909C36.1569 99.9135 36.1569 103.206 37.0781 107.129L41.2311 108.355C40.3099 104.444 40.3099 99.2947 41.2311 95.3721Z" fill="white" stroke="#EF2D28" stroke-width="0.175128"/>
<path fill-rule="evenodd" clip-rule="evenodd" d="M91.7015 64.4687V61.3457C88.5727 61.3806 86.4966 59.5138 86.4966 57.647L76.1454 57.6644C76.1454 59.5138 74.0985 61.3806 70.9697 61.3806V64.4687H91.7015Z" fill="white" stroke="#EF2D28" stroke-width="0.301158"/>
<path fill-rule="evenodd" clip-rule="evenodd" d="M76.8673 53.9653H85.7666V57.6815H76.8673V53.9653ZM77.6284 50.2491H85.025V53.9653H77.6089L77.6284 50.2491ZM77.6284 46.5504H85.025V50.2491H77.6089L77.6284 46.5504ZM78.37 41.5954H84.2834V46.5504H78.37V41.5954ZM78.1163 37.2686H84.5566V41.5954H78.1163V37.2686Z" fill="white"/>
<path d="M85.025 50.2491H77.6284L77.6089 53.9653H85.025V50.2491ZM85.025 50.2491V46.5504H77.6284L77.6089 50.2491H85.025ZM76.8673 53.9653H85.7666V57.6815H76.8673V53.9653ZM78.37 41.5954H84.2834V46.5504H78.37V41.5954ZM78.1163 37.2686H84.5566V41.5954H78.1163V37.2686Z" stroke="#EF2D28" stroke-width="0.258335"/>
<path d="M81.6693 39.1357C86.4026 39.1357 90.2398 36.5033 90.2398 33.2561C90.2398 30.0089 86.4026 27.3765 81.6693 27.3765C76.9359 27.3765 73.0988 30.0089 73.0988 33.2561C73.0988 36.5033 76.9359 39.1357 81.6693 39.1357Z" fill="white" stroke="#EF2D28" stroke-width="0.250097"/>
<path fill-rule="evenodd" clip-rule="evenodd" d="M85.9646 32.9417C85.9646 34.5643 88.1022 37.2686 88.1022 37.2686C86.5494 38.3503 84.0287 39.1354 81.6692 39.1354C79.3098 39.1354 76.3656 38.6818 75.2363 37.2686C75.2363 37.2686 77.3739 34.5817 77.3739 32.9591C77.3739 31.3366 75.2363 29.2429 75.2363 29.2429C77.1081 28.053 79.3668 27.4057 81.6894 27.3936C84.0287 27.3936 86.5292 28.1787 88.1022 29.2429C88.1022 29.2429 85.9646 31.3366 85.9646 32.9591V32.9417Z" fill="white" stroke="#EF2D28" stroke-width="0.250097"/>
<path fill-rule="evenodd" clip-rule="evenodd" d="M84.5328 32.9417C84.5328 34.5643 86.6704 37.8967 86.6704 37.8967C85.1176 38.9435 84.0488 39.1179 81.6692 39.1179C79.2897 39.1179 77.7974 39.3099 76.6681 37.8967C76.6681 37.8967 78.8057 34.5817 78.8057 32.9417C78.8057 31.3017 76.6681 28.6148 76.6681 28.6148C78.2209 27.568 79.2897 27.3936 81.6692 27.3936C84.0286 27.3936 85.1176 27.568 86.6704 28.6148C86.6704 28.6148 84.5328 31.3191 84.5328 32.9417Z" fill="white" stroke="#EF2D28" stroke-width="0.250097"/>
<path d="M73.0988 35.4019C74.2793 35.4019 75.2363 34.5739 75.2363 33.5525C75.2363 32.5311 74.2793 31.7031 73.0988 31.7031C71.9182 31.7031 70.9612 32.5311 70.9612 33.5525C70.9612 34.5739 71.9182 35.4019 73.0988 35.4019Z" fill="white" stroke="#EF2D28" stroke-width="0.250097"/>
<path d="M90.2533 35.4019C91.4339 35.4019 92.3909 34.5739 92.3909 33.5525C92.3909 32.5311 91.4339 31.7031 90.2533 31.7031C89.0727 31.7031 88.1157 32.5311 88.1157 33.5525C88.1157 34.5739 89.0727 35.4019 90.2533 35.4019Z" fill="white" stroke="#EF2D28" stroke-width="0.250097"/>
<path d="M81.6858 35.4019C82.8664 35.4019 83.8234 34.5739 83.8234 33.5525C83.8234 32.5311 82.8664 31.7031 81.6858 31.7031C80.5052 31.7031 79.5482 32.5311 79.5482 33.5525C79.5482 34.5739 80.5052 35.4019 81.6858 35.4019Z" fill="white" stroke="#EF2D28" stroke-width="0.250097"/>
<path d="M81.6858 29.2256C82.8664 29.2256 83.8234 28.3976 83.8234 27.3762C83.8234 26.3549 82.8664 25.5269 81.6858 25.5269C80.5052 25.5269 79.5482 26.3549 79.5482 27.3762C79.5482 28.3976 80.5052 29.2256 81.6858 29.2256Z" fill="white" stroke="#EF2D28" stroke-width="0.250097"/>
<path d="M75.4196 64.4688C76.6423 64.4688 77.6335 63.6408 77.6335 62.6194C77.6335 61.598 76.6423 60.77 75.4196 60.77C74.1969 60.77 73.2057 61.598 73.2057 62.6194C73.2057 63.6408 74.1969 64.4688 75.4196 64.4688Z" fill="white" stroke="#EF2D28" stroke-width="0.254523"/>
<path d="M87.2463 64.4688C88.469 64.4688 89.4602 63.6408 89.4602 62.6194C89.4602 61.598 88.469 60.77 87.2463 60.77C86.0236 60.77 85.0323 61.598 85.0323 62.6194C85.0323 63.6408 86.0236 64.4688 87.2463 64.4688Z" fill="white" stroke="#EF2D28" stroke-width="0.254523"/>
<path fill-rule="evenodd" clip-rule="evenodd" d="M76.1499 57.6641H86.5094L81.3296 63.2297L76.1499 57.6641Z" fill="white" stroke="#EF2D28" stroke-width="0.254523"/>
<path d="M81.3213 64.456C82.9517 64.456 84.2733 63.352 84.2733 61.9902C84.2733 60.6284 82.9517 59.5244 81.3213 59.5244C79.6909 59.5244 78.3693 60.6284 78.3693 61.9902C78.3693 63.352 79.6909 64.456 81.3213 64.456Z" fill="white" stroke="#EF2D28" stroke-width="0.339368"/>
<path d="M85.0177 80.5918H70.8295C70.3553 80.5918 69.9708 80.8886 69.9708 81.2548V83.645C69.9708 84.0112 70.3553 84.308 70.8295 84.308H85.0177C85.4919 84.308 85.8764 84.0112 85.8764 83.645V81.2548C85.8764 80.8886 85.4919 80.5918 85.0177 80.5918Z" fill="white" stroke="#EF2D28" stroke-width="0.239883"/>
<path fill-rule="evenodd" clip-rule="evenodd" d="M90.7164 77.5041C88.8039 77.5041 87.2621 78.9522 87.2621 80.7318V83.5407C87.2491 83.9561 87.3285 84.3696 87.4955 84.7573C87.6626 85.145 87.9141 85.4992 88.2354 85.7994C88.5566 86.0996 88.9414 86.3399 89.3673 86.5062C89.7932 86.6725 90.2517 86.7617 90.7164 86.7684C91.1811 86.7617 91.6397 86.6725 92.0656 86.5062C92.4915 86.3399 92.8762 86.0996 93.1975 85.7994C93.5188 85.4992 93.7703 85.145 93.9373 84.7573C94.1044 84.3696 94.1837 83.9561 94.1708 83.5407V80.7492C94.1864 80.3324 94.109 79.9171 93.9431 79.5273C93.7772 79.1376 93.5262 78.7813 93.2046 78.4792C92.8831 78.1771 92.4975 77.9353 92.0702 77.7679C91.643 77.6005 91.1828 77.5108 90.7164 77.5041ZM90.7164 78.7254C89.565 78.7254 88.6477 79.8943 88.6477 81.325V82.9475C88.6477 84.3782 89.565 85.5297 90.7164 85.5297C91.8679 85.5297 92.7851 84.3782 92.7851 82.9475V81.325C92.7851 79.8943 91.8679 78.7428 90.7164 78.7428V78.7254ZM72.7422 78.1147C71.5712 78.1147 70.6735 79.2662 70.6735 80.7143V83.5756C70.6735 85.0063 71.5908 86.1578 72.7422 86.1578C73.8936 86.1578 74.8109 85.0063 74.8109 83.5756V80.6969C74.8109 79.2488 73.8936 78.0973 72.7422 78.0973V78.1147ZM72.7422 76.8934C72.2775 76.9002 71.8189 76.9893 71.393 77.1557C70.9671 77.322 70.5824 77.5622 70.2611 77.8624C69.9398 78.1626 69.6884 78.5169 69.5213 78.9046C69.3542 79.2923 69.2749 79.7058 69.2879 80.1211V84.1688C69.2749 84.5841 69.3542 84.9976 69.5213 85.3854C69.6884 85.7731 69.9398 86.1273 70.2611 86.4275C70.5824 86.7277 70.9671 86.9679 71.393 87.1343C71.8189 87.3006 72.2775 87.3898 72.7422 87.3965C74.6548 87.3965 76.1965 85.9484 76.1965 84.1688V80.1211C76.2121 79.7044 76.1347 79.289 75.9689 78.8992C75.803 78.5095 75.552 78.1532 75.2304 77.8511C74.9088 77.549 74.5232 77.3072 74.096 77.1398C73.6688 76.9724 73.2086 76.8827 72.7422 76.876V76.8934Z" fill="white" stroke="#EF2D28" stroke-width="0.239883"/>
<path fill-rule="evenodd" clip-rule="evenodd" d="M67.1996 79.3535C66.0482 79.3535 65.1309 80.505 65.1309 81.9356V82.6161C65.1309 84.0467 66.0482 85.1982 67.1996 85.1982C68.3706 85.1982 69.2878 84.0467 69.2878 82.6161V81.9356C69.2878 80.505 68.351 79.3535 67.1996 79.3535ZM67.1996 78.1322C66.7349 78.139 66.2763 78.2281 65.8504 78.3944C65.4245 78.5608 65.0398 78.801 64.7185 79.1012C64.3972 79.4014 64.1458 79.7556 63.9787 80.1434C63.8116 80.5311 63.7323 80.9446 63.7453 81.3599V83.2093C63.7323 83.6246 63.8116 84.0381 63.9787 84.4258C64.1458 84.8135 64.3972 85.1677 64.7185 85.468C65.0398 85.7682 65.4245 86.0084 65.8504 86.1747C66.2763 86.3411 66.7349 86.4302 67.1996 86.437C69.1122 86.437 70.6734 84.9889 70.6734 83.2093V81.3599C70.6891 80.9417 70.6111 80.5249 70.444 80.134C70.2769 79.7431 70.0241 79.386 69.7005 79.0837C69.3769 78.7814 68.9889 78.5399 68.5594 78.3735C68.13 78.2072 67.6676 78.1192 67.1996 78.1147V78.1322Z" fill="white" stroke="#EF2D28" stroke-width="0.239883"/>
<path fill-rule="evenodd" clip-rule="evenodd" d="M58.9287 77.6466C56.821 77.6466 55.1699 78.9335 55.1699 80.5324V83.7497C55.1699 85.3291 56.8561 86.6356 58.9287 86.6356C60.9662 86.6356 62.6524 85.3486 62.6524 83.7302V80.5324C62.6524 78.9335 60.9662 77.6466 58.9287 77.6466ZM58.9287 76.2817C58.0923 76.2867 57.266 76.3839 56.4977 76.5674C55.7294 76.7509 55.0343 77.0173 54.4527 77.351C53.8712 77.6847 53.4147 78.0791 53.1096 78.5114C52.8046 78.9437 52.6571 79.4053 52.6758 79.8695V84.3932C52.6477 84.859 52.787 85.3232 53.0856 85.7588C53.3841 86.1943 53.836 86.5925 54.4148 86.9302C54.9936 87.2678 55.6877 87.538 56.4567 87.7251C57.2257 87.9122 58.0541 88.0125 58.8936 88.02C62.3713 88.02 65.1465 86.4016 65.1465 84.3932V79.8695C65.1699 79.4053 65.027 78.9432 64.7263 78.5099C64.4256 78.0766 63.973 77.6807 63.3946 77.3452C62.8163 77.0097 62.1238 76.7412 61.3572 76.5553C60.5906 76.3694 59.7652 76.2698 58.9287 76.2622V76.2817Z" fill="white" stroke="#EF2D28" stroke-width="0.235547"/>
<path fill-rule="evenodd" clip-rule="evenodd" d="M103.874 78.2575C101.766 78.2575 100.115 79.5444 100.115 81.1433V84.3606C100.115 85.94 101.802 87.2464 103.874 87.2464C105.912 87.2464 107.598 85.9595 107.598 84.3411V81.1433C107.598 79.5444 105.912 78.2575 103.874 78.2575ZM103.874 76.8925C103.038 76.8976 102.211 76.9947 101.443 77.1782C100.675 77.3618 99.9798 77.6281 99.3982 77.9618C98.8166 78.2955 98.3601 78.6899 98.0551 79.1222C97.75 79.5545 97.6026 80.0162 97.6212 80.4803V85.004C97.5931 85.4698 97.7324 85.934 98.031 86.3696C98.3296 86.8052 98.7815 87.2034 99.3602 87.541C99.939 87.8786 100.633 88.1488 101.402 88.336C102.171 88.5231 103 88.6233 103.839 88.6308C107.317 88.6308 110.092 87.0124 110.092 85.004V80.4803C110.115 80.0162 109.972 79.554 109.672 79.1207C109.371 78.6874 108.918 78.2915 108.34 77.956C107.762 77.6205 107.069 77.352 106.303 77.1661C105.536 76.9802 104.711 76.8806 103.874 76.873V76.8925Z" fill="white" stroke="#EF2D28" stroke-width="0.235547"/>
<path d="M99.9475 80.5918H92.5509C92.303 80.5918 92.1021 80.8886 92.1021 81.2548V83.645C92.1021 84.0112 92.303 84.308 92.5509 84.308H99.9475C100.195 84.308 100.396 84.0112 100.396 83.645V81.2548C100.396 80.8886 100.195 80.5918 99.9475 80.5918Z" fill="white" stroke="#EF2D28" stroke-width="0.239883"/>
<path d="M89.0575 79.9814H84.7639C84.613 79.9814 84.4907 80.372 84.4907 80.8538V84.064C84.4907 84.5458 84.613 84.9364 84.7639 84.9364H89.0575C89.2084 84.9364 89.3307 84.5458 89.3307 84.064V80.8538C89.3307 80.372 89.2084 79.9814 89.0575 79.9814Z" fill="white" stroke="#EF2D28" stroke-width="0.239883"/>
<path d="M66.2434 79.9814H61.9499C61.799 79.9814 61.6766 80.372 61.6766 80.8538V84.064C61.6766 84.5458 61.799 84.9364 61.9499 84.9364H66.2434C66.3943 84.9364 66.5166 84.5458 66.5166 84.064V80.8538C66.5166 80.372 66.3943 79.9814 66.2434 79.9814Z" fill="white" stroke="#EF2D28" stroke-width="0.239883"/>
<path d="M55.6071 79.353H46.981C46.69 79.353 46.4541 79.8451 46.4541 80.4522V84.4301C46.4541 85.0372 46.69 85.5293 46.981 85.5293H55.6071C55.8981 85.5293 56.134 85.0372 56.134 84.4301V80.4522C56.134 79.8451 55.8981 79.353 55.6071 79.353Z" fill="white" stroke="#EF2D28" stroke-width="0.239883"/>
<path d="M115.131 79.9814H107.11C106.84 79.9814 106.622 80.4736 106.622 81.0806V85.0585C106.622 85.6656 106.84 86.1577 107.11 86.1577H115.131C115.4 86.1577 115.619 85.6656 115.619 85.0585V81.0806C115.619 80.4736 115.4 79.9814 115.131 79.9814Z" fill="white" stroke="#EF2D28" stroke-width="0.239883"/>
</g>
</g>
<defs>
<clipPath id="clip0_103_8939">
<rect width="512" height="512" fill="white" transform="translate(0.5)"/>
</clipPath>
</defs>
</svg>
