<svg width="513" height="512" viewBox="0 0 513 512" fill="none" xmlns="http://www.w3.org/2000/svg">
<g clip-path="url(#clip0_103_9055)">
<mask id="mask0_103_9055" style="mask-type:luminance" maskUnits="userSpaceOnUse" x="0" y="0" width="513" height="512">
<path d="M0.5 0H512.5V512H0.5V0Z" fill="white"/>
</mask>
<g mask="url(#mask0_103_9055)">
<path d="M0.5 0H512.5V512H0.5V0Z" fill="white"/>
<path fill-rule="evenodd" clip-rule="evenodd" d="M210.9 363.5C210.9 363.5 222.5 354.1 233.7 354.1C244.9 354.1 248.1 361.9 255.9 362.5C263.7 363.2 270.3 354.7 279.9 354.5C289.7 354.1 301.9 361.3 301.9 361.3L259.4 374L210.9 363.4V363.5ZM186.6 349.7L330.9 350.4C330.9 350.4 318.4 336.9 303.7 336.6C289.1 336.3 293.1 342.9 281.9 343.8C270.6 344.8 267.8 336.9 257.5 337.2C247.2 337.5 241.2 343.8 233.5 344.1C225.6 344.4 215.6 336.3 209.7 336.6C203.7 336.9 182.5 346 182.5 346L186.5 349.7H186.6ZM168.1 332.5L346.2 333.2C349.1 329.1 337.5 319.4 326.9 318.5C318.1 318.8 311.9 327.5 304.7 327.8C297.5 328.2 289.4 318.8 281.2 319.1C273.2 319.4 264.7 327.9 256.6 327.9C248.4 327.9 242.5 318.8 232.2 318.8C221.9 318.8 217.2 328.8 209.4 328.2C201.5 327.5 194.7 318.2 187.2 318.2C179.7 318.2 167.2 329.4 164.7 328.8C162.2 328.2 167.8 333.5 168.1 332.5Z" fill="#083D9C" stroke="#083D9C" stroke-width="2.66667"/>
<path fill-rule="evenodd" clip-rule="evenodd" d="M236.5 233.5L277.5 244.5V186C258.7 187 243.1 150.4 276.2 147.9C243.8 143.1 240 151.6 236.2 160.6L236.6 233.5H236.5Z" fill="#FF0000" stroke="black" stroke-width="2.5" stroke-linejoin="round"/>
<path fill-rule="evenodd" clip-rule="evenodd" d="M210.6 276L303.1 276.3L210.6 276Z" fill="#083D9C"/>
<path d="M210.6 276L303.1 276.3" stroke="#083D9C" stroke-width="5" stroke-linecap="round"/>
<path d="M215 253.8L226 268.5M215 268.5L226.9 254.1M221.3 252.8L220.9 261.9M232.5 253.8L243.5 268.5M232.5 268.5L244.4 254.1M238.8 252.8L238.4 261.9M250.4 253.8L261.2 268.5M250.3 268.5L262.2 254.1M256.6 252.8L256.3 261.9M268.7 253.8L279.7 268.5M268.7 268.5L280.7 254.1M275 252.8L274.7 261.9M286.6 253.8L297.5 268.5M286.5 268.5L298.5 254.1M292.8 252.8L292.5 261.9" stroke="black" stroke-width="4" stroke-linecap="round"/>
<path fill-rule="evenodd" clip-rule="evenodd" d="M148.5 277L187.8 277.2V252.5L142.8 250.4L148.4 276.9L148.5 277ZM146.5 242.9L188.5 246.9L188.1 229.4L147.1 213.2L146.6 242.9H146.5ZM155 207.9L187.2 223.5L191.8 218.7C191.8 218.7 188.8 216.7 189 214.7C189 212.9 192 212.6 192 210.5C192 208.6 188.7 208.4 188.7 206.5C188.4 204.5 191.3 202.2 191.3 202.2L162.2 177L155 208V207.9ZM366.2 277.2H324.7L324.4 253.2L370 249.7L366.2 277.2ZM325 247.5L374.4 241.5L363.7 213.2L324.7 229.7L325 247.5ZM361 205.4L325.2 224C324.7 222 324.2 220 321.8 218.4C321.8 218.4 324 217.1 324 214.9C324 212.7 321.1 212.4 321.1 211.2C321.1 210 323.7 208.8 323.9 206C323.6 204 321.1 201.4 321.6 200.8L349.3 179.6L360.8 205.3L361 205.4ZM283.6 247L301.5 246.2L301.8 239L283.7 247H283.6ZM229.3 246.4L210.5 246V238.5L229.3 246.5V246.4ZM229.2 244.2L210.5 234.6V222.1C210.5 222.1 208.3 222.4 208.6 219.9C208.7 214.7 222.4 229.4 229.3 234.2L229.2 244.2ZM283.6 243.1V235C283.6 235 300.4 219.8 304 217C304 220.1 302 222.5 302 222.5V234.5L283.6 243.2V243.1ZM174.5 174.7L193.4 195.7C193.9 193.7 198.2 193.5 202.6 193.7C207 194.1 210.5 193.5 210.5 196.7C210.5 199.7 208.2 199.3 208.2 201.5C208.2 203.7 211.6 203.5 211.6 206.3C211.6 209.1 209.2 208.5 209.1 210.7C209.1 212.5 211.7 212.7 211.7 212.7L229.4 229.8V211.4L192.9 154.1L174.5 174.7ZM203.5 153L228.3 203.7C228.3 203.7 228.6 156.9 232.7 154.4L225.7 141.6L203.5 153ZM311.2 155L283.6 204.3V183.5C283.6 183.5 285.9 180 282.3 180.3C278.7 180.6 274.2 180 274.2 180L285.3 141L311.3 155H311.2ZM339.6 176.1C339.3 176.7 320.9 195.3 320.9 195.3C320.1 193.1 314.5 194.2 309.3 194.2C304 194.2 303.3 195.9 303.5 197.2C304.1 200.9 305.9 198.2 305.9 201.6C305.9 204.9 303.3 203.6 303.1 206.1C303.3 208.9 307.1 208.2 304.9 210.4L283.6 230.8V211.4L323.2 149.9L339.6 176.1Z" fill="#EF7D08"/>
<path fill-rule="evenodd" clip-rule="evenodd" d="M245.6 286.3C236.7 301 212.9 296.7 207.4 286.3C205.7 285.9 206.7 222.8 206.7 222.8C206.7 222.8 204 221.6 203.9 219.7C203.8 217.7 207.5 217.6 207.5 215.1C207.5 212.6 203.7 213.5 203.6 211.1C203.6 208.6 207.7 208.9 207.6 206.7C207.3 204.2 203 204.6 202.8 202.2C202.6 200.4 205.8 198.8 206.8 198H196.9C192.1 198 197 199.1 196.9 202C196.9 203.8 194.5 205 194.3 206.6C194.3 208.2 197.7 209.3 197.8 211.3C197.8 213 194.3 213.2 194.4 214.8C194.7 217.5 197.5 218.1 197.5 219.8C197.5 221.4 193.6 222.1 193.6 223.4L194.2 288.2C200.2 320 235.6 328 245.6 286.2V286.3ZM268.9 286.3C277.9 301 301.6 296.7 307.2 286.3C308.9 285.9 307.9 222.8 307.9 222.8C307.9 222.8 310.6 221.6 310.7 219.7C310.8 217.7 307.3 217.6 307.3 215.1C307.3 212.6 310.9 213.5 311 211.1C311 208.6 307.2 208.8 307.4 206.5C307.6 204 310.5 204.3 310.7 202C310.8 200 308.8 198.8 307.9 198H317.6C322.5 198 317.6 199.1 317.6 202C317.6 203.8 320.1 205 320.3 206.6C320.3 208.2 316.8 209.3 316.8 211.3C316.8 213 320.3 213.2 320.1 214.8C319.9 217.5 317.1 218.1 317.1 219.8C317.1 221.4 321 222.1 321 223.4C320.8 226 320.4 288.2 320.4 288.2C314.3 320 279 328 268.9 286.2V286.3Z" fill="#FF0000" stroke="black" stroke-width="2.5" stroke-linejoin="round"/>
<path fill-rule="evenodd" clip-rule="evenodd" d="M237 315.3H276.8C277.1 315 267.8 301.5 256.8 302.5C244.6 302.8 236.3 315.3 237 315.3ZM363.8 314.3H309.4C309.4 314.3 316.4 310.2 318.4 306.3C321.9 308.3 320.9 310.2 327.9 310.5C334.9 310.8 341.7 302.5 348.4 302.8C355.1 303.1 363.8 314.6 363.8 314.3ZM149.4 314.3H203.8C203.8 314.3 196.8 310.2 194.8 306.3C191.3 308.3 192.3 310.2 185.2 310.5C178.2 310.8 171.5 302.5 164.7 302.8C158 303.1 149.4 314.6 149.4 314.3ZM153.4 297.3L192.2 297.5C192.2 297.5 189.7 292.2 189.4 285.7C179.4 282.2 171.2 293.2 164.1 293.5C156.9 293.8 149.4 285.7 149.4 285.7L153.4 297.2V297.3ZM360.4 297.3L321.6 297.5C321.6 297.5 324.1 292.2 324.4 285.7C334.4 282.2 342.5 293.2 349.7 293.5C356.9 293.8 364.4 285.7 364.4 285.7L360.4 297.2V297.3ZM246.9 297.5L266.6 296.9C266.6 296.9 266.9 290.9 256.6 290.9C246.3 290.9 247.2 297.9 246.9 297.5ZM234.9 289.1C238.4 287.2 241.6 285.3 243.7 281L230.3 281.3C230.3 281.3 224.1 285 220.9 289.1H234.9ZM278.4 289.1C274.675 287.45 271.612 284.598 269.7 281L283.1 281.3C283.1 281.3 289.4 285 292.5 289.1H278.5H278.4Z" fill="#083D9C" stroke="#083D9C" stroke-width="2.66667"/>
<path fill-rule="evenodd" clip-rule="evenodd" d="M-127.5 384H640.5V512H-127.5V384ZM-127.5 0H640.5V128H-127.5V0Z" fill="#DE2010"/>
</g>
</g>
<defs>
<clipPath id="clip0_103_9055">
<rect width="512" height="512" fill="white" transform="translate(0.5)"/>
</clipPath>
</defs>
</svg>
