<svg width="513" height="512" viewBox="0 0 513 512" fill="none" xmlns="http://www.w3.org/2000/svg">
<g clip-path="url(#clip0_103_9069)">
<mask id="mask0_103_9069" style="mask-type:luminance" maskUnits="userSpaceOnUse" x="0" y="0" width="513" height="512">
<path d="M0.512939 0H512.435V511.922H0.512939V0Z" fill="white"/>
</mask>
<g mask="url(#mask0_103_9069)">
<path fill-rule="evenodd" clip-rule="evenodd" d="M-82.984 0L-83.5 511.922H596.654L-82.984 0Z" fill="black"/>
<path fill-rule="evenodd" clip-rule="evenodd" d="M596.138 511.922L596.654 0H-83.5L596.138 511.922Z" fill="#FF0000"/>
<path d="M336.461 127.361L327.379 126.948C324.592 120.343 316.748 117.866 311.898 120.756C307.563 121.065 284.547 120.343 284.547 120.343L301.37 127.671C305.498 138.92 319.948 141.604 319.948 141.604C318.709 162.246 298.996 138.92 282.483 150.686C270.717 157.808 270.51 166.168 264.111 179.895C260.988 184.635 257.539 189.152 253.79 193.415L267.724 192.383L263.286 198.163L279.799 195.789C279.799 195.789 277.632 197.647 276.29 199.092C278.767 199.608 295.177 195.273 295.177 195.273L294.042 200.537C302.402 197.131 312.826 193.725 312.826 193.725C312.826 193.725 316.542 196.821 319.948 198.163L322.322 188.771L331.714 191.145L334.088 181.649C348.227 200.537 352.975 219.424 378.881 224.172L376.507 214.677C383.732 217.773 397.149 224.378 397.149 224.378L399.213 220.044C410.463 228.094 419.855 227.991 426.048 228.816L421.403 217.05L426.151 219.424L419.029 200.537L426.151 202.911L416.656 188.771L420.165 186.397L419.133 179.276C433.169 184.023 452.16 191.145 454.431 207.658C456.804 233.564 428.422 240.686 409.637 238.312C423.777 250.078 449.683 245.33 461.552 233.564C466.03 228.033 469.237 221.585 470.944 214.677C473.318 221.798 478.066 231.19 478.066 240.686C475.692 261.844 447.309 268.965 428.525 271.339C449.683 283.105 487.458 268.965 489.832 238.312C489.832 212.303 473.318 200.537 466.196 188.771C465.291 184.562 464.499 180.328 463.823 176.076C464.855 176.283 470.944 179.379 470.944 179.379C470.944 179.379 466.816 171.535 466.196 169.883C466.196 169.883 458.869 149.861 456.185 145.423C456.598 145.113 461.552 146.248 461.552 146.248L442.149 121.994L447.619 121.375C447.619 121.375 425.325 103.726 419.133 101.455L426.254 99.0814C412.011 92.0631 395.498 96.7076 381.358 106.203L383.732 99.0814L379.397 99.4943V91.4439L383.732 84.9417L376.713 82.5678L381.358 70.8019L374.34 73.1757L376.713 61.3066C376.713 61.3066 371.346 63.7836 368.147 63.3708C368.25 63.6804 371.966 55.4236 371.966 55.4236C369.695 51.9145 371.966 44.793 371.966 44.793C355.452 47.1668 353.078 49.5406 343.686 63.6804C329.443 89.6893 334.191 101.455 336.565 127.361H336.461Z" fill="#FFCC00" stroke="#FFCC00" stroke-width="2.37383"/>
<path fill-rule="evenodd" clip-rule="evenodd" d="M425.635 166.168C426.873 168.232 440.188 174.631 450.302 180.411C447.619 169.471 427.906 167.097 425.532 166.168H425.635Z" fill="#FF0000" stroke="#FF0000" stroke-width="3.0963"/>
<path fill-rule="evenodd" clip-rule="evenodd" d="M101.246 425.638L86.1772 416.04L66.0512 425.741L70.5925 408.505L55.111 392.301L72.9663 391.269L83.5969 371.659L90.0992 388.173L111.98 392.198L98.2528 403.551L101.246 425.638ZM139.743 341.419L132.725 338.116L126.119 341.935L127.152 334.297L121.372 329.137L129.009 327.692L132.106 320.674L135.821 327.485L143.459 328.311L138.092 333.884L139.743 341.419ZM173.699 293.117L158.424 285.685L143.562 293.942L145.936 277.222L133.447 265.663L150.167 262.773L157.186 247.291L165.236 262.36L182.059 264.218L170.397 276.603L173.699 293.117ZM103.826 226.03L85.8676 216.948L68.3219 226.649L71.2117 206.833L56.5559 193.003L76.3722 189.803L84.9387 171.535L94.2276 189.39L114.147 191.868L100.007 206.317L103.826 226.03ZM39.3199 295.697L21.1549 284.963L3.09315 296.006L7.7376 275.364L-8.36316 261.637L12.6917 259.573L20.8453 240.067L29.1021 259.47L50.2601 261.225L34.469 275.158L39.3199 295.697Z" fill="white"/>
</g>
</g>
<defs>
<clipPath id="clip0_103_9069">
<rect width="512" height="512" fill="white" transform="translate(0.5)"/>
</clipPath>
</defs>
</svg>
