<svg width="513" height="512" viewBox="0 0 513 512" fill="none" xmlns="http://www.w3.org/2000/svg">
<g clip-path="url(#clip0_103_9103)">
<path d="M0.5 0H512.5V512H0.5V0Z" fill="#00247D"/>
<path d="M332.7 268.1C324.995 275.576 319.553 285.072 317 295.5C312.3 322.3 306 328.3 296.3 322.5C296.3 337 307 338.1 311.6 329.7C311.6 343.2 315.7 354.9 325 364.9C329 369.2 329.7 366.3 327.8 361.6C326 356.9 326 341.9 322.2 333.2C328.2 338.3 337 335.4 336.2 321.4C328.6 326.8 321 326.6 320.2 313.9C319.2 299 324.2 277.4 332.7 268.1ZM323.6 161.2C324.1 155.9 323.2 150.4 319.9 147C313.6 140.3 307.4 142.5 302.8 147.9C295.9 143.4 292.3 159.2 284.4 156.5C285.7 161.6 287.8 163.8 291.7 162.1C287.6 166.5 291.7 171.8 286.9 177.1C295.6 180.5 300.3 174.7 299.9 164.7C300.603 165.551 301.498 166.223 302.511 166.662C303.524 167.102 304.626 167.295 305.728 167.227C306.83 167.158 307.9 166.831 308.851 166.27C309.802 165.709 310.607 164.931 311.2 164C306.6 162.3 306.6 157.5 308.4 153C311.2 146.3 324.4 146.6 323.6 161.2Z" fill="#F7E017" stroke="black" stroke-width="0.4"/>
<path d="M343.8 238.4C333.9 244.6 315.8 242 314.2 226.7C312.5 211.3 325 204.5 328.4 202.5C333.6 199.4 337.7 204.9 336 211.4C341.8 208.9 343 200.9 340.3 196.3C347.9 197 355 190.1 358 180.3C355.3 183.3 348 181.3 342 180.8C343.8 178.4 343.8 173.7 343.2 171.2C336.9 178.9 327.8 175.4 315.7 197.8C318.563 185.644 321.23 173.442 323.7 161.2C324.4 146.6 311.3 146.2 308.5 153C311.5 157 309.9 161.9 308.8 169.2C307.5 177.8 304.8 197.8 302.3 204.5C301.6 194 295.8 193.3 294.7 188.3C293 189.6 292.1 193.1 292.4 195.6C290.4 192.9 283.3 196.2 280.7 192.2C277.9 198.9 282.4 205.5 287 208.4C284.3 208.6 283.7 212.5 280.7 212.5C284.7 218.1 288.8 220.3 293.5 220.8C298.3 221.2 301.8 223.3 304.7 230.2C309.4 241.3 327.1 248.5 343.8 238.4Z" fill="#337321" stroke="black" stroke-width="0.4"/>
<path d="M368.4 224.9C362.8 243.3 347.5 256.4 340.6 258.4C325.232 263.911 310.999 272.18 298.6 282.8C297.6 282.5 296.6 282.1 296 281.5C292.8 278.8 290.2 270.2 295.8 262.8C313.3 243.3 332.1 251.8 343.8 238.4C334 244.6 315.9 242 314.2 226.6C324.8 230 344 230.2 359.2 210.6C361.3 213.3 367.2 221.8 368.4 224.9Z" fill="#F7E017" stroke="black" stroke-width="0.4"/>
<path d="M332.7 268.1C323.8 277.1 319.2 299.1 320.2 313.9C320.5 318 321.4 320.9 322.9 322.5C323.5 314.1 328.5 292.3 341 282.5C356.475 270.192 368.1 253.708 374.5 235C373.3 231.2 371.5 228.5 367.9 225.9C361.9 245.8 345.5 255.3 332.8 268.2L332.7 268.1Z" fill="#337321" stroke="black" stroke-width="0.4"/>
<path d="M362.7 216.3C358.623 223.351 352.668 229.132 345.5 233C347 231 347.5 228.4 347.5 226.3C338.8 230.3 321.3 229.9 314.2 226.8C324.8 230.1 344 230.3 359.2 210.8C360.7 212.8 362 214.5 362.7 216.4V216.3Z" fill="#316D3A" stroke="black" stroke-width="0.4"/>
<path d="M295.8 262.8C281.6 278.7 291 292.6 296.5 295.7C295 306.7 303.8 305.4 303.6 314.7C307.1 312.3 308.1 305.9 307.6 300.7C312 306.5 323.3 300.1 325.8 310.7C327.3 299 319.6 287.2 310.1 288.3C314.1 284.1 311.8 277.3 308.1 275.5C307.4 284.1 299.1 284.1 296 281.5C292.8 278.8 290.2 270.2 295.8 262.8Z" fill="#337321" stroke="black" stroke-width="0.4"/>
<path d="M326.5 363.8C325 364.8 325.2 367.3 326.1 368.8C328.1 371.9 324.7 379 331.1 380.5C332.9 380.9 334.3 379.5 335.1 377C337 370 330.8 369.3 330.2 366C329.7 362.6 327.9 363 326.6 363.8H326.5Z" fill="#F7E017" stroke="black" stroke-width="0.4"/>
<path d="M331.9 377C329.9 378 327.9 379.7 328.9 387.7C329.2 391 329 399 326.6 399.1C328.1 400 331.2 400.9 332.6 398.9C333.8 401.4 336.6 400.7 337.8 397.6C339.2 399 341.3 396.6 341.3 394.5C342.6 395.5 345.3 394 344.5 389.3C346.1 389.9 348.2 388.6 348.9 387.3C346.6 386.8 340.7 383 339.3 380C337.9 377 334.3 375.6 331.9 377Z" fill="#F7E017" stroke="black" stroke-width="0.4"/>
<path d="M299.6 152.4C300.6 150.8 301.6 149.2 302.8 147.9M335.1 181.8C336.7 180.7 339.1 180.6 342 180.8M332.5 398.9C331.9 397.8 331.6 393.1 332.1 390.3M337.8 397.6C336.8 396.6 334.8 393.4 334.4 390.6M341.3 394.5C338.834 392.067 337.042 389.034 336.1 385.7M344.5 389.2C343 388.8 338.3 385.2 336.3 381.3" stroke="black" stroke-width="0.4"/>
<path d="M430.4 263C453.3 286 454.7 304.1 451.2 314.8C449.4 304.8 439.9 289.3 430 285.3L430.4 263Z" fill="#F7E017" stroke="black" stroke-width="0.4"/>
<path d="M389.5 250.2H431.9V310C431.9 361 408 391.2 383.9 407.2C359.6 391.2 335.8 361 335.8 310V250H365.5C365.5 253.2 365.8 257.8 368.8 262.5C375.8 261.7 383.8 255.5 389.3 250.1L389.5 250.2Z" fill="#337321" stroke="black" stroke-width="0.4"/>
<path d="M431.9 250.2V310C431.9 325.4 429.7 339 426 350.7L383.9 258.5L341.7 350.7C337.676 337.512 335.686 323.788 335.8 310V250L431.9 250.2Z" fill="#006EC7" stroke="black" stroke-width="0.4"/>
<path d="M427.3 346.4C426.5 349.1 425.2 353.5 424.1 356.2L383.9 267L343.5 356.2C342.5 353.5 341.1 349.2 340.3 346.4L383.8 250.4L427.3 346.4Z" fill="#F7E017"/>
<path d="M403 379.2L407 381.6C409.195 375.349 409.881 368.667 409 362.1C406.5 369.4 398.3 369.1 396.1 373.6C397.5 374.4 398.7 375.5 399.8 376.4C396.194 380.663 391.775 384.165 386.8 386.7V339C386.8 335.6 385.8 332.8 385.8 330V320.2C385.8 318 385.5 314.8 383.8 314.8C382.1 314.8 381.8 318 381.8 320.2V330.1C381.8 332.8 380.8 336.1 380.8 339V386.6C378.8 379.5 370.8 381.9 367 374.8C368.5 374.4 370 374.2 371.5 374.6C368.7 363.3 361.1 362.4 359.6 359C359.6 363.7 357.9 374.6 360.6 379.3C361.1 378.4 362 377.5 363.1 376.8C366.2 385 380.5 385 383.8 398.6C386.5 393.6 396.2 387.8 403 379.1V379.2Z" fill="#F7E017" stroke="black" stroke-width="0.4"/>
<path d="M383.8 339.6C387 339.6 397 338.4 400.7 338.4C401.7 338.4 402.4 336.7 402.4 334.6C402.4 332.6 401.6 330.9 400.7 330.9C397.1 330.9 387 329.7 383.8 329.7C380.7 329.7 370.6 330.9 367 330.9C366 330.9 365.2 332.6 365.2 334.6C365.2 336.7 366 338.4 367 338.4C370.6 338.4 380.7 339.6 383.8 339.6ZM381.8 320.1C381.107 319.488 380.224 319.135 379.3 319.1C377.2 319.1 375.4 321 375.4 323.2C375.4 325.5 377.1 327.4 379.3 327.4C381.3 327.4 383.1 325.5 383.1 323.2C383.1 321.5 385.2 321.5 385.2 323.2C385.2 326.9 382.6 329.8 379.2 329.8C375.9 329.8 373.2 326.8 373.2 323.2C373.2 319.6 376 316.7 379.2 316.7C380.2 316.7 381.2 317 382 317.5L381.8 320.1Z" fill="#F7E017" stroke="black" stroke-width="0.4"/>
<path d="M367 338.4C368 338.4 368.7 336.7 368.7 334.6C368.7 332.6 367.9 330.9 367 330.9" fill="#F7E017"/>
<path d="M367 338.4C368 338.4 368.7 336.7 368.7 334.6C368.7 332.6 367.9 330.9 367 330.9" stroke="black" stroke-width="0.4"/>
<path d="M368.4 338.4C369.4 338.4 370.1 336.7 370.1 334.6C370.1 332.6 369.3 330.9 368.4 330.9M377.5 339.2C378.7 339.2 379.6 337.2 379.6 334.6C379.6 332.1 378.7 330.1 377.6 330.1M379.7 339.4C380.9 339.4 381.9 337.2 381.9 334.6C381.9 332 380.9 329.9 379.7 329.9M386.9 339.4C388.1 339.4 389 337.3 389 334.6C389 332 388 329.8 386.9 329.8M389.1 339.3C390.3 339.3 391.3 337.3 391.3 334.6C391.3 332.1 390.3 330 389.1 330M399.1 338.5C400.1 338.5 400.9 336.8 400.9 334.6C400.9 332.5 400.1 330.8 399.1 330.8M363.1 376.9C364.2 376.1 365.6 375.3 367.1 374.9L363.1 376.9ZM401 377.4L399.9 376.4L401 377.4ZM403 379.2C405.752 375.846 407.794 371.967 409 367.8L403 379.2Z" fill="#F7E017"/>
<path d="M368.4 338.4C369.4 338.4 370.1 336.7 370.1 334.6C370.1 332.6 369.3 330.9 368.4 330.9M377.5 339.2C378.7 339.2 379.6 337.2 379.6 334.6C379.6 332.1 378.7 330.1 377.6 330.1M379.7 339.4C380.9 339.4 381.9 337.2 381.9 334.6C381.9 332 380.9 329.9 379.7 329.9M386.9 339.4C388.1 339.4 389 337.3 389 334.6C389 332 388 329.8 386.9 329.8M389.1 339.3C390.3 339.3 391.3 337.3 391.3 334.6C391.3 332.1 390.3 330 389.1 330M399.1 338.5C400.1 338.5 400.9 336.8 400.9 334.6C400.9 332.5 400.1 330.8 399.1 330.8M363.1 376.9C364.2 376.1 365.6 375.3 367.1 374.9M401 377.4L399.9 376.4M403 379.2C405.752 375.846 407.794 371.967 409 367.8" stroke="black" stroke-width="0.4"/>
<path d="M375.3 292.6C375.3 291.5 376 291 376.9 290.2C377.9 289.3 378.4 288.8 379.3 288.8H391.6C392.4 288.8 392.6 289.1 392.6 290.1V310C392.6 311 392.5 311.3 391.6 311.3H375.3V292.4" fill="white"/>
<path d="M375.3 292.6C375.3 291.5 376 291 376.9 290.2C377.9 289.3 378.4 288.8 379.3 288.8H391.6C392.4 288.8 392.6 289.1 392.6 290.1V310C392.6 311 392.5 311.3 391.6 311.3H375.3V292.4" stroke="black" stroke-width="0.4"/>
<path d="M388.5 313C390.1 313 389.9 312.9 391 311.5C392.2 310.1 392 310.3 392 309V290.8C392 289.9 391.8 289.6 391 289.6H379.7C378.8 289.6 378.4 290.1 377.5 291C376.7 291.7 376 292.1 376 293.1V313H388.5Z" fill="#E5E5E5" stroke="black" stroke-width="0.4"/>
<path d="M389.7 312.5C389.7 313.5 389.5 313.8 388.7 313.8H376.4C375.4 313.8 375.3 313.5 375.3 312.5V292.7C375.3 291.7 375.5 291.4 376.4 291.4H388.6C389.6 291.4 389.7 291.7 389.7 292.7V312.5Z" fill="white" stroke="black" stroke-width="0.4"/>
<path d="M413.5 238.6C415.8 241.7 416.5 246 415.3 250.1H411.7C413.2 244.8 412.3 239.7 406 239.1C396.5 238.1 385.5 259.9 369 262.6C364 255.7 364.3 242.6 370.5 236.4C367.3 225.4 360.6 213.4 356 208.3C353 207.7 349.4 207.3 347.1 207.5C350.254 200.845 355.53 195.428 362.1 192.1C362.9 190.5 363.9 189.1 364.8 187.7C365.4 179.1 399.5 183.1 406.8 188.4C406.8 198 409.8 229.9 413.4 238.6H413.5Z" fill="#96877D" stroke="black" stroke-width="0.4"/>
<path d="M372.1 244.4C371.3 229.6 366.3 217.4 359.3 209.1C361.836 209.828 364.509 209.945 367.099 209.441C369.689 208.936 372.122 207.826 374.2 206.2C380.2 201.4 396.3 192.8 402.2 196.5C402.7 197.7 402.9 200.5 402.6 202.2C401.2 197.8 385.7 204.7 381.3 206.8C377.2 209.1 375.3 212.2 376.8 219.2C374.4 216.8 375.2 214.4 372.7 212.7C373.7 215.6 374.5 220.7 374.8 225C373.8 222 372.2 215.6 368.6 211.8C372.412 222.776 373.977 234.407 373.2 246C375.7 246 381.2 243 383.4 241C381.5 244.3 375.9 246.6 372.2 247.5C370.413 251.137 369.521 255.148 369.6 259.2C369.3 255.1 370.4 245 372.1 244.4ZM413.5 238.6C410.3 234.5 404.5 232.3 397.2 234.6C398.4 234 400.8 232.9 402.9 232.4C402.7 230.1 400.9 220.1 400.6 217.7L402.6 216.7C403.6 222.7 405 229.5 405.8 232.3C406.5 232.5 408 232.9 409.3 233.7C408.7 231.3 405.5 214.6 405.6 212.7L408.4 211C409.218 220.333 410.892 229.572 413.4 238.6H413.5Z" fill="black"/>
<path d="M411.8 250.2C413.2 244.8 412.3 239.8 406 239.1C401 238.6 395.8 244.3 389.5 250.1L411.8 250.2ZM370.6 202.3C367.8 202.8 361.6 202.1 358.4 200.9C358.6 199.9 358.9 198.9 359.4 197.8C357.4 199.3 353.7 202.3 352.3 204.5C356.7 205.5 366 206.1 370.6 202.3Z" fill="#96877D" stroke="black" stroke-width="0.4"/>
<path d="M370.5 236.4C371.5 240 372.2 243.4 372.3 246.4M362.1 192.1C360.4 195.1 358.9 198.2 358.4 200.9C361.6 202.1 367.8 202.8 370.6 202.3" stroke="black" stroke-width="0.4"/>
<path d="M356 208.3L359.3 209.1C361.836 209.828 364.509 209.945 367.099 209.441C369.688 208.937 372.122 207.826 374.2 206.2C378.8 202.2 391.5 189.8 405.8 188.5" stroke="black" stroke-width="0.4"/>
<path d="M352.3 204.5C356.8 205.5 366 206.1 370.6 202.3C379.401 194.286 390.482 189.217 402.3 187.8" stroke="black" stroke-width="0.4"/>
<path d="M430.4 263C446 276 457.5 288.4 460.9 308.3C464.3 328.3 470.6 333.6 478.4 328.3C476.5 339.8 466.9 341.2 458.7 332.3C459.4 345.6 455 361.6 443.4 367.3C442.7 359.3 447.1 353.1 445.8 346.5C445.3 343.6 445.1 336.9 448.3 333.8C442.1 336.3 432.4 331.6 431.5 320.8C438.5 324.8 447.7 325.4 451.2 314.8C454.7 304.1 453.2 285.9 430.4 263.1V263ZM450.1 159.2C454.9 144.2 467.6 145.7 471.9 152.1C484.4 143.7 486 162.7 496.7 159C496.498 160.874 495.589 162.6 494.158 163.827C492.727 165.053 490.883 165.687 489 165.6C493.1 170 487.3 176.7 496 180.7C488.6 185.1 478.2 180.5 475.4 168.3C473 174 464.3 174 460.7 169.3C468.4 167 467.8 158.5 463.5 155.2C459.2 151.8 451.5 153.2 450.1 159.2ZM412.3 192.4C415.66 205.118 421.963 216.867 430.7 226.7C439.7 236.4 453.2 234 460.7 224.7C460.9 243.2 444.7 244.7 435.7 238.9C431.8 236.3 428.7 237.6 432.4 241.7C438.2 248 450.8 252.6 465.7 256.4C491.7 263 482.5 287.7 474.9 287.4C477.1 287.4 478.9 284.7 475.7 281.3C453.1 257 407.1 266.6 407.8 212.4C403 226.6 383.1 221.1 392.4 204.2C395.4 207.1 400.6 207.3 402.1 202.9C403.3 199.4 402.5 193.4 397.3 188.3C398.1 188.2 400 188.3 399.8 185.7C400 187.2 401.2 189.4 404.1 188.7C404.9 190.2 405.8 191.3 407 190.7C407.2 190.6 408 190.2 407.6 188.6C407.9 191.6 410.8 192.6 412.3 192.4Z" fill="#337321" stroke="black" stroke-width="0.4"/>
<path d="M435.8 238.9C446.6 247.3 458.8 247.3 470 231.8C473.5 226.8 479.1 222.7 483 222.2C487 221.7 486.8 217.3 489.7 216.4C487.9 215.8 487.1 213.1 484.3 213.4C491.3 210.6 489.3 203.9 492.7 200.7C489.9 201.9 485.5 196.9 481.5 203.3C482.5 200.3 481.2 196.9 480.2 195.6C480.5 198.9 474.7 199.6 473.5 208C472.9 212.8 470.8 212.5 470.4 205.1C470.1 199.8 468 184.9 465.4 177.4C462.8 169.9 462.2 159.5 465.7 158C465.2 156.9 464.4 156 463.5 155.2C459.2 151.9 451.6 153.2 450.1 159.2C445.3 174.3 458.9 183 457.7 199.4C455.7 187.2 439.1 184.1 439.3 172.1C433.9 175 434.7 180.3 436.7 184.5C433.4 178.3 425.7 188.5 419.2 180.1C418.5 191.2 426.7 195.4 433.4 195.9C432.749 197.242 432.375 198.701 432.3 200.19C432.225 201.679 432.451 203.168 432.964 204.568C433.478 205.968 434.268 207.25 435.288 208.338C436.307 209.426 437.536 210.298 438.9 210.9C439.1 198.5 460.5 203.6 460.7 224.9C460.9 243.1 444.5 244.6 435.7 238.9H435.8ZM465.7 256.4C491.7 263 482.5 287.7 474.9 287.4C470 287.4 465.4 282.4 465.1 278.3C459.5 281.8 461 288.8 465.3 291.6C453.5 289.9 448.6 299.1 448.3 309.2C450.5 304.5 457 304.2 459.4 305.2C461.8 306.2 468.1 306.8 470.6 303.4C468.6 305.5 471.9 310.4 469 314.2C478.8 313.7 483 302.9 481.4 298.1C494 284.4 491.6 261.9 465.7 256.4ZM445.9 361.8C447.6 363.1 447.4 365.8 446.2 367.4C443.9 370.8 447.4 378.8 440.3 380.2C438.2 380.6 436.7 379 436 376.2C434 368.2 441 367.7 441.8 364C442.5 360.3 444.5 360.8 445.9 361.8Z" fill="#F7E017" stroke="black" stroke-width="0.4"/>
<path d="M439.5 376.2C441.8 377.6 443.8 379.5 442.5 388.3C442 392 441.9 401 444.6 401.3C442.9 402.1 439.4 403 438 400.7C436.5 403.4 433.3 402.4 432.2 398.9C430.5 400.4 428.2 397.6 428.4 395.2C426.9 396.2 424 394.5 424.9 389.2C423.1 389.9 420.9 388.3 420.1 386.9C422.7 386.4 429.4 382.5 431.1 379.2C432.7 376 436.8 374.6 439.5 376.2Z" fill="#F7E017" stroke="black" stroke-width="0.4"/>
<path d="M438 400.7C438.7 399.5 439.2 394.3 438.7 391.1M432.2 399C433.4 398 435.7 394.4 436.2 391.3M428.4 395.3C429.8 394.5 433.5 389.3 434.4 385.7M424.9 389.3C428.834 387.502 432.117 384.534 434.3 380.8" stroke="black" stroke-width="0.4"/>
<path d="M407.8 212.5C407.5 235.2 415.5 246.7 426.5 254.2C422.4 251.2 424.1 241.3 418.6 238.1C419.9 238 422 240.1 425.2 239.3C423.7 235.1 421.1 228.7 415 227.8C416.6 227.6 420 228.2 422.3 227.2C419.1 221.4 410.7 224.2 407.8 212.5ZM405.9 190.8C405.2 190.5 404.6 189.8 404.1 188.8C401.1 189.5 400.1 187.2 399.8 185.8C400 188.3 398.1 188.2 397.3 188.3C402.5 193.5 403.3 199.5 402.1 202.9C400.6 207.3 395.4 207.1 392.4 204.2C392 213.7 402.3 216.8 406 204.9C406 206.9 408.1 206.7 408.7 209.3C411.3 204.3 409.3 196.9 405.9 190.8Z" fill="#F7E017" stroke="black" stroke-width="0.4"/>
<path d="M389.5 145.8C385.215 140.55 382.883 133.977 382.9 127.2C383.1 122.4 384.8 117 390.7 119.2C388.9 119.2 390.2 123.7 388.2 124.2C389.8 124.8 391.9 123.2 392.2 122.2C392.6 123.8 395 123.4 395.2 125.2C396.2 124.2 395.2 119.9 393.7 119C394.7 118.4 395.3 115 394.8 113.3C393.9 113.5 392.5 115 392.2 117.3C392.7 115.5 392.2 111 389.5 110.3C388.8 111.6 388.6 114.6 389.6 116.3C387.2 115.6 383.6 117.5 382.8 119.9C383 116.9 383.4 112.8 384.8 110.1C385.4 109.2 384.1 107.7 383.2 109.8C381.3 105.6 376.5 103.4 374.4 105.5C372.2 107.5 369.4 104.5 367.6 107.8C365.8 111.1 359.8 111.5 360.1 115C360.3 117.1 359.9 120.4 359 121.6C356.9 124.4 360 126.6 360.6 129.1C360.2 120.7 371.5 104.3 382.8 110.7C381.8 112.8 380.8 117 380.5 122.1C380 129.7 381 140.3 387.1 146.5L389.5 145.8Z" fill="#337321" stroke="black" stroke-width="0.4"/>
<path d="M392.9 119.3C392.8 117.3 395.7 114.7 399.6 114.8C404.3 114.8 407.9 120 411.6 119.5C415.4 119 413.6 121.5 412.8 122.1C412.37 122.457 412.049 122.928 411.873 123.458C411.696 123.988 411.671 124.557 411.8 125.1C412.1 126.3 411.6 127.1 410.1 125.9C406.7 123.4 403.4 126.9 399 124.9C395.2 123.3 393 122.3 392.9 119.3Z" fill="#C8102E" stroke="black" stroke-width="0.4"/>
<path d="M373.7 171.7C371.8 164.7 364.7 157.1 361.3 155.3L361.1 151.6C363 150.6 367.5 146.5 369.5 144.1C383.5 152.1 402.5 140.8 411.2 129.1L414.6 131.5L412.9 134.1L411.1 133C409 136.1 401 145 398.6 147C401.497 147.852 404.484 148.355 407.5 148.5C415.3 141.9 421.5 135.9 424.5 135.5L426.9 139.5L424.7 141.3L422.9 140.1C413.207 151.253 405.861 164.245 401.3 178.3C396.1 176.9 377.5 177.8 373.7 171.7Z" fill="#96877D" stroke="black" stroke-width="0.4"/>
<path d="M398.5 147C397.3 146.6 396.3 146.2 395.7 145.8C394.2 147.4 390.5 148.8 385.7 149.1" stroke="black" stroke-width="0.4"/>
<path d="M374.5 169.3C373.2 161 375.2 151.8 378.7 149.1C382.919 152.13 388.007 153.709 393.2 153.601C398.393 153.493 403.411 151.703 407.5 148.5" stroke="black" stroke-width="0.4"/>
<path d="M374.5 165C380.4 164.7 393.3 166 396.5 166.5C399.6 167.1 404.9 168.6 404.2 170.5M377.2 163.8L378.9 161.8L377.2 159.8L375.5 161.8L377.2 163.8Z" stroke="black" stroke-width="0.4"/>
<path d="M381.2 122.5C379.1 118.9 373.2 117.8 371.9 122.5C371.4 124.7 370.5 126.9 369.1 127.9C367.7 128.9 368.1 131.9 368.7 133.2C370.1 136.5 368.8 139.6 371.7 141.7C371.7 139.1 374.9 136.5 377.6 135.8C380.3 135.1 384.4 132.3 384.9 129C385.5 125.8 386.4 123.1 381.2 122.5Z" fill="#337321" stroke="black" stroke-width="0.4"/>
<path d="M367.8 154.4H368.6V160.4L369 160.7L373.4 157.7L373.8 158.5L369.4 161.5V162.1L373.8 165.1L373.4 165.9L369 162.9C368.894 163.032 368.757 163.135 368.6 163.2V169.2H367.8V163.2L367.4 162.9L363 165.9L362.6 165.2L367 162.2V161.6L362.6 158.6L363 157.8L367.4 160.8L367.8 160.5V154.4Z" fill="#96877D" stroke="black" stroke-width="0.4"/>
<path d="M374.5 169.2C373.75 170.156 372.794 170.931 371.703 171.468C370.613 172.005 369.415 172.289 368.2 172.3C363.3 172.3 359.4 167.6 359.4 161.8C359.4 156 363.3 151.3 368.2 151.3C371 151.3 373.6 152.9 375.2 155.4C374.7 156.8 374.2 159.7 374.2 161.1C373.8 157.5 371.2 154.6 368.2 154.6C364.8 154.6 362.2 157.9 362.2 161.8C362.2 165.8 364.8 169 368.2 169C370.9 169 373.4 166.7 374 163.6C374 165 374.1 168.2 374.4 169.2H374.5Z" fill="#96877D" stroke="black" stroke-width="0.4"/>
<path d="M364.5 179.3C363.578 177.975 363.057 176.413 363 174.8C363.8 174.8 365.4 175.4 366.1 176.3C366.1 175.1 365.7 172.7 365.9 171.6C366.9 172.1 369 173.5 369.8 175.1C369.6 174.1 369.2 171.1 369.6 169.4C370.7 170.2 372.6 172.3 373 173.7C373 171.5 373.7 167.8 374.3 166.9C375.1 167.9 376.4 168.9 377.3 170.2C377.4 168.4 378.2 166.2 379.3 165.7C380.611 167.679 381.434 169.941 381.7 172.3C382.5 171.9 383.7 170.3 384.1 169.3C384.6 170.3 385.1 171.8 384.8 173.7C385.94 172.585 386.798 171.214 387.3 169.7C388 170.4 389.4 172 389.8 173.8C389.6 172.4 389.7 169.8 389.3 168.4C390.7 169.2 391.8 170.8 392.1 172.4C392.5 170.9 393.3 168.2 394.1 167.4C394.93 169.188 395.373 171.13 395.4 173.1C395.9 172.1 396.7 170.1 397.4 169.6C398 170.8 398 173.5 397.8 174.9C398.475 173.805 399.358 172.854 400.4 172.1C400.4 172.7 400.6 174.1 400.4 175.1C401.2 174.5 402.6 171.5 403.1 169.9C404.4 170.7 405.7 173.4 405.8 174.7C407.145 173.791 408.272 172.596 409.1 171.2C409.1 171.9 409.4 174.1 409.1 175.7C409.6 175 410.1 173.7 410.4 173.1C410.8 174.3 410.5 176.9 410.2 178.3C411 177.5 412.2 176.9 413 176.9C413 178.8 412 182.1 410.9 184.6C401.9 181.6 383.3 180.5 364.5 179.3Z" fill="#337321" stroke="black" stroke-width="0.4"/>
<path d="M395.6 120.5C395.6 119.7 397.1 117.8 399.9 117.8C403.1 117.8 406.2 120.8 408.9 120.5C411.5 120.3 410.2 121.4 409.6 121.6C409 121.9 408.7 122.3 408.9 122.8C409.1 123.3 408.8 123.6 407.7 123.2C405.3 122.2 403 123.6 399.9 122.8C397.2 122.1 395.7 121.8 395.6 120.5Z" fill="#F7E017"/>
<path d="M367.4 186C364.6 190 361.8 189.3 361.2 186.7C360.7 184.1 362.7 182.9 362 180.7C361.2 178.5 363.2 177.5 364.1 178.5C365.1 179.5 368.1 176.3 369.3 179.6C370.6 182.9 371.7 185.3 370.9 186.6C370.2 187.9 367.9 187.3 367.4 185.9V186ZM379.4 180C378.8 178.5 381.7 175.7 383.2 177.7C384.7 179.7 387.1 175.5 388.4 178.7L390.7 185.2C391.4 187 387.2 188 385.9 186.4C386.1 187.4 382.3 188.3 381.2 185.3L379.4 179.9V180ZM398.7 181.8C398 180.2 401.4 178 403.2 180.8C403.7 179.7 407 179.4 407.2 182.8L407.7 189.6C407.7 190.9 405.7 192.1 404.1 188.7C401.3 189.4 400.1 187.6 399.8 185.7L398.8 181.7L398.7 181.8Z" fill="#F7E017" stroke="black" stroke-width="0.4"/>
<path d="M369.2 179.6C368.7 178.4 371.5 176.2 373.4 177.9C375.4 179.6 378 176.5 379.1 179.4C381.4 185.5 381.5 185.9 380.9 187.1C380.2 188.3 377.2 187.8 376.4 186.2C376.3 187.3 373.7 187.2 372.4 186.2C370.8 185.2 369.8 181.6 369.2 179.6ZM388.8 179.8C388.1 178.1 392.5 176.6 394.4 179.6C395.4 178.6 397.5 178.5 398.7 181.8C399.9 185 400.1 186.8 399.2 187.7C398.6 188.3 396.3 188.7 395.6 187.2C394.6 188 391.4 187.3 390.7 185.2C390 183.2 389.4 181.3 388.7 179.8H388.8ZM407.3 183.1C407.2 181.6 409.6 180.8 410.4 183.1C411.4 185.4 414.2 183.3 414.4 187.1C414.4 187.8 414.1 190.6 413.2 191.9C412.3 193.3 408 191.9 407.7 189.1C407.4 186.2 407.3 184.6 407.3 183.1Z" fill="#337321" stroke="black" stroke-width="0.4"/>
<path d="M367.4 186C366.4 184.3 364.9 181.6 363.2 184.5M376.5 186.2C375.756 185.056 375.183 183.81 374.8 182.5M385.9 186.4C384.983 185.626 384.235 184.674 383.7 183.6M385 180.6C386.7 180.8 387.8 182.6 388.3 183.5C388.8 184.3 389.9 185.8 390.7 186M395.6 187.3C395 186.2 394.5 185.3 394.4 184.5M394.4 179.6C395 180.6 395.4 181.3 395.7 182.2M404.1 188.7C403.475 187.178 402.436 185.861 401.1 184.9M403.7 182.6C403.8 185.9 407.5 186.1 407.7 188.4M410.5 183.1C410.8 183.9 411 184.8 411 186.1" stroke="black" stroke-width="0.4"/>
<path d="M0.5 0H256.5V256H0.5V0Z" fill="#012169"/>
<path d="M256.5 0V32L161.5 128L256.5 221.5V256H223L127.5 162L34.5 256H0.5V222L93.5 128.5L0.5 37V0H31.5L127.5 94L220.5 0H256.5Z" fill="white"/>
<path d="M92.5 162L98 179L21.5 256H0.5V254.5L92.5 162ZM154.5 156L181.5 160L256.5 233.5V256L154.5 156ZM256.5 0L160.5 98L158.5 76L233.5 0H256.5ZM0.5 0.5L97 95L67.5 91L0.5 24.5V0.5Z" fill="#C8102E"/>
<path d="M88.5 0V256H168.5V0H88.5ZM0.5 88V168H256.5V88H0.5Z" fill="white"/>
<path d="M0.5 104V152H256.5V104H0.5ZM104.5 0V256H152.5V0H104.5Z" fill="#C8102E"/>
</g>
<defs>
<clipPath id="clip0_103_9103">
<rect width="512" height="512" fill="white" transform="translate(0.5)"/>
</clipPath>
</defs>
</svg>
