<svg width="513" height="512" viewBox="0 0 513 512" fill="none" xmlns="http://www.w3.org/2000/svg">
<g clip-path="url(#clip0_103_9174)">
<path d="M205.3 0H512.5V512H205.2L205.3 0Z" fill="#FF0000"/>
<path d="M0.499902 0H205.3V512H0.399902L0.499902 0Z" fill="#006600"/>
<path fill-rule="evenodd" clip-rule="evenodd" d="M294.3 326.6C259.9 325.6 102.3 227.2 101.3 211.5L109.9 197C125.5 219.7 286.7 315.4 302.5 312L294.3 326.6Z" fill="#FFFF00" stroke="black" stroke-width="0.7" stroke-linecap="round" stroke-linejoin="round"/>
<path fill-rule="evenodd" clip-rule="evenodd" d="M108.1 195C105 203.3 149.2 230.6 202.4 263C255.6 295.3 301.4 315.3 304.9 312.5L306.4 309.6C305.8 310.6 304.2 310.9 301.8 310.2C287.4 306 249.9 288.8 203.5 260.7C157.1 232.6 116.7 206.6 110.5 195.6C109.989 194.578 109.748 193.442 109.8 192.3H109.6L108.3 194.6L108.1 195ZM295.1 327C294.5 328.1 293.4 328.1 291.4 328C278.5 326.5 239.4 307.5 193.4 279.9C139.6 247.7 95.2001 218.4 100.1 210.8L101.4 208.4L101.6 208.5C97.3001 221.5 189.2 274 194.6 277.4C247.7 310.4 292.6 329.6 296.6 324.6L295.1 327Z" fill="#FFFF00" stroke="black" stroke-width="0.7" stroke-linecap="round" stroke-linejoin="round"/>
<path fill-rule="evenodd" clip-rule="evenodd" d="M205.5 221C239.8 220.7 282.3 216.3 306.7 206.6L301.5 198C287 206 244.4 211.3 205.2 212C158.8 211.6 126.1 207.3 109.7 196.3L104.7 205.4C134.9 218.1 165.7 220.9 205.5 221Z" fill="#FFFF00" stroke="black" stroke-width="0.7" stroke-linecap="round" stroke-linejoin="round"/>
<path fill-rule="evenodd" clip-rule="evenodd" d="M308.2 206.8C307.3 208.1 291.4 213.6 267.9 217.6C247.179 220.708 226.253 222.246 205.3 222.2C185.237 222.29 165.191 221.02 145.3 218.4C120.8 214.5 108 209.1 103.3 207.2L104.5 204.9C117.798 210.142 131.657 213.833 145.8 215.9C165.527 218.481 185.406 219.717 205.3 219.6C226.086 219.614 246.843 218.076 267.4 215C291.4 211.1 304.6 206.1 306.4 203.8L308.2 206.8ZM303.5 198C300.9 200 287.9 204.7 265.1 208.3C245.394 211.129 225.509 212.533 205.6 212.5C186.403 212.646 167.22 211.409 148.2 208.8C124.9 205.8 112.6 200.3 108.2 198.7L109.5 196.4C112.9 198.2 124.9 203 148.5 206.4C167.433 208.854 186.51 210.023 205.6 209.9C225.342 209.927 245.061 208.524 264.6 205.7C287.6 202.5 300 196.7 301.9 195.2L303.5 198ZM92.5001 262.4C113.7 273.8 160.6 279.6 205.1 280C245.6 280 298.4 273.7 318.1 263.2L317.5 251.8C311.4 261.5 254.9 270.8 204.7 270.4C154.5 270 107.9 262.2 92.4001 252.2V262.4" fill="#FFFF00"/>
<path d="M92.5001 262.4C113.7 273.8 160.6 279.6 205.1 280C245.6 280 298.4 273.7 318.1 263.2L317.5 251.8C311.4 261.5 254.9 270.8 204.7 270.4C154.5 270 107.9 262.2 92.4001 252.2V262.4M308.2 206.8C307.3 208.1 291.4 213.6 267.9 217.6C247.179 220.708 226.253 222.246 205.3 222.2C185.237 222.29 165.191 221.02 145.3 218.4C120.8 214.5 108 209.1 103.3 207.2L104.5 204.9C117.798 210.142 131.657 213.833 145.8 215.9C165.527 218.481 185.406 219.717 205.3 219.6C226.086 219.614 246.843 218.076 267.4 215C291.4 211.1 304.6 206.1 306.4 203.8L308.2 206.8ZM303.5 198C300.9 200 287.9 204.7 265.1 208.3C245.394 211.129 225.509 212.533 205.6 212.5C186.403 212.646 167.22 211.409 148.2 208.8C124.9 205.8 112.6 200.3 108.2 198.7L109.5 196.4C112.9 198.2 124.9 203 148.5 206.4C167.433 208.854 186.51 210.023 205.6 209.9C225.342 209.927 245.061 208.524 264.6 205.7C287.6 202.5 300 196.7 301.9 195.2L303.5 198Z" stroke="black" stroke-width="0.7" stroke-linecap="round" stroke-linejoin="round"/>
<path fill-rule="evenodd" clip-rule="evenodd" d="M319.2 260.8V263.5C316.2 267.1 297.6 272.5 274.3 276.2C251.221 279.553 227.921 281.157 204.6 281C177.2 281 155.4 279 138.4 276.4C122.089 274.546 106.146 270.266 91.1001 263.7V260.5C101.5 267.4 129.4 272.4 138.8 273.9C155.6 276.5 177.3 278.4 204.6 278.4C233.3 278.4 256.3 276.4 273.9 273.7C290.7 271.3 314.5 265 319.2 260.8ZM319.2 251.1V253.9C316.2 257.4 297.6 262.8 274.3 266.5C251.221 269.853 227.921 271.457 204.6 271.3C177.2 271.3 155.4 269.3 138.5 266.8C122.15 264.921 106.173 260.607 91.1001 254V250.8C101.5 257.7 129.4 262.8 138.8 264.2C155.7 266.8 177.4 268.8 204.6 268.8C233.3 268.8 256.3 266.8 273.9 264C290.7 261.6 314.5 255.3 319.2 251.1ZM205 324.6C156.4 324.3 114.7 311.4 105.9 309.2L112.3 319.2C127.8 325.8 168.5 335.6 205.5 334.5C242.5 333.4 274.8 330.5 297.5 319.5L304.1 309C288.6 316.3 235.8 324.6 205.1 324.6" fill="#FFFF00"/>
<path d="M205 324.6C156.4 324.3 114.7 311.4 105.9 309.2L112.3 319.2C127.8 325.8 168.5 335.6 205.5 334.5C242.5 333.4 274.8 330.5 297.5 319.5L304.1 309C288.6 316.3 235.8 324.6 205.1 324.6M319.2 260.8V263.5C316.2 267.1 297.6 272.5 274.3 276.2C251.221 279.553 227.921 281.157 204.6 281C177.2 281 155.4 279 138.4 276.4C122.089 274.546 106.146 270.266 91.1001 263.7V260.5C101.5 267.4 129.4 272.4 138.8 273.9C155.6 276.5 177.3 278.4 204.6 278.4C233.3 278.4 256.3 276.4 273.9 273.7C290.7 271.3 314.5 265 319.2 260.8ZM319.2 251.1V253.9C316.2 257.4 297.6 262.8 274.3 266.5C251.221 269.853 227.921 271.457 204.6 271.3C177.2 271.3 155.4 269.3 138.5 266.8C122.15 264.921 106.173 260.607 91.1001 254V250.8C101.5 257.7 129.4 262.8 138.8 264.2C155.7 266.8 177.4 268.8 204.6 268.8C233.3 268.8 256.3 266.8 273.9 264C290.7 261.6 314.5 255.3 319.2 251.1Z" stroke="black" stroke-width="0.7" stroke-linecap="round" stroke-linejoin="round"/>
<path fill-rule="evenodd" clip-rule="evenodd" d="M300 317.1C299.026 318.584 298.026 320.051 297 321.5C285.653 325.264 274.058 328.238 262.3 330.4C243.432 333.872 224.285 335.612 205.1 335.6C162 335 126.7 326.6 110.1 319.4L108.7 317.1L109 316.7L111.2 317.6C141.562 327.661 173.315 332.891 205.3 333.1C225.3 333.2 245.3 330.8 261.4 328C286.2 323 296.2 319.3 299.3 317.6L300 317.1ZM305.7 307.7H305.8C305.076 308.972 304.343 310.239 303.6 311.5C297.9 313.5 282.3 318.1 259.6 321.3C244.6 323.3 235.3 325.3 205.6 325.9C171.571 325.533 137.754 320.486 105.1 310.9L103.9 308.4C137.067 317.503 171.218 322.54 205.6 323.4C232.8 322.8 244.4 320.8 259.2 318.7C285.7 314.7 299 310.3 303 309C302.969 308.932 302.936 308.866 302.9 308.8L305.7 307.7Z" fill="#FFFF00" stroke="black" stroke-width="0.6" stroke-linecap="round" stroke-linejoin="round"/>
<path fill-rule="evenodd" clip-rule="evenodd" d="M306.3 253.4C306.5 285.4 290.1 314.2 276.9 326.9C257.51 345.758 231.645 356.491 204.6 356.9C172.3 357.5 141.9 336.4 133.7 327.2C117.7 309.1 104.7 286.2 104.3 255.2C106.3 220.2 120 195.9 139.9 179.2C159.156 163.361 183.368 154.795 208.3 155C233.7 155.7 263.5 168.2 284 193C297.4 209.2 303.3 226.8 306.3 253.5V253.4ZM204.9 143.8C266.9 143.8 317.9 194.3 317.9 256.1C317.715 285.948 305.728 314.511 284.557 335.551C263.385 356.592 234.749 368.401 204.9 368.4C142.9 368.4 92.3 318 92.3 256.1C92.3 194.2 142.9 143.8 204.9 143.8Z" fill="#FFFF00" stroke="black" stroke-width="0.7" stroke-linecap="round" stroke-linejoin="round"/>
<path fill-rule="evenodd" clip-rule="evenodd" d="M205.2 143.4C267.2 143.4 317.8 194.1 317.8 256.1C317.8 318.1 267.2 368.8 205.2 368.8C175.317 368.721 146.682 356.808 125.561 335.668C104.44 314.529 92.5528 285.883 92.5 256C92.5792 226.135 104.478 197.515 125.597 176.397C146.715 155.279 175.334 143.379 205.2 143.3V143.4ZM95 256.1C95 316.7 144.8 366.3 205.2 366.3C265.6 366.3 315.3 316.7 315.3 256.1C315.3 195.5 265.6 146 205.2 146C176.023 146.106 148.069 157.736 127.428 178.358C106.787 198.98 95.1317 226.923 95 256.1Z" fill="#FFFF00" stroke="black" stroke-width="0.7" stroke-linecap="round" stroke-linejoin="round"/>
<path fill-rule="evenodd" clip-rule="evenodd" d="M205.3 152.8C261.8 152.8 308.4 199.3 308.4 256C308.4 312.8 261.8 359.2 205.3 359.2C177.945 359.121 151.731 348.226 132.378 328.892C113.026 309.559 102.106 283.355 102 256C102 199.3 148.6 152.8 205.2 152.8H205.3ZM104.5 256C104.5 311.4 150 356.7 205.3 356.7C260.5 356.7 306 311.4 306 256C306 200.6 260.5 155.3 205.2 155.3C149.9 155.3 104.5 200.6 104.5 256Z" fill="#FFFF00" stroke="black" stroke-width="0.7" stroke-linecap="round" stroke-linejoin="round"/>
<path fill-rule="evenodd" clip-rule="evenodd" d="M209.8 143H200.1V369.4H209.8V143Z" fill="#FFFF00" stroke="black" stroke-width="0.7" stroke-linecap="round" stroke-linejoin="round"/>
<path fill-rule="evenodd" clip-rule="evenodd" d="M208.8 141.7H211.3V370.7H208.8V141.7ZM199.2 141.7H201.7V370.7H199.2V141.7Z" fill="#FFFF00" stroke="black" stroke-width="0.7" stroke-linecap="round" stroke-linejoin="round"/>
<path fill-rule="evenodd" clip-rule="evenodd" d="M317.9 260.5V252L311.1 245.7L272.4 235.4L216.6 229.7L149.6 233.1L101.7 244.5L92.1001 251.7V260L116.5 249L174.5 240H230.3L271.3 244.5L299.7 251.4L317.9 260.5Z" fill="#FFFF00" stroke="black" stroke-width="0.7" stroke-linecap="round" stroke-linejoin="round"/>
<path fill-rule="evenodd" clip-rule="evenodd" d="M205.2 238.7C229.649 238.6 254.054 240.776 278.1 245.2C299.2 249.4 314.1 254.7 319.1 260.6V263.6C313.1 256.2 293.1 250.8 277.6 247.6C257.3 243.7 231.6 241.2 205.2 241.2C177.2 241.2 151.2 243.9 131.2 247.8C115.2 251 93.8001 257.3 91.1001 263.6V260.6C92.6001 256.2 108.5 249.7 130.9 245.2C155.414 240.753 180.286 238.577 205.2 238.7ZM205.2 229C229.682 228.906 254.12 231.082 278.2 235.5C299.2 239.7 314.2 245 319.2 251V253.9C313.1 246.5 293 241.1 277.6 238C257.3 234 231.6 231.5 205.2 231.5C180.449 231.423 155.744 233.633 131.4 238.1C115.9 241.1 93.6001 247.7 91.1001 253.9V250.9C92.6001 246.6 108.9 239.9 130.9 235.6C155.411 231.119 180.283 228.91 205.2 229ZM204.7 179.7C246.6 179.5 283.2 185.6 299.9 194.2L306 204.7C291.5 196.9 252 188.7 204.7 190C166.2 190.2 125.1 194.2 104.4 205.2L111.7 193C128.7 184.2 168.7 179.8 204.7 179.7Z" fill="#FFFF00" stroke="black" stroke-width="0.7" stroke-linecap="round" stroke-linejoin="round"/>
<path fill-rule="evenodd" clip-rule="evenodd" d="M205.2 188.4C229.2 188.4 252.2 189.7 270.6 193C287.7 196.2 304.1 201 306.4 203.6L308.2 206.8C302.5 203.1 288.4 198.9 270.2 195.5C248.71 192.077 226.957 190.571 205.2 191C178.2 191 157.2 192.3 139.2 195.5C120.2 199 107 204.1 103.7 206.5L105.5 203.2C111.8 199.9 121.9 196 138.8 193C157.4 189.6 178.5 188.6 205.2 188.4ZM205.2 178.8C226.32 178.468 247.43 179.94 268.3 183.2C282.2 185.9 295.9 190.1 301 193.8L303.6 198C299.1 193 282.2 188.3 267.2 185.7C249.8 182.7 228.1 181.5 205.2 181.3C181.2 181.3 159 182.8 141.8 185.9C125.4 189.1 114.8 192.8 110.3 195.7L112.6 192.1C118.8 188.9 128.8 185.9 141.4 183.4C158.7 180.3 181.1 178.8 205.2 178.8ZM261.2 302.9C242.711 299.712 223.958 298.306 205.2 298.7C135.3 299.5 112.8 313 110 317.1L104.8 308.6C122.5 295.7 160.5 288.5 205.5 289.2C228.8 289.6 248.9 291.2 265.9 294.4L261.1 302.9" fill="#FFFF00"/>
<path d="M261.2 302.9C242.711 299.712 223.958 298.306 205.2 298.7C135.3 299.5 112.8 313 110 317.1L104.8 308.6C122.5 295.7 160.5 288.5 205.5 289.2C228.8 289.6 248.9 291.2 265.9 294.4L261.1 302.9M205.2 188.4C229.2 188.4 252.2 189.7 270.6 193C287.7 196.2 304.1 201 306.4 203.6L308.2 206.8C302.5 203.1 288.4 198.9 270.2 195.5C248.71 192.077 226.957 190.571 205.2 191C178.2 191 157.2 192.3 139.2 195.5C120.2 199 107 204.1 103.7 206.5L105.5 203.2C111.8 199.9 121.9 196 138.8 193C157.4 189.6 178.5 188.6 205.2 188.4ZM205.2 178.8C226.32 178.468 247.43 179.94 268.3 183.2C282.2 185.9 295.9 190.1 301 193.8L303.6 198C299.1 193 282.2 188.3 267.2 185.7C249.8 182.7 228.1 181.5 205.2 181.3C181.2 181.3 159 182.8 141.8 185.9C125.4 189.1 114.8 192.8 110.3 195.7L112.6 192.1C118.8 188.9 128.8 185.9 141.4 183.4C158.7 180.3 181.1 178.8 205.2 178.8Z" stroke="black" stroke-width="0.7" stroke-linecap="round" stroke-linejoin="round"/>
<path fill-rule="evenodd" clip-rule="evenodd" d="M204.8 297.5C224.2 297.8 243.3 298.5 261.8 302L260.4 304.4C242.075 301.236 223.494 299.796 204.9 300.1C179.1 299.9 152.9 302.3 130.3 308.8C123.1 310.8 111.3 315.4 110 319.2L108.7 317C109.1 314.8 116.3 310.1 129.7 306.4C155.7 298.9 180 297.7 204.7 297.4L204.8 297.5ZM205.7 287.7C226.182 287.681 246.627 289.454 266.8 293L265.4 295.5C245.74 291.903 225.786 290.162 205.8 290.3C179.9 290.3 152.5 292.2 127.5 299.4C119.5 301.8 105.5 306.8 105.1 310.8L103.8 308.5C104.1 304.9 116.1 300.1 127 296.9C152.677 290.184 179.166 287.087 205.7 287.7Z" fill="#FFFF00" stroke="black" stroke-width="0.6" stroke-linecap="round" stroke-linejoin="round"/>
<path fill-rule="evenodd" clip-rule="evenodd" d="M304.9 309.9L296.5 322.9L272.4 301.5L209.8 259.5L139.3 220.7L102.6 208.2L110.4 193.7L113.1 192.3L135.9 198L210.9 236.7L254.2 264L290.5 290L305.3 307.1L304.9 309.9Z" fill="#FFFF00" stroke="black" stroke-width="0.7" stroke-linecap="round" stroke-linejoin="round"/>
<path fill-rule="evenodd" clip-rule="evenodd" d="M101.3 208.5C107.8 204.2 155 225.2 204.3 255C253.6 284.9 300.7 318.6 296.5 325L295.1 327.1L294.4 327.6C294.6 327.6 295.3 326.6 294.4 324.3C292.2 317.4 258.9 290.8 203.4 257.3C149.4 225.1 104.4 205.7 99.9001 211.3L101.3 208.5ZM306.6 309.7C310.6 301.7 266.9 268.7 212.6 236.6C157.1 205.1 117 186.6 109.7 192.1L108.1 195.1C108.1 195.2 108.1 194.9 108.5 194.6C109.8 193.5 112 193.6 113 193.6C125.6 193.7 161.6 210.2 212 239.2C234.1 252 305.4 297.8 305.1 310.6C305.1 311.7 305.2 311.9 304.8 312.5L306.6 309.7Z" fill="#FFFF00" stroke="black" stroke-width="0.7" stroke-linecap="round" stroke-linejoin="round"/>
<path d="M137.683 268.472C137.7 277.304 139.468 286.045 142.886 294.189C146.304 302.333 151.303 309.718 157.594 315.917C163.809 322.227 171.21 327.245 179.373 330.682C187.535 334.119 196.297 335.906 205.153 335.942C223.077 335.941 240.267 328.819 252.94 316.145C259.209 309.911 264.185 302.501 267.583 294.34C270.98 286.178 272.732 277.426 272.738 268.585V178.473L137.683 178.246V268.472Z" fill="white" stroke="black" stroke-width="0.796446"/>
<path d="M140.186 268.585C140.21 277.057 141.912 285.441 145.192 293.252C148.473 301.063 153.268 308.148 159.301 314.096C171.414 326.273 187.864 333.148 205.04 333.211C222.186 333.22 238.635 326.428 250.778 314.324C256.791 308.366 261.565 301.277 264.826 293.467C268.087 285.656 269.77 277.277 269.779 268.813V181.204H140.414V268.585M243.952 207.486V263.124L243.838 268.926C243.876 274.009 242.888 279.048 240.933 283.74C238.978 288.432 236.096 292.681 232.46 296.233C225.225 303.494 215.404 307.586 205.154 307.611C194.458 307.611 185.015 303.06 177.961 296.006C170.7 288.77 166.608 278.949 166.583 268.699V207.259L243.952 207.486Z" fill="#FF0000"/>
<path d="M140.186 268.585C140.21 277.057 141.912 285.441 145.192 293.252C148.473 301.063 153.268 308.148 159.301 314.096C171.414 326.273 187.864 333.148 205.04 333.211C222.186 333.22 238.635 326.428 250.778 314.324C256.791 308.366 261.565 301.277 264.826 293.467C268.087 285.656 269.77 277.277 269.779 268.813V181.204H140.414V268.585M243.952 207.486V263.124L243.838 268.926C243.876 274.009 242.888 279.048 240.933 283.74C238.978 288.432 236.096 292.681 232.46 296.233C225.225 303.494 215.404 307.586 205.154 307.611C194.458 307.611 185.015 303.06 177.961 296.006C170.7 288.77 166.608 278.949 166.583 268.699V207.259L243.952 207.486Z" stroke="black" stroke-width="0.56889"/>
<path d="M148.606 204.073C148.72 197.816 153.157 196.336 153.157 196.336C153.271 196.336 158.05 197.929 158.05 204.187H148.606" fill="#FFFF00"/>
<path d="M144.737 196.45L143.941 203.618H148.72C148.72 197.702 153.271 196.792 153.271 196.792C153.385 196.792 157.822 198.043 157.936 203.618H162.714L161.804 196.336H144.737V196.45ZM143.6 203.732H162.942C163.283 203.732 163.625 204.073 163.625 204.528C163.625 205.097 163.283 205.439 162.942 205.439H143.6C143.258 205.439 142.917 205.097 142.917 204.528C142.917 204.073 143.258 203.732 143.713 203.732H143.6Z" fill="#FFFF00" stroke="black" stroke-width="0.56889"/>
<path d="M150.654 203.618C150.654 199.864 153.271 198.84 153.271 198.84C153.271 198.84 155.888 199.977 155.888 203.618H150.654ZM144.055 193.378H162.601C162.942 193.378 163.283 193.833 163.283 194.288C163.283 194.63 162.942 194.971 162.601 194.971H144.055C143.713 194.971 143.372 194.63 143.372 194.175C143.372 193.833 143.713 193.492 144.055 193.492V193.378ZM144.51 195.085H162.032C162.373 195.085 162.714 195.426 162.714 195.881C162.714 196.336 162.373 196.678 162.032 196.678H144.396C143.941 196.678 143.713 196.336 143.713 195.881C143.713 195.426 143.941 195.085 144.396 195.085H144.51ZM150.199 183.024H151.564V183.935H152.588V183.024H154.067V184.048H155.091V182.911H156.457V185.186C156.457 185.641 156.229 185.869 155.888 185.869H150.881C150.54 185.869 150.199 185.641 150.199 185.3V183.024ZM155.433 186.096L155.774 193.378H150.881L151.223 185.983H155.433" fill="#FFFF00"/>
<path d="M155.433 186.096L155.774 193.378H150.881L151.223 185.983H155.433M150.654 203.618C150.654 199.864 153.271 198.84 153.271 198.84C153.271 198.84 155.888 199.977 155.888 203.618H150.654ZM144.055 193.378H162.601C162.942 193.378 163.283 193.833 163.283 194.288C163.283 194.63 162.942 194.971 162.601 194.971H144.055C143.713 194.971 143.372 194.63 143.372 194.175C143.372 193.833 143.713 193.492 144.055 193.492V193.378ZM144.51 195.085H162.032C162.373 195.085 162.714 195.426 162.714 195.881C162.714 196.336 162.373 196.678 162.032 196.678H144.396C143.941 196.678 143.713 196.336 143.713 195.881C143.713 195.426 143.941 195.085 144.396 195.085H144.51ZM150.199 183.024H151.564V183.935H152.588V183.024H154.067V184.048H155.091V182.911H156.457V185.186C156.457 185.641 156.229 185.869 155.888 185.869H150.881C150.54 185.869 150.199 185.641 150.199 185.3V183.024Z" stroke="black" stroke-width="0.56889"/>
<path d="M149.516 189.51V193.378H144.965V189.51H149.516Z" fill="#FFFF00" stroke="black" stroke-width="0.56889"/>
<path d="M161.577 189.51V193.378H157.025V189.51H161.577Z" fill="#FFFF00" stroke="black" stroke-width="0.56889"/>
<path d="M144.168 186.552H145.534V187.69H146.558V186.552H147.923V187.69H148.947V186.552H150.312V188.827C150.312 189.282 150.085 189.51 149.744 189.51H144.851C144.67 189.51 144.496 189.438 144.368 189.31C144.24 189.182 144.168 189.008 144.168 188.827V186.552Z" fill="#FFFF00" stroke="black" stroke-width="0.56889"/>
<path d="M156.229 186.552H157.594V187.69H158.618V186.552H159.984V187.69H161.008V186.552H162.373V188.827C162.373 189.282 162.145 189.51 161.804 189.51H156.912C156.731 189.51 156.557 189.438 156.429 189.31C156.301 189.182 156.229 189.008 156.229 188.827V186.552Z" fill="#FFFF00" stroke="black" stroke-width="0.56889"/>
<path d="M152.816 188.372C152.816 187.689 153.84 187.689 153.84 188.372V190.192H152.816V188.372Z" fill="black"/>
<path d="M146.785 190.875C146.785 190.193 147.696 190.193 147.696 190.875V192.241H146.785V190.875Z" fill="black"/>
<path d="M158.846 190.875C158.846 190.193 159.756 190.193 159.756 190.875V192.241H158.846V190.875Z" fill="black"/>
<path d="M148.606 256.753C148.72 250.495 153.157 249.016 153.157 249.016C153.271 249.016 158.05 250.609 158.05 256.866H148.606" fill="#FFFF00"/>
<path d="M144.737 249.129L143.941 256.297H148.72C148.72 250.381 153.271 249.471 153.271 249.471C153.385 249.471 157.822 250.722 157.936 256.297H162.714L161.804 249.016H144.737V249.129ZM143.6 256.411H162.942C163.283 256.411 163.625 256.753 163.625 257.208C163.625 257.777 163.283 258.118 162.942 258.118H143.6C143.258 258.118 142.917 257.777 142.917 257.208C142.917 256.753 143.258 256.411 143.713 256.411H143.6Z" fill="#FFFF00" stroke="black" stroke-width="0.56889"/>
<path d="M150.654 256.297C150.654 252.543 153.271 251.519 153.271 251.519C153.271 251.519 155.888 252.657 155.888 256.297H150.654ZM144.055 246.057H162.601C162.942 246.057 163.283 246.513 163.283 246.968C163.283 247.309 162.942 247.65 162.601 247.65H144.055C143.713 247.65 143.372 247.309 143.372 246.854C143.372 246.513 143.713 246.171 144.055 246.171V246.057ZM144.51 247.764H162.032C162.373 247.764 162.714 248.105 162.714 248.561C162.714 249.016 162.373 249.357 162.032 249.357H144.396C143.941 249.357 143.713 249.016 143.713 248.561C143.713 248.105 143.941 247.764 144.396 247.764H144.51ZM150.199 235.704H151.564V236.614H152.588V235.704H154.067V236.728H155.091V235.59H156.457V237.865C156.457 238.321 156.229 238.548 155.888 238.548H150.881C150.54 238.548 150.199 238.321 150.199 237.979V235.704ZM155.433 238.776L155.774 246.057H150.881L151.223 238.662H155.433" fill="#FFFF00"/>
<path d="M155.433 238.776L155.774 246.057H150.881L151.223 238.662H155.433M150.654 256.297C150.654 252.543 153.271 251.519 153.271 251.519C153.271 251.519 155.888 252.657 155.888 256.297H150.654ZM144.055 246.057H162.601C162.942 246.057 163.283 246.513 163.283 246.968C163.283 247.309 162.942 247.65 162.601 247.65H144.055C143.713 247.65 143.372 247.309 143.372 246.854C143.372 246.513 143.713 246.171 144.055 246.171V246.057ZM144.51 247.764H162.032C162.373 247.764 162.714 248.105 162.714 248.561C162.714 249.016 162.373 249.357 162.032 249.357H144.396C143.941 249.357 143.713 249.016 143.713 248.561C143.713 248.105 143.941 247.764 144.396 247.764H144.51ZM150.199 235.704H151.564V236.614H152.588V235.704H154.067V236.728H155.091V235.59H156.457V237.865C156.457 238.321 156.229 238.548 155.888 238.548H150.881C150.54 238.548 150.199 238.321 150.199 237.979V235.704Z" stroke="black" stroke-width="0.56889"/>
<path d="M149.516 242.189V246.057H144.965V242.189H149.516Z" fill="#FFFF00" stroke="black" stroke-width="0.56889"/>
<path d="M161.577 242.189V246.057H157.025V242.189H161.577Z" fill="#FFFF00" stroke="black" stroke-width="0.56889"/>
<path d="M144.168 239.231H145.534V240.369H146.558V239.231H147.923V240.369H148.947V239.231H150.312V241.507C150.312 241.962 150.085 242.189 149.744 242.189H144.851C144.67 242.189 144.496 242.117 144.368 241.989C144.24 241.861 144.168 241.688 144.168 241.507V239.231Z" fill="#FFFF00" stroke="black" stroke-width="0.56889"/>
<path d="M156.229 239.231H157.594V240.369H158.618V239.231H159.984V240.369H161.008V239.231H162.373V241.507C162.373 241.962 162.145 242.189 161.804 242.189H156.912C156.731 242.189 156.557 242.117 156.429 241.989C156.301 241.861 156.229 241.688 156.229 241.507V239.231Z" fill="#FFFF00" stroke="black" stroke-width="0.56889"/>
<path d="M152.816 241.051C152.816 240.368 153.84 240.368 153.84 241.051V242.872H152.816V241.051Z" fill="black"/>
<path d="M146.785 243.554C146.785 242.872 147.696 242.872 147.696 243.554V244.92H146.785V243.554Z" fill="black"/>
<path d="M158.846 243.554C158.846 242.872 159.756 242.872 159.756 243.554V244.92H158.846V243.554Z" fill="black"/>
<path d="M169.139 311.656C164.779 307.166 166.856 302.975 166.856 302.975C166.936 302.895 171.434 300.626 175.874 305.036L169.22 311.736" fill="#FFFF00"/>
<path d="M161.004 309.03L165.529 314.646L168.897 311.255C164.698 307.086 167.259 303.215 167.259 303.215C167.34 303.134 171.354 300.868 175.39 304.715L178.758 301.325L172.949 296.839L160.924 308.949L161.004 309.03ZM165.37 314.968L178.999 301.243C179.239 301.001 179.722 300.999 180.045 301.32C180.449 301.721 180.45 302.204 180.21 302.446L166.581 316.171C166.34 316.413 165.857 316.414 165.454 316.014C165.131 315.693 165.129 315.21 165.45 314.887L165.37 314.968Z" fill="#FFFF00" stroke="black" stroke-width="0.56889"/>
<path d="M170.26 309.882C167.595 307.237 168.713 304.658 168.713 304.658C168.713 304.658 171.364 303.603 173.947 306.169L170.26 309.882ZM158.344 307.349L171.412 294.19C171.652 293.948 172.216 294.026 172.538 294.347C172.781 294.587 172.782 295.07 172.542 295.312L159.474 308.472C159.233 308.714 158.751 308.716 158.428 308.395C158.185 308.155 158.184 307.672 158.424 307.43L158.344 307.349ZM159.875 308.229L172.222 295.796C172.462 295.554 172.945 295.552 173.268 295.873C173.591 296.194 173.593 296.676 173.352 296.919L160.925 309.432C160.605 309.755 160.202 309.676 159.879 309.355C159.556 309.035 159.474 308.633 159.795 308.31L159.875 308.229ZM155.326 295.694L156.288 294.725L156.934 295.367L157.656 294.64L157.01 293.999L158.052 292.949L158.779 293.671L159.5 292.944L158.693 292.142L159.655 291.174L161.269 292.777C161.592 293.098 161.594 293.42 161.353 293.662L157.825 297.214C157.585 297.456 157.183 297.538 156.941 297.298L155.326 295.694ZM161.194 294.145L166.601 299.034L163.154 302.505L158.147 297.052L161.113 294.065" fill="#FFFF00"/>
<path d="M161.194 294.145L166.601 299.034L163.154 302.505L158.147 297.052L161.113 294.065M170.26 309.882C167.595 307.237 168.713 304.658 168.713 304.658C168.713 304.658 171.364 303.603 173.947 306.169L170.26 309.882ZM158.344 307.349L171.412 294.19C171.652 293.948 172.216 294.026 172.538 294.347C172.781 294.587 172.782 295.07 172.542 295.312L159.474 308.472C159.233 308.714 158.751 308.716 158.428 308.395C158.185 308.155 158.184 307.672 158.424 307.43L158.344 307.349ZM159.875 308.229L172.222 295.796C172.462 295.554 172.945 295.552 173.268 295.873C173.591 296.194 173.593 296.676 173.352 296.919L160.925 309.432C160.605 309.755 160.202 309.676 159.879 309.355C159.556 309.035 159.474 308.633 159.795 308.31L159.875 308.229ZM155.326 295.694L156.288 294.725L156.934 295.367L157.656 294.64L157.01 293.999L158.052 292.949L158.779 293.671L159.5 292.944L158.693 292.142L159.655 291.174L161.269 292.777C161.592 293.098 161.594 293.42 161.353 293.662L157.825 297.214C157.585 297.456 157.183 297.538 156.941 297.298L155.326 295.694Z" stroke="black" stroke-width="0.56889"/>
<path d="M159.447 300.748L162.192 303.474L158.985 306.703L156.24 303.978L159.447 300.748Z" fill="#FFFF00" stroke="black" stroke-width="0.56889"/>
<path d="M167.945 292.191L170.69 294.916L167.483 298.146L164.738 295.42L167.945 292.191Z" fill="#FFFF00" stroke="black" stroke-width="0.56889"/>
<path d="M153.58 302.458L154.542 301.489L155.349 302.291L156.071 301.564L155.263 300.763L156.225 299.794L157.033 300.596L157.754 299.869L156.947 299.067L157.909 298.098L159.524 299.702C159.846 300.023 159.848 300.344 159.607 300.587L156.16 304.058C156.032 304.187 155.859 304.259 155.678 304.26C155.497 304.26 155.323 304.189 155.194 304.061L153.58 302.458Z" fill="#FFFF00" stroke="black" stroke-width="0.56889"/>
<path d="M162.078 293.9L163.04 292.932L163.847 293.733L164.569 293.007L163.761 292.205L164.724 291.236L165.531 292.038L166.252 291.311L165.445 290.51L166.407 289.541L168.022 291.144C168.345 291.465 168.346 291.787 168.105 292.029L164.658 295.5C164.53 295.629 164.357 295.701 164.176 295.702C163.995 295.703 163.821 295.631 163.693 295.504L162.078 293.9Z" fill="#FFFF00" stroke="black" stroke-width="0.56889"/>
<path d="M160.964 297.605C160.48 297.124 161.202 296.398 161.686 296.879L162.978 298.162L162.256 298.888L160.964 297.605Z" fill="black"/>
<path d="M158.491 303.648C158.007 303.167 158.648 302.521 159.133 303.002L160.102 303.964L159.46 304.61L158.491 303.648Z" fill="black"/>
<path d="M166.99 295.09C166.505 294.609 167.147 293.963 167.631 294.444L168.6 295.406L167.959 296.052L166.99 295.09Z" fill="black"/>
<path d="M200.602 204.073C200.716 197.816 205.153 196.336 205.153 196.336C205.267 196.336 210.046 197.929 210.046 204.187H200.602" fill="#FFFF00"/>
<path d="M196.734 196.45L195.937 203.618H200.716C200.716 197.702 205.267 196.792 205.267 196.792C205.381 196.792 209.818 198.043 209.932 203.618H214.711L213.8 196.336H196.734V196.45ZM195.596 203.732H214.938C215.28 203.732 215.621 204.073 215.621 204.528C215.621 205.097 215.28 205.439 214.938 205.439H195.596C195.255 205.439 194.913 205.097 194.913 204.528C194.913 204.073 195.255 203.732 195.71 203.732H195.596Z" fill="#FFFF00" stroke="black" stroke-width="0.56889"/>
<path d="M202.65 203.618C202.65 199.864 205.267 198.84 205.267 198.84C205.267 198.84 207.884 199.977 207.884 203.618H202.65ZM196.051 193.378H214.597C214.938 193.378 215.28 193.833 215.28 194.288C215.28 194.63 214.938 194.971 214.597 194.971H196.051C195.71 194.971 195.368 194.63 195.368 194.175C195.368 193.833 195.71 193.492 196.051 193.492V193.378ZM196.506 195.085H214.028C214.369 195.085 214.711 195.426 214.711 195.881C214.711 196.336 214.369 196.678 214.028 196.678H196.392C195.937 196.678 195.71 196.336 195.71 195.881C195.71 195.426 195.937 195.085 196.392 195.085H196.506ZM202.195 183.024H203.56V183.935H204.584V183.024H206.064V184.048H207.088V182.911H208.453V185.186C208.453 185.641 208.225 185.869 207.884 185.869H202.878C202.536 185.869 202.195 185.641 202.195 185.3V183.024ZM207.429 186.096L207.77 193.378H202.878L203.219 185.983H207.429" fill="#FFFF00"/>
<path d="M207.429 186.096L207.77 193.378H202.878L203.219 185.983H207.429M202.65 203.618C202.65 199.864 205.267 198.84 205.267 198.84C205.267 198.84 207.884 199.977 207.884 203.618H202.65ZM196.051 193.378H214.597C214.938 193.378 215.28 193.833 215.28 194.288C215.28 194.63 214.938 194.971 214.597 194.971H196.051C195.71 194.971 195.368 194.63 195.368 194.175C195.368 193.833 195.71 193.492 196.051 193.492V193.378ZM196.506 195.085H214.028C214.369 195.085 214.711 195.426 214.711 195.881C214.711 196.336 214.369 196.678 214.028 196.678H196.392C195.937 196.678 195.71 196.336 195.71 195.881C195.71 195.426 195.937 195.085 196.392 195.085H196.506ZM202.195 183.024H203.56V183.935H204.584V183.024H206.064V184.048H207.088V182.911H208.453V185.186C208.453 185.641 208.225 185.869 207.884 185.869H202.878C202.536 185.869 202.195 185.641 202.195 185.3V183.024Z" stroke="black" stroke-width="0.56889"/>
<path d="M201.513 189.51V193.378H196.961V189.51H201.513Z" fill="#FFFF00" stroke="black" stroke-width="0.56889"/>
<path d="M213.573 189.51V193.378H209.022V189.51H213.573Z" fill="#FFFF00" stroke="black" stroke-width="0.56889"/>
<path d="M196.165 186.552H197.53V187.69H198.554V186.552H199.919V187.69H200.943V186.552H202.309V188.827C202.309 189.282 202.081 189.51 201.74 189.51H196.847C196.666 189.51 196.493 189.438 196.365 189.31C196.237 189.182 196.165 189.008 196.165 188.827V186.552Z" fill="#FFFF00" stroke="black" stroke-width="0.56889"/>
<path d="M208.225 186.552H209.591V187.69H210.615V186.552H211.98V187.69H213.004V186.552H214.369V188.827C214.369 189.282 214.142 189.51 213.8 189.51H208.908C208.727 189.51 208.553 189.438 208.425 189.31C208.297 189.182 208.225 189.008 208.225 188.827V186.552Z" fill="#FFFF00" stroke="black" stroke-width="0.56889"/>
<path d="M204.812 188.372C204.812 187.689 205.836 187.689 205.836 188.372V190.192H204.812V188.372Z" fill="black"/>
<path d="M198.782 190.875C198.782 190.193 199.692 190.193 199.692 190.875V192.241H198.782V190.875Z" fill="black"/>
<path d="M210.842 190.875C210.842 190.193 211.752 190.193 211.752 190.875V192.241H210.842V190.875Z" fill="black"/>
<path d="M261.701 204.073C261.587 197.816 257.15 196.336 257.15 196.336C257.036 196.336 252.257 197.929 252.257 204.187H261.701" fill="#FFFF00"/>
<path d="M265.569 196.45L266.366 203.618H261.587C261.587 197.702 257.036 196.792 257.036 196.792C256.922 196.792 252.485 198.043 252.371 203.618H247.593L248.503 196.336H265.569V196.45ZM266.707 203.732H247.365C247.024 203.732 246.682 204.073 246.682 204.528C246.682 205.097 247.024 205.439 247.365 205.439H266.707C267.049 205.439 267.39 205.097 267.39 204.528C267.39 204.073 267.049 203.732 266.593 203.732H266.707Z" fill="#FFFF00" stroke="black" stroke-width="0.56889"/>
<path d="M259.653 203.618C259.653 199.864 257.036 198.84 257.036 198.84C257.036 198.84 254.419 199.977 254.419 203.618H259.653ZM266.252 193.378H247.706C247.365 193.378 247.024 193.833 247.024 194.288C247.024 194.63 247.365 194.971 247.706 194.971H266.252C266.593 194.971 266.935 194.63 266.935 194.175C266.935 193.833 266.593 193.492 266.252 193.492V193.378ZM265.797 195.085H248.275C247.934 195.085 247.593 195.426 247.593 195.881C247.593 196.336 247.934 196.678 248.275 196.678H265.911C266.366 196.678 266.593 196.336 266.593 195.881C266.593 195.426 266.366 195.085 265.911 195.085H265.797ZM260.108 183.024H258.743V183.935H257.719V183.024H256.24V184.048H255.216V182.911H253.85V185.186C253.85 185.641 254.078 185.869 254.419 185.869H259.425C259.767 185.869 260.108 185.641 260.108 185.3V183.024ZM254.874 186.096L254.533 193.378H259.425L259.084 185.983H254.874" fill="#FFFF00"/>
<path d="M254.874 186.096L254.533 193.378H259.425L259.084 185.983H254.874M259.653 203.618C259.653 199.864 257.036 198.84 257.036 198.84C257.036 198.84 254.419 199.977 254.419 203.618H259.653ZM266.252 193.378H247.706C247.365 193.378 247.024 193.833 247.024 194.288C247.024 194.63 247.365 194.971 247.706 194.971H266.252C266.593 194.971 266.935 194.63 266.935 194.175C266.935 193.833 266.593 193.492 266.252 193.492V193.378ZM265.797 195.085H248.275C247.934 195.085 247.593 195.426 247.593 195.881C247.593 196.336 247.934 196.678 248.275 196.678H265.911C266.366 196.678 266.593 196.336 266.593 195.881C266.593 195.426 266.366 195.085 265.911 195.085H265.797ZM260.108 183.024H258.743V183.935H257.719V183.024H256.24V184.048H255.216V182.911H253.85V185.186C253.85 185.641 254.078 185.869 254.419 185.869H259.425C259.767 185.869 260.108 185.641 260.108 185.3V183.024Z" stroke="black" stroke-width="0.56889"/>
<path d="M260.791 189.51V193.378H265.342V189.51H260.791Z" fill="#FFFF00" stroke="black" stroke-width="0.56889"/>
<path d="M248.73 189.51V193.378H253.281V189.51H248.73Z" fill="#FFFF00" stroke="black" stroke-width="0.56889"/>
<path d="M266.138 186.552H264.773V187.69H263.749V186.552H262.384V187.69H261.36V186.552H259.994V188.827C259.994 189.282 260.222 189.51 260.563 189.51H265.456C265.637 189.51 265.81 189.438 265.938 189.31C266.067 189.182 266.138 189.008 266.138 188.827V186.552Z" fill="#FFFF00" stroke="black" stroke-width="0.56889"/>
<path d="M254.078 186.552H252.713V187.69H251.689V186.552H250.323V187.69H249.299V186.552H247.934V188.827C247.934 189.282 248.161 189.51 248.503 189.51H253.395C253.576 189.51 253.75 189.438 253.878 189.31C254.006 189.182 254.078 189.008 254.078 188.827V186.552Z" fill="#FFFF00" stroke="black" stroke-width="0.56889"/>
<path d="M257.491 188.372C257.491 187.689 256.467 187.689 256.467 188.372V190.192H257.491V188.372Z" fill="black"/>
<path d="M263.521 190.875C263.521 190.193 262.611 190.193 262.611 190.875V192.241H263.521V190.875Z" fill="black"/>
<path d="M251.461 190.875C251.461 190.193 250.551 190.193 250.551 190.875V192.241H251.461V190.875Z" fill="black"/>
<path d="M261.701 256.753C261.587 250.495 257.15 249.016 257.15 249.016C257.036 249.016 252.257 250.609 252.257 256.866H261.701" fill="#FFFF00"/>
<path d="M265.569 249.129L266.366 256.297H261.587C261.587 250.381 257.036 249.471 257.036 249.471C256.922 249.471 252.485 250.722 252.371 256.297H247.593L248.503 249.016H265.569V249.129ZM266.707 256.411H247.365C247.024 256.411 246.682 256.753 246.682 257.208C246.682 257.777 247.024 258.118 247.365 258.118H266.707C267.049 258.118 267.39 257.777 267.39 257.208C267.39 256.753 267.049 256.411 266.593 256.411H266.707Z" fill="#FFFF00" stroke="black" stroke-width="0.56889"/>
<path d="M259.653 256.297C259.653 252.543 257.036 251.519 257.036 251.519C257.036 251.519 254.419 252.657 254.419 256.297H259.653ZM266.252 246.057H247.706C247.365 246.057 247.024 246.513 247.024 246.968C247.024 247.309 247.365 247.65 247.706 247.65H266.252C266.593 247.65 266.935 247.309 266.935 246.854C266.935 246.513 266.593 246.171 266.252 246.171V246.057ZM265.797 247.764H248.275C247.934 247.764 247.593 248.105 247.593 248.561C247.593 249.016 247.934 249.357 248.275 249.357H265.911C266.366 249.357 266.593 249.016 266.593 248.561C266.593 248.105 266.366 247.764 265.911 247.764H265.797ZM260.108 235.704H258.743V236.614H257.719V235.704H256.24V236.728H255.216V235.59H253.85V237.865C253.85 238.321 254.078 238.548 254.419 238.548H259.425C259.767 238.548 260.108 238.321 260.108 237.979V235.704ZM254.874 238.776L254.533 246.057H259.425L259.084 238.662H254.874" fill="#FFFF00"/>
<path d="M254.874 238.776L254.533 246.057H259.425L259.084 238.662H254.874M259.653 256.297C259.653 252.543 257.036 251.519 257.036 251.519C257.036 251.519 254.419 252.657 254.419 256.297H259.653ZM266.252 246.057H247.706C247.365 246.057 247.024 246.513 247.024 246.968C247.024 247.309 247.365 247.65 247.706 247.65H266.252C266.593 247.65 266.935 247.309 266.935 246.854C266.935 246.513 266.593 246.171 266.252 246.171V246.057ZM265.797 247.764H248.275C247.934 247.764 247.593 248.105 247.593 248.561C247.593 249.016 247.934 249.357 248.275 249.357H265.911C266.366 249.357 266.593 249.016 266.593 248.561C266.593 248.105 266.366 247.764 265.911 247.764H265.797ZM260.108 235.704H258.743V236.614H257.719V235.704H256.24V236.728H255.216V235.59H253.85V237.865C253.85 238.321 254.078 238.548 254.419 238.548H259.425C259.767 238.548 260.108 238.321 260.108 237.979V235.704Z" stroke="black" stroke-width="0.56889"/>
<path d="M260.791 242.189V246.057H265.342V242.189H260.791Z" fill="#FFFF00" stroke="black" stroke-width="0.56889"/>
<path d="M248.73 242.189V246.057H253.281V242.189H248.73Z" fill="#FFFF00" stroke="black" stroke-width="0.56889"/>
<path d="M266.138 239.231H264.773V240.369H263.749V239.231H262.384V240.369H261.36V239.231H259.994V241.507C259.994 241.962 260.222 242.189 260.563 242.189H265.456C265.637 242.189 265.81 242.117 265.938 241.989C266.067 241.861 266.138 241.688 266.138 241.507V239.231Z" fill="#FFFF00" stroke="black" stroke-width="0.56889"/>
<path d="M254.078 239.231H252.713V240.369H251.689V239.231H250.323V240.369H249.299V239.231H247.934V241.507C247.934 241.962 248.161 242.189 248.503 242.189H253.395C253.576 242.189 253.75 242.117 253.878 241.989C254.006 241.861 254.078 241.688 254.078 241.507V239.231Z" fill="#FFFF00" stroke="black" stroke-width="0.56889"/>
<path d="M257.491 241.051C257.491 240.368 256.467 240.368 256.467 241.051V242.872H257.491V241.051Z" fill="black"/>
<path d="M263.521 243.554C263.521 242.872 262.611 242.872 262.611 243.554V244.92H263.521V243.554Z" fill="black"/>
<path d="M251.461 243.554C251.461 242.872 250.551 242.872 250.551 243.554V244.92H251.461V243.554Z" fill="black"/>
<path d="M241.168 311.656C245.528 307.166 243.451 302.975 243.451 302.975C243.371 302.895 238.873 300.626 234.433 305.036L241.087 311.736" fill="#FFFF00"/>
<path d="M249.303 309.03L244.778 314.646L241.411 311.255C245.609 307.086 243.048 303.215 243.048 303.215C242.968 303.134 238.953 300.868 234.917 304.715L231.549 301.325L237.358 296.839L249.384 308.949L249.303 309.03ZM244.938 314.968L231.308 301.243C231.068 301.001 230.585 300.999 230.262 301.32C229.859 301.721 229.857 302.204 230.097 302.446L243.727 316.171C243.967 316.413 244.45 316.414 244.853 316.014C245.176 315.693 245.178 315.21 244.857 314.887L244.938 314.968Z" fill="#FFFF00" stroke="black" stroke-width="0.56889"/>
<path d="M240.048 309.882C242.712 307.237 241.594 304.658 241.594 304.658C241.594 304.658 238.943 303.603 236.36 306.169L240.048 309.882ZM251.964 307.349L238.896 294.19C238.655 293.948 238.092 294.026 237.769 294.347C237.526 294.587 237.525 295.07 237.765 295.312L250.833 308.472C251.074 308.714 251.557 308.716 251.879 308.395C252.122 308.155 252.123 307.672 251.883 307.43L251.964 307.349ZM250.432 308.229L238.085 295.796C237.845 295.554 237.362 295.552 237.039 295.873C236.716 296.194 236.715 296.676 236.955 296.919L249.382 309.432C249.702 309.755 250.105 309.676 250.428 309.355C250.751 309.035 250.833 308.633 250.512 308.31L250.432 308.229ZM254.981 295.694L254.019 294.725L253.373 295.367L252.652 294.64L253.297 293.999L252.255 292.949L251.529 293.671L250.807 292.944L251.614 292.142L250.652 291.174L249.038 292.777C248.715 293.098 248.714 293.42 248.954 293.662L252.482 297.214C252.722 297.456 253.124 297.538 253.366 297.298L254.981 295.694ZM249.113 294.145L243.706 299.034L247.153 302.505L252.16 297.052L249.194 294.065" fill="#FFFF00"/>
<path d="M249.113 294.145L243.706 299.034L247.153 302.505L252.16 297.052L249.194 294.065M240.048 309.882C242.712 307.237 241.594 304.658 241.594 304.658C241.594 304.658 238.943 303.603 236.36 306.169L240.048 309.882ZM251.964 307.349L238.896 294.19C238.655 293.948 238.092 294.026 237.769 294.347C237.526 294.587 237.525 295.07 237.765 295.312L250.833 308.472C251.074 308.714 251.557 308.716 251.879 308.395C252.122 308.155 252.123 307.672 251.883 307.43L251.964 307.349ZM250.432 308.229L238.085 295.796C237.845 295.554 237.362 295.552 237.039 295.873C236.716 296.194 236.715 296.676 236.955 296.919L249.382 309.432C249.702 309.755 250.105 309.676 250.428 309.355C250.751 309.035 250.833 308.633 250.512 308.31L250.432 308.229ZM254.981 295.694L254.019 294.725L253.373 295.367L252.652 294.64L253.297 293.999L252.255 292.949L251.529 293.671L250.807 292.944L251.614 292.142L250.652 291.174L249.038 292.777C248.715 293.098 248.714 293.42 248.954 293.662L252.482 297.214C252.722 297.456 253.124 297.538 253.366 297.298L254.981 295.694Z" stroke="black" stroke-width="0.56889"/>
<path d="M250.86 300.748L248.115 303.474L251.322 306.703L254.067 303.978L250.86 300.748Z" fill="#FFFF00" stroke="black" stroke-width="0.56889"/>
<path d="M242.362 292.191L239.617 294.916L242.824 298.146L245.569 295.42L242.362 292.191Z" fill="#FFFF00" stroke="black" stroke-width="0.56889"/>
<path d="M256.728 302.458L255.765 301.489L254.958 302.291L254.237 301.564L255.044 300.763L254.082 299.794L253.275 300.596L252.553 299.869L253.36 299.067L252.398 298.098L250.784 299.702C250.461 300.023 250.46 300.344 250.7 300.587L254.147 304.058C254.275 304.187 254.448 304.259 254.629 304.26C254.811 304.26 254.984 304.189 255.113 304.061L256.728 302.458Z" fill="#FFFF00" stroke="black" stroke-width="0.56889"/>
<path d="M248.229 293.9L247.267 292.932L246.46 293.733L245.738 293.007L246.546 292.205L245.584 291.236L244.776 292.038L244.055 291.311L244.862 290.51L243.9 289.541L242.285 291.144C241.962 291.465 241.961 291.787 242.202 292.029L245.649 295.5C245.777 295.629 245.95 295.701 246.131 295.702C246.312 295.703 246.486 295.631 246.615 295.504L248.229 293.9Z" fill="#FFFF00" stroke="black" stroke-width="0.56889"/>
<path d="M249.343 297.605C249.827 297.124 249.106 296.398 248.621 296.879L247.329 298.162L248.051 298.888L249.343 297.605Z" fill="black"/>
<path d="M251.816 303.648C252.3 303.167 251.659 302.521 251.174 303.002L250.205 303.964L250.847 304.61L251.816 303.648Z" fill="black"/>
<path d="M243.317 295.09C243.802 294.609 243.16 293.963 242.676 294.444L241.707 295.406L242.349 296.052L243.317 295.09Z" fill="black"/>
<path d="M196.848 258.686C196.827 261.088 197.722 263.407 199.351 265.172C200.111 266.021 201.04 266.703 202.078 267.173C203.116 267.644 204.241 267.892 205.381 267.902C207.77 267.902 209.932 266.765 211.411 265.172C213.04 263.407 213.935 261.088 213.914 258.686V246.398H196.848V258.686Z" fill="#003399"/>
<path d="M200.83 252.77C201.773 252.77 202.537 252.006 202.537 251.063C202.537 250.121 201.773 249.356 200.83 249.356C199.887 249.356 199.123 250.121 199.123 251.063C199.123 252.006 199.887 252.77 200.83 252.77Z" fill="white"/>
<path d="M210.274 252.77C211.216 252.77 211.98 252.006 211.98 251.063C211.98 250.121 211.216 249.356 210.274 249.356C209.331 249.356 208.567 250.121 208.567 251.063C208.567 252.006 209.331 252.77 210.274 252.77Z" fill="white"/>
<path d="M205.495 257.321C206.437 257.321 207.201 256.557 207.201 255.614C207.201 254.672 206.437 253.908 205.495 253.908C204.552 253.908 203.788 254.672 203.788 255.614C203.788 256.557 204.552 257.321 205.495 257.321Z" fill="white"/>
<path d="M200.83 262.1C201.773 262.1 202.537 261.336 202.537 260.393C202.537 259.451 201.773 258.687 200.83 258.687C199.887 258.687 199.123 259.451 199.123 260.393C199.123 261.336 199.887 262.1 200.83 262.1Z" fill="white"/>
<path d="M210.274 262.1C211.216 262.1 211.98 261.336 211.98 260.393C211.98 259.451 211.216 258.687 210.274 258.687C209.331 258.687 208.567 259.451 208.567 260.393C208.567 261.336 209.331 262.1 210.274 262.1Z" fill="white"/>
<path d="M196.848 229.104C196.827 231.506 197.722 233.825 199.351 235.59C200.111 236.439 201.04 237.121 202.078 237.591C203.116 238.062 204.241 238.31 205.381 238.32C207.77 238.32 209.932 237.183 211.411 235.59C213.04 233.825 213.935 231.506 213.914 229.104V216.816H196.848V229.104Z" fill="#003399"/>
<path d="M200.83 223.188C201.773 223.188 202.537 222.424 202.537 221.481C202.537 220.539 201.773 219.774 200.83 219.774C199.887 219.774 199.123 220.539 199.123 221.481C199.123 222.424 199.887 223.188 200.83 223.188Z" fill="white"/>
<path d="M210.274 223.188C211.216 223.188 211.98 222.424 211.98 221.481C211.98 220.539 211.216 219.774 210.274 219.774C209.331 219.774 208.567 220.539 208.567 221.481C208.567 222.424 209.331 223.188 210.274 223.188Z" fill="white"/>
<path d="M205.495 227.739C206.437 227.739 207.201 226.975 207.201 226.032C207.201 225.09 206.437 224.326 205.495 224.326C204.552 224.326 203.788 225.09 203.788 226.032C203.788 226.975 204.552 227.739 205.495 227.739Z" fill="white"/>
<path d="M200.83 232.518C201.773 232.518 202.537 231.754 202.537 230.811C202.537 229.869 201.773 229.104 200.83 229.104C199.887 229.104 199.123 229.869 199.123 230.811C199.123 231.754 199.887 232.518 200.83 232.518Z" fill="white"/>
<path d="M210.274 232.518C211.216 232.518 211.98 231.754 211.98 230.811C211.98 229.869 211.216 229.104 210.274 229.104C209.331 229.104 208.567 229.869 208.567 230.811C208.567 231.754 209.331 232.518 210.274 232.518Z" fill="white"/>
<path d="M173.182 258.686C173.161 261.088 174.056 263.407 175.685 265.172C176.445 266.021 177.374 266.703 178.412 267.173C179.45 267.644 180.575 267.892 181.715 267.902C184.104 267.902 186.266 266.765 187.745 265.172C189.374 263.407 190.269 261.088 190.248 258.686V246.398H173.182V258.686Z" fill="#003399"/>
<path d="M177.164 252.77C178.107 252.77 178.871 252.006 178.871 251.063C178.871 250.121 178.107 249.356 177.164 249.356C176.221 249.356 175.457 250.121 175.457 251.063C175.457 252.006 176.221 252.77 177.164 252.77Z" fill="white"/>
<path d="M186.608 252.77C187.55 252.77 188.314 252.006 188.314 251.063C188.314 250.121 187.55 249.356 186.608 249.356C185.665 249.356 184.901 250.121 184.901 251.063C184.901 252.006 185.665 252.77 186.608 252.77Z" fill="white"/>
<path d="M181.829 257.321C182.771 257.321 183.535 256.557 183.535 255.614C183.535 254.672 182.771 253.908 181.829 253.908C180.886 253.908 180.122 254.672 180.122 255.614C180.122 256.557 180.886 257.321 181.829 257.321Z" fill="white"/>
<path d="M177.164 262.1C178.107 262.1 178.871 261.336 178.871 260.393C178.871 259.451 178.107 258.687 177.164 258.687C176.221 258.687 175.457 259.451 175.457 260.393C175.457 261.336 176.221 262.1 177.164 262.1Z" fill="white"/>
<path d="M186.608 262.1C187.55 262.1 188.314 261.336 188.314 260.393C188.314 259.451 187.55 258.687 186.608 258.687C185.665 258.687 184.901 259.451 184.901 260.393C184.901 261.336 185.665 262.1 186.608 262.1Z" fill="white"/>
<path d="M220.514 258.686C220.493 261.088 221.388 263.407 223.017 265.172C223.776 266.021 224.705 266.703 225.744 267.173C226.782 267.644 227.907 267.892 229.047 267.902C231.436 267.902 233.598 266.765 235.077 265.172C236.706 263.407 237.601 261.088 237.58 258.686V246.398H220.514V258.686Z" fill="#003399"/>
<path d="M224.496 252.77C225.438 252.77 226.202 252.006 226.202 251.063C226.202 250.121 225.438 249.356 224.496 249.356C223.553 249.356 222.789 250.121 222.789 251.063C222.789 252.006 223.553 252.77 224.496 252.77Z" fill="white"/>
<path d="M233.939 252.77C234.882 252.77 235.646 252.006 235.646 251.063C235.646 250.121 234.882 249.356 233.939 249.356C232.997 249.356 232.233 250.121 232.233 251.063C232.233 252.006 232.997 252.77 233.939 252.77Z" fill="white"/>
<path d="M229.161 257.321C230.103 257.321 230.867 256.557 230.867 255.614C230.867 254.672 230.103 253.908 229.161 253.908C228.218 253.908 227.454 254.672 227.454 255.614C227.454 256.557 228.218 257.321 229.161 257.321Z" fill="white"/>
<path d="M224.496 262.1C225.438 262.1 226.202 261.336 226.202 260.393C226.202 259.451 225.438 258.687 224.496 258.687C223.553 258.687 222.789 259.451 222.789 260.393C222.789 261.336 223.553 262.1 224.496 262.1Z" fill="white"/>
<path d="M233.939 262.1C234.882 262.1 235.646 261.336 235.646 260.393C235.646 259.451 234.882 258.687 233.939 258.687C232.997 258.687 232.233 259.451 232.233 260.393C232.233 261.336 232.997 262.1 233.939 262.1Z" fill="white"/>
<path d="M196.848 288.041C196.827 290.443 197.722 292.762 199.351 294.527C200.111 295.376 201.04 296.058 202.078 296.528C203.116 296.999 204.241 297.247 205.381 297.257C207.77 297.257 209.932 296.12 211.411 294.527C213.04 292.762 213.935 290.443 213.914 288.041V275.753H196.848V288.041Z" fill="#003399"/>
<path d="M200.83 282.125C201.773 282.125 202.537 281.361 202.537 280.418C202.537 279.476 201.773 278.711 200.83 278.711C199.887 278.711 199.123 279.476 199.123 280.418C199.123 281.361 199.887 282.125 200.83 282.125Z" fill="white"/>
<path d="M210.274 282.125C211.216 282.125 211.98 281.361 211.98 280.418C211.98 279.476 211.216 278.711 210.274 278.711C209.331 278.711 208.567 279.476 208.567 280.418C208.567 281.361 209.331 282.125 210.274 282.125Z" fill="white"/>
<path d="M205.495 286.676C206.437 286.676 207.201 285.912 207.201 284.969C207.201 284.027 206.437 283.263 205.495 283.263C204.552 283.263 203.788 284.027 203.788 284.969C203.788 285.912 204.552 286.676 205.495 286.676Z" fill="white"/>
<path d="M200.83 291.455C201.773 291.455 202.537 290.691 202.537 289.748C202.537 288.806 201.773 288.042 200.83 288.042C199.887 288.042 199.123 288.806 199.123 289.748C199.123 290.691 199.887 291.455 200.83 291.455Z" fill="white"/>
<path d="M210.274 291.455C211.216 291.455 211.98 290.691 211.98 289.748C211.98 288.806 211.216 288.042 210.274 288.042C209.331 288.042 208.567 288.806 208.567 289.748C208.567 290.691 209.331 291.455 210.274 291.455Z" fill="white"/>
</g>
<defs>
<clipPath id="clip0_103_9174">
<rect width="512" height="512" fill="white" transform="translate(0.5)"/>
</clipPath>
</defs>
</svg>
