<svg width="513" height="512" viewBox="0 0 513 512" fill="none" xmlns="http://www.w3.org/2000/svg">
<g clip-path="url(#clip0_103_9319)">
<path d="M0.5 341H512.5V512H0.5V341Z" fill="#0038A8"/>
<path d="M0.5 170.7H512.5V341.3H0.5V170.7Z" fill="white"/>
<path d="M0.5 0H512.5V170.7H0.5V0Z" fill="#D52B1E"/>
<path d="M256.956 321.475C293.116 321.475 322.43 292.161 322.43 256.001C322.43 219.841 293.116 190.527 256.956 190.527C220.796 190.527 191.482 219.841 191.482 256.001C191.482 292.161 220.796 321.475 256.956 321.475Z" stroke="black" stroke-width="1.70667"/>
<path d="M256.956 309.839C286.69 309.839 310.794 285.735 310.794 256.001C310.794 226.267 286.69 202.163 256.956 202.163C227.222 202.163 203.118 226.267 203.118 256.001C203.118 285.735 227.222 309.839 256.956 309.839Z" stroke="black" stroke-width="0.77576"/>
<path d="M256.956 297.271C279.749 297.271 298.226 278.794 298.226 256.001C298.226 233.208 279.749 214.73 256.956 214.73C234.163 214.73 215.686 233.208 215.686 256.001C215.686 278.794 234.163 297.271 256.956 297.271Z" stroke="black" stroke-width="0.620608"/>
<path d="M222.1 281.3L214.5 285.8L212.2 281.8C211.854 281.274 211.584 280.702 211.4 280.1C211.318 279.656 211.389 279.198 211.6 278.8C211.8 278.3 212.1 278 212.6 277.7C212.956 277.474 213.365 277.345 213.787 277.328C214.208 277.31 214.626 277.404 215 277.6L215.8 278.2C215.77 277.967 215.77 277.732 215.8 277.5L215.9 276.9L216.2 276.2L217.7 273.8L219.3 276.4L217.7 279.1C217.544 279.342 217.441 279.615 217.4 279.9C217.376 280.105 217.411 280.313 217.5 280.5L217.7 280.7L220.7 278.9L222.1 281.3ZM216.2 281.6L215.6 280.6C215.481 280.39 215.348 280.19 215.2 280C215.134 279.935 215.056 279.884 214.97 279.85C214.884 279.815 214.792 279.798 214.7 279.8C214.527 279.778 214.351 279.813 214.2 279.9C213.9 280.1 213.8 280.2 213.7 280.5L214.1 281.5L214.7 282.5L216.2 281.6ZM209.1 275.7L206.8 268.7L208.6 268.2L210 272.5L211.3 272.1L210 268.1L211.7 267.5L213 271.5L214.7 271L213.2 266.5L215.2 265.9L217.5 272.9L209.1 275.7ZM206.1 265.4L205.5 260.9C205.5 259.9 205.5 259.1 206 258.6C206.4 258.1 207 257.7 207.9 257.6C208.8 257.6 209.5 257.7 210.1 258.2C210.6 258.7 211 259.5 211.1 260.6L211.3 262L214.5 261.7L214.8 264.4L206.1 265.4ZM209.5 262.3L209.4 261.6C209.4 261.1 209.2 260.7 209 260.6C208.912 260.502 208.804 260.424 208.683 260.372C208.562 260.32 208.432 260.296 208.3 260.3C208.036 260.304 207.785 260.411 207.6 260.6C207.4 260.8 207.4 261.2 207.4 261.7L207.5 262.5L209.5 262.3ZM205.8 248.8L206.1 246.1L211.3 246.7C211.8 246.7 212.3 246.9 212.7 247.1C213.2 247.3 213.6 247.6 213.9 248L214.5 249.2C214.653 249.824 214.653 250.476 214.5 251.1C214.5 251.5 214.5 252 214.3 252.5C214.3 253 214.1 253.4 213.8 253.7L213 254.5C212.674 254.745 212.299 254.915 211.9 255C211.3 255.1 210.9 255.2 210.4 255.1L205.2 254.5L205.5 251.8L210.8 252.4C211.3 252.4 211.7 252.4 212 252.1C212.3 251.9 212.4 251.5 212.5 251.1C212.538 250.89 212.531 250.674 212.479 250.467C212.428 250.261 212.332 250.067 212.2 249.9C212 249.6 211.6 249.5 211.2 249.4L205.8 248.8ZM206.9 242.4L208.6 237.5C208.9 236.7 209.3 236.2 209.9 235.9C210.159 235.759 210.445 235.677 210.739 235.66C211.033 235.643 211.327 235.69 211.6 235.8C212.003 235.949 212.347 236.225 212.581 236.585C212.815 236.945 212.927 237.371 212.9 237.8C213.3 237.2 213.7 236.8 214.1 236.8C214.581 236.605 215.119 236.605 215.6 236.8C216.002 236.932 216.361 237.168 216.642 237.485C216.923 237.801 217.116 238.185 217.2 238.6V239.6L216.8 240.8L215.3 245.3L206.9 242.4ZM211.1 240.9L211.5 239.8C211.7 239.4 211.7 239.1 211.6 238.8C211.6 238.7 211.4 238.5 211.1 238.4C210.991 238.347 210.871 238.319 210.75 238.319C210.629 238.319 210.509 238.347 210.4 238.4L209.9 239.2L209.5 240.4L211.1 240.9ZM214.4 242.1L214.9 240.7V239.7C214.861 239.584 214.795 239.478 214.708 239.392C214.622 239.305 214.516 239.239 214.4 239.2C214.291 239.147 214.171 239.119 214.05 239.119C213.929 239.119 213.809 239.147 213.7 239.2C213.5 239.4 213.3 239.7 213.2 240.2L212.7 241.5L214.4 242.1ZM211.1 231.8L212.5 229.4L218.2 232.8L220.4 229.2L222.3 230.3L218.7 236.3L211.1 231.8ZM216.5 223.7L218.2 221.6L225 227.2L223.2 229.3L216.5 223.7ZM228.3 219.1L230.6 218.1C230.9 218.7 231.1 219.3 231.1 219.9C231.135 220.45 231.032 221 230.8 221.5C230.501 222.073 230.093 222.582 229.6 223C229.023 223.533 228.342 223.942 227.6 224.2C226.9 224.4 226.2 224.4 225.4 224.2C224.484 223.869 223.685 223.278 223.1 222.5C222.1 221.5 221.7 220.3 221.8 219.2C221.8 218.1 222.4 217.1 223.5 216.2C224.159 215.565 224.997 215.146 225.9 215C226.777 214.919 227.655 215.13 228.4 215.6L226.9 217.6C226.718 217.467 226.515 217.365 226.3 217.3C226.07 217.248 225.83 217.248 225.6 217.3C225.336 217.371 225.095 217.509 224.9 217.7C224.4 218.1 224.2 218.6 224.3 219.2C224.3 219.6 224.6 220.2 225.2 220.7C225.8 221.5 226.4 221.9 226.8 222C227.3 222 227.7 222 228.1 221.6C228.5 221.2 228.7 220.9 228.7 220.5C228.7 220.1 228.6 219.6 228.3 219.1ZM237.7 215.7L235 217.2L235.3 218.7L232.8 220L231.6 210.6L234.2 209.2L241.3 215.5L238.8 216.8L237.7 215.7ZM236.3 214.3L234 212L234.6 215.2L236.3 214.3ZM244.7 205.3L248.7 204.6C249.359 204.459 250.041 204.459 250.7 204.6C251.2 204.7 251.6 204.9 252 205.3C252.4 205.6 252.7 206 253 206.5L253.4 208.2C253.6 209.2 253.6 209.9 253.4 210.4C253.316 210.939 253.111 211.452 252.8 211.9C252.542 212.274 252.199 212.582 251.8 212.8L250.2 213.3L246.2 214L244.7 205.3ZM247.7 206.8L248.5 211.5H249.2C249.7 211.3 250.2 211.2 250.3 211C250.6 210.9 250.7 210.6 250.8 210.3V208.7C250.6 207.8 250.3 207.2 250 206.9C249.6 206.6 249 206.5 248.4 206.7L247.7 206.8ZM256 203.8L263.3 204V206L258.7 205.8L258.6 207.2L262.8 207.3V209.1L258.5 209V210.7L263.2 210.9L263.1 212.9L255.6 212.6L256 203.8ZM266.6 204.6L269.3 205.2L267.7 211.7L271.8 212.7L271.3 214.8L264.5 213.2L266.6 204.6ZM280.8 209.3L284.7 211.6C285.6 212.1 286.1 212.6 286.3 213.3C286.4 214 286.3 214.7 285.9 215.4C285.72 215.75 285.466 216.057 285.155 216.299C284.844 216.541 284.484 216.712 284.1 216.8C283.4 217 282.6 216.8 281.6 216.2L280.3 215.5L278.7 218.3L276.3 216.9L280.8 209.3ZM281.3 213.9L281.8 214.3L282.9 214.6C283.022 214.578 283.139 214.531 283.242 214.463C283.345 214.394 283.433 214.304 283.5 214.2C283.588 214.088 283.652 213.959 283.686 213.821C283.721 213.683 283.725 213.54 283.7 213.4C283.6 213.1 283.4 212.9 282.9 212.6L282.3 212.2L281.3 213.9ZM288.9 224.2L286.6 222.1L285.3 222.9L283.3 220.9L291.7 216.8L293.9 218.8L290.3 227.5L288.3 225.5L288.9 224.2ZM289.8 222.4L291.2 219.4L288.4 221.1L289.8 222.4ZM290.8 228.3L298.1 223.3L300.7 227L301.7 228.8L301.6 230.1C301.4 230.5 301.1 230.9 300.6 231.2C300.267 231.495 299.845 231.671 299.4 231.7C298.99 231.733 298.577 231.664 298.2 231.5C297.904 231.342 297.635 231.139 297.4 230.9V232.3L297.1 232.9L295.7 235.4L294 232.9L295.4 230.2L295.7 229.4C295.7 229.2 295.7 228.9 295.5 228.7L295.3 228.5L292.3 230.5L290.8 228.3ZM296.8 227.6L297.4 228.6L297.9 229C297.957 229.083 298.031 229.153 298.117 229.204C298.204 229.256 298.3 229.289 298.4 229.3C298.5 229.3 298.7 229.3 298.9 229.1C299.009 229.038 299.102 228.952 299.171 228.847C299.241 228.743 299.285 228.624 299.3 228.5L298.9 227.5L298.2 226.5L296.8 227.6ZM299.5 240.8L298.3 237.9L296.8 238L295.8 235.5L305.2 235.3L306.2 238L299.3 244.4L298.3 241.7L299.5 240.8ZM301 239.6L303.6 237.5L300.3 237.7L301 239.6ZM303.3 249.2L305.1 248.9L305.8 253.1L302 253.7C301.441 253.103 300.969 252.43 300.6 251.7C299.902 250.201 299.726 248.511 300.1 246.9C300.4 246.2 300.8 245.7 301.5 245.2C302.185 244.723 302.973 244.414 303.8 244.3C304.669 244.135 305.566 244.204 306.4 244.5C307.176 244.786 307.842 245.311 308.3 246C308.6 246.6 308.9 247.3 309 248.3C309.116 249.029 309.116 249.771 309 250.5C308.946 250.968 308.774 251.416 308.5 251.8L307.2 252.8L306.3 250.2C306.6 250.1 306.8 249.9 307 249.6C307.1 249.3 307.2 248.9 307.1 248.6C307.085 248.32 307.004 248.048 306.866 247.805C306.727 247.562 306.533 247.355 306.3 247.2C305.8 246.9 305.1 246.9 304.3 247C303.3 247.1 302.6 247.4 302.3 247.8C302.117 248.019 301.987 248.277 301.917 248.554C301.848 248.831 301.842 249.12 301.9 249.4L302.2 250.3L302.8 251.1H303.6L303.3 249.2ZM309.1 262L308.8 264.7L303.6 264.3C303.114 264.245 302.641 264.11 302.2 263.9C301.734 263.699 301.323 263.391 301 263C300.725 262.679 300.52 262.305 300.4 261.9C300.245 261.245 300.211 260.567 300.3 259.9C300.3 259.5 300.3 259 300.5 258.5L300.9 257.3C301.137 256.943 301.443 256.637 301.8 256.4C302.096 256.168 302.436 255.998 302.8 255.9C303.33 255.819 303.87 255.819 304.4 255.9L309.6 256.3L309.4 259L304 258.5C303.5 258.5 303.1 258.5 302.8 258.8C302.5 259.1 302.4 259.4 302.3 259.9C302.3 260.4 302.3 260.7 302.6 261C302.9 261.3 303.2 261.5 303.7 261.5L309.1 262ZM299.3 271.4L300.3 268.4L299.1 267.5L299.9 264.9L307.3 270.8L306.3 273.6L296.9 274L297.9 271.3L299.3 271.4ZM301.3 271.4H304.6L301.9 269.6L301.3 271.4ZM304.5 278.6L302.9 281.2H299.5L301.1 284.2L299.5 286.8L296.9 281.2L293.7 279.4L295.1 277L298.3 278.9L304.5 278.6Z" fill="black"/>
<path d="M265.7 225.4C265.7 225.4 290.6 236.2 286.2 258.4C281.9 280.5 268 280.4 262.6 282.8C257.1 285.3 253.4 288.8 251.2 288.3C249.1 287.8 246.2 286.1 246.2 286.1C246.2 286.1 246 289.8 250.4 290.4C254.8 291.1 260.4 284.7 263.3 284C266.2 283.3 282.9 281.4 287.1 258.9C291.9 234.8 265.8 226.1 265.7 225.4Z" fill="#009B3A" stroke="black" stroke-width="0.1"/>
<path d="M278.2 230.2C278.331 230.907 278.385 231.533 278.352 231.98C278.319 232.427 278.201 232.669 278.018 232.669C277.835 232.669 277.596 232.427 277.34 231.98C277.083 231.533 276.823 230.907 276.6 230.2C276.447 229.713 276.316 229.205 276.218 228.713C276.121 228.22 276.058 227.758 276.036 227.361C276.014 226.964 276.032 226.642 276.09 226.421C276.148 226.2 276.244 226.085 276.37 226.085C276.496 226.085 276.649 226.2 276.818 226.421C276.986 226.642 277.166 226.964 277.342 227.361C277.519 227.758 277.688 228.22 277.837 228.713C277.986 229.205 278.11 229.713 278.2 230.2ZM277.4 230.4C277.649 230.849 277.881 231.322 278.078 231.785C278.275 232.247 278.433 232.688 278.54 233.075C278.647 233.461 278.7 233.784 278.697 234.019C278.693 234.254 278.632 234.396 278.517 234.434C278.403 234.472 278.239 234.405 278.037 234.239C277.835 234.072 277.6 233.81 277.349 233.472C277.099 233.133 276.838 232.726 276.588 232.281C276.337 231.837 276.102 231.364 275.9 230.9C275.589 230.184 275.371 229.52 275.284 229.022C275.197 228.523 275.246 228.219 275.421 228.16C275.597 228.101 275.89 228.292 276.25 228.7C276.61 229.108 277.016 229.708 277.4 230.4ZM274.9 232C275.338 232.129 275.768 232.278 276.168 232.44C276.567 232.601 276.927 232.772 277.227 232.942C277.528 233.112 277.762 233.278 277.917 233.43C278.073 233.582 278.146 233.718 278.133 233.83C278.12 233.942 278.02 234.027 277.841 234.081C277.661 234.135 277.405 234.156 277.086 234.144C276.767 234.132 276.392 234.086 275.983 234.01C275.574 233.934 275.138 233.829 274.7 233.7C273.816 233.44 272.979 233.101 272.373 232.758C271.766 232.415 271.441 232.095 271.467 231.87C271.494 231.644 271.87 231.531 272.514 231.556C273.158 231.58 274.016 231.74 274.9 232Z" fill="#009B3A" stroke="black" stroke-width="0.1"/>
<path d="M275.3 231.1C275.683 231.358 276.052 231.632 276.386 231.905C276.719 232.179 277.011 232.447 277.245 232.694C277.479 232.942 277.65 233.164 277.748 233.347C277.846 233.531 277.869 233.673 277.817 233.765C277.764 233.857 277.637 233.897 277.441 233.883C277.246 233.869 276.987 233.802 276.679 233.684C276.372 233.567 276.02 233.402 275.647 233.199C275.273 232.996 274.883 232.758 274.5 232.5C274.058 232.24 273.61 231.942 273.189 231.63C272.768 231.318 272.385 231 272.071 230.699C271.756 230.398 271.518 230.123 271.373 229.895C271.229 229.667 271.182 229.491 271.237 229.381C271.292 229.272 271.446 229.231 271.69 229.262C271.933 229.293 272.258 229.396 272.64 229.561C273.022 229.727 273.451 229.952 273.895 230.218C274.338 230.485 274.785 230.787 275.2 231.1H275.3Z" fill="#009B3A" stroke="black" stroke-width="0.1"/>
<path d="M276.3 230.7C276.726 231.05 277.174 231.47 277.601 231.92C278.029 232.371 278.42 232.835 278.739 233.269C279.057 233.703 279.291 234.091 279.417 234.396C279.544 234.701 279.559 234.913 279.462 235.011C279.364 235.108 279.157 235.088 278.861 234.953C278.564 234.818 278.188 234.572 277.769 234.238C277.35 233.905 276.903 233.496 276.47 233.052C276.038 232.607 275.634 232.141 275.3 231.7C274.948 231.235 274.684 230.814 274.539 230.483C274.393 230.151 274.37 229.922 274.473 229.819C274.576 229.716 274.8 229.744 275.122 229.899C275.444 230.054 275.851 230.331 276.3 230.7Z" fill="#009B3A" stroke="black" stroke-width="0.1"/>
<path d="M278 233.8L276.9 234.4C276.6 234.5 276.3 234.1 275.7 234.4C275.1 234.8 274.7 235.4 274.5 235.7C274.4 236.1 274.7 236.2 275.5 235.9C276.2 235.5 276.5 234.9 276.8 234.7C277.1 234.4 277.8 234.1 278.1 234L279.1 232.5C279.3 232.1 280.3 231.5 280.7 230.6C281 230 280.9 229.4 280.4 229.6C279.896 229.967 279.486 230.446 279.2 231C278.9 231.5 279.2 232 278.9 232.5L278 233.8ZM285.8 236.4C285.822 237.864 285.716 239.237 285.507 240.217C285.297 241.196 285.001 241.702 284.682 241.622C284.364 241.543 284.05 240.885 283.81 239.793C283.569 238.701 283.422 237.264 283.4 235.8C283.389 235.075 283.41 234.364 283.46 233.709C283.51 233.054 283.589 232.468 283.693 231.983C283.797 231.498 283.923 231.124 284.065 230.883C284.206 230.642 284.36 230.538 284.518 230.577C284.675 230.617 284.833 230.799 284.983 231.112C285.133 231.426 285.271 231.866 285.39 232.407C285.509 232.948 285.607 233.578 285.677 234.264C285.747 234.949 285.789 235.675 285.8 236.4Z" fill="#009B3A" stroke="black" stroke-width="0.1"/>
<path d="M284.5 236.3C284.803 237.717 284.972 239.08 284.97 240.091C284.969 241.102 284.797 241.678 284.492 241.691C284.187 241.704 283.774 241.154 283.344 240.162C282.914 239.17 282.503 237.817 282.2 236.4C282.053 235.705 281.937 235.017 281.859 234.375C281.781 233.732 281.742 233.149 281.745 232.658C281.747 232.166 281.792 231.776 281.875 231.51C281.958 231.244 282.079 231.107 282.23 231.107C282.381 231.107 282.559 231.244 282.755 231.51C282.951 231.776 283.16 232.166 283.371 232.658C283.582 233.149 283.79 233.732 283.984 234.375C284.177 235.017 284.353 235.705 284.5 236.4V236.3Z" fill="#009B3A" stroke="black" stroke-width="0.1"/>
<path d="M280.5 237.6C281.114 237.971 281.736 238.394 282.32 238.84C282.904 239.285 283.435 239.741 283.874 240.174C284.313 240.607 284.65 241.007 284.86 241.344C285.07 241.681 285.147 241.946 285.086 242.121C285.025 242.296 284.828 242.376 284.508 242.355C284.189 242.334 283.755 242.213 283.239 242C282.723 241.787 282.137 241.488 281.525 241.125C280.913 240.761 280.289 240.343 279.7 239.9C279.15 239.529 278.616 239.13 278.128 238.727C277.64 238.323 277.208 237.923 276.856 237.55C276.504 237.176 276.24 236.835 276.078 236.547C275.916 236.26 275.86 236.031 275.912 235.873C275.965 235.715 276.125 235.633 276.384 235.629C276.643 235.625 276.996 235.701 277.422 235.852C277.848 236.003 278.339 236.227 278.867 236.509C279.395 236.792 279.95 237.129 280.5 237.5V237.6Z" fill="#009B3A" stroke="black" stroke-width="0.1"/>
<path d="M281.3 236.4C282.209 237.502 283.002 238.649 283.504 239.588C284.006 240.526 284.177 241.181 283.978 241.406C283.779 241.631 283.227 241.41 282.443 240.79C281.66 240.17 280.709 239.202 279.8 238.1C279.35 237.554 278.924 236.991 278.545 236.444C278.167 235.897 277.845 235.377 277.596 234.912C277.347 234.447 277.178 234.047 277.096 233.735C277.015 233.423 277.024 233.205 277.122 233.093C277.221 232.982 277.407 232.979 277.67 233.084C277.934 233.19 278.269 233.403 278.657 233.71C279.045 234.017 279.478 234.412 279.931 234.874C280.385 235.335 280.85 235.854 281.3 236.4Z" fill="#009B3A" stroke="black" stroke-width="0.1"/>
<path d="M282.9 236.3C283.26 236.971 283.591 237.648 283.876 238.293C284.16 238.939 284.392 239.539 284.558 240.06C284.724 240.58 284.821 241.012 284.843 241.329C284.866 241.647 284.813 241.844 284.688 241.91C284.563 241.975 284.369 241.908 284.116 241.712C283.863 241.516 283.557 241.195 283.214 240.767C282.872 240.339 282.5 239.812 282.12 239.217C281.74 238.623 281.36 237.971 281 237.3C280.64 236.629 280.309 235.952 280.025 235.307C279.74 234.662 279.508 234.061 279.342 233.541C279.176 233.02 279.079 232.588 279.057 232.271C279.035 231.953 279.087 231.756 279.212 231.69C279.337 231.625 279.531 231.692 279.784 231.888C280.037 232.084 280.343 232.405 280.686 232.833C281.028 233.261 281.4 233.788 281.78 234.383C282.16 234.978 282.54 235.629 282.9 236.3Z" fill="#009B3A" stroke="black" stroke-width="0.1"/>
<path d="M284.3 241.5L282.4 241.9C282.1 241.9 281.8 241.2 280.8 241.4C279.8 241.6 279 242.3 278.8 242.7C278.4 243.1 278.8 243.5 280 243.3C281.2 243.1 281.6 242.3 282.2 242.2L284.3 241.8L286.1 240.1C286.6 239.6 288.1 239.1 288.9 238.1C289.6 237.3 289.6 236.5 288.9 236.6C288.092 236.879 287.369 237.361 286.8 238C286.3 238.6 286.4 239.5 285.8 240L284.3 241.5ZM289.8 246.7C289.682 247.412 289.536 248.104 289.372 248.737C289.207 249.37 289.027 249.931 288.841 250.389C288.656 250.846 288.468 251.19 288.289 251.402C288.111 251.614 287.944 251.689 287.8 251.624C287.655 251.558 287.536 251.353 287.447 251.02C287.359 250.686 287.304 250.232 287.286 249.682C287.267 249.131 287.285 248.497 287.339 247.814C287.393 247.13 287.482 246.412 287.6 245.7C287.718 244.988 287.864 244.295 288.028 243.662C288.193 243.029 288.373 242.468 288.559 242.011C288.744 241.554 288.932 241.209 289.111 240.997C289.289 240.785 289.456 240.71 289.6 240.776C289.745 240.842 289.864 241.047 289.953 241.38C290.041 241.713 290.096 242.168 290.114 242.718C290.133 243.268 290.115 243.903 290.061 244.586C290.007 245.269 289.918 245.988 289.8 246.7Z" fill="#009B3A" stroke="black" stroke-width="0.1"/>
<path d="M288.5 246.4C288.577 247.218 288.615 248.082 288.612 248.921C288.608 249.761 288.562 250.551 288.479 251.227C288.396 251.904 288.276 252.447 288.131 252.813C287.986 253.179 287.82 253.357 287.645 253.332C287.47 253.307 287.292 253.08 287.126 252.67C286.959 252.259 286.809 251.677 286.688 250.972C286.566 250.266 286.477 249.456 286.427 248.609C286.377 247.763 286.368 246.903 286.4 246.1C286.364 245.349 286.36 244.595 286.389 243.887C286.418 243.179 286.478 242.532 286.566 241.989C286.654 241.445 286.768 241.017 286.901 240.731C287.033 240.445 287.181 240.309 287.336 240.33C287.49 240.351 287.647 240.529 287.796 240.853C287.946 241.177 288.084 241.64 288.203 242.212C288.323 242.784 288.419 243.452 288.488 244.173C288.556 244.894 288.594 245.653 288.6 246.4H288.5Z" fill="#009B3A" stroke="black" stroke-width="0.1"/>
<path d="M284.5 246.8C284.978 247.268 285.438 247.765 285.853 248.261C286.268 248.757 286.629 249.242 286.915 249.686C287.202 250.131 287.407 250.526 287.518 250.848C287.63 251.17 287.646 251.412 287.565 251.56C287.484 251.708 287.308 251.759 287.048 251.71C286.788 251.66 286.448 251.512 286.05 251.273C285.652 251.034 285.203 250.709 284.73 250.319C284.258 249.928 283.771 249.479 283.3 249C282.758 248.524 282.212 247.986 281.704 247.428C281.197 246.869 280.74 246.305 280.369 245.778C279.999 245.25 279.724 244.774 279.566 244.385C279.407 243.995 279.37 243.703 279.456 243.531C279.542 243.359 279.75 243.31 280.063 243.39C280.376 243.469 280.787 243.674 281.264 243.989C281.74 244.304 282.27 244.721 282.814 245.208C283.357 245.695 283.9 246.24 284.4 246.8H284.5Z" fill="#009B3A" stroke="black" stroke-width="0.1"/>
<path d="M285.5 245.9C285.847 246.536 286.167 247.184 286.442 247.807C286.718 248.43 286.943 249.016 287.104 249.53C287.266 250.045 287.361 250.479 287.385 250.808C287.409 251.136 287.36 251.352 287.242 251.444C287.124 251.536 286.938 251.502 286.696 251.343C286.454 251.185 286.16 250.905 285.832 250.52C285.503 250.136 285.145 249.653 284.779 249.101C284.414 248.548 284.047 247.936 283.7 247.3C283.302 246.635 282.921 245.928 282.584 245.227C282.247 244.527 281.962 243.851 281.75 243.248C281.538 242.645 281.404 242.129 281.357 241.738C281.31 241.347 281.352 241.09 281.479 240.985C281.606 240.88 281.816 240.93 282.093 241.132C282.37 241.333 282.708 241.681 283.083 242.15C283.457 242.62 283.859 243.199 284.26 243.847C284.66 244.495 285.049 245.196 285.4 245.9H285.5Z" fill="#009B3A" stroke="black" stroke-width="0.1"/>
<path d="M287 246C287.235 246.739 287.442 247.481 287.609 248.184C287.776 248.887 287.9 249.537 287.973 250.097C288.046 250.657 288.068 251.116 288.037 251.447C288.005 251.779 287.922 251.976 287.79 252.029C287.659 252.081 287.483 251.988 287.271 251.753C287.06 251.519 286.818 251.149 286.559 250.663C286.3 250.177 286.029 249.586 285.761 248.923C285.494 248.261 285.235 247.539 285 246.8C284.765 246.06 284.558 245.318 284.391 244.615C284.224 243.912 284.1 243.262 284.027 242.702C283.954 242.142 283.932 241.684 283.963 241.352C283.995 241.021 284.078 240.823 284.21 240.771C284.341 240.718 284.517 240.812 284.729 241.046C284.94 241.28 285.182 241.651 285.441 242.136C285.7 242.622 285.971 243.213 286.239 243.876C286.506 244.539 286.765 245.26 287 246Z" fill="#009B3A" stroke="black" stroke-width="0.1"/>
<path d="M287.5 251.5H285.5C285.2 251.5 285.1 250.7 284.1 250.7C283.1 250.7 282.1 251.2 281.8 251.6C281.4 251.9 281.8 252.4 282.9 252.4C284.1 252.4 284.7 251.8 285.3 251.7H287.4L289.4 250.4C290 250 291.7 249.8 292.6 249C293.4 248.4 293.6 247.5 292.9 247.6C292.026 247.716 291.198 248.061 290.5 248.6C289.9 249 289.9 249.9 289.2 250.3L287.4 251.5M290.1 258.2C289.333 259.423 288.514 260.501 287.821 261.197C287.129 261.893 286.621 262.15 286.409 261.911C286.197 261.672 286.298 260.957 286.69 259.924C287.082 258.89 287.733 257.623 288.5 256.4C289.267 255.177 290.086 254.099 290.779 253.403C291.471 252.707 291.979 252.45 292.191 252.689C292.403 252.928 292.302 253.642 291.91 254.676C291.518 255.709 290.867 256.977 290.1 258.2Z" fill="#009B3A"/>
<path d="M287.5 251.5H285.5C285.2 251.5 285.1 250.7 284.1 250.7C283.1 250.7 282.1 251.2 281.8 251.6C281.4 251.9 281.8 252.4 282.9 252.4C284.1 252.4 284.7 251.8 285.3 251.7H287.4L289.4 250.4C290 250 291.7 249.8 292.6 249C293.4 248.4 293.6 247.5 292.9 247.6C292.026 247.716 291.198 248.061 290.5 248.6C289.9 249 289.9 249.9 289.2 250.3L287.4 251.5M290.1 258.2C289.333 259.423 288.514 260.501 287.821 261.197C287.129 261.893 286.621 262.15 286.409 261.911C286.197 261.672 286.298 260.957 286.69 259.924C287.082 258.89 287.733 257.623 288.5 256.4C289.267 255.177 290.086 254.099 290.779 253.403C291.471 252.707 291.979 252.45 292.191 252.689C292.403 252.928 292.302 253.642 291.91 254.676C291.518 255.709 290.867 256.977 290.1 258.2Z" stroke="black" stroke-width="0.1"/>
<path d="M289.1 257.4C288.82 258.128 288.519 258.834 288.213 259.477C287.906 260.12 287.602 260.687 287.316 261.147C287.03 261.606 286.768 261.948 286.546 262.154C286.323 262.36 286.145 262.426 286.02 262.347C285.895 262.268 285.827 262.047 285.819 261.695C285.81 261.344 285.862 260.869 285.972 260.298C286.082 259.727 286.246 259.071 286.457 258.368C286.668 257.665 286.92 256.928 287.2 256.2C287.765 254.729 288.407 253.381 288.984 252.453C289.562 251.525 290.028 251.093 290.28 251.253C290.532 251.412 290.549 252.149 290.328 253.302C290.107 254.454 289.665 255.929 289.1 257.4ZM285.2 256.1C285.683 257.351 286.041 258.635 286.195 259.67C286.349 260.704 286.287 261.405 286.021 261.617C285.756 261.829 285.31 261.535 284.781 260.801C284.252 260.066 283.683 258.951 283.2 257.7C282.717 256.449 282.359 255.165 282.205 254.13C282.051 253.095 282.113 252.395 282.379 252.183C282.644 251.971 283.09 252.264 283.619 252.999C284.148 253.733 284.717 254.849 285.2 256.1Z" fill="#009B3A" stroke="black" stroke-width="0.1"/>
<path d="M286.5 255.7C286.65 257.329 286.677 258.923 286.577 260.132C286.476 261.34 286.256 262.064 285.964 262.143C285.672 262.223 285.333 261.652 285.021 260.556C284.709 259.46 284.45 257.929 284.3 256.3C284.226 255.493 284.181 254.687 284.168 253.926C284.155 253.166 284.174 252.467 284.223 251.868C284.273 251.27 284.353 250.784 284.458 250.439C284.563 250.094 284.691 249.896 284.836 249.857C284.98 249.818 285.138 249.937 285.3 250.21C285.462 250.482 285.624 250.901 285.779 251.444C285.933 251.987 286.077 252.642 286.2 253.372C286.324 254.102 286.426 254.893 286.5 255.7Z" fill="#009B3A" stroke="black" stroke-width="0.1"/>
<path d="M287.9 256.5C287.824 257.294 287.72 258.078 287.594 258.806C287.468 259.535 287.323 260.194 287.167 260.746C287.011 261.299 286.847 261.733 286.684 262.025C286.521 262.317 286.363 262.46 286.219 262.447C286.074 262.434 285.946 262.264 285.842 261.948C285.738 261.632 285.659 261.176 285.611 260.605C285.563 260.034 285.546 259.36 285.561 258.622C285.577 257.883 285.624 257.094 285.7 256.3C285.776 255.506 285.88 254.722 286.006 253.993C286.132 253.265 286.277 252.606 286.433 252.053C286.589 251.501 286.753 251.067 286.916 250.775C287.079 250.483 287.237 250.34 287.381 250.353C287.526 250.366 287.654 250.535 287.758 250.851C287.862 251.167 287.941 251.624 287.989 252.195C288.037 252.766 288.054 253.439 288.039 254.178C288.023 254.917 287.976 255.706 287.9 256.5Z" fill="#009B3A" stroke="black" stroke-width="0.1"/>
<path d="M286.1 261.7L284.4 260.9C284.1 260.7 284.3 260 283.4 259.6C282.4 259.2 281.4 259.2 281 259.4C280.5 259.6 280.6 260.1 281.7 260.7C282.7 261.2 283.5 260.8 284.1 261.1L286.1 261.9L288.3 261.5C289 261.5 290.6 261.9 291.7 261.5C292.7 261.3 293.2 260.5 292.6 260.3C291.759 260.028 290.859 259.993 290 260.2C289.3 260.4 288.9 261.2 288.2 261.4C287.7 261.4 286.2 261.8 286.1 261.7ZM287.1 269.9C286.48 270.433 285.851 270.926 285.248 271.353C284.645 271.78 284.08 272.131 283.586 272.387C283.092 272.643 282.678 272.798 282.368 272.844C282.058 272.89 281.858 272.826 281.779 272.656C281.7 272.485 281.744 272.211 281.909 271.849C282.073 271.488 282.355 271.046 282.737 270.548C283.12 270.051 283.596 269.508 284.139 268.951C284.682 268.394 285.28 267.833 285.9 267.3C286.506 266.781 287.12 266.301 287.708 265.887C288.295 265.473 288.844 265.134 289.324 264.888C289.803 264.642 290.204 264.494 290.502 264.453C290.801 264.413 290.992 264.479 291.064 264.65C291.136 264.821 291.088 265.092 290.923 265.448C290.758 265.804 290.479 266.239 290.101 266.726C289.724 267.214 289.256 267.745 288.724 268.289C288.192 268.834 287.606 269.381 287 269.9" fill="#009B3A"/>
<path d="M287.1 269.9C286.48 270.433 285.851 270.926 285.248 271.353C284.645 271.78 284.08 272.131 283.586 272.387C283.092 272.643 282.678 272.798 282.368 272.844C282.058 272.89 281.858 272.826 281.779 272.656C281.7 272.485 281.744 272.211 281.909 271.849C282.073 271.488 282.355 271.046 282.737 270.548C283.12 270.051 283.596 269.508 284.139 268.951C284.682 268.394 285.28 267.833 285.9 267.3C286.506 266.781 287.12 266.301 287.708 265.887C288.295 265.473 288.844 265.134 289.324 264.888C289.803 264.642 290.204 264.494 290.502 264.453C290.801 264.413 290.992 264.479 291.064 264.65C291.136 264.821 291.088 265.092 290.923 265.448C290.758 265.804 290.479 266.239 290.101 266.726C289.724 267.214 289.256 267.745 288.724 268.289C288.192 268.834 287.606 269.381 287 269.9M286.1 261.7L284.4 260.9C284.1 260.7 284.3 260 283.4 259.6C282.4 259.2 281.4 259.2 281 259.4C280.5 259.6 280.6 260.1 281.7 260.7C282.7 261.2 283.5 260.8 284.1 261.1L286.1 261.9L288.3 261.5C289 261.5 290.6 261.9 291.7 261.5C292.7 261.3 293.2 260.5 292.6 260.3C291.759 260.028 290.859 259.993 290 260.2C289.3 260.4 288.9 261.2 288.2 261.4C287.7 261.4 286.2 261.8 286.1 261.7Z" stroke="black" stroke-width="0.1"/>
<path d="M286.1 268.7C285.567 269.474 284.971 270.252 284.362 270.972C283.752 271.692 283.146 272.334 282.59 272.846C282.034 273.358 281.544 273.727 281.16 273.922C280.776 274.118 280.509 274.135 280.378 273.972C280.248 273.809 280.259 273.471 280.41 272.985C280.562 272.498 280.849 271.877 281.249 271.171C281.65 270.464 282.152 269.692 282.717 268.916C283.281 268.139 283.892 267.381 284.5 266.7C285.033 265.926 285.629 265.148 286.238 264.428C286.848 263.708 287.454 263.066 288.01 262.554C288.566 262.042 289.056 261.673 289.44 261.478C289.824 261.282 290.091 261.265 290.222 261.428C290.352 261.591 290.341 261.929 290.19 262.415C290.038 262.902 289.751 263.523 289.351 264.23C288.95 264.936 288.448 265.708 287.883 266.485C287.319 267.261 286.708 268.02 286.1 268.7Z" fill="#009B3A" stroke="black" stroke-width="0.1"/>
<path d="M282.3 265.8C282.361 266.603 282.388 267.411 282.379 268.177C282.37 268.944 282.326 269.655 282.248 270.269C282.171 270.883 282.061 271.388 281.927 271.756C281.793 272.124 281.636 272.347 281.465 272.413C281.294 272.479 281.113 272.385 280.932 272.139C280.751 271.892 280.573 271.497 280.41 270.976C280.246 270.455 280.099 269.818 279.977 269.101C279.855 268.385 279.761 267.603 279.7 266.8C279.639 265.997 279.612 265.19 279.621 264.423C279.63 263.656 279.674 262.945 279.752 262.331C279.83 261.717 279.939 261.212 280.073 260.844C280.207 260.476 280.364 260.253 280.535 260.187C280.706 260.122 280.887 260.215 281.068 260.461C281.249 260.708 281.427 261.103 281.59 261.624C281.754 262.145 281.901 262.782 282.023 263.499C282.145 264.215 282.239 264.997 282.3 265.8Z" fill="#009B3A" stroke="black" stroke-width="0.1"/>
<path d="M283.8 265.8C283.465 267.065 283.077 268.166 282.694 268.94C282.31 269.714 281.952 270.12 281.671 270.098C281.391 270.076 281.203 269.626 281.136 268.816C281.069 268.005 281.127 266.878 281.3 265.6C281.426 264.673 281.608 263.697 281.833 262.752C282.058 261.806 282.318 260.916 282.594 260.153C282.87 259.39 283.153 258.775 283.422 258.357C283.69 257.939 283.936 257.73 284.139 257.746C284.343 257.762 284.498 258.004 284.594 258.451C284.689 258.898 284.722 259.538 284.689 260.32C284.656 261.103 284.558 262.006 284.404 262.957C284.25 263.909 284.043 264.882 283.8 265.8Z" fill="#009B3A" stroke="black" stroke-width="0.1"/>
<path d="M285.1 267.1C284.775 267.901 284.423 268.683 284.065 269.401C283.707 270.119 283.35 270.759 283.013 271.284C282.677 271.809 282.367 272.208 282.104 272.461C281.84 272.713 281.626 272.812 281.475 272.753C281.17 272.634 281.138 271.876 281.387 270.647C281.635 269.418 282.144 267.819 282.8 266.2C283.131 265.387 283.489 264.594 283.852 263.868C284.216 263.142 284.578 262.496 284.919 261.968C285.26 261.439 285.573 261.038 285.839 260.787C286.105 260.537 286.32 260.442 286.471 260.507C286.622 260.573 286.706 260.798 286.719 261.17C286.732 261.542 286.673 262.053 286.546 262.675C286.418 263.296 286.225 264.016 285.977 264.792C285.729 265.569 285.431 266.387 285.1 267.2" fill="#009B3A"/>
<path d="M285.1 267.1C284.775 267.901 284.423 268.683 284.065 269.401C283.707 270.119 283.35 270.759 283.013 271.284C282.677 271.809 282.367 272.208 282.104 272.461C281.84 272.713 281.626 272.812 281.475 272.753C281.17 272.634 281.138 271.876 281.387 270.647C281.635 269.418 282.144 267.819 282.8 266.2C283.131 265.387 283.489 264.594 283.852 263.868C284.216 263.142 284.578 262.496 284.919 261.968C285.26 261.439 285.573 261.038 285.839 260.787C286.105 260.537 286.32 260.442 286.471 260.507C286.622 260.573 286.706 260.798 286.719 261.17C286.732 261.542 286.673 262.053 286.546 262.675C286.418 263.296 286.225 264.016 285.977 264.792C285.729 265.569 285.431 266.387 285.1 267.2" stroke="black" stroke-width="0.1"/>
<path d="M281.5 272.3L279.8 270.8C279.6 270.5 280 269.8 279.1 269C278.386 268.358 277.46 268.002 276.5 268C275.9 268 275.9 268.6 276.9 269.6C277.9 270.6 278.9 270.4 279.4 270.9C280.097 271.352 280.736 271.89 281.3 272.5L284 272.9C284.7 273 286.3 274.2 287.7 274.2C288.9 274.2 289.7 273.6 289 273.1C288.203 272.537 287.272 272.192 286.3 272.1C285.4 272.1 284.7 272.8 283.8 272.7L281.4 272.3M279 280.1C278.049 280.314 277.06 280.482 276.108 280.591C275.157 280.7 274.269 280.748 273.513 280.73C272.756 280.712 272.15 280.629 271.742 280.487C271.333 280.346 271.133 280.149 271.157 279.913C271.181 279.677 271.427 279.407 271.878 279.125C272.329 278.842 272.971 278.554 273.757 278.282C274.543 278.011 275.451 277.763 276.412 277.558C277.372 277.353 278.36 277.197 279.3 277.1C280.251 276.886 281.24 276.718 282.192 276.609C283.143 276.5 284.031 276.452 284.787 276.47C285.544 276.488 286.15 276.571 286.558 276.713C286.967 276.854 287.167 277.051 287.143 277.287C287.119 277.523 286.873 277.793 286.422 278.075C285.971 278.358 285.329 278.646 284.543 278.918C283.757 279.189 282.849 279.437 281.888 279.642C280.928 279.847 279.94 280.003 279 280.1Z" fill="#009B3A"/>
<path d="M281.5 272.3L279.8 270.8C279.6 270.5 280 269.8 279.1 269C278.386 268.358 277.46 268.002 276.5 268C275.9 268 275.9 268.6 276.9 269.6C277.9 270.6 278.9 270.4 279.4 270.9C280.097 271.352 280.736 271.89 281.3 272.5L284 272.9C284.7 273 286.3 274.2 287.7 274.2C288.9 274.2 289.7 273.6 289 273.1C288.203 272.537 287.272 272.192 286.3 272.1C285.4 272.1 284.7 272.8 283.8 272.7L281.4 272.3M279 280.1C278.049 280.314 277.06 280.482 276.108 280.591C275.157 280.7 274.269 280.748 273.513 280.73C272.756 280.712 272.15 280.629 271.742 280.487C271.333 280.346 271.133 280.149 271.157 279.913C271.181 279.677 271.427 279.407 271.878 279.125C272.329 278.842 272.971 278.554 273.757 278.282C274.543 278.011 275.451 277.763 276.412 277.558C277.372 277.353 278.36 277.197 279.3 277.1C280.251 276.886 281.24 276.718 282.192 276.609C283.143 276.5 284.031 276.452 284.787 276.47C285.544 276.488 286.15 276.571 286.558 276.713C286.967 276.854 287.167 277.051 287.143 277.287C287.119 277.523 286.873 277.793 286.422 278.075C285.971 278.358 285.329 278.646 284.543 278.918C283.757 279.189 282.849 279.437 281.888 279.642C280.928 279.847 279.94 280.003 279 280.1Z" stroke="black" stroke-width="0.1"/>
<path d="M278.9 278.4C277.307 278.981 275.797 279.39 274.671 279.546C273.544 279.701 272.884 279.591 272.821 279.239C272.758 278.886 273.297 278.316 274.33 277.641C275.364 276.967 276.817 276.238 278.4 275.6C279.993 275.018 281.503 274.609 282.629 274.454C283.756 274.298 284.416 274.408 284.479 274.761C284.542 275.114 284.003 275.684 282.97 276.358C281.936 277.032 280.483 277.761 278.9 278.4Z" fill="#009B3A" stroke="black" stroke-width="0.1"/>
<path d="M276.6 273.5C275.89 274.865 275.113 276.081 274.409 276.931C273.704 277.78 273.119 278.207 272.758 278.135C272.397 278.063 272.283 277.496 272.437 276.537C272.592 275.577 273.004 274.288 273.6 272.9C273.963 272.056 274.382 271.202 274.829 270.397C275.276 269.592 275.74 268.856 276.189 268.239C276.638 267.622 277.061 267.139 277.429 266.823C277.798 266.508 278.102 266.367 278.322 266.411C278.542 266.455 278.672 266.683 278.702 267.078C278.733 267.473 278.665 268.027 278.501 268.701C278.337 269.375 278.082 270.153 277.754 270.982C277.426 271.81 277.032 272.67 276.6 273.5Z" fill="#009B3A" stroke="black" stroke-width="0.1"/>
<path d="M278.2 274.4C277.588 275.092 276.951 275.757 276.325 276.357C275.7 276.957 275.098 277.479 274.554 277.894C274.01 278.31 273.534 278.61 273.154 278.778C272.775 278.946 272.498 278.978 272.34 278.873C272.183 278.768 272.147 278.528 272.236 278.166C272.324 277.804 272.535 277.327 272.857 276.763C273.178 276.199 273.603 275.559 274.108 274.879C274.613 274.199 275.188 273.492 275.8 272.8C277.036 271.401 278.347 270.144 279.446 269.305C280.545 268.466 281.341 268.114 281.66 268.326C281.978 268.539 281.792 269.298 281.143 270.437C280.495 271.576 279.436 273.001 278.2 274.4Z" fill="#009B3A" stroke="black" stroke-width="0.1"/>
<path d="M278.6 276.4C277.833 277.014 277.03 277.603 276.243 278.129C275.456 278.654 274.703 279.104 274.034 279.449C273.365 279.793 272.796 280.025 272.363 280.128C271.93 280.231 271.643 280.203 271.522 280.047C271.401 279.89 271.449 279.608 271.661 279.22C271.873 278.831 272.245 278.344 272.754 277.792C273.262 277.239 273.894 276.633 274.609 276.014C275.323 275.395 276.104 274.777 276.9 274.2C278.397 273.056 279.927 272.076 281.154 271.473C282.381 270.871 283.205 270.696 283.443 270.988C283.682 271.28 283.317 272.014 282.427 273.029C281.537 274.044 280.197 275.256 278.7 276.4" fill="#009B3A"/>
<path d="M278.6 276.4C277.833 277.014 277.03 277.603 276.243 278.129C275.456 278.654 274.703 279.104 274.034 279.449C273.365 279.793 272.796 280.025 272.363 280.128C271.93 280.231 271.643 280.203 271.522 280.047C271.401 279.89 271.449 279.608 271.661 279.22C271.873 278.831 272.245 278.344 272.754 277.792C273.262 277.239 273.894 276.633 274.609 276.014C275.323 275.395 276.104 274.777 276.9 274.2C278.397 273.056 279.927 272.076 281.154 271.473C282.381 270.871 283.205 270.696 283.443 270.988C283.682 271.28 283.317 272.014 282.427 273.029C281.537 274.044 280.197 275.256 278.7 276.4" stroke="black" stroke-width="0.1"/>
<path d="M272.3 279.2L271.6 276.9C271.5 276.4 272.3 275.9 271.9 274.7C271.562 273.65 270.851 272.76 269.9 272.2C269.4 271.9 268.9 272.5 269.4 274C269.8 275.5 270.9 276 271.2 276.7L272 279.3C272.6 279.6 273.7 280.7 274.4 281.3C275.1 281.8 276 283.8 277.4 284.6C278.4 285.3 279.4 285.2 279.2 284.3C278.724 283.302 278.001 282.441 277.1 281.8C276.3 281.2 275.1 281.5 274.4 280.9C273.9 280.5 272.3 279.3 272.4 279.2" fill="#009B3A"/>
<path d="M272.3 279.2L271.6 276.9C271.5 276.4 272.3 275.9 271.9 274.7C271.562 273.65 270.851 272.76 269.9 272.2C269.4 271.9 268.9 272.5 269.4 274C269.8 275.5 270.9 276 271.2 276.7L272 279.3C272.6 279.6 273.7 280.7 274.4 281.3C275.1 281.8 276 283.8 277.4 284.6C278.4 285.3 279.4 285.2 279.2 284.3C278.724 283.302 278.001 282.441 277.1 281.8C276.3 281.2 275.1 281.5 274.4 280.9C273.9 280.5 272.3 279.3 272.4 279.2" stroke="black" stroke-width="0.1"/>
<path d="M268.5 285.9C266.795 285.919 265.17 285.741 263.975 285.405C262.779 285.068 262.109 284.6 262.109 284.102C262.109 283.604 262.779 283.114 263.975 282.74C265.17 282.365 266.795 282.136 268.5 282.1C270.205 282.081 271.83 282.259 273.025 282.595C274.221 282.932 274.891 283.399 274.891 283.898C274.891 284.396 274.221 284.886 273.025 285.26C271.83 285.635 270.205 285.864 268.5 285.9Z" fill="#009B3A" stroke="black" stroke-width="0.1"/>
<path d="M267.6 280C266.469 281.458 265.237 282.729 264.174 283.535C263.112 284.34 262.307 284.614 261.935 284.296C261.564 283.978 261.657 283.093 262.194 281.838C262.732 280.582 263.669 279.058 264.8 277.6C265.931 276.143 267.163 274.871 268.226 274.065C269.288 273.26 270.093 272.986 270.465 273.304C270.836 273.623 270.743 274.507 270.205 275.763C269.668 277.018 268.731 278.543 267.6 280Z" fill="#009B3A" stroke="black" stroke-width="0.1"/>
<path d="M268.5 283C267.092 283.512 265.769 283.827 264.758 283.891C263.747 283.955 263.11 283.764 262.957 283.351C262.803 282.938 263.142 282.328 263.916 281.625C264.69 280.923 265.851 280.172 267.2 279.5C268.608 278.987 269.931 278.672 270.942 278.608C271.953 278.544 272.59 278.735 272.743 279.148C272.897 279.562 272.558 280.172 271.784 280.874C271.01 281.577 269.849 282.328 268.5 283ZM270.3 226C271.02 226.672 271.62 227.335 271.98 227.858C272.341 228.381 272.437 228.727 272.249 228.827C272.061 228.928 271.603 228.775 270.964 228.4C270.326 228.025 269.554 227.454 268.8 226.8C268.38 226.436 267.979 226.057 267.622 225.688C267.265 225.319 266.96 224.968 266.727 224.657C266.493 224.346 266.336 224.081 266.266 223.881C266.195 223.68 266.213 223.548 266.317 223.492C266.422 223.436 266.611 223.458 266.873 223.557C267.135 223.655 267.464 223.828 267.839 224.064C268.213 224.3 268.626 224.594 269.049 224.927C269.473 225.26 269.899 225.626 270.3 226ZM268.3 227.7C269.405 227.845 270.481 228.074 271.29 228.336C272.1 228.598 272.577 228.872 272.617 229.097C272.656 229.322 272.256 229.481 271.502 229.538C270.749 229.595 269.705 229.545 268.6 229.4C267.495 229.255 266.419 229.026 265.61 228.764C264.8 228.502 264.323 228.228 264.283 228.002C264.244 227.777 264.644 227.619 265.398 227.562C266.151 227.505 267.195 227.555 268.3 227.7Z" fill="#009B3A" stroke="black" stroke-width="0.1"/>
<path d="M269.1 226.6C270.124 227.119 271.063 227.691 271.712 228.189C272.361 228.688 272.665 229.072 272.559 229.258C272.453 229.444 271.945 229.415 271.146 229.179C270.347 228.943 269.324 228.519 268.3 228C267.793 227.743 267.302 227.47 266.853 227.197C266.405 226.924 266.009 226.657 265.688 226.41C265.039 225.912 264.734 225.527 264.841 225.342C264.947 225.156 265.455 225.184 266.254 225.42C267.053 225.656 268.076 226.08 269.1 226.6ZM239.6 279.5C239.6 279.5 245.1 280.7 249.9 282.4C254.6 284.1 261.9 290.1 263.9 290.4C266 290.5 269 289.8 270.2 286.6C266.8 287.6 264.8 288.9 261.6 287.1C260.5 286.7 256.8 283.3 252.6 281.5C248.618 279.948 244.544 278.645 240.4 277.6L239.6 279.5ZM245.5 229.9L251.8 226.5L244.8 228.3L244 229.5L245.5 229.9Z" fill="#009B3A" stroke="black" stroke-width="0.1"/>
<path d="M251.5 231.4C249 231 245.2 230.1 242.8 229.9C244.5 228.1 246.8 225 248.2 223.1C247.2 224.9 245.8 227.3 245.2 229.1C246.9 230 249.6 230.7 251.5 231.4Z" fill="#009B3A" stroke="black" stroke-width="0.1"/>
<path d="M244.3 230.3L249.9 225.9L243.4 228.9L242.8 230.2H244.3" fill="#009B3A"/>
<path d="M244.3 230.3L249.9 225.9L243.4 228.9L242.8 230.2H244.3" stroke="black" stroke-width="0.1"/>
<path d="M250.3 231.3C247.8 230.9 244.1 230 241.7 229.8C243.3 227.9 245.5 224.8 246.9 222.8C245.9 224.6 244.6 227.1 244 228.9C245.7 229.9 248.4 230.6 250.3 231.3Z" fill="#009B3A" stroke="black" stroke-width="0.1"/>
<path d="M243.4 230.6L250 227.9L242.9 229L241.9 230.2L243.4 230.6Z" fill="#009B3A" stroke="black" stroke-width="0.1"/>
<path d="M249.5 231.4C247.1 231.2 243.2 230.7 240.8 230.8C242.2 228.7 244 225.2 245.2 223.1C244.5 225.1 243.4 227.7 243.1 229.6C244.9 230.4 247.6 230.9 249.6 231.4" fill="#009B3A"/>
<path d="M249.5 231.4C247.1 231.2 243.2 230.7 240.8 230.8C242.2 228.7 244 225.2 245.2 223.1C244.5 225.1 243.4 227.7 243.1 229.6C244.9 230.4 247.6 230.9 249.6 231.4" stroke="black" stroke-width="0.1"/>
<path d="M242.7 230.7L247.2 225.2L241.5 229.4L241.3 230.9L242.7 230.6" fill="#009B3A"/>
<path d="M242.7 230.7L247.2 225.2L241.5 229.4L241.3 230.9L242.7 230.6" stroke="black" stroke-width="0.1"/>
<path d="M249.5 231.8C246.9 231.8 242.7 231.5 240.2 231.8C241.5 229.3 243 225.4 244 223C243.5 225.2 242.6 228.2 242.4 230.3C244.4 231 247.4 231.3 249.5 231.8Z" fill="#009B3A" stroke="black" stroke-width="0.1"/>
<path d="M241.8 232C243.579 230.212 245.379 228.445 247.2 226.7L240.7 230.4L240.2 231.9H241.8" fill="#009B3A"/>
<path d="M241.8 232C243.579 230.212 245.379 228.445 247.2 226.7L240.7 230.4L240.2 231.9H241.8" stroke="black" stroke-width="0.1"/>
<path d="M248.3 232C245.5 232 241.1 231.8 238.3 232.1C240.1 229.4 242.7 225.1 244.3 222.4C243.3 224.8 241.6 228.2 241 230.4C243 231.2 246.1 231.4 248.3 231.9" fill="#009B3A"/>
<path d="M248.3 232C245.5 232 241.1 231.8 238.3 232.1C240.1 229.4 242.7 225.1 244.3 222.4C243.3 224.8 241.6 228.2 241 230.4C243 231.2 246.1 231.4 248.3 231.9" stroke="black" stroke-width="0.1"/>
<path d="M240 232.3L247 226.4L239 230.6L238.3 232.3H240Z" fill="#009B3A" stroke="black" stroke-width="0.1"/>
<path d="M247.3 232.1C244.5 232.5 240.1 233 237.3 233.7C238.949 230.334 240.45 226.897 241.8 223.4C241.2 225.9 240.1 229.4 239.8 231.7C241.9 232.1 245 232 247.3 232.1Z" fill="#009B3A" stroke="black" stroke-width="0.1"/>
<path d="M239.1 233.5C240.844 231.017 242.611 228.551 244.4 226.1L237.7 232.1L237.4 234L239 233.5" fill="#009B3A"/>
<path d="M239.1 233.5C240.844 231.017 242.611 228.551 244.4 226.1L237.7 232.1L237.4 234L239 233.5" stroke="black" stroke-width="0.1"/>
<path d="M245.7 233C242.9 233.3 238.5 233.5 235.7 234C237.3 231.3 239.5 226.8 240.7 224C240 226.5 238.7 229.9 238.3 232.2C240.3 232.7 243.5 232.7 245.7 233Z" fill="#009B3A" stroke="black" stroke-width="0.1"/>
<path d="M238.1 234.3L244.9 228.3L237.2 232.5L236.4 234.3H238.1Z" fill="#009B3A" stroke="black" stroke-width="0.1"/>
<path d="M244.9 233.3C242 233.9 237.6 234.6 234.9 235.5C236.2 232.6 237.9 227.9 238.9 225C238.4 227.6 237.5 231 237.3 233.4C239.4 233.7 242.6 233.3 244.9 233.3Z" fill="#009B3A" stroke="black" stroke-width="0.1"/>
<path d="M237 234.6L241.3 226.5L235.4 233.5V235.3L237 234.6Z" fill="#009B3A" stroke="black" stroke-width="0.1"/>
<path d="M244.9 233.8C241.9 234.5 237.1 235.6 234.2 236.7C235.3 233.4 236.6 228.1 237.4 224.8C237.1 227.7 236.4 231.6 236.6 234.2C238.9 234.4 242.4 233.9 244.9 233.8Z" fill="#009B3A" stroke="black" stroke-width="0.1"/>
<path d="M236.1 236.4L241.6 228.4L234.6 234.9L234.3 236.9L236.1 236.4Z" fill="#009B3A" stroke="black" stroke-width="0.1"/>
<path d="M243.7 234.7C240.7 235.7 236 236.9 233.2 238.1C234.2 234.8 235.2 229.5 235.8 226.2C235.6 229.1 235.2 233 235.4 235.5C237.8 235.6 241.2 234.9 243.7 234.7Z" fill="#009B3A" stroke="black" stroke-width="0.1"/>
<path d="M235 237.6L239.2 228.6L233.2 236.4V238.4L235 237.6Z" fill="#009B3A" stroke="black" stroke-width="0.1"/>
<path d="M242.5 235.9C239.5 236.6 234.7 237.5 231.7 238.5C233 235.3 234.5 230 235.4 226.8C235 229.7 234.2 233.5 234.2 236.1C236.6 236.4 240 235.9 242.5 235.9Z" fill="#009B3A" stroke="black" stroke-width="0.1"/>
<path d="M234 238.5L240.8 231.5L232.8 236.7L232.1 238.7L234.1 238.5" fill="#009B3A"/>
<path d="M234 238.5L240.8 231.5L232.8 236.7L232.1 238.7L234.1 238.5" stroke="black" stroke-width="0.1"/>
<path d="M241.2 237.1C238.2 237.5 233.4 237.9 230.5 238.7C231.9 235.5 233.7 230.4 234.8 227.2C234.2 230 233.2 233.9 233 236.5C235.3 237 238.7 236.9 241.2 237.1Z" fill="#009B3A" stroke="black" stroke-width="0.1"/>
<path d="M232.7 237.8L237.3 229L231 236.4V238.4L232.7 237.8Z" fill="#009B3A" stroke="black" stroke-width="0.1"/>
<path d="M241.5 236C238.2 237.4 233.1 239.3 230 241C231 237 232 230.8 232.7 227C232.6 230.3 232.1 234.9 232.4 237.8C235.1 237.8 238.8 236.6 241.6 236.1" fill="#009B3A"/>
<path d="M241.5 236C238.2 237.4 233.1 239.3 230 241C231 237 232 230.8 232.7 227C232.6 230.3 232.1 234.9 232.4 237.8C235.1 237.8 238.8 236.6 241.6 236.1" stroke="black" stroke-width="0.1"/>
<path d="M232 240.4L237.6 230.4L230.3 238.9L230.1 241.3L232.1 240.4" fill="#009B3A"/>
<path d="M232 240.4L237.6 230.4L230.3 238.9L230.1 241.3L232.1 240.4" stroke="black" stroke-width="0.1"/>
<path d="M240.3 237.3C237 238.8 231.9 241 228.9 242.8C229.7 238.8 230.5 232.7 231 228.8C231 232.1 230.8 236.7 231.2 239.5C233.9 239.3 237.5 238 240.2 237.3" fill="#009B3A"/>
<path d="M240.3 237.3C237 238.8 231.9 241 228.9 242.8C229.7 238.8 230.5 232.7 231 228.8C231 232.1 230.8 236.7 231.2 239.5C233.9 239.3 237.5 238 240.2 237.3" stroke="black" stroke-width="0.1"/>
<path d="M230.9 242L234.9 231.2L228.9 240.8L229 243.1L230.9 242Z" fill="#009B3A" stroke="black" stroke-width="0.1"/>
<path d="M238.8 238.2C235.6 239.8 230.5 242 227.5 243.8C228.3 239.8 229.1 233.7 229.5 229.8C229.6 233.1 229.4 237.6 229.8 240.5C232.4 240.2 236.1 238.9 238.8 238.2Z" fill="#009B3A" stroke="black" stroke-width="0.1"/>
<path d="M230 243.3L236.2 233.7L228.3 241.5L228 243.9L230 243.3Z" fill="#009B3A" stroke="black" stroke-width="0.1"/>
<path d="M238.5 237.7C235.7 240 231.1 243.4 228.5 246C228.5 242 227.9 235.8 227.6 232C228.4 235.2 229.1 239.6 230.1 242.2C232.6 241.3 236 239.1 238.6 237.7" fill="#009B3A"/>
<path d="M238.5 237.7C235.7 240 231.1 243.4 228.5 246C228.5 242 227.9 235.8 227.6 232C228.4 235.2 229.1 239.6 230.1 242.2C232.6 241.3 236 239.1 238.6 237.7" stroke="black" stroke-width="0.1"/>
<path d="M230.3 243.7L231 232.3L228 243.3L228.8 245.5L230.3 243.7Z" fill="#009B3A" stroke="black" stroke-width="0.1"/>
<path d="M237.7 238.8C234.8 241.1 230.2 244.4 227.7 246.9C227.7 242.9 227.1 236.9 226.8 233C227.5 236.2 228.2 240.6 229.2 243.2C231.8 242.3 235.2 240.1 237.7 238.8Z" fill="#009B3A" stroke="black" stroke-width="0.1"/>
<path d="M229.5 245.6C230.466 241.891 231.466 238.191 232.5 234.5L227.5 244.7L227.8 247L229.6 245.6" fill="#009B3A"/>
<path d="M229.5 245.6C230.466 241.891 231.466 238.191 232.5 234.5L227.5 244.7L227.8 247L229.6 245.6" stroke="black" stroke-width="0.1"/>
<path d="M237.4 239C234.7 241.7 230.3 245.7 227.9 248.6C227.4 244.6 226.2 238.3 225.5 234.5C226.5 237.6 227.8 242 229.1 244.6C231.7 243.4 234.9 240.7 237.4 239Z" fill="#009B3A" stroke="black" stroke-width="0.1"/>
<path d="M229.5 247L230.1 235.2L227.2 246.7L228.1 248.9L229.6 247.1" fill="#009B3A"/>
<path d="M229.5 247L230.1 235.2L227.2 246.7L228.1 248.9L229.6 247.1" stroke="black" stroke-width="0.1"/>
<path d="M236.5 241C233.6 243.4 229 247 226.3 249.7C226.3 245.5 225.5 239.2 225.1 235.2C226 238.5 226.8 243 227.9 245.7C230.5 244.7 233.9 242.4 236.5 241Z" fill="#009B3A" stroke="black" stroke-width="0.1"/>
<path d="M228.7 248.4L232.8 237.2L226.6 247.2L226.8 249.6L228.7 248.4Z" fill="#009B3A" stroke="black" stroke-width="0.1"/>
<path d="M236.5 241C233.9 243.8 229.8 247.9 227.5 250.8C227.1 246.7 225.9 240.4 225.2 236.5C226.2 239.6 227.4 244.1 228.7 246.7C231.1 245.5 234.1 242.7 236.5 241Z" fill="#009B3A" stroke="black" stroke-width="0.1"/>
<path d="M228.9 249L228.4 237.2L226.4 248.9L227.6 250.9L228.9 248.9" fill="#009B3A"/>
<path d="M228.9 249L228.4 237.2L226.4 248.9L227.6 250.9L228.9 248.9" stroke="black" stroke-width="0.1"/>
<path d="M235.2 242C232.7 244.7 228.7 248.8 226.5 251.8C226 247.6 224.6 241.3 223.8 237.4C224.9 240.6 226.2 245.1 227.6 247.7C229.9 246.4 232.9 243.7 235.2 241.9" fill="#009B3A"/>
<path d="M235.2 242C232.7 244.7 228.7 248.8 226.5 251.8C226 247.6 224.6 241.3 223.8 237.4C224.9 240.6 226.2 245.1 227.6 247.7C229.9 246.4 232.9 243.7 235.2 241.9" stroke="black" stroke-width="0.1"/>
<path d="M228.2 250.2L229.5 238.2L226 249.5L226.7 251.8L228.2 250.2Z" fill="#009B3A" stroke="black" stroke-width="0.1"/>
<path d="M234.7 242.4C232.4 245.4 228.7 249.9 226.7 253C225.9 249 224.1 242.8 223 239C224.3 242 226 246.4 227.5 248.9C229.7 247.4 232.5 244.3 234.7 242.4Z" fill="#009B3A" stroke="black" stroke-width="0.1"/>
<path d="M228.1 251.3L227.4 239.3L225.9 251.2L226.9 253.2L228.1 251.2" fill="#009B3A"/>
<path d="M228.1 251.3L227.4 239.3L225.9 251.2L226.9 253.2L228.1 251.2" stroke="black" stroke-width="0.1"/>
<path d="M234.5 243C232.3 246.2 228.8 251 227 254.2C226 250.2 223.8 244.1 222.5 240.3C224 243.3 225.9 247.6 227.5 250C229.7 248.4 232.3 245.2 234.5 243Z" fill="#009B3A" stroke="black" stroke-width="0.1"/>
<path d="M228.9 252.4L230.1 240.4L226.7 251.7L227.4 254.1L228.9 252.4Z" fill="#009B3A" stroke="black" stroke-width="0.1"/>
<path d="M234 244.2C232.1 247.6 229.1 252.8 227.6 256.3C226.2 252.4 223.6 246.7 221.9 243.1C223.7 245.9 225.9 249.9 227.8 252.1C229.8 250.1 232.1 246.6 234 244.1" fill="#009B3A"/>
<path d="M234 244.2C232.1 247.6 229.1 252.8 227.6 256.3C226.2 252.4 223.6 246.7 221.9 243.1C223.7 245.9 225.9 249.9 227.8 252.1C229.8 250.1 232.1 246.6 234 244.1" stroke="black" stroke-width="0.1"/>
<path d="M228.5 253.4L225.1 242L226.2 254L227.8 255.7L228.5 253.4Z" fill="#009B3A" stroke="black" stroke-width="0.1"/>
<path d="M233.9 245.5C231.9 248.9 228.9 254.1 227.3 257.6C225.8 253.7 223.2 248 221.5 244.4C223.3 247.2 225.5 251.2 227.5 253.4C229.5 251.4 232 247.9 233.9 245.5Z" fill="#009B3A" stroke="black" stroke-width="0.1"/>
<path d="M228.6 255.6L227.4 243.6L226.3 255.6L227.5 257.6L228.6 255.6Z" fill="#009B3A" stroke="black" stroke-width="0.1"/>
<path d="M234.1 246.6C232.1 250 228.9 255 227.3 258.5C225.9 254.6 223.3 248.8 221.7 245.2C223.5 248 225.7 252 227.5 254.2C229.7 252.4 232.1 248.9 234.1 246.6Z" fill="#009B3A" stroke="black" stroke-width="0.1"/>
<path d="M228.5 256.5L226.3 244.7L226.2 256.8L227.5 258.7L228.5 256.5Z" fill="#009B3A" stroke="black" stroke-width="0.1"/>
<path d="M233.3 248.3C231.1 251.5 227.7 256.3 225.9 259.7C224.7 255.7 222.4 249.7 220.9 246.1C222.6 249 224.6 253.1 226.3 255.5C228.5 253.7 231.2 250.5 233.3 248.3Z" fill="#009B3A" stroke="black" stroke-width="0.1"/>
<path d="M227.5 257.8L228.5 245.8L225.2 257.2L226 259.5L227.5 257.8Z" fill="#009B3A" stroke="black" stroke-width="0.1"/>
<path d="M233.4 248.6C231.6 252.1 228.6 257.4 227.1 260.9C225.6 257.1 222.7 251.5 220.9 248C222.9 250.7 225.2 254.6 227.2 256.6C229.2 254.6 231.5 251 233.4 248.6Z" fill="#009B3A" stroke="black" stroke-width="0.1"/>
<path d="M227.1 258.8L223.4 247.6L224.8 259.6L226.4 261.2L227.1 258.8Z" fill="#009B3A" stroke="black" stroke-width="0.1"/>
<path d="M232.9 249.5C231.6 253.3 229.5 259.2 228.5 263C226.5 259.6 222.8 254.7 220.5 251.7C222.8 253.9 225.7 257.2 228 258.7C229.7 256.4 231.4 252.3 232.9 249.5Z" fill="#009B3A" stroke="black" stroke-width="0.1"/>
<path d="M230.4 259.8L226.4 248.7L228.1 260.6L229.7 262.1L230.4 259.7" fill="#009B3A"/>
<path d="M230.4 259.8L226.4 248.7L228.1 260.6L229.7 262.1L230.4 259.7" stroke="black" stroke-width="0.1"/>
<path d="M232.9 250.7C231.6 254.5 229.5 260.4 228.6 264.2C226.6 260.8 222.8 256 220.6 253C222.8 255.2 225.7 258.4 228 260C229.7 257.6 231.4 253.5 232.9 250.7Z" fill="#009B3A" stroke="black" stroke-width="0.1"/>
<path d="M230.4 261.6L225.2 251.3L228.2 262.8L230 264.1L230.4 261.6Z" fill="#009B3A" stroke="black" stroke-width="0.1"/>
<path d="M232.5 251.6C231.7 255.6 230.3 261.7 229.8 265.6C227.3 262.6 223.1 258.3 220.5 255.6C223 257.6 226.3 260.3 228.7 261.6C230.1 258.9 231.3 254.6 232.5 251.6Z" fill="#009B3A" stroke="black" stroke-width="0.1"/>
<path d="M230.7 263.3L228 251.6L228.4 263.7L229.9 265.5L230.7 263.3Z" fill="#009B3A" stroke="black" stroke-width="0.1"/>
<path d="M232.5 252.9C232.1 256.9 231.2 263.2 231.2 267.2C228.4 264.5 223.8 260.8 221 258.5C223.7 260 227.2 262.4 229.7 263.3C230.8 260.5 231.7 256 232.5 252.9Z" fill="#009B3A" stroke="black" stroke-width="0.1"/>
<path d="M230.9 264.1L223.5 255.7L229.1 265.9L231.1 266.6L230.9 264.1Z" fill="#009B3A" stroke="black" stroke-width="0.1"/>
<path d="M232.7 254.3C232.2 258.3 231.3 264.6 231.3 268.6C228.5 265.9 223.9 262.2 221.1 259.9C223.8 261.4 227.3 263.8 229.8 264.7C231 261.9 231.8 257.5 232.7 254.3Z" fill="#009B3A" stroke="black" stroke-width="0.1"/>
<path d="M231.7 266C229.768 262.685 227.868 259.351 226 256L229.6 267.3L231.5 268.5L231.7 266.1" fill="#009B3A"/>
<path d="M231.7 266C229.768 262.685 227.868 259.351 226 256L229.6 267.3L231.5 268.5L231.7 266.1" stroke="black" stroke-width="0.1"/>
<path d="M233 256C232.7 260 232.1 266.4 232.2 270.4C229.3 267.8 224.6 264.4 221.7 262.3C224.4 263.6 228 265.8 230.6 266.5C231.6 263.6 232.2 259.2 233 256Z" fill="#009B3A" stroke="black" stroke-width="0.1"/>
<path d="M232.5 268C232.3 268 225.5 259 225.5 259L230.5 269.6L232.5 270.4V268Z" fill="#009B3A" stroke="black" stroke-width="0.1"/>
<path d="M233.1 257.9C232.8 261.9 232.3 268.3 232.4 272.3C229.007 269.452 225.469 266.781 221.8 264.3C224.5 265.6 228.2 267.7 230.8 268.4C231.8 265.5 232.3 261.1 233.1 257.9Z" fill="#009B3A" stroke="black" stroke-width="0.1"/>
<path d="M233.1 269.4L228.1 258.8L230.9 270.4L232.6 271.9L233.1 269.4Z" fill="#009B3A" stroke="black" stroke-width="0.1"/>
<path d="M233.3 259C233.3 263.2 233.4 269.6 233.9 273.5C230.9 271.5 225.8 268.6 222.7 266.9C225.5 267.9 229.3 269.6 231.9 269.9C232.6 266.9 232.9 262.4 233.2 259.1" fill="#009B3A"/>
<path d="M233.3 259C233.3 263.2 233.4 269.6 233.9 273.5C230.9 271.5 225.8 268.6 222.7 266.9C225.5 267.9 229.3 269.6 231.9 269.9C232.6 266.9 232.9 262.4 233.2 259.1" stroke="black" stroke-width="0.1"/>
<path d="M233.9 269L224.9 262.9L232.5 271.2L234.6 271.4L233.9 269Z" fill="#009B3A" stroke="black" stroke-width="0.1"/>
<path d="M233.5 259.5C233.9 263.6 234.2 270 234.9 273.9C231.173 271.673 227.334 269.637 223.4 267.8C226.2 268.6 230.1 270.1 232.7 270.4C233.3 267.4 233.3 262.8 233.5 259.5Z" fill="#009B3A" stroke="black" stroke-width="0.1"/>
<path d="M234.9 271.3L227.4 262.7L233.1 273L235.1 273.8L234.9 271.3Z" fill="#009B3A" stroke="black" stroke-width="0.1"/>
<path d="M234.2 261C234.7 265.2 235.3 271.5 236.2 275.4C232.9 273.6 227.7 271.4 224.4 269.9C227.4 270.6 231.2 271.9 233.9 272C234.3 269 234.1 264.4 234.2 261Z" fill="#009B3A" stroke="black" stroke-width="0.1"/>
<path d="M236.3 272.7L227.5 266.5L235 275H237L236.3 272.7Z" fill="#009B3A" stroke="black" stroke-width="0.1"/>
<path d="M234.5 262.8C235.3 266.8 236.3 273.1 237.4 277C234 275.4 228.7 273.7 225.4 272.6C228.3 273 232.3 273.9 234.9 273.8C235.1 270.7 234.6 266.2 234.5 262.8Z" fill="#009B3A" stroke="black" stroke-width="0.1"/>
<path d="M237.3 274L230 265.3L235.5 275.7L237.5 276.5L237.3 274Z" fill="#009B3A" stroke="black" stroke-width="0.1"/>
<path d="M234.9 264C236.1 267.9 237.7 274 239.2 277.7C235.7 276.7 230.2 275.6 226.9 274.9C229.8 274.9 233.8 275.3 236.4 274.9C236.4 271.7 235.4 267.3 234.9 263.9" fill="#009B3A"/>
<path d="M234.9 264C236.1 267.9 237.7 274 239.2 277.7C235.7 276.7 230.2 275.6 226.9 274.9C229.8 274.9 233.8 275.3 236.4 274.9C236.4 271.7 235.4 267.3 234.9 263.9" stroke="black" stroke-width="0.1"/>
<path d="M237.7 274L227.5 271.8L237.2 276.6L239.2 275.9L237.7 274Z" fill="#009B3A" stroke="black" stroke-width="0.1"/>
<path d="M235.6 265.2C236.8 269.1 238.4 275.2 239.8 278.9C236.3 277.9 230.8 276.8 227.5 276.1C230.4 276.1 234.5 276.5 237 276.1C237 272.9 236 268.5 235.6 265.1" fill="#009B3A"/>
<path d="M235.6 265.2C236.8 269.1 238.4 275.2 239.8 278.9C236.3 277.9 230.8 276.8 227.5 276.1C230.4 276.1 234.5 276.5 237 276.1C237 272.9 236 268.5 235.6 265.1" stroke="black" stroke-width="0.1"/>
<path d="M239.4 275C239.4 275.2 229.6 270.3 229.6 270.3L238.4 277.5L240.4 277.3L239.4 275.1" fill="#009B3A"/>
<path d="M239.4 275C239.4 275.2 229.6 270.3 229.6 270.3L238.4 277.5L240.4 277.3L239.4 275.1" stroke="black" stroke-width="0.1"/>
<path d="M235.1 265.9C237.1 269.4 239.9 275.1 242.1 278.4C238.5 278.1 232.9 278.3 229.5 278.4C232.3 277.7 236.3 277.2 238.7 276.2C238.1 273.2 236.2 269 235.1 265.9Z" fill="#009B3A" stroke="black" stroke-width="0.1"/>
<path d="M240.9 276.1L230.7 273.3L240.3 278.7L242.3 278.1L240.9 276.1Z" fill="#009B3A" stroke="black" stroke-width="0.1"/>
<path d="M236.2 267.4C238.2 270.9 241 276.6 243.2 279.8C239.6 279.6 234 279.8 230.6 280C233.5 279.3 237.5 278.7 239.9 277.7C239.1 274.7 237.3 270.5 236.1 267.4" fill="#009B3A"/>
<path d="M236.2 267.4C238.2 270.9 241 276.6 243.2 279.8C239.6 279.6 234 279.8 230.6 280C233.5 279.3 237.5 278.7 239.9 277.7C239.1 274.7 237.3 270.5 236.1 267.4" stroke="black" stroke-width="0.1"/>
<path d="M242.2 277L232.7 271.3L241 279.3H243.2L242.2 277Z" fill="#009B3A" stroke="black" stroke-width="0.1"/>
<path d="M236.9 268.3C239.2 271.6 242.6 276.9 245.1 279.9C241.5 280.1 236.1 281.1 232.7 281.7C235.5 280.7 239.3 279.5 241.6 278.1C240.6 275.1 238.3 271.3 236.9 268.3Z" fill="#009B3A" stroke="black" stroke-width="0.1"/>
<path d="M242.9 277.8L232.7 277.6L242.8 280.6L244.6 279.5L242.9 277.8ZM248.9 228.2L256.2 226.9L248.9 227.1L247.6 227.8L248.9 228.2Z" fill="#009B3A" stroke="black" stroke-width="0.1"/>
<path d="M252.9 229.7C250.8 229.1 247.5 228 245.3 227.5C248.02 226.421 250.689 225.22 253.3 223.9C251.6 224.9 249.3 226.3 248 227.3C249.2 228.1 251.4 229 253 229.7" fill="#009B3A"/>
<path d="M252.9 229.7C250.8 229.1 247.5 228 245.3 227.5C248.02 226.421 250.689 225.22 253.3 223.9C251.6 224.9 249.3 226.3 248 227.3C249.2 228.1 251.4 229 253 229.7" stroke="black" stroke-width="0.1"/>
<path d="M248.5 228.4L255.7 226.4L248.3 227.4L247.2 228.2L248.5 228.4Z" fill="#009B3A" stroke="black" stroke-width="0.1"/>
<path d="M253.3 230.3C250.8 230 246.9 229.5 244.5 229.5C246.3 227.9 248.9 225.1 250.5 223.5C249.5 225 247.7 227.1 247 228.6C248.7 229.3 251.4 229.7 253.3 230.3Z" fill="#009B3A" stroke="black" stroke-width="0.1"/>
<path d="M245.9 229L253.3 228L246.1 227.9L244.7 228.5L245.9 228.9" fill="#009B3A"/>
<path d="M245.9 229L253.3 228L246.1 227.9L244.7 228.5L245.9 228.9" stroke="black" stroke-width="0.1"/>
<path d="M251.4 230.5C249.1 230.1 245.7 229.3 243.4 229.1C245.5 228.1 248.7 226.1 250.7 225.1C249.2 226.1 247.1 227.6 246 228.6C247.4 229.3 249.7 229.9 251.4 230.6" fill="#009B3A"/>
<path d="M251.4 230.5C249.1 230.1 245.7 229.3 243.4 229.1C245.5 228.1 248.7 226.1 250.7 225.1C249.2 226.1 247.1 227.6 246 228.6C247.4 229.3 249.7 229.9 251.4 230.6" stroke="black" stroke-width="0.1"/>
<path d="M245.3 228.8L251.8 226L244.6 228L243.8 228.8H245.3Z" fill="#009B3A" stroke="black" stroke-width="0.1"/>
<path d="M251.2 231.4C249.2 230.6 246.4 229.3 244.5 228.7C246 227.4 248 225 249.3 223.6C248.3 225 247 226.9 246.5 228.3C247.7 229.3 249.7 230.4 251.2 231.3" fill="#009B3A"/>
<path d="M251.2 231.4C249.2 230.6 246.4 229.3 244.5 228.7C246 227.4 248 225 249.3 223.6C248.3 225 247 226.9 246.5 228.3C247.7 229.3 249.7 230.4 251.2 231.3" stroke="black" stroke-width="0.1"/>
<path d="M245.6 229.3L250.7 227.1L245.2 227.9L244.5 228.9L245.6 229.3ZM241.5 277H230.9L241.6 279.7L243.4 278.5L241.4 277" fill="#009B3A"/>
<path d="M241.5 277H230.9L241.6 279.7L243.4 278.5L241.4 277M245.6 229.3L250.7 227.1L245.2 227.9L244.5 228.9L245.6 229.3Z" stroke="black" stroke-width="0.1"/>
<path d="M243.3 277.6L232.5 275L242.8 280L244.8 279.4L243.2 277.4" fill="#009B3A"/>
<path d="M243.3 277.6L232.5 275L242.8 280L244.8 279.4L243.2 277.4" stroke="black" stroke-width="0.1"/>
<path d="M245 278.3L234.4 277.7L245 281L246.8 280L245 278.3Z" fill="#009B3A" stroke="black" stroke-width="0.1"/>
<path d="M238.3 270.8C241 273.8 245.2 278.7 248.1 281.4C244.5 281.9 239.1 283.4 235.9 284.2C238.5 283 242.2 281.5 244.3 280C242.9 277.2 240.1 273.6 238.3 270.8Z" fill="#009B3A" stroke="black" stroke-width="0.1"/>
<path d="M246.5 278.8L235.9 275.3L245.9 281.3L247.9 280.8L246.5 278.8Z" fill="#009B3A" stroke="black" stroke-width="0.1"/>
<path d="M239.3 271.5C242.3 274.2 246.8 278.6 249.9 281C246.5 282 241.4 284.1 238.3 285.4C240.7 283.8 244.3 281.9 246.1 280.1C244.5 277.4 241.3 274.1 239.3 271.5Z" fill="#009B3A" stroke="black" stroke-width="0.1"/>
<path d="M247.3 279.5L237.3 281.5L247.9 282.2L249.4 280.7L247.4 279.5" fill="#009B3A"/>
<path d="M247.3 279.5L237.3 281.5L247.9 282.2L249.4 280.7L247.4 279.5" stroke="black" stroke-width="0.1"/>
<path d="M245.3 278.8L234.8 279.6L245.6 281.5L247.3 280.2L245.3 278.8Z" fill="#009B3A" stroke="black" stroke-width="0.1"/>
<path d="M247.2 279.4L236.3 277.7L247 282L249 281.2L247.2 279.4Z" fill="#009B3A" stroke="black" stroke-width="0.1"/>
<path d="M249 280L238.4 280.2L249.2 282.6L250.9 281.5L248.9 280H249Z" fill="#009B3A" stroke="black" stroke-width="0.1"/>
<path d="M241.7 273C244.7 275.8 249.2 280.4 252.3 282.8C248.7 283.6 243.5 285.4 240.3 286.5C242.8 285.1 246.4 283.5 248.4 281.8C246.8 279 243.7 275.6 241.7 273Z" fill="#009B3A" stroke="black" stroke-width="0.1"/>
<path d="M250.5 280.4L239.7 277.7L250.1 282.9L252.1 282.3L250.5 280.4Z" fill="#009B3A" stroke="black" stroke-width="0.1"/>
<path d="M242.7 273.6C246 276.1 250.8 280.2 254.1 282.3C250.27 283.893 246.501 285.628 242.8 287.5C245.1 285.8 248.5 283.6 250.2 281.7C248.4 279.1 245 276.1 242.7 273.6Z" fill="#009B3A" stroke="black" stroke-width="0.1"/>
<path d="M251.5 281L241.5 283.7H252.2L253.5 282.1L251.5 281.1V281Z" fill="#009B3A" stroke="black" stroke-width="0.1"/>
<path d="M265.1 266.1L257 260.5L249 266.1L252 257.1L244.9 251.6H253.9L257 242.6L260 251.6H269.1L262.1 257.2L265.1 266.2V266.1Z" fill="#FEDF00" stroke="black" stroke-width="0.5"/>
</g>
<defs>
<clipPath id="clip0_103_9319">
<rect width="512" height="512" fill="white" transform="translate(0.5)"/>
</clipPath>
</defs>
</svg>
