<svg width="513" height="512" viewBox="0 0 513 512" fill="none" xmlns="http://www.w3.org/2000/svg">
<g clip-path="url(#clip0_103_9966)">
<path d="M0.5 0H512.5V512H0.5V0Z" fill="#20603D"/>
<path d="M0.5 0H512.5V384H0.5V0Z" fill="#FAD201"/>
<path d="M0.5 0H512.5V256H0.5V0Z" fill="#00A1DE"/>
<path d="M457.459 133.8L400.286 137.142L454.614 155.204L398.58 143.613L446.437 175.044L395.238 149.302L433.21 192.181L390.473 154.137L416.215 205.337L384.713 157.48L396.233 213.443L378.242 159.186L374.9 216.359L374.189 133.089L457.459 133.8Z" fill="#E5BE01"/>
<path d="M457.459 133.8L400.286 130.458L454.614 112.396L398.58 123.987L446.437 92.5563L395.238 118.298L433.21 75.4188L390.473 113.463L416.215 62.2635L384.713 110.121L396.233 54.1569L378.242 108.414L374.9 51.2414L374.189 134.511L457.459 133.8Z" fill="#E5BE01"/>
<path d="M292.341 133.8L349.514 137.142L295.186 155.204L351.22 143.613L303.363 175.044L354.563 149.302L316.59 192.181L359.327 154.137L333.585 205.337L365.087 157.48L353.567 213.443L371.558 159.186L374.9 216.359L375.611 133.089L292.341 133.8Z" fill="#E5BE01"/>
<path d="M292.341 133.8L349.514 130.458L295.186 112.396L351.22 123.987L303.363 92.5563L354.563 118.298L316.59 75.4188L359.327 113.463L333.585 62.2635L365.087 110.121L353.567 54.1569L371.558 108.414L374.9 51.2414L375.611 134.511L292.341 133.8Z" fill="#E5BE01"/>
<path d="M374.9 158.191C388.371 158.191 399.291 147.271 399.291 133.8C399.291 120.329 388.371 109.409 374.9 109.409C361.429 109.409 350.509 120.329 350.509 133.8C350.509 147.271 361.429 158.191 374.9 158.191Z" fill="#E5BE01" stroke="#00A1DE" stroke-width="2.41774"/>
</g>
<defs>
<clipPath id="clip0_103_9966">
<rect width="512" height="512" fill="white" transform="translate(0.5)"/>
</clipPath>
</defs>
</svg>
