<svg width="513" height="512" viewBox="0 0 513 512" fill="none" xmlns="http://www.w3.org/2000/svg">
<g clip-path="url(#clip0_103_9978)">
<mask id="mask0_103_9978" style="mask-type:luminance" maskUnits="userSpaceOnUse" x="0" y="0" width="513" height="512">
<path d="M0.480469 0H512.402V511.922H0.480469V0Z" fill="white"/>
</mask>
<g mask="url(#mask0_103_9978)">
<path fill-rule="evenodd" clip-rule="evenodd" d="M-127.5 0H640.382V511.922H-127.5V0Z" fill="#165D31"/>
<path fill-rule="evenodd" clip-rule="evenodd" d="M66.0188 145.113C65.1931 157.086 64.0578 178.141 74.2756 180.308C86.5575 181.443 79.7457 159.46 84.1837 155.538C85.1126 153.473 86.6608 153.473 86.764 156.054V174.631C86.6608 180.824 90.5827 182.475 93.679 183.817C96.9818 183.507 99.046 183.611 100.388 186.707L101.833 219.012C101.833 219.012 109.367 221.076 109.677 200.847C110.089 188.978 107.303 178.966 108.954 176.696C108.954 174.425 111.844 174.322 113.908 175.354C117.108 177.624 118.553 180.514 123.507 179.276C131.144 177.212 135.686 173.496 135.892 167.716C135.629 162.024 134.444 156.412 132.383 151.1C132.692 150.067 130.835 147.487 131.247 146.455C132.589 148.519 134.653 148.416 135.169 146.455C133.828 142.12 131.867 138.095 128.564 136.34C125.881 133.967 121.959 134.483 120.514 139.437C120.344 145.943 122.545 152.288 126.706 157.292C128.004 160.097 128.538 163.194 128.254 166.271C126.087 167.613 123.92 166.994 122.062 165.136C122.062 165.136 115.972 160.492 115.972 159.563C117.624 149.242 116.385 148.106 115.456 145.217C114.837 141.295 112.979 140.056 111.431 137.373C109.883 135.721 107.922 135.721 106.89 137.373C104.206 142.017 105.445 151.925 107.406 156.363C108.851 160.492 110.915 163.072 109.883 163.072C109.057 165.342 107.406 164.826 106.167 162.143C104.636 156.458 103.906 150.587 104 144.7C103.484 140.056 102.968 130.251 99.8716 127.774C98.0139 125.297 95.2272 126.536 94.2983 128.806C94.0372 133.28 94.1408 137.767 94.6079 142.223C96.6721 149.448 97.2914 156.054 98.3235 163.588C98.6331 173.703 92.4405 168.026 92.7501 162.969C94.1951 156.466 93.7822 146.145 92.5437 143.565C91.5116 140.985 90.3763 140.366 88.0025 140.779C85.9383 140.572 81.0874 145.939 79.7457 155.021C79.7457 155.021 78.5072 159.666 77.9911 163.691C77.2687 168.336 74.2755 171.638 72.1081 163.072C70.2504 156.879 69.1151 141.501 66.0188 145.113Z" fill="white"/>
<path fill-rule="evenodd" clip-rule="evenodd" d="M99.4587 194.241L67.4636 209.62C67.7733 202.395 82.6355 189.184 92.7501 188.978C99.3555 189.184 97.7042 191.558 99.4587 194.138V194.241Z" fill="white"/>
<path fill-rule="evenodd" clip-rule="evenodd" d="M93.8855 204.253C76.9591 247.704 133.312 253.794 139.608 206.007C140.227 204.046 142.704 202.085 143.014 205.285C141.672 248.633 99.4589 251.523 92.2342 237.899C90.4796 234.803 89.9636 227.578 89.7571 223.243C88.725 214.78 84.1838 218.083 83.5645 226.546C82.8421 231.191 82.9453 232.532 82.9453 237.074C85.2159 271.133 139.711 256.477 148.587 228.301C153.231 212.716 147.761 201.156 150.341 201.156C155.708 207.039 163.346 201.982 164.997 199.918C165.72 198.886 167.474 198.267 168.713 199.608C172.841 202.705 180.376 201.156 181.924 195.893C182.749 190.629 183.472 185.262 183.678 179.689C180.272 180.721 177.692 181.443 177.486 182.785L176.763 187.533C176.454 188.978 173.46 189.081 173.357 187.12C172.016 181.237 166.649 180.411 163.346 189.597C161.178 191.455 157.153 191.661 156.74 189.081C157.256 182.888 154.779 182.063 149.825 184.953L144.974 148.829C147.039 148.829 149 150.274 150.857 147.9C148.793 141.398 144.355 128.29 141.981 127.258C140.743 125.813 139.814 126.742 138.266 127.052C135.582 127.877 133.105 130.148 133.931 134.586L142.188 186.397C142.601 188.565 140.743 191.558 138.369 191.248C134.344 188.462 133.312 182.992 126.5 183.198C121.443 183.198 115.766 188.668 115.147 193.932C114.218 198.06 113.908 202.601 115.147 206.214C118.553 210.342 122.784 210.033 126.5 209C129.493 207.762 131.97 204.769 133.105 205.491C133.828 206.42 133.209 216.328 118.759 224.069C110.09 227.991 103.071 228.817 99.3557 221.695C97.0851 217.257 99.5621 200.331 93.8855 204.15V204.253Z" fill="white"/>
<path fill-rule="evenodd" clip-rule="evenodd" d="M165.41 159.975C168.816 158.84 184.813 140.366 184.813 140.366L182.44 138.508C181.511 137.682 181.614 136.96 182.44 136.134C186.362 133.863 185.123 128.703 183.059 126.432C181.713 125.76 180.229 125.41 178.724 125.41C177.219 125.41 175.735 125.76 174.389 126.432C171.603 129.219 170.983 133.45 173.151 136.134C175.215 137.166 177.486 139.23 176.041 140.469C169.435 147.487 151.477 159.563 153.541 160.079C153.954 160.595 165.1 160.595 165.41 160.079V159.975ZM68.4958 224.998C62.5096 234.596 61.9936 248.942 65.3995 253.174C67.0509 255.238 69.9407 256.064 72.1081 255.445C75.9269 253.793 77.5783 246.156 76.6494 243.369C75.4109 241.305 74.3788 241.098 73.1403 242.75C70.4568 248.117 69.3215 244.401 69.1151 241.408C68.7022 235.732 69.2183 230.365 69.8375 226.236C70.56 222.005 69.8375 223.243 68.4958 224.998ZM325.592 209.516C319.812 197.028 311.762 184.643 309.182 179.895C301.398 167.569 293.135 155.553 284.411 143.875C278.219 136.444 294.629 146.971 282.347 132.212C277.702 128.084 277.393 127.98 273.471 124.678C271.51 123.233 266.762 120.756 265.937 124.884C265.526 127.843 265.666 130.852 266.349 133.76C266.762 135.824 269.755 139.23 271.303 141.294C290.913 167.613 308.356 194.344 325.076 227.784C327.759 226.546 327.14 211.684 325.592 209.516Z" fill="white"/>
<path fill-rule="evenodd" clip-rule="evenodd" d="M300.099 251.523C298.964 252.865 302.886 258.335 308.046 258.335C316.716 257.303 324.25 252.452 331.268 239.757C333.126 236.661 336.429 230.468 336.532 225.411C337.255 196.512 335.087 174.012 330.752 153.164C330.546 151.1 330.752 148.623 331.062 148.003C331.578 147.384 333.436 148.003 334.468 146.455C335.913 144.907 330.546 132.419 327.553 127.671C326.418 125.503 326.005 124.059 324.25 127.877C322.289 130.974 321.154 136.444 321.154 141.501C325.282 169.987 326.624 194.964 329.307 223.347C329.514 226.133 329.101 230.158 327.243 231.707C319.694 240.153 310.444 246.906 300.099 251.523ZM416.52 251.42C410.327 254.929 410.327 259.057 415.385 259.264C423.951 258.232 434.169 257.509 441.187 246.878C443.045 243.885 445.315 235.835 445.419 230.984C446.038 202.085 445.006 180.411 440.671 159.563C440.465 157.499 439.536 152.854 439.845 152.235C440.465 150.79 443.251 152.338 444.283 150.687C445.728 149.242 437.059 137.992 433.962 133.141C432.827 131.077 432.414 129.632 430.66 133.451C428.699 136.547 428.079 142.12 428.802 146.971C433.446 177.934 436.852 201.156 437.472 228.507C437.162 231.191 437.059 232.635 435.82 235.835C433.137 239.344 430.144 243.679 427.254 245.743C424.467 247.807 418.481 249.872 416.52 251.42Z" fill="white"/>
<path fill-rule="evenodd" clip-rule="evenodd" d="M421.164 223.656V204.769C421.085 200.062 420.03 195.423 418.068 191.145C416.21 187.017 417.346 183.817 416.52 179.379C415.694 175.044 415.901 168.439 414.662 163.278C414.249 161.214 413.217 154.815 413.63 154.196C414.043 152.751 416.004 154.196 416.933 152.544C418.378 150.996 411.979 134.483 408.779 129.838C407.644 127.774 405.58 128.393 402.896 131.902C400.522 134.07 401.451 139.23 402.38 144.081C408.573 176.386 413.114 205.698 412.185 236.351C411.876 239.034 421.268 228.61 421.164 223.656ZM375.442 183.611C371.624 183.611 363.47 175.973 360.993 171.638C360.635 170.593 360.497 169.486 360.586 168.385C360.674 167.284 360.989 166.213 361.509 165.239C362.954 164.207 365.225 163.175 366.876 164.207C366.876 164.207 368.527 166.684 368.218 166.994C370.282 168.026 371.314 167.407 371.52 166.478C371.624 165.033 370.798 164.104 370.798 162.349C371.83 157.911 376.991 157.189 378.848 160.079C380.293 161.833 380.809 165.549 381.016 168.129C381.016 169.368 378.951 167.819 377.713 168.129C376.578 168.542 376.268 169.884 376.165 171.122C375.958 174.425 375.546 179.689 375.442 183.507V183.611ZM303.608 231.706C304.64 221.798 303.299 204.356 303.195 198.576C302.782 184.849 300.512 158.324 299.48 153.989C298.241 145.629 302.886 154.918 302.266 150.067C300.718 141.811 296.074 136.031 290.707 128.393C288.952 126.019 289.056 125.503 286.269 129.012C283.379 135.824 285.959 140.469 286.682 145.733C290.604 162.969 292.874 178.76 293.906 194.448C295.063 210.765 295.201 227.138 294.319 243.472C297.312 243.679 302.06 238.725 303.608 231.706Z" fill="white"/>
<path fill-rule="evenodd" clip-rule="evenodd" d="M434.478 215.915C427.563 204.459 417.242 191.971 414.456 187.326C405.214 174.353 395.506 161.719 385.35 149.448C376.784 140.469 389.272 148.003 383.699 141.088C378.951 135.928 377.506 134.276 373.584 131.18C371.52 129.838 370.282 127.361 369.663 131.593C369.353 135.308 369.146 139.643 369.353 142.843C369.353 144.597 371.211 147.797 372.759 149.758C393.401 175.251 416.107 201.363 434.375 234.08C436.955 232.635 436.13 217.98 434.375 215.915H434.478Z" fill="white"/>
<path fill-rule="evenodd" clip-rule="evenodd" d="M123.094 194.654C122.578 195.583 121.443 196.718 121.855 197.75C122.681 198.783 123.3 199.092 124.539 199.195C125.571 199.195 127.222 199.402 127.532 198.783C127.904 198.328 128.148 197.782 128.239 197.201C128.329 196.621 128.264 196.026 128.048 195.48C127.016 192.59 123.713 193.622 123.094 194.654Z" fill="#165D31"/>
<path fill-rule="evenodd" clip-rule="evenodd" d="M354.697 362.577C363.883 362.886 369.869 362.99 378.023 363.919L387.518 362.886C398.149 361.854 398.665 378.058 398.665 378.058C398.561 387.554 394.846 387.966 390.201 388.999C387.518 389.411 386.073 387.45 384.731 385.386C382.977 386.109 380.603 386.212 377.61 385.799C373.791 385.593 369.972 385.593 366.257 385.283C362.128 384.973 359.961 385.799 355.936 385.386C355.007 386.728 353.871 388.482 351.498 387.966C349.433 387.76 346.956 381.877 347.679 377.542C349.124 374.343 348.711 375.375 348.608 373.93C311.039 373.001 273.264 371.35 236.418 371.866C207.52 371.866 179.137 373.104 150.754 374.343C135.582 374.136 123.92 371.659 115.972 359.893C116.695 359.893 154.676 362.164 165.72 361.441C186.362 361.132 205.043 359.48 225.994 358.861C267.278 359.584 308.046 359.584 349.33 362.474C345.408 359.79 345.202 353.391 351.394 351.843C351.807 351.533 352.117 354.939 353.046 354.939C357.793 354.63 355.729 361.132 354.697 362.577ZM189.148 135.205C182.956 153.06 192.657 172.567 199.469 170.709C204.423 172.774 207.52 163.381 209.584 153.164C210.926 150.274 211.958 149.964 212.68 151.409C212.474 165.033 213.712 168.026 217.221 172.154C219.241 173.957 221.838 174.979 224.544 175.035C227.25 175.092 229.887 174.18 231.98 172.464L238.07 166.271C239.412 164.93 241.166 164.826 243.127 166.065C244.985 167.82 244.675 170.709 248.7 172.774C252.003 174.115 259.228 173.083 260.879 170.193C263.047 166.375 263.666 165.033 264.698 163.588C266.246 161.524 268.93 162.349 268.93 163.072C268.723 164.207 267.175 165.446 268.207 167.51C270.065 168.955 270.581 168.026 271.716 167.716C275.638 165.859 278.631 157.189 278.631 157.189C278.735 154.093 276.98 154.299 275.845 154.918L272.748 157.086C270.684 157.395 266.969 158.634 265.111 155.744C263.253 152.338 263.15 147.487 261.705 143.978C261.705 143.772 259.228 138.508 261.602 138.198C262.737 138.405 265.317 139.024 265.73 136.96C266.969 134.896 263.047 129.013 260.363 126.019C258.093 123.542 254.79 123.233 251.694 125.813C249.629 127.877 249.836 129.941 249.423 132.109C249.066 133.615 249.067 135.183 249.425 136.689C249.784 138.194 250.49 139.595 251.487 140.778C253.655 145.01 257.68 150.48 256.338 158.324C256.338 158.324 253.964 161.937 249.939 161.42C248.288 161.008 245.604 160.388 244.159 149.655C243.127 141.501 244.366 130.148 240.96 124.884C239.721 121.581 238.896 118.485 235.799 124.058C234.974 126.123 231.464 129.425 233.941 136.237C236.303 142.236 237.015 148.757 236.006 155.125C234.561 157.292 234.251 158.118 232.29 160.285C229.71 163.072 226.82 162.349 224.653 161.317C222.588 159.976 220.937 159.253 220.008 154.815C220.215 147.797 220.524 136.34 219.286 133.863C217.428 130.148 214.332 131.49 212.99 132.625C207.001 139.266 202.996 147.455 201.43 156.26C199.676 161.937 197.818 160.388 196.476 158.015C193.277 154.918 193.07 131.283 189.148 135.205Z" fill="white"/>
<path fill-rule="evenodd" clip-rule="evenodd" d="M207.932 174.115C210.822 172.051 209.481 170.709 213.712 174.941C219.159 184.518 222.337 195.216 223.001 206.213C222.692 208.794 224.549 210.342 225.375 209.826C225.788 203.84 240.547 195.376 253.964 194.138C256.028 193.725 254.996 189.803 255.306 187.739C254.48 180.308 259.434 173.496 266.556 172.98C276.051 174.425 279.251 179.482 279.457 187.223C278.425 202.188 262.84 204.768 254.067 205.801C252.726 206.42 252.21 207.039 254.067 207.762L290.707 207.865L292.565 208.897C292.771 209.929 292.049 209.103 290.5 211.477C288.952 213.851 286.991 219.424 286.888 223.037C275.904 226.243 264.636 228.386 253.242 229.436C249.32 231.5 247.359 234.183 248.081 237.176C249.423 240.582 258.299 243.885 258.299 244.091C259.95 245.124 261.911 247.601 257.783 252.555C239.928 251.832 226.097 244.195 221.35 233.461C219.905 232.429 218.253 233.461 217.325 234.906C211.111 244.458 202.152 251.906 191.625 256.27C184.504 258.025 177.279 255.238 173.873 250.594C171.603 247.91 171.706 245.02 170.777 244.401C166.958 246.052 134.034 260.089 138.266 253.587C146.213 244.917 160.146 238.621 172.325 230.158C173.357 227.371 174.905 217.773 179.756 214.677C179.963 214.677 178.93 220.25 179.034 222.624C179.034 224.585 178.93 225.307 179.343 224.791C180.169 224.275 195.031 212.612 196.167 209C197.611 206.936 196.579 201.775 196.579 201.569C193.896 194.344 189.974 193.828 188.529 190.216C187.187 185.468 187.807 180.101 190.49 178.553C192.864 176.386 195.651 176.592 198.334 178.966C201.43 181.649 204.011 186.913 204.836 190.835C204.32 192.383 200.914 189.803 199.676 190.629C201.74 192.693 202.772 195.273 203.494 198.369C205.559 206.626 204.836 209.723 202.978 215.089C196.373 228.92 187.91 233.151 180.479 238.209C180.272 238.312 180.169 241.821 182.956 243.679C183.988 244.711 187.807 245.124 192.245 243.679C201.898 238.349 209.708 230.215 214.641 220.353C215.983 212.922 214.125 205.078 212.164 198.266C209.914 192.833 207.849 187.325 205.972 181.753C205.765 177.624 206.075 176.179 208.036 174.115H207.932ZM112.154 135.515C116.282 137.476 124.229 136.547 123.92 129.838L123.713 126.639C122.887 124.574 120.514 125.09 119.998 127.258C119.791 127.877 120.307 129.012 119.688 129.322C119.275 129.632 117.933 129.425 118.037 127.567C118.037 126.948 117.624 126.329 117.314 125.916C117.004 125.813 116.901 125.71 116.385 125.71C115.766 125.71 115.869 125.916 115.456 126.432L115.147 127.98C115.147 128.703 114.837 128.909 114.321 129.012C113.805 129.012 113.908 129.012 113.495 128.806C113.186 128.496 112.876 128.393 112.876 127.877L112.67 126.226C112.395 125.921 112.035 125.706 111.638 125.606C109.264 125.606 109.161 128.29 109.264 129.322C109.057 129.425 108.954 134.173 112.154 135.515Z" fill="white"/>
<path fill-rule="evenodd" clip-rule="evenodd" d="M235.593 187.739C239.721 189.803 249.836 188.565 247.359 182.062L247.152 178.966C246.327 176.902 244.056 177.418 243.437 179.482C243.333 180.101 243.746 181.237 243.127 181.546C242.817 181.959 241.476 181.753 241.476 179.895C241.476 179.276 241.063 178.656 240.753 178.244C240.547 178.037 240.34 178.037 239.824 178.037C239.308 178.037 239.308 178.14 238.999 178.656L238.689 180.205C238.586 180.927 238.276 181.237 237.863 181.237C237.244 181.237 237.451 181.237 236.934 181.03C236.728 180.721 236.315 180.617 236.315 180.101C236.315 179.585 236.315 178.76 236.109 178.45C235.902 178.14 235.49 178.037 235.077 177.934C232.806 177.934 232.6 180.514 232.703 181.546C232.6 181.753 232.496 186.397 235.593 187.739ZM307.633 166.065C311.762 168.129 319.709 167.2 319.399 160.491L319.193 157.292C318.367 155.228 315.993 155.744 315.477 157.808C315.271 158.53 315.787 159.563 315.168 159.872C314.755 160.285 313.413 160.079 313.516 158.221C313.516 157.602 313 156.982 312.794 156.569C312.484 156.466 312.381 156.363 311.762 156.363C311.246 156.363 311.246 156.569 310.936 157.086L310.626 158.634C310.626 159.253 310.317 159.563 309.801 159.666C309.285 159.666 309.388 159.666 308.975 159.356C308.665 159.15 308.356 158.943 308.356 158.53C308.356 158.014 308.253 157.189 308.046 156.776C307.84 156.466 307.53 156.363 307.014 156.26C304.743 156.26 304.64 158.943 304.743 159.872C304.537 160.079 304.434 164.826 307.633 166.065ZM344.789 220.456C337.564 228.713 340.764 242.337 342.415 245.227C344.892 250.181 346.75 253.277 351.498 255.651C355.832 258.747 359.135 256.786 360.993 254.619C365.328 250.181 365.328 238.725 367.392 236.454C368.837 232.326 372.346 233.048 374.101 234.906C375.694 237.149 377.823 238.958 380.293 240.17C384.318 243.679 389.066 244.298 393.814 241.202C397.013 239.344 399.181 236.97 401.038 232.326C403.103 226.649 402.07 200.64 401.554 185.262C401.451 184.023 397.426 164.001 397.426 163.794C397.426 163.588 396.807 153.576 396.394 151.203C396.394 150.274 396.084 149.964 397.116 150.17C398.148 150.996 398.355 151.099 398.974 151.409C400.006 151.615 401.038 149.758 400.419 148.003L390.305 129.425C389.582 128.703 388.55 127.877 387.208 129.735C386.427 130.416 385.802 131.257 385.374 132.2C384.947 133.144 384.728 134.169 384.731 135.205C385.041 139.643 385.763 144.081 386.073 148.519L390.201 171.019C391.44 187.12 391.749 200.227 392.988 216.431C392.782 223.14 390.717 229.126 388.653 229.849C388.653 229.849 385.66 231.706 383.699 229.849C382.151 229.126 376.268 219.94 376.268 219.94C373.172 217.154 371.314 217.876 369.043 219.94C363.263 225.617 360.58 236.351 356.555 243.679C355.523 245.33 352.53 246.775 349.33 243.575C341.073 232.222 345.924 216.328 344.892 220.456H344.789ZM309.491 126.639C313.31 128.187 315.89 135.927 315.064 139.643C314.342 144.184 312.278 149.242 310.936 148.519C309.285 148.003 311.968 143.978 310.42 139.746C309.594 137.063 304.434 132.005 304.95 130.561C303.918 127.464 307.22 126.123 309.491 126.639Z" fill="white"/>
<path fill-rule="evenodd" clip-rule="evenodd" d="M357.071 224.998C357.794 215.709 356.452 210.136 356.245 204.769C356.039 199.402 350.053 158.324 349.021 154.196C347.473 146.455 354.697 153.164 353.872 148.622C351.395 142.946 345.305 134.689 343.344 129.838C342.209 127.774 342.622 125.813 340.041 129.219C337.813 135.357 337.036 141.928 337.771 148.416C343.963 180.721 350.259 207.555 349.227 238.312C352.22 238.312 355.626 231.603 357.071 224.895V224.998ZM421.474 139.643C424.983 141.398 426.944 150.996 426.635 153.68C425.912 158.737 424.054 164.001 422.713 163.381C421.371 162.762 423.022 155.95 422.3 153.886C421.577 150.893 416.933 145.526 417.346 143.875C416.417 140.572 419.41 139.127 421.474 139.746V139.643ZM165.823 207.555C169.126 208.897 170.983 215.812 170.674 217.876C170.055 221.592 168.3 225.514 167.061 225.101C165.72 224.585 167.268 219.631 166.649 218.083C166.339 214.264 161.798 212.303 161.901 210.755C161.075 207.659 163.862 207.142 165.823 207.659V207.555Z" fill="white"/>
<path fill-rule="evenodd" clip-rule="evenodd" d="M245.398 218.186C249.526 218.392 251.694 221.798 247.772 223.14C243.85 224.482 240.031 225.514 240.031 231.19C241.476 239.137 237.967 236.351 235.902 235.319C233.529 233.564 226.717 229.436 225.788 220.353C225.685 218.289 227.336 216.431 230.019 216.431C234.148 217.463 240.134 217.67 245.294 218.186H245.398Z" fill="#165D31"/>
<path fill-rule="evenodd" clip-rule="evenodd" d="M77.8879 124.368C82.7388 125.813 83.0484 132.934 82.6356 135.102C82.0163 138.921 80.2618 142.946 79.0232 142.43C77.6815 142.017 79.0232 136.856 78.404 135.205C77.6815 132.934 73.5531 128.806 74.0692 127.567C73.0371 125.09 75.9269 123.955 77.8879 124.471V124.368ZM173.77 158.014C170.054 160.079 168.61 166.065 170.88 169.574C173.048 172.67 176.453 171.535 176.97 171.535C180.582 171.948 182.749 164.62 182.749 164.62C182.749 164.62 182.853 162.556 178.621 166.478C176.763 166.787 176.557 166.168 176.041 165.136C175.601 163.194 175.818 161.161 176.66 159.356C177.279 157.602 175.834 156.776 173.77 158.014ZM201.637 121.581C199.882 122.923 196.063 126.742 195.96 131.18C195.96 133.657 195.444 133.657 196.992 135.308C198.231 136.96 199.469 136.856 201.843 135.618C202.434 135.235 202.94 134.735 203.331 134.15C203.721 133.564 203.988 132.904 204.114 132.212C204.733 129.322 201.121 133.554 200.708 130.354C199.882 127.464 202.153 126.226 204.32 123.336C204.32 121.375 204.32 120.033 201.74 121.581H201.637ZM224.24 125.71C223.34 129.33 222.787 133.028 222.588 136.753C221.969 139.54 225.478 140.675 227.13 137.063C229.503 130.561 229.503 127.774 229.71 124.987C228.987 120.859 226.097 120.859 224.24 125.606V125.71ZM366.153 197.853C366.566 197.337 386.176 183.404 386.176 183.404C388.137 182.785 387.724 190.629 386.795 190.629C380.739 196.499 373.767 201.345 366.153 204.975C365.121 205.594 364.192 199.608 366.153 197.75V197.853ZM383.906 197.75C387.311 199.402 388.756 209.516 388.344 212.2C388.447 217.567 385.041 221.798 383.699 221.076C382.254 220.456 383.802 214.47 383.183 212.406C382.461 209.413 379.468 203.84 379.984 202.291C378.951 198.886 381.841 197.131 383.906 197.75ZM267.898 241.098C269.239 239.034 273.368 236.248 273.471 236.248C275.432 235.215 277.29 236.97 277.186 236.867C277.496 238.828 275.948 240.582 276.464 243.163C276.877 244.195 277.186 245.33 279.147 244.917C282.244 242.543 285.134 242.337 288.23 242.131C290.604 242.337 290.604 246.259 289.159 246.362C283.379 247.601 280.902 249.149 276.774 250.697C274.813 251.832 273.161 250.387 273.161 250.284C273.161 250.181 272.129 249.149 272.852 246.569C272.955 244.504 272.129 243.472 270.478 243.679C269.136 244.298 268.001 244.711 267.381 243.266C267.072 242.234 267.072 241.718 267.898 241.098ZM404.444 246.465C405.27 247.497 405.889 248.53 404.444 250.284L400.729 253.38C400.006 254.619 399.697 256.27 401.658 256.786C405.27 257.818 413.733 252.348 413.733 252.245C415.075 251.213 414.662 249.252 414.456 249.252C413.733 248.323 411.875 248.839 410.74 248.736C410.121 248.736 408.263 248.426 409.089 246.775C409.914 245.743 410.121 245.124 410.637 243.782C411.256 242.543 410.74 241.718 408.676 240.995C406.612 240.686 405.786 240.892 403.515 240.995C402.174 241.305 401.761 241.821 401.451 243.369C401.658 245.64 402.999 245.536 404.548 246.465H404.444Z" fill="white"/>
<path fill-rule="evenodd" clip-rule="evenodd" d="M268.62 189.7C268.104 190.732 266.246 190.629 264.492 189.7C262.737 188.771 261.911 187.12 262.427 186.191C262.943 185.262 264.801 185.262 266.556 186.191C268.31 187.12 269.136 188.771 268.62 189.7ZM179.55 136.237C178.518 136.547 177.176 135.618 176.557 134.173C175.937 132.728 176.247 131.593 177.279 131.283C178.311 130.974 179.653 132.006 180.272 133.348C180.892 134.689 180.582 136.031 179.55 136.237ZM355.729 374.962C365.018 375.375 373.894 375.065 383.183 375.581C384.938 376.923 383.699 380.535 382.564 380.226L374.72 380.019C374.72 377.026 366.979 377.542 367.289 380.123C363.16 380.639 359.445 380.019 355.316 379.813C354.078 378.265 354.284 375.581 355.729 374.962Z" fill="#165D31"/>
</g>
</g>
<defs>
<clipPath id="clip0_103_9978">
<rect width="512" height="512" fill="white" transform="translate(0.5)"/>
</clipPath>
</defs>
</svg>
