<svg width="513" height="512" viewBox="0 0 513 512" fill="none" xmlns="http://www.w3.org/2000/svg">
<g clip-path="url(#clip0_103_9999)">
<mask id="mask0_103_9999" style="mask-type:luminance" maskUnits="userSpaceOnUse" x="0" y="0" width="513" height="512">
<path d="M0.5 0H512.422V511.922H0.5V0Z" fill="white"/>
</mask>
<g mask="url(#mask0_103_9999)">
<path fill-rule="evenodd" clip-rule="evenodd" d="M0.5 507.174L987.91 0H0.5V507.174Z" fill="#0000D6"/>
<path fill-rule="evenodd" clip-rule="evenodd" d="M1024.45 0L27.6443 511.922H1024.45V0Z" fill="#006000"/>
<path fill-rule="evenodd" clip-rule="evenodd" d="M1024.55 0H969.642L0.5 485.397V511.922H55.3045L1024.45 27.4539V0H1024.55Z" fill="#FFCC00"/>
<path fill-rule="evenodd" clip-rule="evenodd" d="M40.752 99.1848L52.7244 64.8159L21.5549 43.5547H60.0523L71.9214 9.08252L83.7906 43.5547H122.185L91.1185 64.8159L102.988 99.0816L71.9214 77.9236L40.752 99.1848ZM231.897 99.1848L243.869 64.8159L212.7 43.5547H251.197L263.066 9.08252L274.936 43.5547H313.226L282.263 64.8159L294.133 99.0816L263.066 77.8204L231.897 99.1848ZM231.897 243.679L243.869 209.31L212.7 188.049H251.197L263.066 153.577L274.936 188.049H313.226L282.263 209.31L294.236 243.679L263.17 222.418L231.897 243.679ZM136.944 172.258L148.813 137.889L117.747 116.627H156.141L168.01 82.2584L179.879 116.627H218.376L187.207 137.889L199.076 172.258L168.113 150.996L136.944 172.258ZM40.752 243.679L52.7244 209.31L21.5549 188.049H60.0523L71.9214 153.577L83.7906 188.049H122.185L91.1185 209.31L102.988 243.576L71.9214 222.314L40.752 243.679Z" fill="white"/>
</g>
</g>
<defs>
<clipPath id="clip0_103_9999">
<rect width="512" height="512" fill="white" transform="translate(0.5)"/>
</clipPath>
</defs>
</svg>
