<svg width="513" height="512" viewBox="0 0 513 512" fill="none" xmlns="http://www.w3.org/2000/svg">
<g clip-path="url(#clip0_103_10041)">
<mask id="mask0_103_10041" style="mask-type:luminance" maskUnits="userSpaceOnUse" x="0" y="0" width="513" height="512">
<path d="M0.475952 0H512.446V511.97H0.475952V0Z" fill="white"/>
</mask>
<g mask="url(#mask0_103_10041)">
<path fill-rule="evenodd" clip-rule="evenodd" d="M-61.5 0H962.544V511.97H-61.5V0Z" fill="white"/>
<path fill-rule="evenodd" clip-rule="evenodd" d="M-61.5 341.382H962.544V511.97H-61.5V341.382Z" fill="#D50000"/>
<path fill-rule="evenodd" clip-rule="evenodd" d="M-61.5 170.691H962.544V341.382H-61.5V170.691Z" fill="#0000BF"/>
<path fill-rule="evenodd" clip-rule="evenodd" d="M228.819 92.9638C224.804 154.631 222.539 188.398 213.171 204.047C202.979 220.828 193.095 233.079 153.46 247.904C113.927 233.079 104.044 220.828 93.8515 204.047C84.586 188.398 82.2182 154.631 78.2031 92.9638L84.0713 91.0077C95.8076 87.4045 104.661 84.5219 111.147 83.2865C120.413 81.2275 128.34 79.0655 153.357 78.5508C178.373 78.9626 186.301 81.3304 195.566 83.2865C202.155 84.6248 211.317 87.4045 222.951 91.0077L228.819 93.0667V92.9638Z" fill="#D50000"/>
<path fill-rule="evenodd" clip-rule="evenodd" d="M223.054 90.9047C219.245 152.469 216.156 180.677 211.112 194.164C201.537 217.43 186.301 230.196 153.46 242.241C120.722 230.093 105.485 217.43 95.8076 194.164C90.866 180.677 87.6745 152.572 84.0713 90.9047C95.6017 87.3015 104.661 84.5218 111.147 83.1835C120.413 81.2274 128.34 78.8596 153.357 78.4478C178.373 78.8596 186.404 81.2274 195.669 83.1835C202.258 84.5218 211.42 87.3015 223.054 90.9047Z" fill="#0000BF"/>
<path fill-rule="evenodd" clip-rule="evenodd" d="M153.46 109.745L155.004 113.554L161.901 114.48L157.475 117.157L161.799 120.04L155.519 121.069L153.563 124.466L151.504 120.966L145.327 120.143L149.445 117.157L145.327 114.48L151.915 113.451L153.46 109.745Z" fill="#FFDF00"/>
<path fill-rule="evenodd" clip-rule="evenodd" d="M208.744 179.648L204.935 176.559L202.155 172.029L196.802 167.294L193.919 162.558L188.566 157.719L185.889 152.983L183.006 150.616L181.05 148.865L176.212 153.086L173.535 157.822L170.138 160.808L166.534 157.925L163.755 153.086L153.46 134.864L143.165 153.086L140.488 157.925L136.782 160.808L133.487 157.719L130.811 153.086L125.972 148.865L124.016 150.616L121.133 152.983L118.457 157.719L113.103 162.558L110.221 167.294L104.764 172.029L102.088 176.559L98.2784 179.648C100.476 193.38 106.963 206.065 116.809 215.886C123.398 222.166 136.885 230.711 153.357 236.373C166.884 232.089 179.392 225.082 190.11 215.783C199.975 206.003 206.497 193.356 208.744 179.648Z" fill="white"/>
<path fill-rule="evenodd" clip-rule="evenodd" d="M169.932 83.9042L171.476 87.6104L178.373 88.6399L173.947 91.2137L178.27 94.1992L171.991 95.2287L170.034 98.6261L167.975 95.1258L161.901 94.3022L166.019 91.2137L161.798 88.6399L168.387 87.6104L169.932 83.9042ZM136.988 83.9042L138.532 87.5075L145.429 88.537L141.003 91.2137L145.326 94.0963L139.047 95.1258L137.09 98.5231L134.929 95.0228L128.957 94.1992L133.075 91.2137L128.854 88.537L135.443 87.5075L136.988 83.8013V83.9042Z" fill="#FFDF00"/>
<path fill-rule="evenodd" clip-rule="evenodd" d="M200.199 203.018H192.787L185.889 202.503L177.55 198.385L168.079 198.488L159.945 202.503L153.563 203.018L147.077 202.503L138.944 198.488H129.575L121.236 202.606L114.339 203.018H106.72L103.117 196.841L103.22 196.635L114.442 198.488L121.236 197.973L129.575 193.855H139.047L147.283 197.973L153.666 198.488L160.048 197.87L168.284 193.958H177.55L185.992 197.973L192.889 198.488L203.699 196.532L203.905 196.841L200.199 203.018ZM113.721 212.592L121.133 212.077L129.472 207.959H138.841L147.077 211.974L153.46 212.592L159.843 211.974L168.079 207.959H177.447L185.786 212.077L193.301 212.592L198.14 206.621L197.934 206.415L192.787 207.959L185.889 207.444L177.55 203.326H168.181L159.945 207.444L153.563 207.959L147.18 207.444L138.944 203.326H129.575L121.236 207.444L114.339 207.959L109.191 206.724V206.93L113.721 212.592Z" fill="#0000BF"/>
</g>
</g>
<defs>
<clipPath id="clip0_103_10041">
<rect width="512" height="512" fill="white" transform="translate(0.5)"/>
</clipPath>
</defs>
</svg>
