<svg width="513" height="512" viewBox="0 0 513 512" fill="none" xmlns="http://www.w3.org/2000/svg">
<g clip-path="url(#clip0_103_10077)">
<path fill-rule="evenodd" clip-rule="evenodd" d="M0.5 256H512.5V512H0.5V256Z" fill="#19B6EF"/>
<path fill-rule="evenodd" clip-rule="evenodd" d="M0.5 0H512.5V256H0.5V0Z" fill="white"/>
<path fill-rule="evenodd" clip-rule="evenodd" d="M253.4 361.8C309.3 320 369.5 234.6 299 189.7C285.8 187.1 271.1 187.9 264 193.5C260.3 191.3 257.4 191.5 253.6 195.5C251 192.3 248.4 190.8 242.9 192.5C237.807 189.728 232.212 187.999 226.443 187.415C220.673 186.831 214.845 187.404 209.3 189.1C147.8 226.1 185.4 313.7 253.3 361.8H253.4Z" fill="#FFDD00" stroke="#7D6C00" stroke-width="2.4"/>
<path fill-rule="evenodd" clip-rule="evenodd" d="M356.8 266.8C356.8 266.8 363.1 258.3 363.3 258.3C369.6 254.6 370.3 249.8 370.3 249.8C376.6 247.8 374.6 242.7 375.1 242C376.082 241.028 376.75 239.785 377.017 238.43C377.285 237.075 377.139 235.671 376.6 234.4C376.6 233.5 378.8 225.5 375.7 224.4C375.9 215.9 370.6 216.7 366.4 222.3C361.9 223.6 360.9 227.3 362.4 231.3C356.6 231.3 356.4 239.8 358.1 244.6C350.3 244.4 354.7 253.1 354.4 253.6C351.8 254.8 356.4 267.2 356.8 266.8ZM307.5 339.5L311.5 341.9C312.2 344.9 315 346.7 317.1 346.2C318.1 350.8 323.1 350.2 326.6 347.5C329.6 351.7 333.1 351.8 337.9 350.4C342.3 353.6 347.9 352.2 351.6 348.8C355.6 352.1 358.3 349.8 360.3 346.2C363.4 347 365.9 346.5 367 343.4C373.1 342.9 370 337.2 365 334.7C369 331.3 373.5 324.1 367.2 323C365.2 321.6 361.6 321.9 358.8 323.2C358.1 320 353.6 319.2 348.8 322.8C347.1 319.2 341.3 320.9 338.6 323.4C335.1 320.4 331 320.4 324.9 323.9L307.5 339.5ZM307.5 330.2C308.2 326.2 305.5 319 309.7 318.2C308.9 311.6 310.1 304.1 317.7 304.8C319 298.5 318.7 292.6 326 291.8C326 291.8 331.9 271.3 338 285.5C340.3 289.5 339.9 296.3 335.1 295C336.1 300 334.4 304.5 328.8 304.3C331.3 307.9 330.5 312.7 327.8 315L307.5 330.2ZM342.9 304.8L349.2 303.5C355.7 299.1 358.3 297.4 361.6 302.2C367 301 372.2 301.6 372 305.9C378.5 306.3 378.4 310.4 377.7 313.7C378.7 319.4 376.2 326.9 372.2 317.8C359.6 310.1 352.5 311.1 332.5 315.6L342.9 304.8ZM346.2 298.5C346.4 298.3 364.9 293.5 362.9 287.8C368.1 287 369.2 281.8 369.4 281.8C380.3 278.3 379.6 272 379.6 272C382.7 268.6 388.2 265.3 387 259.4C387.4 252.7 388 248.5 379 252.9C372.2 252.2 369.9 256.1 367.9 261.9C364.7 258.2 359.6 264.2 359 269.6C359 269.6 350.7 277.6 350.7 277.8L343.8 290.6L346.2 298.5Z" fill="#4FD46B" stroke="#3A9D4F" stroke-width="2.4" stroke-linejoin="round"/>
<path fill-rule="evenodd" clip-rule="evenodd" d="M346.6 284.1C342.2 280.8 339.7 276.8 340.6 272.8C337.6 268.9 335.6 266.5 338.4 263.1L336.2 255.1C330.5 252.9 332.9 248.1 334.5 246.4C331.8 242.7 331.7 238.8 334.2 235.3C334.2 228.3 339.1 230.9 343.2 235.3C343.2 235.3 349.9 240.1 344.9 244.4C349.9 246.1 351.4 250.4 348.6 252.2C352.9 254.2 353.6 258.1 351.2 260.7C355.6 264.2 353.9 268.7 355.3 272.7L346.6 284.1Z" fill="#4FD46B" stroke="#3A9D4F" stroke-width="2.4" stroke-linejoin="round"/>
<path fill-rule="evenodd" clip-rule="evenodd" d="M354.5 251.8C354.2 251.6 347 242.4 349 241.8C348.6 239 346.4 235.9 347.7 233.1C344.2 229.6 344.1 225.4 346.8 222.1C344.4 218.8 345.5 214.4 348.8 211.6C347.8 206.3 351.5 205 354.8 204C357.3 195.4 361.3 197.6 363.6 204.2C367 207.2 366.5 211.7 365.3 215.1C369.3 217.8 366.9 221.2 365.1 222.7L354.4 251.8H354.5Z" fill="#4FD46B" stroke="#3A9D4F" stroke-width="2.4" stroke-linejoin="round"/>
<path fill-rule="evenodd" clip-rule="evenodd" d="M353.4 206L347.3 199.9C348.8 196.7 350.1 190.9 345.5 188.4C343 182.2 330.5 174.6 328.4 189.2C326.4 184.8 322.4 180.5 319.4 185.6C312.9 179.9 309.4 181.6 312.8 188.8C312.8 188.8 309.8 193.6 317.8 197.3C318.4 197.9 315.1 206 324.7 206.2C322.9 208.9 325.9 212.8 329.7 212.5C326.9 215.9 331.6 219.5 334.5 218.1C333.2 221.9 333.3 223.7 338.5 224.2L344.5 230.9L349.2 237.5L353.3 206H353.4Z" fill="#4FD46B" stroke="#3A9D4F" stroke-width="2.4" stroke-linejoin="round"/>
<path d="M357.1 263C357.3 262.6 368.7 236.5 370.2 228.5M358.2 216.5C358.2 216.5 360.2 237.8 354.9 253.5M323.3 195C323.3 195 346.6 217.4 348.8 226.6M339.5 192.6C339.5 192.6 341.1 211 347.5 229.1M380.7 259.5C380.7 259.5 357.4 279.1 346 296.3M358.6 328.3C358.6 328.3 327.9 332.5 314.4 332.8M348.4 341.5C348.4 341.5 310.4 340.5 307.6 337.8M329.5 292C329.5 292.3 310.2 324.2 309.5 334.7" stroke="#3A9D4F" stroke-width="2.2" stroke-linecap="round"/>
<path fill-rule="evenodd" clip-rule="evenodd" d="M253.2 355.7C212.9 317.7 171.6 246.3 212.7 210.3C219.9 214.4 228.6 210.7 240.4 206.1C244 210 248.6 211 253.1 208.1C258.3 210.2 262.1 208.5 264.6 205.7C276.2 212.5 291.1 216 294.6 209.3C335 247.7 294.1 319.3 253.1 355.7H253.2Z" fill="#65C7FF" stroke="#7D6C00" stroke-width="2.4"/>
<path fill-rule="evenodd" clip-rule="evenodd" d="M253.4 354.6C234.972 336.797 219.689 316.003 208.2 293.1C210.2 291.3 211.2 290.8 212.3 287.7C218.164 288.747 224.175 288.645 230 287.4C231.6 293.5 232 298.6 235.8 303.7L244 287.7C249.776 289.156 255.824 289.156 261.6 287.7C265 292.3 263.8 299.2 269.8 304.4C273.4 293.8 277 293.1 280.6 287.4C285.9 289.3 289.3 288.4 293.6 287.1C295.9 289.7 294.8 289.6 299 293.5C287.715 316.486 272.252 337.171 253.4 354.5V354.6Z" fill="#8FC753"/>
<path fill-rule="evenodd" clip-rule="evenodd" d="M206 175.3C206 176.255 205.621 177.17 204.946 177.846C204.271 178.521 203.355 178.9 202.4 178.9C201.445 178.9 200.53 178.521 199.854 177.846C199.179 177.17 198.8 176.255 198.8 175.3C198.8 174.345 199.179 173.43 199.854 172.754C200.53 172.079 201.445 171.7 202.4 171.7C203.355 171.7 204.271 172.079 204.946 172.754C205.621 173.43 206 174.345 206 175.3ZM202.3 167C202.3 167.955 201.921 168.87 201.246 169.546C200.571 170.221 199.655 170.6 198.7 170.6C197.745 170.6 196.83 170.221 196.154 169.546C195.479 168.87 195.1 167.955 195.1 167C195.1 166.045 195.479 165.13 196.154 164.454C196.83 163.779 197.745 163.4 198.7 163.4C199.655 163.4 200.571 163.779 201.246 164.454C201.921 165.13 202.3 166.045 202.3 167ZM197.9 159.4C197.987 159.916 197.96 160.445 197.822 160.95C197.684 161.454 197.437 161.923 197.099 162.323C196.761 162.722 196.34 163.043 195.865 163.264C195.39 163.484 194.873 163.598 194.35 163.598C193.827 163.598 193.31 163.484 192.835 163.264C192.36 163.043 191.939 162.722 191.601 162.323C191.263 161.923 191.016 161.454 190.878 160.95C190.74 160.445 190.713 159.916 190.8 159.4C190.941 158.561 191.376 157.799 192.025 157.249C192.675 156.699 193.499 156.398 194.35 156.398C195.201 156.398 196.025 156.699 196.675 157.249C197.325 157.799 197.759 158.561 197.9 159.4ZM194.9 152C195.027 152.529 195.033 153.081 194.917 153.612C194.8 154.144 194.565 154.643 194.228 155.07C193.891 155.498 193.461 155.844 192.972 156.081C192.482 156.319 191.944 156.443 191.4 156.443C190.856 156.443 190.318 156.319 189.828 156.081C189.339 155.844 188.909 155.498 188.572 155.07C188.235 154.643 188 154.144 187.883 153.612C187.767 153.081 187.773 152.529 187.9 152C188.089 151.214 188.537 150.515 189.172 150.015C189.807 149.515 190.592 149.243 191.4 149.243C192.208 149.243 192.993 149.515 193.628 150.015C194.263 150.515 194.711 151.214 194.9 152ZM195.4 143.9C195.487 144.416 195.46 144.945 195.322 145.45C195.184 145.954 194.937 146.423 194.599 146.823C194.261 147.222 193.84 147.543 193.365 147.764C192.89 147.984 192.373 148.098 191.85 148.098C191.327 148.098 190.81 147.984 190.335 147.764C189.86 147.543 189.439 147.222 189.101 146.823C188.763 146.423 188.516 145.954 188.378 145.45C188.24 144.945 188.213 144.416 188.3 143.9C188.441 143.061 188.876 142.299 189.525 141.749C190.175 141.199 190.999 140.898 191.85 140.898C192.701 140.898 193.525 141.199 194.175 141.749C194.825 142.299 195.259 143.061 195.4 143.9ZM214.3 130.6C214.3 131.073 214.207 131.541 214.026 131.978C213.845 132.414 213.58 132.811 213.246 133.146C212.911 133.48 212.514 133.745 212.078 133.926C211.641 134.107 211.173 134.2 210.7 134.2C210.227 134.2 209.759 134.107 209.322 133.926C208.886 133.745 208.489 133.48 208.154 133.146C207.82 132.811 207.555 132.414 207.374 131.978C207.193 131.541 207.1 131.073 207.1 130.6C207.1 129.645 207.479 128.73 208.154 128.054C208.83 127.379 209.745 127 210.7 127C211.655 127 212.571 127.379 213.246 128.054C213.921 128.73 214.3 129.645 214.3 130.6ZM207.2 131.8C207.287 132.316 207.26 132.845 207.122 133.35C206.984 133.854 206.737 134.323 206.399 134.723C206.061 135.122 205.64 135.443 205.165 135.664C204.69 135.884 204.173 135.998 203.65 135.998C203.127 135.998 202.61 135.884 202.135 135.664C201.66 135.443 201.239 135.122 200.901 134.723C200.563 134.323 200.317 133.854 200.178 133.35C200.04 132.845 200.013 132.316 200.1 131.8C200.241 130.961 200.676 130.199 201.325 129.649C201.975 129.099 202.799 128.798 203.65 128.798C204.501 128.798 205.325 129.099 205.975 129.649C206.625 130.199 207.059 130.961 207.2 131.8ZM199.5 136.5C199.5 136.973 199.407 137.441 199.226 137.878C199.045 138.314 198.78 138.711 198.446 139.046C198.111 139.38 197.714 139.645 197.278 139.826C196.841 140.007 196.373 140.1 195.9 140.1C195.427 140.1 194.959 140.007 194.522 139.826C194.086 139.645 193.689 139.38 193.354 139.046C193.02 138.711 192.755 138.314 192.574 137.878C192.393 137.441 192.3 136.973 192.3 136.5C192.3 135.545 192.679 134.63 193.354 133.954C194.03 133.279 194.945 132.9 195.9 132.9C196.855 132.9 197.771 133.279 198.446 133.954C199.121 134.63 199.5 135.545 199.5 136.5ZM223.4 130.7C223.4 131.655 223.021 132.57 222.346 133.246C221.671 133.921 220.755 134.3 219.8 134.3C218.845 134.3 217.93 133.921 217.254 133.246C216.579 132.57 216.2 131.655 216.2 130.7C216.2 129.745 216.579 128.83 217.254 128.154C217.93 127.479 218.845 127.1 219.8 127.1C220.755 127.1 221.671 127.479 222.346 128.154C223.021 128.83 223.4 129.745 223.4 130.7ZM233.3 131.5C233.387 132.016 233.36 132.545 233.222 133.05C233.084 133.554 232.837 134.023 232.499 134.423C232.161 134.822 231.74 135.143 231.265 135.364C230.79 135.584 230.273 135.698 229.75 135.698C229.227 135.698 228.71 135.584 228.235 135.364C227.76 135.143 227.339 134.822 227.001 134.423C226.663 134.023 226.417 133.554 226.278 133.05C226.14 132.545 226.113 132.016 226.2 131.5C226.389 130.714 226.837 130.015 227.472 129.515C228.107 129.015 228.892 128.743 229.7 128.743C230.508 128.743 231.293 129.015 231.928 129.515C232.563 130.015 233.011 130.714 233.2 131.5H233.3ZM242.1 131C242.187 131.516 242.16 132.045 242.022 132.55C241.884 133.054 241.637 133.523 241.299 133.923C240.961 134.322 240.54 134.643 240.065 134.864C239.59 135.084 239.073 135.198 238.55 135.198C238.027 135.198 237.51 135.084 237.035 134.864C236.56 134.643 236.139 134.322 235.801 133.923C235.463 133.523 235.216 133.054 235.078 132.55C234.94 132.045 234.913 131.516 235 131C235.141 130.161 235.576 129.399 236.225 128.849C236.875 128.299 237.699 127.998 238.55 127.998C239.401 127.998 240.225 128.299 240.875 128.849C241.525 129.399 241.959 130.161 242.1 131Z" fill="white" stroke="black" stroke-width="1.1"/>
<path fill-rule="evenodd" clip-rule="evenodd" d="M262.8 125.3C262.8 127.74 261.831 130.08 260.105 131.805C258.38 133.53 256.04 134.5 253.6 134.5C251.16 134.5 248.82 133.53 247.095 131.805C245.369 130.08 244.4 127.74 244.4 125.3C244.637 123.038 245.703 120.944 247.393 119.422C249.082 117.9 251.276 117.058 253.55 117.058C255.824 117.058 258.018 117.9 259.707 119.422C261.397 120.944 262.463 123.038 262.7 125.3H262.8Z" fill="#FFDD00" stroke="#7D6C00" stroke-width="1.1"/>
<path fill-rule="evenodd" clip-rule="evenodd" d="M272.4 130.9C272.4 131.855 272.021 132.77 271.346 133.445C270.67 134.121 269.755 134.5 268.8 134.5C267.845 134.5 266.929 134.121 266.254 133.445C265.579 132.77 265.2 131.855 265.2 130.9C265.2 129.945 265.579 129.029 266.254 128.354C266.929 127.679 267.845 127.3 268.8 127.3C269.755 127.3 270.67 127.679 271.346 128.354C272.021 129.029 272.4 129.945 272.4 130.9ZM281.7 131.6C281.787 132.116 281.76 132.645 281.622 133.149C281.483 133.654 281.237 134.123 280.899 134.522C280.561 134.922 280.14 135.243 279.665 135.463C279.19 135.684 278.673 135.798 278.15 135.798C277.627 135.798 277.11 135.684 276.635 135.463C276.16 135.243 275.739 134.922 275.401 134.522C275.063 134.123 274.816 133.654 274.678 133.149C274.54 132.645 274.513 132.116 274.6 131.6C274.741 130.761 275.175 129.998 275.825 129.449C276.475 128.899 277.299 128.598 278.15 128.598C279.001 128.598 279.825 128.899 280.475 129.449C281.124 129.998 281.559 130.761 281.7 131.6ZM290.7 131.2C290.787 131.716 290.76 132.245 290.622 132.749C290.483 133.254 290.237 133.723 289.899 134.122C289.561 134.522 289.14 134.843 288.665 135.063C288.19 135.284 287.673 135.398 287.15 135.398C286.627 135.398 286.11 135.284 285.635 135.063C285.16 134.843 284.739 134.522 284.401 134.122C284.063 133.723 283.816 133.254 283.678 132.749C283.54 132.245 283.513 131.716 283.6 131.2C283.741 130.361 284.175 129.598 284.825 129.049C285.475 128.499 286.299 128.198 287.15 128.198C288.001 128.198 288.825 128.499 289.475 129.049C290.124 129.598 290.559 130.361 290.7 131.2ZM298.3 130.9C298.387 131.416 298.36 131.945 298.222 132.449C298.083 132.954 297.837 133.423 297.499 133.822C297.161 134.222 296.74 134.543 296.265 134.763C295.79 134.984 295.273 135.098 294.75 135.098C294.227 135.098 293.71 134.984 293.235 134.763C292.76 134.543 292.339 134.222 292.001 133.822C291.663 133.423 291.416 132.954 291.278 132.449C291.14 131.945 291.113 131.416 291.2 130.9C291.341 130.06 291.775 129.298 292.425 128.749C293.075 128.199 293.899 127.898 294.75 127.898C295.601 127.898 296.425 128.199 297.075 128.749C297.724 129.298 298.159 130.06 298.3 130.9ZM307.8 131.9C307.8 132.855 307.421 133.77 306.746 134.445C306.07 135.121 305.155 135.5 304.2 135.5C303.245 135.5 302.329 135.121 301.654 134.445C300.979 133.77 300.6 132.855 300.6 131.9C300.6 130.945 300.979 130.029 301.654 129.354C302.329 128.679 303.245 128.3 304.2 128.3C305.155 128.3 306.07 128.679 306.746 129.354C307.421 130.029 307.8 130.945 307.8 131.9ZM315.2 136.6C315.287 137.116 315.26 137.645 315.122 138.149C314.983 138.654 314.737 139.123 314.399 139.522C314.061 139.922 313.64 140.243 313.165 140.463C312.69 140.684 312.173 140.798 311.65 140.798C311.127 140.798 310.61 140.684 310.135 140.463C309.66 140.243 309.239 139.922 308.901 139.522C308.563 139.123 308.316 138.654 308.178 138.149C308.04 137.645 308.013 137.116 308.1 136.6C308.241 135.761 308.675 134.998 309.325 134.449C309.975 133.899 310.799 133.598 311.65 133.598C312.501 133.598 313.325 133.899 313.975 134.449C314.624 134.998 315.059 135.761 315.2 136.6Z" fill="white" stroke="black" stroke-width="1.1"/>
<path fill-rule="evenodd" clip-rule="evenodd" d="M202.5 161.8L211.7 179.4H296.2L305.9 162.4C300.2 158.5 296.3 155.5 288.2 157.4C283.5 150.7 278.5 149.4 271 150.2C268.963 147.836 266.103 146.334 263 146L245.2 146.5C240.6 146.9 237 150.5 236.8 150.5C229.2 149.5 222.3 149.8 220.5 157.1C213.6 155.4 208.8 157.3 202.5 161.8Z" fill="#E40000" stroke="#AC0000" stroke-width="2.4"/>
<path fill-rule="evenodd" clip-rule="evenodd" d="M318.3 144.4C318.387 144.916 318.36 145.445 318.222 145.95C318.084 146.454 317.837 146.923 317.499 147.323C317.161 147.722 316.74 148.043 316.265 148.264C315.79 148.484 315.273 148.598 314.75 148.598C314.227 148.598 313.71 148.484 313.235 148.264C312.76 148.043 312.339 147.722 312.001 147.323C311.663 146.923 311.416 146.454 311.278 145.95C311.14 145.445 311.113 144.916 311.2 144.4C311.341 143.561 311.775 142.799 312.425 142.249C313.075 141.699 313.899 141.398 314.75 141.398C315.601 141.398 316.425 141.699 317.075 142.249C317.724 142.799 318.159 143.561 318.3 144.4ZM318.9 152.7C318.987 153.216 318.96 153.745 318.822 154.25C318.683 154.754 318.437 155.223 318.099 155.623C317.761 156.022 317.34 156.343 316.865 156.564C316.39 156.784 315.873 156.898 315.35 156.898C314.827 156.898 314.31 156.784 313.835 156.564C313.36 156.343 312.939 156.022 312.601 155.623C312.263 155.223 312.016 154.754 311.878 154.25C311.74 153.745 311.713 153.216 311.8 152.7C311.941 151.861 312.375 151.099 313.025 150.549C313.675 150 314.499 149.698 315.35 149.698C316.201 149.698 317.025 150 317.675 150.549C318.324 151.099 318.759 151.861 318.9 152.7ZM316.3 160.5C316.387 161.016 316.36 161.545 316.222 162.05C316.084 162.554 315.837 163.023 315.499 163.423C315.161 163.822 314.74 164.143 314.265 164.364C313.79 164.584 313.273 164.698 312.75 164.698C312.227 164.698 311.71 164.584 311.235 164.364C310.76 164.143 310.339 163.822 310.001 163.423C309.663 163.023 309.416 162.554 309.278 162.05C309.14 161.545 309.113 161.016 309.2 160.5C309.341 159.661 309.775 158.899 310.425 158.349C311.075 157.799 311.899 157.498 312.75 157.498C313.601 157.498 314.425 157.799 315.075 158.349C315.724 158.899 316.159 159.661 316.3 160.5ZM313 166.9C313.127 167.429 313.133 167.981 313.017 168.512C312.9 169.044 312.665 169.543 312.328 169.97C311.991 170.398 311.561 170.744 311.072 170.981C310.582 171.219 310.044 171.343 309.5 171.343C308.956 171.343 308.418 171.219 307.928 170.981C307.439 170.744 307.009 170.398 306.672 169.97C306.335 169.543 306.1 169.044 305.983 168.512C305.867 167.981 305.873 167.429 306 166.9C306.189 166.114 306.637 165.415 307.272 164.915C307.907 164.415 308.692 164.143 309.5 164.143C310.308 164.143 311.093 164.415 311.728 164.915C312.363 165.415 312.811 166.114 313 166.9ZM309.2 174.9C309.2 175.855 308.821 176.77 308.146 177.446C307.47 178.121 306.555 178.5 305.6 178.5C304.645 178.5 303.729 178.121 303.054 177.446C302.379 176.77 302 175.855 302 174.9C302 173.945 302.379 173.03 303.054 172.354C303.729 171.679 304.645 171.3 305.6 171.3C306.555 171.3 307.47 171.679 308.146 172.354C308.821 173.03 309.2 173.945 309.2 174.9ZM259.2 164.7C259.304 165.45 259.246 166.214 259.029 166.94C258.813 167.666 258.444 168.337 257.946 168.908C257.449 169.479 256.835 169.937 256.145 170.25C255.456 170.564 254.707 170.726 253.95 170.726C253.193 170.726 252.444 170.564 251.755 170.25C251.065 169.937 250.451 169.479 249.954 168.908C249.456 168.337 249.087 167.666 248.871 166.94C248.654 166.214 248.596 165.45 248.7 164.7C248.875 163.432 249.504 162.271 250.469 161.43C251.434 160.589 252.67 160.126 253.95 160.126C255.23 160.126 256.466 160.589 257.431 161.43C258.396 162.271 259.025 163.432 259.2 164.7ZM260.2 152.6C260.313 153.501 260.234 154.415 259.966 155.283C259.699 156.151 259.25 156.951 258.649 157.632C258.049 158.313 257.31 158.858 256.483 159.232C255.655 159.605 254.758 159.798 253.85 159.798C252.942 159.798 252.045 159.605 251.217 159.232C250.39 158.858 249.651 158.313 249.05 157.632C248.45 156.951 248.001 156.151 247.734 155.283C247.466 154.415 247.387 153.501 247.5 152.6C247.5 150.903 248.174 149.275 249.374 148.075C250.575 146.874 252.203 146.2 253.9 146.2C255.597 146.2 257.225 146.874 258.425 148.075C259.626 149.275 260.3 150.903 260.3 152.6H260.2Z" fill="white" stroke="black" stroke-width="1.1"/>
<path fill-rule="evenodd" clip-rule="evenodd" d="M259.4 140.8C259.4 142.325 258.794 143.787 257.716 144.866C256.638 145.944 255.175 146.55 253.65 146.55C252.125 146.55 250.663 145.944 249.584 144.866C248.506 143.787 247.9 142.325 247.9 140.8C247.9 139.275 248.506 137.812 249.584 136.734C250.663 135.656 252.125 135.05 253.65 135.05C255.175 135.05 256.638 135.656 257.716 136.734C258.794 137.812 259.4 139.275 259.4 140.8Z" fill="white" stroke="black" stroke-width="1.1"/>
<path fill-rule="evenodd" clip-rule="evenodd" d="M251.7 116.3V111.7H247.9L248 108.3H251.3V105.3H256V108H259.7V111.6H255.8V116.4H251.7V116.3Z" fill="#FFDD00" stroke="#7D6C00" stroke-width="1.1"/>
<path d="M211.2 179.4C203.7 166.5 192.5 149.1 199.4 141.6C209 130.7 231.4 140.6 245.7 134.2C246.7 146.5 243.3 166.7 248.8 170.9L243.7 175.4C240.6 171.4 234.7 166 227.4 175.6C223.3 172 218.6 172.6 216.4 177.4C214.2 177.7 214.4 178.6 211.2 179.4ZM296.7 178.9C304.2 166.1 315.4 148.7 308.5 141.1C298.9 130.3 276.5 140.1 262.2 133.8C261.2 146 264.6 166.2 259.1 170.5L264.2 174.9C269.2 168 275.2 167.8 280.4 175.2C284.6 171.5 288.9 172 291.5 177C293.7 177.3 293.5 178.1 296.7 179V178.9Z" stroke="#FFDD00" stroke-width="3.3"/>
<path fill-rule="evenodd" clip-rule="evenodd" d="M211 189C239.109 186.441 267.392 186.441 295.5 189L298.8 179.4C269.3 174 248.9 173.4 210.3 178.7L211 188.9V189Z" fill="#FFDD00" stroke="#7D6C00" stroke-width="2.4"/>
<path fill-rule="evenodd" clip-rule="evenodd" d="M250.2 351.3L250.9 346.8C253.9 347.7 256.2 347.3 258.7 346.4L261.3 342.5L259.3 340.2C257.6 340.6 256.3 342.2 255.1 343.6C253.4 343.6 251.9 342.8 250.2 342.5L248.6 335.6C247 333.7 243.6 333.9 244.3 337.3L244.7 339.9C245.3 341.5 245.6 343.8 246.7 344.9V347.7L250.2 351.3ZM251.5 331.8C249.2 332.9 246.5 331 243.7 329.8C241.1 329.7 239 331.8 235.8 331.2C236.4 329.5 237.8 329.2 238.8 328.2C238.1 323.8 240.4 322.3 241.1 322.3C241.7 322.3 244.3 323 244.3 323L246.9 323.3C248.5 326.1 250.6 328.7 251.5 331.8Z" fill="#C76E2E"/>
<path fill-rule="evenodd" clip-rule="evenodd" d="M236 390.5C243.5 378.2 296 353.7 345.2 300.6C295.2 348.9 263.8 360.7 222.8 390.2L236 390.5Z" fill="#FFE100" stroke="#E9BF00" stroke-width="2.4"/>
<path fill-rule="evenodd" clip-rule="evenodd" d="M308.1 334C308.1 335.008 307.7 335.974 306.987 336.687C306.274 337.4 305.308 337.8 304.3 337.8C303.292 337.8 302.326 337.4 301.613 336.687C300.9 335.974 300.5 335.008 300.5 334C300.5 332.992 300.9 332.026 301.613 331.313C302.326 330.6 303.292 330.2 304.3 330.2C305.308 330.2 306.274 330.6 306.987 331.313C307.7 332.026 308.1 332.992 308.1 334ZM344.8 296.9C344.8 298.054 344.342 299.16 343.526 299.976C342.71 300.792 341.604 301.25 340.45 301.25C339.296 301.25 338.19 300.792 337.374 299.976C336.558 299.16 336.1 298.054 336.1 296.9C336.1 295.746 336.558 294.64 337.374 293.824C338.19 293.008 339.296 292.55 340.45 292.55C341.604 292.55 342.71 293.008 343.526 293.824C344.342 294.64 344.8 295.746 344.8 296.9ZM357 265.3C357 266.308 356.6 267.274 355.887 267.987C355.174 268.7 354.208 269.1 353.2 269.1C352.192 269.1 351.226 268.7 350.513 267.987C349.8 267.274 349.4 266.308 349.4 265.3C349.4 264.292 349.8 263.326 350.513 262.613C351.226 261.9 352.192 261.5 353.2 261.5C354.208 261.5 355.174 261.9 355.887 262.613C356.6 263.326 357 264.292 357 265.3ZM345 224.3C345 225.308 344.6 226.274 343.887 226.987C343.174 227.7 342.208 228.1 341.2 228.1C340.192 228.1 339.226 227.7 338.513 226.987C337.8 226.274 337.4 225.308 337.4 224.3C337.4 223.292 337.8 222.326 338.513 221.613C339.226 220.9 340.192 220.5 341.2 220.5C342.208 220.5 343.174 220.9 343.887 221.613C344.6 222.326 345 223.292 345 224.3Z" fill="#9D4916" stroke="#68300E" stroke-width="1.1"/>
<path fill-rule="evenodd" clip-rule="evenodd" d="M212.9 287.6V271.4L211.2 270V266.2L214.2 265.9L214.8 247.9L212.8 246.8L212.6 243.8C212.6 243.8 214.8 244.6 214.8 244L215.3 240.5C215.3 240.5 214 240.2 214 239.6C214 239 215.6 237.7 215.6 237.7C215.6 237.7 214.8 236.9 214.6 236.4L213.7 233.4L214.5 230.4L214 228.7L212.6 226.2L214.6 224.3L214 221.3C214 220.8 215.3 218.5 215.6 218.3L218.1 215L222.7 213.9L228.2 214.7L231.2 216.7L231.8 221.6C231.8 221.6 231.2 224.6 231 224.6L228.5 225.6C228.5 225.6 225.8 225.9 225.5 225.6C225.2 225.3 226.3 228.9 226.3 228.9V232.2L226 236.3C226 236.3 226 238.3 225.8 238.5L224.9 239.6L224.7 243.7L229 244.8L228.8 247.3L225.8 247.6L226.3 264.3L230.7 265.1V269.8L228.7 270.8L228.2 287.6H212.9ZM279.4 287.8V271.7L277.8 270.3V266.5L280.8 266.2L281.4 248.2L279.4 247L279.2 244C279.2 244 281.4 244.8 281.4 244.3L281.9 240.7C281.9 240.7 280.5 240.5 280.5 239.9C280.5 239.3 282.2 238 282.2 238C282.2 238 281.4 237.2 281.1 236.6C280.8 236 280.3 233.6 280.3 233.6L281.1 230.6L280.5 229L279.2 226.5L281.1 224.5L280.5 221.5C280.889 220.409 281.464 219.394 282.2 218.5L284.6 215.3L289.3 214.2L294.8 215L297.8 217L298.3 221.8C298.3 221.8 297.8 224.8 297.5 224.8C297.2 224.8 295 226 295 226C295 226 292.3 226.2 292 226C291.7 225.8 292.9 229.2 292.9 229.2V232.5L292.6 236.6C292.6 236.6 292.6 238.6 292.3 238.8L291.5 239.9L291.2 244L295.6 245.1L295.3 247.6L292.3 247.9L292.9 264.6L297.2 265.4V270L295.3 271.1L294.8 287.8H279.4ZM245.8 288.4V272.2L244.1 270.9V267L247.1 266.8L247.7 248.7L245.7 247.6L245.5 244.6C245.5 244.6 247.7 245.4 247.7 244.9L248.2 241.3C248.2 241.3 246.8 241 246.8 240.5C246.8 240 248.5 238.5 248.5 238.5L247.4 237.2C247.1 236.7 246.6 234.2 246.6 234.2L247.4 231.2L246.8 229.5L245.5 227.1L247.4 225.1L246.8 222.1C247.189 221.009 247.764 219.994 248.5 219.1L251 215.8L255.6 214.8L261.1 215.6L264.1 217.5L264.6 222.4C264.6 222.4 264.1 225.4 263.8 225.4C263.5 225.4 261.4 226.5 261.4 226.5C261.4 226.5 258.6 226.8 258.4 226.5C258.2 226.2 259.2 229.8 259.2 229.8V233.1L258.9 237.1C258.9 237.1 258.9 239.1 258.6 239.4C258.3 239.6 257.8 240.4 257.8 240.4L257.5 244.6L261.9 245.6L261.6 248.1L258.6 248.4L259.2 265.1L263.6 265.9V270.6L261.6 271.6L261.1 288.4H245.8Z" fill="white" stroke="#A9A9A9" stroke-width="1.1"/>
<path fill-rule="evenodd" clip-rule="evenodd" d="M216.9 287.4V274.7H224.1V288L216.9 287.4ZM250.5 288.4L250.8 275.4H257.2V288.2L250.6 288.5L250.5 288.4ZM283.7 288.2L283.2 276L290 275.7V288.5L283.7 288.2ZM218.7 249.7H222.7V256.4H218.7V249.7ZM251.1 250H256.7V256.4H251.1V250ZM284.1 250.5H289.1V256.6H284.1V250.5Z" fill="black"/>
<path d="M220.8 220.8C225.2 225.7 225.5 225.7 225.5 225.7M253.5 220.7C254.2 222.4 255.6 226 257.3 226.2M288.5 221.6C288.5 221.6 289.8 225.4 291.8 225.9" stroke="#A8A8A8" stroke-width="1.1"/>
<path fill-rule="evenodd" clip-rule="evenodd" d="M216.2 207C229 202.8 213.2 194.5 210.6 207C206.4 207.6 205.9 210.7 196.9 209.3C175.2 244.7 191.3 301.6 254.7 360.6C141.1 264 187.3 192.6 218.7 195.2C235.8 196.4 227.2 217.7 216.2 207Z" fill="#B97700"/>
<path d="M219.7 188.8C219.7 188.8 230.2 191.6 230.2 196.1M230.2 188.1C230.2 188.1 237.4 191.2 239 194.1M287.1 189.3C287.1 189.3 277.9 190.4 275.9 193.3M273.1 190C273.1 190 267.9 194.5 268.3 195.7M271.9 209.3C271.1 208.9 267.5 204.1 268.3 198.1M236.6 206.1C236.6 206.1 239 203.3 239 198.1M253.4 196.1L253.8 207.7M263.8 206.1C263.8 205.3 267.1 197.7 263.5 194.1M241.8 192.5C241.8 192.5 239 200.1 241 206.5M262.3 199.3C262.3 199.3 257.9 200.5 255.9 202.5M243.4 200.5C243.4 200.1 248.2 199.3 249.8 202.1" stroke="#7D6C00" stroke-width="2.4"/>
<path fill-rule="evenodd" clip-rule="evenodd" d="M235.8 322C236 322 239.8 321.3 239.8 319.4C241.8 318.2 240.3 314.7 240.3 314.7L236.7 314L231.8 308.4C231.6 306.7 232.2 305.1 231.1 303.4C227.7 304.2 225.8 307 224.6 310.3C225.5 311.3 225.6 312.4 227.1 313.3C228.7 313.6 229.8 312.7 231.3 313C232.1 314.3 231.9 315.5 232.1 316.7C234.1 318.2 234.6 320.2 235.8 322ZM231.4 298.3V291.7L226.7 291.6C226.1 292.6 225 293 224.3 293.9L221.1 295.5C222.4 297.2 224.1 298.1 225.1 298.9C227.6 299.6 229.5 299.6 231.4 298.3ZM216.6 308L214.1 303.7C215.753 303.24 217.513 303.345 219.1 304C219.1 304 220.2 306.7 219.4 307.7C219 308.7 216.5 308.2 216.6 308ZM255.6 312.4C256.34 312.109 256.994 311.636 257.501 311.024C258.008 310.412 258.352 309.681 258.5 308.9L253.7 303.4H249.5C248.5 302.3 246.9 302.1 245.6 302.1C245.6 302.1 247 304.1 248.7 304.6C250 307.3 255.3 312.4 255.7 312.4H255.6ZM260.2 313.1C262.245 312.183 264.459 311.706 266.7 311.7C266.5 310 269.8 306 269.8 306L275.8 313.8C274.7 314.7 272.8 314.4 271.3 314.7C271.3 314.7 268.4 317.5 268.1 317.6C267.8 317.7 262.6 318.9 260.1 317.4C258.9 315.2 260.3 312.7 260.2 313.1ZM263.6 299.4C264.3 296.9 264.6 294.4 263.6 291.4C263.6 291.4 256.8 291.2 256.8 291.4L252.3 293.4C252.3 293.4 253.8 297.9 255.5 297.4C256.3 299.8 258.6 299.2 259.7 300L263.6 299.4ZM290.1 292.6C289.2 295.4 288.7 298.4 290.1 301.2C291.3 301.4 292.7 302.2 293.8 302L299.3 292.2C295.5 291 292.5 291.1 290.1 292.6Z" fill="#C76E2E"/>
<path fill-rule="evenodd" clip-rule="evenodd" d="M291.8 206C279 202 294.8 193.6 297.4 206C301.6 206.7 302.1 209.8 311.1 208.5C332.7 243.8 316.7 300.8 253.3 359.7C366.8 263.1 320.7 191.7 289.3 194.3C272.1 195.5 280.8 216.8 291.8 206.1V206Z" fill="#B97700"/>
<path fill-rule="evenodd" clip-rule="evenodd" d="M293.1 303.6C292.9 303.6 289.8 305.9 289.8 305.9L285.4 307.6L280.7 307.7L279.7 304.5L283.3 301.3C280.3 300.8 277.2 302 274.8 304.3C274.8 304.3 274.8 307.8 276.8 309.6C278.285 311.157 279.89 312.595 281.6 313.9C283.9 314.3 286 313.9 287.5 312.8L293.1 303.6ZM268.3 335.8C269.8 336.2 280.4 322.2 280.4 322.2C279.457 319.682 277.601 317.611 275.2 316.4C275.2 316.4 270 322.4 269.9 324.5C269.1 326.4 266.8 333.5 267.8 334.4C267.7 334.6 267.3 337.4 268.3 335.8Z" fill="#C76E2E"/>
<path fill-rule="evenodd" clip-rule="evenodd" d="M199.3 338.6C183.5 324.8 162.1 317.2 132.3 327.6C140.3 331 149 332.2 156.4 335.9L199.3 338.6Z" fill="#006800" stroke="#004100" stroke-width="2.4" stroke-linejoin="round"/>
<path d="M153.5 328.8C184.7 329.4 193.8 337.2 192.1 335.9" stroke="#00A400" stroke-width="2.2" stroke-linecap="round"/>
<path fill-rule="evenodd" clip-rule="evenodd" d="M199.9 340.2C190.6 342 177.7 351 173.9 350.6C163.8 349.4 154.2 345.2 144.4 342.1C140.3 340.8 136.2 342.1 132 342.1C167 325.5 179 327.8 200 340.1L199.9 340.2Z" fill="#006800" stroke="#004100" stroke-width="2.2" stroke-linejoin="round"/>
<path fill-rule="evenodd" clip-rule="evenodd" d="M176.9 315.8C176.9 315.8 165.2 317.4 159.9 317.8C154.8 317.4 147.2 312.6 138.9 303.8C134.5 299 124.6 299.6 124.6 299.6C146.6 294.9 163.6 299.3 176.9 315.8ZM160.9 293.1C145 292.1 125.2 277.8 120.7 260.9C120.7 261.2 126.5 264.6 125.6 265.5C151.6 272.1 153.4 277.4 161 293.1H160.9ZM187.6 320.4C189.9 306 190.6 296.4 183.6 287.9C178.1 281.4 176.6 277.5 172.6 268.4C171.5 287.4 167.4 303 187.6 320.4ZM162.6 280.4C174.4 263.2 176.4 250.2 174.6 229.8C173.346 233.804 171.809 237.714 170 241.5C152.5 252.5 160.3 269.7 162.6 280.5V280.4Z" fill="#006800" stroke="#004100" stroke-width="2.4" stroke-linejoin="round"/>
<path fill-rule="evenodd" clip-rule="evenodd" d="M152.2 197.3C164 214.5 162.2 230.7 160.3 251.2C159.077 247.199 157.573 243.289 155.8 239.5C138.2 228.5 149.9 208 152.2 197.3Z" fill="#006800" stroke="#004100" stroke-width="2.4" stroke-linejoin="round"/>
<path fill-rule="evenodd" clip-rule="evenodd" d="M161.9 224C190.5 209.5 179.5 191.2 184.7 177.1C164.9 191.9 162.3 207.6 161.9 223.9V224Z" fill="#006800" stroke="#004100" stroke-width="2.4" stroke-linejoin="round"/>
<path d="M165.8 220.3C169.4 210.3 176.5 193.1 177.2 193.1M157.4 241.5C156.7 234.3 153.2 215.1 152.8 213.2" stroke="#00A400" stroke-width="2.2" stroke-linecap="round"/>
<path fill-rule="evenodd" clip-rule="evenodd" d="M158.7 273.6C142.7 272.6 125.6 250.9 121 234C121 234.2 126.9 237.6 125.9 238.5C148.7 248.7 151.1 257.9 158.7 273.5V273.6ZM154 258.6C142.2 241.4 140.1 228.4 142 208C142.3 209.6 146.2 219.7 146.5 219.7C164 230.7 156.2 247.9 154 258.7V258.6ZM164.5 228.5C194.1 215.4 185 201.6 193.8 187.2C174 201.9 164.8 212.2 164.5 228.5Z" fill="#006800" stroke="#004100" stroke-width="2.4" stroke-linejoin="round"/>
<path d="M165.8 225.5C177.8 213.5 182.1 203.5 182.1 203.5" stroke="#00A400" stroke-width="2.2" stroke-linecap="round"/>
<path fill-rule="evenodd" clip-rule="evenodd" d="M270.9 390.8L285.3 391.1C237.6 346.3 146 326.8 158.8 244.5C145.5 333.8 233.5 342 270.9 390.8Z" fill="#FFE100" stroke="#E9BF00" stroke-width="2.4"/>
<path fill-rule="evenodd" clip-rule="evenodd" d="M166.3 226.8C166.3 227.404 166.181 228.002 165.95 228.561C165.719 229.119 165.38 229.626 164.953 230.053C164.526 230.48 164.018 230.819 163.46 231.05C162.902 231.281 162.304 231.4 161.7 231.4C161.096 231.4 160.498 231.281 159.94 231.05C159.382 230.819 158.875 230.48 158.447 230.053C158.02 229.626 157.681 229.119 157.45 228.561C157.219 228.002 157.1 227.404 157.1 226.8C157.1 225.58 157.585 224.41 158.447 223.548C159.31 222.685 160.48 222.2 161.7 222.2C162.92 222.2 164.09 222.685 164.953 223.548C165.815 224.41 166.3 225.58 166.3 226.8ZM163.5 252C163.5 253.154 163.042 254.26 162.226 255.076C161.41 255.892 160.304 256.35 159.15 256.35C157.996 256.35 156.89 255.892 156.074 255.076C155.258 254.26 154.8 253.154 154.8 252C154.8 250.847 155.258 249.74 156.074 248.924C156.89 248.109 157.996 247.65 159.15 247.65C160.304 247.65 161.41 248.109 162.226 248.924C163.042 249.74 163.5 250.847 163.5 252ZM167.5 288C167.5 289.008 167.1 289.975 166.387 290.687C165.674 291.4 164.708 291.8 163.7 291.8C162.692 291.8 161.726 291.4 161.013 290.687C160.3 289.975 159.9 289.008 159.9 288C159.9 286.992 160.3 286.026 161.013 285.313C161.726 284.601 162.692 284.2 163.7 284.2C164.708 284.2 165.674 284.601 166.387 285.313C167.1 286.026 167.5 286.992 167.5 288ZM200.9 327.7C200.9 328.721 200.494 329.701 199.772 330.423C199.05 331.145 198.071 331.55 197.05 331.55C196.029 331.55 195.05 331.145 194.328 330.423C193.606 329.701 193.2 328.721 193.2 327.7C193.2 326.679 193.606 325.7 194.328 324.978C195.05 324.256 196.029 323.85 197.05 323.85C198.071 323.85 199.05 324.256 199.772 324.978C200.494 325.7 200.9 326.679 200.9 327.7ZM205.7 339.1C205.7 340.108 205.3 341.075 204.587 341.787C203.874 342.5 202.908 342.9 201.9 342.9C200.892 342.9 199.926 342.5 199.213 341.787C198.5 341.075 198.1 340.108 198.1 339.1C198.1 338.092 198.5 337.126 199.213 336.413C199.926 335.701 200.892 335.3 201.9 335.3C202.908 335.3 203.874 335.701 204.587 336.413C205.3 337.126 205.7 338.092 205.7 339.1Z" fill="#9D4916" stroke="#68300E" stroke-width="1.1"/>
<path fill-rule="evenodd" clip-rule="evenodd" d="M222.5 372.3C220.358 370.667 218.642 368.54 217.5 366.1L202.5 364.4L202.3 373L222.6 372.3H222.5Z" fill="white" stroke="black" stroke-width="1.1"/>
<path fill-rule="evenodd" clip-rule="evenodd" d="M112.8 362.2C121.5 363.8 134.6 361.4 138.9 367C144.1 372.8 122.9 381.8 125.9 386.8C132.4 393.8 139.2 390.9 146.5 387.1C148.3 383.3 149.6 376.6 150.5 374.6C147.9 368.5 140.7 365.5 142.5 356.2C154.7 351.6 178 352 180.5 353.8C182.5 357.6 180.7 359.4 181.1 362.5C179.1 366.3 173.9 372.9 173.9 376.5C186.6 380.9 189.9 375.7 201.4 376C214.8 376.2 223 379.8 225.9 374.5C223.9 369.9 211.6 373.6 206.9 370.6C204.6 369.8 203.1 368 201.1 365.9C199.1 363.8 193.4 363.7 192.5 358.6C194.9 347.7 210.6 349.4 213.2 347.7L254.2 350.5C261.6 350.3 265.8 363.7 255.8 367.7C245.8 371.7 216.1 361.7 203.3 368.7C202.6 365.8 193.3 361.6 192.7 361.4C188.7 362.6 181.1 362.2 181.1 362.2C179.2 365.7 177.1 368.2 175.2 371.7C166.7 368 158.7 374.6 149.4 372.7L134.9 374.2L125.7 373.4L111.7 377.4L121.7 368.6L112.8 362.2Z" fill="white" stroke="black" stroke-width="1.1" stroke-linejoin="round"/>
<path fill-rule="evenodd" clip-rule="evenodd" d="M112.2 360.5C112.29 361.058 112.258 361.628 112.106 362.172C111.954 362.716 111.686 363.221 111.32 363.651C110.954 364.081 110.498 364.426 109.986 364.663C109.473 364.9 108.915 365.023 108.35 365.023C107.785 365.023 107.227 364.9 106.714 364.663C106.202 364.426 105.746 364.081 105.38 363.651C105.014 363.221 104.746 362.716 104.594 362.172C104.442 361.628 104.41 361.058 104.5 360.5C104.648 359.586 105.117 358.754 105.822 358.153C106.527 357.552 107.424 357.223 108.35 357.223C109.276 357.223 110.173 357.552 110.878 358.153C111.584 358.754 112.052 359.586 112.2 360.5ZM111.2 379.6C111.2 380.635 110.789 381.626 110.058 382.358C109.326 383.089 108.334 383.5 107.3 383.5C106.266 383.5 105.274 383.089 104.542 382.358C103.811 381.626 103.4 380.635 103.4 379.6C103.4 378.566 103.811 377.574 104.542 376.842C105.274 376.111 106.266 375.7 107.3 375.7C108.334 375.7 109.326 376.111 110.058 376.842C110.789 377.574 111.2 378.566 111.2 379.6Z" fill="white" stroke="black" stroke-width="1.1"/>
<path fill-rule="evenodd" clip-rule="evenodd" d="M284.5 372.4C287 370.1 288.5 368.6 289.5 366.1L304.5 364.5L304.8 373.1L284.5 372.4Z" fill="white" stroke="black" stroke-width="1.1"/>
<path fill-rule="evenodd" clip-rule="evenodd" d="M394.2 362.3C385.5 363.9 372.4 361.5 368.2 367.1C363 372.9 384.2 381.9 381.2 386.9C374.6 393.9 367.9 391 360.5 387.2C358.8 383.4 357.5 376.7 356.5 374.7C359.2 368.6 366.4 365.5 364.5 356.2C352.4 351.7 329.1 352.1 326.5 353.8C324.5 357.7 326.4 359.5 326 362.5C328 366.5 333.1 373 333.1 376.5C320.4 381 317.1 375.8 305.6 376.1C292.2 376.3 284 379.9 281.1 374.5C283.1 369.9 295.4 373.7 300.1 370.7C302.4 369.9 303.9 368 306 366C308.1 364 313.7 363.8 314.5 358.7C312.1 347.8 296.4 349.5 293.8 347.8L252.8 350.6C245.4 350.4 241.3 363.8 251.3 367.8C261.3 371.8 290.9 361.8 303.8 368.7C304.5 365.9 313.7 361.7 314.4 361.5C318.3 362.7 326 362.3 326 362.3C327.8 365.7 330 368.3 331.9 371.8C340.4 368 348.4 374.7 357.7 372.8L372.1 374.3L381.4 373.5L395.4 377.5L385.4 368.7L394.2 362.3Z" fill="white" stroke="black" stroke-width="1.1" stroke-linejoin="round"/>
<path fill-rule="evenodd" clip-rule="evenodd" d="M394.9 360.5C394.81 361.058 394.842 361.628 394.994 362.172C395.146 362.716 395.414 363.221 395.78 363.651C396.147 364.081 396.602 364.426 397.114 364.663C397.627 364.9 398.185 365.023 398.75 365.023C399.315 365.023 399.873 364.9 400.386 364.663C400.898 364.426 401.354 364.081 401.72 363.651C402.086 363.221 402.354 362.716 402.506 362.172C402.658 361.628 402.69 361.058 402.6 360.5C402.6 359.466 402.189 358.474 401.458 357.742C400.726 357.011 399.734 356.6 398.7 356.6C397.666 356.6 396.674 357.011 395.942 357.742C395.211 358.474 394.8 359.466 394.8 360.5H394.9ZM395.9 379.7C395.81 380.258 395.842 380.828 395.994 381.372C396.146 381.916 396.414 382.421 396.78 382.851C397.147 383.281 397.602 383.626 398.114 383.863C398.627 384.1 399.185 384.223 399.75 384.223C400.315 384.223 400.873 384.1 401.386 383.863C401.898 383.626 402.354 383.281 402.72 382.851C403.086 382.421 403.354 381.916 403.506 381.372C403.658 380.828 403.69 380.258 403.6 379.7C403.452 378.786 402.984 377.953 402.278 377.353C401.573 376.752 400.677 376.423 399.75 376.423C398.824 376.423 397.927 376.752 397.222 377.353C396.517 377.953 396.048 378.786 395.9 379.7Z" fill="white" stroke="black" stroke-width="1.1"/>
<path fill-rule="evenodd" clip-rule="evenodd" d="M253.3 351.3C249.8 350.6 248.6 350.8 246.3 350.6L240.8 367.5C249.2 368.2 257.1 368.2 257.1 368.2C252 367.2 253.2 351.4 253.3 351.2V351.3Z" fill="white"/>
<path d="M217.5 363V351.5H219.5V361.1H224.9V362.9L217.5 363Z" fill="black"/>
<path d="M226.5 363.5V352H228.5V363.4L226.5 363.5Z" fill="black"/>
<path d="M235.3 364.3H231.8V353L235.2 352.8C236.333 352.8 237.2 353.033 237.8 353.5C238.467 354.1 238.8 354.866 238.8 355.8C238.8 356.666 238.367 357.366 237.5 357.9C238.9 358.433 239.6 359.433 239.6 360.9C239.6 362.033 239.2 362.9 238.4 363.5C237.667 364.033 236.667 364.3 235.4 364.3H235.3ZM233.9 354.6V357.2H234.9C236.167 357.2 236.8 356.733 236.8 355.8C236.8 355 236.2 354.6 235 354.6H234H233.9ZM233.9 358.8V362.6H234.9C235.767 362.6 236.4 362.466 236.8 362.2C237.267 362 237.5 361.533 237.5 360.8C237.5 360.133 237.3 359.666 236.9 359.4C236.567 359 235.9 358.8 234.9 358.8H233.9Z" fill="black"/>
<path d="M244.4 355.3V358.1H248.1V359.9H244.5V363.3H249.8V365H242.5V353.7H249.7V355.5L244.4 355.3Z" fill="black"/>
<path d="M259 365.2L256 360.4H254.5V365.2H252.5V354H253.8L255.6 353.8C258.533 353.8 260 354.933 260 357.2C260 357.866 259.833 358.433 259.5 358.9C259.033 359.566 258.5 360 257.9 360.2L261.5 365.3L259 365.2ZM254.5 355.6V358.6H255.5L257.2 358.5C257.667 358.233 257.9 357.766 257.9 357.1C257.9 356.433 257.733 356 257.4 355.8C256.933 355.6 256.2 355.5 255.2 355.5H254.5V355.6Z" fill="black"/>
<path d="M267.1 355.3V364.9H265.1V355.3H261.5V353.5H270.9V355.3H267.1Z" fill="black"/>
<path d="M278.7 363.3L277.8 361H273.8L273.2 363.3H270.9L275.5 351.7H276.4L281 363.3H278.7ZM275.8 355.1L274.6 359.4H277.3L275.8 355.1Z" fill="black"/>
<path d="M282.6 362.4L283.3 360.6C284.167 361.067 284.933 361.3 285.6 361.3C286.8 361.3 287.4 360.9 287.4 360.1L287 359.1L285.3 357.8L283.5 356.7L282.8 355.7L282.6 354.4C282.6 353.467 282.9 352.7 283.5 352.1C284.167 351.633 285 351.4 286 351.4C287.333 351.4 288.333 351.633 289 352.1L288.3 353.9C287.633 353.233 286.867 352.9 286 352.9C285.533 352.9 285.2 353.033 285 353.3C284.733 353.567 284.6 353.9 284.6 354.3C284.6 354.967 285.267 355.633 286.6 356.3C287.467 356.7 288.1 357.067 288.5 357.4L289.2 358.4L289.3 359.9C289.3 360.833 288.967 361.6 288.3 362.2C287.633 362.8 286.667 363.1 285.4 363.1C284.267 363.1 283.333 362.8 282.6 362.2V362.4Z" fill="black"/>
<path d="M161.9 339.8C172.7 341.1 187.6 340.2 194.1 339.8M145.7 303.1C154.7 310.3 174.6 314.5 174.3 314.5M185.6 316.5C182.7 301.5 179.5 298 176.9 288.5M130.4 271.6C145.7 278.5 148 283 157.7 289.8M163.2 274.8C164.5 256.4 167.2 251.5 171.7 247.3M130.4 245C138.23 253.498 146.131 261.932 154.1 270.3M146.7 228.1C153.5 233 153.5 250.5 153.5 250.5" stroke="#00A400" stroke-width="2.2" stroke-linecap="round"/>
</g>
<defs>
<clipPath id="clip0_103_10077">
<rect width="512" height="512" fill="white" transform="translate(0.5)"/>
</clipPath>
</defs>
</svg>
