<svg width="513" height="512" viewBox="0 0 513 512" fill="none" xmlns="http://www.w3.org/2000/svg">
<g clip-path="url(#clip0_103_11116)">
<mask id="mask0_103_11116" style="mask-type:luminance" maskUnits="userSpaceOnUse" x="0" y="0" width="513" height="513">
<path d="M0.5 0H512.51V512.01H0.5V0Z" fill="white"/>
</mask>
<g mask="url(#mask0_103_11116)">
<path fill-rule="evenodd" clip-rule="evenodd" d="M0.5 0H768.515V256.005H341.84L0.5 0Z" fill="#ED2939"/>
<path fill-rule="evenodd" clip-rule="evenodd" d="M0.5 512.01H768.515V256.005H341.84L0.5 512.01Z" fill="#002395"/>
<path fill-rule="evenodd" clip-rule="evenodd" d="M0.5 0L341.84 256.005L0.5 512.01V0Z" fill="white"/>
<path d="M172.763 193.198L172.877 189.33C172.877 189.33 170.715 185.917 173.218 182.276C173.218 182.276 167.984 179.431 169.236 175.107C169.236 175.107 164.457 173.97 164.798 168.736C164.798 168.736 159.678 168.394 159.109 163.957C159.109 163.957 153.989 164.867 151.827 160.544C151.827 160.544 146.821 161.568 145.342 158.04C145.342 158.04 140.563 159.747 137.605 155.651C137.605 155.651 132.485 157.699 130.323 153.831C128.275 157.699 123.155 155.651 123.155 155.651C120.31 159.747 115.418 157.927 115.418 157.927C114.052 161.568 109.046 160.544 109.046 160.544C106.771 164.753 101.65 163.957 101.65 163.957C101.195 168.281 95.9615 168.622 95.9615 168.622C96.1309 170.025 95.8021 171.443 95.0327 172.628C94.2633 173.814 93.102 174.691 91.7516 175.107C92.8894 179.431 87.7693 182.162 87.7693 182.162C90.2724 185.803 88.1106 189.216 88.1106 189.216V192.857L172.763 193.198Z" fill="#FFFF00"/>
<path d="M172.796 193.243V189.231C172.796 189.231 170.733 185.792 173.255 182.354C173.255 182.354 167.981 179.488 169.242 175.133C169.242 175.133 164.428 173.986 164.772 168.714C164.772 168.714 159.613 168.37 159.04 164.014C159.04 164.014 153.996 164.817 151.818 160.576C151.818 160.576 146.774 161.493 145.399 158.054C145.399 158.054 140.469 159.773 137.604 155.647C137.604 155.647 132.445 157.71 130.382 153.813C128.204 157.71 123.045 155.647 123.045 155.647C120.294 159.659 115.365 157.939 115.365 157.939C113.989 161.493 109.06 160.576 109.06 160.576C106.767 164.817 101.609 164.014 101.609 164.014C101.15 168.255 95.9917 168.599 95.9917 168.599C96.1811 170.001 95.8557 171.424 95.0758 172.605C94.2958 173.785 93.1143 174.642 91.7502 175.018C92.8965 179.374 87.738 182.125 87.738 182.125C90.26 185.793 88.0819 189.231 88.0819 189.231V192.899L172.796 193.243Z" stroke="black" stroke-width="0.343883"/>
<path d="M170.829 188.306C157.516 186.94 142.156 183.754 130.323 190.467C122.358 185.802 111.322 186.03 101.878 187.054C96.8718 187.851 90.8414 187.851 85.4938 188.761L84.6973 188.875C74.9122 189.557 66.1512 186.599 57.7314 182.958C60.4622 198.091 63.4204 213.679 64.8996 229.608C68.0854 253.046 53.7491 272.844 59.5519 296.055C63.0791 307.206 75.3673 313.691 86.6316 314.943C97.4263 315.649 108.152 317.171 118.718 319.494C120.632 319.965 122.498 320.612 124.293 321.428C126.741 322.49 128.947 324.038 130.778 325.979C136.922 319.722 145.797 318.015 154.672 317.105C170.374 315.17 189.944 316.194 199.615 301.858V301.062C204.849 293.097 204.166 281.036 201.891 272.048C201.663 268.976 200.867 266.245 200.412 263.173C190.74 237.686 199.046 209.014 203.142 183.299C198.136 186.03 192.447 187.395 186.758 188.761C182.207 189.33 177.314 189.102 172.649 188.761L170.829 188.306Z" fill="#FF0000"/>
<path d="M190.74 261.58C190.626 263.287 191.537 264.539 191.878 266.132C193.698 277.282 195.519 292.073 183.913 299.014C171.397 306.979 154.672 303.565 139.994 307.889C137.036 308.685 132.94 311.302 130.892 313.236C129.526 312.44 128.275 311.075 126.568 310.278C114.394 303.907 98.692 305.955 85.0384 302.541C78.2116 300.266 71.0435 295.032 69.223 287.977C64.7856 269.545 75.4809 253.843 74.2293 235.639C73.3558 221.969 71.2229 208.41 67.8577 195.133C78.8842 199.948 91.1534 201.143 102.902 198.546C111.777 197.408 122.244 197.408 130.437 201.049C135.225 199.232 140.24 198.084 145.342 197.636C154.786 198.546 164.912 200.253 174.583 200.253C180.822 199.797 186.919 198.176 192.561 195.474C189.147 217.092 182.775 239.848 190.626 261.467" fill="#80CFE1"/>
<path d="M171.511 265.904L171.398 245.537H173.901L142.725 225.398V215.044H145.683L130.096 203.894L114.621 215.044H117.58V225.398L86.8591 245.537H89.1347L89.3623 265.79H171.284" fill="white"/>
<path d="M171.42 265.913V245.511H173.828L142.876 225.452L142.762 215.136H145.742L130.152 203.903L114.677 215.021H117.657L117.772 225.452L86.8208 245.511H89.3427V265.799H171.42V265.913Z" stroke="black" stroke-width="1.37553"/>
<path d="M181.069 292.528V298.9H80.9424V292.415H181.069" fill="white"/>
<path d="M181.049 292.62V298.924H80.8599V292.505H181.049V292.62Z" stroke="black" stroke-width="1.37553"/>
<path d="M87.5417 292.187V270.569H91.524L91.2964 292.415L91.524 270.796L85.835 270.683V266.131H175.266V270.683H169.691H173.787V292.301" fill="white"/>
<path d="M87.5088 292.162V270.613H91.521L91.2917 292.391L91.521 270.842L85.7893 270.613V266.028L175.203 266.142V270.727H169.701L169.816 292.506L169.586 270.727H173.713L173.828 292.276" stroke="black" stroke-width="1.37553"/>
<path d="M106.767 286.889V271.874H94.616V286.774L106.652 286.889" stroke="black" stroke-width="1.37553"/>
<path d="M98.0551 274.968V283.679H103.557V274.968H97.9404M165.574 286.889L165.459 271.988H153.538V286.889H165.574Z" stroke="black" stroke-width="1.37553"/>
<path d="M156.747 275.083V283.794H162.25V275.083H156.747ZM165.459 262.475V247.574H153.423V262.475H165.459Z" stroke="black" stroke-width="1.37553"/>
<path d="M156.633 250.668V259.38H162.135V250.668H156.633ZM106.652 262.474V247.459H94.616V262.36H106.652V262.474Z" stroke="black" stroke-width="1.37553"/>
<path d="M128.433 262.474V247.459H116.396V262.36H128.433M97.9404 250.554V259.265H103.443V250.554H97.9404Z" stroke="black" stroke-width="1.37553"/>
<path d="M119.606 250.554V259.265H125.108V250.554H119.606ZM145.169 262.474V247.574L133.133 247.459V262.36L145.169 262.474Z" stroke="black" stroke-width="1.37553"/>
<path d="M136.343 250.554V259.265H141.96V250.554H136.343Z" stroke="black" stroke-width="1.37553"/>
<path d="M148.187 257.939L148.3 292.529H113.597L113.484 257.826H148.187" fill="white"/>
<path d="M113.187 267.747H148.264M117.543 292.506V267.977M144.023 292.506V268.091M148.15 257.89L148.264 292.506H113.53L113.416 257.89H148.15ZM160.874 243.104L141.386 228.89H119.262L99.7744 243.104H160.874ZM120.982 216.97V225.681H139.552V216.97H120.982Z" stroke="black" stroke-width="1.37553"/>
<path d="M130.152 206.883L140.469 214.219H119.95L130.267 206.883M126.026 219.147V223.503H134.508V219.147H126.026Z" stroke="black" stroke-width="1.37553"/>
<path d="M171.853 202.073C174.811 202.073 175.494 214.134 175.494 220.164C179.561 221.748 183.19 224.284 186.075 227.56H157.858C160.678 224.314 164.226 221.78 168.212 220.164C168.212 214.134 168.894 201.959 171.853 202.073Z" fill="white"/>
<path d="M137.833 258.807H140.355L139.552 260.297C139.552 260.297 140.813 261.787 139.552 263.621L140.24 264.767H137.947L138.521 263.621C138.521 263.621 137.374 261.558 138.521 260.182L137.833 258.921M171.764 202.069C174.745 202.069 175.433 214.104 175.433 220.179C177.954 220.867 183.572 224.42 185.979 227.515H157.779C160.186 224.42 165.803 220.867 168.211 220.179C168.211 214.104 168.898 202.069 171.764 202.069ZM115.021 258.807H117.543L116.855 260.182C116.855 260.182 118.001 261.787 116.855 263.621L117.543 264.767H115.021L115.709 263.621C115.709 263.621 114.562 261.558 115.709 260.182L115.021 258.807ZM120.179 258.807H122.701L122.013 260.182C122.013 260.182 123.16 261.787 122.013 263.621L122.701 264.767H120.179L120.867 263.621C120.867 263.621 119.721 261.558 120.867 260.182L120.179 258.807ZM125.911 258.807H128.318L127.63 260.182C127.63 260.182 128.777 261.787 127.63 263.621L128.318 264.767H125.911L126.484 263.621C126.484 263.621 125.338 261.558 126.484 260.182L125.796 258.807H125.911ZM132.216 258.807H134.738L133.935 260.297C133.935 260.297 135.196 261.787 133.935 263.621L134.623 264.767H132.216L132.904 263.621C132.904 263.621 131.757 261.558 132.904 260.182L132.216 258.921V258.807ZM143.45 258.921H145.972L145.169 260.297C145.169 260.297 146.43 261.787 145.169 263.621L145.857 264.767H143.564L144.138 263.621C144.138 263.621 142.991 261.558 144.138 260.182L143.45 258.921Z" stroke="black" stroke-width="1.37553"/>
<path d="M131.006 336.789C143.446 337.114 155.825 334.948 167.415 330.417L184.027 328.938L184.255 348.963C170.374 356.7 138.174 358.407 131.006 358.293C123.951 358.293 91.2965 356.7 77.3015 348.963L77.5291 328.824L94.0272 330.303C105.818 334.846 118.371 337.086 131.006 336.903" fill="#FFFF00"/>
<path d="M130.955 336.864C144.023 336.864 159.957 334.228 167.523 330.33L183.915 328.955L184.259 349.014C170.389 356.693 138.062 358.413 131.069 358.298C123.962 358.298 91.2916 356.693 77.1917 348.899L77.4209 328.84L93.9281 330.33C101.494 334.228 118.001 336.864 130.955 336.864Z" stroke="black" stroke-width="0.343883"/>
<path d="M34.8616 251.112L49.4255 255.664L44.9881 279.216L31.3345 281.378C31.3345 281.378 29.0589 268.976 34.8616 251.112Z" fill="#FFFF00"/>
<path d="M34.8919 251.127L49.3358 255.712L44.9797 279.209L31.2237 281.387C31.2237 281.387 28.931 269.008 34.8919 251.127Z" stroke="black" stroke-width="0.343883"/>
<path d="M44.9881 278.989L31.3345 281.378L39.9818 268.976L44.9881 278.989Z" fill="#7E7E7E"/>
<path d="M44.9797 278.98L31.2236 281.272L39.9358 269.008L44.9797 278.98Z" stroke="black" stroke-width="0.343883"/>
<path d="M26.2143 268.065L40.2093 269.089C40.5506 280.923 41.916 326.093 95.9615 328.596L94.2548 345.094C28.4899 345.777 23.5974 289.57 26.2143 268.065Z" fill="#FFFF00"/>
<path d="M77.5355 348.441L94.0427 344.888M26.1798 268.091L40.165 269.008C40.5089 280.928 41.8846 326.09 95.9915 328.611L94.272 345.117C28.4725 345.804 23.5432 289.64 26.1798 268.091Z" stroke="black" stroke-width="0.343883"/>
<path d="M225.898 251.226L211.448 255.777L215.999 279.33L229.767 281.605C229.767 281.605 232.042 269.09 225.898 251.226Z" fill="#FFFF00"/>
<path d="M225.871 251.242L211.427 255.827L216.013 279.324L229.769 281.617C229.769 281.617 232.061 269.237 225.871 251.242Z" stroke="black" stroke-width="0.343883"/>
<path d="M215.999 279.102L229.767 281.492L221.006 269.204L215.999 279.102Z" fill="#7E7E7E"/>
<path d="M216.013 279.095L229.769 281.502L220.942 269.237L216.013 279.095Z" stroke="black" stroke-width="0.343883"/>
<path d="M234.773 268.18L220.778 269.204C220.55 281.037 219.526 326.321 165.481 328.711L167.301 345.095C233.066 345.891 237.617 289.684 234.773 268.18Z" fill="#FFFF00"/>
<path d="M184.03 348.441L167.523 345.002M234.698 268.206L220.713 269.123C220.483 281.043 219.566 326.319 165.459 328.726L167.294 345.117C233.093 345.919 237.564 289.754 234.698 268.32V268.206Z" stroke="black" stroke-width="0.343883"/>
<path d="M122.245 346.801C121.903 347.029 121.334 347.029 120.765 347.029L118.149 346.915L118.376 343.616L120.993 343.729C121.448 343.729 121.903 343.957 122.131 344.071C122.7 344.298 122.927 344.867 122.814 345.55C122.814 346.119 122.586 346.574 122.245 346.688M117.807 351.921L118.149 347.939L121.107 348.167C121.923 348.219 122.73 347.977 123.382 347.484C123.838 346.915 124.179 346.346 124.179 345.55C124.225 345.179 124.188 344.803 124.07 344.448C123.952 344.094 123.756 343.771 123.496 343.502C122.93 343.002 122.204 342.72 121.448 342.705L117.125 342.478L116.556 351.808H117.807M127.365 344.071H130.551L131.688 344.298C132.03 344.526 132.257 344.981 132.257 345.664C132.257 346.346 132.143 346.801 131.802 347.029C131.461 347.257 130.892 347.37 130.323 347.37H127.251V344.071M127.251 352.377V348.394H130.209C130.778 348.394 131.233 348.394 131.461 348.622C131.916 348.736 132.143 349.191 132.143 349.76V351.353L132.257 352.149L132.371 352.49H133.964V352.263C133.848 352.211 133.747 352.132 133.668 352.033C133.588 351.935 133.534 351.818 133.509 351.694V349.646C133.509 349.077 133.281 348.622 133.054 348.508C132.866 348.203 132.588 347.964 132.257 347.825L133.395 347.029L133.623 345.55C133.623 344.526 133.167 343.729 132.257 343.388C131.679 343.154 131.06 343.038 130.437 343.047H125.999V352.377H127.251ZM137.264 350.442C136.655 349.7 136.296 348.784 136.24 347.825C136.24 346.46 136.467 345.55 137.036 344.867C137.605 344.071 138.401 343.729 139.425 343.729C140.563 343.729 141.246 343.957 141.929 344.64C142.497 345.208 142.953 346.119 143.066 347.257C143.066 348.281 142.839 349.191 142.384 349.987C141.815 350.784 141.132 351.239 139.881 351.353C138.743 351.353 137.832 351.125 137.264 350.442ZM135.671 344.526C135.054 345.51 134.774 346.668 134.874 347.825C134.912 349.089 135.395 350.298 136.24 351.239C136.715 351.665 137.274 351.987 137.882 352.183C138.49 352.379 139.132 352.445 139.767 352.377C140.465 352.399 141.159 352.256 141.792 351.959C142.424 351.663 142.978 351.221 143.408 350.67C144.089 349.626 144.409 348.386 144.318 347.143C144.32 345.981 143.918 344.855 143.18 343.957C142.27 342.933 140.905 342.478 139.312 342.592C137.605 342.592 136.467 343.274 135.671 344.526ZM179.704 330.986C180.497 330.821 181.319 330.86 182.093 331.1C183.231 331.441 183.913 332.238 184.369 333.375L183.003 333.603C182.915 333.311 182.769 333.039 182.573 332.805C182.378 332.57 182.137 332.377 181.865 332.238C181.244 332.02 180.574 331.98 179.931 332.124C179.501 332.162 179.085 332.294 178.712 332.51C178.338 332.726 178.017 333.022 177.769 333.375C177.314 334.172 177.2 335.082 177.428 336.447C177.542 337.585 177.997 338.382 178.566 338.951C179.248 339.633 180.045 339.861 181.183 339.633C181.985 339.528 182.717 339.121 183.231 338.495C183.686 338.04 183.913 337.13 183.686 336.106L180.728 336.561L180.5 335.537L184.71 334.854L185.506 339.861H184.71L184.255 338.723C183.946 339.167 183.561 339.552 183.117 339.861C182.526 340.339 181.82 340.653 181.069 340.771C179.995 340.937 178.899 340.694 177.997 340.088C177.466 339.675 177.022 339.16 176.69 338.574C176.358 337.989 176.145 337.343 176.063 336.675C175.916 336.017 175.901 335.337 176.018 334.673C176.135 334.009 176.382 333.375 176.745 332.806C177.075 332.305 177.511 331.882 178.022 331.567C178.533 331.253 179.107 331.054 179.704 330.986ZM189.261 330.303L192.219 329.165C192.583 329.031 192.974 328.992 193.357 329.052C193.812 329.052 194.267 329.393 194.495 330.076C194.722 330.645 194.722 331.1 194.495 331.441L193.243 332.238L190.399 333.375L189.261 330.303ZM192.219 338.04L190.74 334.286L193.585 333.262C193.948 333.121 194.333 333.044 194.722 333.034C195.178 333.034 195.519 333.375 195.86 333.944L196.429 335.423L196.771 336.106L196.998 336.334L198.477 335.765V335.651C198.25 335.651 198.022 335.423 197.795 335.196L197.453 334.513L196.998 333.375C196.771 332.806 196.543 332.465 196.202 332.238C195.881 332.087 195.532 332.009 195.178 332.01C195.519 331.669 195.747 331.327 195.86 330.872C195.95 330.415 195.911 329.943 195.747 329.507C195.291 328.483 194.609 327.914 193.585 327.914C193.13 327.914 192.447 327.914 191.764 328.141L187.554 329.734L190.968 338.495L192.219 338.04ZM203.142 333.489L197.795 325.525L203.711 321.77L204.394 322.794L199.501 325.866L201.208 328.141L205.645 325.411L206.214 326.321L201.777 329.165L203.597 331.782L208.49 328.597L209.173 329.507L203.142 333.375M207.921 319.608L209.4 317.901C210.083 317.105 210.879 316.763 211.676 316.877C212.661 316.998 213.58 317.437 214.293 318.129C214.945 318.704 215.419 319.454 215.658 320.291C215.886 320.86 215.772 321.428 215.658 321.884L214.975 322.68L213.382 324.387L207.921 319.608ZM215.886 323.249C217.023 322.111 217.365 320.746 216.682 319.267C216.282 318.395 215.7 317.619 214.975 316.991C214.129 316.21 213.05 315.731 211.903 315.626C211.301 315.571 210.694 315.667 210.137 315.905C209.581 316.143 209.093 316.517 208.717 316.991L206.1 319.722L213.382 326.093L215.999 323.249M221.575 315.967L213.269 311.074L213.951 309.937L222.257 314.829L221.575 315.967ZM224.874 310.278L215.772 306.751L218.503 300.379L219.64 300.834L217.365 306.068L220.095 307.092L222.143 302.313L223.281 302.769L221.233 307.547L224.192 308.685L226.467 303.451L227.605 303.906L224.874 310.278ZM228.97 299.241L219.527 297.193L219.868 295.714L228.515 292.756L220.892 291.163L221.119 290.025L230.563 291.959L230.336 293.439L221.575 296.397L229.198 298.104L228.97 299.241ZM228.174 287.294L228.288 286.157C228.856 286.157 229.425 286.157 229.653 285.815C230.336 285.474 230.791 284.791 230.791 283.767V282.402C230.563 281.605 230.108 281.264 229.425 281.15C228.856 281.15 228.515 281.15 228.288 281.492C228.06 281.833 227.719 282.288 227.605 282.971L227.15 284.109L226.353 285.929C225.898 286.498 225.216 286.726 224.419 286.612C224.016 286.578 223.626 286.46 223.272 286.264C222.919 286.067 222.612 285.798 222.371 285.474C221.802 284.905 221.688 284.109 221.802 282.971C221.802 282.061 222.143 281.264 222.712 280.581C223.281 280.013 224.078 279.671 225.102 279.785V280.923C224.533 280.923 224.078 281.037 223.85 281.264C223.281 281.605 222.94 282.174 222.94 283.198C222.826 283.881 222.94 284.336 223.167 284.791C223.509 285.133 223.85 285.36 224.305 285.36C224.76 285.36 225.102 285.36 225.443 284.905L226.126 283.312L226.467 282.061C226.695 281.378 226.922 280.923 227.264 280.581C227.532 280.322 227.856 280.126 228.21 280.008C228.565 279.89 228.941 279.853 229.312 279.899C230.449 280.013 231.132 280.468 231.587 281.264C231.929 282.061 232.042 282.971 231.929 283.995C231.939 284.487 231.843 284.976 231.646 285.428C231.45 285.88 231.158 286.284 230.791 286.612C230.424 286.898 230.003 287.106 229.553 287.223C229.103 287.341 228.634 287.365 228.174 287.294ZM32.586 286.726L32.8135 287.863C32.3584 287.977 31.9033 288.205 31.6757 288.546C30.993 289.001 30.8793 289.684 30.993 290.822L31.4482 292.073C31.9033 292.756 32.4722 293.097 33.1549 292.983C33.61 292.87 33.9513 292.642 34.1789 292.301L34.4064 290.708V289.343L34.8616 287.522C35.0891 286.953 35.658 286.498 36.4545 286.384C36.8524 286.312 37.2613 286.325 37.6537 286.423C38.0461 286.521 38.413 286.702 38.7301 286.953C39.4128 287.408 39.8679 288.091 39.8679 289.229C40.0047 289.658 40.055 290.111 40.0159 290.56C39.9769 291.009 39.8492 291.446 39.6403 291.846C39.299 292.528 38.6163 292.983 37.5923 293.211L37.3647 292.073C37.8198 291.846 38.1612 291.732 38.5025 291.391C38.8439 290.935 38.9576 290.253 38.8439 289.343C38.7301 288.66 38.5025 288.205 38.0474 287.863C37.8916 287.731 37.7101 287.632 37.5143 287.573C37.3184 287.515 37.1126 287.497 36.9096 287.522C36.6984 287.556 36.5009 287.648 36.3399 287.789C36.1789 287.93 36.0609 288.114 35.9994 288.318C35.8156 288.868 35.7384 289.447 35.7718 290.025V291.391C35.7532 291.951 35.5969 292.498 35.3167 292.983C35.1411 293.293 34.8952 293.558 34.5988 293.756C34.3024 293.953 33.9637 294.078 33.61 294.121C32.4722 294.349 31.6757 294.121 31.1068 293.439C30.4961 292.73 30.1012 291.861 29.969 290.935C29.7146 289.979 29.8368 288.96 30.3104 288.091C30.5635 287.708 30.8993 287.386 31.2931 287.15C31.6869 286.914 32.1287 286.769 32.586 286.726ZM32.0171 299.128L41.2332 296.283L43.5088 302.769L42.371 303.224L40.5506 297.876L37.7061 298.672L39.299 303.565L38.1612 303.906L36.682 299.014L33.4962 299.924L35.3167 305.385L34.1789 305.727L32.0171 299.128ZM36.1131 310.392L44.6466 305.841L45.5569 307.434L39.6403 313.578L48.1738 312.212L49.0841 313.691L40.5506 318.243L39.9817 317.105L44.988 314.488L45.8982 314.033L47.1498 313.35L38.6163 314.829L38.0474 313.691L43.8502 307.547L43.5088 307.775L42.5986 308.23C42.3103 308.443 42.006 308.633 41.6884 308.799L36.682 311.416L36.1131 310.278M51.9286 322.794C51.4734 322.794 51.1321 322.566 50.677 322.111L48.8565 320.291L51.2459 318.015L53.0664 319.836L53.749 320.86C53.9766 321.428 53.7491 321.997 53.2939 322.339C52.8388 322.794 52.3837 323.021 51.9286 322.908M45.1018 323.704L48.06 320.973L50.1081 323.249C50.6985 323.798 51.4644 324.121 52.2699 324.159C53.0056 324.107 53.6954 323.783 54.2042 323.249C54.7731 322.68 55.1144 322.111 55.1144 321.315C55.1144 320.632 54.7731 320.063 54.2042 319.38L51.2459 316.308L44.1915 322.794L45.1018 323.704ZM53.6353 331.214L58.6416 323.249L64.6719 326.89L64.103 327.914L59.0967 324.956L57.6176 327.345L62.1688 330.076L61.4861 330.986L56.9349 328.255L55.2282 330.986L60.2345 333.944L59.6656 334.968L53.5215 331.214M68.6542 329.734L71.7263 330.645L72.6365 331.214C72.9779 331.555 73.0916 332.124 72.8641 332.693C72.7503 333.262 72.409 333.603 71.9538 333.83L70.4747 333.717L67.6302 332.806L68.6542 329.734ZM66.0373 337.585L67.1751 333.717L70.1334 334.627L71.2712 335.196C71.4987 335.537 71.6125 335.992 71.3849 336.561L71.0436 337.927L70.816 338.723V338.951L72.409 339.519V339.292L72.1814 338.609C72.1814 338.495 72.1814 338.154 72.409 337.813L72.7503 336.675C72.8641 336.106 72.9779 335.765 72.7503 335.537C72.6503 335.186 72.4531 334.871 72.1814 334.627C72.6365 334.513 73.0916 334.399 73.433 334.058C73.7743 333.83 74.0019 333.375 74.2295 332.92C74.5708 331.782 74.3432 330.986 73.6606 330.303C73.2054 330.076 72.7503 329.734 71.9538 329.507L67.744 328.141L64.7857 337.016L65.9235 337.471" fill="#009FC5"/>
<path d="M79.0081 175.676C80.1459 172.945 90.2724 165.777 123.837 168.849C123.837 168.849 129.526 172.377 132.826 171.921C134.647 171.694 131.688 172.035 129.185 169.987C126.682 167.939 126.113 163.729 131.916 163.843C137.605 163.957 159.223 165.208 159.564 167.143C159.906 169.077 148.186 169.873 143.863 169.76C139.425 169.76 139.994 171.921 144.318 171.694C157.971 171.239 172.763 166.46 188.692 177.61C190.513 178.862 183.8 179.09 178.679 176.928C178.679 176.928 164.798 177.724 158.882 176.7C158.882 176.7 154.331 180.455 148.186 180.114C148.983 182.048 145.911 189.216 127.137 183.868C123.951 184.779 112.687 186.713 113.825 183.299C110.867 183.299 105.633 184.21 104.836 182.503C104.154 180.91 114.052 178.293 115.873 176.473C115.873 176.473 94.7098 176.7 90.7275 175.335C90.7275 175.335 78.2117 178.066 79.0081 175.676Z" fill="#BC715F"/>
<path d="M85.835 205.259C86.1764 204.69 86.4039 203.552 87.3142 203.552C89.476 204.121 90.8414 207.99 93.4583 205.487C94.3685 205.259 94.5961 206.511 95.3926 206.624C95.9615 208.786 97.6682 206.283 98.806 206.397C101.792 205.155 105.082 204.838 108.25 205.487C108.25 207.535 106.657 209.81 104.609 211.062C104.609 213.11 106.543 214.475 106.543 216.637C106.202 217.434 106.543 218.685 105.405 218.913C103.812 218.571 102.333 218.458 101.082 217.661C100.854 217.434 100.74 217.206 100.513 217.206C100.285 218.002 101.423 218.685 101.878 219.482C101.082 220.619 99.83 219.482 98.806 219.482C98.4646 220.278 98.806 221.188 98.0095 221.757C96.6441 221.643 96.3028 220.164 95.5063 219.482C94.7099 220.392 96.189 220.961 96.3028 221.643C95.8477 224.374 95.8477 227.105 93.117 228.925L91.2965 229.836C90.8414 228.356 91.0689 226.308 90.7276 224.829C89.5898 226.65 88.7933 228.243 87.3142 229.722C85.3799 229.039 84.2421 226.877 83.9008 225.057C83.4891 223.995 83.399 222.835 83.6418 221.722C83.8846 220.61 84.4495 219.593 85.2661 218.799C84.6972 217.661 82.6492 218.002 82.4216 216.41C79.4634 214.475 77.8704 219.823 75.9362 216.978C75.633 215.645 75.6502 214.259 75.9865 212.934C76.3227 211.609 76.9684 210.382 77.8704 209.355C77.5291 208.217 76.1637 208.559 75.3673 207.99C73.433 206.397 70.8161 204.804 70.9299 201.959C73.4519 201.031 76.1879 200.849 78.8108 201.434C81.4338 202.019 83.8328 203.347 85.7213 205.259" fill="#008737"/>
<path d="M88.3382 205.032C88.3382 207.307 89.9312 205.601 91.1827 206.966C90.1587 206.625 89.476 208.673 88.5658 207.535L87.8831 208.104C88.2245 208.9 89.0209 209.014 88.2245 209.811C87.2004 210.266 87.0867 208.9 86.5178 208.445C86.5178 208.218 86.6315 207.763 86.2902 207.649C85.7213 208.104 85.1524 208.331 84.2422 208.218C84.0146 207.763 83.5595 207.08 84.0146 206.852C84.8111 205.714 86.0626 207.194 86.6315 206.511C86.7453 205.828 86.1764 205.032 86.9729 204.463C87.428 204.577 88.1107 204.349 88.3382 204.918M94.5961 206.852C94.5961 207.307 94.3686 207.99 94.9375 208.218C95.7339 207.876 96.5304 208.218 96.9855 208.9C96.9855 209.355 97.0993 209.811 96.5304 210.038L95.3926 209.811C95.3926 209.583 95.0513 209.469 94.9375 209.242C94.3686 209.014 94.141 209.469 93.7997 209.697C94.0272 210.152 94.7099 210.493 94.4824 211.062C93.7997 211.745 93.4583 210.379 92.6619 210.721C92.2068 210.493 92.8894 209.469 92.093 209.128C91.069 209.128 91.7516 210.721 90.5001 210.152C90.0449 209.583 89.5898 209.014 90.1587 208.331C90.4486 208.177 90.7791 208.116 91.105 208.157C91.4309 208.198 91.7362 208.338 91.9792 208.559C92.7757 207.763 92.7757 204.463 94.5961 206.852ZM86.8591 210.266C87.3142 210.948 86.7453 211.972 87.3142 212.769C88.452 210.835 89.3623 213.224 90.6138 212.996C90.9552 213.452 90.6138 214.134 90.7276 214.589C89.2485 215.044 87.428 215.5 86.1764 214.248L85.7213 214.703C86.5178 215.386 87.3142 216.296 86.6315 217.548C85.4937 217.775 83.787 217.775 83.2181 216.637C82.9906 215.613 83.9008 214.931 82.8768 214.248C82.1941 215.158 82.1941 216.41 80.6012 215.5C80.381 215.391 80.185 215.24 80.0248 215.054C79.8647 214.868 79.7438 214.652 79.6694 214.418C79.595 214.184 79.5687 213.937 79.5919 213.693C79.6152 213.449 79.6876 213.212 79.8047 212.996C80.9425 211.403 82.6492 212.996 83.6733 212.2C83.9008 210.835 83.3319 209.697 84.5835 208.9C85.7213 208.787 86.1764 209.583 86.8591 210.266Z" fill="#FFFF00"/>
<path d="M91.0689 211.062C90.6138 213.338 88.7933 210.948 87.9968 210.835C89.1346 208.9 89.8173 211.517 91.0689 211.062ZM96.5303 213.565C95.3925 213.907 95.3925 212.427 94.8236 211.859L95.3925 211.403L96.5303 213.679" fill="white"/>
<path d="M94.9374 213.11C95.165 213.906 94.0272 214.589 95.0512 215.158L95.8477 214.361C96.7579 214.589 97.6682 214.817 98.2371 215.499C98.9197 217.32 97.0992 217.32 96.189 217.775H95.2788C95.5063 217.206 94.8236 216.978 94.5961 216.637C94.3991 216.588 94.1913 216.606 94.0057 216.688C93.8202 216.771 93.6675 216.913 93.5721 217.092C93.7996 218.23 95.165 219.026 93.6859 219.937C92.5481 219.937 90.8414 220.392 90.9551 218.799C90.5 217.889 92.0929 216.523 90.3862 216.523C89.8173 217.661 89.2484 218.799 87.7693 217.661L87.8831 215.954C89.2484 215.954 90.9551 216.182 91.6378 214.589C91.9791 213.451 90.9551 212.427 91.8654 211.517C93.3445 211.176 94.141 212.2 94.8237 213.11" fill="#FFFF00"/>
<path d="M93.7996 215.727C94.2547 216.637 93.2307 216.637 92.6618 217.092C92.0929 217.092 91.7516 216.865 91.2964 216.41C91.0689 215.386 91.8653 215.272 92.4342 214.93C93.1169 214.589 93.3445 215.386 93.7996 215.727Z" fill="black"/>
<path d="M93.0033 216.182C92.8895 216.524 92.6619 216.41 92.4344 216.524L92.2068 215.386C92.6619 215.386 93.2308 215.613 93.0033 216.296" fill="white"/>
</g>
</g>
<defs>
<clipPath id="clip0_103_11116">
<rect width="512" height="512" fill="white" transform="translate(0.5)"/>
</clipPath>
</defs>
</svg>
