<svg width="513" height="512" viewBox="0 0 513 512" fill="none" xmlns="http://www.w3.org/2000/svg">
<g clip-path="url(#clip0_103_11173)">
<path d="M0.5 0H512.5V512H0.5V0Z" fill="#3E5EB9"/>
<path d="M0.5 96H512.5V416H0.5V96Z" fill="#FFD900"/>
<path d="M0.5 128H512.5V384H0.5V128Z" fill="#B10C0C"/>
<path d="M444.134 210.951L420.172 219.431L444.035 227.812L467.997 219.431L444.134 210.951Z" fill="white" stroke="black" stroke-width="0.98607"/>
<path d="M428.258 216.571H82.2463C80.558 216.571 79.1895 217.83 79.1895 219.382C79.1895 220.934 80.558 222.192 82.2463 222.192H428.258C429.946 222.192 431.315 220.934 431.315 219.382C431.315 217.83 429.946 216.571 428.258 216.571Z" fill="#FFD900" stroke="black" stroke-width="0.98607"/>
<path d="M422.933 222.192C423.668 222.169 424.367 221.874 424.896 221.363C425.425 220.853 425.744 220.164 425.793 219.431C425.768 218.68 425.459 217.967 424.928 217.436C424.397 216.905 423.684 216.596 422.933 216.571M420.172 222.192C420.889 222.145 421.565 221.84 422.073 221.332C422.581 220.824 422.887 220.148 422.933 219.431C422.911 218.696 422.615 217.997 422.105 217.468C421.594 216.94 420.906 216.62 420.172 216.571M417.313 222.192C418.047 222.169 418.747 221.874 419.275 221.363C419.804 220.853 420.124 220.164 420.172 219.431C420.148 218.68 419.839 217.967 419.308 217.436C418.777 216.905 418.063 216.596 417.313 216.571" fill="#FFD900"/>
<path d="M422.933 222.192C423.668 222.169 424.367 221.874 424.896 221.363C425.425 220.853 425.744 220.164 425.793 219.431C425.768 218.68 425.459 217.967 424.928 217.436C424.397 216.905 423.684 216.596 422.933 216.571M420.172 222.192C420.889 222.145 421.565 221.84 422.073 221.332C422.581 220.824 422.887 220.148 422.933 219.431C422.911 218.696 422.615 217.997 422.105 217.468C421.594 216.94 420.906 216.62 420.172 216.571M417.313 222.192C418.047 222.169 418.747 221.874 419.275 221.363C419.804 220.853 420.124 220.164 420.172 219.431C420.148 218.68 419.839 217.967 419.308 217.436C418.777 216.905 418.063 216.596 417.313 216.571" stroke="black" stroke-width="0.98607"/>
<path d="M421.159 227.812L397.197 236.293L421.06 244.674L445.021 236.293L421.159 227.812Z" fill="white" stroke="black" stroke-width="0.98607"/>
<path d="M405.283 233.433H59.2708C57.5826 233.433 56.214 234.691 56.214 236.243C56.214 237.795 57.5826 239.054 59.2708 239.054H405.283C406.971 239.054 408.34 237.795 408.34 236.243C408.34 234.691 406.971 233.433 405.283 233.433Z" fill="#FFD900" stroke="black" stroke-width="0.98607"/>
<path d="M399.958 239.054C400.692 239.031 401.392 238.735 401.921 238.225C402.449 237.715 402.769 237.026 402.818 236.293C402.793 235.542 402.484 234.829 401.953 234.298C401.422 233.767 400.709 233.458 399.958 233.433M397.197 239.054C397.914 239.007 398.59 238.702 399.098 238.193C399.606 237.685 399.912 237.01 399.958 236.293C399.935 235.558 399.64 234.859 399.129 234.33C398.619 233.801 397.93 233.482 397.197 233.433M394.337 239.054C395.072 239.031 395.771 238.735 396.3 238.225C396.829 237.715 397.148 237.026 397.197 236.293C397.172 235.542 396.863 234.829 396.332 234.298C395.801 233.767 395.088 233.458 394.337 233.433" fill="#FFD900"/>
<path d="M399.958 239.054C400.692 239.031 401.392 238.735 401.921 238.225C402.449 237.715 402.769 237.026 402.818 236.293C402.793 235.542 402.484 234.829 401.953 234.298C401.422 233.767 400.709 233.458 399.958 233.433M397.197 239.054C397.914 239.007 398.59 238.702 399.098 238.193C399.606 237.685 399.912 237.01 399.958 236.293C399.935 235.558 399.64 234.859 399.129 234.33C398.619 233.801 397.93 233.482 397.197 233.433M394.337 239.054C395.072 239.031 395.771 238.735 396.3 238.225C396.829 237.715 397.148 237.026 397.197 236.293C397.172 235.542 396.863 234.829 396.332 234.298C395.801 233.767 395.088 233.458 394.337 233.433" stroke="black" stroke-width="0.98607"/>
<path d="M491.86 251.774H21.2085C18.9212 251.774 17.067 253.672 17.067 256.014C17.067 258.356 18.9212 260.254 21.2085 260.254H491.86C494.147 260.254 496.001 258.356 496.001 256.014C496.001 253.672 494.147 251.774 491.86 251.774Z" fill="#FFD900" stroke="black" stroke-width="1.08468"/>
<path d="M394.7 256C366.6 284.2 329 340.5 253.9 340.5C188.1 340.5 141.2 284.2 112.9 256C141.2 227.8 188.1 171.5 253.9 171.5C328.9 171.5 366.6 227.8 394.7 256Z" fill="white" stroke="black"/>
<path d="M244 200.9C251.5 209.3 245.3 212.7 253.2 213.3C261.6 213.9 256.8 222.2 263.9 222.5C268.8 222.7 263.4 242.3 268.1 248.8C272.9 255.6 277 250.8 277.1 255.7C277.1 260.7 263.9 260.2 263.7 275.7C263.3 284.7 252.5 285.3 252 291.1C251.4 296.5 273.2 299.6 273 304.4C272.6 309.3 249.4 308.5 248.3 314C247.8 319 280.3 323 283 337.4C273.448 339.525 263.686 340.565 253.9 340.5C188.1 340.5 141.2 284.2 113 256C141.2 227.8 188.1 171.5 253.9 171.5C253.9 171.5 234.4 189.3 244 200.9Z" fill="black"/>
<path d="M169.119 248.52V225.939V248.52ZM182.727 225.939V248.52V225.939ZM196.335 225.939V248.52V225.939Z" fill="black"/>
<path d="M169.119 248.52V225.939M182.727 225.939V248.52M196.335 225.939V248.52" stroke="white" stroke-width="6.80388"/>
<path d="M169.119 286.089V263.508V286.089ZM182.727 263.508V286.089V263.508ZM196.335 263.508V286.089V263.508Z" fill="black"/>
<path d="M169.119 286.089V263.508M182.727 263.508V286.089M196.335 263.508V286.089" stroke="white" stroke-width="6.80388"/>
<path d="M210.14 248.52V225.939V248.52ZM223.747 225.939V248.52V225.939ZM237.355 225.939V248.52V225.939Z" fill="black"/>
<path d="M210.14 248.52V225.939M223.747 225.939V248.52M237.355 225.939V248.52" stroke="white" stroke-width="6.80388"/>
<path d="M210.14 286.089V263.508V286.089ZM223.747 263.508V286.089V263.508ZM237.355 263.508V286.089V263.508Z" fill="black"/>
<path d="M210.14 286.089V263.508M223.747 263.508V286.089M237.355 263.508V286.089" stroke="white" stroke-width="6.80388"/>
<path d="M272.459 248.52V225.939V248.52ZM286.067 225.939V248.52V225.939ZM299.675 225.939V248.52V225.939Z" fill="black"/>
<path d="M272.459 248.52V225.939M286.067 225.939V248.52M299.675 225.939V248.52" stroke="black" stroke-width="6.80388"/>
<path d="M272.459 286.089V263.508V286.089ZM286.067 263.508V286.089V263.508ZM299.675 263.508V286.089V263.508Z" fill="black"/>
<path d="M272.459 286.089V263.508M286.067 263.508V286.089M299.675 263.508V286.089" stroke="black" stroke-width="6.80388"/>
<path d="M313.48 248.52V225.939V248.52ZM327.087 225.939V248.52V225.939ZM340.695 225.939V248.52V225.939Z" fill="black"/>
<path d="M313.48 248.52V225.939M327.087 225.939V248.52M340.695 225.939V248.52" stroke="black" stroke-width="6.80388"/>
<path d="M313.48 286.089V263.508V286.089ZM327.087 263.508V286.089V263.508ZM340.695 263.508V286.089V263.508Z" fill="black"/>
<path d="M313.48 286.089V263.508M327.087 263.508V286.089M340.695 263.508V286.089" stroke="black" stroke-width="6.80388"/>
<path d="M462.3 252.7C458 260 465.6 250.2 484 262.5C485.875 264.048 487.411 265.966 488.512 268.134C489.613 270.302 490.256 272.673 490.4 275.1C489.5 274.6 488.9 273.3 487.9 272.5C486.6 273.8 489.3 279.9 489.6 282.8C486.7 281.2 487 280.5 486 278.5C486.2 280.9 485.5 287.5 486.7 290C484.4 289.3 484.6 287.5 483.4 287.2C484.2 290 482.7 293.1 483.1 296.4C481.8 295.1 480.3 294 479.7 293.4C479.6 295.1 477.2 299.1 477.1 300.5C476.686 300.228 476.331 299.875 476.057 299.463C475.782 299.05 475.592 298.587 475.5 298.1C472.847 301.205 470.596 304.632 468.8 308.3C465 304.9 455.2 296.7 453.9 292.3C452.8 294.8 451.1 295.6 447.9 297.4C446.7 290.5 441.9 282.8 444.4 276.8C442.677 277.884 441.008 279.052 439.4 280.3C440.866 274.246 443.702 268.61 447.69 263.825C451.677 259.04 456.71 255.234 462.4 252.7H462.3Z" fill="#333333" stroke="black" stroke-width="0.9"/>
<path d="M446.4 289.3C448.2 285.7 449.8 284.6 451 282.3C453 278.3 453.3 275.1 455 275.6C456.8 276.1 456.8 277.7 454.5 281.6C452.3 285.6 451.2 286.5 446.4 289.3ZM458.4 297.7C458.2 295.1 459 293.9 458.8 292.2C458.6 289.1 457.3 287 459 286.8C460.5 286.8 461.3 287.8 461.3 290.8C461.3 293.8 460.9 294.8 458.3 297.7H458.4ZM467.5 303C466.8 299.2 467.3 297.6 466.8 295.1C466.1 290.9 464.5 288.1 466 287.6C467.5 287.2 468.4 288.6 469 293C469.5 297.3 469.3 298.5 467.5 303ZM477 276.7C474.7 274.9 473.4 274.8 472 273.7C469.5 271.7 468.2 269.8 467.4 270.8C466.6 271.8 467.2 272.9 469.8 274.7C472.4 276.5 473.4 276.6 477 276.7ZM475.4 289.1C474.2 286.6 473 286.1 472.2 284.5C470.9 281.7 470.9 279.4 469.4 279.9C468 280.6 467.8 281.9 469.4 284.5C471 287.2 471.8 287.6 475.4 289.1Z" fill="#B3B3B3"/>
<path d="M37.8 259.8C37.5 257.7 38 257.4 36.7001 255.8C38.7001 256.5 38.7001 258.8 41 257.2C41.9 256.7 42.2001 256.7 41.2001 254.3C43.6 254.4 51.6001 257.2 52.9001 257.3C56.3001 257.3 62.4 253.7 66.7 258.3C70.7 262.3 69.4001 266.7 69.4001 272.3C67.8001 271.6 68.5001 271.3 66.8001 269.2C68.1001 274.2 66.8001 283.2 66.8001 288.6C66.1001 287.2 66.2001 287.8 65.5 286.6C63.8 291.3 61.7001 292.3 61.7001 298.1C61 295.8 61.7001 296.3 61 295.1C59.3 298.8 47.8 302 52.3 305.6C48.3 303.3 46.6 303.6 44.8 301.5C44 302 43.4001 303 42.7001 304.2C35.7001 301 38.2001 294.2 32.7001 289.5C31.7001 291.5 32.3001 291.2 31.2001 294.3C30.2001 289.9 29.8 287.2 28.6 284C27.6 285.7 27.6 285 25.6 287.7C24.8001 282.4 23.6 281.1 24 277.7C22 279.1 23.4 278.5 21.3 280.3C23.3 266.7 31.7001 256.6 37.7001 259.8H37.8Z" fill="#333333" stroke="black" stroke-width="1.1"/>
<path d="M29.2001 282C31.0001 277.6 32.6001 276.3 33.8001 273.5C35.8001 268.5 36.1001 264.5 37.8001 265.1C39.5001 265.7 39.5001 267.7 37.2001 272.6C34.9001 277.6 33.9001 278.6 29.2001 282ZM36.0001 293C36.7001 289 37.8001 287.7 38.3001 285.1C39.2001 280.7 38.7001 277.4 40.3001 277.5C41.9001 277.7 42.3001 279.5 41.2001 283.8C40.1001 288.3 39.4001 289.3 35.9001 293H36.0001ZM44.0001 300.7C44.3001 296.9 45.2001 295.4 45.3001 292.9C45.6001 288.6 44.7001 285.5 46.3001 285.5C47.8001 285.5 48.3001 287 47.9001 291.4C47.4001 295.7 46.9001 296.8 44.1001 300.7H44.0001ZM61.5001 275.7C58.2001 272.4 56.2001 271.7 54.0001 269.7C50.3001 265.9 48.4001 262.4 47.0001 263.7C45.7001 264.9 46.5001 266.7 50.5001 270.3C54.5001 273.9 55.9001 274.4 61.5001 275.7ZM59.5001 288.6C57.4001 285.3 55.7001 284.3 54.3001 282.2C51.8001 278.4 51.1001 275.2 49.6001 276C48.2001 276.8 48.6001 278.5 51.2001 282.2C53.9001 285.8 54.9001 286.5 59.5001 288.6Z" fill="#B3B3B3"/>
<path d="M208.4 186.5C204.4 194 215.2 184 232 196.7C236.121 201.083 238.777 206.64 239.6 212.6C236.152 211.491 232.833 210.016 229.7 208.2C229.7 208.2 237.2 215.7 237.2 224.3C234.5 222.7 233.2 222.9 232.2 220.9C232.2 223.7 234.7 225.4 234.7 229.7C233.072 228.414 231.331 227.276 229.5 226.3C232 230.6 225 239 228.5 241.7C225.533 241.298 222.68 240.292 220.117 238.744C217.555 237.196 215.337 235.139 213.6 232.7C212.3 233.5 212.2 234.9 212.1 236.4C212.3 236.6 202.8 229.4 203.7 226.6C202.609 227.97 201.979 229.65 201.9 231.4C198.283 228.385 195.553 224.445 194 220L190.8 224C189.7 217 189.7 217.2 192 211.2C190.408 212.288 188.873 213.456 187.4 214.7C188.59 208.736 191.092 203.112 194.724 198.235C198.356 193.357 203.027 189.349 208.4 186.5Z" fill="#333333" stroke="black" stroke-width="0.8"/>
<path d="M198.7 223.3C199.4 218.1 200.7 216.3 201.1 212.8C201.9 207 201 202.6 203.1 202.8C205.1 202.9 205.7 205.1 204.7 210.9C203.7 216.9 202.7 218.2 198.7 223.4V223.3ZM209.7 232.9C209.2 228.5 210 226.6 209.7 223.8C209.3 218.8 207.7 215.5 209.5 215.2C211.4 214.9 212.3 216.5 212.5 221.6C212.7 226.6 212.2 227.9 209.6 232.9H209.7ZM226.7 240.7C224.8 236.9 223.2 235.7 222 233.3C220 229 219.4 225.5 217.8 226.1C216.2 226.8 216.3 228.6 218.6 232.8C221 237 222 237.8 226.6 240.7H226.7ZM232.6 206.7C227.8 204.2 225.4 204.1 222.4 202.6C217 199.7 213.9 196.6 212.8 198.4C211.8 200.1 213.2 201.8 218.7 204.4C224.2 206.9 225.9 207 232.5 206.6L232.6 206.7ZM234.3 220.8C230.8 218 228.8 217.6 226.6 215.8C222.6 212.5 220.7 209.4 219.5 210.7C218.2 212 219 213.7 223.1 216.7C227.1 219.7 228.6 220.1 234.3 220.8Z" fill="#B3B3B3"/>
</g>
<defs>
<clipPath id="clip0_103_11173">
<rect width="512" height="512" fill="white" transform="translate(0.5)"/>
</clipPath>
</defs>
</svg>
