<svg width="513" height="512" viewBox="0 0 513 512" fill="none" xmlns="http://www.w3.org/2000/svg">
<g clip-path="url(#clip0_103_11211)">
<path d="M512.5 512V0H0.5V512H512.5Z" fill="#000066"/>
<path d="M471.6 219.4C471.6 277.2 462.4 339.6 387.2 369.4C312.4 339.6 303.2 277.2 302.8 219.4H471.6Z" fill="#8FC5FF" stroke="white" stroke-width="3.5"/>
<path d="M387.2 369C415.694 359.039 439.468 338.829 453.9 312.3H446.8C444.7 312 374.8 305.3 366.3 301.7C359.3 299.2 331.5 304.2 318.8 308.7C332.809 337.015 357.369 358.702 387.2 369.1V369Z" fill="#366CC9" stroke="black" stroke-width="3.5"/>
<path d="M334.7 333.6H339C340 333.6 340 333.6 340.4 332.6C340.8 331.5 341.8 331.8 342.5 332.2C343.2 332.5 344.7 332.2 345.4 331.5C346.1 330.8 346.1 330.8 346.8 331.5C347.5 332.2 347.8 331.8 348.6 331.5C348.9 331.5 350.3 330.8 350.6 329.7C351 328.7 352.1 328.3 352.5 329C352.8 329.7 353.5 329.7 354.2 329.7C355 329.7 355 330.1 355 331.1C355 331.8 355 332.1 356.7 330.8C358.1 332.2 358.5 331.5 358.5 330.1C358.5 328.6 358.5 323 357.8 322.6C357.1 322.3 356.8 319.8 356.4 318C356.4 314.5 356.4 314.5 352.8 312.7C352.8 311.7 352.1 311.3 349.3 311.3C349.6 310.9 349.3 309.8 348.6 309.5C347.9 309.1 347.9 308.8 348.6 307.4C349.3 307.4 350.6 307.4 351 306.3C351.8 305.6 353.9 305.6 355.3 306.3C356.7 307 358.1 307 360.6 306.3L364.9 304.2C366.7 303.2 367 302.8 367 301.3C367 297.8 366 294.3 365.2 292.5C364.2 290.7 364.2 288.9 362.8 285.7C361.3 282.9 361.3 282.2 359.9 280.4C359.2 279.7 358.9 279.4 358.9 278.3C358.797 276.91 358.15 275.617 357.1 274.7C354.2 272.3 353.5 264.1 352.1 258.1C351.4 254.5 352.1 246.4 350.7 244.9C348.2 243.2 347.1 243.5 345.4 242.9C344 241 343.6 237.9 342.2 234.7C340.4 235 339.3 236.7 338.2 237.5C337.2 238.2 336.9 238.2 336.9 240C336.9 241.4 335.8 243.5 334.4 246.4C333 249.2 329.8 248.1 327.3 252C322.3 246 322.3 244.2 322 242.5C322 240.7 320.9 240.3 318 237.8V232.5C315.6 230.8 314.2 231.1 313.1 232.5C312.1 233.5 311.3 235.4 309.6 236.1C308.8 237.5 306 240.3 303.9 244.2C306 276.2 313.1 308.1 334.7 333.6Z" fill="#5D3100" stroke="black" stroke-width="0.4"/>
<path d="M471.6 219.4C471.6 197.4 470.6 176.1 470.9 157.7C444.223 147.337 415.818 142.145 387.2 142.4C368.4 142.4 331.5 145.3 303.5 157.7C304.2 176.1 302.8 197.4 302.8 219.4H471.6Z" fill="#FFFF00" stroke="white" stroke-width="3.5"/>
<path d="M307.5 244.5C308.4 246 310.1 248.5 310.2 249.9C311 248.6 311.4 247.9 311.5 247.2C311.7 246.4 312.7 244.7 312.3 243.9C311.8 243 311.7 242.3 312.7 242.9C313.7 243.6 313.5 244.7 313.3 246.3C312.7 250.8 310.8 251.8 310.5 254.9C313.2 261.2 311.2 263.5 314.1 269.8C314.6 270.1 315.8 269.6 316.2 269.8C317.8 268.6 318.9 269 321.2 269.4C323.3 269.9 324.5 271.4 324.5 272.9C324.5 274.3 324.5 274.6 325 275.4C325.5 276.4 326.5 277.6 326.2 278.4C326 279.4 326.4 279.9 326.7 280.4C327 280.9 326.6 281.8 326.3 282.5C326 283.3 326.1 284 327.3 285.5C328.3 286.8 330.9 292.5 330.9 296C330.9 299.3 331.1 301 332.5 301.6C333.9 302.3 334.4 302.8 334.1 304.3C334.188 307.748 334.489 311.188 335 314.6C335.2 315.8 335.6 315.6 336.1 316.2C336.7 316.8 337.1 317.6 338.9 317.6C340.9 317.6 342.5 317.3 343.8 317.6C345.4 319.8 346.4 322.9 346.8 324.9C347.1 326.9 347.1 329.5 347.8 329.5C348.4 329.5 349.1 329.5 348.8 327.2C348.6 324.8 348.5 324.4 347.7 323.2C346.8 322 346.4 321.4 346.8 320.7C347.3 320 347.4 318.7 347.2 317.8C347 316.9 346.8 315.5 348.3 317.3L350.9 320.3C351.4 321 351.5 322.1 351.4 323.3C351.3 324.3 351.5 324.8 352.1 324.3C352.8 323.7 353.6 324.7 353.2 325.9C352.9 327.1 353.2 327.9 354.4 328.2C355.6 328.5 356 328.8 356.2 329.6C356.4 330.4 357.5 330.8 357.5 329.2C357.5 327.5 356.8 324 356.4 322.9C355.9 321.8 355.5 319.4 355.4 317.9C355.4 316.6 355.1 316.3 354.4 315.9C353.8 315.7 353.2 315.3 353.1 314.5C353.1 313.8 352.4 313.8 352.1 313.8C351.7 313.8 351.3 313.4 351.1 313C350.9 312.5 350.6 312.5 350.1 312.4C349.7 312.4 348.9 312.6 348.7 311.9C348.5 311.2 348.1 310.1 347.7 309.5C347.3 308.8 346.8 308.7 346.7 306.5C346.7 304.5 346.7 304.3 346 303.5C345.163 302.402 344.427 301.23 343.8 300C343.4 299.3 342.8 298.4 342.8 300.1C342.8 301.8 342.8 302.8 344 303.4C345.1 304.1 345.4 304.1 344.9 305C344.4 305.9 344.9 306.6 345.1 307.2C345.3 307.9 345.7 308.5 345.1 309.2C344.5 309.8 344 309.6 344.1 308.6C344.146 307.555 343.904 306.517 343.4 305.6C342.9 304.7 342.5 304.1 342 304.6C341.4 305.1 341 304.6 341.3 304.2C341.7 303.9 341.6 303.5 341.3 303.2C341 303.1 341 302.7 341.5 302.2C342 301.6 341.9 301.3 341.6 300C341.3 298.8 339.3 292.3 338.4 290.8C337.4 289.3 337.6 288.2 338.7 289.8C339.9 291.2 341 292.4 341 293.7C341.2 294.9 341.5 295.7 341.7 296.1C342 296.6 342.5 296.3 342.6 295.4C342.7 294.4 343.6 294.7 342.2 292.7C341 290.8 338.6 287.6 337.7 281.7C336.7 275.9 336.4 272.1 335.4 270.6C334.5 269 334.2 268.6 334.1 267.1C334.1 265.6 334.1 264.1 333.4 263.1C332.7 262.1 332.4 261.8 332.3 263.5C332.178 265.513 332.346 267.534 332.8 269.5C333.3 270.1 333.1 271.7 332.9 272.7C332.8 273.6 331.4 274.5 334.4 276.4C335.6 277.1 335.4 278.1 335.2 278.7C335.1 279.4 334.9 279.3 334.2 278.3C333.6 277.3 332.9 276.5 332.2 275.9C331.6 275.3 331.6 274.9 331.6 273.7C331.7 272.5 332 271.5 331.6 271C331.3 270.6 331.1 271 330.9 271.7C330.7 272.4 330.6 274.4 330.2 274.9C329.8 275.4 329.6 275.2 329.3 273.9C329 272.7 329.4 270.9 330 268.8C330.7 266.6 331.1 264.5 330.6 261.7C330 258.9 330.3 258.1 328.1 255.7C326 253.5 323.7 251.3 322.6 248.4C321.6 245.5 321.4 243.1 320.3 241.8C319.265 240.468 318.015 239.319 316.6 238.4V234C316.6 233 316.1 232.4 315 232.6C313.8 232.8 313 233.7 312.3 235.2C311.6 236.5 311 235.9 310 238.2C308.9 240.6 307.5 241.8 307.5 244.4V244.5Z" fill="#CF6200"/>
<path d="M314.2 271.6C314.9 272.1 315.6 272.3 316.7 271.8C317.7 271.3 319.1 269.6 320.7 271.2C322.112 272.959 322.887 275.144 322.9 277.4C322.9 279.4 322.9 283.2 325.2 285.3C327.5 287.4 328.8 289.6 328.8 292.4C328.9 295.2 329.9 299.4 330.3 300.6C330.5 301.6 331.1 302.9 331.8 303.6C332.6 304.4 333.1 306.6 333.3 308.6C333.3 311 333 312.6 333.3 313.6C333.6 314.6 333.3 315.6 332.4 315C331.6 314.5 331.4 314.3 331 313.3C330.6 312.3 329.9 312.6 330.4 314C330.9 315.5 332.2 316.6 333.4 316.6C334.6 316.6 335 316.8 335.7 317.6C336.4 318.3 336.6 318.7 337.9 318.7C339.2 318.7 339.3 318.7 340.5 319.1C341.7 319.4 341.7 319.2 342.4 319.1C343 318.9 343.7 319.4 344.1 320.6C344.5 321.9 345.7 325.2 345.7 326C345.7 326.9 345.7 327.9 346.3 328.8C347 329.8 346.8 330.7 346 330.1C345.3 329.5 345.3 329.8 344.8 329.8C344.2 329.9 343.8 329.7 343.1 329.2C342.4 328.7 342.8 328.8 342.1 327.7C341.4 326.7 340.9 326.2 340.9 327C340.9 327.8 340.9 328.9 340.2 328.5C339.7 328 339.4 328 338.9 328.5C338.4 329 338.3 329.3 337.7 328.4C337.2 327.5 336.6 327.4 336 327.2C335.4 327 335.4 327.1 335.2 326.2C334.9 325.4 334.1 325.2 333.3 325.2C332.6 325.2 332.2 324.9 332.1 324.3C332.1 323.7 331.6 323.3 331.2 323.1C330.8 322.8 331.1 322.1 330.9 321.5C330.8 320.9 330.3 321.1 329.9 321C329.5 320.9 329.3 321 329.3 320C329.3 319 328.9 318.8 328.6 318.1C328.4 317.4 328.6 316.8 328.8 316.1C328.883 315.79 328.889 315.464 328.82 315.151C328.75 314.838 328.606 314.546 328.4 314.3C327.8 313.6 328.3 313 326.8 311.7C325.4 310.4 324.6 311.5 324.1 308.4C323.747 304.896 323.009 301.442 321.9 298.1C321.2 297.1 320.5 296.4 319.7 296.1C318.9 295.8 318.3 296.1 318.3 294.2C318.1 292.5 317.6 290.3 316.5 289.2L314.3 287.2C313.8 286.9 313.6 286 314.3 284.4C315.1 282.8 314.8 280.7 314.7 279.7C314.7 278.7 314.3 277.4 314.6 276.3C314.8 275.3 314.6 273.8 314.3 273.1C314.1 272.4 313.7 272.1 314.2 271.6ZM336.4 245.4C335.186 247.008 333.737 248.424 332.1 249.6C330.3 250.8 328.1 251.7 329.3 253.9C330.6 255.9 331.6 256.2 331.8 257.8C332.1 259.4 332.4 260.7 333.6 261.1C334.9 261.5 335.4 261.2 335.4 263.8C335.4 266.4 335.4 267.4 336.5 268.3C337.7 269.3 337.5 270.3 337.9 272.7C338.4 275 338.4 280 339.9 283.4C341.5 286.8 344.8 293.4 344.4 294.7C344 296 343.5 297.1 345 298.7C346.333 300.197 347.232 302.029 347.6 304C347.7 305.4 347.9 305.9 349.4 305.4C350.9 304.9 351.6 304.4 352.1 303.7C352.6 303.1 353.5 303.3 354.9 304C356.3 304.7 358.4 305.4 359.6 304.7C360.8 304 361.5 302.9 362.6 302.9C364.3 301.6 364.9 299 365.3 298.3C365.6 297.6 365.3 297.6 364.6 296.9C363.9 296.2 364.3 294.9 364.1 293.7C363.87 291.642 363.187 289.661 362.1 287.9C360.6 285.2 359.7 281.9 358.7 280.9C357.7 280.1 357.3 278.1 357.2 277.1C357 276.1 355.9 275.2 355.2 274.5C354.4 273.8 353.7 272.7 352.9 268.3C352 264 351.4 261 351.4 260.3C351.4 259.5 351.2 259.3 350.4 259.2C349.8 258.9 349.4 257.7 349.6 257C349.8 256.4 349.4 255.8 349.1 255C348.8 254.4 349.1 253 349.6 252.2C350.1 251.5 350 249.4 349.5 247.7C349 246 348.5 244.5 346.6 244.2C344.6 244 344.3 243.5 343.5 241.9C342.7 240.3 342 237.5 341.7 236.9C341.5 236.2 341.2 236.2 339.7 237.4C338.2 238.6 337.7 239 337.7 241.3C337.7 242.7 337.9 243.3 338.4 244.2C338.9 245 339.1 245.2 339.4 247.6C339.8 250 341.9 253.6 339.2 255.7C336.4 257.9 336.9 258.3 337 259.7C337 261.2 336.3 262.2 335.8 260.1C335.3 258.1 335.8 256.8 337.2 255.8C338.7 254.8 340.1 253.6 339.1 252.2C338.1 250.9 337.7 247.7 337.7 246.2C337.6 244.8 337.2 244.2 336.4 245.4Z" fill="#CF6200"/>
<path d="M314.5 276.7L314.7 279.7C314.7 280.7 315.1 282.8 314.3 284.3C313.6 285.9 313.8 286.8 314.3 287.3C314.601 287.213 314.88 287.062 315.118 286.858C315.356 286.654 315.548 286.402 315.68 286.117C315.813 285.833 315.883 285.524 315.887 285.211C315.89 284.897 315.826 284.587 315.7 284.3C315.503 283.852 315.417 283.363 315.452 282.875C315.487 282.387 315.641 281.915 315.9 281.5C316.3 280.7 316.3 280.2 315.9 279.6C315.5 279 315.5 279 315.9 277.2C316.4 275.7 315.3 275.7 314.5 276.7ZM330.3 300.6C329.9 299.4 328.9 295.2 328.8 292.4C328.718 291.033 328.356 289.698 327.737 288.476C327.118 287.255 326.254 286.174 325.2 285.3C323.4 283.7 323.1 281 322.9 279C321.6 278.1 321 278.5 321.2 280C321.2 281.7 322.9 282.5 322.7 284.8C322.4 287.3 322.4 286.6 323.6 287.8C324.7 289.1 325.2 290.1 324.6 290.6C324 291.1 323.9 291.9 324.7 292.2C325.6 292.6 325.7 293.5 325.5 294.4C325.5 295.2 326.2 295.4 326.7 296C326.963 296.456 327.102 296.973 327.102 297.5C327.102 298.027 326.963 298.544 326.7 299C326.3 299.8 326.2 301.1 327.1 300.4C328 299.7 328.3 300.4 329 301.6C329.5 302.6 330 302.3 330.7 301.9C330.489 301.45 330.321 300.982 330.2 300.5L330.3 300.6ZM342.2 322C341.6 323 341 322.7 340.5 322.1C339.9 321.6 339.2 321.6 339.5 320.6C339.8 319.6 339.7 319.4 338.9 318.8C338.833 318.799 338.767 318.799 338.7 318.8H337.9C336.6 318.8 336.4 318.3 335.7 317.6C335.575 317.426 335.442 317.26 335.3 317.1V317.8C335.3 318.8 335.3 318.6 334.3 318.9C333.3 319.2 333.4 317.9 333.2 317.1C333.181 316.931 333.147 316.763 333.1 316.6C332 316.4 330.8 315.2 330.4 314C329.9 312.5 330.4 312.4 330.9 313.3C331.3 314.1 331.6 314.5 332.4 315C333.2 315.5 333.4 314.7 333.2 313.6C333.149 313.202 333.149 312.798 333.2 312.4C332.9 312 332.7 311.7 332.3 311.5C330.9 310.9 331.3 310.7 331.4 309.5C331.4 308.4 331.2 308.4 330.3 308.9C329.3 309.7 329.3 308.9 329.3 307C329.3 305.2 328 305.2 327.8 306.5C327.5 307.8 327.1 306.9 326.5 305.1C326 303.2 325.2 302.8 325.1 304.6C325.1 306 324.7 306.4 323.7 305.6L324.1 308.4C324.6 311.4 325.3 310.4 326.8 311.7C328.3 313 327.8 313.7 328.3 314.3C328.9 314.9 329 315.3 328.8 316.1C328.6 316.8 328.3 317.5 328.6 318.1C328.9 318.8 329.3 319.1 329.3 319.9C329.3 320.8 329.5 320.8 329.9 321L330.6 321.1L331.3 320.1C332.5 319.1 334.3 320.2 334.7 321.6C335.2 322.9 335.9 323.4 336.7 322.3C337.5 321.3 337.3 321.3 338.2 322.3C339 323.3 339.5 323.2 339.5 323.2C339.5 323.2 340.5 322.8 341.1 323.4C341.7 323.9 342.1 323.8 343.2 322.1C344.5 320.4 342.7 320.9 342.2 322.1V322ZM345.5 271.4C345.8 268.7 345.5 266 346.7 265C347.7 264 349.1 262.1 349 266.3C349 270.4 348.8 270.3 348 271.1C347 272.1 346.3 272.4 347.2 274.1C348.1 275.6 348.2 275.7 348.1 278.1C347.9 280.6 347.9 281.6 348.9 282.8C349.9 284.1 350.1 284.2 350.3 285.6C350.661 287.136 351.42 288.55 352.5 289.7C353.5 290.7 354.9 293.5 355 295.5C355.2 297.5 356.9 298 358.5 299.3C360 300.7 358.1 301.6 356.9 301.1C355.7 300.3 356.2 301.1 355.4 301.8C354.7 302.8 354.4 302.8 353.8 301.4C353.1 300 351.1 298.9 350.1 298.5C349.2 298.2 348.3 296.6 347.4 295C347.063 294.311 346.555 293.72 345.925 293.282C345.295 292.844 344.563 292.575 343.8 292.5C344.3 293.5 344.5 294.4 344.3 294.7C344 296.1 343.5 297.1 345 298.7C346.333 300.197 347.232 302.029 347.6 304C347.6 305.3 347.9 305.8 349.3 305.3C350.9 304.8 351.6 304.3 352.1 303.7C352.6 303.1 353.5 303.2 354.9 304C356.2 304.7 358.3 305.4 359.5 304.7C360.8 304 361.4 302.9 362.5 302.9C364.3 301.6 364.8 299 365.2 298.3C365.6 297.6 365.3 297.6 364.6 296.9C363.9 296.2 364.3 294.9 364.1 293.7C364 292.4 363.5 290.6 362 287.9C360.5 285.1 359.7 281.9 358.7 280.9C357.7 280.1 357.3 278.1 357.1 277C357.1 276 355.9 275.2 355.1 274.4C354.4 273.7 353.7 272.7 352.8 268.4L351.4 261C350.6 262.5 350 262.8 349.6 261.8C349.3 260.8 348.8 260.1 348.3 260.8C347.8 261.5 347.6 260.2 347.6 259.6C347.6 259 347.6 258.9 346.9 258.9C346.3 258.9 346.8 257.9 346.5 256C346.3 254.2 345.9 254 345.7 256.2C345.5 258.4 344.3 259.7 344.7 260.2C345.2 260.7 345 261.7 344.5 263.2C344 264.6 344.2 265.5 344.6 266.5C345 267.5 344.3 269.4 344.1 270.9C343.8 272.5 345.1 274.1 345.5 271.4ZM323 249.4C322 249.4 321.4 250.2 322 253C322.3 254.7 321 254.4 320.6 253.5C320 252.6 319.6 250.8 318.6 249.2C317.7 247.6 318.1 250.2 318.1 251.8C317.9 253.2 318.9 253.2 319.8 254.5C320.7 255.8 319.8 256.2 318.9 256.2C318 256.2 318.4 258.2 318.6 259.5C318.9 260.9 318.4 261.1 317.7 260C317 258.9 317.4 257.2 317.6 255C317.7 253 317.8 253.5 316.4 253C315.1 252.5 315.4 252.3 315.8 251C316.3 249.8 316.8 249.2 316.2 248.5C315.6 248 315.7 247.6 316.7 247.5C317.7 247.3 317.3 246.6 318.1 246.3C319 246.1 319.4 246.5 319.6 244.9C319.6 243.5 320.1 242.7 321 243.2C321.7 245.2 322.4 248.4 323 249.3V249.4ZM335.3 263.8C335.3 266.4 335.3 267.4 336.4 268.3C337.6 269.3 337.4 270.3 337.9 272.7C338.4 275 338.4 280 339.9 283.4L341.5 287.1C342.257 286.471 342.871 285.686 343.3 284.8C343.7 284 342.6 282.3 341.7 280.8C340.8 279.3 341.8 278.8 342.7 277C343.5 275 342.5 275 341.2 274.5C339.8 274 339.8 272.8 339.1 270.8C338.4 268.8 338.5 268 339.1 266.9C339.4 265.8 339.1 264.9 338.1 264.7C337.1 264.4 337.4 263.7 337.7 262.5C338.2 261.2 338.4 261 336.9 261.3C335.8 261.6 335.5 261.8 335.1 262.3C335.3 262.6 335.3 263.1 335.3 263.8Z" fill="#00B800"/>
<path d="M349.5 269C349.5 270.4 349.5 271.1 349.1 271.6C348.7 272.1 348.9 272.9 349.3 273.6C349.6 274.4 349.9 275.4 349.6 276.6C349.2 278 349.8 279.2 350.5 279.6C351.2 279.9 351.6 279.6 351.4 281.3C351.315 282.083 351.405 282.875 351.665 283.619C351.924 284.363 352.346 285.04 352.9 285.6C353.8 286.3 354.4 287.5 354.4 288.2C354.2 288.9 354.9 289.7 355.8 290.1C356.7 290.4 356.5 290.6 356.5 291.1C356.5 291.6 356.9 291.6 357.9 291.8C358.9 292 359.6 292.7 360.8 294C361.9 295.4 363.4 296.2 363.2 294.6C363 293 363.2 292.2 361.8 291.4C360.2 290.7 359.1 287.1 358.5 284.7C357.879 282.238 356.6 279.991 354.8 278.2C354.7 276.6 354.9 275.7 353.8 274.9C353.358 274.558 353.001 274.119 352.758 273.615C352.515 273.112 352.392 272.559 352.4 272C352.4 271.1 351.7 270 351.3 269.9C350.8 269.6 350.6 268.9 350.6 268.2C350.6 267.5 349.6 267.6 349.6 268.9L349.5 269Z" fill="#5D3100"/>
<path d="M343 334.8C346.057 334.386 349.049 333.579 351.9 332.4C353.414 333.547 355.151 334.365 357 334.8C354.9 335.3 353.5 335 353 334.6C353.2 335.3 354 336.3 354.4 336.4C352.4 336.3 350.1 335.8 349.4 335.1C347.6 335.8 344.7 336 343 334.9V334.8ZM347 337.8L352.2 338.5C350.9 339.7 352 340.7 354.2 340.5C353.1 340.7 352 341.1 352.7 341.2C355.439 341.232 358.158 340.722 360.7 339.7C359 341.9 350.5 344 347 337.7V337.8ZM350.5 343.2C351.5 342.7 354.2 342.9 355.5 343.5C354 344 351.3 344 350.5 343.2Z" fill="#00D860"/>
<path d="M354.5 343.2C356.3 342.9 361.6 344.2 363.5 343C362.8 344.7 359.5 345 358.4 344.6C357.2 344.2 356.2 343.7 355.4 343.8C355.7 343.5 355.1 343.5 354.4 343.2H354.5Z" fill="black"/>
<path d="M356.4 345.8C357.8 346 362.9 345.4 364.4 344.8C366.1 345.3 369.4 346.3 370.1 346.1C368.6 347.1 365.6 346.5 364.6 346.1C361.8 347.1 359.6 347.3 356.4 345.8Z" fill="#00D860"/>
<path d="M358.8 346.7C360.9 347.1 362.6 346.8 364.6 346.1C365.715 346.531 366.905 346.735 368.1 346.7C369.1 347.2 370.3 347.9 371.5 348C369.259 348.38 366.96 348.208 364.8 347.5C362.297 347.474 359.815 347.95 357.5 348.9C357.5 348.2 357.9 347.3 358.8 346.7Z" fill="#00D860"/>
<path d="M356.4 336.3C358 336.8 363.8 336.6 366.7 335.3C367.9 334.6 368.6 335.5 367.2 336C362.5 337.6 358.7 338.3 355.9 336.9C354.8 336.2 354.7 335.7 356.4 336.3Z" fill="black"/>
<path d="M384.6 328.4C377.6 331.8 372.9 332.8 363 329.8C362.1 329.5 361.5 329.8 362.5 330.4C364.961 331.463 367.549 332.203 370.2 332.6C371.5 332.6 371 333.3 370.2 333.5C369.4 333.7 369.2 334.3 370.2 333.8C371.4 333.4 377.2 333.3 379.7 334.6C380.7 335.1 381.1 335 380.9 334.6C380.8 334.1 381.4 333.9 382.2 333.8C383 333.8 383.4 333.5 382.8 333.2C382.3 332.9 382.1 332.8 382.6 332.6C383.1 332.4 383.1 332.2 382.4 332C381.7 332 381.3 331.7 381.9 331.3C382.6 331 383.5 330.8 384.3 330.8C384.4 330.3 384.1 328.8 384.6 328.5V328.4Z" fill="#00D860"/>
<path d="M372.9 329.3C378.541 329.377 384.029 327.466 388.4 323.9C389.7 324.7 391.7 325.6 392.7 325.9C393.7 326 394.7 326.9 393 326.9C391.5 326.9 389.2 326.2 388.2 325.9C383.595 328.679 378.273 330.035 372.9 329.8C371.9 329.7 371.5 329.2 372.9 329.3Z" fill="black"/>
<path d="M360.9 307.2C362.892 308.764 365.369 309.578 367.9 309.5C369.43 310.643 371.16 311.49 373 312C370.9 312.9 368.6 313.6 368 314.3C367 313.4 365.8 313.6 365.4 313.1C364.6 313.8 364.7 314.3 365.3 314.7C365.8 315.1 370.5 315.8 371.7 315.5C372.8 315.1 373.1 316.2 372.2 316.5C369.6 317.3 364.8 316.5 363.2 313.8C361.5 311.2 360.2 310.2 355.6 312.6C355.1 311.3 355.1 311 354.2 311C353.2 311 351.7 309.8 352.9 309.9C354.2 309.9 357.9 309.4 360.9 307.2Z" fill="#00D860"/>
<path d="M362 313C361.3 313.3 359 314.5 358.2 314.5C357.5 314.6 356.1 315.8 357.5 315.8C359 315.8 360.8 314.3 361.8 314.1C362.9 313.9 362.9 312.8 362 313.1V313ZM366.4 317.8C365.9 317.8 363.5 318.4 362.8 318.3C362.1 318.3 361.6 318.5 361.7 318.9C361.7 319.4 361.9 319.6 361 319.6C360 319.6 359.1 319.9 358.8 320.1C358.5 320.4 358.5 320.7 359.5 320.9C360.5 321 360.9 321 362 320.5C363.2 320 364.2 319.2 365.4 319.1C366.6 319.1 367.8 317.6 366.4 317.7V317.8Z" fill="#00D860"/>
<path d="M363.1 320.6C364.1 321.3 369.1 322.9 370.9 322.8C372.7 322.7 372.4 323.5 371 323.8C368.2 324.4 364.8 323.2 362.4 321.4C361.4 320.4 362.4 320.1 363.1 320.6Z" fill="black"/>
<path d="M386.7 323C382.9 324.2 379 323.8 377.5 323.4C375.9 323.1 374.5 322.9 375.5 323.9C376.6 324.9 380 325.6 382 325.1C375.1 326.7 373.3 326.5 371.6 326.2C369.505 325.999 367.395 325.999 365.3 326.2C364.3 326.2 362.9 326.2 362.3 325.7C361.8 325.3 361.5 324.7 363.3 324.9C365.1 325.1 365.3 324.7 363.8 324.4C362.2 324.2 360 324.9 362.2 326.2C364.3 327.6 368.9 326.2 371.9 327C374.9 327.8 381.1 328.4 387.1 323.6C387.4 323.4 387.9 322.6 386.7 323ZM368 317.4V318.7C367.9 319 367.9 319.4 368.4 319C369 318.6 369.4 318 370 318.3C370.942 318.569 371.93 318.637 372.9 318.5C373.6 318.5 373.7 318.3 372.7 317.8C371.7 317.4 370.7 317.3 370.1 317.3C369.6 317.4 368.9 317.3 368.4 317.1C367.9 316.8 367.9 317 368 317.4Z" fill="#00D860"/>
<path d="M377.8 319.2C376.838 319.103 375.895 318.867 375 318.5C374.2 318.2 373 318.1 373.9 319.1C374.7 320.2 378.1 320.8 379.3 320.3C380.6 319.8 380 319.3 381.2 319.9C382.4 320.6 383.6 321.2 384.5 321.2C385.4 321.2 385.7 321.2 384.7 320.6C383.7 320.1 383.3 319.9 383.3 319.5C383.3 319.1 383 318.8 383.9 319.1C384.7 319.4 385.7 319.8 386.4 319.4C387.2 319.1 388.4 318.3 389.6 318.3L389.9 317.6C388.2 317.4 387.2 317.9 386.6 318.1C385.931 318.353 385.205 318.422 384.5 318.3C383.6 318.1 382.5 318 382.2 317.8C381.9 317.6 381.9 317.3 382.6 317.2C383.3 317.1 383.6 316.6 382.6 316.8C381.6 317 378.9 316.8 377.5 316.4C376 316 375.5 315.9 374.8 316.1C374.2 316.3 374.3 317 375.2 317.1C376 317.1 378 317.3 378.8 317.9C379.5 318.6 379.3 318.6 378.5 318.3C377.8 317.9 376.4 318.1 377.8 319.3V319.2Z" fill="#00D860"/>
<path d="M389.8 317.6L389.6 318.3C392.048 318.199 394.493 318.572 396.8 319.4C398.1 318.4 397.8 318.1 398.8 318.3C399.8 318.4 400.8 318.8 401.4 318.5C401.9 318.2 402.2 318.3 402.8 318.3C403.3 318.5 404.5 318.3 405.2 317.8C405.8 317.4 407.3 316.8 408.2 316.8C409 316.8 410 316.7 408.5 316.4C406.95 316.31 405.395 316.479 403.9 316.9C403.1 317.2 400.7 317.4 399.3 317.4C398 317.4 396 318.1 394.5 317.7C392.9 317.3 390.7 317.6 389.8 317.6Z" fill="#00D860"/>
<path d="M411.2 316.8C408.5 318.8 405.1 319.2 401.2 319.5C400 319.5 400.4 319.9 401.4 320C405.4 320.4 410.3 319 411.8 317.2C412.3 316.8 412.3 316 411.2 316.8Z" fill="black"/>
<path d="M392.4 321.4C393.5 321.4 397.7 322.6 399.1 323C400.1 323 400.4 322.7 400.1 322.3C399.9 321.9 399.8 321.6 401.6 321.6H408.6C409.2 321.4 410.6 320.3 411.3 320.2C409.6 320.4 402.6 320.7 401.8 320.6C401.151 320.489 400.483 320.594 399.9 320.9C399.3 321.2 399.1 321.4 398.3 321.1C397.6 320.9 396.4 320.4 395.8 320.9C395 321.3 393.6 320.9 392.4 321.4Z" fill="#00D860"/>
<path d="M408.5 321.6C409.2 321.4 410.6 320.2 411.3 320.2C412.5 320.2 413.8 320.6 414.5 320.7C415.1 320.7 415.8 320.7 415.3 320.2C414.8 319.7 415.3 318.8 417.3 319.1C419.1 319.3 420.1 319.6 421.9 319.4C423.7 319.3 424.6 320.6 428 319.2C427.8 320.6 428.5 320.6 429.1 320.4C429.8 320.2 430.5 320.2 431.6 321.1C432.6 321.9 439.4 322.1 441 321.7C442.5 321.4 443.4 322.2 442.2 322.7C441 323 440.7 323.5 441 323.9C441.2 324.3 441.5 324.7 440 324.6C438.6 324.4 438.3 324.8 437.6 325.4C436.9 326 436.6 326.1 434.6 325.7C432.6 325.4 432.2 325.7 431.1 325.9C429.9 326.1 429.8 326 428.6 325.7C426.993 325.139 425.262 325.036 423.6 325.4C422.1 325.8 421.1 326.4 419.8 326C418.5 325.6 418.4 325.7 419.2 325C420.1 324.2 420.2 324.2 421.8 324C423.4 323.8 424.6 323.3 423.5 322.7C422.3 322.1 422 322.1 420.5 322.9C419.1 323.6 418.3 324.1 416.6 323.2C415 322.2 414.2 322.4 413 322.7C411.9 323 410.1 322.4 408.5 321.7V321.6ZM414.1 324.4C411.9 324.7 411.4 323.4 409.1 323.7C408.5 323.7 407.1 324.7 408.9 324.5C410.6 324.4 412.5 325.3 414.1 325.2C415.8 325 415.1 324.3 414.1 324.4ZM411.5 326C412.7 325.6 415 326.4 415.9 326.2C416.9 326.1 417.9 326.6 416.8 327C415.7 327.3 413.3 326.4 412.2 326.7C411.2 327 410 326.6 411.5 326ZM389.5 332C391 332 396.5 331.8 398.7 327.2C398.8 326.8 399 326.7 399.7 327.2C400.3 327.7 402.9 329.2 407.7 329.5C409 329.7 410.4 330.3 407.7 330.1C405 329.9 400.8 329.3 399.4 328.3C397 332.1 392.7 332.6 389.4 332.5C387.6 332.5 388.1 331.9 389.4 332H389.5Z" fill="#00D860"/>
<path d="M401.5 325.7C400.7 326.7 398.2 328.5 397.1 328.7C395.8 328.7 392.4 328.3 391.5 328C390.7 327.7 389.5 327.8 390.8 328.7C392.52 329.603 394.466 329.985 396.4 329.8C397.7 329.6 399.1 329.1 400 329.8C401 330.5 402.9 331.5 403.9 331.3C405.224 331.033 406.591 331.067 407.9 331.4C408.5 331.7 409.7 332.7 407.9 332.1C406.1 331.5 404.7 332.1 403.8 331.6C404.8 332.9 406.8 335 408.6 335C409 335 409.3 335.7 408.4 336.1C409.2 336.6 411.3 336.9 412.4 335.9C412.1 336.3 412.3 336.6 412.7 336.8C413.1 337 413.7 337.4 412.9 337.4C412.1 337.5 410.2 337.7 409.6 337.5C411.4 338.6 416.1 340.5 420.8 339.5C421.8 339.5 422.2 339 420.8 339.1C417.6 339.1 417.5 339.1 416.9 338.8C416.3 338.5 416.5 338.2 417.4 337.9C418.2 337.6 420.4 337.4 421.4 337.4C422.3 337.4 423.2 336.9 421.4 336.9C419.6 336.9 417.1 336.9 416.2 336.6C415.3 336.4 414.6 335.9 415.5 335.2C416.5 334.5 417.5 334.8 418 334.2C415 334.2 411.2 332.6 413.3 331C413.8 330.7 413.6 330.7 412.8 330.6C412 330.6 409.8 329.9 408.8 329.3C407.8 328.7 408.5 328.3 409.2 328.2C407.5 328.5 403.9 327.5 401.4 325.7H401.5ZM428.5 325.6C426.666 326.738 424.558 327.36 422.4 327.4C421.1 327.4 420.8 327.8 421.9 328C422.9 328.1 424 328.2 424.5 328.1C425 328 425.2 328 426 328.2C427.087 328.63 428.29 328.665 429.4 328.3C430.799 327.911 432.249 327.743 433.7 327.8C434.6 327.8 435.6 327.8 433.7 327.4C431.982 327.075 430.218 327.075 428.5 327.4C427.9 327.5 426 327.4 427 327.2C427.842 326.917 428.623 326.475 429.3 325.9C429 325.9 428.8 325.7 428.5 325.6ZM427.6 329.2C425.968 330.413 424.027 331.141 422 331.3C424 332 425.6 334.1 426.8 334C426.2 334.3 425.4 334.8 424.7 335C425.9 335.3 427.9 335 429.5 334C432.3 334.8 435.9 334.3 437.1 333.3C435.352 333.31 433.643 332.786 432.2 331.8C433.1 331.8 433.9 331.3 434.4 330.8C432.2 331.1 428.6 330 427.6 329.2Z" fill="#00D860"/>
<path d="M424.7 335C425.5 335 426.2 334.3 426.8 334C423.247 334.259 419.698 333.459 416.6 331.7C414.7 329.9 414.7 331.3 416.1 332.5C417.232 333.57 418.602 334.355 420.098 334.79C421.593 335.224 423.171 335.296 424.7 335ZM429.5 339.2C428.7 339.7 424.7 339.9 423.5 339.7C422.2 339.4 421.5 339.5 421.9 340C422.3 340.5 422.4 341 421.3 340.9C420.059 340.742 418.799 340.844 417.6 341.2C416.9 341.5 415.8 342.2 417.6 341.9C419.1 341.7 420.6 341.3 421.9 341.7C423.1 342 427.6 342.1 428.5 341.7C429.3 341.2 428.8 341.3 428.3 341.3C427.9 341.3 427.8 341.1 428.3 340.8C428.9 340.5 429.4 339.8 429.5 339.2ZM391.2 333.8C388.413 334.839 385.534 335.609 382.6 336.1C381.261 336.8 379.802 337.241 378.3 337.4C379 338 381.4 338.6 382.4 338.3C381.718 338.893 380.94 339.366 380.1 339.7C381.6 339.6 383.3 339.9 384.1 340C382.264 340.994 380.183 341.445 378.1 341.3C378.5 342 379.1 342.6 380.1 342.6C378.469 343.056 376.748 343.091 375.1 342.7C375.5 343.7 376 344.2 376.6 344.3C375.2 344.5 373.3 344.7 371.7 343.8C372.9 345.4 375.6 346 379.7 345.5C382.603 345.172 385.384 344.142 387.8 342.5C386.1 342.7 383.9 342.8 382.8 342.5C385.587 341.811 388.251 340.698 390.7 339.2C389.815 339.223 388.944 338.979 388.2 338.5C389.4 338.6 394 338.1 395.3 337.5C394.06 337.226 392.96 336.516 392.2 335.5C397.209 336.96 402.506 337.132 407.6 336C408.3 335.8 408.5 334.8 407 335C404.4 335.1 399.4 334.4 398.1 333.8C399.2 334.6 400.464 335.147 401.8 335.4C399.4 336.1 396 336.6 391.2 333.8Z" fill="#00D860"/>
<path d="M380.1 339.8L382.4 338.4C380.977 338.475 379.56 338.164 378.3 337.5C379.2 337.5 380.7 337 382.6 336.2C379.2 336.1 376.9 336.1 375.6 335.5C374.252 335.027 372.802 334.923 371.4 335.2C370.6 335.4 370.9 336.7 374.4 336.4C372.25 337.409 369.848 337.757 367.5 337.4C367.9 338.6 368.2 339.8 367.8 340.4C369.8 341.5 374.8 343 377.3 342.7C375.1 341.9 373.9 341 375.7 340.8C377.5 340.6 378.5 340.2 380.1 339.8Z" fill="#00D860"/>
<path d="M374.5 345.8C378.8 345.4 384.7 345.3 389.5 341.4C390.7 340.3 391.5 340.7 390.3 341.7C386.087 344.913 380.993 346.762 375.7 347C373.3 347 372.2 346 374.5 345.8Z" fill="black"/>
<path d="M407.5 338.4C406.4 338.9 403.3 339.4 402.4 339.3C401.4 339.2 400.1 339.1 399.4 339.5C398.6 339.9 398.6 340.2 399.6 340.4L402.6 340.5C401.971 340.844 401.424 341.322 401 341.9C402.4 341.5 405.2 342.2 406 342.7C405.3 342.8 404.7 342.6 404.2 342.3C406.7 345 414.1 345 415.2 344.5C414.7 344.9 414.2 345.3 413.6 345.5C415.7 345.8 418.1 345.8 420.4 344.4C419.163 344.443 417.925 344.377 416.7 344.2C417.212 343.729 417.829 343.386 418.5 343.2C416.994 343.019 415.468 343.121 414 343.5C414.3 342.9 414.7 342.2 415.3 342C412.033 342.237 408.75 341.898 405.6 341C408.2 341.3 411 339.8 412.3 339.8C410.3 339.8 408 339.3 407.5 338.4ZM398.2 340.5C396.432 340.828 394.694 341.296 393 341.9C392.2 342.3 391.5 342.7 393 342.7C393.2 342.633 393.4 342.566 393.6 342.5C393 342.5 392.2 342.5 393.4 342.1C394.6 341.7 396.2 340.9 398.2 340.5ZM394.6 344.8C395.2 344.8 398.1 344.8 399.1 343.8C400.3 344.7 402.5 346 403.9 346C405.4 346 405.2 346.3 403.9 346.5C402.7 346.6 400.3 345.8 399.1 344.9C397.4 345.5 396 345 394.5 344.7L394.6 344.8ZM373.2 357.2C376.1 358.3 379.8 359.2 382.6 358.2C384.2 359.6 387.4 359.7 389.2 359.3C390.9 359 392.5 358.7 394.4 359.3C396.4 360 400.3 360.1 401.4 361C400.4 361 398.3 361 397.7 361.2C397.2 361.3 397.5 361.6 398.4 362.2C394.834 362.074 391.304 362.94 388.2 364.7C388.658 363.659 389.417 362.779 390.38 362.173C391.342 361.568 392.463 361.263 393.6 361.3C392 360.7 386.6 360.7 384.9 361.7C384.4 361.2 383.8 360.3 383.8 360C380.9 361.5 375.5 359.2 373.2 357.2ZM365.9 352C369.3 351.6 371.7 350.5 372.7 349.4C373.2 350 375.7 350.6 378.4 349.7C378.173 349.89 378.011 350.147 377.939 350.435C377.868 350.722 377.889 351.025 378 351.3C375.827 351.486 373.699 352.027 371.7 352.9C370.6 353.4 367.2 353.9 366.1 353.3C365.1 352.7 365 352.1 365.9 352Z" fill="#00D860"/>
<path d="M378 351.3C376.2 351.3 372.9 352.3 371.7 352.9L372.2 354.6C376.646 353.315 381.281 352.808 385.9 353.1C384.6 353.1 381.9 354.6 380.5 354.8C384.1 354.5 387.5 355.3 388.5 355.5C389.4 355.7 389.5 356.5 388.9 357.1C388.2 357.7 387.9 357.8 389.4 357.8C390.8 357.8 393.9 357.8 395.3 356.4C394.7 355.8 393.3 356 392.9 355.6C393.802 355.286 394.622 354.773 395.3 354.1C393.893 354.165 392.483 354.064 391.1 353.8C390.3 353.6 389.7 353.4 390.7 352.8C391.384 352.453 391.995 351.978 392.5 351.4C390.7 351.9 387.9 352.4 385.5 350.4C386.5 350.8 388.5 350.6 389.2 350.3C388.4 349.8 387.8 349.6 387.2 349.6C389 348.6 392.7 347.8 397.4 349.6C399.575 349.425 401.763 349.559 403.9 350C404.7 349.3 406.2 347.5 407 347.1C401.6 347.5 391.9 346.5 392 343.7C390.3 346 386.3 347.3 384.5 346.9C384.3 347.7 385 348.7 385.6 349.3C383.9 349.6 380.7 350 379.2 349.6C380 350.5 381.6 351.2 382.6 351.1C380.6 351.1 379.6 351.5 378 351.3Z" fill="#00D860"/>
<path d="M389.4 357.8C390.8 357.8 393.9 357.8 395.3 356.4C394.7 355.8 393.3 356 392.9 355.6C393.8 355.282 394.62 354.77 395.3 354.1C399.2 353.7 402.6 353.9 404.3 353.4C406 352.9 410.3 353.2 411 352.9C407.4 353.6 406.7 353.9 406.4 354.5C406.2 355.1 407.7 355.5 408.5 355.5C406.9 355.5 404.8 357.2 404.5 357.9C402.5 356.7 401.4 358.2 401.1 358.7C400.149 358.465 399.159 358.433 398.194 358.605C397.229 358.778 396.311 359.151 395.5 359.7C393.5 359.2 392.2 358.8 390.2 359.2C391.5 358.9 391.2 358 389.4 357.9V357.8ZM407 347C408.3 347 411 347.2 412 347C411.368 347.298 410.792 347.704 410.3 348.2C413.5 347.8 417.7 347.6 418.9 347.8C417.5 347.5 415.9 348.5 415.1 349.1C414.3 349.6 414.8 349.8 415.8 350C416.9 350.1 418.4 351 416.4 350.7C414.175 350.458 411.932 350.425 409.7 350.6C408.8 350.7 408.3 350.3 409.7 350.1C410.9 349.8 411.9 349.4 412.5 349.1C411.241 349.302 409.959 349.302 408.7 349.1C408 348.9 407.6 348.5 408.3 348.4C409 348.3 408.6 347.9 407.8 348C407 348.2 405 349 403.9 350C405.1 348.8 406.2 347.7 407 347.1V347Z" fill="#00D860"/>
<path d="M393 349.2C393.769 350.081 394.724 350.78 395.797 351.247C396.869 351.714 398.031 351.937 399.2 351.9C399.8 351.9 400.9 352.7 399.4 352.8C395.6 352.9 393.7 352.1 392 349.6C391.6 349 392.2 348.3 393 349.1V349.2ZM416 316.9C418.988 318.091 422.184 318.669 425.4 318.6C426 318.6 427 319.1 425.7 319.3C422.283 319.715 418.821 319.051 415.8 317.4C415.1 317 415.3 316.6 416.1 316.9H416Z" fill="black"/>
<path d="M418.1 317C421.3 316.8 423.7 316.8 424.6 317.8C426.4 317.2 429.6 316.8 430.3 317.1C431.1 317.3 431.9 316.8 430.2 316.4C428.5 316 424.5 315.8 423.3 316.1C422.1 316.3 418.3 316.5 416.9 316.3C417.4 316.4 417.8 316.5 418.1 316.8V317ZM430.3 318.1C431.8 317.3 436.1 318.1 437.3 317.5C436.3 318.6 440.3 318.7 443.6 317.8C442.3 318.6 439.6 318.8 438.4 319.3C437.2 319.8 436.5 319.4 435.6 319.1C434.6 318.7 432.3 317.8 430.3 318.1Z" fill="#00D860"/>
<path d="M443.6 317.8C440.3 318.8 436.4 318.6 437.4 317.5C436 318.1 431.8 317.3 430.4 318.1C431.8 317.2 433 317.9 434.1 316C434.9 316.2 436.4 316.3 437.1 315.5C438.164 315.716 439.181 316.122 440.1 316.7C440.7 317.2 441.5 316.6 440.8 315.7C442.2 315.2 441.3 316.5 444.9 315.5C445.6 315.3 447.4 315 448.1 315C446.751 316.106 445.273 317.046 443.7 317.8H443.6Z" fill="#00D860"/>
<path d="M378.4 302.4L377.6 223.7C377.6 220.1 375.9 220.8 375.9 223.7V301.7L378.4 302.4ZM403.9 219.4L406.7 302.4L406.4 303.1H404.5L402.7 219.4H403.9ZM428 289.6L426.6 222.2C426.6 220.2 424.8 220.5 424.8 222.6L426.2 289.6H428Z" fill="#FFFF00" stroke="black" stroke-width="0.4"/>
<path d="M389.7 233.2L364.9 232.9C363.9 237.9 369.9 237.5 371.9 236.4C374.9 238.2 376.9 238.2 378.4 236.4C380.4 238.2 383.4 237.8 384.4 236.4C387.2 238.9 390.4 236.4 389.7 232.9V233.2ZM391.5 245.3H366.7C362 249.6 367.7 251.7 372.7 248.8C373.4 250.3 376.2 251 378.4 249.9C380.4 251.3 383.4 250.3 384.7 248.9C387.2 249.9 390.4 250.3 391.8 245.3H391.5ZM390.8 261.3H366.7C366.3 265.2 371.3 264.8 373 263.7C374.8 266.6 379 265.9 380.5 264.1C383 265.9 385.1 265.5 386.2 264.1C388.6 266.2 391.2 263.4 390.8 261.3ZM392.2 276.9L364.9 276.5C363.5 281.1 367.7 281.8 369.5 280.8C370.2 283.2 373.7 282.5 374.8 280.8C376.2 281.8 378 281.1 378.8 280.1C379.1 282.5 382.3 282.9 384.8 280.8C389.8 284.3 394.3 280.1 391.8 276.8L392.2 276.9ZM415.9 270.5H393.6C394.6 274.7 396.8 275.8 400.3 273.3C403.2 276.2 407.4 275.1 408.5 273.7C413.5 277.6 415.9 273 415.9 270.1V270.5ZM413.9 254.9L391.9 254.2C392.2 259.8 397.5 259.5 400.3 257.4C402.1 259.8 405.7 259.1 407.4 257.4C409.9 260.2 414.5 258.4 413.8 254.9H413.9ZM416.7 237.5H393.3C393.3 241.4 398.6 243.5 402.5 240C403.5 244.6 407.8 243.2 409.5 241.4C412.4 244.9 418.5 240.7 416.7 237.8V237.5ZM415.2 225.8L394 226.1C394 229.7 399 231.1 400.7 228.3C401.7 230 405.3 229.7 406.4 228.3C407.8 230.8 409.9 229 410.6 228.3C413.1 230 415.6 229 415.2 225.8ZM439.7 233.6L414.2 233.2C414.2 235.7 416.7 236.8 418.4 235.7C418.4 238.6 422 239.3 424.4 237.1C425.9 239.6 430.4 240 432.3 237.1C435.8 240.3 440.1 237.8 439.3 233.6H439.7ZM439.4 254.6H414.5C414.5 258.1 418.5 259.1 420.9 257.4C421.3 260.2 424.5 260.5 426.2 258.8C428.7 261.3 432.2 261.6 434.4 258.8C437.2 259.8 439.7 257.4 439.4 254.5V254.6ZM437.9 273.3H418.1C418.1 276.9 422.3 276.9 424.1 275.1C426.2 277.6 429.1 277.6 430.8 275.8C433.3 277.9 437.6 277.2 437.9 273.3Z" fill="white" stroke="black" stroke-width="0.4"/>
<path d="M406.4 303.1C395.7 303.1 384.7 303.1 377.3 302.4C369.8 301.7 367.7 300.3 362.4 297.1L342.5 285C340.8 284.2 339 285.3 341.5 286.7L361.3 299.8C366.7 303.4 370.2 306.6 373.3 310.5C377.6 315.1 380.5 315.1 382.6 314.4C384.7 313.7 387.6 312.6 390.8 313.3C393.6 314 397.8 314.3 400 314C401.8 315.8 406.4 315.4 408.9 314.7C410.842 314.093 412.907 313.99 414.9 314.4H420.9C422.7 314.4 427.3 313.3 430.5 313.7C434 314.4 437.2 313.7 439.4 313.7C441.683 313.101 444.063 312.965 446.4 313.3C448.133 312.091 449.403 310.327 450 308.3C452.1 308 452.8 307.6 453.2 306.6L455.3 300.9H456V298.8L454.6 296.6L455.3 293.1L457.1 292.4L456.4 288.8L425.2 289.5C424.04 290.55 423.266 291.958 423 293.5L413.8 294.9C412.8 295.2 411.7 295.2 410.6 296.6L406.4 303.1Z" fill="black" stroke="black" stroke-width="0.4"/>
<path d="M443.6 289.3L448.2 271.9C448.9 270.1 447.2 269.8 446.4 271.9L441.8 289.3H443.6Z" fill="black" stroke="black" stroke-width="0.4"/>
<path d="M461.7 269.8C457.8 271.5 455.7 272.6 453.9 271.9C452.1 271.2 449.9 270.9 448.6 271.5C448.615 271.633 448.615 271.767 448.6 271.9C447.285 276.405 445.951 280.905 444.6 285.4C447.6 286.4 452.5 286.4 453.6 285.4C455 284 458.2 284.4 459.9 284.4C460.9 282.9 461.3 281.1 460.9 280.4C460.6 279.7 460.9 277.9 460.9 276.9C460.9 275.8 462.4 271.9 461.7 269.8Z" fill="white" stroke="black" stroke-width="0.4"/>
<path d="M372.3 236.4C365.447 254.308 355.904 271.068 344 286.1M351 290.3C366.748 277.641 380.414 262.592 391.5 245.7M366.7 260.9C365.6 270.5 362.7 287.5 361.3 296.4M370.6 282.2C367 285.7 362.4 291.4 358.5 294.6M403.5 263C400.7 265.9 397.5 269.4 394.3 270.1M405.3 263.7C407.908 266.704 411.201 269.036 414.9 270.5M403.5 248.5C400.412 251.202 396.805 253.243 392.9 254.5M404.9 248.8C407.106 251.308 409.792 253.348 412.8 254.8M393.5 237.6C397.055 236.572 400.336 234.761 403.1 232.3M404.1 232.3C406.6 234.8 411.2 237.3 413.7 237.9M394.2 226.2C397.54 225.602 400.555 223.829 402.7 221.2M403.7 220.6C406.3 222.7 410.9 225.6 413.4 225.9M424.7 228.7C423.3 230.5 419.4 233.3 416.9 233.3M426.5 228.7C427.5 230.5 430.4 233.3 432.2 233.3M415.2 254.6C418.984 253.183 422.377 250.886 425.1 247.9M426.8 248.2C428.527 250.843 430.858 253.036 433.6 254.6M419.1 273C420.6 273 424.5 270.8 425.5 268.4M427.7 267.3C429.638 269.72 432.012 271.755 434.7 273.3M368.4 276.5C375.293 273.788 381.481 269.548 386.5 264.1M378 270.8C381.408 273.469 385.27 275.502 389.4 276.8M367.4 260.9C370.525 259.651 373.403 257.856 375.9 255.6M377.6 255.2C378.7 256.6 386.2 261.2 389.4 261.2M375.9 240.3C373.195 242.395 370.196 244.08 367 245.3M377.6 240.3C380.1 242.1 385.4 245.3 388.6 245.3M375.9 226.1C373.473 228.833 370.599 231.132 367.4 232.9M377.6 226.5C379.1 229 383.3 232.5 386.2 232.9M414.5 242C422.255 255.409 432.791 267.002 445.4 276M395.4 228.9C405.4 243.1 424.4 273.9 442.9 285.3M446.4 273.3C441.67 279.71 435.807 285.201 429.1 289.5M445.1 277.1C439 267.1 435.8 254.8 430.8 238.1M388.2 303.4L381.2 282.1H378M379.8 281.7L386.5 303M378 280.7L384.4 302.7M377.3 281L382.3 302.7M382.3 301.9H388.3M387.6 299.9H381.9M386.9 298H381.2M386.2 296.3H380.5M385.1 294.1H380.5M380.1 292.4H384.7M379.7 291H384.4M379.4 289.2H383.7M379.1 287.8H383M378.7 286H382.3M378.3 284.6H381.9M378 283.5H381.5M372 282.1L367.7 299.8M373 282.1L369.5 300.5M374.1 281.4L371.3 300.9M375.5 281L373.4 301.6M375.9 300.2H368.8M375.8 298.4H367.8M375.8 296.3H368.5M375.6 294.5H368.9M375.9 292.7H369.2M376 290.6H370M376 288.8H370M375.6 287H370.3M375.6 285.3H371M375.6 283.5H371.4M375.6 282.5H371.7M375.3 301.9V281M398.3 274L384.1 302.7M399.4 273.6L387.4 303M400.1 273.2L390.5 303M401.2 274L393.4 303M393.7 302H384.8M394.4 299.1H385.9M394.8 297H387.5M396 294.9H388.9M396.3 292.7H389.6M397.1 290.6H390.7M397.7 288.1H392.1M398.1 286.3H392.8M398.8 284.3H393.8M399.2 282.8H394.6M399.6 281.4H394.6M399.2 280H395.6M399.2 278.9H396M399.5 277.5H396.7M400.2 276.1H397.5M400.3 275H397.9M409.9 274.6L415.9 294.5L422.3 276.1M410.9 275L418.4 294.1L424.1 275.3M412 275L421 293.8M423 292L413.1 274.6M423.1 292.4H415.9M422.3 289.5H415.3M421.3 287.4H414.5M419.8 284.9H413.8M418.4 282.8H413.1M417.1 280.3H412.4M415.9 277.8H411.7M414.5 275.7H411M420.9 293.8L425.2 276.1M426.2 276.8L422.7 293.4M416.7 292.4H422.7M417.4 290.2H423.4M418.1 287.8H423.8M419.1 285.6H424.5M419.8 283.1H424.8M420.6 281.1H425.2M421.6 278.5H425.9M422.3 276.5H425.9M429.1 276.8L431.9 289.5M430.1 276.1L434.1 289.1M431.6 276.1L435.8 289.1M433.3 276.8L437.9 289.2M437.6 288.2H431.6M436.9 286.3H431.2M436.2 284.6H430.8M435.5 282.4H430.1M434.4 280.7H429.4M433.7 278.9H429.1M433 277.1H428.7" stroke="black" stroke-width="0.4"/>
<path d="M374.7 309.7C376.279 308.844 378.06 308.43 379.855 308.5C381.65 308.571 383.392 309.123 384.9 310.1C387.9 308.4 393.2 308.9 395.7 311.1C399.5 308.5 402.7 308.1 406.4 310.6C409.4 308.6 413.6 308.4 417.1 310.8C420.4 309.2 424.1 307.9 427.3 311.4C425.3 310 421.3 308.8 417.1 312C413.8 308.8 408.2 310 406.4 312.2C405.729 311.467 404.91 310.886 403.997 310.495C403.084 310.103 402.098 309.91 401.105 309.929C400.112 309.948 399.134 310.178 398.236 310.604C397.339 311.03 396.543 311.642 395.9 312.4C392.6 309.6 387.6 309.5 384.9 311.7C382.8 310 379.7 308.6 374.7 309.7Z" fill="#00B800"/>
<path d="M425 305.8C407.16 307.679 389.157 307.343 371.4 304.8C369.1 304.1 369.7 303.3 371.7 303.8C383.23 305.375 394.889 305.777 406.5 305L412.2 297.3C413.2 296.2 413.4 296 415.2 295.7L423.2 294.4V295.5L422.6 296.1C422.6 297.9 423 302.5 423.3 304.3C423.7 304.3 424.2 304 424.3 304C425.1 303.8 425.7 305.5 425.1 305.7L425 305.8Z" fill="#CF6200"/>
<path d="M449.1 306.5H451C451.407 306.478 451.797 306.332 452.119 306.082C452.441 305.832 452.678 305.489 452.8 305.1L454.8 299.3L453.3 297.1C453.564 295.505 453.798 293.904 454 292.3L456 291.6C456 291.2 455.9 290 455.4 289.6C449.1 289.9 430.4 290.6 426.8 290.6C426 290.6 425.6 290.6 425.3 291.7C423.5 298.3 426 307.5 432.6 312.7C433.1 313.2 433.6 312.8 432.8 312.1C431.28 310.617 429.968 308.935 428.9 307.1L433.6 306.9C434 308.4 435.1 311.7 435.4 312.2C435.6 312.8 436.1 313 435.9 312.2C435.2 310.2 434.9 307.9 434.6 306.9L439.6 306.8L439.8 311.5C439.8 312.2 440.4 312.2 440.4 311.5V306.7L444.7 306.6L444.3 311.3C444.3 312 444.6 312.5 444.8 311.3L445.5 306.6H448.5C448.5 307.4 447.5 310.5 447.2 311.2C447 312 447.3 312 447.6 311.2C448.279 309.696 448.782 308.119 449.1 306.5Z" fill="#CF6200"/>
<path d="M428.1 305.7C427.7 304.7 426.1 301.1 426 298.5L432.2 298.3C432.479 300.752 432.88 303.188 433.4 305.6L428.1 305.7ZM433.4 298.3L434.4 305.6H439.4L439.2 298.2L433.4 298.3ZM426.2 291.9C426 293.2 425.9 296 426 297.3L432.1 297.2L431.6 291.7L426.2 291.9ZM432.8 291.7L433.2 297.1L439.2 297L438.9 291.5L432.8 291.7ZM440.1 291.5C440.1 292.7 440.3 296.1 440.2 297L445.5 296.8C445.5 295.6 445.7 292.2 445.6 291.3L440.1 291.5ZM446.6 291.3L446.5 296.8L452.1 296.6C452.4 295.5 452.9 292.3 452.9 291L446.6 291.3ZM452.4 297.8L446.4 298C446.247 300.437 446.047 302.871 445.8 305.3L451.5 305.1C452.28 303.276 452.948 301.406 453.5 299.5L452.4 297.8ZM440.4 298.1L440.5 305.4L444.8 305.3L445.4 298L440.4 298.1ZM415.8 296.7L413.5 297.2C411.64 299.886 409.706 302.521 407.7 305.1L416.1 304.9L415.8 296.8V296.7ZM416.9 296.5L417.2 304.8L422.2 304.4L421.5 295.7L416.9 296.5Z" fill="black"/>
<path d="M392.2 276.9H364.9V276.2L392.2 276.5V276.9ZM413.5 254.9C413.8 254.9 413.8 254.9 413.5 254.9L392.2 254.5C391.8 254.5 391.8 254.5 392.2 254.5H413.5V254.9ZM390.8 260.9C391.1 260.9 391.1 261.3 390.8 261.3H366.7C366.3 261.3 366.7 260.9 366.7 260.9H390.8ZM391.5 245.3C391.8 245.3 391.8 245.7 391.5 245.7H366.3C365.9 245.7 365.9 245.3 366.3 245.3H391.5ZM389.7 232.9C390.1 232.9 390.1 233.2 389.7 233.2H365.2C364.9 233.2 365.2 232.5 365.2 232.5L390.1 232.9H389.7Z" fill="black"/>
<path d="M413.5 254.9C413.8 254.9 413.8 254.9 413.5 254.9ZM413.5 254.9L392.2 254.5M413.5 254.9V254.5H392.2M392.2 254.5C391.8 254.5 391.8 254.5 392.2 254.5ZM392.2 276.9H364.9V276.2L392.2 276.5V276.9ZM390.8 260.9C391.1 260.9 391.1 261.3 390.8 261.3H366.7C366.3 261.3 366.7 260.9 366.7 260.9H390.8ZM391.5 245.3C391.8 245.3 391.8 245.7 391.5 245.7H366.3C365.9 245.7 365.9 245.3 366.3 245.3H391.5ZM389.7 232.9C390.1 232.9 390.1 233.2 389.7 233.2H365.2C364.9 233.2 365.2 232.5 365.2 232.5L390.1 232.9H389.7Z" stroke="black" stroke-width="0.4"/>
<path d="M415.2 225.8L394 226.1" stroke="black" stroke-width="0.4"/>
<path d="M416.3 237.8C416.7 237.8 416.7 237.8 416.3 237.8H393.3C392.9 237.8 392.9 237.8 393.3 237.8H416.3ZM439.3 254.2V254.5H414.5C413.8 254.5 413.8 254.5 414.5 254.5H439.5L439.3 254.2ZM439.3 233.2C440.1 233.2 440.1 233.6 439.3 233.6H414.2C413.8 233.6 413.8 233.2 414.2 233.2H439.7H439.3ZM415.9 270.2C416.3 270.2 416.3 270.5 415.9 270.5H393.3V270.1L415.9 270.2ZM437.9 273.3C438.3 273.3 438.3 273.3 437.9 273.3V273.3Z" fill="black"/>
<path d="M416.3 237.8C416.7 237.8 416.7 237.8 416.3 237.8ZM416.3 237.8H393.3M393.3 237.8C392.9 237.8 392.9 237.8 393.3 237.8ZM414.5 254.5H439.3V254.2L439.5 254.5H414.5ZM414.5 254.5C413.8 254.5 413.8 254.5 414.5 254.5ZM437.9 273.3C438.3 273.3 438.3 273.3 437.9 273.3ZM437.9 273.3H418.1M439.3 233.2C440.1 233.2 440.1 233.6 439.3 233.6H414.2C413.8 233.6 413.8 233.2 414.2 233.2H439.7H439.3ZM415.9 270.2C416.3 270.2 416.3 270.5 415.9 270.5H393.3V270.1L415.9 270.2Z" stroke="black" stroke-width="0.4"/>
<path d="M456 276.9C456.399 275.257 456.399 273.543 456 271.9C455.313 272.092 454.587 272.092 453.9 271.9C453.58 271.648 453.246 271.414 452.9 271.2C452.9 272.6 452.1 276.5 451.4 277.9C450.4 277.9 447.9 277.9 446.8 277.2L445.8 280.8C447.546 281.182 449.354 281.182 451.1 280.8C451.1 282.8 450.7 284.7 449.6 286.1C451.4 286.1 453.2 286.1 453.6 285.1C454.6 283.6 454.6 281.5 455 280.4L456.7 280.1L458.5 279.3L461 279V276.9L461.7 275.4L456 277.2V276.9Z" fill="#EF072D" stroke="black" stroke-width="0.4"/>
<path d="M368.1 157C364.518 156.824 360.928 157.059 357.4 157.7C356.4 158.4 356 158.7 358.1 159.1C360.3 159.5 364.1 160.9 366.3 161.9C367.449 162.678 368.376 163.742 368.99 164.987C369.603 166.231 369.883 167.614 369.8 169C369.018 173.383 369.63 177.902 371.549 181.92C373.469 185.938 376.599 189.253 380.5 191.4C380.8 191.7 381.2 192.1 380.8 193.5L379.8 197.5C379.8 198.1 379.4 198.8 380.5 198.5C379.391 200.456 378.19 202.358 376.9 204.2C371.3 203.4 366.3 204.2 366.3 210.5C366.3 211.2 366.3 212 367 210.5C368 209.1 369.1 207.7 371.6 207C370.2 209.5 369.5 211.6 369.8 213C369.8 214 370.6 214.8 371.3 213C371.6 211.6 373 210.2 374.1 209.1C374.8 208.8 374.8 208.8 374.5 209.8C374.1 210.8 374.8 213 375.5 213.8C376.2 214.4 376.5 214.1 376.2 213C376.2 211.6 376.2 209.1 378 208.4C380.1 207 382.3 207.7 383 209.1C384 210.9 384.7 209.1 383.7 207.7C382.7 206.3 381.5 204.5 380.1 204.5L383.7 198.5C383.7 197.8 384.4 197.5 385.1 197.8C385.1 198.1 385.8 198.1 386.1 197.1L388.6 192.1L390.8 191.4L394.3 196.7V198.8C394.3 200.3 392.9 203.4 392.5 204.5C388.3 204.5 386.2 204.5 384.7 207C384 208 385.1 208.4 386.2 208C387.258 207.364 388.466 207.019 389.7 207C390.4 207 390.7 207.7 389.7 208C387.2 209.1 385.4 210.9 385.4 213.4C385.4 214.1 386.2 214.4 386.5 213.4C387.5 211.6 389.4 210.2 391.1 209.8C391.1 211.6 391.5 214.4 392.9 215.1C393.9 215.9 393.9 215.1 393.6 214.1C392.9 212.3 393.6 210.5 394.6 209.5C396.4 207.3 400.7 210.2 401.8 210.9C402.5 211.6 403.2 211.9 402.5 209.9C402.1 207.3 398.5 206.3 395.4 205.6L399.6 190.6C401.4 191.7 403.2 188.9 406 190C411 192.1 418.4 196.7 419.5 197.8C420.9 198.8 421.3 198.5 422 197.8C422.7 197.4 423.8 197.8 424.8 197.8C425.5 198.1 426.2 198.5 425.2 196.4C423.189 192.638 420.267 189.44 416.7 187.1C419.5 187.1 423 187.1 423 186.4C423 185.7 418.8 184.3 417 184.3C419.122 183.91 421.094 182.941 422.7 181.5C423.4 180.7 422.7 180.4 419.8 180.4C412.4 180.4 408.5 180.4 404.6 178.3C398.2 174.7 394.3 170.5 391.1 169C389.7 168 388.6 165.8 387.6 164C385.8 158.8 385.8 156 381.2 154.1C378.948 153.448 376.569 153.372 374.28 153.878C371.991 154.385 369.866 155.458 368.1 157Z" fill="black" stroke="black" stroke-width="0.4"/>
<path d="M368.5 158.4H362.4L367.7 159.8C368.7 159.8 368.4 160.8 367.7 160.5C367 160.2 366.3 160.5 367 161.2C370.6 163.7 371.3 164.8 370.6 174.4L372.3 175.8C373 175.8 372.7 176.5 372.3 176.1C372 175.8 370.6 176.1 371.6 176.8C372.6 177.6 373.4 177.6 372.3 177.6C371.3 177.6 370.2 178.3 372.3 177.9C374.1 177.9 375.2 178.6 372.3 178.9C370.2 178.9 370.9 179.7 372.3 179.7C374.8 179.7 374.1 180.4 373.3 180.4C372.7 180.4 372.3 181.1 374.1 181.1H376.6C376.9 181.1 377.3 181.1 376.6 181.5C375.9 181.5 375.9 182.2 376.9 182.2C378 182.2 378.7 182.2 377.6 182.5C377.3 182.5 376.6 182.9 377.6 183.2C380.1 183.2 380.5 183.9 379.8 184.2C379.1 184.6 378.8 184.6 379.8 184.6C380.8 184.6 381.9 185 380.8 185.4C380.1 185.4 379.8 186.1 380.8 186.1C381.9 186.1 382.6 186.8 381.9 187.1C381.2 187.5 380.9 187.8 381.9 187.8C382.9 187.8 383.3 188.2 382.6 188.5C381.9 189.3 381.6 189.3 380.8 188.5C380.8 187.8 380.1 187.8 380.1 188.5L379.4 187.5C379.1 186.5 378.4 186.5 378.4 187.5C378.4 188.5 377.6 187.8 376.9 187.5C378.61 189.492 380.94 190.851 383.515 191.359C386.091 191.867 388.762 191.494 391.1 190.3C391.5 190.3 391.8 190.3 392.1 191.3L394.3 195.3C394.7 196 395.3 195.3 395.3 194.6L397.5 188.6C397.5 187.5 398.9 186.8 398.5 189.6C399.6 188.9 403.9 188.6 407.5 189.6C410.877 190.96 414.069 192.741 417 194.9C417.25 195.099 417.542 195.239 417.854 195.308C418.166 195.377 418.489 195.375 418.8 195.3C419.8 195.3 420.2 195.3 418.4 193.5C416.7 191.7 417.4 191 418.4 191.7C419.5 192.5 420.2 192.1 419.1 191L415.6 187.8C415.2 187.8 415.2 187.1 413.5 187.1H408.1C407.4 187.1 406.7 187.1 408.9 187.8C410.9 188.5 414.9 191.4 415.9 192.1C417 192.8 417.4 194.2 415.6 192.8C411.56 190.074 407.275 187.73 402.8 185.8C393.3 186.8 385.4 187.8 379.8 181.8C376.9 178.6 376.9 171.8 381.5 169C380.8 168.3 380.8 167.6 381.2 167.6V165.5C380.5 165.1 379.8 164.5 379.8 163.7C378.8 163.7 378 161.9 376.2 162.7C374.5 163.4 374.1 162.7 373.4 162.3C373 161.6 372.7 161.6 371.6 161.6C370.6 161.6 369.8 161.6 369.8 160.9C369.8 160.2 370.6 160.2 372 160.9C374.5 161.9 376.6 162.7 378.4 160.2C379.8 158 377.6 156.2 374.8 155.6C371.6 154.9 369.5 157.3 368.1 158.4H368.5Z" fill="white" stroke="black" stroke-width="0.4"/>
<path d="M384 157.3C382.981 156.402 381.79 155.722 380.5 155.3C379.5 155.3 379.5 155.9 379.8 156.3V158.4C380.5 158.8 380.8 159.4 379.8 159.4C379.1 160.2 379.8 162.7 380.8 161.9H381.5C381.5 161.9 381.5 163 382.3 163C383 163 382.3 163.7 382.3 164H383C383.7 164 383.3 165.5 382.6 165.8C383.6 165.8 384 165.8 384 166.6C384.4 167.3 385.4 167.6 385.4 168.6C385.4 169.8 385.4 169.8 384 169.4C382.6 169 382.6 169.4 382.3 170.1C381.9 170.8 381.5 171.1 382.3 171.1C383 171.1 383.7 171.5 382.6 171.9C381.6 172.2 380.5 171.9 380.1 172.9C380.1 174 380.1 174.4 380.8 174L383.3 172.6L385.1 172.9C385.8 173.3 385.1 174.7 384.4 174C383.7 173.3 383 174 382.6 174.4L380.8 175.1C380.1 175.1 379.4 175.1 379.8 176.8C379.8 181.8 383.7 185.4 390.8 185.4H402.5C400.3 183.9 398.9 183.2 397.9 183.2H396.8C397.2 182.9 396.8 182.2 396.4 182.2C396.1 182.2 395.4 181.5 394.7 182.2L391.1 183.9C390.4 183.9 389.4 183.9 390.4 183.2L393.6 181.8C394.3 181.8 394 181.1 394 181.1C394 181.1 394 180.1 395 180.4C396.935 181.825 399.099 182.907 401.4 183.6C402.4 183.6 402.8 182.9 402.1 182.6C401.828 182.446 401.595 182.229 401.421 181.969C401.248 181.708 401.138 181.411 401.1 181.1C401.1 180.7 401.4 180.4 402.8 181.1C404.227 182.013 405.775 182.72 407.4 183.2C408.5 183.6 409.2 183.6 407.4 182.5L399.3 176.5C398.3 175.5 398.3 176.5 398.6 177.2C398.9 177.9 397.6 178.2 396.8 177.6C396.1 176.8 395.8 176.5 396.8 176.1C397.8 175.8 397.5 175.4 396.4 174.4C395 173.3 394.7 173.3 395 174.4C395.4 175.4 395.4 176.1 394.3 175.8C393.3 175.4 392.2 174.8 393.3 174.4C394 173.7 395 173.3 393.3 172.2C391.5 171.2 392.5 172.2 392.2 172.9C391.8 173.7 390.8 173.7 390.4 172.9C390.1 172.2 389.4 171.9 389.7 171.5C390.1 171.2 390.1 170.8 390.7 171.5C391.5 172.2 392.2 171.5 391.1 170.5C390.1 169.4 389.7 169.8 390.1 170.5C390.4 171.2 389.4 171.9 387.9 170.5C387.2 170.1 387.2 169.4 387.9 169C388.6 169 388.6 168.7 387.9 168C385.4 163.7 386.5 160.5 383.7 157.3H384Z" fill="white" stroke="black" stroke-width="0.4"/>
<path d="M384.2 158C384 158.4 383.9 158.4 383.5 158.7C382.9 159 382.8 160.1 383.7 159.9C384.4 159.9 384.7 159.4 384.9 159.2C384.702 158.781 384.468 158.379 384.2 158ZM381.3 155.7C380.6 156.4 380.5 156.7 380.8 156.7C381.3 156.7 381.1 156.7 380.8 157.2C380.5 157.7 381.4 157.9 381.8 157.7C382.1 157.4 382.2 157.2 382.4 157.7C382.6 158 383.1 157.7 383.6 157.3C382.911 156.664 382.137 156.125 381.3 155.7ZM380 159.7C379.1 160.2 379.5 162.5 380.8 161.9C381.3 161.7 381.7 161.7 381.6 162.1V162.7C382.21 162.46 382.758 162.084 383.2 161.6C384.1 160.6 383.2 160.6 382 160.6C380.7 160.6 380.3 160.5 381.6 159.7C382.6 159 381.9 158.6 380.4 158.8C380.6 159.1 380.4 159.5 380 159.7ZM385.4 165.1C384.6 164.4 385.1 164 385.9 163.7L386.2 163.3L385.6 161C385.2 161 384.8 161.9 384.6 162.4C384.5 163 384.3 163.4 383.7 163.1C383.1 163 382.6 163.6 382.5 164.3H382.8C383.1 164.3 383.3 164.7 383.2 165C384.9 165 385.2 166.1 385.4 167C385.7 167.8 386.1 167.6 386.4 167.2C386.6 166.7 386 165.8 385.4 165V165.1Z" fill="#CF6200"/>
<path d="M385.8 174.7C385.5 175.4 385.5 175.4 384.5 175.4C383.5 175.4 382.3 175.7 381.8 176.2C381.5 176.5 379.8 176.6 379.8 177.4C379.8 178.1 379.8 178.7 380.5 178.8C381.2 178.8 381.3 179 381.1 179.5C380.8 180 380.6 181 381.8 181C383.1 181.1 384.1 180.8 384.4 181.5C384.7 182.2 384.4 183.5 384.6 183.8C384.9 184.3 385.8 184.6 387.1 185C388.1 185.2 391.4 185.4 392.5 185.3C393.5 185.1 393.2 184.6 392.1 184.4C391.1 184.4 390.2 184.2 389.9 183.4C389.7 182.7 389.5 182.3 390.2 181.6C390.7 180.9 391.3 180.5 391 179.4C390.6 178.4 390 177 388.8 176.7C387.6 176.4 388 174.7 386.8 174.6L385.8 174.7Z" fill="#FFFF00"/>
<path d="M379.8 184.8C380.9 184.8 381.8 185.1 381 185.4C380 185.6 379.5 186.1 380.7 186.2C381.8 186.3 382.7 186.7 381.9 187C381.1 187.3 380.9 187.8 381.9 187.7C382.9 187.7 383.4 188.3 382.7 188.7C382 189.1 381.5 189.4 381 188.7C380.6 188 380.3 187.7 380.1 188.3C380 188.8 379.7 188.4 379.3 187.6C379 186.7 378.3 186.6 378.5 187.2C378.7 187.9 377.8 187.9 377 187.6C377.817 188.429 378.723 189.167 379.7 189.8C380.7 189.4 382.1 189.8 382.5 189.8C382.9 189.8 384.4 190.2 385.1 190.5C385.9 190.9 386.4 190.2 386.1 189.5C385.8 188.5 385.7 188.9 385.4 189.3C384.9 189.8 384.9 189.1 384.9 188.1C384.9 187.4 384.4 187.6 384.1 188.1C383.9 188.6 383.6 187.8 383.8 187.3C384 186.8 383.8 186.6 383.3 186.7C382.9 186.9 382.9 186.7 382.8 185.7C382.8 184.8 382.4 185 382.3 185.3C382.1 185.7 381.8 185.2 381.2 184.5C380.7 183.8 380.2 184.2 379.2 184.6L379.9 184.8H379.8Z" fill="#CF6200"/>
<path d="M391 190.4C386 192.5 382.4 191.6 379.6 189.7C380.8 189.4 382.1 189.7 382.5 189.7C383.408 189.865 384.285 190.169 385.1 190.6C385.9 191 386.4 190.2 386.1 189.4C386.9 190.3 387.3 190.9 388.1 190.9C389.1 190.8 390.3 190.7 391.1 190.4H391ZM380.3 167.3C380 166.3 379.7 166 379.1 166L377.7 165.8C377.1 165.5 376.2 165.8 376.2 166.9C376.2 168.1 375.4 168.6 374.5 169.2C373.5 169.9 373 170.5 373 171.6C373 172.6 372.7 173 372.2 173.7L371.1 174.9L372.3 175.7C372.9 175.9 372.7 176.4 372 176.2C371.3 176.1 370.7 176.4 371.8 176.7C372.8 176.9 373.4 177.4 372.4 177.4C371.3 177.4 370.1 178.2 372.2 178C374.2 177.8 375 178.7 372.6 178.7C370.1 178.9 371.1 179.7 372.4 179.7C374.7 179.7 374 180.3 373.4 180.3C372.8 180.3 372.5 181 374 180.9H374.1C374.3 180.7 374.5 180.4 374.6 180C374.8 179.3 375.1 177.2 376 176.5C376.8 175.9 377.3 175.1 377.3 174.5C377.648 173.01 378.371 171.633 379.4 170.5C380.3 169.8 380.6 168.3 380.4 167.3H380.3Z" fill="#FFFF00"/>
<path d="M378.5 167.3C377.6 166.7 376.7 167.1 376.7 168.1C376.7 169.2 376.2 169.6 375.5 169.9C375.107 170.137 374.769 170.457 374.51 170.837C374.251 171.216 374.077 171.647 374 172.1C373.8 172.9 374.1 173.5 373.4 174.2C372.9 174.9 372.7 175.4 373.2 175.8C373.7 176.2 373.7 176.2 373.8 176.8C374 177.3 375 176.8 375 176.1C375 175.4 375.3 175.4 376 175.1C376.7 174.7 377.8 172.9 377.5 172.4C377.3 172 376.7 171.6 377.5 170.9C378.3 170.1 379.1 170.1 379.1 169.4C379.1 168.7 379.3 168.6 379.6 168.3C379.8 168.1 379 167.7 378.5 167.3Z" fill="#CF6200"/>
<path d="M378.5 166.4C377.9 166.2 377.6 167.4 378.4 167.6C379.2 167.7 379.3 166.6 378.4 166.4H378.5ZM378.3 168C377.8 168 377 168.8 378.1 168.7C379.1 168.6 379.5 167.8 378.3 168ZM377.2 169.4C376.5 169.8 376.7 170.6 377.5 170C378.4 169.3 378.7 168.7 377.2 169.5V169.4ZM376.2 170.8C375.5 171.1 375.7 171.9 376.6 171.3C377.5 170.7 377.8 170 376.2 170.8Z" fill="black"/>
<path d="M374.9 171.3C374.2 171.6 374.7 172.5 375.6 171.9C376.6 171.4 376.5 170.5 374.9 171.4V171.3ZM375.6 172.1C375 172.4 375.5 173.3 376.3 172.7C377.2 172.1 377.3 171.3 375.6 172.1Z" fill="black"/>
<path d="M374.6 172.4C373.9 172.8 374.3 173.6 375.3 173C376.3 172.4 376.1 171.6 374.6 172.4ZM375.3 173.4C374.6 173.7 375 174.5 376 173.9C376.9 173.3 376.8 172.6 375.2 173.4H375.3Z" fill="black"/>
<path d="M374.2 173.9C373.5 174.2 374 175 375 174.4C376 173.9 375.7 173.1 374.2 173.9Z" fill="black"/>
<path d="M374.3 174.7C373.6 175 374 175.8 375 175.2C376 174.7 375.8 173.9 374.3 174.7Z" fill="black"/>
<path d="M373.8 182.5C373.1 182.5 372.8 183.5 373.5 183.6C374.3 183.8 374.5 183.8 374.5 184.5C374.5 185.1 374.7 185.9 375.6 186C376.5 186 377.3 185 376.5 184.8C375.7 184.5 375 184.2 375 183.6C375 182.8 374.3 182.4 373.8 182.5Z" fill="#CF6200"/>
<path d="M396.5 177.2L396.8 177.6C397.4 178.1 398.6 177.6 398.4 177.2C398.3 176.7 397.7 175.4 399.1 176.5L407.6 182.4C409.3 183.6 408.2 183.8 407.4 183.4L402.9 181.3C401.5 180.5 401.4 180.8 401.1 181C401 181.3 401.1 181.8 401.6 182.3C400.8 182.4 399.5 182.3 399.1 181.3C398.6 180.3 397.5 179 396.8 178C396.5 177.6 396.3 177.4 396.4 177.2H396.5Z" fill="#FFFF00"/>
<path d="M442.2 328.2C441 328.9 439.4 330.3 440.5 332.2L440.8 332C445.219 326.637 449.136 320.88 452.5 314.8V314.3C451.296 315.324 449.948 316.166 448.5 316.8C449 318.3 446.5 320.2 445 320.8C445.6 321.8 445.4 323.1 444.2 323.4C444.5 324.2 443.5 324.2 442.5 324.7C441.4 325.2 440.8 325.4 440.5 326.1C441 325.7 441.9 325.4 442.3 325.6C442.7 325.8 442.9 326.4 442 326.6C441.2 326.8 440.6 327.2 440.4 327.6C441.6 327.2 443.3 327.4 442.1 328.2H442.2Z" fill="#00D860"/>
<path d="M387.5 175.4C386.2 174.4 385.8 175.1 386.2 175.4C386.5 175.8 386.2 176.8 385.1 177.2H381.5C380.8 177.2 379.8 178.6 381.5 178.2L387.2 177.2C387.9 177.2 388.6 176.5 387.2 175.4H387.5ZM390.1 177.6C389 176.5 388.6 176.8 389 177.6C389.4 178.3 388.6 178.6 388 178.6L383 180C381.5 180 381.5 181.1 383.3 181.1C385.1 181.1 388.6 179.3 389 179.3C389.4 179.3 389.7 178.3 390 178.6C390.4 179 391.1 178.6 390 177.6H390.1ZM391.1 180.4L387.6 182.2C386.6 182.2 385.8 183.2 387.6 183.2C389.4 183.2 391.1 181.5 391.8 181.1L393.3 180.4C393.3 180.4 394.7 180 393.3 179C391.8 178 390.4 179 391.1 179.3C391.8 179.7 391.1 180.3 391.1 180.3V180.4Z" fill="black" stroke="black" stroke-width="0.4"/>
<path d="M376.6 157.3C374.4 155.9 371.8 158.9 374.3 160.6C376.5 162.1 378.8 158.7 376.6 157.3Z" fill="black"/>
<path d="M373.8 158.7H374.5C374.3 159.4 375 160.4 376.1 160.2C375.2 160.8 373.6 160.1 373.8 158.7ZM382.6 192.2C383.3 192.4 385.6 192.7 386.4 192.7L385.4 194.7C385.1 195.3 385 195.4 385 194.5C385 193.5 384.4 192.9 384 193.9L383 195.6C382.8 196 382.4 196.2 382.5 195.2V192.3L382.6 192.2Z" fill="white"/>
<path d="M471.6 219.4C471.6 277.2 462.4 339.6 387.2 369.4C312.4 339.6 303.2 277.2 302.8 219.4M471.6 219.4H302.8M471.6 219.4C471.6 197.4 470.6 176.1 470.9 157.7C444.223 147.337 415.818 142.145 387.2 142.4C368.4 142.4 331.5 145.3 303.5 157.7C304.2 176.1 302.8 197.4 302.8 219.4" stroke="black" stroke-width="1.1"/>
<path d="M0.5 0H256.5V256H0.5V0Z" fill="#012169"/>
<path d="M256.5 0V32L161.5 128L256.5 221.5V256H223L127.5 162L34.5 256H0.5V222L93.5 128.5L0.5 37V0H31.5L127.5 94L220.5 0H256.5Z" fill="white"/>
<path d="M92.5 162L98 179L21.5 256H0.5V254.5L92.5 162ZM154.5 156L181.5 160L256.5 233.5V256L154.5 156ZM256.5 0L160.5 98L158.5 76L233.5 0H256.5ZM0.5 0.5L97 95L67.5 91L0.5 24.5V0.5Z" fill="#C8102E"/>
<path d="M88.5 0V256H168.5V0H88.5ZM0.5 88V168H256.5V88H0.5Z" fill="white"/>
<path d="M0.5 104V152H256.5V104H0.5ZM104.5 0V256H152.5V0H104.5Z" fill="#C8102E"/>
</g>
<defs>
<clipPath id="clip0_103_11211">
<rect width="512" height="512" fill="white" transform="translate(0.5)"/>
</clipPath>
</defs>
</svg>
