<svg width="513" height="512" viewBox="0 0 513 512" fill="none" xmlns="http://www.w3.org/2000/svg">
<g clip-path="url(#clip0_103_11286)">
<path d="M512.5 512V0H0.5V512H512.5Z" fill="#002868"/>
<path d="M491.5 191.5V281.5C491.5 341.5 461.5 406.1 386.5 441.1C311.5 406.1 281.5 341.5 281.5 281.5V191.5H491.5Z" fill="#FCD116" stroke="black" stroke-width="8"/>
<path d="M491.5 191.5V281.5C491.5 341.5 461.5 406.1 386.5 441.1C311.5 406.1 281.5 341.5 281.5 281.5V191.5H491.5Z" stroke="white" stroke-width="7"/>
<path d="M348.6 290.6C345.9 295.2 341.2 296.2 337.6 294.7C333.9 293.3 330.5 284.5 326.7 279.7C323.1 275.1 322.1 277.1 319.7 274.4C316.202 271.199 312.131 268.688 307.7 267C304.4 265.5 301 264.1 298.7 258.4C299.714 256.095 301.576 254.269 303.9 253.3C305.8 252.6 307.3 249.9 307.5 247.5C307.8 245.2 309.8 242.7 312.5 240.9C311.2 241.1 308.6 240.6 307.4 239.7C306.3 238.7 304.4 239 303.3 239.9C302.1 240.6 300.7 240.9 298.7 240.6C299.5 240 300.9 238.6 301 237.4C301.1 236.2 302.6 235.5 305.5 235.5C308.3 235.5 310.1 232.2 312.4 232.2C310.8 232.2 311.1 229.5 312 229.4C308 228.6 308.5 225.4 310.1 225.4C310 224.9 309.5 224.4 307.6 223.7C305.9 223.1 306.7 221.5 308.1 220.5C306.9 218 308 216.1 310 214.5C307.2 214.4 310.3 210.5 311 208.4C311.8 206.4 312.1 206.1 313 207.4C314 208.5 316.3 211.1 318.9 211.9C321.4 212.6 322.9 214 323.4 216.1C323.9 218.4 324.9 219.5 327.6 220.5C330.5 221.4 334.4 223.8 333.9 229.1C335.79 229.171 337.609 229.836 339.1 231" fill="#FCAD56"/>
<path d="M348.6 290.6C345.9 295.2 341.2 296.2 337.6 294.7C333.9 293.3 330.5 284.5 326.7 279.7C323.1 275.1 322.1 277.1 319.7 274.4C316.202 271.199 312.131 268.688 307.7 267C304.4 265.5 301 264.1 298.7 258.4C299.714 256.095 301.576 254.269 303.9 253.3C305.8 252.6 307.3 249.9 307.5 247.5C307.8 245.2 309.8 242.7 312.5 240.9C311.2 241.1 308.6 240.6 307.4 239.7C306.3 238.7 304.4 239 303.3 239.9C302.1 240.6 300.7 240.9 298.7 240.6C299.5 240 300.9 238.6 301 237.4C301.1 236.2 302.6 235.5 305.5 235.5C308.3 235.5 310.1 232.2 312.4 232.2C310.8 232.2 311.1 229.5 312 229.4C308 228.6 308.5 225.4 310.1 225.4C310 224.9 309.5 224.4 307.6 223.7C305.9 223.1 306.7 221.5 308.1 220.5C306.9 218 308 216.1 310 214.5C307.2 214.4 310.3 210.5 311 208.4C311.8 206.4 312.1 206.1 313 207.4C314 208.5 316.3 211.1 318.9 211.9C321.4 212.6 322.9 214 323.4 216.1C323.9 218.4 324.9 219.5 327.6 220.5C330.5 221.4 334.4 223.8 333.9 229.1C335.79 229.171 337.609 229.836 339.1 231" stroke="black" stroke-width="0.3" stroke-linecap="round" stroke-linejoin="round"/>
<path d="M355.5 222.9C355.504 224.117 355.785 225.316 356.322 226.408C356.859 227.5 357.638 228.455 358.6 229.2C360.5 230.8 362.1 232 361.7 233.9C361.4 235.9 362.1 237.1 363.7 238.4C365.5 239.6 366.7 241.1 366.3 243.6C365.9 246.1 366.1 247.6 367.1 249.5C368.1 251.4 369.9 252.9 369.1 255.9C368.3 258.9 368.7 262.9 369.7 264.9C370.7 266.8 369.7 268.3 368 271.6C366.2 274.9 365.2 276.1 361.6 277.4C357.9 278.5 357.6 280.8 357.6 284.6C357.6 288.6 355 290.6 350.1 289.9C345.1 294 342 289.1 340.7 283C339.4 276.9 339.3 270.2 331.9 264.9C324.6 259.4 327.5 250.1 333.6 246.4C339.7 242.7 339 232 338.2 225.4C337.6 218.7 342 215 345.4 211.4C349.9 213.1 355.5 220 355.5 222.9Z" fill="#FFA1A1" stroke="black" stroke-width="0.3" stroke-linecap="round" stroke-linejoin="round"/>
<path d="M344.9 265.5C343.5 262.2 342 259 345.6 252C349.4 244.9 347 239.5 345.9 235.9C344.8 232.4 344.5 229.1 345.9 227.6C347.4 226.3 348 225.4 348.1 223C348.2 220.7 350.1 221.5 350.4 222.6C350.7 223.7 350.9 225.6 348.9 229C346.9 232.5 354.5 241 351 250.1C348.6 256.5 351.8 264.6 353 270.3C354.2 276 355 289.3 346.7 291.3C352.4 288.6 347.1 270.7 344.9 265.5Z" fill="#F1B2DC" stroke="black" stroke-width="0.3" stroke-linecap="round" stroke-linejoin="round"/>
<path d="M307.8 264.5C309.1 264.8 309.8 264 310.2 263.1C310.6 262.2 310.9 261.7 312.2 261.6C313.4 261.6 315.4 261.2 315.9 260.2C316.3 259.2 317.8 260.2 319.1 257.6C320.4 255 321.2 252 324.6 250.9M333.9 229.1C332.6 229.1 329 229.3 327.5 232.5M317.1 213.6C320.1 214.5 318.9 216.5 320.4 217.6C323.1 219.8 320.6 222 322.9 222.6C325.2 223.2 325 223.6 324.5 226.1C323.7 229 326.5 229.1 325.5 231M312.5 240.9C314.3 239.2 318.6 238 319.6 236.2M312.4 232.2C315 232.2 318.5 233.2 319 232.2M312 229.4C313.3 229.4 315.9 228.5 316.4 226.7M310.1 225.4C311.98 225.466 313.834 224.942 315.4 223.9M308.1 220.5C309.2 219.6 311.2 220.6 313.1 219.4M310 214.5C310.9 214.5 312.8 214.2 312.8 215.4" stroke="black" stroke-width="0.3" stroke-linecap="round" stroke-linejoin="round"/>
<path d="M429.625 237.375C429.625 237.375 420.875 230 413.625 225C406.375 220 397.625 213.875 397.625 212.625C399 211.625 406.375 216.375 416.5 222.5C426.75 228.75 432.5 234.875 432.5 234.875L429.625 237.375ZM429 242.375C429 242.375 420.5 237.25 412.125 233.625C403.375 230 390.25 230 388.875 228.75C388.875 227.5 404.125 226.75 415 231.125C426.125 236.25 431.875 239.875 431.875 239.875L429 242.375ZM428.875 250.875C428.875 250.875 419.625 246.625 410.625 244.625C401.875 242.625 389.375 243.375 387.875 242.25C387.875 241 403.375 238.5 415 242.25C426.75 245.875 431.75 248.375 431.75 248.375L428.875 250.875ZM428.375 259.5C428.375 259.5 421.375 254.75 412.125 253.75C403.375 252.875 391.75 259.5 390.25 258.25C390.25 257 400.375 249.625 413 250.875C425.375 252.125 431.25 257 431.25 257L428.375 259.5ZM431.25 232.25C431.25 232.25 422.375 224.125 422.375 218.625C422.375 213.75 427.75 206.25 430.125 206.25C428.875 208.75 424.75 213.75 424.75 218.625C424.75 223.625 434.125 229.75 434.125 229.75L431.25 232.25Z" fill="#9E540A" stroke="black" stroke-width="0.275" stroke-linecap="round" stroke-linejoin="round"/>
<path d="M431.25 232.25C431.25 232.25 433 224.125 433 218.625C433 211.25 427.75 204.5 428.25 202.625C430.125 204.5 435.375 210 435.375 218.625C435.375 226.125 434.125 229.75 434.125 229.75L431.25 232.25Z" fill="#9E540A" stroke="black" stroke-width="0.275" stroke-linecap="round" stroke-linejoin="round"/>
<path d="M433.375 229.625C433.375 227.25 432.5 225.125 431 223.5C429 221.125 426 220.375 422.875 220.875C419.125 221.5 416.125 223.75 414.25 227.25C411.75 231.875 411.5 236.875 411.375 241.75C411.375 258.625 412 265.5 412.5 282.125C412.625 287 413.5 297 411.25 304.875C410.375 308.25 409.375 311.375 407.875 314.625C408.875 310.5 409.375 308.375 409.875 305.25C411.25 297.125 410.875 289.5 410.625 282C410.125 266.625 409.25 258.75 408.75 240.125C408.625 234.5 409.125 230.25 411.75 225.75C414.5 221.125 419.25 217.75 424.625 217.75C426.875 217.75 428.75 218.125 430.625 219.25C434.375 221.25 436.125 225.375 436.125 229.5L433.375 229.625Z" fill="#9E540A" stroke="#FCD116" stroke-width="1.5" stroke-linecap="round" stroke-linejoin="round"/>
<path d="M433.375 229.625C433.375 227.25 432.5 225.125 431 223.5C429 221.125 426 220.375 422.875 220.875C419.125 221.5 416.125 223.75 414.25 227.25C411.75 231.875 411.5 236.875 411.375 241.75C411.375 258.625 412 265.5 412.5 282.125C412.625 287 413.5 297 411.25 304.875C410.375 308.25 409.375 311.375 407.875 314.625C408.875 310.5 409.375 308.375 409.875 305.25C411.25 297.125 410.875 289.5 410.625 282C410.125 266.625 409.25 258.75 408.75 240.125C408.625 234.5 409.125 230.25 411.75 225.75C414.5 221.125 419.25 217.75 424.625 217.75C426.875 217.75 428.75 218.125 430.625 219.25C434.375 221.25 436.125 225.375 436.125 229.5L433.375 229.625Z" fill="#9E540A"/>
<path d="M434.125 289.875C434.125 289.875 430.625 296.125 428 300.625C425.375 305.125 423.25 306.125 421.25 304.75C419.375 303.375 421 299.75 422.5 298C424 296.25 432.375 288.125 432.375 288.125L434.125 289.875Z" fill="#9E540A" stroke="black" stroke-width="0.275" stroke-linecap="round" stroke-linejoin="round"/>
<path d="M435 290.375C435 290.375 433.625 297.5 432.5 302.625C431.5 307.75 429.75 309.5 427.625 308.875C425.375 308.375 425.75 304.25 426.625 302.125C427.5 300 432.75 289.25 432.75 289.25L435 290.375Z" fill="#9E540A" stroke="black" stroke-width="0.275" stroke-linecap="round" stroke-linejoin="round"/>
<path d="M436.5 290.625V303.125C436.5 308.375 435.25 310.5 432.875 310.375C430.625 310.25 430.125 306.25 430.625 303.875C431 301.625 434.125 290 434.125 290L436.5 290.625Z" fill="#9E540A" stroke="black" stroke-width="0.275" stroke-linecap="round" stroke-linejoin="round"/>
<path d="M443.375 237.375C443.375 237.375 452.125 230 459.375 225C466.625 220 475.375 213.875 475.375 212.625C474 211.625 466.625 216.375 456.5 222.5C446.25 228.75 440.5 234.875 440.5 234.875L443.375 237.375ZM444 242.375C444 242.375 452.5 237.25 460.875 233.625C469.625 230 482.75 230 484.125 228.75C484.125 227.5 468.875 226.75 458 231.125C446.875 236.25 441.125 239.875 441.125 239.875L444 242.375ZM444.125 250.875C444.125 250.875 453.375 246.625 462.375 244.625C471.125 242.625 483.625 243.375 485.125 242.25C485.125 241 469.625 238.5 458 242.25C446.25 245.875 441.25 248.375 441.25 248.375L444.125 250.875ZM444.625 259.5C444.625 259.5 451.625 254.75 460.875 253.75C469.625 252.875 481.25 259.5 482.75 258.25C482.75 257 472.625 249.625 460 250.875C447.625 252.125 441.75 257 441.75 257L444.625 259.5ZM441.75 232.25C441.75 232.25 450.625 224.125 450.625 218.625C450.625 213.75 445.25 206.25 442.875 206.25C444.125 208.75 448.25 213.75 448.25 218.625C448.25 223.625 438.875 229.75 438.875 229.75L441.75 232.25Z" fill="#9E540A" stroke="black" stroke-width="0.275" stroke-linecap="round" stroke-linejoin="round"/>
<path d="M441.75 232.25C441.75 232.25 440 224.125 440 218.625C440 211.25 445.25 204.5 444.75 202.625C442.875 204.5 437.625 210 437.625 218.625C437.625 226.125 438.875 229.75 438.875 229.75L441.75 232.25Z" fill="#9E540A" stroke="black" stroke-width="0.275" stroke-linecap="round" stroke-linejoin="round"/>
<path d="M439.625 229.625C439.625 227.25 440.5 225.125 442 223.5C444 221.125 447 220.375 450.125 220.875C453.875 221.5 456.875 223.75 458.75 227.25C461.25 231.875 461.5 236.875 461.625 241.75C461.625 258.625 461 265.5 460.5 282.125C460.375 287 459.5 297 461.75 304.875C462.625 308.25 463.625 311.375 465.125 314.625C464.125 310.5 463.625 308.375 463.125 305.25C461.75 297.125 462.125 289.5 462.375 282C462.875 266.625 463.75 258.75 464.25 240.125C464.375 234.5 463.875 230.25 461.25 225.75C458.5 221.125 453.75 217.75 448.375 217.75C446.125 217.75 444.25 218.125 442.375 219.25C438.625 221.25 436.875 225.375 436.875 229.5L439.625 229.625Z" fill="#9E540A" stroke="#FCD116" stroke-width="1.5" stroke-linecap="round" stroke-linejoin="round"/>
<path d="M439.625 229.625C439.625 227.25 440.5 225.125 442 223.5C444 221.125 447 220.375 450.125 220.875C453.875 221.5 456.875 223.75 458.75 227.25C461.25 231.875 461.5 236.875 461.625 241.75C461.625 258.625 461 265.5 460.5 282.125C460.375 287 459.5 297 461.75 304.875C462.625 308.25 463.625 311.375 465.125 314.625C464.125 310.5 463.625 308.375 463.125 305.25C461.75 297.125 462.125 289.5 462.375 282C462.875 266.625 463.75 258.75 464.25 240.125C464.375 234.5 463.875 230.25 461.25 225.75C458.5 221.125 453.75 217.75 448.375 217.75C446.125 217.75 444.25 218.125 442.375 219.25C438.625 221.25 436.875 225.375 436.875 229.5L439.625 229.625Z" fill="#9E540A"/>
<path d="M438.875 289.875C438.875 289.875 442.375 296.125 445 300.625C447.625 305.125 449.75 306.125 451.75 304.75C453.625 303.375 452 299.75 450.5 298C449 296.25 440.625 288.125 440.625 288.125L438.875 289.875Z" fill="#9E540A" stroke="black" stroke-width="0.275" stroke-linecap="round" stroke-linejoin="round"/>
<path d="M438 290.375C438 290.375 439.375 297.5 440.5 302.625C441.5 307.75 443.25 309.5 445.375 308.875C447.625 308.375 447.25 304.25 446.375 302.125C445.5 300 440.25 289.25 440.25 289.25L438 290.375Z" fill="#9E540A" stroke="black" stroke-width="0.275" stroke-linecap="round" stroke-linejoin="round"/>
<path d="M436.5 290.625V303.125C436.5 308.375 437.75 310.5 440.125 310.375C442.375 310.25 442.875 306.25 442.375 303.875C442 301.625 438.875 290 438.875 290L436.5 290.625Z" fill="#9E540A" stroke="black" stroke-width="0.275" stroke-linecap="round" stroke-linejoin="round"/>
<path d="M436.5 290.5C429.875 290.375 429.25 288 429.25 288C429.25 288 428.375 285 428.25 283.125C428.125 282.875 426.375 279.125 426.875 277.5C426.25 276 424.75 272.375 426.125 271.75C425.5 270 424.5 268 424.375 266.125C423.875 264.75 422.625 261.75 423.625 260.75C423.625 260.75 421.25 255.75 422.375 254.5C422.375 254.5 421.25 249.625 422.375 248.375C422.375 248.375 422.375 243.375 423.625 242.125C423.625 242.125 423.625 237.25 424.75 236C424.75 236.25 428.25 229.125 436.5 229.125L436.375 239.75H436.5V290.5Z" fill="#9E540A" stroke="black" stroke-width="0.275" stroke-linecap="round" stroke-linejoin="round"/>
<path d="M436.5 263.25C425.875 263.125 423.625 260.75 423.625 260.75M436.5 257C425.875 257 422.375 254.5 422.375 254.5M436.5 250.875C425.875 250.75 422.375 248.375 422.375 248.375M436.5 244.625C425.875 244.5 423.625 242.125 423.625 242.125M436.375 239.75C436.5 239.75 428.375 239.75 427.125 238.5L424.75 236.125M436.5 285.5C433.375 285.5 429.875 285 428.25 283.125M436.5 280.5C430.625 280.5 427.125 278.125 427.125 278.125C427.125 278.125 427 277.875 426.875 277.5M436.5 274.375C428.75 274.25 426.625 272.625 426.125 271.75M436.5 269.375C425.875 269.375 424.75 266.875 424.75 266.875L424.375 266.125" stroke="black" stroke-width="0.275" stroke-linecap="round" stroke-linejoin="round"/>
<path d="M436.5 290.5C443.125 290.375 443.75 288 443.75 288C443.75 288 444.625 285 444.75 283.125C444.875 282.875 446.625 279.125 446.125 277.5C446.75 276 448.25 272.375 446.875 271.75C447.5 270 448.5 268 448.625 266.125C449.125 264.75 450.375 261.75 449.375 260.75C449.375 260.75 451.75 255.75 450.625 254.5C450.625 254.5 451.75 249.625 450.625 248.375C450.625 248.375 450.625 243.375 449.375 242.125C449.375 242.125 449.375 237.25 448.25 236C448.25 236.25 444.75 229.125 436.5 229.125L436.625 239.75H436.5V290.5Z" fill="#9E540A" stroke="black" stroke-width="0.275" stroke-linecap="round" stroke-linejoin="round"/>
<path d="M436.5 263.25C447.125 263.125 449.375 260.75 449.375 260.75M436.5 257C447.125 257 450.625 254.5 450.625 254.5M436.5 250.875C447.125 250.75 450.625 248.375 450.625 248.375M436.5 244.625C447.125 244.5 449.375 242.125 449.375 242.125M436.625 239.75C436.5 239.75 444.625 239.75 445.875 238.5L448.25 236.125M436.5 285.5C439.625 285.5 443.125 285 444.75 283.125M436.5 280.5C442.375 280.5 445.875 278.125 445.875 278.125C445.875 278.125 446 277.875 446.125 277.5M436.5 274.375C444.25 274.25 446.375 272.625 446.875 271.75M436.5 269.375C447.125 269.375 448.25 266.875 448.25 266.875L448.625 266.125" stroke="black" stroke-width="0.275" stroke-linecap="round" stroke-linejoin="round"/>
<path d="M386.5 405.5C381.125 410.5 370.75 407.25 367.5 405C364.125 406.125 355.125 402.625 352.75 398.75C346.25 399.625 344 390.375 345.125 388C346.875 384.5 343.75 382.25 346 379.875C349.125 376.875 344.25 374 347.25 372C350.25 369.875 346.5 366.375 349.5 364.125C352.625 361.75 347.875 358.5 351.125 356.875C354.375 355.25 350.75 351 353.5 349.375C356.25 347.75 351.875 343.625 355.625 341.75C359.25 339.875 356 336.625 358.875 335.25C362 333.625 359.125 330.25 362 329.125C365.25 327.75 362.875 324.125 365.625 323.125C368 322.25 366.5 320 368 318H386.5" fill="#009E49"/>
<path d="M386.5 405.5C381.125 410.5 370.75 407.25 367.5 405C364.125 406.125 355.125 402.625 352.75 398.75C346.25 399.625 344 390.375 345.125 388C346.875 384.5 343.75 382.25 346 379.875C349.125 376.875 344.25 374 347.25 372C350.25 369.875 346.5 366.375 349.5 364.125C352.625 361.75 347.875 358.5 351.125 356.875C354.375 355.25 350.75 351 353.5 349.375C356.25 347.75 351.875 343.625 355.625 341.75C359.25 339.875 356 336.625 358.875 335.25C362 333.625 359.125 330.25 362 329.125C365.25 327.75 362.875 324.125 365.625 323.125C368 322.25 366.5 320 368 318H386.5" stroke="black" stroke-width="0.275" stroke-linecap="round" stroke-linejoin="round"/>
<path d="M374.125 318.75C371.625 321.25 374.625 323.125 372.125 326.125C369.5 329.25 371.875 330.875 369.75 333.625C367.625 336.375 370.75 337.75 368.375 340.875C366 343.875 368.875 345.75 366.25 348.25C363.75 350.875 366.75 353.125 364.125 355.875C361.625 358.75 364.625 360.625 362.125 363.125C359.5 365.75 362.5 368.5 360 371C357.5 373.625 360.5 376.875 357.625 379.875C354.875 382.875 358.125 385.25 355.875 387.5C353.5 389.875 355.625 392.25 354 393.875C352.375 395.5 352.125 397.75 352.75 398.75M379 319.625C376.75 322.75 380.25 324.125 378.125 326.625C376 329.25 379 330.125 377.375 333.125C375.75 336.125 378.625 336.875 376.5 339.875C374.375 342.875 377.625 345.25 375.375 348.25C373 351.25 376.5 352.875 374.375 355.875C372.375 359 375.375 360.625 373.5 362.875C371.625 365.25 374.875 367.5 372.5 370.375C370.25 373.125 373.5 375.25 371.625 377.75C369.75 380.375 372.375 383.125 370.75 385.25C369.125 387.25 371.875 390.375 369.5 393.125C367.25 395.875 370 397.75 368.625 399.625C367.25 401.5 366.125 404.25 367.5 405" stroke="black" stroke-width="0.275" stroke-linecap="round" stroke-linejoin="round"/>
<path d="M386.5 405.5C391.875 410.5 402.25 407.25 405.5 405C408.875 406.125 417.875 402.625 420.25 398.75C426.75 399.625 429 390.375 427.875 388C426.125 384.5 429.25 382.25 427 379.875C423.875 376.875 428.75 374 425.75 372C422.75 369.875 426.5 366.375 423.5 364.125C420.375 361.75 425.125 358.5 421.875 356.875C418.625 355.25 422.25 351 419.5 349.375C416.75 347.75 421.125 343.625 417.375 341.75C413.75 339.875 417 336.625 414.125 335.25C411 333.625 413.875 330.25 411 329.125C407.75 327.75 410.125 324.125 407.375 323.125C405 322.25 406.5 320 405 318H386.5" fill="#009E49"/>
<path d="M386.5 405.5C391.875 410.5 402.25 407.25 405.5 405C408.875 406.125 417.875 402.625 420.25 398.75C426.75 399.625 429 390.375 427.875 388C426.125 384.5 429.25 382.25 427 379.875C423.875 376.875 428.75 374 425.75 372C422.75 369.875 426.5 366.375 423.5 364.125C420.375 361.75 425.125 358.5 421.875 356.875C418.625 355.25 422.25 351 419.5 349.375C416.75 347.75 421.125 343.625 417.375 341.75C413.75 339.875 417 336.625 414.125 335.25C411 333.625 413.875 330.25 411 329.125C407.75 327.75 410.125 324.125 407.375 323.125C405 322.25 406.5 320 405 318H386.5" stroke="black" stroke-width="0.275" stroke-linecap="round" stroke-linejoin="round"/>
<path d="M398.875 318.75C401.375 321.25 398.375 323.125 400.875 326.125C403.5 329.25 401.125 330.875 403.25 333.625C405.375 336.375 402.25 337.75 404.625 340.875C407 343.875 404.125 345.75 406.75 348.25C409.25 350.875 406.25 353.125 408.875 355.875C411.375 358.75 408.375 360.625 410.875 363.125C413.5 365.75 410.5 368.5 413 371C415.5 373.625 412.5 376.875 415.375 379.875C418.125 382.875 414.875 385.25 417.125 387.5C419.5 389.875 417.375 392.25 419 393.875C420.625 395.5 420.875 397.75 420.25 398.75M394 319.625C396.25 322.75 392.75 324.125 394.875 326.625C397 329.25 394 330.125 395.625 333.125C397.25 336.125 394.375 336.875 396.5 339.875C398.625 342.875 395.375 345.25 397.625 348.25C400 351.25 396.5 352.875 398.625 355.875C400.625 359 397.625 360.625 399.5 362.875C401.375 365.25 398.125 367.5 400.5 370.375C402.75 373.125 399.5 375.25 401.375 377.75C403.25 380.375 400.625 383.125 402.25 385.25C403.875 387.25 401.125 390.375 403.5 393.125C405.75 395.875 403 397.75 404.375 399.625C405.75 401.5 406.875 404.25 405.5 405" stroke="black" stroke-width="0.275" stroke-linecap="round" stroke-linejoin="round"/>
<path d="M386.5 405.5V318" stroke="#009E49" stroke-width="0.275" stroke-linecap="round" stroke-linejoin="round"/>
<path d="M386.5 322.5C385.375 327.375 388.125 331.625 386.5 335.75C384.875 339.75 387.625 341.375 386.75 344.625C385.75 347.875 387.875 350.25 386.5 353.75C385.125 357.25 388.375 360 386.5 364.625C384.625 369.125 387.75 370.25 386.5 374.875C385.125 380.125 388.875 382.875 386.5 386.625C384.125 390.375 388.625 391.25 386.75 395.5C384.875 399.625 387.875 401.25 386.5 405.5" stroke="black" stroke-width="0.275" stroke-linecap="round" stroke-linejoin="round"/>
<path d="M388.375 338.25C387.75 339.625 390.25 342.875 388.875 345.375C387.375 347.75 389.625 351.5 388.125 354.5C386.625 357.5 390.5 361.25 389 364.75C387.375 368.25 389.75 372.625 389 375.875C388.375 379.125 390.625 385.375 389 387.625C387.375 390 390.625 390.625 388.75 396.375C386.875 402.125 385.625 397.25 386.75 395.5C389.125 391.625 384.125 390.375 386.5 386.625C388.875 382.875 385.125 380.125 386.5 374.875C387.75 370.25 384.625 369.125 386.5 364.625C388.375 360 385.125 357.25 386.5 353.75C387.875 350.25 385.75 347.875 386.75 344.625C387.625 341.375 384.875 339.75 386.5 335.75C387.75 331.75 389 336.875 388.375 338.25ZM377.875 342.25C377 343.75 379.375 346.625 377.25 349.5C375.75 351.5 378.25 353.875 376.125 356.75C374.75 358.75 377.5 361.25 375.625 364.125C374.375 365.75 376.5 368.875 375 371.25C373.5 373.75 375.75 375.75 373.125 379C371.625 380.75 374.25 385.125 372.625 386.5C371 387.875 372.5 393.25 371.375 394C370.375 394.875 371.375 398.75 368.625 399.625C370 397.75 367.25 395.875 369.5 393.125C371.875 390.375 369.125 387.25 370.75 385.25C372.375 383.125 369.75 380.375 371.625 377.75C373.5 375.25 370.25 373.125 372.5 370.375C374.875 367.5 371.625 365.25 373.5 362.875C375.375 360.625 372.375 359 374.375 355.875C376.5 352.875 373 351.25 375.375 348.25C377.625 345.25 374.375 342.875 376.5 339.875C378.625 336.875 375.75 336.125 377.375 333.125C380.375 334.25 378.875 340.75 377.875 342.25ZM371.625 334.125C370.375 336.125 372.125 338.5 370.25 341C368.375 343.625 370.25 346.875 368.375 349C366.5 351 368.875 355 366.5 356.625C364.125 358.25 365.625 363.125 363.75 364.75C361.875 366.375 363.75 371 361.625 373.375C359.5 375.75 360.5 380.625 359.25 381.75C358.125 382.875 360.875 385.25 358.875 386.875C356.75 388.5 356.75 391.75 354 393.875C355.625 392.25 353.5 389.875 355.875 387.5C358.125 385.25 354.875 382.875 357.625 379.875C360.5 376.875 357.5 373.625 360 371C362.5 368.5 359.5 365.75 362.125 363.125C364.625 360.625 361.625 358.75 364.125 355.875C366.75 353.125 363.75 350.875 366.25 348.25C368.875 345.75 366 343.875 368.375 340.875C370.75 337.75 367.625 336.375 369.75 333.625C370.75 332.375 370.75 331.25 370.75 330.25C372.25 326.375 372.25 333.125 371.625 334.125Z" fill="#FCD116" stroke="black" stroke-width="0.275" stroke-linecap="round" stroke-linejoin="round"/>
<path d="M369.125 320.875C369.125 294.625 372.75 285.5 386.5 285.5C400.25 285.5 403.875 294.625 403.875 320.875H369.125Z" fill="#CE1126" stroke="black" stroke-width="0.275" stroke-linecap="round" stroke-linejoin="round"/>
<path d="M369.125 320.875C369.125 294.625 372.75 285.5 386.5 285.5C380.25 285.5 376.375 290.375 375.375 293.625C374.25 296.875 374.875 296.625 376.25 295.375C377.625 294.125 377 296.875 375.75 298.375C374.625 299.875 373.5 304.25 375.125 302.875C376.75 301.375 378 303 376.25 305.5C374.5 307.875 373 313.625 374.75 311.625C376.5 309.625 376.875 312.875 375.75 314.5C374.75 316.125 374.875 317.625 375.75 316.875C376.75 316.125 376.625 319.5 375.75 320.875H369.125ZM393 320.375C393 316.5 393.125 307.375 391 304.375C389.5 302 389.5 299.5 391.25 302.25C393 305 393.875 303.625 392.625 300.875C391.125 297.375 389.125 293.5 389.625 292.75C390.25 291.875 390.625 292.25 391.875 294.125C393.125 296 393.375 293.25 392 291.375C390.625 289.625 390.75 289.25 393.625 290.5C398.75 292.625 401.25 298.75 401.25 319.375L393 320.375Z" fill="black" stroke="black" stroke-width="0.275" stroke-linecap="round" stroke-linejoin="round"/>
<path d="M386.5 324.625C381 324.625 375 323.75 371 322.125C366.25 320.25 366 318.625 367.625 316.625C368.875 315.125 371.375 316 373.875 317.125C376.25 318.125 383 318.875 386.5 318.875C390 318.875 396.75 318.125 399.125 317C401.625 316 404.125 315.125 405.375 316.625C407 318.625 406.75 320.25 402 322.125C398 323.75 392 324.625 386.5 324.625Z" fill="#CE1126" stroke="black" stroke-width="0.275" stroke-linecap="round" stroke-linejoin="round"/>
<path d="M0.5 -0.5H256.5V255.5H0.5V-0.5Z" fill="#012169"/>
<path d="M256.5 -0.5V31.5L161.5 127.5L256.5 221V255.5H223L127.5 161.5L34.5 255.5H0.5V221.5L93.5 128L0.5 36.5V-0.5H31.5L127.5 93.5L220.5 -0.5H256.5Z" fill="white"/>
<path d="M92.5 161.5L98 178.5L21.5 255.5H0.5V254L92.5 161.5ZM154.5 155.5L181.5 159.5L256.5 233V255.5L154.5 155.5ZM256.5 -0.5L160.5 97.5L158.5 75.5L233.5 -0.5H256.5ZM0.5 0L97 94.5L67.5 90.5L0.5 24V0Z" fill="#C8102E"/>
<path d="M88.5 -0.5V255.5H168.5V-0.5H88.5ZM0.5 87.5V167.5H256.5V87.5H0.5Z" fill="white"/>
<path d="M0.5 103.5V151.5H256.5V103.5H0.5ZM104.5 -0.5V255.5H152.5V-0.5H104.5Z" fill="#C8102E"/>
</g>
<defs>
<clipPath id="clip0_103_11286">
<rect width="512" height="512" fill="white" transform="translate(0.5)"/>
</clipPath>
</defs>
</svg>
