<svg width="513" height="512" viewBox="0 0 513 512" fill="none" xmlns="http://www.w3.org/2000/svg">
<g clip-path="url(#clip0_103_11345)">
<path d="M0.5 0H512.5V512H0.5V0Z" fill="#002395"/>
<path d="M0.5 0H312.8V210H0.5V0Z" fill="white"/>
<path d="M0.5 0H102.9V204.8H0.5V0Z" fill="#002395"/>
<path d="M205.3 0H307.7V204.8H205.3V0Z" fill="#ED2939"/>
<path d="M282.9 234.2L299.4 260.5H346.3V352L311 297L263.7 372.5H286.7L311.1 329L361 418.6L410.9 329L435.2 372.5H458.2L411 297L375.8 352V301.4H396.9L412.6 276.4H375.8V260.4H422.7L439.2 234.2H282.9ZM337.9 346.2H286.7V364.2H337.9V346.2ZM435.2 346.2H384V364.2H435.2V346.2Z" fill="white"/>
<path d="M360.98 436.48L376.724 485.12L335.38 455.04H386.58L345.236 485.12L360.98 436.48Z" fill="white"/>
<path d="M303.38 392.96L319.124 441.6L277.78 411.52H328.98L287.636 441.6L303.38 392.96Z" fill="white"/>
<path d="M418.58 392.96L434.324 441.6L392.98 411.52H444.18L402.836 441.6L418.58 392.96Z" fill="white"/>
<path d="M254.74 263.68L270.484 312.32L229.14 282.24H280.34L238.996 312.32L254.74 263.68Z" fill="white"/>
<path d="M467.22 263.68L482.964 312.32L441.62 282.24H492.82L451.476 312.32L467.22 263.68Z" fill="white"/>
</g>
<defs>
<clipPath id="clip0_103_11345">
<rect width="512" height="512" fill="white" transform="translate(0.5)"/>
</clipPath>
</defs>
</svg>
