<svg width="513" height="512" viewBox="0 0 513 512" fill="none" xmlns="http://www.w3.org/2000/svg">
<g clip-path="url(#clip0_103_11371)">
<path d="M0.5 0H512.5V512H0.5V0Z" fill="#006600"/>
<path d="M0.5 0H512.5V365.7H0.5V0Z" fill="white"/>
<path d="M0.5 0H512.5V146.3H0.5V0Z" fill="#CC0000"/>
<path d="M236.021 249.198C237.019 247.481 238.55 246.136 240.381 245.366C242.212 244.596 244.244 244.443 246.169 244.931C248.094 245.419 249.809 246.52 251.053 248.068C252.297 249.617 253.002 251.528 253.063 253.514V290.085H259.939V253.514C260 251.528 260.705 249.617 261.949 248.068C263.193 246.52 264.908 245.419 266.833 244.931C268.758 244.443 270.79 244.596 272.621 245.366C274.452 246.136 275.983 247.481 276.981 249.198C278.057 245.956 278.347 242.504 277.828 239.127C277.309 235.751 275.996 232.546 273.996 229.776C271.996 227.006 269.368 224.75 266.326 223.195C263.285 221.639 259.917 220.828 256.501 220.828C253.085 220.828 249.717 221.639 246.676 223.195C243.634 224.75 241.006 227.006 239.006 229.776C237.007 232.546 235.693 235.751 235.174 239.127C234.655 242.504 234.946 245.956 236.021 249.198Z" fill="#F8C300"/>
<path d="M240.921 239.617C243.927 239.006 247.047 239.356 249.843 240.616C252.639 241.876 254.968 243.983 256.501 246.638C258.034 243.983 260.363 241.876 263.159 240.616C265.954 239.356 269.075 239.006 272.08 239.617C271.563 235.852 269.7 232.402 266.836 229.904C263.972 227.407 260.301 226.031 256.501 226.031C252.701 226.031 249.029 227.407 246.165 229.904C243.301 232.402 241.438 235.852 240.921 239.617Z" fill="white"/>
<path d="M253.063 275.457C252.59 280.638 250.673 285.583 247.528 289.728C244.384 293.874 240.139 297.053 235.277 298.905C230.415 300.757 225.13 301.207 220.025 300.204C214.919 299.201 210.198 296.784 206.398 293.23C204.779 297.316 202.249 300.978 199 303.938C195.752 306.898 191.872 309.078 187.654 310.312C183.437 311.547 178.993 311.802 174.661 311.06C170.33 310.318 166.225 308.598 162.658 306.03C165.365 332.654 205.301 327.242 208.227 301.349C220.807 323.365 248.455 317.075 256.501 290.085L253.063 275.457Z" fill="#F8C300"/>
<path d="M259.939 275.457C260.411 280.638 262.329 285.583 265.473 289.728C268.618 293.874 272.863 297.053 277.725 298.905C282.587 300.757 287.872 301.207 292.977 300.204C298.082 299.201 302.804 296.784 306.604 293.23C308.223 297.316 310.753 300.978 314.001 303.938C317.249 306.898 321.13 309.078 325.347 310.312C329.565 311.547 334.009 311.802 338.34 311.06C342.672 310.318 346.777 308.598 350.343 306.03C347.637 332.654 307.701 327.242 304.775 301.349C292.195 323.365 264.547 317.075 256.501 290.085L259.939 275.457Z" fill="#F8C300"/>
<path d="M226.366 322.78C220.807 334.849 209.689 336.897 199.961 327.169C199.961 327.169 203.838 324.389 208.007 323.658C207.752 321.791 207.901 319.891 208.444 318.086C208.987 316.282 209.91 314.615 211.152 313.198C214.28 315.226 216.607 318.277 217.735 321.829C223.587 321.098 226.366 322.78 226.366 322.78Z" fill="#F8C300"/>
<path d="M270.099 321.42C262.644 332.419 251.341 332.624 243.333 321.437C243.333 321.437 247.611 319.329 251.844 319.288C251.897 317.404 252.354 315.554 253.185 313.863C254.015 312.171 255.198 310.677 256.655 309.483C259.409 311.994 261.207 315.384 261.74 319.073C267.632 319.307 270.099 321.42 270.099 321.42Z" fill="#F8C300"/>
<path d="M313.012 327.123C303.877 336.772 292.69 335.148 286.594 322.814C286.594 322.814 291.157 321.425 295.341 322.068C295.698 320.218 296.449 318.466 297.541 316.931C298.633 315.396 300.043 314.113 301.674 313.169C303.986 316.093 305.212 319.728 305.142 323.455C310.919 324.639 313.012 327.123 313.012 327.123Z" fill="#F8C300"/>
<path d="M185.552 349.623C231.848 335.843 281.154 335.843 327.45 349.623" stroke="#F8C300" stroke-width="11.7029"/>
<path d="M274.367 169.738L245.459 190.741L256.501 156.757L267.543 190.741L238.635 169.738H274.367Z" fill="#F8C300"/>
<path d="M223.167 183.489L194.259 204.492L205.301 170.508L216.343 204.492L187.435 183.489H223.167Z" fill="#F8C300"/>
<path d="M185.718 220.938L156.81 241.941L167.852 207.958L178.894 241.941L149.985 220.938H185.718Z" fill="#F8C300"/>
<path d="M171.967 272.138L143.059 293.142L154.101 259.158L165.143 293.142L136.234 272.138H171.967Z" fill="#F8C300"/>
<path d="M289.835 183.489L318.743 204.492L307.701 170.508L296.659 204.492L325.567 183.489H289.835Z" fill="#F8C300"/>
<path d="M327.284 220.938L356.192 241.941L345.15 207.958L334.108 241.941L363.017 220.938H327.284Z" fill="#F8C300"/>
<path d="M341.035 272.138L369.943 293.142L358.901 259.158L347.859 293.142L376.768 272.138H341.035Z" fill="#F8C300"/>
</g>
<defs>
<clipPath id="clip0_103_11371">
<rect width="512" height="512" fill="white" transform="translate(0.5)"/>
</clipPath>
</defs>
</svg>
