<svg width="513" height="512" viewBox="0 0 513 512" fill="none" xmlns="http://www.w3.org/2000/svg">
<g clip-path="url(#clip0_103_11395)">
<path d="M0.5 0H512.5V512H0.5V0Z" fill="#00247D"/>
<path d="M91.2 384.2C85.9 384.2 141.2 354.7 187.6 317C248.3 267.5 379.1 188.3 417.6 175.5C421.6 174.2 409.4 182.3 407.8 185C366.7 233.6 399.5 325.3 450.8 371.4C466.2 383.2 465.4 383.8 494 385V387.7L91.2 384.2ZM87.9 389.6C87.9 389.6 84 392.4 84 394.5C84 396.8 88.4 399.9 88.4 399.9L485.7 404.3L493 399.4L482.8 393.1L87.9 389.6Z" fill="#FED100"/>
<path d="M106 116.6L102 128.7L112.4 121.2L122.7 128.7L118.7 116.6L129.1 109.1H116.3L112.4 96.8999L108.4 109.1H95.7L106 116.6ZM183.8 173.7L192.4 167.5H181.8L178.5 157.4L175.2 167.5H164.6L173.2 173.7L169.9 183.8L178.5 177.6L187.1 183.8L183.8 173.7ZM39.1 186.7L35.2 174.6L31.2 186.7H18.5L28.8 194.2L24.8 206.3L35.2 198.8L45.5 206.3L41.6 194.2L51.9 186.7H39.1ZM117 308.6L112.4 294.4L107.8 308.6H92.9L104.9 317.3L100.3 331.5L112.4 322.7L124.4 331.5L119.8 317.3L131.8 308.6H117Z" fill="white"/>
</g>
<defs>
<clipPath id="clip0_103_11395">
<rect width="512" height="512" fill="white" transform="translate(0.5)"/>
</clipPath>
</defs>
</svg>
