<svg width="513" height="512" viewBox="0 0 513 512" fill="none" xmlns="http://www.w3.org/2000/svg">
<g clip-path="url(#clip0_103_11408)">
<path d="M0.5 0H512.5V512H0.5V0Z" fill="#00843D"/>
<path d="M381.8 56.7002C390.312 60.281 397.946 65.6642 404.178 72.4789C410.409 79.2936 415.09 87.3779 417.897 96.1752C420.704 104.973 421.571 114.274 420.439 123.438C419.306 132.603 416.2 141.413 411.336 149.262C406.471 157.111 399.963 163.813 392.26 168.905C384.557 173.998 375.841 177.36 366.714 178.761C357.587 180.162 348.264 179.567 339.388 177.019C330.512 174.471 322.294 170.029 315.3 164C329.351 170.08 345.117 170.913 359.73 166.348C374.343 161.783 386.832 152.123 394.923 139.127C403.014 126.13 406.17 110.66 403.817 95.5323C401.464 80.4047 393.757 66.6247 382.1 56.7002H381.8ZM321.3 103.5L328.1 81.2002L309.2 95.2002H333L314.1 81.2002L321.3 103.5ZM321.3 70.7002L328.1 48.7002L309.2 62.3002H333L314.1 48.7002L321.3 70.7002ZM353.4 87.7002L360.6 65.4002L341.7 79.0002H365.1L346.2 65.4002L353.4 87.7002ZM288.4 119.4L296 97.4002L277 111.1H300.1L281.2 97.5002L288.4 119.4ZM320.9 136.4L328.5 114.1L309.5 127.7H332.6L313.7 114.1L320.9 136.4Z" fill="white"/>
<path d="M92.7 0H231V512H92.7V0Z" fill="#D22630"/>
<path d="M126.3 0H121.8L113.1 7.6L109.7 4.6H112.7L112.3 0.8H106.3L96.1 11.3V15.1H101.1V12.1L103.3 14.4L97.6 18.9L100.3 21.5L92.7 29.1V33.6L105.9 21.6L103.3 18.9L108.6 13.9L104 9.4L107 6.4L113.1 12.1L126.3 0ZM92.3 0V9.4L95.7 6.4V2.6H99.1L101.8 0H92.3ZM118 0H114.2L115 2.3L118 0Z" fill="#383739"/>
<path d="M125.9 0H122.2L113.1 8.3L108.9 4.5H112.7L112 1.5H107L96.5 11.3V14.3H100.3V10.6L104 14L98.4 18.9L101 21.5L92.7 29.1V33.3L105.2 21.5L102.5 19L108.2 14L103.2 9.5L107.1 6.1L113.1 11.8L125.9 0ZM92.7 0V9L95.3 6V2.3H99.1L101.1 0H92.7ZM117.3 0H115V1.5L117.3 0Z" fill="#FFC72C"/>
<path d="M92.7 59.2998V64.2998L100.3 71.7998L97.5 73.9998L103.2 79.2998L100.9 81.4998V78.0998H96V81.9998L106.6 92.1998H112.2L112.6 88.3998H110L113.8 85.3998L122.1 92.9998L113.4 100.9L110 97.8998H113L112.6 94.0998H106.2L95.6 104.3V108.1H100.6V105.1L102.8 106.9L97.1 112.2L99.8 114.9L92.2 122V127L105.4 114.9L102.8 112.2L108.1 106.9L103.6 102.8L106.6 99.7998L112.6 105.4L125.8 93.3998L112.6 80.8998L106.6 86.4998L103.6 83.4998L108.1 79.3998L102.8 74.0998L105.4 71.7998L92.2 59.2998H92.7ZM92.7 83.8998V102.8L95.7 99.3998V95.5998H99.1L101.8 93.2998L99.1 90.6998H95.7V86.8998L92.7 83.8998ZM115.4 90.2998L114.5 92.9998L114.9 95.5998L117.9 92.9998L115.4 90.2998Z" fill="#383739"/>
<path d="M92.7 60V64L101 71.5L98.4 74.2L104 79.5L100.3 82.5V78.7H96.5V82L107.1 91.8H112L112.3 88.8H108.6L113.1 85L122.1 93.3L113.1 101.3L108.9 97.5H112.7L112 94.5H107L96.5 104.3V107.7H100.3V103.9L104 106.9L98.4 112.2L101 114.9L92.7 122.4V126.2L105.2 114.9L102.5 112.2L108.2 106.9L103.2 102.8L107.1 99L113.1 105L125.9 93.3L113.1 81.6L107.1 87.3L103.3 83.5L108.2 79.4L102.5 74L105.2 71.7L92.7 60ZM92.7 84.3V102L95.3 99.4V95.6H99.1L101.1 93.3L98.7 91.1H95.3V87.3L92.7 84.3ZM115.4 91.1L115 93V94.8L117.3 93L115.4 91.1Z" fill="#FFC72C"/>
<path d="M92.7 155.7V160.6L100.3 168.1L97.6 170.4L103.3 175.4L101 177.6V174.6H96.1V178.3L106.7 188.2H112.3L112.7 184.8H110.1L113.9 181.8L122.2 189.3L113.5 196.9L110.1 193.9H113.1L112.7 190.4H106.3L95.7 200.6V204.4H100.7V201L102.9 203.3L97.2 208.6L99.9 210.8L92.3 218.4V222.9L105.5 210.5L102.9 208.2L108.2 202.9L103.7 198.4L106.7 195.7L112.7 201.4L125.9 188.9L112.7 176.9L106.7 182.5L103.7 179.5L108.2 174.9L102.9 170L105.5 167.4L92.3 155.3L92.7 155.7ZM92.7 179.9V198.8L95.7 195.8V192H99.1L101.8 189.3L99.1 186.7H95.7V182.9L92.7 179.9ZM115.4 186.7L114.6 189.3L115 192L118 189.3L115.4 186.7Z" fill="#383739"/>
<path d="M92.7 156V159.8L101 167.8L98.4 170.4L104 175.4L100.3 178.7V175H96.5V178.4L107.1 188.3H112L112.3 185.3H108.6L113.1 181.5L122.1 189.5L113.1 197.7L108.9 193.9H112.7L112 190.9H107L96.5 200.3V203.7H100.3V199.9L104 202.9L98.4 208.2L101 210.5L92.7 218V223L105.2 211.6L102.5 209L108.2 203.7L103.2 199.1L107.1 195.7L113.1 201.4L125.9 190.1L113.1 178L107.1 183.6L103.3 180.2L108.2 175.7L102.5 170.7L105.2 168.1L92.7 156ZM92.7 180.6V198.4L95.3 195.7V192H99.1L101.1 189.3L98.7 187H95.3V183.3L92.7 180.6ZM115.4 187.4L115 189.4V191.2L117.3 189.3L115.4 187.4Z" fill="#FFC72C"/>
<path d="M92.7 251.7V256.9L100.3 264.1L97.6 266.4L103.3 271.7L101 273.9V270.5H96.1V274.3L106.7 284.5H112.3L112.7 280.7H110.1L113.9 277.7L122.2 285.3L113.5 293.3L110.1 290.2H113.1L112.7 286.4H106.3L95.7 296.6V300.4H100.7V297.4L102.9 299.6L97.2 304.6L99.9 307.2L92.3 314.8V319.3L105.5 307.2L102.9 304.6L108.2 299.6L103.7 295.1L106.7 292.1L112.7 297.8L125.9 285.7L112.7 273.6L106.7 279.2L103.7 276.2L108.2 271.7L102.9 266.4L105.5 264.1L92.3 251.7H92.7ZM92.7 276.2V295.2L95.7 292.1V288.3H99.1L101.8 285.7L99.1 283H95.7V279.2L92.7 276.2ZM115.4 283L114.6 285.3L115 287.9L118 285.3L115.4 283Z" fill="#383739"/>
<path d="M92.7 252.4V256.2L101 264.2L98.4 266.4L104 271.7L100.3 274.7V270.9H96.5V274.7L107.1 284.2H112L112.3 281.5H108.6L113.1 277.3L122.1 285.7L113.1 294L108.9 290.2H112.7L112 287.2H107L96.5 297V300H100.3V296.2L104 299.6L98.4 304.6L101 307.2L92.7 314.8V318.5L105.2 307.2L102.5 304.6L108.2 299.6L103.2 295.1L107.1 291.3L113.1 297.3L125.9 285.7L113.1 273.9L107.1 279.6L103.3 275.8L108.2 272.1L102.5 266.4L105.2 264.1L92.7 252.4ZM92.7 276.6V294.7L95.3 292.1V288.3H99.1L101.1 286L98.7 283.8H95.3V280L92.7 277V276.6ZM115.4 283.8L115 285.3V287.2L117.3 285.2L115.4 283.8Z" fill="#FFC72C"/>
<path d="M92.7 348V353L100.3 360.5L97.6 362.7L103.3 368L101 370.3V366.5H96.1V370.3L106.7 380.5H112.3L112.7 376.7H110.1L113.9 373.7L122.2 381.3L113.5 389.2L110.1 386.2H113.1L112.7 382.4H106.3L95.7 392.6V396.4H100.7V393.4L102.9 395.2L97.2 400.5L99.9 403.2L92.3 410.4V415.3L105.5 403.2L102.9 400.5L108.2 395.2L103.7 391.1L106.7 388.1L112.7 393.7L125.9 381.7L112.7 369.2L106.7 374.8L103.7 371.8L108.2 367.7L102.9 362.4L105.5 360.1L92.7 348ZM92.7 372.6V391.5L95.7 388.1V384.3H99.1L101.8 382L99.1 379.4H95.7V375.6L92.7 372.6ZM115.4 379L114.6 381.6L115 384.3L118 381.6L115.4 379Z" fill="#383739"/>
<path d="M92.7 348.8V352.5L101 360.1L98.4 362.7L104 368L100.3 371V367.3H96.5V370.7L107.1 380.5H112L112.3 377.5H108.6L113.1 373.7L122.1 382L113.1 390L108.9 386.2H112.7L112 383.2H107L96.5 393V396.8H100.3V393L104 395.6L98.5 401L101.1 403.7L92.8 411.2V415L105.3 403.7L102.6 401L108.3 395.7L103.3 391.6L107.2 387.8L113.2 393.8L126 382.1L113.2 370.4L107.2 376.1L103.4 372.3L108.3 368.1L102.6 362.8L105.3 360.6L92.7 348.8ZM92.7 372.9V390.7L95.3 388.1V384.3H99.1L101.1 382L98.7 379.7H95.3V376L92.7 372.9ZM115.4 379.7L115 381.7V383.5L117.3 381.6L115.4 379.7Z" fill="#FFC72C"/>
<path d="M197 0H201.9L210.2 7.6L214 4.6H210.5L211.2 0.8H216.5L227.1 11.3V15.1H222.6V12.1L219.9 14.4L225.6 18.9L223 21.5L230.5 29.1V33.6L217.7 21.6L220.3 18.9L214.6 13.9L219.6 9.4L216.2 6.4L210.2 12.1L197 0ZM231 0V9.4L227.6 6.4V2.6H224.6L221.9 0H231ZM205.7 0H209.1L208.3 2.3L205.7 0Z" fill="#383739"/>
<path d="M197.7 0H201.5L210.2 8.3L214.7 4.5H211L211.7 1.5H215.9L227.2 11.3V14.7H223.5V11L219.8 14L225.8 18.9L223.2 21.5L231.5 29.1V33.3L218.5 21.9L221.2 19.3L215.9 14L219.7 9.4L215.9 6L209.9 11.7L197.7 0ZM231 0V9L228 6V2.3H224.5L222.3 0H231ZM206 0H208.3V1.5L206 0Z" fill="#FFC72C"/>
<path d="M231 59.2998V64.2998L223 71.7998L225.7 74.0998L220 79.3998L222.7 81.5998V78.1998H227.2V81.9998L216.6 92.1998H211.3L210.6 88.3998H213.6L210.2 85.3998L201.9 92.9998L210.2 100.9L214 97.8998H210.5L211.2 94.0998H216.5L227.1 104.3V108.1H222.6V105.1L219.9 106.9L225.6 112.2L223 114.9L230.5 122V127L217.7 114.9L220.3 112.2L214.6 106.9L219.6 102.8L216.2 99.7998L210.2 105.4L196.9 93.3998L210.1 80.8998L216.1 86.4998L219.6 83.4998L214.6 79.3998L220.5 73.9998L217.9 71.6998L231 59.2998ZM231 83.8998V102.8L227.6 99.3998V95.5998H224.6L221.9 93.2998L224.6 90.6998H227.6V86.8998L231 83.8998ZM208.3 90.2998L208.7 92.9998V95.5998L205.7 92.9998L208.3 90.2998Z" fill="#383739"/>
<path d="M231 60V64L222.7 71.5L225.3 74.2L219.7 79.5L223.1 82.5V78.7H226.8V82L216.3 91.8H212.1L211.3 88.8H215.1L210.6 85L201.6 93.3L210.6 101.3L215.1 97.5H211.3L212.1 94.5H215.9L226.5 104.3V107.7H222.7V103.9L218.9 106.9L224.9 112.2L222.3 114.9L230.6 122.4V126.2L217.8 115L220.4 112.3L215.1 107L219.7 102.9L215.9 99.1L209.9 105.1L197.4 93.4L209.8 81.7L215.8 87.4L219.7 83.6L215.9 79.5L221.2 74.2L218.5 71.9L231 60ZM231 84.3V102L228 99.4V95.6H224.5L222.2 93.3L224.5 91.1H228.2V87.3L231 84.3ZM208.3 91V94.7L206.1 92.9L208.3 91Z" fill="#FFC72C"/>
<path d="M231 155.7V160.6L223 168.1L225.7 170.4L220 175.4L222.7 177.6V174.6H227.2V178.3L216.6 188.2H211.3L210.6 184.8H213.6L210.2 181.8L201.9 189.3L210.2 196.9L214 193.9H210.5L211.2 190.4H216.5L227.1 200.6V204.4H222.6V201L219.9 203.3L225.6 208.6L223 210.8L230.5 218.4V222.9L217.7 210.5L220.3 208.2L214.6 202.9L219.6 198.4L216.2 195.7L210.2 201.4L196.9 188.9L210.1 176.9L216.1 182.5L219.6 179.5L214.6 174.9L220.3 170L217.7 167.4L230.9 155.3L231 155.7ZM231 179.9V198.8L227.6 195.8V192H224.6L221.9 189.3L224.6 186.7H227.6V182.9L231 179.9ZM208.3 186.7L208.7 189.3V192L205.7 189.3L208.3 186.7Z" fill="#383739"/>
<path d="M231 156V159.8L222.7 167.8L225.3 170.4L219.7 175.4L223.1 178.7V175H226.8V178.4L216.3 188.3H212.1L211.3 185.3H215.1L210.6 181.5L201.6 189.5L210.6 197.7L215.1 193.9H211.3L212.1 190.9H215.9L227.2 200.4V203.8H223.5V200L219.8 203L225.8 208.3L223.2 210.6L231.5 218.1V223.1L218.5 211.5L221.2 208.9L215.9 203.6L220.4 199L216.6 195.6L210.6 201.3L198.1 190L210.6 177.9L216.6 183.5L220.4 180.1L215.9 175.6L221.2 170.6L218.5 168L231 156ZM231 180.6V198.4L228 195.7V192H224.5L222.2 189.3L224.5 187H228.2V183.3L231 180.6ZM208.3 187.4V191.2L206.1 189.3L208.3 187.4Z" fill="#FFC72C"/>
<path d="M231 251.7V256.9L223 264.1L225.7 266.4L220 271.7L222.7 273.9V270.5H227.2V274.3L216.6 284.5H211.3L210.6 280.7H213.6L210.2 277.7L201.9 285.3L210.2 293.3L214 290.2H210.5L211.2 286.4H216.5L227.1 296.6V300.4H222.6V297.4L219.9 299.6L225.6 304.6L223 307.2L230.5 314.8V319.3L217.7 307.2L220.3 304.6L214.6 299.6L219.6 294.7L216.2 291.7L210.2 297.4L196.9 285.3L210.1 273.2L216.1 278.9L219.6 275.9L214.6 271.3L220.3 266L217.7 263.7L230.9 251.3L231 251.7ZM231 276.2V295.2L227.5 292V288.2H224.5L221.8 285.6L224.5 282.9H227.5V279.1L231 276.2ZM208.3 283L208.7 285.3V287.9L205.7 285.3L208.3 283Z" fill="#383739"/>
<path d="M231 252.4V256.2L222.7 264.5L225.3 266.8L219.7 272.1L223.1 275.1V271.3H226.8V275.1L216.3 284.5H212.1L211.3 281.9H215.1L210.6 277.7L201.6 286L210.6 294.4L215.1 290.6H211.3L212.1 287.6H215.9L226.5 297.4V300.4H222.7V296.6L218.9 300L224.9 305L222.3 307.6L230.6 315.1V318.9L217.8 307.6L220.4 304.9L215.1 300L219.7 294.7L215.9 291L209.9 297L197.4 285.3L209.8 273.6L215.8 279.2L219.7 275.5L215.1 271.7L220.4 266L217.8 263.7L231 252.4ZM231 276.6V294.7L228 292.1V288.3H224.5L222.2 286L224.5 283.8H228.2V280L230.9 277L231 276.6ZM208.3 283.8V287.2L206.1 285.2L208.3 283.8Z" fill="#FFC72C"/>
<path d="M231 348V353L223 360.5L225.7 362.7L220 368L222.7 370.3V366.5H227.2V370.3L216.6 380.5H211.3L210.6 376.7H213.6L210.2 373.7L201.9 381.3L210.2 389.2L214 386.2H210.5L211.2 382.4H216.5L227.1 393V396.8H222.6V393.8L219.9 395.6L225.6 400.9L223 403.6L230.5 410.7V415.7L217.7 403.6L220.3 400.9L214.6 395.6L219.6 391.5L216.2 388.5L210.2 394.1L196.9 381.6L210.1 369.2L216.1 374.8L219.6 371.8L214.6 367.7L220.3 362.4L217.7 360.1L231 348ZM231 372.6V391.5L227.5 388V384.2H224.5L221.8 381.9L224.5 379.3H227.5V375.5L231 372.6ZM208.3 379L208.7 381.6V384.3L205.7 381.6L208.3 379Z" fill="#383739"/>
<path d="M231 348.8V352.5L222.7 360.1L225.3 362.7L219.7 368L223.1 371V367.3H226.8V370.7L216.3 380.5H212.1L211.3 377.5H215.1L210.6 373.7L201.6 382L210.6 390L215.1 386.2H211.3L212.1 383.2H215.9L227.2 393V396.8H223.5V393L219.8 395.6L225.8 400.9L223.2 403.6L231.5 411.1V414.9L218.5 403.6L221.2 400.9L215.9 395.6L220.4 391.5L216.6 387.7L210.6 393.7L198.1 382L210.6 370.3L216.6 376L220.4 372.2L215.9 368L221.2 362.7L218.5 360.5L231 348.8ZM231 372.9V390.7L228 388.1V384.3H224.5L222.2 382L224.5 379.7H228.2V376L231 372.9ZM208.3 379.7V383.5L206.1 381.6L208.3 379.7Z" fill="#FFC72C"/>
<path d="M104 452.7C104.4 455.7 106.7 458 107.4 461C108.6 458 109.4 455.3 108.6 452C108.2 449.3 106.3 447.4 105.9 445.1C103.7 447.1 103.3 450.1 104 452.7ZM103.3 465.1C105.242 467.713 107.825 469.779 110.8 471.1C110.1 468.5 111.2 467.1 112.3 465.1C113.9 462.9 114.6 461 113.5 458.3C112.92 459.671 112.145 460.95 111.2 462.1C110.1 463.6 109.3 465.1 108.9 467.4C107.489 466.219 106.448 464.657 105.9 462.9C104.665 460.672 102.828 458.835 100.6 457.6C101.4 460.2 101.8 462.9 103.3 465.1ZM113.9 472.7C113.9 474.2 113.1 475.7 113.5 477.2L108.9 473.5C106.6 472.404 104.556 470.837 102.9 468.9C102.9 471.9 104.4 474.6 106.7 476.5L115.4 481.4C115 478.7 116.1 476.4 116.9 473.8C117.245 472.632 117.289 471.396 117.027 470.207C116.764 469.017 116.205 467.914 115.4 467C115.4 469 114.6 470.8 113.9 472.7ZM119.9 482.5L122.9 488.2C120.3 487.4 117.6 485.5 115.4 484.4C112.4 482.5 108.9 481.8 106.3 479.5C107.4 484.5 110.8 487.1 115.7 489C119.5 490 122.2 489.3 126.3 491.2C125.86 488.317 124.983 485.519 123.7 482.9L120.7 477.2C119.855 478.83 119.573 480.694 119.9 482.5ZM130.5 490.1C131.449 491.73 132.747 493.13 134.3 494.2C130.5 494.2 126.7 492 122.9 492C120.7 492 118.4 492.7 115.7 492C118.7 494.2 121.7 495.8 125.6 496.5C130.1 496.9 134.3 495.8 139.2 496.5C137.129 494.716 135.43 492.541 134.2 490.1C132.4 487.1 130.5 484.8 126.7 484.4C128.2 485.9 129.4 488.2 130.5 490.1ZM144.5 496.9C137.3 498 130.9 499.5 123.7 499.5C131.207 502.398 139.498 502.54 147.1 499.9C150.56 498.356 154.311 497.572 158.1 497.6C164.724 498.342 170.809 501.6 175.1 506.7L177.3 504.8C172.8 501.062 167.507 498.399 161.824 497.013C156.14 495.627 150.216 495.554 144.5 496.8V496.9Z" fill="#FFC72C"/>
<path d="M110.1 60.0001L98.7 53.0001V37.0001L110.1 30.2001V21.5001L120.3 15.1001H129L145.2 6.1001H179.2L194.7 15.1001H203L213.6 21.5001V30.2001L224.9 37.0001V53.0001L213.6 59.8001V68.5001L203 74.5001H194.7L178.8 83.6001H144.8L128.6 74.6001H120.3L110.1 68.9001V60.0001Z" fill="#383739"/>
<path d="M144.8 6.3999L129 15.3999H120.7L110.1 21.4999V30.1999L98.7 36.9999V52.9999L110.1 59.7999V68.4999L120.3 74.4999H129L144.8 83.5999H178.8L194.8 74.5999H203L213.2 68.4999V59.7999L224.6 52.9999V36.9999L213.2 30.1999V21.4999L203 15.4999H194.7L178.8 6.4999L144.8 6.3999ZM145.6 10.1999H178.1L193.6 18.8999H201.9L209.5 23.3999V32.0999L220.8 38.8999V50.9999L209.5 57.7999V66.4999L201.9 71.4999H193.6L178.1 79.9999H146L129.7 71.6999H121.5L114 66.6999V58.0999L102.5 51.3999V39.2999L113.9 32.4999V23.4999L121.4 18.8999H129.7L145.6 10.1999Z" fill="#00843D"/>
<path d="M161.5 45.3002V10.2002H145.5L129.6 19.2002H121.5L114 23.8002V32.5002L103 39.3002V45.0002H162V79.4002H178.2L194.1 70.7002H202.4L209.9 66.1002V57.4002L221.3 50.6002V45.3002H161.5Z" fill="#FFC72C"/>
<path d="M102.9 45.3002V51.0002L114.2 57.8002V66.5002L121.8 71.0002H129.8L145.6 79.7002H161.5V45.3002H220.5V39.7002L209.1 32.9002V23.9002L202.3 18.9002H194L178 10.2002H162.2V45.3002H102.9Z" fill="white"/>
<path d="M127.1 22.7L124.4 20L121.8 21.5L124.4 24.2L120.7 26.5H129L135.4 32.5L137.7 30.2L131.2 24.2V20.4L127.1 22.7Z" fill="#383739"/>
<path d="M140.3 21.1999L137.3 18.8999L134.6 20.3999L137.3 22.9999L133.5 25.2999H141.5L148.2 31.2999L150.2 29.0999L144.1 23.0999V19.2999L140.3 21.1999ZM125.9 30.1999L122.9 27.5999L120.3 29.0999L123.3 31.6999L119.5 33.9999H127.1L133.9 39.9999L136.2 37.7999L129.7 31.7999V27.9999L125.9 30.1999Z" fill="#383739"/>
<path d="M161.8 9.7998H154.7L150.9 13.5998H144.1L138.8 16.1998L140.3 18.8998L144.8 16.5998H146.8L154.3 24.8998L161.8 19.9998V9.7998Z" fill="#383739"/>
<path d="M124.5 20.3998L126.7 22.6998L124.8 23.7998L122.2 21.4998L124.5 20.3998ZM130.5 20.7998V24.5998L136.9 30.1998L135 32.1998L129 26.0998H122.5L130.9 20.7998H130.5ZM137.3 19.2998L139.6 21.4998L137.6 22.6998L135.4 20.3998L137.3 19.2998ZM143.3 19.5998V23.3998L149.8 29.0998L148.2 30.9998L141.8 24.9998H135L143.3 19.5998Z" fill="#D22630"/>
<path d="M123.3 27.5997L125.9 29.8997L123.7 31.3997L121.4 28.6997L123.3 27.5997ZM129.7 27.9997V31.6997L135.7 37.3997L134.3 39.2997L127.8 33.2997H121.5L129.7 27.9997ZM161.5 10.1997H155.5L151.5 13.9997H144L139.5 16.1997L140.2 18.4997L144.7 16.1997H147L153.8 24.1997L161.4 19.5997L161.5 10.1997Z" fill="#D22630"/>
<path d="M127.1 67.9999L124.4 70.2999L121.8 68.2999L124.4 66.0999L120.7 63.8999H129L135.4 57.3999L137.7 59.6999L131.2 65.6999V69.9999L127.1 67.9999Z" fill="#383739"/>
<path d="M140.3 68.7998L137.3 71.3998L134.6 69.4998L137.3 67.2998L133.5 64.9998H141.5L148.2 58.5998L150.2 60.7998L143.7 66.7998V70.9998L140.3 68.7998ZM125.9 60.4998L122.9 63.0998L120.3 61.1998L123.3 58.5998L119.5 56.5998H127.1L133.9 50.2998L136.2 52.4998L129.7 58.4998V62.2998L125.9 60.4998Z" fill="#383739"/>
<path d="M161.8 80.0999H154.7L150.9 76.6999H144.1L138.8 74.0999L140.3 71.0999L144.8 73.6999H146.8L154.3 65.3999L161.8 69.8999V80.0999Z" fill="#383739"/>
<path d="M124.5 69.8997L126.7 67.5997L124.8 66.0997L122.2 68.3997L124.5 69.8997ZM130.5 69.4997V65.6997L136.9 59.6997L135 58.1997L129 64.1997H122.5L130.9 69.4997H130.5ZM137.3 70.9997L139.6 68.7997L137.6 67.2997L135.4 69.4997L137.3 70.9997ZM143.3 70.2997V66.4997L149.8 60.7997L148.2 59.2997L141.8 65.2997H135L143.3 70.2997Z" fill="#D22630"/>
<path d="M123.3 62.3L125.9 60.1L123.7 58.9L121.4 61.2L123.3 62.3ZM129.7 62.3V58.6L135.7 52.6L134.3 51L127.8 57H121.5L129.7 62.3ZM161.5 79.7H155.5L151.6 76.3H144.1L139.6 73.7L140.3 71.4L144.8 74.1H147.1L153.9 65.7L161.5 70.3V79.7Z" fill="#D22630"/>
<path d="M122.5 34L119.1 32.5L115 35.5V36.3L108.2 45.3L115 54V54.8L119.1 57.8L122.5 56.7L120.7 55.2V52.9L121.4 51.8H125.2V38.9H121.4L120.7 38.2V35.5L122.5 34Z" fill="#383739"/>
<path d="M115.4 35.8999L119.1 32.8999L121.8 33.9999L120.3 35.0999V37.7999L121 38.8999H124.8V50.9999H121L120.3 52.0999V55.0999L121.8 56.2999L119.1 57.0999L115.4 54.3999V53.6999L108.5 44.9999L115.3 36.6999L115.4 35.8999Z" fill="#D22630"/>
<path d="M196.2 22.7L198.9 20L201.9 21.5L198.9 24.2L202.7 26.5H195.1L188.3 32.5L186 30.2L192.5 24.2V20.4L196.2 22.7Z" fill="#383739"/>
<path d="M183.4 21.1999L186 18.8999L188.7 20.3999L186 22.9999L189.8 25.2999H182.3L175.4 31.2999L173.2 29.0999L179.6 23.0999V19.2999L183.4 21.1999ZM197.4 30.1999L200 27.5999L202.7 29.0999L200 31.6999L203.8 33.9999H195.8L189.1 39.9999L187.1 37.7999L193.2 31.3999V27.5999L197.4 30.1999Z" fill="#383739"/>
<path d="M161.8 9.7998H168.6L172.4 13.5998H179.2L184.5 16.1998L183.5 18.9998L178.5 16.6998H176.7L169.5 24.9998L161.9 20.0998L161.8 9.7998Z" fill="#383739"/>
<path d="M199.3 20.3998L196.6 22.6998L198.9 23.7998L201.1 21.4998L199.3 20.3998ZM192.8 20.7998V24.5998L186.8 30.1998L188.3 32.1998L194.7 26.0998H201.1L193.2 20.7998H192.8ZM186 19.2998L183.8 21.4998L185.7 22.6998L188.3 20.3998L186 19.2998ZM180 19.5998V23.3998L174.3 29.0998L175.8 30.9998L181.8 24.9998H188.3L180 19.5998Z" fill="#D22630"/>
<path d="M200 27.5997L197.7 29.8997L199.7 31.3997L202.3 28.6997L200 27.5997ZM194 27.9997V31.6997L187.5 37.3997L189.5 39.2997L195.9 33.2997H202.3L194 27.9997ZM161.8 10.1997H168.6L172.5 13.9997H179.3L184.3 16.1997L183.1 18.4997L178.9 16.1997H176.7L169.5 24.1997L161.9 19.5997L161.8 10.1997Z" fill="#D22630"/>
<path d="M196.2 67.9999L198.9 70.2999L201.9 68.2999L198.9 66.0999L202.7 63.8999H195.1L188.3 57.3999L186 59.6999L192.5 65.6999V69.9999L196.2 67.9999Z" fill="#383739"/>
<path d="M183.4 68.7998L186 71.3998L188.7 69.4998L186 67.2998L189.8 64.9998H182.3L175.4 58.5998L173.2 60.7998L179.6 66.7998V70.9998L183.4 68.7998ZM197.4 60.4998L200 63.0998L202.7 61.1998L200 58.5998L203.8 56.5998H195.8L189.1 50.2998L187.1 52.4998L193.6 58.4998V62.6998L197.4 60.4998Z" fill="#383739"/>
<path d="M161.8 80.0999H168.6L172.4 76.6999H179.2L184.5 74.0999L183.4 71.0999L178.4 73.6999H176.6L169.4 65.3999L161.8 69.8999V80.0999Z" fill="#383739"/>
<path d="M199.3 69.8997L196.6 67.5997L198.9 66.0997L201.1 68.3997L199.3 69.8997ZM192.8 69.4997V65.6997L186.8 59.6997L188.3 58.1997L194.7 64.1997H201.1L193.2 69.4997H192.8ZM186 70.9997L183.8 68.7997L185.7 67.2997L188.3 69.4997L186 70.9997ZM180 70.2997V66.4997L174.3 61.1997L175.8 59.6997L182.3 65.6997H188.7L180.4 70.6997L180 70.2997Z" fill="#D22630"/>
<path d="M200 62.3L197.7 60.1L199.7 58.9L202.3 61.2L200 62.3ZM194 62.3V58.6L187.5 52.6L189.5 51L195.9 57H202.3L194 62.3ZM161.8 79.3H168.6L172.5 76H179.3L184.3 73.4L183.1 71.1L178.9 73.8H176.7L169.5 65.5L161.9 70L161.8 79.3Z" fill="#D22630"/>
<path d="M200.8 34L204.5 32.5L208.3 35.5V36.3L215.9 45.3L208.3 53.7V54.4L203.8 57.4L200.4 56.3L202.7 54.8V52.9L201.9 51.8H198.1V38.9H201.9L202.7 38.2V35.5L200.8 34Z" fill="#383739"/>
<path d="M208.3 35.8999L204.2 32.8999L201.9 33.9999L203.4 35.0999V37.7999L202.3 38.8999H198.9V50.9999H202.7L203.4 52.0999V55.0999L201.9 56.2999L204.2 57.0999L207.9 54.3999V53.6999L214.7 44.9999L208.3 36.6999V35.8999Z" fill="#D22630"/>
<path d="M116.9 52.1L114.9 50.6V50L111.2 45L115 40.2V39.4L116.9 37.9L119.9 40.5H118L121 43.5H127.5L132.4 39.8V28.3H145.2L160.3 19.3V17L157.7 15.5H157.3L154.7 17L154.3 18.5L152.4 15.9L156.2 12.5H156.6L161.1 9.5H162.6L166.8 12.5H167.5L171.3 15.9L169 18.5V17L166.4 15.5H165.6L163.5 17V19.3L178.5 28.3H191V39L196.3 42.8H202.8L205.4 40.2H203.5L206.9 37.5L208.8 39V39.8L212.6 44.7L208.8 49.6V50.4L206.9 51.9L203.5 49H205.4L202.8 46.4H196.3L191 50.2V60.7H178.2L163.4 70V72.3L165.6 73.8H166.4L168.6 72.3L169 71.1L171.3 73.8L167.5 76.8H166.8L162.6 79.8H161.1L156.6 76.8H156.2L152.4 73.8L154.3 71.1L154.7 72.3L157.3 73.8H157.7L160 72.3V70L145.2 61H132.8V50.2L127.8 46.4H121.5L118.5 49H120.4L116.9 52.1Z" fill="#383739"/>
<path d="M161.8 74.4002L163.4 75.6002L161.8 77.1002V74.4002ZM156.9 76.7002L160.7 79.7002H161.5V77.5002L159.2 75.5002L161.5 74.1002V69.5002L145.5 59.7002H134.2V49.9002L127.4 45.3002H118.3L116 48.0002L113.8 45.3002H111.1L114.9 49.9002V50.6002L116 51.8002L118.7 49.8002H117.5V49.5002L120.5 46.5002H127.4L132.7 50.3002V60.8002H145.1L160.2 70.3002V72.9002L158 74.4002H156.8L154.2 72.9002V71.8002L152.7 73.7002L156.5 76.3002L156.9 76.7002ZM116.5 42.7002L118.4 45.0002H114.5L116.5 42.7002ZM161.8 13.2002L160 14.4002L161.5 15.4002L161.8 13.2002ZM204.9 45.3002L206.4 47.3002L208.4 45.3002H204.9ZM166.8 13.3002L162.6 10.2002H161.8V12.8002L164.1 14.4002L161.8 16.2002V20.8002L178.1 30.2002H189.4V40.1002L195.4 45.0002H204.5L206.8 42.3002L209.5 45.0002H212.1L208.3 40.4002V39.7002L206.8 38.2002L204.5 40.0002H205.7V40.3002L202.7 43.7002H195.9L190.6 39.6002V29.0002H178.1L163 20.0002V17.3002L165.6 15.3002H166.4L169 17.3002V18.0002L170.5 16.1002L167.1 13.1002L166.8 13.3002Z" fill="#FFC72C"/>
<path d="M161.5 77.0002L160 75.6002L161.5 74.4002V77.0002ZM118.4 45.3002L116.5 47.3002L114.6 45.3002H118.4ZM166.8 76.7002L162.6 79.7002H161.8V77.5002L164.1 75.5002L161.8 74.1002V69.5002L177.8 59.7002H189.4V49.9002L195.4 45.3002H204.5L206.8 48.0002L209.5 45.3002H212.1L208.3 49.9002V50.6002L206.8 51.8002L204.5 49.8002H205.7V49.5002L202.7 46.5002H195.9L190.6 50.3002V60.8002H178.1L163 70.3002V72.9002L165.6 74.4002H166.4L169 72.9002V71.8002L170.5 73.7002L167.1 76.3002L166.8 76.7002ZM206.8 42.7002L205.3 45.0002H209.1L206.8 42.7002ZM156.9 13.2002L160.7 10.2002H161.5V12.8002L159.2 14.4002L161.5 16.2002V20.8002L145.5 30.2002H134.2V40.1002L127.4 45.3002H118.3L116 42.7002L113.8 45.3002H111.1L114.9 40.8002V40.1002L116 38.5002L118.7 40.5002H117.5V40.8002L120.5 44.2002H127.4L132.7 40.1002V29.0002H145.1L160.2 20.0002V17.3002L158 15.3002H156.8L154.2 17.3002V18.0002L152.7 16.1002L156.5 13.1002L156.9 13.2002ZM161.9 15.5002L163.4 14.4002L161.8 13.2002L161.9 15.5002Z" fill="white"/>
<path d="M161.5 45.3002V21.2002L146 30.2002H134.5V40.1002L128.5 44.6002H161.7V68.8002L177.7 58.9002H189V49.5002L195 45.0002L161.5 45.3002Z" fill="#00843D"/>
<path d="M128.5 45.2998L134.3 49.8998V59.2998H145.5L161.4 69.0998V44.9998H195L189 40.3998V30.1998H177.6L161.7 20.7998V45.2998H128.5Z" fill="#D22630"/>
<path d="M144.8 33.3001L142.2 30.6001L139.2 32.5001L142.2 35.1001L138.4 37.1001H146L152.8 43.5001L155 41.2001L148.6 35.2001V31.4001L144.8 33.3001ZM178.8 56.7001L181.5 59.3001L184.1 57.8001L181.5 55.2001L184.9 52.9001H177.3L170.5 46.9001L168.6 49.1001L175.1 55.1001V59.0001L178.8 56.7001ZM144.8 56.7001L142.2 59.3001L139.2 57.8001L142.2 55.2001L138.4 52.9001H146L152.8 46.9001L155 49.1001L148.6 55.1001V59.0001L144.8 56.7001ZM178.8 33.3001L181.5 30.6001L184.1 32.5001L181.5 35.1001L184.9 37.1001H177.3L170.5 43.5001L168.6 41.2001L175.1 35.2001V31.4001L178.8 33.3001Z" fill="#383739"/>
<path d="M181.5 58.9999L178.8 56.6999L181.1 55.1999L183.4 57.3999L181.5 58.9999ZM175.5 58.5999V54.7999L169 49.0999L170.5 47.1999L177 53.1999H183.8L175.5 58.5999ZM141.8 31.3999L144.5 33.5999L142.5 34.7999L139.9 32.4999L141.8 31.3999ZM148.2 31.3999V34.9999L154.2 40.9999L152.8 42.5999L146.4 36.5999H140.4L147.9 31.5999L148.2 31.3999Z" fill="#D22630"/>
<path d="M181.5 31.3999L178.8 33.5999L181.1 34.7999L183.4 32.4999L181.5 31.3999ZM175.5 31.3999V34.9999L169 41.4999L170.5 42.9999L177 36.9999H183.8L175.5 31.3999ZM141.8 58.8999L144.5 56.6999L142.5 55.1999L139.9 57.3999L141.8 58.8999ZM148.2 58.5999V54.7999L154.2 49.0999L152.8 47.1999L146.4 53.1999H140.4L148.6 58.5999H148.2Z" fill="#00843D"/>
<path d="M178.8 45.3L161.8 56.7L144.8 45.3L161.8 34L178.8 45.3Z" fill="#383739"/>
<path d="M161.5 34L145.5 45.3H178L161.8 34V55.5L178.1 45.3H146L161.8 56L161.5 34Z" fill="white"/>
<path d="M166.4 49.1001V52.1001H157.4V49.1001H151.3V41.1001H157.3V38.1001H166.3V41.1001H172V48.7001L166.4 49.1001Z" fill="#383739"/>
<path d="M157.7 38.5V41.5H151.7V45H161.5V38.5H157.7ZM161.8 45H171.7V41.2H166V38.5H162.2V45H161.8ZM151.6 45V48.7H157.6V51.7H161.5V45.3L151.6 45ZM161.8 51.8H165.6V48.8H171.6V45H161.8V51.8Z" fill="#D22630"/>
<path d="M190.5 173.8V169H204.5V163.7H218.1V118.7H204.5V113.8H190.9V108.9H177.3V104H147.1V109H132.8V113.8H119.1V118.8H105.5V164H119.1V168.9H132.8V173.9H146.4V178.7H177V173.8H190.5Z" fill="#383739"/>
<path d="M146.7 104.3V109.2H133.1V114.2H119.5V119H106.3V163.2H119.9V168.5H133.5V173.5H147.1V178.3H177.3V173.4H190.6V168.5H204.2V163.2H217.8V119H204.2V114.1H190.5V109.6H176.9V104.6L146.7 104.3ZM150.5 108.1H173.2V113H186.8V117.9H200.4V122.8H214V159.8H200.4V164.8H186.8V169.7H173.2V174.6H150.5V170H136.5V165.1H122.9V160.2H109.3V123.2H122.9V118.2H136.5V113.4H150.1L150.5 108.1Z" fill="#FFC72C"/>
<path d="M137.3 169.3V164.3H123.7V159.5H110.1V123.2H123.7V118.2H137.3V113.4H150.9V108H172.8V113.3H186.4V118.2H200V123.1H213.6V159.4H200V164.3H186.5V169.2H172.9V174.1H150.9V169.1L137.3 169.3Z" fill="#D22630"/>
<path d="M140.3 117.1L136.5 114.1V119.4L133.5 121.7V118.3L130.1 121.3L127.1 118.3V121.7L123.3 119V124L120.3 126.2V123.2L116.5 125.8L112.7 123.2V126.2L109.7 123.6V137.9H105.5V144.7H109.3V158.7L113.1 156.1V159.1L116.9 156.4L120.3 159.1V156.1L123.3 158.3V163.3L127.1 160.6V164L130.1 161L133.5 164V160.6L136.9 162.9V168.1L140.7 165.1V168.9L143.7 165.9L147.5 168.9V165.1L150.5 167.8V173.1L155 168.9V173.9L161.8 170L168.3 173.8V169L173.2 173.2V167.9L176.2 165.2V169L180 166L183 169V165.2L186.8 168.2V163L190.2 160.7V164.1L193.2 161.1L196.6 164.1V160.7L200.4 163.3V158.8L203.4 156.5V159.5L207.2 156.9L210.6 159.6V156.6L214 159.2V144.8H217.8V138H214V123.7L210.2 126.3V123.3L206.8 125.9L203 123.3V126.3L200.5 124V119L196.7 121.7V118.3L193.3 121.3L190.3 118.3V121.7L186.5 119.4V114.1L183.1 116.8V113L179.7 116.8L176.3 113V116.8L173.3 114.5V109.2L168.3 113.4V108.4L161.9 112.2L155.1 108.4V113.4L150.6 109.2V114.5L147.2 116.8V113L143.8 116.8L140.4 113L140.3 117.1Z" fill="#383739"/>
<path d="M113.5 127V124L116.5 126.2L119.9 123.9V126.9L123.3 124.3V158.3L119.5 155.7V158.7L116.5 156.4L113.5 158.7V155.7L109.7 158.3V144.3H105.9V138.3H109.7V124.7L113.5 127ZM140.7 114.1L143.7 116.8L146.7 114.1V117.9L150.5 114.9V167.8L146.7 165.1V168.5L143.7 165.5L140.7 168.5V164.7L136.9 167.7V115L140.7 117.6V114.1ZM182.7 114.1L179.7 116.8L176.6 114.1V117.9L172.8 114.9V167.8L176.6 165.1V168.5L179.6 165.5L182.6 168.5V164.7L186.4 167.7V115L182.6 117.6L182.7 114.1ZM210.2 127V124L206.8 126.2L203.8 123.9V126.9L200 124.3V158.3L203.8 155.7V158.7L206.8 156.4L210.2 158.7V155.7L213.6 158.3V144.3H217.4V138.3H213.5V124.7L210.2 127Z" fill="#00843D"/>
<path d="M127.5 119L130.1 121.7L133.1 119V122L136.9 119.8V162.8L133.1 160.6V163.6L130.1 161L127.5 163.6V160.6L123.7 162.9V119.8L127.5 122V119ZM155.5 114.1L150.9 110V172.7L155.4 168.5V173.8L161.8 169.7L167.8 173.4V168.5L172.8 172.7V110L167.8 114.1V108.8L161.8 112.6L155.4 108.8L155.5 114.1ZM196.2 119.1L193.2 121.7L190.6 119V122L186.8 119.8V162.8L190.6 160.6V163.6L193.2 161L196.2 163.6V160.6L200 162.9V119.8L196.2 122V119.1Z" fill="#FFC72C"/>
<path d="M115 135.3L116.5 135.7L118 135.3C118.558 134.473 118.943 133.542 119.132 132.562C119.321 131.583 119.31 130.575 119.1 129.6L117.6 131.5L116.5 130L115.4 131.5L113.9 129.6C113.9 131.5 113.9 133.8 114.9 135.3H115ZM129.4 131.5L128.2 130.4V128L125.6 130.3L130.1 134.8L134.6 130.3L132 128V130.3L131.2 131.4V127.6L133.2 125.7L130.2 123.5L127.5 125.7L129.4 127.7V131.5ZM143 127L141.8 126.2V124L139.2 126.3L143.7 130.8L148.2 126.3L145.6 124V126.3L144.8 127.1V123.3L146.8 121.8L143.8 119.1L141.1 121.8L143 123.3V127Z" fill="#383739"/>
<path d="M116.5 130.7L117.6 132.3L118.8 130.7C118.8 132.7 118.8 134.1 117.6 134.5C117.46 134.652 117.289 134.772 117.1 134.855C116.911 134.938 116.707 134.98 116.5 134.98C116.293 134.98 116.089 134.938 115.9 134.855C115.711 134.772 115.54 134.652 115.4 134.5C114.6 134.1 114.2 132.6 114.2 130.7L115.7 132.3L116.5 130.7ZM144.5 123.2V128.1L146 126.2V124.7L147.9 126.2L144.1 130L139.9 126.2L141.4 124.7V126.2L143.4 128.1V123.1L141.4 121.7L143.7 119.7L146 121.7L144.5 123.2Z" fill="white"/>
<path d="M130.9 127.3V132.3L132.4 130.3V129L134.3 130.5L130.5 134.2L126.3 130.5L127.8 129V130.5L129.8 132.4V127.4L127.8 125.9L130.1 124L132.4 126L130.9 127.3Z" fill="#D22630"/>
<path d="M208.3 135.3L206.8 135.7L205.3 135.3C204.2 133.8 204.2 131.5 204.2 129.6L206.1 131.5L206.8 130L207.9 131.5L209.9 129.6C209.9 131.5 209.9 133.8 208.3 135.3ZM194.3 131.5L195.1 130.4V128L197.7 130.3L193.2 134.8L188.7 130.3L191.3 128V130.3L192.5 131.4V127.6L190.5 125.7L193.2 123.5L196.2 125.7L194.3 127.7V131.5ZM180.3 127L181.5 126.2V124L184.1 126.3L179.6 130.8L175.1 126.3L177.7 124V126.3L178.8 127.1V123.3L177 121.8L179.6 119.1L182.6 121.8L180.4 123.3L180.3 127Z" fill="#383739"/>
<path d="M206.8 130.7L206.1 132.3L204.5 130.7C204.5 132.7 204.9 134.1 205.7 134.5C205.832 134.729 206.021 134.918 206.249 135.05C206.477 135.182 206.736 135.252 207 135.252C207.264 135.252 207.523 135.182 207.751 135.05C207.979 134.918 208.168 134.729 208.3 134.5C209.1 134.1 209.5 132.6 209.5 130.7L207.9 132.3L206.8 130.7ZM179.2 123.2V128.1L177.3 126.2V124.7L175.8 126.2L179.6 130L183.4 126.2L181.9 124.7V126.2L180.4 128.1V123.1L181.9 121.7L179.6 119.7L177.3 121.7L179.2 123.2Z" fill="white"/>
<path d="M192.8 127.3V132.3L190.9 130.3V129L189.4 130.5L193.2 134.2L197 130.5L195.5 129V130.5L194 132.4V127.4L195.5 125.9L193.2 124L190.9 126L192.8 127.3Z" fill="#D22630"/>
<path d="M166.8 128.5L165.6 126.5L169.4 123.2L165.6 120.5V122.5L164.5 123.5V119.8L167.9 117.5L161.9 113L155.8 117.5L159.2 120.2V123.9L157.7 122.4V120.5L153.9 123.2L157.7 127L156.6 128.9L166.8 128.5Z" fill="#383739"/>
<path d="M156.9 128.5L158.4 126.5L154.7 123.2L157.3 121.2V122.4L159.6 124.4V119.8L156.2 117.5L161.8 113.7L167.1 117.5L164.1 119.8V124.3L166.4 122.4V121.3L169 123.2L165.2 127L166.4 128.5H156.9Z" fill="#D22630"/>
<path d="M159.2 117.5L161.8 119.4L164.5 117.5L161.8 115.6L159.2 117.5Z" fill="#383739"/>
<path d="M161.8 116L163.8 117.5L161.8 119L159.6 117.5L161.8 116Z" fill="#00843D"/>
<path d="M115 147.4C115.208 147.231 115.449 147.109 115.707 147.04C115.966 146.971 116.236 146.957 116.5 147L118 147.4C118.536 148.161 118.911 149.024 119.1 149.936C119.289 150.847 119.289 151.788 119.1 152.7L117.6 151.1L116.5 153.1L115.4 151.1L113.9 153.1C113.9 151.5 113.9 149.3 114.9 147.7L115 147.4ZM129.4 151.1L128.2 152.3V154.5L125.6 151.9L130.1 147.7L134.6 151.9L132 154.5V152.3L131.2 151.1V154.9L133.2 156.9L130.2 159.1L127.5 156.8L129.4 154.9V151.1ZM143 155.3L141.8 156.4V158.7L139.2 156.4L143.7 151.9L148.2 156.4L145.6 158.7V156.4L144.8 155.3V159.1L146.8 161L143.8 163.2L141.1 161L143 159.5V155.3Z" fill="#383739"/>
<path d="M116.5 151.9L117.6 150.4L118.8 151.9C118.8 150 118.8 148.1 117.6 147.7C117.46 147.548 117.289 147.428 117.1 147.345C116.911 147.262 116.707 147.22 116.5 147.22C116.293 147.22 116.089 147.262 115.9 147.345C115.711 147.428 115.54 147.548 115.4 147.7C114.6 148.5 114.2 150 114.2 151.9L115.7 150.4L116.5 151.9ZM144.5 159.5V154.5L146 156.5V157.9L147.9 156.4L144.1 152.7L139.9 156.4L141.4 157.9V156.4L143.4 154.5V159.5L141.4 161L143.7 162.9L146 160.9L144.5 159.5Z" fill="white"/>
<path d="M130.9 155V150.4L132.4 151.9V153.4L134.3 151.9L130.5 148.1L126.3 151.9L127.8 153.4V152L129.8 150.5V155L127.8 156.5L130.1 158.5L132.4 156.5L130.9 155Z" fill="#D22630"/>
<path d="M208.3 147.4C208.092 147.231 207.851 147.109 207.593 147.04C207.334 146.971 207.064 146.957 206.8 147L205.3 147.4C204.2 148.9 204.2 151.1 204.2 152.7L206.1 150.7L206.8 152.7L207.9 150.7L209.9 152.7C209.9 151.1 209.9 148.9 208.3 147.4ZM194.3 151.1L195.1 152.3V154.5L197.7 151.9L193.2 147.7L188.7 151.9L191.3 154.5V152.3L192.5 151.1V154.9L190.5 156.9L193.2 159.1L196.2 156.8L194.3 154.9V151.1ZM180.3 154.9L181.5 156.1V158.3L184.1 156.1L179.6 151.5L175.1 156.1L177.7 158.3V156.1L178.8 154.9V158.7L177 160.6L179.6 162.9L182.6 160.6L180.4 159.1L180.3 154.9Z" fill="#383739"/>
<path d="M206.8 151.9L206.1 150.4L204.5 151.9C204.5 150 204.9 148.1 205.7 147.7C205.832 147.471 206.021 147.282 206.249 147.15C206.477 147.018 206.736 146.948 207 146.948C207.264 146.948 207.523 147.018 207.751 147.15C207.979 147.282 208.168 147.471 208.3 147.7C209.1 148.5 209.5 150 209.5 151.9L207.9 150.4L206.8 151.9ZM179.2 159.5V154.5L177.3 156.5V157.9L175.8 156.4L179.6 152.7L183.4 156.4L181.9 157.9V156.4L180.4 154.5V159.5L181.9 161L179.6 162.9L177.3 160.9L179.2 159.5Z" fill="white"/>
<path d="M192.8 155V150.4L190.9 151.9V153.4L189.5 152L193.3 148.2L197.1 152L195.6 153.5V152L194.1 150.5V155L195.6 156.2L193.3 158.4L191 156.2L192.8 155Z" fill="#D22630"/>
<path d="M166.8 153.8L165.6 155.7L169.4 159.5L165.6 162.1V160.2L164.5 158.7V162.5L167.9 165.1L161.9 169.3L155.8 165.1L159.2 162.5V158.7L157.7 160.2V162.1L153.9 159.5L157.7 155.7L156.6 153.7L166.8 153.8Z" fill="#383739"/>
<path d="M156.9 154.2L158.4 156.1L154.7 159.5L157.3 161.3V159.8L159.6 157.9V162.9L156.2 165.1L161.8 168.9L167.1 165.1L164.1 162.9V157.9L166.4 159.9V161.3L169 159.5L165.2 155.7L166.4 154.2H156.9Z" fill="#D22630"/>
<path d="M159.2 165.1L161.8 162.9L164.5 165.1L161.8 167.1L159.2 165.1Z" fill="#383739"/>
<path d="M161.8 166.3L163.8 165.1L161.8 163.6L159.6 165.1L161.8 166.3Z" fill="#00843D"/>
<path d="M210.2 139H204.5V136.8H186.5L173.2 128.5H150.5L137.7 136.8H119.1V139.1H113.1V143.6H119.1V146.2H137.7L150.5 154.5H173.2L186 146.2H204.2V143.6H210.2V139Z" fill="#383739"/>
<path d="M150.5 128.5L137.7 137.2H119.5V139.4H113.9V143.2H119.9V145.5H138L150.9 153.8H173.5L185.9 145.5H204.1V142.8H210.1V139.8H204.1V137.5H185.6L173.1 129.2L150.5 128.5ZM150.5 130H172.8L184.1 137.5V138.7H197.5V143.6H184.5V145.1L172.8 152.7H150.8L139.2 145.1V143.6H125.9V138.6H139.2V137.6L150.5 130Z" fill="#D22630"/>
<path d="M172.8 130.4L184.1 137.9V139.1H197V143.6H184.1V145.1L172.8 152.7H150.8L139.6 145.1V143.6H126.3V139.8H139.6V138.3L150.9 130.7L172.8 130.4Z" fill="#D22630"/>
<path d="M145.2 145.5L150.2 149.3L153.2 147L151.2 145.5L150.2 146.2L149 145.5L167.9 131.5H164.1L145.2 145.5ZM155.5 151H159.3L178.2 137L173.2 133.3L169.5 135.6L171.8 137.1L173.3 135.9L174.4 137.1L155.5 151ZM163.5 151H167.2L148.3 137L149.9 136L150.9 137L152.9 135.6L149.9 133.3L144.9 137.1L163.5 151ZM174.5 145.4L173.3 146.1L171.8 145.4L169.8 146.9L173.3 149.2L178.2 145.4L159.3 131.4H155.5L174.5 145.4ZM141.2 141.2L144.6 143.5L148 141.2L144.2 139L141.2 141.2Z" fill="#383739"/>
<path d="M158.5 141.3L161.8 143.6L165.2 141.3L161.5 139.1L158.5 141.3ZM182.3 141.3L178.5 143.6L175.5 141.3L178.8 139.1L182.3 141.3Z" fill="#383739"/>
<path d="M177.7 145.5L173.6 148.9L170.9 146.9L172 145.9L173.6 146.9L175.1 145.5L156.9 131.9H159.6L177.7 145.5ZM166.4 150.8H163.7L145.6 137.2L150.1 133.8L152.8 135.7L151.3 136.7L150.1 135.7L148.2 137.2L166.4 150.8ZM159.6 150.8H156.9L175.1 137.2L173.6 135.7L172 136.7L171 135.7L173.6 133.7L177.7 137.2L159.6 150.8ZM163.7 131.8H166.4L148.2 145.5L150.2 147L151.2 145.9L152.8 146.9L150.1 148.9L145.6 145.5L163.7 131.8Z" fill="#FFC72C"/>
<path d="M144.8 139.8L147.5 141.3L144.8 143.3L142.2 141.3L144.8 139.8ZM161.8 139.8L164.5 141.3L161.8 143.3L159.2 141.3L161.8 139.8ZM178.8 139.8L176.2 141.3L178.8 143.3L181.5 141.3L178.8 139.8Z" fill="#00843D"/>
<path d="M103.3 233.9L102.1 235.8L104.4 237.7L102.1 239.2L103.3 241.1L105.9 241.5L108.6 239.5L115.4 243.3V240.3L111.2 237.7L115 235V231.3L108.6 235.8L105.9 233.5L103.3 233.9ZM103.3 221.8L102.1 223.7L104.4 225.6L102.1 227.5L103.3 229L105.9 229.4L108.6 227.4L115.4 231.3V228.3L111.2 225.6L115 222.9V219.2L108.6 223.7L105.9 221.4L103.3 221.8ZM103.3 253.2L102.1 251.2L104.4 249.4L102.1 247.9L103.3 245.9L105.9 245.6L108.6 247.5L115.4 243.7V246.7L111.2 249.4L115 252V255.8L108.6 251.3L105.9 253.5L103.3 253.2ZM220.4 233.9L221.5 235.8L219.3 237.7L221.5 239.2L220 241.1L217.4 241.5L214.7 239.5L208.3 243.3V240.3L212.1 237.7L208.3 235V231.3L214.7 235.8L217.4 233.5L220.4 233.9ZM220 221.8L221.5 223.7L219.3 225.6L221.5 227.5L220 229L217.4 229.4L214.7 227.4L208.3 231.3V228.3L212.1 225.6L208.3 222.9V219.2L214.7 223.7L217.4 221.4L220 221.8ZM220 253.2L221.5 251.2L219.3 249.4L221.5 247.9L220 245.9L217.4 245.6L214.7 247.5L208.3 243.7V246.7L212.1 249.4L208.3 252V255.8L214.7 251.3L217.4 253.5L220 253.2ZM193.6 201V206H197.4V208.2H201.1V204.4H198.1V201H193.6ZM204.9 209V213.9H208.3V216.1H212.1V212.4H208.3V209H204.9ZM129.4 201.4V205.9H125.5V208.2H122.1V204.4H125.5V201L129.4 201.4ZM193.6 273.9V269H197.4V266.8H201.1V270.5H198.1V273.9H193.6ZM129.4 273.9V269H125.5V266.8H122.1V270.5H125.5V273.9H129.4ZM204.9 266.4V260.7H208.3V258.5H212.1V262.2H208.3V266L204.9 266.4ZM118.5 208.6V213.5H114.5V215.8H111.1V212H114.5V208.6H118.5ZM118.5 265.6V260.7H114.5V258.5H111.1V262.2H114.5V266L118.5 265.6ZM175.2 200.6L172.2 198L169.5 200.3L171.8 202.9L168.8 205.6H173.3L174.8 204L176.7 205.6H181.2L178.2 202.9L180.5 200.3L177.8 198L174.8 200.6H175.2ZM161.6 200.6L158.6 198L155.9 200.3L158.2 202.9L155.2 205.6H159.7L161.6 204L163.1 205.6H167.6L164.6 202.9L166.9 200.3L164.2 198L161.6 200.6ZM148 200.6L150.6 198L153.6 200.3L151 202.9L154.4 205.6H149.4L148 204L146.5 205.6H141.9L144.9 202.9L142.7 200.3L145.3 198L148 200.6ZM174.8 273.6L172.1 276.2L169.5 273.9L171.8 271.7L168.8 268.7H173.3L174.8 270.2L176.7 268.7H181.2L178.2 271.7L180.5 273.9L177.8 276.2L174.8 273.6ZM161.6 273.6L158.6 276.2L155.9 273.9L158.2 271.7L155.2 268.7H159.7L161.6 270.2L163.1 268.7H167.6L164.6 271.7L166.9 273.9L164.2 276.2L161.6 273.6ZM148 273.6L150.6 276.2L153.6 273.9L151 271.7L154.4 268.7H149.4L148 270.2L146.5 268.7H141.9L144.9 271.7L142.7 273.9L145.3 276.2L148 273.6Z" fill="#383739"/>
<path d="M115 240.3V243L108.6 239.2L105.9 241.1H103.7L102.5 239.6L104.8 237.6L102.5 235.8L103.7 234.3H105.9L108.6 236.2L115 232.4V234.7L110 238.1L115 240.3ZM115 228.3V230.9L108.5 227L105.8 228.9H103.6L102.4 227.4L104.7 225.4L102.4 223.6L103.6 222.1H105.8L108.5 224L114.9 220.2V222.5L110.4 225.5L115 228.3ZM115 246.7V244.1L108.6 247.9L105.9 245.9H103.7L102.5 247.5L104.8 249.4L102.5 251.3L103.7 252.8H105.9L108.6 250.9L115 254.7V252.4L110 249.4L115 246.7ZM208.3 240.3V243L214.3 239.2L217 241.1H219.7L220.4 239.6L218.1 237.6L220.4 235.8L219.7 234.3H217L214.4 236.2L208.4 232.4V234.7L212.9 237.7L208.3 240.3ZM208.3 228.3V230.9L214.3 227.1L217 229H219.7L220.4 227.5L218.1 225.5L220.4 223.7L219.7 222.2H217L214.5 224L208.5 220.2V222.5L213 225.5L208.3 228.3ZM208.3 246.7V244.1L214.3 247.9L217 245.9H219.7L220.4 247.5L218.1 249.4L220.4 251.3L219.7 252.8H217L214.4 250.9L208.4 254.7V252.4L212.9 249.4L208.3 246.7ZM197 201.4V204.8H200.4V207.8H197.4V205.6H193.5V201.8L197 201.4ZM208 209.4V212.4H211V216.1H208.3V213.5H204.5V209.3L208 209.4ZM125.6 201.8V204.8H122.2V207.8H125.2V205.6H129V201.8H125.6ZM197.4 273.6V270.6H200.4V266.8H197.4V269.4H193.5V273.6H197.4ZM125.6 273.6V270.6H122.2V266.8H125.2V269.4H129V273.6H125.6ZM207.9 266V262.2H210.9V259.2H208.3V261.5H204.5V265.6L207.9 266ZM114.9 209.3V212.3H111.6V216.1H114.6V213.5H118.4V209.3H114.9ZM114.9 266V262.2H111.6V259.2H114.6V261.5H118.4V265.6L114.9 266ZM171.7 198.8L174.7 201.4L177.7 198.8L179.7 200.6L177.3 203.3L180 205.6H176.5L174.5 204L173.1 205.6H169.3L171.9 203.3L169.7 200.6L171.7 198.8ZM158.4 198.8L161.4 201.4L164.1 198.8L166.4 200.6L164.1 203.3L166.8 205.6H163L161.5 204L159.5 205.6H155.8L158.8 203.3L156.6 200.6L158.4 198.8ZM150.9 198.8L147.9 201.4L145.2 198.8L143 200.6L145.2 203.3L142.6 205.6H146.4L147.9 204L149.8 205.6H153.5L150.5 203.3L152.8 200.6L150.9 198.8ZM172 276.2L174.7 273.6L177.7 276.2L179.7 274.3L177.3 272.1L180 269.4H176.5L174.5 270.9L173.1 269.4H169.3L171.9 272.1L169.7 274.3L172 276.2ZM158.4 276.2L161.4 273.6L164.1 276.2L166.4 274.3L164.1 272.1L166.8 269.4H163L161.5 271L159.5 269.5H155.8L158.8 272.2L156.6 274.4L158.4 276.2ZM150.9 276.2L147.9 273.6L145.2 276.2L143 274.3L145.2 272.1L142.6 269.4H146.4L147.9 270.9L149.8 269.4H153.5L150.5 272.1L152.8 274.3L150.9 276.2Z" fill="#00843D"/>
<path d="M125.2 261.5V269H197.7V261.5H208.7V213.5H197.7V205.9H125.6V213.5H115V261.5H125.2Z" fill="#383739"/>
<path d="M125.9 206V213.9H115.5V261H126V268.6H197.8V261H208.4V213.8H197.8V206.2H126L125.9 206ZM130.5 209H193.2V216.5L195.9 218.8H205.7V256.6H195.9L193.2 258.5V266H130.5V258.5L127.8 256.5H118.5V218.8H127.9L130.6 216.8V209.3L130.5 209Z" fill="#FFC72C"/>
<path d="M130.9 209.3V216.5L140.3 209.3H130.9ZM183 209.3L192.5 216.5V209.3H183ZM118.8 219.2V225.6L127.5 219.2H118.8ZM195.8 219.2L204.9 225.6V219.2H195.8ZM204.9 249.4L195.9 256.2H204.9V249.4ZM118.8 249.4V256.2H127.5L118.8 249.4ZM130.8 258.4V265.6H140.3L130.8 258.4ZM192.5 258.4L183 265.6H192.5V258.4Z" fill="#D22630"/>
<path d="M182.6 209.3L204.9 226V249.4L182.3 266H140.7L118.7 249.4V226.7L141.1 209.7L182.6 209.3Z" fill="#00843D"/>
<path d="M124.1 251.7L121.4 248.7L123.7 246L121.4 243L123.7 240.3L121.4 237.7L123.7 234.7L121.4 232L123.7 229L121.4 226.3L124.1 223.3H199.5L202.2 226.3L199.5 229L202.2 232L199.5 234.7L202.2 237.7L199.5 240.3L202.2 243L199.5 246L202.2 248.6L199.5 251.6L124.1 251.7ZM175.8 213.1L172.8 210.5L170.2 213.1L167.5 210.5L164.5 213.1L161.8 210.5L158.8 213.1L156.2 210.5L153.5 213.1L150.5 210.5L147.5 213.1V262.2L150.5 264.5L153.5 262.2L156.2 264.5L158.8 262.2L161.8 264.5L164.5 262.2L167.5 264.5L170.2 262.2L172.8 264.5L175.8 261.9V213.1Z" fill="#383739"/>
<path d="M169.8 213.1L167.5 210.8L164.9 213.1V262L167.5 264.2L169.8 262V213.1ZM158.4 213.1L156.2 210.8L153.5 213.1V262L156.2 264.2L158.8 262L158.4 213.1Z" fill="#FFC72C"/>
<path d="M124.1 251.3L121.8 248.6L124.1 246H199.5L201.5 248.6L199.2 251.3H124.1ZM199.5 235L201.5 237.7L199.2 239.9H124L121.7 237.7L124 235H199.5ZM199.5 229L201.5 226.3L199.2 223.7H124L121.7 226.3L124 229H199.5Z" fill="#FFC72C"/>
<path d="M175.5 213.1L172.8 210.8L170.2 213.1V262L172.8 264.2L175.4 262L175.5 213.1ZM153.2 213.1L150.5 210.8L147.9 213.1V262L150.5 264.2L153.2 262V213.1Z" fill="#D22630"/>
<path d="M124.1 245.6L121.8 243L124.1 240.3H199.5L201.5 243L199.2 245.6H124.1ZM124.1 234.3L121.8 232L124.1 229.4H199.5L201.5 232L199.2 234.7L124.1 234.3Z" fill="#D22630"/>
<path d="M164.5 261.9L161.8 264.1L159.2 261.9V213L161.8 210.7L164.5 213V261.9Z" fill="#D22630"/>
<path d="M187.2 214.2H136.2V218H129.7V257H136.5V260.7H187.5V257H194V218.5H187.5V214.3L187.2 214.2Z" fill="#383739"/>
<path d="M136.5 214.6V218.4H130.1V256.2H136.5V260.7H141.8L131.2 252V223L141.8 214.2H136.5V214.6ZM181.9 214.6L192.1 223.3V251.7L181.9 260.3H187.2V256.6H193.2V218.8H186.8V214.6H181.9Z" fill="#D22630"/>
<path d="M142.5 214.6L131.6 223.6V251.3L142.6 260.3H180.7L192.1 251.3V223.7L180.7 214.7L142.5 214.6ZM143 216.1H180.4L190.2 224.4V251L180.4 259H143L133.1 250.6V224.2L143 216.1Z" fill="#00843D"/>
<path d="M153.2 250.9L154.7 251.7V253.5L152.7 255.5L155.8 258.5H152.8L150.8 256.5L148.6 258.5H146L149 255.5L146.7 253.5L147.1 251.7L148.6 250.9L150.9 252.8L153.2 250.9ZM163.7 250.9L165.7 251.7V253.5L163.7 255.5L166.7 258.5H163.7L161.8 256.5L159.6 258.5H156.6L159.6 255.5L157.6 253.5V251.7L159.6 250.9L161.8 252.8L163.7 250.9ZM170.5 250.9L169 251.7L168.6 253.5L170.6 255.5L167.6 258.5H170.6L172.8 256.5L174.7 258.5H177.7L174.7 255.5L176.6 253.5V251.7L174.6 250.9L172.8 252.8L170.5 250.9ZM153.2 224.1L154.7 223.3V221.4L152.7 219.5L155.8 216.5H152.8L150.8 218.4L148.6 216.5H146L149 219.5L146.7 221.5L147.1 223.3L148.6 224.1L150.9 222.1L153.2 224.1ZM163.7 224.1L165.7 223.3V221.4L163.7 219.5L166.7 216.5H163.7L161.8 218.4L159.6 216.5H156.6L159.6 219.5L157.6 221.5V223.3L159.6 224.1L161.8 222.1L163.7 224.1ZM170.5 224.1L169 223.3L168.6 221.4L170.6 219.5L167.6 216.5H170.6L172.8 218.4L174.7 216.5H177.7L174.7 219.5L176.6 221.5V223.3L174.6 224.1L172.8 222.1L170.5 224.1ZM189.8 227.1L188.3 228.6L189.8 229.7V232L187.2 230.1L185.2 231.6H183.5L182.7 230.1L184.7 228.6L182.7 226.7L183.5 225.6H185.4L187.3 226.7L189.9 224.8L189.8 227.1ZM189.8 236.1L188.3 237.7L189.8 238.8V241.1L187.2 239.1L185.2 240.7H183.5L182.7 239.2L184.7 237.7L182.7 235.7L183.5 234.7H185.4L187.3 235.7L189.9 233.9L189.8 236.1ZM189.8 247.9L188.3 246.7L189.8 245.2V243L187.2 244.9L185.2 243.3H183.5L182.7 244.9L184.7 246.7L182.7 248.3L183.5 249.3L185.4 249.8L187.3 248.3L189.9 250.1L189.8 247.9ZM133.5 227L135.4 228.5L133.5 229.6V231.9L136.2 230L138 231.5H140L140.7 230L139.2 228.5L140.7 226.6L139.9 225.5H138L136.2 226.6L133.5 224.7V227ZM133.5 236L135.4 237.6L133.5 238.7V241L136.2 239L138 240.6H140L140.7 239.1L139.2 237.6L140.7 235.6L139.9 234.6H138L136.2 235.6L133.5 233.8V236ZM133.5 247.8L135.4 246.6L133.5 245.1V243L136.2 244.9L138 243.3H140L140.7 244.9L139.2 246.7L140.7 248.3L139.9 249.3L138 249.8L136.2 248.3L133.5 250.1V247.8Z" fill="#00843D"/>
<path d="M143.3 216.5L133.9 224.1L136.2 226.3L138 224.8H140.3L141.1 226.8L139.6 228.6L141.1 230.1L140.3 231.6L138 232L136.2 230.5L133.5 232.8V233.5L136.2 235.5L138 233.9H140.3L141.1 235.8L139.6 237.7L141.1 239.2L140.3 240.7L138 241.1L136.2 239.6L133.5 241.8V242.6L136.2 244.5L138 243H140.3L141.1 244.9L139.6 246.7L141.1 248.3L140.3 249.8L138 250.1L136.2 248.6L133.9 250.6L143.3 258.5H145.3L148.3 255.5L146.3 253.9L146.7 251.7L148.7 250.5L150.9 252.5L152.8 250.5L155 251.7V253.9L153.5 255.4L156.2 258.4L159.2 255.4L157.3 253.9V251.7L159.6 250.5L161.8 252.5L163.8 250.5L166 251.7V253.9L164.1 255.4L167.1 258.4L170.1 255.4L168.3 253.9V251.7L170.5 250.5L172.8 252.5L174.7 250.5L176.6 251.7L177 253.9L175 255.4L178 258.4H180.4L189.8 250.9L187.2 248.6L185.7 250.1H183.4L182.3 248.3L183.8 246.7L182.3 244.9L183.3 243.3L185.7 243L187.2 244.5L189.8 242.5V241.8L187.2 239.6L185.7 241.1H183.4L182.3 239.1L183.8 237.7L182.3 235.7L183.3 234.3H185.7L187.2 235.4L189.8 233.5V232.8L187.2 230.5L185.7 232H183.4L182.3 230.1L183.8 228.6L182.3 226.7L183.3 225.2H185.7L187.2 226.3L189.8 224.4L180.4 216.5H178.1L175.1 219.5L177 221V223.3L174.7 224.4L172.8 222.9L170.5 224.4L168.6 223.4L168.3 221L170.2 219.5L167.2 216.5L164.2 219.5L166.4 221L166 223.3L163.7 224.4L161.8 222.9L159.6 224.4L157.6 223.4L157.3 221L159.2 219.5L156.2 216.5L153.5 219.5L155.5 221L155 223.3L152.8 224.4L150.8 222.9L148.6 224.4L146.7 223.4V221L148.2 219.5L145.2 216.5H143.3ZM133.5 236.5V238.5L134.6 237.7L133.5 236.5Z" fill="#D22630"/>
<path d="M150.9 257L149.4 258.5H152.4L150.9 257ZM161.9 257L160.3 258.5H163.3L161.9 257ZM172.8 257L170.9 258.5H174.3L172.8 257ZM149.4 216.5L150.9 218L152.4 216.5H149.4ZM160 216.5L161.8 218L163.4 216.5H160ZM171.3 216.5L172.8 218L174.3 216.5H171.3ZM189.8 227.8L188.7 228.6L189.8 229.4V227.8ZM189.8 236.5L188.7 237.7L189.8 238.4V236.5ZM189.8 245.6L188.7 246.7L189.8 247.5V245.6ZM133.5 227.5V229.4L134.6 228.6L133.5 227.5ZM133.5 236.5V238.5L134.6 237.7L133.5 236.5ZM133.5 245.6V247.5L134.6 246.7L133.5 245.6Z" fill="white"/>
<path d="M170.9 234.3V231.3H167.9V227.5H155.4V231.3H152V234.7H147.9V240.7H152.4V243.7H155.8V247.5H167.8V243.7H170.9V240.7H175.4V234.3H170.9Z" fill="#383739"/>
<path d="M161.5 228.2V232L156.5 234.7V237.3H147.9V235H152.4V231.6H155.8V227.8L161.5 228.2ZM161.8 247.2V243.3L167.1 240.3V238.1H175.1V240.7H170.5V243.7H167.5V247.5L161.8 247.2Z" fill="#FFC72C"/>
<path d="M166.8 237.3V234.7L161.8 231.7V227.8H167.5V231.6H170.5V235H175.1V237.3H166.8ZM148.2 237.7H156.6V240.3L161.5 243.3V247.1H156.2V243.3H152.8V240.3H148.2V237.7Z" fill="white"/>
<path d="M156.5 238V240.3L161.5 243V237.7L156.5 238Z" fill="#D22630"/>
<path d="M161.5 232L156.5 235V237.3H161.5V232Z" fill="#00843D"/>
<path d="M166.8 237.3V235L161.8 232V237.3H166.8Z" fill="#D22630"/>
<path d="M161.8 243L166.8 240.3V237.7H161.8V243Z" fill="#00843D"/>
<path d="M117.6 302V311.7H108.6V321.2H98.7V346.9H108.6V355.9H117.6V366.1H152L158.4 369.9L155.4 371.4H143L141.8 370.3H153.2L150.2 367.3H133.9L141.4 374.8H156.6L161.5 371.4L166.4 374.8H181.4L189.1 367.3H172.8L169.8 370.3H181.1L179.6 371.4H167.6L164.5 370L170.5 366.2H205.3V355.2H214.7V346.2H224.2V321.2H214.7V312.2H205.3V302.4H170.5L164.5 298.6L167.5 296.7H179.6L180.7 297.9H169.5L172.9 301.3H188.8L181.6 293.7H166.5L161.5 296.7L156.3 293.7H141.2L134 301.3H150.2L153.2 297.9H141.9L143.1 296.7H155.5L158.5 298.7L152.1 302.4L117.6 302Z" fill="#D22630"/>
<path d="M170.5 365.4H205.3V355.2H214.7V346.2H224.2V321.2H214.7V312.2H205.3V302.2H170.5L156.2 293.6H141.1L134.6 300.4H149.8L152.4 297.8H141.1L143 295.8H155.4L171.7 305.7H201.1V315.9H210.6V324.9H220.4V342.7H210.6V351.4H201.1V361.2H171.7L155.4 371.4H143L141 369.5H152.5L149.9 367.3H134.5L141.3 374.1H156.1L170.5 365.4ZM151.6 361.6H121.5V351.8H112.1V342.8H102.5V325H112V315.9H121.4V305.7H151.6L167.9 295.9H180.7L182.3 297.8H170.9L173.6 300.4H188.6L181.9 293.6H166.8L153.2 302.3H118.8V312.1H109.3V321.1H98.7V346.1H108.6V355.1H118V365.4H152L166.8 374.1H181.8L188.3 367.3H173.2L170.9 369.5H182.3L180.3 371.5H167.5L151.6 361.6Z" fill="#FFC72C"/>
<path d="M198.9 348.8V359H171.3L161.8 364.6L152.4 359H124.8V348.8H115.5V340H105.5V328H115.4V319H124.8V309H152.5L161.9 303.4L171.4 309.1H199V318.9H208.4V327.9H217.9V340.1H208.4V349.1L198.9 348.8Z" fill="#00843D"/>
<path d="M128.2 345.4V355.2H143.3L128.3 345L128.2 345.4ZM128.2 321.9V312.5H143.3L128.3 322.3L128.2 321.9ZM195.1 345.4V355.2H180L195.1 345V345.4ZM195.1 321.9V312.5H180L195.1 322.3V321.9Z" fill="#383739"/>
<path d="M129 345.7L142.2 354.8H129V345.7ZM129 321.9L142.2 312.9H129V321.9ZM194.7 345.7L181.1 354.8H194.7V345.7ZM194.7 321.9L181.1 312.9H194.7V321.9Z" fill="#D22630"/>
<path d="M147.9 331V326H145.9L137.7 321.2L130.1 326.1H128.2V331.1H124.5V336.3H128.3V341.3H129.8L137.8 346.5L146.1 341.2H147.6V336.3H153.6V331H147.9Z" fill="#383739"/>
<path d="M138 321.2L145.6 326.1H130.5L138 321.2ZM145.6 341.2L138 346.2L130.5 341.2H145.6ZM143.3 331.4V336.3H134.3V331.8L143.3 331.4Z" fill="#D22630"/>
<path d="M147.1 336.3V340.8H138.1V336.3H147.1ZM137.7 336.3V340.8H128.5V336.3H137.7ZM152.7 331.3V336.3H144.1V331.8L152.7 331.3ZM133.9 331.3V336.3H124.9V331.8L133.9 331.3ZM147.1 326.5V331H138.1V326.5H147.1ZM137.7 326.5V331H128.5V326.5H137.7Z" fill="#FFC72C"/>
<path d="M131.2 332.5V335.2H127.5V332.5H131.2ZM135 327.6V330.2H131.2V327.6H135ZM144.8 327.6V330.2H140.3V327.6H144.8ZM141.1 332.6V335.2H136.5V332.5L141.1 332.6ZM150.5 332.6V335.2H146.5V332.5L150.5 332.6ZM144.8 337.4V340.1H140.3V337.4H144.8ZM135 337.4V340.1H131.2V337.4H135Z" fill="#383739"/>
<path d="M130.9 332.5H127.5V334.8H131.2L130.9 332.5ZM134.6 328H131.2V329.9H135L134.6 328ZM144.5 328H140.7V329.9H144.5V328ZM140.3 332.5H136.5V334.5H140.3V332.5ZM149.8 332.5H146.4V334.5H149.8V332.5ZM144.1 337.8H140.3V339.7H144.1V337.8ZM134.3 337.8H130.9V339.7H134.6L134.3 337.8Z" fill="white"/>
<path d="M175.8 331V326H177.8L185.3 321.2H185.7L193.6 326.1H195.5V331.1H199.3V336.3H195.5V341.3H193.2L185.7 346.5L177.7 341.2H175.8V336.3H170.5V331H175.8Z" fill="#383739"/>
<path d="M185.7 321.2L178.1 326.1H193.2L185.7 321.2ZM178.1 341.2L185.7 346.2L193.2 341.2H178.1ZM180 331.4V336.3H189.4V331.8L180 331.4Z" fill="#D22630"/>
<path d="M176.2 336.3V340.8H185.7V336.3H176.2ZM185.7 336.3V340.8H195.1V336.3H185.7ZM170.5 331.3V336.3H179.6V331.8L170.5 331.3ZM189.5 331.3V336.3H198.9V331.8L189.5 331.3ZM176.2 326.5V331H185.7V326.5H176.2ZM185.7 326.5V331H195.1V326.5H185.7Z" fill="#FFC72C"/>
<path d="M192.1 332.5V335.2H196.2V332.5H192.1ZM188.3 327.6V330.2H192.5V327.6H188.3ZM178.8 327.6V330.2H182.6V327.6H178.8ZM182.6 332.6V335.2H186.4V332.5L182.6 332.6ZM172.8 332.6V335.2H177V332.5L172.8 332.6ZM178.8 337.4V340.1H182.6V337.4H178.8ZM188.3 337.4V340.1H192.5V337.4H188.3Z" fill="#383739"/>
<path d="M192.5 332.5H196.2V334.8H192.5V332.5ZM188.7 328H192.5V329.9H188.7V328ZM179.2 328H182.6V329.9H178.8L179.2 328ZM183 332.9H186.4V334.8H182.6L183 332.9ZM173.2 332.9H177V334.8H173.2V332.9ZM179.2 337.9H182.6V339.7H178.8L179.2 337.9ZM188.7 337.9H192.5V339.7H188.7V337.9Z" fill="white"/>
<path d="M171.7 322.7V327.6H169.7L161.8 332.9L153.5 327.6H152V322.6H147.1V317.4H152.1V312.4H153.5L161.8 307.6L169.8 312.5H171.7V317.4H176.2V322.7H171.7Z" fill="#383739"/>
<path d="M161.8 332.5L169.4 327.6H154.3L161.8 332.5ZM169.4 312.5L161.8 308L154.3 312.5H169.4Z" fill="#FFC72C"/>
<path d="M171.3 317.4V312.9H161.8V317.4H171.3ZM161.5 317.4V312.9H152.4V317.4H161.5ZM175.8 322.4V317.8H166.8V322.3L175.8 322.4ZM166.4 322.4V317.8H157.4V322.3L166.4 322.4ZM156.9 322.4V317.8H147.5V322.3L156.9 322.4ZM171.3 327.2V322.7H161.8V327.2H171.3ZM161.5 327.2V322.7H152.4V327.2H161.5Z" fill="#D22630"/>
<path d="M159.2 313.6V316.6H155V313.6H159.2ZM168.6 313.6V316.6H164.5V313.6H168.6ZM154.3 318.9V321.6H150.1V318.9H154.3ZM163.7 318.9V321.6H160V318.9H163.7ZM173.6 318.9V321.6H169.4V318.9H173.6ZM158.8 323.9V326.5H155V323.8L158.8 323.9ZM168.6 323.9V326.5H164.5V323.8L168.6 323.9Z" fill="#383739"/>
<path d="M158.5 314.4H155.5V316.3H158.5V314.4ZM168.3 314.4H164.9V316.3H168.3V314.4ZM153.9 319.3H150.1V321.2H153.9V319.3ZM163.4 319.3H160V321.2H163.7L163.4 319.3ZM173.2 319.3H169.4V321.2H173.2V319.3ZM158.4 324.2H155.4V326.1H158.4V324.2ZM168.3 324.2H164.9V326.1H168.3V324.2Z" fill="white"/>
<path d="M171.7 349.9V355.2H169.7L161.8 360.5L153.5 355.2H152V350.2H147.1V345H152.1V340H153.5L161.8 335.2L169.8 340.1H171.7V345H176.2V350.3L171.7 349.9Z" fill="#383739"/>
<path d="M161.8 359.3L169.4 354.8H154.3L161.8 359.3ZM169.4 339.7L161.8 335.2L154.3 339.7H169.4Z" fill="#FFC72C"/>
<path d="M171.3 344.6V340.1H161.8V344.6H171.3ZM161.5 344.6V340.1H152.4V344.6H161.5ZM175.8 349.6V345H166.8V349.5L175.8 349.6ZM166.4 349.6V345H157.4V349.5L166.4 349.6ZM156.9 349.6V345H147.5V349.5L156.9 349.6ZM171.3 354.4V350H161.8V354.5L171.3 354.4ZM161.5 354.4V350H152.4V354.5L161.5 354.4Z" fill="#D22630"/>
<path d="M159.2 341.2V343.5H155V341.2H159.2ZM168.6 341.2V343.5H164.5V341.2H168.6ZM154.3 346.2V348.8H150.1V346L154.3 346.2ZM163.7 346.2V348.8H160V346L163.7 346.2ZM173.6 346.2V348.8H169.4V346L173.6 346.2ZM158.8 351V353.7H155V351H158.8ZM168.6 351V353.7H164.5V351H168.6Z" fill="#383739"/>
<path d="M158.5 341.6H155.5V343.1H158.5V341.6ZM168.3 341.6H164.9V343.1H168.3V341.6ZM153.9 346.5H150.1V348H153.9V346.5ZM163.4 346.5H160V348H163.7L163.4 346.5ZM173.2 346.5H169.4V348H173.2V346.5ZM158.4 351.5H155.4V353.3H158.4V351.5ZM168.3 351.5H164.9V353.3H168.3V351.5Z" fill="white"/>
<path d="M109.3 408.8L145.3 390H178.1L214 408.8V440.6L178 460.2H145.2L109.3 440.6V408.8Z" fill="#383739"/>
<path d="M145.6 390L109.7 408.8V440.6L145.6 459.5H178.1L213.6 440.5V409.2L178.1 390.3L145.6 390ZM146 392.6H177.3L211.3 410.7V439.1L177.3 457.2H146L112 439.1V410.7L146 392.6Z" fill="#00843D"/>
<path d="M161.8 424.7V456.8H177.3L211 438.7V425.1H161.8V393H146L112.7 410.7V424.7H161.8Z" fill="#FFC72C"/>
<path d="M161.5 424.7V456.8H146.4L112.4 438.7V425.1H161.8V393H177.3L211 410.7V424.7H161.5Z" fill="white"/>
<path d="M164.9 455V445.9L161.9 447.8L158.9 445.8V454.9H149.4L155.8 450.4V443.6L146 437.6H139.5V411.9H145.9L155.7 405.9V399.4L149.3 394.9H159.1V403.9L162.1 402L165.1 404V394.9H174.2L168.2 399.4V405.8L177.6 411.8H184.4V437.6H177.6L168.2 443.6V450.4L174.2 454.9L164.9 455Z" fill="#383739"/>
<path d="M165.2 395.2V404.7L161.8 402.8V405.4L176.6 414.9H181.5V424.7H183.8V412H177.3L167.5 406V398.7L172.8 395H165.2V395.2ZM139.9 425.1V437.1H146.4L156.2 443.6V450.4L150.5 454.6H158.1V445L161.8 447V444.3L146.8 434.8H142.2V425L139.9 425.1Z" fill="#FFC72C"/>
<path d="M150.5 395.2L156.2 399V406.2L146.4 412.2H139.9V424.7H142.2V415H146.7L161.8 405.5V402.9L158.1 404.8V395.3L150.5 395.2ZM181.5 425.1V434.9H176.5L161.8 444.4V447L165.2 445.1V454.6H172.8L167.5 450.8V443.6L177.3 437.2H183.8V425L181.5 425.1Z" fill="white"/>
<path d="M142.5 434.5H147.1L161.8 444L176.6 434.5H181.1V415H176.6L161.5 406L147.1 415H142.6L142.5 434.5Z" fill="#D22630"/>
<path d="M172 429.6H175V428.1H172.8V425.5H177.8V432.3H172.8V436.8H163V430H167.5V433H165.6V434.2H170.2V431.5L151.2 420.2H148.2V421.7H150.9V424.3H145.5V417.5H150.5V412.6H160.2V419.4H156.1V416.8H157.6V415.6H153.1V417.9L172 429.6ZM170.2 418.3V415.6H165.5V416.8H167.5V419.4H162.9V412.6H172.7V417.6H178V424.3H173V421.7H175.3V420.2H172.3L153.5 431.5V434.2H158.1V433H156.5V430H161V436.8H150.8V432.3H145.8V425.5H151.2V428.1H147.8V429.6H151.2L170.2 418.3Z" fill="#383739"/>
<path d="M170.5 431.5V434.5H165.2V432.6H167.2V430.4H163.4V436.4H172.4V432H177.4V426H173.2V427.8H175.4V430.1H171.7L152.7 418.4V415.4H158.1V417.3H156.5V419.1H160.2V413.1H150.8V418.1H145.8V424.1H150.4V422.1H147.8V419.9H151.5L170.5 431.5ZM171.7 420.2H175.4V422.1H173.2V424H177.3V418H172.5V413H163.5V419H167.2V417.2H165.3V415.2H170.6V418.2L151.7 429.6H148V427.7H150.6V425.8H146.1V431.8H151V436.4H160.4V430.8H156.7V433H158.2V435H152.9V431.9L171.7 420.2Z" fill="white"/>
<path d="M203.5 426.6V436.4H199.5V432.6H195V436.4H190.5V427H195V430.4H199.2V426.6H203.5ZM188.3 439.8V449.7H184.1V446.3H179.6V450H175.5V439.8H179.7V443.6H184.2V439.8H188.3ZM203.4 423.2V413.4H199.6V416.8H195.1V413H190.6V423.2H195.1V419.4H199.3V423.2H203.4ZM119.9 426.6V436.4H124.1V432.6H129V436.4H132.8V427H128.5V430.4H124V426.6H119.9ZM119.9 423.2V413.4H124.1V416.8H129V413H132.8V423.2H128.5V419.4H124V423.2H119.9ZM188.3 410V399.8H184.1V403.6H179.6V399.8H175.5V410H179.7V406.2H184.2V410H188.3ZM135.4 439.8V449.7H139.2V446.3H144.1V450H147.9V439.8H144.1V443.6H139.5V439.8H135.4ZM135.4 409.6V399.8H139.2V403.6H144.1V399.8H147.9V410H144.1V406.2H139.5V410L135.4 409.6ZM190.9 402.8V410.4H204.5L190.9 402.8ZM132.8 446.6V439.1H118.4L132.8 446.6ZM132.8 402.8V410.4H118.4L132.8 402.8ZM190.9 446.6V439.1H204.5L190.9 446.6Z" fill="#383739"/>
<path d="M199.6 432.6V436.4H203.4V427H199.6V430.4H194.7V426.6H190.9V436.1H194.7V432.3L199.6 432.6ZM184.6 445.9V449.7H187.9V440.2H184.1V444H179.2V440.2H175.8V449.2H179.6V446L184.6 445.9ZM199.6 417.2V413.4H203.4V422.8H199.6V419H194.7V422.8H190.9V413.8H194.7V417.2H199.6ZM124.1 432.2V436.1H120.3V427H124.1V430.4H129V426.6H132.4V436.1H128.5V432.3L124.1 432.2ZM124.1 417.2V413.4H120.3V422.8H124.1V419H129V422.8H132.4V413.8H128.5V417.2H124.1ZM184.5 403.9V400.2H187.9V409.6H184.1V405.8H179.2V409.6H175.8V400.2H179.6V403.9H184.5ZM139.2 445.9V449.7H135.4V440.2H139.2V444H144.1V440.2H147.9V449.2H144.1V446L139.2 445.9ZM139.2 403.9V400.2H135.4V409.6H139.2V405.8H144.1V409.6H147.9V400.2H144.1V403.9H139.2Z" fill="#D22630"/>
<path d="M191.3 403.6V410H203.5L191.3 403.6ZM119.9 439.5L132.4 446.3V439.5H119.9Z" fill="#FFC72C"/>
<path d="M132.4 403.6L119.9 410H132.8L132.4 403.6ZM191.4 439.5V446.3L203.4 439.5H191.4Z" fill="white"/>
<path d="M219.7 452.7C218.9 455.7 216.7 458 215.9 461C215.1 458 213.9 455.3 214.7 452C215.1 449.3 217.4 447.4 217.7 445.1C220 447.1 220.4 450.1 219.7 452.7ZM220.4 465.1C218.458 467.713 215.875 469.779 212.9 471.1C213.2 468.5 212.1 467.1 210.9 465.1C209.5 462.9 208.7 461 210.2 458.3C210.656 459.648 211.295 460.927 212.1 462.1C213.6 463.6 214.4 465.1 214.4 467.4C215.811 466.219 216.852 464.657 217.4 462.9C218.743 460.616 220.724 458.774 223.1 457.6C222.3 460.2 221.9 462.9 220.4 465.1ZM209.4 472.7L210.2 477.2L214.7 473.5C216.7 472.3 218.9 470.8 220.7 468.9C220.654 470.387 220.27 471.845 219.577 473.162C218.884 474.478 217.9 475.62 216.7 476.5C214 478.4 210.6 479.5 208.3 481.4C208.3 478.7 207.6 476.4 206.8 473.8C206.455 472.632 206.411 471.396 206.673 470.207C206.936 469.017 207.495 467.914 208.3 467L209.4 472.7ZM203.4 482.5C203 484.5 201.5 486.3 200.4 488.2C203.4 487.4 205.7 485.5 207.9 484.4C211.3 482.5 214.7 481.8 217.4 479.5C215.9 484.5 212.4 487.1 207.6 489C204.2 490 201.6 489.3 197.4 491.2C197.84 488.317 198.717 485.519 200 482.9L202.7 477.2C203.4 478.7 204.2 480.6 203.4 482.5ZM193.2 490.1C192.251 491.73 190.953 493.13 189.4 494.2C193.2 494.2 196.6 492 200.8 492C203 492 205.3 492.7 207.6 492C204.6 494.2 201.6 495.8 198.1 496.5C193.6 496.9 189.4 495.8 184.1 496.5C186.4 494.6 187.9 492.7 189.1 490.1C191.3 487.1 192.8 484.8 196.6 484.4C195.1 485.9 194.3 488.2 192.8 490.1H193.2ZM178.8 496.9C186 498 192.8 499.5 200 499.5C192.374 502.497 183.922 502.639 176.2 499.9C172.863 498.411 169.254 497.628 165.6 497.6C160.7 498 155 499.9 148.6 506.7L146 504.8C150.441 500.96 155.731 498.232 161.434 496.841C167.138 495.45 173.09 495.436 178.8 496.8V496.9Z" fill="#FFC72C"/>
</g>
<defs>
<clipPath id="clip0_103_11408">
<rect width="512" height="512" fill="white" transform="translate(0.5)"/>
</clipPath>
</defs>
</svg>
