<svg width="513" height="512" viewBox="0 0 513 512" fill="none" xmlns="http://www.w3.org/2000/svg">
<g clip-path="url(#clip0_103_11592)">
<path d="M0.5 0H512.5V512H0.5V0Z" fill="#E70013"/>
<path d="M256.5 135C224.674 134.867 194.099 147.383 171.501 169.794C148.903 192.204 136.133 222.674 136 254.5C135.867 286.326 148.383 316.901 170.794 339.499C193.204 362.097 223.674 374.867 255.5 375C287.459 375 318.108 362.304 340.706 339.706C363.304 317.108 376 286.459 376 254.5C376 222.541 363.304 191.892 340.706 169.294C318.108 146.696 287.459 134 255.5 134L256.5 135ZM328.5 309C317.24 324.232 301.46 335.524 283.409 341.266C265.357 347.008 245.954 346.907 227.963 340.98C209.972 335.052 194.31 323.598 183.207 308.25C172.105 292.902 166.128 274.443 166.128 255.5C166.128 236.557 172.105 218.098 183.207 202.75C194.31 187.402 209.972 175.948 227.963 170.02C245.954 164.093 265.357 163.992 283.409 169.734C301.46 175.476 317.24 186.768 328.5 202C318.157 192.684 305.334 186.567 291.586 184.388C277.837 182.209 263.752 184.062 251.035 189.723C238.318 195.384 227.514 204.61 219.932 216.284C212.351 227.958 208.315 241.58 208.315 255.5C208.315 269.42 212.351 283.042 219.932 294.716C227.514 306.39 238.318 315.616 251.035 321.277C263.752 326.938 277.837 328.791 291.586 326.612C305.334 324.433 318.157 318.316 328.5 309ZM323.8 287.3L286.4 275.2L263.3 307V267.7L226 255.5L263.3 243.3V203.9L286.4 235.8L323.8 223.7L300.7 255.5L323.8 287.3Z" fill="white"/>
</g>
<defs>
<clipPath id="clip0_103_11592">
<rect width="512" height="512" fill="white" transform="translate(0.5)"/>
</clipPath>
</defs>
</svg>
