<svg width="513" height="512" viewBox="0 0 513 512" fill="none" xmlns="http://www.w3.org/2000/svg">
<g clip-path="url(#clip0_103_20)">
<path d="M0.5 0H512.5V512H0.5V0Z" fill="#009FCA"/>
<path fill-rule="evenodd" clip-rule="evenodd" d="M478.5 226.3L485.6 246.7L467.2 234.1L448.7 246.7L455.8 226.3L437.3 213.7H460.2L467.2 193.3L474.2 213.7H497L478.5 226.3ZM421.3 389.1L428.3 409.5L409.9 396.8L391.5 409.5L398.5 389.1L380.1 376.4H402.9L409.9 356L416.9 376.5H439.8L421.3 389.1ZM478.6 352.2L485.6 372.6L467.2 360L448.7 372.6L455.8 352.2L437.3 339.6H460.2L467.2 319.2L474.2 339.6H497L478.6 352.2ZM232.4 470.2L239.5 490.7L221.1 478L202.6 490.7L209.7 470.3L191.2 457.7H214L221 437.3L228.1 457.7H250.9L232.4 470.2ZM275.5 381.8L268.5 361.4L286.9 374L305.3 361.4L298.3 381.8L316.7 394.4H293.9L286.9 414.8L279.9 394.4H257.1L275.5 381.8ZM342.8 288.8L335.7 268.4L354.1 281L372.6 268.4L365.6 288.8L384 301.4H361.2L354.2 321.8L347.2 301.4H324.3L342.8 288.8ZM399.3 269.5L392.3 249.1L410.7 261.7L429.1 249.1L422.1 269.5L440.5 282.1H417.7L410.7 302.5L403.7 282.1H380.8L399.3 269.5ZM342.8 430.5L335.7 410.1L354.1 422.7L372.6 410.1L365.6 430.5L384 443.1H361.2L354.2 463.5L347.2 443.1H324.3L342.8 430.5ZM275.5 446.9L268.5 426.5L286.9 439.1L305.3 426.5L298.3 446.9L316.7 459.5H293.9L286.9 479.9L279.9 459.5H257.1L275.5 446.9Z" fill="#FFF40D"/>
<path d="M0.5 0H256.5V256H0.5V0Z" fill="#012169"/>
<path d="M256.5 0V32L161.5 128L256.5 221.5V256H223L127.5 162L34.5 256H0.5V222L93.5 128.5L0.5 37V0H31.5L127.5 94L220.5 0H256.5Z" fill="white"/>
<path d="M92.5 162L98 179L21.5 256H0.5V254.5L92.5 162ZM154.5 156L181.5 160L256.5 233.5V256L154.5 156ZM256.5 0L160.5 98L158.5 76L233.5 0H256.5ZM0.5 0.5L97 95L67.5 91L0.5 24.5V0.5Z" fill="#C8102E"/>
<path d="M88.5 0V256H168.5V0H88.5ZM0.5 88V168H256.5V88H0.5Z" fill="white"/>
<path d="M0.5 104V152H256.5V104H0.5ZM104.5 0V256H152.5V0H104.5Z" fill="#C8102E"/>
</g>
<defs>
<clipPath id="clip0_103_20">
<rect width="512" height="512" fill="white" transform="translate(0.5)"/>
</clipPath>
</defs>
</svg>
