<svg width="513" height="512" viewBox="0 0 513 512" fill="none" xmlns="http://www.w3.org/2000/svg">
<g clip-path="url(#clip0_103_28)">
<mask id="mask0_103_28" style="mask-type:luminance" maskUnits="userSpaceOnUse" x="0" y="0" width="513" height="512">
<path d="M0.5 0H512.5V512H0.5V0Z" fill="white"/>
</mask>
<g mask="url(#mask0_103_28)">
<path d="M0.5 0H768.5V512H0.5V0Z" fill="#FF0000"/>
<path d="M0.5 0H384.5V256H0.5V0Z" fill="#000095"/>
<path d="M164.8 135.4L162.1 145.6L172.2 148.3L170.2 140.9L164.8 135.4ZM214.8 140.9L212.8 148.3L222.9 145.6L220.2 135.4L214.8 140.9ZM170.2 115.1L164.8 120.6L166.8 128L170.2 115.1Z" fill="white"/>
<path d="M166.8 128L164.8 135.4L170.2 140.9L166.8 128Z" fill="white"/>
<path d="M164.8 120.6L157.4 128L164.8 135.4L166.8 128L164.8 120.6ZM179.6 150.3L185.1 155.7L192.5 153.7L179.6 150.3ZM199.9 155.7L210.1 158.4L212.8 148.3L205.4 150.3L199.9 155.7Z" fill="white"/>
<path d="M205.4 150.3L212.8 148.3L214.8 140.9L205.4 150.3ZM172.2 148.3L174.9 158.4L185.1 155.7L179.6 150.3L172.2 148.3ZM192.5 153.7L199.9 155.7L205.4 150.3L192.5 153.7Z" fill="white"/>
<path d="M185.1 155.7L192.5 163.1L199.9 155.7L192.5 153.7L185.1 155.7ZM172.2 107.7L162.1 110.4L164.8 120.6L170.2 115.1L172.2 107.7ZM170.2 140.9L172.2 148.3L179.6 150.3L170.2 140.9ZM218.2 128L220.2 120.6L214.8 115.1L218.2 128Z" fill="white"/>
<path d="M179.6 105.7L172.2 107.7L170.2 115.1L179.6 105.7ZM214.8 115.1L212.8 107.7L205.4 105.7L214.8 115.1ZM220.2 135.4L227.6 128L220.2 120.6L218.2 128L220.2 135.4Z" fill="white"/>
<path d="M214.8 115.1L205.4 105.7L192.5 102.3L179.6 105.7L170.2 115.1L166.8 128L170.2 140.9L179.6 150.3L192.5 153.7L205.4 150.3L214.8 140.9L218.2 128L214.8 115.1Z" fill="white"/>
<path d="M214.8 140.9L220.2 135.4L218.2 128L214.8 140.9ZM220.2 120.6L222.9 110.4L212.8 107.7L214.8 115.1L220.2 120.6ZM212.8 107.7L210.1 97.6001L199.9 100.3L205.4 105.7L212.8 107.7ZM185.1 100.3L174.9 97.6001L172.2 107.7L179.6 105.7L185.1 100.3Z" fill="white"/>
<path d="M192.5 102.3L185.1 100.3L179.6 105.7L192.5 102.3Z" fill="white"/>
<path d="M199.9 100.3L192.5 92.8999L185.1 100.3L192.5 102.3L199.9 100.3Z" fill="white"/>
<path d="M205.4 105.7L199.9 100.3L192.5 102.3L205.4 105.7ZM185.1 155.7L174.9 158.4L179.6 176L192.5 163.1L185.1 155.7ZM179.6 176L192.5 224L205.4 176L192.5 163.1L179.6 176ZM172.2 148.3L162.1 145.6L157.4 163.1L174.9 158.4L172.2 148.3Z" fill="white"/>
<path d="M157.4 163.1L144.5 211.1L179.6 176L174.9 158.4L157.4 163.1ZM144.5 140.9L109.4 176L157.4 163.1L162.1 145.6L144.5 140.9Z" fill="white"/>
<path d="M164.8 135.4L157.4 128L144.5 140.9L162.1 145.6L164.8 135.4ZM164.8 120.6L162.1 110.4L144.5 115.1L157.4 128L164.8 120.6Z" fill="white"/>
<path d="M144.5 115.1L96.5 128L144.5 140.9L157.4 128L144.5 115.1ZM240.5 140.9L222.9 145.6L227.6 163.1L275.6 176L240.5 140.9Z" fill="white"/>
<path d="M212.8 148.3L210.1 158.4L227.6 163.1L222.9 145.6L212.8 148.3ZM199.9 155.7L192.5 163.1L205.4 176L210.1 158.4L199.9 155.7ZM220.2 135.4L222.9 145.6L240.5 140.9L227.6 128L220.2 135.4ZM205.4 176L240.5 211.1L227.6 163.1L210.1 158.4L205.4 176ZM212.8 107.7L222.9 110.4L227.6 92.8999L210.1 97.5999L212.8 107.7ZM240.5 115.1L275.6 79.9999L227.6 92.8999L222.9 110.4L240.5 115.1ZM227.6 92.8999L240.5 44.8999L205.4 79.9999L210.1 97.5999L227.6 92.8999ZM240.5 140.9L288.5 128L240.5 115.1L227.6 128L240.5 140.9Z" fill="white"/>
<path d="M220.2 120.6L227.6 128L240.5 115.1L222.9 110.4L220.2 120.6ZM179.6 79.9999L144.5 44.8999L157.4 92.8999L174.9 97.5999L179.6 79.9999ZM172.2 107.7L174.9 97.5999L157.4 92.8999L162.1 110.4L172.2 107.7Z" fill="white"/>
<path d="M157.4 92.9L109.4 80L144.5 115.1L162.1 110.4L157.4 92.9ZM199.9 100.3L210.1 97.6L205.4 80L192.5 92.9L199.9 100.3Z" fill="white"/>
<path d="M205.4 80L192.5 32L179.6 80L192.5 92.9L205.4 80Z" fill="white"/>
<path d="M185.1 100.3L192.5 92.9L179.6 80L174.9 97.6L185.1 100.3Z" fill="white"/>
<path d="M192.5 182.4C222.544 182.4 246.9 158.044 246.9 128C246.9 97.9558 222.544 73.6001 192.5 73.6001C162.456 73.6001 138.1 97.9558 138.1 128C138.1 158.044 162.456 182.4 192.5 182.4Z" fill="#000095"/>
<path d="M192.5 176C219.01 176 240.5 154.51 240.5 128C240.5 101.49 219.01 80 192.5 80C165.99 80 144.5 101.49 144.5 128C144.5 154.51 165.99 176 192.5 176Z" fill="white"/>
</g>
</g>
<defs>
<clipPath id="clip0_103_28">
<rect width="512" height="512" fill="white" transform="translate(0.5)"/>
</clipPath>
</defs>
</svg>
