<svg width="513" height="512" viewBox="0 0 513 512" fill="none" xmlns="http://www.w3.org/2000/svg">
<g clip-path="url(#clip0_103_71)">
<mask id="mask0_103_71" style="mask-type:luminance" maskUnits="userSpaceOnUse" x="0" y="0" width="513" height="512">
<path d="M0.4804 0H512.402V511.922H0.4804V0Z" fill="white"/>
</mask>
<g mask="url(#mask0_103_71)">
<path fill-rule="evenodd" clip-rule="evenodd" d="M-127.5 341.315H640.382V426.67H-127.5V341.315Z" fill="#FFE700"/>
<path fill-rule="evenodd" clip-rule="evenodd" d="M-127.5 255.961H640.382V341.315H-127.5V255.961Z" fill="black"/>
<path fill-rule="evenodd" clip-rule="evenodd" d="M-127.5 170.709H640.382V255.961H-127.5V170.709Z" fill="#DE3908"/>
<path fill-rule="evenodd" clip-rule="evenodd" d="M-127.5 85.3547H640.382V170.709H-127.5V85.3547Z" fill="#FFE700"/>
<path fill-rule="evenodd" clip-rule="evenodd" d="M-127.5 0H640.382V85.3547H-127.5V0Z" fill="black"/>
<path fill-rule="evenodd" clip-rule="evenodd" d="M336.223 255.961C336.223 277.106 327.822 297.386 312.87 312.338C297.918 327.29 277.638 335.69 256.493 335.69C235.347 335.69 215.068 327.29 200.115 312.338C185.163 297.386 176.763 277.106 176.763 255.961C176.763 234.815 185.163 214.535 200.115 199.583C215.068 184.631 235.347 176.231 256.493 176.231C277.638 176.231 297.918 184.631 312.87 199.583C327.822 214.535 336.223 234.815 336.223 255.961Z" fill="#FFFDFF" stroke="black" stroke-width="0.92889"/>
<path fill-rule="evenodd" clip-rule="evenodd" d="M242.405 194.86L237.244 185.365C239.308 183.301 242.611 181.856 247.978 181.856L247.462 192.177L242.405 194.86Z" fill="#DE3108" stroke="black" stroke-width="0.92889"/>
<path fill-rule="evenodd" clip-rule="evenodd" d="M247.462 192.384L248.081 181.856C248.081 181.856 258.815 181.237 264.595 188.152L258.918 196.409L247.359 192.28L247.462 192.384Z" fill="#FFE700" stroke="black" stroke-width="0.92889"/>
<path fill-rule="evenodd" clip-rule="evenodd" d="M259.125 196.305L264.388 188.049C267.898 191.764 269.342 194.448 269.962 198.37C269.962 198.576 261.602 200.434 261.602 200.434L259.125 196.305Z" fill="#DE3108" stroke="black" stroke-width="0.92889"/>
<path fill-rule="evenodd" clip-rule="evenodd" d="M245.088 331.201C245.088 331.201 254.996 319.848 274.193 322.222C271.303 317.577 261.911 318.093 261.911 318.093C261.911 318.093 259.021 296.006 261.292 294.974C263.563 293.942 273.161 294.974 273.161 294.974C274.503 294.974 276.67 291.568 274.916 289.401C273.161 287.233 268.104 278.873 270.168 277.222C272.232 275.571 283.585 278.151 283.585 278.151L251.59 237.073C251.59 237.073 248.288 221.592 254.893 214.264C262.737 207.659 261.911 200.64 261.705 200.744C260.673 193.519 249.733 188.358 242.301 194.964C237.967 200.227 240.856 204.253 240.856 204.253C240.856 204.253 229.503 207.349 228.987 209.413C228.574 211.271 241.889 209 241.889 209L240.65 218.083C240.65 218.083 214.641 241.821 234.457 262.153C234.767 262.153 235.18 261.225 235.18 261.225C235.18 261.225 242.198 269.894 249.526 271.752C256.441 278.873 255.719 277.738 255.719 277.738C255.719 277.738 257.164 288.885 255.822 291.155C248.56 290.256 241.219 290.187 233.941 290.949C231.568 291.672 222.485 291.259 224.653 306.018L227.955 298.483C227.955 298.483 227.749 303.85 229.916 305.708C229.503 300.135 231.98 296.316 231.98 296.316C231.98 296.316 232.393 302.509 233.838 303.334C235.18 304.366 235.18 293.426 242.714 294.252C250.249 295.284 255.719 294.974 255.719 294.974C255.719 294.974 258.196 316.235 257.37 318.3C252.003 316.958 238.999 318.816 238.173 322.118C245.811 321.602 249.32 322.531 249.32 322.531C249.32 322.531 243.127 328.001 245.088 331.201Z" fill="black" stroke="black" stroke-width="0.82568" stroke-linecap="round" stroke-linejoin="round"/>
<path fill-rule="evenodd" clip-rule="evenodd" d="M248.184 214.677C248.184 214.677 229.194 235.525 237.347 251.523C237.863 249.252 237.657 247.91 237.863 248.014C237.451 247.704 240.237 249.871 239.928 249.459C240.134 248.323 239.205 245.846 239.205 245.846L241.682 246.465L240.237 243.679L243.85 244.195C243.85 244.195 242.611 240.686 243.024 240.686C244.023 240.739 245.02 240.808 246.017 240.892C240.65 231.294 245.707 223.346 248.081 214.78L248.184 214.677Z" fill="#9CA69C" stroke="#9CA69C" stroke-width="0.82568" stroke-linecap="round" stroke-linejoin="round"/>
<path fill-rule="evenodd" clip-rule="evenodd" d="M254.687 196.925C254.687 196.925 255.719 204.15 251.797 206.214C251.178 206.627 248.7 207.452 249.01 208.897C249.526 210.858 250.558 210.445 252.106 210.136C256.235 209.413 260.982 200.64 254.687 196.925Z" fill="#9CA69C" stroke="#9CA69C" stroke-width="0.92889"/>
<path fill-rule="evenodd" clip-rule="evenodd" d="M247.668 203.014C247.668 203.425 247.505 203.818 247.215 204.109C246.925 204.399 246.531 204.562 246.12 204.562C245.71 204.562 245.316 204.399 245.025 204.109C244.735 203.818 244.572 203.425 244.572 203.014C244.572 202.603 244.735 202.21 245.025 201.919C245.316 201.629 245.71 201.466 246.12 201.466C246.531 201.466 246.925 201.629 247.215 201.919C247.505 202.21 247.668 202.603 247.668 203.014Z" fill="white"/>
<path fill-rule="evenodd" clip-rule="evenodd" d="M241.579 209C240.547 209.826 235.386 215.296 240.547 217.257C245.914 215.812 244.366 214.883 245.604 213.645C245.604 211.271 242.921 210.548 241.579 209Z" fill="#DE3108" stroke="black" stroke-width="0.92889"/>
<path fill-rule="evenodd" clip-rule="evenodd" d="M253.035 260.502C252.726 261.74 251.59 266.075 253.242 269.378C257.783 267.52 259.847 268.036 261.395 269.068C257.68 265.972 256.235 264.837 253.035 260.502Z" fill="#9CA69C" stroke="#9CA69C" stroke-width="0.82568" stroke-linecap="round" stroke-linejoin="round"/>
<path fill-rule="evenodd" clip-rule="evenodd" d="M260.879 281.144L261.086 291.259C261.086 291.259 264.698 291.981 266.246 291.259C267.898 290.639 266.246 284.24 260.879 281.144Z" fill="white" stroke="white" stroke-width="0.82568" stroke-linecap="round" stroke-linejoin="round"/>
<path fill-rule="evenodd" clip-rule="evenodd" d="M286.579 282.382C286.579 282.382 279.973 266.591 263.356 262.566C246.739 258.541 248.804 240.892 250.145 239.757C250.868 238.209 251.384 235.835 256.235 238.105C261.086 240.376 283.173 251.523 286.372 252.039C289.572 252.555 286.785 282.795 286.579 282.382Z" fill="#9CA69C" stroke="black" stroke-width="0.92889"/>
<path fill-rule="evenodd" clip-rule="evenodd" d="M270.684 262.566C270.375 262.669 292.978 275.88 286.166 287.233C292.668 283.002 290.501 275.468 290.501 275.468C290.501 275.468 295.764 289.194 282.966 295.903C284.411 297.142 285.237 296.832 285.237 296.832L283.173 298.999C283.173 298.999 282.141 300.651 290.707 296.522C288.333 298.38 288.127 299.722 288.127 299.722C288.127 299.722 288.849 301.58 294.422 296.626C292.203 298.809 290.324 301.314 288.849 304.057C301.234 302.921 327.863 263.082 280.489 251.316L282.553 253.587L270.684 262.566Z" fill="#DE3108" stroke="black" stroke-width="0.82568" stroke-linejoin="round"/>
<path fill-rule="evenodd" clip-rule="evenodd" d="M271.613 258.644C274.709 260.709 275.741 261.534 276.154 262.566C273.368 261.947 270.787 262.154 270.787 262.154C270.787 262.154 264.801 256.374 263.666 255.961C262.84 255.961 258.093 252.865 258.093 252.865C255.719 251.729 253.551 243.576 262.221 245.95C271.303 250.181 272.542 250.491 272.542 250.491L283.276 253.897L289.468 260.812C289.468 260.812 278.425 255.342 277.083 255.238C280.179 257.715 281.831 261.018 281.831 261.018C278.322 259.986 275.329 259.16 271.613 258.644Z" fill="white" stroke="black" stroke-width="0.82568" stroke-linecap="round" stroke-linejoin="round"/>
<path d="M228.884 209.826C228.884 209.826 239.412 207.349 240.65 207.762" stroke="white" stroke-width="0.82568" stroke-linecap="round"/>
<path fill-rule="evenodd" clip-rule="evenodd" d="M-127.5 426.67H640.382V512.025H-127.5V426.67Z" fill="#DE3908"/>
</g>
</g>
<defs>
<clipPath id="clip0_103_71">
<rect width="512" height="512" fill="white" transform="translate(0.5)"/>
</clipPath>
</defs>
</svg>
