<svg width="513" height="512" viewBox="0 0 513 512" fill="none" xmlns="http://www.w3.org/2000/svg">
<g clip-path="url(#clip0_103_97)">
<path fill-rule="evenodd" clip-rule="evenodd" d="M0.5 0H512.5V512H0.5V0Z" fill="#4B92DB"/>
<path d="M296.696 375.68C294.839 377.694 292.804 379.536 290.616 381.184C277.048 367.104 261.048 351.616 245.88 351.616C236.472 351.616 229.752 358.784 221.816 363.776C210.872 370.816 195.832 374.784 182.968 369.6C175.692 367.108 169.232 362.684 164.28 356.8C169.727 360.198 175.9 362.259 182.296 362.815C188.692 363.371 195.128 362.406 201.08 360C213.688 354.752 226.616 347.776 241.016 347.776C262.264 347.776 282.488 362.176 296.696 375.68ZM139.512 331.52C153.592 347.52 176.568 342.4 195.32 346.368C197.944 347.008 200.44 347.84 203.256 347.392C201.016 345.984 198.008 345.792 195.448 344.832C180.856 339.328 178.616 323.712 170.616 313.024C180.856 319.808 189.24 329.024 198.776 337.792C205.498 343.35 213.627 346.939 222.264 348.16C220.216 348.928 217.528 348.8 215.224 349.312C199.864 353.152 182.84 359.168 166.456 353.792C155.031 349.982 145.443 342.038 139.576 331.52H139.512ZM116.984 294.4C125.752 314.304 147.832 315.904 162.424 328.064C165.041 330.388 167.944 332.366 171.064 333.952L171.256 333.824C167.648 330.678 164.406 327.136 161.592 323.264C153.208 311.104 155.96 294.464 149.496 281.536C155.5 288.21 160.482 295.737 164.28 303.872C169.72 316.8 171.576 331.584 183.8 341.44C170.552 337.088 155.32 337.92 143.48 330.176C130.936 321.984 119.352 309.056 116.984 294.464V294.4ZM107.576 254.208C108.856 271.744 127.416 281.088 136.376 295.488C138.296 298.56 140.216 301.76 142.968 304.192C142.52 302.336 141.048 300.672 140.152 298.88C137.214 292.41 136.043 285.277 136.76 278.208C137.592 269.248 141.304 260.928 139.896 251.52C147.576 268.096 145.08 288.768 149.496 306.624C150.52 310.592 152.888 314.048 154.36 317.824C146.872 312.064 137.016 306.944 128.76 300.544C120.529 294.627 114.103 286.54 110.2 277.184C107.687 269.802 106.792 261.966 107.576 254.208ZM108.088 221.952C108.984 218.048 109.688 214.016 111.352 210.432C108.152 226.944 119.16 238.848 122.872 253.184C124.28 258.56 124.792 264.256 126.968 269.312C127.16 269.376 127.352 269.184 127.48 269.056C122.04 253.824 130.04 239.744 137.72 227.776C139.602 224.492 140.942 220.926 141.688 217.216C142.52 224.128 141.048 232.064 139.768 239.168C138.168 248.32 135.032 256.896 132.536 265.728C131.184 271.484 131.075 277.462 132.216 283.264L131.384 282.624C125.624 272 114.232 263.68 110.84 252.032C107.598 242.355 106.655 232.056 108.088 221.952ZM114.168 204.16C114.377 192.404 118.677 181.088 126.328 172.16C126.52 172.032 126.712 171.84 126.968 171.904C118.904 184.064 126.264 199.552 125.176 213.44L124.152 227.648C124.28 227.776 124.28 228.224 124.664 228.032C125.176 226.432 125.304 224.768 125.56 223.104C127.48 211.584 137.592 203.648 146.104 195.584C148.073 193.725 149.603 191.452 150.584 188.928C149.88 194.688 148.28 200.512 145.72 205.696C139.128 219.008 126.456 229.76 124.152 244.928C123.064 230.4 114.168 219.584 114.168 204.16ZM135.288 161.984C138.967 157.56 143.862 154.312 149.368 152.64C138.808 159.872 139.384 172.736 136.184 183.488C135.032 187.392 133.304 191.104 132.344 195.136L132.664 195.392C134.55 190.551 137.503 186.198 141.304 182.656C148.664 175.744 159.736 171.52 163.384 161.344C163.192 175.488 151.16 186.24 140.152 194.56C135.252 198.257 131.267 203.03 128.504 208.512C128.888 204.672 129.144 201.344 128.76 197.568C127.608 185.216 126.84 171.328 135.352 161.984H135.288ZM177.848 138.24C170.104 145.088 164.92 153.856 158.904 161.728C153.976 168.32 147.128 172.352 141.304 177.856C144.504 171.328 145.016 163.776 149.048 157.44C155.896 146.56 167.288 142.336 177.848 138.24Z" fill="white"/>
<path d="M216.312 375.68C218.169 377.694 220.204 379.536 222.392 381.184C235.96 367.104 251.96 351.616 267.128 351.616C276.536 351.616 283.256 358.784 291.192 363.776C302.136 370.816 317.176 374.784 330.04 369.6C337.316 367.108 343.776 362.684 348.728 356.8C343.281 360.198 337.108 362.259 330.712 362.815C324.316 363.371 317.88 362.406 311.928 360C299.32 354.752 286.392 347.776 271.992 347.776C250.744 347.776 230.52 362.176 216.312 375.68ZM373.496 331.52C359.416 347.52 336.44 342.4 317.688 346.368C315.064 347.008 312.568 347.84 309.752 347.392C311.992 345.984 315 345.792 317.56 344.832C332.152 339.328 334.392 323.712 342.392 313.024C332.152 319.808 323.768 329.024 314.232 337.792C307.51 343.35 299.38 346.939 290.744 348.16C292.792 348.928 295.48 348.8 297.784 349.312C313.144 353.152 330.168 359.168 346.552 353.792C357.977 349.982 367.565 342.038 373.432 331.52H373.496ZM396.024 294.4C387.256 314.304 365.176 315.904 350.584 328.064C347.967 330.388 345.064 332.366 341.944 333.952L341.752 333.824C345.36 330.678 348.602 327.136 351.416 323.264C359.8 311.104 357.048 294.464 363.512 281.536C357.508 288.21 352.526 295.737 348.728 303.872C343.288 316.8 341.432 331.584 329.208 341.44C342.456 337.088 357.688 337.92 369.528 330.176C382.072 321.984 393.656 309.056 396.024 294.464V294.4ZM405.432 254.208C404.152 271.744 385.592 281.088 376.632 295.488C374.712 298.56 372.792 301.76 370.04 304.192C370.488 302.336 371.96 300.672 372.856 298.88C375.794 292.41 376.965 285.277 376.248 278.208C375.416 269.248 371.704 260.928 373.112 251.52C365.432 268.096 367.928 288.768 363.512 306.624C362.488 310.592 360.12 314.048 358.648 317.824C366.136 312.064 375.992 306.944 384.248 300.544C392.479 294.627 398.905 286.54 402.808 277.184C405.321 269.802 406.216 261.966 405.432 254.208ZM404.92 221.952C404.024 218.048 403.32 214.016 401.656 210.432C404.856 226.944 393.848 238.848 390.136 253.184C388.728 258.56 388.216 264.256 386.04 269.312C385.848 269.376 385.656 269.184 385.528 269.056C390.968 253.824 382.968 239.744 375.288 227.776C373.406 224.492 372.066 220.926 371.32 217.216C370.488 224.128 371.96 232.064 373.24 239.168C374.84 248.32 377.976 256.896 380.472 265.728C381.824 271.484 381.933 277.462 380.792 283.264L381.624 282.624C387.384 272 398.776 263.68 402.168 252.032C405.41 242.355 406.353 232.056 404.92 221.952ZM398.84 204.16C398.631 192.404 394.331 181.088 386.68 172.16C386.488 172.032 386.296 171.84 386.04 171.904C394.104 184.064 386.744 199.552 387.832 213.44L388.856 227.648C388.728 227.776 388.728 228.224 388.344 228.032C387.832 226.432 387.704 224.768 387.448 223.104C385.528 211.584 375.416 203.648 366.904 195.584C364.935 193.725 363.405 191.452 362.424 188.928C363.128 194.688 364.728 200.512 367.288 205.696C373.88 219.008 386.552 229.76 388.856 244.928C389.944 230.4 398.84 219.584 398.84 204.16ZM377.72 161.984C374.041 157.56 369.146 154.312 363.64 152.64C374.2 159.872 373.624 172.736 376.824 183.488C377.976 187.392 379.704 191.104 380.664 195.136L380.344 195.392C378.458 190.551 375.505 186.198 371.704 182.656C364.344 175.744 353.272 171.52 349.624 161.344C349.816 175.488 361.848 186.24 372.856 194.56C377.756 198.257 381.741 203.03 384.504 208.512C384.12 204.672 383.864 201.344 384.248 197.568C385.4 185.216 386.168 171.328 377.656 161.984H377.72ZM335.16 138.24C342.904 145.088 348.088 153.856 354.104 161.728C359.032 168.32 365.88 172.352 371.704 177.856C368.504 171.328 367.992 163.776 363.96 157.44C357.112 146.56 345.72 142.336 335.16 138.24Z" fill="white"/>
<path d="M351.5 279.5L349.1 278.2C344.263 288.195 337.847 297.345 330.1 305.3L316.7 291.9C323.204 285.199 328.544 277.46 332.5 269L330.2 267.8C326.366 275.997 321.196 283.5 314.9 290L302.7 277.8C307.864 272.465 312.059 266.273 315.1 259.5L312.8 258.3C309.889 264.845 305.862 270.834 300.9 276L287.5 262.7C291.198 258.787 294.116 254.205 296.1 249.2L293.8 248C291.949 252.778 289.199 257.157 285.7 260.9L273.5 248.7C276.987 244.84 279.035 239.895 279.3 234.7H296.5C296.368 239.255 295.455 243.754 293.8 248L296.1 249.2C297.929 244.611 298.945 239.738 299.1 234.8H318.1C317.921 242.941 316.119 250.964 312.8 258.4L315.1 259.6C318.585 251.753 320.456 243.285 320.6 234.7H337.8C337.654 246.181 335.063 257.499 330.2 267.9L332.5 269.1C337.5 258.5 340.2 246.8 340.4 234.7H359.4C359.215 249.782 355.698 264.637 349.1 278.2L351.4 279.5C358.379 265.17 362.004 249.439 362 233.5C362 219.7 359.3 206.3 354.3 193.9L352 194.9C356.7 206.6 359.2 219.2 359.4 232.2H340.4C340.224 222.017 338.19 211.953 334.4 202.5L332.1 203.5C335.724 212.642 337.656 222.367 337.8 232.2H320.6C320.472 224.671 319.016 217.223 316.3 210.2L314 211.2C316.549 217.913 317.903 225.02 318 232.2H299C298.893 227.628 298.049 223.103 296.5 218.8L294.1 219.8C295.552 223.78 296.362 227.966 296.5 232.2H279.3C279.035 227.005 276.987 222.06 273.5 218.2L285.7 206.1C289.438 210.039 292.331 214.701 294.2 219.8L296.5 218.8C294.514 213.407 291.452 208.473 287.5 204.3L300.9 190.8C306.557 196.699 310.977 203.668 313.9 211.3L316.3 210.3C313.23 202.365 308.606 195.124 302.7 189L314.9 176.9C322.326 184.55 328.171 193.589 332.1 203.5L334.5 202.5C330.424 192.286 324.376 182.975 316.7 175.1L330.2 161.6C339.571 171.171 346.977 182.483 352 194.9L354.3 193.9C348.997 180.793 341.107 168.889 331.1 158.9C321.061 148.835 309.087 140.909 295.9 135.6L294.9 138C307.388 143 318.77 150.408 328.4 159.8L314.9 173.3C307.153 165.752 298.018 159.776 288 155.7L287 158.1C296.717 162.027 305.58 167.8 313.1 175.1L300.9 187.3C295.094 181.67 288.274 177.191 280.8 174.1L279.8 176.5C286.971 179.444 293.52 183.719 299.1 189.1L285.7 202.5C281.969 198.984 277.632 196.172 272.9 194.2L271.9 196.6C276.329 198.427 280.393 201.035 283.9 204.3L271.7 216.5C267.84 213.013 262.895 210.965 257.7 210.7V193.5C262.611 193.611 267.459 194.628 272 196.5L273 194.2C268.179 192.174 263.027 191.056 257.8 190.9V171.9C265.354 172.067 272.812 173.626 279.8 176.5L280.8 174.1C273.489 171.129 265.691 169.535 257.8 169.4V152C267.854 152.169 277.789 154.203 287.1 158L288.1 155.6C278.466 151.703 268.191 149.635 257.8 149.5V130.5C270.8 130.6 283.3 133.2 295 137.9L296 135.5C283.437 130.486 270.026 127.94 256.5 128C240.107 127.991 223.941 131.827 209.3 139.2L210.5 141.4C224.389 134.458 239.674 130.765 255.2 130.6V149.6C242.733 149.777 230.465 152.75 219.3 158.3L220.5 160.5C231.296 155.148 243.152 152.278 255.2 152.1V169.4C245.941 169.567 236.829 171.751 228.5 175.8L229.6 178C237.591 174.137 246.326 172.056 255.2 171.9V190.9C249.418 191.078 243.735 192.439 238.5 194.9L239.6 197.1C244.496 194.824 249.803 193.565 255.2 193.4V210.7C252.5 210.8 250 211.5 247.6 212.5L248.8 214.7C251.244 213.702 253.86 213.192 256.5 213.2C259.161 213.209 261.795 213.743 264.249 214.773C266.703 215.803 268.929 217.307 270.8 219.2C272.693 221.071 274.197 223.297 275.227 225.751C276.257 228.205 276.791 230.839 276.8 233.5C276.8 244.6 267.7 253.8 256.5 253.8C253.821 253.81 251.167 253.284 248.694 252.254C246.221 251.224 243.979 249.709 242.1 247.8C240.225 245.921 238.739 243.691 237.727 241.237C236.715 238.784 236.196 236.154 236.2 233.5C236.2 228 238.3 222.9 242.2 219.1C244.089 217.214 246.332 215.718 248.8 214.7L247.6 212.4C245.295 213.378 243.166 214.73 241.3 216.4L229.1 204.3C232.156 201.328 235.667 198.864 239.5 197L238.5 195C234.386 196.922 230.606 199.487 227.3 202.6L213.8 189C218.458 184.528 223.789 180.816 229.6 178L228.5 175.8C222.467 178.755 216.933 182.635 212.1 187.3L199.9 175C205.964 169.09 212.915 164.164 220.5 160.4L219.3 158.2C211.501 162.075 204.349 167.135 198.1 173.2L184.6 159.7C192.23 152.264 200.967 146.057 210.5 141.3L209.3 139.1C188.75 149.446 172.116 166.185 161.9 186.8L164.1 188C168.895 178.235 175.206 169.29 182.8 161.5L196.3 175C190.014 181.493 184.814 188.955 180.9 197.1L183.1 198.3C186.906 190.37 191.971 183.109 198.1 176.8L210.3 189C205.36 194.13 201.305 200.043 198.3 206.5L200.5 207.7C203.354 201.429 207.242 195.683 212 190.7L225.5 204.2C222.043 207.882 219.267 212.148 217.3 216.8L219.5 218C221.355 213.563 223.998 209.497 227.3 206L239.5 218.2C236.041 222.038 233.995 226.942 233.7 232.1H216.5C216.638 227.257 217.654 222.48 219.5 218L217.3 216.8C215.223 221.644 214.07 226.833 213.9 232.1H194.9C195.068 223.668 196.975 215.362 200.5 207.7L198.3 206.5C194.541 214.523 192.498 223.242 192.3 232.1H175.1C175.291 220.387 178.021 208.856 183.1 198.3L180.9 197.1C175.617 208.023 172.785 219.968 172.6 232.1H153.6C153.776 216.834 157.364 201.801 164.1 188.1L161.9 186.8C154.721 201.285 150.991 217.234 151 233.4C151.015 243.454 152.463 253.455 155.3 263.1L157.8 262.5C155.129 253.436 153.716 244.049 153.6 234.6H172.6C172.708 242.464 173.92 250.273 176.2 257.8L178.7 257.2C176.477 249.869 175.299 242.26 175.2 234.6H192.4C192.501 240.847 193.511 247.045 195.4 253L197.9 252.4C196.033 246.646 195.022 240.648 194.9 234.6H213.9C214.04 239.071 214.884 243.492 216.4 247.7L218.9 247.1C217.438 243.088 216.628 238.868 216.5 234.6H233.7C233.965 239.795 236.013 244.74 239.5 248.6L227.3 260.8C223.6 256.85 220.742 252.189 218.9 247.1L216.4 247.7C218.367 253.244 221.466 258.318 225.5 262.6L212.1 276C205.638 269.312 200.782 261.242 197.9 252.4L195.4 253C198.399 262.3 203.497 270.786 210.3 277.8L198.1 290C189.114 280.767 182.463 269.522 178.7 257.2L176.2 257.8C180.056 270.568 186.914 282.227 196.2 291.8L182.9 305.2C171.162 293.238 162.543 278.575 157.8 262.5L155.3 263.1C160.243 280.069 169.393 295.513 181.9 308C190.5 316.6 200.4 323.5 211 328.6L212.3 326.4C202.025 321.515 192.63 314.959 184.5 307L198 293.6C204.888 300.276 212.871 305.722 221.6 309.7L222.8 307.5C214.287 303.628 206.507 298.317 199.8 291.8L212 279.6C217.601 285.005 224.142 289.343 231.3 292.4L232.6 290.2C225.622 287.261 219.249 283.057 213.8 277.8L227.2 264.4C231.461 268.387 236.5 271.45 242 273.4L243.3 271.2C237.98 269.373 233.107 266.443 229 262.6L241.2 250.4C245.06 253.887 250.005 255.936 255.2 256.2V273.4C251.111 273.285 247.064 272.543 243.2 271.2L242 273.5C246.213 274.984 250.634 275.793 255.1 275.9V294.9C247.371 294.764 239.737 293.169 232.6 290.2L231.3 292.4C238.833 295.609 246.913 297.341 255.1 297.5V314.7C243.953 314.548 232.956 312.097 222.8 307.5L221.6 309.7C232.12 314.525 243.528 317.113 255.1 317.3V336.3C240.1 336.1 225.5 332.7 212.1 326.3L210.9 328.6C225.126 335.448 240.712 339.002 256.5 339C273.3 339 289.5 335 304 327.7L302.8 325.3C288.84 332.363 273.444 336.126 257.8 336.3V317.3C270.409 317.145 282.82 314.137 294.1 308.5L292.9 306.2C281.999 311.68 269.999 314.62 257.8 314.8V297.6C267.284 297.417 276.609 295.129 285.1 290.9L283.9 288.6C275.79 292.675 266.874 294.896 257.8 295.1V276.1C263.841 275.926 269.774 274.46 275.2 271.8L274 269.5C268.943 271.963 263.422 273.326 257.8 273.5V256.3C262.96 256.013 267.866 253.966 271.7 250.5L283.9 262.7C280.959 265.45 277.622 267.742 274 269.5L275.2 271.8C279.047 269.909 282.587 267.448 285.7 264.5L299.1 277.9C294.603 282.214 289.478 285.821 283.9 288.6L285.1 290.9C290.903 287.987 296.23 284.211 300.9 279.7L313.1 291.9C307.133 297.666 300.321 302.488 292.9 306.2L294.1 308.5C301.748 304.657 308.762 299.665 314.9 293.7L328.3 307.1C320.775 314.428 312.176 320.565 302.8 325.3L304 327.7C313.981 322.637 323.094 316.022 331 308.1C339.349 299.773 346.245 290.106 351.4 279.5H351.5Z" fill="white"/>
<path d="M261.9 209V209.9H262.6V209.1L261.9 209ZM260.9 208H261.9V208.7H260.9V208ZM260.2 208V207.3L259.5 207.2V207.8L260.2 208ZM258.8 207.6L258.1 207.5V206.8L258.9 206.9L258.8 207.6ZM252.7 206.8H253.5V207.4H252.7V206.8ZM251.5 208V207.4L250.8 207.3V207.9L251.5 208ZM250.8 209L249.9 208.7L250.1 208.1L250.9 208.3L250.8 209ZM249.3 209.7L249.2 209.1L249.8 209L249.9 209.6L249.3 209.7ZM165.5 275H165V276H165.9V277.5H166.5L166.4 275.8L165.5 275.5V275ZM173.9 284.4L173.5 285.1L172.3 284.1L171.5 282.9L171.1 281.9L170.3 279.9L171.9 280.7L172.4 282.2L173.2 282.8L173.9 284.4ZM195.5 313L194.7 311.7L196 311.9L197.3 313.1L197.9 314.5L197.1 314.9L196.7 314.3L195.7 314L195.5 313ZM253.3 216H252.1L251.9 213.6L252.6 213.1V212H248.8V211L249.3 210.6L248.4 210.3L247.8 211.2L247.6 212.2L246.5 212.4V212.9H245.7V214.3L242.7 216.8L236.8 216.6C236.4 217.6 235.3 216.5 235.3 216.5C235.1 215.8 233.6 216.5 233.6 216.5C233.6 217.6 231.6 215.9 231.6 215.9L227.9 213.2C225.8 211.2 222.6 213.8 222.5 214.3C222.5 215.8 220 214.6 220 214.6C220 214.6 217.9 214 217.6 214.8C217.2 215.7 215.9 215.5 215.9 215.5L215.6 215.9L214.6 216.1L214.4 216.8L213.1 217L216.3 216.9C217.1 216.8 216 218.7 215.4 218.6L213.9 218.7L213.4 219.3H212L211.4 220.1H209.4C209.4 220.1 208.2 221 208.3 221.3C208.4 221.6 208.1 222.6 207.8 222.6C207.5 222.6 206.8 223.6 207 223.9C207.2 224.2 206.4 225.3 206.4 225.3L206.2 226.3L205.5 226.6V229.6L204.3 230.4V231.7L202.3 233.7L202.6 235.5L201 237.2L201.2 238.9L200.2 239.2L200 240L199.6 242.3H200.6C201.2 242.2 201.1 243.8 200.6 244C200.2 244.2 199 244.6 199.6 245C200.3 245.5 198 245.4 198 244.7C198 244.1 196.7 243.6 196.4 243.7C196.1 244 195.5 242.8 195.5 242.8C194.4 241.6 190.8 242.9 190.8 242.9L190.2 244.6C189 244.9 188.3 246.8 188.3 246.8C187.3 247.1 186.6 248.3 186.9 248.6C187.2 249 186.4 249.1 186.4 249.1V251.4L185.9 252.2V254.8C186.6 254.8 186.5 256 186.5 256C185.5 256 185.6 257.5 185.6 257.5L183.4 258.2L183 258.9L180.2 258.8L179.5 259.5L178.7 258.8H173.4L173.2 258.2L172.2 258L172 256.8L170.4 256.9L170.1 257.6H168.4C168.5 258.8 166.7 260.4 166.4 260C166.3 259.5 165.1 258.4 165.6 258.1L167.6 257.7V256.9H163.6L163.2 257.5H161.5V259.3L160.8 259.5C160.2 259.9 160.8 261 160.8 261C161.6 261.8 160.8 263 160.8 263C160.1 263.6 161.3 264.8 161.3 264.8C162.1 265 160.8 265.7 160.8 265.7C161 266.7 161.6 267.1 161.6 267.1C161 268.1 162 268.7 162 268.7L162.1 270.5L162.9 271V272.2L163.3 272.9H165L164.9 270.2C163.4 268.5 166.2 268.1 166.3 268.7C166.3 269.4 167.6 269.7 167.6 269.7C167.8 271.3 169.6 272.3 170.1 270.7C170.6 269 171.1 270 171.4 270.7C171.7 271.5 173.7 273.4 173.7 273.4H175.3L175.5 274.9C177.3 274.8 177.9 274.9 178.6 277.5C178.809 278.179 179.17 278.802 179.655 279.322C180.14 279.841 180.737 280.244 181.4 280.5H182.9C182.9 279.2 184.4 280.7 184.4 281.4C184.4 282 187.2 284.4 187.2 284.4L190.2 285.1L192.8 287.3L194.8 287.1H195.7C196.2 285.2 198.7 287.1 199 287.8C199.2 288.5 200.9 289.6 201 289C201.3 288.5 202.5 288.8 202.7 290.4C202.9 292 203.7 291.7 203.7 291.7H209.7L211.8 289.7H217.2C220 289.6 218.3 285.7 217.8 285.7C216.8 285 218.1 281.9 218.1 281.9L210.3 274.7C208.5 274.7 210.1 272 210.1 272C211.5 271.2 209.8 269.8 209.8 269.8C210 268.5 209.1 267 209.1 267C207.1 265.7 207.7 263.2 207.7 263.2V261.5C206.1 260 208.3 259.7 208.3 259.7C209.1 258.4 207.8 257.5 207.8 257.5L207.7 256.1L206 255.9L205.8 250.8L201.9 245.3C201.2 245.1 201.7 243.8 201.7 243.8C202.7 243.2 201.5 241.9 201.5 241.9L201.4 239.6L203.6 239.3L204.2 238.5H205.2V235.7C205.6 234.3 206.9 235 206.9 235L208.4 235.1L209.3 233.5L209.5 232.2H208.3C207 231.3 207.7 228.5 207.7 228.5C209.7 225.5 212 227.2 212 227.2H213.5C215.8 228.6 213.7 231.5 213.7 231.5C213.3 232.1 213.5 234.2 213.5 234.2L214.1 237.6L212.7 238.8C211.5 239.4 211.5 241 212.7 241.3C213.7 241.3 213.3 243.4 212 242C210.1 242 213 243.8 212.2 243.3C214.2 244.3 213.7 242.5 213.7 242.5L216.3 240.5C217.3 239.7 218.9 242 218.9 242.4C218.9 242.7 223.2 242.4 223.2 242.4C224.4 243.2 224.8 245.2 224.8 245.2C226 243.7 228.4 245.1 226.6 245.9C228.3 247 228.3 247.9 228.3 247.9C229.7 247.5 229.7 248.6 229.7 248.9L230.1 247.3C228.5 246.1 232.2 245.7 231.1 247.9L230.5 248.9L231.6 249.7L231.7 252.2C234.1 252 233.4 249.1 233.4 249.1L234.4 248.8C234.4 247.8 235.2 248.4 235.2 248.4C234.5 244.7 236.9 244.1 236.9 244.1C238.3 243.8 238.4 240.8 238.4 240.8C237.4 240.4 238 238.9 239.1 240.2C240.1 241.5 238.4 237.6 238.4 237.6L237.6 236.9L236.4 236.7L236.3 235.6H234.3L234.1 237.1L233.3 237.3L233.1 236.9L232.8 238H230.8V236.7L231.9 236.4L232.4 235.8L232.7 234H234.1L235.9 233.5C235.9 231.7 236.9 232.1 236.9 232.1L237.6 232.6L238.6 233.4V234L238 234.4L237.9 235.2L238.2 236.4H239.1C239.4 234.7 241.6 234.7 242.3 235.8L242.9 234.3C241.4 233.5 242.9 232.3 243.3 232.9C243.7 233.4 244.7 231.5 244.7 231.5C244.7 231.5 245.4 232.5 244.7 231.1C243.9 229.8 245.2 229.1 245.2 229.1C245 227.9 246.6 228.1 246.6 228.1L246.7 226.4L245.2 226.3C244.9 227.8 243.6 226.5 244.2 226.2C244.8 225.9 245.5 225.2 245.5 225.2V224.2L246.2 223.9V222.9H247.9L249.3 222.2L249.6 221.6H251.1L253.2 219.6L253 218.7C251.7 218.7 253 217.7 253 217.7L253.2 216.1L253.3 216Z" fill="white"/>
<path d="M210.3 237.4L208.4 237.2L208.5 238H209.1C209.9 239.5 209.1 243.1 209.1 243.1C209.1 243.1 207.9 243.2 207.7 242.6C207.5 241.9 206.9 244 207.4 244.3C207.8 244.6 209.3 244.3 209.4 245.5C209.4 246.7 210.4 244.8 210.4 244.8V237.4H210.3Z" fill="white"/>
<path d="M210.8 249.5L211 248.5L210.2 248.2L210.3 246.6L211 246.5V245.7L209.5 246.8L208.5 246.2V248.8L210.1 251L210.8 249.5ZM211.2 252.3L210.4 252.4V253.3H211.2V252.3ZM210.2 257.8L209.3 257.9V258.7L210.3 258.6L210.2 257.8ZM211.5 255.2C211.7 255.2 211.9 255.1 211.9 254.8C211.9 254.5 211.7 254.3 211.5 254.3C211.3 254.3 211 254.5 211 254.8C211 255 211.2 255.2 211.5 255.2Z" fill="white"/>
<path d="M212.2 257.6C212.476 257.6 212.7 257.376 212.7 257.1C212.7 256.824 212.476 256.6 212.2 256.6C211.924 256.6 211.7 256.824 211.7 257.1C211.7 257.376 211.924 257.6 212.2 257.6Z" fill="white"/>
<path d="M212.2 245.2C212.476 245.2 212.7 244.976 212.7 244.7C212.7 244.424 212.476 244.2 212.2 244.2C211.924 244.2 211.7 244.424 211.7 244.7C211.7 244.976 211.924 245.2 212.2 245.2Z" fill="white"/>
<path d="M242 241.4L242.3 240.4L242.9 240V239L243.4 238.2L244.1 237.4L244.3 236.5L245.3 235.9L246.6 235.7L247.1 235L247.4 233.7V232.7L247.9 232.1L249.2 231.6V229.6H248.5V228.8L247.3 228.7L247 229.2H246.5L246.4 230.1H247L247.1 230.7L246.7 231.1L246.5 231.7L245.7 231.9L243.7 233.7V234.6L243.1 235.4L242.5 237H240.2L239.8 239L240.1 240.6L242 241.4ZM251.4 236.1V234.6L251.2 233.2L249.6 232.4L248.4 233.5L248.2 235V236L247.2 236.2L246.9 239.2L246.1 239.5V240.5L245.1 240.9L243.8 241.2L243.6 242.6L242.8 243.1L242.4 244.4L241.8 247.6C241.8 247.6 242.8 249.4 243.3 248.6C243.444 248.34 243.645 248.115 243.887 247.942C244.129 247.769 244.407 247.652 244.7 247.6L245 246.8L247.9 246.9C248.1 245.7 249.5 246.2 249.5 246.7C249.5 247.2 250.5 246.8 250.5 246.8L251.3 245.6H252.5V244.3L253.1 244V242C254.8 241.5 254.6 239.9 254.6 239.9L255 239.4L254.8 238.6C253.9 238.3 254.4 237.6 254.9 237.7C255.4 238 254.2 236.7 254.2 236.7C253.5 237.3 253 236.1 253 236.1H251.4ZM253.1 249.1C253 250.5 251.4 250.9 251.4 250.9L250.2 250.6L249.6 250L249.5 248.5H250.5L250.6 249.1H253.1ZM258.8 242.3C259.1 243.3 259 240.8 259.5 240.9C259.9 240.9 259.5 239.4 259.5 239.4L257.7 240.8C258.7 240.8 258.7 241.8 258.8 242.3ZM264.5 236.6C264.9 237.6 264.8 239 266.4 240.1C266.9 240.5 266.1 241.1 265.5 240.9C265 240.5 263.5 238.2 263.5 238.2V236.8C263.8 235.9 264.3 236.2 264.5 236.7V236.6ZM265.9 269.2L265.2 268.9L264.5 269.5L264.8 269.8L265.1 270.3L265.9 269.2ZM261.9 267.7V269.1V267.7ZM278.1 265.6L277.7 265.1L276.9 265.6L277.2 266.2L278.1 265.6ZM308 288.7L309 289.1V291C310.3 292.3 314.5 291.2 314.5 290.9L314.3 286.9L313.7 286.3V283.6C314.1 282.2 311.7 280.2 311.4 280.6C311.2 281 309.8 280.7 309.8 281.1C309.8 281.6 308.9 283.7 309.4 284.5C309.8 285.2 309.1 285.2 308.9 286C308.9 286.8 307.8 288 307.9 288.7H308ZM305.6 284.4C305.4 285.2 304.7 285.7 304.3 285.4C303.8 285 304.8 285.9 305 286.4C305.055 286.482 305.129 286.55 305.216 286.597C305.304 286.644 305.401 286.668 305.5 286.668C305.599 286.668 305.697 286.644 305.784 286.597C305.871 286.55 305.945 286.482 306 286.4C306.3 285.9 306.2 284.9 306.4 284.4C306.6 284.1 305.8 284 305.6 284.4ZM300.7 264.6H301.4V266.6H300.7V264.6ZM311.7 243.8C311.2 243.2 313.8 242.1 314.3 243.4C314.7 244.7 314.3 244.4 313.8 244.4C313.4 244.2 312.3 244.6 311.8 243.8H311.7ZM313.9 230L315.1 230.2V229.5L314.1 229.3L313.9 230ZM311.1 231.4L311.7 231.1L311.5 230.6L311.3 230.3L311 230.4L310.2 230.9L309.5 230.4L309.2 231L310.1 231.5L310.2 231.6H310.4L311 231.2L311.1 231.4ZM315.1 204.9H313.4C313.4 204.9 313.9 205.1 312.4 203.7C310.9 202.3 310 204 310 204L308.3 204.3V206L307.5 206.3V207.3H308.7C308.7 207.3 308.7 208.6 309.1 208C309.5 207.4 312.1 208.1 311.8 209.4C311.8 210 314.5 211.4 314.2 213.1C315.5 213.3 315.2 214.7 315.2 214.7L317 215L317.6 213.9H318.1V213.3L316.9 213L316.7 209.6L316 209L316.2 208.2L315.3 207.8L315.8 206.4L315 204.9H315.1ZM319.7 215.9H318.8L316.9 216.1L315.9 218.1C315.9 218.1 316.4 218.5 316.9 219.3C317.2 220 317.5 224.5 316.2 225.3C314.9 226 316.2 225.5 316.2 225.5L316.1 227.9C316.4 228.9 316.9 228.5 317.2 227.9C317.6 227.4 317.9 227.3 318.3 226.7C318.858 226.065 319.268 225.313 319.5 224.5C319.5 223.7 320.1 222.5 319.8 222.2C319.5 221.9 320.1 220.4 320.1 220.4C320.1 220.4 320.5 219.4 320.1 218.6C319.7 217.8 320.2 216.8 320.5 216.4L319.7 215.9ZM321 220.3V219.5H321.7V220.5L321 220.3ZM321 223.3L320.4 223L320.7 222.4L321.3 222.7L321 223.3ZM320 214.7L319.6 213.7C319.6 213.7 319.6 212.9 319.8 212.5C320 212 319.4 211.6 319 211.5C318.7 211.4 318.8 210.5 318.7 210.1C318.7 209.7 317.9 209.3 317.9 209.3L317.7 207.4C317.7 207.1 316.7 206.6 317 206.4L317.9 205.4C318.2 205.1 317.6 203.6 318.1 203.9C318.6 204.3 318.6 204.9 318.8 205.2C319 205.7 318.8 207.2 319.3 207.5C319.8 207.8 319.2 208.9 320 208.9C320.9 208.9 320.3 210.9 320.3 210.9C320.3 210.9 320.1 212.5 320.6 212.6C321.2 212.6 320.9 215.3 320.9 215.3L320 214.7ZM313.1 197.2C313.4 197.7 314.1 198 314.1 198.4C314.1 198.9 313.8 199.2 314.5 199.3C315.1 199.4 315.5 199.2 315.8 199.7C316.006 200.317 316.006 200.983 315.8 201.6C315.8 202 316 202.6 316.5 202.6C317 202.6 317.1 202.8 317.1 203.1C317.1 203.4 317.8 201.9 317.8 201.9C317.2 201.5 316.8 200.5 316.8 200.5L316.3 198.8C316.3 198.5 315.6 198.3 315.3 198.2C314.9 198.2 314.3 197.2 314.3 197.2H313.1ZM314.1 196.2C313.839 195.828 313.497 195.52 313.1 195.3C312.7 195.1 312.4 194.9 311.9 194.9C311.785 194.895 311.673 194.861 311.573 194.802C311.474 194.743 311.391 194.66 311.332 194.561C311.272 194.462 311.239 194.35 311.233 194.234C311.227 194.119 311.25 194.004 311.3 193.9C311.5 193.4 311 193.1 311 192.7C311 192.3 311.3 192.3 311.8 192.7C312.4 192.9 312.3 193 312.7 193.6C313.1 194.1 313.3 194.6 313.7 194.6C314.2 194.4 314.5 195.6 314.9 195.2C315.3 194.9 315.2 196 315.2 196L314.2 196.3L314.1 196.2ZM301.7 208.5C302.3 209.1 298.5 208.9 298.5 208.5C298.5 208.1 298.9 206.5 299.8 206.8C300.8 207.2 300.8 204.9 300.8 204.9C300.8 204.9 300 205 300.8 204.6C301.5 204.2 300.8 203.6 300.4 203.2L299.8 202.3H301.3C301.9 201.9 302.1 199.8 302.1 199.8C303.4 200.3 304.1 199.4 304.1 199.4C304.1 199.4 304.3 200.1 304.7 200.6C305.1 201.1 303.7 201.4 304.2 201.6C304.7 202 304.9 203 304.7 203.3C304.5 203.6 303.3 203.3 303.3 203C303.3 202.5 302.9 203.5 303.3 204C303.7 204.6 302.8 205.4 302.6 205.4C302.4 205.4 301 205.6 302.1 206.2C303.3 206.9 304.6 206.5 304.6 206.5C304.6 206.5 305.6 206.5 305.9 207C306.2 207.5 305.8 207.6 305.2 207.6L302.2 207.4C302.2 207.4 301.4 208.2 301.7 208.4V208.5ZM294.9 209.5C295.4 209.3 296.7 209.2 296.9 209.5C297.1 209.9 296.2 210.3 296.2 210.3L294.9 210.5C294.5 210 294.4 209.5 294.9 209.5ZM308.6 200.4C309.5 199.9 311.3 199.9 311.2 199.3C311.1 198.6 312.2 198.4 312.2 198.4L312.6 199.7L313.6 200.4V201.6C313.6 201.6 314 201.4 312.8 201.6C311.6 202 312.4 202.6 312.4 202.6H309.8L309.5 201.6L308.6 200.4ZM304.5 194.5C305.1 194.5 304.3 197 306 196.8C307.7 196.6 306 197.6 307.4 197.7C308.6 197.7 308.4 196.7 308.7 195.9C309.2 195.2 309 194.8 308.2 194.5C307.5 194.3 307.5 194.3 307.2 193.5C307 192.6 306.2 192.4 306.2 192.4L305.9 191.1L304.5 192L303.1 193.8C303.1 195.2 303.8 194.5 304.5 194.5ZM307.3 203.7L307.6 203L308.2 203.3L307.9 204L307.3 203.7ZM306.2 202.7H306.8V203.4H306.2V202.7ZM306.7 188.3L306.8 189.3H306.2L306.1 188.3H306.7ZM304.9 198.3H305.6V198.9H304.9V198.3ZM303.2 198.3V197.7L304.2 197.6L304.3 198.2L303.2 198.3ZM294.5 208.7L293.9 208.4L294.2 207.7L294.8 207.9L294.5 208.7ZM291.1 206.7V206.1L292.1 206V206.6L291.1 206.7ZM270.3 206.7V207.3L272.7 207.2V206.5L270.3 206.7ZM268.8 207.5L268.6 206.5L269.2 206.4L269.4 207.4L268.8 207.5ZM268.3 208.1L268.1 207.5H268.4L268.6 208L268.3 208.1ZM273.6 206.3V207.1H274.6C274.6 207.1 275.2 207.6 275.2 207.9C275.2 208.2 276 208.6 276.4 208.6C276.8 208.6 278 207.7 278 207.7C278 207.7 278.5 206.2 278 206.3C277.7 206.4 276.8 207.1 276.7 206.4C276.7 205.8 275.3 206.1 275.3 206.1L273.6 206.3ZM278.9 205.1C278.9 205.5 278.7 205.9 279.4 206C280 206 281.2 205.6 281.3 206.2C281.3 206.9 281.3 207.2 282.3 207.6C282.932 207.869 283.613 208.005 284.3 208L286.3 207.8C286.3 207.8 287.8 208.1 288.1 208.4C289.3 209.6 290.1 209.9 290.3 209.4C290.7 208.8 290.3 207.6 290.1 207.2C290.1 206.8 288.5 204.7 288 205.2C287.5 205.6 287.4 205.2 286.4 205.5C285.4 205.8 283.4 205.5 283.4 205.1C283.2 204.7 281.7 204.5 281.7 204.1C281.7 203.6 280.7 203.1 280.7 203.7C280.9 204.4 280 204.7 279.7 204.5C279.6 204.3 278.9 205.1 278.9 205.1ZM303.4 191.3L304.2 188.9C303.1 188.7 303.3 187.5 303.3 187.5C303.3 186.5 301.7 185.5 301.2 185.8C300.7 186.1 300.9 183.5 300.9 183.5C300.9 183.5 301.9 182.9 302.3 183.2C302.7 183.5 298.6 177.8 297.8 178.3C296.9 178.9 295 177.8 295.1 176.8C295.2 175.8 291.3 172.6 291.3 172.6C291.3 172.6 290 171.8 289.8 172.4C289.6 173 289.2 173.4 289.8 173.8C290.4 174.1 290.3 173.3 291.1 174C291.8 174.8 293.2 175.7 292.7 176.4C292.1 177 291.5 177.3 291.5 177.3L292.3 178.1H293.4L293.6 180C293.6 180 294.9 180.6 295.2 181.4C295.6 182.1 295.6 182.6 295.2 183C294.9 183.4 294.2 184.2 294.4 185C294.4 185.7 295.4 186 295.4 186L296.2 186.1L296.8 186.4V187.8C297.7 187.6 299.1 188.8 299 189.6C298.9 190.3 299.2 189.9 300.2 190.6C301.2 191.4 301 191.6 301.7 192.1C302.5 192.6 303.1 192.3 303.4 191.3Z" fill="white"/>
<path d="M285.9 176.6C285.8 176.2 285.5 174.6 286.2 174.8C286.8 174.8 286.4 174.8 287.2 175.1C287.9 175.4 288 174.6 288 174.6H289.2L290.7 175.8L290.4 176.8H289.4C288.8 176 287.8 176.3 288 177.1C288.2 177.8 287.5 179.2 287 179.3C286.6 179.4 285.2 179.4 285.3 178.8L285.9 176.6ZM285 173.7V172.8C285 172.8 285 172 284.4 172C283.8 172 282.9 171.3 283.1 170.9C283.3 170.5 281.3 170 281.3 170C281.3 170 279.5 168.3 280.1 168.5C280.8 168.7 280.4 167.8 280.4 167.8C280.4 167.8 279.2 168 278.8 167.8C278.5 167.8 278.6 166.8 278.6 166.8C278.6 166.8 277.3 166.5 277.3 166.8C277.3 167.1 277.8 167.1 278 167.8C278.2 168.4 278 169.5 279 169.8C280 169.9 280.2 170.1 280.3 170.6C280.4 171 281.6 171.1 281.6 171.1L282.5 171.5L285 173.7ZM273.2 161.8L272.4 161.6V162.6H273.5L273.2 161.8ZM273.2 158.2C272.1 157.3 274.7 158.8 274.7 158.8C275.5 158.8 276.1 159.5 276.1 159.8C276.1 160.1 277.2 160 277.2 160L277.4 159.2L276.5 158.2L275.8 157.6C275.8 157.6 274.6 157.6 274.6 157.2C274.6 156.9 273.6 158.5 273.2 158.2ZM292.8 158.8C292.5 159.8 292.3 161.1 291.8 161.1C291.3 161.1 291.5 162.5 291.5 162.5H293.3C293.7 162.7 293.7 163.8 293.7 163.8C295.3 163.7 296 165.8 295.7 166.4C295.6 166.9 296.4 166.9 296.4 166.9C296.4 166.9 296.4 168.6 296.2 169.1C296 169.5 297.6 169.8 298 170.5C298.4 171.1 297.8 173.3 297.5 173.4C297.1 173.4 298.3 173.8 298.2 174.4C298.1 174.9 298.5 174.4 298.6 175.2L299 177.9L300.4 178C300.7 176.6 303.4 176.6 303.8 176.7C305.7 177.4 307 180.2 307 180.8C307 181.5 305.9 181.6 305.9 181.6L306.1 184.7C307.9 185.3 309.4 187.9 309.1 188.3C308.9 188.7 310.4 188.6 310.4 188.6C310.6 186.6 312.4 187.3 312.6 188C312.6 188.6 313 190 313 190L313.5 191L314.3 191.7H315.4L315.7 192.3L317.1 192.5C317.1 192.5 318.3 193.8 318.4 194.1C318.5 194.4 320.1 194.3 320.5 194.4C321 194.5 321.6 194.9 321.7 195.4C321.8 196 322.5 196.8 322.5 196.8C322.5 196.8 323.7 197.1 323.8 197.6L324.5 199L325.5 199.8L325.6 200.8L326.8 200.9L327.1 202.2H329.1L330.1 201.4C331.5 200.6 332.5 199.6 332.6 199.2C332.6 198.8 332.9 197.2 333.9 197.5C335 197.8 334.3 195.1 334.3 195.1C334.3 195.1 332.8 194.1 332.9 193.5C332.9 192.9 331.4 191.9 331.5 191.5C331.6 191 330.1 190.1 330.2 189.7C330.3 189.3 329.5 188.1 329.5 188.1L327.9 186.6L327.7 185.6L326.4 185.5L323.8 182.4L323.9 181.4H323.2V180.2L322.5 179.8L321.3 179.7L318.9 177.1L318.7 175.9H317.6L317.8 173.6C318.5 172.6 318.1 170.8 318.1 170.8C318.1 170.8 316.6 171.6 315.9 171.2C315.1 170.9 316.2 170.2 316.2 170.2V169.2L315.5 168.6C315.5 168.6 313.7 168.9 313.6 168.6L313.2 166.8L313.1 165L312.3 164.6V164H311.1V162.8L310.4 162.6L309.8 162.3L309.7 161L307.3 160.9L306.6 159.8L305.7 158.5L303.1 158.3L302.4 157.6L301.4 157.4L300.6 157.1L300.3 157.6L298.3 157.7L298.2 158.4C297.2 158.9 292.9 158.4 292.8 158.8ZM303.9 156C303.8 155.2 306.1 154.4 306.6 155C307.1 155.7 308.6 155.8 308.8 159C308.9 160.2 306.9 157.8 306.9 157.8L305.3 157.3C304.5 157.1 304 156.5 303.9 156ZM272.8 157.3L272.2 157.1L272.6 156.1L273.2 156.4L272.8 157.3ZM267.2 146.7L265.9 145.3V144.1L265.4 143.7L265 142.2L263.6 141.8L262.2 142.3L260.8 143.3L259.1 143.5L258.3 144.5L261.7 144.8L262.3 145.8L264.8 146.1L266.4 147.7C267.8 148.1 268.1 147.5 267.2 146.7ZM267 141.4C266.8 140.4 265.4 142.6 266.8 143C268.2 143.5 269.6 143 269.6 143L269.9 142.4L275.2 142.5L275.9 141.5C275.9 141.5 277.1 141 277.7 141.2C278.2 141.4 277.7 139.7 277.2 139.9C276.7 140.1 275.6 140 275.6 140H273.7C273.7 139.3 271.9 139.6 271.8 140C271.8 140.4 271.1 140.6 271.1 140.6L268.6 140.8C268.4 141.4 267.1 141.8 267 141.4ZM256.5 159.6C258.1 160.2 258.7 159.8 258.8 159.3C258.9 158.9 259 158.8 259.7 158.7C260.3 158.6 259.6 157.3 259 157.4C258.3 157.5 257.7 157.2 257.6 156.6C257.5 156.1 256.4 154.7 256.3 155.8C256.2 156.8 255.5 156.8 255.6 157.6C255.8 158.4 256.1 159.6 256.5 159.6ZM244.3 160.9C244.2 160.5 246.4 160.4 246.7 160.7C247 161.1 246.8 161.7 247.7 161.7C248.6 161.7 248.3 162.3 248.2 162.6C248.1 162.9 247 162.8 246.9 162.5C246.9 162.1 245.2 162 245.2 162C245.2 162 244.4 161.4 244.2 160.9H244.3ZM279.6 138.4L279.1 137.8L278.6 138.3L279.4 139.1L279.6 139.3L279.8 139.1L280.8 138.2L280.5 137.7L279.6 138.4ZM273.9 135.4L273.6 135.9L274.4 136.4L274.6 136.5H274.8L275.9 135.7L275.6 135.1L274.6 135.8L273.9 135.4ZM271 157.9H270L269.9 158.5H270.8L271.5 159.6L272 159.3L271.2 158.1V158L271 157.9ZM236 188.1V189.3H237.7C238.3 189.3 237.1 188.5 237.1 188.5C237.1 188.5 235.9 188.6 236 188.1ZM238 188.1L238.4 187.6L239 188.1L238.6 188.6L238 188.1ZM218.6 167.9L219.1 167.4L219.7 168.1L219.3 168.6L218.6 167.9ZM248.5 306.3L248.2 306.9L248.8 307.3L248.6 307.5L249.1 307.9L249.6 307.4L249.9 307.1L249.5 306.9L248.5 306.3ZM240.9 298.6L240.2 299.1L239.9 299.4L240.3 299.7L241 300.2L241.4 299.7L241 299.4L241.3 299.1L240.9 298.6ZM320.4 278.6C320.3 278.1 319.6 277.8 319.6 277.8L319.4 278.4L319.6 278.5V279.3L320 279.7C320.3 279.3 320.5 279 320.4 278.7V278.6ZM320.4 276.5V275.5L321.4 275.7V276.6L320.4 276.5ZM346 268.2C346.5 267.9 347 267.3 347 268.5C347 269.8 346.4 269.4 346 269.8C345.6 270.2 345.4 268.6 346 268.1V268.2ZM351.4 263.6V263.4C351.401 263.196 351.367 262.993 351.3 262.8L350.7 263V263.5C350.8 263.7 350.8 263.9 351 264L351.4 264.1V263.5V263.6ZM350 264.1L350.4 265.4L351 265.2C350.844 264.774 350.71 264.34 350.6 263.9L350 264.1ZM347.7 266.6H347.1C347.1 267.1 347.1 267.7 347.6 267.8L347.8 267.2L347.7 266.7V266.6ZM344.9 253.8C344.897 253.698 344.867 253.599 344.815 253.511C344.762 253.424 344.688 253.351 344.6 253.3C344.1 253.1 343.3 253.4 342.9 253.7L343.2 254.2C343.7 254 344.2 253.8 344.3 253.9L344.9 253.8ZM315.4 219.3C315 219.7 314.1 219.9 314.1 219.9L313.7 221.1L313.2 221.5V222.6C313.1 223.4 312.2 223.8 312.2 223.8L311.7 224.3C311.7 224.3 309.2 224.5 308.8 224.3C307.8 223.9 308.5 222.6 309.2 222.7C309.8 222.8 309.1 220.9 309.1 220.9L309.9 220.8C309.9 220.8 310 218.8 310.3 218.8C310.6 218.8 310.3 218.2 309.8 217.8C309.4 217.5 308.8 216.5 308.4 216.6H306.3L306 217.2L304.8 217.4C304.8 217.4 304.9 218.3 304.7 218.5C304.1 219.3 301.6 220.9 302.7 218.2L303 217.6V216.6L301 216.5C301 216.5 300.1 216.1 300.1 215.7V214.7L297.8 212.3L295.1 211.9L294.9 211.4L293.3 211.2C291.3 210.2 289.7 211.1 290 212.7C290.3 214.3 290.9 215 289.8 215C288.8 215 288.5 214 288.5 214C288.5 214 287.7 213.8 287.7 214.2C287.7 214.6 287.4 215.5 287.7 215.9C288 216.4 287.3 217 286.9 216.7C286.6 216.4 285.8 215.4 285.9 215.1C286.2 214.7 284.5 212.7 286.2 212.4C287.9 212 286.1 211.1 286.7 210.9L287.6 210.4H288.4L289 210L287.6 209.8L286.7 209.7L285.1 209.6C284.224 210.128 283.553 210.94 283.2 211.9C282.4 213.6 280.3 211.3 281.1 210.4C281.8 209.6 278.7 210.4 278.2 210.8C277.7 211.2 276.1 211 276.1 211C275.8 212 274.3 210.9 274.7 210.2C275.1 209.6 275.1 209.2 275.1 209.2L274.6 209L274 210.2C272.5 210.2 272 211.1 272.4 211.6C272.7 212.2 271.9 211.6 271.7 212.3C271.5 213 271.8 213 272.5 213.3C273.1 213.7 272.1 213.7 272.5 214.2C273 214.7 274.3 214.2 273.5 215C272.8 215.7 271.3 215.4 271.3 215.4C271.2 216.4 269.2 216.1 269 215.8C268.38 215.055 267.747 214.322 267.1 213.6L265.1 213.5C264.9 211.9 266.1 212.7 266.5 211.5C266.9 210.3 267.1 208.4 267.1 208.4C267.1 208.4 265.4 208.3 265.3 208.8C265.3 209.3 264.2 209.7 264.2 209.7C264.2 209.7 263.3 210 263.6 210.4C264 210.9 263 211.1 263 211.1C263 211.1 263.2 211.8 262.9 212.1C262 212.9 259.9 212.1 259.6 211.8L258.3 211.3L257 210.4L255.5 211.1L255.1 211.5H253.5V212.8L256.3 213.1L256.5 215.8L255.3 215.4H254.6L254.3 214.7H253.6V217L254.3 217.5L254.8 218.1H255.8L256.1 219.5H258.7L259.1 220.1L260.7 220.2L263.7 223.4L263.5 224.4L263 224.7C263.2 225.4 261.6 225 261.6 225V225.6L262.4 225.7L263.1 226.2L264.1 224.3C265.3 223.6 265.9 224.7 266 225.3C266 226 265.4 225.9 265.4 225.9V227.4L266.1 227.6C267.1 228.9 265.7 229.6 265.7 229.6L265.3 230.7C265 231.7 263.8 231.5 263.8 231.5L263.4 232.1L262.1 232.4L264.7 232.8C264.9 231.9 265.5 231.7 265.9 232.1C266.2 232.5 266.2 233.3 266.2 233.3L266.8 233.4V234.6L267.4 234.8V238.3L268.1 239.1C269.4 238.6 269.4 239.5 268.7 239.9C268 240.3 268.5 242.3 268.5 242.3L268 242.8V243.7L267.4 244.1V245.3C266.3 244.7 265 245 264.7 245.3C263.7 244.6 261.7 244.9 261.7 245.4C262.4 246.3 261 246.4 261 246.4L260.2 247.4C260.8 248.4 259.7 248.5 259.7 248.5V250.5L258.4 251.8L258.5 254.6C258.5 255.3 260.1 255.4 260.5 255C260.8 254.6 262 255.9 262 255.9H263L263.2 253.9L262.6 253.6V250.5L263.6 249.3C264.9 248.8 264.5 252.1 264.5 252.4C264.5 253.6 265.1 253.5 265.7 253.3C266.7 252.8 265.9 254.5 265 254.3C264.2 254.3 264.7 255.4 264.7 255.4L265.2 255.7L264.2 256.4L263.4 257.4L262.4 257.1L261.1 257L260.7 256.2L259.9 256.1L259.8 257.6L259.3 258.3L258 259.6C259.7 259.6 257.8 260.7 257.4 260.7C258.4 261.1 257.3 262 254.8 261.3V262L253.9 262.1L254.7 263L255.5 263.1L255.2 264.9C255.2 266.3 251.7 265.4 251.4 265L251.3 267H250.7V270.2L251.8 270V270.8H254.7L258.8 266.5L261.3 265.9C261.5 264.9 262.6 266.1 262.6 266.1C263.6 266.1 263.8 266.8 263.8 266.8L265.2 267C266.4 267.3 265.7 267.4 265.8 267.9C265.8 268.5 266.4 268.3 266.4 268.3L266.6 266.9H267.3L266.6 266.2L265.4 265.7L264.2 265.2C263.3 264 264.4 264.2 265.2 264.2H266.6C266.6 264.2 268.2 266.5 268.2 267C268.2 267.5 269 267.6 269 267.6H269.9L270.2 268.3H271.2L271.5 268.9H273.5V267.9L271.7 267.6V266.6L270.3 266.2C269.9 264.4 270.7 263.9 271.2 264.7L271.8 264.8L271.6 263.2L272.4 263L272.1 260.7L271.5 260.5V259.8H274.2C274 258.5 274.2 257.8 274.2 257.8H275L275.1 258.4L278.4 258.7L280.7 256C280.6 255.8 280.9 255.7 280.7 255.4C280.3 255.1 279.9 255.4 279.4 255.1C278.8 254.8 279.4 253 279.3 252.5C279.2 252.1 281.1 251.5 280.8 252.5C280.4 253.4 280.8 253.8 280.8 253.8C282.1 252.5 283.3 253.9 283.2 254.3C283.1 254.6 283.9 254.9 284.5 254.6C285 254.3 285.7 255.6 285.5 256.2C285.2 256.8 283.3 256.7 283.2 256.1C283.1 255.4 282.8 255.7 282.6 256C282.4 256.3 281.4 256.5 280.9 256.2C280.815 256.154 280.746 256.085 280.7 256L278.4 258.7H278.5C279.8 259.4 279.2 260.4 278.7 260.7L277.6 260.8L277.4 261.3L274.6 261.5L274.4 262.5C273 262.4 272.4 263.9 272.8 264.6C273.1 265.4 272.8 266 272.8 266L273.9 266.6L275.4 266.1C275.6 265.1 276.6 264.8 277.4 264.1C278.3 263.5 279.7 265.4 279.3 266.2C278.8 267.1 278.8 267.4 278.8 267.4L278.9 268.4L277.9 268.8L277 269.3V269.8H274L273.5 270.3L272.1 270.4L271.7 271.1L270.7 271.2C270.7 271.2 269.2 272 269.8 272.8C270.4 273.7 267.1 273.6 266.4 272.4C266.2 273.4 265 272.4 265 272.4L263.8 272.2V270.6C263.5 269.5 261.5 269.5 261.6 270.2C261.7 271 257.8 270.6 257.8 270.6L256.5 271.2L255.3 271.9V272.4L253.3 272.6L252.5 273L252.1 272.4H251.3L250.4 273.6C248.2 273.6 246.1 275 246.3 275.6C246.5 276.1 245.4 276.6 245.4 276.6L244.4 276.9L243.8 277.9L242.6 278.3L242.4 280.6L241.7 281V282L241 282.2V282.8H239.9L240.5 284.5L241.4 284.9C242.9 285.1 242.2 286.9 242.2 286.9L243.1 287.1L243.5 288.3L244.4 290C244.7 291.3 245.7 291 246.1 290.9C246.5 290.8 246.9 292.2 246.9 292.2H251.2C251.2 292.2 251 292.7 251.7 292.9C252.5 293.1 257.4 293.3 257.6 293C257.4 292 260.2 291.8 261.4 292.7C262.6 293.6 264.2 293 264.2 293L265.8 295L266.8 297.3L268.6 297.9L269.9 298.2L270.3 300L271.3 300.1L271.6 301.3C272.8 302.2 271.3 304 271.3 304V306.4L272.1 306.8V307.7L273.4 309.1L275 309.2L279 313.5L282.3 314.5L282.8 316.2H283.6L284.3 315.6L286.8 315.5L288.1 314.3L289.5 314.1L301.3 304.1L300.3 303.4V301C302.1 299.6 302.3 297.1 300.4 297C299.1 296.7 299.7 295.3 301 295L301.7 294.8V293.8L304.2 291.5V289.8L298.9 285.4C296.5 284.4 298.9 279.3 300.4 279.4C302 279.5 300.4 271.4 300.4 271.4L299.4 271L299.7 268.4H298.5L296.6 270.9L296.1 272.6C295.9 274.9 289.3 274.4 289 274.1L286.4 272.8C286.4 272.8 284.7 271.4 284.4 271.8C284.1 272.3 282.6 271.3 282.6 271.6C282.6 272 281.2 270.9 281.2 270.9L279.1 270.1L280.7 269.8L280.3 268.5L283.1 269.9C283.4 270.3 284.8 270.2 284.8 270.2L285.2 270.8C285.2 270.8 286.1 270.7 286.6 271.3C287.1 272 289.9 271.4 289.9 271.4L290.7 272.1L291.8 272.5L295.1 272.6L295.2 270.6L295.9 269.9L295.8 268.6L296.5 268V266.9L297.1 266.7L297.2 264.3L297.8 264.2V259L296.2 257.5C296.1 258 294.4 258 294.4 258C294.4 258 294 258.8 293.6 258.8C293.2 258.8 294.1 259.8 293.8 260.4C293.6 261.1 292.8 261.1 292.8 261.1L291.2 261.5L290.8 262H289.1L288.8 260.6L290.8 260.1L291.8 259.5L292.4 258.5C292.4 257.4 293.7 257.5 293.7 257.5C293.7 257.5 296.2 255.5 296.3 254.5C296.3 253.5 297.3 250.8 298.7 250.8H301.5C302.5 250.4 302.2 249 302.2 249L303.6 248.7L303.8 249.5C303.8 249.5 305.8 249.7 306 249.4C306.2 249.1 306.6 248.4 307.1 248.6C307.7 249 309.4 247.9 309.4 247.9C309.4 247.1 312.1 247.4 312.1 247.4L312.5 246.4C312.5 246.4 310.6 244 310.3 244C310 244 308.3 242.5 308.1 243C306.4 242.6 306.5 240.2 306.5 240.2L305.9 238.7C305.9 237.8 304.3 236 303.9 236.2C302.3 235 303.5 233.6 303.9 233.5C304.4 233.5 305.4 231.9 305.4 231.9L306 230.4L307.8 229.9L308 228.5L307 228.3C307 228.3 308 226.3 308.6 226.3L313 226.2C313.3 226 314 224.2 314 223.9C314 223.6 314.8 223.5 315.1 223.4C315.4 223.3 316.1 222.4 316.4 222C316.6 221.5 315.9 218.8 315.4 219.3Z" fill="white"/>
<path d="M256.5 258.2C256.7 258 256.8 258.7 257.1 258.6C257.5 258.6 257.6 259.2 257.3 259.2C257 259.2 257 259.6 257 259.7C257 259.9 257 260.3 256.7 260.5C256.5 260.8 256.3 260.6 255.9 260.5C255.6 260.3 255.5 260.3 255.1 260.3C254.7 260.3 255 260.9 255 260.9C255 260.9 253.3 260.9 253.6 260.6C254 260.4 254.3 260.3 254 260.1C253.8 260 254 259.8 254 259.5C254 259.2 254.8 259.3 254.6 259.1C254.4 258.8 254.6 257.9 255 258.4L255.2 257.9C255 257.6 255.2 257.6 254.7 257.4C254.2 257.2 254.6 256.3 254.6 256.3V255.6C254.8 254.8 256.4 254.7 256.5 255.4V256.7L257 256.8C257 256.8 256.9 257.3 256.5 257.3C256.1 257.3 256.5 257.6 256.3 257.8L256.5 258.2ZM251.2 259C251.5 258.5 252 256.4 252.7 257C253.3 257.7 253.7 257 253.7 257C253.7 257 254 257.4 253.9 258C253.7 258.7 253.5 259.3 253.1 259.4C252.7 259.4 252.4 259.7 251.9 259.8C251.5 259.9 251.2 259 251.2 259Z" fill="white"/>
</g>
<defs>
<clipPath id="clip0_103_97">
<rect width="512" height="512" fill="white" transform="translate(0.5)"/>
</clipPath>
</defs>
</svg>
