<svg width="513" height="512" viewBox="0 0 513 512" fill="none" xmlns="http://www.w3.org/2000/svg">
<g clip-path="url(#clip0_103_121)">
<path d="M0.5 0H512.5V512H0.5V0Z" fill="white"/>
<path d="M284.5 56.8999H512.5V113.8H284.5V56.8999ZM284.5 170.7H512.5V227.6H284.5V170.7ZM0.5 284.4H512.5V341.4H0.5V284.4ZM0.5 398.2H512.5V455.2H0.5V398.2Z" fill="#0038A8"/>
<path d="M136.442 170.047L145.829 184.127C107.031 212.287 130.497 228.557 103.276 237.318C120.172 221.048 100.46 219.484 114.853 184.753" fill="#FCD116"/>
<path d="M136.442 170.047L145.829 184.127C107.031 212.287 130.497 228.557 103.276 237.318C120.172 221.048 100.46 219.484 114.853 184.753" stroke="black" stroke-width="1.87733" stroke-miterlimit="20" stroke-linecap="square"/>
<path d="M129.559 174.115C108.282 209.158 122.049 228.557 103.276 237.631" stroke="black" stroke-width="1.87733" stroke-miterlimit="20"/>
<path d="M142.7 142.2H161.473L142.7 245.453L123.927 142.2H142.7V245.453V142.2Z" fill="#FCD116"/>
<path d="M142.7 142.2H161.473L142.7 245.453M142.7 142.2H123.927L142.7 245.453M142.7 142.2V245.453" stroke="black" stroke-width="1.87733" stroke-miterlimit="20"/>
<path d="M118.584 157.466L115.265 174.059C67.9188 166.537 73.0075 194.635 47.5642 181.582C71.0163 182.024 58.184 166.98 92.9196 152.599" fill="#FCD116"/>
<path d="M118.584 157.466L115.265 174.059C67.9188 166.537 73.0075 194.635 47.5642 181.582C71.0163 182.024 58.184 166.98 92.9196 152.599" stroke="black" stroke-width="1.87733" stroke-miterlimit="20" stroke-linecap="square"/>
<path d="M110.841 155.475C71.0163 165.21 67.0338 188.662 47.3429 181.803" stroke="black" stroke-width="1.87733" stroke-miterlimit="20"/>
<path d="M142.7 142.2L155.975 155.475L69.6889 215.211L129.425 128.925L142.7 142.2L69.6889 215.211L142.7 142.2Z" fill="#FCD116"/>
<path d="M142.7 142.2L155.975 155.475L69.6889 215.211M142.7 142.2L129.425 128.925L69.6889 215.211M142.7 142.2L69.6889 215.211" stroke="black" stroke-width="1.87733" stroke-miterlimit="20"/>
<path d="M114.853 135.942L100.773 145.329C72.6128 106.531 56.3425 129.997 47.5816 102.776C63.8519 119.672 65.4163 99.9599 100.147 114.353" fill="#FCD116"/>
<path d="M114.853 135.942L100.773 145.329C72.6128 106.531 56.3425 129.997 47.5816 102.776C63.8519 119.672 65.4163 99.9599 100.147 114.353" stroke="black" stroke-width="1.87733" stroke-miterlimit="20" stroke-linecap="square"/>
<path d="M110.785 129.059C75.7416 107.782 56.3425 121.549 47.2687 102.776" stroke="black" stroke-width="1.87733" stroke-miterlimit="20"/>
<path d="M142.7 142.2V160.973L39.4466 142.2L142.7 123.427V142.2H39.4466H142.7Z" fill="#FCD116"/>
<path d="M142.7 142.2V160.973L39.4466 142.2M142.7 142.2V123.427L39.4466 142.2M142.7 142.2H39.4466" stroke="black" stroke-width="1.87733" stroke-miterlimit="20"/>
<path d="M127.434 118.084L110.84 114.765C118.363 67.4188 90.2646 72.5075 103.318 47.0642C102.876 70.5163 117.92 57.684 132.301 92.4196" fill="#FCD116"/>
<path d="M127.434 118.084L110.84 114.765C118.363 67.4188 90.2646 72.5075 103.318 47.0642C102.876 70.5163 117.92 57.684 132.301 92.4196" stroke="black" stroke-width="1.87733" stroke-miterlimit="20" stroke-linecap="square"/>
<path d="M129.425 110.341C119.69 70.5163 96.2382 66.5338 103.097 46.8429" stroke="black" stroke-width="1.87733" stroke-miterlimit="20"/>
<path d="M142.7 142.2L129.425 155.475L69.6887 69.1889L155.975 128.925L142.7 142.2L69.6887 69.1889L142.7 142.2Z" fill="#FCD116"/>
<path d="M142.7 142.2L129.425 155.475L69.6887 69.1889M142.7 142.2L155.975 128.925L69.6887 69.1889M142.7 142.2L69.6887 69.1889" stroke="black" stroke-width="1.87733" stroke-miterlimit="20"/>
<path d="M148.958 114.353L139.571 100.273C178.369 72.1128 154.903 55.8425 182.124 47.0816C165.228 63.3519 184.94 64.9163 170.547 99.647" fill="#FCD116"/>
<path d="M148.958 114.353L139.571 100.273C178.369 72.1128 154.903 55.8425 182.124 47.0816C165.228 63.3519 184.94 64.9163 170.547 99.647" stroke="black" stroke-width="1.87733" stroke-miterlimit="20" stroke-linecap="square"/>
<path d="M155.841 110.285C177.118 75.2416 163.351 55.8425 182.124 46.7687" stroke="black" stroke-width="1.87733" stroke-miterlimit="20"/>
<path d="M142.7 142.2H123.927L142.7 38.9466L161.473 142.2H142.7V38.9466V142.2Z" fill="#FCD116"/>
<path d="M142.7 142.2H123.927L142.7 38.9466M142.7 142.2H161.473L142.7 38.9466M142.7 142.2V38.9466" stroke="black" stroke-width="1.87733" stroke-miterlimit="20"/>
<path d="M166.816 126.934L170.134 110.34C217.481 117.863 212.392 89.7646 237.836 102.818C214.384 102.376 227.216 117.42 192.48 131.801" fill="#FCD116"/>
<path d="M166.816 126.934L170.134 110.34C217.481 117.863 212.392 89.7646 237.836 102.818C214.384 102.376 227.216 117.42 192.48 131.801" stroke="black" stroke-width="1.87733" stroke-miterlimit="20" stroke-linecap="square"/>
<path d="M174.559 128.925C214.384 119.19 218.366 95.7382 238.057 102.597" stroke="black" stroke-width="1.87733" stroke-miterlimit="20"/>
<path d="M142.7 142.2L129.425 128.925L215.711 69.1887L155.975 155.475L142.7 142.2L215.711 69.1887L142.7 142.2Z" fill="#FCD116"/>
<path d="M142.7 142.2L129.425 128.925L215.711 69.1887M142.7 142.2L155.975 155.475L215.711 69.1887M142.7 142.2L215.711 69.1887" stroke="black" stroke-width="1.87733" stroke-miterlimit="20"/>
<path d="M170.547 148.458L184.627 139.071C212.787 177.869 229.057 154.403 237.818 181.624C221.548 164.728 219.984 184.44 185.253 170.047" fill="#FCD116"/>
<path d="M170.547 148.458L184.627 139.071C212.787 177.869 229.057 154.403 237.818 181.624C221.548 164.728 219.984 184.44 185.253 170.047" stroke="black" stroke-width="1.87733" stroke-miterlimit="20" stroke-linecap="square"/>
<path d="M174.615 155.341C209.658 176.618 229.057 162.851 238.131 181.624" stroke="black" stroke-width="1.87733" stroke-miterlimit="20"/>
<path d="M142.7 142.2V123.427L245.953 142.2L142.7 160.973V142.2H245.953H142.7Z" fill="#FCD116"/>
<path d="M142.7 142.2V123.427L245.953 142.2M142.7 142.2V160.973L245.953 142.2M142.7 142.2H245.953" stroke="black" stroke-width="1.87733" stroke-miterlimit="20"/>
<path d="M157.966 166.316L174.559 169.634C167.037 216.981 195.135 211.892 182.082 237.336C182.524 213.884 167.48 226.716 153.099 191.98" fill="#FCD116"/>
<path d="M157.966 166.316L174.559 169.634C167.037 216.981 195.135 211.892 182.082 237.336C182.524 213.884 167.48 226.716 153.099 191.98" stroke="black" stroke-width="1.87733" stroke-miterlimit="20" stroke-linecap="square"/>
<path d="M155.975 174.059C165.71 213.884 189.162 217.866 182.303 237.557" stroke="black" stroke-width="1.87733" stroke-miterlimit="20"/>
<path d="M142.7 142.2L155.975 128.925L215.711 215.211L129.425 155.475L142.7 142.2L215.711 215.211L142.7 142.2Z" fill="#FCD116"/>
<path d="M142.7 142.2L155.975 128.925L215.711 215.211M142.7 142.2L129.425 155.475L215.711 215.211M142.7 142.2L215.711 215.211" stroke="black" stroke-width="1.87733" stroke-miterlimit="20"/>
<path d="M142.7 176.618C161.708 176.618 177.118 161.208 177.118 142.2C177.118 123.192 161.708 107.782 142.7 107.782C123.692 107.782 108.282 123.192 108.282 142.2C108.282 161.208 123.692 176.618 142.7 176.618Z" fill="#FCD116" stroke="black" stroke-width="1.87733" stroke-miterlimit="20"/>
<path d="M168.044 128.433C165.854 130.936 164.602 126.556 156.78 126.556C148.958 126.556 147.706 131.249 146.455 130.31C145.203 129.372 153.025 123.74 155.529 123.427C158.032 123.114 165.228 125.617 168.044 128.433ZM158.97 131.249C161.161 133.126 159.283 137.194 157.093 137.194C154.903 137.194 150.835 133.439 152.712 130.936" fill="black"/>
<path d="M148.645 134.065C148.958 130.31 152.087 129.685 157.093 129.685C162.099 129.685 164.289 133.439 166.167 134.378C163.976 134.378 162.099 131.249 157.093 131.249C152.087 131.249 152.087 131.249 148.645 134.378M149.583 135.004C150.835 133.126 152.399 136.881 155.841 136.881C159.283 136.881 161.16 135.942 163.351 134.378C165.541 132.813 160.222 138.133 156.78 138.133C153.338 138.133 148.645 136.255 149.583 135.004Z" fill="black"/>
<path d="M160.222 136.881C164.289 134.691 161.786 131.562 160.222 130.936C160.848 131.562 163.351 134.691 160.222 136.881ZM142.7 155.654C144.577 155.654 145.203 155.029 147.706 155.029C150.209 155.029 156.154 158.47 159.596 157.219C152.4 160.035 155.216 158.157 142.7 158.157H141.135M160.848 160.035C159.596 157.845 159.909 158.47 157.406 155.029C159.909 156.906 160.535 157.845 160.848 160.035ZM142.7 163.164C150.522 163.164 149.271 161.599 159.596 157.219C152.087 158.157 150.522 160.661 142.7 160.661H141.135M142.7 151.587C144.89 151.587 145.516 150.022 148.019 150.022C150.522 150.022 153.964 150.961 155.528 152.213C155.841 152.525 154.59 149.709 152.087 149.397C149.584 149.084 150.522 145.016 147.706 144.39C147.706 145.642 148.645 145.329 148.958 147.206C148.958 148.771 146.142 148.771 145.516 147.206C146.142 149.709 144.264 149.709 142.7 149.709" fill="black"/>
<path d="M117.356 128.433C119.546 130.936 120.798 126.556 128.62 126.556C136.442 126.556 137.694 131.249 138.945 130.31C140.197 129.372 132.375 123.74 129.871 123.427C127.368 123.114 120.172 125.617 117.356 128.433ZM126.43 131.249C124.239 133.126 126.117 137.194 128.307 137.194C130.497 137.194 134.565 133.439 132.687 130.936" fill="black"/>
<path d="M136.755 134.065C136.442 130.31 133.313 129.685 128.307 129.685C123.301 129.685 121.111 133.439 119.233 134.378C121.424 134.378 123.301 131.249 128.307 131.249C133.313 131.249 133.313 131.249 136.755 134.378M135.816 135.004C134.565 133.126 133 136.881 129.559 136.881C126.117 136.881 124.24 135.942 122.049 134.378C119.859 132.813 125.178 138.133 128.62 138.133C132.062 138.133 136.755 136.255 135.816 135.004Z" fill="black"/>
<path d="M125.178 136.881C121.111 134.691 123.614 131.562 125.178 130.936C124.552 131.562 122.049 134.691 125.178 136.881ZM142.7 155.654C140.823 155.654 140.197 155.029 137.694 155.029C135.191 155.029 129.246 158.47 125.804 157.219C133 160.035 130.184 158.157 142.7 158.157H144.264M124.552 160.035C125.804 157.845 125.491 158.47 127.994 155.029C125.491 156.906 124.865 157.845 124.552 160.035ZM142.7 163.164C134.878 163.164 136.129 161.599 125.804 157.219C133.313 158.157 134.878 160.661 142.7 160.661H144.264M142.7 151.587C140.51 151.587 139.884 150.022 137.381 150.022C134.878 150.022 131.436 150.961 129.871 152.213C129.559 152.525 130.81 149.709 133.313 149.397C135.816 149.084 134.878 145.016 137.694 144.39C137.694 145.642 136.755 145.329 136.442 147.206C136.442 148.771 139.258 148.771 139.884 147.206C139.258 149.709 141.136 149.709 142.7 149.709" fill="black"/>
<path d="M142.7 165.98C141.136 165.98 137.068 166.918 142.7 166.918C148.332 166.918 144.265 165.98 142.7 165.98Z" fill="black"/>
</g>
<defs>
<clipPath id="clip0_103_121">
<rect width="512" height="512" fill="white" transform="translate(0.5)"/>
</clipPath>
</defs>
</svg>
