<svg width="513" height="512" viewBox="0 0 513 512" fill="none" xmlns="http://www.w3.org/2000/svg">
<g clip-path="url(#clip0_103_174)">
<path d="M0.5 341.3H512.5V512H0.5V341.3Z" fill="#1EB53A"/>
<path d="M0.5 0H512.5V170.7H0.5V0Z" fill="#0099B5"/>
<path d="M0.5 163.8H512.5V348.2H0.5V163.8Z" fill="#CE1126"/>
<path d="M0.5 174H512.5V338H0.5V174Z" fill="white"/>
<path d="M143.9 143.3C177.81 143.3 205.3 115.81 205.3 81.9C205.3 47.9897 177.81 20.5 143.9 20.5C109.99 20.5 82.5 47.9897 82.5 81.9C82.5 115.81 109.99 143.3 143.9 143.3Z" fill="white"/>
<path d="M164.3 143.3C198.21 143.3 225.7 115.81 225.7 81.9C225.7 47.9897 198.21 20.5 164.3 20.5C130.39 20.5 102.9 47.9897 102.9 81.9C102.9 115.81 130.39 143.3 164.3 143.3Z" fill="#0099B5"/>
<path d="M279 118.712L275.109 130.386L281.048 132.434" fill="white"/>
<path d="M279 118.712L282.891 130.386L276.952 132.434" fill="white"/>
<path d="M290.686 127.203L278.382 127.109L278.269 133.391" fill="white"/>
<path d="M290.686 127.203L280.786 134.511L277.003 129.495" fill="white"/>
<path d="M267.313 127.203L277.213 134.511L280.996 129.495" fill="white"/>
<path d="M267.313 127.203L279.618 127.109L279.73 133.391" fill="white"/>
<path d="M286.223 140.941L282.509 129.21L276.5 131.044" fill="white"/>
<path d="M286.223 140.941L276.213 133.784L279.814 128.636" fill="white"/>
<path d="M271.777 140.941L281.787 133.784L278.186 128.636" fill="white"/>
<path d="M271.777 140.941L275.491 129.21L281.499 131.044" fill="white"/>
<path d="M279 69.5601L275.109 81.2337L281.048 83.2817" fill="white"/>
<path d="M279 69.5601L282.891 81.2337L276.952 83.2817" fill="white"/>
<path d="M290.686 78.0508L278.382 77.9574L278.269 84.2388" fill="white"/>
<path d="M290.686 78.051L280.786 85.359L277.003 80.3434" fill="white"/>
<path d="M267.313 78.051L277.213 85.359L280.996 80.3434" fill="white"/>
<path d="M267.313 78.0508L279.618 77.9574L279.73 84.2388" fill="white"/>
<path d="M286.223 91.7891L282.509 80.0578L276.5 81.8919" fill="white"/>
<path d="M286.223 91.7892L276.213 84.6323L279.814 79.4844" fill="white"/>
<path d="M271.777 91.7892L281.787 84.6323L278.186 79.4844" fill="white"/>
<path d="M271.777 91.7891L275.491 80.0578L281.499 81.8919" fill="white"/>
<path d="M279 20.408L275.109 32.0816L281.048 34.1296" fill="white"/>
<path d="M279 20.408L282.891 32.0816L276.952 34.1296" fill="white"/>
<path d="M290.686 28.8987L278.382 28.8053L278.269 35.0867" fill="white"/>
<path d="M290.686 28.8989L280.786 36.207L277.003 31.1913" fill="white"/>
<path d="M267.313 28.8989L277.213 36.207L280.996 31.1913" fill="white"/>
<path d="M267.313 28.8987L279.618 28.8053L279.73 35.0867" fill="white"/>
<path d="M286.223 42.637L282.509 30.9057L276.5 32.7398" fill="white"/>
<path d="M286.223 42.6371L276.213 35.4802L279.814 30.3323" fill="white"/>
<path d="M271.777 42.6371L281.787 35.4802L278.186 30.3323" fill="white"/>
<path d="M271.777 42.637L275.491 30.9057L281.499 32.7398" fill="white"/>
<path d="M328.152 118.712L324.261 130.386L330.2 132.434" fill="white"/>
<path d="M328.152 118.712L332.043 130.386L326.104 132.434" fill="white"/>
<path d="M339.838 127.203L327.534 127.109L327.421 133.391" fill="white"/>
<path d="M339.838 127.203L329.939 134.511L326.155 129.495" fill="white"/>
<path d="M316.465 127.203L326.365 134.511L330.148 129.495" fill="white"/>
<path d="M316.465 127.203L328.77 127.109L328.882 133.391" fill="white"/>
<path d="M335.375 140.941L331.661 129.21L325.652 131.044" fill="white"/>
<path d="M335.375 140.941L325.365 133.784L328.966 128.636" fill="white"/>
<path d="M320.929 140.941L330.939 133.784L327.338 128.636" fill="white"/>
<path d="M320.929 140.941L324.643 129.21L330.652 131.044" fill="white"/>
<path d="M328.152 69.5601L324.261 81.2337L330.2 83.2817" fill="white"/>
<path d="M328.152 69.5601L332.043 81.2337L326.104 83.2817" fill="white"/>
<path d="M339.838 78.0508L327.534 77.9574L327.421 84.2388" fill="white"/>
<path d="M339.838 78.051L329.939 85.359L326.155 80.3434" fill="white"/>
<path d="M316.465 78.051L326.365 85.359L330.148 80.3434" fill="white"/>
<path d="M316.465 78.0508L328.77 77.9574L328.882 84.2388" fill="white"/>
<path d="M335.375 91.7891L331.661 80.0578L325.652 81.8919" fill="white"/>
<path d="M335.375 91.7892L325.365 84.6323L328.966 79.4844" fill="white"/>
<path d="M320.929 91.7892L330.939 84.6323L327.338 79.4844" fill="white"/>
<path d="M320.929 91.7891L324.643 80.0578L330.652 81.8919" fill="white"/>
<path d="M328.152 20.408L324.261 32.0816L330.2 34.1296" fill="white"/>
<path d="M328.152 20.408L332.043 32.0816L326.104 34.1296" fill="white"/>
<path d="M339.838 28.8987L327.534 28.8053L327.421 35.0867" fill="white"/>
<path d="M339.838 28.8989L329.939 36.207L326.155 31.1913" fill="white"/>
<path d="M316.465 28.8989L326.365 36.207L330.148 31.1913" fill="white"/>
<path d="M316.465 28.8987L328.77 28.8053L328.882 35.0867" fill="white"/>
<path d="M335.375 42.637L331.661 30.9057L325.652 32.7398" fill="white"/>
<path d="M335.375 42.6371L325.365 35.4802L328.966 30.3323" fill="white"/>
<path d="M320.929 42.6371L330.939 35.4802L327.338 30.3323" fill="white"/>
<path d="M320.929 42.637L324.643 30.9057L330.652 32.7398" fill="white"/>
<path d="M377.304 118.712L373.413 130.386L379.352 132.434" fill="white"/>
<path d="M377.304 118.712L381.195 130.386L375.256 132.434" fill="white"/>
<path d="M388.99 127.203L376.686 127.109L376.573 133.391" fill="white"/>
<path d="M388.99 127.203L379.09 134.511L375.307 129.495" fill="white"/>
<path d="M365.617 127.203L375.517 134.511L379.3 129.495" fill="white"/>
<path d="M365.617 127.203L377.922 127.109L378.034 133.391" fill="white"/>
<path d="M384.527 140.941L380.813 129.21L374.804 131.044" fill="white"/>
<path d="M384.526 140.941L374.517 133.784L378.118 128.636" fill="white"/>
<path d="M370.081 140.941L380.091 133.784L376.49 128.636" fill="white"/>
<path d="M370.081 140.941L373.795 129.21L379.803 131.044" fill="white"/>
<path d="M377.304 69.5601L373.413 81.2337L379.352 83.2817" fill="white"/>
<path d="M377.304 69.5601L381.195 81.2337L375.256 83.2817" fill="white"/>
<path d="M388.99 78.0508L376.686 77.9574L376.573 84.2388" fill="white"/>
<path d="M388.99 78.051L379.09 85.359L375.307 80.3434" fill="white"/>
<path d="M365.617 78.051L375.517 85.359L379.3 80.3434" fill="white"/>
<path d="M365.617 78.0508L377.922 77.9574L378.034 84.2388" fill="white"/>
<path d="M384.527 91.7891L380.813 80.0578L374.804 81.8919" fill="white"/>
<path d="M384.526 91.7892L374.517 84.6323L378.118 79.4844" fill="white"/>
<path d="M370.081 91.7892L380.091 84.6323L376.49 79.4844" fill="white"/>
<path d="M370.081 91.7891L373.795 80.0578L379.803 81.8919" fill="white"/>
<path d="M377.304 20.408L373.413 32.0816L379.352 34.1296" fill="white"/>
<path d="M377.304 20.408L381.195 32.0816L375.256 34.1296" fill="white"/>
<path d="M388.99 28.8987L376.686 28.8053L376.573 35.0867" fill="white"/>
<path d="M388.99 28.8989L379.09 36.207L375.307 31.1913" fill="white"/>
<path d="M365.617 28.8989L375.517 36.207L379.3 31.1913" fill="white"/>
<path d="M365.617 28.8987L377.922 28.8053L378.034 35.0867" fill="white"/>
<path d="M384.527 42.637L380.813 30.9057L374.804 32.7398" fill="white"/>
<path d="M384.526 42.6371L374.517 35.4802L378.118 30.3323" fill="white"/>
<path d="M370.081 42.6371L380.091 35.4802L376.49 30.3323" fill="white"/>
<path d="M370.081 42.637L373.795 30.9057L379.803 32.7398" fill="white"/>
<path d="M180.696 118.712L176.805 130.386L182.744 132.434" fill="white"/>
<path d="M180.696 118.712L184.587 130.386L178.648 132.434" fill="white"/>
<path d="M192.382 127.203L180.078 127.109L179.965 133.391" fill="white"/>
<path d="M192.382 127.203L182.482 134.511L178.699 129.495" fill="white"/>
<path d="M169.009 127.203L178.909 134.511L182.692 129.495" fill="white"/>
<path d="M169.009 127.203L181.314 127.109L181.426 133.391" fill="white"/>
<path d="M187.919 140.941L184.205 129.21L178.196 131.044" fill="white"/>
<path d="M187.919 140.941L177.909 133.784L181.51 128.636" fill="white"/>
<path d="M173.473 140.941L183.483 133.784L179.882 128.636" fill="white"/>
<path d="M173.473 140.941L177.187 129.21L183.195 131.044" fill="white"/>
<path d="M229.848 118.712L225.957 130.386L231.896 132.434" fill="white"/>
<path d="M229.848 118.712L233.739 130.386L227.8 132.434" fill="white"/>
<path d="M241.534 127.203L229.23 127.109L229.117 133.391" fill="white"/>
<path d="M241.534 127.203L231.635 134.511L227.851 129.495" fill="white"/>
<path d="M218.161 127.203L228.061 134.511L231.844 129.495" fill="white"/>
<path d="M218.161 127.203L230.466 127.109L230.578 133.391" fill="white"/>
<path d="M237.071 140.941L233.357 129.21L227.348 131.044" fill="white"/>
<path d="M237.071 140.941L227.061 133.784L230.662 128.636" fill="white"/>
<path d="M222.625 140.941L232.635 133.784L229.034 128.636" fill="white"/>
<path d="M222.625 140.941L226.339 129.21L232.348 131.044" fill="white"/>
<path d="M229.848 69.5601L225.957 81.2337L231.896 83.2817" fill="white"/>
<path d="M229.848 69.5601L233.739 81.2337L227.8 83.2817" fill="white"/>
<path d="M241.534 78.0508L229.23 77.9574L229.117 84.2388" fill="white"/>
<path d="M241.534 78.051L231.635 85.359L227.851 80.3434" fill="white"/>
<path d="M218.161 78.051L228.061 85.359L231.844 80.3434" fill="white"/>
<path d="M218.161 78.0508L230.466 77.9574L230.578 84.2388" fill="white"/>
<path d="M237.071 91.7891L233.357 80.0578L227.348 81.8919" fill="white"/>
<path d="M237.071 91.7892L227.061 84.6323L230.662 79.4844" fill="white"/>
<path d="M222.625 91.7892L232.635 84.6323L229.034 79.4844" fill="white"/>
<path d="M222.625 91.7891L226.339 80.0578L232.348 81.8919" fill="white"/>
</g>
<defs>
<clipPath id="clip0_103_174">
<rect width="512" height="512" fill="white" transform="translate(0.5)"/>
</clipPath>
</defs>
</svg>
