<svg width="513" height="512" viewBox="0 0 513 512" fill="none" xmlns="http://www.w3.org/2000/svg">
<g clip-path="url(#clip0_103_614)">
<path d="M0.5 0H512.5V512H0.5V0Z" fill="#CF142B"/>
<path d="M0.5 0H512.5V341.3H0.5V0Z" fill="#00247D"/>
<path d="M0.5 0H512.5V170.7H0.5V0Z" fill="#FFCC00"/>
<path d="M287.165 186.191L277.31 205.242L288.404 211.095L287.165 186.191Z" fill="white"/>
<path d="M287.165 186.192L289.91 207.463L277.483 209.17L287.165 186.192Z" fill="white"/>
<path d="M304.58 204.225L283.416 200.739L281.277 213.099L304.58 204.225Z" fill="white"/>
<path d="M304.58 204.225L285.197 213.409L279.734 202.117L304.58 204.225Z" fill="white"/>
<path d="M264.633 197.181L279.705 212.441L288.701 203.699L264.633 197.181Z" fill="white"/>
<path d="M264.633 197.181L285.712 201.143L283.495 213.49L264.633 197.181Z" fill="white"/>
<path d="M292.81 226.359L289.586 205.155L277.17 206.94L292.81 226.359Z" fill="white"/>
<path d="M292.81 226.359L278.086 210.764L287.137 202.079L292.81 226.359Z" fill="white"/>
<path d="M268.122 222.006L287.292 212.387L281.758 201.13L268.122 222.006Z" fill="white"/>
<path d="M268.122 222.006L278.404 203.183L289.461 209.107L268.122 222.006Z" fill="white"/>
<path d="M344.233 206.962L328.456 221.493L336.879 230.788L344.233 206.962Z" fill="white"/>
<path d="M344.233 206.962L339.537 227.89L327.276 225.244L344.233 206.962Z" fill="white"/>
<path d="M354.429 229.864L335.734 219.35L329.497 230.233L354.429 229.864Z" fill="white"/>
<path d="M354.429 229.864L333.074 231.865L331.803 219.386L354.429 229.864Z" fill="white"/>
<path d="M319.301 209.583L328.245 229.077L339.688 223.939L319.301 209.583Z" fill="white"/>
<path d="M319.301 209.583L337.753 220.516L331.447 231.359L319.301 209.583Z" fill="white"/>
<path d="M335.799 246.638L340.022 225.61L327.744 223.041L335.799 246.638Z" fill="white"/>
<path d="M335.799 246.638L327.297 226.947L338.772 221.882L335.799 246.638Z" fill="white"/>
<path d="M314.089 234.104L335.393 231.622L334.042 219.151L314.089 234.104Z" fill="white"/>
<path d="M314.089 234.104L330.189 219.933L338.553 229.281L314.089 234.104Z" fill="white"/>
<path d="M390.754 245.999L370.96 254.257L375.695 265.873L390.754 245.999Z" fill="white"/>
<path d="M390.754 245.999L379.184 264.059L368.567 257.378L390.754 245.999Z" fill="white"/>
<path d="M392.503 271.007L378.532 254.733L368.949 262.826L392.503 271.007Z" fill="white"/>
<path d="M392.503 271.007L371.752 265.584L374.825 253.422L392.503 271.007Z" fill="white"/>
<path d="M366.43 239.934L368.167 261.312L380.678 260.398L366.43 239.934Z" fill="white"/>
<path d="M366.43 239.934L380.031 256.519L370.396 264.552L366.43 239.934Z" fill="white"/>
<path d="M369.259 280.398L380.419 262.082L369.761 255.468L369.259 280.398Z" fill="white"/>
<path d="M369.259 280.398L368.004 258.986L380.52 258.151L369.259 280.398Z" fill="white"/>
<path d="M353.145 261.194L374.014 266.148L377.01 253.967L353.145 261.194Z" fill="white"/>
<path d="M353.145 261.194L373.121 253.384L377.783 265.029L353.145 261.194Z" fill="white"/>
<path d="M421.119 298.593L399.694 299.583L400.171 312.118L421.119 298.593Z" fill="white"/>
<path d="M421.119 298.593L404.07 311.606L396.379 301.697L421.119 298.593Z" fill="white"/>
<path d="M414.209 322.691L406.647 302.62L394.873 306.947L414.209 322.691Z" fill="white"/>
<path d="M414.209 322.691L396.564 310.497L403.611 300.12L414.209 322.691Z" fill="white"/>
<path d="M400.336 284.574L394.657 305.257L406.726 308.676L400.336 284.574Z" fill="white"/>
<path d="M400.336 284.574L407.444 304.81L395.643 309.063L400.336 284.574Z" fill="white"/>
<path d="M389.155 323.565L405.907 310.171L398.153 300.311L389.155 323.565Z" fill="white"/>
<path d="M389.156 323.565L395.3 303.016L407.346 306.512L389.156 323.565Z" fill="white"/>
<path d="M380.581 300.008L398.497 311.801L405.478 301.379L380.581 300.008Z" fill="white"/>
<path d="M380.581 300.008L402.024 299.501L402.422 312.039L380.581 300.008Z" fill="white"/>
<path d="M92.4808 298.593L109.53 311.606L117.222 301.697L92.4808 298.593Z" fill="white"/>
<path d="M92.4809 298.592L113.906 299.583L113.429 312.117L92.4809 298.592Z" fill="white"/>
<path d="M113.264 284.574L106.156 304.81L117.957 309.063L113.264 284.574Z" fill="white"/>
<path d="M113.264 284.574L118.943 305.257L106.874 308.676L113.264 284.574Z" fill="white"/>
<path d="M99.3906 322.69L117.036 310.497L109.988 300.12L99.3906 322.69Z" fill="white"/>
<path d="M99.3907 322.69L106.953 302.62L118.727 306.947L99.3907 322.69Z" fill="white"/>
<path d="M133.019 300.008L111.576 299.501L111.178 312.039L133.019 300.008Z" fill="white"/>
<path d="M133.019 300.008L115.103 311.801L108.122 301.379L133.019 300.008Z" fill="white"/>
<path d="M124.444 323.565L118.3 303.016L106.253 306.512L124.444 323.565Z" fill="white"/>
<path d="M124.444 323.565L107.693 310.171L115.447 300.311L124.444 323.565Z" fill="white"/>
<path d="M122.846 245.999L134.416 264.059L145.032 257.378L122.846 245.999Z" fill="white"/>
<path d="M122.846 245.999L142.64 254.258L137.905 265.873L122.846 245.999Z" fill="white"/>
<path d="M147.17 239.934L133.569 256.519L143.204 264.552L147.17 239.934Z" fill="white"/>
<path d="M147.17 239.935L145.433 261.312L132.922 260.398L147.17 239.935Z" fill="white"/>
<path d="M121.097 271.007L141.848 265.584L138.775 253.422L121.097 271.007Z" fill="white"/>
<path d="M121.097 271.007L135.068 254.733L144.652 262.826L121.097 271.007Z" fill="white"/>
<path d="M160.455 261.194L140.479 253.384L135.817 265.029L160.455 261.194Z" fill="white"/>
<path d="M160.455 261.194L139.586 266.148L136.59 253.967L160.455 261.194Z" fill="white"/>
<path d="M144.341 280.398L145.595 258.986L133.08 258.151L144.341 280.398Z" fill="white"/>
<path d="M144.341 280.398L133.18 262.082L143.839 255.468L144.341 280.398Z" fill="white"/>
<path d="M169.368 206.962L174.063 227.89L186.324 225.244L169.368 206.962Z" fill="white"/>
<path d="M169.368 206.962L185.144 221.493L176.721 230.788L169.368 206.962Z" fill="white"/>
<path d="M194.299 209.583L175.846 220.516L182.153 231.359L194.299 209.583Z" fill="white"/>
<path d="M194.299 209.583L185.355 229.077L173.912 223.939L194.299 209.583Z" fill="white"/>
<path d="M159.171 229.864L180.526 231.865L181.798 219.386L159.171 229.864Z" fill="white"/>
<path d="M159.171 229.864L177.866 219.35L184.103 230.233L159.171 229.864Z" fill="white"/>
<path d="M199.511 234.104L183.411 219.933L175.048 229.281L199.511 234.104Z" fill="white"/>
<path d="M199.512 234.104L178.207 231.622L179.558 219.151L199.512 234.104Z" fill="white"/>
<path d="M177.801 246.639L186.303 226.948L174.828 221.882L177.801 246.639Z" fill="white"/>
<path d="M177.801 246.639L173.579 225.61L185.856 223.041L177.801 246.639Z" fill="white"/>
<path d="M226.435 186.192L223.69 207.464L236.117 209.17L226.435 186.192Z" fill="white"/>
<path d="M226.435 186.192L236.29 205.242L225.196 211.096L226.435 186.192Z" fill="white"/>
<path d="M248.967 197.181L227.888 201.144L230.105 213.49L248.967 197.181Z" fill="white"/>
<path d="M248.967 197.181L233.895 212.441L224.899 203.699L248.967 197.181Z" fill="white"/>
<path d="M209.02 204.225L228.403 213.409L233.866 202.118L209.02 204.225Z" fill="white"/>
<path d="M209.021 204.225L230.184 200.739L232.323 213.099L209.021 204.225Z" fill="white"/>
<path d="M245.478 222.007L235.196 203.183L224.139 209.107L245.478 222.007Z" fill="white"/>
<path d="M245.478 222.006L226.308 212.387L231.842 201.131L245.478 222.006Z" fill="white"/>
<path d="M220.79 226.36L235.514 210.764L226.463 202.079L220.79 226.36Z" fill="white"/>
<path d="M220.79 226.36L224.014 205.155L236.43 206.94L220.79 226.36Z" fill="white"/>
</g>
<defs>
<clipPath id="clip0_103_614">
<rect width="512" height="512" fill="white" transform="translate(0.5)"/>
</clipPath>
</defs>
</svg>
