<svg width="513" height="512" viewBox="0 0 513 512" fill="none" xmlns="http://www.w3.org/2000/svg">
<g clip-path="url(#clip0_103_768)">
<path d="M0.5 0H512.5V512H0.5V0Z" fill="#000066"/>
<path d="M291.454 124.692L476.457 124.027L476.087 288.786C476.087 288.786 482.589 313.906 398.51 351.956C428.728 348.853 461.68 316.64 461.68 316.64C461.68 316.64 475.053 299.425 481.629 309.03C488.13 318.634 494.263 323.511 499.065 327.279C503.867 330.973 507.635 341.316 500.469 348.853C493.228 356.463 481.924 357.423 478.821 348.188C474.019 350.626 444.539 386.311 384.103 388.011C322.632 386.976 289.016 347.818 289.016 347.818C289.016 347.818 280.815 360.895 269.067 350.626C257.763 337.179 266.334 328.609 266.334 328.609C266.334 328.609 275.938 323.141 278.746 319.373C283.179 314.201 284.583 307.33 292.045 307.33C301.059 308.069 304.457 315.236 304.457 315.236C304.457 315.236 335.34 347.818 368.661 351.956C293.522 315.901 290.715 293.588 291.084 288.121L291.454 124.765V124.692Z" fill="white"/>
<path d="M295.887 129.198L472.319 128.164V286.717C472.689 307.404 437.964 328.313 383.733 355.059C327.804 326.244 295.517 308.734 295.222 286.348L295.887 129.198Z" fill="#006129" stroke="black" stroke-width="1.40378"/>
<path d="M319.899 152.619L330.242 137.326L340.808 152.693" stroke="#FFC72C" stroke-width="1.40378"/>
<path d="M332.385 146.857C332.385 147.405 332.167 147.931 331.779 148.319C331.391 148.707 330.865 148.925 330.316 148.925C329.768 148.925 329.241 148.707 328.853 148.319C328.466 147.931 328.248 147.405 328.248 146.857C328.248 146.308 328.466 145.782 328.853 145.394C329.241 145.006 329.768 144.788 330.316 144.788C330.865 144.788 331.391 145.006 331.779 145.394C332.167 145.782 332.385 146.308 332.385 146.857Z" fill="#FFC72C" stroke="black" stroke-width="0.664947"/>
<path d="M321.82 163.923H338C338 163.923 338.222 161.855 336.301 160.599C344.797 159.417 342.581 152.028 349.6 151.585C351.077 151.807 345.906 154.762 345.906 154.762C345.906 154.762 341.694 157.717 343.689 159.269C345.167 160.525 345.906 158.53 346.053 157.052C346.275 155.575 352.925 154.614 351.964 150.403C350.412 146.93 341.103 152.767 341.103 152.767L334.454 152.693C334.01 151.954 332.237 148.999 330.316 148.999C328.1 148.999 326.474 152.693 326.474 152.693H311.476C311.476 152.693 310.959 156.609 318.569 157.348C320.268 159.564 321.598 160.155 323.15 160.746C322.115 161.559 321.82 162.594 321.82 163.923ZM323.002 160.673H336.449H323.002Z" fill="#FFC72C"/>
<path d="M323.002 160.673H336.449M321.82 163.923H338C338 163.923 338.222 161.855 336.301 160.599C344.797 159.417 342.581 152.028 349.6 151.585C351.077 151.807 345.906 154.762 345.906 154.762C345.906 154.762 341.694 157.717 343.689 159.269C345.167 160.525 345.906 158.53 346.053 157.052C346.275 155.575 352.925 154.614 351.964 150.403C350.412 146.93 341.103 152.767 341.103 152.767L334.454 152.693C334.01 151.954 332.237 148.999 330.316 148.999C328.1 148.999 326.474 152.693 326.474 152.693H311.476C311.476 152.693 310.959 156.609 318.569 157.348C320.268 159.564 321.598 160.155 323.15 160.746C322.115 161.559 321.82 162.594 321.82 163.923Z" stroke="black" stroke-width="0.664947"/>
<path d="M316.87 152.767C316.87 152.767 317.904 159.047 322.928 160.525L316.87 152.767Z" fill="#FFC72C"/>
<path d="M316.87 152.767C316.87 152.767 317.904 159.047 322.928 160.525" stroke="black" stroke-width="0.664947"/>
<path d="M316.057 152.619C316.5 150.255 317.461 149.812 318.421 146.709C318.569 143.753 316.057 144.123 316.796 142.276C318.126 140.133 317.461 138.138 314.949 136.587C315.466 139.32 311.698 141.906 311.698 144.123C311.698 146.339 313.619 145.896 313.397 149.295C313.545 151.216 312.88 150.772 312.658 152.619H316.057Z" fill="url(#paint0_linear_103_768)" stroke="black" stroke-width="0.664947"/>
<path d="M332.237 137.769C332.237 138.278 332.035 138.767 331.675 139.127C331.314 139.487 330.826 139.69 330.316 139.69C329.807 139.69 329.318 139.487 328.958 139.127C328.598 138.767 328.395 138.278 328.395 137.769C328.395 137.259 328.598 136.771 328.958 136.411C329.318 136.05 329.807 135.848 330.316 135.848C330.826 135.848 331.314 136.05 331.675 136.411C332.035 136.771 332.237 137.259 332.237 137.769Z" fill="#FFC72C" stroke="black" stroke-width="0.664947"/>
<path d="M319.308 183.133L329.651 167.839L340.216 183.207" stroke="#FFC72C" stroke-width="1.40378"/>
<path d="M331.794 177.37C331.794 177.919 331.576 178.445 331.188 178.833C330.8 179.221 330.274 179.439 329.725 179.439C329.177 179.439 328.65 179.221 328.262 178.833C327.874 178.445 327.656 177.919 327.656 177.37C327.656 176.822 327.874 176.295 328.262 175.907C328.65 175.519 329.177 175.302 329.725 175.302C330.274 175.302 330.8 175.519 331.188 175.907C331.576 176.295 331.794 176.822 331.794 177.37Z" fill="#FFC72C" stroke="black" stroke-width="0.664947"/>
<path d="M321.229 194.437H337.409C337.409 194.437 337.631 192.368 335.71 191.112C344.206 189.93 341.99 182.542 349.009 182.099C350.486 182.32 345.315 185.276 345.315 185.276C345.315 185.276 341.103 188.231 343.098 189.782C344.576 191.038 345.315 189.044 345.462 187.566C345.684 186.088 352.333 185.128 351.373 180.916C349.821 177.444 340.512 183.281 340.512 183.281L333.863 183.207C333.419 182.468 331.646 179.513 329.725 179.513C327.509 179.513 325.883 183.207 325.883 183.207H310.885C310.885 183.207 310.368 187.123 317.978 187.861C319.677 190.078 321.007 190.669 322.559 191.26C321.524 192.073 321.229 193.107 321.229 194.437ZM322.411 191.186H335.858H322.411Z" fill="#FFC72C"/>
<path d="M322.411 191.186H335.858M321.229 194.437H337.409C337.409 194.437 337.631 192.368 335.71 191.112C344.206 189.93 341.99 182.542 349.009 182.099C350.486 182.32 345.315 185.276 345.315 185.276C345.315 185.276 341.103 188.231 343.098 189.782C344.576 191.038 345.315 189.044 345.462 187.566C345.684 186.088 352.333 185.128 351.373 180.916C349.821 177.444 340.512 183.281 340.512 183.281L333.863 183.207C333.419 182.468 331.646 179.513 329.725 179.513C327.509 179.513 325.883 183.207 325.883 183.207H310.885C310.885 183.207 310.368 187.123 317.978 187.861C319.677 190.078 321.007 190.669 322.559 191.26C321.524 192.073 321.229 193.107 321.229 194.437Z" stroke="black" stroke-width="0.664947"/>
<path d="M316.279 183.281C316.279 183.281 317.313 189.561 322.337 191.038L316.279 183.281Z" fill="#FFC72C"/>
<path d="M316.279 183.281C316.279 183.281 317.313 189.561 322.337 191.038" stroke="black" stroke-width="0.664947"/>
<path d="M315.466 183.133C315.909 180.769 316.87 180.325 317.83 177.222C317.978 174.267 315.466 174.636 316.205 172.789C317.534 170.647 316.87 168.652 314.358 167.1C314.875 169.834 311.107 172.42 311.107 174.636C311.107 176.853 313.028 176.41 312.806 179.808C312.954 181.729 312.289 181.286 312.067 183.133H315.466Z" fill="url(#paint1_linear_103_768)" stroke="black" stroke-width="0.664947"/>
<path d="M331.646 168.283C331.646 168.792 331.444 169.281 331.083 169.641C330.723 170.001 330.235 170.203 329.725 170.203C329.216 170.203 328.727 170.001 328.367 169.641C328.007 169.281 327.804 168.792 327.804 168.283C327.804 167.773 328.007 167.284 328.367 166.924C328.727 166.564 329.216 166.362 329.725 166.362C330.235 166.362 330.723 166.564 331.083 166.924C331.444 167.284 331.646 167.773 331.646 168.283Z" fill="#FFC72C" stroke="black" stroke-width="0.664947"/>
<path d="M319.086 213.203L329.43 197.91L339.995 213.277" stroke="#FFC72C" stroke-width="1.40378"/>
<path d="M331.572 207.441C331.572 207.989 331.354 208.515 330.966 208.903C330.578 209.291 330.052 209.509 329.504 209.509C328.955 209.509 328.429 209.291 328.041 208.903C327.653 208.515 327.435 207.989 327.435 207.441C327.435 206.892 327.653 206.366 328.041 205.978C328.429 205.59 328.955 205.372 329.504 205.372C330.052 205.372 330.578 205.59 330.966 205.978C331.354 206.366 331.572 206.892 331.572 207.441Z" fill="#FFC72C" stroke="black" stroke-width="0.664947"/>
<path d="M321.007 224.507H337.187C337.187 224.507 337.409 222.439 335.488 221.183C343.985 220.001 341.768 212.612 348.787 212.169C350.265 212.391 345.093 215.346 345.093 215.346C345.093 215.346 340.882 218.301 342.876 219.853C344.354 221.109 345.093 219.114 345.241 217.636C345.462 216.159 352.112 215.198 351.151 210.987C349.6 207.514 340.29 213.351 340.29 213.351L333.641 213.277C333.198 212.538 331.425 209.583 329.504 209.583C327.287 209.583 325.662 213.277 325.662 213.277H310.663C310.663 213.277 310.146 217.193 317.756 217.932C319.455 220.148 320.785 220.739 322.337 221.33C321.303 222.143 321.007 223.177 321.007 224.507ZM322.189 221.257H335.636H322.189Z" fill="#FFC72C"/>
<path d="M322.189 221.257H335.636M321.007 224.507H337.187C337.187 224.507 337.409 222.439 335.488 221.183C343.985 220.001 341.768 212.612 348.787 212.169C350.265 212.391 345.093 215.346 345.093 215.346C345.093 215.346 340.882 218.301 342.876 219.853C344.354 221.109 345.093 219.114 345.241 217.636C345.462 216.159 352.112 215.198 351.151 210.987C349.6 207.514 340.29 213.351 340.29 213.351L333.641 213.277C333.198 212.538 331.425 209.583 329.504 209.583C327.287 209.583 325.662 213.277 325.662 213.277H310.663C310.663 213.277 310.146 217.193 317.756 217.932C319.455 220.148 320.785 220.739 322.337 221.33C321.303 222.143 321.007 223.177 321.007 224.507Z" stroke="black" stroke-width="0.664947"/>
<path d="M316.057 213.351C316.057 213.351 317.091 219.631 322.115 221.109L316.057 213.351Z" fill="#FFC72C"/>
<path d="M316.057 213.351C316.057 213.351 317.091 219.631 322.115 221.109" stroke="black" stroke-width="0.664947"/>
<path d="M315.244 213.203C315.687 210.839 316.648 210.396 317.608 207.293C317.756 204.337 315.244 204.707 315.983 202.86C317.313 200.717 316.648 198.722 314.136 197.171C314.653 199.904 310.885 202.49 310.885 204.707C310.885 206.923 312.806 206.48 312.584 209.879C312.732 211.799 312.067 211.356 311.845 213.203H315.244Z" fill="url(#paint2_linear_103_768)" stroke="black" stroke-width="0.664947"/>
<path d="M331.424 198.353C331.424 198.862 331.222 199.351 330.862 199.711C330.502 200.071 330.013 200.274 329.504 200.274C328.994 200.274 328.505 200.071 328.145 199.711C327.785 199.351 327.583 198.862 327.583 198.353C327.583 197.843 327.785 197.355 328.145 196.995C328.505 196.634 328.994 196.432 329.504 196.432C330.013 196.432 330.502 196.634 330.862 196.995C331.222 197.355 331.424 197.843 331.424 198.353Z" fill="#FFC72C" stroke="black" stroke-width="0.664947"/>
<path d="M338.813 245.786L349.157 230.492L359.722 245.86" stroke="#FFC72C" stroke-width="1.40378"/>
<path d="M351.299 240.023C351.299 240.571 351.081 241.098 350.693 241.486C350.305 241.874 349.779 242.092 349.23 242.092C348.682 242.092 348.156 241.874 347.768 241.486C347.38 241.098 347.162 240.571 347.162 240.023C347.162 239.474 347.38 238.948 347.768 238.56C348.156 238.172 348.682 237.954 349.23 237.954C349.779 237.954 350.305 238.172 350.693 238.56C351.081 238.948 351.299 239.474 351.299 240.023Z" fill="#FFC72C" stroke="black" stroke-width="0.664947"/>
<path d="M340.734 257.09H356.914C356.914 257.09 357.136 255.021 355.215 253.765C363.711 252.583 361.495 245.195 368.514 244.751C369.991 244.973 364.82 247.928 364.82 247.928C364.82 247.928 360.608 250.884 362.603 252.435C364.081 253.691 364.82 251.696 364.967 250.219C365.189 248.741 371.839 247.781 370.878 243.569C369.327 240.097 360.017 245.934 360.017 245.934L353.368 245.86C352.925 245.121 351.151 242.166 349.23 242.166C347.014 242.166 345.388 245.86 345.388 245.86H330.39C330.39 245.86 329.873 249.775 337.483 250.514C339.182 252.731 340.512 253.322 342.064 253.913C341.029 254.726 340.734 255.76 340.734 257.09ZM341.916 253.839H355.363H341.916Z" fill="#FFC72C"/>
<path d="M341.916 253.839H355.363M340.734 257.09H356.914C356.914 257.09 357.136 255.021 355.215 253.765C363.711 252.583 361.495 245.195 368.514 244.751C369.991 244.973 364.82 247.928 364.82 247.928C364.82 247.928 360.608 250.884 362.603 252.435C364.081 253.691 364.82 251.696 364.967 250.219C365.189 248.741 371.839 247.781 370.878 243.569C369.327 240.097 360.017 245.934 360.017 245.934L353.368 245.86C352.925 245.121 351.151 242.166 349.23 242.166C347.014 242.166 345.388 245.86 345.388 245.86H330.39C330.39 245.86 329.873 249.775 337.483 250.514C339.182 252.731 340.512 253.322 342.064 253.913C341.029 254.726 340.734 255.76 340.734 257.09Z" stroke="black" stroke-width="0.664947"/>
<path d="M335.784 245.934C335.784 245.934 336.818 252.214 341.842 253.691L335.784 245.934Z" fill="#FFC72C"/>
<path d="M335.784 245.934C335.784 245.934 336.818 252.214 341.842 253.691" stroke="black" stroke-width="0.664947"/>
<path d="M334.971 245.786C335.414 243.422 336.375 242.978 337.335 239.875C337.483 236.92 334.971 237.289 335.71 235.442C337.04 233.3 336.375 231.305 333.863 229.753C334.38 232.487 330.612 235.073 330.612 237.289C330.612 239.506 332.533 239.062 332.311 242.461C332.459 244.382 331.794 243.939 331.572 245.786H334.971Z" fill="url(#paint3_linear_103_768)" stroke="black" stroke-width="0.664947"/>
<path d="M351.151 230.935C351.151 231.445 350.949 231.933 350.589 232.294C350.228 232.654 349.74 232.856 349.23 232.856C348.721 232.856 348.232 232.654 347.872 232.294C347.512 231.933 347.309 231.445 347.309 230.935C347.309 230.426 347.512 229.937 347.872 229.577C348.232 229.217 348.721 229.014 349.23 229.014C349.74 229.014 350.228 229.217 350.589 229.577C350.949 229.937 351.151 230.426 351.151 230.935Z" fill="#FFC72C" stroke="black" stroke-width="0.664947"/>
<path d="M316.5 272.457L326.844 257.164L337.409 272.531" stroke="#FFC72C" stroke-width="1.40378"/>
<path d="M328.986 266.695C328.986 267.243 328.768 267.77 328.38 268.158C327.992 268.545 327.466 268.763 326.918 268.763C326.369 268.763 325.843 268.545 325.455 268.158C325.067 267.77 324.849 267.243 324.849 266.695C324.849 266.146 325.067 265.62 325.455 265.232C325.843 264.844 326.369 264.626 326.918 264.626C327.466 264.626 327.992 264.844 328.38 265.232C328.768 265.62 328.986 266.146 328.986 266.695Z" fill="#FFC72C" stroke="black" stroke-width="0.664947"/>
<path d="M318.421 283.762H334.601C334.601 283.762 334.823 281.693 332.902 280.437C341.399 279.255 339.182 271.866 346.201 271.423C347.679 271.645 342.507 274.6 342.507 274.6C342.507 274.6 338.296 277.555 340.29 279.107C341.768 280.363 342.507 278.368 342.655 276.89C342.876 275.413 349.526 274.452 348.565 270.241C347.014 266.768 337.705 272.605 337.705 272.605L331.055 272.531C330.612 271.792 328.839 268.837 326.918 268.837C324.701 268.837 323.076 272.531 323.076 272.531H308.077C308.077 272.531 307.56 276.447 315.17 277.186C316.87 279.402 318.199 279.993 319.751 280.585C318.717 281.397 318.421 282.432 318.421 283.762ZM319.603 280.511H333.05H319.603Z" fill="#FFC72C"/>
<path d="M319.603 280.511H333.05M318.421 283.762H334.601C334.601 283.762 334.823 281.693 332.902 280.437C341.399 279.255 339.182 271.866 346.201 271.423C347.679 271.645 342.507 274.6 342.507 274.6C342.507 274.6 338.296 277.555 340.29 279.107C341.768 280.363 342.507 278.368 342.655 276.89C342.876 275.413 349.526 274.452 348.565 270.241C347.014 266.768 337.705 272.605 337.705 272.605L331.055 272.531C330.612 271.792 328.839 268.837 326.918 268.837C324.701 268.837 323.076 272.531 323.076 272.531H308.077C308.077 272.531 307.56 276.447 315.17 277.186C316.87 279.402 318.199 279.993 319.751 280.585C318.717 281.397 318.421 282.432 318.421 283.762Z" stroke="black" stroke-width="0.664947"/>
<path d="M313.471 272.605C313.471 272.605 314.505 278.885 319.529 280.363L313.471 272.605Z" fill="#FFC72C"/>
<path d="M313.471 272.605C313.471 272.605 314.505 278.885 319.529 280.363" stroke="black" stroke-width="0.664947"/>
<path d="M312.658 272.457C313.101 270.093 314.062 269.65 315.022 266.547C315.17 263.591 312.658 263.961 313.397 262.114C314.727 259.971 314.062 257.976 311.55 256.425C312.067 259.158 308.299 261.744 308.299 263.961C308.299 266.177 310.22 265.734 309.998 269.133C310.146 271.054 309.481 270.61 309.26 272.457H312.658Z" fill="url(#paint4_linear_103_768)" stroke="black" stroke-width="0.664947"/>
<path d="M328.839 257.607C328.839 258.116 328.636 258.605 328.276 258.965C327.916 259.326 327.427 259.528 326.918 259.528C326.408 259.528 325.919 259.326 325.559 258.965C325.199 258.605 324.997 258.116 324.997 257.607C324.997 257.098 325.199 256.609 325.559 256.249C325.919 255.888 326.408 255.686 326.918 255.686C327.427 255.686 327.916 255.888 328.276 256.249C328.636 256.609 328.839 257.098 328.839 257.607Z" fill="#FFC72C" stroke="black" stroke-width="0.664947"/>
<path d="M317.091 303.932L327.435 288.638L338 304.006" stroke="#FFC72C" stroke-width="1.40378"/>
<path d="M329.577 298.169C329.577 298.718 329.359 299.244 328.971 299.632C328.584 300.02 328.057 300.238 327.509 300.238C326.96 300.238 326.434 300.02 326.046 299.632C325.658 299.244 325.44 298.718 325.44 298.169C325.44 297.62 325.658 297.094 326.046 296.706C326.434 296.318 326.96 296.1 327.509 296.1C328.057 296.1 328.584 296.318 328.971 296.706C329.359 297.094 329.577 297.62 329.577 298.169Z" fill="#FFC72C" stroke="black" stroke-width="0.664947"/>
<path d="M319.012 315.236H335.193C335.193 315.236 335.414 313.167 333.493 311.911C341.99 310.729 339.773 303.341 346.792 302.897C348.27 303.119 343.098 306.074 343.098 306.074C343.098 306.074 338.887 309.03 340.882 310.581C342.359 311.837 343.098 309.842 343.246 308.365C343.467 306.887 350.117 305.927 349.156 301.715C347.605 298.243 338.296 304.08 338.296 304.08L331.646 304.006C331.203 303.267 329.43 300.312 327.509 300.312C325.292 300.312 323.667 304.006 323.667 304.006H308.669C308.669 304.006 308.151 307.921 315.761 308.66C317.461 310.877 318.791 311.468 320.342 312.059C319.308 312.872 319.012 313.906 319.012 315.236ZM320.194 311.985H333.641H320.194Z" fill="#FFC72C"/>
<path d="M320.194 311.985H333.641M319.012 315.236H335.193C335.193 315.236 335.414 313.167 333.493 311.911C341.99 310.729 339.773 303.341 346.792 302.897C348.27 303.119 343.098 306.074 343.098 306.074C343.098 306.074 338.887 309.03 340.882 310.581C342.359 311.837 343.098 309.842 343.246 308.365C343.467 306.887 350.117 305.927 349.156 301.715C347.605 298.243 338.296 304.08 338.296 304.08L331.646 304.006C331.203 303.267 329.43 300.312 327.509 300.312C325.292 300.312 323.667 304.006 323.667 304.006H308.669C308.669 304.006 308.151 307.921 315.761 308.66C317.461 310.877 318.791 311.468 320.342 312.059C319.308 312.872 319.012 313.906 319.012 315.236Z" stroke="black" stroke-width="0.664947"/>
<path d="M314.062 304.08C314.062 304.08 315.096 310.36 320.12 311.837L314.062 304.08Z" fill="#FFC72C"/>
<path d="M314.062 304.08C314.062 304.08 315.096 310.36 320.12 311.837" stroke="black" stroke-width="0.664947"/>
<path d="M313.249 303.932C313.693 301.568 314.653 301.124 315.613 298.021C315.761 295.066 313.249 295.435 313.988 293.588C315.318 291.446 314.653 289.451 312.141 287.899C312.658 290.633 308.89 293.219 308.89 295.435C308.89 297.652 310.811 297.208 310.589 300.607C310.737 302.528 310.072 302.085 309.851 303.932H313.249Z" fill="url(#paint5_linear_103_768)" stroke="black" stroke-width="0.664947"/>
<path d="M329.43 289.081C329.43 289.591 329.227 290.079 328.867 290.44C328.507 290.8 328.018 291.002 327.509 291.002C326.999 291.002 326.511 290.8 326.15 290.44C325.79 290.079 325.588 289.591 325.588 289.081C325.588 288.572 325.79 288.083 326.15 287.723C326.511 287.363 326.999 287.16 327.509 287.16C328.018 287.16 328.507 287.363 328.867 287.723C329.227 288.083 329.43 288.572 329.43 289.081Z" fill="#FFC72C" stroke="black" stroke-width="0.664947"/>
<path d="M427.99 153.136L438.333 137.843L448.898 153.21" stroke="#FFC72C" stroke-width="1.40378"/>
<path d="M440.476 147.374C440.476 147.922 440.258 148.449 439.87 148.836C439.482 149.224 438.956 149.442 438.407 149.442C437.858 149.442 437.332 149.224 436.944 148.836C436.556 148.449 436.338 147.922 436.338 147.374C436.338 146.825 436.556 146.299 436.944 145.911C437.332 145.523 437.858 145.305 438.407 145.305C438.956 145.305 439.482 145.523 439.87 145.911C440.258 146.299 440.476 146.825 440.476 147.374Z" fill="#FFC72C" stroke="black" stroke-width="0.664947"/>
<path d="M429.911 164.44H446.091C446.091 164.44 446.313 162.372 444.392 161.116C452.888 159.934 450.672 152.545 457.691 152.102C459.168 152.324 453.996 155.279 453.996 155.279C453.996 155.279 449.785 158.234 451.78 159.786C453.258 161.042 453.996 159.047 454.144 157.569C454.366 156.092 461.015 155.131 460.055 150.92C458.503 147.447 449.194 153.284 449.194 153.284L442.545 153.21C442.101 152.471 440.328 149.516 438.407 149.516C436.191 149.516 434.565 153.21 434.565 153.21H419.567C419.567 153.21 419.05 157.126 426.66 157.865C428.359 160.081 429.689 160.672 431.24 161.264C430.206 162.076 429.911 163.111 429.911 164.44ZM431.093 161.19H444.539H431.093Z" fill="#FFC72C"/>
<path d="M431.093 161.19H444.539M429.911 164.44H446.091C446.091 164.44 446.313 162.372 444.392 161.116C452.888 159.934 450.672 152.545 457.691 152.102C459.168 152.324 453.996 155.279 453.996 155.279C453.996 155.279 449.785 158.234 451.78 159.786C453.258 161.042 453.996 159.047 454.144 157.569C454.366 156.092 461.015 155.131 460.055 150.92C458.503 147.447 449.194 153.284 449.194 153.284L442.545 153.21C442.101 152.471 440.328 149.516 438.407 149.516C436.191 149.516 434.565 153.21 434.565 153.21H419.567C419.567 153.21 419.05 157.126 426.66 157.865C428.359 160.081 429.689 160.672 431.24 161.264C430.206 162.076 429.911 163.111 429.911 164.44Z" stroke="black" stroke-width="0.664947"/>
<path d="M424.96 153.284C424.96 153.284 425.995 159.564 431.019 161.042L424.96 153.284Z" fill="#FFC72C"/>
<path d="M424.96 153.284C424.96 153.284 425.995 159.564 431.019 161.042" stroke="black" stroke-width="0.664947"/>
<path d="M424.148 153.136C424.591 150.772 425.551 150.329 426.512 147.226C426.66 144.27 424.148 144.64 424.886 142.793C426.216 140.65 425.551 138.655 423.039 137.104C423.557 139.837 419.789 142.423 419.789 144.64C419.789 146.856 421.71 146.413 421.488 149.812C421.636 151.733 420.971 151.289 420.749 153.136H424.148Z" fill="url(#paint6_linear_103_768)" stroke="black" stroke-width="0.664947"/>
<path d="M440.328 138.286C440.328 138.795 440.126 139.284 439.765 139.644C439.405 140.005 438.917 140.207 438.407 140.207C437.898 140.207 437.409 140.005 437.049 139.644C436.688 139.284 436.486 138.795 436.486 138.286C436.486 137.776 436.688 137.288 437.049 136.928C437.409 136.567 437.898 136.365 438.407 136.365C438.917 136.365 439.405 136.567 439.765 136.928C440.126 137.288 440.328 137.776 440.328 138.286Z" fill="#FFC72C" stroke="black" stroke-width="0.664947"/>
<path d="M426.955 183.059L437.299 167.765L447.864 183.133" stroke="#FFC72C" stroke-width="1.40378"/>
<path d="M439.441 177.296C439.441 177.845 439.223 178.371 438.835 178.759C438.448 179.147 437.921 179.365 437.373 179.365C436.824 179.365 436.298 179.147 435.91 178.759C435.522 178.371 435.304 177.845 435.304 177.296C435.304 176.748 435.522 176.221 435.91 175.833C436.298 175.445 436.824 175.228 437.373 175.228C437.921 175.228 438.448 175.445 438.835 175.833C439.223 176.221 439.441 176.748 439.441 177.296Z" fill="#FFC72C" stroke="black" stroke-width="0.664947"/>
<path d="M428.876 194.363H445.057C445.057 194.363 445.278 192.294 443.357 191.038C451.854 189.856 449.637 182.468 456.656 182.025C458.134 182.246 452.962 185.202 452.962 185.202C452.962 185.202 448.751 188.157 450.746 189.708C452.223 190.964 452.962 188.97 453.11 187.492C453.331 186.014 459.981 185.054 459.02 180.843C457.469 177.37 448.16 183.207 448.16 183.207L441.51 183.133C441.067 182.394 439.294 179.439 437.373 179.439C435.156 179.439 433.531 183.133 433.531 183.133H418.533C418.533 183.133 418.015 187.049 425.625 187.788C427.325 190.004 428.655 190.595 430.206 191.186C429.172 191.999 428.876 193.033 428.876 194.363ZM430.058 191.112H443.505H430.058Z" fill="#FFC72C"/>
<path d="M430.058 191.112H443.505M428.876 194.363H445.057C445.057 194.363 445.278 192.294 443.357 191.038C451.854 189.856 449.637 182.468 456.656 182.025C458.134 182.246 452.962 185.202 452.962 185.202C452.962 185.202 448.751 188.157 450.746 189.708C452.223 190.964 452.962 188.97 453.11 187.492C453.331 186.014 459.981 185.054 459.02 180.843C457.469 177.37 448.16 183.207 448.16 183.207L441.51 183.133C441.067 182.394 439.294 179.439 437.373 179.439C435.156 179.439 433.531 183.133 433.531 183.133H418.533C418.533 183.133 418.015 187.049 425.625 187.788C427.325 190.004 428.655 190.595 430.206 191.186C429.172 191.999 428.876 193.033 428.876 194.363Z" stroke="black" stroke-width="0.664947"/>
<path d="M423.926 183.207C423.926 183.207 424.96 189.487 429.984 190.965L423.926 183.207Z" fill="#FFC72C"/>
<path d="M423.926 183.207C423.926 183.207 424.96 189.487 429.984 190.965" stroke="black" stroke-width="0.664947"/>
<path d="M423.113 183.059C423.557 180.695 424.517 180.251 425.477 177.148C425.625 174.193 423.113 174.562 423.852 172.715C425.182 170.573 424.517 168.578 422.005 167.026C422.522 169.76 418.754 172.346 418.754 174.562C418.754 176.779 420.675 176.336 420.453 179.734C420.601 181.655 419.936 181.212 419.715 183.059H423.113Z" fill="url(#paint7_linear_103_768)" stroke="black" stroke-width="0.664947"/>
<path d="M439.294 168.209C439.294 168.718 439.091 169.207 438.731 169.567C438.371 169.927 437.882 170.13 437.373 170.13C436.863 170.13 436.375 169.927 436.014 169.567C435.654 169.207 435.452 168.718 435.452 168.209C435.452 167.699 435.654 167.21 436.014 166.85C436.375 166.49 436.863 166.288 437.373 166.288C437.882 166.288 438.371 166.49 438.731 166.85C439.091 167.21 439.294 167.699 439.294 168.209Z" fill="#FFC72C" stroke="black" stroke-width="0.664947"/>
<path d="M425.625 213.721L435.969 198.427L446.534 213.794" stroke="#FFC72C" stroke-width="1.40378"/>
<path d="M438.112 207.958C438.112 208.507 437.894 209.033 437.506 209.421C437.118 209.809 436.592 210.027 436.043 210.027C435.494 210.027 434.968 209.809 434.58 209.421C434.192 209.033 433.974 208.507 433.974 207.958C433.974 207.409 434.192 206.883 434.58 206.495C434.968 206.107 435.494 205.889 436.043 205.889C436.592 205.889 437.118 206.107 437.506 206.495C437.894 206.883 438.112 207.409 438.112 207.958Z" fill="#FFC72C" stroke="black" stroke-width="0.664947"/>
<path d="M427.546 225.025H443.727C443.727 225.025 443.948 222.956 442.027 221.7C450.524 220.518 448.307 213.13 455.326 212.686C456.804 212.908 451.632 215.863 451.632 215.863C451.632 215.863 447.421 218.819 449.416 220.37C450.893 221.626 451.632 219.631 451.78 218.154C452.002 216.676 458.651 215.715 457.691 211.504C456.139 208.032 446.83 213.868 446.83 213.868L440.18 213.794C439.737 213.056 437.964 210.1 436.043 210.1C433.826 210.1 432.201 213.794 432.201 213.794H417.203C417.203 213.794 416.686 217.71 424.295 218.449C425.995 220.666 427.325 221.257 428.876 221.848C427.842 222.66 427.546 223.695 427.546 225.025ZM428.728 221.774H442.175H428.728Z" fill="#FFC72C"/>
<path d="M428.728 221.774H442.175M427.546 225.025H443.727C443.727 225.025 443.948 222.956 442.027 221.7C450.524 220.518 448.307 213.13 455.326 212.686C456.804 212.908 451.632 215.863 451.632 215.863C451.632 215.863 447.421 218.819 449.416 220.37C450.893 221.626 451.632 219.631 451.78 218.154C452.002 216.676 458.651 215.715 457.691 211.504C456.139 208.032 446.83 213.868 446.83 213.868L440.18 213.794C439.737 213.056 437.964 210.1 436.043 210.1C433.826 210.1 432.201 213.794 432.201 213.794H417.203C417.203 213.794 416.686 217.71 424.295 218.449C425.995 220.666 427.325 221.257 428.876 221.848C427.842 222.66 427.546 223.695 427.546 225.025Z" stroke="black" stroke-width="0.664947"/>
<path d="M422.596 213.868C422.596 213.868 423.631 220.148 428.655 221.626L422.596 213.868Z" fill="#FFC72C"/>
<path d="M422.596 213.868C422.596 213.868 423.631 220.148 428.655 221.626" stroke="black" stroke-width="0.664947"/>
<path d="M421.783 213.721C422.227 211.356 423.187 210.913 424.148 207.81C424.295 204.855 421.783 205.224 422.522 203.377C423.852 201.234 423.187 199.24 420.675 197.688C421.192 200.422 417.424 203.008 417.424 205.224C417.424 207.441 419.345 206.997 419.124 210.396C419.271 212.317 418.606 211.874 418.385 213.721H421.783Z" fill="url(#paint8_linear_103_768)" stroke="black" stroke-width="0.664947"/>
<path d="M437.964 198.87C437.964 199.38 437.762 199.868 437.401 200.228C437.041 200.589 436.553 200.791 436.043 200.791C435.534 200.791 435.045 200.589 434.685 200.228C434.324 199.868 434.122 199.38 434.122 198.87C434.122 198.361 434.324 197.872 434.685 197.512C435.045 197.152 435.534 196.949 436.043 196.949C436.553 196.949 437.041 197.152 437.401 197.512C437.762 197.872 437.964 198.361 437.964 198.87Z" fill="#FFC72C" stroke="black" stroke-width="0.664947"/>
<path d="M427.177 243.791L437.52 228.497L448.086 243.865" stroke="#FFC72C" stroke-width="1.40378"/>
<path d="M439.663 238.028C439.663 238.577 439.445 239.103 439.057 239.491C438.669 239.879 438.143 240.097 437.594 240.097C437.046 240.097 436.52 239.879 436.132 239.491C435.744 239.103 435.526 238.577 435.526 238.028C435.526 237.48 435.744 236.953 436.132 236.565C436.52 236.177 437.046 235.959 437.594 235.959C438.143 235.959 438.669 236.177 439.057 236.565C439.445 236.953 439.663 237.48 439.663 238.028Z" fill="#FFC72C" stroke="black" stroke-width="0.664947"/>
<path d="M429.098 255.095H445.278C445.278 255.095 445.5 253.026 443.579 251.77C452.075 250.588 449.859 243.2 456.878 242.757C458.356 242.978 453.184 245.934 453.184 245.934C453.184 245.934 448.972 248.889 450.967 250.44C452.445 251.696 453.184 249.702 453.331 248.224C453.553 246.746 460.203 245.786 459.242 241.574C457.691 238.102 448.381 243.939 448.381 243.939L441.732 243.865C441.289 243.126 439.515 240.171 437.594 240.171C435.378 240.171 433.752 243.865 433.752 243.865H418.754C418.754 243.865 418.237 247.781 425.847 248.519C427.546 250.736 428.876 251.327 430.428 251.918C429.393 252.731 429.098 253.765 429.098 255.095ZM430.28 251.844H443.727H430.28Z" fill="#FFC72C"/>
<path d="M430.28 251.844H443.727M429.098 255.095H445.278C445.278 255.095 445.5 253.026 443.579 251.77C452.075 250.588 449.859 243.2 456.878 242.757C458.356 242.978 453.184 245.934 453.184 245.934C453.184 245.934 448.972 248.889 450.967 250.44C452.445 251.696 453.184 249.702 453.331 248.224C453.553 246.746 460.203 245.786 459.242 241.574C457.691 238.102 448.381 243.939 448.381 243.939L441.732 243.865C441.289 243.126 439.515 240.171 437.594 240.171C435.378 240.171 433.752 243.865 433.752 243.865H418.754C418.754 243.865 418.237 247.781 425.847 248.519C427.546 250.736 428.876 251.327 430.428 251.918C429.393 252.731 429.098 253.765 429.098 255.095Z" stroke="black" stroke-width="0.664947"/>
<path d="M424.148 243.939C424.148 243.939 425.182 250.219 430.206 251.696L424.148 243.939Z" fill="#FFC72C"/>
<path d="M424.148 243.939C424.148 243.939 425.182 250.219 430.206 251.696" stroke="black" stroke-width="0.664947"/>
<path d="M423.335 243.791C423.778 241.427 424.739 240.983 425.699 237.88C425.847 234.925 423.335 235.294 424.074 233.447C425.404 231.305 424.739 229.31 422.227 227.758C422.744 230.492 418.976 233.078 418.976 235.294C418.976 237.511 420.897 237.068 420.675 240.466C420.823 242.387 420.158 241.944 419.936 243.791H423.335Z" fill="url(#paint9_linear_103_768)" stroke="black" stroke-width="0.664947"/>
<path d="M439.515 228.94C439.515 229.45 439.313 229.939 438.953 230.299C438.592 230.659 438.104 230.861 437.594 230.861C437.085 230.861 436.596 230.659 436.236 230.299C435.876 229.939 435.673 229.45 435.673 228.94C435.673 228.431 435.876 227.942 436.236 227.582C436.596 227.222 437.085 227.02 437.594 227.02C438.104 227.02 438.592 227.222 438.953 227.582C439.313 227.942 439.515 228.431 439.515 228.94Z" fill="#FFC72C" stroke="black" stroke-width="0.664947"/>
<path d="M426.807 273.935L437.151 258.642L447.716 274.009" stroke="#FFC72C" stroke-width="1.40378"/>
<path d="M439.294 268.172C439.294 268.721 439.076 269.247 438.688 269.635C438.3 270.023 437.774 270.241 437.225 270.241C436.676 270.241 436.15 270.023 435.762 269.635C435.374 269.247 435.156 268.721 435.156 268.172C435.156 267.624 435.374 267.098 435.762 266.71C436.15 266.322 436.676 266.104 437.225 266.104C437.774 266.104 438.3 266.322 438.688 266.71C439.076 267.098 439.294 267.624 439.294 268.172Z" fill="#FFC72C" stroke="black" stroke-width="0.664947"/>
<path d="M428.728 285.239H444.909C444.909 285.239 445.13 283.171 443.21 281.915C451.706 280.732 449.49 273.344 456.508 272.901C457.986 273.122 452.814 276.078 452.814 276.078C452.814 276.078 448.603 279.033 450.598 280.585C452.075 281.841 452.814 279.846 452.962 278.368C453.184 276.891 459.833 275.93 458.873 271.719C457.321 268.246 448.012 274.083 448.012 274.083L441.362 274.009C440.919 273.27 439.146 270.315 437.225 270.315C435.009 270.315 433.383 274.009 433.383 274.009H418.385C418.385 274.009 417.868 277.925 425.478 278.664C427.177 280.88 428.507 281.471 430.058 282.062C429.024 282.875 428.728 283.909 428.728 285.239ZM429.911 281.988H443.357H429.911Z" fill="#FFC72C"/>
<path d="M429.911 281.988H443.357M428.728 285.239H444.909C444.909 285.239 445.13 283.171 443.21 281.915C451.706 280.732 449.49 273.344 456.508 272.901C457.986 273.122 452.814 276.078 452.814 276.078C452.814 276.078 448.603 279.033 450.598 280.585C452.075 281.841 452.814 279.846 452.962 278.368C453.184 276.891 459.833 275.93 458.873 271.719C457.321 268.246 448.012 274.083 448.012 274.083L441.362 274.009C440.919 273.27 439.146 270.315 437.225 270.315C435.009 270.315 433.383 274.009 433.383 274.009H418.385C418.385 274.009 417.868 277.925 425.478 278.664C427.177 280.88 428.507 281.471 430.058 282.062C429.024 282.875 428.728 283.909 428.728 285.239Z" stroke="black" stroke-width="0.664947"/>
<path d="M423.778 274.083C423.778 274.083 424.813 280.363 429.837 281.841L423.778 274.083Z" fill="#FFC72C"/>
<path d="M423.778 274.083C423.778 274.083 424.813 280.363 429.837 281.841" stroke="black" stroke-width="0.664947"/>
<path d="M422.966 273.935C423.409 271.571 424.369 271.128 425.33 268.025C425.478 265.069 422.966 265.439 423.704 263.592C425.034 261.449 424.369 259.454 421.857 257.903C422.374 260.636 418.606 263.222 418.606 265.439C418.606 267.655 420.527 267.212 420.306 270.61C420.454 272.531 419.789 272.088 419.567 273.935H422.966Z" fill="url(#paint10_linear_103_768)" stroke="black" stroke-width="0.664947"/>
<path d="M439.146 259.085C439.146 259.594 438.943 260.083 438.583 260.443C438.223 260.803 437.734 261.006 437.225 261.006C436.715 261.006 436.227 260.803 435.867 260.443C435.506 260.083 435.304 259.594 435.304 259.085C435.304 258.575 435.506 258.087 435.867 257.726C436.227 257.366 436.715 257.164 437.225 257.164C437.734 257.164 438.223 257.366 438.583 257.726C438.943 258.087 439.146 258.575 439.146 259.085Z" fill="#FFC72C" stroke="black" stroke-width="0.664947"/>
<path d="M426.955 304.227L437.299 288.934L447.864 304.301" stroke="#FFC72C" stroke-width="1.40378"/>
<path d="M439.441 298.464C439.441 299.013 439.223 299.539 438.835 299.927C438.448 300.315 437.921 300.533 437.373 300.533C436.824 300.533 436.298 300.315 435.91 299.927C435.522 299.539 435.304 299.013 435.304 298.464C435.304 297.916 435.522 297.39 435.91 297.002C436.298 296.614 436.824 296.396 437.373 296.396C437.921 296.396 438.448 296.614 438.835 297.002C439.223 297.39 439.441 297.916 439.441 298.464Z" fill="#FFC72C" stroke="black" stroke-width="0.664947"/>
<path d="M428.876 315.531H445.057C445.057 315.531 445.278 313.463 443.357 312.207C451.854 311.024 449.637 303.636 456.656 303.193C458.134 303.414 452.962 306.37 452.962 306.37C452.962 306.37 448.751 309.325 450.746 310.877C452.223 312.133 452.962 310.138 453.11 308.66C453.331 307.183 459.981 306.222 459.02 302.011C457.469 298.538 448.16 304.375 448.16 304.375L441.51 304.301C441.067 303.562 439.294 300.607 437.373 300.607C435.156 300.607 433.531 304.301 433.531 304.301H418.533C418.533 304.301 418.015 308.217 425.625 308.956C427.325 311.172 428.655 311.763 430.206 312.354C429.172 313.167 428.876 314.201 428.876 315.531ZM430.058 312.28H443.505H430.058Z" fill="#FFC72C"/>
<path d="M430.058 312.28H443.505M428.876 315.531H445.057C445.057 315.531 445.278 313.463 443.357 312.207C451.854 311.024 449.637 303.636 456.656 303.193C458.134 303.414 452.962 306.37 452.962 306.37C452.962 306.37 448.751 309.325 450.746 310.877C452.223 312.133 452.962 310.138 453.11 308.66C453.331 307.183 459.981 306.222 459.02 302.011C457.469 298.538 448.16 304.375 448.16 304.375L441.51 304.301C441.067 303.562 439.294 300.607 437.373 300.607C435.156 300.607 433.531 304.301 433.531 304.301H418.533C418.533 304.301 418.015 308.217 425.625 308.956C427.325 311.172 428.655 311.763 430.206 312.354C429.172 313.167 428.876 314.201 428.876 315.531Z" stroke="black" stroke-width="0.664947"/>
<path d="M423.926 304.375C423.926 304.375 424.96 310.655 429.984 312.133L423.926 304.375Z" fill="#FFC72C"/>
<path d="M423.926 304.375C423.926 304.375 424.96 310.655 429.984 312.133" stroke="black" stroke-width="0.664947"/>
<path d="M423.113 304.227C423.557 301.863 424.517 301.42 425.477 298.317C425.625 295.361 423.113 295.731 423.852 293.884C425.182 291.741 424.517 289.746 422.005 288.195C422.522 290.928 418.754 293.514 418.754 295.731C418.754 297.947 420.675 297.504 420.453 300.902C420.601 302.823 419.936 302.38 419.715 304.227H423.113Z" fill="url(#paint11_linear_103_768)" stroke="black" stroke-width="0.664947"/>
<path d="M439.294 289.377C439.294 289.886 439.091 290.375 438.731 290.735C438.371 291.095 437.882 291.298 437.373 291.298C436.863 291.298 436.375 291.095 436.014 290.735C435.654 290.375 435.452 289.886 435.452 289.377C435.452 288.867 435.654 288.379 436.014 288.018C436.375 287.658 436.863 287.456 437.373 287.456C437.882 287.456 438.371 287.658 438.731 288.018C439.091 288.379 439.294 288.867 439.294 289.377Z" fill="#FFC72C" stroke="black" stroke-width="0.664947"/>
<path d="M394.52 318.487C394.52 318.487 398.732 328.239 403.534 322.181C408.337 316.27 406.637 313.684 406.637 313.684L395.85 307.848L392.673 314.497L394.52 318.487Z" fill="#FFC72C" stroke="black" stroke-width="0.664947"/>
<path d="M403.83 317.231C403.83 317.231 404.569 317.305 405.086 316.27C405.677 315.236 403.83 314.793 402.943 313.61L402.057 315.457L403.83 317.231ZM379.448 314.571L369.991 319.743C369.991 319.743 365.263 320.703 364.967 319.743C364.598 318.856 365.041 318.043 367.553 317.896C369.991 317.822 376.641 311.689 376.641 311.689L379.448 314.645V314.571ZM379.596 146.192L379.892 149.59C380.039 150.772 378.045 153.284 377.971 153.137C377.823 152.989 376.862 153.284 377.01 153.949C377.084 154.688 378.488 154.91 378.488 154.91C378.488 154.91 377.971 157.348 378.488 157.496C379.079 157.569 377.01 160.599 378.488 161.411C380.039 162.224 382.625 163.332 383.807 163.111C384.99 162.815 383.807 167.618 383.807 167.618L380.483 174.636L398.51 172.789L394.816 166.879C394.816 166.879 393.043 165.623 393.486 162.224C394.003 158.899 393.264 143.532 393.264 143.532L380.409 141.759L379.596 146.192ZM376.271 172.937C376.271 172.937 370.435 175.597 370.656 182.837C369.179 189.856 368.366 196.875 368.366 196.875C368.366 196.875 361.421 204.707 359.352 207.588C357.21 210.396 354.033 216.085 352.924 217.636C351.742 219.114 347.162 224.138 347.235 226.059C347.383 227.906 346.201 236.255 350.782 237.142C351.964 237.659 355.732 227.537 355.732 227.537C355.732 227.537 355.954 223.252 354.624 222.365C353.368 221.626 357.431 218.819 357.431 218.819L367.036 211.652C368.809 210.174 373.612 204.855 373.612 204.855L376.271 172.937Z" fill="#FFC6B5" stroke="black" stroke-width="0.664947"/>
<path d="M382.995 167.396C382.995 167.396 384.473 171.533 387.871 170.795C391.27 170.056 395.259 166.953 395.259 166.953C395.259 166.953 398.436 166.805 398.88 167.322C399.323 167.765 407.45 175.597 407.155 178.035C406.933 180.547 403.46 179.808 402.131 181.434C400.875 183.059 398.732 187.197 399.323 190.3C399.914 193.255 401.687 197.245 401.466 198.796C401.244 200.274 399.988 200.791 399.988 201.604C399.988 202.343 401.022 203.82 401.022 205.298C401.022 206.849 399.545 209.066 399.84 210.617C400.062 212.095 400.136 216.528 400.136 216.528L399.84 237.215C399.84 237.215 401.022 237.88 401.096 239.062C401.244 240.171 409.076 274.231 409.076 274.231C409.076 274.231 408.706 275.339 407.893 275.191C407.081 275.043 411.07 280.437 411.144 281.988C411.292 283.466 415.282 295.435 415.134 297.061C415.06 298.686 414.395 302.38 414.1 302.454C413.73 302.602 416.686 309.99 416.168 311.098C415.725 312.28 410.997 312.207 410.997 312.207L409.667 311.911C409.667 311.911 409.741 313.463 408.854 313.61C407.893 313.684 401.022 313.241 401.022 313.241C401.022 313.241 399.028 316.27 397.845 316.196C396.663 316.049 395.112 313.98 394.816 314.275C394.447 314.645 395.851 316.64 395.555 317.231C395.112 317.822 389.201 319.078 388.019 316.27C386.837 313.463 388.758 314.201 388.314 313.61C388.019 313.019 385.359 311.468 384.473 311.911C383.734 312.428 386.615 313.093 386.467 314.275C386.394 315.457 383.882 317.231 382.995 317.231C382.034 317.231 379.818 312.872 376.493 313.315C373.242 313.832 371.174 314.645 371.174 314.645C371.174 314.645 367.258 316.27 365.632 315.901C364.007 315.605 363.268 314.275 363.268 313.61C363.268 312.872 364.45 309.842 364.376 308.882C364.229 307.995 363.268 307.035 363.268 305.631C363.268 304.153 366.002 299.425 366.002 299.425L365.854 277.851C365.854 277.851 363.416 277.851 363.268 276.373C363.194 274.896 367.036 242.313 367.701 240.171L369.77 230.566C369.77 230.566 367.997 231.452 367.849 230.566C367.775 229.827 373.168 211.209 373.168 211.209C373.168 211.209 374.055 201.899 374.055 199.461C374.055 197.023 373.612 193.624 373.612 193.624C373.612 193.624 368.809 191.556 368.662 188.453C368.218 183.502 373.242 180.769 373.833 179.143L376.198 172.494C376.198 172.494 378.784 168.061 382.995 167.396Z" fill="white" stroke="black" stroke-width="0.664947"/>
<path d="M381.222 316.049C381.222 316.049 369.844 321.959 368.218 322.477C366.593 322.92 365.558 320.482 367.184 320.038C368.809 319.521 371.395 319.3 371.395 319.3C371.395 319.3 367.553 316.27 367.701 316.123L373.021 314.202C373.168 314.202 374.646 317.157 375.68 317.009C377.148 316.297 378.535 315.43 379.818 314.423L381.222 316.049Z" fill="#FFC72C" stroke="black" stroke-width="0.664947"/>
<path d="M397.18 319.299C398.289 320.703 398.658 323.068 401.17 321.664C403.608 320.26 399.914 317.674 399.914 317.674L397.18 319.299Z" fill="#FFC6B5" stroke="black" stroke-width="0.664947"/>
<path d="M401.687 319.078C401.687 319.078 402.869 320.038 403.904 318.93C404.938 317.896 401.835 315.679 401.835 315.679L400.283 317.452L401.687 319.078ZM406.711 178.626C406.859 178.626 410.553 190.152 411.07 193.107C411.514 196.063 413.065 207.736 412.474 209.362C411.883 210.987 405.899 218.819 405.234 220.813C404.495 222.808 400.283 230.418 400.283 230.418C400.283 230.418 399.249 237.954 398.806 238.25C398.289 238.619 399.988 240.466 399.84 241.057C399.618 241.796 396.442 245.047 395.038 244.752C393.56 244.382 391.344 242.757 391.344 241.205C391.122 239.727 391.344 234.63 392.452 233.374C393.486 232.044 399.027 219.114 399.323 218.301C399.692 217.415 404.347 207.219 404.495 205.52C404.643 203.746 403.017 199.683 401.392 198.205C397.698 187.344 399.175 180.843 406.711 178.626Z" fill="#FFC6B5" stroke="black" stroke-width="0.664947"/>
<path d="M379.153 145.527C379.153 145.527 381.813 145.896 383.217 145.083C384.62 144.271 386.246 143.901 387.428 145.527C388.61 147.152 389.423 147.004 389.423 147.004C389.423 147.004 387.65 151.437 389.423 151.881C391.122 152.324 392.009 152.324 392.082 152.915C392.23 153.506 390.605 154.762 391.048 155.353C391.491 155.944 392.304 156.609 392.452 157.126C392.526 157.57 391.418 159.564 391.713 160.082C392.082 160.525 393.191 162.372 393.856 162.372C394.595 162.372 394.077 165.327 396.22 164.588C398.289 163.85 398.215 162.003 398.215 162.003C398.215 162.003 400.431 161.707 401.022 159.712C401.539 157.717 402.943 157.2 402.943 157.2C402.943 157.2 405.751 155.723 402.057 153.358C402.057 136.956 391.27 138.729 391.27 138.729C391.27 138.729 390.014 135.774 387.871 136.144C385.802 136.513 385.655 138.951 384.177 138.729C382.625 138.508 382.256 137.473 382.182 137.547C382.034 137.695 380.704 140.059 380.704 140.577C380.704 141.168 376.641 139.838 377.01 142.793C377.38 145.896 379.375 145.748 379.227 145.527H379.153Z" fill="#9C5100" stroke="black" stroke-width="0.664947"/>
<path d="M398.215 171.977C398.215 171.977 387.797 178.626 388.019 180.991M400.579 173.159C400.579 173.159 398.215 175.745 398.067 175.745M403.682 175.966C403.682 175.966 398.51 180.178 399.323 182.838M379.375 171.386C379.375 171.386 377.823 174.563 378.192 175.597C378.488 176.631 381.148 180.621 381.443 183.059C381.813 185.571 381.443 187.271 381.443 187.271M376.641 177.223C376.641 177.223 377.084 180.917 377.823 181.655C378.562 182.394 380.409 185.571 380.631 186.827M375.68 192.812C375.68 192.812 378.783 194.289 381.591 188.453M386.098 184.389C386.024 184.389 383.881 190.078 387.649 192.221C391.344 194.363 394.225 194.068 395.777 193.477C397.476 192.96 399.249 191.851 399.249 191.851M384.472 191.408C384.472 191.408 384.694 199.092 396.072 206.702M384.99 198.649C384.99 198.649 384.842 205.446 389.275 208.475M382.625 190.669C382.625 190.669 379.227 200.791 376.493 201.752M381.591 198.058C381.591 198.058 381.443 205.298 380.483 207.884M379.596 209.657C379.596 209.657 381.887 212.612 384.472 212.317C387.058 212.095 388.167 209.066 389.866 209.509C391.639 210.027 393.265 211.43 397.328 211.061M391.491 214.09C391.491 214.09 391.491 220.075 392.6 220.666C393.634 221.257 393.117 226.724 393.117 226.724M377.232 211.283C377.232 211.283 377.084 216.898 376.419 218.893C375.68 220.887 374.277 224.286 374.572 227.241M370.065 230.492C370.656 230.271 372.651 228.497 372.651 228.497M373.686 229.753C373.686 229.753 368.662 251.327 370.065 264.183M374.868 230.862C374.868 230.862 372.282 246.968 373.464 250.071M373.612 230.344L383.438 231.083M384.842 229.753C384.842 229.753 387.502 231.231 391.27 230.935M383.66 237.659C383.66 237.659 383.216 265.217 382.478 271.349M398.067 243.939C398.067 243.939 401.096 268.172 402.869 270.389M392.23 246.968C392.23 246.968 394.077 268.394 395.186 270.315M365.632 277.777C365.632 277.777 369.326 276.595 372.577 273.123C376.271 278.147 382.034 273.344 382.034 273.344C382.034 273.344 390.9 279.403 394.89 272.605C401.022 276.595 404.051 272.014 404.051 272.014C404.051 272.014 406.268 275.413 407.893 275.044M398.215 277.408C398.215 277.408 402.722 298.834 409.519 304.892" stroke="black" stroke-width="0.664947"/>
<path d="M374.72 275.191C374.72 275.191 375.237 293.071 376.272 305.705M373.833 295.435C373.833 295.435 373.242 307.109 372.577 307.996M366.962 309.104C366.962 309.104 368.218 314.202 374.646 309.473C381.074 304.819 381.222 311.246 381.443 311.911C381.665 312.65 382.699 317.674 385.137 313.463M390.309 306.592C390.309 306.592 389.275 316.935 398.51 309.399C407.746 301.789 409.297 309.252 409.593 311.616M390.457 141.537C390.457 141.537 389.644 146.709 395.112 146.192C394.373 149.073 396.589 149.96 396.589 149.96M400.579 153.137C400.727 153.137 403.091 154.614 400.579 156.535M392.674 157.2C392.674 157.2 393.856 158.678 395.112 158.309C396.442 157.939 398.51 159.565 398.51 159.565C398.51 159.565 400.284 160.156 400.505 159.786M385.507 161.633C385.507 161.633 389.497 163.185 392.156 156.905M378.193 154.984L380.483 155.132M352.186 228.867L352.407 233.965M347.383 228.424C347.383 228.424 350.708 233.965 350.339 236.846" stroke="black" stroke-width="0.664947"/>
<path d="M378.488 157.348H380.631L378.784 158.161M391.491 239.949C391.491 239.949 393.93 239.654 393.856 243.791C395.407 238.619 398.584 238.546 398.584 238.546" stroke="black" stroke-width="0.664947" stroke-linejoin="round"/>
<path d="M381.443 150.772C381.813 150.772 383.069 150.329 383.29 150.699C383.586 150.994 381.887 151.29 381.443 150.772Z" stroke="black" stroke-width="1.25601" stroke-linejoin="round"/>
<path d="M383.069 357.127C413.91 355.666 442.963 342.227 464.044 319.669C463.749 319.373 470.62 309.768 476.087 311.098C481.555 312.502 489.46 328.609 499.065 332.081C503.867 339.617 497.735 346.488 495.666 347.818C493.598 349.222 484.288 352.99 482.959 347.523C481.555 341.981 478.821 343.09 478.821 343.09C478.821 343.09 434.861 385.942 384.103 384.242C331.646 384.538 288.351 343.016 288.351 343.016L284.583 347.153C284.583 347.153 280.445 351.586 278.376 351.291C276.308 350.921 267.368 345.084 266.703 339.248C265.964 333.411 272.17 329.643 272.17 329.643C272.17 329.643 287.316 317.969 289.016 311.837C292.488 308.365 298.99 314.201 298.99 314.201C298.99 314.201 338.813 359.861 383.069 357.053V357.127Z" fill="#FFC72C" stroke="black" stroke-width="1.40378"/>
<path d="M271.21 330.53C271.21 330.53 275.274 329.495 276.751 331.194C278.229 332.894 288.572 343.016 288.572 343.016" stroke="black" stroke-width="1.40378"/>
<path d="M280.519 335.332L276.382 338.361C276.382 338.361 286.725 340.43 284.361 347.227M495.371 330.234C495.371 330.234 493.376 329.126 490.199 331.49C486.948 333.928 478.895 342.942 478.895 342.942" stroke="black" stroke-width="1.40378"/>
<path d="M486.209 335.036L490.642 338.435C490.642 338.435 481.407 339.1 483.402 347.818" stroke="black" stroke-width="1.40378"/>
<path d="M323.519 341.464C323.224 342.203 322.485 341.464 321.894 341.612C320.416 341.612 319.086 342.646 317.756 343.385L304.162 351.291C303.718 351.143 303.792 350.773 303.94 350.404L307.634 333.411C307.782 332.451 308.078 331.195 307.117 330.456C306.748 330.16 307.339 329.643 307.634 330.16L314.579 335.11C314.358 335.775 313.914 335.258 313.545 335.036C312.584 334.076 311.402 334.963 311.476 336.145L308.964 347.301C312.067 345.528 315.17 343.755 318.273 341.834C319.308 341.39 320.12 339.913 319.012 339.026C318.569 338.731 317.83 338.066 318.569 337.918L323.519 341.464ZM328.395 365.107C328.248 365.55 328.026 365.624 327.657 365.328L319.529 360.895C319.603 360.378 319.825 360.304 320.194 360.6C320.933 361.117 322.115 361.339 322.706 360.452L325.662 355.059L329.799 347.523C330.39 346.562 329.725 345.454 328.839 345.084C328.543 344.937 328.1 344.789 328.469 344.493C328.617 344.272 329.06 344.715 329.282 344.789L337.114 349.074C337.04 349.517 336.818 349.591 336.449 349.296C335.71 348.779 334.528 348.557 333.937 349.444L330.981 354.837L326.844 362.373C326.253 363.26 326.918 364.442 327.804 364.811L328.395 365.107ZM359.87 357.718L357.653 363.925C356.693 363.851 357.357 362.669 357.062 362.078C356.915 360.663 356.342 359.326 355.419 358.244C354.495 357.162 353.265 356.386 351.89 356.019C349.674 355.428 347.457 356.536 346.127 358.31C344.198 360.938 343.069 364.068 342.876 367.323C342.809 368.251 342.993 369.18 343.409 370.012C343.825 370.845 344.458 371.549 345.241 372.052C346.543 372.865 348.067 373.253 349.6 373.16L351.151 368.505C351.373 367.471 350.265 366.806 349.452 366.584C349.304 366.289 349.6 365.846 349.969 366.215L358.096 369.17C358.096 370.131 356.914 369.023 356.249 369.466C355.289 369.835 355.215 371.017 354.772 371.904L353.811 374.712C350.117 374.933 346.423 374.194 343.172 372.347C340.143 370.426 338 366.658 338.665 362.964C339.108 359.787 341.103 356.832 343.985 355.428C346.644 353.95 349.895 354.024 352.703 355.133C354.181 355.65 355.51 356.61 356.693 357.645C357.431 358.605 358.761 358.605 359.352 357.571L359.87 357.718ZM373.095 378.997C373.095 379.292 373.095 379.662 372.651 379.44L363.342 378.036C363.342 377.667 363.342 377.371 363.785 377.593C364.524 377.741 365.706 377.741 366.002 376.854C366.445 375.598 366.519 374.268 366.741 373.012L368.366 362.225C368.588 361.487 368.366 360.6 367.553 360.304C367.036 360.083 366.593 360.083 366.076 359.935C366.076 359.639 366.076 359.344 366.519 359.492L375.828 360.969C375.828 361.265 375.828 361.56 375.385 361.413C374.646 361.191 373.538 361.265 373.168 362.151C372.725 363.334 372.651 364.664 372.43 365.92L370.804 376.706C370.583 377.445 370.804 378.406 371.691 378.701L373.168 378.997H373.095ZM398.363 372.938L397.993 379.514L381.296 380.327C381.222 379.957 381.296 379.736 381.739 379.81C382.552 379.81 383.66 379.44 383.808 378.48L383.586 373.603L383.069 363.703C383.143 362.743 382.33 362.004 381.369 362.078C381.074 361.93 380.261 362.373 380.335 361.856C380.187 361.413 380.852 361.634 381.074 361.56L390.383 361.043C390.383 361.487 390.383 361.708 389.866 361.634C389.053 361.634 387.945 361.782 387.65 362.816C387.576 364.22 387.723 365.624 387.797 367.028L388.314 377.371C388.314 378.184 389.053 378.997 389.94 378.849C391.27 378.775 392.674 378.849 394.003 378.48C395.851 377.962 396.811 376.115 397.328 374.416C397.698 373.973 397.328 372.791 398.067 372.938H398.363ZM411.292 356.832C410.849 356.832 411.07 357.423 410.923 357.718C410.184 363.26 409.519 368.801 408.706 374.268C408.558 375.524 408.263 376.928 407.081 377.519C406.637 377.741 407.007 378.406 407.45 378.036L412.991 376.337C412.918 375.45 411.809 376.337 411.218 376.115C409.962 376.115 409.741 374.564 409.962 373.603C409.962 372.865 410.11 372.273 410.184 371.609L416.538 369.688C417.35 370.722 418.237 371.682 418.976 372.791C419.567 373.825 418.237 374.268 417.498 374.49C417.055 374.49 417.351 375.229 417.72 374.933L426.069 372.421C426.069 371.461 424.887 372.421 424.369 371.682C422.744 370.574 421.636 368.949 420.38 367.471L411.292 356.832ZM411.292 363.481L415.725 368.875L410.332 370.5L411.292 363.481ZM439.811 344.42L442.249 348.853C441.51 349.591 441.067 348.04 440.402 347.818C439.85 347.336 439.16 347.04 438.43 346.974C437.7 346.907 436.968 347.074 436.338 347.449L434.861 348.261L442.101 361.782C442.471 362.89 443.875 363.112 444.835 362.521C445.131 362.225 445.5 362.078 445.574 362.595C444.392 363.334 442.988 363.999 441.732 364.663L436.929 367.249C436.56 366.88 436.782 366.658 437.225 366.511C437.486 366.416 437.721 366.262 437.911 366.06C438.101 365.858 438.242 365.615 438.321 365.349C438.4 365.083 438.415 364.802 438.366 364.529C438.317 364.256 438.205 363.999 438.038 363.777L430.871 350.478C429.541 351.217 427.916 351.808 427.546 353.433C427.177 354.542 427.694 355.798 427.694 356.684C427.325 357.127 427.177 356.536 426.955 356.241L424.96 352.399L439.811 344.42ZM451.115 337.696L455.696 343.829C456.73 343.09 457.617 341.908 457.321 340.578C457.469 339.543 455.991 338.361 456.508 337.622C456.804 337.475 457.026 338.213 457.247 338.435L462.567 345.454C461.828 346.193 461.385 344.641 460.646 344.42C459.612 343.681 458.208 343.311 457.1 344.124C456.287 344.42 456.361 344.863 456.878 345.38C458.06 346.932 459.242 348.631 460.572 350.182C461.311 350.921 462.345 350.182 463.01 349.591C464.783 348.409 466.335 346.488 466.261 344.272C466.409 343.237 465.744 342.203 465.744 341.316C466.187 340.799 466.261 341.612 466.483 341.908L468.995 346.341L455.991 356.167C455.474 355.798 455.991 355.502 456.361 355.28C457.543 354.542 457.173 352.99 456.361 352.177L447.938 341.169C447.199 340.208 445.869 340.725 445.204 341.39C444.835 341.834 444.466 341.021 444.983 340.947L457.173 331.712L460.498 336.145C459.759 336.884 459.021 335.184 458.208 335.11C456.582 334.224 454.661 334.889 453.332 335.997L451.041 337.696" fill="black"/>
<path d="M0.5 0H256.5V256H0.5V0Z" fill="#012169"/>
<path d="M256.5 0V32L161.5 128L256.5 221.5V256H223L127.5 162L34.5 256H0.5V222L93.5 128.5L0.5 37V0H31.5L127.5 94L220.5 0H256.5Z" fill="white"/>
<path d="M92.5 162L98 179L21.5 256H0.5V254.5L92.5 162ZM154.5 156L181.5 160L256.5 233.5V256L154.5 156ZM256.5 0L160.5 98L158.5 76L233.5 0H256.5ZM0.5 0.5L97 95L67.5 91L0.5 24.5V0.5Z" fill="#C8102E"/>
<path d="M88.5 0V256H168.5V0H88.5ZM0.5 88V168H256.5V88H0.5Z" fill="white"/>
<path d="M0.5 104V152H256.5V104H0.5ZM104.5 0V256H152.5V0H104.5Z" fill="#C8102E"/>
</g>
<defs>
<linearGradient id="paint0_linear_103_768" x1="313.768" y1="148.119" x2="305.364" y2="146.88" gradientUnits="userSpaceOnUse">
<stop stop-color="#FF0000"/>
<stop offset="1" stop-color="#FFFF00"/>
</linearGradient>
<linearGradient id="paint1_linear_103_768" x1="313.177" y1="178.633" x2="304.773" y2="177.394" gradientUnits="userSpaceOnUse">
<stop stop-color="#FF0000"/>
<stop offset="1" stop-color="#FFFF00"/>
</linearGradient>
<linearGradient id="paint2_linear_103_768" x1="312.955" y1="208.703" x2="304.551" y2="207.464" gradientUnits="userSpaceOnUse">
<stop stop-color="#FF0000"/>
<stop offset="1" stop-color="#FFFF00"/>
</linearGradient>
<linearGradient id="paint3_linear_103_768" x1="332.682" y1="241.285" x2="324.278" y2="240.047" gradientUnits="userSpaceOnUse">
<stop stop-color="#FF0000"/>
<stop offset="1" stop-color="#FFFF00"/>
</linearGradient>
<linearGradient id="paint4_linear_103_768" x1="310.369" y1="267.957" x2="301.966" y2="266.718" gradientUnits="userSpaceOnUse">
<stop stop-color="#FF0000"/>
<stop offset="1" stop-color="#FFFF00"/>
</linearGradient>
<linearGradient id="paint5_linear_103_768" x1="310.96" y1="299.431" x2="302.557" y2="298.193" gradientUnits="userSpaceOnUse">
<stop stop-color="#FF0000"/>
<stop offset="1" stop-color="#FFFF00"/>
</linearGradient>
<linearGradient id="paint6_linear_103_768" x1="421.859" y1="148.636" x2="413.455" y2="147.397" gradientUnits="userSpaceOnUse">
<stop stop-color="#FF0000"/>
<stop offset="1" stop-color="#FFFF00"/>
</linearGradient>
<linearGradient id="paint7_linear_103_768" x1="420.824" y1="178.559" x2="412.421" y2="177.32" gradientUnits="userSpaceOnUse">
<stop stop-color="#FF0000"/>
<stop offset="1" stop-color="#FFFF00"/>
</linearGradient>
<linearGradient id="paint8_linear_103_768" x1="419.495" y1="209.22" x2="411.091" y2="207.981" gradientUnits="userSpaceOnUse">
<stop stop-color="#FF0000"/>
<stop offset="1" stop-color="#FFFF00"/>
</linearGradient>
<linearGradient id="paint9_linear_103_768" x1="421.046" y1="239.291" x2="412.642" y2="238.052" gradientUnits="userSpaceOnUse">
<stop stop-color="#FF0000"/>
<stop offset="1" stop-color="#FFFF00"/>
</linearGradient>
<linearGradient id="paint10_linear_103_768" x1="420.677" y1="269.435" x2="412.273" y2="268.196" gradientUnits="userSpaceOnUse">
<stop stop-color="#FF0000"/>
<stop offset="1" stop-color="#FFFF00"/>
</linearGradient>
<linearGradient id="paint11_linear_103_768" x1="420.824" y1="299.727" x2="412.421" y2="298.488" gradientUnits="userSpaceOnUse">
<stop stop-color="#FF0000"/>
<stop offset="1" stop-color="#FFFF00"/>
</linearGradient>
<clipPath id="clip0_103_768">
<rect width="512" height="512" fill="white" transform="translate(0.5)"/>
</clipPath>
</defs>
</svg>
