<svg width="513" height="512" viewBox="0 0 513 512" fill="none" xmlns="http://www.w3.org/2000/svg">
<g clip-path="url(#clip0_103_881)">
<path d="M0.5 0H512.5V512H0.5V0Z" fill="white"/>
<path d="M164 316C164 316 163.6 313.1 168.9 311C174.2 309 174.6 301.3 173.6 296.2C173.6 296.2 170.8 301.1 167.4 302.7C167.4 302.7 161.9 305.6 161.6 311.1C161.6 311.1 161.6 313.1 161.2 314.6C161 315.5 158.5 307.8 163.2 302C167.9 296.1 169.2 291.3 165.5 282C165.5 282 165.1 287.6 161.4 290.9C157.6 294.1 157.2 294.4 157.2 302.1C157.2 302.1 157.2 304.8 155.9 305.7C155.9 305.7 152.9 301.4 152.2 298.7C151.4 295.8 151.1 294.7 154.4 291.4C154.4 291.4 165 284.5 157.4 269.4C157.4 269.4 157.1 274.7 153.4 277.7C149.8 280.7 150.1 282.8 149.9 288.1C149.7 293.4 149.3 293.1 148.9 293.8C148.9 293.8 142.2 281.4 147.4 274.8C152.6 268.2 155.5 266.8 149.8 254.5C149.8 254.5 150 260.8 145.4 263.9C140.8 267 141.9 274.4 141.9 274.4C141.9 274.4 142.2 277.1 141.2 279.1C141.2 279.1 134.7 266.4 140.9 259.6C146.2 253.8 146.6 249.7 143.7 241.5C143.7 241.5 143.4 245.3 140.5 247.4C137.5 249.4 135.3 251.4 135.8 259.4C135.8 259.4 136 264.9 135.3 266.4C135.3 266.4 132.6 261.4 131.8 258.1C131.1 254.8 130.8 252.9 132.8 249.6C134.8 246.3 142.8 236.8 133.2 223.2C133.2 223.2 132.9 227.6 130.5 231.6C128.1 235.6 129.2 240.3 129.7 243.9C130.3 247.5 128.5 251 128.5 251C128.5 251 124.4 243.4 125.2 234.7C126.2 226 122.6 218.7 114.5 213.7C114.5 213.7 108.7 227.2 116.7 234.1C116.7 234.1 123.5 240.9 125.2 249.1C125.2 249.1 120 248.5 115.4 239.4C110.7 230.4 101 231.8 100.4 231.7C100.4 231.7 101.9 245.7 116.8 249.7C116.8 249.7 126.4 251.4 128.1 258.4C128.1 258.4 129.7 263.2 130.4 265.8C130.4 265.8 127.4 264.6 124.6 260.5C121.8 256.3 122.2 255.8 112.8 254.9C112.8 254.9 109 254.5 107 251.8C107 251.8 111 266.7 121.1 266.6C121.1 266.6 130.4 265.6 135.6 277.8L133.2 276.2C131.9 275.2 128.4 273.5 121.6 274.4C114.8 275.3 112.9 274 111.2 273.4C111.2 273.4 118.1 286.1 127.8 282.4C137.5 278.6 142.2 292.2 142.3 292.5C142.3 292.5 141 291.5 139.3 289.8C137.6 288.1 134 286.1 127.3 288.2C127.3 288.2 122.4 290.1 117.5 288.6C117.5 288.6 122.2 297.7 133.3 296.2C144.3 294.6 147.2 304.4 147.2 304.4L144.7 302.7C143.7 301.9 139.9 299.7 131.9 302.1C123.9 304.5 121 301.7 121 301.7C121 301.7 125.5 309.8 134 310.7C134 310.7 138.7 310.7 140.8 310C142.731 309.183 144.886 309.065 146.895 309.667C148.903 310.27 150.638 311.555 151.8 313.3C151.8 313.3 150.8 313.5 149.2 312.8C149.2 312.8 143.5 310.8 139.2 314.4C139.2 314.4 135.4 318.4 129.9 317.6C129.9 317.6 136.9 324.4 148.2 318.6C148.2 318.6 152 315.9 154.7 318C157.5 320.1 164 316 164 316Z" fill="#369443" stroke="#010002" stroke-width="1.2" stroke-miterlimit="10"/>
<path d="M226.3 147C226.3 147 225 135.3 234.3 134.2C243.9 133.1 248.7 135.1 248.7 135.1L253 143.6L251.5 149.4L245.5 152.1C245.5 152.1 246.5 143.3 238.5 143.1C236.5 143.1 235.2 143.9 232 143.4C228.7 142.8 227 146.4 226.3 146.9V147Z" fill="#F4C53D" stroke="#010002" stroke-width="1.2" stroke-miterlimit="10"/>
<path d="M291.5 175.7C290.1 177.5 284.6 178.1 284.6 178.1C284.6 178.1 290.3 182.4 292.7 188.7C295.2 194.9 226.9 188.7 226.9 188.7C226.9 188.7 229.9 186.6 231.9 182.7C231.9 182.7 228.9 183.7 225.8 180.7C225.8 180.7 228.1 181.5 231 177C231 177 235.4 171.4 238.5 169.9C238.5 169.9 237 170.8 233.6 168.9C233.6 168.9 239.6 168.1 241.6 158C241.6 158 242 155.8 244.3 152.5C246.5 149.3 246 153.2 250.2 148.2C250.2 148.2 252.1 144.6 250.4 142.5C248.7 140.4 247 141.1 243.5 139C240 136.9 238.5 135.8 239.7 132.6C240.9 129.4 243.9 129.9 244.4 129.9C244.8 129.9 245.1 127.1 248.8 125.2C253.812 123.714 259.134 123.61 264.2 124.9C265.7 125.8 271.8 127.6 275.3 136.5C278.9 145.5 274.3 148.9 284.1 162.5C284.1 162.5 280.1 163.3 277.7 162.5C277.7 162.5 282.7 171.5 291.5 175.7Z" fill="#F4C53D" stroke="#010002" stroke-width="1.2" stroke-miterlimit="10"/>
<path d="M249.2 137.8C241.4 137.4 244.4 129.9 244.4 129.9" stroke="#010002" stroke-width="1.2" stroke-miterlimit="10"/>
<path d="M262.9 138.8C262.9 138.8 261.5 138.1 260.4 136.6C258.7 134.4 255 133.4 253 135.4C253 135.4 251 137.7 249.2 137.8C249.2 137.8 251.2 138.4 252.6 139.7C254 141 255.5 141.9 257.6 141.7C259.6 141.3 260 140.2 260.9 139.6C261.9 138.9 262.9 138.8 262.9 138.8Z" fill="#F4C53D" stroke="#010002" stroke-width="1.2" stroke-miterlimit="10"/>
<path d="M162.8 333.2C162.8 333.2 162.6 328.2 169 327.7L187.8 353.9C187.8 353.9 187.1 355.6 178.6 355.4C178.6 355.4 177.6 355.4 177.2 356.4C176.5 358 162.8 333.2 162.8 333.2Z" fill="#369443" stroke="#010002" stroke-width="1.2" stroke-miterlimit="10"/>
<path d="M183.458 302.744C183.458 302.744 177.448 313.053 170.185 313.222C170.185 313.222 157.696 311.704 154.167 314.968C151.698 317.244 149.181 319.123 148.145 324.941C147.133 330.758 150.132 332.01 150.843 332.263C150.843 332.263 151.397 336.419 155.504 335.335C155.504 335.335 155.745 339.67 162.995 337.587C170.258 335.503 173.269 336.166 174.678 328.939C176.111 321.701 177.424 321.821 178.713 320.954C180.447 319.786 183.711 318.69 186.132 317.293C188.3 316.04 196.634 311.801 199.476 311.475C202.319 311.138 201.692 301.575 201.692 301.575H194.346L190.793 296.336L183.446 302.744H183.458ZM206.582 251.027C206.582 251.027 199.235 257.012 193.069 251.027C193.069 251.027 190.588 254.013 185.602 253.146C180.64 252.267 179.809 249.654 179.339 248.16C179.339 248.16 175.027 250.665 171.39 248.678C167.777 246.703 167.777 243.704 167.777 243.704C167.777 243.704 161.453 244.956 158.214 240.669C154.974 236.393 156.949 232.154 158.695 231.648C158.695 231.648 151.866 233.442 150 227.577C149.503 226.267 149.426 224.835 149.78 223.48C150.134 222.124 150.901 220.913 151.975 220.013C151.975 220.013 137.594 219.941 131.693 215.437C131.693 215.437 126.791 212.353 129.718 209.113C129.718 209.113 116.77 207.042 113.53 201.887C113.53 201.887 112.109 200.466 112.579 197.973C112.579 197.973 112.663 196.564 114.084 196.479C114.084 196.479 99.3185 194.191 95.0549 189.325C95.0549 189.325 93.0074 187.085 94.0311 184.086C94.0311 184.086 94.2479 183.303 94.5972 182.761C94.5972 182.761 81.1561 179.931 74.5319 173.945C74.5319 173.945 70.7019 170.537 72.6771 165.96C72.6771 165.96 50.2151 159.817 55.4181 149.917C55.4181 149.917 44.9157 146.509 48.2398 137.03C48.2398 137.03 39.5561 132.622 43.3379 125.636C46.9632 118.952 58.1039 126.805 71.28 130.454C71.28 130.454 106.978 141.679 124.551 144.666L174.485 219.014L203.62 230.239L206.57 251.027H206.582Z" fill="#F4C53D" stroke="#010002" stroke-width="1.2044"/>
<path d="M206.932 196.275C206.932 196.275 202.247 192.758 193.9 196.889C193.9 196.889 191.094 198.828 188.878 196.708C188.397 196.25 188.024 195.69 187.786 195.07C187.548 194.45 187.45 193.785 187.499 193.123C187.549 192.461 187.745 191.818 188.072 191.24C188.4 190.663 188.852 190.165 189.396 189.783C195.622 185.17 197.923 171.331 188.456 165.587C188.456 165.587 174.726 157.445 124.346 144.63C124.346 144.63 120.131 143.45 117.866 144.016C116.771 144.295 115.771 144.866 114.974 145.667C114.177 146.469 113.611 147.471 113.338 148.568C113.338 148.568 111.074 154.988 118.661 158.661C118.661 158.661 122.082 160.227 125.611 161.239C125.611 161.239 121.732 160.396 120.07 164.226C118.505 167.887 120.793 171.633 127.899 174.041C127.899 174.041 129.826 174.788 132.56 175.451C132.56 175.451 126.478 177.197 129.404 182.111C129.404 182.111 132.006 187.266 141.208 188.181C141.208 188.181 134.343 188.928 139.184 195.456C139.184 195.456 141.316 199.033 148.025 200.358C148.025 200.358 142.942 200.526 145.495 205.091C148.073 209.668 154.107 212.245 160.056 212.667C160.056 212.667 163.272 212.835 165.524 212.329C165.524 212.329 159.864 215.16 163.188 219.893C163.188 219.893 165.633 223.265 171.751 223.097C171.751 223.097 170.173 228.396 174.654 230.395C178.147 231.961 181.049 229.456 181.049 229.456C181.049 229.456 179.869 235.129 184.963 237.128C184.963 237.128 187.505 238.441 191.299 237.128C191.299 237.128 194.189 243.62 204.499 239.055C214.808 234.514 206.932 196.287 206.932 196.287V196.275ZM207.534 255.218C207.534 255.218 206.028 263.336 194.045 273.549C194.045 273.549 184.795 281.703 185.024 291.097C185.265 300.672 183.374 301.744 179.736 304.984C179.736 304.984 187.24 305.574 190.865 300.576C190.865 300.576 190.708 308.886 189.6 309.645C189.6 309.645 191.961 309.789 195.369 306.068C195.369 306.068 197.417 303.9 199.32 303.069C199.32 303.069 197.104 308.814 198.838 314.137C198.838 314.137 199.392 312.054 202.319 311.138C202.319 311.138 207.618 310.054 209.666 302.406C209.666 302.406 211.003 297.348 219.301 292.843C219.301 292.843 228.695 289.302 228.454 284.678C228.213 280.041 207.546 255.218 207.546 255.218H207.534Z" fill="#F4C53D" stroke="#010002" stroke-width="1.2044"/>
<path d="M251.085 359.868C251.085 359.868 248.929 369.359 241.45 368.6C241.45 368.6 236.162 368.094 236.56 359.278C236.56 359.278 228.743 363.445 227.479 353.136C227.479 353.136 220.373 354.786 220.457 345.151C220.457 345.151 213.833 346.307 214.616 337.743C214.616 337.743 207.425 339.671 207.425 331.601C207.425 331.601 190.612 328.807 225.66 296.842L256.926 315.462L251.085 359.868Z" fill="#F4C53D" stroke="#010002" stroke-width="1.2044" stroke-miterlimit="10"/>
<path d="M254.566 317.245C254.566 317.245 249.351 321.869 245.641 314.956C245.641 314.956 240.582 314.715 239.8 310.885C239.8 310.885 235.693 310.476 234.898 306.561C234.898 306.561 229.297 305.983 229.454 301.25C229.454 301.25 219.265 300.455 229.454 288.917C239.643 277.379 256.926 308.067 256.926 308.067L254.566 317.245ZM260.371 314.378C265.429 314.378 271.15 345.933 269.669 364.951C269.127 371.852 265.429 377.489 260.371 377.489C255.312 377.489 251.627 371.852 251.097 364.951C249.603 345.933 255.324 314.378 260.371 314.378Z" fill="#F4C53D" stroke="#010002" stroke-width="1.2044"/>
<path d="M260.371 324.495C264.229 324.495 267.356 319.858 267.356 314.137C267.356 308.417 264.229 303.779 260.371 303.779C256.513 303.779 253.385 308.417 253.385 314.137C253.385 319.858 256.513 324.495 260.371 324.495Z" fill="#F4C53D" stroke="#010002" stroke-width="1.2044"/>
<path d="M236.56 359.278C236.56 359.278 237.355 342.573 251.832 318.617M227.479 353.136C227.479 353.136 225.226 343.488 245.641 314.956C245.641 314.956 243.268 308.151 250.531 303.779M220.457 345.15C220.457 345.15 219.819 334.708 239.8 310.885C239.8 310.885 238.029 304.743 245.268 299.829M214.616 337.743C214.616 337.743 215.362 327.193 234.898 306.561C234.898 306.561 233.934 300.25 240.92 296.336M207.438 331.601C207.438 331.601 208.847 319.545 229.454 301.25C229.454 301.25 228.743 296.505 235.608 291.687" stroke="#010002" stroke-width="1.2044" stroke-miterlimit="10"/>
<path d="M48.2397 137.03C48.2397 137.03 64.4148 146.4 114.831 155.77M55.418 149.917C55.418 149.917 99.222 164.201 119.625 165.96M72.665 165.96C72.665 165.96 98.3669 174.029 128.465 179.124M94.5971 182.773C94.5971 182.773 123.623 189.747 137.498 190.903M114.084 196.479C114.084 196.479 138.642 201.598 144.857 202.212M129.717 209.113C129.717 209.113 147.639 211.835 154.769 211.691M151.975 220.001C151.975 220.001 159.225 219.664 162.706 219.086M158.683 231.648C158.683 231.648 164.85 229.986 168.475 227.661M167.764 243.704C167.764 243.704 172.51 241.873 174.798 236.887M179.339 248.16C179.339 248.16 183 244.872 183.241 241.211M193.069 251.026C193.069 251.026 191.696 249.834 192.635 244.679M191.298 237.116C191.298 237.116 190.576 235.646 190.817 233.31M165.404 163.298C165.404 163.298 173.69 166.622 176.448 171.199C179.218 175.776 177.4 180.22 176.448 182.761C175.978 184.05 170.137 195.311 177.002 203.465M165.512 212.305C165.512 212.305 165.56 212.269 168.475 211.342M148.024 200.333C148.024 200.333 152.962 201.321 157.816 201.369M141.195 188.145C141.195 188.145 147.001 188.735 152.456 188.651M132.56 175.426C132.56 175.426 140.93 177.088 145.423 177.173M125.61 161.238C125.61 161.238 135.932 164.177 143.604 165.225M160.658 171.295C160.658 171.295 153.239 178.196 162.164 184.604C162.164 184.604 158.454 190.421 165.873 196.491M163.898 199.358C163.898 199.358 162.79 210.462 176.376 210.462C176.376 210.462 173.762 220.35 186.878 220.025C186.878 220.025 188.372 227.926 197.838 226.336M176.99 313.234C176.99 313.234 174.834 313.716 170.173 313.234M157.069 319.051C157.069 319.051 150.517 318.051 150.831 332.275M161.02 322.291C161.02 322.291 155.094 321.544 155.48 335.347M218.193 289.037C218.193 289.037 215.35 289.615 213.375 291.868C211.412 294.108 207.618 293.686 207.618 293.686C207.618 293.686 209.665 292.024 210.388 287.869C211.087 283.714 213.387 282.461 213.387 282.461M206.606 278.535C206.606 278.535 203.764 279.113 201.789 281.353C199.813 283.606 196.02 283.184 196.02 283.184C196.02 283.184 198.067 281.522 198.79 277.367C199.5 273.212 201.789 271.959 201.789 271.959M204.643 294.662C204.643 294.662 202.162 295.18 200.44 297.131C198.717 299.094 195.405 298.733 195.405 298.733C195.405 298.733 197.212 297.287 197.814 293.65C198.44 290.025 200.44 288.929 200.44 288.929" stroke="#010002" stroke-width="1.2044"/>
<path d="M335.342 302.744C335.342 302.744 341.352 313.053 348.615 313.222C348.615 313.222 361.104 311.704 364.633 314.968C367.102 317.244 369.619 319.123 370.655 324.941C371.667 330.758 368.668 332.01 367.957 332.263C367.957 332.263 367.403 336.419 363.296 335.335C363.296 335.335 363.055 339.67 355.805 337.587C348.542 335.503 345.531 336.166 344.122 328.939C342.689 321.701 341.376 321.821 340.088 320.954C338.353 319.786 335.089 318.69 332.668 317.293C330.501 316.04 322.166 311.801 319.324 311.475C316.481 311.138 317.108 301.575 317.108 301.575H324.454L328.007 296.336L335.354 302.744H335.342ZM312.218 251.027C312.218 251.027 319.565 257.012 325.731 251.027C325.731 251.027 328.212 254.013 333.198 253.146C338.16 252.267 338.992 249.654 339.461 248.16C339.461 248.16 343.773 250.665 347.41 248.678C351.023 246.703 351.023 243.704 351.023 243.704C351.023 243.704 357.347 244.956 360.586 240.669C363.826 236.393 361.851 232.154 360.105 231.648C360.105 231.648 366.934 233.442 368.8 227.577C369.297 226.267 369.374 224.835 369.02 223.48C368.666 222.124 367.899 220.913 366.825 220.013C366.825 220.013 381.206 219.941 387.107 215.437C387.107 215.437 392.009 212.353 389.083 209.113C389.083 209.113 402.03 207.042 405.27 201.887C405.27 201.887 406.691 200.466 406.221 197.973C406.221 197.973 406.137 196.564 404.716 196.479C404.716 196.479 419.482 194.191 423.745 189.325C423.745 189.325 425.793 187.085 424.769 184.086C424.769 184.086 424.552 183.303 424.203 182.761C424.203 182.761 437.644 179.931 444.268 173.945C444.268 173.945 448.098 170.537 446.123 165.96C446.123 165.96 468.585 159.817 463.382 149.917C463.382 149.917 473.884 146.509 470.56 137.03C470.56 137.03 479.244 132.622 475.462 125.636C471.837 118.952 460.696 126.805 447.52 130.454C447.52 130.454 411.822 141.679 394.249 144.666L344.315 219.014L315.181 230.239L312.23 251.027H312.218Z" fill="#F4C53D" stroke="#010002" stroke-width="1.2044"/>
<path d="M311.868 196.275C311.868 196.275 316.554 192.758 324.9 196.889C324.9 196.889 327.706 198.828 329.922 196.708C330.403 196.25 330.776 195.69 331.014 195.07C331.252 194.45 331.35 193.785 331.301 193.123C331.251 192.461 331.056 191.818 330.728 191.24C330.4 190.663 329.948 190.165 329.405 189.783C323.178 185.17 320.877 171.331 330.344 165.587C330.344 165.587 344.074 157.445 394.454 144.63C394.454 144.63 398.67 143.45 400.934 144.016C402.029 144.295 403.029 144.866 403.826 145.667C404.623 146.469 405.189 147.471 405.462 148.568C405.462 148.568 407.727 154.988 400.139 158.661C400.139 158.661 396.718 160.227 393.19 161.239C393.19 161.239 397.068 160.396 398.73 164.226C400.296 167.887 398.007 171.633 390.901 174.041C390.901 174.041 388.974 174.788 386.24 175.451C386.24 175.451 392.322 177.197 389.396 182.111C389.396 182.111 386.794 187.266 377.593 188.181C377.593 188.181 384.458 188.928 379.616 195.456C379.616 195.456 377.484 199.033 370.776 200.358C370.776 200.358 375.858 200.526 373.305 205.091C370.727 209.668 364.693 212.245 358.744 212.667C358.744 212.667 355.528 212.835 353.276 212.329C353.276 212.329 358.936 215.16 355.612 219.893C355.612 219.893 353.167 223.265 347.049 223.097C347.049 223.097 348.627 228.396 344.146 230.395C340.654 231.961 337.751 229.456 337.751 229.456C337.751 229.456 338.931 235.129 333.837 237.128C333.837 237.128 331.295 238.441 327.502 237.128C327.502 237.128 324.611 243.62 314.301 239.055C303.992 234.514 311.868 196.287 311.868 196.287V196.275ZM311.266 255.218C311.266 255.218 312.772 263.336 324.756 273.549C324.756 273.549 334.005 281.703 333.776 291.097C333.536 300.672 335.427 301.744 339.064 304.984C339.064 304.984 331.56 305.574 327.935 300.576C327.935 300.576 328.092 308.886 329.2 309.645C329.2 309.645 326.839 309.789 323.431 306.068C323.431 306.068 321.383 303.9 319.48 303.069C319.48 303.069 321.696 308.814 319.962 314.137C319.962 314.137 319.408 312.054 316.481 311.138C316.481 311.138 311.182 310.054 309.134 302.406C309.134 302.406 307.798 297.348 299.499 292.843C299.499 292.843 290.105 289.302 290.346 284.678C290.587 280.041 311.254 255.218 311.254 255.218H311.266Z" fill="#F4C53D" stroke="#010002" stroke-width="1.2044"/>
<path d="M267.715 359.868C267.715 359.868 269.871 369.359 277.35 368.6C277.35 368.6 282.638 368.094 282.24 359.278C282.24 359.278 290.057 363.445 291.321 353.136C291.321 353.136 298.427 354.786 298.343 345.151C298.343 345.151 304.967 346.307 304.184 337.743C304.184 337.743 311.375 339.671 311.375 331.601C311.375 331.601 328.188 328.807 293.14 296.842L261.874 315.462L267.715 359.868Z" fill="#F4C53D" stroke="#010002" stroke-width="1.2044" stroke-miterlimit="10"/>
<path d="M264.234 317.245C264.234 317.245 269.45 321.869 273.159 314.956C273.159 314.956 278.218 314.715 279 310.885C279 310.885 283.107 310.476 283.902 306.561C283.902 306.561 289.503 305.983 289.346 301.25C289.346 301.25 299.535 300.455 289.346 288.917C279.157 277.379 261.874 308.067 261.874 308.067L264.234 317.245ZM258.429 314.378C253.371 314.378 247.65 345.933 249.131 364.951C249.673 371.852 253.371 377.489 258.429 377.489C263.488 377.489 267.173 371.852 267.703 364.951C269.197 345.933 263.476 314.378 258.429 314.378Z" fill="#F4C53D" stroke="#010002" stroke-width="1.2044"/>
<path d="M258.429 324.495C254.571 324.495 251.444 319.858 251.444 314.137C251.444 308.417 254.571 303.779 258.429 303.779C262.287 303.779 265.415 308.417 265.415 314.137C265.415 319.858 262.287 324.495 258.429 324.495Z" fill="#F4C53D" stroke="#010002" stroke-width="1.2044"/>
<path d="M282.24 359.278C282.24 359.278 281.445 342.573 266.968 318.617M291.321 353.136C291.321 353.136 293.574 343.488 273.159 314.956C273.159 314.956 275.532 308.151 268.269 303.779M298.343 345.15C298.343 345.15 298.981 334.708 279 310.885C279 310.885 280.771 304.743 273.532 299.829M304.184 337.743C304.184 337.743 303.438 327.193 283.902 306.561C283.902 306.561 284.866 300.25 277.88 296.336M311.363 331.601C311.363 331.601 309.953 319.545 289.346 301.25C289.346 301.25 290.057 296.505 283.192 291.687" stroke="#010002" stroke-width="1.2044" stroke-miterlimit="10"/>
<path d="M470.56 137.03C470.56 137.03 454.385 146.4 403.969 155.77M463.382 149.917C463.382 149.917 419.578 164.201 399.175 165.96M446.135 165.96C446.135 165.96 420.433 174.029 390.335 179.124M424.203 182.773C424.203 182.773 395.177 189.747 381.302 190.903M404.716 196.479C404.716 196.479 380.158 201.598 373.943 202.212M389.083 209.113C389.083 209.113 371.161 211.835 364.031 211.691M366.825 220.001C366.825 220.001 359.575 219.664 356.094 219.086M360.117 231.648C360.117 231.648 353.95 229.986 350.325 227.661M351.036 243.704C351.036 243.704 346.29 241.873 344.002 236.887M339.461 248.16C339.461 248.16 335.8 244.872 335.559 241.211M325.731 251.026C325.731 251.026 327.104 249.834 326.165 244.679M327.502 237.116C327.502 237.116 328.224 235.646 327.983 233.31M353.396 163.298C353.396 163.298 345.11 166.622 342.352 171.199C339.582 175.776 341.4 180.22 342.352 182.761C342.822 184.05 348.663 195.311 341.798 203.465M353.288 212.305C353.288 212.305 353.24 212.269 350.325 211.342M370.776 200.333C370.776 200.333 365.838 201.321 360.984 201.369M377.605 188.145C377.605 188.145 371.799 188.735 366.343 188.651M386.24 175.426C386.24 175.426 377.87 177.088 373.377 177.173M393.19 161.238C393.19 161.238 382.868 164.177 375.196 165.225M358.141 171.295C358.141 171.295 365.561 178.196 356.636 184.604C356.636 184.604 360.346 190.421 352.926 196.491M354.902 199.358C354.902 199.358 356.01 210.462 342.424 210.462C342.424 210.462 345.038 220.35 331.922 220.025C331.922 220.025 330.428 227.926 320.962 226.336M341.81 313.234C341.81 313.234 343.966 313.716 348.627 313.234M361.731 319.051C361.731 319.051 368.283 318.051 367.969 332.275M357.78 322.291C357.78 322.291 363.706 321.544 363.32 335.347M300.607 289.037C300.607 289.037 303.45 289.615 305.425 291.868C307.388 294.108 311.182 293.686 311.182 293.686C311.182 293.686 309.134 292.024 308.412 287.869C307.713 283.714 305.413 282.461 305.413 282.461M312.194 278.535C312.194 278.535 315.036 279.113 317.011 281.353C318.986 283.606 322.78 283.184 322.78 283.184C322.78 283.184 320.733 281.522 320.01 277.367C319.3 273.212 317.011 271.959 317.011 271.959M314.157 294.662C314.157 294.662 316.638 295.18 318.36 297.131C320.082 299.094 323.395 298.733 323.395 298.733C323.395 298.733 321.588 297.287 320.986 293.65C320.359 290.025 318.36 288.929 318.36 288.929" stroke="#010002" stroke-width="1.2044"/>
<path d="M380.2 272.7L373.3 268.7L361.9 318.2L357.2 314.8L368.3 267.4L360.5 267.6L379 233.8L380.2 272.8V272.7ZM407.2 286.1L402.9 279.1L368.5 319.8L364.8 315.6L399.1 275.6L392.1 271.8L423.5 251.1L407.2 286.1Z" fill="#0081C6" stroke="#010002" stroke-width="1.2" stroke-miterlimit="10"/>
<path d="M400.3 263.4L394.6 257.6L363.8 316.8L359.1 314L390.1 255L382.5 253L408.6 225.4L400.2 263.4H400.3ZM356.2 334.9L353.9 344.3L360.2 350.6L351.2 388.2L343.3 377.6L331.6 383.1L340.6 345.4L348.8 343.1L350.9 333.7C350.9 333.7 353.4 332.7 356.2 334.9Z" fill="#0081C6" stroke="#010002" stroke-width="1.2" stroke-miterlimit="10"/>
<path d="M358.3 328.6L353.8 337.1L358.3 344.9L340.4 378.9L335.4 366.4L322.7 368.5L340.6 334.5H349.1L353.5 326.1C353.5 326.1 356.7 326.1 358.3 328.6Z" fill="#0081C6" stroke="#010002" stroke-width="1.2" stroke-miterlimit="10"/>
<path d="M359.1 331.1L347 346.5L349.8 355.1L325.1 384L322.8 370.7L310 369.7L334.7 340.8L343 342.8L355.8 326.6C355.8 326.6 359.3 328.3 359.1 331.1ZM52.9 295.1C55.8 293.9 57.9 292.8 57.9 289.7C57.9 289 57.5 287.4 56.6 284.9L37.3 225.8C36.6446 223.615 35.8428 221.477 34.9 219.4C34 217.7 32.3 217 30 216.1H54.6C51.9 217.3 49.5 218.3 49.6 221.1C49.6 222.3 49.8 223.8 50.4 225.8L65.3 272L80.1 225.7C80.7 223.7 81.1 222.2 81.1 221.1C81 218.1 78.4 217.1 75.9 216H99.8C97.6 216.9 95.8 217.5 94.9 219.3C94.5 220.1 93.6 222.1 92.5 225.7L73.2 284.7C72.6246 286.326 72.1897 287.999 71.9 289.7C71.9 289.7 71 293.4 76.9 295H52.9V295.1ZM465.1 289.1V222.1C465.134 221.195 464.927 220.298 464.5 219.5C464.2 218.8 462.5 217.1 460.1 216.1H482.3C480.531 216.726 478.996 217.877 477.9 219.4C477.465 220.231 477.257 221.163 477.3 222.1V289.1C477.3 290.2 477.5 291.1 477.9 291.8C478.3 292.4 479.9 294 482.3 295.1H460.1C462.5 294.1 464.1 292.4 464.5 291.8C464.9 291.1 465.1 290.2 465.1 289V289.1Z" fill="#0081C6" stroke="#010002" stroke-width="1.2" stroke-miterlimit="10"/>
<path d="M260.4 311.8C260.4 311.8 319.6 285.5 319.8 224.8H200.9C201.1 285.5 260.4 311.8 260.4 311.8Z" fill="white" stroke="#010002" stroke-width="1.2"/>
<path d="M210.1 224.8V263.6C210.1 263.6 214.6 272.6 219.2 278.3V224.8H210.1ZM228.4 224.8V288.8C228.4 288.8 234.1 294.4 237.5 297.1V224.8H228.3H228.4ZM246.6 224.8V303.8C246.6 303.8 253.2 308.1 255.8 309.5V224.8H246.5H246.6ZM310.6 224.8V263.6C310.6 263.6 306.1 272.6 301.5 278.3V224.8H310.6ZM292.3 224.8V288.8C292.3 288.8 286.6 294.4 283.3 297.1V224.8H292.3ZM274.1 224.8V303.8C274.1 303.8 267.5 308.1 264.9 309.5V224.8H274.1Z" fill="#A60032" stroke="#010002" stroke-width="1.2"/>
<path d="M319.8 180.6C319.8 180.6 290.7 195.8 260.4 179.4C230 195.8 200.9 180.6 200.9 180.6V224.8H319.8V180.6Z" fill="#162667" stroke="#010002" stroke-width="1.2" stroke-miterlimit="10"/>
</g>
<defs>
<clipPath id="clip0_103_881">
<rect width="512" height="512" fill="white" transform="translate(0.5)"/>
</clipPath>
</defs>
</svg>
