<svg width="513" height="512" viewBox="0 0 513 512" fill="none" xmlns="http://www.w3.org/2000/svg">
<g clip-path="url(#clip0_103_913)">
<path d="M0.5 0H512.5V512H0.5V0Z" fill="#009543"/>
<path d="M0.5 0H512.5V256H0.5V0Z" fill="#D21034"/>
<mask id="mask0_103_913" style="mask-type:luminance" maskUnits="userSpaceOnUse" x="0" y="0" width="513" height="513">
<path d="M0.5 0V512.003L239.434 301.812H512.501V210.191H239.434L0.5 0Z" fill="white"/>
</mask>
<g mask="url(#mask0_103_913)">
<path d="M0.5 0L239.434 210.191H512.501V301.812H239.434L0.5 512.003" fill="black"/>
<path d="M0.5 0L239.434 210.191H512.501V301.812H239.434L0.5 512.003" stroke="#FDCE12" stroke-width="86.1383"/>
<path d="M0.5 0L239.434 210.191H512.501M512.501 301.812H239.434L0.5 512.003" stroke="black" stroke-width="46.9845"/>
</g>
<path d="M68.1141 299.942V326.011C90.8038 326.011 135.411 308.632 135.411 252.535C135.411 196.438 87.8107 186.011 73.6176 186.011C59.3279 186.011 15.3967 196.245 15.3967 242.011C15.3967 287.97 58.5555 292.218 67.0521 292.218C75.5486 292.218 107.411 284.494 103.742 250.121C102.791 258.51 98.7766 266.253 92.4693 271.866C86.162 277.478 78.0052 280.565 69.5624 280.535C46.3899 280.535 31.9071 263.349 31.9071 246.356C31.9071 229.363 46.0037 206.576 70.4314 206.576C94.859 206.576 112.721 228.301 112.721 250.121C112.721 272.039 95.5349 299.846 68.1141 299.846V299.942Z" fill="#FDCE12"/>
<path d="M48.1278 265.859L49.4795 266.825C49.4795 266.825 60.2934 242.204 89.1624 224.728C85.4934 226.659 66.183 236.314 48.1278 265.859Z" fill="#FDCE12" stroke="#FDCE12" stroke-width="0.772416"/>
<path d="M50.9278 261.611C50.9278 261.611 47.6451 254.852 50.5416 251.763C53.4382 248.77 52.183 259.776 52.183 259.776L53.4382 257.942C53.4382 257.942 51.5071 249.638 53.6313 247.901C55.852 246.066 54.7899 255.914 54.7899 255.914L56.1416 254.176C56.1416 254.176 54.6934 246.066 56.8175 244.521C59.0382 242.976 57.6865 252.245 57.6865 252.245L59.2313 250.314C59.2313 250.314 58.0727 242.59 60.6796 240.756C63.2865 238.921 60.9692 248.094 60.9692 248.094L62.7072 246.163C62.7072 246.163 61.9348 239.114 64.1555 237.473C66.3762 235.928 64.5417 244.232 64.5417 244.232L66.0865 242.494C66.0865 242.494 65.6037 235.928 67.7279 234.383C69.9486 232.838 67.921 240.659 67.921 240.659L69.5624 239.114C69.5624 239.114 69.1762 232.452 71.8796 231.197C74.5831 229.942 71.3969 237.376 71.3969 237.376L73.3279 235.832C73.3279 235.832 73.8107 228.107 76.1279 227.432C78.4452 226.659 75.1624 234.19 75.1624 234.19L76.8038 232.838C76.8038 232.838 77.6727 226.273 80.1831 225.5C82.79 224.632 78.6383 231.487 78.6383 231.487L80.2796 230.232C80.2796 230.232 82.1141 223.666 84.5279 222.894C86.8452 222.218 82.0176 229.169 82.0176 229.169L83.659 228.011C83.659 228.011 86.2659 222.025 88.4866 221.638C90.5142 221.252 85.9762 226.563 85.9762 226.563L88.0038 225.404C88.0038 225.404 91.3831 219.225 92.6383 221.059C93.7969 222.99 87.8107 225.79 87.8107 225.79L85.8797 226.949C85.8797 226.949 93.1211 223.473 93.99 225.211C94.859 226.949 84.0452 228.107 84.0452 228.107L82.3072 229.266C82.3072 229.266 89.5486 227.335 88.6797 229.169C87.7141 231.004 80.5693 230.618 80.5693 230.618L78.9279 231.776C78.9279 231.776 86.1693 230.038 85.2038 231.776C84.2383 233.321 77.19 233.225 77.19 233.225L75.452 234.673C75.452 234.673 82.5003 232.742 81.4383 234.963C80.4727 237.087 72.3624 236.99 72.3624 236.99L70.4313 238.921C70.4313 238.921 77.8658 236.314 77.19 238.342C76.6107 240.273 68.1141 241.238 68.1141 241.238L66.1831 243.169C66.1831 243.169 74.1969 240.563 71.7831 242.976C69.4658 245.487 63.5761 246.066 63.5761 246.066L61.3555 248.963C61.3555 248.963 69.2727 244.135 68.1141 246.838C67.052 249.542 59.2313 251.376 59.2313 251.376L57.6865 253.307C57.6865 253.307 64.8313 249.156 64.0589 251.376C63.383 253.79 55.7554 256.204 55.7554 256.204L54.5003 257.942C54.5003 257.942 62.9003 252.921 62.2244 255.528C61.452 258.039 53.4382 259.873 53.4382 259.873L52.4727 261.514C52.4727 261.514 60.1968 256.976 60.1968 259.197C60.3899 261.321 51.1209 263.445 51.1209 263.445L50.9278 261.611Z" fill="#FDCE12"/>
<path d="M94.0867 265.859L92.7349 266.825C92.7349 266.825 81.9211 242.204 53.0521 224.728C56.721 226.659 76.0314 236.314 94.0867 265.859Z" fill="#FDCE12" stroke="#FDCE12" stroke-width="0.772416"/>
<path d="M91.2866 261.611C91.2866 261.611 94.5694 254.852 91.6729 251.763C88.7763 248.77 90.0315 259.776 90.0315 259.776L88.7763 257.942C88.7763 257.942 90.7073 249.638 88.5832 247.901C86.3625 246.066 87.4246 255.914 87.4246 255.914L86.0728 254.176C86.0728 254.176 87.5211 246.066 85.397 244.521C83.1763 242.976 84.528 252.245 84.528 252.245L82.9832 250.314C82.9832 250.314 84.1418 242.59 81.5349 240.756C78.928 238.921 81.2452 248.094 81.2452 248.094L79.5073 246.163C79.5073 246.163 80.2797 239.114 78.059 237.473C75.8383 235.928 77.6728 244.232 77.6728 244.232L76.128 242.494C76.128 242.494 76.6107 235.928 74.4866 234.383C72.2659 232.838 74.2935 240.659 74.2935 240.659L72.6521 239.114C72.6521 239.114 73.0383 232.452 70.3349 231.197C67.6314 229.942 70.8176 237.376 70.8176 237.376L68.8866 235.832C68.8866 235.832 68.4038 228.107 66.0866 227.432C63.7693 226.659 67.0521 234.19 67.0521 234.19L65.4107 232.838C65.4107 232.838 64.5417 226.273 62.0314 225.5C59.4245 224.632 63.5762 231.487 63.5762 231.487L61.9348 230.232C61.9348 230.232 60.1003 223.666 57.6865 222.894C55.3693 222.218 60.1969 229.169 60.1969 229.169L58.5555 228.011C58.5555 228.011 55.9486 222.025 53.7279 221.638C51.7003 221.252 56.2383 226.563 56.2383 226.563L54.2107 225.404C54.2107 225.404 50.8314 219.225 49.5762 221.059C48.4176 222.99 54.4038 225.79 54.4038 225.79L56.3348 226.949C56.3348 226.949 49.0934 223.473 48.2245 225.211C47.3555 226.949 58.1693 228.107 58.1693 228.107L59.9072 229.266C59.9072 229.266 52.6658 227.335 53.5348 229.169C54.5003 231.004 61.6452 230.618 61.6452 230.618L63.2866 231.776C63.2866 231.776 56.0452 230.038 57.0107 231.776C57.9762 233.321 65.0245 233.225 65.0245 233.225L66.7624 234.673C66.7624 234.673 59.7141 232.742 60.7762 234.963C61.7417 237.087 69.8521 236.99 69.8521 236.99L71.7831 238.921C71.7831 238.921 64.3486 236.314 65.0245 238.342C65.6038 240.273 74.1004 241.238 74.1004 241.238L76.0314 243.169C76.0314 243.169 68.0176 240.563 70.4314 242.976C72.7487 245.487 78.6383 246.066 78.6383 246.066L80.859 248.963C80.859 248.963 72.9418 244.135 74.1004 246.838C75.1625 249.542 82.9832 251.376 82.9832 251.376L84.528 253.307C84.528 253.307 77.3832 249.156 78.1556 251.376C78.8314 253.79 86.459 256.204 86.459 256.204L87.7142 257.942C87.7142 257.942 79.3142 252.921 79.9901 255.528C80.7625 258.039 88.7763 259.873 88.7763 259.873L89.7418 261.514C89.7418 261.514 82.0177 256.976 82.0177 259.197C81.8246 261.321 91.0935 263.445 91.0935 263.445L91.2866 261.611Z" fill="#FDCE12"/>
</g>
<defs>
<clipPath id="clip0_103_913">
<rect width="512" height="512" fill="white" transform="translate(0.5)"/>
</clipPath>
</defs>
</svg>
