<svg width="513" height="512" viewBox="0 0 513 512" fill="none" xmlns="http://www.w3.org/2000/svg">
<g clip-path="url(#clip0_103_941)">
<path fill-rule="evenodd" clip-rule="evenodd" d="M0.5 0H512.5V512H0.5V0Z" fill="#CE1126"/>
<path fill-rule="evenodd" clip-rule="evenodd" d="M0.5 0H256.5V256H0.5V0Z" fill="#002B7F"/>
<path fill-rule="evenodd" clip-rule="evenodd" d="M147.5 231.4L127.9 218.1L109 231.6L115 208.1L97 193.4L120.2 192.1L127.9 169.7L136.4 192.5L159.2 193L141 208.5L147.5 231.4ZM144.1 74.5999L128.5 64.5999L113.1 74.5999L117.3 55.5999L103.6 43.4999L121.9 41.8999L128.7 24.3999L135.8 42.0999L153.8 43.4999L139.8 55.9999L144.1 74.5999ZM74.8 131L59.6 120.2L44.2 130.6L48.8 112.3L34.5 100.2L52.7 99.3999L59.4 81.2999L66 99.0999L84.3 100.2L70 112.2L74.8 131ZM213.8 118.3L199.1 108.8L184.8 118.5L188.8 101.1L175.8 89.8999L193.1 88.4999L199.1 72.0999L205.7 88.6999L222.5 89.6999L209.3 101.3L213.8 118.3ZM172.7 159.6L163 153.4L153.4 159.6L155.9 148L147.2 140.3L158.6 139.3L163 128.3L167.5 139.3L178.7 140.3L170.2 148L172.7 159.6Z" fill="white"/>
</g>
<defs>
<clipPath id="clip0_103_941">
<rect width="512" height="512" fill="white" transform="translate(0.5)"/>
</clipPath>
</defs>
</svg>
