<svg width="513" height="512" viewBox="0 0 513 512" fill="none" xmlns="http://www.w3.org/2000/svg">
<g clip-path="url(#clip0_103_946)">
<path d="M0.5 0H512.5V512H0.5V0Z" fill="#244AA5"/>
<path d="M202.8 245.7L204.1 245L205.7 244.5C205.7 244.5 206.5 244.1 206.9 244.1C207.3 244.1 208.2 244.6 208.4 245C208.7 245.4 210.1 246 210.1 246C210.1 246 211.1 246.4 211.2 246C211.4 245.8 211.8 245.5 212.2 245.5C212.6 245.5 212.8 245.1 212.8 244.8C212.8 244.5 213 244.1 213.3 243.7C213.6 243.3 214.3 243.1 214.3 243.1C214.3 243.1 215.3 242.7 215.3 242.1C215.3 241.5 216.4 241.1 217 241.1C217.5 241 217 240.7 218.3 240.9C219.7 241 219.9 240.6 220 240.2C220 239.7 220 239.3 220.9 239.4C221.7 239.5 222.2 239.5 222.2 239C222.2 238.6 223 238.3 221.6 238C220.2 237.5 220.3 237.8 220.2 237.2C220.1 236.5 220.2 236.6 219.2 236.5C218.2 236.5 218.8 236 218.7 235.5C218.7 235 218.4 234.8 218.2 234.5C218 234.1 217.5 234.1 217.5 233.7C217.5 233.2 217.5 232.9 216.9 232.9C216.3 232.9 216.2 232.9 216.2 232.5C216.2 232 216.3 231.6 216.8 231.6C217.3 231.6 217.6 231.2 217.5 230.7V229.2L218.1 228.4L220.4 226.4C220.6 226.1 221.3 225.8 221.6 226.4C221.9 227.1 222.1 227.3 222.4 227.6C222.6 227.9 223.4 227.6 223.6 227.4C223.8 227 223.8 225.9 224.3 225.2C224.8 224.6 225.1 224.2 225.2 223.8C225.3 223.4 225.5 222.8 226.1 222.8C226.7 222.8 227 222.1 227 221.7C227 221.3 227.2 220.8 228 220.7C228.6 220.7 229 220.2 229.2 220.8C229.4 221.5 229.6 221.5 230.1 221.7C230.5 221.9 231.1 222.2 231.5 221.9C231.9 221.6 232 221.1 232.5 221.4C233 221.7 233.4 221.4 233.5 220.8L233.7 219.3C233.7 219.3 233.8 218.9 234.7 218.9C235.6 218.9 234.9 218.4 235.3 218.1C235.8 217.7 235.8 217.4 236.3 217.6C236.9 217.8 237.8 217.4 237.3 216.9C236.9 216.3 235.9 215.5 236.4 214.9C237 214.3 237.2 213.2 236.7 213.1C236.1 213 235.3 213.2 235.2 212.6C235.1 212 234.9 211.6 235.5 211.4C236.2 211.4 237.4 211.4 237.7 211C238 210.6 239.2 210.5 239.2 209.6C239.2 208.6 239.5 208.6 239.6 208C239.7 207.5 239.7 206.4 239.3 205.9C238.81 205.415 238.374 204.879 238 204.3C237.877 204.061 237.708 203.85 237.502 203.678C237.295 203.506 237.057 203.378 236.8 203.3C236.1 203.1 235.5 203 235.5 202.5C235.5 201.9 236 202.5 236 201.2C236 199.9 235 199.6 235 199.6L233.7 198.8C233.7 198.8 231.3 198.2 230.7 198.2C230.1 198.2 229.3 197.5 230 197.1C230.8 196.6 231 195.9 230.7 195.3C230.4 194.7 230.2 194.3 229.2 194C228.2 193.7 227.9 193.5 228.3 192.9C228.8 192.3 228.9 191.9 229.5 192.3C230 192.7 230.9 192.9 231.7 192.5C232.4 192.2 232.7 191.9 233.1 192.3C233.4 192.6 233.9 193 234.5 192.5C235 191.9 236 191.9 236.5 192.1C237 192.4 238.1 192.3 238.5 192.1C238.8 191.9 239.5 191.3 239.5 191C239.5 190.7 240 190 240.5 189.8C240.9 189.5 241.5 188.7 242 188.7C242.5 188.7 242.6 188.2 242.6 187.8C242.6 187.4 243 186.8 243.1 186.6C243.1 186.3 244.1 185.9 244.7 186.5C245.4 187 246.2 187.2 246.2 187.2H247.6C248.1 187 248.7 186.8 249.4 187.2C250 187.7 251 187.7 251 187.7L251.1 186.7C251.1 186.3 251.3 185.7 251 185.5C250.6 185.2 250.1 184.9 250.9 184.3C251.6 183.8 251.6 183.9 252.3 183.9L254.1 184C254.7 184 255.6 184.5 255.6 185C255.6 185.5 256 185.9 256.4 186.1C256.9 186.4 257.4 186.6 257.3 187.1C257.1 187.5 257.1 187.8 257.6 187.8C258.2 187.7 258.4 188 258.4 188.4C258.4 188.8 258.5 189.1 259.1 189.3C259.7 189.5 259.9 189.8 259.9 190.3L260 191.3C260.1 191.7 260.8 192.4 260.8 192.4C260.8 192.4 261.8 193.6 260.5 193C259.2 192.4 258.9 192.2 258.5 192.3C258 192.3 257.7 192.6 257.7 192.6L256.7 192.8C256.1 192.8 255.7 193.8 256.4 193.9C257.2 194.1 257.4 194.2 257.4 194.9C257.4 195.6 257.2 195.3 256.8 195.7C256.4 196.1 256.1 195.9 255.5 195.9C254.8 195.9 254.7 196.4 254.7 196.9C254.7 197.4 254.9 197.3 255.2 197.7C255.5 198.2 256 198.2 256.4 197.8C256.9 197.4 257.3 197.1 257.5 197.9C257.7 198.7 258.2 198.7 258.7 198.7C259.3 198.7 259.5 198.7 259.9 198.4C260.4 198.2 260.9 198.4 261.1 199.1C261.1 199.8 261.6 199.9 262.1 200.1C262.5 200.4 262.8 200.6 262.9 201C263 201.4 263.3 201.6 263.7 201.3C264.2 201.1 264.9 200.9 265.2 201.3L266 202.3V203.1L267.8 203.7L268 204.5C268 204.9 268.3 205 268.7 204.9H270C270 204.9 270.7 204.6 270.7 204.1C270.7 203.6 271 203.5 271.4 203.5C271.9 203.5 272.9 203.8 273.2 203.3C273.5 202.8 274.3 202.6 274.9 202.9L277.3 203.8C277.3 203.8 277.1 203.8 277.6 204.8C278.2 205.6 279.2 205.6 279.2 205.6L279.5 206.7C279.7 207 280.5 207.2 281 206.9C281.4 206.5 282 206.1 282.6 206.1C283.2 206.1 283.6 206.1 283.6 205.8C283.6 205.5 283 205.2 283 204.6C283 204.1 283.6 204.1 283.7 203.6C283.7 203.1 284.3 203.6 284.7 203.9C285 204.1 285.5 204.6 285.5 204.9C285.5 205.2 286.3 206.4 286.7 206.6C287.2 206.8 288.4 206.9 288.7 206.4C289.1 206 290 205.8 290 206.9C289.9 207.9 289.7 207.9 290.3 208.3C291 208.7 291.1 209.9 290.5 210.2C290 210.5 289.8 210.6 289.8 211.2C289.8 211.8 289.6 212.5 290 212.8C290.5 213.2 290.8 213.4 290.8 213.8C290.8 214.2 291.3 215.7 291.3 215.7C291.3 215.7 291.6 217.2 291.5 217.5C291.4 217.8 291.3 218.5 292.1 218.4C292.9 218.3 293.1 218.3 293.1 219C293.1 219.7 293.4 220 292.9 220.2C292.5 220.4 292.2 221.2 292.6 221.5C293.1 221.6 293.5 221.9 293.6 222.2C293.6 222.6 294.4 223.2 294.9 222.8C295.3 222.5 295.4 222.3 295.8 222.2C296.2 222.2 296.4 221.9 296.1 221.5C295.7 221 295.6 220.6 296 220.3C296.4 220.1 296.5 219.3 296.5 219.3C296.5 219.3 297.1 218.5 297.7 219.3C298.4 220 298.5 219.7 298.9 219.7C299.4 219.7 299.6 220.2 299.6 220.6C299.6 221 300.6 220.9 300.6 221.6L300.7 223.9C300.7 223.9 300.7 224.9 301.3 225.2C301.8 225.6 301.7 225.6 301.4 226.1C301.2 226.5 301.3 227.1 301.3 227.5C301.3 227.9 301.4 228 301 228.4C300.5 228.7 300.3 229.1 300.6 229.6C300.9 230.2 300.8 230.5 301.6 231.1C302.3 231.7 302.2 232 302.2 232.4C302.2 232.8 302.9 233.4 302.9 233.8C302.9 234.3 303.5 234.8 303.9 234.8C304.3 234.8 304.9 235.7 304.9 236.1L305.1 237.7C305.1 237.7 305 237.9 305.5 237.9C306.1 237.9 306.5 238.5 306.6 237.9C306.8 237.2 307.4 237.1 307.7 236.9C308.1 236.7 308.9 236.4 309.2 236.6C309.6 236.9 310.1 236.9 310.4 236.9H312.6C312.6 236.9 313 236.9 313.3 237.6C313.6 238.3 314.4 239 314 239.4C313.5 239.7 313.5 240.4 314 240.4C314.6 240.4 315.2 240.4 315.2 240.8C315.2 241.3 315.2 241.6 315.7 241.3C316.2 241 316.5 241 316.7 241.3C316.8 241.7 317.2 241.7 317.7 241.9C318.1 242.2 318.3 242 318.6 241.7C318.9 241.3 320 241 320 241C320 241 321.5 240.7 322 240.8L323.3 241.3C323.3 241.3 323.7 242.2 323.5 242.7C323.3 243.2 323.1 243.1 323.3 243.9C323.5 244.7 323.1 244.8 322.8 244.7C322.4 244.6 322 244.6 322 245.3C322 246 321.6 246.1 321.6 246.7C321.6 247.3 321.6 247.2 321.3 247.5C320.9 247.7 320.8 248.2 321.3 248.3C321.9 248.3 321.7 248.9 321.7 249.3V250.3C321.7 250.3 321.7 250.8 321.1 250.8C320.4 250.8 319.9 250.8 319.8 251.2C319.7 251.6 319 252.2 319.6 252.7C320.3 253.1 320.1 253.4 319.7 253.5C319.3 253.7 319.1 254.5 319.7 254.8C320.5 255.1 320.4 255.3 320 255.7C319.5 256 318.6 256.3 318.6 256.7C318.6 257.3 318.4 257.3 317.8 257.4C317.2 257.5 317 258.1 317.7 259C318.3 259.9 318.5 259.7 319 259.7C319.4 259.7 319.4 259 319.4 259H321.4C321.9 259 322.6 259 322.9 258.8C323.3 258.6 324.3 258.1 324.3 258.9C324.3 259.7 324.5 259.6 325 259.9C325.4 260.3 325.5 260 326 260.5C326.3 261 326.4 260.6 326.6 260C326.9 259.4 327.5 258.8 327.9 259.5C328.3 260.2 328.4 260 328.9 260C329.5 260 329.7 260.3 329.7 260.7C329.7 261.1 330.3 261.1 330.9 261C331.5 260.9 331.6 261.4 331.9 261.8C332.2 262.2 332.3 262.2 332.7 262.2C333 262.2 333.4 262.2 333.7 261.8C334 261.5 334.3 261 334.7 261.6C335.1 262.2 335.8 262 336 261.4C336.2 260.8 337 260.3 337.5 261C337.9 261.6 338.3 261.6 338.8 261.7C339.2 261.8 339.9 261.8 340.2 262.2C340.5 262.7 341.4 263.4 340.7 263.9C340.1 264.4 339.3 265.1 339.9 265.2C340.5 265.4 340.9 265.6 341.2 266C341.6 266.4 342.8 266.6 343.3 266.7C343.9 266.7 344.3 266.9 345 266.3C345.6 265.8 346.3 265.8 346.2 266.5C346.1 267.2 346.5 268 346.5 268C346.5 268 346.9 269 346.9 269.5C346.9 269.9 346.9 270 347.7 270.5C348.5 271 348.4 271.4 349.1 270.9C349.7 270.3 349.9 270.1 349.9 269.7V268.3C349.9 268.3 350.9 268.1 351.2 267.9C351.5 267.7 353.1 266.9 353.4 267.2C353.7 267.5 354.3 267.4 354.6 267.2H356.1C356.5 267.2 357.1 267.2 357.9 266.6C358.6 266 358.6 266.2 359.1 266.6C359.6 267 359.5 267.6 359.3 267.9C359 268.2 359.3 268.9 359.9 268.9C360.6 268.9 360.7 269.3 360.7 269.8L360.9 271.1C361 271.5 361 271.6 362 271.9C363 272.1 362.9 272.7 363 273.2C363.2 273.6 363.2 273.9 362.7 273.9C362.1 273.9 361.9 274.2 361.9 274.6C361.8 275 360.9 275.2 360.9 275.2L360.1 275C360.1 275 359.5 275 359.3 275.4C359 275.7 358.4 276.4 358.8 277C359.2 277.6 359.2 278 358.8 278.2C358.4 278.5 358.2 279.7 357.8 279.5C357.4 279.3 357 279.5 356.7 279.7C356.3 279.9 356.4 281.1 357.1 281.5C357.9 282 358.1 282.5 358.1 282.5L358.9 283.8L358.4 284.5C358.2 284.9 357.7 285.8 358.2 286C358.7 286.2 358.5 287 358 287C357.4 287 356.8 286.8 356.7 287.5C356.6 288.2 356.3 288 355.7 287.9C355.2 287.9 353.7 287.5 353.4 288.2C353.1 288.9 353 289.2 352.4 289C351.7 289 351.9 290 352.1 290.5C352.3 290.9 353 291.5 353 291.5C353 291.5 353.5 291.9 353.5 292.8C353.5 293.7 353.1 293.6 352.8 293C352.5 292.4 351.7 292.5 351.6 293.1C351.5 293.8 351.4 294.8 350.7 294.8C350.1 294.8 349.8 295 349.5 295.4C349.3 295.7 348.8 296.3 348.8 296.6C348.8 296.9 348.7 297.3 348.2 297.4C347.8 297.4 347.7 298.4 347.7 298.4C347.7 298.4 346.6 298.6 346.5 299C346.4 299.4 346.5 300.1 345.6 300.2C344.7 300.3 344.2 300.9 343.9 301.3C343.6 301.8 343.5 302.1 343.9 302.5C344.3 302.9 344.5 304.3 344.9 304.5C345.5 304.8 345.9 304.9 345.7 305.5C345.7 306.3 345.1 306.8 345.8 306.8C346.6 306.8 347 307 346.8 307.6C346.5 308.2 346.5 308.2 345.9 308.5C345.4 308.8 345.1 308.8 345.1 309.5C345.1 310.2 345.3 310.1 344.8 310.4C344.3 310.6 344.3 311 344.3 311.4C344.3 312 344.2 311.8 343.6 312.4C343 313 342.3 313 341.8 312.8C341.4 312.7 341.3 312.7 341.2 312.2C341.1 311.6 340.2 311.6 339.8 311.7C339.3 311.8 338.7 312.3 338.7 312.3C338.7 312.3 337.9 312.8 338.2 313.3C338.6 313.7 338.4 314.3 337.8 314.3C337.1 314.3 335.6 315 335.2 314.3C334.7 313.4 333.4 312.9 333.2 314C333 315 333.8 314.9 333.7 316C333.6 317 333.4 317 333 317.3C332.7 317.6 332.7 317.9 332.6 318.3C332.5 318.7 332.4 319.7 333 320C333.7 320.4 334 321.3 334 321.8C334 322.3 334 322.8 334.6 322.8C335.3 322.8 335.8 322.8 335.9 322.1C336 321.5 337.3 321.2 337.4 322.4C337.5 323.6 337.4 324.2 338 324.7C338.4 325.2 338.8 325.9 339.2 326.2C339.6 326.5 340.2 328.6 340.2 328.6C339.2 328.8 339 330 338.4 330.2C338.1 330.3 337.8 330.2 337.4 330.4C337.2 330.6 337.2 330.9 336.9 331.1C336.2 331.4 336.4 330.3 335.5 330.7C334.8 331 334.7 331.9 333.7 331.5C333.1 331.3 332.7 329.2 332.6 328.7C332.6 328.4 331.9 327.5 331.7 327.2C331.1 326.2 329.9 327.2 329.5 326.9C328.8 326.5 329.1 325.7 328.2 325.7C326.2 325.5 327.6 326.8 326.8 327.1C325.3 327.7 325.3 325.7 324.1 326.6C323.7 326.9 324.8 327.2 324.5 327.8C324.3 328.2 323.1 329 323.2 329.6C323.3 330.4 324.2 330.6 324.4 331.3C325.1 333 324 334.3 322.2 332.9C321.2 332.1 321.1 330.7 319.6 330.8C319.2 330.8 319.1 331.1 318.7 331.2C318.4 331.2 318.1 330.9 317.7 331C317.2 331.2 317.7 331.6 317.6 331.9L316.7 332.7C316.3 333.2 316.4 333.7 315.8 334.2C315.3 334.5 314.9 334.3 314.4 334.9C313.8 335.5 313.7 336.4 313 337C312.6 337.3 312.4 336.1 312 337C311.8 337 311.8 337.1 311.7 337.2V337.8C312.7 339.8 310.7 340.4 310 341.8C309.7 342.3 310.5 342.8 310.2 343.2C310 343.6 309.1 344.4 309 344.6C309 344.8 308.9 345.2 308.7 345.4C308.5 345.6 308 345.4 307.9 345.7C307.9 346 308.5 346.3 308.7 346.5C308.9 346.7 308.6 347 308.7 347.1C309.7 348.1 309.1 347.8 309.6 348.7C309.6 348.9 310 348.7 310.1 349C310.2 349.3 309.9 349.3 310 349.6L310.8 350.7C310.8 351 309.3 351.7 309 351.7C308.1 351.7 309.8 349.9 308.3 349.9C307.7 349.9 307.7 351.3 307.5 351.5H306.7C305.8 351.5 305.2 352.6 304.8 352.7H303.7C303.3 352.7 302.9 353.1 302.5 353.1C302.3 353.1 302.2 352.9 302 352.8L300.4 352.3C300.1 352.3 299.6 352.7 299.4 352.5C299.2 352.4 299.7 351.8 299 351.5L298.4 350.1C298.6 349.3 298.9 348.4 298.8 347.6C298.6 346.6 297.3 345.9 296.8 345.2C296.6 344.7 296.4 343.2 295.8 342.9C295.213 342.444 294.734 341.864 294.4 341.2C294.4 341 294.6 340.7 294.4 340.4C294.2 340.1 293.7 340 293.6 339.6C293.5 339.2 293.6 338.1 293.2 337.9C292.8 337.6 289.9 337.3 289.2 337.2C288.9 337.2 288.6 337.2 288.3 336.9L287.9 336.4L287 336.5H286.3C285.3 337.1 285.2 337.9 284.3 338.5C283.4 339.3 282.5 339.2 281.6 340C281 340.5 280.6 341.7 280.1 342.2C279.9 342.5 279.5 342.2 279.4 342.3L277.8 343.8C277.8 343.8 277.8 344.1 277.6 344.2L276.6 344.4H275.6C275.2 344.6 275.2 345.1 273.6 345.4L273.3 345.6L272.7 346.1H272.1C271.7 346.1 271.4 346.4 271.1 346.5C270.2 346.5 268.9 346.1 268.3 346.4C267.9 346.5 266.8 347.7 266.3 347.8H265.7C265.5 347.8 265.2 349.2 265.1 349.5L263.1 351.2L262.6 352C262.4 352.2 262.1 352.4 261.8 352.4C261.4 352.4 260.8 352.1 260.5 352C259.8 352 257.8 351.8 257.2 352C256.6 352 256.8 353.9 255.2 354L252.5 354.4C252.5 354.4 251.9 354 251.3 354.2C251.1 354.2 250.5 354.9 250.5 355.2V355.5L250.6 355.8C250.3 356.3 249.5 356.8 249.2 357.4L249 357.7C248.8 357.9 247.7 358.3 247.6 358.5C247.3 359.1 248.3 359.7 248.2 360C248 360.8 246.8 361.6 246.5 362.4C246.4 362.7 246.9 363.7 246.8 364.1C246.8 365.1 246.4 366.4 246.4 367.4L246.6 368.7L247.2 369.1C247.3 369.3 248.6 371.7 248.6 372C248.8 373.7 246.3 373.1 247.8 374.9L248.4 375.7L250.7 377.5C250.7 377.8 249.1 378.1 248.9 378.3C248.1 379.1 247.5 380.4 246.8 381.2C246.3 381.6 245.9 381.2 245.4 382.2C245.2 382.6 245.4 383.5 245.1 383.8C244.7 384.2 244.4 383.6 244.1 383.8C243.9 383.8 243.8 384.4 243.7 384.5C243.2 384.8 239.5 386.8 239.2 386.6C239 386.6 238.8 385.9 238.8 385.7C238.7 385.397 238.528 385.123 238.3 384.9C237.3 384.1 235.9 383.9 235 384.9C234.7 385.2 234.7 385.6 234.4 385.9L232.8 387.1C232.8 387.1 232.5 387.5 232.3 387.4C232 387.4 231.1 386.4 230.8 386.1C230.4 385.6 229.2 384.4 229.1 383.9C229.1 381.9 227.6 380 227 378.1H228C229 377.5 228.7 375.7 230.5 376.4C230.8 376.1 230.7 375.8 231.2 375.5C231.4 375.5 231.7 375.3 231.7 375.2C232.4 374.2 233.1 370.6 232.5 369.6C231.9 368.8 231.3 368.8 230.8 367.4V366.2C230.8 365.8 230.1 363.8 230 363.6C229.9 363.5 229.5 363.3 229.5 363.1C229.5 363 229.3 360.8 229.4 360.6C228.8 358.9 226.6 357.8 226.5 357.6L225.7 356.2C225.4 355.7 225.4 355.4 225.2 354.9C225.2 354.7 224.8 354.5 224.8 354.2C224.8 353.8 226 352.8 226 352.1C226 351.8 225.2 351.1 225.3 350.6C225.5 350.2 226.3 349.2 226.3 348.6C226.3 348 225 346.6 224.8 345.9C224.8 345.5 225.3 345.2 225.2 345L223.5 343.2C223.4 342.9 224 342.6 223.5 342.2C223.1 341.7 223.5 341.9 223.4 341.5L222.6 340.3L221.3 335.7C221.1 335.4 220.8 335.2 220.7 334.9L220.3 333.9C220.3 333.9 219 333.5 218.8 333.1C218.6 332.8 218.6 331.9 218.2 331.4C218.1 331.1 217.8 331.2 217.6 331L217.4 330.5C217 330 216.3 330.5 215.8 328.5L213.8 327.1L213.6 326.8C213.1 326.6 212.4 326.6 212 326.2L210.4 326.1L210 325.5C209.4 325.3 208.3 325.4 207.8 324.9C207.3 324.5 207.2 322.7 206.5 322.9H206.1C205.6 322.2 203.9 322.1 203.1 321.7C202.9 321.6 202.3 321.7 202.3 321.5L202.4 320.5L201.4 319.4C200.8 319.2 201.1 319.1 200.6 318.9C199.5 318.8 199.4 318.9 198.6 319.7L197.8 320C197.4 320.2 197.3 321 196.8 320.6L196.3 320.2C196 319.9 195.8 320.1 195.7 319.6C194.7 319.1 192.1 320.8 191.5 319.6C191 319.3 190.7 319.6 190.3 319.3C190.1 319.1 190.8 316.9 188.9 316.1L190.3 315.1V314.3C190.3 314 190.5 313.3 190.4 313L190 312.2C189.8 311.9 190 311.6 189.8 311.2L189.2 310.9C188.7 310.5 188.2 310.3 187.8 309.8L187.5 309.4C187.2 309.2 186 308.8 186.1 308.3C186.1 308.1 186.3 308.1 186.4 307.9C186.4 307.7 186.4 307.4 186.6 307.2C187.1 306.5 188.3 306.8 188.1 305.5C188.1 304.9 187.6 304.4 187.5 303.7L187.1 303.2C185.9 303.1 186.1 301.9 185.7 301.6C184.4 300.8 183.5 301.3 184.9 299.6C185.1 299.1 183.7 298.2 183.4 298C182.9 297.5 183.2 296.5 183 296C182.9 295.7 182 295.3 181.8 295L181.4 294.2V294C181.7 293.8 181.6 293.5 181.4 293.2C181.4 293 181 293.1 180.9 293C179.7 292 178.4 291.5 176.9 291C176.5 290.8 176.7 290.5 176.3 290.3L174 289.3C173.7 289.3 173.6 288.4 173.4 288.2C173.216 287.894 172.979 287.623 172.7 287.4C172.7 286.6 172.2 286.5 171.7 286.1L171.5 285.6L172 283.9C172.1 283.6 172.5 283.3 172.5 282.9L172.1 281.1C171.5 279.5 170.8 279.7 171.1 277.5C171.2 277 171.1 276.8 171.4 276.4L171.6 276.1L172.6 275.4C172.9 275 173.1 273.9 173.6 273.6C173.8 273.3 174.8 272.8 174.9 272.6C175.1 272.4 175.3 271.9 175.2 271.6H174.2C174.1 271.6 173.7 271.2 173.3 271.2L173.1 270.8L172.9 270.6L171.9 270.3C171.4 270.1 170.9 270.1 170.4 269.8C169.7 269.4 168.9 268.2 168.1 268.1C167.1 267.9 166.5 268.1 165.6 268.1C165 268.2 165 267.9 164.6 267.7C163.9 267.5 164.4 268.1 162.9 267.6C162.7 267.4 162.9 266.9 163 266.7C162.8 266.7 162.5 266.8 162.2 266.7C161 266.4 161.4 265.3 161.2 264.7C161 264.4 160.5 264.5 160.2 264.5V264.2C160.5 263.9 159.8 263.1 159.8 263C159.8 262.7 161.3 262.5 161.5 262.5C161.6 262.3 161.4 262.1 161.4 261.9L161.7 260.5L160.7 259.5C160.8 259.4 161.1 259.2 161.1 259C161.8 257 162.9 258.6 163.9 256.8L164.4 255.8H164.6L165.2 256C165.3 255.8 165.6 255.7 165.8 255.6L166.2 255.7C168 255.3 167.6 254.7 168.6 253.9C168.9 253.7 169.7 253.7 170.1 253.5C170.5 253.7 171.1 254.3 171.8 254.6C172.3 254.8 174.1 255.2 174.4 255.4C174.8 255.6 174.9 256.1 175.3 256.3C176.3 256.8 175.7 255.9 176.7 256.1C177.7 256.3 178.5 257.1 179.5 257.5H180.2C180.5 257.5 182.2 257.1 182.3 257.2L183 257.5C183.2 257.5 183.4 257 183.5 257C184.2 257.1 184.3 257.4 185.2 257.3C185.2 257.3 185.7 254.7 186.2 254.6C186.4 254.6 187.1 255.2 187.2 255.3C187.6 255.3 187.2 254.7 187.2 254.7C187.2 254.5 186.6 252.9 186.7 252.7C186.7 252.7 187.1 252.9 187.3 252.7C187.9 252.7 188.5 252.5 188.9 252.1L189.8 250.9C189.8 250.7 189.6 250.2 189.7 250.1L190.4 249.6C190.7 249.3 190.8 248.8 191.2 248.6C192.9 248.4 193.4 247.1 194.9 246.9H195.4L195.7 247.4C195.8 247.5 196.7 248.1 197 248.1L197.3 247.8C197.6 247.8 198.4 247.3 198.5 247C198.5 247 198.3 246.8 198.5 246.6C198.5 246.5 199.5 245.6 199.7 245.6H200.8L201.3 246.1H202.2C202.4 246.1 202.5 245.7 202.7 245.6L202.8 245.7Z" fill="#D0A650"/>
<path d="M281.9 124.5L294.8 164.2L261 139.7H302.7L269 164.2L281.9 124.5ZM332.1 133.4L345 173.1L311.2 148.6H353L319.2 173L332.1 133.3V133.4ZM380 150.8L393 190.5L359.2 166H400.9L367.1 190.5L380.1 150.8H380ZM230.9 124.5L217.9 164.2L251.7 139.7H210L243.8 164.2L230.8 124.5H230.9ZM180.7 133.4L167.7 173.1L201.5 148.6H159.8L193.5 173L180.5 133.3L180.7 133.4ZM133 150.8L145.9 190.5L112.1 166H153.8L120.1 190.5L133 150.8Z" fill="white"/>
</g>
<defs>
<clipPath id="clip0_103_946">
<rect width="512" height="512" fill="white" transform="translate(0.5)"/>
</clipPath>
</defs>
</svg>
