<svg width="513" height="512" viewBox="0 0 513 512" fill="none" xmlns="http://www.w3.org/2000/svg">
<g clip-path="url(#clip0_103_974)">
<mask id="mask0_103_974" style="mask-type:luminance" maskUnits="userSpaceOnUse" x="0" y="0" width="513" height="512">
<path d="M0.460693 0H512.382V511.922H0.460693V0Z" fill="white"/>
</mask>
<g mask="url(#mask0_103_974)">
<path fill-rule="evenodd" clip-rule="evenodd" d="M-255.5 0H512.382V511.922H-255.5V0Z" fill="#198A00"/>
<path fill-rule="evenodd" clip-rule="evenodd" d="M422.383 183.92H512.382V511.922H422.28L422.383 183.92Z" fill="#EF7D00"/>
<path fill-rule="evenodd" clip-rule="evenodd" d="M332.384 183.714H422.383V511.922H332.384V183.714Z" fill="black"/>
<path fill-rule="evenodd" clip-rule="evenodd" d="M240.424 184.023H332.281V511.922H240.424V184.023Z" fill="#DE2010"/>
<path fill-rule="evenodd" clip-rule="evenodd" d="M452.108 65.5382C452.108 65.5382 486.064 51.0888 489.263 48.0957C490.812 49.8503 475.743 68.1184 446.431 74.9303C473.059 68.5313 495.766 48.8182 500.307 49.4374C501.649 49.7471 501.339 68.7377 440.445 85.1481C482.555 74.1046 507.119 53.7723 506.809 56.0429C507.119 56.4557 502.681 72.0404 465.732 84.116C476.053 81.7422 503.919 64.7125 503.61 68.0152C504.539 69.357 476.569 105.171 426.099 93.5081C466.351 104.036 492.566 78.7491 496.282 79.1619C497.107 79.3683 488.851 101.249 438.071 102.591C462.429 100.114 455.411 102.487 455.411 102.487C455.411 102.487 440.961 113.737 423.725 106.1C437.349 109.815 438.794 109.918 439.103 111.157C438.174 112.602 427.028 114.873 416.191 109.093C424.86 112.602 432.704 113.221 432.808 114.563C431.283 115.644 429.515 116.333 427.661 116.567C425.806 116.801 423.922 116.573 422.177 115.905C417.326 113.737 371.81 85.7674 371.81 85.7674L449.218 64.5061L452.108 65.5382ZM361.077 141.191C360.222 141.09 359.356 141.169 358.533 141.422C357.71 141.674 356.95 142.096 356.299 142.659C355.648 143.222 355.122 143.915 354.754 144.693C354.386 145.471 354.184 146.317 354.162 147.177C354.162 147.177 353.542 147.693 353.955 150.583C354.425 149.674 354.978 148.811 355.606 148.003C356.329 148.003 359.528 149.035 364.379 145.216C359.941 149.861 362.625 151.615 362.625 151.615C362.625 151.615 361.593 155.331 364.999 156.053C363.967 154.505 364.586 153.267 364.586 153.267C364.586 153.267 369.333 152.751 369.024 146.868C369.23 152.131 372.12 153.473 372.12 153.473C372.12 153.473 372.12 156.363 375.216 156.569C373.565 155.124 373.875 152.854 373.875 152.854C373.875 152.854 378.003 149.861 374.494 144.907C376.558 143.771 378.313 140.469 378.313 140.469C378.313 140.469 375.423 139.23 374.184 138.198C373.565 136.96 374.184 129.735 374.184 129.735L372.43 120.446L367.579 134.895C367.785 132.831 367.889 141.088 361.077 141.088V141.191Z" fill="#EF7D00" stroke="black" stroke-width="0.92889" stroke-linejoin="round"/>
<path fill-rule="evenodd" clip-rule="evenodd" d="M394.723 120.239C394.826 120.446 399.883 125.916 404.631 125.606C406.386 124.161 400.812 120.859 400.812 120.136C402.877 121.891 411.03 128.909 416.294 126.329C418.358 123.439 412.475 123.852 406.076 115.801C410.514 118.795 421.764 125.4 427.028 122.82C429.195 120.446 415.365 112.912 410.72 107.132L398.748 100.939L382.441 114.357L394.723 120.239Z" fill="#EF7D00" stroke="black" stroke-width="0.92889" stroke-linejoin="round"/>
<path fill-rule="evenodd" clip-rule="evenodd" d="M376.352 74.8272C376.352 74.8272 381.925 71.5245 404.012 73.1758C406.386 73.4854 419.08 68.841 423.106 67.4993C429.505 66.364 449.94 61.8227 455.514 57.6943C459.436 57.1783 454.481 64.919 449.527 66.6736C444.367 69.0474 425.376 75.6529 418.564 74.724C426.718 74.8272 422.177 81.4326 408.759 78.2331C415.158 81.8455 412.888 82.4647 412.888 82.4647C412.888 82.4647 401.535 83.084 398.438 80.5037C406.076 83.3936 402.98 84.4257 402.98 84.4257C402.98 84.4257 395.136 85.1482 391.627 83.4968C397.097 85.1482 394.31 86.1803 394.31 86.1803C394.31 86.1803 389.769 86.9028 386.053 85.561C382.338 84.2193 376.661 74.8272 376.352 74.8272Z" fill="#EF7D00" stroke="black" stroke-width="0.92889" stroke-linecap="round" stroke-linejoin="round"/>
<path fill-rule="evenodd" clip-rule="evenodd" d="M385.228 123.336L386.053 137.992L385.228 139.127C384.815 139.643 374.907 137.579 376.248 145.32C376.248 148.416 376.248 149.138 378.313 150.893C377.797 148.829 378.003 147.384 378.003 147.384C378.003 147.384 380.79 149.138 383.576 144.494C381.719 149.035 383.06 150.687 383.473 150.687C383.886 151.615 382.751 155.331 386.466 155.228C385.021 153.886 385.744 151.822 385.744 151.822C385.744 151.822 389.666 151.203 388.221 144.081C389.666 142.636 390.285 144.081 390.285 144.081C390.285 144.081 390.698 148.21 394.104 147.384C395.652 148.313 393.897 150.583 393.897 150.583C393.897 150.583 396.374 150.583 397.097 148.519C397.922 146.455 398.748 142.636 394.62 141.088C394.104 139.54 396.271 139.437 396.271 139.437C396.271 139.437 398.851 140.262 399.677 141.604C400.4 142.946 400.09 138.198 396.89 137.682C392.865 137.579 392.659 136.65 392.659 136.547L391.627 122.923L385.228 123.336Z" fill="#EF7D00" stroke="black" stroke-width="0.92889" stroke-linejoin="round"/>
<path fill-rule="evenodd" clip-rule="evenodd" d="M399.161 135.824C399.161 135.102 392.349 125.916 394.001 124.678C395.755 125.09 398.645 129.322 400.916 127.877C400.296 126.226 398.232 127.155 395.755 123.026C393.484 118.279 393.175 111.157 384.918 103.416C390.285 111.673 402.361 116.421 402.877 113.944C403.393 111.467 392.246 102.591 392.762 100.32C394.929 104.861 406.179 114.769 414.436 114.047C414.952 112.086 407.624 108.164 405.766 104.552C400.606 101.043 386.466 88.8638 386.157 86.0771C383.714 81.8527 380.365 78.2221 376.352 75.4465C375.732 74.8272 375.629 74.1047 375.526 73.6919C372.326 66.2608 376.558 63.7837 379.035 63.3709C381.099 63.2677 381.615 63.4741 383.163 62.8548L377.9 60.7906C380.17 62.442 385.95 60.9971 384.608 65.7447C387.189 64.8158 392.556 58.52 378.519 56.9719C373.978 51.8114 355.297 48.7151 350.652 71.5245C350.962 71.8341 351.168 72.1437 352.407 73.0726C346.421 70.1827 330.526 67.9121 324.747 67.0864C309.265 62.5452 293.164 51.8114 291.616 53.0499C289.552 54.082 300.905 64.7126 300.389 64.919C290.378 59.1393 281.398 55.0109 272.935 51.2953C266.949 49.0247 261.066 43.8642 260.344 44.8963C258.279 49.4375 269.942 60.7906 272.11 62.1324C274.174 63.3709 291.41 71.4213 291.1 71.4213C265.298 59.7585 260.963 57.5911 259.724 56.2494C257.454 55.7333 251.88 48.3022 250.435 48.7151C249.507 49.5407 251.158 61.4099 263.543 66.6736C265.607 68.1185 289.862 76.9946 289.655 77.6139L260.653 65.6415C255.286 63.5773 248.681 56.1462 247.442 56.9719C246.307 57.7975 250.539 65.7447 255.906 68.325C258.795 69.5635 269.633 74.9304 279.541 78.3363C280.16 78.646 261.892 71.4213 253.016 67.7057C249.094 65.6415 247.133 62.7516 246.617 63.3709C245.585 63.9901 248.062 75.7561 276.341 82.4647C277.064 82.7744 286.249 80.2973 285.836 80.607C280.61 81.9056 275.299 82.8368 269.942 83.3936C269.632 84.2193 271.697 88.4509 286.353 87.522C288.21 87.522 298.325 83.9097 297.499 84.6321C297.086 85.045 283.669 89.3798 282.637 89.483C281.811 89.483 277.064 90.1023 276.96 90.5151C276.754 91.2376 280.366 94.2307 288.314 94.6435C295.229 95.0564 308.336 90.5151 308.13 90.8247C307.82 91.1344 295.435 95.366 295.022 95.5724C294.609 95.882 290.068 96.0885 289.862 96.5013C289.552 97.327 296.467 103.829 317.006 96.9141C314.942 99.7008 305.033 101.559 305.033 102.075C305.033 102.487 307.201 104.655 310.71 105.377C312.465 105.79 314.838 105.687 316.903 105.377C322 104.375 326.677 101.857 330.32 98.1527C330.836 99.7008 317.212 106.719 317.832 107.338C320.825 110.125 330.63 106.926 331.249 106.616C337.9 103.101 344.282 99.099 350.343 94.6435C350.652 96.1917 326.604 109.299 326.914 109.815C328.462 112.189 336.719 109.609 337.029 109.403L347.762 103.623C348.072 103.416 335.996 110.744 337.029 111.88C336.513 116.524 355.916 108.577 357.464 107.545C358.187 107.029 348.175 111.983 348.175 114.357C351.272 119.827 361.799 118.072 363.347 116.834C364.173 116.318 362.315 120.962 362.934 120.549C364.181 119.27 365.225 117.809 366.031 116.214C365.824 117.763 364.586 120.136 363.966 122.923C363.347 125.71 363.141 128.909 362.212 132.212C362.005 133.657 368.611 129.322 367.682 119.001C368.198 124.368 365.618 134.483 366.237 134.895C367.682 135.928 371.398 129.941 371.914 125.813C372.946 127.877 375.423 132.212 377.487 133.244C377.281 130.148 377.487 130.148 376.558 127.155C377.074 123.026 377.177 117.453 377.281 111.054C382.957 121.788 385.124 126.329 383.576 134.586C385.228 135.308 387.911 128.806 387.705 125.503C389.769 134.792 399.058 136.134 399.264 135.824H399.161Z" fill="#EF7D00" stroke="black" stroke-width="1.0321" stroke-linecap="round" stroke-linejoin="round"/>
<path fill-rule="evenodd" clip-rule="evenodd" d="M305.859 67.7058C305.859 67.7058 302.04 70.5957 297.293 70.3893C298.428 75.1369 308.336 71.5246 308.336 71.5246C308.336 71.5246 303.589 76.7883 300.079 77.7172C302.144 79.2653 310.71 78.7493 312.155 77.9236C313.6 76.9947 316.18 73.7952 316.18 73.7952C316.18 73.7952 307.407 83.9098 306.066 83.8066C305.962 84.9419 315.354 84.529 317.315 82.7745C319.276 81.0199 324.127 78.3364 324.127 78.3364C324.127 78.3364 311.226 87.3157 310.71 87.3157C315.458 88.6574 325.159 85.8708 331.352 82.052C322.166 88.1414 321.341 89.2767 316.696 91.3409C320.825 92.1666 322.889 94.9532 337.029 88.8639C345.079 85.0451 349.62 78.13 349.62 78.13C343.488 85.3244 336.155 91.4007 327.946 96.0886C327.533 97.1207 337.338 101.249 349.93 88.2446" fill="#EF7D00"/>
<path d="M305.859 67.7058C305.859 67.7058 302.04 70.5957 297.293 70.3893C298.428 75.1369 308.336 71.5246 308.336 71.5246C308.336 71.5246 303.589 76.7883 300.079 77.7172C302.144 79.2653 310.71 78.7493 312.155 77.9236C313.6 76.9947 316.18 73.7952 316.18 73.7952C316.18 73.7952 307.407 83.9098 306.066 83.8066C305.962 84.9419 315.354 84.529 317.315 82.7745C319.276 81.0199 324.127 78.3364 324.127 78.3364C324.127 78.3364 311.226 87.3157 310.71 87.3157C315.458 88.6574 325.159 85.8708 331.352 82.052C322.166 88.1414 321.341 89.2767 316.696 91.3409C320.825 92.1666 322.889 94.9532 337.029 88.8639C345.079 85.0451 349.62 78.13 349.62 78.13C343.488 85.3244 336.155 91.4007 327.946 96.0886C327.533 97.1207 337.338 101.249 349.93 88.2446" stroke="black" stroke-width="1.0321" stroke-linecap="round" stroke-linejoin="round"/>
<path fill-rule="evenodd" clip-rule="evenodd" d="M373.978 95.9853C373.978 95.9853 374.804 100.01 378.106 103.004C381.512 106.1 381.822 109.093 381.822 109.093M372.223 70.0796C372.223 70.0796 373.462 73.6919 376.868 75.9626C380.591 78.9457 383.739 82.5832 386.157 86.6964C387.222 91.2551 388.015 95.8734 388.531 100.527M350.652 75.5497C350.859 76.9947 345.698 83.8065 352.82 91.8569C346.318 99.8041 346.318 100.836 346.318 100.836C346.318 100.836 349.93 102.9 356.535 97.2238C367.269 110.435 363.76 116.524 363.76 116.524" fill="#EF7D00"/>
<path d="M373.978 95.9853C373.978 95.9853 374.804 100.01 378.106 103.004C381.512 106.1 381.822 109.093 381.822 109.093M372.223 70.0796C372.223 70.0796 373.462 73.6919 376.868 75.9626C380.591 78.9457 383.739 82.5832 386.157 86.6964C387.222 91.2551 388.015 95.8734 388.531 100.527M350.652 75.5497C350.859 76.9947 345.698 83.8065 352.82 91.8569C346.318 99.8041 346.318 100.836 346.318 100.836C346.318 100.836 349.93 102.9 356.535 97.2238C367.269 110.435 363.76 116.524 363.76 116.524" stroke="black" stroke-width="1.0321" stroke-linecap="round"/>
<path fill-rule="evenodd" clip-rule="evenodd" d="M362.728 107.235C362.728 107.235 361.799 105.79 363.554 100.526C365.205 102.384 366.959 102.797 367.682 103.623C368.404 104.448 376.661 105.584 377.177 110.951" fill="#EF7D00"/>
<path d="M362.728 107.235C362.728 107.235 361.799 105.79 363.554 100.526C365.205 102.384 366.959 102.797 367.682 103.623C368.404 104.448 376.661 105.584 377.177 110.951" stroke="black" stroke-width="1.0321" stroke-linecap="round" stroke-linejoin="round"/>
<path fill-rule="evenodd" clip-rule="evenodd" d="M372.326 57.488C372.326 57.0751 370.675 53.566 364.586 57.9008C367.888 58.1072 371.088 59.965 372.326 57.488Z" fill="#EF7D00" stroke="black" stroke-width="1.0321"/>
<path fill-rule="evenodd" clip-rule="evenodd" d="M430.537 73.4854C430.847 73.6918 448.805 77.6138 454.791 75.5496C447.154 85.7673 431.879 78.8523 431.879 78.8523C439.413 81.1229 439.723 80.9165 442.097 82.9807C442.819 85.0449 428.37 84.116 423.519 81.4325C436.936 85.5609 437.142 85.3545 437.555 86.9027C438.175 89.1733 415.881 86.3866 413.817 83.3935C419.803 88.038 423.106 88.8636 426.409 91.0311C422.28 92.7856 414.849 94.5402 401.122 84.8385C419.184 101.352 435.491 100.32 438.071 103.21C431.776 112.499 407.418 97.7397 396.168 90.2054C385.021 82.7743 420.732 108.267 424.035 107.854C422.383 110.435 410.617 108.164 409.792 106.925" fill="#EF7D00"/>
<path d="M430.537 73.4854C430.847 73.6918 448.805 77.6138 454.791 75.5496C447.154 85.7673 431.879 78.8523 431.879 78.8523C439.413 81.1229 439.723 80.9165 442.097 82.9807C442.819 85.0449 428.37 84.116 423.519 81.4325C436.936 85.5609 437.142 85.3545 437.555 86.9027C438.175 89.1733 415.881 86.3866 413.817 83.3935C419.803 88.038 423.106 88.8636 426.409 91.0311C422.28 92.7856 414.849 94.5402 401.122 84.8385C419.184 101.352 435.491 100.32 438.071 103.21C431.776 112.499 407.418 97.7397 396.168 90.2054C385.021 82.7743 420.732 108.267 424.035 107.854C422.383 110.435 410.617 108.164 409.792 106.925" stroke="black" stroke-width="1.0321" stroke-linejoin="round"/>
<path fill-rule="evenodd" clip-rule="evenodd" d="M435.181 90.7214C433.117 91.0311 426.925 91.0311 425.893 90.8246L435.181 90.7214Z" fill="#EF7D00"/>
<path d="M435.181 90.7214C433.117 91.0311 426.925 91.0311 425.893 90.8246" stroke="black" stroke-width="1.0321" stroke-linecap="round"/>
<path fill-rule="evenodd" clip-rule="evenodd" d="M300.595 65.0222C300.595 65.0222 314.219 72.2469 319.999 71.7309C318.451 73.1758 316.18 73.7951 316.18 73.7951C317.625 74.3111 321.547 76.4785 327.533 75.0336C326.192 76.4785 324.334 78.1299 324.334 78.1299C324.334 78.1299 329.494 80.0909 335.274 77.0978C334.282 78.2875 333.352 79.5277 332.487 80.8133L336.616 81.123" fill="#EF7D00"/>
<path d="M300.595 65.0222C300.595 65.0222 314.219 72.2469 319.999 71.7309C318.451 73.1758 316.18 73.7951 316.18 73.7951C317.625 74.3111 321.547 76.4785 327.533 75.0336C326.192 76.4785 324.334 78.1299 324.334 78.1299C324.334 78.1299 329.494 80.0909 335.274 77.0978C334.282 78.2875 333.352 79.5277 332.487 80.8133L336.616 81.123" stroke="black" stroke-width="1.0321" stroke-linecap="round" stroke-linejoin="round"/>
</g>
</g>
<defs>
<clipPath id="clip0_103_974">
<rect width="512" height="512" fill="white" transform="translate(0.5)"/>
</clipPath>
</defs>
</svg>
