<svg width="513" height="512" viewBox="0 0 513 512" fill="none" xmlns="http://www.w3.org/2000/svg">
<g clip-path="url(#clip0_103_1145)">
<mask id="mask0_103_1145" style="mask-type:luminance" maskUnits="userSpaceOnUse" x="0" y="-1" width="513" height="513">
<path d="M0.57959 -0.0217285H512.538V511.95H0.57959V-0.0217285Z" fill="white"/>
</mask>
<g mask="url(#mask0_103_1145)">
<path d="M-1 0.100098H1019.52V511.828H-1V0.100098Z" fill="#006400"/>
<path d="M-1 73.2041H1019.52V438.724H-1V73.2041Z" fill="#FFD200"/>
<path d="M-1 146.308H1019.52V365.62H-1V146.308Z" fill="#D40000"/>
<path d="M-1 219.412H1019.52V292.516H-1V219.412Z" fill="black"/>
<path d="M-1 0.100098V511.828L339.172 255.964L-1 0.100098Z" fill="black" stroke="black" stroke-width="24.333"/>
<path d="M-1 0.100098V511.828L339.172 255.964L-1 0.100098Z" fill="white"/>
<path d="M128.387 127.301L195.814 335.282L19.4104 206.741H237.485L60.96 335.282L128.387 127.301Z" fill="#D40000"/>
<path d="M99.5937 309.208L111.5 307.015L133.489 306.162L141.629 306.893L159.853 309.939L161.189 308.112V294.953L163.376 283.622L167.021 272.169L171.03 263.031L176.132 253.527L184.394 255.599H186.581L186.824 254.015L169.329 239.028L151.105 225.017L124.742 205.279L122.312 204.67L119.518 183.957L117.453 177.743L114.658 175.306L109.434 173.6L103.603 173.844L100.93 175.306L95.3415 176.525L92.4258 177.012L90.4819 179.327L90.2389 182.251L98.3788 182.495L100.444 183.348L100.201 184.2L95.5845 184.81L93.3977 185.541L95.949 187.49L98.6218 188.465L102.023 189.683L102.752 192.12L102.995 223.555L101.173 228.428L100.566 237.566L103.238 248.532L96.4349 256.33L92.5473 263.275L91.8183 267.539L89.753 271.803L89.51 274.484L90.8464 277.408L96.0705 294.709L98.7432 308.965L99.5937 309.208Z" fill="#FFCC00"/>
<path d="M105.911 173.113C103.724 173.113 102.752 173.356 100.687 174.453C98.9758 175.436 97.0656 176.019 95.0986 176.159C92.0613 176.159 89.6315 178.352 89.6315 181.154V182.982L94.0052 182.86C106.883 183.226 95.2201 184.444 94.2482 184.566C91.0894 185.175 94.9771 187.734 98.7433 189.074C102.752 190.292 102.509 189.561 102.509 207.35C102.509 221.849 102.509 223.92 101.295 227.21C99.7152 232.083 99.7152 239.394 101.295 244.267C102.024 246.217 102.509 247.923 102.509 248.288C102.509 248.532 100.566 250.847 98.2573 253.527C94.0052 258.401 91.4539 263.396 91.4539 266.93C91.3023 268.067 90.8862 269.152 90.239 270.097C88.6596 272.169 88.6596 275.702 90.1175 277.042C91.6969 278.504 98.1358 303.603 98.2573 308.355C98.2573 310.061 98.5003 310.061 108.341 308.112C116.359 306.528 135.19 306.162 144.788 307.38C149.162 307.99 154.264 308.964 156.087 309.33C161.918 310.914 161.675 311.158 161.675 304.091C161.72 292.956 163.821 281.927 167.871 271.56C170.193 265.652 172.996 259.947 176.254 254.502C176.254 254.502 178.441 254.746 181.114 255.477C186.095 256.695 187.552 256.573 187.552 254.258C187.552 253.04 182.328 248.654 156.694 228.672C146.355 220.185 135.696 212.097 124.742 204.426C124.013 204.426 123.284 204.06 123.163 203.573L121.34 191.998C120.49 186.028 119.275 180.18 118.789 178.961C117.088 175.306 113.808 173.478 108.341 173.113C107.531 173.087 106.721 173.087 105.911 173.113ZM106.033 174.331H108.462C116.481 174.819 117.939 177.012 120.126 191.389C120.716 195.192 121.202 199.011 121.583 202.842C121.583 203.816 120.49 205.035 117.696 206.862C113.098 210.098 109.004 213.998 105.547 218.437L103.967 220.63L103.603 215.513V201.136C103.967 190.536 103.603 189.561 100.201 188.343C97.4069 187.368 93.7622 186.393 94.7341 185.784C95.949 185.053 97.1639 185.54 100.08 184.688C101.295 184.444 101.173 184.566 100.93 183.591C100.687 182.007 98.9863 181.154 94.4911 181.398C90.8464 181.642 90.482 181.52 90.7249 180.545C91.2109 178.596 93.1547 177.377 96.192 177.012C98.0514 176.796 99.8598 176.26 101.538 175.428C102.894 174.61 104.45 174.188 106.033 174.209V174.331ZM124.135 205.766H124.621C126.686 206.131 186.338 252.918 186.338 254.258C186.338 254.746 185.852 255.111 185.123 255.111C184.637 255.111 169.45 250.847 151.47 245.608C122.798 237.079 118.668 235.86 117.453 234.276C116.608 233.206 116.138 231.886 116.116 230.52C116.094 229.155 116.521 227.82 117.331 226.722C117.914 226.013 118.33 225.179 118.546 224.286C118.546 222.824 115.509 226.479 114.901 228.55C114.294 230.987 115.509 235.129 117.331 236.47C118.06 237.079 123.527 238.906 129.48 240.734C139.685 243.658 140.414 244.024 140.9 245.729C142.115 249.75 137.863 254.502 131.789 255.842C129.511 256.389 127.364 257.383 125.471 258.766C119.168 264.002 112.126 268.272 104.575 271.438C104.089 271.803 103.481 273.753 103.117 275.58C102.388 279.601 102.145 280.21 100.93 280.21C100.323 280.21 100.201 279.845 100.687 278.504C101.538 276.068 101.416 273.143 100.566 273.143C99.9582 273.143 99.7152 273.996 99.7152 275.337C99.7152 276.555 99.3507 278.017 98.8648 278.383C98.2573 279.114 98.1358 278.626 98.3788 275.58C98.6218 273.509 98.5003 271.925 98.2573 271.925C97.6499 271.925 96.5565 274.971 96.192 277.652C95.949 279.235 95.949 279.235 95.4631 277.286C95.0986 275.824 95.2201 274.849 96.3135 273.022C97.0038 271.698 97.4173 270.247 97.5284 268.757C97.5284 267.173 98.7433 265.589 104.453 259.863C108.098 256.086 112.593 251.334 114.173 249.263C116.967 245.851 117.088 245.608 116.967 242.074C116.967 240.125 116.724 238.297 116.481 238.054C115.752 237.322 114.78 241.221 115.266 243.293C115.509 245.242 115.266 245.851 111.257 250.603C108.372 253.915 105.332 257.086 102.145 260.107C97.4069 264.493 95.706 266.93 95.706 269.123C95.706 269.854 95.2201 271.56 94.4911 273.143C93.7622 274.727 93.5192 276.311 93.7622 276.677C94.0052 277.042 93.7622 277.042 93.3977 276.677C92.7903 276.068 92.7903 275.093 93.2762 273.022C93.5544 271.99 93.6368 270.916 93.5192 269.854C92.9118 268.635 92.0613 270.097 91.6969 273.143C91.4539 274.849 91.0894 276.189 90.7249 275.946C89.8745 275.458 90.1175 272.291 91.2109 270.585C91.8184 269.732 92.4258 267.782 92.7903 266.199C93.6407 261.69 95.5845 258.035 99.8367 253.162C101.198 251.675 102.496 250.131 103.724 248.532L102.509 244.511C100.88 239.078 100.796 233.297 102.266 227.819C103.846 223.189 107.005 218.559 111.986 213.564C116.845 208.812 121.583 205.888 124.135 205.766ZM142.358 244.998C142.512 244.987 142.667 244.997 142.814 245.029C142.961 245.06 143.096 245.112 143.211 245.182C143.326 245.251 143.418 245.335 143.48 245.43C143.542 245.524 143.574 245.626 143.573 245.729C143.498 245.873 143.359 245.997 143.174 246.085C142.989 246.173 142.767 246.22 142.54 246.22C142.313 246.22 142.092 246.173 141.907 246.085C141.722 245.997 141.582 245.873 141.508 245.729C141.501 245.561 141.583 245.396 141.738 245.262C141.893 245.129 142.112 245.036 142.358 244.998ZM145.395 245.364C145.549 245.352 145.704 245.363 145.851 245.394C145.998 245.426 146.134 245.478 146.248 245.547C146.363 245.616 146.455 245.701 146.517 245.795C146.58 245.89 146.611 245.992 146.61 246.095C146.536 246.238 146.396 246.363 146.211 246.451C146.026 246.538 145.805 246.586 145.578 246.586C145.351 246.586 145.129 246.538 144.944 246.451C144.759 246.363 144.62 246.238 144.545 246.095C144.539 245.926 144.62 245.761 144.775 245.628C144.93 245.495 145.149 245.401 145.395 245.364ZM148.554 245.973C148.708 245.962 148.863 245.972 149.01 246.004C149.157 246.035 149.292 246.087 149.407 246.156C149.522 246.225 149.614 246.31 149.676 246.404C149.738 246.499 149.77 246.601 149.769 246.704C149.694 246.848 149.555 246.972 149.37 247.06C149.185 247.148 148.963 247.195 148.736 247.195C148.509 247.195 148.288 247.148 148.103 247.06C147.918 246.972 147.778 246.848 147.704 246.704C147.697 246.535 147.779 246.37 147.934 246.237C148.089 246.104 148.308 246.011 148.554 245.973ZM151.47 246.582C151.623 246.571 151.779 246.581 151.926 246.613C152.073 246.644 152.208 246.696 152.323 246.765C152.438 246.835 152.529 246.919 152.592 247.013C152.654 247.108 152.686 247.21 152.685 247.313C152.61 247.457 152.471 247.581 152.286 247.669C152.101 247.757 151.879 247.804 151.652 247.804C151.425 247.804 151.204 247.757 151.019 247.669C150.834 247.581 150.694 247.457 150.62 247.313C150.613 247.145 150.694 246.98 150.85 246.846C151.005 246.713 151.224 246.62 151.47 246.582ZM143.816 247.313C143.97 247.302 144.125 247.312 144.272 247.344C144.419 247.375 144.554 247.427 144.669 247.496C144.784 247.566 144.875 247.65 144.938 247.745C145 247.839 145.032 247.941 145.031 248.044C144.956 248.188 144.817 248.312 144.632 248.4C144.447 248.488 144.225 248.535 143.998 248.535C143.771 248.535 143.55 248.488 143.365 248.4C143.18 248.312 143.04 248.188 142.966 248.044C142.959 247.876 143.041 247.711 143.196 247.577C143.351 247.444 143.57 247.351 143.816 247.313ZM146.732 247.801C146.885 247.789 147.041 247.8 147.188 247.831C147.335 247.863 147.47 247.915 147.585 247.984C147.7 248.053 147.791 248.137 147.854 248.232C147.916 248.326 147.948 248.429 147.947 248.532C147.872 248.675 147.733 248.799 147.548 248.887C147.363 248.975 147.141 249.023 146.914 249.023C146.687 249.023 146.466 248.975 146.281 248.887C146.096 248.799 145.956 248.675 145.881 248.532C145.875 248.363 145.956 248.198 146.111 248.065C146.266 247.931 146.486 247.838 146.732 247.801ZM153.049 248.044C153.203 248.033 153.358 248.043 153.505 248.075C153.652 248.106 153.788 248.158 153.902 248.228C154.017 248.297 154.109 248.381 154.171 248.476C154.233 248.57 154.265 248.672 154.264 248.775C154.19 248.919 154.05 249.043 153.865 249.131C153.68 249.219 153.459 249.266 153.232 249.266C153.005 249.266 152.783 249.219 152.598 249.131C152.413 249.043 152.274 248.919 152.199 248.775C152.193 248.607 152.274 248.442 152.429 248.308C152.584 248.175 152.803 248.082 153.049 248.044ZM149.769 248.044C149.923 248.033 150.078 248.043 150.225 248.075C150.372 248.106 150.507 248.158 150.622 248.228C150.737 248.297 150.828 248.381 150.891 248.476C150.953 248.57 150.985 248.672 150.984 248.775C150.909 248.919 150.77 249.043 150.585 249.131C150.4 249.219 150.178 249.266 149.951 249.266C149.724 249.266 149.503 249.219 149.318 249.131C149.133 249.043 148.993 248.919 148.919 248.775C148.912 248.607 148.994 248.442 149.149 248.308C149.304 248.175 149.523 248.082 149.769 248.044ZM155.844 248.775C155.965 248.775 160.339 249.75 165.563 251.212L175.16 254.015L173.338 257.304C172.32 259.066 171.348 260.853 170.422 262.665C169.207 265.102 168.965 265.102 163.133 263.762C156.816 262.3 146.853 260.959 136.648 260.107L126.929 259.254L130.574 257.913C132.774 257.064 134.924 256.088 137.013 254.989C139.442 253.649 140.414 253.405 144.181 253.771C149.648 254.136 153.292 253.04 154.75 250.847L155.965 248.775H155.844ZM145.152 249.506C145.306 249.495 145.461 249.505 145.608 249.537C145.755 249.569 145.891 249.621 146.005 249.69C146.12 249.759 146.212 249.843 146.274 249.938C146.337 250.032 146.368 250.134 146.367 250.238C146.293 250.381 146.153 250.505 145.968 250.593C145.783 250.681 145.562 250.728 145.335 250.728C145.108 250.728 144.886 250.681 144.701 250.593C144.516 250.505 144.377 250.381 144.302 250.238C144.296 250.069 144.377 249.904 144.532 249.77C144.687 249.637 144.906 249.544 145.152 249.506ZM151.956 249.506C152.109 249.495 152.265 249.505 152.412 249.537C152.559 249.569 152.694 249.621 152.809 249.69C152.924 249.759 153.015 249.843 153.078 249.938C153.14 250.032 153.172 250.134 153.171 250.238C153.079 250.357 152.939 250.457 152.768 250.527C152.597 250.597 152.4 250.634 152.199 250.634C151.998 250.634 151.801 250.597 151.63 250.527C151.458 250.457 151.319 250.357 151.227 250.238C151.221 250.069 151.302 249.904 151.457 249.77C151.612 249.637 151.831 249.544 152.077 249.506H151.956ZM142.237 249.506C142.39 249.495 142.546 249.505 142.693 249.537C142.84 249.569 142.975 249.621 143.09 249.69C143.204 249.759 143.296 249.843 143.358 249.938C143.421 250.032 143.453 250.134 143.452 250.238C143.377 250.381 143.237 250.505 143.052 250.593C142.867 250.681 142.646 250.728 142.419 250.728C142.192 250.728 141.971 250.681 141.785 250.593C141.6 250.505 141.461 250.381 141.386 250.238C141.418 250.09 141.517 249.953 141.669 249.844C141.821 249.735 142.019 249.66 142.237 249.628V249.506ZM148.676 249.75C148.957 249.727 149.241 249.777 149.467 249.891C149.694 250.004 149.846 250.172 149.891 250.359C149.816 250.503 149.676 250.627 149.491 250.715C149.306 250.803 149.085 250.85 148.858 250.85C148.631 250.85 148.409 250.803 148.224 250.715C148.039 250.627 147.9 250.503 147.825 250.359C147.857 250.212 147.956 250.075 148.108 249.966C148.26 249.857 148.458 249.782 148.676 249.75ZM140.657 251.09C140.811 251.079 140.966 251.089 141.113 251.121C141.26 251.152 141.396 251.204 141.51 251.274C141.625 251.343 141.717 251.427 141.779 251.522C141.841 251.616 141.873 251.718 141.872 251.821C141.798 251.965 141.658 252.089 141.473 252.177C141.288 252.265 141.067 252.312 140.84 252.312C140.613 252.312 140.391 252.265 140.206 252.177C140.021 252.089 139.882 251.965 139.807 251.821C139.801 251.653 139.882 251.488 140.037 251.354C140.192 251.221 140.411 251.128 140.657 251.09ZM143.695 251.09C143.865 251.076 144.037 251.088 144.199 251.127C144.361 251.165 144.506 251.228 144.625 251.311C144.743 251.394 144.83 251.495 144.88 251.605C144.929 251.714 144.939 251.83 144.909 251.943C144.835 252.087 144.695 252.211 144.51 252.299C144.325 252.387 144.104 252.434 143.877 252.434C143.65 252.434 143.428 252.387 143.243 252.299C143.058 252.211 142.919 252.087 142.844 251.943C142.838 251.775 142.919 251.609 143.074 251.476C143.229 251.343 143.448 251.25 143.695 251.212V251.09ZM146.853 251.334C147.134 251.311 147.418 251.361 147.645 251.475C147.871 251.588 148.023 251.756 148.068 251.943C147.994 252.087 147.854 252.211 147.669 252.299C147.484 252.387 147.263 252.434 147.036 252.434C146.809 252.434 146.587 252.387 146.402 252.299C146.217 252.211 146.078 252.087 146.003 251.943C146.035 251.796 146.134 251.659 146.286 251.55C146.438 251.441 146.636 251.366 146.853 251.334ZM150.255 251.334C150.409 251.323 150.564 251.333 150.711 251.365C150.858 251.396 150.993 251.448 151.108 251.517C151.223 251.586 151.314 251.671 151.377 251.765C151.439 251.86 151.471 251.962 151.47 252.065C151.395 252.208 151.256 252.333 151.071 252.421C150.886 252.509 150.664 252.556 150.437 252.556C150.21 252.556 149.989 252.509 149.804 252.421C149.619 252.333 149.479 252.208 149.405 252.065C149.398 251.896 149.48 251.731 149.635 251.598C149.79 251.465 150.009 251.372 150.255 251.334ZM125.593 261.203C139.934 261.585 154.209 263.298 168.236 266.32C168.357 266.442 167.507 269.366 166.17 272.9L163.74 280.21C163.619 280.819 162.769 280.819 160.703 280.576C150.62 278.992 121.462 279.114 110.285 280.819C103.846 281.794 102.995 281.672 103.481 280.332L104.696 276.068L105.425 272.778L111.986 269.366C116.359 267.129 120.508 264.477 124.378 261.447H125.471L125.593 261.203ZM92.7903 278.504C93.1547 278.504 93.8837 278.87 94.7341 279.479C95.949 280.21 97.4069 280.819 98.0143 280.819C101.173 280.819 102.874 285.327 105.547 300.314L106.519 305.675C106.762 306.893 106.519 307.137 103.724 307.746C100.323 308.477 99.4722 308.599 99.4722 308.112C99.4722 306.893 96.0705 291.419 94.6126 285.937C93.887 283.521 93.2387 281.083 92.6688 278.626C92.6873 278.616 92.7082 278.61 92.7295 278.61C92.7509 278.61 92.7718 278.616 92.7903 278.626V278.504ZM127.536 280.941H131.06L129.845 282.16C127.779 284.596 126.807 284.718 125.35 283.134C124.838 282.604 124.426 281.985 124.135 281.307C124.135 281.063 125.714 280.819 127.536 280.819V280.941ZM134.947 280.941H141.508L140.05 282.403C138.349 284.353 138.228 284.353 136.405 282.403L134.947 280.819V280.941ZM144.909 280.941H146.489C147.339 280.941 148.919 280.941 149.891 281.185L151.713 281.55L150.012 283.134C149.04 283.987 148.19 284.718 148.068 284.596L146.367 282.647L144.909 280.819V280.941ZM155.236 281.307L156.694 281.672C157.544 281.916 159.367 282.038 160.703 282.16H163.133L161.311 283.744C160.65 284.361 159.916 284.893 159.124 285.327C159.002 285.327 157.909 284.353 157.058 283.256L155.236 281.307ZM118.546 281.429H118.789C118.911 281.672 118.425 282.647 117.574 283.5L116.359 285.206L114.537 283.744L112.715 282.16L115.63 281.794L118.546 281.429ZM121.34 281.672L123.284 283.378L125.228 285.206L121.583 285.449L117.939 285.571L119.64 283.744L121.34 281.672ZM143.209 281.672C143.573 281.672 143.816 281.794 144.181 282.038C144.816 282.637 145.349 283.337 145.76 284.109C146.246 285.084 146.124 285.327 144.545 285.327L141.508 284.718L140.05 284.353L141.629 282.769C142.358 282.038 142.844 281.55 143.33 281.55L143.209 281.672ZM133.125 281.672C133.732 281.672 134.34 282.038 135.069 283.256C135.919 284.596 135.919 284.596 132.639 284.596H129.359L131.06 283.012C131.91 282.16 132.639 281.794 133.125 281.794V281.672ZM153.778 281.916L155.236 283.378C156.937 284.962 157.18 285.937 155.965 285.815L152.563 285.449L149.891 285.206L151.834 283.622L153.778 281.916ZM111.014 282.769C111.257 282.769 112.229 283.378 112.958 284.231L114.416 285.815L111.378 286.302L107.126 286.911C106.276 287.155 106.519 286.546 108.341 284.962C109.556 283.744 110.771 282.769 111.014 282.769ZM106.519 282.769H107.005C107.977 283.012 107.977 283.256 106.276 284.962L104.453 286.79L103.846 285.206C103.36 283.987 103.481 283.622 104.575 283.134C105.197 282.902 105.855 282.779 106.519 282.769ZM162.404 284.962C162.647 284.962 162.647 285.206 162.404 285.693C162.161 286.668 161.068 286.911 161.068 285.937C161.068 285.693 161.432 285.327 161.918 285.084H162.283L162.404 284.962ZM136.405 286.911C145.76 286.911 155.236 287.155 157.544 287.399C161.311 287.886 161.675 288.008 161.675 289.47C161.675 291.176 161.189 291.298 156.087 290.445C154.629 290.079 148.433 289.592 142.48 289.104C130.926 288.404 119.332 288.812 107.855 290.323C105.547 290.567 104.939 290.323 104.939 289.592C104.939 288.008 117.331 286.911 136.405 286.911ZM123.892 290.445H130.452L128.994 292.029C127.172 293.978 127.05 293.978 125.35 292.029L123.892 290.445ZM132.396 290.445L134.097 292.15L135.798 294.1L132.275 294.222H128.751L130.574 292.272L132.275 290.445H132.396ZM134.947 290.445H141.508L140.05 292.029C138.349 293.978 138.228 293.978 136.405 292.029L134.947 290.445ZM119.397 290.445C119.64 290.445 119.397 291.054 118.546 292.272C117.696 293.369 116.845 294.222 116.724 294.222C116.481 294.222 115.63 293.491 114.901 292.638L113.444 291.054H115.63C116.742 291.06 117.848 290.895 118.911 290.567C119.071 290.534 119.236 290.534 119.397 290.567V290.445ZM121.826 291.054L123.406 292.516L125.228 294.1L122.069 294.344L118.546 294.587L120.247 292.76L121.826 291.054ZM142.966 291.054L144.667 293.003C146.61 295.075 146.489 295.196 142.115 294.344L140.05 293.978L141.508 292.516L142.966 291.054ZM145.395 291.054H148.311C151.47 291.054 151.834 291.541 150.012 293.247C148.554 294.465 148.554 294.465 146.853 292.638L145.395 291.054ZM108.22 291.663C109.677 291.663 109.556 291.785 107.734 293.613C106.397 294.953 106.276 294.953 105.79 293.978C105.425 292.76 106.519 291.785 108.22 291.663ZM155.358 291.907C155.844 291.907 156.816 291.907 157.787 292.15L160.582 292.638L159.002 294.1L157.544 295.562L156.208 293.856L154.993 291.907H155.358ZM111.621 292.516C111.986 292.516 112.35 292.76 112.958 293.369C114.173 294.587 114.173 294.587 113.201 295.075C112.259 295.385 111.276 295.55 110.285 295.562H108.341L109.92 293.856C110.771 293.003 111.135 292.638 111.5 292.516H111.621ZM153.049 292.882C153.535 292.882 153.9 293.125 154.507 294.1L155.601 295.562H153.049C151.348 295.562 150.62 295.318 150.62 294.831C150.863 294.344 151.47 293.613 152.199 293.247L153.049 292.882ZM160.825 294.465C161.068 294.465 161.068 294.709 161.068 295.075C161.068 296.293 159.974 297.146 159.488 296.293C159.367 295.928 159.61 295.318 160.096 294.953L160.825 294.465ZM129.359 295.928C139.928 295.928 151.591 296.659 158.516 297.877L160.46 298.242V303.603C160.46 307.624 160.217 308.964 159.61 308.964L153.535 307.746C139.487 305.357 125.175 304.947 111.014 306.528L108.22 306.893L107.491 302.385C107.189 300.86 107.026 299.31 107.005 297.755C107.005 297.755 109.799 297.146 113.079 296.78C117.088 296.171 123.041 295.928 129.359 295.928Z" fill="black"/>
<path d="M150.62 265.468C146.975 265.468 144.424 268.026 144.424 271.803C144.424 277.652 150.984 280.576 154.872 276.433C158.759 272.291 156.087 265.468 150.62 265.468ZM150.62 266.93C151.258 266.93 151.89 267.056 152.479 267.301C153.069 267.546 153.605 267.904 154.056 268.357C154.507 268.81 154.865 269.347 155.109 269.938C155.353 270.529 155.479 271.163 155.479 271.803C155.479 275.458 151.47 277.895 148.19 276.311C144.91 274.484 145.153 268.879 148.676 267.417C149.249 267.145 149.866 266.98 150.498 266.93H150.62Z" fill="black"/>
<path d="M126.2 264.737C122.555 264.737 120.004 267.295 120.004 271.072C120.004 276.921 126.565 279.845 130.452 275.702C134.34 271.56 131.667 264.737 126.2 264.737ZM126.2 266.199C126.838 266.199 127.47 266.325 128.06 266.57C128.649 266.815 129.185 267.174 129.636 267.626C130.088 268.079 130.446 268.616 130.69 269.207C130.934 269.798 131.06 270.432 131.06 271.072C131.06 274.727 127.051 277.164 123.77 275.58C120.49 273.753 120.733 268.148 124.256 266.686C124.829 266.414 125.447 266.249 126.079 266.199H126.2Z" fill="black"/>
<path d="M105.911 177.134C105.404 177.165 104.925 177.393 104.567 177.775C104.208 178.157 103.995 178.666 103.967 179.205C103.967 179.804 104.191 180.378 104.59 180.801C104.989 181.225 105.529 181.463 106.093 181.463C106.657 181.463 107.198 181.225 107.597 180.801C107.995 180.378 108.219 179.804 108.219 179.205C108.206 178.904 108.134 178.61 108.008 178.34C107.883 178.07 107.706 177.83 107.49 177.636C107.273 177.442 107.021 177.297 106.75 177.211C106.478 177.124 106.193 177.098 105.911 177.134ZM106.033 177.865C106.419 177.865 106.79 178.006 107.063 178.257C107.337 178.509 107.49 178.85 107.49 179.205C107.49 179.56 107.337 179.901 107.063 180.153C106.79 180.404 106.419 180.545 106.033 180.545C105.646 180.545 105.275 180.404 105.002 180.153C104.728 179.901 104.575 179.56 104.575 179.205C104.575 179.029 104.612 178.855 104.686 178.692C104.759 178.529 104.866 178.382 105.002 178.257C105.137 178.133 105.298 178.034 105.475 177.967C105.652 177.899 105.841 177.865 106.033 177.865Z" fill="black"/>
</g>
</g>
<defs>
<clipPath id="clip0_103_1145">
<rect width="512" height="512" fill="white" transform="translate(0.5)"/>
</clipPath>
</defs>
</svg>
